<?xml version="1.0" encoding="utf-8"?>
<!-- Generator: Adobe Illustrator 22.0.1, SVG Export Plug-In . SVG Version: 6.00 Build 0)  -->
<svg version="1.1" id="レイヤー_1" xmlns="http://www.w3.org/2000/svg" xmlns:xlink="http://www.w3.org/1999/xlink" x="0px"
	 y="0px" viewBox="0 0 640 640" style="enable-background:new 0 0 640 640;" xml:space="preserve">
<style type="text/css">
	.st0{fill:none;stroke:#000000;stroke-width:0.5;stroke-miterlimit:10;}
	.st1{fill:none;stroke:#000000;stroke-width:0.25;stroke-miterlimit:10;}
</style>
<g>
	<g>
		<g>
			<path class="st0" d="M320.8,234c0,0-39.6,17.9-19.4,38c0,0-18.9,1-13.8,61.6c5.1,60.6,13.4,79.7,41.1,93.8"/>
			<polyline class="st0" points="290,269.1 284.8,271.7 293.3,278.7 			"/>
			<polyline class="st0" points="289.2,289.5 274.5,324.4 272.8,355.1 			"/>
			<polyline class="st0" points="286.8,322.1 278.3,326.6 277.7,390.6 264.3,412 			"/>
			<line class="st0" x1="306.8" y1="410.3" x2="296.5" y2="422.6"/>
			<path class="st0" d="M92.9,196.6c0,0,58.2-68.7,215.8,44.7"/>
			<path class="st0" d="M320.8,234c0,0,40.9,14.6,22.5,36.3c0,0,18.9-0.6,18.8,60.2s-6.8,80.5-33.3,96.8"/>
			<polyline class="st0" points="354.4,266.5 359.8,268.6 351.8,276.3 			"/>
			<polyline class="st0" points="356.8,286.7 374.3,320.3 378.5,350.8 			"/>
			<polyline class="st0" points="361.8,319 370.7,322.9 376.5,386.5 391.6,406.8 			"/>
			<line class="st0" x1="349.1" y1="408.5" x2="360.4" y2="420"/>
			<path class="st0" d="M544.9,178.1c0,0-63.6-63.7-211.4,62.1"/>
		</g>
	</g>
	<path class="st1" d="M361.7,352c0-1.1,0.1-2.3,0.1-3.5l-1.2-0.2L361.7,352z"/>
	<path class="st1" d="M356.8,344.8l4.4,15.8c0.2-2.8,0.3-5.6,0.4-8.7l-1-3.7l1.2,0.2c0-0.9,0.1-1.7,0.1-2.6L356.8,344.8z"/>
	<path class="st1" d="M353.1,341.5l7.5,26.9c0.2-2.5,0.4-5.1,0.6-7.7l-4.4-15.8l5.1,1c0-0.8,0-1.7,0.1-2.6L353.1,341.5z"/>
	<path class="st1" d="M361.9,343.3c0-0.8,0-1.6,0-2.5l-12.5-2.5l10.4,36.9c0.3-2.2,0.5-4.5,0.8-6.9l-7.5-26.9L361.9,343.3z"/>
	<path class="st1" d="M346,335.2l12.9,46.1c0.3-1.9,0.6-4,0.9-6.1l-10.4-36.9l12.5,2.5c0-0.8,0-1.6,0-2.4L346,335.2z"/>
	<path class="st1" d="M342.6,332.2l15.3,54.5c0.4-1.7,0.7-3.5,1.1-5.3L346,335.2l16,3.2c0-0.8,0-1.6,0-2.3L342.6,332.2z"/>
	<path class="st1" d="M306.8,410.4L306.8,410.4L306.8,410.4c4.4,5.7,9.7,10.1,16.3,14.1l-19.6-18.9
		C304.5,407.2,305.6,408.8,306.8,410.4z"/>
	<path class="st1" d="M339.3,329.2l17.4,62c0.4-1.5,0.8-3,1.2-4.7l-15.3-54.5l19.5,3.9c0-0.7,0-1.5,0-2.3L339.3,329.2z"/>
	<path class="st1" d="M362.1,331.6l-26-5.2l19.4,69c0.4-1.3,0.9-2.7,1.3-4.1l-17.4-62l22.8,4.6C362.1,333.1,362.1,332.3,362.1,331.6
		z"/>
	<path class="st1" d="M298.1,394.2c0.7,1.7,1.3,3.4,2.1,5l29,28c0.6-0.4,1.3-0.8,1.9-1.2L298.1,394.2z"/>
	<path class="st1" d="M362.1,329.4l-29.1-5.8l21.1,75.3c0.5-1.2,0.9-2.4,1.3-3.6l-19.4-69l26,5.2c0-0.3,0-0.6,0-0.9
		C362.1,330.3,362.1,329.9,362.1,329.4z"/>
	<path class="st1" d="M330,321l22.8,81.2c0.5-1,0.9-2.1,1.4-3.2L333,323.6l29.1,5.8c0-0.7,0-1.4,0-2.1L330,321z"/>
	<path class="st1" d="M332.8,424.9l-36.2-35c0.5,1.5,1,3,1.5,4.4l32.9,31.8C331.6,425.7,332.2,425.3,332.8,424.9z"/>
	<path class="st1" d="M327.1,318.4l24.3,86.5c0.5-0.9,1-1.8,1.4-2.8L330,321l32.1,6.4c0-0.7,0-1.4,0-2L327.1,318.4z"/>
	<path class="st1" d="M295.4,385.9c0.4,1.4,0.8,2.7,1.2,4l36.2,35c0.6-0.4,1.1-0.8,1.7-1.2L295.4,385.9z"/>
	<path class="st1" d="M324.2,315.8l25.7,91.6c0.5-0.8,1-1.6,1.4-2.5l-24.3-86.5l35,7c0-0.7,0-1.3,0-2L324.2,315.8z"/>
	<path class="st1" d="M294.4,382.3c0.3,1.3,0.6,2.5,1,3.7l39.1,37.8c0.5-0.4,1.1-0.8,1.6-1.2L294.4,382.3z"/>
	<path class="st1" d="M362,323.4c0-0.6,0-1.3-0.1-1.9l-40.4-8.1l27,96.2c0.5-0.7,1-1.5,1.4-2.2l-25.7-91.6L362,323.4z"/>
	<path class="st1" d="M293.6,378.8c0.3,1.2,0.5,2.3,0.8,3.4l41.6,40.2c0.5-0.4,1-0.8,1.5-1.2L293.6,378.8z"/>
	<path class="st1" d="M293,375.6c0.2,1.1,0.5,2.2,0.7,3.2l44,42.5c0.5-0.4,1-0.8,1.4-1.2L293,375.6z"/>
	<path class="st1" d="M318.8,311l28.2,100.6c0.5-0.7,1-1.3,1.4-2l-27-96.2l40.4,8.1c0-0.6,0-1.2-0.1-1.8L318.8,311z"/>
	<path class="st1" d="M345.5,251.2c-0.1-0.2-0.2-0.3-0.3-0.5l-0.2,0.1L345.5,251.2z"/>
	<path class="st1" d="M316.3,308.7l29.4,104.7c0.5-0.6,1-1.2,1.4-1.8L318.8,311l43,8.6c0-0.6-0.1-1.2-0.1-1.8L316.3,308.7z"/>
	<path class="st1" d="M292.4,372.5c0.2,1,0.4,2.1,0.6,3.1l46.1,44.5c0.5-0.4,0.9-0.8,1.3-1.2L292.4,372.5z"/>
	<path class="st1" d="M341.7,250.3l5.8,5.1c-0.4-1.5-1.1-2.9-2-4.2l-0.5-0.4l0.2-0.1c-0.3-0.5-0.7-0.9-1-1.4L341.7,250.3z"/>
	<path class="st1" d="M313.7,306.5l30.5,108.6c0.5-0.5,1-1.1,1.4-1.6l-29.4-104.7l45.5,9.1c0-0.6-0.1-1.2-0.1-1.7L313.7,306.5z"/>
	<path class="st1" d="M291.8,369.6c0.2,1,0.3,2,0.5,2.9l48,46.4c0.4-0.4,0.9-0.8,1.3-1.2L291.8,369.6z"/>
	<path class="st1" d="M344.2,249.3c-0.4-0.4-0.7-0.9-1.1-1.3l-4.7,1.8l9.6,8.5c-0.1-1-0.2-2-0.5-2.9l-5.8-5.1L344.2,249.3z"/>
	<path class="st1" d="M311.3,304.3l31.5,112.2l-51.4-49.7c0.2,0.9,0.3,1.9,0.5,2.8l49.8,48.1c0.9-0.9,1.8-1.8,2.6-2.7l-30.5-108.6
		l47.9,9.6c0-0.6-0.1-1.1-0.1-1.7L311.3,304.3z"/>
	<path class="st1" d="M341.9,246.8l-6.6,2.6l12.7,11.3c0.1-0.8,0.1-1.6,0-2.3l-9.6-8.5l4.7-1.8C342.7,247.6,342.3,247.2,341.9,246.8
		z"/>
	<path class="st1" d="M309,302.3l30.5,108.8L291,364.2c0.1,0.9,0.3,1.8,0.4,2.7l51.4,49.7l-31.5-112.2l50.3,10
		c0-0.6-0.1-1.1-0.1-1.6L309,302.3z"/>
	<path class="st1" d="M332.2,248.9l15.4,13.7c0.2-0.7,0.3-1.3,0.4-2l-12.7-11.3l6.6-2.6c-0.4-0.4-0.8-0.8-1.2-1.2L332.2,248.9z"/>
	<path class="st1" d="M306.7,300.2l29.6,105.6l-45.7-44.2c0.1,0.9,0.2,1.7,0.4,2.6l48.5,46.9L309,302.3l52.5,10.5
		c0-0.5-0.1-1.1-0.1-1.6L306.7,300.2z"/>
	<path class="st1" d="M304.5,298.2l28.7,102.4l-42.9-41.5c0.1,0.8,0.2,1.7,0.3,2.5l45.7,44.2l-29.6-105.6l54.7,10.9
		c0-0.5-0.1-1-0.1-1.6L304.5,298.2z"/>
	<path class="st1" d="M329.2,248.5l17.8,15.8c0.2-0.6,0.4-1.2,0.6-1.7l-15.4-13.7l8.5-3.3c-0.4-0.4-0.8-0.7-1.3-1.1L329.2,248.5z"/>
	<path class="st1" d="M302.3,296.3l27.9,99.3l-40.2-38.9c0.1,0.8,0.2,1.6,0.3,2.4l42.9,41.5l-28.7-102.4l56.7,11.3
		c0-0.5-0.1-1-0.1-1.5L302.3,296.3z"/>
	<path class="st1" d="M326.3,248.1l20.1,17.8c0.3-0.5,0.5-1,0.7-1.5l-17.8-15.8l10.2-4c-0.4-0.4-0.9-0.7-1.3-1L326.3,248.1z"/>
	<path class="st1" d="M300.2,294.5l27,96.3l-37.6-36.3c0.1,0.8,0.2,1.5,0.3,2.3l40.2,38.9l-27.9-99.3l58.7,11.7
		c-0.1-0.5-0.1-1-0.2-1.5L300.2,294.5z"/>
	<path class="st1" d="M323.5,247.7l22.1,19.6c0.3-0.5,0.5-0.9,0.8-1.4l-20.1-17.8l11.8-4.6c-0.4-0.3-0.9-0.7-1.3-1L323.5,247.7z"/>
	<path class="st1" d="M298.2,292.7l26.2,93.4l-35-33.9c0.1,0.7,0.2,1.5,0.3,2.2l37.6,36.3l-27-96.3l60.7,12.1
		c-0.1-0.5-0.1-1-0.2-1.4L298.2,292.7z"/>
	<path class="st1" d="M320.8,247.3l24,21.3c0.3-0.4,0.6-0.9,0.8-1.3l-22.1-19.6l13.2-5.2c-0.4-0.3-0.9-0.6-1.4-0.9L320.8,247.3z"/>
	<path class="st1" d="M351.8,276.4L351.8,276.4L351.8,276.4c-2.6-3.6-5.1-5-6.7-5.6l7.3,6.5C352.2,277,352,276.7,351.8,276.4z"/>
	<path class="st1" d="M298.2,292.7l62.5,12.5c-0.1-0.5-0.1-0.9-0.2-1.4l-64.3-12.8l25.4,90.6l-32.5-31.4c0.1,0.7,0.2,1.4,0.2,2.1
		l35,33.9L298.2,292.7z"/>
	<path class="st1" d="M318.2,246.9l25.7,22.8c0.3-0.4,0.6-0.8,0.9-1.2l-24-21.3l14.6-5.7c-0.5-0.3-0.9-0.6-1.4-0.9L318.2,246.9z"/>
	<path class="st1" d="M345.2,270.8l-1.3-1.1c-0.2,0.2-0.4,0.5-0.6,0.7C343.3,270.4,344,270.4,345.2,270.8z"/>
	<path class="st1" d="M294.3,289.2l24.7,87.9l-30.1-29.1c0.1,0.7,0.1,1.4,0.2,2.1l32.5,31.4l-25.4-90.6l64.3,12.8
		c-0.1-0.5-0.1-0.9-0.2-1.4L294.3,289.2z"/>
	<path class="st1" d="M333.5,240.3C333.5,240.3,333.5,240.3,333.5,240.3c-0.3-0.2-0.6-0.4-0.9-0.5l-17.1,6.7l39,34.6
		c-0.7-1.5-1.4-2.7-2.1-3.8l-7.3-6.5c-1.1-0.4-1.9-0.4-1.9-0.4c0.2-0.2,0.4-0.5,0.6-0.7l-25.7-22.8l15.9-6.2
		C333.9,240.5,333.7,240.4,333.5,240.3C333.5,240.3,333.5,240.3,333.5,240.3z"/>
	<path class="st1" d="M292.5,287.6l23.9,85.3l-27.7-26.8c0.1,0.7,0.1,1.3,0.2,2l30.1,29.1l-24.7-87.9l66,13.2
		c-0.1-0.4-0.1-0.9-0.2-1.3L292.5,287.6z"/>
	<path class="st1" d="M313.1,246.1l42.8,38c-0.4-1.1-0.9-2.1-1.3-3l-39-34.6l17.1-6.7c-0.5-0.3-0.9-0.5-1.4-0.8L313.1,246.1z"/>
	<path class="st1" d="M331.3,239c-0.5-0.3-0.9-0.5-1.4-0.8l-19.2,7.5l46.1,41c-0.3-0.9-0.6-1.8-1-2.6l-42.8-38L331.3,239z"/>
	<path class="st1" d="M290.7,286l23.2,82.7l-25.4-24.5c0.1,0.6,0.1,1.3,0.2,1.9l27.7,26.8l-23.9-85.3l67.7,13.5
		c-0.1-0.4-0.1-0.9-0.2-1.3L290.7,286z"/>
	<path class="st1" d="M290.6,284.8c-0.3,0.8-0.6,1.7-0.8,2.6l21.7,77.3l-23.1-22.4c0.1,0.6,0.1,1.2,0.2,1.9l25.4,24.5L290.7,286
		l69.3,13.8c-0.1-0.4-0.1-0.8-0.2-1.2L290.6,284.8z"/>
	<path class="st1" d="M308.4,245.4l49.2,43.7c-0.2-0.8-0.5-1.6-0.8-2.4l-46.1-41l19.2-7.5c-0.5-0.2-0.9-0.5-1.4-0.7L308.4,245.4z"/>
	<polygon class="st1" points="289.2,289.7 289.2,289.7 289.2,289.7 	"/>
	<path class="st1" d="M291,283.7c-0.1,0.3-0.3,0.7-0.4,1.1l69.1,13.8c-0.1-0.4-0.1-0.8-0.2-1.2L291,283.7z"/>
	<path class="st1" d="M306.1,245.1l52.1,46.3c-0.2-0.8-0.4-1.5-0.6-2.2l-49.2-43.7l20.2-7.9c-0.5-0.2-0.9-0.5-1.4-0.7L306.1,245.1z"
		/>
	<path class="st1" d="M289.2,289.6L289.2,289.6C289.2,289.7,289.2,289.7,289.2,289.6l19.9,71.2l-20.9-20.2c0.1,0.6,0.1,1.2,0.2,1.8
		l23.1,22.4l-21.7-77.3C289.6,288.1,289.4,288.9,289.2,289.6L289.2,289.6z"/>
	<path class="st1" d="M304.8,244.5c-0.2,0.2-0.4,0.4-0.6,0.6l54.6,48.4c-0.2-0.7-0.3-1.4-0.5-2.1l-52.1-46.3l21-8.3
		c-0.5-0.2-0.9-0.4-1.4-0.6L304.8,244.5z"/>
	<path class="st1" d="M304.2,245c0.2-0.2,0.4-0.4,0.6-0.6l-0.9,0.3L304.2,245z"/>
	<path class="st1" d="M288.6,292.1c0.2-0.8,0.4-1.7,0.5-2.4l0,0l-0.7,1.7L288.6,292.1z"/>
	<path class="st1" d="M306.8,357L288,338.8c0.1,0.6,0.1,1.2,0.2,1.7l20.9,20.2l-20-71.1c-0.2,0.8-0.4,1.6-0.5,2.4L306.8,357z"/>
	<path class="st1" d="M291.4,282.7c-0.1,0.3-0.3,0.7-0.4,1l68.5,13.7c-0.1-0.4-0.2-0.8-0.2-1.2L291.4,282.7z"/>
	<path class="st1" d="M307.5,242.3c-0.9,0.7-1.8,1.4-2.7,2.2l21-8.2c-0.5-0.2-0.9-0.4-1.4-0.6L307.5,242.3z"/>
	<path class="st1" d="M358.7,295l-66.8-13.3c-0.1,0.3-0.3,0.7-0.4,1l67.9,13.6c-0.2-1-0.4-1.9-0.6-2.8L304.2,245
		c-0.3,0.3-0.6,0.5-0.9,0.8L358.7,295z"/>
	<path class="st1" d="M304.6,353.3l-16.7-16.2c0,0.6,0.1,1.1,0.1,1.7l18.8,18.2l-18.2-64.9c-0.2,0.8-0.3,1.7-0.5,2.6L304.6,353.3z"
		/>
	<path class="st1" d="M308.7,241.4c0.7-0.5,1.5-1.1,2.2-1.5l-2.8,1.1C308.2,241.1,308.4,241.2,308.7,241.4z"/>
	<path class="st1" d="M310.8,239.8c-0.7,0.5-1.5,1-2.2,1.5c0,0,0,0,0,0c0,0,0,0,0,0c-0.4,0.3-0.8,0.6-1.2,0.9l17-6.7
		c-0.5-0.2-0.9-0.4-1.4-0.6L310.8,239.8z"/>
	<path class="st1" d="M302.5,246.6l52.4,46.5l-62.5-12.5c-0.2,0.3-0.3,0.6-0.5,1l66.8,13.3l-55.4-49.2
		C303,246.1,302.7,246.4,302.5,246.6z"/>
	<path class="st1" d="M302.5,349.8l-14.7-14.2c0,0.5,0.1,1.1,0.1,1.6l16.7,16.2l-16.5-58.7c-0.1,0.9-0.3,1.7-0.4,2.7L302.5,349.8z"
		/>
	<path class="st1" d="M315.5,236.9c-1.4,0.8-3,1.8-4.7,2.9l12.2-4.8c-0.5-0.2-1-0.4-1.4-0.5L315.5,236.9z"/>
	<path class="st1" d="M351.2,291.4l-58.4-11.7c-0.2,0.3-0.3,0.6-0.5,0.9l62.5,12.5l-52.4-46.5c-0.3,0.3-0.5,0.5-0.8,0.8L351.2,291.4
		z"/>
	<path class="st1" d="M300.4,346.3L287.6,334c0,0.5,0.1,1,0.1,1.6l14.7,14.2l-14.7-52.4c-0.1,0.9-0.2,1.8-0.3,2.8L300.4,346.3z"/>
	<path class="st1" d="M315.5,236.9l6.2-2.4c-0.6-0.2-0.9-0.3-0.9-0.3S318.6,235.1,315.5,236.9z"/>
	<path class="st1" d="M287.4,300.1c-0.1,0.9-0.2,1.9-0.3,2.9l11.2,39.9l-10.9-10.5c0,0.4,0.1,0.9,0.1,1.3c0,0.1,0,0.1,0,0.2
		l12.8,12.3L287.4,300.1z"/>
	<path class="st1" d="M347.7,289.7l-54.3-10.9c-0.2,0.3-0.3,0.6-0.5,0.9l58.4,11.7l-49.5-44c-0.2,0.3-0.5,0.5-0.7,0.8L347.7,289.7z"
		/>
	<path class="st1" d="M344.2,288L293.9,278c-0.2,0.3-0.3,0.5-0.5,0.8l0,0l0,0c0,0,0,0,0,0l54.3,10.9L301,248.3
		c-0.2,0.3-0.5,0.5-0.7,0.8L344.2,288z"/>
	<path class="st1" d="M296.4,339.7l-9-8.7c0,0.5,0.1,1,0.1,1.5l10.9,10.5L287.1,303c-0.1,1-0.1,2-0.2,3L296.4,339.7z"/>
	<path class="st1" d="M294.5,336.5l-7.2-7c0,0.5,0.1,0.9,0.1,1.4l9,8.7l-9.4-33.6c-0.1,1-0.1,2.1-0.1,3.1L294.5,336.5z"/>
	<path class="st1" d="M340.9,286.4l-46.4-9.3c-0.2,0.3-0.4,0.5-0.6,0.8l50.3,10.1l-43.9-39c-0.2,0.3-0.4,0.5-0.6,0.8L340.9,286.4z"
		/>
	<path class="st1" d="M292.6,333.5l-5.5-5.3c0,0.4,0.1,0.9,0.1,1.4l7.2,7l-7.7-27.4c0,1.1-0.1,2.2-0.1,3.3L292.6,333.5z"/>
	<path class="st1" d="M337.6,284.9l-42.6-8.5c-0.2,0.2-0.4,0.5-0.6,0.8l46.4,9.3l-41.2-36.6c-0.2,0.3-0.4,0.5-0.6,0.8L337.6,284.9z"
		/>
	<path class="st1" d="M299.1,250.7c-0.2,0.3-0.4,0.5-0.5,0.8l35.9,31.9l-38.8-7.7c-0.2,0.2-0.4,0.5-0.6,0.8l42.6,8.5L299.1,250.7z"
		/>
	<path class="st1" d="M286.7,315.8l4.1,14.7l-3.7-3.6c0,0.4,0,0.9,0.1,1.3l5.5,5.3l-5.9-21C286.7,313.6,286.7,314.7,286.7,315.8z"/>
	<path class="st1" d="M289.1,327.6l-2.1-2c0,0.4,0,0.8,0.1,1.3l3.7,3.6l-4.1-14.7c0,1.1,0,2.3,0.1,3.5L289.1,327.6z"/>
	<path class="st1" d="M331.4,281.9l-35-7c-0.2,0.2-0.5,0.5-0.7,0.7l38.8,7.7l-35.9-31.9c-0.2,0.3-0.3,0.5-0.5,0.8L331.4,281.9z"/>
	<path class="st1" d="M286.9,322.2l-0.2,0.1l0.2,0.8C286.9,322.7,286.9,322.5,286.9,322.2z"/>
	<path class="st1" d="M286.9,322.2L286.9,322.2c0,0.3,0,0.6,0,0.9l0.5,1.8l-0.4-0.4c0,0.4,0,0.8,0.1,1.2l2.1,2l-2.3-8.2
		C286.8,320.3,286.8,321.2,286.9,322.2L286.9,322.2z"/>
	<path class="st1" d="M328.5,280.5l-31.3-6.3c-0.2,0.2-0.5,0.4-0.8,0.7l35,7l-33.4-29.6c-0.2,0.3-0.3,0.5-0.4,0.8L328.5,280.5z"/>
	<path class="st1" d="M287.4,324.8l-0.5-1.8c0,0.4,0,0.9,0.1,1.4L287.4,324.8z"/>
	<path class="st1" d="M325.6,279.1l-27.6-5.5c-0.3,0.2-0.6,0.4-0.8,0.6l31.3,6.3l-30.9-27.4c-0.1,0.3-0.3,0.5-0.4,0.8L325.6,279.1z"
		/>
	<path class="st1" d="M322.8,277.8L299,273c-0.3,0.2-0.6,0.4-1,0.6l27.6,5.5l-28.4-25.2c-0.1,0.3-0.2,0.5-0.4,0.8L322.8,277.8z"/>
	<path class="st1" d="M320.1,276.5l-20-4c-0.3,0.1-0.7,0.3-1.2,0.5l23.9,4.8l-26-23.1c-0.1,0.3-0.2,0.5-0.3,0.8L320.1,276.5z"/>
	<path class="st1" d="M317.5,275.2l-16.4-3.3c0.1,0.1,0.1,0.2,0.2,0.2c0,0-0.5,0-1.2,0.3l20,4l-23.6-20.9c-0.1,0.3-0.2,0.5-0.3,0.8
		L317.5,275.2z"/>
	<path class="st1" d="M315,274l-14.6-2.9c0.3,0.3,0.5,0.6,0.8,0.9l16.4,3.3l-21.2-18.9c-0.1,0.3-0.2,0.6-0.2,0.8L315,274z"/>
	<path class="st1" d="M296.1,257.2c-0.1,0.3-0.1,0.6-0.2,0.9l16.6,14.8l-12.9-2.6c0.2,0.3,0.5,0.6,0.7,0.8L315,274L296.1,257.2z"/>
	<path class="st1" d="M310.1,271.6l-11.1-2.2c0.2,0.3,0.4,0.5,0.6,0.8l12.9,2.6L295.9,258c0,0.3-0.1,0.6-0.1,0.9L310.1,271.6z"/>
	<path class="st1" d="M307.8,270.5l-9.3-1.9c0.2,0.3,0.3,0.5,0.5,0.8l11.1,2.2l-14.4-12.7c0,0.3-0.1,0.6-0.1,0.9L307.8,270.5z"/>
	<path class="st1" d="M295.7,260.7l9.9,8.8l-7.6-1.5c0.1,0.2,0.3,0.5,0.5,0.7l9.3,1.9l-12.1-10.7
		C295.7,260.1,295.7,260.4,295.7,260.7z"/>
	<path class="st1" d="M295.7,260.7c0,0.3,0,0.6,0.1,0.9l7.6,6.8l-5.8-1.2c0.1,0.2,0.3,0.5,0.4,0.7l7.6,1.5L295.7,260.7z"/>
	<path class="st1" d="M301.3,267.4l-4-0.8c0.1,0.2,0.2,0.4,0.4,0.7l5.8,1.2l-7.6-6.8c0,0.3,0.1,0.7,0.1,1L301.3,267.4z"/>
	<path class="st1" d="M299.2,266.4l-2.3-0.5c0.1,0.2,0.2,0.4,0.3,0.6l4,0.8l-5.4-4.8c0.1,0.3,0.1,0.7,0.2,1L299.2,266.4z"/>
	<path class="st1" d="M297.2,265.4l-0.5-0.1c0.1,0.2,0.2,0.4,0.3,0.6l2.3,0.5l-3.1-2.7c0.1,0.4,0.2,0.7,0.3,1.1L297.2,265.4z"/>
	<path class="st1" d="M297.2,265.4l-0.8-0.7c0.1,0.2,0.1,0.4,0.2,0.6L297.2,265.4z"/>
</g>
</svg>
