<?xml version="1.0" encoding="utf-8"?>
<!-- Generator: Adobe Illustrator 22.0.1, SVG Export Plug-In . SVG Version: 6.00 Build 0)  -->
<svg version="1.1" id="レイヤー_1" xmlns="http://www.w3.org/2000/svg" xmlns:xlink="http://www.w3.org/1999/xlink" x="0px"
	 y="0px" viewBox="0 0 640 640" style="enable-background:new 0 0 640 640;" xml:space="preserve">
<style type="text/css">
	.st0{fill:#E50012;stroke:#E60012;stroke-width:0.4093;stroke-miterlimit:10;}
	.st1{fill:none;stroke:#E60012;stroke-width:0.4093;stroke-miterlimit:10;}
</style>
<g id="レイヤー_2_1_">
</g>
<g>
	<path class="st0" d="M202.4,362.5c-0.2,0.1-0.3,0.3-0.5,0.5l0.5-0.3C202.4,362.6,202.4,362.5,202.4,362.5z"/>
	<path class="st0" d="M248.3,336.3c0,0,0.1,0,0.2,0.1l0.5-0.3C248.8,336.2,248.5,336.3,248.3,336.3z"/>
	<path class="st1" d="M200.9,366.9c0,1.1,0.3,2.3,0.6,3.7c0,0.1,0.1,0.2,0.1,0.3l3-1.7c-0.4-0.9-0.7-1.6-0.9-2.3
		c-0.7-1.9-1-3.1-1.2-3.8c0-0.2-0.1-0.3-0.1-0.4l-0.5,0.3c0,0,0,0-0.1,0.1C201.2,364,200.9,365.3,200.9,366.9z"/>
	<path class="st1" d="M252.9,341.6l3-1.7c-0.3-0.3-0.6-0.6-0.9-0.9c-2.2-2.1-4.3-3.2-6.1-2.9l-0.5,0.3c0.3,0.3,1.1,1.1,2.4,2.6
		C251.4,339.7,252.1,340.6,252.9,341.6z"/>
	<path class="st1" d="M204,377.1l3.4-1.9c-0.2-0.3-0.3-0.6-0.4-0.9c-0.6-1.3-1.2-2.5-1.6-3.6c-0.2-0.5-0.4-0.9-0.6-1.4l-3,1.7
		c0.3,1,0.6,2.1,1.1,3.3C203.1,375.1,203.5,376.1,204,377.1z"/>
	<path class="st1" d="M254.1,343.3c0.8,1.1,1.6,2.3,2.5,3.7l3.4-1.9c-0.4-0.6-0.8-1.2-1.2-1.7c-1-1.3-1.9-2.4-2.9-3.4l-3,1.7
		C253.3,342.2,253.7,342.7,254.1,343.3z"/>
	<path class="st1" d="M259.7,351.6c0.1,0.2,0.3,0.5,0.4,0.7l3.4-2c-0.6-1-1.2-1.9-1.8-2.8c-0.6-0.9-1.1-1.7-1.7-2.5l-3.4,1.9
		c0.1,0.2,0.2,0.3,0.4,0.5C257.9,348.7,258.7,350.1,259.7,351.6z"/>
	<path class="st1" d="M206,381.4c0.2,0.5,0.5,0.9,0.7,1.4l3.4-2c-0.6-1.1-1.1-2.1-1.6-3c-0.5-0.9-0.9-1.8-1.3-2.6l-3.4,1.9
		c0.1,0.2,0.2,0.4,0.3,0.7C204.8,378.9,205.4,380.1,206,381.4z"/>
	<path class="st1" d="M263.2,357.5l3.4-1.9c-0.8-1.4-1.5-2.7-2.3-4c-0.3-0.4-0.5-0.9-0.8-1.3l-3.4,2c0.6,1.1,1.3,2.1,2,3.3
		C262.5,356.2,262.9,356.9,263.2,357.5z"/>
	<path class="st1" d="M207.9,384.9c0.6,1.1,1.2,2.1,1.8,3.2l3.4-1.9c-0.3-0.5-0.6-1-0.8-1.5c-0.7-1.2-1.3-2.3-1.8-3.4
		c-0.1-0.2-0.2-0.3-0.2-0.5l-3.4,2C207.1,383.4,207.5,384.2,207.9,384.9z"/>
	<path class="st1" d="M266.2,362.7l3.2-1.8c-0.2-0.4-0.4-0.9-0.7-1.3c-0.7-1.3-1.4-2.6-2.1-3.9c0,0,0,0,0,0l-3.4,1.9
		c0.4,0.7,0.8,1.3,1.2,2C265,360.5,265.6,361.6,266.2,362.7z"/>
	<path class="st1" d="M211.8,391.4c0.4,0.6,0.7,1.1,1.1,1.7l3.2-1.8c0,0,0,0,0,0c-0.7-1.1-1.3-2.2-1.9-3.3c-0.4-0.6-0.7-1.2-1-1.9
		l-3.4,1.9c0,0.1,0.1,0.1,0.1,0.2C210.5,389.3,211.1,390.4,211.8,391.4z"/>
	<path class="st1" d="M266.6,363.4c0.2,0.4,0.5,0.9,0.7,1.3c0.3,0.6,0.8,1.4,1.4,2.4c0.1,0.2,0.2,0.3,0.3,0.5l2.9-1.7
		c-0.4-0.9-0.8-1.7-1.3-2.6c-0.4-0.9-0.9-1.7-1.3-2.6l-3.2,1.8C266.3,362.9,266.4,363.2,266.6,363.4z"/>
	<path class="st1" d="M215.7,397.6c0.1,0.1,0.2,0.2,0.2,0.3l2.9-1.7c-0.4-0.7-0.7-1.3-1-1.8c-0.3-0.5-0.5-0.9-0.7-1.2
		c-0.4-0.7-0.8-1.4-1.2-2l-3.2,1.8c0.3,0.5,0.6,0.9,0.8,1.4C214.3,395.5,215,396.6,215.7,397.6z"/>
	<path class="st1" d="M271.9,372.4l2.5-1.4c0,0,0-0.1-0.1-0.1c-0.6-1.2-1.2-2.5-1.8-3.7c-0.2-0.4-0.4-0.8-0.6-1.2l-2.9,1.7
		c0.6,0.9,1.2,2,2,3.2C271.3,371.4,271.6,371.9,271.9,372.4z"/>
	<path class="st1" d="M219,402.6l2.5-1.4c-0.1-0.2-0.2-0.3-0.3-0.5c-0.6-1.1-1.2-2.1-1.7-3.1c-0.3-0.5-0.5-0.9-0.7-1.4l-2.9,1.7
		c0.6,0.9,1.2,1.8,1.8,2.7C218.2,401.4,218.6,402,219,402.6z"/>
	<path class="st1" d="M219.8,403.8c0.7,1,1.4,2,2.1,3c0.1,0.1,0.2,0.3,0.3,0.4l2.1-1.2c-0.4-0.7-0.9-1.4-1.3-2.2
		c-0.5-0.9-1-1.7-1.4-2.5l-2.5,1.4C219.3,403,219.6,403.4,219.8,403.8z"/>
	<path class="st1" d="M274.6,377.1l2.1-1.2c-0.2-0.5-0.4-0.9-0.6-1.4c-0.5-1.2-1.1-2.3-1.6-3.5l-2.5,1.4c0.4,0.7,0.8,1.4,1.2,2.1
		C273.6,375.4,274.1,376.2,274.6,377.1z"/>
	<path class="st1" d="M277,381.6c0,0.1,0.1,0.1,0.1,0.2l1.8-1c-0.4-0.9-0.8-1.8-1.2-2.7c-0.3-0.7-0.6-1.4-1-2.1l-2.1,1.2
		c0.2,0.3,0.4,0.6,0.5,0.9C275.8,379.2,276.4,380.4,277,381.6z"/>
	<path class="st1" d="M225.2,411.4l1.8-1c-0.2-0.2-0.3-0.5-0.5-0.7c-0.6-1-1.2-1.9-1.8-2.9c-0.2-0.3-0.3-0.5-0.5-0.8l-2.1,1.2
		c0.6,0.9,1.2,1.7,1.8,2.5C224.4,410.2,224.8,410.8,225.2,411.4z"/>
	<path class="st1" d="M228,415.3c0.1,0.1,0.1,0.2,0.2,0.3l1.7-1c-0.5-0.7-1-1.3-1.5-2.1c-0.5-0.7-1-1.4-1.4-2.1l-1.8,1
		c0.3,0.4,0.5,0.7,0.8,1.1C226.7,413.5,227.4,414.4,228,415.3z"/>
	<path class="st1" d="M278.5,385c0.2,0.5,0.4,1,0.6,1.5l1.7-1c-0.1-0.2-0.1-0.3-0.2-0.5c-0.5-1.1-1-2.2-1.5-3.4
		c-0.1-0.3-0.2-0.5-0.4-0.8l-1.8,1C277.6,382.9,278.1,383.9,278.5,385z"/>
	<path class="st1" d="M280.6,391.3l2.1-1.2c-0.2-0.5-0.5-1.1-0.7-1.7c-0.4-0.9-0.8-1.9-1.2-2.9l-1.7,1c0.2,0.6,0.5,1.3,0.7,1.9
		C280.2,389.4,280.4,390.3,280.6,391.3z"/>
	<path class="st1" d="M231.2,419.5l2.1-1.2c-0.1-0.1-0.2-0.2-0.3-0.3c-0.8-0.8-1.7-1.7-2.5-2.7c-0.2-0.2-0.4-0.5-0.6-0.7l-1.7,1
		c0.6,0.9,1.3,1.7,1.8,2.5C230.5,418.5,230.8,419,231.2,419.5z"/>
	<path class="st1" d="M273,398.8c0,0,0.9,0.3,2.5,0.9l1.1-0.6C275.7,399.2,274.5,399.1,273,398.8z"/>
	<path class="st1" d="M243.2,418.1c0.3-1.6,0.5-2.5,0.5-2.5c-0.4,1-0.7,1.8-1.1,2.5c-0.2,0.3-0.3,0.5-0.5,0.8l1.1-0.6
		C243.2,418.2,243.2,418.1,243.2,418.1z"/>
	<path class="st1" d="M232.1,420.7c0.8,1.1,1.5,2,2,2.6c0,0,0,0,0,0l4.6-2.6l-1.7,0c-1.2-0.4-2.4-1.3-3.7-2.4l-2.1,1.2
		C231.5,419.9,231.8,420.3,232.1,420.7z"/>
	<path class="st1" d="M281,394.8c-0.1,0.8-0.3,1.5-0.6,2.2l4.2-2.4c-0.3-0.8-0.7-1.7-1.2-2.9c-0.2-0.5-0.4-1-0.6-1.5l-2.1,1.2
		c0,0.1,0.1,0.2,0.1,0.3C280.9,392.8,281,393.8,281,394.8z"/>
	<path class="st1" d="M234.3,425.9c-0.3,0.6-0.5,1.5-0.7,2.5c0,0.2-0.1,0.5-0.1,0.7l8.5-4.9c0.1-0.3,0.1-0.6,0.2-0.8
		c0.2-0.9,0.3-1.8,0.5-2.6c0.2-1,0.4-1.8,0.5-2.5l-1.1,0.6c-0.7,1-1.5,1.6-2.3,1.9l-1,0l-4.6,2.6c0.7,0.9,1.1,1.4,1.1,1.4
		C234.9,424.9,234.6,425.3,234.3,425.9z"/>
	<path class="st1" d="M281.3,401.8l8.5-4.9c-2.3-0.9-4-1.2-4.6-0.7c0,0-0.2-0.5-0.5-1.3c0-0.1-0.1-0.2-0.1-0.3l-4.2,2.4
		c-0.2,0.4-0.4,0.7-0.7,1c-0.7,0.6-1.7,1-2.9,1.1l-1.1,0.6c1,0.3,2.2,0.8,3.7,1.3C279.9,401.2,280.6,401.5,281.3,401.8z"/>
	<path class="st1" d="M286.8,403.8l8.2-4.7c-0.9-0.4-1.7-0.8-2.5-1.1c-1-0.4-1.9-0.8-2.7-1.1l-8.5,4.9
		C283,402.4,284.8,403.1,286.8,403.8z"/>
	<path class="st1" d="M232.8,434.7l8.2-4.7c0.1-0.5,0.2-1,0.3-1.5c0.2-0.9,0.3-1.7,0.4-2.5c0.1-0.6,0.2-1.2,0.3-1.7l-8.5,4.9
		c-0.2,1.3-0.4,2.8-0.6,4.4C232.9,433.9,232.8,434.3,232.8,434.7z"/>
	<path class="st1" d="M292,405.9l7.6-4.4c-0.3-0.1-0.5-0.3-0.8-0.4c-1.4-0.7-2.7-1.4-3.9-2l-8.2,4.7c0.2,0.1,0.4,0.2,0.6,0.2
		C288.9,404.6,290.4,405.2,292,405.9z"/>
	<path class="st1" d="M232.5,439.9l7.6-4.4c0.1-0.7,0.2-1.5,0.4-2.2c0.1-0.8,0.3-1.6,0.4-2.4c0.1-0.3,0.1-0.6,0.2-0.9l-8.2,4.7
		c-0.1,1.3-0.2,2.8-0.3,4.3C232.5,439.3,232.5,439.6,232.5,439.9z"/>
	<path class="st1" d="M232.3,444c0,0.3,0,0.6,0,0.9l7-4c0.1-1,0.3-1.9,0.4-2.9c0.1-0.8,0.2-1.6,0.4-2.3c0-0.1,0-0.1,0-0.2l-7.6,4.4
		C232.4,441.2,232.4,442.6,232.3,444z"/>
	<path class="st1" d="M297,407.9l7-4c-1.5-0.8-3-1.6-4.4-2.4l-7.6,4.4c1,0.4,2,0.8,3,1.2C295.7,407.3,296.4,407.6,297,407.9z"/>
	<path class="st1" d="M232.2,449.6l6.4-3.6c0.2-1.6,0.4-3.2,0.6-4.7c0-0.1,0-0.3,0.1-0.4l-7,4c0,1.3-0.1,2.6-0.1,3.9
		C232.2,449.1,232.2,449.4,232.2,449.6z"/>
	<path class="st1" d="M308.2,406.3c-1.3-0.7-2.5-1.4-3.7-2.1c-0.2-0.1-0.3-0.2-0.4-0.2l-7,4c1.6,0.6,3.2,1.3,4.8,2L308.2,406.3z"/>
	<path class="st1" d="M302,410c1.4,0.6,2.9,1.3,4.3,1.9l5.8-3.3c-0.8-0.5-1.6-1-2.5-1.5c-0.5-0.3-1-0.6-1.5-0.9l-6.4,3.6
		C301.9,409.9,302,410,302,410z"/>
	<path class="st1" d="M232.2,454.3l5.8-3.3c0.1-1.3,0.3-2.6,0.5-3.9c0-0.3,0.1-0.7,0.1-1l-6.4,3.6c0,1.2,0,2.4,0,3.7
		C232.2,453.6,232.2,453.9,232.2,454.3z"/>
	<path class="st1" d="M232.2,458.7l5.3-3c0.1-1.1,0.2-2.2,0.3-3.2c0.1-0.5,0.1-1,0.2-1.5l-5.8,3.3c0,1.2,0,2.3,0,3.5
		C232.2,458.1,232.2,458.4,232.2,458.7z"/>
	<path class="st1" d="M310.7,413.9l5.3-3c-0.4-0.3-0.9-0.5-1.3-0.8c-0.8-0.5-1.7-1-2.5-1.5l-5.8,3.3c0.7,0.3,1.4,0.6,2.2,1
		C309.3,413.2,310,413.5,310.7,413.9z"/>
	<path class="st1" d="M196.3,491.4c-0.7-0.7-1.3-1.3-1.8-1.9c-0.4-0.5-0.7-0.9-0.9-1.3c-0.1,0.6,0,1.3,0.4,2
		c0.4,0.7,0.9,1.4,1.7,2.1c0.5,0.6,1.2,1.1,1.9,1.7c0.6,0.5,1.2,1,1.9,1.5c0.1,0,0.1,0.1,0.2,0.1l-1.7-3
		C197.3,492.4,196.8,491.9,196.3,491.4z"/>
	<path class="st1" d="M278.7,433.5c-1.3,0.6-2.4,1.4-3.6,2.4c-0.1,0.1-0.2,0.2-0.3,0.2c-1.6,0.5-3,1.2-4.3,2.1
		c-0.9,0.7-1.8,1.4-2.6,2.3c-0.6,0.7-1.2,1.4-1.8,2.2c-0.3,0.5-0.6,1-0.9,1.5l21.3-12.2C283.9,431.9,281.2,432.3,278.7,433.5z"/>
	<path class="st1" d="M232.3,462c0,0.3,0,0.7,0,1l4.8-2.8c0.1-0.9,0.1-1.8,0.2-2.7c0.1-0.6,0.1-1.3,0.2-1.9l-5.3,3
		C232.2,459.8,232.3,460.9,232.3,462z"/>
	<path class="st1" d="M314.9,415.8l4.8-2.8c-0.1-0.1-0.2-0.1-0.3-0.2c-1.1-0.7-2.3-1.4-3.4-2.1l-5.3,3c1.3,0.6,2.6,1.2,3.8,1.8
		C314.6,415.7,314.7,415.8,314.9,415.8z"/>
	<path class="st1" d="M323.2,415.3c-1.2-0.7-2.3-1.4-3.5-2.2l-4.8,2.8c1.3,0.6,2.6,1.3,3.9,2L323.2,415.3z"/>
	<path class="st1" d="M203.3,498.4c0.6,0.4,1.3,0.8,1.9,1.2c0.6,0.4,1.2,0.8,1.9,1.2c0.3,0.2,0.6,0.4,1,0.6l-1.5-2.6
		c-0.2-0.1-0.4-0.2-0.6-0.4c-0.7-0.4-1.3-0.8-1.9-1.2c-0.7-0.4-1.3-0.9-1.9-1.3c-0.7-0.5-1.3-0.9-2-1.4c-0.7-0.5-1.3-1-1.9-1.5
		c-0.1-0.1-0.2-0.1-0.2-0.2l1.7,3c0.6,0.4,1.1,0.8,1.8,1.3C202,497.5,202.6,497.9,203.3,498.4z"/>
	<path class="st1" d="M232.4,467.2l4.5-2.5c0-0.7,0.1-1.5,0.1-2.2c0.1-0.7,0.1-1.4,0.2-2.2l-4.8,2.8c0,1.1,0,2.1,0.1,3.1
		C232.3,466.5,232.3,466.8,232.4,467.2z"/>
	<path class="st1" d="M263.9,446.9c-0.3,0.7-0.6,1.4-0.8,2.1c-0.1,0.2-0.1,0.4-0.2,0.7l29.8-17c-1.9-0.4-4-0.7-6-0.7l-21.3,12.2
		c-0.1,0.2-0.3,0.5-0.4,0.7C264.6,445.5,264.2,446.2,263.9,446.9z"/>
	<path class="st1" d="M361.1,392.6c0.1,0.2,0.3,0.5,0.4,0.8l0.4-0.2C361.7,392.9,361.4,392.7,361.1,392.6z"/>
	<path class="st1" d="M362.5,396.9l1-0.6c-0.1-0.4-0.2-0.8-0.4-1.1c-0.3-0.9-0.8-1.6-1.2-2l-0.4,0.2c0.2,0.5,0.4,1.1,0.6,1.8
		C362.3,395.7,362.4,396.3,362.5,396.9z"/>
	<path class="st1" d="M232.4,471.2l4.2-2.4c0-0.6,0-1.2,0.1-1.9c0-0.8,0.1-1.6,0.1-2.3l-4.5,2.5c0,1,0,2,0.1,3
		C232.4,470.5,232.4,470.8,232.4,471.2z"/>
	<path class="st1" d="M262,453.1c-0.1,0.5-0.2,0.9-0.3,1.4l35.7-20.4c-0.5-0.2-1-0.3-1.5-0.5c-1-0.3-2.1-0.6-3.3-0.9l-29.8,17
		c-0.2,0.5-0.3,0.9-0.4,1.4C262.3,451.8,262.1,452.5,262,453.1z"/>
	<path class="st1" d="M209,501.9c0.6,0.4,1.2,0.7,1.8,1.1c0.6,0.3,1.2,0.7,1.8,1c0.6,0.3,1.2,0.7,1.8,1c0.4,0.2,0.8,0.4,1.2,0.7
		l-1.4-2.5c-0.3-0.1-0.5-0.3-0.8-0.4c-0.6-0.3-1.2-0.7-1.8-1c-0.6-0.4-1.2-0.7-1.9-1.1c-0.6-0.4-1.3-0.7-1.9-1.1
		c-0.4-0.3-0.9-0.5-1.3-0.8l1.5,2.6C208.4,501.5,208.7,501.7,209,501.9z"/>
	<path class="st1" d="M322.5,419.7l4.1-2.4c-0.9-0.5-1.7-1.1-2.7-1.7c-0.2-0.2-0.5-0.3-0.8-0.5l-4.5,2.5c0.4,0.2,0.8,0.4,1.2,0.6
		C320.8,418.9,321.7,419.3,322.5,419.7z"/>
	<path class="st1" d="M218,506.9c0.6,0.3,1.1,0.6,1.7,0.9c0.6,0.3,1.1,0.6,1.7,0.9c0.5,0.2,0.9,0.5,1.4,0.7l-1.4-2.4
		c-0.3-0.2-0.6-0.3-0.9-0.5c-0.6-0.3-1.1-0.6-1.7-0.9c-0.6-0.3-1.2-0.6-1.7-0.9c-0.6-0.3-1.2-0.6-1.8-1c-0.3-0.2-0.7-0.4-1-0.6
		l1.4,2.5c0.2,0.1,0.4,0.2,0.6,0.3C216.8,506.3,217.4,506.6,218,506.9z"/>
	<path class="st1" d="M326,421.7l4-2.3c-0.5-0.3-1-0.6-1.5-1c-0.6-0.4-1.2-0.7-1.8-1.1l-4.1,2.4c0.8,0.5,1.7,0.9,2.5,1.4
		C325.3,421.3,325.6,421.5,326,421.7z"/>
	<path class="st1" d="M363,400.5l1.2-0.7c-0.1-0.5-0.2-1-0.3-1.5c-0.1-0.7-0.3-1.4-0.5-2l-1,0.6c0.1,0.5,0.2,0.9,0.2,1.4
		C362.9,399,363,399.8,363,400.5z"/>
	<path class="st1" d="M232.6,475.1l4-2.3c0-0.5,0-1.1,0-1.6c0-0.8,0.1-1.6,0.1-2.4l-4.2,2.4c0,1,0.1,2,0.1,2.9
		C232.5,474.4,232.5,474.7,232.6,475.1z"/>
	<path class="st1" d="M261.3,457c-0.1,0.7-0.2,1.2-0.2,1.8l40.4-23.1c-1-0.5-2.4-1.1-4-1.6l-35.7,20.4c0,0.2-0.1,0.4-0.1,0.6
		C261.4,455.8,261.3,456.4,261.3,457z"/>
	<path class="st1" d="M232.7,478.8l3.8-2.2c0-0.5,0-1,0-1.5c0-0.8,0-1.6,0-2.4l-4,2.3c0,1,0.1,1.9,0.1,2.8
		C232.7,478.2,232.7,478.5,232.7,478.8z"/>
	<path class="st1" d="M363.1,401.4c0.1,0.9,0.1,1.8,0.2,2.8l1.3-0.8c-0.1-0.7-0.1-1.4-0.2-2c-0.1-0.6-0.1-1.1-0.2-1.6l-1.2,0.7
		C363.1,400.8,363.1,401.1,363.1,401.4z"/>
	<path class="st1" d="M224.6,510.4c0.5,0.3,1.1,0.5,1.6,0.8c0.5,0.3,1.1,0.5,1.6,0.8c0.5,0.3,1,0.5,1.5,0.8c0.1,0,0.1,0.1,0.2,0.1
		l-1.3-2.3c-0.4-0.2-0.8-0.4-1.2-0.6c-0.5-0.3-1.1-0.5-1.6-0.8c-0.5-0.3-1.1-0.6-1.6-0.8c-0.5-0.3-1.1-0.6-1.7-0.9
		c-0.2-0.1-0.5-0.3-0.7-0.4l1.4,2.4c0.1,0,0.2,0.1,0.2,0.1C223.6,509.8,224.1,510.1,224.6,510.4z"/>
	<path class="st1" d="M260.9,460.8c0,0.2,0,0.3,0,0.3c-0.1,0.5-0.2,1-0.2,1.5c0,0.1,0,0.2,0,0.2l44.5-25.4c-0.6-0.3-1.1-0.5-1.6-0.7
		c0,0-0.5-0.3-1.5-0.8c-0.2-0.1-0.4-0.2-0.6-0.3L261,458.8c0,0,0,0.1,0,0.1C260.9,459.8,260.9,460.4,260.9,460.8z"/>
	<path class="st1" d="M333.1,421.5c-0.2-0.1-0.3-0.2-0.5-0.3c-0.9-0.5-1.8-1.1-2.7-1.7l-4,2.3c1.1,0.6,2.2,1.3,3.3,1.9L333.1,421.5z
		"/>
	<path class="st1" d="M260.9,466.1c0,0.1,0,0.2,0.1,0.3l47.2-26.9c-0.5-0.4-1-0.8-1.5-1.1c-0.5-0.3-1-0.6-1.5-0.9l-44.5,25.4
		c0,0.5,0,1,0,1.5C260.7,464.9,260.8,465.5,260.9,466.1z"/>
	<path class="st1" d="M232.8,482.5l3.8-2.2c0-0.5-0.1-0.9-0.1-1.4c0-0.7,0-1.5-0.1-2.2l-3.8,2.2c0,1,0.1,1.9,0.1,2.7
		C232.8,481.9,232.8,482.2,232.8,482.5z"/>
	<path class="st1" d="M332.3,425.6l3.9-2.2c-0.9-0.6-1.9-1.2-3.1-2l-3.8,2.2c0.1,0,0.1,0.1,0.2,0.1
		C330.5,424.4,331.4,425,332.3,425.6z"/>
	<path class="st1" d="M232.3,514.2c0.5,0.2,1,0.5,1.5,0.7c0.5,0.2,1,0.5,1.4,0.7c0.3,0.1,0.5,0.2,0.7,0.3l-1.3-2.2
		c0,0-0.1,0-0.1-0.1c-0.5-0.2-0.9-0.5-1.5-0.7c-0.5-0.2-1-0.5-1.5-0.7c-0.5-0.2-1-0.5-1.5-0.7c-0.5-0.2-1-0.5-1.5-0.8
		c-0.1-0.1-0.2-0.1-0.4-0.2l1.3,2.3c0.5,0.2,0.9,0.4,1.3,0.7C231.4,513.7,231.9,514,232.3,514.2z"/>
	<path class="st1" d="M363.5,407.4c0,0.1,0,0.3,0,0.4l1.4-0.8c0-0.9-0.1-1.7-0.1-2.6c0-0.3-0.1-0.7-0.1-1l-1.3,0.8
		c0,0.1,0,0.2,0,0.2C363.4,405.4,363.4,406.4,363.5,407.4z"/>
	<path class="st1" d="M363.5,411.4l1.5-0.8c0-0.1,0-0.2,0-0.3c0-1,0-2-0.1-2.9c0-0.1,0-0.3,0-0.4l-1.4,0.8c0,0.8,0,1.6,0,2.5
		C363.5,410.6,363.5,411,363.5,411.4z"/>
	<path class="st1" d="M261.6,469.5C261.6,469.5,261.6,469.6,261.6,469.5l48.8-27.8c-0.4-0.4-0.7-0.8-1.1-1.1
		c-0.4-0.4-0.9-0.8-1.3-1.1l-47.2,26.9c0.1,0.5,0.2,0.9,0.3,1.4C261.3,468.4,261.4,468.9,261.6,469.5z"/>
	<path class="st1" d="M333.4,426.4c0.6,0.4,1.2,0.8,1.7,1.2l4-2.3c-0.6-0.4-1.4-0.9-2.4-1.5c-0.2-0.1-0.4-0.3-0.6-0.4l-3.9,2.2
		C332.7,425.9,333.1,426.1,333.4,426.4z"/>
	<path class="st1" d="M238,516.9c0.5,0.2,1,0.5,1.4,0.6c0.6,0.3,1.1,0.5,1.3,0.6c0.1,0.1,0.2,0.1,0.2,0.1c-0.3,0.5-0.2,1.2,0.2,2.2
		c0.2,0.5,0.4,1,0.7,1.6c0.2,0.4,0.5,0.9,0.8,1.4c0.2,0.4,0.5,0.8,0.8,1.3c0.3,0.4,0.5,0.8,0.8,1.2c0.3,0.4,0.5,0.8,0.8,1.2
		c0.3,0.4,0.5,0.7,0.8,1.1c0.3,0.4,0.5,0.7,0.8,1.1c0.3,0.3,0.5,0.7,0.8,1c0.3,0.3,0.5,0.7,0.8,1c0.3,0.3,0.5,0.7,0.8,1
		c0.3,0.3,0.5,0.6,0.8,1c0.2,0.3,0.5,0.6,0.8,0.9c0.2,0.3,0.5,0.6,0.7,0.9c0.2,0.2,0.4,0.4,0.6,0.7L240,515.2l-0.4,0.9
		c0,0-0.3-0.1-0.9-0.4c-0.4-0.2-0.8-0.4-1.4-0.7c-0.4-0.2-0.9-0.4-1.4-0.7c-0.4-0.2-0.8-0.4-1.3-0.6l1.3,2.2
		c0.2,0.1,0.5,0.2,0.7,0.3C237.1,516.5,237.6,516.7,238,516.9z"/>
	<path class="st1" d="M232.9,486l4-2.3c0-0.5-0.1-0.9-0.1-1.4c-0.1-0.7-0.1-1.3-0.1-2l-3.8,2.2c0,1.1,0.1,2,0.1,2.7
		C232.9,485.5,232.9,485.7,232.9,486z"/>
	<path class="st1" d="M337.7,429.6l3.5-2c-0.2-0.4-0.5-0.8-0.8-1.2c-0.1-0.1-0.2-0.2-0.3-0.3c0,0-0.4-0.3-1.1-0.7l-4,2.3
		c0.6,0.4,1.2,0.9,1.7,1.3C337.2,429.1,337.5,429.4,337.7,429.6z"/>
	<path class="st1" d="M363.5,414.9l1.5-0.9c0-0.3,0-0.6,0-0.9c0-0.9,0-1.7,0-2.6l-1.5,0.8c0,0.6,0,1.1,0,1.7
		C363.5,413.7,363.5,414.3,363.5,414.9z"/>
	<path class="st1" d="M252.7,536.8c0.2,0.3,0.5,0.6,0.7,0.8c0.2,0.3,0.5,0.5,0.7,0.8c0.2,0.3,0.5,0.5,0.7,0.8
		c0.2,0.3,0.4,0.5,0.7,0.8c0.2,0.3,0.4,0.5,0.7,0.8c0.2,0.2,0.4,0.5,0.6,0.7c0.2,0.2,0.4,0.5,0.6,0.7c0.2,0.2,0.4,0.5,0.6,0.7
		c0.2,0.2,0.4,0.5,0.6,0.7c0.2,0.2,0.4,0.5,0.6,0.7c0.2,0.2,0.4,0.4,0.6,0.7c0.2,0.2,0.4,0.4,0.6,0.6c0.2,0.2,0.4,0.4,0.6,0.6
		c0.2,0.2,0.4,0.4,0.6,0.6c0.2,0.2,0.4,0.4,0.5,0.6c0.2,0.2,0.4,0.4,0.5,0.6c0.2,0.2,0.4,0.4,0.5,0.6c0.2,0.2,0.3,0.4,0.5,0.6
		c0.2,0.2,0.3,0.4,0.5,0.6c0.1,0.1,0.1,0.1,0.2,0.2L244,514.5l-0.7-0.9l-0.9-1.3l-0.6-0.8l-1.8,3.7l11.7,20.5
		c0.1,0.1,0.1,0.1,0.2,0.2C252.2,536.2,252.4,536.5,252.7,536.8z"/>
	<path class="st1" d="M262.6,472.6l50-28.6c-0.3-0.4-0.7-0.8-1-1.2c-0.4-0.4-0.7-0.8-1.1-1.1l-48.8,27.9c0.1,0.5,0.3,1,0.5,1.6
		C262.2,471.6,262.4,472.1,262.6,472.6z"/>
	<path class="st1" d="M233.3,488.2c0.1,0.3,0.3,0.5,0.5,0.8l3.5-2c-0.1-0.5-0.2-1-0.2-1.6c-0.1-0.6-0.1-1.1-0.2-1.7l-4,2.3
		c0,0.8,0.1,1.3,0.1,1.3C233.1,487.6,233.2,487.9,233.3,488.2z"/>
	<path class="st1" d="M284,585.8L284,585.8C284,585.8,284,585.8,284,585.8L284,585.8z"/>
	<path class="st1" d="M363.4,418.3l1.5-0.9c0-0.5,0-1,0-1.5c0-0.6,0-1.2,0-1.9l-1.5,0.9c0,0.3,0,0.7,0,1
		C363.5,416.7,363.5,417.5,363.4,418.3z"/>
	<path class="st1" d="M234.5,489.9c0.4,0.5,0.8,0.9,1.4,1.3c0.2,0.2,0.5,0.4,0.8,0.6c0.3-0.8,0.8-1.4,1.5-1.8l2.9-1.6
		c-0.5,0-0.9-0.1-1.3-0.1c-1-0.1-1.7-0.1-2-0.1c-0.1,0-0.1,0-0.1,0c-0.1-0.4-0.1-0.7-0.2-1.1l-3.5,2
		C234,489.3,234.2,489.6,234.5,489.9z"/>
	<path class="st1" d="M338.1,431.4c-0.3,0.5-0.6,1.2-1,2l5.1-2.9c-0.1-0.6-0.2-1.1-0.3-1.6c-0.1-0.5-0.3-0.9-0.5-1.3l-3.5,2
		c0.3,0.2,0.6,0.5,0.9,0.7C338.6,430.3,338.4,430.7,338.1,431.4z"/>
	<path class="st1" d="M262.6,472.8c0.2,0.5,0.4,1,0.6,1.6c0.1,0.3,0.3,0.7,0.4,1l50.8-29c-0.3-0.4-0.7-0.9-1-1.3
		c-0.3-0.4-0.6-0.7-0.9-1l-50,28.6C262.6,472.6,262.6,472.7,262.6,472.8z"/>
	<path class="st1" d="M265.1,550.9c0.2,0.2,0.3,0.4,0.5,0.5c0.2,0.3,0.5,0.5,0.7,0.8c0.8,0.9,1.4,1.6,1.9,2.1c0.6,0.6,0.9,1,0.9,1
		s0.4,0.7,1.2,1.4c0.3,0.3,0.7,0.6,1.2,0.8c0.3,0.2,0.6,0.3,0.9,0.4c0.2,0.1,0.4,0.1,0.7,0.2l-10.8-18.9l-0.1-0.1l-0.6-0.8l-0.6-0.8
		l-0.6-0.8L260,536l-0.6-0.8l-0.6-0.8l-0.6-0.8l-0.6-0.9l-0.7-0.9l-0.7-0.9l-0.7-0.9l-0.7-0.9l-0.7-1l-0.7-1l-0.7-1l-0.8-1l-0.8-1
		l-0.8-1.1l-0.8-1.1l-0.8-1.1l-0.8-1.1l-0.9-1.1l-0.9-1.2l-0.9-1.2l-0.9-1.2l-0.3-0.3l20.3,35.5c0.1,0.1,0.2,0.2,0.3,0.4
		C264.8,550.6,265,550.7,265.1,550.9z"/>
	<path class="st1" d="M274,558.2c0.2,0,0.4,0,0.7,0c0.2,0,0.4,0,0.6,0c0.2,0,0.4,0,0.6-0.1c0.2,0,0.4-0.1,0.6-0.1
		c0.2,0,0.4-0.1,0.5-0.1c0,0,0.1,0,0.1,0l-1.6-2.8c0,0-0.1,0.1-0.1,0.1c-0.1,0.2-0.3,0.3-0.4,0.4c-0.2,0.2-0.3,0.3-0.3,0.3l-0.7-0.9
		l-2.3-3.1l-0.4-0.5l-0.4-0.5l-0.4-0.5l-0.4-0.5l-0.4-0.5l-0.4-0.5l-0.4-0.6l-0.4-0.6l-0.4-0.6l-0.4-0.6l-0.4-0.6l-0.5-0.6l-0.5-0.6
		l-0.5-0.6l-0.5-0.7l-0.5-0.7l-0.5-0.7l-0.5-0.7l-0.5-0.7l-0.5-0.7l-0.5-0.7l10.8,18.9c0,0,0.1,0,0.1,0
		C273.5,558.1,273.8,558.2,274,558.2z"/>
	<polygon class="st1" points="303.7,609.4 315.1,629.9 313.3,621 303.9,604.6 	"/>
	<path class="st1" d="M264.4,477.4c0.1,0.2,0.2,0.4,0.3,0.6l51.5-29.4c-0.4-0.5-0.7-1-1.1-1.4c-0.2-0.3-0.5-0.6-0.7-0.9l-50.8,29
		c0.1,0.2,0.1,0.4,0.2,0.6C264,476.4,264.2,476.9,264.4,477.4z"/>
	<path class="st1" d="M335.7,436.1c-0.3,0.6-0.6,1.2-0.9,1.9l7.5-4.3c0-0.8,0-1.6,0-2.3c0-0.3-0.1-0.6-0.1-0.9l-5.1,2.9
		c-0.1,0.1-0.1,0.2-0.2,0.4C336.5,434.5,336.1,435.3,335.7,436.1z"/>
	<path class="st1" d="M363.3,421.3c0,0.1,0,0.2,0,0.4l1.5-0.9c0-0.7,0-1.4,0.1-2.2c0-0.4,0-0.8,0-1.2l-1.5,0.9c0,0.1,0,0.2,0,0.3
		C363.4,419.5,363.4,420.4,363.3,421.3z"/>
	<path class="st1" d="M238.8,493.1c0.5,0.3,1,0.5,1.6,0.7c0.2,0.1,0.4,0.2,0.6,0.2c-0.2-1.3,0.4-2.7,1.6-3.4l3.6-2
		c-0.2,0-0.5,0-0.7-0.1c-0.7,0-1.3-0.1-1.9-0.1c-0.7,0-1.3-0.1-1.9-0.1c-0.2,0-0.4,0-0.6,0l-2.9,1.6c-0.7,0.4-1.2,1.1-1.5,1.8
		c0.2,0.2,0.5,0.3,0.7,0.5C237.8,492.5,238.3,492.8,238.8,493.1z"/>
	<path class="st1" d="M333.4,440.7c-0.3,0.6-0.6,1.2-0.8,1.7l9.3-5.3c0.1-0.3,0.1-0.6,0.2-1c0.1-0.8,0.2-1.6,0.2-2.4
		c0,0,0-0.1,0-0.1l-7.5,4.3c-0.1,0.1-0.1,0.3-0.2,0.4C334.1,439.2,333.8,439.9,333.4,440.7z"/>
	<path class="st1" d="M265.7,480.4c0,0.1,0.1,0.1,0.1,0.2l52-29.7c-0.4-0.5-0.7-1.1-1.1-1.6c-0.2-0.2-0.3-0.4-0.5-0.7L264.7,478
		c0.1,0.3,0.3,0.6,0.4,0.9C265.3,479.4,265.5,479.9,265.7,480.4z"/>
	<path class="st1" d="M241,494.1c0.3,0.1,0.6,0.3,1,0.4c0.5,0.2,1,0.4,1.6,0.6c0.5,0.2,1,0.3,1.6,0.5c0.2,0.1,0.4,0.1,0.6,0.2
		c-0.9-1.5-0.3-3.4,1.2-4.3l4.2-2.4c-0.1,0-0.2,0-0.3,0c-0.6,0-1.2-0.1-1.8-0.1c-0.6,0-1.2-0.1-1.8-0.1c-0.4,0-0.7-0.1-1.1-0.1
		l-3.6,2C241.3,491.4,240.7,492.7,241,494.1z"/>
	<path class="st1" d="M363.2,424.9l1.6-0.9c0,0,0-0.1,0-0.1c0-0.9,0.1-1.7,0.1-2.6c0-0.2,0-0.3,0-0.5l-1.5,0.9
		c0,0.8-0.1,1.5-0.1,2.2C363.2,424.3,363.2,424.6,363.2,424.9z"/>
	<polygon class="st1" points="304.2,598.2 303.9,604.6 313.3,621 311.1,610.2 	"/>
	<path class="st1" d="M278,557.6c0.2-0.1,0.3-0.1,0.5-0.2c0.2-0.1,0.3-0.1,0.5-0.2c0.1-0.1,0.3-0.1,0.4-0.2c0.1-0.1,0.3-0.1,0.4-0.2
		c0.1-0.1,0.3-0.1,0.4-0.2c0.1,0,0.1-0.1,0.2-0.1l-2.4-4.3c0,0-0.1,0.1-0.1,0.1c-0.1,0.1-0.2,0.3-0.3,0.4c-0.1,0.1-0.2,0.3-0.3,0.4
		c-0.1,0.1-0.2,0.3-0.3,0.4c-0.1,0.1-0.2,0.3-0.3,0.4c-0.1,0.1-0.2,0.3-0.3,0.4c-0.1,0.1-0.2,0.3-0.4,0.4c-0.1,0.1-0.2,0.2-0.3,0.3
		l1.6,2.8c0.1,0,0.2-0.1,0.4-0.1C277.7,557.7,277.9,557.6,278,557.6z"/>
	<path class="st1" d="M363,428.1l1.6-0.9c0-0.2,0-0.5,0-0.7c0-0.8,0.1-1.6,0.1-2.4l-1.6,0.9c0,0.5,0,1-0.1,1.5
		C363.1,427,363.1,427.6,363,428.1z"/>
	<path class="st1" d="M331.2,445.1c-0.3,0.5-0.5,1.1-0.8,1.6l10.6-6.1c0.2-0.7,0.4-1.5,0.5-2.2c0.1-0.5,0.2-0.9,0.3-1.4l-9.3,5.3
		c-0.1,0.2-0.2,0.3-0.2,0.5C331.9,443.7,331.6,444.4,331.2,445.1z"/>
	<path class="st1" d="M281,556.1c0.1-0.1,0.2-0.2,0.4-0.2c0.1-0.1,0.2-0.1,0.4-0.2c0.1-0.1,0.2-0.2,0.3-0.2c0.1-0.1,0.2-0.2,0.3-0.2
		c0.1-0.1,0.2-0.1,0.3-0.2c0.1-0.1,0.2-0.2,0.3-0.2c0,0,0.1-0.1,0.2-0.1l-2.9-5.2c-0.3,0.4-0.6,0.7-0.9,1.1c-0.4,0.5-0.9,1-1.2,1.5
		c-0.1,0.1-0.1,0.1-0.2,0.2l2.4,4.3c0.1,0,0.2-0.1,0.2-0.1C280.8,556.3,280.9,556.2,281,556.1z"/>
	<polygon class="st1" points="304.5,591.9 304.2,598.2 311.1,610.2 309,599.7 	"/>
	<path class="st1" d="M248.2,496.4c0.5,0.1,1,0.2,1.6,0.4c0.1,0,0.3,0.1,0.4,0.1l-0.3-0.5c-0.8-1.5-0.3-3.4,1.1-4.2l4.7-2.7
		c-0.5,0-1.1-0.1-1.6-0.1c-0.6,0-1.1-0.1-1.7-0.1c-0.5,0-1-0.1-1.4-0.1l-4.2,2.4c-1.5,0.9-2,2.8-1.2,4.3c0.3,0.1,0.7,0.2,1,0.3
		C247.2,496.1,247.7,496.2,248.2,496.4z"/>
	<path class="st1" d="M267,483l52.3-29.9c-0.4-0.6-0.8-1.2-1.2-1.8c-0.1-0.2-0.2-0.3-0.3-0.5l-52,29.7c0.2,0.4,0.4,0.8,0.6,1.3
		C266.6,482.2,266.8,482.6,267,483z"/>
	<path class="st1" d="M283.4,554.5c0.1-0.1,0.2-0.2,0.3-0.2c0.1-0.1,0.2-0.1,0.3-0.2c0.1-0.1,0.2-0.2,0.3-0.2
		c0.1-0.1,0.2-0.2,0.3-0.2c0.1-0.1,0.2-0.1,0.3-0.2c0.1-0.1,0.2-0.1,0.3-0.2c0.1-0.1,0.2-0.2,0.3-0.2c0.1-0.1,0.2-0.1,0.3-0.2
		c0.1-0.1,0.1-0.1,0.2-0.2l-3.3-5.8c-0.5,0.6-1,1.2-1.5,1.8c-0.3,0.3-0.5,0.6-0.7,0.9l2.9,5.2C283.3,554.6,283.4,554.6,283.4,554.5z
		"/>
	<path class="st1" d="M252.8,497.3c0.5,0.1,1,0.2,1.5,0.3c0,0,0.1,0,0.1,0l-0.4-0.8c-0.8-1.4-0.3-3.3,1.1-4.1l5.2-2.9
		c-0.4,0-0.9-0.1-1.3-0.1c-0.5-0.1-1-0.1-1.6-0.2c-0.5-0.1-1.1-0.1-1.6-0.1c0,0,0,0,0,0l-4.7,2.7c-1.5,0.8-2,2.7-1.1,4.2l0.3,0.5
		c0.4,0.1,0.7,0.2,1.1,0.2C251.8,497.2,252.3,497.2,252.8,497.3z"/>
	<path class="st1" d="M362.8,431.2l1.6-0.9c0-0.4,0.1-0.9,0.1-1.3c0-0.6,0.1-1.2,0.1-1.8l-1.6,0.9c0,0.3,0,0.6,0,0.9
		C362.9,429.8,362.9,430.5,362.8,431.2z"/>
	<polygon class="st1" points="304.8,585.8 304.5,591.9 309,599.7 306.9,589.5 	"/>
	<path class="st1" d="M329.2,449.4c-0.2,0.5-0.4,1-0.7,1.5l11.5-6.6c0.1-0.4,0.3-0.8,0.4-1.3c0.2-0.7,0.4-1.5,0.6-2.2
		c0,0,0-0.1,0-0.1l-10.6,6.1c-0.1,0.2-0.2,0.4-0.3,0.5C329.9,448,329.6,448.7,329.2,449.4z"/>
	<path class="st1" d="M267.7,484.6c0.1,0.2,0.2,0.5,0.4,0.7l52.6-30c-0.4-0.6-0.8-1.3-1.3-1.9c-0.1-0.1-0.1-0.2-0.2-0.3L267,483
		c0,0.1,0.1,0.2,0.1,0.2C267.3,483.7,267.5,484.1,267.7,484.6z"/>
	<path class="st1" d="M257.3,498.1c0.4,0.1,0.8,0.1,1.1,0.2l-0.5-0.8c-0.8-1.4-0.3-3.2,1.1-3.9l5.4-3.1c-0.3,0-0.7-0.1-1-0.1
		c-0.5-0.1-1-0.1-1.5-0.2c-0.5-0.1-1-0.1-1.5-0.2c-0.1,0-0.2,0-0.2,0l-5.2,2.9c-1.4,0.8-1.9,2.6-1.1,4.1l0.4,0.8
		c0.5,0.1,0.9,0.2,1.4,0.2C256.3,497.9,256.8,498,257.3,498.1z"/>
	<path class="st1" d="M362.7,433.9c0,0.1,0,0.2,0,0.4l1.6-0.9c0-0.6,0.1-1.2,0.1-1.9c0-0.4,0-0.8,0.1-1.1l-1.6,0.9
		c0,0.1,0,0.2,0,0.2C362.8,432.3,362.7,433.1,362.7,433.9z"/>
	<path class="st1" d="M286.1,552.3c0.1-0.1,0.1-0.1,0.2-0.2l0,0l0.4-0.4l0.8-0.8l0.6-0.6l-3.5-6.1c-0.1,0.1-0.2,0.2-0.3,0.3
		c-0.6,0.7-1.1,1.4-1.7,2.1c-0.1,0.1-0.1,0.1-0.2,0.2l3.3,5.8c0,0,0,0,0,0C285.9,552.5,286,552.4,286.1,552.3z"/>
	<path class="st1" d="M305.3,580.3l-0.1-0.2c0,0.1-0.1,0.1-0.1,0.2c-0.1,0.4-0.2,0.6-0.2,0.6s0.1-0.1,0.2-0.3l-0.3,5.3l2.1,3.7
		l-1.8-9C305.2,580.4,305.2,580.4,305.3,580.3z"/>
	<path class="st1" d="M327.4,453.4c-0.2,0.4-0.4,0.9-0.5,1.3l11.9-6.8c0.1-0.2,0.1-0.4,0.2-0.6c0.3-0.7,0.5-1.4,0.7-2.1
		c0.1-0.3,0.2-0.6,0.3-0.9l-11.5,6.6c-0.1,0.2-0.2,0.4-0.3,0.6C328,452.1,327.7,452.8,327.4,453.4z"/>
	<path class="st1" d="M269.1,487.3c0.1,0.1,0.1,0.2,0.2,0.3l52.8-30.2c0,0-0.1-0.1-0.1-0.1c-0.4-0.7-0.8-1.3-1.2-1.9c0,0,0,0,0-0.1
		l-52.6,30c0.1,0.2,0.2,0.4,0.3,0.6C268.6,486.4,268.9,486.8,269.1,487.3z"/>
	<path class="st1" d="M325.8,457.3c-0.1,0.4-0.3,0.7-0.4,1l12-6.8c0,0,0,0,0-0.1c0.3-0.7,0.6-1.4,0.8-2.1c0.2-0.5,0.4-1,0.6-1.5
		l-11.9,6.8c-0.1,0.2-0.2,0.5-0.3,0.7C326.3,456.1,326,456.7,325.8,457.3z"/>
	<path class="st1" d="M270.4,489.8l52.9-30.2c-0.1-0.1-0.1-0.2-0.2-0.3c-0.4-0.6-0.7-1.2-1.1-1.8l-52.8,30.2c0.2,0.3,0.3,0.7,0.5,1
		C270,489,270.2,489.4,270.4,489.8z"/>
	<path class="st1" d="M289.2,549.3l0.8-0.8l0.5-0.5l-3.7-6.5c-0.2,0.2-0.3,0.4-0.5,0.7c-0.5,0.7-1,1.3-1.5,1.9l3.5,6.1l0.2-0.2
		L289.2,549.3z"/>
	<path class="st1" d="M362.4,437.2l1.6-0.9c0,0,0,0,0,0c0.1-0.8,0.1-1.6,0.2-2.4c0-0.2,0-0.4,0-0.5l-1.6,0.9c0,0.7-0.1,1.4-0.1,2
		C362.5,436.6,362.5,436.9,362.4,437.2z"/>
	<path class="st1" d="M305.3,580.3c0.1-0.2,0.3-0.3,0.5-0.6c0.1-0.2,0.3-0.4,0.5-0.6c0.2-0.2,0.3-0.3,0.5-0.5
		c0.2-0.2,0.3-0.3,0.5-0.5c0.1-0.1,0.1-0.1,0.2-0.2l-0.8-1.3c-0.1,0.2-0.1,0.3-0.2,0.5c-0.1,0.2-0.2,0.3-0.2,0.5
		c-0.1,0.2-0.2,0.4-0.2,0.5c-0.1,0.2-0.2,0.4-0.2,0.5c-0.1,0.2-0.2,0.4-0.2,0.5c-0.1,0.2-0.2,0.4-0.2,0.6c-0.1,0.1-0.1,0.3-0.2,0.4
		L305.3,580.3C305.3,580.3,305.3,580.3,305.3,580.3z"/>
	<path class="st1" d="M362.2,440.1l1.6-0.9c0-0.2,0-0.4,0-0.6c0.1-0.7,0.1-1.5,0.2-2.3l-1.6,0.9c0,0.5-0.1,0.9-0.1,1.4
		C362.3,439.1,362.3,439.6,362.2,440.1z"/>
	<path class="st1" d="M291.4,547l0.7-0.7l0.4-0.4l-3.9-6.9c-0.2,0.2-0.3,0.5-0.5,0.7c-0.5,0.6-1,1.3-1.4,1.9l3.7,6.5l0.3-0.3
		L291.4,547z"/>
	<path class="st1" d="M264.3,498.9c0.5,0,0.9,0.1,1.3,0.1c0.1,0,0.2,0,0.2,0l-0.3-0.6c-0.7-1.3-0.3-3,1-3.7l69.3-39.6
		c0.3-0.6,0.5-1.1,0.7-1.7c0.3-0.6,0.6-1.3,0.8-1.9l-12,6.8c-0.1,0.3-0.2,0.6-0.3,0.9c-0.3,0.8-0.4,1.4-0.5,1.9l-0.4,0
		c-0.3-0.5-0.6-1-0.9-1.5l-52.9,30.2c0,0,0,0.1,0,0.1c0.2,0.4,0.4,0.8,0.7,1.2l-2.1,0c-0.2,0-0.4-0.1-0.7-0.1l-5.5,3.1
		c-1.3,0.8-1.8,2.5-1,3.8l0.4,0.8c0.2,0,0.5,0.1,0.7,0.1C263.4,498.8,263.8,498.8,264.3,498.9z"/>
	<path class="st1" d="M308.3,577c0.2-0.2,0.3-0.3,0.5-0.5c0.2-0.2,0.3-0.3,0.5-0.5c0.1-0.1,0.3-0.3,0.4-0.4l-1.4-2.4
		c0,0,0,0.1-0.1,0.1c-0.1,0.1-0.1,0.3-0.2,0.4c-0.1,0.1-0.1,0.3-0.2,0.4c-0.1,0.2-0.1,0.3-0.2,0.5c-0.1,0.2-0.1,0.3-0.2,0.5
		c-0.1,0.2-0.1,0.3-0.2,0.5c-0.1,0.2-0.1,0.3-0.2,0.5c-0.1,0.2-0.2,0.3-0.2,0.5c0,0,0,0,0,0l0.8,1.3c0.1-0.1,0.2-0.2,0.3-0.3
		C307.9,577.4,308.1,577.2,308.3,577z"/>
	<path class="st1" d="M293.6,544.8l0.7-0.7l0.4-0.4l-4.2-7.3c-0.6,0.8-1.2,1.7-1.9,2.6l3.9,6.9l0.3-0.3L293.6,544.8z"/>
	<polygon class="st1" points="356.6,445.9 356.6,445.9 356.6,445.9 	"/>
	<path class="st1" d="M362.2,440.9c-0.1,0.7-0.1,1.4-0.2,2l1.5-0.9c0-0.4,0.1-0.7,0.1-1.1c0-0.5,0.1-1.1,0.1-1.7l-1.6,0.9
		C362.2,440.3,362.2,440.6,362.2,440.9z"/>
	<path class="st1" d="M310.1,575.1c0.1-0.2,0.3-0.3,0.5-0.5c0.1-0.1,0.3-0.3,0.4-0.4c0.1-0.1,0.3-0.3,0.4-0.4
		c0.1-0.1,0.2-0.2,0.3-0.3l-2-3.4c0,0,0,0.1-0.1,0.1c-0.1,0.1-0.1,0.2-0.2,0.4c-0.1,0.1-0.1,0.3-0.2,0.4c-0.1,0.1-0.1,0.3-0.2,0.4
		c-0.1,0.1-0.1,0.3-0.2,0.4c-0.1,0.1-0.1,0.3-0.2,0.4c-0.1,0.1-0.1,0.3-0.2,0.4c-0.1,0.1-0.1,0.3-0.2,0.4c-0.1,0.1-0.1,0.2-0.2,0.3
		l1.4,2.4c0,0,0,0,0,0C309.8,575.4,310,575.3,310.1,575.1z"/>
	<path class="st1" d="M268.3,499.2c0.4,0,0.7,0,1.1,0.1l-0.2-0.3c-0.7-1.3-0.3-2.9,1-3.6l64-36.6c0.2-0.5,0.4-0.9,0.7-1.4
		c0.3-0.6,0.6-1.3,0.9-1.9c0-0.1,0.1-0.2,0.1-0.3l-69.3,39.6c-1.3,0.7-1.8,2.4-1,3.7l0.3,0.6c0.4,0,0.7,0.1,1.1,0.1
		C267.4,499.1,267.8,499.2,268.3,499.2z"/>
	<polygon class="st1" points="357.5,448 360.5,446.3 356.6,445.9 356.6,445.9 357.2,447.4 	"/>
	<path class="st1" d="M270.8,499.3c0.4,0,0.8,0,1.2,0.1c0.2,0,0.4,0,0.7,0l0,0c-0.7-1.2-0.3-2.8,1-3.5l58.7-33.5
		c0.2-0.4,0.4-0.8,0.6-1.3c0.3-0.6,0.6-1.2,0.9-1.9c0.1-0.2,0.2-0.3,0.2-0.5l-64,36.6c-1.3,0.7-1.7,2.3-1,3.6l0.2,0.3
		c0.1,0,0.1,0,0.2,0C270,499.3,270.4,499.3,270.8,499.3z"/>
	<path class="st1" d="M313.9,571.6L313.9,571.6l-1.6,1.3c0.1-0.1,0.3-0.3,0.4-0.4c0.1-0.1,0.3-0.3,0.4-0.4c0.1-0.1,0.3-0.3,0.4-0.4
		l0.2-0.2l-2.5-4.4c0,0,0,0.1-0.1,0.1c-0.1,0.1-0.1,0.2-0.2,0.3c-0.1,0.1-0.1,0.2-0.2,0.3c-0.1,0.1-0.1,0.2-0.2,0.3
		c-0.1,0.1-0.1,0.2-0.2,0.3c-0.1,0.1-0.1,0.2-0.2,0.3c-0.1,0.1-0.1,0.2-0.2,0.3c-0.1,0.1-0.1,0.2-0.2,0.3c-0.1,0.1-0.1,0.2-0.2,0.4
		c0,0.1-0.1,0.2-0.1,0.3l2,3.4c0,0,0.1-0.1,0.1-0.1L313.9,571.6z"/>
	<path class="st1" d="M295.6,542.8l0.6-0.6l0.5-0.5l-4.6-8.1l-1.6,2.7c0,0,0,0,0,0.1l4.2,7.3l0.2-0.2L295.6,542.8z"/>
	<path class="st1" d="M361.8,445.3c0,0.1,0,0.2,0,0.3l1.5-0.9c0-0.5,0.1-1,0.1-1.6c0-0.4,0.1-0.7,0.1-1.1l-1.5,0.9
		c0,0.1,0,0.2,0,0.2C361.9,444,361.8,444.7,361.8,445.3z"/>
	<path class="st1" d="M297.5,540.9l0.2-0.2l0.2-0.2l0.2-0.2l0.2-0.2l0.2-0.2l0.1-0.1l-5-8.7c0,0.1-0.1,0.2-0.1,0.2
		c-0.1,0.1-0.1,0.3-0.2,0.4c-0.1,0.1-0.1,0.3-0.2,0.4c-0.1,0.1-0.1,0.3-0.2,0.4c-0.1,0.1-0.1,0.3-0.2,0.4l-0.2,0l-0.5,0.8l4.6,8.1
		l0.1-0.1L297.5,540.9z"/>
	<path class="st1" d="M273.4,499.1l2.3,0c0,0.1,0.1,0.2,0.1,0.3c-0.3-1.1,0.1-2.3,1.1-2.9l53.5-30.5c0.2-0.4,0.4-0.8,0.7-1.2
		c0.3-0.6,0.6-1.1,0.9-1.8c0.1-0.2,0.2-0.4,0.3-0.6l-58.7,33.5c-1.2,0.7-1.7,2.3-1,3.5l0,0c0.2,0,0.4,0,0.6,0L273.4,499.1z"/>
	<path class="st1" d="M314.7,571.3l0.5-0.9l0.8-0.7l0,0l-0.7,0.6l0.2-0.3l0.5-0.4l-3.1-5.4c-0.4,0.7-0.7,1.4-1.1,2.1
		c-0.1,0.1-0.1,0.2-0.2,0.3c-0.1,0.1-0.1,0.2-0.2,0.3c0,0.1-0.1,0.1-0.1,0.2l2.5,4.4l0.2-0.2l0.1,0l-0.3,0.2l0,0l0.3-0.3
		L314.7,571.3z"/>
	<path class="st1" d="M358.1,449.5l0.2,0.5l4.7-2.7c0.1-0.5,0.1-1.2,0.2-2.1c0-0.2,0-0.4,0.1-0.6l-1.5,0.9c0,0.5-0.1,0.8-0.1,0.8
		l-1.1-0.1l-3,1.7L358.1,449.5z"/>
	<path class="st1" d="M371.5,602.4l-1,1.7c-0.5,0.1-1.1,0-1.8-0.3c-0.2-0.1-0.4-0.1-0.5-0.2l-3.4,1.9c0.4,0,0.7-0.1,1.1-0.1
		c0.8-0.1,1.5-0.3,2.2-0.5c1.2-0.3,2-0.6,2.4-0.8c0.1-0.1,0.2-0.1,0.2-0.1s2.2-1.5,4.3-4.3l-3.4,1.9
		C371.6,601.9,371.6,602.1,371.5,602.4z"/>
	<path class="st1" d="M359.2,452l4.9-2.8c-0.4-0.4-0.8-0.6-1.2-0.6c0,0,0-0.4,0.1-1.1c0,0,0-0.1,0-0.1l-4.7,2.7l0.6,1.5L359.2,452z"
		/>
	<path class="st1" d="M317.3,568.4c0.2-0.2,0.4-0.3,0.6-0.5l-3.6-6.3c-0.5,0.9-1,1.8-1.5,2.7l3.1,5.4l0.5-0.4
		C316.7,568.9,317,568.6,317.3,568.4z"/>
	<polygon class="st1" points="317.9,567.8 315.9,569.6 315.9,569.7 318,567.9 	"/>
	<path class="st1" d="M299.2,539.2l0.3-0.3l0.3-0.3l0.3-0.3l0.3-0.3l0.3-0.3l0.1-0.1l-21.3-37.4c-0.7-1.2-0.3-2.6,0.9-3.3l48.7-27.8
		c-0.1-0.1-0.1-0.2-0.2-0.3c0,0,0.2-0.3,0.4-0.8c0.2-0.4,0.6-1,1-1.7c0.1-0.2,0.2-0.3,0.3-0.5L277,496.5c-1,0.6-1.5,1.8-1.1,2.9
		c0.2,0.3,0.3,0.5,0.5,0.8c0.2,0.3,0.4,0.7,0.6,1c0.2,0.3,0.4,0.7,0.6,1c0.2,0.3,0.4,0.7,0.6,1c0.2,0.3,0.4,0.7,0.6,1
		c0.2,0.3,0.4,0.6,0.6,1c0.2,0.3,0.4,0.6,0.6,0.9c0.2,0.3,0.4,0.6,0.6,0.9c0.2,0.3,0.4,0.6,0.6,0.9c0.2,0.3,0.4,0.6,0.6,0.9
		c0.2,0.3,0.4,0.6,0.5,0.9c0.2,0.3,0.4,0.6,0.5,0.8c0.2,0.3,0.4,0.6,0.5,0.8c0.2,0.3,0.4,0.5,0.5,0.8c0.2,0.3,0.3,0.5,0.5,0.8
		c0.2,0.3,0.3,0.5,0.5,0.8c0.2,0.3,0.3,0.5,0.5,0.8c0.2,0.3,0.3,0.5,0.5,0.8c0.2,0.3,0.3,0.5,0.5,0.7c0.2,0.2,0.3,0.5,0.5,0.7
		c0.2,0.2,0.3,0.5,0.5,0.7c0.2,0.2,0.3,0.5,0.5,0.7c0.2,0.2,0.3,0.5,0.5,0.7c0.2,0.2,0.3,0.5,0.4,0.7c0.2,0.2,0.3,0.4,0.4,0.7
		c0.2,0.2,0.3,0.4,0.4,0.6c0.2,0.2,0.3,0.4,0.4,0.6c0.2,0.2,0.3,0.4,0.4,0.6c0.3,0.4,0.4,0.6,0.4,0.6c0,0,0,0,0,0
		c0.1,0.2,0.2,0.4,0.3,0.6c0.1,0.2,0.2,0.4,0.3,0.6c0.1,0.2,0.2,0.4,0.3,0.6c0.1,0.2,0.2,0.4,0.3,0.6c0.1,0.2,0.2,0.4,0.3,0.5
		c0.1,0.2,0.2,0.4,0.3,0.5c0.1,0.2,0.2,0.3,0.3,0.5c0.1,0.2,0.2,0.3,0.3,0.5c0.1,0.2,0.2,0.3,0.3,0.5c0.1,0.2,0.2,0.3,0.3,0.5
		c0,0,0,0.1,0.1,0.1c0.1,0.1,0.1,0.2,0.1,0.4c0,0.1,0,0.3,0,0.5c0,0.1,0,0.3-0.1,0.5c0,0.1-0.1,0.3-0.1,0.5c0,0.1-0.1,0.3-0.1,0.4
		c-0.1,0.1-0.1,0.3-0.2,0.4c0,0.1-0.1,0.1-0.1,0.2l5,8.7l0.2-0.2L299.2,539.2z"/>
	<path class="st1" d="M377,596.4c0-0.1,0.1-0.2,0.1-0.3l-5.4,3.1c0,0.9,0,1.7-0.1,2.4l3.4-1.9c0.1-0.2,0.2-0.3,0.4-0.5
		C376,598.3,376.5,597.4,377,596.4z"/>
	<path class="st1" d="M360,453.9l5.4-3.1c-0.5-0.7-0.9-1.2-1.3-1.6l-4.9,2.8l0.7,1.6L360,453.9z"/>
	<path class="st1" d="M315.9,559.1c-0.5,0.8-1,1.6-1.5,2.5l3.6,6.3c0.1-0.1,0.2-0.2,0.3-0.2c0.3-0.2,0.6-0.5,0.9-0.7l-1.2,1l0,0.1
		l2-1.7L315.9,559.1z"/>
	<path class="st1" d="M279.4,500.3l21.3,37.4l0.2-0.2l0.3-0.3l0.3-0.3l0.3-0.3l0.2,0c0.1,0.1,0.3,0.2,0.4,0.3
		c0.1,0.1,0.3,0.2,0.4,0.3c0.1,0.1,0.3,0.2,0.4,0.3c0.1,0.1,0.3,0.2,0.4,0.3c0.1,0.1,0.2,0.1,0.3,0.2l-21.3-37.3
		c-0.6-1.1-0.2-2.6,0.9-3.2l46.5-26.6c-0.2-0.4-0.4-0.8-0.6-1.2c-0.1-0.2-0.2-0.4-0.3-0.6L280.3,497
		C279.1,497.7,278.7,499.2,279.4,500.3z"/>
	<path class="st1" d="M367.3,603.1c-0.4-0.2-0.8-0.4-1.2-0.7l-5.4,3.1c0.5,0,0.9,0.1,1.4,0.1c0.6,0,1.3,0,1.8,0c0.3,0,0.6,0,0.9-0.1
		l3.4-1.9C367.9,603.4,367.6,603.3,367.3,603.1z"/>
	<path class="st1" d="M364.5,601.4c-0.1-0.1-0.2-0.1-0.3-0.2l-6.5,3.7c0.4,0.1,0.7,0.2,1.1,0.3c0.5,0.1,1.1,0.2,1.6,0.3
		c0.1,0,0.2,0,0.3,0l5.4-3.1c-0.1,0-0.2-0.1-0.2-0.1C365.4,602,365,601.7,364.5,601.4z"/>
	<path class="st1" d="M320.9,565.5c0.3-0.2,0.6-0.4,0.9-0.6c0.1,0,0.1-0.1,0.2-0.1l-4.5-7.9c-0.3,0.3-0.5,0.7-0.8,1.1
		c-0.3,0.4-0.5,0.8-0.8,1.2l4.1,7.2l0.1-0.1C320.3,566,320.6,565.7,320.9,565.5z"/>
	<path class="st1" d="M378.2,593.2l-6.5,3.7c0,0.6,0.1,1.2,0.1,1.7c0,0.2,0,0.4,0,0.5l5.4-3.1C377.5,595.2,377.9,594.3,378.2,593.2z
		"/>
	<path class="st1" d="M341.7,600.3c0.1,0.5,0.3,1,0.5,1.5c0.2,0.4,0.4,0.9,0.7,1.2c0.3,0.4,0.5,0.8,0.8,1.1c0.3,0.4,0.6,0.8,0.9,1
		l0.3-0.5l-3.2-5.6C341.6,599.5,341.6,599.9,341.7,600.3z"/>
	<path class="st1" d="M366.4,452.5c-0.3-0.6-0.7-1.2-1-1.7l-5.4,3.1l0.8,1.8L366.4,452.5z"/>
	<path class="st1" d="M304.4,538.4c0.2,0.1,0.3,0.2,0.5,0.3c0.2,0.1,0.3,0.2,0.5,0.3c0.2,0.1,0.3,0.2,0.5,0.3
		c0.2,0.1,0.4,0.2,0.5,0.3c0.2,0.1,0.4,0.2,0.6,0.3c0.2,0.1,0.4,0.2,0.6,0.2c0.1,0,0.2,0.1,0.3,0.1l-22.2-38.9
		c-0.6-1.1-0.2-2.5,0.8-3.1l44.3-25.3c-0.2-0.4-0.5-0.8-0.7-1.3c-0.1-0.2-0.2-0.3-0.3-0.5l-46.5,26.6c-1.1,0.6-1.5,2.1-0.9,3.2
		l21.3,37.3c0,0,0.1,0.1,0.1,0.1C304.1,538.2,304.3,538.3,304.4,538.4z"/>
	<polygon class="st1" points="421.9,569.2 421.5,568.5 421.3,568.6 	"/>
	<path class="st1" d="M367.3,454.2c-0.3-0.6-0.6-1.2-0.9-1.7l-5.7,3.2l0.8,1.8L367.3,454.2z"/>
	<path class="st1" d="M331,576.5c-0.1,0.6-0.1,1.1-0.1,1.6c0,0.4,0.1,0.8,0.2,1.2c0.1,0.3,0.2,0.6,0.3,0.9c0.1,0.3,0.3,0.5,0.4,0.8
		c0.2,0.2,0.3,0.5,0.5,0.7c0.2,0.2,0.4,0.4,0.6,0.6c0.2,0.2,0.4,0.4,0.6,0.5c0.2,0.2,0.5,0.3,0.7,0.5c0.2,0.2,0.5,0.3,0.7,0.4
		c0.3,0.1,0.5,0.3,0.8,0.4c0,0,0.1,0,0.1,0l-4.8-8.4C331.1,576.1,331,576.3,331,576.5z"/>
	<path class="st1" d="M371.5,594.8c0,0.3,0.1,0.6,0.1,0.9c0,0.4,0.1,0.8,0.1,1.3l6.5-3.7c0.2-0.8,0.4-1.6,0.5-2.5L371.5,594.8z"/>
	<path class="st1" d="M362.5,600l-7.2,4.1c0.2,0.1,0.4,0.2,0.6,0.2c0.5,0.2,0.9,0.3,1.4,0.5c0.1,0,0.3,0.1,0.4,0.1l6.5-3.7
		c-0.3-0.2-0.6-0.4-1-0.7C363,600.3,362.8,600.2,362.5,600z"/>
	<path class="st1" d="M322.6,564.3c0.3-0.2,0.6-0.4,0.8-0.5c0.2-0.1,0.4-0.2,0.6-0.3l-4.9-8.6c-0.3,0.3-0.6,0.7-1,1.1
		c-0.2,0.3-0.5,0.6-0.7,0.9l4.5,7.9C322.2,564.6,322.4,564.5,322.6,564.3z"/>
	<path class="st1" d="M309.1,540.5c0.4,0.1,0.7,0.2,1,0.2c0.1,0,0.1,0,0.2,0c0.1,0,0.2,0,0.3,0c0.1,0,0.2,0,0.3,0c0.1,0,0.1,0,0.2,0
		l-22.4-39.2c-0.6-1.1-0.2-2.4,0.8-3l42.3-24.1c-0.2-0.4-0.5-0.9-0.7-1.4c-0.1-0.1-0.1-0.2-0.2-0.3l-44.3,25.3
		c-1.1,0.6-1.5,2-0.8,3.1l22.2,38.9c0.1,0,0.3,0.1,0.4,0.1C308.6,540.3,308.8,540.4,309.1,540.5z"/>
	<path class="st1" d="M342.5,595.7c-0.5,0.9-0.8,1.7-0.9,2.6c0,0.3,0,0.5,0,0.8l3.2,5.6l1.4-2.4L342.5,595.7z"/>
	<polygon class="st1" points="419.8,567.3 421.3,568.6 421.5,568.5 420.5,566.8 	"/>
	<path class="st1" d="M325.1,562.9c0.3-0.1,0.5-0.3,0.8-0.4c0.1,0,0.2-0.1,0.3-0.1l-5.2-9.1c-0.1,0.1-0.3,0.2-0.4,0.2
		c-0.2,0.1-0.4,0.3-0.6,0.5c-0.3,0.2-0.5,0.4-0.8,0.7c0,0,0,0,0,0l4.9,8.6c0.1,0,0.2-0.1,0.2-0.1
		C324.6,563.2,324.8,563.1,325.1,562.9z"/>
	<path class="st1" d="M368.1,455.9c-0.3-0.6-0.5-1.2-0.8-1.7l-5.8,3.3l0.7,1.7L368.1,455.9z"/>
	<path class="st1" d="M311.5,540.9c0.1,0,0.2,0,0.3,0c0.1,0,0.2,0,0.3,0c0.1,0,0.2,0,0.3,0c0.1,0,0.2,0,0.3,0c0.1,0,0.2,0,0.3,0
		c0.1,0,0.2,0,0.3,0c0.1,0,0.2,0,0.3,0c0.1,0,0.1,0,0.2,0L291.6,502c-0.6-1-0.2-2.3,0.8-2.9l40.2-23c-0.2-0.5-0.5-0.9-0.7-1.4
		c0-0.1-0.1-0.2-0.1-0.2l-42.3,24.1c-1.1,0.6-1.4,1.9-0.8,3l22.4,39.2c0,0,0.1,0,0.1,0C311.3,540.9,311.4,540.9,311.5,540.9z"/>
	<path class="st1" d="M337.5,584.9c0.3,0.1,0.6,0.2,0.9,0.3c0.3,0.1,0.5,0.1,0.8,0.2l-7-12.3c-0.5,1-0.9,1.9-1.1,2.8l4.8,8.4
		c0.2,0.1,0.5,0.2,0.8,0.3C337,584.7,337.2,584.8,337.5,584.9z"/>
	<path class="st1" d="M343.2,593.3c0.2,0,0.4,0,0.6,0l-0.3-0.5L343.2,593.3z"/>
	<path class="st1" d="M378.8,588.5l-7.6,4.3c0,0.1,0,0.1,0,0.2c0.1,0.6,0.1,1.2,0.2,1.8l7.2-4.1c0-0.3,0.1-0.5,0.1-0.8
		C378.8,589.5,378.8,589,378.8,588.5z"/>
	<path class="st1" d="M344,593.8c-0.7,0.6-1.2,1.3-1.6,1.9l3.7,6.5l1.4-2.3L344,593.8z"/>
	<path class="st1" d="M360.9,598.7l-7.6,4.3c0,0,0,0,0,0c0.4,0.2,0.8,0.5,1.2,0.7c0.3,0.1,0.5,0.2,0.8,0.3l7.2-4.1
		c-0.2-0.1-0.3-0.2-0.5-0.3C361.7,599.3,361.3,599,360.9,598.7z"/>
	<polygon class="st1" points="418.3,566 419.8,567.3 420.5,566.8 419.6,565.2 	"/>
	<path class="st1" d="M327.4,562c0.2-0.1,0.5-0.1,0.7-0.2c0.1,0,0.2,0,0.2,0l-12-21c0,0.1-0.1,0.2-0.1,0.4c0,0.2-0.1,0.3-0.1,0.5
		c0,0.2,0,0.4,0,0.6c0,0.2,0,0.5,0.1,0.7c0,0.3,0.1,0.7,0.2,1c0.2,0.6,0.4,1.3,0.8,1.9c0.3,0.7,0.7,1.4,1.2,2.1
		c0.5,0.8,1.1,1.7,1.8,2.5c0.4,0.5,0.8,1,1.2,1.5c0.1,0.1,0.2,0.2,0.3,0.3c0.1,0.1,0.1,0.2,0.2,0.3c0.1,0.1,0.1,0.2,0.2,0.3L322,553
		c-0.1,0-0.3,0-0.4,0.1c-0.2,0.1-0.3,0.1-0.5,0.2c0,0-0.1,0.1-0.1,0.1l5.2,9.1c0.2-0.1,0.3-0.1,0.5-0.2
		C326.9,562.1,327.1,562.1,327.4,562z"/>
	<path class="st1" d="M339.4,585.4c0.3,0.1,0.7,0.2,1,0.2c0.4,0.1,0.7,0.1,1,0.2c0.3,0,0.5,0.1,0.7,0.1l-8.6-15.1
		c-0.5,0.8-1,1.5-1.3,2.2l7,12.3C339.3,585.4,339.4,585.4,339.4,585.4z"/>
	<path class="st1" d="M359.7,597.8c-0.1-0.1-0.2-0.2-0.3-0.3l-6.2,3.5c-1,0.6-2.3,0.2-2.8-0.8l-6.5-11.4c0,0.4,0,0.7,0,1.1
		c0,0.6,0.1,1.2,0.3,1.7l-0.6,1.1l0.3,0.5c0.4,0,0.6,0,0.7,0l-0.1,0.1c-0.1,0.1-0.2,0.2-0.4,0.3l3.5,6.1l0.7-1.2
		c0.3,0.3,0.6,0.7,0.9,1c0.3,0.3,0.6,0.6,1,0.9c0.3,0.3,0.7,0.6,1,0.9c0.4,0.3,0.7,0.6,1.1,0.8c0.4,0.3,0.8,0.5,1.2,0.7l7.6-4.3
		c0,0,0,0,0,0C360.5,598.4,360.1,598.1,359.7,597.8z"/>
	<path class="st1" d="M314.3,540.8c0.1,0,0.2,0,0.3-0.1c0.1,0,0.2,0,0.3-0.1c0.1,0,0.2-0.1,0.3-0.1c0.1,0,0.2-0.1,0.3-0.1
		c0.1,0,0.2-0.1,0.3-0.1c0.1,0,0.2-0.1,0.3-0.1l-21.7-37.9c-0.6-1-0.2-2.3,0.8-2.8l38.2-21.8c-0.2-0.5-0.5-1-0.8-1.5
		c0,0,0-0.1-0.1-0.1l-40.2,23c-1,0.6-1.4,1.9-0.8,2.9l22.2,38.8c0,0,0.1,0,0.1,0C314.1,540.8,314.2,540.8,314.3,540.8z"/>
	<path class="st1" d="M378.9,586.4l-7.9,4.5c0.1,0.6,0.2,1.3,0.3,1.9l7.6-4.3c0-0.6,0-1.2-0.1-1.8L378.9,586.4z"/>
	<path class="st1" d="M362.9,460.9l5.9-3.4c-0.2-0.6-0.5-1.1-0.7-1.7l-5.9,3.4l0.4,0.9L362.9,460.9z"/>
	<polygon class="st1" points="416.9,564.7 418.3,566 419.6,565.2 418.7,563.7 	"/>
	<path class="st1" d="M343.6,586.1c0.5,0,0.9,0.1,1.2,0.1c0,0,0.1,0,0.1,0l-9.9-17.3c-0.5,0.7-1,1.3-1.4,1.9l8.6,15.1
		c0.1,0,0.2,0,0.3,0.1C342.9,586.1,343.3,586.1,343.6,586.1z"/>
	<path class="st1" d="M329.5,561.6c0.2,0,0.4,0,0.6,0c0.2,0,0.4,0,0.6,0.1c0.1,0,0.1,0,0.2,0l-33.7-59c-0.5-1-0.2-2.2,0.7-2.7
		l36.3-20.7c0,0,0,0,0,0c-0.3-0.5-0.5-1-0.8-1.5c0,0,0,0,0-0.1l-38.2,21.8c-1,0.6-1.3,1.8-0.8,2.8l21.7,37.9c0,0,0,0,0.1,0
		c0.1,0,0.2-0.1,0.3-0.1c0.2-0.1,0.3-0.1,0.3-0.1c-0.1,0.1-0.1,0.2-0.2,0.3c-0.1,0.1-0.1,0.2-0.2,0.4c0,0,0,0.1,0,0.1l12,21
		c0.2,0,0.3-0.1,0.5-0.1C329,561.6,329.3,561.6,329.5,561.6z"/>
	<path class="st1" d="M357.9,596.3l-3.7,2.1c-1,0.5-2.2,0.2-2.7-0.7l-6.4-11.2c-0.8,0.5-1.1,1.4-1.2,2.4l6.5,11.4
		c0.6,1,1.8,1.3,2.8,0.8l6.2-3.5c-0.3-0.2-0.5-0.4-0.8-0.6C358.3,596.7,358.1,596.5,357.9,596.3z"/>
	<path class="st1" d="M370.7,589c0.1,0.5,0.1,0.9,0.2,1.4c0,0.1,0,0.3,0.1,0.4l7.9-4.5l1.8-3L370.7,589z"/>
	<path class="st1" d="M369.5,459.2c-0.2-0.6-0.5-1.1-0.7-1.6l-5.9,3.4l0.7,1.6L369.5,459.2z"/>
	<polygon class="st1" points="415.5,563.5 416.9,564.7 418.7,563.7 417.8,562.2 	"/>
	<path class="st1" d="M354.2,598.5l3.7-2.1c-0.1-0.1-0.3-0.3-0.4-0.4c-0.3-0.3-0.7-0.6-0.9-0.8l-1.4,0.8c-0.9,0.5-2.1,0.2-2.7-0.7
		l-52.6-92.1c-0.5-0.9-0.2-2.1,0.7-2.7l34.4-19.7c0,0,0,0,0-0.1c-0.2-0.5-0.5-1-0.7-1.4L297.9,500c-1,0.5-1.3,1.8-0.7,2.7l33.7,59
		c0.1,0,0.1,0,0.2,0l0.1,0.2l0.3,0.6l0.3,0.6l0.4,0.6l0.4,0.6l0.4,0.6l0.4,0.7l0.4,0.7l0.4,0.7l0.4,0.7l0.4,0.7l0.2,0.4
		c0,0-0.1,0.1-0.1,0.1l9.9,17.3c0.4,0,0.7,0,0.7,0c-0.2,0.1-0.4,0.2-0.5,0.2l6.4,11.2C352,598.7,353.2,599,354.2,598.5z"/>
	<path class="st1" d="M370.4,587.3c0,0.3,0.1,0.5,0.1,0.8c0.1,0.3,0.1,0.6,0.2,1l10-5.7l1.7-2.9L370.4,587.3z"/>
	<path class="st1" d="M370.1,460.7c-0.2-0.5-0.4-1.1-0.6-1.6l-5.9,3.4l0.7,1.6L370.1,460.7z"/>
	<polygon class="st1" points="414.2,562.3 415.5,563.5 417.8,562.2 416.9,560.7 	"/>
	<path class="st1" d="M383.2,578.1l-13.1,7.5c0,0.1,0,0.1,0,0.2c0.1,0.4,0.2,0.9,0.3,1.5l12-6.9l1.1-1.9
		C383.4,578.4,383.3,578.2,383.2,578.1z"/>
	<path class="st1" d="M357.5,593.2c0.6-0.1,1.3-0.3,1.9-0.6c0.8-0.3,1.6-0.6,2.2-1c0.6-0.4,1-0.8,1.3-1.3c0.4,0,0.8,0,1.3-0.2
		c0.9-0.3,1.9-1,2.7-1.8c0.8-0.7,1.6-1.5,2.2-2.2l-12.9,7.3C356.6,593.4,357,593.3,357.5,593.2z"/>
	<path class="st1" d="M370.7,462.3c0-0.1-0.1-0.2-0.1-0.3c-0.2-0.4-0.3-0.9-0.5-1.3l-5.9,3.4l0.6,1.5L370.7,462.3z"/>
	<path class="st1" d="M355.4,594.2l0.3-0.5c-0.8,0.2-1.7-0.1-2.2-0.9l-51-89.4c-0.5-0.9-0.2-2.1,0.7-2.6l32.6-18.6
		c0,0,0-0.1-0.1-0.1c-0.2-0.4-0.5-0.9-0.7-1.4l-34.4,19.7c-0.9,0.5-1.3,1.7-0.7,2.7l52.6,92.1c0.5,0.9,1.7,1.3,2.7,0.7l1.4-0.8
		c0,0-0.1-0.1-0.1-0.1C356,594.7,355.6,594.4,355.4,594.2z"/>
	<polygon class="st1" points="412.9,561.1 414.2,562.3 416.9,560.7 416.1,559.3 	"/>
	<path class="st1" d="M382.4,577.2c-0.1-0.1-0.2-0.2-0.4-0.3L357,591.2c-0.9,0.5-2,0.2-2.5-0.7L305,503.8c-0.5-0.9-0.2-2,0.7-2.5
		l30.9-17.6c0-0.1,0-0.1-0.1-0.1c-0.2-0.4-0.4-0.8-0.6-1.3l-32.6,18.6c-0.9,0.5-1.2,1.7-0.7,2.6l51,89.4c0.4,0.8,1.3,1.1,2.2,0.9
		l0.1-0.2c0.1,0,0.3-0.1,0.5-0.1l12.9-7.3c0.6-0.6,0.9-1.1,0.9-1.1s0,0.2,0.1,0.5l13.1-7.5C382.9,577.7,382.7,577.4,382.4,577.2z"/>
	<path class="st1" d="M371.3,463.8c-0.2-0.5-0.4-1-0.6-1.5l-5.8,3.3l0.6,1.5L371.3,463.8z"/>
	<polygon class="st1" points="411.6,560 412.9,561.1 416.1,559.3 415.3,557.9 	"/>
	<path class="st1" d="M380.6,575.9l-22.7,13c-0.8,0.5-1.9,0.2-2.4-0.7l-48-84.1c-0.5-0.8-0.2-1.9,0.7-2.4l29.1-16.6
		c0-0.1-0.1-0.1-0.1-0.2c-0.2-0.4-0.4-0.8-0.6-1.2l-30.9,17.6c-0.9,0.5-1.2,1.6-0.7,2.5l49.5,86.7c0.5,0.9,1.6,1.2,2.5,0.7
		l25.1-14.3c-0.3-0.2-0.6-0.5-0.9-0.7C380.9,576.1,380.7,576,380.6,575.9z"/>
	<path class="st1" d="M371.9,465.3c-0.2-0.5-0.4-1-0.5-1.5l-5.8,3.3l0.6,1.4L371.9,465.3z"/>
	<polygon class="st1" points="410.4,558.9 411.6,560 415.3,557.9 414.5,556.6 	"/>
	<path class="st1" d="M378.4,575.4l-19.7,11.3c-0.8,0.5-1.9,0.2-2.4-0.6l-46.6-81.6c-0.5-0.8-0.2-1.9,0.6-2.4l27.4-15.7
		c0-0.1-0.1-0.1-0.1-0.2c-0.2-0.4-0.4-0.8-0.6-1.2l-29.1,16.6c-0.8,0.5-1.1,1.6-0.7,2.4l48,84.1c0.5,0.8,1.6,1.1,2.4,0.7l22.7-13
		c-0.3-0.1-0.6-0.3-0.9-0.3C379.2,575.5,378.8,575.4,378.4,575.4z"/>
	<path class="st1" d="M372.4,466.7c-0.2-0.5-0.3-1-0.5-1.4l-5.7,3.3l0.6,1.4L372.4,466.7z"/>
	<polygon class="st1" points="413.7,555.3 409.2,557.8 410.4,558.9 414.5,556.6 	"/>
	<path class="st1" d="M376,575.7c-0.4,0.1-0.7,0.2-1.1,0.3c0,0-0.1-0.1-0.1-0.2l-15.2,8.7c-0.8,0.5-1.8,0.2-2.3-0.6l-45.2-79.1
		c-0.5-0.8-0.2-1.8,0.6-2.3l25.8-14.7c0-0.1-0.1-0.1-0.1-0.2c-0.2-0.4-0.4-0.8-0.6-1.1l-27.4,15.7c-0.8,0.5-1.1,1.5-0.6,2.4
		l46.6,81.6c0.5,0.8,1.5,1.1,2.4,0.6l19.7-11.3c-0.2,0-0.3,0-0.5,0C377.3,575.4,376.7,575.5,376,575.7z"/>
	<path class="st1" d="M372.9,468.1c-0.2-0.5-0.3-0.9-0.5-1.4l-5.7,3.2l0.6,1.4L372.9,468.1z"/>
	<polygon class="st1" points="408.1,556.8 409.2,557.8 413.7,555.3 413,554 	"/>
	<path class="st1" d="M367.9,472.6l5.5-3.1c-0.2-0.5-0.3-0.9-0.5-1.4l-5.6,3.2L367.9,472.6z"/>
	<path class="st1" d="M373.7,574.8l-13.4,7.7c-0.8,0.4-1.8,0.2-2.2-0.6l-43.8-76.7c-0.4-0.8-0.2-1.8,0.6-2.2l24.2-13.8
		c0-0.1,0-0.1-0.1-0.2c-0.2-0.4-0.4-0.7-0.5-1.1l-25.8,14.7c-0.8,0.5-1.1,1.5-0.6,2.3l45.2,79.1c0.5,0.8,1.5,1.1,2.3,0.6l15.2-8.7
		c-0.1-0.1-0.2-0.2-0.3-0.4C374.2,575.3,374,575,373.7,574.8z"/>
	<polygon class="st1" points="407,555.8 408.1,556.8 413,554 412.3,552.8 	"/>
	<path class="st1" d="M372.6,573.8l-11.5,6.6c-0.8,0.4-1.7,0.2-2.1-0.6l-42.5-74.4c-0.4-0.8-0.2-1.7,0.6-2.1l22.7-13
		c0,0,0-0.1-0.1-0.1c-0.2-0.3-0.3-0.7-0.5-1.1l-24.2,13.8c-0.8,0.4-1,1.4-0.6,2.2l43.8,76.7c0.4,0.8,1.4,1,2.2,0.6l13.4-7.7
		c-0.1-0.1-0.2-0.2-0.4-0.4C373.1,574.2,372.8,574,372.6,573.8z"/>
	<path class="st1" d="M373.8,470.8c-0.2-0.4-0.3-0.9-0.5-1.3l-5.5,3.1l0.5,1.3L373.8,470.8z"/>
	<polygon class="st1" points="405.9,554.8 407,555.8 412.3,552.8 411.6,551.6 	"/>
	<path class="st1" d="M316.4,505.4l42.5,74.4c0.4,0.8,1.4,1,2.1,0.6l11.5-6.6c-0.1-0.1-0.3-0.2-0.4-0.3c-0.3-0.2-0.6-0.4-0.9-0.5
		l-9.4,5.4c-0.7,0.4-1.7,0.2-2.1-0.6l-41.2-72.2c-0.4-0.7-0.2-1.7,0.6-2.1l21.2-12.1c-0.2-0.4-0.4-0.8-0.6-1.2l-22.7,13
		C316.3,503.7,316,504.6,316.4,505.4z"/>
	<path class="st1" d="M368.9,475.1l5.3-3c-0.1-0.4-0.3-0.9-0.4-1.3l-5.4,3.1l0.4,1.1L368.9,475.1z"/>
	<polygon class="st1" points="404.8,553.9 405.9,554.8 411.6,551.6 410.9,550.4 	"/>
	<path class="st1" d="M369.4,572.8c-0.2,0-0.4,0.1-0.5,0.2l-0.4,0.2c-0.1,0-0.1,0.1-0.2,0.1c0,0,0,0,0,0l-5.8,3.3
		c-0.7,0.4-1.6,0.2-2-0.6l-40-70c-0.4-0.7-0.2-1.6,0.6-2l19.7-11.3c-0.1-0.3-0.3-0.7-0.5-1.2l-21.2,12.1c-0.7,0.4-1,1.4-0.6,2.1
		l41.2,72.2c0.4,0.7,1.4,1,2.1,0.6l9.4-5.4c-0.1,0-0.2-0.1-0.3-0.1C370.4,572.8,369.9,572.7,369.4,572.8z"/>
	<path class="st1" d="M374.7,473.3c0-0.1-0.1-0.2-0.1-0.3c-0.1-0.3-0.2-0.7-0.3-1l-5.3,3l0.5,1.2L374.7,473.3z"/>
	<polygon class="st1" points="403.8,553 404.8,553.9 410.9,550.4 410.2,549.3 	"/>
	<path class="st1" d="M368.5,573.2l0.4-0.2C368.8,573,368.6,573.1,368.5,573.2z"/>
	<path class="st1" d="M363.3,574.7c-0.7,0.4-1.6,0.2-2-0.5l-38.8-67.9c-0.4-0.7-0.2-1.6,0.5-2l18.3-10.5c0,0,0-0.1-0.1-0.1
		c0,0-0.2-0.4-0.5-1l-19.7,11.3c-0.7,0.4-1,1.3-0.6,2l40,70c0.4,0.7,1.3,1,2,0.6l5.8-3.3c0.1-0.2,0.5-0.9,1-2L363.3,574.7z"/>
	<path class="st1" d="M375.1,474.6c-0.1-0.4-0.3-0.8-0.4-1.2l-5.3,3l0.5,1.2L375.1,474.6z"/>
	<polygon class="st1" points="410,549 409.1,548.5 402.8,552.1 403.8,553 410.2,549.3 	"/>
	<path class="st1" d="M375.5,475.7c-0.1-0.4-0.3-0.8-0.4-1.2l-5.2,3l0.5,1.1L375.5,475.7z"/>
	<path class="st1" d="M364,572.9c-0.7,0.4-1.5,0.1-1.9-0.5l-37.6-65.9c-0.4-0.7-0.1-1.5,0.5-1.9l17-9.7c-0.2-0.4-0.4-0.7-0.6-1.1
		l-18.3,10.5c-0.7,0.4-0.9,1.3-0.5,2l38.8,67.9c0.4,0.7,1.3,0.9,2,0.5l6-3.4c0.2-0.5,0.5-1.2,0.8-1.8L364,572.9z"/>
	<polygon class="st1" points="401.9,551.2 402.8,552.1 409.1,548.5 407.8,547.8 	"/>
	<path class="st1" d="M370.6,567.7l-6,3.4c-0.6,0.4-1.5,0.1-1.8-0.5l-36.5-63.9c-0.4-0.6-0.1-1.5,0.5-1.8l15.7-9
		c-0.2-0.3-0.4-0.7-0.6-1l-17,9.7c-0.7,0.4-0.9,1.2-0.5,1.9l37.6,65.9c0.4,0.7,1.2,0.9,1.9,0.5l6.1-3.5c0.1-0.3,0.3-0.7,0.4-1.1
		C370.5,568.1,370.6,567.9,370.6,567.7z"/>
	<path class="st1" d="M370.8,479.7l5-2.9c-0.1-0.4-0.2-0.8-0.4-1.1l-5.1,2.9L370.8,479.7z"/>
	<polygon class="st1" points="401,550.4 401.9,551.2 407.8,547.8 406.6,547.2 	"/>
	<path class="st1" d="M371.1,566.2l-5.8,3.3c-0.6,0.4-1.4,0.1-1.8-0.5l-35.4-62c-0.4-0.6-0.1-1.4,0.5-1.8l14.5-8.3
		c-0.2-0.3-0.3-0.7-0.5-1l-15.7,9c-0.6,0.4-0.9,1.2-0.5,1.8l36.5,63.9c0.4,0.6,1.2,0.9,1.8,0.5l6-3.4
		C370.8,567.2,371,566.7,371.1,566.2z"/>
	<path class="st1" d="M376.2,478c-0.1-0.4-0.2-0.7-0.4-1.1l-5,2.9l0.4,1.1L376.2,478z"/>
	<polygon class="st1" points="400.1,549.6 401,550.4 406.6,547.2 405.4,546.6 	"/>
	<path class="st1" d="M328.1,507l35.4,62c0.4,0.6,1.2,0.8,1.8,0.5l5.8-3.3c0.1-0.5,0.2-1,0.3-1.4l-5.5,3.1c-0.6,0.3-1.4,0.1-1.7-0.5
		l-34.4-60.1c-0.3-0.6-0.1-1.4,0.5-1.7l13.2-7.6c-0.2-0.3-0.3-0.7-0.5-1l-14.5,8.3C327.9,505.6,327.7,506.4,328.1,507z"/>
	<path class="st1" d="M376.5,479.1c-0.1-0.4-0.2-0.7-0.3-1.1l-4.9,2.8l0.4,1L376.5,479.1z"/>
	<polygon class="st1" points="399.2,548.8 400.1,549.6 405.4,546.6 404.2,545.9 	"/>
	<path class="st1" d="M371.5,563.4l-5,2.9c-0.6,0.3-1.3,0.1-1.7-0.5l-6-10.4c-0.1,0-0.2,0-0.3,0l-0.3-0.4l-0.6-1l-0.5-1l-2.7-4.7
		c0-0.1,0.1-0.2,0.1-0.4l-23.2-40.5c-0.3-0.6-0.1-1.3,0.5-1.7l12-6.9c-0.2-0.3-0.3-0.6-0.5-1l-13.2,7.6c-0.6,0.3-0.8,1.1-0.5,1.7
		l34.4,60.1c0.3,0.6,1.1,0.8,1.7,0.5l5.5-3.1c0-0.2,0.1-0.5,0.1-0.7C371.5,563.8,371.5,563.6,371.5,563.4z"/>
	<path class="st1" d="M376.9,480.1c-0.1-0.3-0.2-0.7-0.3-1l-4.8,2.7l0.4,1L376.9,480.1z"/>
	<polygon class="st1" points="398.4,548.1 399.2,548.8 404.2,545.9 403.1,545.3 	"/>
	<path class="st1" d="M367.1,564.7c-0.6,0.3-1.3,0.1-1.6-0.4l-5.2-9.1c-0.3,0-0.7,0.1-1,0.1c-0.1,0-0.3,0-0.4,0.1l6,10.4
		c0.3,0.6,1.1,0.8,1.7,0.5l5-2.9c0-0.4,0-0.8,0-1.2L367.1,564.7z"/>
	<path class="st1" d="M377.2,481.1c-0.1-0.3-0.2-0.7-0.3-1l-4.7,2.7l0.4,1L377.2,481.1z"/>
	<path class="st1" d="M355.4,546.6l-22.2-38.9c-0.3-0.6-0.1-1.3,0.4-1.6l10.9-6.2c-0.1-0.1-0.2-0.2-0.3-0.3
		c-0.1-0.2-0.2-0.4-0.3-0.6l-12,6.9c-0.6,0.3-0.8,1.1-0.5,1.7l23.2,40.5c0.1-0.2,0.1-0.4,0.2-0.5C355,547.2,355.2,546.9,355.4,546.6
		z"/>
	<polygon class="st1" points="402,544.8 397.5,547.3 398.4,548.1 403.1,545.3 	"/>
	<path class="st1" d="M356.1,545.7c0,0,0.1-0.1,0.1-0.1l-11.6-20.4c-0.1,0-0.2-0.1-0.3-0.1c-0.4-0.1-0.8-0.2-1.2-0.1l0,0
		c0.1-0.1,0.4-0.2,0.8-0.6c0,0,0.1-0.1,0.1-0.1l-9.3-16.3c-0.3-0.6-0.1-1.3,0.4-1.6l10.5-6c0,0-0.1,0-0.1,0c-0.5-0.1-0.8-0.3-1-0.5
		l-10.9,6.2c-0.6,0.3-0.8,1.1-0.4,1.6l22.2,38.9c0,0,0-0.1,0.1-0.1C355.7,546.3,355.9,546,356.1,545.7z"/>
	<path class="st1" d="M371.5,561.1l-3.8,2.2c-0.6,0.3-1.3,0.1-1.6-0.4l-4.4-7.7c-0.4,0-0.8,0-1.2,0.1c-0.1,0-0.2,0-0.2,0l5.2,9.1
		c0.3,0.6,1.1,0.8,1.6,0.4l4.4-2.5c0-0.3,0-0.5,0-0.8C371.5,561.3,371.5,561.2,371.5,561.1z"/>
	<path class="st1" d="M377.5,482.1c-0.1-0.3-0.2-0.7-0.3-1l-4.6,2.6l0.4,0.9L377.5,482.1z"/>
	<polygon class="st1" points="396.7,546.6 397.5,547.3 402,544.8 401,544.2 	"/>
	<path class="st1" d="M357.2,544.8l-5.2-9.1c-0.1,0.1-0.2,0.2-0.3,0.3c-0.1,0.1-0.1,0.2-0.2,0.2c-0.2-0.5-0.3-1-0.5-1.5
		c-0.4-1-0.8-2.1-1.2-3l-2.4-4.2c-0.4-0.6-0.9-1-1.3-1.4c-0.5-0.4-0.9-0.7-1.4-0.9l11.6,20.4c0.2-0.2,0.4-0.4,0.6-0.6
		C357,545,357.1,544.9,357.2,544.8z"/>
	<path class="st1" d="M368.2,561.8c-0.5,0.3-1.2,0.1-1.5-0.4l-3.6-6.3c0,0-0.1,0-0.1,0c-0.4,0-0.8,0-1.2,0c0,0-0.1,0-0.1,0l4.4,7.7
		c0.3,0.6,1,0.7,1.6,0.4l3.8-2.2c0-0.3-0.1-0.7-0.2-1L368.2,561.8z"/>
	<path class="st1" d="M345,523.3l-8.7-15.2c-0.3-0.5-0.1-1.2,0.4-1.5l10.5-6c-0.6-0.1-1.1-0.1-1.5-0.3l-10.5,6
		c-0.6,0.3-0.7,1-0.4,1.6l9.3,16.3c0.2-0.2,0.4-0.4,0.6-0.6C344.8,523.5,344.9,523.4,345,523.3z"/>
	<path class="st1" d="M373.3,485.6l4.5-2.6c-0.1-0.2-0.1-0.5-0.2-0.7c0-0.1-0.1-0.2-0.1-0.3l-4.6,2.6L373.3,485.6z"/>
	<polygon class="st1" points="396,545.9 396.7,546.6 401,544.2 399.9,543.7 	"/>
	<path class="st1" d="M370.9,559.1l-2.2,1.2c-0.5,0.3-1.2,0.1-1.5-0.4l-2.7-4.8c-0.1,0-0.2,0-0.3,0c-0.4,0-0.7,0-1.1-0.1l3.6,6.3
		c0.3,0.5,1,0.7,1.5,0.4l3-1.7c0-0.2-0.1-0.3-0.1-0.5C371.1,559.4,371,559.3,370.9,559.1z"/>
	<path class="st1" d="M378.1,484c-0.1-0.3-0.2-0.6-0.3-0.9l-4.5,2.6l0.4,0.9L378.1,484z"/>
	<path class="st1" d="M358.2,544.1l-5.1-9c-0.2,0.1-0.4,0.2-0.6,0.3c-0.2,0.1-0.3,0.2-0.5,0.3l5.2,9.1c0.2-0.1,0.3-0.2,0.5-0.4
		C357.8,544.3,358,544.2,358.2,544.1z"/>
	<path class="st1" d="M347.4,527.5l2.4,4.2C349,530.1,348.2,528.7,347.4,527.5z"/>
	<path class="st1" d="M345.7,522.2l-8-13.9c-0.3-0.5-0.1-1.2,0.4-1.5l10.8-6.1c-0.1,0-0.2,0-0.2,0c-0.6,0-1.1,0-1.5-0.1c0,0,0,0,0,0
		l-10.5,6c-0.5,0.3-0.7,1-0.4,1.5l8.7,15.2c0.1-0.2,0.3-0.3,0.4-0.5C345.5,522.6,345.6,522.4,345.7,522.2z"/>
	<polygon class="st1" points="395.2,545.3 396,545.9 399.9,543.7 398.9,543.1 	"/>
	<path class="st1" d="M337.8,508.3l8,13.9c0.1-0.1,0.2-0.2,0.3-0.4c0.1-0.2,0.3-0.5,0.4-0.8l-7.2-12.6c-0.3-0.5-0.1-1.2,0.4-1.4
		l11.2-6.4c-0.2,0-0.4,0-0.6,0c-0.5,0-0.9,0-1.3,0l-10.8,6.1C337.7,507.1,337.5,507.8,337.8,508.3z"/>
	<path class="st1" d="M359.2,543.4l-5-8.7c-0.3,0.1-0.5,0.1-0.7,0.2c-0.1,0.1-0.3,0.1-0.4,0.2l5.1,9c0.1-0.1,0.2-0.2,0.3-0.2
		C358.7,543.7,359,543.6,359.2,543.4z"/>
	<path class="st1" d="M369.3,559c-0.5,0.3-1.2,0.1-1.4-0.4l-1.8-3.2c-0.2,0-0.4-0.1-0.6-0.1c-0.3,0-0.6-0.1-0.9-0.1l2.7,4.8
		c0.3,0.5,1,0.7,1.5,0.4l2.2-1.2c-0.1-0.3-0.3-0.6-0.4-0.8L369.3,559z"/>
	<path class="st1" d="M378.4,484.9c-0.1-0.3-0.2-0.6-0.3-0.9l-4.4,2.5l0.4,0.9L378.4,484.9z"/>
	<polygon class="st1" points="394.5,544.6 395.2,545.3 398.9,543.1 397.9,542.6 	"/>
	<path class="st1" d="M370,557.6l-0.2,0.1c-0.5,0.3-1.1,0.1-1.4-0.4l-0.8-1.4c-0.3-0.1-0.7-0.3-1-0.4c-0.2,0-0.4-0.1-0.5-0.1
		l1.8,3.2c0.3,0.5,0.9,0.7,1.4,0.4l1.2-0.7c0,0,0-0.1-0.1-0.1C370.3,558,370.2,557.8,370,557.6z"/>
	<path class="st1" d="M360.2,542.9l-4.8-8.5c-0.3,0.1-0.6,0.1-0.8,0.2c-0.1,0-0.2,0.1-0.3,0.1l5,8.7c0.1-0.1,0.2-0.1,0.3-0.2
		C359.7,543.1,359.9,543,360.2,542.9z"/>
	<path class="st1" d="M347,519.8l-6.3-11.1c-0.3-0.5-0.1-1.1,0.4-1.4l11.8-6.7c-0.4,0-0.7,0-1.1,0.1c-0.3,0-0.6,0-0.9,0l-11.2,6.4
		c-0.5,0.3-0.7,0.9-0.4,1.4l7.2,12.6c0.1-0.1,0.1-0.2,0.2-0.3C346.7,520.5,346.8,520.1,347,519.8z"/>
	<path class="st1" d="M378.6,485.8c-0.1-0.3-0.2-0.6-0.3-0.9l-4.3,2.5l0.4,0.8L378.6,485.8z"/>
	<polygon class="st1" points="393.8,544 394.5,544.6 397.9,542.6 397,542.1 	"/>
	<path class="st1" d="M347.4,518.4l-5.4-9.5c-0.3-0.5-0.1-1.1,0.4-1.4l12.5-7.1c0,0,0,0,0,0c-0.5,0-1,0.1-1.5,0.1
		c-0.2,0-0.3,0-0.5,0l-11.8,6.7c-0.5,0.3-0.7,0.9-0.4,1.4l6.3,11.1c0-0.1,0.1-0.2,0.1-0.3C347.2,519.1,347.3,518.8,347.4,518.4z"/>
	<path class="st1" d="M378.9,486.7c-0.1-0.3-0.2-0.6-0.3-0.9l-4.2,2.4l0.3,0.8L378.9,486.7z"/>
	<path class="st1" d="M360.4,542.7c0.2-0.1,0.5-0.3,0.7-0.4l-4.7-8.2c-0.3,0-0.6,0.1-0.9,0.1c-0.1,0-0.2,0-0.3,0.1l4.8,8.5
		C360.2,542.8,360.3,542.8,360.4,542.7z"/>
	<path class="st1" d="M368.7,556.5c-0.3-0.2-0.7-0.4-1-0.5c0,0,0,0-0.1,0l0.8,1.4c0.3,0.5,0.9,0.7,1.4,0.4l0.2-0.1
		c-0.1-0.1-0.2-0.3-0.4-0.4C369.4,556.9,369,556.7,368.7,556.5z"/>
	<polygon class="st1" points="393.1,543.4 393.8,544 397,542.1 396.1,541.7 	"/>
	<path class="st1" d="M362.1,541.9l-4.5-7.8c-0.3,0-0.6,0.1-0.9,0.1c-0.1,0-0.2,0-0.3,0l4.7,8.2c0.1,0,0.2-0.1,0.2-0.1
		C361.6,542.1,361.8,542,362.1,541.9z"/>
	<path class="st1" d="M375.1,489.8l4.1-2.3c-0.1-0.3-0.2-0.5-0.2-0.8l-4.1,2.4l0.2,0.5L375.1,489.8z"/>
	<path class="st1" d="M347.8,516.8l-4.4-7.7c-0.3-0.5-0.1-1.1,0.4-1.3l13.2-7.5c-0.2,0-0.3,0-0.5,0.1c-0.5,0.1-1,0.1-1.6,0.1
		l-12.5,7.1c-0.5,0.3-0.6,0.9-0.4,1.4l5.4,9.5c0-0.1,0.1-0.2,0.1-0.4C347.6,517.6,347.7,517.2,347.8,516.8z"/>
	<polygon class="st1" points="392.4,542.8 393.1,543.4 396.1,541.7 395.2,541.2 	"/>
	<path class="st1" d="M347.9,515.1l-3.3-5.8c-0.3-0.4-0.1-1,0.3-1.3l14-8c-0.3,0-0.7,0.1-1,0.1c-0.4,0-0.7,0.1-1.1,0.1l-13.2,7.5
		c-0.5,0.3-0.6,0.9-0.4,1.3l4.4,7.7c0-0.2,0.1-0.3,0.1-0.5C347.9,515.9,347.9,515.5,347.9,515.1z"/>
	<path class="st1" d="M379.4,488.3c-0.1-0.3-0.2-0.5-0.2-0.8l-4.1,2.3l0.3,0.8L379.4,488.3z"/>
	<path class="st1" d="M363,541.5l-4.3-7.5c-0.3,0-0.5,0-0.8,0.1c-0.1,0-0.2,0-0.4,0l4.5,7.8c0.1,0,0.2-0.1,0.3-0.1
		C362.6,541.7,362.8,541.6,363,541.5z"/>
	<polygon class="st1" points="394.3,540.7 391.8,542.2 392.4,542.8 395.2,541.2 	"/>
	<path class="st1" d="M363.9,541.1l-4.1-7.2c-0.2,0-0.4,0-0.6,0c-0.2,0-0.3,0-0.5,0l4.3,7.5c0.1-0.1,0.3-0.1,0.4-0.2
		C363.6,541.2,363.8,541.2,363.9,541.1z"/>
	<path class="st1" d="M348,513.1l-2.1-3.7c-0.2-0.4-0.1-1,0.3-1.2l14.8-8.5c-0.5,0.1-1,0.1-1.4,0.2c-0.2,0-0.4,0-0.6,0.1l-14,8
		c-0.4,0.3-0.6,0.8-0.3,1.3l3.3,5.8c0-0.3,0-0.5,0-0.8C348,513.9,348,513.5,348,513.1z"/>
	<path class="st1" d="M379.6,489.1c-0.1-0.2-0.1-0.5-0.2-0.8l-4,2.3l0.3,0.7L379.6,489.1z"/>
	<polygon class="st1" points="391.2,541.6 391.8,542.2 394.3,540.7 393.5,540.3 	"/>
	<path class="st1" d="M376,492l3.8-2.2c-0.1-0.2-0.1-0.5-0.2-0.8l-3.9,2.2L376,492z"/>
	<path class="st1" d="M364.9,540.7l-3.9-6.9c-0.1,0-0.3,0-0.4,0c-0.2,0-0.5,0-0.7,0l4.1,7.2c0.2-0.1,0.4-0.2,0.6-0.2
		C364.6,540.8,364.7,540.8,364.9,540.7z"/>
	<path class="st1" d="M348,511.9l0.1-0.5l-1-1.8c-0.2-0.4-0.1-1,0.3-1.2l15.7-8.9c-0.1,0-0.1,0-0.2,0c-0.6,0.1-1.1,0.2-1.7,0.2
		c-0.1,0-0.1,0-0.2,0l-14.8,8.5c-0.4,0.2-0.6,0.8-0.3,1.2l2.1,3.7c0-0.5,0-0.9-0.1-1.4L348,511.9z"/>
	<polygon class="st1" points="390.6,541.1 391.2,541.6 393.5,540.3 392.7,539.9 	"/>
	<path class="st1" d="M365.7,540.4l-3.7-6.6c0,0-0.1,0-0.1,0c-0.3,0-0.6,0-0.9,0l3.9,6.9C365.1,540.6,365.4,540.5,365.7,540.4
		C365.7,540.4,365.7,540.4,365.7,540.4z"/>
	<path class="st1" d="M348.4,510.2l0.1,0l-0.2-0.4c-0.2-0.4-0.1-0.9,0.3-1.2l16.5-9.4c-0.2,0-0.4,0.1-0.5,0.1
		c-0.5,0.1-1,0.1-1.5,0.2l-15.7,8.9c-0.4,0.2-0.6,0.8-0.3,1.2l1,1.8L348.4,510.2L348.4,510.2z"/>
	<path class="st1" d="M380.1,490.6c-0.1-0.2-0.1-0.5-0.2-0.7L376,492l0.3,0.7L380.1,490.6z"/>
	<polygon class="st1" points="390,540.6 390.6,541.1 392.7,539.9 391.9,539.5 	"/>
	<path class="st1" d="M363,533.8c-0.4,0-0.7,0-1,0l3.7,6.6c0.3-0.1,0.6-0.2,0.9-0.3L363,533.8z"/>
	<path class="st1" d="M348.2,509.7l0.2,0.4l0.9-0.2l0,0c-0.2-0.4-0.1-0.9,0.3-1.1l17.4-9.9c-0.3,0-0.6,0.1-0.8,0.1
		c-0.4,0.1-0.8,0.1-1.2,0.2l-16.5,9.4C348.1,508.8,348,509.3,348.2,509.7z"/>
	<path class="st1" d="M380.3,491.3c0-0.1-0.1-0.3-0.1-0.5c0-0.1,0-0.1-0.1-0.2l-3.7,2.1l0.3,0.7L380.3,491.3z"/>
	<polygon class="st1" points="389.4,540.1 390,540.6 391.9,539.5 391.2,539.1 	"/>
	<path class="st1" d="M367.5,539.8l-3.4-5.9c-0.3,0-0.5,0-0.8,0c-0.1,0-0.2,0-0.2,0l3.6,6.3c0.1,0,0.1,0,0.2-0.1
		C367,539.9,367.2,539.8,367.5,539.8z"/>
	<path class="st1" d="M380.5,492c-0.1-0.2-0.1-0.3-0.1-0.3s0-0.1-0.1-0.4l-3.7,2.1l0.3,0.7L380.5,492z"/>
	<path class="st1" d="M350.4,509.7c0-0.3,0.1-0.6,0.4-0.7l18.3-10.5c-0.4,0.1-0.7,0.1-1.1,0.2c-0.3,0-0.6,0.1-0.9,0.1l-17.4,9.9
		c-0.4,0.2-0.5,0.7-0.3,1.1l0,0l0.2-0.1L350.4,509.7z"/>
	<polygon class="st1" points="388.9,539.6 389.4,540.1 391.2,539.1 390.4,538.7 	"/>
	<path class="st1" d="M380.8,492.6c-0.1-0.3-0.2-0.5-0.3-0.6l-3.6,2.1l0.3,0.6L380.8,492.6z"/>
	<path class="st1" d="M351.6,509.4c0.1-0.1,0.1-0.2,0.2-0.2l19.2-11c-0.4,0.1-0.8,0.1-1.3,0.2c-0.2,0-0.5,0.1-0.7,0.1L350.8,509
		c-0.3,0.2-0.4,0.4-0.4,0.7l0.5-0.1L351.6,509.4z"/>
	<path class="st1" d="M368,539.6c0.1,0,0.2-0.1,0.3-0.1l-3.2-5.7c-0.1,0-0.2,0-0.3,0c-0.2,0-0.4,0-0.7,0l3.4,5.9
		C367.6,539.7,367.8,539.6,368,539.6z"/>
	<polygon class="st1" points="388.3,539.1 388.9,539.6 390.4,538.7 389.7,538.3 	"/>
	<path class="st1" d="M353.4,508.9l0.3-0.1l19.2-11c-0.4,0.1-0.9,0.2-1.4,0.2c-0.2,0-0.3,0.1-0.5,0.1l-19.2,11
		c-0.1,0.1-0.2,0.1-0.2,0.2l0.5-0.1L353.4,508.9z"/>
	<path class="st1" d="M381,493.3c-0.1-0.2-0.1-0.5-0.2-0.7l-3.6,2.1l0.3,0.6L381,493.3z"/>
	<path class="st1" d="M366,533.9c-0.3,0-0.6,0-1,0l3.2,5.7c0.3-0.1,0.5-0.2,0.8-0.3L366,533.9z"/>
	<polygon class="st1" points="387.8,538.6 388.3,539.1 389.7,538.3 389,537.9 	"/>
	<path class="st1" d="M369.9,539l-2.9-5.1c-0.3,0-0.5,0-0.8,0c-0.1,0-0.1,0-0.2,0l3.1,5.4c0,0,0.1,0,0.1,0
		C369.4,539.1,369.7,539,369.9,539z"/>
	<path class="st1" d="M381.1,493.9c0-0.2-0.1-0.5-0.1-0.7l-3.6,2l0.3,0.6L381.1,493.9z"/>
	<path class="st1" d="M356.1,508.2l18.8-10.7c-0.5,0.1-0.9,0.2-1.5,0.3c-0.1,0-0.3,0.1-0.4,0.1l-19.2,11l1-0.3L356.1,508.2z"/>
	<polygon class="st1" points="388.3,537.6 387.3,538.2 387.8,538.6 389,537.9 	"/>
	<path class="st1" d="M370.6,538.7l-2.7-4.8c-0.1,0-0.1,0-0.2,0c-0.2,0-0.5,0-0.7,0l2.9,5.1c0.2-0.1,0.4-0.1,0.6-0.2
		C370.5,538.8,370.6,538.8,370.6,538.7z"/>
	<path class="st1" d="M381.1,494.6c0-0.2,0-0.5,0-0.7l-3.4,2l0.2,0.6L381.1,494.6z"/>
	<path class="st1" d="M357.5,507.9l0.9-0.2l18.4-10.5c-0.4,0.1-0.9,0.2-1.5,0.3c-0.1,0-0.3,0-0.4,0.1l-18.8,10.7l0,0L357.5,507.9z"
		/>
	<polygon class="st1" points="386.8,537.7 387.3,538.2 388.3,537.6 387.7,537.2 	"/>
	<path class="st1" d="M368.8,534c-0.3,0-0.6,0-0.9,0l2.7,4.8c0.2-0.1,0.5-0.1,0.7-0.2L368.8,534z"/>
	<path class="st1" d="M378.1,496.9c0,0-0.3,0.1-0.9,0.2c-0.1,0-0.3,0.1-0.4,0.1l-18.4,10.5l0.5-0.1l1.4-0.4l0.2-0.1l20.5-11.7
		c0-0.2,0-0.5,0-0.7l-3.2,1.8L378.1,496.9z"/>
	<polygon class="st1" points="386.4,537.3 386.8,537.7 387.7,537.2 387.1,536.9 	"/>
	<path class="st1" d="M362.7,506.5l18.2-10.4c0.1-0.3,0.1-0.5,0.1-0.8l-20.5,11.7l1.2-0.3L362.7,506.5z"/>
	<path class="st1" d="M372.1,538.3l-2.4-4.3c-0.1,0-0.3,0-0.4,0c-0.2,0-0.3,0-0.5,0l2.6,4.5c0.1,0,0.3-0.1,0.4-0.1
		C371.9,538.4,372,538.3,372.1,538.3z"/>
	<polygon class="st1" points="385.9,536.9 386.4,537.3 387.1,536.9 386.4,536.6 	"/>
	<path class="st1" d="M364.8,506l15.9-9.1c0.1-0.3,0.2-0.5,0.3-0.8c0,0,0,0,0,0l-18.2,10.4l0.6-0.1L364.8,506z"/>
	<path class="st1" d="M372.8,538.1l-2.3-4c-0.3,0-0.6,0-0.9-0.1l2.4,4.3C372.3,538.2,372.6,538.2,372.8,538.1z"/>
	<polygon class="st1" points="385.5,536.5 385.9,536.9 386.4,536.6 385.8,536.3 	"/>
	<path class="st1" d="M373.5,537.9l-2.2-3.8c-0.2,0-0.3,0-0.5,0c-0.1,0-0.2,0-0.4,0l2.3,4c0.1,0,0.2-0.1,0.3-0.1
		C373.2,538,373.4,537.9,373.5,537.9z"/>
	<path class="st1" d="M366.4,505.6l0.4-0.1l13.5-7.7c0.2-0.3,0.3-0.6,0.4-0.9l-15.9,9.1l0,0L366.4,505.6z"/>
	<polygon class="st1" points="385,536.1 385.5,536.5 385.8,536.3 385.3,536 	"/>
	<path class="st1" d="M372.1,534.2c-0.3,0-0.5,0-0.8-0.1l2.2,3.8c0.2-0.1,0.4-0.1,0.7-0.2L372.1,534.2z"/>
	<path class="st1" d="M368.7,505l10.9-6.2c0.1-0.2,0.2-0.3,0.4-0.5c0.1-0.2,0.2-0.3,0.3-0.5l-13.5,7.7l1.2-0.3L368.7,505z"/>
	<polygon class="st1" points="384.7,535.7 384.6,535.7 385,536.1 385.3,536 	"/>
	<path class="st1" d="M384.3,535.4c0,0-0.1,0-0.2,0l-0.2,0.1C384.2,535.5,384.3,535.4,384.3,535.4z"/>
	<path class="st1" d="M369.5,504.7c0.6-0.2,1.1-0.4,1.6-0.5c0.1,0,0.1,0,0.1-0.1l7.2-4.1c0.1-0.1,0.1-0.1,0.2-0.2
		c0.4-0.4,0.6-0.7,0.9-1.1l-10.9,6.2l0.3-0.1C369.2,504.8,369.4,504.8,369.5,504.7z"/>
	<path class="st1" d="M374.8,537.6l-1.9-3.3c-0.1,0-0.3,0-0.4,0c-0.1,0-0.2,0-0.4,0l2,3.5c0.1,0,0.2-0.1,0.3-0.1
		C374.6,537.6,374.7,537.6,374.8,537.6z"/>
	<polygon class="st1" points="384.6,535.7 384.7,535.7 384.3,535.4 	"/>
	<path class="st1" d="M373.7,534.3c-0.3,0-0.5,0-0.8-0.1l1.9,3.3c0.2-0.1,0.4-0.1,0.6-0.2L373.7,534.3z"/>
	<path class="st1" d="M383.3,535.3l-0.9,0.5c0.4-0.1,0.8-0.2,1.1-0.2c0.2,0,0.3-0.1,0.4-0.1l0.2-0.1
		C383.9,535.4,383.7,535.4,383.3,535.3C383.3,535.3,383.3,535.3,383.3,535.3z"/>
	<path class="st1" d="M372.7,503.6c0.6-0.2,1.1-0.5,1.6-0.7c0.6-0.3,1.1-0.6,1.5-0.8c0.5-0.3,1-0.7,1.5-1c0.5-0.3,0.9-0.7,1.2-1
		l-7.2,4.1C371.8,503.9,372.3,503.7,372.7,503.6z"/>
	<path class="st1" d="M380.8,536.1c0.4-0.1,0.7-0.2,1-0.2c0.2,0,0.3-0.1,0.5-0.1l0.9-0.5c-0.2,0-0.5-0.1-0.8-0.1L380.8,536.1z"/>
	<path class="st1" d="M375.9,537.3c0.1,0,0.1,0,0.2,0l-1.6-2.9c-0.1,0-0.1,0-0.2,0c-0.2,0-0.3,0-0.5,0l1.8,3.1
		C375.6,537.4,375.7,537.3,375.9,537.3z"/>
	<path class="st1" d="M379.3,536.5c0.4-0.1,0.7-0.2,1-0.2c0.2,0,0.3-0.1,0.5-0.1l1.6-0.9c-0.2,0-0.5-0.1-0.8-0.1L379.3,536.5z"/>
	<path class="st1" d="M375.2,534.4c-0.2,0-0.5,0-0.7-0.1l1.6,2.9c0.2-0.1,0.4-0.1,0.6-0.1L375.2,534.4z"/>
	<path class="st1" d="M377.6,536.9c-0.2,0-0.4-0.1-0.5-0.3l-1.2-2.1c-0.2,0-0.5,0-0.7-0.1l1.5,2.7c0.2-0.1,0.4-0.1,0.7-0.2
		C377.4,536.9,377.5,536.9,377.6,536.9z"/>
	<path class="st1" d="M381.4,535.1c-0.2,0-0.3,0-0.5-0.1l-3.1,1.8c0,0-0.1,0-0.2,0c0.4-0.1,0.8-0.2,1.2-0.3c0.2,0,0.3-0.1,0.5-0.1
		l2.4-1.4C381.6,535.1,381.5,535.1,381.4,535.1z"/>
	<path class="st1" d="M378,536.1c-0.2,0.1-0.6,0.1-0.7-0.2l-0.8-1.4c-0.2,0-0.4,0-0.6-0.1c0,0-0.1,0-0.1,0l1.2,2.1
		c0.1,0.2,0.3,0.3,0.5,0.3c0,0,0,0,0.1,0c0.1,0,0.1,0,0.2,0l3.1-1.8c-0.2,0-0.5-0.1-0.7-0.1L378,536.1z"/>
	<path class="st1" d="M378,536.1l2.1-1.2c-0.2,0-0.4,0-0.6-0.1c0,0-0.1,0-0.1,0l-1.2,0.7c-0.2,0.1-0.5,0.1-0.7-0.2l-0.4-0.7
		c-0.2,0-0.4,0-0.7-0.1l0.8,1.4C377.5,536.2,377.8,536.3,378,536.1z"/>
	<path class="st1" d="M378.5,534.9c-0.2,0.1-0.5,0.1-0.7-0.2l0,0c0,0-0.1,0-0.1,0c-0.2,0-0.4,0-0.5-0.1l0.4,0.7
		c0.1,0.2,0.4,0.3,0.7,0.2l1.2-0.7c-0.2,0-0.5-0.1-0.7-0.1L378.5,534.9z"/>
	<path class="st1" d="M378.5,534.9l0.2-0.1c-0.3,0-0.6-0.1-0.9-0.1l0,0C378,534.9,378.3,535,378.5,534.9z"/>
</g>
</svg>
