<?xml version="1.0" encoding="utf-8"?>
<!-- Generator: Adobe Illustrator 22.0.1, SVG Export Plug-In . SVG Version: 6.00 Build 0)  -->
<svg version="1.1" id="レイヤー_1" xmlns="http://www.w3.org/2000/svg" xmlns:xlink="http://www.w3.org/1999/xlink" x="0px"
	 y="0px" viewBox="0 0 640 640" style="enable-background:new 0 0 640 640;" xml:space="preserve">
<style type="text/css">
	.st0{fill:#E50012;stroke:#E60012;stroke-width:0.418;stroke-miterlimit:10;}
	.st1{fill:none;stroke:#E60012;stroke-width:0.418;stroke-miterlimit:10;}
</style>
<g id="レイヤー_2_1_">
</g>
<g>
	<path class="st0" d="M689.1,294c-0.1-0.2-0.2-0.4-0.4-0.6l0.2,0.6C689,294,689.1,294,689.1,294z"/>
	<path class="st0" d="M704.1,345.8c0,0-0.1,0-0.2,0.1l0.2,0.6C704.1,346.3,704.1,346.1,704.1,345.8z"/>
	<path class="st1" d="M685.1,291.5c-1.1-0.2-2.4-0.3-3.8-0.3c-0.1,0-0.2,0-0.4,0l1,3.4c0.9-0.1,1.8-0.3,2.5-0.3
		c2.1-0.2,3.4-0.3,4-0.3c0.2,0,0.3,0,0.4,0l-0.2-0.6c0,0,0-0.1-0.1-0.1C687.9,292.4,686.7,291.8,685.1,291.5z"/>
	<path class="st1" d="M697.7,349.1l1,3.4c0.4-0.2,0.7-0.4,1.1-0.6c2.6-1.7,4.2-3.5,4.3-5.3l-0.2-0.6c-0.4,0.2-1.3,0.8-3.1,1.7
		C699.9,348.1,698.9,348.6,697.7,349.1z"/>
	<path class="st1" d="M674.3,292l1.1,3.8c0.3-0.1,0.7-0.2,1-0.2c1.5-0.3,2.8-0.6,4-0.8c0.5-0.1,1-0.2,1.5-0.2l-1-3.4
		c-1.1,0-2.3,0.1-3.5,0.3C676.4,291.6,675.4,291.8,674.3,292z"/>
	<path class="st1" d="M695.7,349.9c-1.2,0.5-2.7,1.1-4.2,1.6l1.1,3.8c0.7-0.3,1.4-0.5,2-0.8c1.5-0.7,2.9-1.3,4.1-2l-1-3.4
		C697.1,349.4,696.5,349.6,695.7,349.9z"/>
	<path class="st1" d="M686.2,353.4c-0.3,0.1-0.5,0.2-0.8,0.3l1.1,3.9c1.1-0.4,2.2-0.7,3.2-1.1s1.9-0.7,2.9-1.1l-1.1-3.8
		c-0.2,0.1-0.4,0.1-0.6,0.2C689.5,352.3,687.9,352.9,686.2,353.4z"/>
	<path class="st1" d="M669.5,293c-0.5,0.1-1,0.3-1.5,0.4l1.1,3.9c1.2-0.3,2.3-0.6,3.4-0.8c1-0.2,2-0.4,2.9-0.6l-1.1-3.8
		c-0.2,0-0.5,0.1-0.7,0.1C672.3,292.4,670.9,292.7,669.5,293z"/>
	<path class="st1" d="M679.5,355.5l1.1,3.8c1.5-0.4,3-0.9,4.5-1.3c0.5-0.2,1-0.3,1.5-0.5l-1.1-3.9c-1.2,0.4-2.5,0.8-3.8,1.2
		C680.9,355.1,680.2,355.3,679.5,355.5z"/>
	<path class="st1" d="M665.6,294.1c-1.2,0.3-2.4,0.7-3.6,1l1.1,3.8c0.6-0.2,1.1-0.3,1.7-0.5c1.3-0.4,2.6-0.7,3.8-1
		c0.2,0,0.3-0.1,0.5-0.1l-1.1-3.9C667.2,293.6,666.4,293.8,665.6,294.1z"/>
	<path class="st1" d="M673.6,357.2l1.1,3.6c0.5-0.1,0.9-0.2,1.4-0.3c1.5-0.4,3-0.8,4.4-1.2l0,0l-1.1-3.8c-0.7,0.2-1.5,0.4-2.3,0.7
		C676,356.5,674.9,356.9,673.6,357.2z"/>
	<path class="st1" d="M658.2,296.3c-0.7,0.2-1.3,0.4-2,0.7l1.1,3.6l0,0c1.3-0.4,2.5-0.8,3.7-1.1c0.7-0.2,1.4-0.4,2.1-0.6l-1.1-3.8
		c-0.1,0-0.1,0-0.2,0C660.6,295.5,659.4,295.9,658.2,296.3z"/>
	<path class="st1" d="M672.8,357.4c-0.5,0.1-1,0.3-1.5,0.4c-0.6,0.2-1.6,0.5-2.8,0.9c-0.2,0.1-0.4,0.1-0.5,0.2l1,3.3
		c0.9-0.2,1.9-0.4,2.8-0.6c1-0.2,1.9-0.5,2.9-0.7l-1.1-3.6C673.4,357.3,673.1,357.4,672.8,357.4z"/>
	<path class="st1" d="M651,298.7c-0.1,0-0.3,0.1-0.4,0.1l1,3.3c0.8-0.2,1.4-0.4,2-0.5c0.5-0.1,1-0.3,1.3-0.4
		c0.8-0.2,1.6-0.5,2.3-0.7l-1.1-3.6c-0.5,0.2-1,0.3-1.5,0.5C653.5,297.9,652.2,298.3,651,298.7z"/>
	<path class="st1" d="M662.6,360.6l0.8,2.8h0.1c1.4-0.3,2.7-0.6,4.1-0.9c0.5-0.1,0.9-0.2,1.4-0.3l-1-3.3c-1.1,0.3-2.3,0.7-3.7,1.2
		C663.8,360.2,663.2,360.4,662.6,360.6z"/>
	<path class="st1" d="M645.3,300.9l0.8,2.8c0.2,0,0.4-0.1,0.5-0.1c1.2-0.3,2.4-0.6,3.5-0.9c0.5-0.1,1-0.3,1.5-0.4l-1-3.3
		c-1.1,0.4-2.1,0.8-3.2,1.1C646.7,300.3,646,300.6,645.3,300.9z"/>
	<path class="st1" d="M644,301.3c-1.2,0.4-2.3,0.9-3.4,1.3c-0.1,0.1-0.3,0.1-0.4,0.2l0.7,2.3c0.8-0.3,1.6-0.5,2.4-0.7
		c1-0.3,1.9-0.5,2.9-0.8l-0.8-2.8C644.9,301,644.4,301.2,644,301.3z"/>
	<path class="st1" d="M657.3,362.1l0.7,2.3c0.5-0.1,1-0.2,1.6-0.3c1.3-0.2,2.6-0.5,3.9-0.8l-0.8-2.8c-0.8,0.2-1.6,0.5-2.4,0.7
		C659.2,361.6,658.3,361.9,657.3,362.1z"/>
	<path class="st1" d="M652.3,363.4c-0.1,0-0.2,0-0.2,0.1l0.6,2c1-0.2,1.9-0.3,2.9-0.5c0.8-0.1,1.6-0.3,2.4-0.4l-0.7-2.3
		c-0.4,0.1-0.7,0.2-1.1,0.3C654.9,362.8,653.6,363.1,652.3,363.4z"/>
	<path class="st1" d="M635.1,304.9l0.6,2c0.3-0.1,0.6-0.2,0.9-0.3c1.1-0.4,2.2-0.7,3.3-1.1c0.3-0.1,0.6-0.2,0.9-0.3l-0.7-2.3
		c-1,0.4-2,0.8-2.9,1.2C636.5,304.3,635.8,304.6,635.1,304.9z"/>
	<path class="st1" d="M630.6,306.7c-0.1,0-0.2,0.1-0.3,0.1l0.6,2c0.8-0.4,1.6-0.7,2.4-1c0.8-0.3,1.6-0.6,2.4-0.9l-0.6-2
		c-0.4,0.2-0.8,0.3-1.3,0.5C632.7,305.8,631.6,306.3,630.6,306.7z"/>
	<path class="st1" d="M648.5,364.1c-0.5,0.1-1.1,0.2-1.6,0.2l0.6,1.9c0.2,0,0.4-0.1,0.5-0.1c1.2-0.2,2.4-0.4,3.7-0.6
		c0.3-0.1,0.6-0.1,0.9-0.2l-0.6-2C650.9,363.7,649.7,363.9,648.5,364.1z"/>
	<path class="st1" d="M641.8,364.7l0.7,2.4c0.6-0.1,1.2-0.2,1.9-0.3c1-0.2,2-0.3,3.1-0.5l-0.6-1.9c-0.7,0.1-1.4,0.2-2,0.2
		C643.8,364.7,642.8,364.7,641.8,364.7z"/>
	<path class="st1" d="M625.6,308.9l0.7,2.4c0.1-0.1,0.2-0.2,0.4-0.2c1-0.6,2.1-1.2,3.3-1.8c0.3-0.1,0.6-0.3,0.9-0.4l-0.6-2
		c-1,0.4-2,0.8-2.9,1.2C626.8,308.4,626.2,308.6,625.6,308.9z"/>
	<path class="st1" d="M636.1,355.3c0,0-0.5,0.8-1.5,2.3l0.4,1.3C635.1,357.9,635.5,356.7,636.1,355.3z"/>
	<path class="st1" d="M624.2,321.1c1.5,0.7,2.4,1.1,2.4,1.1c-0.9-0.6-1.6-1.2-2.2-1.7c-0.2-0.2-0.4-0.5-0.6-0.7L624.2,321.1
		C624.1,321.1,624.1,321.1,624.2,321.1z"/>
	<path class="st1" d="M624.2,309.4c-1.3,0.6-2.3,1-3.1,1.4c0,0,0,0-0.1,0l1.5,5.2l0.4-1.7c0.7-1.1,1.8-2.1,3.3-3.1l-0.7-2.4
		C625.1,309.1,624.7,309.3,624.2,309.4z"/>
	<path class="st1" d="M638.2,364.2c-0.8-0.3-1.5-0.6-2-1.1l1.4,4.8c0.8-0.1,1.9-0.3,3.2-0.5c0.5-0.1,1.1-0.2,1.7-0.3l-0.7-2.4
		c-0.1,0-0.2,0-0.3,0C640.2,364.7,639.1,364.5,638.2,364.2z"/>
	<path class="st1" d="M618.5,310.4c-0.6-0.4-1.3-0.9-2.3-1.3c-0.2-0.1-0.4-0.2-0.6-0.3l2.8,9.7c0.3,0.1,0.5,0.2,0.8,0.4
		c0.9,0.4,1.7,0.8,2.5,1.1c0.9,0.4,1.7,0.8,2.4,1.1l-0.4-1.3c-0.8-0.9-1.2-1.8-1.3-2.7l0.3-1l-1.5-5.2c-1,0.5-1.6,0.7-1.6,0.7
		C619.4,311.2,619.1,310.8,618.5,310.4z"/>
	<path class="st1" d="M631.2,362.9l2.8,9.7c1.4-2.1,2.1-3.6,1.8-4.4c0,0,0.5-0.1,1.5-0.2c0.1,0,0.2,0,0.3,0l-1.4-4.8
		c-0.3-0.3-0.6-0.6-0.8-1c-0.4-0.8-0.6-1.9-0.4-3.2l-0.4-1.3c-0.6,0.9-1.3,2-2.2,3.3C632.1,361.6,631.6,362.2,631.2,362.9z"/>
	<path class="st1" d="M627.8,367.8l2.7,9.3c0.6-0.7,1.2-1.5,1.7-2.2c0.7-0.9,1.2-1.7,1.7-2.4l-2.8-9.7
		C630.2,364.3,629.1,366,627.8,367.8z"/>
	<path class="st1" d="M610.2,306.8l2.7,9.3c0.5,0.2,1,0.4,1.5,0.6c0.8,0.4,1.6,0.7,2.4,1c0.6,0.2,1.1,0.5,1.6,0.7l-2.8-9.7
		c-1.2-0.5-2.6-1.1-4.3-1.6C610.9,307.1,610.6,306.9,610.2,306.8z"/>
	<path class="st1" d="M624.6,372.5l2.5,8.6c0.2-0.2,0.4-0.5,0.6-0.7c1-1.2,2-2.3,2.9-3.4l-2.7-9.3c-0.1,0.2-0.3,0.4-0.4,0.6
		C626.5,369.7,625.6,371.1,624.6,372.5z"/>
	<path class="st1" d="M605.1,305.3l2.5,8.6c0.7,0.3,1.4,0.6,2.1,0.9c0.8,0.3,1.6,0.7,2.3,1c0.3,0.1,0.6,0.3,0.9,0.4l-2.7-9.3
		c-1.3-0.4-2.7-0.9-4.2-1.3C605.7,305.4,605.4,305.3,605.1,305.3z"/>
	<path class="st1" d="M601,304.1c-0.3-0.1-0.6-0.2-0.9-0.2l2.3,7.9c0.9,0.4,1.8,0.7,2.7,1.1c0.8,0.3,1.5,0.6,2.2,0.9
		c0.1,0,0.1,0,0.2,0.1l-2.5-8.6C603.8,304.9,602.4,304.5,601,304.1z"/>
	<path class="st1" d="M621.3,377l2.3,7.9c1.2-1.3,2.3-2.6,3.4-3.8l-2.5-8.6c-0.6,0.9-1.2,1.8-1.9,2.7
		C622.2,375.8,621.8,376.4,621.3,377z"/>
	<path class="st1" d="M595.5,302.7l2.1,7.2c1.5,0.6,3.1,1.2,4.5,1.8c0.1,0.1,0.3,0.1,0.4,0.2l-2.3-7.9c-1.3-0.3-2.5-0.7-3.9-1
		C596,302.8,595.7,302.7,595.5,302.7z"/>
	<path class="st1" d="M620.3,388.5c1-1.1,2-2.1,3-3.2c0.1-0.1,0.2-0.3,0.4-0.4l-2.3-7.9c-1,1.4-2.1,2.8-3.1,4.3L620.3,388.5z"/>
	<path class="st1" d="M618.1,381.5c-1,1.3-1.9,2.6-2.9,3.8l1.9,6.5c0.7-0.7,1.4-1.4,2-2.1c0.4-0.4,0.8-0.9,1.2-1.3l-2.1-7.2
		C618.2,381.3,618.1,381.4,618.1,381.5z"/>
	<path class="st1" d="M590.9,301.5l1.9,6.6c1.3,0.5,2.5,0.9,3.8,1.4c0.3,0.1,0.6,0.2,1,0.4l-2.1-7.2c-1.2-0.3-2.4-0.6-3.7-0.9
		C591.5,301.7,591.2,301.6,590.9,301.5z"/>
	<path class="st1" d="M586.5,300.5l1.7,6c1,0.4,2.1,0.7,3.1,1.1c0.5,0.2,1,0.4,1.4,0.5l-1.9-6.6c-1.2-0.3-2.3-0.6-3.5-0.8
		C587.1,300.6,586.8,300.6,586.5,300.5z"/>
	<path class="st1" d="M612.1,389.1l1.7,6c0.4-0.4,0.7-0.8,1.1-1.1c0.7-0.7,1.4-1.4,2.1-2.1l-1.9-6.5c-0.5,0.6-1,1.3-1.5,1.9
		C613.1,387.9,612.6,388.5,612.1,389.1z"/>
	<path class="st1" d="M562.6,256.9c0.8-0.6,1.6-1,2.3-1.4c0.5-0.3,1-0.5,1.5-0.6c-0.6-0.3-1.3-0.3-2.1,0c-0.7,0.2-1.6,0.6-2.5,1.1
		c-0.7,0.4-1.4,0.9-2.1,1.4c-0.6,0.5-1.3,1-2,1.5c-0.1,0-0.1,0.1-0.2,0.1l3.3-1C561.5,257.8,562.1,257.3,562.6,256.9z"/>
	<path class="st1" d="M600.3,352.6c-0.3-1.4-0.8-2.8-1.5-4.1c-0.1-0.1-0.1-0.2-0.2-0.3c-0.1-1.7-0.4-3.3-1-4.8
		c-0.4-1.1-1-2.1-1.6-3.1c-0.5-0.8-1.1-1.6-1.8-2.3c-0.4-0.4-0.8-0.9-1.3-1.3l7,24.1C600.6,358.2,600.9,355.4,600.3,352.6z"/>
	<path class="st1" d="M583.2,299.7c-0.3-0.1-0.7-0.1-1-0.2l1.6,5.5c0.9,0.3,1.7,0.6,2.6,0.9c0.6,0.2,1.2,0.4,1.8,0.6l-1.7-6
		C585.4,300.2,584.3,300,583.2,299.7z"/>
	<path class="st1" d="M609.2,392.8l1.6,5.5c0.1-0.1,0.2-0.2,0.2-0.2c0.9-0.9,1.9-1.9,2.9-2.9l-1.7-6c-0.9,1.1-1.8,2.3-2.7,3.4
		C609.3,392.6,609.3,392.7,609.2,392.8z"/>
	<path class="st1" d="M607.7,401.2c1-1,2-2,3-3l-1.6-5.5c-1,1.2-1.9,2.3-2.9,3.4L607.7,401.2z"/>
	<path class="st1" d="M554.1,262.2c-0.6,0.5-1.1,1.1-1.7,1.6c-0.5,0.5-1.1,1.1-1.6,1.6c-0.3,0.3-0.5,0.5-0.8,0.8l3-0.9
		c0.2-0.2,0.3-0.3,0.5-0.5c0.6-0.6,1.1-1.1,1.7-1.6c0.6-0.6,1.2-1.1,1.7-1.6c0.6-0.6,1.2-1.1,1.8-1.6c0.7-0.6,1.3-1.1,1.9-1.6
		c0.1-0.1,0.2-0.1,0.3-0.2l-3.3,1c-0.5,0.5-1.1,0.9-1.7,1.4C555.2,261.2,554.7,261.7,554.1,262.2z"/>
	<path class="st1" d="M578.1,298.6l1.5,5c0.7,0.2,1.4,0.4,2.2,0.7c0.7,0.2,1.4,0.5,2.1,0.7l-1.6-5.5c-1-0.2-2.1-0.5-3.1-0.7
		C578.7,298.7,578.4,298.6,578.1,298.6z"/>
	<path class="st1" d="M590.5,334.8c-0.6-0.5-1.3-0.9-1.9-1.3c-0.2-0.1-0.4-0.2-0.6-0.4l9.7,33.6c0.9-1.8,1.7-3.8,2.2-5.8l-7-24.1
		c-0.2-0.2-0.4-0.4-0.6-0.5C591.8,335.7,591.2,335.2,590.5,334.8z"/>
	<path class="st1" d="M621.2,444.3c-0.3,0.1-0.6,0.2-0.9,0.2l0.1,0.5C620.7,444.8,621,444.5,621.2,444.3z"/>
	<path class="st1" d="M616.6,444.6l0.3,1.2c0.4,0,0.8,0,1.2-0.1c1-0.1,1.8-0.4,2.3-0.7l-0.1-0.5c-0.6,0.1-1.2,0.2-1.9,0.2
		C617.8,444.7,617.2,444.7,616.6,444.6z"/>
	<path class="st1" d="M574,297.7l1.4,4.7c0.6,0.2,1.2,0.3,1.8,0.5c0.8,0.2,1.5,0.5,2.3,0.7l-1.5-5c-1-0.2-2-0.4-3-0.7
		C574.7,297.8,574.4,297.8,574,297.7z"/>
	<path class="st1" d="M584.9,331.3c-0.4-0.2-0.9-0.4-1.3-0.6l11.7,40.4c0.3-0.4,0.6-0.9,0.8-1.3c0.6-0.9,1.1-2,1.7-3l-9.7-33.6
		c-0.4-0.3-0.9-0.5-1.3-0.8C586.1,332,585.5,331.6,584.9,331.3z"/>
	<path class="st1" d="M549.2,267c-0.5,0.5-1,1-1.5,1.6c-0.5,0.5-1,1-1.5,1.6c-0.5,0.5-1,1-1.4,1.5c-0.3,0.3-0.6,0.7-0.9,1l2.8-0.8
		c0.2-0.2,0.4-0.5,0.6-0.7c0.5-0.5,1-1,1.5-1.6c0.5-0.5,1-1.1,1.5-1.6s1-1.1,1.6-1.6c0.4-0.4,0.7-0.7,1.1-1.1l-3,0.9
		C549.7,266.5,549.4,266.8,549.2,267z"/>
	<path class="st1" d="M603.5,399.4l1.4,4.7c0.7-0.7,1.5-1.5,2.3-2.2c0.2-0.2,0.4-0.4,0.6-0.6l-1.5-5c-0.3,0.4-0.6,0.7-0.9,1.1
		C604.7,398,604.1,398.7,603.5,399.4z"/>
	<path class="st1" d="M542,274.7c-0.4,0.5-0.9,1-1.3,1.5s-0.9,1-1.3,1.5c-0.4,0.4-0.7,0.8-1.1,1.2l2.7-0.8c0.2-0.3,0.5-0.5,0.7-0.8
		c0.4-0.5,0.9-1,1.3-1.5c0.4-0.5,0.9-1,1.3-1.5c0.5-0.5,0.9-1,1.4-1.5c0.3-0.3,0.5-0.6,0.8-0.9l-2.8,0.8c-0.1,0.2-0.3,0.3-0.4,0.5
		C542.9,273.7,542.5,274.2,542,274.7z"/>
	<path class="st1" d="M600.7,402.4l1.3,4.5c0.4-0.4,0.9-0.9,1.3-1.3c0.5-0.5,1-1,1.5-1.5l-1.4-4.7c-0.7,0.7-1.3,1.4-2,2.2
		C601.2,401.8,601,402.1,600.7,402.4z"/>
	<path class="st1" d="M612.8,444.3l0.4,1.4c0.5,0,1,0.1,1.5,0.1c0.8,0,1.5,0,2.1,0l-0.3-1.2c-0.5,0-1-0.1-1.5-0.1
		C614.3,444.5,613.6,444.4,612.8,444.3z"/>
	<path class="st1" d="M570.2,296.9l1.3,4.5c0.5,0.1,1,0.3,1.6,0.4c0.8,0.2,1.6,0.4,2.4,0.7l-1.4-4.7c-1-0.2-2-0.4-2.9-0.6
		C570.8,297,570.5,296.9,570.2,296.9z"/>
	<path class="st1" d="M581.2,329.7c-0.6-0.2-1.2-0.5-1.7-0.6l13.2,45.6c0.7-0.9,1.6-2.1,2.6-3.6l-11.7-40.4
		c-0.2-0.1-0.4-0.2-0.6-0.3C582.4,330.2,581.8,329.9,581.2,329.7z"/>
	<path class="st1" d="M566.4,296.1l1.3,4.3c0.5,0.1,1,0.2,1.4,0.3c0.8,0.2,1.6,0.4,2.4,0.6l-1.3-4.5c-1-0.2-1.9-0.4-2.8-0.6
		C567,296.2,566.7,296.1,566.4,296.1z"/>
	<path class="st1" d="M611.9,444.2c-0.9-0.1-1.8-0.3-2.8-0.5l0.4,1.5c0.7,0.1,1.4,0.2,2,0.3c0.6,0.1,1.1,0.1,1.6,0.2l-0.4-1.4
		C612.5,444.2,612.2,444.2,611.9,444.2z"/>
	<path class="st1" d="M537,280.5c-0.4,0.5-0.8,0.9-1.2,1.4c-0.4,0.5-0.8,0.9-1.2,1.4c-0.4,0.5-0.8,0.9-1.1,1.3
		c0,0.1-0.1,0.1-0.1,0.2l2.6-0.8c0.3-0.3,0.6-0.7,0.9-1c0.4-0.5,0.8-0.9,1.2-1.4c0.4-0.5,0.8-0.9,1.2-1.4c0.4-0.5,0.8-1,1.2-1.4
		c0.2-0.2,0.4-0.4,0.6-0.6l-2.7,0.8c-0.1,0.1-0.1,0.1-0.2,0.2C537.8,279.6,537.4,280.1,537,280.5z"/>
	<path class="st1" d="M577.5,328.4c-0.2-0.1-0.3-0.1-0.3-0.1c-0.4-0.2-0.9-0.4-1.5-0.6c-0.1,0-0.2,0-0.2-0.1l14.5,50.3
		c0.4-0.5,0.8-1,1.1-1.5c0,0,0.4-0.5,1.1-1.3c0.1-0.2,0.3-0.3,0.4-0.5L579.4,329h-0.1C578.5,328.7,577.9,328.5,577.5,328.4z"/>
	<path class="st1" d="M599.2,409.5c0.1-0.1,0.3-0.3,0.4-0.4c0.7-0.7,1.5-1.5,2.4-2.3l-1.3-4.5c-0.9,1-1.8,1.9-2.7,2.8L599.2,409.5z"
		/>
	<path class="st1" d="M572.2,327.1c-0.1,0-0.2,0-0.3,0l15.4,53.3c0.5-0.4,1-0.8,1.5-1.2c0.5-0.4,0.9-0.8,1.2-1.2l-14.5-50.3
		c-0.5-0.1-1-0.3-1.5-0.4C573.5,327.2,572.9,327.2,572.2,327.1z"/>
	<path class="st1" d="M562.8,295.3l1.3,4.3c0.5,0.1,0.9,0.2,1.4,0.3c0.7,0.1,1.5,0.3,2.2,0.5l-1.3-4.3c-1-0.2-1.9-0.4-2.7-0.6
		C563.4,295.5,563.1,295.4,562.8,295.3z"/>
	<path class="st1" d="M595.3,407.8l1.3,4.4c0.8-0.8,1.7-1.6,2.7-2.6l-1.3-4.3c-0.1,0.1-0.1,0.1-0.2,0.2
		C597,406.2,596.1,407,595.3,407.8z"/>
	<path class="st1" d="M531.4,287.2c-0.4,0.4-0.7,0.9-1,1.3c-0.4,0.4-0.7,0.9-1,1.3c-0.2,0.2-0.3,0.4-0.5,0.6l2.5-0.7l0.1-0.1
		c0.3-0.4,0.7-0.8,1.1-1.3c0.3-0.4,0.7-0.8,1.1-1.3c0.4-0.4,0.7-0.9,1.1-1.3c0.4-0.4,0.7-0.9,1.1-1.3c0.1-0.1,0.2-0.2,0.3-0.3
		l-2.6,0.8c-0.3,0.4-0.7,0.8-1,1.2C532.1,286.4,531.7,286.8,531.4,287.2z"/>
	<path class="st1" d="M605.9,443c-0.1,0-0.3-0.1-0.4-0.1l0.5,1.6c0.9,0.2,1.8,0.3,2.6,0.5c0.3,0.1,0.7,0.1,1,0.2l-0.4-1.5
		c-0.1,0-0.2,0-0.2,0C607.9,443.5,606.9,443.3,605.9,443z"/>
	<path class="st1" d="M601.9,442.1l0.5,1.7c0.1,0,0.2,0,0.3,0.1c1,0.2,2,0.4,2.9,0.6c0.1,0,0.3,0,0.4,0.1l-0.5-1.6
		c-0.8-0.2-1.6-0.4-2.5-0.5C602.6,442.3,602.3,442.2,601.9,442.1z"/>
	<path class="st1" d="M568.7,327C568.7,327,568.6,327,568.7,327l15.9,55.2c0.5-0.3,0.9-0.6,1.4-0.8c0.5-0.3,1-0.7,1.4-1L572,327.1
		c-0.5,0-1-0.1-1.5-0.1C569.9,327,569.3,327,568.7,327z"/>
	<path class="st1" d="M594.3,408.7c-0.6,0.5-1.1,1-1.6,1.4l1.3,4.5c0.5-0.5,1.2-1.1,2.1-2c0.2-0.2,0.4-0.3,0.5-0.5l-1.3-4.4
		C595,408.1,594.6,408.4,594.3,408.7z"/>
	<path class="st1" d="M527.3,292.2c-0.4,0.5-0.7,0.9-1,1.2c-0.5,0.6-0.8,1-0.9,1.2c-0.1,0.1-0.1,0.2-0.1,0.2
		c-0.4-0.4-1.1-0.5-2.2-0.4c-0.5,0.1-1.1,0.2-1.7,0.3c-0.5,0.1-1,0.3-1.6,0.4c-0.5,0.1-1,0.3-1.5,0.5s-0.9,0.3-1.4,0.5
		c-0.4,0.2-0.9,0.3-1.4,0.5c-0.4,0.2-0.9,0.4-1.3,0.5c-0.4,0.2-0.8,0.4-1.3,0.5c-0.4,0.2-0.8,0.4-1.2,0.5c-0.4,0.2-0.8,0.4-1.2,0.5
		c-0.4,0.2-0.8,0.4-1.2,0.5c-0.4,0.2-0.8,0.4-1.1,0.5c-0.4,0.2-0.7,0.3-1.1,0.5c-0.4,0.2-0.7,0.3-1.1,0.5c-0.3,0.1-0.5,0.3-0.8,0.4
		l23.2-6.7l-0.8-0.6c0,0,0.2-0.3,0.6-0.8c0.3-0.3,0.6-0.7,1-1.2c0.3-0.4,0.6-0.8,1-1.2c0.3-0.4,0.6-0.7,0.9-1.1l-2.5,0.7
		c-0.2,0.2-0.3,0.4-0.5,0.6C527.9,291.4,527.6,291.9,527.3,292.2z"/>
	<path class="st1" d="M559.2,294.6l1.3,4.5c0.5,0.1,1,0.1,1.5,0.2c0.7,0.1,1.3,0.2,2,0.4l-1.3-4.3c-1.1-0.2-2-0.4-2.7-0.5
		C559.8,294.7,559.5,294.7,559.2,294.6z"/>
	<path class="st1" d="M590,412.2l1.2,4c0.5-0.1,0.9-0.3,1.4-0.5c0.1-0.1,0.3-0.1,0.4-0.2c0,0,0.4-0.3,1-0.9l-1.3-4.5
		c-0.6,0.5-1.1,0.9-1.7,1.4C590.6,411.7,590.3,412,590,412.2z"/>
	<path class="st1" d="M598.4,441.3l0.5,1.7c0.3,0.1,0.6,0.2,0.9,0.2c0.9,0.2,1.7,0.4,2.6,0.6l-0.5-1.7c-0.6-0.1-1.1-0.3-1.7-0.4
		S599,441.4,598.4,441.3z"/>
	<path class="st1" d="M504.1,302c-0.3,0.2-0.7,0.3-1,0.5c-0.3,0.2-0.7,0.3-1,0.5c-0.3,0.2-0.6,0.3-1,0.5c-0.3,0.2-0.6,0.3-0.9,0.5
		s-0.6,0.3-0.9,0.5s-0.6,0.3-0.9,0.5s-0.6,0.3-0.9,0.5s-0.6,0.3-0.9,0.4s-0.6,0.3-0.8,0.4c-0.3,0.1-0.5,0.3-0.8,0.4
		c-0.3,0.1-0.5,0.3-0.8,0.4c-0.3,0.1-0.5,0.3-0.8,0.4c-0.3,0.1-0.5,0.3-0.8,0.4c-0.3,0.1-0.5,0.3-0.8,0.4c-0.2,0.1-0.5,0.3-0.7,0.4
		c-0.2,0.1-0.5,0.3-0.7,0.4c-0.2,0.1-0.5,0.3-0.7,0.4c-0.2,0.1-0.5,0.3-0.7,0.4c-0.2,0.1-0.5,0.2-0.7,0.4c-0.1,0-0.1,0.1-0.2,0.1
		l40.1-11.6l1.1-0.4l1.5-0.6l1-0.4l-3.3-2.6l-23.2,6.7c-0.1,0-0.2,0.1-0.3,0.1C504.7,301.7,504.4,301.8,504.1,302z"/>
	<path class="st1" d="M565.4,327.2l16.4,56.5c0.5-0.2,0.9-0.5,1.4-0.7c0.5-0.3,0.9-0.5,1.4-0.8l-16-55.2c-0.5,0-1.1,0-1.7,0.1
		C566.4,327.1,565.9,327.2,565.4,327.2z"/>
	<path class="st1" d="M557,294.5c-0.3,0.1-0.6,0.2-0.9,0.3l1.2,4c0.5,0,1.1,0.1,1.6,0.2c0.6,0.1,1.1,0.1,1.7,0.2l-1.3-4.5
		c-0.8-0.2-1.3-0.3-1.3-0.3C557.6,294.4,557.3,294.4,557,294.5z"/>
	<path class="st1" d="M447.9,321.3L447.9,321.3C447.9,321.4,447.9,321.3,447.9,321.3L447.9,321.3z"/>
	<path class="st1" d="M595,440.4l0.5,1.7c0.5,0.1,1,0.3,1.5,0.4c0.6,0.2,1.2,0.3,1.9,0.5l-0.5-1.7c-0.3-0.1-0.7-0.2-1-0.3
		C596.6,440.8,595.8,440.6,595,440.4z"/>
	<path class="st1" d="M555,295.2c-0.5,0.3-1.1,0.6-1.6,1c-0.3,0.2-0.5,0.4-0.8,0.6c0.7,0.4,1.2,1.1,1.5,1.9l0.9,3.2
		c0.1-0.5,0.3-0.9,0.4-1.3c0.3-1,0.5-1.7,0.6-2c0-0.1,0-0.1,0-0.1c0.4,0,0.8,0.1,1.1,0.1l-1.2-4C555.7,294.9,555.3,295,555,295.2z"
		/>
	<path class="st1" d="M588.2,412.1c-0.4-0.4-1.1-0.9-1.8-1.5l1.7,5.7c0.6,0.1,1.1,0.1,1.7,0.1c0.5,0,1-0.1,1.4-0.2l-1.2-4
		c-0.3,0.2-0.6,0.5-0.9,0.7C589.1,412.9,588.8,412.6,588.2,412.1z"/>
	<path class="st1" d="M565.2,327.3c-0.6,0.1-1.1,0.1-1.7,0.2c-0.4,0-0.7,0.1-1.1,0.1L579,385c0.5-0.2,1-0.5,1.5-0.7
		c0.4-0.2,0.8-0.4,1.2-0.6l-16.3-56.5C565.4,327.2,565.3,327.3,565.2,327.3z"/>
	<path class="st1" d="M487.1,311c-0.2,0.1-0.4,0.2-0.6,0.4c-0.3,0.2-0.6,0.3-0.9,0.5c-1,0.6-1.9,1.1-2.5,1.4
		c-0.8,0.4-1.2,0.7-1.2,0.7s-0.8,0.2-1.7,0.8c-0.4,0.3-0.7,0.6-1.1,1c-0.2,0.2-0.4,0.5-0.6,0.8c-0.1,0.2-0.2,0.4-0.3,0.6l21.4-6.2
		h0.1l0.9-0.4l0.9-0.4l0.9-0.4l0.9-0.4l1-0.4l1-0.4l1-0.4l1-0.4l1-0.4l1.1-0.4l1.1-0.5l1.1-0.5l1.1-0.5l1.1-0.5l1.2-0.5l1.2-0.5
		l1.2-0.5l1.2-0.5l1.3-0.5l1.3-0.6l1.3-0.6l1.3-0.6l1.4-0.6l1.4-0.6l1.4-0.6l0.4-0.2l-40.1,11.6c-0.2,0.1-0.3,0.2-0.4,0.2
		C487.5,310.8,487.3,310.9,487.1,311z"/>
	<path class="st1" d="M477.7,318.1c-0.1,0.2-0.1,0.4-0.2,0.7c0,0.2-0.1,0.4-0.1,0.6s-0.1,0.4-0.1,0.6s0,0.4,0,0.6s0,0.4,0,0.6v0.1
		l3.2-0.9l-0.1-0.1c-0.1-0.2-0.2-0.3-0.3-0.5c-0.2-0.2-0.2-0.4-0.2-0.4l1.1-0.5l3.7-1.6l0.6-0.2l0.6-0.3l0.6-0.3l0.6-0.3l0.6-0.3
		l0.6-0.3l0.7-0.3l0.7-0.3l0.7-0.3l0.7-0.3l0.7-0.3l0.7-0.3l0.7-0.3l0.7-0.3l0.8-0.3l0.8-0.3l0.8-0.3l0.8-0.3l0.8-0.4l0.8-0.4
		l0.8-0.3l-21.4,6.2c0,0,0,0.1-0.1,0.1C477.9,317.6,477.8,317.8,477.7,318.1z"/>
	<polygon class="st1" points="419.8,335.2 396.7,341.6 405.9,341.9 424.4,336.6 	"/>
	<path class="st1" d="M560.1,327.9c-0.2,0-0.4,0.1-0.6,0.1l16.8,58.2c0.6-0.2,1.1-0.5,1.7-0.7c0.4-0.2,0.7-0.3,1-0.5l-16.6-57.4
		c-0.2,0-0.4,0.1-0.6,0.1C561.3,327.8,560.7,327.8,560.1,327.9z"/>
	<path class="st1" d="M584,408.5c-0.5-0.4-1.1-0.9-1.6-1.4l2.5,8.5c0.8,0.2,1.6,0.4,2.3,0.5c0.3,0,0.6,0.1,0.9,0.1l-1.7-5.7
		c-0.1-0.1-0.2-0.2-0.3-0.3C585.5,409.8,584.8,409.2,584,408.5z"/>
	<path class="st1" d="M592.1,439.6c-0.1,0-0.2-0.1-0.4-0.1l0.5,1.7c0.7,0.2,1.4,0.4,2.1,0.6c0.4,0.1,0.8,0.2,1.2,0.3l-0.5-1.7
		c-0.1,0-0.2-0.1-0.3-0.1C593.9,440.1,593,439.8,592.1,439.6z"/>
	<path class="st1" d="M550.8,298.8c-0.4,0.4-0.7,0.9-1.1,1.4c-0.1,0.2-0.3,0.4-0.4,0.5c1.4,0.1,2.6,1,3,2.4l1.2,4
		c0.1-0.2,0.2-0.5,0.2-0.7c0.2-0.6,0.4-1.2,0.6-1.8c0.2-0.7,0.4-1.3,0.6-1.9c0.1-0.2,0.1-0.4,0.2-0.6l-0.9-3.2
		c-0.2-0.8-0.8-1.5-1.5-1.9c-0.2,0.2-0.4,0.4-0.6,0.6C551.6,297.9,551.2,298.3,550.8,298.8z"/>
	<path class="st1" d="M580,405.2c-0.5-0.4-1-0.8-1.5-1.3l3.1,10.6c0.3,0.1,0.6,0.3,0.9,0.4c0.8,0.3,1.5,0.6,2.3,0.8h0.1l-2.5-8.5
		c-0.1-0.1-0.2-0.2-0.4-0.3C581.4,406.3,580.7,405.8,580,405.2z"/>
	<path class="st1" d="M556.9,328.5c-0.1,0-0.1,0-0.2,0l17,58.7c0.6-0.2,1.2-0.5,1.8-0.7c0.3-0.1,0.5-0.2,0.8-0.3L559.5,328
		c-0.3,0.1-0.7,0.1-1,0.2C558,328.3,557.4,328.4,556.9,328.5z"/>
	<path class="st1" d="M549.3,300.7c-0.2,0.3-0.4,0.6-0.6,0.9c-0.3,0.5-0.6,0.9-0.9,1.4s-0.6,1-0.9,1.4c-0.1,0.2-0.2,0.4-0.3,0.5
		c1.7-0.5,3.5,0.5,4,2.2l1.4,4.7c0-0.1,0.1-0.2,0.1-0.3c0.2-0.6,0.4-1.1,0.6-1.7s0.4-1.2,0.6-1.7c0.1-0.4,0.2-0.7,0.3-1.1l-1.2-4
		C551.9,301.7,550.6,300.7,549.3,300.7z"/>
	<path class="st1" d="M588.5,438.6l0.5,1.8h0.1c0.9,0.2,1.7,0.5,2.6,0.7c0.2,0,0.3,0.1,0.5,0.1l-0.5-1.7c-0.7-0.2-1.5-0.4-2.2-0.6
		C589.2,438.8,588.9,438.7,588.5,438.6z"/>
	<polygon class="st1" points="430.8,338.4 424.4,336.6 405.9,341.9 417.2,342.4 	"/>
	<path class="st1" d="M477.3,322.2c0,0.2,0,0.3,0.1,0.5c0,0.2,0,0.3,0.1,0.5c0,0.2,0.1,0.3,0.1,0.5s0.1,0.3,0.1,0.5
		c0,0.1,0.1,0.3,0.1,0.5c0,0.1,0,0.1,0.1,0.2l4.8-1.4c0-0.1-0.1-0.1-0.1-0.2c-0.1-0.1-0.2-0.3-0.3-0.4s-0.2-0.3-0.3-0.4
		s-0.2-0.3-0.3-0.4c-0.1-0.2-0.2-0.3-0.3-0.4c-0.1-0.2-0.2-0.3-0.3-0.4c-0.1-0.2-0.2-0.3-0.3-0.5c-0.1-0.1-0.2-0.2-0.2-0.3l-3.2,0.9
		c0,0.1,0,0.3,0,0.4C477.3,321.8,477.3,322,477.3,322.2z"/>
	<path class="st1" d="M585.4,437.6l0.5,1.8c0.2,0.1,0.5,0.1,0.7,0.2c0.8,0.2,1.6,0.5,2.4,0.7l-0.5-1.8c-0.5-0.1-1-0.3-1.5-0.4
		C586.5,438,585.9,437.8,585.4,437.6z"/>
	<path class="st1" d="M576.2,402c-0.5-0.4-0.9-0.8-1.4-1.1l3.5,12c0.7,0.4,1.4,0.7,2,1c0.4,0.2,0.9,0.4,1.3,0.6l-3.1-10.6
		c-0.1-0.1-0.3-0.2-0.4-0.4C577.5,403.1,576.8,402.5,576.2,402z"/>
	<path class="st1" d="M478,325.5c0,0.1,0.1,0.3,0.1,0.4s0.1,0.3,0.1,0.4s0.1,0.3,0.1,0.4s0.1,0.3,0.1,0.4s0.1,0.3,0.1,0.4
		s0.1,0.2,0.2,0.4c0,0.1,0.1,0.1,0.1,0.2l5.8-1.7c-0.3-0.4-0.6-0.8-0.8-1.1c-0.4-0.6-0.8-1.1-1.1-1.6c-0.1-0.1-0.1-0.2-0.2-0.2
		l-4.8,1.4c0,0.1,0,0.2,0.1,0.3C478,325.2,478,325.4,478,325.5z"/>
	<polygon class="st1" points="436.9,340.2 430.8,338.4 417.2,342.4 428.1,342.8 	"/>
	<path class="st1" d="M545.2,307.3c-0.2,0.5-0.5,1-0.7,1.5c-0.1,0.1-0.1,0.3-0.2,0.4l0.6-0.2c1.7-0.5,3.4,0.5,3.9,2.1l1.5,5.3
		c0.2-0.5,0.4-1,0.5-1.6c0.2-0.5,0.4-1.1,0.5-1.6c0.2-0.5,0.3-0.9,0.5-1.4l-1.4-4.7c-0.5-1.7-2.3-2.7-4-2.2
		c-0.2,0.3-0.3,0.6-0.5,0.9C545.8,306.3,545.5,306.8,545.2,307.3z"/>
	<path class="st1" d="M554,329.1l17.1,59.1c0.7-0.2,1.4-0.5,2-0.8c0.2-0.1,0.4-0.1,0.5-0.2l-17-58.7c-0.5,0.1-0.9,0.2-1.4,0.3
		C554.9,328.9,554.5,329,554,329.1z"/>
	<path class="st1" d="M479.1,328.3c0.1,0.1,0.1,0.2,0.2,0.4c0.1,0.1,0.1,0.2,0.2,0.3c0,0.1,0.1,0.2,0.2,0.3c0.1,0.1,0.1,0.2,0.2,0.3
		c0.1,0.1,0.1,0.2,0.2,0.3c0.1,0.1,0.1,0.2,0.2,0.3c0.1,0.1,0.1,0.2,0.2,0.3c0.1,0.1,0.1,0.2,0.2,0.3c0,0.1,0.1,0.2,0.1,0.2l6.5-1.9
		c-0.5-0.7-1-1.3-1.4-1.9c-0.2-0.3-0.5-0.6-0.7-0.9l-5.8,1.7C479,328.1,479,328.2,479.1,328.3z"/>
	<path class="st1" d="M543.2,311.7c-0.2,0.5-0.4,1-0.6,1.4v0.1l0.9-0.3c1.6-0.5,3.3,0.5,3.8,2.1l1.7,5.8c0.1-0.4,0.3-0.8,0.4-1.3
		c0.2-0.5,0.4-1,0.5-1.5c0.2-0.5,0.4-1,0.5-1.6l0,0l-1.5-5.3c-0.5-1.7-2.2-2.6-3.9-2.1l-0.6,0.2c-0.2,0.3-0.3,0.7-0.5,1.1
		C543.6,310.7,543.4,311.2,543.2,311.7z"/>
	<path class="st1" d="M582.4,436.7l0.5,1.8c0.4,0.1,0.9,0.3,1.3,0.4c0.6,0.2,1.2,0.3,1.7,0.5l-0.5-1.8c-0.3-0.1-0.6-0.2-0.9-0.3
		C583.8,437.1,583.1,436.9,582.4,436.7z"/>
	<polygon class="st1" points="442.9,342 436.9,340.2 428.1,342.8 438.7,343.2 	"/>
	<path class="st1" d="M572.5,399c-0.4-0.3-0.9-0.7-1.3-1l3.8,13c0.4,0.2,0.8,0.5,1.2,0.7c0.7,0.4,1.4,0.8,2.1,1.2c0,0,0.1,0,0.1,0.1
		l-3.5-12c-0.2-0.1-0.3-0.3-0.5-0.4C573.7,400,573.1,399.5,572.5,399z"/>
	<path class="st1" d="M552.2,329.5c-0.3,0.1-0.5,0.1-0.8,0.2l17.2,59.4c0.7-0.3,1.5-0.5,2.2-0.8c0.1,0,0.2-0.1,0.3-0.1L554,329.1
		c-0.1,0-0.2,0-0.3,0.1C553.3,329.3,552.7,329.4,552.2,329.5z"/>
	<path class="st1" d="M541.4,315.9c-0.1,0.4-0.3,0.7-0.4,1.1l0.9-0.3c1.6-0.5,3.2,0.5,3.7,2l1.8,6.1c0.1-0.3,0.3-0.7,0.4-1
		c0.2-0.5,0.3-0.9,0.5-1.4c0.2-0.5,0.3-1,0.5-1.4c0-0.1,0.1-0.2,0.1-0.2l-1.7-5.8c-0.5-1.6-2.2-2.5-3.8-2.1l-0.9,0.3
		c-0.2,0.4-0.4,0.9-0.6,1.3C541.8,315,541.6,315.4,541.4,315.9z"/>
	<path class="st1" d="M579.8,435.9c-0.1,0-0.2-0.1-0.4-0.1l0.5,1.8c0.6,0.2,1.2,0.4,1.8,0.6c0.4,0.1,0.7,0.2,1.1,0.3l-0.5-1.8
		c-0.1,0-0.2,0-0.2-0.1C581.3,436.4,580.5,436.1,579.8,435.9z"/>
	<path class="st1" d="M480.6,331.5c0,0.1,0.1,0.2,0.1,0.3l0,0l0.3,0.5l0.6,1l0.5,0.7l6.9-2c-0.1-0.1-0.2-0.2-0.3-0.3
		c-0.6-0.7-1.1-1.5-1.7-2.2c-0.1-0.1-0.1-0.1-0.2-0.2l-6.5,1.9c0,0,0,0,0,0.1C480.5,331.3,480.6,331.4,480.6,331.5z"/>
	<path class="st1" d="M448.3,343.8l0.3-0.1c-0.1,0-0.1-0.1-0.2-0.1c-0.3-0.2-0.5-0.4-0.5-0.4s0.1,0.1,0.2,0.3l-5.2-1.5l-4.2,1.2
		l9.4,0.4C448.1,343.6,448.2,343.7,448.3,343.8z"/>
	<path class="st1" d="M568.9,396.2c-0.4-0.3-0.8-0.6-1.1-0.9l3.9,13.5c0.2,0.1,0.3,0.2,0.5,0.4c0.6,0.4,1.3,0.8,1.9,1.3
		c0.3,0.2,0.6,0.3,0.8,0.5l-3.8-13c-0.2-0.1-0.4-0.3-0.5-0.4C570,397.1,569.4,396.7,568.9,396.2z"/>
	<path class="st1" d="M549.3,330.2c-0.1,0-0.2,0.1-0.4,0.1l17.3,59.7c0.1,0,0.1,0,0.2,0c0.7-0.2,1.5-0.5,2.2-0.8c0,0,0,0,0.1,0
		l-17.2-59.4c-0.2,0.1-0.5,0.1-0.7,0.2C550.2,330,549.8,330.1,549.3,330.2z"/>
	<path class="st1" d="M565.4,393.7c-0.3-0.2-0.6-0.4-0.9-0.6l3.9,13.5c0,0,0,0,0.1,0c0.6,0.4,1.2,0.9,1.8,1.3
		c0.5,0.3,0.9,0.6,1.4,0.9l-3.9-13.5c-0.2-0.2-0.4-0.3-0.6-0.5C566.5,394.5,565.9,394.1,565.4,393.7z"/>
	<path class="st1" d="M546.5,330.9l17.3,59.8c0.1,0,0.2-0.1,0.4-0.1c0.7-0.2,1.3-0.4,2-0.7l-17.3-59.7c-0.4,0.1-0.7,0.2-1.1,0.3
		C547.4,330.7,546.9,330.8,546.5,330.9z"/>
	<path class="st1" d="M482.9,335.2l0.6,1l0.4,0.6l7.3-2.1c-0.2-0.2-0.4-0.4-0.5-0.7c-0.5-0.7-1-1.3-1.6-2l-6.9,2l0.2,0.3
		L482.9,335.2z"/>
	<path class="st1" d="M576.6,434.9l0.5,1.8l0,0c0.7,0.2,1.5,0.5,2.3,0.7c0.2,0.1,0.3,0.1,0.5,0.2l-0.5-1.8c-0.7-0.2-1.3-0.4-2-0.6
		C577.2,435.1,576.9,435,576.6,434.9z"/>
	<path class="st1" d="M448.3,343.8c0.1,0.2,0.3,0.4,0.4,0.6s0.3,0.4,0.4,0.6s0.3,0.4,0.4,0.6s0.3,0.4,0.4,0.6c0,0.1,0.1,0.1,0.1,0.2
		l1.5-0.4c-0.2-0.1-0.3-0.2-0.4-0.3c-0.2-0.1-0.3-0.2-0.5-0.3c-0.2-0.1-0.3-0.2-0.5-0.4c-0.2-0.1-0.3-0.2-0.5-0.4
		c-0.2-0.1-0.3-0.3-0.5-0.4s-0.3-0.3-0.5-0.4c-0.1-0.1-0.2-0.2-0.3-0.2V343.8L448.3,343.8z"/>
	<path class="st1" d="M573.8,434l0.5,1.8c0.2,0.1,0.4,0.1,0.6,0.2c0.7,0.2,1.4,0.5,2.2,0.7l-0.5-1.8c-0.5-0.1-0.9-0.3-1.3-0.4
		C574.7,434.3,574.2,434.1,573.8,434z"/>
	<path class="st1" d="M484.6,338.1l0.6,0.9l0.3,0.5l7.7-2.2c-0.2-0.2-0.4-0.4-0.6-0.7c-0.5-0.6-1-1.3-1.5-1.9l-7.3,2.1l0.2,0.4
		L484.6,338.1z"/>
	<path class="st1" d="M538.9,322.7c-0.2,0.4-0.3,0.9-0.4,1.3c0,0.1,0,0.1-0.1,0.2l0.7-0.2c1.5-0.4,3,0.4,3.4,1.9l22.6,78.3
		c0.5,0.4,1,0.8,1.5,1.1c0.6,0.4,1.2,0.9,1.7,1.3l-3.9-13.5c-0.3-0.2-0.5-0.3-0.8-0.5c-0.7-0.4-1.3-0.7-1.7-0.9l0.1-0.4
		c0.6-0.2,1.2-0.4,1.8-0.6l-17.3-59.8h-0.1c-0.5,0.1-0.9,0.2-1.4,0.4l0.5-2.1c0.1-0.2,0.2-0.4,0.3-0.6l-1.8-6.2
		c-0.4-1.5-2-2.4-3.5-2l-0.8,0.2c-0.1,0.2-0.2,0.5-0.2,0.7C539.2,321.8,539.1,322.2,538.9,322.7z"/>
	<path class="st1" d="M450.8,347.5c0.1,0.2,0.3,0.4,0.4,0.6s0.2,0.4,0.4,0.6c0.1,0.2,0.2,0.4,0.3,0.5l2.7-0.8l-0.1-0.1
		c-0.1-0.1-0.3-0.2-0.4-0.3c-0.1-0.1-0.3-0.2-0.4-0.3c-0.1-0.1-0.3-0.2-0.4-0.3c-0.1-0.1-0.3-0.2-0.4-0.3c-0.1-0.1-0.3-0.2-0.4-0.3
		c-0.1-0.1-0.3-0.2-0.4-0.3c-0.1-0.1-0.3-0.2-0.4-0.3l0,0l-1.5,0.4c0.1,0.1,0.2,0.2,0.3,0.4C450.5,347.1,450.6,347.3,450.8,347.5z"
		/>
	<path class="st1" d="M486.3,340.7l0.5,0.8l0.3,0.5l8.3-2.4c-0.7-0.8-1.4-1.6-2.1-2.5l-7.7,2.2l0.2,0.4L486.3,340.7z"/>
	<path class="st1" d="M569.3,427L569.3,427L569.3,427z"/>
	<path class="st1" d="M573,433.7c-0.7-0.2-1.4-0.5-1.9-0.6l0.5,1.7c0.3,0.1,0.7,0.2,1.1,0.4c0.5,0.2,1.1,0.4,1.6,0.5l-0.5-1.8
		C573.5,433.9,573.2,433.8,573,433.7z"/>
	<path class="st1" d="M452.2,349.8c0.1,0.2,0.2,0.4,0.3,0.6c0.1,0.2,0.2,0.4,0.3,0.5c0.1,0.2,0.2,0.4,0.3,0.5s0.1,0.2,0.2,0.4
		l3.9-1.1l-0.1-0.1c-0.1-0.1-0.2-0.2-0.3-0.3c-0.1-0.1-0.2-0.2-0.3-0.3c-0.1-0.1-0.2-0.2-0.3-0.3c-0.1-0.1-0.2-0.2-0.3-0.3
		c-0.1-0.1-0.2-0.2-0.4-0.3c-0.1-0.1-0.2-0.2-0.4-0.3c-0.1-0.1-0.2-0.2-0.4-0.3c-0.1-0.1-0.2-0.2-0.3-0.2l-2.7,0.8l0,0
		C452,349.4,452.1,349.6,452.2,349.8z"/>
	<path class="st1" d="M537.6,326.5c-0.1,0.4-0.2,0.7-0.3,1.1l0.4-0.1c1.4-0.4,2.9,0.4,3.3,1.8l20.9,72.3c0.4,0.3,0.8,0.7,1.2,1
		c0.6,0.4,1.1,0.9,1.7,1.3c0.1,0.1,0.2,0.1,0.3,0.2l-22.6-78.3c-0.4-1.5-2-2.3-3.4-1.9l-0.7,0.2c-0.1,0.4-0.2,0.7-0.3,1.1
		C537.9,325.7,537.8,326.1,537.6,326.5z"/>
	<polygon class="st1" points="567,427.4 568,430.8 569.3,427 569.3,427 567.7,427.3 	"/>
	<path class="st1" d="M536.9,329c-0.1,0.4-0.2,0.8-0.4,1.2c-0.1,0.2-0.1,0.4-0.2,0.6l0,0c1.4-0.4,2.8,0.4,3.2,1.8l19.3,66.4
		c0.4,0.3,0.7,0.6,1.1,0.9c0.5,0.4,1.1,0.9,1.6,1.4c0.1,0.1,0.3,0.2,0.4,0.3L541,329.3c-0.4-1.4-1.9-2.3-3.3-1.8l-0.4,0.1
		c0,0.1,0,0.1-0.1,0.2C537.1,328.2,537,328.6,536.9,329z"/>
	<path class="st1" d="M454.8,354.4L454.8,354.4l-0.9-1.9c0.1,0.2,0.2,0.3,0.3,0.5s0.2,0.3,0.3,0.5s0.2,0.3,0.3,0.5l0.2,0.3l5-1.5
		l-0.1-0.1c-0.1-0.1-0.2-0.2-0.3-0.2c-0.1-0.1-0.2-0.2-0.3-0.2c-0.1-0.1-0.2-0.2-0.3-0.2c-0.1-0.1-0.2-0.2-0.3-0.2
		c-0.1-0.1-0.2-0.2-0.3-0.2c-0.1-0.1-0.2-0.2-0.3-0.3c-0.1-0.1-0.2-0.2-0.3-0.3c-0.1-0.1-0.2-0.2-0.3-0.3c-0.1-0.1-0.1-0.1-0.2-0.2
		l-3.9,1.1c0,0.1,0.1,0.1,0.1,0.2L454.8,354.4z"/>
	<path class="st1" d="M487.8,343.2l0.5,0.8l0.4,0.6l9.1-2.6l-2.3-2.2c0,0,0,0,0-0.1l-8.3,2.4l0.2,0.3L487.8,343.2z"/>
	<path class="st1" d="M568.7,432.3c-0.1,0-0.2-0.1-0.3-0.1l0.5,1.7c0.5,0.2,1,0.3,1.6,0.5c0.3,0.1,0.7,0.2,1.1,0.4l-0.5-1.7
		c-0.1,0-0.2-0.1-0.2-0.1C570,432.7,569.2,432.4,568.7,432.3z"/>
	<path class="st1" d="M489.2,345.6l0.2,0.3l0.2,0.3l0.2,0.3l0.2,0.3l0.2,0.3v0.1l9.9-2.9c-0.1-0.1-0.1-0.1-0.2-0.2
		c-0.1-0.1-0.2-0.2-0.4-0.3c-0.1-0.1-0.2-0.2-0.4-0.3c-0.1-0.1-0.2-0.2-0.3-0.3c-0.1-0.1-0.2-0.2-0.3-0.3v-0.2l-0.7-0.7l-9.1,2.6
		l0.1,0.2L489.2,345.6z"/>
	<path class="st1" d="M536.5,331.7l-0.6,2.2c-0.1,0-0.2,0.1-0.3,0.1c1.2-0.1,2.3,0.7,2.6,1.8l17.5,60.4c0.3,0.3,0.7,0.6,1.1,1
		c0.5,0.4,1,0.9,1.5,1.4c0.2,0.1,0.3,0.3,0.5,0.4l-19.2-66.3c-0.4-1.4-1.9-2.2-3.2-1.8l0,0c-0.1,0.2-0.1,0.4-0.2,0.5L536.5,331.7z"
		/>
	<path class="st1" d="M454.9,355.3l0.7,0.7l0.5,1h0.1l-0.4-0.8l0.2,0.2l0.3,0.6l6.1-1.8c-0.6-0.5-1.2-1.1-1.8-1.6
		c-0.1-0.1-0.2-0.1-0.3-0.2s-0.2-0.2-0.3-0.2s-0.1-0.1-0.2-0.1l-5,1.5l0.1,0.2v0.1l-0.2-0.3l0,0l0.2,0.4V355.3z"/>
	<path class="st1" d="M565.4,427.6l-0.6,0.1l1.5,5.3c0.5,0.2,1.2,0.4,2,0.7c0.2,0.1,0.4,0.1,0.6,0.2l-0.5-1.7
		c-0.5-0.2-0.8-0.3-0.8-0.3l0.4-1.1l-1-3.4L565.4,427.6z"/>
	<path class="st1" d="M410.4,404.2l-1.4-1.4c0-0.5,0.3-1.1,0.7-1.7c0.1-0.2,0.2-0.3,0.4-0.5l-1.1-3.8c-0.1,0.4-0.1,0.8-0.1,1.1
		c-0.1,0.8-0.1,1.6-0.1,2.3c0,1.3,0.1,2.2,0.2,2.6c0,0.2,0,0.2,0,0.2s1,2.5,3.3,5.3l-1.1-3.8C410.9,404.5,410.7,404.4,410.4,404.2z"
		/>
	<path class="st1" d="M562.7,428.1l1.6,5.6c0.5-0.3,0.8-0.7,0.9-1c0,0,0.4,0.1,1.1,0.4h0.1l-1.5-5.3l-1.7,0.3H562.7z"/>
	<path class="st1" d="M457.2,358.6c0.1,0.2,0.2,0.5,0.4,0.7l7.1-2.1c-0.7-0.7-1.5-1.4-2.3-2.2l-6.1,1.8l0.3,0.6
		C456.8,357.8,457,358.2,457.2,358.6z"/>
	<polygon class="st1" points="457.6,359.3 456.3,356.9 456.2,356.9 457.5,359.3 	"/>
	<path class="st1" d="M490.5,347.6l0.2,0.3l0.2,0.3l0.2,0.3l0.2,0.3l0.2,0.3l0.1,0.2l42.2-12.2c1.3-0.4,2.7,0.4,3,1.7l15.9,55
		c0.1,0,0.2-0.1,0.3-0.1c0,0,0.2,0.2,0.7,0.6c0.4,0.3,0.9,0.8,1.5,1.4c0.1,0.1,0.3,0.3,0.4,0.4l-17.5-60.4c-0.3-1.2-1.4-1.9-2.6-1.8
		c-0.3,0.1-0.6,0.2-0.9,0.3c-0.4,0.1-0.8,0.2-1.2,0.4c-0.4,0.1-0.8,0.2-1.2,0.4c-0.4,0.1-0.8,0.2-1.1,0.4c-0.4,0.1-0.7,0.2-1.1,0.4
		c-0.4,0.1-0.7,0.2-1.1,0.4c-0.4,0.1-0.7,0.2-1.1,0.4c-0.4,0.1-0.7,0.2-1,0.3c-0.3,0.1-0.7,0.2-1,0.3c-0.3,0.1-0.7,0.2-1,0.3
		c-0.3,0.1-0.7,0.2-1,0.3c-0.3,0.1-0.7,0.2-1,0.3c-0.3,0.1-0.6,0.2-1,0.3c-0.3,0.1-0.6,0.2-0.9,0.3c-0.3,0.1-0.6,0.2-0.9,0.3
		c-0.3,0.1-0.6,0.2-0.9,0.3c-0.3,0.1-0.6,0.2-0.9,0.3c-0.3,0.1-0.6,0.2-0.9,0.3c-0.3,0.1-0.6,0.2-0.8,0.3c-0.3,0.1-0.6,0.2-0.8,0.3
		c-0.3,0.1-0.6,0.2-0.8,0.3c-0.3,0.1-0.5,0.2-0.8,0.3c-0.3,0.1-0.5,0.2-0.8,0.3c-0.3,0.1-0.5,0.2-0.8,0.3c-0.3,0.1-0.5,0.2-0.8,0.3
		c-0.3,0.1-0.5,0.2-0.7,0.3c-0.3,0.1-0.5,0.2-0.7,0.3c-0.3,0.1-0.5,0.2-0.7,0.3c-0.4,0.2-0.6,0.3-0.6,0.3l0,0
		c-0.2,0.1-0.4,0.1-0.7,0.2c-0.2,0.1-0.4,0.1-0.7,0.2c-0.2,0.1-0.4,0.1-0.6,0.2c-0.2,0.1-0.4,0.1-0.6,0.2c-0.2,0.1-0.4,0.1-0.6,0.2
		c-0.2,0.1-0.4,0.1-0.6,0.2c-0.2,0.1-0.4,0.1-0.6,0.2c-0.2,0.1-0.4,0.1-0.6,0.2c-0.2,0.1-0.4,0.1-0.6,0.2c-0.2,0.1-0.4,0.1-0.6,0.2
		h-0.1c-0.1,0-0.3,0.1-0.4,0.1s-0.3,0-0.5-0.1c-0.1,0-0.3-0.1-0.4-0.2s-0.3-0.1-0.4-0.2s-0.3-0.2-0.4-0.2c-0.1-0.1-0.3-0.2-0.4-0.3
		c-0.1,0-0.1-0.1-0.2-0.1l-9.9,2.9l0.1,0.2L490.5,347.6z"/>
	<path class="st1" d="M415.1,411.1c0.1,0.1,0.2,0.1,0.2,0.2l-1.8-6.1c-0.9-0.2-1.7-0.4-2.4-0.7l1.1,3.8c0.1,0.2,0.3,0.3,0.4,0.5
		C413.4,409.6,414.2,410.4,415.1,411.1z"/>
	<path class="st1" d="M560.6,428.4l1.8,6.1c0.8-0.3,1.4-0.6,1.9-0.9l-1.6-5.6l-1.7,0.3L560.6,428.4z"/>
	<path class="st1" d="M466.8,359.4c-0.7-0.7-1.3-1.4-2.1-2.1l-7.1,2.1c0.1,0.1,0.1,0.2,0.2,0.4c0.2,0.4,0.3,0.7,0.5,1.1l-0.7-1.4
		h-0.1l1.2,2.4L466.8,359.4z"/>
	<path class="st1" d="M533.9,337.3l-42.2,12.2l0.1,0.2l0.2,0.4l0.2,0.4l0.2,0.4v0.2c-0.1,0.1-0.3,0.2-0.4,0.3
		c-0.1,0.1-0.3,0.2-0.4,0.3c-0.1,0.1-0.3,0.2-0.4,0.3c-0.1,0.1-0.3,0.2-0.4,0.3c-0.1,0.1-0.2,0.2-0.3,0.3l42.1-12.2
		c1.3-0.4,2.6,0.4,3,1.6l15.2,52.5c0.4-0.1,0.9-0.2,1.3-0.4c0.2-0.1,0.5-0.1,0.7-0.2l-15.9-55C536.5,337.6,535.2,336.9,533.9,337.3z
		"/>
	<path class="st1" d="M410.8,399.8c0.3-0.3,0.6-0.7,0.9-1l-1.8-6.1c-0.2,0.5-0.3,0.9-0.4,1.4c-0.2,0.6-0.3,1.2-0.4,1.8
		c-0.1,0.3-0.1,0.6-0.1,0.9l1.1,3.8C410.3,400.4,410.5,400.1,410.8,399.8z"/>
	<path class="st1" d="M413.1,397.5c0.1-0.1,0.2-0.2,0.3-0.3l-2.1-7.4c-0.2,0.3-0.4,0.7-0.5,1c-0.2,0.5-0.5,1-0.6,1.5
		c0,0.1-0.1,0.2-0.1,0.3l1.8,6.1c0.1-0.1,0.1-0.1,0.2-0.2C412.3,398.3,412.7,397.9,413.1,397.5z"/>
	<path class="st1" d="M459.2,362.8c0.1,0.3,0.3,0.7,0.4,1c0,0.1,0.1,0.2,0.1,0.2l9-2.6c-0.3-0.3-0.6-0.7-0.9-1
		c-0.3-0.4-0.6-0.7-1-1.1l-8.1,2.3v0.1C458.9,362.2,459,362.5,459.2,362.8z"/>
	<path class="st1" d="M417.9,413l-2.1-7.4c-0.6-0.1-1.2-0.2-1.7-0.3c-0.2,0-0.4-0.1-0.5-0.1l1.8,6.1
		C416.1,411.9,417,412.5,417.9,413z"/>
	<path class="st1" d="M419.6,375.2c-0.5,0-1.1,0-1.6,0.1s-1,0.2-1.4,0.3c-0.5,0.2-0.9,0.3-1.3,0.5c-0.5,0.2-0.9,0.5-1.2,0.6l0.4,0.4
		l6.3-1.8C420.5,375.2,420,375.2,419.6,375.2z"/>
	<path class="st1" d="M560.5,435.1c0.7-0.2,1.4-0.4,1.9-0.6l-1.8-6.1l-2,0.3L560.5,435.1z"/>
	<path class="st1" d="M490,353c-0.1,0.1-0.3,0.3-0.4,0.4s-0.3,0.3-0.4,0.4s-0.3,0.3-0.4,0.4c-0.1,0.2-0.3,0.3-0.4,0.5
		s-0.3,0.3-0.4,0.5s-0.3,0.4-0.4,0.6c-0.1,0.1-0.1,0.2-0.2,0.3l43.9-12.7c1.2-0.4,2.5,0.4,2.9,1.6l14.6,50c0.5-0.1,0.9-0.2,1.4-0.4
		c0.2,0,0.4-0.1,0.5-0.1L535.5,342c-0.4-1.3-1.7-2-3-1.6l-42.1,12.2l-0.1,0.1C490.3,352.7,490.2,352.9,490,353z"/>
	<polygon class="st1" points="431.2,462.2 432.1,462 432,461.7 	"/>
	<path class="st1" d="M558.5,435.6c0.7-0.1,1.3-0.3,1.9-0.5l-1.9-6.4l-2,0.3L558.5,435.6z"/>
	<path class="st1" d="M445.8,370.2c-0.5-0.2-1.1-0.4-1.6-0.5c-0.4-0.1-0.8-0.1-1.2-0.1c-0.3,0-0.7,0-1,0.1s-0.6,0.1-0.9,0.2
		s-0.5,0.2-0.8,0.4c-0.3,0.1-0.5,0.3-0.7,0.4c-0.2,0.2-0.5,0.3-0.7,0.5s-0.4,0.4-0.6,0.6s-0.4,0.4-0.6,0.6s-0.4,0.5-0.6,0.7
		c0,0,0,0-0.1,0.1l9.4-2.7C446.2,370.4,446,370.3,445.8,370.2z"/>
	<path class="st1" d="M417.9,406c-0.3,0-0.6-0.1-0.9-0.1c-0.4-0.1-0.8-0.1-1.3-0.2l2.1,7.4c0.7,0.4,1.5,0.8,2.4,1.1L417.9,406z"/>
	<path class="st1" d="M415,395.9l-2.3-8.1c-0.1,0.2-0.3,0.3-0.4,0.5c-0.3,0.4-0.6,0.8-0.8,1.3c-0.1,0.1-0.1,0.3-0.2,0.4l2.1,7.4
		c0.3-0.3,0.6-0.5,0.9-0.8C414.5,396.3,414.7,396.1,415,395.9z"/>
	<path class="st1" d="M459.9,364.8c0.1,0.3,0.2,0.6,0.3,1c0.1,0.2,0.1,0.4,0.2,0.6l9.7-2.8c-0.3-0.4-0.5-0.8-0.9-1.2
		c-0.2-0.3-0.4-0.6-0.7-0.9l-9,2.6C459.7,364.3,459.8,364.6,459.9,364.8z"/>
	<path class="st1" d="M486.9,357.1c-0.2,0.3-0.3,0.6-0.5,1c0,0.1,0,0.1-0.1,0.2c0,0.1-0.1,0.2-0.1,0.3c0,0.1-0.1,0.2-0.1,0.3
		c0,0.1-0.1,0.1-0.1,0.2l44.3-12.8c1.2-0.3,2.4,0.3,2.8,1.5l13.8,47.7c0.5-0.1,1-0.3,1.5-0.4c0.1,0,0.3-0.1,0.4-0.1l-14.5-50.1
		c-0.4-1.2-1.6-1.9-2.9-1.6L487.5,356c-0.1,0.1-0.2,0.2-0.2,0.4C487.2,356.6,487,356.9,486.9,357.1z"/>
	<path class="st1" d="M424,377c-0.7-0.7-1.5-1.2-2.3-1.5c-0.3-0.1-0.5-0.1-0.8-0.2l-6.3,1.8l2.1,2L424,377z"/>
	<polygon class="st1" points="433.7,460.5 432,461.7 432.1,462 433.9,461.4 	"/>
	<path class="st1" d="M460.7,367.6c0.1,0.3,0.1,0.6,0.2,0.9c0,0.1,0,0.2,0,0.3l10.2-3c0-0.2-0.1-0.3-0.1-0.5
		c-0.1-0.2-0.2-0.5-0.3-0.8c-0.2-0.3-0.3-0.6-0.5-0.9l0,0l-9.7,2.8c0,0.1,0.1,0.2,0.1,0.3C460.6,367,460.7,367.3,460.7,367.6z"/>
	<path class="st1" d="M556.7,436c0.7-0.1,1.3-0.3,1.9-0.4l-1.9-6.6l-1.9,0.3L556.7,436z"/>
	<path class="st1" d="M485.9,359.4c0,0.1-0.1,0.2-0.1,0.3c0,0.1-0.1,0.2-0.1,0.3c0,0.1-0.1,0.2-0.1,0.3c0,0.1,0,0.2-0.1,0.3
		c0,0.1,0,0.2-0.1,0.3c0,0.1,0,0.2-0.1,0.3c0,0.1,0,0.2,0,0.3c0,0.1,0,0.1,0,0.2l43.9-12.7c1.2-0.3,2.4,0.3,2.7,1.5l13.1,45.4
		c0.5-0.1,1.1-0.3,1.6-0.4c0.1,0,0.2,0,0.3-0.1l-13.8-47.7c-0.3-1.2-1.6-1.9-2.8-1.5L486,359c0,0,0,0,0,0.1
		C486,359.2,485.9,359.3,485.9,359.4z"/>
	<path class="st1" d="M435.9,374.7c-0.2,0.3-0.3,0.6-0.5,0.8c-0.1,0.2-0.3,0.5-0.4,0.7l13.9-4c-0.9-0.8-1.7-1.3-2.5-1.8l-9.4,2.7
		c-0.2,0.2-0.3,0.4-0.5,0.7C436.3,374.2,436.1,374.4,435.9,374.7z"/>
	<path class="st1" d="M426.2,378.3c-0.1,0.2-0.1,0.4-0.1,0.6l0.6-0.2L426.2,378.3z"/>
	<path class="st1" d="M422.4,414.8l-2.5-8.5c-0.1,0-0.1,0-0.2,0c-0.6-0.1-1.3-0.2-1.9-0.2l2.3,8.1c0.2,0.1,0.5,0.2,0.7,0.3
		C421.5,414.5,421.9,414.7,422.4,414.8z"/>
	<path class="st1" d="M425.6,379c-0.5-0.8-1-1.5-1.5-2l-7.4,2.1l2,1.9L425.6,379z"/>
	<path class="st1" d="M416.6,394.5l-2.5-8.5l0,0c-0.3,0.3-0.7,0.7-1,1.1c-0.2,0.2-0.3,0.4-0.5,0.7l2.3,8.1c0.2-0.1,0.3-0.3,0.5-0.4
		C415.8,395.2,416.2,394.9,416.6,394.5z"/>
	<polygon class="st1" points="435.3,459.4 433.7,460.5 433.9,461.4 435.8,460.8 	"/>
	<path class="st1" d="M461.1,370.1c0,0.3,0,0.5,0,0.8c0,0.1,0,0.2,0,0.3l23.7-6.9c-0.1-0.1-0.2-0.1-0.3-0.2
		c-0.2-0.1-0.3-0.1-0.5-0.2c-0.2-0.1-0.4-0.1-0.6-0.2c-0.2-0.1-0.5-0.1-0.7-0.1c-0.3,0-0.7,0-1.1,0c-0.7,0-1.4,0.1-2.1,0.3
		c-0.8,0.2-1.6,0.4-2.4,0.7c-1,0.3-1.9,0.7-2.9,1.2c-0.6,0.3-1.2,0.6-1.8,0.8c-0.1,0.1-0.2,0.1-0.4,0.2c-0.1,0.1-0.2,0.1-0.3,0.2
		s-0.2,0.1-0.3,0.2l-0.1-0.1c0-0.1,0-0.3,0-0.4c0-0.2,0-0.4-0.1-0.5c0-0.1,0-0.1-0.1-0.2l-10.2,3c0,0.2,0.1,0.4,0.1,0.6
		C461.1,369.6,461.1,369.9,461.1,370.1z"/>
	<path class="st1" d="M435,376.4c-0.2,0.3-0.3,0.6-0.5,0.9s-0.3,0.7-0.4,1c-0.1,0.2-0.2,0.5-0.3,0.7l17.1-4.9
		c-0.6-0.7-1.3-1.3-1.9-1.9l-13.9,4C435,376.3,435,376.4,435,376.4z"/>
	<path class="st1" d="M417.8,393.6c0.1-0.1,0.2-0.2,0.3-0.3l-2-7c-0.3-1.1,0.3-2.3,1.4-2.6l12.9-3.7c-0.4-0.1-0.7-0.2-1.1-0.3
		c-0.6-0.1-1.2-0.1-1.8-0.2l-0.9-0.9l-0.6,0.2c-0.1,0.3-0.1,0.6-0.2,0.7l-0.1-0.1c-0.1-0.2-0.2-0.3-0.2-0.5l-6.9,2l1,1
		c-0.4,0.2-0.8,0.4-1.2,0.7c-0.4,0.2-0.8,0.5-1.1,0.7c-0.4,0.3-0.8,0.5-1.1,0.8c-0.4,0.3-0.7,0.6-1.1,0.9s-0.7,0.6-1,1l2.5,8.5l0,0
		C417,394.2,417.4,393.9,417.8,393.6z"/>
	<path class="st1" d="M485.3,362.2c0,0.1,0,0.2,0,0.3c0,0.1,0,0.2,0,0.3c0,0.1,0,0.2,0,0.3c0,0.1,0,0.2,0,0.3c0,0.1,0,0.2,0,0.3
		c0,0.1,0,0.2,0,0.3l42.8-12.4c1.1-0.3,2.3,0.3,2.6,1.4l12.5,43.2c0.5-0.1,1.1-0.3,1.6-0.4c0,0,0.1,0,0.2,0l-13.1-45.4
		c-0.3-1.2-1.5-1.8-2.7-1.5l-43.9,12.7v0.1C485.3,362,485.3,362.1,485.3,362.2z"/>
	<path class="st1" d="M424.5,415.4l-2.6-9c-0.6-0.1-1.3-0.1-2-0.2l2.5,8.5c0.6,0.1,1.2,0.3,1.8,0.4L424.5,415.4z"/>
	<path class="st1" d="M552.9,429.7l1.9,6.7c0.6-0.1,1.2-0.2,1.8-0.3l-1.9-6.6l-1,0.2L552.9,429.7z"/>
	<polygon class="st1" points="436.9,458.3 435.3,459.4 435.8,460.8 437.5,460.3 	"/>
	<path class="st1" d="M433.2,380.4c-0.2,0.4-0.3,0.8-0.4,1.1v0.1l19.6-5.7c-0.5-0.7-1.1-1.3-1.6-1.9l-17.1,4.9
		c0,0.1-0.1,0.2-0.1,0.3C433.5,379.8,433.4,380.1,433.2,380.4z"/>
	<path class="st1" d="M461,372.3c0,0.2-0.1,0.4-0.2,0.6c-0.1,0.2-0.1,0.4-0.2,0.6c0,0.1-0.1,0.1-0.1,0.2l66.6-19.3
		c1.1-0.3,2.2,0.3,2.5,1.4l11.9,41l0,0c0.5-0.1,1.1-0.3,1.7-0.4c0,0,0,0,0.1,0l-12.5-43.2c-0.3-1.1-1.5-1.8-2.6-1.4l-42.8,12.4
		c0,0,0,0,0,0.1s0,0.3,0.1,0.3c0,0.2,0.1,0.3,0.1,0.3c-0.1-0.1-0.2-0.2-0.3-0.2c-0.1-0.1-0.2-0.2-0.3-0.3c0,0,0,0-0.1,0l-23.7,6.9
		c0,0.2,0,0.3,0,0.5C461.1,371.8,461.1,372.1,461,372.3z"/>
	<path class="st1" d="M419.7,392.2l-1.2-4.2c-0.3-1.1,0.3-2.2,1.4-2.5l12.7-3.7c-0.3-0.9-1.1-1.4-2.1-1.7l-12.9,3.7
		c-1.1,0.3-1.8,1.5-1.4,2.6l2,7c0.3-0.2,0.6-0.4,0.8-0.6C419.2,392.5,419.5,392.3,419.7,392.2z"/>
	<path class="st1" d="M423.9,406.6c-0.5,0-1-0.1-1.5-0.1c-0.1,0-0.3,0-0.4,0l2.6,9l2.6,2.5L423.9,406.6z"/>
	<path class="st1" d="M553.1,436.6c0.6-0.1,1.2-0.2,1.8-0.3l-1.9-6.7l-1.8,0.3L553.1,436.6z"/>
	<polygon class="st1" points="438.5,457.2 436.9,458.3 437.5,460.3 439.2,459.8 	"/>
	<path class="st1" d="M418.5,388l1.2,4.2c0.2-0.1,0.3-0.2,0.5-0.3c0.4-0.3,0.7-0.5,1-0.7l-0.5-1.6c-0.3-1.1,0.3-2.2,1.4-2.5
		L526.2,357c1.1-0.3,2.2,0.3,2.5,1.4l11.3,38.9h0.1c0.5-0.1,1.1-0.3,1.6-0.4l-11.9-41c-0.3-1.1-1.5-1.7-2.5-1.4l-66.6,19.3
		c0,0.1-0.1,0.1-0.1,0.2l-0.2,0.1l-0.7,0.2l-0.7,0.2l-0.7,0.2l-0.7,0.2l-0.7,0.2l-0.7,0.2l-0.8,0.2l-0.8,0.2l-0.8,0.2l-0.8,0.2
		l-0.4,0.1l-0.1-0.1l-19.6,5.7c-0.1,0.4-0.2,0.7-0.2,0.7c0-0.2-0.1-0.4-0.1-0.6l-12.7,3.7C418.8,385.7,418.1,386.9,418.5,388z"/>
	<path class="st1" d="M425.7,406.7c-0.3,0-0.5,0-0.8-0.1c-0.3,0-0.7,0-1-0.1l3.3,11.3l2.5,2.4L425.7,406.7z"/>
	<path class="st1" d="M551.3,436.9c0.6-0.1,1.2-0.2,1.7-0.3l-1.9-6.7l-1.7,0.3L551.3,436.9z"/>
	<polygon class="st1" points="440,456.2 438.5,457.2 439.2,459.8 440.9,459.3 	"/>
	<path class="st1" d="M431.8,421.6l-4.3-14.8c-0.1,0-0.1,0-0.2,0c-0.4,0-0.9,0-1.6-0.1l3.9,13.6l1.6,1.5
		C431.4,421.8,431.6,421.7,431.8,421.6z"/>
	<path class="st1" d="M422.9,392.5c0,0.6,0,1.3,0.1,2c0.1,0.9,0.2,1.7,0.5,2.5c0.2,0.7,0.6,1.2,1,1.6c-0.1,0.4-0.2,0.8-0.1,1.3
		c0.1,1,0.6,2.1,1.1,3.1s1.2,2,1.6,2.7l-4.2-14.5C422.9,391.6,422.9,392,422.9,392.5z"/>
	<path class="st1" d="M549.6,437.1c0.1,0,0.2,0,0.3,0c0.5-0.1,0.9-0.1,1.4-0.2l-1.9-6.6l-1.7,0.3L549.6,437.1z"/>
	<path class="st1" d="M422.4,390.2l0.4,0.4c0-0.9,0.5-1.7,1.4-1.9l100.9-29.2c1-0.3,2.1,0.3,2.4,1.3l10.7,36.9h0.1
		c0.5-0.1,1-0.2,1.5-0.4l-11.3-38.9c-0.3-1.1-1.4-1.7-2.5-1.4l-103.9,30c-1.1,0.3-1.7,1.4-1.4,2.5l0.5,1.6l0.1-0.1
		C421.8,390.7,422.1,390.4,422.4,390.2z"/>
	<polygon class="st1" points="441.5,455.2 440,456.2 440.9,459.3 442.5,458.8 	"/>
	<path class="st1" d="M432.8,421.1c0.1-0.1,0.3-0.2,0.4-0.3l-8.2-28.3c-0.3-1,0.3-2,1.3-2.3l97.9-28.3c1-0.3,2,0.3,2.3,1.3
		l10.1,34.8c0.1,0,0.1,0,0.2,0c0.5-0.1,0.9-0.2,1.4-0.3l-10.7-36.9c-0.3-1-1.4-1.6-2.4-1.3l-100.9,29.2c-0.9,0.3-1.4,1.1-1.4,1.9
		l0.1,0.1c0,0.1,0,0.3,0,0.5l4.2,14.5c0.5,0.7,0.9,1.2,0.9,1.2s-0.2,0-0.5,0l4.3,14.8C432.1,421.5,432.5,421.3,432.8,421.1z"/>
	<path class="st1" d="M548,437.3c0.6-0.1,1.1-0.1,1.6-0.2l-1.9-6.6l-1.6,0.3L548,437.3z"/>
	<polygon class="st1" points="442.9,454.2 441.5,455.2 442.5,458.8 444.1,458.3 	"/>
	<path class="st1" d="M434.5,419.5l-7.4-25.7c-0.3-1,0.3-2,1.2-2.2l95-27.5c1-0.3,2,0.3,2.2,1.2l9.5,32.9c0.1,0,0.1,0,0.2,0
		c0.4-0.1,0.9-0.2,1.4-0.3L526.5,363c-0.3-1-1.3-1.6-2.3-1.3L426.3,390c-1,0.3-1.6,1.3-1.3,2.3l8.2,28.3c0.3-0.2,0.6-0.5,0.9-0.8
		C434.3,419.9,434.4,419.7,434.5,419.5z"/>
	<path class="st1" d="M546.4,437.5c0.5-0.1,1.1-0.1,1.6-0.2l-1.9-6.5l-1.6,0.3L546.4,437.5z"/>
	<polygon class="st1" points="444.3,453.3 442.9,454.2 444.1,458.3 445.6,457.9 	"/>
	<path class="st1" d="M435.5,417.5l-6.4-22.3c-0.3-0.9,0.3-1.9,1.2-2.2l92.1-26.7c0.9-0.3,1.9,0.3,2.2,1.2l9,31c0.1,0,0.1,0,0.2,0
		c0.4-0.1,0.9-0.2,1.3-0.3l-9.5-32.9c-0.3-1-1.3-1.5-2.2-1.2l-95,27.5c-1,0.3-1.5,1.3-1.2,2.2l7.4,25.7c0.2-0.3,0.4-0.5,0.6-0.9
		C435.3,418.3,435.4,418,435.5,417.5z"/>
	<path class="st1" d="M544.9,437.7c0.5-0.1,1-0.1,1.6-0.2l-1.9-6.5l-1.5,0.2L544.9,437.7z"/>
	<polygon class="st1" points="447.1,457.4 445.6,452.3 444.3,453.3 445.6,457.9 	"/>
	<path class="st1" d="M435.9,415.1c0-0.4,0-0.8-0.1-1.2c0,0,0.1,0,0.2-0.1l-5-17.2c-0.3-0.9,0.3-1.9,1.2-2.1l89.4-25.9
		c0.9-0.3,1.9,0.3,2.1,1.2l8.4,29.2c0.1,0,0.1,0,0.2,0c0.4-0.1,0.8-0.2,1.3-0.3l-9-31c-0.3-0.9-1.2-1.5-2.2-1.2l-92.1,26.7
		c-0.9,0.3-1.5,1.2-1.2,2.2l6.4,22.3c0-0.2,0.1-0.3,0.1-0.5C435.8,416.5,435.9,415.8,435.9,415.1z"/>
	<path class="st1" d="M543.4,437.8c0.5-0.1,1-0.1,1.5-0.2l-1.8-6.4l-1.5,0.2L543.4,437.8z"/>
	<polygon class="st1" points="446.9,451.5 445.6,452.3 447.1,457.4 448.5,457 	"/>
	<path class="st1" d="M540.1,431.7l1.8,6.2c0.5,0,1-0.1,1.5-0.1l-1.8-6.3L540.1,431.7z"/>
	<path class="st1" d="M437.3,413l-4.4-15.1c-0.3-0.9,0.3-1.8,1.1-2.1l86.7-25.1c0.9-0.3,1.8,0.3,2.1,1.1l7.9,27.4c0.1,0,0.1,0,0.2,0
		c0.4-0.1,0.8-0.2,1.2-0.3l-8.4-29.2c-0.3-0.9-1.2-1.4-2.1-1.2l-89.4,25.9c-0.9,0.3-1.4,1.2-1.2,2.1l5,17.2c0.1-0.1,0.3-0.1,0.4-0.2
		C436.7,413.4,437,413.2,437.3,413z"/>
	<polygon class="st1" points="448.2,450.6 446.9,451.5 448.5,457 449.9,456.6 	"/>
	<path class="st1" d="M438.5,412.1l-3.8-13c-0.2-0.8,0.2-1.7,1.1-2l84.1-24.3c0.8-0.2,1.7,0.2,2,1.1l7.4,25.6h0.1
		c0.4-0.1,0.8-0.2,1.2-0.3l-7.9-27.4c-0.3-0.9-1.2-1.4-2.1-1.1l-86.7,25.1c-0.9,0.3-1.4,1.2-1.1,2.1l4.4,15.1
		c0.1-0.1,0.3-0.2,0.4-0.3C438,412.5,438.2,412.3,438.5,412.1z"/>
	<path class="st1" d="M540.5,438.1c0.5,0,0.9-0.1,1.4-0.1l-1.8-6.2l-1.4,0.2L540.5,438.1z"/>
	<polygon class="st1" points="449.4,449.8 448.2,450.6 449.9,456.6 451.2,456.2 	"/>
	<path class="st1" d="M519.9,372.8l-84.1,24.3c-0.8,0.2-1.3,1.1-1.1,2l3.8,13c0.1-0.1,0.3-0.2,0.4-0.3c0.3-0.3,0.5-0.5,0.7-0.8
		l-3.1-10.6c-0.2-0.8,0.2-1.7,1.1-1.9l81.6-23.6c0.8-0.2,1.7,0.2,1.9,1.1l6.9,23.9c0.4-0.1,0.8-0.2,1.3-0.3l-7.4-25.6
		C521.7,373.1,520.8,372.6,519.9,372.8z"/>
	<path class="st1" d="M537.3,432.2l1.7,6c0.5,0,0.9-0.1,1.4-0.1l-1.8-6.1l-1.2,0.2H537.3z"/>
	<polygon class="st1" points="450.6,448.9 449.4,449.8 451.2,456.2 452.5,455.8 	"/>
	<path class="st1" d="M440.3,409.3c0-0.2,0-0.4,0-0.6l-0.1-0.5c0-0.1,0-0.1-0.1-0.2l0,0l-1.9-6.5c-0.2-0.8,0.2-1.6,1-1.9l79.1-22.9
		c0.8-0.2,1.6,0.2,1.9,1l6.4,22.3c0.4-0.1,0.8-0.2,1.3-0.3l-6.9-23.9c-0.2-0.8-1.1-1.3-1.9-1.1l-81.6,23.6c-0.8,0.2-1.3,1.1-1.1,1.9
		l3.1,10.6c0.1-0.1,0.2-0.2,0.2-0.3C440.1,410.2,440.3,409.8,440.3,409.3z"/>
	<path class="st1" d="M537.7,438.3c0.1,0,0.2,0,0.3,0c0.4,0,0.7-0.1,1.1-0.1l-1.7-6l-1.3,0.2L537.7,438.3z"/>
	<polygon class="st1" points="451.7,448.2 450.6,448.9 452.5,455.8 453.8,455.4 	"/>
	<path class="st1" d="M440.1,408.2l0.1,0.5C440.3,408.5,440.2,408.4,440.1,408.2z"/>
	<path class="st1" d="M439.9,402.7c-0.2-0.8,0.2-1.6,1-1.8l76.7-22.2c0.8-0.2,1.6,0.2,1.8,1l6,20.7c0.1,0,0.1,0,0.2,0
		c0,0,0.4-0.1,1.1-0.2l-6.4-22.3c-0.2-0.8-1.1-1.3-1.9-1l-79.1,22.9c-0.8,0.2-1.3,1.1-1,1.9l1.9,6.5c0.1,0.1,0.8,0.7,1.8,1.5
		L439.9,402.7z"/>
	<path class="st1" d="M536.4,438.4c0.4,0,0.9-0.1,1.3-0.1l-1.7-5.9l-1.3,0.2L536.4,438.4z"/>
	<polygon class="st1" points="454.2,455.3 454.9,454.5 452.8,447.4 451.7,448.2 453.8,455.4 	"/>
	<path class="st1" d="M535.2,438.5c0.4,0,0.8-0.1,1.3-0.1l-1.7-5.8l-1.2,0.2L535.2,438.5z"/>
	<path class="st1" d="M441.5,403.8c-0.2-0.8,0.2-1.5,1-1.8l74.4-21.5c0.8-0.2,1.5,0.2,1.8,1l5.6,19.2c0.4-0.1,0.8-0.2,1.2-0.3
		l-6-20.7c-0.2-0.8-1-1.2-1.8-1L441,400.9c-0.8,0.2-1.2,1-1,1.8l2,6.8c0.5,0.4,1,0.8,1.6,1.2L441.5,403.8z"/>
	<polygon class="st1" points="453.9,446.6 452.8,447.4 454.9,454.5 455.8,453.4 	"/>
	<path class="st1" d="M445,411.7l-2-6.8c-0.2-0.7,0.2-1.5,0.9-1.7l72.2-20.9c0.7-0.2,1.5,0.2,1.7,0.9l5.1,17.8
		c0.4-0.1,0.8-0.2,1.2-0.3l-5.6-19.2c-0.2-0.8-1-1.2-1.8-1L442.3,402c-0.8,0.2-1.2,1-1,1.8l2,6.9c0.3,0.2,0.6,0.4,1,0.6
		C444.6,411.5,444.8,411.6,445,411.7z"/>
	<path class="st1" d="M532.3,433l1.6,5.6c0.4,0,0.8-0.1,1.2-0.1l-1.7-5.7L532.3,433z"/>
	<polygon class="st1" points="454.9,445.9 453.9,446.6 455.8,453.4 456.8,452.3 	"/>
	<path class="st1" d="M446.5,412.5l-1.9-6.6c-0.2-0.7,0.2-1.5,0.9-1.7l70-20.3c0.7-0.2,1.5,0.2,1.7,0.9l4.7,16.3
		c0.4-0.1,0.8-0.2,1.1-0.3l-5.1-17.8c-0.2-0.7-1-1.2-1.7-0.9L444,403c-0.7,0.2-1.2,1-0.9,1.7l2,6.8C445.5,412,446,412.2,446.5,412.5
		z"/>
	<path class="st1" d="M532.8,438.7c0.4,0,0.8-0.1,1.2-0.1l-1.6-5.6l-1.2,0.2L532.8,438.7z"/>
	<polygon class="st1" points="456,445.2 454.9,445.9 456.8,452.3 457.7,451.3 	"/>
	<path class="st1" d="M515.5,384l-70,20.3c-0.7,0.2-1.1,1-0.9,1.7l1.9,6.6c0.4,0.2,0.9,0.4,1.4,0.6l-1.8-6.2
		c-0.2-0.7,0.2-1.4,0.9-1.6l67.9-19.7c0.7-0.2,1.4,0.2,1.6,0.9l4.3,15c0.4-0.1,0.7-0.2,1.1-0.3l-4.7-16.3
		C517,384.2,516.2,383.8,515.5,384z"/>
	<path class="st1" d="M531.6,438.8c0.4,0,0.8-0.1,1.2-0.1l-1.6-5.5l-1.1,0.2L531.6,438.8z"/>
	<polygon class="st1" points="456.9,444.6 456,445.2 457.7,451.3 458.6,450.2 	"/>
	<path class="st1" d="M449.1,413.6l-1.6-5.6c-0.2-0.7,0.2-1.4,0.9-1.6l11.8-3.4c0-0.1,0-0.2,0-0.3l0.5-0.1l1.1-0.3l1.1-0.3l5.3-1.5
		c0.1,0.1,0.2,0.1,0.3,0.2l45.8-13.2c0.7-0.2,1.4,0.2,1.6,0.9l3.9,13.6c0.4-0.1,0.7-0.1,1.1-0.2l-4.3-15c-0.2-0.7-0.9-1.1-1.6-0.9
		l-67.9,19.7c-0.7,0.2-1.1,0.9-0.9,1.6l1.8,6.2c0.2,0.1,0.5,0.2,0.7,0.3C448.7,413.5,448.9,413.5,449.1,413.6z"/>
	<path class="st1" d="M530.5,438.9c0.4,0,0.7-0.1,1.1-0.1l-1.6-5.4l-1.1,0.2L530.5,438.9z"/>
	<polygon class="st1" points="457.9,443.9 456.9,444.6 458.6,450.2 459.4,449.3 	"/>
	<path class="st1" d="M448.9,408.9c-0.2-0.6,0.2-1.3,0.8-1.5l10.3-3c0-0.3,0.1-0.7,0.1-1c0-0.1,0-0.3,0-0.4l-11.8,3.4
		c-0.7,0.2-1.1,0.9-0.9,1.6l1.6,5.6c0.4,0.1,0.8,0.2,1.2,0.3L448.9,408.9z"/>
	<path class="st1" d="M529.4,439c0.4,0,0.7,0,1.1-0.1l-1.5-5.3l-1.1,0.2L529.4,439z"/>
	<path class="st1" d="M469.6,401.6l44-12.7c0.6-0.2,1.3,0.2,1.5,0.8l3.6,12.3c0.1-0.1,0.2-0.1,0.4-0.2c0.2,0,0.4-0.1,0.7-0.1
		l-3.9-13.6c-0.2-0.7-0.9-1.1-1.6-0.9l-45.8,13.2c0.2,0.1,0.3,0.2,0.5,0.4C469.2,401.1,469.4,401.3,469.6,401.6z"/>
	<polygon class="st1" points="460.3,448.3 458.8,443.3 457.9,443.9 459.4,449.3 	"/>
	<path class="st1" d="M470.3,402.5c0,0.1,0.1,0.1,0.1,0.2l23-6.7c0.1-0.1,0.1-0.2,0.2-0.3c0.2-0.4,0.4-0.7,0.4-1.2l0,0
		c0,0.1,0.1,0.4,0.4,0.9c0,0.1,0.1,0.1,0.1,0.2l18.4-5.3c0.6-0.2,1.3,0.2,1.5,0.8l3.4,11.8v-0.1c0.2-0.4,0.5-0.7,0.7-0.9l-3.6-12.3
		c-0.2-0.6-0.9-1-1.5-0.8l-44,12.7l0.1,0.1C469.9,402,470.1,402.2,470.3,402.5z"/>
	<path class="st1" d="M451.5,414.1l-1.2-4.3c-0.2-0.6,0.2-1.3,0.8-1.5l8.7-2.5c0.1-0.4,0.1-0.8,0.2-1.2c0-0.1,0-0.2,0-0.2l-10.3,3
		c-0.6,0.2-1,0.9-0.8,1.5l1.5,5c0.3,0.1,0.5,0.1,0.8,0.2C451.2,414.1,451.4,414.1,451.5,414.1z"/>
	<path class="st1" d="M528.3,439c0.3,0,0.7,0,1.1-0.1l-1.5-5.2l-1,0.2L528.3,439z"/>
	<polygon class="st1" points="459.7,442.6 458.8,443.3 460.3,448.3 461.1,447.4 	"/>
	<path class="st1" d="M471,403.9l10.3-3c-0.1-0.1-0.1-0.3-0.2-0.4s-0.1-0.2-0.2-0.3c0.5,0,1.1-0.1,1.6-0.2c1.1-0.1,2.2-0.3,3.3-0.5
		l4.7-1.4c0.7-0.3,1.2-0.6,1.7-1s0.9-0.8,1.2-1.2l-23,6.7c0.1,0.2,0.3,0.5,0.4,0.7C470.9,403.6,471,403.7,471,403.9z"/>
	<path class="st1" d="M451.5,410.7c-0.2-0.6,0.2-1.2,0.8-1.4l7.1-2.1v-0.1c0.1-0.4,0.2-0.8,0.3-1.2v-0.1l-8.7,2.5
		c-0.6,0.2-1,0.8-0.8,1.5l1.2,4.3c0.4,0,0.7,0,1.1,0L451.5,410.7z"/>
	<path class="st1" d="M495.3,396.8l17.2-5c0.6-0.2,1.2,0.2,1.4,0.8l3.4,11.8c0.2-0.6,0.4-1.1,0.6-1.5l-3.4-11.8
		c-0.2-0.6-0.8-1-1.5-0.8l-18.4,5.3c0.1,0.2,0.3,0.5,0.4,0.7C495.1,396.6,495.2,396.7,495.3,396.8z"/>
	<path class="st1" d="M525.8,434.1l1.5,5c0.3,0,0.5,0,0.8,0c0.1,0,0.2,0,0.3,0l-1.5-5.1L525.8,434.1z"/>
	<polygon class="st1" points="460.6,442 459.7,442.6 461.1,447.4 461.9,446.5 	"/>
	<path class="st1" d="M453.5,414l-0.7-2.5c-0.2-0.6,0.2-1.2,0.8-1.4l5.4-1.6c0-0.1,0.1-0.2,0.1-0.3c0.1-0.3,0.2-0.7,0.3-1.1
		l-7.1,2.1c-0.6,0.2-1,0.8-0.8,1.4l1,3.4c0.2,0,0.4,0,0.5,0C453.2,414.1,453.4,414.1,453.5,414z"/>
	<path class="st1" d="M526.3,439.2c0.3,0,0.7,0,1-0.1l-1.5-5l-1,0.2L526.3,439.2z"/>
	<path class="st1" d="M471.5,405l10.1-2.9c0-0.2-0.1-0.4-0.1-0.6c-0.1-0.2-0.1-0.4-0.2-0.6l-10.3,3c0.1,0.2,0.2,0.4,0.2,0.5
		C471.4,404.6,471.4,404.8,471.5,405z"/>
	<path class="st1" d="M490.5,398.2l-4.7,1.4C487.6,399.3,489.2,398.8,490.5,398.2z"/>
	<path class="st1" d="M496.2,397.9l15.7-4.5c0.6-0.2,1.2,0.2,1.4,0.8l3.5,12.2c0-0.1,0-0.2,0.1-0.2c0.1-0.5,0.3-1.1,0.5-1.5l0,0
		l-3.4-11.8c-0.2-0.6-0.8-1-1.4-0.8l-17.2,5c0.1,0.2,0.2,0.3,0.4,0.5C495.8,397.5,496,397.7,496.2,397.9z"/>
	<polygon class="st1" points="461.4,441.5 460.6,442 461.9,446.5 462.6,445.6 	"/>
	<path class="st1" d="M511.9,393.3l-15.7,4.5c0.1,0.1,0.2,0.2,0.3,0.3c0.2,0.2,0.4,0.4,0.7,0.6l14.2-4.1c0.6-0.2,1.2,0.2,1.3,0.7
		l3.7,12.7c0-0.2,0.1-0.4,0.1-0.6c0.1-0.5,0.2-0.9,0.3-1.3l-3.5-12.2C513.1,393.5,512.5,393.1,511.9,393.3z"/>
	<path class="st1" d="M471.9,406.1l9.9-2.9c0-0.3,0-0.5-0.1-0.8c0-0.1,0-0.3-0.1-0.4l-10.1,2.9c0.1,0.1,0.1,0.3,0.2,0.4
		C471.7,405.6,471.8,405.9,471.9,406.1z"/>
	<path class="st1" d="M454,412.4c-0.2-0.6,0.2-1.2,0.7-1.3l3.6-1c0.1-0.2,0.2-0.4,0.3-0.6c0.1-0.3,0.2-0.5,0.3-0.8l-5.4,1.6
		c-0.6,0.2-0.9,0.8-0.8,1.4l0.7,2.5c0.3-0.1,0.6-0.1,0.9-0.2L454,412.4z"/>
	<path class="st1" d="M525.3,439.2c0.3,0,0.6,0,1-0.1l-1.4-4.9l-0.9,0.2L525.3,439.2z"/>
	<polygon class="st1" points="462.3,440.9 461.4,441.5 462.6,445.6 463.4,444.8 	"/>
	<path class="st1" d="M455.3,413.5l-0.1-0.2c-0.2-0.6,0.2-1.1,0.7-1.3l1.6-0.5c0.2-0.3,0.4-0.6,0.6-0.9c0.1-0.2,0.2-0.3,0.2-0.5
		l-3.6,1c-0.6,0.2-0.9,0.8-0.7,1.3l0.4,1.4h0.1C454.8,413.7,455,413.6,455.3,413.5z"/>
	<path class="st1" d="M472.2,407.2l9.6-2.8c0-0.3,0-0.6,0-0.9c0-0.1,0-0.2,0-0.3l-9.9,2.9c0,0.1,0.1,0.2,0.1,0.3
		C472.1,406.7,472.1,407,472.2,407.2z"/>
	<path class="st1" d="M498.3,399.7l12.5-3.6c0.6-0.2,1.1,0.2,1.3,0.7l3.9,13.3c0.1-0.4,0.1-0.7,0.2-1.1c0.1-0.3,0.1-0.6,0.2-0.9
		l-3.7-12.7c-0.2-0.6-0.8-0.9-1.3-0.7l-14.2,4.1c0.1,0.1,0.2,0.2,0.3,0.2C497.7,399.3,498,399.5,498.3,399.7z"/>
	<path class="st1" d="M524.4,439.3c0.3,0,0.6,0,0.9-0.1l-1.4-4.9l-0.9,0.1L524.4,439.3z"/>
	<polygon class="st1" points="463.1,440.4 462.3,440.9 463.4,444.8 464.1,444 	"/>
	<path class="st1" d="M499.6,400.5l10.7-3.1c0.5-0.2,1.1,0.2,1.3,0.7l4.1,14.1l0,0c0.1-0.5,0.2-1.1,0.2-1.6c0-0.2,0.1-0.3,0.1-0.5
		l-3.9-13.3c-0.2-0.6-0.7-0.9-1.3-0.7l-12.5,3.6c0.1,0.1,0.2,0.1,0.3,0.2C498.9,400.1,499.2,400.3,499.6,400.5z"/>
	<path class="st1" d="M523.5,439.3c0.3,0,0.6,0,0.9-0.1l-1.4-4.8l-0.9,0.1L523.5,439.3z"/>
	<path class="st1" d="M472.3,407.5c0.1,0.3,0.1,0.5,0.2,0.8l9.2-2.7c0-0.3,0.1-0.6,0.1-0.9c0-0.1,0-0.2,0-0.3l-9.6,2.8
		C472.2,407.3,472.3,407.4,472.3,407.5z"/>
	<path class="st1" d="M456.7,412.4c0.3-0.3,0.5-0.6,0.8-0.9c0,0,0,0,0-0.1l-1.6,0.5c-0.6,0.2-0.9,0.7-0.7,1.3l0.1,0.2
		c0.2-0.1,0.3-0.2,0.5-0.3C456.1,413,456.4,412.7,456.7,412.4z"/>
	<polygon class="st1" points="463.8,439.8 463.1,440.4 464.1,444 464.8,443.2 	"/>
	<path class="st1" d="M472.7,409.4l8.9-2.6c0-0.3,0.1-0.6,0.1-0.9c0-0.1,0-0.2,0-0.3l-9.2,2.7c0,0.1,0,0.2,0.1,0.3
		C472.6,408.8,472.7,409.1,472.7,409.4z"/>
	<path class="st1" d="M521.3,434.8l1.3,4.6c0.3,0,0.6,0,0.9,0l-1.4-4.7l-0.5,0.1H521.3z"/>
	<path class="st1" d="M501.1,401.2l8.8-2.5c0.5-0.2,1.1,0.2,1.2,0.7l4.3,14.9c0-0.2,0-0.3,0.1-0.5c0.1-0.5,0.1-1.1,0.2-1.6
		l-4.1-14.1c-0.2-0.5-0.7-0.8-1.3-0.7l-10.7,3.1c0.1,0.1,0.2,0.1,0.3,0.2C500.3,400.8,500.7,401,501.1,401.2z"/>
	<polygon class="st1" points="464.6,439.3 463.8,439.8 464.8,443.2 465.5,442.4 	"/>
	<path class="st1" d="M502.7,401.8l6.6-1.9c0.5-0.1,1,0.1,1.2,0.7l4.6,15.8c0-0.3,0.1-0.7,0.1-1c0-0.4,0.1-0.7,0.1-1.1l-4.3-14.9
		c-0.2-0.5-0.7-0.8-1.2-0.7l-8.8,2.5c0.2,0.1,0.3,0.1,0.5,0.2C501.9,401.5,502.3,401.7,502.7,401.8z"/>
	<path class="st1" d="M521.8,439.4c0.3,0,0.6,0,0.9,0l-1.3-4.6l-0.8,0.1L521.8,439.4z"/>
	<path class="st1" d="M472.9,410.4l8.5-2.5c0-0.3,0.1-0.5,0.1-0.8c0-0.1,0-0.2,0-0.4l-8.9,2.6c0,0.1,0,0.2,0.1,0.3
		C472.8,409.9,472.9,410.2,472.9,410.4z"/>
	<polygon class="st1" points="466.1,441.7 465.3,438.8 464.6,439.3 465.5,442.4 	"/>
	<path class="st1" d="M473.1,411.4l8.1-2.3c0-0.2,0.1-0.4,0.1-0.6s0.1-0.3,0.1-0.5l-8.5,2.5c0,0.1,0.1,0.3,0.1,0.4
		C473,411,473.1,411.2,473.1,411.4z"/>
	<path class="st1" d="M504.7,402.3l4.2-1.2c0.5-0.1,1,0.1,1.1,0.6l4.8,16.7c0.1-0.5,0.1-1,0.2-1.5c0-0.2,0.1-0.4,0.1-0.6l-4.6-15.8
		c-0.1-0.5-0.7-0.8-1.2-0.7l-6.6,1.9c0.3,0.1,0.5,0.2,0.8,0.2C503.9,402.1,504.3,402.2,504.7,402.3z"/>
	<path class="st1" d="M520.9,439.5c0.3,0,0.5,0,0.8,0l-1.3-4.5l-0.8,0.1L520.9,439.5z"/>
	<polygon class="st1" points="466,438.3 465.3,438.8 466.1,441.7 466.8,441 	"/>
	<path class="st1" d="M518.9,435.2l1.2,4.3c0.2,0,0.5,0,0.8,0l-1.3-4.4L518.9,435.2z"/>
	<path class="st1" d="M473.2,412.4l7.8-2.2c0-0.1,0.1-0.3,0.1-0.4c0-0.2,0.1-0.5,0.1-0.7l-8.1,2.3c0,0.2,0.1,0.4,0.1,0.6
		C473.2,412.2,473.2,412.3,473.2,412.4z"/>
	<path class="st1" d="M505.9,402.6l0.4,0.2l2-0.6c0.5-0.1,1,0.1,1.1,0.6l5.1,17.7c0-0.1,0-0.1,0-0.2c0.1-0.6,0.1-1.1,0.2-1.7
		c0-0.1,0-0.1,0-0.2l-4.8-16.7c-0.1-0.5-0.7-0.8-1.1-0.6l-4.2,1.2c0.5,0.1,0.9,0.2,1.4,0.2L505.9,402.6z"/>
	<polygon class="st1" points="466.7,437.9 466,438.3 466.8,441 467.4,440.3 	"/>
	<path class="st1" d="M473.3,413.4l7.4-2.1v-0.1c0.1-0.3,0.1-0.6,0.2-0.9l-7.8,2.2c0,0.3,0.1,0.6,0.1,0.9
		C473.3,413.3,473.3,413.3,473.3,413.4z"/>
	<path class="st1" d="M507.5,403.4v0.1l0.5-0.1c0.5-0.1,0.9,0.1,1.1,0.6l5.4,18.7c0-0.2,0-0.4,0-0.6c0-0.5,0.1-1,0.1-1.5l-5.1-17.7
		c-0.1-0.5-0.6-0.8-1.1-0.6l-2,0.6L507.5,403.4L507.5,403.4z"/>
	<path class="st1" d="M519.3,439.5c0.2,0,0.5,0,0.8,0l-1.2-4.3l-0.8,0.1L519.3,439.5z"/>
	<polygon class="st1" points="467.3,437.4 466.7,437.9 467.4,440.3 468,439.6 	"/>
	<path class="st1" d="M480.5,412.3c0.1-0.3,0.2-0.7,0.2-1l-7.4,2.1c0,0.3,0.1,0.6,0.1,0.9L480.5,412.3z"/>
	<path class="st1" d="M508,403.4l-0.5,0.1v1l0,0c0.4-0.1,0.9,0.1,1,0.6l5.7,19.7c0-0.3,0-0.6,0.1-0.9c0-0.4,0.1-0.8,0.1-1.2L509,404
		C508.9,403.5,508.4,403.2,508,403.4z"/>
	<path class="st1" d="M518.6,439.6c0.1,0,0.3,0,0.5,0c0.1,0,0.2,0,0.2,0l-1.2-4.2l-0.7,0.1L518.6,439.6z"/>
	<polygon class="st1" points="468,437 467.3,437.4 468,439.6 468.6,438.9 	"/>
	<path class="st1" d="M473.5,415.2l6.7-1.9c0.1-0.3,0.1-0.5,0.2-0.8c0-0.1,0-0.2,0.1-0.2l-7.1,2c0,0.1,0,0.1,0,0.2
		C473.5,414.7,473.5,415,473.5,415.2z"/>
	<path class="st1" d="M517.9,439.7c0.2,0,0.3-0.1,0.3-0.1s0.2,0,0.4,0l-1.2-4.1l-0.7,0.1L517.9,439.7z"/>
	<path class="st1" d="M507.5,405.5c0.3,0.1,0.5,0.3,0.6,0.6l6,20.7c0-0.4,0.1-0.7,0.1-1.1c0-0.3,0-0.6,0.1-0.9l-5.7-19.7
		c-0.1-0.4-0.6-0.7-1-0.6l0,0v0.2L507.5,405.5z"/>
	<polygon class="st1" points="468.6,436.5 468,437 468.6,438.9 469.1,438.3 	"/>
	<path class="st1" d="M517.2,439.8c0.3,0,0.5-0.1,0.7-0.1l-1.2-4.1l-0.7,0.1L517.2,439.8z"/>
	<path class="st1" d="M507.5,406.8c0.1,0.1,0.1,0.2,0.2,0.3l6.3,21.7c0-0.4,0.1-0.9,0.1-1.3c0-0.2,0-0.5,0.1-0.7l-6-20.7
		c-0.1-0.3-0.3-0.5-0.6-0.6v0.5L507.5,406.8z"/>
	<path class="st1" d="M473.6,415.8c0,0.1,0,0.2,0,0.3l6.4-1.8c0-0.1,0.1-0.2,0.1-0.3c0.1-0.2,0.1-0.4,0.2-0.6l-6.7,1.9
		C473.6,415.4,473.6,415.6,473.6,415.8z"/>
	<polygon class="st1" points="469.2,436.1 468.6,436.5 469.1,438.3 469.7,437.7 	"/>
	<path class="st1" d="M507.6,408.7v0.3l6.3,21.7c0-0.5,0.1-0.9,0.1-1.5c0-0.2,0-0.4,0-0.5l-6.3-21.7c0-0.1-0.1-0.2-0.2-0.3v0.6
		L507.6,408.7z"/>
	<path class="st1" d="M516.5,439.8c0.3,0,0.5,0,0.7,0l-1.2-4.1l-0.7,0.1L516.5,439.8z"/>
	<path class="st1" d="M479.8,415.2c0.1-0.3,0.2-0.6,0.3-1l-6.4,1.8c0,0.3,0,0.6,0.1,0.9L479.8,415.2z"/>
	<polygon class="st1" points="469.8,435.7 469.2,436.1 469.7,437.7 470.2,437.1 	"/>
	<path class="st1" d="M473.8,417.8l5.7-1.7c0.1-0.3,0.1-0.5,0.2-0.8c0-0.1,0-0.1,0-0.2l-6.1,1.8v0.1
		C473.7,417.3,473.7,417.6,473.8,417.8z"/>
	<path class="st1" d="M515.8,439.7c0.2,0,0.5,0,0.7,0l-1.2-4l-0.7,0.1L515.8,439.7z"/>
	<path class="st1" d="M507.6,411.5l6.1,21.2c0-0.5,0.1-1,0.1-1.5c0-0.1,0-0.3,0-0.4l-6.3-21.7v1.1L507.6,411.5z"/>
	<polygon class="st1" points="470.7,436.5 470.4,435.3 469.8,435.7 470.2,437.1 	"/>
	<path class="st1" d="M473.8,418.6l5.4-1.6c0-0.1,0-0.1,0.1-0.2c0.1-0.2,0.1-0.5,0.2-0.7l-5.7,1.7c0,0.2,0,0.4,0,0.7V418.6z"/>
	<path class="st1" d="M515.1,439.6c0.2,0.1,0.5,0.1,0.7,0.1l-1.1-3.9l-0.6,0.1L515.1,439.6z"/>
	<path class="st1" d="M507.6,413v0.9l6,20.8c0-0.4,0-0.9,0.1-1.5c0-0.1,0-0.3,0-0.4l-6.1-21.2l0,0V413z"/>
	<polygon class="st1" points="470.9,434.9 470.4,435.3 470.7,436.5 471.2,435.9 	"/>
	<path class="st1" d="M479,417.9c0.1-0.3,0.2-0.6,0.3-0.9l-5.4,1.6c0,0.3,0,0.5,0,0.8L479,417.9z"/>
	<path class="st1" d="M513.6,436c0,0,0-0.4,0-1c0-0.1,0-0.3,0-0.4l-6-20.8v0.6v1.5v0.3l6.7,23.2c0.2,0.1,0.5,0.2,0.7,0.2l-1.1-3.6
		L513.6,436z"/>
	<polygon class="st1" points="471.5,434.6 470.9,434.9 471.2,435.9 471.7,435.4 	"/>
	<path class="st1" d="M507.7,418.5l6,20.6c0.2,0.1,0.5,0.2,0.7,0.3l-6.7-23.2v1.3V418.5z"/>
	<path class="st1" d="M473.9,420.2l4.8-1.4c0-0.1,0.1-0.3,0.1-0.4c0-0.2,0.1-0.3,0.1-0.5l-5.1,1.5c0,0.1,0,0.3,0,0.4
		C473.9,420,473.9,420.1,473.9,420.2z"/>
	<polygon class="st1" points="472,434.2 471.5,434.6 471.7,435.4 472.2,434.8 	"/>
	<path class="st1" d="M507.7,420.7l5.2,18c0.2,0.2,0.5,0.3,0.7,0.4l0,0l-6-20.6v0.6L507.7,420.7z"/>
	<path class="st1" d="M473.9,420.9l4.6-1.3c0.1-0.3,0.2-0.6,0.3-0.8l-4.8,1.4C473.9,420.4,473.9,420.7,473.9,420.9z"/>
	<polygon class="st1" points="472.5,433.9 472,434.2 472.2,434.8 472.6,434.3 	"/>
	<path class="st1" d="M473.9,421.7l4.3-1.2c0-0.2,0.1-0.3,0.1-0.5c0-0.1,0.1-0.2,0.1-0.4l-4.6,1.3c0,0.1,0,0.2,0,0.3
		C473.9,421.4,473.9,421.5,473.9,421.7z"/>
	<path class="st1" d="M507.7,422.3v0.5l4.4,15.2c0.3,0.2,0.5,0.4,0.8,0.6l-5.2-18l0,0V422.3z"/>
	<polygon class="st1" points="473,433.5 472.5,433.9 472.6,434.3 473.1,433.8 	"/>
	<path class="st1" d="M478,421.2c0.1-0.3,0.2-0.5,0.2-0.8l-4.3,1.2c0,0.2,0,0.5,0,0.7L478,421.2z"/>
	<path class="st1" d="M507.8,424.9l3.6,12.3c0.1,0.2,0.3,0.3,0.4,0.5s0.3,0.3,0.4,0.4l-4.4-15.2v1.2V424.9z"/>
	<polygon class="st1" points="473.5,433.3 473.4,433.2 473,433.5 473.1,433.8 	"/>
	<path class="st1" d="M473.8,433c0,0,0-0.1,0.1-0.2l-0.1-0.2C473.8,432.8,473.8,433,473.8,433z"/>
	<path class="st1" d="M507.8,425.7c0,0.6,0.1,1.2,0.2,1.7c0,0.1,0,0.1,0,0.2l2.4,8.2c0,0.1,0.1,0.2,0.1,0.2c0.3,0.4,0.5,0.8,0.8,1.2
		l-3.6-12.3v0.3C507.8,425.3,507.8,425.5,507.8,425.7z"/>
	<path class="st1" d="M474,423.1l3.7-1.1c0-0.1,0.1-0.3,0.1-0.4s0.1-0.2,0.1-0.4l-4,1.2c0,0.1,0,0.2,0,0.3
		C474,422.8,474,422.9,474,423.1z"/>
	<polygon class="st1" points="473.4,433.2 473.5,433.3 473.8,433 	"/>
	<path class="st1" d="M477.5,422.7c0.1-0.2,0.2-0.5,0.2-0.7l-3.7,1.1c0,0.2,0,0.4,0,0.7L477.5,422.7z"/>
	<path class="st1" d="M474.2,432l-0.3-1c0,0.4,0,0.8,0,1.1c0,0.2,0,0.3,0,0.5l0.1,0.2C473.9,432.6,474,432.4,474.2,432L474.2,432z"
		/>
	<path class="st1" d="M508.2,429.1c0.1,0.6,0.2,1.2,0.3,1.7c0.1,0.6,0.3,1.2,0.5,1.7c0.2,0.6,0.4,1.2,0.6,1.7s0.5,1,0.7,1.5
		l-2.4-8.2C508.1,428.1,508.1,428.6,508.2,429.1z"/>
	<path class="st1" d="M473.9,429.4c0,0.4,0,0.8,0,1.1c0,0.2,0,0.4,0,0.5l0.3,1c0.1-0.2,0.2-0.5,0.3-0.8L473.9,429.4z"/>
	<path class="st1" d="M474,424.2c0,0.1,0,0.1,0,0.2l3.2-0.9c0-0.1,0-0.1,0.1-0.2c0.1-0.2,0.1-0.3,0.2-0.5l-3.5,1
		C474,423.9,474,424,474,424.2z"/>
	<path class="st1" d="M474,427.8c0,0.4,0,0.7,0,1.1c0,0.2,0,0.4,0,0.5l0.5,1.8c0.1-0.2,0.2-0.5,0.3-0.8L474,427.8z"/>
	<path class="st1" d="M477,424.1c0.1-0.2,0.2-0.5,0.2-0.7l-3.2,0.9c0,0.2,0,0.4,0,0.6L477,424.1z"/>
	<path class="st1" d="M474,426c0-0.2,0.2-0.4,0.4-0.4l2.4-0.7c0.1-0.2,0.2-0.5,0.2-0.7l-3,0.9c0,0.2,0,0.5,0,0.7
		C474,425.8,474,425.9,474,426z"/>
	<path class="st1" d="M474.9,430.2c0.1-0.2,0.1-0.3,0.2-0.5l-1-3.5c0-0.1,0-0.1,0-0.2c0,0.4,0,0.8,0,1.2c0,0.2,0,0.3,0,0.5l0.8,2.7
		C474.8,430.4,474.8,430.3,474.9,430.2z"/>
	<path class="st1" d="M474.7,426.6c-0.1-0.3,0.1-0.6,0.4-0.6l1.6-0.5c0.1-0.2,0.1-0.4,0.2-0.6v-0.1l-2.4,0.7
		c-0.2,0.1-0.3,0.2-0.4,0.4c0,0,0,0,0,0.1s0,0.1,0,0.2l1,3.5c0.1-0.2,0.2-0.5,0.3-0.7L474.7,426.6z"/>
	<path class="st1" d="M474.6,426.6l0.7,2.4c0.1-0.2,0.1-0.4,0.2-0.6v-0.1l-0.4-1.3c-0.1-0.3,0.1-0.5,0.3-0.6l0.8-0.2
		c0.1-0.2,0.1-0.4,0.2-0.6l-1.6,0.5C474.7,426,474.5,426.3,474.6,426.6z"/>
	<path class="st1" d="M475.7,427.4c-0.1-0.3,0.1-0.5,0.3-0.6l0,0v-0.1c0.1-0.2,0.1-0.3,0.2-0.5l-0.8,0.2c-0.3,0.1-0.4,0.4-0.3,0.6
		l0.4,1.3c0.1-0.2,0.2-0.5,0.2-0.7L475.7,427.4z"/>
	<path class="st1" d="M475.7,427.4l0.1,0.2c0.1-0.3,0.2-0.6,0.3-0.9l0,0C475.8,426.8,475.7,427.1,475.7,427.4z"/>
</g>
</svg>
