<?xml version="1.0" encoding="utf-8"?>
<!-- Generator: Adobe Illustrator 22.0.1, SVG Export Plug-In . SVG Version: 6.00 Build 0)  -->
<svg version="1.1" id="レイヤー_1" xmlns="http://www.w3.org/2000/svg" xmlns:xlink="http://www.w3.org/1999/xlink" x="0px"
	 y="0px" viewBox="0 0 640 640" style="enable-background:new 0 0 640 640;" xml:space="preserve">
<style type="text/css">
	.st0{fill:#E50012;stroke:#E5004C;stroke-width:0.2709;stroke-miterlimit:10;}
	.st1{fill:none;stroke:#E5004C;stroke-width:0.2709;stroke-miterlimit:10;}
</style>
<g id="レイヤー_2_1_">
</g>
<g>
	<path class="st0" d="M80.1,353.1c0.1,0.1,0.3,0.2,0.4,0.2l-0.3-0.3C80.2,353,80.1,353.1,80.1,353.1z"/>
	<path class="st0" d="M54.3,329.4c0,0,0,0,0.1-0.1l-0.3-0.3C54.2,329.2,54.2,329.3,54.3,329.4z"/>
	<path class="st1" d="M83.1,353.1c0.7-0.2,1.4-0.6,2.2-1.1c0.1,0,0.1-0.1,0.2-0.1l-1.7-1.6c-0.5,0.4-0.9,0.7-1.3,1
		c-1.1,0.8-1.8,1.3-2.1,1.5c-0.1,0.1-0.2,0.1-0.2,0.1l0.3,0.3c0,0,0,0,0.1,0C81.3,353.6,82.2,353.5,83.1,353.1z"/>
	<path class="st1" d="M56.8,325.5l-1.7-1.6c-0.1,0.2-0.3,0.5-0.4,0.7c-0.9,1.8-1.1,3.3-0.6,4.4l0.3,0.3c0.1-0.3,0.4-0.9,1.1-2
		C55.9,326.8,56.3,326.2,56.8,325.5z"/>
	<path class="st1" d="M89,349.2l-1.9-1.7c-0.2,0.2-0.3,0.3-0.5,0.5c-0.7,0.7-1.4,1.3-2,1.8c-0.3,0.2-0.5,0.4-0.8,0.6l1.7,1.6
		c0.6-0.4,1.2-0.8,1.8-1.3C87.9,350.1,88.4,349.6,89,349.2z"/>
	<path class="st1" d="M57.6,324.4c0.5-0.7,1.1-1.5,1.8-2.3l-1.9-1.7c-0.3,0.4-0.6,0.8-0.8,1.1c-0.6,0.9-1.1,1.7-1.6,2.5l1.7,1.6
		C57,325.1,57.3,324.8,57.6,324.4z"/>
	<path class="st1" d="M61.7,319.2c0.1-0.1,0.2-0.3,0.3-0.4l-1.9-1.8c-0.5,0.6-1,1.1-1.4,1.7c-0.4,0.5-0.8,1.1-1.2,1.6l1.9,1.7
		c0.1-0.1,0.2-0.2,0.3-0.3C60.2,320.9,60.9,320.1,61.7,319.2z"/>
	<path class="st1" d="M91.2,347c0.2-0.2,0.5-0.5,0.7-0.7l-1.9-1.8c-0.6,0.6-1.1,1.1-1.6,1.6c-0.5,0.5-0.9,0.9-1.4,1.3l1.9,1.7
		c0.1-0.1,0.2-0.2,0.4-0.3C90,348.3,90.6,347.7,91.2,347z"/>
	<path class="st1" d="M64.7,315.8l-1.9-1.7c-0.7,0.8-1.4,1.5-2.1,2.2c-0.2,0.3-0.4,0.5-0.7,0.8l1.9,1.8c0.5-0.6,1.1-1.3,1.7-1.9
		C64,316.5,64.3,316.1,64.7,315.8z"/>
	<path class="st1" d="M93.1,345.1c0.5-0.6,1.1-1.2,1.6-1.8l-1.9-1.7c-0.3,0.3-0.5,0.6-0.8,0.8c-0.6,0.7-1.2,1.3-1.8,1.9
		c-0.1,0.1-0.2,0.2-0.2,0.2l1.9,1.8C92.3,345.9,92.7,345.5,93.1,345.1z"/>
	<path class="st1" d="M67.3,312.9l-1.8-1.7c-0.2,0.2-0.4,0.4-0.7,0.7c-0.7,0.7-1.4,1.4-2.1,2.1c0,0,0,0,0,0l1.9,1.7
		c0.3-0.4,0.7-0.8,1-1.1C66.2,314.1,66.8,313.5,67.3,312.9z"/>
	<path class="st1" d="M96.4,341.4c0.3-0.3,0.6-0.7,0.9-1l-1.8-1.7c0,0,0,0,0,0c-0.6,0.6-1.1,1.3-1.7,1.9c-0.3,0.4-0.6,0.7-1,1
		l1.9,1.7c0,0,0.1-0.1,0.1-0.1C95.4,342.6,95.9,342,96.4,341.4z"/>
	<path class="st1" d="M67.7,312.5c0.2-0.2,0.5-0.5,0.7-0.7c0.3-0.3,0.7-0.8,1.2-1.4c0.1-0.1,0.2-0.2,0.2-0.3l-1.7-1.5
		c-0.5,0.4-0.9,0.9-1.4,1.3c-0.5,0.5-0.9,0.9-1.4,1.4l1.8,1.7C67.5,312.7,67.6,312.6,67.7,312.5z"/>
	<path class="st1" d="M99.6,337.6c0.1-0.1,0.1-0.1,0.2-0.2l-1.7-1.5c-0.4,0.4-0.7,0.7-0.9,1c-0.2,0.3-0.5,0.5-0.6,0.7
		c-0.4,0.4-0.7,0.8-1,1.2l1.8,1.7c0.2-0.3,0.5-0.5,0.7-0.8C98.5,338.9,99,338.3,99.6,337.6z"/>
	<path class="st1" d="M72.3,307.3l-1.4-1.3c0,0,0,0-0.1,0.1c-0.7,0.6-1.3,1.2-2,1.9c-0.2,0.2-0.4,0.4-0.6,0.6l1.7,1.5
		c0.5-0.6,1-1.2,1.6-1.9C71.8,307.9,72.1,307.6,72.3,307.3z"/>
	<path class="st1" d="M102,334.5l-1.4-1.3c-0.1,0.1-0.2,0.2-0.2,0.3c-0.6,0.6-1.1,1.2-1.6,1.7c-0.3,0.3-0.5,0.5-0.7,0.7l1.7,1.5
		c0.5-0.6,0.9-1.1,1.4-1.7C101.4,335.3,101.7,334.9,102,334.5z"/>
	<path class="st1" d="M102.6,333.8c0.5-0.6,1-1.3,1.5-1.9c0.1-0.1,0.1-0.2,0.2-0.2l-1.2-1.1c-0.4,0.4-0.7,0.8-1.1,1.2
		c-0.5,0.5-0.9,1-1.3,1.4l1.4,1.3C102.2,334.3,102.4,334,102.6,333.8z"/>
	<path class="st1" d="M74.7,304.6l-1.2-1.1c-0.3,0.2-0.5,0.5-0.8,0.7c-0.6,0.6-1.3,1.1-1.9,1.7l1.4,1.3c0.3-0.4,0.7-0.8,1.1-1.2
		C73.8,305.6,74.3,305.1,74.7,304.6z"/>
	<path class="st1" d="M77.1,302.3c0,0,0.1-0.1,0.1-0.1l-1-0.9c-0.5,0.4-1,0.8-1.5,1.3c-0.4,0.3-0.8,0.7-1.2,1l1.2,1.1
		c0.2-0.2,0.3-0.3,0.5-0.5C75.8,303.5,76.4,302.9,77.1,302.3z"/>
	<path class="st1" d="M106.3,328.9l-1-0.9c-0.1,0.2-0.2,0.3-0.4,0.5c-0.5,0.6-1,1.2-1.5,1.7c-0.1,0.2-0.3,0.3-0.4,0.5l1.2,1.1
		c0.4-0.6,0.8-1.1,1.2-1.6C105.7,329.6,106,329.2,106.3,328.9z"/>
	<path class="st1" d="M108.2,326.3c0-0.1,0.1-0.1,0.1-0.2l-1-0.9c-0.3,0.5-0.6,0.9-1,1.4c-0.3,0.4-0.7,0.9-1,1.3l1,0.9
		c0.2-0.2,0.4-0.5,0.5-0.7C107.3,327.5,107.8,326.9,108.2,326.3z"/>
	<path class="st1" d="M78.9,300.6c0.3-0.2,0.5-0.5,0.8-0.7l-1-0.9c-0.1,0.1-0.2,0.2-0.3,0.2c-0.6,0.5-1.2,1.1-1.9,1.6
		c-0.1,0.1-0.3,0.3-0.4,0.4l1,0.9C77.8,301.6,78.3,301.1,78.9,300.6z"/>
	<path class="st1" d="M82.4,298l-1.2-1.1c-0.3,0.3-0.6,0.5-0.9,0.8c-0.5,0.4-1,0.9-1.6,1.3l1,0.9c0.3-0.3,0.7-0.6,1-0.8
		C81.3,298.7,81.9,298.3,82.4,298z"/>
	<path class="st1" d="M110.2,323.4l-1.2-1.1c0,0.1-0.1,0.2-0.1,0.3c-0.3,0.7-0.7,1.4-1.2,2.1c-0.1,0.2-0.2,0.3-0.3,0.5l1,0.9
		c0.4-0.6,0.8-1.1,1.2-1.7C109.8,324.1,110,323.8,110.2,323.4z"/>
	<path class="st1" d="M88.7,301.3c0,0,0-0.6,0-1.8l-0.6-0.6C88.4,299.5,88.6,300.3,88.7,301.3z"/>
	<path class="st1" d="M106.9,316.2c-1.1,0.1-1.7,0.2-1.7,0.2c0.7,0,1.3,0.1,1.8,0.2c0.2,0,0.4,0.1,0.6,0.2L106.9,316.2
		C106.9,316.2,106.9,316.2,106.9,316.2z"/>
	<path class="st1" d="M110.8,322.6c0.5-0.7,0.9-1.3,1.3-1.8c0,0,0,0,0,0l-2.6-2.4l0.3,1.1c0,0.8-0.3,1.8-0.8,2.8l1.2,1.1
		C110.4,323.2,110.6,322.9,110.8,322.6z"/>
	<path class="st1" d="M84.6,297.1c0.5-0.1,1-0.1,1.5-0.1l-2.4-2.2c-0.4,0.3-1,0.8-1.6,1.3c-0.3,0.2-0.5,0.5-0.8,0.7l1.2,1.1
		c0.1,0,0.1-0.1,0.2-0.1C83.3,297.5,84,297.2,84.6,297.1z"/>
	<path class="st1" d="M113.6,320.2c0.4,0,1,0,1.7-0.1c0.1,0,0.3,0,0.5-0.1l-4.8-4.4c-0.2,0-0.4,0-0.6,0.1c-0.6,0.1-1.2,0.2-1.7,0.2
		c-0.7,0.1-1.2,0.1-1.7,0.2l0.6,0.6c0.8,0.2,1.3,0.6,1.6,1l0.2,0.7l2.6,2.4c0.4-0.6,0.6-1,0.6-1C112.9,320,113.2,320.1,113.6,320.2z
		"/>
	<path class="st1" d="M88.9,295.4l-4.8-4.4c-0.1,1.6,0.1,2.7,0.5,3.1c0,0-0.3,0.2-0.7,0.6c0,0-0.1,0.1-0.2,0.1l2.4,2.2
		c0.3,0.1,0.5,0.1,0.8,0.3c0.5,0.3,1,0.8,1.3,1.6l0.6,0.6c0-0.7,0-1.6,0.1-2.6C88.9,296.4,88.9,295.9,88.9,295.4z"/>
	<path class="st1" d="M89.1,291.6l-4.6-4.2c-0.1,0.6-0.2,1.2-0.2,1.8c-0.1,0.7-0.1,1.3-0.2,1.9l4.8,4.4C89,294.3,89,293,89.1,291.6z
		"/>
	<path class="st1" d="M119.4,319.4l-4.6-4.2c-0.3,0-0.7,0.1-1,0.1c-0.6,0.1-1.1,0.2-1.7,0.2c-0.4,0.1-0.8,0.1-1.1,0.2l4.8,4.4
		c0.8-0.1,1.8-0.3,2.9-0.5C118.9,319.5,119.2,319.4,119.4,319.4z"/>
	<path class="st1" d="M89.3,287.8l-4.3-3.9c0,0.2-0.1,0.4-0.1,0.6c-0.2,1-0.3,2-0.5,2.8l4.6,4.2c0-0.2,0-0.3,0-0.5
		C89.2,290.1,89.3,289,89.3,287.8z"/>
	<path class="st1" d="M122.8,318.5l-4.3-3.9c-0.5,0.1-1,0.2-1.5,0.2c-0.5,0.1-1.1,0.2-1.6,0.2c-0.2,0-0.4,0.1-0.6,0.1l4.6,4.2
		c0.9-0.2,1.8-0.4,2.8-0.7C122.4,318.6,122.6,318.6,122.8,318.5z"/>
	<path class="st1" d="M125.4,317.8c0.2-0.1,0.4-0.1,0.5-0.2L122,314c-0.6,0.1-1.3,0.2-1.9,0.3c-0.5,0.1-1,0.2-1.5,0.2
		c0,0-0.1,0-0.1,0l4.3,3.9C123.6,318.3,124.5,318,125.4,317.8z"/>
	<path class="st1" d="M89.6,284.3l-3.9-3.6c-0.2,1.1-0.4,2.2-0.6,3.2l4.3,3.9c0-0.7,0.1-1.4,0.2-2.1
		C89.5,285.3,89.6,284.8,89.6,284.3z"/>
	<path class="st1" d="M129,316.7l-3.6-3.3c-1.1,0.2-2.1,0.4-3.1,0.6c-0.1,0-0.2,0-0.3,0l3.9,3.6c0.8-0.2,1.6-0.5,2.5-0.7
		C128.6,316.8,128.8,316.8,129,316.7z"/>
	<path class="st1" d="M86.3,277.6c-0.2,0.9-0.4,1.9-0.6,2.8c0,0.1,0,0.2-0.1,0.3l3.9,3.6c0.1-1.1,0.2-2.3,0.3-3.4L86.3,277.6z"/>
	<path class="st1" d="M89.9,280.7c0.1-1,0.2-2.1,0.3-3.1l-3.3-3c-0.1,0.6-0.3,1.2-0.4,1.9c-0.1,0.4-0.2,0.8-0.2,1.1l3.6,3.3
		C89.9,280.8,89.9,280.8,89.9,280.7z"/>
	<path class="st1" d="M131.9,315.8l-3.3-3c-0.9,0.2-1.7,0.3-2.6,0.5c-0.2,0-0.4,0.1-0.7,0.1l3.6,3.3c0.8-0.2,1.5-0.5,2.3-0.7
		C131.5,315.9,131.7,315.8,131.9,315.8z"/>
	<path class="st1" d="M134.7,314.9l-3-2.7c-0.7,0.2-1.4,0.3-2.1,0.4c-0.3,0.1-0.7,0.1-1,0.2l3.3,3c0.7-0.2,1.5-0.5,2.2-0.7
		C134.3,315,134.5,314.9,134.7,314.9z"/>
	<path class="st1" d="M90.6,274.5l-3-2.7c-0.1,0.3-0.2,0.7-0.2,1c-0.1,0.6-0.3,1.2-0.4,1.9l3.3,3c0.1-0.5,0.1-1,0.2-1.6
		C90.5,275.5,90.6,275,90.6,274.5z"/>
	<path class="st1" d="M162.6,330.9c-0.3,0.6-0.5,1.1-0.8,1.5c-0.2,0.3-0.4,0.6-0.6,0.8c0.4,0,0.8-0.3,1.2-0.7c0.3-0.4,0.7-0.9,1-1.5
		c0.2-0.4,0.5-1,0.7-1.5c0.2-0.5,0.4-1,0.6-1.5c0,0,0-0.1,0-0.1l-1.5,1.7C163,330.1,162.8,330.5,162.6,330.9z"/>
	<path class="st1" d="M109.4,290.7c0.6,0.7,1.3,1.3,2.2,1.8c0.1,0,0.1,0.1,0.2,0.1c0.6,0.9,1.4,1.7,2.2,2.3c0.6,0.5,1.3,0.8,1.9,1.2
		c0.6,0.3,1.2,0.5,1.8,0.7c0.4,0.1,0.7,0.2,1.1,0.3l-12-11C107.4,287.7,108.2,289.3,109.4,290.7z"/>
	<path class="st1" d="M136.8,314.2c0.2-0.1,0.4-0.1,0.6-0.2l-2.7-2.5c-0.6,0.1-1.1,0.3-1.7,0.4c-0.4,0.1-0.8,0.2-1.2,0.3l3,2.7
		C135.4,314.6,136.1,314.4,136.8,314.2z"/>
	<path class="st1" d="M91,271.5l-2.7-2.5c0,0.1,0,0.1-0.1,0.2c-0.2,0.8-0.4,1.7-0.6,2.6l3,2.7c0.1-0.9,0.2-1.8,0.4-2.8
		C91,271.6,91,271.5,91,271.5z"/>
	<path class="st1" d="M89,266.3c-0.2,0.9-0.4,1.8-0.7,2.7l2.7,2.5c0.1-1,0.3-1.9,0.4-2.9L89,266.3z"/>
	<path class="st1" d="M165.5,325.1c0.1-0.5,0.3-1,0.4-1.5c0.1-0.5,0.2-0.9,0.4-1.4c0.1-0.2,0.1-0.5,0.2-0.7l-1.4,1.5
		c0,0.2-0.1,0.3-0.1,0.5c-0.1,0.5-0.2,1-0.4,1.5c-0.1,0.5-0.3,1-0.4,1.5c-0.2,0.5-0.3,1-0.5,1.5c-0.2,0.5-0.3,1-0.5,1.5
		c0,0.1-0.1,0.1-0.1,0.2l1.5-1.7c0.2-0.4,0.3-0.9,0.4-1.4C165.2,326.1,165.4,325.6,165.5,325.1z"/>
	<path class="st1" d="M140,313.1l-2.5-2.3c-0.5,0.1-0.9,0.2-1.4,0.4c-0.5,0.1-0.9,0.2-1.4,0.3l2.7,2.5c0.7-0.2,1.3-0.4,2-0.7
		C139.6,313.2,139.8,313.2,140,313.1z"/>
	<path class="st1" d="M120.9,297.3c0.5,0,1,0.1,1.5,0.1c0.2,0,0.3,0,0.5,0L106.1,282c0.1,1.3,0.3,2.6,0.7,4l12,11
		c0.2,0,0.3,0.1,0.5,0.1C119.9,297.2,120.4,297.2,120.9,297.3z"/>
	<path class="st1" d="M67,247c0.1-0.1,0.3-0.3,0.4-0.4l-0.2-0.2C67.1,246.6,67,246.8,67,247z"/>
	<path class="st1" d="M69.5,245.2l-0.6-0.5c-0.2,0.2-0.4,0.3-0.6,0.5c-0.5,0.4-0.8,0.8-1,1.2l0.2,0.2c0.3-0.2,0.6-0.5,1-0.8
		C68.8,245.6,69.1,245.4,69.5,245.2z"/>
	<path class="st1" d="M142.5,312.2l-2.3-2.1c-0.4,0.1-0.8,0.2-1.2,0.3c-0.5,0.1-1,0.3-1.5,0.4l2.5,2.3c0.6-0.2,1.3-0.4,1.9-0.6
		C142.1,312.4,142.3,312.3,142.5,312.2z"/>
	<path class="st1" d="M125.2,297.3c0.3,0,0.6-0.1,0.9-0.1L106,278.8c0,0.3,0,0.7,0,1c0,0.7,0,1.5,0.1,2.2l16.7,15.3c0.3,0,0.7,0,1,0
		C124.3,297.3,124.7,297.3,125.2,297.3z"/>
	<path class="st1" d="M166.6,320.8c0.1-0.5,0.2-0.9,0.3-1.4c0.1-0.4,0.2-0.9,0.3-1.4c0.1-0.4,0.2-0.9,0.3-1.3
		c0.1-0.3,0.1-0.6,0.2-0.9l-1.3,1.4c0,0.2-0.1,0.4-0.1,0.6c-0.1,0.5-0.2,0.9-0.3,1.4c-0.1,0.5-0.2,0.9-0.3,1.4
		c-0.1,0.5-0.2,0.9-0.3,1.4c-0.1,0.3-0.2,0.7-0.2,1l1.4-1.5C166.5,321.3,166.6,321,166.6,320.8z"/>
	<path class="st1" d="M91.9,265.9l-2.3-2.1c-0.2,0.7-0.3,1.3-0.5,2c0,0.2-0.1,0.4-0.1,0.6l2.5,2.3c0-0.3,0.1-0.6,0.1-0.9
		C91.7,267.1,91.8,266.5,91.9,265.9z"/>
	<path class="st1" d="M168,314.1c0.1-0.4,0.2-0.8,0.2-1.3c0.1-0.4,0.1-0.8,0.2-1.2c0.1-0.3,0.1-0.7,0.2-1l-1.2,1.4
		c0,0.2-0.1,0.5-0.1,0.7c-0.1,0.4-0.2,0.8-0.2,1.3c-0.1,0.4-0.2,0.9-0.2,1.3c-0.1,0.4-0.2,0.9-0.3,1.3c0,0.2-0.1,0.5-0.1,0.7
		l1.3-1.4c0-0.1,0.1-0.3,0.1-0.4C167.8,315,167.9,314.6,168,314.1z"/>
	<path class="st1" d="M92.5,263.3l-2.2-2c-0.1,0.4-0.2,0.8-0.3,1.2c-0.1,0.4-0.2,0.9-0.3,1.3l2.3,2.1c0.1-0.6,0.2-1.2,0.4-1.9
		C92.4,263.8,92.4,263.5,92.5,263.3z"/>
	<path class="st1" d="M71.6,244.2l-0.7-0.6c-0.3,0.2-0.6,0.3-0.9,0.5c-0.4,0.2-0.8,0.5-1.2,0.7l0.6,0.5c0.3-0.1,0.6-0.3,0.9-0.4
		C70.7,244.6,71.2,244.4,71.6,244.2z"/>
	<path class="st1" d="M144.9,311.4l-2.2-2c-0.3,0.1-0.7,0.2-1,0.3c-0.5,0.1-1,0.3-1.5,0.4l2.3,2.1c0.6-0.2,1.2-0.4,1.8-0.6
		C144.5,311.5,144.7,311.5,144.9,311.4z"/>
	<path class="st1" d="M127.8,296.9c0.4-0.1,0.8-0.2,1.2-0.2l-22.7-20.8c-0.1,0.8-0.2,1.7-0.2,2.9l20.1,18.4c0.1,0,0.3,0,0.4,0
		C127,297.1,127.4,297,127.8,296.9z"/>
	<path class="st1" d="M147.3,310.5l-2.2-2c-0.3,0.1-0.6,0.2-0.9,0.3c-0.5,0.2-1,0.3-1.5,0.5l2.2,2c0.6-0.2,1.2-0.4,1.7-0.6
		C146.9,310.7,147.1,310.6,147.3,310.5z"/>
	<path class="st1" d="M72.2,243.9c0.5-0.2,1.1-0.5,1.7-0.7l-0.8-0.7c-0.4,0.2-0.8,0.3-1.2,0.5c-0.3,0.2-0.7,0.3-1,0.5l0.7,0.6
		C71.8,244.1,72,244,72.2,243.9z"/>
	<path class="st1" d="M168.8,309.2c0.1-0.4,0.1-0.8,0.2-1.2c0.1-0.4,0.1-0.8,0.2-1.1c0.1-0.4,0.1-0.8,0.2-1.1c0,0,0-0.1,0-0.1
		l-1.2,1.3c0,0.3-0.1,0.6-0.1,0.9c-0.1,0.4-0.1,0.8-0.2,1.2c-0.1,0.4-0.1,0.8-0.2,1.2c-0.1,0.4-0.1,0.8-0.2,1.2
		c0,0.2-0.1,0.4-0.1,0.5l1.2-1.4c0-0.1,0-0.1,0-0.2C168.7,310,168.8,309.6,168.8,309.2z"/>
	<path class="st1" d="M130.2,296.4c0.1,0,0.2-0.1,0.2-0.1c0.3,0,0.7-0.1,1-0.2c0.1,0,0.1,0,0.2,0l-25-22.9c-0.1,0.4-0.1,0.8-0.1,1.2
		c0,0-0.1,0.4-0.2,1.1c0,0.1,0,0.3-0.1,0.4l22.7,20.8c0,0,0.1,0,0.1,0C129.6,296.6,130,296.5,130.2,296.4z"/>
	<path class="st1" d="M90.9,258.8c0,0.1-0.1,0.2-0.1,0.3c-0.2,0.6-0.3,1.3-0.5,2.1l2.2,2c0.2-0.8,0.4-1.7,0.6-2.5L90.9,258.8z"/>
	<path class="st1" d="M133.6,295.3c0.1,0,0.1-0.1,0.2-0.1L107.3,271c-0.2,0.4-0.3,0.8-0.4,1.2c-0.1,0.4-0.2,0.7-0.3,1.1l25,22.9
		c0.3-0.1,0.6-0.2,1-0.3C132.9,295.7,133.2,295.5,133.6,295.3z"/>
	<path class="st1" d="M149.6,309.7l-2.2-2c-0.3,0.1-0.6,0.2-0.9,0.3c-0.5,0.2-0.9,0.3-1.4,0.5l2.2,2c0.6-0.2,1.2-0.4,1.7-0.6
		C149.2,309.9,149.4,309.8,149.6,309.7z"/>
	<path class="st1" d="M93.7,258.5l-2.2-2c-0.2,0.7-0.4,1.5-0.6,2.3l2.2,2c0-0.1,0-0.1,0-0.2C93.3,259.9,93.5,259.2,93.7,258.5z"/>
	<path class="st1" d="M169.7,303.6c0.1-0.4,0.1-0.7,0.1-1.1c0.1-0.4,0.1-0.7,0.1-1c0-0.2,0-0.4,0.1-0.5l-1.2,1.3c0,0,0,0.1,0,0.1
		c0,0.3-0.1,0.7-0.2,1.1c-0.1,0.3-0.1,0.7-0.2,1.1c-0.1,0.4-0.1,0.7-0.2,1.1c-0.1,0.4-0.1,0.7-0.2,1.1c0,0.1,0,0.2,0,0.3l1.2-1.3
		c0-0.3,0.1-0.7,0.1-1C169.6,304.3,169.6,304,169.7,303.6z"/>
	<path class="st1" d="M75.9,242.5c0.1,0,0.2-0.1,0.3-0.1l-0.8-0.7c-0.5,0.2-1.1,0.4-1.6,0.6c-0.2,0.1-0.4,0.2-0.6,0.3l0.8,0.7
		c0,0,0.1,0,0.1-0.1C74.6,243,75.3,242.8,75.9,242.5z"/>
	<path class="st1" d="M78.4,241.7l-0.8-0.8c-0.1,0-0.1,0-0.2,0.1c-0.6,0.2-1.2,0.4-1.8,0.6c-0.1,0-0.2,0.1-0.2,0.1l0.8,0.7
		c0.5-0.2,1-0.4,1.5-0.5C77.9,241.8,78.2,241.8,78.4,241.7z"/>
	<path class="st1" d="M135.6,294.2C135.6,294.2,135.6,294.2,135.6,294.2L108.2,269c-0.2,0.3-0.3,0.6-0.5,0.9c-0.2,0.4-0.3,0.7-0.5,1
		l26.5,24.3c0.3-0.1,0.6-0.3,0.9-0.5C134.9,294.6,135.3,294.4,135.6,294.2z"/>
	<path class="st1" d="M93.9,257.6c0.1-0.5,0.3-0.9,0.4-1.3l-2.2-2c-0.1,0.4-0.3,1-0.5,1.8c0,0.1-0.1,0.3-0.1,0.5l2.2,2
		C93.7,258.2,93.8,257.9,93.9,257.6z"/>
	<path class="st1" d="M170.2,299.5c0-0.4,0.1-0.7,0.1-1c0.1-0.5,0.1-0.8,0.1-1c0-0.1,0-0.1,0-0.1c0.3,0.1,0.8-0.1,1.3-0.5
		c0.3-0.2,0.5-0.5,0.8-0.8c0.2-0.2,0.5-0.5,0.7-0.8c0.2-0.2,0.4-0.5,0.6-0.8c0.2-0.2,0.4-0.5,0.6-0.8c0.2-0.2,0.4-0.5,0.6-0.7
		c0.2-0.2,0.4-0.5,0.5-0.7c0.2-0.2,0.3-0.5,0.5-0.7c0.2-0.2,0.3-0.5,0.5-0.7c0.2-0.2,0.3-0.5,0.5-0.7c0.2-0.2,0.3-0.5,0.5-0.7
		c0.1-0.2,0.3-0.4,0.4-0.7c0.1-0.2,0.3-0.4,0.4-0.7c0.1-0.2,0.3-0.4,0.4-0.7c0.1-0.2,0.2-0.3,0.3-0.5l-10.6,11.5l0.6,0.1
		c0,0,0,0.2-0.1,0.6c0,0.3-0.1,0.6-0.1,1c0,0.3-0.1,0.6-0.1,1c0,0.3-0.1,0.6-0.1,0.9l1.2-1.3c0-0.2,0-0.3,0.1-0.5
		C170.1,300.1,170.2,299.8,170.2,299.5z"/>
	<path class="st1" d="M151.8,308.9l-2.2-2c-0.3,0.1-0.6,0.2-0.9,0.4c-0.4,0.2-0.8,0.3-1.2,0.5l2.2,2c0.7-0.2,1.2-0.4,1.7-0.6
		C151.4,309,151.6,309,151.8,308.9z"/>
	<path class="st1" d="M95.1,254.3l-2-1.8c-0.2,0.2-0.4,0.5-0.6,0.7c-0.1,0.1-0.1,0.2-0.2,0.3c0,0-0.1,0.3-0.2,0.8l2.2,2
		c0.2-0.5,0.3-0.9,0.5-1.3C94.9,254.7,95,254.5,95.1,254.3z"/>
	<path class="st1" d="M80.6,241l-0.8-0.8c-0.2,0.1-0.4,0.1-0.6,0.2c-0.5,0.2-1.1,0.4-1.6,0.5l0.8,0.8c0.4-0.1,0.7-0.2,1.1-0.4
		C79.9,241.2,80.2,241.1,80.6,241z"/>
	<path class="st1" d="M179.8,286.2c0.1-0.2,0.3-0.4,0.4-0.6c0.1-0.2,0.3-0.4,0.4-0.6c0.1-0.2,0.2-0.4,0.4-0.6
		c0.1-0.2,0.2-0.4,0.4-0.6c0.1-0.2,0.2-0.4,0.3-0.6c0.1-0.2,0.2-0.4,0.3-0.6c0.1-0.2,0.2-0.4,0.3-0.5c0.1-0.2,0.2-0.4,0.3-0.5
		c0.1-0.2,0.2-0.4,0.3-0.5c0.1-0.2,0.2-0.3,0.3-0.5c0.1-0.2,0.2-0.3,0.3-0.5c0.1-0.2,0.2-0.3,0.3-0.5c0.1-0.2,0.2-0.3,0.3-0.5
		c0.1-0.2,0.2-0.3,0.3-0.5c0.1-0.2,0.2-0.3,0.3-0.5c0.1-0.2,0.2-0.3,0.3-0.5c0.1-0.2,0.2-0.3,0.3-0.4c0.1-0.1,0.2-0.3,0.3-0.4
		c0.1-0.1,0.2-0.3,0.2-0.4c0,0,0.1-0.1,0.1-0.1l-18.3,19.9l-0.4,0.6l-0.6,0.9l-0.4,0.6l2.7,0.4l10.6-11.5c0-0.1,0.1-0.1,0.1-0.2
		C179.5,286.7,179.7,286.5,179.8,286.2z"/>
	<path class="st1" d="M137.3,293l-28.1-25.7c-0.2,0.3-0.4,0.6-0.5,0.9c-0.2,0.3-0.3,0.6-0.5,0.9l27.4,25.1c0.3-0.2,0.6-0.4,0.9-0.6
		C136.8,293.4,137.1,293.2,137.3,293z"/>
	<path class="st1" d="M153,308.2c0.1-0.1,0.3-0.3,0.4-0.5l-2-1.8c-0.3,0.2-0.6,0.3-0.9,0.5c-0.3,0.2-0.7,0.3-1,0.5l2.2,2
		c0.5-0.2,0.8-0.3,0.8-0.3C152.7,308.5,152.9,308.4,153,308.2z"/>
	<path class="st1" d="M204.4,256.6L204.4,256.6C204.3,256.6,204.3,256.6,204.4,256.6L204.4,256.6z"/>
	<path class="st1" d="M82.8,240.3l-0.9-0.8c-0.3,0.1-0.7,0.2-1,0.3c-0.4,0.1-0.8,0.2-1.2,0.4l0.8,0.8c0.2-0.1,0.4-0.1,0.6-0.2
		C81.8,240.6,82.3,240.5,82.8,240.3z"/>
	<path class="st1" d="M153.9,307.2c0.2-0.3,0.4-0.7,0.5-1.1c0.1-0.2,0.1-0.4,0.2-0.6c-0.5,0-1.1-0.2-1.5-0.6l-1.6-1.5
		c0.1,0.3,0.2,0.6,0.2,0.8c0.2,0.7,0.3,1.1,0.3,1.3c0,0.1,0,0.1,0,0.1c-0.2,0.1-0.4,0.2-0.7,0.3l2,1.8
		C153.6,307.6,153.8,307.4,153.9,307.2z"/>
	<path class="st1" d="M96.1,253.7c0.4,0.1,0.9,0.1,1.5,0.2l-2.9-2.6c-0.3,0.2-0.7,0.3-0.9,0.5c-0.3,0.2-0.5,0.4-0.7,0.6l2,1.8
		c0.1-0.2,0.2-0.5,0.3-0.7C95.4,253.6,95.6,253.6,96.1,253.7z"/>
	<path class="st1" d="M137.4,292.9c0.3-0.2,0.6-0.4,0.9-0.7c0.2-0.1,0.4-0.3,0.5-0.4l-28.6-26.2c-0.2,0.3-0.4,0.6-0.6,0.9
		c-0.2,0.3-0.3,0.5-0.5,0.8l28.1,25.7C137.4,292.9,137.4,292.9,137.4,292.9z"/>
	<path class="st1" d="M186.2,275.5c0.1-0.1,0.2-0.3,0.2-0.4c0.1-0.2,0.2-0.4,0.3-0.6c0.4-0.7,0.7-1.2,0.9-1.6
		c0.3-0.5,0.4-0.8,0.4-0.8s0.4-0.4,0.7-1c0.1-0.3,0.2-0.6,0.3-0.9c0-0.2,0.1-0.4,0.1-0.7c0-0.1,0-0.3,0-0.5l-9.7,10.6l0,0.1
		l-0.4,0.5l-0.4,0.5l-0.4,0.5l-0.4,0.5l-0.4,0.5l-0.4,0.6l-0.4,0.6l-0.4,0.6l-0.4,0.6l-0.4,0.6l-0.4,0.6l-0.5,0.6l-0.5,0.6l-0.5,0.7
		l-0.5,0.7l-0.5,0.7l-0.5,0.7l-0.5,0.7l-0.5,0.7l-0.5,0.7l-0.5,0.8l-0.6,0.8l-0.6,0.8l-0.6,0.8l-0.6,0.8l-0.2,0.2l18.3-19.9
		c0.1-0.1,0.1-0.2,0.2-0.3C186,275.8,186.1,275.7,186.2,275.5z"/>
	<path class="st1" d="M189,268.5c0-0.1-0.1-0.3-0.1-0.4c0-0.1-0.1-0.3-0.1-0.4c0-0.1-0.1-0.2-0.2-0.4c-0.1-0.1-0.1-0.2-0.2-0.3
		c-0.1-0.1-0.1-0.2-0.2-0.3c0,0,0-0.1-0.1-0.1l-1.5,1.6c0,0,0.1,0,0.1,0c0.1,0.1,0.2,0.1,0.3,0.1c0.2,0.1,0.3,0.1,0.3,0.1l-0.4,0.6
		l-1.5,2.1l-0.2,0.3l-0.2,0.3l-0.2,0.3l-0.3,0.4l-0.3,0.4l-0.3,0.4l-0.3,0.4l-0.3,0.4l-0.3,0.4l-0.3,0.4l-0.3,0.4l-0.3,0.4l-0.3,0.4
		l-0.3,0.4l-0.3,0.4l-0.3,0.4l-0.3,0.5l-0.3,0.5l-0.3,0.5l-0.3,0.5l-0.3,0.4l9.7-10.6c0,0,0-0.1,0-0.1
		C189,268.8,189,268.6,189,268.5z"/>
	<polygon class="st1" points="215.3,239.4 225.9,228.1 220.7,231.1 212.2,240.3 	"/>
	<path class="st1" d="M140,290.8c0.1-0.1,0.2-0.2,0.3-0.3L111.4,264c-0.2,0.3-0.5,0.6-0.7,1c-0.1,0.2-0.3,0.4-0.4,0.6l28.6,26.2
		c0.1-0.1,0.2-0.2,0.3-0.3C139.5,291.3,139.7,291,140,290.8z"/>
	<path class="st1" d="M99.6,254.3c0.4,0.1,0.9,0.1,1.4,0.2l-4.2-3.9c-0.5,0.1-1,0.3-1.5,0.5c-0.2,0.1-0.4,0.2-0.5,0.2l2.9,2.6
		c0.1,0,0.2,0,0.3,0C98.4,254.1,99,254.2,99.6,254.3z"/>
	<path class="st1" d="M84.7,239.8c0.1,0,0.2,0,0.2-0.1l-0.9-0.8c-0.5,0.1-0.9,0.3-1.4,0.4c-0.3,0.1-0.5,0.1-0.8,0.2l0.9,0.8
		c0.1,0,0.1,0,0.2-0.1C83.5,240.1,84.1,240,84.7,239.8z"/>
	<path class="st1" d="M155,303.8c0.1-0.4,0.1-0.7,0.2-1.1c0-0.1,0-0.3,0-0.4c-0.8,0.4-1.8,0.3-2.5-0.3l-2-1.8c0,0.2,0.1,0.3,0.1,0.5
		c0.1,0.4,0.2,0.8,0.3,1.2c0.1,0.4,0.2,0.9,0.3,1.2c0,0.1,0.1,0.3,0.1,0.4l1.6,1.5c0.4,0.4,0.9,0.6,1.5,0.6c0.1-0.2,0.1-0.3,0.2-0.5
		C154.9,304.6,155,304.2,155,303.8z"/>
	<path class="st1" d="M103,254.8c0.4,0.1,0.8,0.1,1.3,0.2l-5.2-4.8c-0.2,0-0.4,0.1-0.6,0.1c-0.5,0.1-1,0.2-1.5,0.3c0,0,0,0-0.1,0
		l4.2,3.9c0.1,0,0.2,0,0.3,0C101.8,254.6,102.4,254.7,103,254.8z"/>
	<path class="st1" d="M141.6,289.4C141.6,289.4,141.7,289.3,141.6,289.4l-29.1-26.8c-0.3,0.3-0.5,0.7-0.8,1
		c-0.1,0.2-0.2,0.3-0.3,0.4l28.9,26.5c0.2-0.1,0.3-0.3,0.5-0.4C141.1,289.9,141.4,289.6,141.6,289.4z"/>
	<path class="st1" d="M155.2,302.2c0-0.2,0-0.5,0.1-0.7c0-0.4,0-0.7,0-1.1c0-0.4,0-0.7,0-1.1c0-0.1,0-0.3,0-0.4
		c-0.8,0.8-2.1,0.9-3,0.1l-2.4-2.2c0,0.1,0,0.1,0,0.2c0.1,0.4,0.2,0.8,0.3,1.1c0.1,0.4,0.2,0.8,0.3,1.2c0.1,0.2,0.1,0.5,0.2,0.7
		l2,1.8C153.4,302.6,154.4,302.6,155.2,302.2z"/>
	<path class="st1" d="M87,239.2l-0.9-0.8c0,0-0.1,0-0.1,0c-0.6,0.2-1.1,0.3-1.7,0.5c-0.1,0-0.2,0.1-0.3,0.1l0.9,0.8
		c0.5-0.1,1-0.3,1.4-0.4C86.6,239.3,86.8,239.2,87,239.2z"/>
	<polygon class="st1" points="208.1,241.4 212.2,240.3 220.7,231.1 214.3,234.6 	"/>
	<path class="st1" d="M187.8,266.1c-0.1-0.1-0.1-0.2-0.2-0.3c-0.1-0.1-0.1-0.2-0.2-0.2c-0.1-0.1-0.1-0.2-0.2-0.2
		c-0.1-0.1-0.1-0.2-0.2-0.2c-0.1-0.1-0.1-0.1-0.2-0.2c0,0-0.1-0.1-0.1-0.1l-2.2,2.4c0,0,0.1,0,0.1,0.1c0.1,0,0.2,0.1,0.3,0.1
		c0.1,0,0.2,0.1,0.3,0.1c0.1,0,0.2,0.1,0.3,0.1c0.1,0,0.2,0.1,0.3,0.1c0.1,0,0.2,0.1,0.3,0.1c0.1,0.1,0.2,0.1,0.3,0.1
		c0.1,0,0.2,0.1,0.2,0.1l1.5-1.6c0-0.1-0.1-0.1-0.1-0.2C187.9,266.2,187.8,266.1,187.8,266.1z"/>
	<path class="st1" d="M89,238.6l-0.9-0.8c-0.2,0-0.3,0.1-0.5,0.1c-0.5,0.1-1,0.3-1.6,0.4l0.9,0.8c0.3-0.1,0.7-0.2,1-0.3
		C88.4,238.8,88.7,238.7,89,238.6z"/>
	<path class="st1" d="M106.2,255.2c0.4,0.1,0.8,0.1,1.2,0.2l-6-5.5c-0.5,0-1,0.1-1.5,0.1c-0.3,0-0.6,0.1-0.9,0.1l5.2,4.8
		c0.1,0,0.2,0,0.4,0.1C105.1,255.1,105.6,255.1,106.2,255.2z"/>
	<path class="st1" d="M186.3,264.5c-0.1-0.1-0.1-0.1-0.2-0.2c-0.1-0.1-0.1-0.1-0.2-0.2c-0.1-0.1-0.1-0.1-0.2-0.2
		c-0.1-0.1-0.1-0.1-0.2-0.2c-0.1-0.1-0.1-0.1-0.2-0.2c-0.1-0.1-0.1-0.1-0.2-0.2c0,0-0.1,0-0.1-0.1l-2.7,2.9c0.3,0.1,0.6,0.2,0.8,0.4
		c0.4,0.2,0.8,0.3,1.2,0.5c0.1,0,0.1,0,0.2,0.1l2.2-2.4c0,0-0.1-0.1-0.1-0.1C186.4,264.6,186.3,264.5,186.3,264.5z"/>
	<polygon class="st1" points="204.1,242.4 208.1,241.4 214.3,234.6 208.1,238.1 	"/>
	<path class="st1" d="M155.2,297.2c0-0.3-0.1-0.7-0.1-1c0-0.1,0-0.2,0-0.3l-0.3,0.3c-0.8,0.8-2,0.9-2.9,0.1l-2.7-2.4
		c0.1,0.3,0.2,0.7,0.2,1c0.1,0.4,0.2,0.7,0.2,1.1c0.1,0.3,0.1,0.6,0.2,0.9l2.4,2.2c0.8,0.8,2.2,0.7,3-0.1c0-0.2,0-0.5,0-0.7
		C155.3,297.9,155.2,297.6,155.2,297.2z"/>
	<path class="st1" d="M143,288.1l-29.4-27c-0.3,0.4-0.6,0.7-0.9,1.1c-0.1,0.1-0.2,0.2-0.2,0.3l29.2,26.8c0.2-0.2,0.5-0.4,0.7-0.6
		C142.6,288.5,142.8,288.3,143,288.1z"/>
	<path class="st1" d="M184.8,263.3c-0.1,0-0.1-0.1-0.2-0.1c-0.1,0-0.1-0.1-0.2-0.1c-0.1,0-0.1-0.1-0.2-0.1c-0.1,0-0.1-0.1-0.2-0.1
		c-0.1,0-0.1-0.1-0.2-0.1c-0.1,0-0.1-0.1-0.2-0.1c-0.1,0-0.1-0.1-0.2-0.1c-0.1,0-0.1-0.1-0.2-0.1c-0.1,0-0.1-0.1-0.2-0.1l-3,3.2
		c0.5,0.2,1,0.4,1.4,0.6c0.2,0.1,0.5,0.2,0.7,0.3l2.7-2.9C184.9,263.3,184.8,263.3,184.8,263.3z"/>
	<path class="st1" d="M154.9,294.1c0-0.3-0.1-0.7-0.1-1c0,0,0,0,0-0.1l-0.4,0.4c-0.7,0.8-2,0.9-2.8,0.1l-2.9-2.7
		c0.1,0.3,0.1,0.6,0.2,0.8c0.1,0.3,0.1,0.7,0.2,1c0.1,0.3,0.2,0.7,0.2,1c0,0,0,0,0,0l2.7,2.4c0.8,0.8,2.1,0.7,2.9-0.1l0.3-0.3
		c0-0.2,0-0.5-0.1-0.8C155,294.8,154.9,294.4,154.9,294.1z"/>
	<path class="st1" d="M91,238.1l-0.9-0.8c-0.3,0.1-0.6,0.1-0.9,0.2c-0.4,0.1-0.8,0.2-1.1,0.3l0.9,0.8c0.2,0,0.4-0.1,0.6-0.1
		C90.1,238.3,90.6,238.2,91,238.1z"/>
	<polygon class="st1" points="200.2,243.5 204.1,242.4 208.1,238.1 202.1,241.4 	"/>
	<path class="st1" d="M109.2,255.6c0.4,0,0.7,0.1,1,0.1l-6.5-5.9c-0.3,0-0.6,0-0.9,0c-0.5,0-1,0-1.5,0.1c0,0,0,0-0.1,0l6,5.5
		c0.1,0,0.3,0,0.4,0.1C108.2,255.5,108.7,255.6,109.2,255.6z"/>
	<path class="st1" d="M143.9,287.3c0.1-0.1,0.3-0.3,0.4-0.4l-29.6-27.1c-0.3,0.4-0.6,0.8-1,1.2c0,0.1-0.1,0.1-0.1,0.2l29.4,27
		c0,0,0.1-0.1,0.1-0.1C143.4,287.7,143.6,287.5,143.9,287.3z"/>
	<path class="st1" d="M154.5,291.1c0-0.3-0.1-0.5-0.1-0.7l-0.4,0.5c-0.7,0.8-1.9,0.8-2.7,0.1l-3.1-2.8c0,0.2,0.1,0.4,0.1,0.7
		c0.1,0.3,0.1,0.6,0.2,1c0.1,0.3,0.1,0.6,0.2,1c0,0.1,0,0.1,0,0.2l2.9,2.7c0.8,0.7,2.1,0.7,2.8-0.1l0.4-0.4c0-0.3-0.1-0.6-0.1-0.9
		C154.6,291.8,154.5,291.5,154.5,291.1z"/>
	<path class="st1" d="M92.8,237.7c0.1,0,0.2,0,0.2-0.1l-0.9-0.8c-0.4,0.1-0.8,0.2-1.2,0.3c-0.2,0.1-0.5,0.1-0.7,0.2l0.9,0.8
		c0.1,0,0.1,0,0.2,0C91.7,237.9,92.2,237.8,92.8,237.7z"/>
	<path class="st1" d="M182.8,262c-0.1,0-0.1-0.1-0.2-0.1l0,0l-0.3-0.2l-0.7-0.4l-0.5-0.3l-3.1,3.4c0.1,0,0.2,0.1,0.3,0.1
		c0.6,0.2,1.1,0.4,1.7,0.7c0.1,0,0.1,0,0.2,0.1l3-3.2c0,0,0,0,0,0C183,262.1,182.9,262.1,182.8,262z"/>
	<path class="st1" d="M196.6,244.3l-0.1,0.1c0,0,0.1,0,0.1,0c0.3,0,0.4,0,0.4,0s-0.1,0-0.2-0.1l3.4-0.9l1.9-2.1l-5.3,3
		C196.7,244.3,196.7,244.3,196.6,244.3z"/>
	<path class="st1" d="M112.2,256c0.3,0,0.6,0.1,0.9,0.1l-6.7-6.2c-0.1,0-0.3,0-0.4,0c-0.5,0-1,0-1.5,0c-0.2,0-0.4,0-0.6,0l6.5,5.9
		c0.1,0,0.3,0,0.4,0.1C111.2,255.9,111.7,255.9,112.2,256z"/>
	<path class="st1" d="M145.3,285.9c0.1-0.1,0.1-0.1,0.2-0.2l-29.7-27.2c0,0,0,0.1-0.1,0.1c-0.3,0.4-0.7,0.8-1,1.2c0,0,0,0,0,0
		l29.6,27.1c0.1-0.1,0.2-0.2,0.3-0.3C144.8,286.3,145,286.1,145.3,285.9z"/>
	<path class="st1" d="M115,256.2c0.3,0,0.5,0,0.7,0l-6.7-6.2c0,0,0,0,0,0c-0.5,0-1-0.1-1.5-0.1c-0.4,0-0.7,0-1.1-0.1l6.7,6.2
		c0.2,0,0.3,0,0.5,0C114.1,256.1,114.5,256.2,115,256.2z"/>
	<path class="st1" d="M146.6,284.6l-29.7-27.3c-0.1,0.1-0.1,0.1-0.2,0.2c-0.3,0.3-0.6,0.7-0.9,1l29.7,27.2c0.2-0.2,0.3-0.3,0.5-0.5
		C146.2,285,146.4,284.8,146.6,284.6z"/>
	<path class="st1" d="M180.3,260.7l-0.6-0.3l-0.4-0.2l-3.3,3.6c0.2,0.1,0.3,0.1,0.5,0.2c0.5,0.2,1,0.4,1.5,0.6l3.1-3.4l-0.2-0.1
		L180.3,260.7z"/>
	<path class="st1" d="M94.9,237.2l-0.9-0.8c0,0,0,0,0,0c-0.5,0.1-1,0.2-1.5,0.4c-0.1,0-0.2,0.1-0.3,0.1l0.9,0.8
		c0.4-0.1,0.9-0.2,1.3-0.3C94.5,237.3,94.7,237.2,94.9,237.2z"/>
	<path class="st1" d="M196.6,244.3c-0.1-0.1-0.3-0.1-0.5-0.2c-0.1-0.1-0.3-0.1-0.4-0.2c-0.1-0.1-0.3-0.1-0.4-0.2
		c-0.1-0.1-0.3-0.1-0.4-0.2c0,0-0.1,0-0.2-0.1l-0.7,0.8c0.1,0,0.2,0,0.4,0c0.1,0,0.2,0,0.4,0c0.1,0,0.3,0,0.4,0c0.1,0,0.3,0,0.4,0
		c0.1,0,0.3,0,0.4,0c0.1,0,0.3,0,0.4,0c0.1,0,0.2,0,0.3,0L196.6,244.3C196.6,244.3,196.6,244.3,196.6,244.3z"/>
	<path class="st1" d="M96.7,236.7l-0.9-0.8c-0.1,0-0.3,0.1-0.4,0.1c-0.5,0.1-1,0.2-1.5,0.3l0.9,0.8c0.3-0.1,0.6-0.1,0.9-0.2
		C96.1,236.9,96.4,236.8,96.7,236.7z"/>
	<path class="st1" d="M178.4,259.7l-0.6-0.3l-0.4-0.2l-3.5,3.9c0.2,0.1,0.4,0.1,0.5,0.2c0.5,0.2,1,0.3,1.5,0.5l3.3-3.6l-0.2-0.1
		L178.4,259.7z"/>
	<path class="st1" d="M153.6,286.6c-0.1-0.3-0.1-0.6-0.2-0.9c0-0.1,0-0.1,0-0.1l-0.3,0.3c-0.7,0.7-1.8,0.8-2.5,0.1l-38.9-35.7
		c-0.4,0-0.8-0.1-1.2-0.1c-0.5,0-0.9-0.1-1.4-0.1l6.7,6.2c0.2,0,0.4,0,0.6,0c0.5,0,1,0,1.3-0.1l0.1,0.2c-0.3,0.3-0.5,0.6-0.8,0.9
		l29.7,27.3c0,0,0,0,0,0c0.2-0.2,0.4-0.4,0.6-0.7l0.4,1.3c0,0.1,0,0.3,0.1,0.5l3.1,2.8c0.8,0.7,1.9,0.6,2.6-0.1l0.4-0.4
		c0-0.2-0.1-0.3-0.1-0.5C153.7,287.2,153.6,286.9,153.6,286.6z"/>
	<path class="st1" d="M193.9,243.1c-0.1-0.1-0.3-0.1-0.4-0.2c-0.1-0.1-0.3-0.1-0.4-0.2c-0.1-0.1-0.2-0.1-0.4-0.2l-1.2,1.4
		c0,0,0.1,0,0.1,0c0.1,0,0.2,0,0.3,0c0.1,0,0.2,0,0.3,0c0.1,0,0.2,0,0.3,0c0.1,0,0.2,0,0.3,0c0.1,0,0.2,0,0.3,0c0.1,0,0.2,0,0.3,0
		c0.1,0,0.2,0,0.4,0c0,0,0,0,0,0l0.7-0.8c-0.1,0-0.2-0.1-0.3-0.1C194.2,243.2,194.1,243.2,193.9,243.1z"/>
	<path class="st1" d="M176.6,258.8l-0.6-0.3l-0.4-0.2l-3.8,4.1c0.6,0.2,1.3,0.4,2,0.6l3.5-3.9l-0.2-0.1L176.6,258.8z"/>
	<polygon class="st1" points="101.5,239.1 101.6,239.1 101.5,239.1 	"/>
	<path class="st1" d="M97.2,236.6c0.5-0.1,0.9-0.2,1.3-0.3l-0.9-0.8c-0.2,0.1-0.5,0.1-0.7,0.2c-0.3,0.1-0.7,0.2-1.1,0.3l0.9,0.8
		C96.9,236.7,97.1,236.6,97.2,236.6z"/>
	<path class="st1" d="M192.4,242.3c-0.1-0.1-0.3-0.1-0.4-0.2c-0.1-0.1-0.2-0.1-0.4-0.2c-0.1-0.1-0.2-0.1-0.4-0.2
		c-0.1,0-0.2-0.1-0.2-0.1l-1.8,1.9c0,0,0.1,0,0.1,0c0.1,0,0.2,0,0.3,0c0.1,0,0.2,0,0.3,0c0.1,0,0.2,0,0.3,0c0.1,0,0.2,0,0.3,0
		c0.1,0,0.2,0,0.3,0c0.1,0,0.2,0,0.3,0c0.1,0,0.2,0,0.3,0c0.1,0,0.2,0,0.2,0l1.2-1.4c0,0,0,0,0,0
		C192.6,242.4,192.5,242.4,192.4,242.3z"/>
	<path class="st1" d="M153,284c-0.1-0.2-0.1-0.5-0.2-0.7l-0.2,0.2c-0.6,0.7-1.8,0.8-2.5,0.1l-35.9-33c-0.3,0-0.7-0.1-1-0.1
		c-0.5-0.1-0.9-0.1-1.4-0.2c-0.1,0-0.1,0-0.2,0l38.9,35.7c0.7,0.7,1.9,0.6,2.5-0.1l0.3-0.3c-0.1-0.2-0.1-0.5-0.2-0.7
		C153.1,284.6,153,284.3,153,284z"/>
	<polygon class="st1" points="102.7,238.1 101,236.5 101.5,239.1 101.6,239.1 102.4,238.4 	"/>
	<path class="st1" d="M152.5,282.4c-0.1-0.3-0.1-0.5-0.2-0.8c0-0.2-0.1-0.3-0.1-0.4l0,0c-0.6,0.7-1.7,0.7-2.4,0.1l-33-30.2
		c-0.3,0-0.6-0.1-0.9-0.1c-0.4-0.1-0.9-0.1-1.4-0.2c-0.1,0-0.2,0-0.4,0l35.9,33c0.7,0.6,1.8,0.6,2.5-0.1l0.2-0.2c0,0,0-0.1,0-0.1
		C152.7,282.9,152.6,282.6,152.5,282.4z"/>
	<path class="st1" d="M189.4,240.6L189.4,240.6l1.2,0.7c-0.1-0.1-0.2-0.1-0.3-0.2c-0.1-0.1-0.2-0.1-0.3-0.2
		c-0.1-0.1-0.2-0.1-0.3-0.2L189.4,240.6l-2.3,2.5c0,0,0.1,0,0.1,0c0.1,0,0.2,0,0.2,0c0.1,0,0.2,0,0.2,0c0.1,0,0.2,0,0.2,0
		c0.1,0,0.2,0,0.2,0c0.1,0,0.2,0,0.2,0c0.1,0,0.2,0,0.2,0c0.1,0,0.2,0,0.3,0c0.1,0,0.2,0,0.3,0c0.1,0,0.1,0,0.2,0l1.8-1.9
		c0,0-0.1,0-0.1-0.1L189.4,240.6z"/>
	<path class="st1" d="M174.9,258l-0.5-0.3l-0.4-0.2l-4.1,4.5l2,0.5c0,0,0,0,0,0l3.8-4.1l-0.2-0.1L174.9,258z"/>
	<path class="st1" d="M100.1,236c0.1,0,0.1,0,0.2,0l-0.9-0.8c-0.3,0.1-0.7,0.1-1,0.2c-0.2,0.1-0.5,0.1-0.7,0.2l0.9,0.8
		c0,0,0.1,0,0.1,0C99.3,236.1,99.7,236,100.1,236z"/>
	<path class="st1" d="M173.3,257.1l-0.2-0.1l-0.2-0.1l-0.2-0.1l-0.2-0.1l-0.2-0.1l0,0l-4.5,4.9c0.1,0,0.1,0,0.2,0c0.1,0,0.2,0,0.3,0
		c0.1,0,0.2,0,0.3,0c0.1,0,0.2,0,0.3,0.1c0.1,0,0.2,0,0.3,0.1l0,0.1l0.6,0.1l4.1-4.5l-0.1-0.1L173.3,257.1z"/>
	<path class="st1" d="M151.9,280.8l-0.5-1.4c0,0,0.1-0.1,0.1-0.1c-0.6,0.4-1.5,0.4-2.1-0.1l-30-27.5c-0.3-0.1-0.6-0.1-0.9-0.2
		c-0.4-0.1-0.8-0.2-1.3-0.2c-0.1,0-0.3,0-0.4-0.1l33,30.2c0.7,0.6,1.8,0.6,2.4-0.1l0,0c0-0.1-0.1-0.2-0.1-0.4L151.9,280.8z"/>
	<path class="st1" d="M189,240.2l-0.6-0.1l-0.6-0.4l0,0l0.5,0.3l-0.2,0l-0.4-0.2l-2.8,3c0.5,0.1,1,0.2,1.5,0.3c0.1,0,0.1,0,0.2,0
		c0.1,0,0.1,0,0.2,0c0,0,0.1,0,0.1,0l2.3-2.5l-0.1-0.1l0-0.1l0.2,0.1l0,0l-0.2-0.1L189,240.2z"/>
	<path class="st1" d="M103.5,237.4l0.3-0.2l-2.6-2.4c-0.3,0.1-0.8,0.2-1.3,0.3c-0.1,0-0.3,0.1-0.4,0.1l0.9,0.8
		c0.3-0.1,0.5-0.1,0.5-0.1l0.2,0.7l1.7,1.6L103.5,237.4z"/>
	<path class="st1" d="M197.1,198.1l1.2,0.3c0.2,0.3,0.2,0.7,0.2,1.2c0,0.1,0,0.3,0,0.4l1.9,1.7c-0.1-0.2-0.2-0.4-0.3-0.7
		c-0.2-0.5-0.5-0.9-0.7-1.3c-0.4-0.7-0.8-1.2-1-1.4c-0.1-0.1-0.1-0.1-0.1-0.1s-1.4-1.1-3.6-1.8l1.9,1.7
		C196.8,198.1,197,198.1,197.1,198.1z"/>
	<path class="st1" d="M104.9,236.2l-2.8-2.5c-0.2,0.3-0.2,0.6-0.1,0.9c0,0-0.3,0.1-0.7,0.2c0,0,0,0-0.1,0l2.6,2.4l0.8-0.7
		L104.9,236.2z"/>
	<path class="st1" d="M186.6,239.1c-0.2-0.1-0.3-0.2-0.5-0.3l-3.2,3.5c0.6,0.1,1.3,0.3,2,0.4l2.8-3l-0.4-0.2
		C187.1,239.4,186.9,239.3,186.6,239.1z"/>
	<polygon class="st1" points="186.2,238.9 187.7,239.8 187.8,239.7 186.2,238.8 	"/>
	<path class="st1" d="M171.9,256.4l-0.2-0.1l-0.2-0.1l-0.2-0.1L171,256l-0.2-0.1l-0.1-0.1l-19.2,21c-0.6,0.6-1.6,0.7-2.3,0.1
		l-27.3-25.1c-0.1,0.1-0.1,0.1-0.2,0.2c0,0-0.2,0-0.6-0.1c-0.3-0.1-0.7-0.2-1.3-0.3c-0.1,0-0.3,0-0.4-0.1l30,27.5
		c0.6,0.5,1.4,0.6,2.1,0.1c0.1-0.2,0.3-0.3,0.4-0.5c0.2-0.2,0.4-0.4,0.5-0.6c0.2-0.2,0.3-0.4,0.5-0.6c0.2-0.2,0.3-0.4,0.5-0.6
		c0.2-0.2,0.3-0.4,0.5-0.6c0.2-0.2,0.3-0.4,0.5-0.6c0.2-0.2,0.3-0.4,0.5-0.6c0.2-0.2,0.3-0.4,0.5-0.5c0.2-0.2,0.3-0.4,0.5-0.5
		c0.1-0.2,0.3-0.4,0.4-0.5c0.1-0.2,0.3-0.3,0.4-0.5c0.1-0.2,0.3-0.3,0.4-0.5c0.1-0.2,0.3-0.3,0.4-0.5c0.1-0.2,0.3-0.3,0.4-0.5
		c0.1-0.2,0.3-0.3,0.4-0.5c0.1-0.2,0.3-0.3,0.4-0.5c0.1-0.2,0.3-0.3,0.4-0.5c0.1-0.2,0.3-0.3,0.4-0.5c0.1-0.2,0.2-0.3,0.4-0.5
		c0.1-0.2,0.2-0.3,0.4-0.4c0.1-0.2,0.2-0.3,0.4-0.4c0.1-0.1,0.2-0.3,0.3-0.4c0.1-0.1,0.2-0.3,0.3-0.4c0.1-0.1,0.2-0.3,0.3-0.4
		c0.1-0.1,0.2-0.3,0.3-0.4c0.1-0.1,0.2-0.3,0.3-0.4c0.1-0.1,0.2-0.3,0.3-0.4c0.1-0.2,0.2-0.3,0.3-0.4c0.2-0.2,0.3-0.4,0.3-0.4
		c0,0,0,0,0,0c0.1-0.1,0.2-0.2,0.3-0.3c0.1-0.1,0.2-0.2,0.3-0.3c0.1-0.1,0.2-0.2,0.3-0.3c0.1-0.1,0.2-0.2,0.3-0.3
		c0.1-0.1,0.2-0.2,0.3-0.3c0.1-0.1,0.2-0.2,0.3-0.3c0.1-0.1,0.2-0.2,0.3-0.3c0.1-0.1,0.2-0.2,0.3-0.3c0.1-0.1,0.2-0.2,0.2-0.3
		c0.1-0.1,0.2-0.2,0.2-0.3c0,0,0,0,0.1-0.1c0.1-0.1,0.1-0.1,0.2-0.2c0.1,0,0.2-0.1,0.3-0.1c0.1,0,0.2,0,0.3,0c0.1,0,0.2,0,0.3,0
		c0.1,0,0.2,0,0.3,0c0.1,0,0.2,0,0.3,0c0,0,0.1,0,0.1,0l4.5-4.9l-0.2-0.1L171.9,256.4z"/>
	<path class="st1" d="M192.3,195.9c-0.1,0-0.1,0-0.2,0l3,2.8c0.6-0.2,1.1-0.3,1.5-0.4l-1.9-1.7c-0.1,0-0.3-0.1-0.4-0.1
		C193.7,196.1,193,196,192.3,195.9z"/>
	<path class="st1" d="M105.9,235.4l-3.1-2.8c-0.3,0.4-0.6,0.8-0.8,1.1l2.8,2.5l0.9-0.7L105.9,235.4z"/>
	<path class="st1" d="M181.1,241.9c0.6,0.2,1.2,0.3,1.9,0.5l3.2-3.5c-0.1,0-0.1-0.1-0.2-0.1c-0.2-0.1-0.4-0.3-0.6-0.4l0.9,0.5l0,0
		l-1.5-0.9L181.1,241.9z"/>
	<path class="st1" d="M151.4,276.8l19.2-21l-0.1-0.1l-0.2-0.1l-0.2-0.1l-0.3-0.1l0-0.1c0-0.1,0.1-0.2,0.1-0.3c0-0.1,0.1-0.2,0.1-0.3
		c0-0.1,0.1-0.2,0.1-0.3c0-0.1,0.1-0.2,0.1-0.3c0-0.1,0-0.2,0.1-0.2l-19.2,20.9c-0.6,0.6-1.6,0.7-2.2,0.1l-26.1-23.9
		c-0.2,0.2-0.4,0.4-0.6,0.6c-0.1,0.1-0.2,0.2-0.3,0.3l27.3,25.1C149.8,277.5,150.8,277.4,151.4,276.8z"/>
	<path class="st1" d="M198.4,200.6c0,0.3-0.1,0.6-0.2,0.9l3,2.8c-0.1-0.3-0.1-0.6-0.2-0.9c-0.1-0.4-0.3-0.8-0.4-1.2
		c-0.1-0.2-0.2-0.4-0.2-0.6l-1.9-1.7C198.5,200.2,198.5,200.4,198.4,200.6z"/>
	<path class="st1" d="M198,202.7c0,0.1,0,0.2-0.1,0.2l3.7,3.4c0-0.2,0-0.5,0-0.7c0-0.4-0.1-0.7-0.2-1.1c0-0.1,0-0.1,0-0.2l-3-2.8
		c0,0.1,0,0.1,0,0.2C198.1,202,198.1,202.4,198,202.7z"/>
	<path class="st1" d="M184.1,237.4c-0.2-0.1-0.4-0.3-0.6-0.4c0,0-0.1-0.1-0.1-0.1l-4.1,4.5c0.3,0.1,0.5,0.2,0.8,0.3
		c0.3,0.1,0.6,0.2,0.9,0.3l3.7-4l0,0C184.5,237.7,184.3,237.6,184.1,237.4z"/>
	<path class="st1" d="M190,195.8l3.7,3.4c0.4-0.1,0.7-0.3,1.1-0.4c0.1,0,0.2-0.1,0.3-0.1l-3-2.8C191.4,195.8,190.7,195.7,190,195.8z
		"/>
	<path class="st1" d="M201.9,217.3c0.3-0.2,0.6-0.4,0.8-0.6c0.2-0.2,0.5-0.4,0.7-0.7c0.2-0.2,0.4-0.5,0.5-0.7
		c0.2-0.3,0.4-0.6,0.5-0.7l-0.4-0.1l-2.9,3.1C201.4,217.5,201.6,217.4,201.9,217.3z"/>
	<path class="st1" d="M103.7,231.6c-0.3,0.3-0.6,0.7-0.9,1l3.1,2.8l1-0.9L103.7,231.6z"/>
	<path class="st1" d="M170.4,253.3c0-0.1,0.1-0.2,0.1-0.3c0-0.1,0.1-0.2,0.1-0.4c0-0.1,0-0.3,0.1-0.4c0-0.1,0-0.3,0.1-0.4
		c0-0.1,0-0.3,0-0.4c0-0.1,0-0.3,0-0.4c0-0.1,0-0.1,0-0.2l-20,21.9c-0.6,0.6-1.5,0.6-2.1,0.1l-24.9-22.8c-0.2,0.2-0.4,0.5-0.7,0.7
		c-0.1,0.1-0.2,0.2-0.2,0.3l26.1,23.9c0.6,0.6,1.6,0.5,2.2-0.1l19.2-20.9c0,0,0-0.1,0-0.1C170.3,253.5,170.3,253.4,170.4,253.3z"/>
	<polygon class="st1" points="166.1,173 165.7,173.4 165.8,173.6 	"/>
	<path class="st1" d="M104.6,230.7c-0.3,0.3-0.6,0.6-0.9,0.9l3.2,2.9l1-0.8L104.6,230.7z"/>
	<path class="st1" d="M189,228.9c0.4-0.1,0.7-0.1,1.1-0.3c0.3-0.1,0.5-0.2,0.7-0.4c0.2-0.1,0.4-0.3,0.5-0.4c0.1-0.1,0.3-0.3,0.4-0.4
		c0.1-0.1,0.2-0.3,0.3-0.5c0.1-0.2,0.2-0.3,0.3-0.5c0.1-0.2,0.1-0.3,0.2-0.5c0.1-0.2,0.1-0.4,0.2-0.5c0-0.2,0.1-0.4,0.1-0.6
		c0-0.2,0.1-0.4,0.1-0.6c0,0,0,0,0-0.1l-4.3,4.7C188.8,228.9,188.9,228.9,189,228.9z"/>
	<path class="st1" d="M192.4,199.6c0.2-0.1,0.3-0.2,0.5-0.2c0.3-0.1,0.5-0.2,0.8-0.3l-3.7-3.4c-0.5,0-1.1,0.1-1.7,0.2L192.4,199.6z"
		/>
	<path class="st1" d="M197.4,204.3l4,3.7c0-0.1,0-0.3,0-0.4c0-0.3,0-0.7,0-1c0-0.1,0-0.2,0-0.3l-3.7-3.4c-0.1,0.2-0.1,0.5-0.2,0.7
		C197.6,203.9,197.5,204.1,197.4,204.3z"/>
	<path class="st1" d="M183,236.6c-0.2-0.1-0.3-0.3-0.5-0.4c-0.1-0.1-0.2-0.2-0.3-0.3l-4.4,4.8c0.3,0.1,0.6,0.3,0.9,0.4
		c0.2,0.1,0.4,0.2,0.7,0.3l4.1-4.5C183.3,236.8,183.2,236.7,183,236.6z"/>
	<path class="st1" d="M170.7,249.9c0-0.2,0-0.5-0.1-0.7c0,0,0-0.1,0-0.1c0-0.1,0-0.1,0-0.2c0-0.1,0-0.1,0-0.2c0,0,0-0.1,0-0.1
		l-20.2,22c-0.5,0.6-1.5,0.6-2.1,0.1L124.6,249c-0.2,0.2-0.5,0.5-0.7,0.7c-0.1,0.1-0.1,0.1-0.2,0.2l24.9,22.8
		c0.6,0.6,1.6,0.5,2.1-0.1l20-21.9c0-0.1,0-0.2,0-0.3C170.7,250.3,170.7,250.1,170.7,249.9z"/>
	<path class="st1" d="M198.8,217.8c0.7,0.1,1.2,0.1,1.8,0c0.2,0,0.3-0.1,0.5-0.2l2.9-3.1l-1.8-0.4L198.8,217.8z"/>
	<polygon class="st1" points="165.3,174.8 165.8,173.6 165.7,173.4 164.9,174.4 	"/>
	<path class="st1" d="M181.7,235.3c-0.1-0.1-0.3-0.3-0.4-0.4c0,0-0.1-0.1-0.1-0.1l-4.7,5.1c0.1,0.1,0.2,0.1,0.2,0.2
		c0.1,0.1,0.3,0.2,0.4,0.3c0.2,0.1,0.4,0.2,0.6,0.3c0,0,0,0,0,0l4.4-4.8c0,0-0.1-0.1-0.1-0.1C181.9,235.6,181.8,235.5,181.7,235.3z"
		/>
	<path class="st1" d="M105.5,229.8c-0.3,0.3-0.6,0.6-0.9,0.8l3.3,3l0.9-0.8L105.5,229.8z"/>
	<path class="st1" d="M170.5,248.4c0-0.1,0-0.1,0-0.2c0-0.1,0-0.1-0.1-0.2c0-0.1,0-0.1-0.1-0.2c0-0.1,0-0.1-0.1-0.2
		c0-0.1,0-0.1-0.1-0.2c0-0.1,0-0.1-0.1-0.2c0-0.1-0.1-0.1-0.1-0.2c0,0,0-0.1,0-0.1l-20,21.8c-0.5,0.6-1.4,0.6-2,0.1l-22.6-20.7
		c-0.2,0.2-0.5,0.5-0.7,0.8c0,0-0.1,0.1-0.1,0.1l23.7,21.8c0.6,0.5,1.5,0.5,2.1-0.1l20.2-22c0,0,0,0,0,0
		C170.5,248.5,170.5,248.4,170.5,248.4z"/>
	<path class="st1" d="M193,223.1c0-0.2,0-0.4,0-0.6c0-0.2,0-0.4,0-0.5l-6.3,6.9c0.7,0.1,1.4,0.2,2,0.1l4.3-4.7c0-0.2,0-0.4,0-0.5
		C193,223.5,193,223.3,193,223.1z"/>
	<path class="st1" d="M197.2,217.8c0-0.1-0.1-0.3-0.1-0.4l-0.3,0.3L197.2,217.8z"/>
	<path class="st1" d="M186.9,196.3l4.2,3.9c0,0,0.1,0,0.1,0c0.4-0.2,0.7-0.3,1.1-0.5l-4-3.7c-0.2,0-0.3,0.1-0.5,0.1
		C187.6,196.1,187.3,196.2,186.9,196.3z"/>
	<path class="st1" d="M197.3,217.2c0.5,0.3,1.1,0.5,1.5,0.6l3.4-3.7l-1.7-0.4L197.3,217.2z"/>
	<path class="st1" d="M197,205.5l4.2,3.9c0,0,0,0,0,0c0.1-0.3,0.1-0.6,0.2-0.9c0-0.2,0-0.4,0.1-0.5l-4-3.7c0,0.1-0.1,0.2-0.1,0.4
		C197.2,204.9,197.1,205.2,197,205.5z"/>
	<polygon class="st1" points="164.8,176 165.3,174.8 164.9,174.4 164,175.3 	"/>
	<path class="st1" d="M180.6,234.1c-0.1-0.1-0.2-0.3-0.3-0.4c0,0-0.1-0.1-0.1-0.1l-10.8,11.8c0.1,0,0.2,0,0.2,0c0.1,0,0.2,0,0.3,0
		c0.1,0,0.3-0.1,0.4-0.1c0.2-0.1,0.3-0.1,0.5-0.2c0.2-0.1,0.4-0.2,0.6-0.3c0.4-0.2,0.7-0.5,1.1-0.9c0.4-0.4,0.7-0.8,1.1-1.2
		c0.4-0.5,0.8-1.1,1.2-1.6c0.2-0.4,0.5-0.7,0.7-1.1c0-0.1,0.1-0.1,0.1-0.2c0-0.1,0.1-0.1,0.1-0.2c0-0.1,0.1-0.1,0.1-0.2l0.1,0
		c0,0.1,0.1,0.2,0.1,0.3c0.1,0.1,0.1,0.2,0.2,0.3c0,0,0.1,0,0.1,0.1l4.7-5.1c-0.1-0.1-0.2-0.2-0.2-0.3
		C180.8,234.3,180.7,234.2,180.6,234.1z"/>
	<path class="st1" d="M192.9,221.8c0-0.2,0-0.5-0.1-0.7c0-0.2-0.1-0.5-0.1-0.7c0-0.2-0.1-0.3-0.1-0.5l-7.8,8.5
		c0.6,0.2,1.2,0.3,1.7,0.4l6.3-6.9C193,221.8,192.9,221.8,192.9,221.8z"/>
	<path class="st1" d="M196.7,206.5c0,0.1-0.1,0.2-0.1,0.3l3.5,3.2c0.6,0.5,0.6,1.4,0.1,1.9l-5.9,6.4c0.2-0.1,0.5-0.1,0.7-0.2
		c0.4-0.2,0.7-0.3,1-0.5l0.8,0.2l0.3-0.3c-0.1-0.2-0.1-0.4-0.2-0.4l0.1,0c0.1,0.1,0.2,0.1,0.3,0.2l3.2-3.4l-0.9-0.2
		c0.2-0.3,0.3-0.5,0.4-0.8c0.1-0.3,0.3-0.5,0.4-0.8c0.1-0.3,0.2-0.5,0.3-0.8c0.1-0.3,0.2-0.6,0.3-0.8c0.1-0.3,0.2-0.6,0.2-0.9
		l-4.2-3.9c0,0,0,0,0,0C196.9,205.9,196.8,206.2,196.7,206.5z"/>
	<path class="st1" d="M169.9,246.6c0-0.1-0.1-0.1-0.1-0.2c0-0.1-0.1-0.1-0.1-0.2c0-0.1-0.1-0.1-0.1-0.2c0-0.1-0.1-0.1-0.1-0.2
		c0-0.1-0.1-0.1-0.1-0.2c0-0.1-0.1-0.1-0.1-0.1l-19.5,21.3c-0.5,0.6-1.4,0.6-1.9,0.1l-21.5-19.7c-0.3,0.3-0.5,0.5-0.8,0.8
		c0,0,0,0-0.1,0.1l22.6,20.7c0.6,0.5,1.5,0.5,2-0.1l20-21.8c0,0,0-0.1,0-0.1C169.9,246.7,169.9,246.7,169.9,246.6z"/>
	<path class="st1" d="M185.6,196.7l4.5,4.1c0.4-0.2,0.8-0.4,1.2-0.6l-4.2-3.9c-0.4,0.1-0.7,0.3-1.1,0.4L185.6,196.7z"/>
	<path class="st1" d="M109.7,232.1l-3.3-3c-0.3,0.3-0.6,0.5-0.9,0.8l3.3,3l0.5-0.4L109.7,232.1z"/>
	<polygon class="st1" points="164.2,177.1 164.8,176 164,175.3 163.2,176.2 	"/>
	<path class="st1" d="M192.5,219c-0.1-0.3-0.1-0.6-0.2-0.8c0,0,0,0,0-0.1l-8.9,9.7c0.5,0.2,1,0.4,1.5,0.5l7.8-8.5c0-0.1,0-0.1,0-0.2
		C192.6,219.4,192.6,219.2,192.5,219z"/>
	<path class="st1" d="M179.9,232.8c0-0.1-0.1-0.3-0.1-0.4c0-0.1-0.1-0.3-0.1-0.4c0,0,0-0.1,0-0.1L149.4,265
		c-0.5,0.5-1.3,0.6-1.9,0.1l-20.4-18.7c0,0,0,0,0,0c-0.3,0.3-0.5,0.5-0.8,0.8c0,0,0,0,0,0l21.5,19.7c0.6,0.5,1.4,0.5,1.9-0.1
		l19.5-21.3c0,0,0,0,0,0c-0.1-0.1-0.1-0.1-0.1-0.2c-0.1-0.1-0.1-0.1-0.1-0.1c0.1,0,0.1,0,0.2,0c0.1,0,0.2,0,0.3,0c0,0,0,0,0.1,0
		l10.8-11.8c-0.1-0.1-0.1-0.2-0.1-0.3C180,233.1,180,233,179.9,232.8z"/>
	<path class="st1" d="M196.1,207.9l2.1,1.9c0.5,0.5,0.6,1.3,0.1,1.9l-5.8,6.3c0.5,0.4,1.1,0.4,1.7,0.3l5.9-6.4
		c0.5-0.6,0.5-1.4-0.1-1.9l-3.5-3.2c-0.1,0.2-0.2,0.4-0.2,0.6C196.2,207.6,196.2,207.7,196.1,207.9z"/>
	<path class="st1" d="M188.9,201.3c0.3-0.1,0.6-0.3,0.9-0.4c0.1,0,0.2-0.1,0.3-0.1l-4.5-4.1l-2.3-0.5L188.9,201.3z"/>
	<path class="st1" d="M107.3,228.3c-0.3,0.3-0.6,0.5-0.9,0.8l3.3,3l0.9-0.8L107.3,228.3z"/>
	<polygon class="st1" points="163.7,178.2 164.2,177.1 163.2,176.2 162.5,177.1 	"/>
	<path class="st1" d="M198.2,209.8l-2.1-1.9c0,0.1-0.1,0.2-0.1,0.4c-0.1,0.3-0.2,0.5-0.3,0.8l0.8,0.7c0.5,0.5,0.6,1.3,0.1,1.8
		l-47.4,51.7c-0.5,0.5-1.3,0.6-1.8,0.1l-19.4-17.7c0,0,0,0,0,0c-0.3,0.2-0.5,0.5-0.8,0.8l20.4,18.7c0.5,0.5,1.4,0.5,1.9-0.1
		l30.4-33.1c0,0,0-0.1,0-0.1l0.1-0.1l0.3-0.3l0.3-0.3l0.3-0.3l0.3-0.4l0.3-0.4l0.3-0.4l0.3-0.4l0.3-0.4l0.4-0.4l0.4-0.4l0.2-0.2
		c0,0,0.1,0,0.1,0l8.9-9.7c-0.1-0.3-0.1-0.4-0.1-0.4c0.1,0.1,0.2,0.2,0.3,0.3l5.8-6.3C198.8,211.2,198.7,210.3,198.2,209.8z"/>
	<path class="st1" d="M187.8,201.9c0.2-0.1,0.3-0.2,0.5-0.2c0.2-0.1,0.4-0.2,0.6-0.3l-5.6-5.1l-2.2-0.5L187.8,201.9z"/>
	<path class="st1" d="M108.2,227.6c-0.3,0.2-0.6,0.5-0.9,0.7l3.3,3l0.9-0.7L108.2,227.6z"/>
	<polygon class="st1" points="163.3,179.3 163.7,178.2 162.5,177.1 161.7,177.9 	"/>
	<path class="st1" d="M179.5,195.7l7.4,6.7c0,0,0.1,0,0.1-0.1c0.2-0.1,0.5-0.3,0.9-0.5l-6.7-6.2l-1.4-0.3
		C179.6,195.5,179.5,195.6,179.5,195.7z"/>
	<path class="st1" d="M194.2,208.8c-0.2-0.4-0.5-0.7-0.7-1.1c-0.3-0.5-0.7-0.9-1.1-1.2c-0.4-0.3-0.7-0.5-1.1-0.5
		c-0.1-0.3-0.2-0.5-0.4-0.8c-0.4-0.5-1-1-1.7-1.4c-0.6-0.4-1.3-0.7-1.8-0.9l7.2,6.6C194.5,209.3,194.3,209.1,194.2,208.8z"/>
	<path class="st1" d="M109,226.9c0,0-0.1,0.1-0.1,0.1c-0.2,0.2-0.5,0.4-0.7,0.6l3.3,3l0.8-0.7L109,226.9z"/>
	<path class="st1" d="M195.2,209.9l-0.4-0.1c0.3,0.5,0.3,1.1-0.1,1.5l-46,50.2c-0.5,0.5-1.3,0.5-1.8,0.1l-18.3-16.8c0,0,0,0-0.1,0.1
		c-0.2,0.2-0.5,0.5-0.7,0.7l19.4,17.7c0.5,0.5,1.3,0.4,1.8-0.1l47.4-51.7c0.5-0.5,0.4-1.3-0.1-1.8l-0.8-0.7c0,0,0,0.1,0,0.1
		C195.5,209.4,195.3,209.7,195.2,209.9z"/>
	<polygon class="st1" points="162.8,180.4 163.3,179.3 161.7,177.9 161,178.7 	"/>
	<path class="st1" d="M179.1,196.3c0,0.1-0.1,0.2-0.1,0.3l14.1,12.9c0.5,0.5,0.5,1.2,0.1,1.7l-44.6,48.7c-0.5,0.5-1.2,0.5-1.7,0.1
		l-17.3-15.9c0,0-0.1,0-0.1,0.1c-0.2,0.2-0.5,0.4-0.7,0.7l18.3,16.8c0.5,0.5,1.3,0.4,1.8-0.1l46-50.2c0.4-0.4,0.4-1.1,0.1-1.5
		l-0.1,0c0-0.1-0.1-0.2-0.1-0.3l-7.2-6.6c-0.5-0.2-0.9-0.4-0.9-0.4s0.1-0.1,0.3-0.2l-7.4-6.7C179.3,195.9,179.2,196.1,179.1,196.3z"
		/>
	<path class="st1" d="M109.9,226.2c-0.3,0.2-0.6,0.4-0.8,0.7l3.3,3l0.8-0.7L109.9,226.2z"/>
	<polygon class="st1" points="162.3,181.4 162.8,180.4 161,178.7 160.3,179.5 	"/>
	<path class="st1" d="M178.7,197.7l12.8,11.7c0.5,0.4,0.5,1.2,0.1,1.7l-43.3,47.2c-0.4,0.5-1.2,0.5-1.7,0.1l-16.4-15
		c0,0-0.1,0.1-0.1,0.1c-0.2,0.2-0.4,0.4-0.7,0.6l17.3,15.9c0.5,0.5,1.3,0.4,1.7-0.1l44.6-48.7c0.5-0.5,0.4-1.3-0.1-1.7l-14.1-12.9
		c-0.1,0.2-0.2,0.5-0.2,0.7C178.7,197.5,178.7,197.6,178.7,197.7z"/>
	<path class="st1" d="M110.7,225.6c-0.3,0.2-0.5,0.4-0.8,0.6l3.2,3l0.8-0.7L110.7,225.6z"/>
	<polygon class="st1" points="161.9,182.4 162.3,181.4 160.3,179.5 159.6,180.3 	"/>
	<path class="st1" d="M178.8,199.2l11.1,10.2c0.5,0.4,0.5,1.1,0.1,1.6l-42,45.8c-0.4,0.5-1.1,0.5-1.6,0.1l-15.4-14.1
		c0,0-0.1,0.1-0.1,0.1c-0.2,0.2-0.4,0.4-0.6,0.6l16.4,15c0.5,0.4,1.2,0.4,1.7-0.1l43.3-47.2c0.4-0.5,0.4-1.2-0.1-1.7l-12.8-11.7
		c0,0.2,0,0.4,0,0.7C178.6,198.7,178.7,198.9,178.8,199.2z"/>
	<path class="st1" d="M111.5,224.9c-0.3,0.2-0.5,0.4-0.8,0.6l3.2,2.9l0.8-0.7L111.5,224.9z"/>
	<polygon class="st1" points="158.9,181 161.5,183.3 161.9,182.4 159.6,180.3 	"/>
	<path class="st1" d="M179.4,200.7c0.1,0.2,0.3,0.4,0.4,0.6c0,0,0,0-0.1,0.1l8.6,7.8c0.4,0.4,0.5,1.1,0.1,1.6l-40.7,44.4
		c-0.4,0.4-1.1,0.5-1.6,0.1L131.6,242c0,0-0.1,0.1-0.1,0.1c-0.2,0.2-0.4,0.4-0.6,0.6l15.4,14.1c0.5,0.4,1.2,0.4,1.6-0.1l42-45.8
		c0.4-0.5,0.4-1.2-0.1-1.6l-11.1-10.2c0,0.1,0,0.2,0.1,0.3C179,199.9,179.2,200.3,179.4,200.7z"/>
	<path class="st1" d="M112.3,224.3c-0.3,0.2-0.5,0.4-0.8,0.6l3.2,2.9l0.7-0.6L112.3,224.3z"/>
	<polygon class="st1" points="161,184.3 161.5,183.3 158.9,181 158.3,181.7 	"/>
	<path class="st1" d="M116.1,226.6l-3.1-2.8c-0.3,0.2-0.5,0.4-0.8,0.6l3.1,2.9L116.1,226.6z"/>
	<path class="st1" d="M179.3,202.3l7.5,6.9c0.4,0.4,0.5,1.1,0.1,1.5l-39.5,43.1c-0.4,0.4-1.1,0.5-1.5,0.1l-13.6-12.5
		c0,0-0.1,0.1-0.1,0.1c-0.2,0.2-0.4,0.4-0.6,0.6l14.5,13.3c0.4,0.4,1.2,0.4,1.6-0.1l40.7-44.4c0.4-0.4,0.4-1.2-0.1-1.6l-8.6-7.8
		c0,0.1-0.1,0.2-0.2,0.3C179.5,201.9,179.4,202.1,179.3,202.3z"/>
	<polygon class="st1" points="160.6,185.2 161,184.3 158.3,181.7 157.7,182.4 	"/>
	<path class="st1" d="M179,203.2l6.5,5.9c0.4,0.4,0.5,1,0.1,1.5l-38.3,41.8c-0.4,0.4-1,0.5-1.5,0.1l-12.7-11.7c0,0,0,0-0.1,0.1
		c-0.2,0.2-0.4,0.4-0.6,0.6l13.6,12.5c0.4,0.4,1.1,0.4,1.5-0.1l39.5-43.1c0.4-0.4,0.4-1.1-0.1-1.5l-7.5-6.9c0,0.1-0.1,0.2-0.1,0.3
		C179.1,202.8,179,203,179,203.2z"/>
	<path class="st1" d="M113.8,223.2c-0.2,0.2-0.5,0.4-0.7,0.6l3.1,2.8l0.7-0.6L113.8,223.2z"/>
	<polygon class="st1" points="160.2,186 160.6,185.2 157.7,182.4 157.1,183.1 	"/>
	<path class="st1" d="M147.1,252.4l38.3-41.8c0.4-0.4,0.4-1.1-0.1-1.5l-6.5-5.9c0,0.1-0.1,0.2-0.1,0.3c-0.1,0.2-0.1,0.5-0.1,0.7
		l5.3,4.8c0.4,0.4,0.4,1,0.1,1.4L146.9,251c-0.4,0.4-1,0.4-1.4,0.1l-11.9-10.9c-0.2,0.2-0.4,0.4-0.6,0.6l12.7,11.7
		C146.1,252.8,146.8,252.8,147.1,252.4z"/>
	<path class="st1" d="M117.5,225.4l-3-2.7c-0.2,0.2-0.5,0.4-0.7,0.5l3,2.8L117.5,225.4L117.5,225.4z"/>
	<polygon class="st1" points="159.9,186.9 160.2,186 157.1,183.1 156.5,183.8 	"/>
	<path class="st1" d="M178.9,205.4c0.1,0.1,0.1,0.2,0.2,0.3l0.2,0.2c0,0,0.1,0.1,0.1,0.1c0,0,0,0,0,0l3.2,3c0.4,0.4,0.4,1,0.1,1.4
		l-36.1,39.3c-0.4,0.4-1,0.4-1.4,0.1l-11.1-10.2c-0.2,0.2-0.4,0.4-0.6,0.6l11.9,10.9c0.4,0.4,1.1,0.3,1.4-0.1l37.2-40.6
		c0.4-0.4,0.3-1.1-0.1-1.4l-5.3-4.8c0,0.1,0,0.2,0,0.2C178.7,204.8,178.8,205.1,178.9,205.4z"/>
	<path class="st1" d="M115.2,222.2c0,0-0.1,0.1-0.1,0.1c-0.2,0.1-0.4,0.3-0.6,0.4l3,2.7l0.7-0.6L115.2,222.2z"/>
	<polygon class="st1" points="159.5,187.7 159.9,186.9 156.5,183.8 155.9,184.4 	"/>
	<path class="st1" d="M179.4,205.9l-0.2-0.2C179.2,205.8,179.3,205.9,179.4,205.9z"/>
	<path class="st1" d="M181.4,208.9c0.4,0.4,0.4,1,0.1,1.3l-35,38.2c-0.4,0.4-1,0.4-1.3,0.1l-10.3-9.4c0,0,0,0-0.1,0.1
		c0,0-0.2,0.2-0.5,0.5l11.1,10.2c0.4,0.4,1,0.3,1.4-0.1l36.1-39.3c0.4-0.4,0.3-1-0.1-1.4l-3.2-3c-0.1,0-0.7-0.1-1.5-0.2L181.4,208.9
		z"/>
	<path class="st1" d="M115.9,221.7c-0.2,0.2-0.5,0.3-0.7,0.5l3,2.7l0.6-0.5L115.9,221.7z"/>
	<polygon class="st1" points="155.7,184.6 155.6,185.3 159.1,188.5 159.5,187.7 155.9,184.4 	"/>
	<path class="st1" d="M116.5,221.2c-0.2,0.2-0.4,0.3-0.7,0.5l2.9,2.7l0.6-0.5L116.5,221.2z"/>
	<path class="st1" d="M180.1,208.8c0.4,0.3,0.4,0.9,0.1,1.3l-33.9,37c-0.3,0.4-0.9,0.4-1.3,0.1l-9.5-8.8c-0.2,0.2-0.4,0.4-0.6,0.6
		l10.3,9.4c0.4,0.4,1,0.3,1.3-0.1l35-38.2c0.4-0.4,0.3-1-0.1-1.3l-3.4-3.1c-0.4,0-0.8-0.1-1.3-0.1L180.1,208.8z"/>
	<polygon class="st1" points="158.8,189.3 159.1,188.5 155.6,185.3 155.5,186.2 	"/>
	<path class="st1" d="M175.5,205.6l3.4,3.1c0.4,0.3,0.4,0.9,0.1,1.3L146,245.9c-0.3,0.4-0.9,0.4-1.3,0.1l-8.8-8.1
		c-0.2,0.2-0.4,0.4-0.5,0.6l9.5,8.8c0.4,0.3,1,0.3,1.3-0.1l33.9-37c0.3-0.4,0.3-1-0.1-1.3l-3.4-3.1c-0.2,0-0.5,0-0.7,0
		C175.8,205.6,175.6,205.6,175.5,205.6z"/>
	<path class="st1" d="M120,223.3l-2.8-2.6c-0.2,0.2-0.4,0.3-0.6,0.5l2.9,2.6L120,223.3z"/>
	<polygon class="st1" points="158.5,190 158.8,189.3 155.5,186.2 155.3,187.1 	"/>
	<path class="st1" d="M174.4,205.7l3.3,3c0.4,0.3,0.4,0.9,0.1,1.2l-31.9,34.8c-0.3,0.4-0.9,0.4-1.2,0.1l-8.1-7.4
		c-0.2,0.2-0.4,0.4-0.5,0.5l8.8,8.1c0.4,0.3,0.9,0.3,1.3-0.1l32.9-35.9c0.3-0.4,0.3-0.9-0.1-1.3l-3.4-3.1
		C175.1,205.7,174.8,205.7,174.4,205.7z"/>
	<path class="st1" d="M117.8,220.3c-0.2,0.1-0.4,0.3-0.6,0.5l2.8,2.6l0.6-0.5L117.8,220.3z"/>
	<polygon class="st1" points="158.1,190.8 158.5,190 155.3,187.1 155.1,188 	"/>
	<path class="st1" d="M145.8,244.7l31.9-34.8c0.3-0.4,0.3-0.9-0.1-1.2l-3.3-3c-0.3,0-0.6,0.1-1,0.1l3.1,2.8c0.3,0.3,0.4,0.8,0.1,1.2
		l-31,33.8c-0.3,0.3-0.8,0.4-1.2,0.1l-7.4-6.8c-0.2,0.2-0.4,0.3-0.5,0.5l8.1,7.4C144.9,245.1,145.5,245.1,145.8,244.7z"/>
	<path class="st1" d="M118.4,219.8c-0.2,0.1-0.4,0.3-0.6,0.4l2.8,2.5l0.6-0.5L118.4,219.8z"/>
	<polygon class="st1" points="157.8,191.5 158.1,190.8 155.1,188 155,188.9 	"/>
	<path class="st1" d="M172.6,206l2.8,2.6c0.3,0.3,0.4,0.8,0.1,1.2l-5.4,5.9c0,0.1,0.1,0.1,0.1,0.2l-0.2,0.2l-0.5,0.5l-0.5,0.5
		l-2.4,2.6c-0.1,0-0.2,0-0.3,0l-20.9,22.8c-0.3,0.3-0.8,0.4-1.2,0.1l-6.8-6.2c-0.2,0.2-0.3,0.3-0.5,0.5l7.4,6.8
		c0.3,0.3,0.9,0.3,1.2-0.1l31-33.8c0.3-0.3,0.3-0.9-0.1-1.2l-3.1-2.8c-0.2,0-0.3,0-0.5,0.1C172.8,205.9,172.7,205.9,172.6,206z"/>
	<path class="st1" d="M119,219.4c-0.2,0.1-0.4,0.3-0.6,0.4l2.7,2.5l0.5-0.5L119,219.4z"/>
	<polygon class="st1" points="157.5,192.2 157.8,191.5 155,188.9 154.8,189.7 	"/>
	<path class="st1" d="M174.3,208.5c0.3,0.3,0.3,0.8,0,1.1l-4.7,5.1c0.1,0.2,0.2,0.4,0.3,0.6c0,0.1,0.1,0.2,0.1,0.2l5.4-5.9
		c0.3-0.3,0.3-0.8-0.1-1.2l-2.8-2.6c-0.3,0.1-0.5,0.1-0.8,0.2L174.3,208.5z"/>
	<path class="st1" d="M119.6,219c-0.2,0.1-0.4,0.3-0.6,0.4l2.7,2.4l0.5-0.5L119.6,219z"/>
	<path class="st1" d="M165.3,219.5l-20.1,21.9c-0.3,0.3-0.8,0.3-1.1,0l-6.1-5.6c0,0.1-0.1,0.2-0.1,0.2c-0.1,0.1-0.2,0.2-0.3,0.3
		l6.8,6.2c0.3,0.3,0.8,0.3,1.2-0.1l20.9-22.8c-0.1,0-0.3,0-0.4,0C165.7,219.6,165.5,219.6,165.3,219.5z"/>
	<polygon class="st1" points="154.7,190.5 157.2,192.8 157.5,192.2 154.8,189.7 	"/>
	<path class="st1" d="M164.6,219.2c0,0-0.1,0-0.1-0.1l-10.5,11.5c0,0.1,0,0.1,0,0.2c0,0.3,0.1,0.5,0.2,0.8l0,0c0,0-0.2-0.2-0.5-0.4
		c0,0-0.1,0-0.1-0.1l-8.4,9.2c-0.3,0.3-0.8,0.3-1.1,0l-5.9-5.4c0,0,0,0,0,0.1c0,0.3,0,0.6-0.1,0.8l6.1,5.6c0.3,0.3,0.8,0.3,1.1,0
		l20.1-21.9c0,0,0,0-0.1,0C165,219.4,164.8,219.3,164.6,219.2z"/>
	<path class="st1" d="M171.1,206.5l2.1,2c0.3,0.3,0.3,0.8,0,1.1l-4,4.3c0.1,0.2,0.2,0.5,0.3,0.7c0,0,0,0.1,0.1,0.1l4.7-5.1
		c0.3-0.3,0.3-0.8,0-1.1l-2.5-2.3c-0.2,0.1-0.3,0.1-0.5,0.2C171.2,206.4,171.2,206.5,171.1,206.5z"/>
	<path class="st1" d="M120.2,218.6c-0.2,0.1-0.4,0.3-0.6,0.4l2.6,2.4l0.5-0.4L120.2,218.6z"/>
	<polygon class="st1" points="156.9,193.5 157.2,192.8 154.7,190.5 154.6,191.3 	"/>
	<path class="st1" d="M163.7,218.7l-4.7,5.1c0.1,0.1,0.2,0.1,0.3,0.1c0.1,0,0.1,0.1,0.2,0.1c-0.3,0.2-0.6,0.4-0.8,0.6
		c-0.6,0.5-1.1,0.9-1.7,1.4l-2.1,2.3c-0.3,0.4-0.5,0.8-0.6,1.1c-0.2,0.4-0.2,0.7-0.3,1.1l10.5-11.5c-0.2-0.1-0.3-0.2-0.5-0.3
		C163.9,218.9,163.8,218.8,163.7,218.7z"/>
	<path class="st1" d="M172.2,208.4c0.3,0.3,0.3,0.8,0,1.1L169,213c0,0,0,0,0,0.1c0.1,0.2,0.2,0.5,0.3,0.8c0,0,0,0,0,0l4-4.3
		c0.3-0.3,0.3-0.8,0-1.1l-2.1-2c-0.2,0.1-0.4,0.2-0.6,0.3L172.2,208.4z"/>
	<path class="st1" d="M152.7,230.8l-7.8,8.5c-0.3,0.3-0.8,0.3-1.1,0l-5.9-5.4c0.1,0.4,0.1,0.7,0.1,1l5.9,5.4c0.3,0.3,0.8,0.3,1.1,0
		l8.4-9.2c-0.1-0.1-0.3-0.2-0.5-0.3C152.9,230.9,152.8,230.8,152.7,230.8z"/>
	<path class="st1" d="M123.2,220.5l-2.5-2.3c-0.1,0.1-0.3,0.2-0.4,0.3c0,0-0.1,0.1-0.1,0.1l2.6,2.3L123.2,220.5z"/>
	<polygon class="st1" points="156.6,194.1 156.9,193.5 154.6,191.3 154.4,192.1 	"/>
	<path class="st1" d="M170,207.2l1.2,1.1c0.3,0.3,0.3,0.7,0,1l-2.5,2.7c0,0.1,0,0.1,0,0.2c0.1,0.2,0.1,0.5,0.2,0.7l3.2-3.5
		c0.3-0.3,0.3-0.8,0-1.1l-1.7-1.6c-0.1,0.1-0.2,0.1-0.3,0.2C170.1,207.1,170.1,207.1,170,207.2z"/>
	<path class="st1" d="M121.2,217.8c-0.2,0.1-0.4,0.2-0.5,0.4l2.5,2.3l0.5-0.4L121.2,217.8z"/>
	<path class="st1" d="M163.1,218.3l-4.6,5c0.1,0.1,0.2,0.2,0.3,0.3c0.1,0.1,0.2,0.2,0.3,0.2l4.7-5.1c-0.1-0.1-0.2-0.1-0.3-0.2
		C163.3,218.4,163.2,218.4,163.1,218.3z"/>
	<path class="st1" d="M154.8,228.4l2.1-2.3C156.1,226.9,155.4,227.7,154.8,228.4z"/>
	<path class="st1" d="M151.8,230.5l-7.2,7.8c-0.3,0.3-0.7,0.3-1,0l-6-5.5c0,0,0,0.1,0,0.1c0.1,0.3,0.2,0.7,0.3,1c0,0,0,0,0,0
		l5.9,5.4c0.3,0.3,0.8,0.3,1.1,0l7.8-8.5c-0.1-0.1-0.2-0.1-0.4-0.1C152.2,230.6,152,230.6,151.8,230.5z"/>
	<polygon class="st1" points="156.4,194.7 156.6,194.1 154.4,192.1 154.3,192.8 	"/>
	<path class="st1" d="M144.7,238.4l7.2-7.8c-0.1,0-0.2-0.1-0.3-0.1c-0.2,0-0.4-0.1-0.6-0.1l-6.5,7.1c-0.3,0.3-0.7,0.3-1,0l-6.3-5.8
		c0,0.1,0.1,0.3,0.1,0.4c0.1,0.3,0.2,0.6,0.3,0.8l6,5.5C143.9,238.7,144.4,238.6,144.7,238.4z"/>
	<path class="st1" d="M162.5,217.8l-4.5,4.9c0.1,0.1,0.2,0.3,0.3,0.4c0.1,0.1,0.1,0.1,0.2,0.2l4.6-5c-0.1-0.1-0.1-0.1-0.2-0.2
		C162.7,218,162.6,217.9,162.5,217.8z"/>
	<path class="st1" d="M170.3,208.3c0.3,0.3,0.3,0.7,0,1l-1.7,1.8c0,0.1,0,0.3,0,0.4c0,0.2,0.1,0.4,0.1,0.6l2.5-2.7
		c0.3-0.3,0.2-0.8,0-1l-1.2-1.1c-0.2,0.1-0.3,0.3-0.4,0.4L170.3,208.3z"/>
	<path class="st1" d="M121.8,217.5c-0.2,0.1-0.3,0.2-0.5,0.4l2.5,2.3l0.5-0.4L121.8,217.5z"/>
	<polygon class="st1" points="156.1,195.3 156.4,194.7 154.3,192.8 154.2,193.5 	"/>
	<path class="st1" d="M169.2,208.1l0.1,0.1c0.3,0.3,0.3,0.7,0,1l-0.7,0.8c0,0.2,0,0.5,0,0.7c0,0.1,0,0.2,0,0.4l1.7-1.8
		c0.3-0.3,0.2-0.7,0-1l-0.7-0.6c0,0,0,0-0.1,0.1C169.4,207.8,169.3,208,169.2,208.1z"/>
	<path class="st1" d="M161.9,217.3l-4.4,4.8c0.1,0.2,0.2,0.3,0.3,0.5c0,0.1,0.1,0.1,0.1,0.2l4.5-4.9c-0.1,0-0.1-0.1-0.2-0.1
		C162.2,217.5,162.1,217.4,161.9,217.3z"/>
	<path class="st1" d="M150.1,230.2l-5.7,6.2c-0.3,0.3-0.7,0.3-1,0l-6.6-6.1c0.1,0.2,0.2,0.4,0.3,0.7c0.1,0.2,0.1,0.4,0.2,0.6
		l6.3,5.8c0.3,0.3,0.7,0.2,1,0l6.5-7.1c-0.1,0-0.2,0-0.2,0C150.5,230.3,150.3,230.3,150.1,230.2z"/>
	<path class="st1" d="M122.3,217.1c-0.2,0.1-0.3,0.2-0.5,0.3l2.4,2.2l0.5-0.4L122.3,217.1z"/>
	<polygon class="st1" points="155.8,195.9 156.1,195.3 154.2,193.5 154,194.2 	"/>
	<path class="st1" d="M149.1,230.2l-4.9,5.3c-0.2,0.3-0.7,0.3-0.9,0l-7-6.4c0,0,0,0,0,0c0.1,0.3,0.3,0.6,0.4,0.9
		c0,0.1,0.1,0.2,0.1,0.3l6.6,6.1c0.3,0.3,0.7,0.2,1,0l5.7-6.2c-0.1,0-0.1,0-0.2,0C149.6,230.2,149.3,230.2,149.1,230.2z"/>
	<path class="st1" d="M122.7,216.8c-0.2,0.1-0.3,0.2-0.5,0.3l2.4,2.2l0.4-0.4L122.7,216.8z"/>
	<path class="st1" d="M161.8,217.2c-0.1-0.1-0.3-0.3-0.4-0.4l-4.2,4.6c0.1,0.2,0.2,0.4,0.3,0.5c0,0.1,0.1,0.1,0.1,0.2l4.4-4.8
		C161.9,217.2,161.9,217.2,161.8,217.2z"/>
	<path class="st1" d="M168.8,209.2c-0.1,0.2-0.1,0.5-0.1,0.8c0,0,0,0,0,0l0.7-0.8c0.3-0.3,0.2-0.7,0-1l-0.1-0.1
		c-0.1,0.1-0.1,0.2-0.2,0.3C168.9,208.6,168.8,208.9,168.8,209.2z"/>
	<polygon class="st1" points="155.6,196.4 155.8,195.9 154,194.2 153.9,194.9 	"/>
	<path class="st1" d="M160.9,216.3l-4,4.4c0.1,0.2,0.2,0.4,0.2,0.5c0,0.1,0.1,0.1,0.1,0.2l4.2-4.6c0,0-0.1-0.1-0.1-0.1
		C161.2,216.5,161.1,216.4,160.9,216.3z"/>
	<path class="st1" d="M125.5,218.6l-2.3-2.1c-0.2,0.1-0.3,0.2-0.5,0.3l2.3,2.1l0.3-0.2L125.5,218.6z"/>
	<path class="st1" d="M148,230.4l-4,4.4c-0.2,0.3-0.6,0.3-0.9,0l-7.4-6.8c0,0.1,0.1,0.2,0.1,0.3c0.1,0.3,0.3,0.6,0.4,0.9l7,6.4
		c0.3,0.2,0.7,0.2,0.9,0l4.9-5.3c-0.1,0-0.2,0-0.3,0C148.6,230.3,148.3,230.3,148,230.4z"/>
	<polygon class="st1" points="155.4,196.9 155.6,196.4 153.9,194.9 153.8,195.5 	"/>
	<path class="st1" d="M146.9,230.6l-3,3.3c-0.2,0.3-0.6,0.3-0.9,0l-7.9-7.2c0.1,0.2,0.2,0.4,0.3,0.6c0.1,0.2,0.2,0.4,0.3,0.7
		l7.4,6.8c0.3,0.2,0.7,0.2,0.9,0l4-4.4c-0.1,0-0.2,0-0.3,0.1C147.4,230.5,147.2,230.5,146.9,230.6z"/>
	<path class="st1" d="M123.7,216.2c-0.1,0.1-0.3,0.2-0.5,0.3l2.3,2.1l0.4-0.4L123.7,216.2z"/>
	<path class="st1" d="M160.5,215.8l-3.9,4.2c0.1,0.2,0.1,0.3,0.2,0.5c0,0.1,0.1,0.1,0.1,0.2l4-4.4c0-0.1-0.1-0.1-0.1-0.2
		C160.7,216,160.6,215.9,160.5,215.8z"/>
	<polygon class="st1" points="153.7,196.2 155.1,197.5 155.4,196.9 153.8,195.5 	"/>
	<path class="st1" d="M160.1,215.2l-3.7,4c0,0.1,0.1,0.3,0.1,0.4c0,0.1,0.1,0.2,0.1,0.3l3.9-4.2c-0.1-0.1-0.1-0.1-0.2-0.2
		C160.2,215.4,160.1,215.3,160.1,215.2z"/>
	<path class="st1" d="M145.6,231l-1.9,2.1c-0.2,0.2-0.6,0.3-0.8,0l-8.3-7.6c0.1,0.3,0.3,0.6,0.4,0.9c0.1,0.1,0.1,0.3,0.2,0.4
		l7.9,7.2c0.3,0.2,0.6,0.2,0.9,0l3-3.3c-0.2,0-0.4,0.1-0.5,0.1C146.1,230.8,145.9,230.9,145.6,231z"/>
	<path class="st1" d="M124.1,215.9c-0.1,0.1-0.3,0.2-0.4,0.3l2.2,2l0.4-0.3L124.1,215.9z"/>
	<polygon class="st1" points="154.9,198 155.1,197.5 153.7,196.2 153.6,196.8 	"/>
	<path class="st1" d="M126.7,217.5l-2.1-2c-0.1,0.1-0.3,0.2-0.4,0.3l2.2,2L126.7,217.5z"/>
	<path class="st1" d="M159.6,214.8l-3.5,3.9c0,0.1,0.1,0.2,0.1,0.3c0.1,0.1,0.1,0.3,0.2,0.4l3.7-4c-0.1-0.1-0.2-0.2-0.3-0.3
		C159.7,214.9,159.7,214.8,159.6,214.8z"/>
	<path class="st1" d="M144.9,231.2l-0.3,0l-0.9,1c-0.2,0.2-0.6,0.3-0.8,0l-8.8-8.1c0,0,0,0.1,0.1,0.1c0.2,0.3,0.3,0.7,0.5,1
		c0,0,0,0.1,0.1,0.1l8.3,7.6c0.2,0.2,0.6,0.2,0.8,0l1.9-2.1C145.4,231.1,145.1,231.2,144.9,231.2L144.9,231.2z"/>
	<polygon class="st1" points="154.7,198.5 154.9,198 153.6,196.8 153.5,197.4 	"/>
	<path class="st1" d="M159.2,214.3l-3.4,3.7c0,0,0,0,0,0.1c0.1,0.2,0.1,0.4,0.2,0.6l3.5-3.9C159.5,214.6,159.4,214.5,159.2,214.3
		C159.3,214.3,159.3,214.3,159.2,214.3z"/>
	<path class="st1" d="M143.7,231.3L143.7,231.3l-0.3,0.2c-0.2,0.2-0.6,0.2-0.8,0l-9.3-8.5c0.1,0.1,0.1,0.2,0.2,0.3
		c0.1,0.3,0.3,0.6,0.4,0.9l8.8,8.1c0.2,0.2,0.6,0.2,0.8,0l0.9-1L143.7,231.3L143.7,231.3z"/>
	<path class="st1" d="M125,215.3c-0.1,0.1-0.3,0.2-0.4,0.3l2.1,2l0.4-0.3L125,215.3z"/>
	<polygon class="st1" points="154.5,198.9 154.7,198.5 153.5,197.4 153.4,197.9 	"/>
	<path class="st1" d="M155.7,217.3c0.1,0.2,0.1,0.4,0.2,0.7l3.4-3.7c-0.1-0.2-0.3-0.3-0.4-0.5L155.7,217.3z"/>
	<path class="st1" d="M143.5,231.5l0.2-0.2l-0.3-0.5l0,0c-0.2,0.2-0.6,0.2-0.8,0l-9.8-9c0.1,0.2,0.2,0.3,0.3,0.5
		c0.1,0.2,0.2,0.5,0.3,0.7l9.3,8.5C142.9,231.7,143.3,231.7,143.5,231.5z"/>
	<path class="st1" d="M125.4,215c-0.1,0.1-0.2,0.1-0.3,0.2c0,0-0.1,0.1-0.1,0.1l2.1,1.9l0.4-0.3L125.4,215z"/>
	<polygon class="st1" points="154.3,199.4 154.5,198.9 153.4,197.9 153.3,198.5 	"/>
	<path class="st1" d="M158.5,213.3l-3.1,3.3c0.1,0.2,0.1,0.3,0.2,0.5c0,0,0,0.1,0,0.1l3.2-3.5c0,0-0.1-0.1-0.1-0.1
		C158.7,213.6,158.6,213.4,158.5,213.3z"/>
	<path class="st1" d="M125.8,214.7c-0.1,0.1-0.1,0.1-0.1,0.1s-0.1,0.1-0.2,0.2l2.1,1.9l0.4-0.3L125.8,214.7z"/>
	<path class="st1" d="M143,230.1c-0.2,0.1-0.4,0-0.5-0.1l-10.3-9.4c0.1,0.2,0.2,0.4,0.3,0.7c0.1,0.2,0.2,0.4,0.3,0.5l9.8,9
		c0.2,0.2,0.6,0.2,0.8,0l0,0l-0.1-0.1L143,230.1z"/>
	<polygon class="st1" points="154.1,199.8 154.3,199.4 153.3,198.5 153.2,199 	"/>
	<path class="st1" d="M126.1,214.4c-0.2,0.1-0.3,0.2-0.3,0.3l2,1.9l0.3-0.3L126.1,214.4z"/>
	<path class="st1" d="M142.6,229.4c-0.1,0-0.1-0.1-0.2-0.1l-10.8-9.9c0.1,0.2,0.3,0.5,0.4,0.8c0.1,0.1,0.1,0.3,0.2,0.4l10.3,9.4
		c0.1,0.1,0.4,0.2,0.5,0.1l-0.2-0.3L142.6,229.4z"/>
	<path class="st1" d="M158.3,213c0-0.1-0.1-0.1-0.1-0.2l-2.9,3.2c0,0.1,0,0.1,0.1,0.2c0,0.1,0.1,0.3,0.1,0.4l3.1-3.3
		C158.4,213.2,158.4,213.1,158.3,213z"/>
	<polygon class="st1" points="153.9,200.3 154.1,199.8 153.2,199 153.1,199.6 	"/>
	<path class="st1" d="M141.9,228.4l-0.1-0.2l-10.8-9.9c0.1,0.3,0.3,0.5,0.4,0.8c0.1,0.1,0.1,0.2,0.2,0.3l10.8,9.9
		c0.1,0.1,0.1,0.1,0.2,0.1l-0.2-0.3L141.9,228.4z"/>
	<path class="st1" d="M126.5,214.2c-0.1,0.1-0.3,0.2-0.4,0.2l2,1.9l0.3-0.3L126.5,214.2z"/>
	<path class="st1" d="M155.1,215.4c0.1,0.2,0.1,0.4,0.2,0.6l2.9-3.2c-0.1-0.2-0.2-0.3-0.3-0.5L155.1,215.4z"/>
	<polygon class="st1" points="153.7,200.7 153.9,200.3 153.1,199.6 153,200.1 	"/>
	<path class="st1" d="M157.5,211.9l-2.6,2.9c0,0.2,0.1,0.3,0.1,0.5c0,0,0,0.1,0,0.1l2.8-3c0,0,0-0.1-0.1-0.1
		C157.7,212.2,157.6,212.1,157.5,211.9z"/>
	<path class="st1" d="M126.9,214c-0.1,0.1-0.3,0.1-0.4,0.2l2,1.8l0.3-0.3L126.9,214z"/>
	<path class="st1" d="M140.9,226.8l-10.6-9.7c0.1,0.3,0.3,0.6,0.5,0.9c0,0.1,0.1,0.2,0.1,0.3l10.8,9.9l-0.4-0.6L140.9,226.8z"/>
	<polygon class="st1" points="152.9,200.6 153.5,201.1 153.7,200.7 153,200.1 	"/>
	<path class="st1" d="M157.2,211.5l-2.5,2.7c0,0,0,0.1,0,0.1c0,0.2,0.1,0.3,0.1,0.5l2.6-2.9C157.4,211.8,157.4,211.7,157.2,211.5
		C157.3,211.6,157.2,211.5,157.2,211.5z"/>
	<path class="st1" d="M127.3,213.8c-0.2,0-0.3,0.1-0.4,0.2l1.9,1.8l0.3-0.3L127.3,213.8z"/>
	<path class="st1" d="M140.4,226l-0.3-0.5l-10.3-9.5c0.1,0.2,0.3,0.5,0.5,0.9c0,0.1,0.1,0.2,0.1,0.2l10.6,9.7l0,0L140.4,226z"/>
	<polygon class="st1" points="153.3,201.5 153.5,201.1 152.9,200.6 152.8,201.1 	"/>
	<path class="st1" d="M154.6,213.6c0.1,0.2,0.1,0.4,0.2,0.6l2.5-2.7c-0.1-0.1-0.2-0.3-0.3-0.4L154.6,213.6z"/>
	<path class="st1" d="M129.3,215.3c0,0,0.1,0.2,0.3,0.5c0,0.1,0.1,0.2,0.1,0.2l10.3,9.5l-0.2-0.3l-0.5-0.8l-0.1-0.1l-11.5-10.6
		c-0.2,0-0.3,0.1-0.5,0.1l1.8,1.7L129.3,215.3z"/>
	<polygon class="st1" points="153.1,201.9 153.3,201.5 152.8,201.1 152.7,201.5 	"/>
	<path class="st1" d="M138.5,223l-10.2-9.4c-0.2,0-0.3,0-0.5,0.1l11.5,10.6l-0.4-0.7L138.5,223z"/>
	<path class="st1" d="M156.6,210.7l-2.2,2.4c0,0.1,0,0.2,0.1,0.3c0,0.1,0.1,0.2,0.1,0.3l2.3-2.6c-0.1-0.1-0.1-0.2-0.2-0.2
		C156.7,210.8,156.7,210.7,156.6,210.7z"/>
	<polygon class="st1" points="153,202.3 153.1,201.9 152.7,201.5 152.7,202 	"/>
	<path class="st1" d="M137.8,221.8l-8.9-8.2c-0.2,0-0.4,0-0.5,0c0,0,0,0,0,0l10.2,9.4l-0.2-0.3L137.8,221.8z"/>
	<path class="st1" d="M156.4,210.3l-2.1,2.3c0,0.2,0.1,0.4,0.1,0.5l2.2-2.4C156.6,210.5,156.5,210.4,156.4,210.3z"/>
	<polygon class="st1" points="152.8,202.6 153,202.3 152.7,202 152.6,202.4 	"/>
	<path class="st1" d="M156.1,209.9l-1.9,2.1c0,0.1,0,0.2,0.1,0.3c0,0.1,0,0.2,0.1,0.2l2.1-2.3c0-0.1-0.1-0.1-0.1-0.2
		C156.2,210,156.2,209.9,156.1,209.9z"/>
	<path class="st1" d="M137.2,220.9l-0.2-0.3l-7.6-6.9c-0.2,0-0.4-0.1-0.6-0.1l8.9,8.2l0,0L137.2,220.9z"/>
	<polygon class="st1" points="152.7,203 152.8,202.6 152.6,202.4 152.5,202.8 	"/>
	<path class="st1" d="M154,211.5c0,0.2,0.1,0.3,0.1,0.5l1.9-2.1c-0.1-0.1-0.2-0.3-0.2-0.4L154,211.5z"/>
	<path class="st1" d="M136.3,219.5l-6.1-5.6c-0.1,0-0.3-0.1-0.4-0.1c-0.1,0-0.3-0.1-0.4-0.1l7.6,6.9l-0.4-0.7L136.3,219.5z"/>
	<polygon class="st1" points="152.4,203.3 152.5,203.3 152.7,203 152.5,202.8 	"/>
	<path class="st1" d="M152.4,203.6c0,0,0,0,0,0.1l0.1,0.1C152.4,203.6,152.4,203.6,152.4,203.6z"/>
	<path class="st1" d="M136,219.1c-0.2-0.3-0.4-0.6-0.7-0.9c0,0,0-0.1-0.1-0.1l-4.1-3.7c0,0-0.1-0.1-0.1-0.1
		c-0.3-0.2-0.6-0.3-0.8-0.4l6.1,5.6l-0.1-0.1C136.2,219.3,136.1,219.2,136,219.1z"/>
	<path class="st1" d="M155.6,209.1l-1.7,1.9c0,0.1,0,0.2,0.1,0.3c0,0.1,0,0.2,0.1,0.2l1.8-2c0-0.1-0.1-0.1-0.1-0.2
		C155.7,209.2,155.7,209.2,155.6,209.1z"/>
	<polygon class="st1" points="152.5,203.3 152.4,203.3 152.4,203.6 	"/>
	<path class="st1" d="M153.8,210.5c0,0.2,0.1,0.3,0.1,0.5l1.7-1.9c-0.1-0.1-0.2-0.2-0.2-0.4L153.8,210.5z"/>
	<path class="st1" d="M152.5,204.2l0.5,0.4c-0.1-0.3-0.3-0.5-0.4-0.6c-0.1-0.1-0.1-0.2-0.1-0.3l-0.1-0.1
		C152.4,203.8,152.5,204,152.5,204.2C152.5,204.2,152.5,204.2,152.5,204.2z"/>
	<path class="st1" d="M134.6,217.3c-0.3-0.3-0.5-0.6-0.8-0.8c-0.3-0.3-0.6-0.6-0.8-0.8c-0.3-0.3-0.6-0.5-0.9-0.7
		c-0.3-0.2-0.6-0.4-0.9-0.6l4.1,3.7C135.1,217.8,134.8,217.5,134.6,217.3z"/>
	<path class="st1" d="M153.5,205.6c-0.1-0.2-0.2-0.4-0.3-0.6c-0.1-0.1-0.1-0.2-0.2-0.3l-0.5-0.4c0,0.2,0.1,0.3,0.1,0.5L153.5,205.6z
		"/>
	<path class="st1" d="M155.2,208.5c0,0,0-0.1-0.1-0.1l-1.5,1.6c0,0,0,0.1,0,0.1c0,0.1,0.1,0.2,0.1,0.3l1.6-1.7
		C155.3,208.7,155.3,208.6,155.2,208.5z"/>
	<path class="st1" d="M154,206.5c-0.1-0.2-0.2-0.4-0.4-0.6c-0.1-0.1-0.1-0.2-0.2-0.3l-0.9-0.8c0,0.2,0.1,0.3,0.1,0.5L154,206.5z"/>
	<path class="st1" d="M153.6,209.5c0,0.2,0.1,0.3,0.1,0.5l1.5-1.6c-0.1-0.1-0.1-0.2-0.2-0.3L153.6,209.5z"/>
	<path class="st1" d="M154.6,207.5c0.1,0.1,0,0.3-0.1,0.4l-1.1,1.2c0,0.1,0.1,0.3,0.1,0.5l1.4-1.5c-0.1-0.1-0.2-0.3-0.2-0.4
		C154.7,207.6,154.7,207.6,154.6,207.5z"/>
	<path class="st1" d="M152.7,205.5c0,0.1,0,0.2,0.1,0.3l1.8,1.6c0,0,0,0.1,0.1,0.1c-0.1-0.2-0.3-0.5-0.4-0.7
		c-0.1-0.1-0.1-0.2-0.2-0.3l-1.3-1.2C152.7,205.3,152.7,205.4,152.7,205.5z"/>
	<path class="st1" d="M154.1,207.4c0.1,0.1,0.1,0.3,0,0.5l-0.7,0.8c0,0.1,0.1,0.3,0.1,0.4c0,0,0,0,0,0.1l1.1-1.2
		c0.1-0.1,0.1-0.2,0.1-0.4c0,0,0,0,0,0c0,0,0-0.1-0.1-0.1l-1.8-1.6c0,0.2,0.1,0.3,0.1,0.5L154.1,207.4z"/>
	<path class="st1" d="M154.1,207.4l-1.2-1.1c0,0.1,0.1,0.3,0.1,0.4c0,0,0,0,0,0.1l0.7,0.6c0.1,0.1,0.1,0.3,0,0.5l-0.4,0.4
		c0,0.1,0.1,0.3,0.1,0.4l0.7-0.8C154.2,207.7,154.2,207.5,154.1,207.4z"/>
	<path class="st1" d="M153.2,207.3c0.1,0.1,0.1,0.3,0,0.4l0,0c0,0,0,0,0,0.1c0,0.1,0,0.2,0.1,0.3l0.4-0.4c0.1-0.1,0.1-0.3,0-0.5
		l-0.7-0.6c0,0.2,0.1,0.3,0.1,0.5L153.2,207.3z"/>
	<path class="st1" d="M153.2,207.3l-0.1-0.1c0,0.2,0.1,0.4,0.1,0.6l0,0C153.3,207.6,153.3,207.4,153.2,207.3z"/>
</g>
</svg>
