<?xml version="1.0" encoding="utf-8"?>
<!-- Generator: Adobe Illustrator 22.0.1, SVG Export Plug-In . SVG Version: 6.00 Build 0)  -->
<svg version="1.1" id="レイヤー_1" xmlns="http://www.w3.org/2000/svg" xmlns:xlink="http://www.w3.org/1999/xlink" x="0px"
	 y="0px" viewBox="0 0 640 640" style="enable-background:new 0 0 640 640;" xml:space="preserve">
<style type="text/css">
	.st0{fill:#E50012;stroke:#E60012;stroke-width:0.3381;stroke-miterlimit:10;}
	.st1{fill:none;stroke:#E60012;stroke-width:0.3381;stroke-miterlimit:10;}
</style>
<g id="レイヤー_2_1_">
</g>
<g>
	<path class="st0" d="M502.9,297.8c-0.2-0.1-0.4-0.2-0.5-0.2l0.4,0.3C502.8,297.8,502.9,297.8,502.9,297.8z"/>
	<path class="st0" d="M537.5,324.3c0,0,0,0.1-0.1,0.2l0.4,0.3C537.8,324.6,537.6,324.5,537.5,324.3z"/>
	<path class="st1" d="M499.1,298c-0.8,0.4-1.7,0.9-2.6,1.7c-0.1,0.1-0.2,0.1-0.2,0.2l2.3,1.7c0.5-0.5,1-1,1.5-1.4
		c1.2-1.1,2-1.8,2.5-2.1c0.1-0.1,0.2-0.1,0.3-0.2l-0.4-0.3c0,0,0,0-0.1,0C501.4,297.3,500.3,297.5,499.1,298z"/>
	<path class="st1" d="M534.9,329.5l2.3,1.8c0.1-0.3,0.3-0.6,0.4-0.9c0.9-2.3,1.1-4.3,0.3-5.5l-0.4-0.3c-0.1,0.3-0.5,1.2-1.2,2.6
		C535.9,327.8,535.5,328.6,534.9,329.5z"/>
	<path class="st1" d="M492.3,303.6l2.5,2c0.2-0.2,0.4-0.4,0.6-0.6c0.8-0.9,1.6-1.7,2.2-2.4c0.3-0.3,0.6-0.6,0.9-0.9l-2.3-1.7
		c-0.7,0.6-1.4,1.2-2.1,1.9C493.5,302.3,492.9,302.9,492.3,303.6z"/>
	<path class="st1" d="M534.1,331c-0.6,0.9-1.2,2-2,3.1l2.5,2c0.3-0.5,0.6-1,0.9-1.5c0.7-1.2,1.2-2.3,1.7-3.3l-2.3-1.8
		C534.7,330,534.4,330.5,534.1,331z"/>
	<path class="st1" d="M529.5,337.9c-0.1,0.2-0.3,0.4-0.4,0.5l2.6,2c0.5-0.8,1.1-1.5,1.6-2.2c0.5-0.7,0.9-1.4,1.3-2.1l-2.5-2
		c-0.1,0.1-0.2,0.3-0.3,0.4C531.1,335.6,530.4,336.7,529.5,337.9z"/>
	<path class="st1" d="M489.7,306.5c-0.3,0.3-0.5,0.7-0.8,1l2.6,2c0.6-0.8,1.2-1.5,1.8-2.2c0.6-0.7,1.1-1.2,1.6-1.8l-2.5-2
		c-0.1,0.1-0.3,0.3-0.4,0.4C491.2,304.8,490.4,305.6,489.7,306.5z"/>
	<path class="st1" d="M526.1,342.5l2.5,1.9c0.8-1,1.6-2,2.3-3c0.3-0.3,0.5-0.7,0.7-1l-2.6-2c-0.6,0.8-1.2,1.7-1.9,2.6
		C526.9,341.5,526.5,342,526.1,342.5z"/>
	<path class="st1" d="M487.6,309.1c-0.6,0.8-1.2,1.6-1.8,2.4l2.5,1.9c0.3-0.4,0.6-0.7,0.9-1.1c0.7-0.9,1.4-1.7,2-2.5
		c0.1-0.1,0.2-0.2,0.3-0.3l-2.6-2C488.5,308,488,308.5,487.6,309.1z"/>
	<path class="st1" d="M523.1,346.4l2.4,1.9c0.3-0.3,0.5-0.6,0.8-0.9c0.8-1,1.6-1.9,2.3-2.9c0,0,0,0,0,0l-2.5-1.9
		c-0.4,0.5-0.8,1-1.2,1.5C524.4,344.8,523.8,345.6,523.1,346.4z"/>
	<path class="st1" d="M483.9,314.1c-0.3,0.5-0.6,0.9-1,1.4l2.4,1.9c0,0,0,0,0,0c0.7-0.9,1.3-1.7,1.9-2.5c0.4-0.5,0.7-0.9,1.1-1.4
		l-2.5-1.9c0,0-0.1,0.1-0.1,0.1C485.1,312.4,484.5,313.3,483.9,314.1z"/>
	<path class="st1" d="M522.7,346.9c-0.3,0.3-0.5,0.7-0.8,1c-0.3,0.4-0.8,1.1-1.4,1.9c-0.1,0.1-0.2,0.2-0.3,0.4l2.2,1.7
		c0.5-0.6,1-1.2,1.5-1.8c0.5-0.6,1-1.2,1.5-1.8l-2.4-1.9C523,346.5,522.9,346.7,522.7,346.9z"/>
	<path class="st1" d="M480.4,319.1c-0.1,0.1-0.1,0.2-0.2,0.3l2.2,1.7c0.4-0.5,0.8-0.9,1.1-1.3c0.3-0.3,0.5-0.6,0.7-0.9
		c0.4-0.5,0.8-1.1,1.2-1.6l-2.4-1.9c-0.3,0.4-0.5,0.7-0.8,1.1C481.6,317.4,481,318.2,480.4,319.1z"/>
	<path class="st1" d="M517.6,353.9l1.9,1.4c0,0,0-0.1,0.1-0.1c0.7-0.8,1.5-1.7,2.3-2.5c0.2-0.3,0.5-0.6,0.7-0.9l-2.2-1.7
		c-0.5,0.7-1.1,1.6-1.8,2.5C518.2,353.1,517.9,353.5,517.6,353.9z"/>
	<path class="st1" d="M477.7,323.2l1.9,1.4c0.1-0.1,0.2-0.2,0.3-0.4c0.6-0.8,1.3-1.6,1.8-2.3c0.3-0.3,0.5-0.7,0.8-1l-2.2-1.7
		c-0.5,0.8-1,1.5-1.5,2.3C478.3,322.2,478,322.7,477.7,323.2z"/>
	<path class="st1" d="M477,324.2c-0.5,0.8-1.1,1.7-1.6,2.5c-0.1,0.1-0.1,0.2-0.2,0.3l1.6,1.2c0.4-0.6,0.8-1.1,1.2-1.6
		c0.5-0.7,1-1.3,1.5-1.9l-1.9-1.4C477.5,323.6,477.2,323.9,477,324.2z"/>
	<path class="st1" d="M514.9,357.4l1.6,1.2c0.3-0.3,0.6-0.6,0.9-0.9c0.7-0.8,1.4-1.6,2.2-2.4l-1.9-1.4c-0.4,0.5-0.8,1.1-1.2,1.6
		C515.9,356.1,515.4,356.8,514.9,357.4z"/>
	<path class="st1" d="M512.2,360.6c0,0.1-0.1,0.1-0.1,0.2l1.3,1c0.5-0.6,1.1-1.2,1.7-1.8c0.4-0.5,0.9-0.9,1.3-1.4l-1.6-1.2
		c-0.2,0.2-0.4,0.5-0.6,0.7C513.6,359,512.9,359.8,512.2,360.6z"/>
	<path class="st1" d="M472.9,330.7l1.3,1c0.1-0.2,0.3-0.4,0.4-0.6c0.5-0.8,1.1-1.5,1.6-2.3c0.2-0.2,0.3-0.4,0.5-0.6l-1.6-1.2
		c-0.5,0.7-0.9,1.5-1.4,2.2C473.6,329.7,473.3,330.2,472.9,330.7z"/>
	<path class="st1" d="M470.9,334.1c0,0.1-0.1,0.2-0.1,0.2l1.3,1c0.3-0.6,0.7-1.2,1.1-1.8c0.4-0.6,0.8-1.2,1.2-1.8l-1.3-1
		c-0.2,0.3-0.4,0.6-0.6,0.9C471.9,332.5,471.4,333.3,470.9,334.1z"/>
	<path class="st1" d="M510.1,362.9c-0.3,0.3-0.6,0.6-0.9,0.9l1.3,1c0.1-0.1,0.2-0.2,0.3-0.3c0.7-0.7,1.4-1.4,2.1-2.2
		c0.2-0.2,0.3-0.3,0.5-0.5l-1.3-1C511.4,361.5,510.8,362.2,510.1,362.9z"/>
	<path class="st1" d="M506,366.5l1.6,1.2c0.3-0.3,0.7-0.7,1.1-1.1c0.6-0.6,1.2-1.2,1.8-1.8l-1.3-1c-0.4,0.4-0.8,0.8-1.2,1.1
		C507.3,365.6,506.6,366.1,506,366.5z"/>
	<path class="st1" d="M468.7,337.9l1.6,1.2c0-0.1,0.1-0.2,0.1-0.3c0.3-0.9,0.8-1.8,1.3-2.8c0.1-0.2,0.2-0.4,0.4-0.7l-1.3-1
		c-0.5,0.8-0.9,1.5-1.3,2.2C469.2,337,468.9,337.5,468.7,337.9z"/>
	<path class="st1" d="M497.8,363.1c0,0,0.1,0.8,0.1,2.2l0.8,0.6C498.4,365.3,498.1,364.3,497.8,363.1z"/>
	<path class="st1" d="M473.6,346.6c1.3-0.3,2.1-0.4,2.1-0.4c-0.9,0-1.6,0-2.3-0.1c-0.3,0-0.5-0.1-0.7-0.1l0.8,0.6
		C473.5,346.6,473.6,346.6,473.6,346.6z"/>
	<path class="st1" d="M468.1,338.9c-0.6,1-1,1.8-1.4,2.4c0,0,0,0,0,0l3.5,2.7l-0.5-1.3c-0.1-1,0.2-2.3,0.7-3.6l-1.6-1.2
		C468.5,338.3,468.3,338.6,468.1,338.9z"/>
	<path class="st1" d="M503.4,367.9c-0.7,0.2-1.3,0.3-1.8,0.2l3.2,2.5c0.5-0.5,1.1-1.1,1.9-1.8c0.3-0.3,0.6-0.6,1-1l-1.6-1.2
		c-0.1,0-0.1,0.1-0.2,0.2C505,367.2,504.2,367.7,503.4,367.9z"/>
	<path class="st1" d="M464.8,342.3c-0.6,0-1.3,0.1-2.1,0.3c-0.2,0-0.4,0.1-0.6,0.1l6.4,4.9c0.2-0.1,0.5-0.1,0.7-0.2
		c0.8-0.2,1.5-0.3,2.2-0.5c0.8-0.2,1.5-0.3,2.1-0.4l-0.8-0.6c-1-0.2-1.7-0.6-2.2-1.1l-0.3-0.8l-3.5-2.7c-0.5,0.8-0.7,1.3-0.7,1.3
		C465.8,342.4,465.4,342.3,464.8,342.3z"/>
	<path class="st1" d="M498.2,370.4l6.5,5c-0.1-2-0.4-3.4-0.9-3.8c0,0,0.3-0.3,0.9-0.8c0.1-0.1,0.1-0.1,0.2-0.2l-3.2-2.5
		c-0.3,0-0.7-0.1-1-0.3c-0.7-0.3-1.3-0.9-1.8-1.9l-0.8-0.6c0.1,0.9,0.1,1.9,0.2,3.2C498.2,369.1,498.2,369.8,498.2,370.4z"/>
	<path class="st1" d="M498.4,375.2l6.2,4.7c0-0.8,0.1-1.5,0.1-2.2c0-0.9,0-1.7,0-2.4l-6.5-5C498.3,371.8,498.3,373.5,498.4,375.2z"
		/>
	<path class="st1" d="M457.7,344l6.2,4.8c0.4-0.1,0.8-0.2,1.3-0.3c0.7-0.2,1.4-0.3,2.1-0.5c0.5-0.1,1-0.2,1.4-0.3l-6.4-4.9
		c-1,0.2-2.2,0.6-3.6,1C458.3,343.8,458,343.9,457.7,344z"/>
	<path class="st1" d="M498.5,379.9l5.8,4.4c0-0.2,0-0.5,0.1-0.7c0.1-1.3,0.2-2.5,0.3-3.6l-6.2-4.7c0,0.2,0,0.4,0,0.6
		C498.5,377.1,498.5,378.5,498.5,379.9z"/>
	<path class="st1" d="M453.6,345.4l5.7,4.4c0.6-0.2,1.2-0.3,1.8-0.4c0.7-0.2,1.3-0.3,2-0.5c0.3-0.1,0.5-0.1,0.8-0.2l-6.2-4.8
		c-1.1,0.3-2.2,0.7-3.4,1.2C454.1,345.2,453.8,345.3,453.6,345.4z"/>
	<path class="st1" d="M450.4,346.6c-0.2,0.1-0.4,0.2-0.7,0.3l5.3,4c0.8-0.2,1.6-0.4,2.3-0.6c0.6-0.2,1.3-0.3,1.9-0.5
		c0,0,0.1,0,0.1,0l-5.7-4.4C452.5,345.8,451.5,346.2,450.4,346.6z"/>
	<path class="st1" d="M498.6,384.3l5.3,4.1c0.2-1.4,0.3-2.8,0.4-4.1l-5.8-4.4c0,0.9,0,1.7,0,2.6
		C498.6,383.1,498.6,383.7,498.6,384.3z"/>
	<path class="st1" d="M446.1,348.3l4.8,3.7c1.3-0.4,2.6-0.7,3.8-1c0.1,0,0.2-0.1,0.3-0.1l-5.3-4c-1,0.4-2,0.8-3,1.2
		C446.5,348.1,446.3,348.2,446.1,348.3z"/>
	<path class="st1" d="M503.4,392.3c0.1-1.2,0.3-2.4,0.4-3.5c0-0.1,0-0.3,0-0.4l-5.3-4.1c0,1.4,0,2.8,0,4.3L503.4,392.3z"/>
	<path class="st1" d="M498.6,388.8c0,1.3,0,2.6-0.1,3.9l4.4,3.4c0.1-0.8,0.2-1.6,0.3-2.3c0.1-0.5,0.1-1,0.2-1.4l-4.8-3.7
		C498.6,388.7,498.6,388.7,498.6,388.8z"/>
	<path class="st1" d="M442.5,349.8l4.4,3.4c1-0.3,2.1-0.6,3.1-0.9c0.3-0.1,0.5-0.1,0.8-0.2l-4.8-3.7c-0.9,0.4-1.9,0.8-2.8,1.2
		C443,349.6,442.8,349.7,442.5,349.8z"/>
	<path class="st1" d="M439.2,351.2l4,3.1c0.9-0.3,1.7-0.5,2.6-0.8c0.4-0.1,0.8-0.2,1.2-0.3l-4.4-3.4c-0.9,0.4-1.8,0.7-2.7,1.1
		C439.6,351,439.4,351.1,439.2,351.2z"/>
	<path class="st1" d="M498.4,396.7l4,3.1c0.1-0.4,0.1-0.8,0.2-1.3c0.1-0.8,0.2-1.6,0.3-2.4l-4.4-3.4c0,0.7,0,1.3,0,2
		C498.4,395.3,498.4,396,498.4,396.7z"/>
	<path class="st1" d="M402.7,334.3c0.3-0.8,0.5-1.4,0.8-2c0.2-0.4,0.5-0.8,0.7-1.1c-0.5,0.1-1,0.4-1.4,1c-0.4,0.5-0.7,1.2-1.1,2
		c-0.2,0.6-0.5,1.2-0.7,2c-0.2,0.6-0.4,1.3-0.5,1.9c0,0.1,0,0.1,0,0.2l1.7-2.2C402.4,335.4,402.6,334.8,402.7,334.3z"/>
	<path class="st1" d="M473.2,378.5c-0.8-0.8-1.8-1.4-2.9-2c-0.1,0-0.2-0.1-0.3-0.1c-0.9-1.1-1.9-1.9-2.9-2.6
		c-0.8-0.5-1.7-0.9-2.5-1.2c-0.7-0.3-1.5-0.5-2.3-0.6c-0.5-0.1-1-0.2-1.4-0.2l16.1,12.3C476.1,382,474.9,380.1,473.2,378.5z"/>
	<path class="st1" d="M436.7,352.3c-0.3,0.1-0.5,0.2-0.8,0.3l3.6,2.8c0.7-0.2,1.4-0.5,2.1-0.7c0.5-0.2,1-0.3,1.5-0.5l-4-3.1
		C438.3,351.6,437.5,351.9,436.7,352.3z"/>
	<path class="st1" d="M498.2,400.4l3.6,2.8c0-0.1,0-0.2,0-0.3c0.2-1.1,0.3-2.2,0.5-3.3l-4-3.1c0,1.2-0.1,2.3-0.1,3.5
		C498.2,400.2,498.2,400.3,498.2,400.4z"/>
	<path class="st1" d="M501.3,406.6c0.2-1.1,0.3-2.2,0.5-3.4l-3.6-2.8c-0.1,1.2-0.1,2.4-0.2,3.6L501.3,406.6z"/>
	<path class="st1" d="M399.7,341.8c-0.1,0.6-0.2,1.2-0.3,1.9c-0.1,0.6-0.2,1.2-0.3,1.8c0,0.3-0.1,0.6-0.1,0.9l1.5-2
		c0-0.2,0.1-0.4,0.1-0.6c0.1-0.6,0.2-1.2,0.3-1.9c0.1-0.6,0.2-1.3,0.4-1.9c0.1-0.7,0.3-1.3,0.4-1.9c0.2-0.7,0.3-1.3,0.5-1.9
		c0-0.1,0-0.2,0.1-0.3l-1.7,2.2c-0.1,0.6-0.3,1.1-0.4,1.7C400,340.6,399.8,341.2,399.7,341.8z"/>
	<path class="st1" d="M432.8,354l3.4,2.6c0.6-0.2,1.1-0.4,1.7-0.6c0.6-0.2,1.1-0.4,1.7-0.6l-3.6-2.8c-0.8,0.3-1.6,0.7-2.4,1
		C433.3,353.8,433,353.9,432.8,354z"/>
	<path class="st1" d="M458.2,371.6c-0.6,0-1.2,0-1.9,0.1c-0.2,0-0.4,0-0.6,0.1l22.5,17.2c-0.3-1.6-0.7-3.3-1.4-4.8l-16.1-12.3
		c-0.2,0-0.4-0.1-0.6-0.1C459.5,371.6,458.9,371.6,458.2,371.6z"/>
	<path class="st1" d="M530.7,428.2c-0.1,0.2-0.3,0.4-0.5,0.6l0.3,0.2C530.7,428.8,530.7,428.5,530.7,428.2z"/>
	<path class="st1" d="M527.9,430.7l0.8,0.6c0.3-0.2,0.5-0.4,0.7-0.6c0.6-0.6,1-1.1,1.2-1.6l-0.3-0.2c-0.3,0.3-0.7,0.7-1.2,1.1
		C528.7,430.1,528.3,430.4,527.9,430.7z"/>
	<path class="st1" d="M429.7,355.3l3.1,2.4c0.5-0.2,0.9-0.4,1.4-0.5c0.6-0.2,1.2-0.4,1.8-0.6l-3.4-2.6c-0.8,0.3-1.5,0.7-2.3,1
		C430.2,355.1,430,355.2,429.7,355.3z"/>
	<path class="st1" d="M452.9,372.1c-0.4,0.1-0.8,0.1-1.1,0.2l27,20.7c0-0.4-0.1-0.8-0.1-1.3c-0.1-0.9-0.2-1.8-0.4-2.8l-22.5-17.2
		c-0.4,0-0.8,0.1-1.2,0.1C454,371.9,453.5,372,452.9,372.1z"/>
	<path class="st1" d="M398.8,347.3c-0.1,0.6-0.2,1.2-0.2,1.8c-0.1,0.6-0.1,1.1-0.2,1.7c-0.1,0.6-0.1,1.1-0.2,1.7
		c0,0.4-0.1,0.7-0.1,1.1l1.5-1.9c0-0.3,0.1-0.5,0.1-0.8c0.1-0.6,0.1-1.1,0.2-1.7c0.1-0.6,0.1-1.2,0.2-1.8c0.1-0.6,0.2-1.2,0.2-1.8
		c0.1-0.4,0.1-0.8,0.2-1.2l-1.5,2C398.9,346.7,398.9,347,398.8,347.3z"/>
	<path class="st1" d="M497.7,407.5l3.1,2.4c0.1-0.8,0.3-1.7,0.4-2.6c0-0.2,0.1-0.5,0.1-0.7L498,404c0,0.4-0.1,0.8-0.1,1.1
		C497.8,406,497.8,406.7,497.7,407.5z"/>
	<path class="st1" d="M397.9,355.7c-0.1,0.5-0.1,1.1-0.1,1.6c0,0.5-0.1,1-0.1,1.6c0,0.4-0.1,0.9-0.1,1.3l1.4-1.8
		c0-0.3,0-0.6,0.1-0.9c0-0.5,0.1-1.1,0.1-1.6c0.1-0.5,0.1-1.1,0.2-1.6c0.1-0.6,0.1-1.1,0.2-1.7c0-0.3,0.1-0.6,0.1-0.9l-1.5,1.9
		c0,0.2,0,0.4-0.1,0.5C398,354.7,397.9,355.2,397.9,355.7z"/>
	<path class="st1" d="M497.3,410.8l3,2.3c0.1-0.5,0.2-1,0.2-1.5c0.1-0.5,0.2-1.1,0.3-1.7l-3.1-2.4c-0.1,0.8-0.2,1.6-0.3,2.3
		C497.4,410.2,497.3,410.5,497.3,410.8z"/>
	<path class="st1" d="M525.3,432.2l0.9,0.7c0.4-0.2,0.7-0.4,1.1-0.7c0.5-0.3,1-0.7,1.4-1l-0.8-0.6c-0.3,0.2-0.7,0.4-1,0.7
		C526.4,431.6,525.8,431.9,525.3,432.2z"/>
	<path class="st1" d="M426.8,356.7l3,2.3c0.4-0.2,0.8-0.3,1.2-0.5c0.6-0.2,1.2-0.5,1.9-0.7l-3.1-2.4c-0.7,0.3-1.5,0.7-2.2,1
		C427.3,356.4,427.1,356.6,426.8,356.7z"/>
	<path class="st1" d="M449.7,372.8c-0.5,0.1-1,0.3-1.4,0.4l30.5,23.4c0-0.9,0-2.2,0-3.6l-27-20.7c-0.2,0-0.3,0.1-0.5,0.1
		C450.7,372.5,450.2,372.6,449.7,372.8z"/>
	<path class="st1" d="M424,358l2.9,2.2c0.4-0.2,0.7-0.3,1.1-0.5c0.6-0.3,1.2-0.5,1.8-0.7l-3-2.3c-0.7,0.3-1.4,0.7-2.1,1
		C424.5,357.7,424.2,357.8,424,358z"/>
	<path class="st1" d="M524.6,432.6c-0.7,0.3-1.3,0.7-2.1,1l1,0.8c0.5-0.3,1-0.5,1.5-0.8c0.4-0.2,0.8-0.4,1.1-0.7l-0.9-0.7
		C525.1,432.4,524.9,432.5,524.6,432.6z"/>
	<path class="st1" d="M397.4,361.9c0,0.5-0.1,1-0.1,1.5c0,0.5-0.1,1-0.1,1.4c0,0.5-0.1,1-0.1,1.4c0,0.1,0,0.1,0,0.2l1.3-1.8
		c0-0.4,0-0.7,0.1-1.1c0-0.5,0.1-1,0.1-1.5c0-0.5,0.1-1,0.1-1.5c0-0.5,0.1-1,0.1-1.5c0-0.2,0-0.5,0.1-0.7l-1.4,1.8
		c0,0.1,0,0.2,0,0.2C397.4,360.9,397.4,361.4,397.4,361.9z"/>
	<path class="st1" d="M446.7,373.7c-0.1,0.1-0.2,0.1-0.2,0.1c-0.4,0.1-0.8,0.2-1.2,0.3c-0.1,0-0.1,0.1-0.2,0.1l33.6,25.8
		c0-0.5,0.1-1,0-1.5c0,0,0.1-0.5,0.1-1.4c0-0.2,0-0.3,0-0.5l-30.5-23.4c0,0-0.1,0-0.1,0C447.5,373.4,447,373.6,446.7,373.7z"/>
	<path class="st1" d="M499.8,416.1c0-0.1,0-0.3,0.1-0.4c0.1-0.8,0.3-1.7,0.4-2.6l-3-2.3c-0.1,1.1-0.3,2.1-0.4,3.1L499.8,416.1z"/>
	<path class="st1" d="M442.7,375.4c-0.1,0-0.1,0.1-0.2,0.1l35.6,27.3c0.2-0.5,0.3-1,0.4-1.5c0.1-0.5,0.2-0.9,0.2-1.4l-33.6-25.8
		c-0.4,0.1-0.8,0.3-1.2,0.5C443.5,374.9,443.1,375.1,442.7,375.4z"/>
	<path class="st1" d="M421.2,359.2l2.9,2.2c0.3-0.2,0.7-0.3,1-0.5c0.5-0.3,1.1-0.5,1.7-0.8L424,358c-0.7,0.3-1.4,0.7-2.1,0.9
		C421.7,359,421.5,359.1,421.2,359.2z"/>
	<path class="st1" d="M496.4,416.9l2.9,2.2c0.2-0.9,0.3-1.9,0.5-3l-2.9-2.2c0,0.1,0,0.1,0,0.2C496.7,415,496.5,416,496.4,416.9z"/>
	<path class="st1" d="M396.9,369c0,0.5,0,0.9-0.1,1.3c0,0.5,0,0.9-0.1,1.3c0,0.2,0,0.4,0,0.7l1.3-1.7c0,0,0-0.1,0-0.1
		c0-0.4,0-0.9,0.1-1.3c0-0.4,0.1-0.9,0.1-1.4c0-0.4,0.1-0.9,0.1-1.4c0-0.5,0.1-0.9,0.1-1.4c0-0.1,0-0.2,0-0.3l-1.3,1.8
		c0,0.4,0,0.8-0.1,1.2C397,368.1,396.9,368.6,396.9,369z"/>
	<path class="st1" d="M520.2,434.8c-0.1,0-0.2,0.1-0.3,0.1l1.1,0.8c0.7-0.3,1.3-0.6,1.9-0.9c0.3-0.1,0.5-0.3,0.7-0.4l-1-0.8
		c-0.1,0-0.1,0.1-0.2,0.1C521.7,434.1,521,434.4,520.2,434.8z"/>
	<path class="st1" d="M517.2,436.1l1.1,0.9c0.1,0,0.1-0.1,0.2-0.1c0.7-0.3,1.5-0.7,2.2-1c0.1,0,0.2-0.1,0.3-0.1l-1.1-0.8
		c-0.6,0.3-1.2,0.5-1.9,0.8C517.7,435.8,517.4,436,517.2,436.1z"/>
	<path class="st1" d="M440.3,377C440.3,377,440.3,377.1,440.3,377l36.8,28.3c0.2-0.4,0.3-0.8,0.5-1.2c0.2-0.5,0.3-0.9,0.5-1.3
		l-35.6-27.3c-0.3,0.2-0.7,0.4-1,0.7C441.1,376.4,440.7,376.7,440.3,377z"/>
	<path class="st1" d="M496.1,417.9c-0.1,0.6-0.3,1.2-0.4,1.7l3,2.3c0.1-0.6,0.2-1.3,0.4-2.3c0-0.2,0.1-0.4,0.1-0.6l-2.9-2.2
		C496.3,417.2,496.2,417.6,496.1,417.9z"/>
	<path class="st1" d="M396.7,374.2c0,0.5,0,0.9,0,1.2c0,0.6,0,1,0,1.2c0,0.1,0,0.2,0,0.2c-0.4-0.1-1,0.2-1.6,0.8
		c-0.3,0.3-0.6,0.6-1,1c-0.3,0.3-0.5,0.7-0.8,1c-0.2,0.3-0.5,0.7-0.7,1c-0.2,0.3-0.4,0.7-0.7,1c-0.2,0.3-0.4,0.7-0.6,1
		c-0.2,0.3-0.4,0.6-0.6,1c-0.2,0.3-0.4,0.6-0.6,1c-0.2,0.3-0.4,0.6-0.5,0.9c-0.2,0.3-0.3,0.6-0.5,0.9c-0.2,0.3-0.3,0.6-0.5,0.9
		c-0.2,0.3-0.3,0.6-0.5,0.9c-0.2,0.3-0.3,0.6-0.5,0.9c-0.2,0.3-0.3,0.6-0.5,0.9c-0.1,0.2-0.2,0.4-0.3,0.6l11.9-15.5l-0.8,0
		c0,0,0-0.3,0-0.8c0-0.3,0-0.7,0.1-1.3c0-0.4,0-0.8,0.1-1.3c0-0.4,0-0.8,0.1-1.2l-1.3,1.7c0,0.2,0,0.4,0,0.6
		C396.7,373.4,396.7,373.8,396.7,374.2z"/>
	<path class="st1" d="M418.6,360.5l3,2.3c0.3-0.2,0.7-0.4,1.1-0.6c0.5-0.3,1-0.5,1.5-0.7l-2.9-2.2c-0.8,0.4-1.5,0.7-2,0.9
		C419,360.3,418.8,360.4,418.6,360.5z"/>
	<path class="st1" d="M495,422.3l2.7,2c0.3-0.3,0.5-0.6,0.7-1c0.1-0.1,0.1-0.2,0.2-0.3c0,0,0.1-0.4,0.2-1.1l-3-2.3
		c-0.1,0.6-0.3,1.2-0.4,1.7C495.2,421.7,495.1,422,495,422.3z"/>
	<path class="st1" d="M514.5,437.2l1.1,0.9c0.2-0.1,0.5-0.2,0.7-0.3c0.7-0.3,1.3-0.6,2-0.8l-1.1-0.9c-0.4,0.2-0.9,0.4-1.3,0.6
		C515.4,436.8,514.9,437,514.5,437.2z"/>
	<path class="st1" d="M386.2,391.7c-0.1,0.3-0.3,0.5-0.4,0.8c-0.1,0.3-0.3,0.5-0.4,0.8c-0.1,0.3-0.3,0.5-0.4,0.8
		c-0.1,0.3-0.3,0.5-0.4,0.8c-0.1,0.2-0.2,0.5-0.4,0.7c-0.1,0.2-0.2,0.5-0.4,0.7c-0.1,0.2-0.2,0.5-0.4,0.7c-0.1,0.2-0.2,0.5-0.3,0.7
		c-0.1,0.2-0.2,0.5-0.3,0.7c-0.1,0.2-0.2,0.5-0.3,0.7c-0.1,0.2-0.2,0.4-0.3,0.7c-0.1,0.2-0.2,0.4-0.3,0.6c-0.1,0.2-0.2,0.4-0.3,0.6
		c-0.1,0.2-0.2,0.4-0.3,0.6c-0.1,0.2-0.2,0.4-0.3,0.6c-0.1,0.2-0.2,0.4-0.3,0.6c-0.1,0.2-0.2,0.4-0.3,0.6c-0.1,0.2-0.2,0.4-0.3,0.6
		c-0.1,0.2-0.2,0.4-0.3,0.6c0,0.1-0.1,0.1-0.1,0.2l20.6-26.8l0.5-0.8l0.7-1.1l0.4-0.7l-3.4-0.1l-11.9,15.5c0,0.1-0.1,0.1-0.1,0.2
		C386.5,391.2,386.3,391.4,386.2,391.7z"/>
	<path class="st1" d="M438.3,378.7l37.7,29c0.2-0.4,0.4-0.8,0.6-1.1c0.2-0.4,0.4-0.8,0.5-1.2l-36.8-28.3c-0.3,0.3-0.7,0.6-1.1,0.9
		C438.9,378.2,438.6,378.4,438.3,378.7z"/>
	<path class="st1" d="M417.1,361.5c-0.2,0.2-0.3,0.4-0.5,0.6l2.7,2c0.4-0.2,0.7-0.4,1.1-0.7c0.4-0.2,0.8-0.5,1.2-0.7l-3-2.3
		c-0.6,0.3-1,0.5-1,0.5C417.4,361.1,417.2,361.3,417.1,361.5z"/>
	<path class="st1" d="M358.9,431.2L358.9,431.2C358.9,431.2,358.9,431.2,358.9,431.2L358.9,431.2z"/>
	<path class="st1" d="M511.8,438.2l1.1,0.9c0.4-0.2,0.8-0.3,1.2-0.5c0.5-0.2,1-0.4,1.4-0.6l-1.1-0.9c-0.3,0.1-0.5,0.2-0.8,0.3
		C513.1,437.8,512.5,438,511.8,438.2z"/>
	<path class="st1" d="M416.1,362.9c-0.2,0.4-0.4,0.9-0.6,1.4c-0.1,0.2-0.1,0.5-0.2,0.8c0.7,0,1.3,0.1,1.9,0.6l2.2,1.7
		c-0.1-0.4-0.3-0.7-0.4-1c-0.3-0.8-0.5-1.3-0.5-1.6c0-0.1,0-0.1,0-0.1c0.3-0.2,0.5-0.3,0.8-0.5l-2.7-2
		C416.4,362.3,416.3,362.6,416.1,362.9z"/>
	<path class="st1" d="M493.8,423.1c-0.5,0-1.1-0.1-1.9-0.1l3.8,2.9c0.4-0.2,0.8-0.5,1.1-0.8c0.3-0.3,0.6-0.5,0.8-0.8l-2.7-2
		c-0.1,0.3-0.2,0.6-0.3,0.9C494.8,423.2,494.4,423.1,493.8,423.1z"/>
	<path class="st1" d="M438.1,378.8c-0.3,0.3-0.7,0.6-1,0.9c-0.2,0.2-0.4,0.4-0.6,0.6l38.4,29.4c0.2-0.4,0.5-0.8,0.7-1.2
		c0.2-0.3,0.3-0.7,0.5-1l-37.7-29C438.2,378.8,438.2,378.8,438.1,378.8z"/>
	<path class="st1" d="M379.4,405.7c-0.1,0.2-0.2,0.4-0.2,0.5c-0.1,0.3-0.2,0.5-0.4,0.8c-0.4,0.9-0.7,1.6-1,2.1c-0.3,0.6-0.4,1-0.4,1
		s-0.4,0.5-0.7,1.4c-0.1,0.3-0.2,0.7-0.2,1.2c0,0.3,0,0.5,0,0.8c0,0.2,0,0.4,0.1,0.6l11-14.3l0-0.1l0.4-0.7l0.4-0.7l0.4-0.7l0.4-0.7
		l0.4-0.7l0.4-0.7l0.4-0.8l0.5-0.8l0.5-0.8l0.5-0.8l0.5-0.8l0.5-0.8l0.5-0.8l0.5-0.9l0.5-0.9l0.5-0.9l0.5-0.9l0.6-0.9l0.6-1l0.6-1
		l0.6-1l0.6-1l0.6-1l0.6-1.1l0.6-1.1l0.2-0.3l-20.6,26.8c-0.1,0.1-0.1,0.3-0.2,0.4C379.6,405.4,379.5,405.6,379.4,405.7z"/>
	<path class="st1" d="M376.7,414.8c0.1,0.2,0.1,0.3,0.2,0.5c0.1,0.2,0.1,0.3,0.2,0.5c0.1,0.1,0.2,0.3,0.2,0.4
		c0.1,0.1,0.2,0.3,0.3,0.4c0.1,0.1,0.2,0.2,0.3,0.4c0,0,0.1,0.1,0.1,0.1l1.6-2.1c0,0-0.1,0-0.1,0c-0.2-0.1-0.3-0.1-0.4-0.1
		c-0.2-0.1-0.3-0.1-0.3-0.1l0.5-0.8l1.6-2.8l0.3-0.4l0.3-0.4l0.3-0.5l0.3-0.5l0.3-0.5l0.3-0.5l0.3-0.5l0.3-0.5l0.3-0.5l0.3-0.5
		l0.3-0.5l0.3-0.5l0.3-0.6l0.3-0.6l0.3-0.6l0.3-0.6l0.4-0.6l0.4-0.6l0.4-0.6l0.4-0.6l0.3-0.6l-11,14.3c0,0,0,0.1,0,0.1
		C376.6,414.4,376.7,414.6,376.7,414.8z"/>
	<polygon class="st1" points="347.2,453.8 335.2,469 341.4,464.8 350.9,452.4 	"/>
	<path class="st1" d="M435.2,381.7c-0.1,0.1-0.2,0.3-0.4,0.4l38.8,29.8c0.3-0.4,0.5-0.8,0.8-1.3c0.2-0.3,0.3-0.5,0.4-0.8l-38.4-29.4
		c-0.1,0.1-0.2,0.2-0.4,0.3C435.8,381.1,435.5,381.4,435.2,381.7z"/>
	<path class="st1" d="M489.4,422.8c-0.6,0-1.1-0.1-1.7-0.1l5.7,4.4c0.6-0.2,1.2-0.5,1.8-0.8c0.2-0.1,0.4-0.2,0.6-0.4l-3.8-2.9
		c-0.1,0-0.2,0-0.3,0C490.9,422.9,490.2,422.8,489.4,422.8z"/>
	<path class="st1" d="M509.5,439.1c-0.1,0-0.2,0.1-0.3,0.1l1.2,0.9c0.6-0.2,1.1-0.4,1.7-0.6c0.3-0.1,0.6-0.2,0.9-0.4l-1.1-0.9
		c-0.1,0-0.2,0.1-0.2,0.1C510.9,438.6,510.2,438.9,509.5,439.1z"/>
	<path class="st1" d="M415.1,367.2c0,0.5-0.1,0.9-0.1,1.4c0,0.2,0,0.4,0,0.5c0.9-0.6,2.2-0.6,3.1,0.1l2.7,2.1
		c-0.1-0.2-0.1-0.4-0.2-0.6c-0.2-0.5-0.3-1-0.5-1.5c-0.2-0.5-0.4-1-0.5-1.5c-0.1-0.2-0.1-0.3-0.2-0.5l-2.2-1.7
		c-0.6-0.4-1.2-0.6-1.9-0.6c0,0.2-0.1,0.4-0.1,0.7C415.2,366.2,415.1,366.7,415.1,367.2z"/>
	<path class="st1" d="M485.2,422.5c-0.5,0-1.1-0.1-1.6-0.1l7.1,5.4c0.3-0.1,0.5-0.1,0.8-0.2c0.7-0.2,1.3-0.4,1.9-0.6c0,0,0,0,0.1,0
		l-5.7-4.4c-0.1,0-0.3,0-0.4,0C486.6,422.6,485.9,422.5,485.2,422.5z"/>
	<path class="st1" d="M433.3,383.6c0,0-0.1,0.1-0.1,0.1l39.2,30.1c0.3-0.5,0.6-0.9,0.9-1.4c0.1-0.2,0.2-0.4,0.4-0.6l-38.8-29.8
		c-0.2,0.2-0.4,0.4-0.6,0.6C433.9,383,433.6,383.3,433.3,383.6z"/>
	<path class="st1" d="M415,369.2c0,0.3,0,0.6,0,0.9c0,0.5,0,0.9,0.1,1.4c0,0.4,0.1,0.9,0.1,1.4c0,0.2,0,0.3,0.1,0.5
		c0.9-1.1,2.5-1.3,3.7-0.5l3.2,2.4c0-0.1-0.1-0.2-0.1-0.2c-0.2-0.5-0.3-0.9-0.5-1.4c-0.2-0.5-0.3-0.9-0.5-1.4
		c-0.1-0.3-0.2-0.6-0.3-0.9l-2.7-2.1C417.2,368.6,415.9,368.6,415,369.2z"/>
	<path class="st1" d="M506.7,440.2l1.2,0.9c0,0,0.1,0,0.1,0c0.7-0.2,1.4-0.5,2-0.8c0.1-0.1,0.3-0.1,0.4-0.2l-1.2-0.9
		c-0.6,0.2-1.2,0.4-1.7,0.6C507.3,440,507,440.1,506.7,440.2z"/>
	<polygon class="st1" points="355.9,450.6 350.9,452.4 341.4,464.8 349,459.7 	"/>
	<path class="st1" d="M378.5,417.7c0.1,0.1,0.2,0.2,0.3,0.3c0.1,0.1,0.2,0.2,0.3,0.3c0.1,0.1,0.2,0.2,0.3,0.3
		c0.1,0.1,0.2,0.2,0.3,0.3c0.1,0.1,0.2,0.2,0.3,0.2c0,0,0.1,0.1,0.1,0.1l2.5-3.2c-0.1,0-0.1,0-0.2-0.1c-0.1,0-0.3-0.1-0.4-0.1
		c-0.1,0-0.3-0.1-0.4-0.1c-0.1,0-0.3-0.1-0.4-0.1c-0.1,0-0.3-0.1-0.4-0.1c-0.1,0-0.3-0.1-0.4-0.1c-0.2-0.1-0.3-0.1-0.4-0.1
		c-0.1,0-0.2-0.1-0.3-0.1l-1.6,2.1c0.1,0.1,0.1,0.2,0.2,0.3C378.3,417.5,378.4,417.6,378.5,417.7z"/>
	<path class="st1" d="M504.2,441.1l1.2,0.9c0.2-0.1,0.4-0.1,0.6-0.2c0.6-0.2,1.3-0.5,1.9-0.7l-1.2-0.9c-0.4,0.1-0.8,0.3-1.2,0.4
		C505.1,440.8,504.7,440.9,504.2,441.1z"/>
	<path class="st1" d="M481.1,422.3c-0.5,0-1,0-1.5-0.1l8,6.2c0.6-0.1,1.2-0.2,1.8-0.3c0.4-0.1,0.8-0.2,1.1-0.2l-7.1-5.4
		c-0.2,0-0.3,0-0.4,0C482.5,422.3,481.8,422.3,481.1,422.3z"/>
	<path class="st1" d="M380.5,419.5c0.1,0.1,0.2,0.1,0.3,0.2c0.1,0.1,0.2,0.1,0.3,0.2c0.1,0.1,0.2,0.1,0.3,0.2
		c0.1,0.1,0.2,0.1,0.3,0.2c0.1,0.1,0.2,0.1,0.3,0.2c0.1,0.1,0.2,0.1,0.3,0.2c0,0,0.1,0.1,0.1,0.1l3-3.9c-0.4-0.1-0.7-0.2-1.1-0.3
		c-0.5-0.2-1-0.3-1.5-0.5c-0.1,0-0.1,0-0.2-0.1l-2.5,3.2c0.1,0,0.1,0.1,0.2,0.1C380.3,419.4,380.4,419.4,380.5,419.5z"/>
	<polygon class="st1" points="360.8,448.8 355.9,450.6 349,459.7 356.3,454.7 	"/>
	<path class="st1" d="M415.6,375.4c0.1,0.4,0.1,0.9,0.2,1.3c0,0.1,0,0.2,0.1,0.3l0.3-0.4c0.9-1.1,2.5-1.3,3.6-0.5l3.6,2.7
		c-0.1-0.4-0.3-0.9-0.4-1.3c-0.1-0.4-0.3-0.9-0.4-1.3c-0.1-0.4-0.2-0.7-0.4-1.1l-3.2-2.4c-1.1-0.9-2.8-0.7-3.7,0.5
		c0,0.3,0.1,0.6,0.1,0.8C415.4,374.5,415.5,375,415.6,375.4z"/>
	<path class="st1" d="M431.7,385.4l39.5,30.3c0.3-0.5,0.6-1,1-1.5c0.1-0.1,0.2-0.3,0.3-0.4l-39.2-30.1c-0.3,0.3-0.5,0.6-0.8,0.9
		C432.2,384.9,432,385.1,431.7,385.4z"/>
	<path class="st1" d="M382.5,420.8c0.1,0.1,0.2,0.1,0.3,0.2c0.1,0.1,0.2,0.1,0.3,0.2c0.1,0,0.2,0.1,0.3,0.1c0.1,0,0.2,0.1,0.3,0.1
		c0.1,0,0.2,0.1,0.3,0.1c0.1,0,0.2,0.1,0.3,0.1c0.1,0,0.2,0.1,0.3,0.1c0.1,0,0.2,0.1,0.2,0.1c0.1,0,0.1,0.1,0.2,0.1l3.3-4.3
		c-0.6-0.2-1.3-0.4-1.9-0.6c-0.3-0.1-0.6-0.2-0.9-0.3l-3,3.9C382.4,420.7,382.5,420.8,382.5,420.8z"/>
	<path class="st1" d="M416.3,379.2c0.1,0.4,0.2,0.8,0.3,1.2c0,0,0,0,0,0.1l0.4-0.6c0.8-1.1,2.4-1.3,3.5-0.5l3.9,3
		c-0.1-0.3-0.2-0.7-0.3-1c-0.1-0.4-0.3-0.8-0.4-1.2c-0.1-0.4-0.3-0.8-0.4-1.3c0,0,0,0,0,0l-3.6-2.7c-1.1-0.9-2.7-0.6-3.6,0.5
		l-0.3,0.4c0.1,0.3,0.1,0.6,0.2,0.9C416.1,378.4,416.2,378.8,416.3,379.2z"/>
	<path class="st1" d="M501.8,441.9l1.2,0.9c0.3-0.1,0.7-0.2,1-0.4c0.5-0.2,0.9-0.3,1.4-0.5l-1.2-0.9c-0.2,0.1-0.5,0.2-0.7,0.2
		C503,441.5,502.4,441.7,501.8,441.9z"/>
	<polygon class="st1" points="365.5,447.1 360.8,448.8 356.3,454.7 363.4,449.9 	"/>
	<path class="st1" d="M477.3,422.1c-0.4,0-0.9,0-1.3,0l8.7,6.7c0.4,0,0.7-0.1,1.1-0.1c0.6-0.1,1.3-0.1,1.9-0.2c0,0,0.1,0,0.1,0
		l-8-6.2c-0.2,0-0.3,0-0.5,0C478.6,422.2,477.9,422.1,477.3,422.1z"/>
	<path class="st1" d="M430.8,386.5c-0.1,0.2-0.3,0.3-0.4,0.5l39.7,30.5c0.4-0.5,0.7-1,1.1-1.6c0-0.1,0.1-0.1,0.1-0.2l-39.5-30.3
		c0,0.1-0.1,0.1-0.1,0.2C431.3,385.9,431.1,386.2,430.8,386.5z"/>
	<path class="st1" d="M417.2,382.9c0.1,0.3,0.2,0.6,0.2,0.9l0.5-0.6c0.8-1,2.3-1.2,3.4-0.4l4.1,3.1c-0.1-0.3-0.1-0.5-0.2-0.8
		c-0.1-0.4-0.2-0.8-0.3-1.2c-0.1-0.4-0.2-0.8-0.4-1.2c0-0.1,0-0.1-0.1-0.2l-3.9-3c-1.1-0.8-2.6-0.6-3.5,0.5l-0.4,0.6
		c0.1,0.4,0.2,0.8,0.3,1.1C417,382.1,417.1,382.5,417.2,382.9z"/>
	<path class="st1" d="M499.7,442.6c-0.1,0-0.2,0.1-0.3,0.1l1.2,0.9c0.5-0.2,1-0.3,1.5-0.5c0.3-0.1,0.6-0.2,0.9-0.3l-1.2-0.9
		c-0.1,0-0.1,0-0.2,0.1C501,442.2,500.4,442.4,499.7,442.6z"/>
	<path class="st1" d="M385.1,422.1c0.1,0,0.1,0.1,0.2,0.1l0,0l0.4,0.2l0.9,0.4l0.7,0.3l3.5-4.6c-0.1,0-0.2-0.1-0.3-0.1
		c-0.7-0.2-1.4-0.4-2.2-0.6c-0.1,0-0.1,0-0.2-0.1l-3.3,4.3c0,0,0,0,0,0C384.9,422.1,385,422.1,385.1,422.1z"/>
	<path class="st1" d="M369.9,445.7l0.1-0.2c-0.1,0-0.1,0-0.2,0c-0.3,0-0.5,0-0.5,0s0.1,0,0.3,0.1l-4.1,1.5l-2.1,2.8l6.3-4.3
		C369.7,445.7,369.8,445.7,369.9,445.7z"/>
	<path class="st1" d="M473.6,422c-0.4,0-0.8,0-1.1,0l9,6.9c0.2,0,0.3,0,0.5,0c0.6,0,1.2-0.1,1.9-0.1c0.3,0,0.5,0,0.8-0.1l-8.7-6.7
		c-0.2,0-0.4,0-0.5,0C474.8,422,474.2,422,473.6,422z"/>
	<path class="st1" d="M429.2,388.4c-0.1,0.1-0.1,0.2-0.2,0.2l39.8,30.6c0,0,0.1-0.1,0.1-0.1c0.4-0.5,0.7-1,1.1-1.6c0,0,0,0,0-0.1
		L430.3,387c-0.1,0.1-0.2,0.3-0.4,0.4C429.7,387.8,429.4,388.1,429.2,388.4z"/>
	<path class="st1" d="M470.1,422c-0.3,0-0.6,0-0.9,0l9,6.9c0,0,0,0,0.1,0c0.6,0,1.2,0,1.8,0c0.4,0,0.9,0,1.3,0l-9-6.9
		c-0.2,0-0.4,0-0.6,0C471.2,422,470.7,422,470.1,422z"/>
	<path class="st1" d="M427.7,390.2l40,30.7c0.1-0.1,0.1-0.2,0.2-0.3c0.3-0.5,0.7-0.9,1-1.4L429,388.6c-0.2,0.2-0.4,0.5-0.6,0.7
		C428.2,389.6,427.9,389.9,427.7,390.2z"/>
	<path class="st1" d="M388.4,423.5l0.8,0.3l0.5,0.2l3.7-4.9c-0.2-0.1-0.4-0.1-0.7-0.2c-0.7-0.2-1.3-0.4-2-0.6l-3.5,4.6l0.2,0.1
		L388.4,423.5z"/>
	<path class="st1" d="M497.2,443.5l1.2,0.9c0,0,0,0,0,0c0.6-0.2,1.2-0.4,1.9-0.6c0.1,0,0.3-0.1,0.4-0.1l-1.2-0.9
		c-0.5,0.2-1.1,0.4-1.6,0.5C497.6,443.3,497.4,443.4,497.2,443.5z"/>
	<path class="st1" d="M369.9,445.7c0.2,0.1,0.4,0.1,0.6,0.2c0.2,0.1,0.4,0.1,0.6,0.2c0.2,0.1,0.4,0.1,0.6,0.2
		c0.2,0.1,0.4,0.1,0.6,0.2c0.1,0,0.1,0,0.2,0.1l0.8-1c-0.2,0-0.3,0-0.4,0c-0.2,0-0.3,0-0.5,0c-0.2,0-0.3,0-0.5,0c-0.2,0-0.3,0-0.5,0
		c-0.2,0-0.3,0-0.5,0c-0.2,0-0.3,0-0.5,0c-0.1,0-0.2,0-0.3,0L369.9,445.7C369.9,445.7,369.9,445.7,369.9,445.7z"/>
	<path class="st1" d="M494.9,444.3l1.2,0.9c0.2-0.1,0.3-0.1,0.5-0.2c0.6-0.2,1.2-0.4,1.8-0.6l-1.2-0.9c-0.4,0.1-0.7,0.2-1.1,0.4
		C495.7,444,495.3,444.1,494.9,444.3z"/>
	<path class="st1" d="M390.8,424.5l0.8,0.3l0.5,0.2l4-5.2c-0.2-0.1-0.5-0.1-0.7-0.2c-0.6-0.2-1.3-0.3-1.9-0.5l-3.7,4.9l0.3,0.1
		L390.8,424.5z"/>
	<path class="st1" d="M418.8,388.5c0.1,0.4,0.2,0.7,0.3,1.1c0,0.1,0,0.1,0.1,0.2l0.3-0.4c0.8-1,2.2-1.2,3.2-0.4L475,429
		c0.5,0,1,0,1.5,0c0.6,0,1.2,0,1.7,0l-9-6.9c-0.3,0-0.5,0-0.8,0.1c-0.7,0.1-1.2,0.1-1.6,0.2l-0.1-0.3c0.3-0.4,0.6-0.8,0.9-1.2
		l-40-30.7c0,0,0,0,0,0.1c-0.2,0.3-0.5,0.6-0.7,0.9l-0.7-1.6c0-0.2-0.1-0.4-0.1-0.6l-4.2-3.2c-1-0.8-2.5-0.6-3.2,0.4l-0.4,0.6
		c0.1,0.2,0.1,0.4,0.2,0.6C418.6,387.7,418.7,388.1,418.8,388.5z"/>
	<path class="st1" d="M373.3,446.9c0.2,0.1,0.3,0.1,0.5,0.2c0.2,0.1,0.3,0.1,0.5,0.2c0.2,0.1,0.3,0.1,0.5,0.2l1.4-1.8
		c0,0-0.1,0-0.1,0c-0.1,0-0.3,0-0.4,0c-0.1,0-0.3,0-0.4,0c-0.1,0-0.3,0-0.4,0c-0.1,0-0.3,0-0.4,0c-0.1,0-0.3,0-0.4,0
		c-0.1,0-0.3,0-0.4,0c-0.1,0-0.3,0-0.4,0c0,0,0,0,0,0l-0.8,1c0.1,0,0.2,0.1,0.3,0.1C372.9,446.8,373.1,446.9,373.3,446.9z"/>
	<path class="st1" d="M393.2,425.5l0.7,0.3l0.5,0.2l4.2-5.5c-0.8-0.2-1.7-0.4-2.6-0.6l-4,5.2l0.3,0.1L393.2,425.5z"/>
	<polygon class="st1" points="488.7,441.8 488.6,441.9 488.7,441.9 	"/>
	<path class="st1" d="M494.3,444.5c-0.6,0.2-1.1,0.4-1.6,0.5l1.2,0.9c0.3-0.1,0.6-0.2,0.9-0.3c0.4-0.1,0.9-0.3,1.3-0.4l-1.2-0.9
		C494.7,444.3,494.5,444.4,494.3,444.5z"/>
	<path class="st1" d="M375.4,447.7c0.2,0.1,0.3,0.1,0.5,0.2c0.2,0.1,0.3,0.1,0.5,0.2c0.2,0.1,0.3,0.1,0.5,0.2c0.1,0,0.2,0.1,0.3,0.1
		l2-2.6c0,0-0.1,0-0.1,0c-0.1,0-0.2,0-0.3,0c-0.1,0-0.2,0-0.3,0c-0.1,0-0.2,0-0.4,0c-0.1,0-0.2,0-0.4,0c-0.1,0-0.2,0-0.4,0
		c-0.1,0-0.2,0-0.4,0c-0.1,0-0.3,0-0.4,0c-0.1,0-0.2,0-0.3,0l-1.4,1.8c0,0,0,0,0,0C375,447.6,375.2,447.7,375.4,447.7z"/>
	<path class="st1" d="M419.8,391.6c0.1,0.3,0.2,0.6,0.3,0.9l0.2-0.3c0.7-1,2.1-1.1,3.1-0.4l48.3,37.1c0.4,0,0.8,0,1.3,0.1
		c0.6,0,1.2,0,1.8,0.1c0.1,0,0.2,0,0.3,0l-52.3-40.1c-1-0.8-2.4-0.6-3.2,0.4l-0.3,0.4c0.1,0.3,0.2,0.6,0.3,0.9
		C419.6,390.9,419.7,391.2,419.8,391.6z"/>
	<polygon class="st1" points="487.3,443.2 489.6,444.9 488.7,441.9 488.6,441.9 487.7,442.8 	"/>
	<path class="st1" d="M420.5,393.5c0.1,0.3,0.2,0.7,0.3,1c0.1,0.2,0.1,0.3,0.2,0.5l0,0c0.7-0.9,2-1.1,3-0.4l44.3,34
		c0.4,0,0.8,0.1,1.2,0.1c0.5,0,1.1,0.1,1.7,0.1c0.1,0,0.3,0,0.4,0l-48.3-37.1c-1-0.7-2.3-0.5-3.1,0.4l-0.2,0.3c0,0,0,0.1,0.1,0.1
		C420.3,392.9,420.4,393.2,420.5,393.5z"/>
	<path class="st1" d="M379.3,449.5L379.3,449.5l-1.5-0.8c0.2,0.1,0.3,0.1,0.5,0.2c0.1,0.1,0.3,0.1,0.4,0.2c0.1,0.1,0.3,0.1,0.4,0.2
		L379.3,449.5l2.6-3.4c0,0-0.1,0-0.1,0c-0.1,0-0.2,0-0.3,0c-0.1,0-0.2,0-0.3,0c-0.1,0-0.2,0-0.3,0c-0.1,0-0.2,0-0.3,0
		c-0.1,0-0.2,0-0.3,0c-0.1,0-0.2,0-0.3,0c-0.1,0-0.2,0-0.3,0c-0.1,0-0.2,0-0.3,0c-0.1,0-0.2,0-0.2,0l-2,2.6c0.1,0,0.1,0,0.2,0.1
		L379.3,449.5z"/>
	<path class="st1" d="M395.4,426.4l0.7,0.3l0.6,0.2l4.7-6.1l-2.6-0.3c0,0,0,0-0.1,0l-4.2,5.5l0.3,0.1L395.4,426.4z"/>
	<path class="st1" d="M490.8,445.6c-0.1,0-0.2,0.1-0.2,0.1l1.2,0.9c0.4-0.1,0.8-0.3,1.3-0.4c0.3-0.1,0.6-0.2,0.9-0.3l-1.2-0.9
		c-0.1,0-0.1,0-0.2,0.1C491.8,445.3,491.2,445.4,490.8,445.6z"/>
	<path class="st1" d="M397.4,427.2l0.2,0.1l0.2,0.1l0.3,0.1l0.3,0.1l0.3,0.1l0.1,0l5.1-6.6c-0.1,0-0.1,0-0.2,0c-0.1,0-0.3,0-0.4,0
		c-0.1,0-0.2,0-0.4,0c-0.1,0-0.3,0-0.4,0c-0.1,0-0.2,0-0.4,0l-0.1-0.1l-0.8-0.1l-4.7,6.1l0.1,0.1L397.4,427.2z"/>
	<path class="st1" d="M421.5,395.5l0.7,1.7c0,0.1-0.1,0.1-0.1,0.2c0.7-0.6,1.8-0.7,2.6-0.1l40.4,31c0.4,0,0.7,0.1,1.2,0.1
		c0.5,0,1.1,0.1,1.7,0.1c0.2,0,0.3,0,0.5,0l-44.3-34c-0.9-0.7-2.3-0.5-3,0.4l0,0c0.1,0.1,0.1,0.3,0.2,0.4L421.5,395.5z"/>
	<path class="st1" d="M379.7,450l0.8,0.1l0.8,0.4l0,0l-0.7-0.3l0.3,0l0.5,0.2l3.1-4.1c-0.6-0.1-1.3-0.1-1.9-0.2c-0.1,0-0.2,0-0.3,0
		c-0.1,0-0.2,0-0.3,0c-0.1,0-0.1,0-0.2,0l-2.6,3.3l0.2,0.1l0,0.1l-0.3-0.1l0,0l0.3,0.2L379.7,450z"/>
	<path class="st1" d="M486.4,444.1l-0.3,0.3l3.5,2.7c0.4-0.1,1-0.3,1.6-0.5c0.1,0,0.3-0.1,0.5-0.1l-1.2-0.9
		c-0.4,0.1-0.6,0.2-0.6,0.2l-0.3-0.9l-2.3-1.8L486.4,444.1z"/>
	<path class="st1" d="M374.3,503.2l-1.6-0.2c-0.2-0.3-0.3-0.8-0.4-1.4c0-0.2,0-0.3,0-0.5l-2.5-1.9c0.1,0.3,0.3,0.5,0.5,0.8
		c0.4,0.6,0.7,1.1,1,1.5c0.6,0.8,1.1,1.3,1.4,1.6c0.1,0.1,0.1,0.1,0.1,0.1s1.8,1.2,4.7,1.9l-2.5-1.9
		C374.7,503.1,374.5,503.2,374.3,503.2z"/>
	<path class="st1" d="M484.9,445.7l3.7,2.9c0.2-0.5,0.2-0.8,0.1-1.1c0,0,0.3-0.1,0.9-0.3c0,0,0,0,0.1,0l-3.5-2.7l-1,1L484.9,445.7z"
		/>
	<path class="st1" d="M382.8,451c0.2,0.1,0.4,0.2,0.6,0.3l3.6-4.8c-0.8-0.1-1.7-0.2-2.5-0.3l-3.1,4.1l0.5,0.2
		C382.2,450.7,382.5,450.9,382.8,451z"/>
	<polygon class="st1" points="383.4,451.3 381.4,450.4 381.4,450.4 383.4,451.4 	"/>
	<path class="st1" d="M399.3,427.9l0.3,0.1l0.3,0.1l0.3,0.1l0.3,0.1l0.3,0.1l0.1,0.1l21.6-28.2c0.7-0.9,1.9-1,2.8-0.4l36.7,28.2
		c0.1-0.1,0.1-0.1,0.2-0.2c0,0,0.3,0,0.7,0.1c0.4,0,0.9,0.1,1.6,0.2c0.1,0,0.3,0,0.5,0l-40.4-31c-0.8-0.6-1.9-0.5-2.6,0.1
		c-0.2,0.2-0.3,0.4-0.5,0.6c-0.2,0.3-0.4,0.5-0.6,0.8c-0.2,0.3-0.4,0.5-0.6,0.8c-0.2,0.3-0.4,0.5-0.6,0.8c-0.2,0.3-0.4,0.5-0.6,0.8
		c-0.2,0.3-0.4,0.5-0.5,0.8c-0.2,0.2-0.4,0.5-0.5,0.7c-0.2,0.2-0.3,0.5-0.5,0.7c-0.2,0.2-0.3,0.5-0.5,0.7c-0.2,0.2-0.3,0.5-0.5,0.7
		c-0.2,0.2-0.3,0.5-0.5,0.7c-0.2,0.2-0.3,0.5-0.5,0.7c-0.2,0.2-0.3,0.5-0.5,0.7c-0.2,0.2-0.3,0.4-0.5,0.7c-0.1,0.2-0.3,0.4-0.4,0.6
		c-0.1,0.2-0.3,0.4-0.4,0.6c-0.1,0.2-0.3,0.4-0.4,0.6c-0.1,0.2-0.3,0.4-0.4,0.6c-0.1,0.2-0.3,0.4-0.4,0.6c-0.1,0.2-0.3,0.4-0.4,0.6
		c-0.1,0.2-0.3,0.4-0.4,0.6c-0.1,0.2-0.3,0.4-0.4,0.6c-0.1,0.2-0.3,0.4-0.4,0.6c-0.1,0.2-0.2,0.4-0.4,0.6c-0.1,0.2-0.2,0.4-0.4,0.5
		c-0.1,0.2-0.2,0.4-0.3,0.5c-0.1,0.2-0.2,0.4-0.3,0.5c-0.1,0.2-0.2,0.4-0.3,0.5c-0.2,0.3-0.3,0.5-0.3,0.5c0,0,0,0,0,0
		c-0.1,0.2-0.2,0.3-0.3,0.5c-0.1,0.1-0.2,0.3-0.3,0.4c-0.1,0.1-0.2,0.3-0.3,0.4c-0.1,0.1-0.2,0.3-0.3,0.4c-0.1,0.1-0.2,0.3-0.3,0.4
		c-0.1,0.1-0.2,0.3-0.3,0.4c-0.1,0.1-0.2,0.3-0.3,0.4c-0.1,0.1-0.2,0.3-0.3,0.4c-0.1,0.1-0.2,0.3-0.3,0.4c-0.1,0.1-0.2,0.3-0.3,0.4
		c0,0,0,0.1-0.1,0.1c-0.1,0.1-0.1,0.2-0.2,0.2c-0.1,0.1-0.2,0.1-0.4,0.2c-0.1,0-0.2,0.1-0.4,0.1c-0.1,0-0.2,0-0.4,0.1
		c-0.1,0-0.2,0-0.4,0c-0.1,0-0.3,0-0.4,0c-0.1,0-0.1,0-0.2,0l-5.1,6.6l0.2,0.1L399.3,427.9z"/>
	<path class="st1" d="M380.6,505.5c0.1,0,0.2,0,0.2,0l-4-3.1c-0.7,0.3-1.3,0.5-1.9,0.7l2.5,1.9c0.2,0,0.3,0.1,0.5,0.1
		C378.7,505.3,379.6,505.4,380.6,505.5z"/>
	<path class="st1" d="M483.7,446.9l4.1,3.1c0.4-0.6,0.7-1.1,0.8-1.5l-3.7-2.9l-1,1L483.7,446.9z"/>
	<path class="st1" d="M389.4,447c-0.8-0.1-1.6-0.3-2.4-0.4l-3.6,4.8c0.1,0,0.2,0.1,0.3,0.1c0.3,0.2,0.6,0.3,0.8,0.5l-1.2-0.6l0,0
		l1.9,0.9L389.4,447z"/>
	<path class="st1" d="M422.5,400.4l-21.6,28.2l0.2,0.1l0.3,0.1l0.3,0.1l0.3,0.1l0.1,0.1c0,0.1-0.1,0.3-0.1,0.4
		c0,0.1-0.1,0.3-0.1,0.4c0,0.1-0.1,0.3-0.1,0.4c0,0.1-0.1,0.3-0.1,0.4c0,0.1,0,0.2-0.1,0.3l21.6-28.1c0.6-0.8,1.9-1,2.7-0.4
		l35.1,26.9c0.2-0.3,0.5-0.6,0.7-0.9c0.1-0.2,0.2-0.3,0.4-0.5L425.3,400C424.4,399.4,423.2,399.5,422.5,400.4z"/>
	<path class="st1" d="M372.3,500.2c0-0.3,0.1-0.7,0.1-1.1l-4.1-3.1c0.1,0.4,0.2,0.7,0.4,1.1c0.2,0.5,0.4,1,0.6,1.4
		c0.1,0.2,0.2,0.5,0.4,0.7l2.5,1.9C372.3,500.8,372.3,500.5,372.3,500.2z"/>
	<path class="st1" d="M372.7,497.6c0-0.1,0-0.2,0.1-0.3l-4.9-3.8c0,0.3,0.1,0.6,0.1,0.9c0.1,0.4,0.2,0.9,0.3,1.3
		c0,0.1,0.1,0.2,0.1,0.3l4.1,3.1c0-0.1,0-0.1,0-0.2C372.6,498.5,372.6,498,372.7,497.6z"/>
	<path class="st1" d="M386.1,452.9c0.3,0.2,0.5,0.3,0.7,0.5c0.1,0,0.1,0.1,0.2,0.1l4.6-6c-0.3-0.1-0.7-0.2-1.1-0.3
		c-0.4-0.1-0.8-0.2-1.2-0.2l-4.1,5.4l0.1,0C385.6,452.6,385.9,452.7,386.1,452.9z"/>
	<path class="st1" d="M383.3,505.4l-4.9-3.8c-0.4,0.2-0.9,0.4-1.3,0.6c-0.1,0.1-0.3,0.1-0.4,0.2l4,3.1
		C381.6,505.5,382.5,505.5,383.3,505.4z"/>
	<path class="st1" d="M366.3,479.9c-0.4,0.3-0.7,0.5-1,0.8c-0.3,0.3-0.5,0.6-0.7,0.9c-0.2,0.3-0.4,0.6-0.6,0.9
		c-0.2,0.4-0.4,0.7-0.5,1l0.5,0.1l3.2-4.2C366.9,479.5,366.6,479.7,366.3,479.9z"/>
	<path class="st1" d="M486.8,451.4c0.4-0.5,0.7-0.9,1-1.3l-4.1-3.1l-1.2,1.2L486.8,451.4z"/>
	<path class="st1" d="M401.5,431.7c0,0.1,0,0.3-0.1,0.4c0,0.1,0,0.3-0.1,0.4c0,0.2,0,0.3,0,0.5c0,0.2,0,0.3,0,0.5c0,0.2,0,0.3,0,0.5
		c0,0.2,0,0.4,0,0.5c0,0.1,0,0.2,0,0.3l22.5-29.4c0.6-0.8,1.8-1,2.6-0.3l33.5,25.7c0.2-0.3,0.5-0.6,0.8-0.9c0.1-0.1,0.2-0.2,0.3-0.3
		l-35.1-26.9c-0.8-0.6-2.1-0.5-2.7,0.4l-21.6,28.1c0,0,0,0.1,0,0.1C401.6,431.4,401.5,431.5,401.5,431.7z"/>
	<polygon class="st1" points="415.6,531 416,530.5 415.8,530.3 	"/>
	<path class="st1" d="M485.8,452.6c0.4-0.4,0.7-0.8,1-1.2l-4.3-3.3l-1.1,1.1L485.8,452.6z"/>
	<path class="st1" d="M381,464.1c-0.5,0.1-0.9,0.3-1.3,0.4c-0.3,0.1-0.6,0.3-0.8,0.5c-0.2,0.2-0.4,0.4-0.6,0.6
		c-0.2,0.2-0.3,0.4-0.5,0.6c-0.1,0.2-0.3,0.4-0.4,0.6c-0.1,0.2-0.2,0.4-0.3,0.6c-0.1,0.2-0.1,0.4-0.2,0.7c-0.1,0.2-0.1,0.5-0.1,0.7
		s-0.1,0.5-0.1,0.7c0,0.2,0,0.5,0,0.7c0,0,0,0,0,0.1l4.8-6.3C381.3,464,381.1,464,381,464.1z"/>
	<path class="st1" d="M380,500.8c-0.2,0.1-0.4,0.2-0.6,0.3c-0.3,0.2-0.6,0.3-0.9,0.5l4.9,3.8c0.7-0.1,1.4-0.2,2-0.4L380,500.8z"/>
	<path class="st1" d="M373.2,495.6l-5.4-4.2c0,0.2,0,0.3,0,0.5c0,0.4,0,0.8,0.1,1.2c0,0.1,0,0.2,0.1,0.4l4.9,3.8
		c0.1-0.3,0.1-0.6,0.2-1C373.1,496.1,373.1,495.8,373.2,495.6z"/>
	<path class="st1" d="M387.6,453.8c0.2,0.2,0.4,0.3,0.7,0.5c0.1,0.1,0.3,0.2,0.4,0.3l5-6.5c-0.4-0.1-0.7-0.3-1.2-0.4
		c-0.3-0.1-0.6-0.2-0.9-0.2l-4.6,6C387.2,453.6,387.4,453.7,387.6,453.8z"/>
	<path class="st1" d="M401.4,435.9c0,0.3,0.1,0.6,0.1,0.9c0,0,0,0.1,0,0.1c0,0.1,0,0.2,0.1,0.2c0,0.1,0,0.2,0.1,0.2
		c0,0.1,0,0.1,0.1,0.2l22.7-29.6c0.6-0.8,1.8-0.9,2.5-0.3l31.9,24.5c0.3-0.3,0.5-0.6,0.8-1c0.1-0.1,0.1-0.2,0.2-0.3l-33.5-25.7
		c-0.8-0.6-2-0.5-2.6,0.3l-22.5,29.4c0,0.1,0,0.2,0,0.3C401.4,435.4,401.4,435.7,401.4,435.9z"/>
	<path class="st1" d="M370,478.9c-0.8-0.1-1.6,0-2.2,0.2c-0.2,0.1-0.4,0.2-0.6,0.2l-3.2,4.2l2.3,0.3L370,478.9z"/>
	<polygon class="st1" points="416.4,528.7 415.8,530.3 416,530.5 417,529.2 	"/>
	<path class="st1" d="M389.5,455.2c0.2,0.2,0.4,0.3,0.5,0.5c0.1,0.1,0.1,0.1,0.2,0.2l5.2-6.8c-0.1-0.1-0.2-0.2-0.3-0.2
		c-0.2-0.1-0.4-0.2-0.6-0.3c-0.2-0.1-0.5-0.2-0.8-0.4c0,0,0,0,0,0l-5,6.5c0.1,0,0.1,0.1,0.2,0.1
		C389.1,454.9,389.3,455.1,389.5,455.2z"/>
	<path class="st1" d="M484.7,453.8c0.4-0.4,0.7-0.8,1-1.1l-4.4-3.4l-1.1,1.1L484.7,453.8z"/>
	<path class="st1" d="M401.9,437.8c0,0.1,0.1,0.2,0.1,0.2c0,0.1,0.1,0.2,0.1,0.2c0,0.1,0.1,0.2,0.1,0.2c0,0.1,0.1,0.2,0.1,0.2
		c0,0.1,0.1,0.2,0.1,0.2c0,0.1,0.1,0.2,0.1,0.2c0,0.1,0.1,0.2,0.1,0.2c0,0,0,0.1,0.1,0.1l22.5-29.3c0.6-0.8,1.7-0.9,2.5-0.3
		l30.4,23.3c0.3-0.3,0.6-0.7,0.8-1c0-0.1,0.1-0.1,0.1-0.2l-31.9-24.5c-0.8-0.6-1.9-0.5-2.5,0.3l-22.7,29.6c0,0,0,0,0,0.1
		C401.8,437.7,401.9,437.7,401.9,437.8z"/>
	<path class="st1" d="M376.7,471.7c0,0.3,0,0.5,0.1,0.8c0,0.2,0.1,0.4,0.1,0.7l7.1-9.3c-0.9-0.1-1.8,0-2.5,0.1l-4.8,6.3
		c0,0.2,0,0.5,0,0.7C376.7,471.2,376.7,471.5,376.7,471.7z"/>
	<path class="st1" d="M372.1,478.7c0.1,0.2,0.1,0.3,0.2,0.5l0.3-0.4L372.1,478.7z"/>
	<path class="st1" d="M387.1,504.3l-5.7-4.4c0,0-0.1,0-0.1,0.1c-0.4,0.3-0.9,0.5-1.3,0.7l5.4,4.2c0.2-0.1,0.4-0.1,0.6-0.2
		C386.4,504.6,386.7,504.5,387.1,504.3z"/>
	<path class="st1" d="M372,479.5c-0.7-0.3-1.4-0.5-2-0.6l-3.8,4.9l2.2,0.3L372,479.5z"/>
	<path class="st1" d="M373.6,494l-5.7-4.4c0,0,0,0,0,0c-0.1,0.4-0.1,0.8-0.1,1.2c0,0.2,0,0.5,0,0.7l5.4,4.2c0-0.2,0.1-0.3,0.1-0.5
		C373.4,494.7,373.5,494.3,373.6,494z"/>
	<polygon class="st1" points="416.9,527.2 416.4,528.7 417,529.2 417.9,527.9 	"/>
	<path class="st1" d="M390.9,456.7c0.1,0.2,0.3,0.3,0.4,0.5c0,0.1,0.1,0.1,0.1,0.2l12.1-15.8c-0.1,0-0.2,0-0.3,0
		c-0.1,0-0.3,0.1-0.4,0.1c-0.2,0-0.3,0.1-0.5,0.2c-0.2,0.1-0.4,0.2-0.5,0.3c-0.2,0.1-0.5,0.3-0.7,0.5c-0.4,0.3-0.8,0.7-1.2,1.2
		c-0.4,0.5-0.8,1-1.2,1.6c-0.5,0.7-0.9,1.4-1.4,2.2c-0.3,0.5-0.5,0.9-0.8,1.4c-0.1,0.1-0.1,0.2-0.1,0.3c0,0.1-0.1,0.2-0.1,0.3
		c0,0.1-0.1,0.2-0.1,0.3l-0.1,0c-0.1-0.1-0.1-0.2-0.2-0.3c-0.1-0.1-0.2-0.2-0.3-0.3c0,0-0.1-0.1-0.1-0.1l-5.2,6.8
		c0.1,0.1,0.2,0.2,0.3,0.3C390.6,456.4,390.8,456.5,390.9,456.7z"/>
	<path class="st1" d="M376.9,473.3c0,0.3,0.1,0.6,0.1,0.8c0.1,0.3,0.1,0.6,0.2,0.9c0,0.2,0.1,0.4,0.2,0.6l8.7-11.4
		c-0.8-0.2-1.5-0.3-2.1-0.3l-7.1,9.3C376.9,473.2,376.9,473.3,376.9,473.3z"/>
	<path class="st1" d="M373.9,492.7c0-0.1,0.1-0.2,0.1-0.3l-4.7-3.6c-0.7-0.6-0.9-1.7-0.3-2.4l6.6-8.6c-0.3,0.1-0.6,0.2-0.9,0.4
		c-0.5,0.2-0.9,0.5-1.2,0.8l-1-0.1l-0.3,0.4c0.1,0.3,0.2,0.5,0.2,0.5l-0.1,0c-0.1-0.1-0.3-0.1-0.4-0.2l-3.5,4.6l1.1,0.1
		c-0.2,0.3-0.3,0.7-0.5,1c-0.1,0.3-0.3,0.7-0.4,1c-0.1,0.4-0.2,0.7-0.3,1.1c-0.1,0.4-0.2,0.7-0.3,1.1c-0.1,0.4-0.1,0.7-0.2,1.1
		l5.7,4.4c0,0,0,0,0,0C373.7,493.5,373.8,493.1,373.9,492.7z"/>
	<path class="st1" d="M402.9,439.9c0,0.1,0.1,0.2,0.1,0.2c0.1,0.1,0.1,0.1,0.2,0.2c0.1,0.1,0.1,0.1,0.2,0.2c0.1,0.1,0.1,0.1,0.2,0.2
		c0.1,0.1,0.1,0.1,0.2,0.2c0.1,0.1,0.1,0.1,0.2,0.2l22-28.6c0.6-0.7,1.7-0.9,2.4-0.3l28.9,22.2c0.3-0.3,0.6-0.7,0.9-1.1
		c0,0,0.1-0.1,0.1-0.1l-30.4-23.3c-0.8-0.6-1.9-0.4-2.5,0.3l-22.5,29.3c0,0,0,0.1,0.1,0.1C402.8,439.8,402.8,439.8,402.9,439.9z"/>
	<path class="st1" d="M388.8,503.7l-6-4.6c-0.4,0.3-0.9,0.5-1.4,0.8l5.7,4.4c0.5-0.2,0.9-0.4,1.4-0.6L388.8,503.7z"/>
	<path class="st1" d="M479.3,451.4l4.5,3.4c0.4-0.4,0.7-0.7,1-1.1l-4.4-3.4l-0.6,0.6L479.3,451.4z"/>
	<polygon class="st1" points="417.4,525.7 416.9,527.2 417.9,527.9 418.8,526.8 	"/>
	<path class="st1" d="M377.7,476.8c0.1,0.4,0.2,0.7,0.3,0.9c0,0,0,0,0,0.1l10-13.1c-0.7-0.2-1.3-0.4-1.9-0.5l-8.7,11.4
		c0,0.1,0,0.2,0.1,0.3C377.5,476.2,377.6,476.5,377.7,476.8z"/>
	<path class="st1" d="M391.9,458.1c0.1,0.2,0.1,0.3,0.2,0.5c0.1,0.2,0.1,0.3,0.1,0.5c0,0,0,0.1,0,0.1l34.1-44.5
		c0.6-0.7,1.6-0.9,2.3-0.3l27.4,21c0,0,0,0,0,0c0.3-0.3,0.6-0.7,0.9-1.1c0,0,0,0,0,0l-28.9-22.2c-0.7-0.6-1.8-0.4-2.4,0.3l-22,28.6
		c0,0,0,0,0,0c0.1,0.1,0.1,0.1,0.2,0.2c0.1,0.1,0.2,0.2,0.2,0.2c-0.1,0-0.2,0-0.3,0c-0.1,0-0.2,0-0.3,0c0,0,0,0-0.1,0l-12.1,15.8
		c0.1,0.1,0.1,0.2,0.2,0.3C391.7,457.8,391.8,458,391.9,458.1z"/>
	<path class="st1" d="M374.5,490.9l-2.8-2.2c-0.7-0.6-0.9-1.6-0.3-2.3l6.5-8.5c-0.6-0.4-1.4-0.4-2.2-0.2l-6.6,8.6
		c-0.6,0.7-0.4,1.8,0.3,2.4l4.7,3.6c0.1-0.3,0.2-0.6,0.2-0.8C374.3,491.4,374.4,491.1,374.5,490.9z"/>
	<path class="st1" d="M384.1,498.3c-0.3,0.2-0.7,0.4-1,0.6c-0.1,0.1-0.2,0.1-0.3,0.2l6,4.6l2.9,0.4L384.1,498.3z"/>
	<path class="st1" d="M482.7,455.9c0.4-0.4,0.7-0.7,1-1l-4.5-3.4l-1,1L482.7,455.9z"/>
	<polygon class="st1" points="417.9,524.3 417.4,525.7 418.8,526.8 419.7,525.6 	"/>
	<path class="st1" d="M371.7,488.8l2.8,2.2c0-0.1,0.1-0.3,0.1-0.5c0.1-0.4,0.2-0.7,0.3-1l-1-0.8c-0.7-0.5-0.8-1.6-0.3-2.3l53.4-69.5
		c0.5-0.7,1.6-0.8,2.3-0.3l26,20c0,0,0,0,0-0.1c0.3-0.3,0.6-0.7,0.9-1l-27.4-21c-0.7-0.6-1.8-0.4-2.3,0.3l-34.1,44.5
		c0,0.1,0,0.1,0,0.2l-0.1,0.2l-0.3,0.4l-0.3,0.5l-0.4,0.5l-0.4,0.5l-0.4,0.5l-0.4,0.5l-0.4,0.5l-0.4,0.5l-0.4,0.5l-0.4,0.5l-0.2,0.3
		c0,0-0.1,0-0.1,0l-10,13.1c0.1,0.3,0.2,0.5,0.2,0.5c-0.1-0.1-0.2-0.2-0.4-0.3l-6.5,8.5C370.8,487.2,370.9,488.2,371.7,488.8z"/>
	<path class="st1" d="M385.4,497.5c-0.2,0.1-0.4,0.2-0.6,0.4c-0.2,0.1-0.5,0.3-0.7,0.4l7.5,5.8l2.8,0.4L385.4,497.5z"/>
	<path class="st1" d="M481.7,456.9c0.3-0.3,0.7-0.7,1-1l-4.5-3.4l-1,1L481.7,456.9z"/>
	<polygon class="st1" points="418.4,522.9 417.9,524.3 419.7,525.6 420.5,524.5 	"/>
	<path class="st1" d="M396.5,504.3l-9.9-7.6c0,0-0.1,0.1-0.2,0.1c-0.3,0.2-0.6,0.4-1.1,0.7l9.1,7l1.8,0.2
		C396.3,504.6,396.4,504.5,396.5,504.3z"/>
	<path class="st1" d="M376.8,489.6c0.3,0.4,0.7,0.9,1,1.3c0.5,0.5,1,1,1.5,1.4c0.5,0.3,1,0.5,1.4,0.5c0.1,0.3,0.3,0.6,0.6,0.9
		c0.5,0.6,1.4,1.1,2.2,1.5c0.8,0.4,1.7,0.7,2.3,0.9l-9.7-7.5C376.3,489,376.5,489.3,376.8,489.6z"/>
	<path class="st1" d="M480.7,457.9c0.1-0.1,0.1-0.1,0.2-0.2c0.3-0.3,0.6-0.5,0.8-0.8l-4.4-3.4l-1,1L480.7,457.9z"/>
	<path class="st1" d="M375.3,488.3l0.4,0.1c-0.4-0.5-0.5-1.3,0-1.9l51.8-67.4c0.5-0.7,1.5-0.8,2.2-0.3l24.6,18.9c0,0,0-0.1,0.1-0.1
		c0.3-0.3,0.5-0.6,0.8-1l-26-20c-0.7-0.5-1.7-0.4-2.3,0.3l-53.4,69.5c-0.5,0.7-0.4,1.7,0.3,2.3l1,0.8c0,0,0-0.1,0-0.1
		C375.1,488.9,375.2,488.6,375.3,488.3z"/>
	<polygon class="st1" points="418.9,521.5 418.4,522.9 420.5,524.5 421.3,523.4 	"/>
	<path class="st1" d="M396.9,503.4c0-0.1,0.1-0.2,0.1-0.4l-18.9-14.5c-0.7-0.5-0.8-1.5-0.3-2.1L428,421c0.5-0.7,1.5-0.8,2.1-0.3
		l23.3,17.9c0,0,0.1-0.1,0.1-0.1c0.3-0.3,0.5-0.6,0.8-0.9l-24.6-18.9c-0.7-0.5-1.7-0.4-2.2,0.3l-51.8,67.4c-0.4,0.6-0.4,1.4,0,1.9
		l0.2,0c0.1,0.1,0.1,0.2,0.2,0.3l9.7,7.5c0.7,0.2,1.1,0.3,1.1,0.3s-0.1,0.1-0.4,0.2l9.9,7.6C396.6,504,396.8,503.8,396.9,503.4z"/>
	<path class="st1" d="M479.7,458.8c0.3-0.3,0.7-0.6,1-0.9l-4.4-3.4l-0.9,1L479.7,458.8z"/>
	<polygon class="st1" points="419.4,520.2 418.9,521.5 421.3,523.4 422.1,522.3 	"/>
	<path class="st1" d="M397.3,501.6l-17.1-13.2c-0.6-0.5-0.8-1.4-0.3-2.1l48.7-63.5c0.5-0.6,1.4-0.8,2.1-0.3l22,16.9
		c0,0,0.1-0.1,0.1-0.1c0.2-0.3,0.5-0.6,0.7-0.9l-23.3-17.9c-0.7-0.5-1.6-0.4-2.1,0.3l-50.2,65.4c-0.5,0.7-0.4,1.6,0.3,2.1l18.9,14.5
		c0.1-0.3,0.2-0.6,0.2-0.9C397.3,502,397.3,501.8,397.3,501.6z"/>
	<path class="st1" d="M478.8,459.7c0.3-0.3,0.6-0.6,0.9-0.9l-4.4-3.3l-0.9,0.9L478.8,459.7z"/>
	<polygon class="st1" points="419.8,518.9 419.4,520.2 422.1,522.3 422.9,521.3 	"/>
	<path class="st1" d="M397,499.8l-14.9-11.4c-0.6-0.5-0.7-1.4-0.3-2l47.2-61.5c0.5-0.6,1.4-0.7,2-0.3l20.7,15.9c0,0,0.1-0.1,0.1-0.1
		c0.2-0.3,0.5-0.5,0.7-0.8l-22-16.9c-0.6-0.5-1.6-0.4-2.1,0.3l-48.7,63.5c-0.5,0.6-0.4,1.6,0.3,2.1l17.1,13.2c0-0.3,0-0.5,0-0.8
		C397.2,500.5,397.1,500.2,397,499.8z"/>
	<path class="st1" d="M477.8,460.5c0.3-0.3,0.6-0.6,0.9-0.9l-4.3-3.3l-0.9,0.9L477.8,460.5z"/>
	<polygon class="st1" points="423.6,520.3 420.2,517.7 419.8,518.9 422.9,521.3 	"/>
	<path class="st1" d="M396,498.1c-0.2-0.2-0.4-0.5-0.6-0.8c0,0,0-0.1,0.1-0.2l-11.5-8.8c-0.6-0.5-0.7-1.3-0.3-1.9l45.8-59.7
		c0.5-0.6,1.3-0.7,1.9-0.3l19.5,15c0,0,0.1-0.1,0.1-0.1c0.2-0.3,0.5-0.5,0.7-0.8l-20.7-15.9c-0.6-0.5-1.5-0.4-2,0.3l-47.2,61.5
		c-0.5,0.6-0.4,1.5,0.3,2l14.9,11.4c0-0.1-0.1-0.2-0.1-0.4C396.6,499,396.4,498.6,396,498.1z"/>
	<path class="st1" d="M476.9,461.3c0.3-0.3,0.6-0.6,0.9-0.8l-4.3-3.3l-0.9,0.9L476.9,461.3z"/>
	<polygon class="st1" points="420.6,516.5 420.2,517.7 423.6,520.3 424.3,519.3 	"/>
	<path class="st1" d="M471.9,459l4.2,3.2c0.3-0.3,0.6-0.5,0.9-0.8l-4.2-3.2L471.9,459z"/>
	<path class="st1" d="M396,496.1l-10.1-7.8c-0.6-0.4-0.7-1.3-0.2-1.9l44.4-57.9c0.4-0.6,1.3-0.7,1.9-0.2l18.3,14
		c0,0,0.1-0.1,0.1-0.1c0.2-0.2,0.4-0.5,0.7-0.8l-19.5-15c-0.6-0.5-1.5-0.3-1.9,0.3l-45.8,59.7c-0.5,0.6-0.3,1.5,0.3,1.9l11.5,8.8
		c0-0.1,0.1-0.2,0.2-0.4C395.7,496.6,395.8,496.4,396,496.1z"/>
	<polygon class="st1" points="421,515.3 420.6,516.5 424.3,519.3 425,518.4 	"/>
	<path class="st1" d="M396.3,494.9l-8.7-6.7c-0.6-0.4-0.7-1.3-0.2-1.8l43.1-56.2c0.4-0.6,1.3-0.7,1.8-0.2l17.1,13.1
		c0,0,0.1-0.1,0.1-0.1c0.2-0.2,0.4-0.5,0.7-0.8l-18.3-14c-0.6-0.4-1.4-0.3-1.9,0.2l-44.4,57.9c-0.4,0.6-0.3,1.4,0.2,1.9l10.1,7.8
		c0-0.1,0.1-0.3,0.1-0.4C396.2,495.4,396.2,495.2,396.3,494.9z"/>
	<path class="st1" d="M475.2,462.9c0.3-0.3,0.6-0.5,0.9-0.8l-4.2-3.2l-0.8,0.8L475.2,462.9z"/>
	<polygon class="st1" points="421.4,514.2 421,515.3 425,518.4 425.7,517.5 	"/>
	<path class="st1" d="M430.5,430.3l-43.1,56.2c-0.4,0.6-0.3,1.4,0.2,1.8l8.7,6.7c0-0.1,0.1-0.3,0.1-0.4c0.1-0.3,0.1-0.6,0.1-0.9
		l-7.1-5.4c-0.5-0.4-0.7-1.2-0.2-1.8l41.8-54.5c0.4-0.5,1.2-0.7,1.8-0.2l16,12.3c0.2-0.2,0.5-0.5,0.7-0.8L432.3,430
		C431.8,429.6,430.9,429.7,430.5,430.3z"/>
	<path class="st1" d="M470.3,460.6l4,3.1c0.3-0.2,0.6-0.5,0.8-0.7l-4.1-3.1l-0.7,0.7L470.3,460.6z"/>
	<polygon class="st1" points="421.8,513.1 421.4,514.2 425.7,517.5 426.4,516.6 	"/>
	<path class="st1" d="M396.1,492.2c-0.1-0.1-0.2-0.2-0.3-0.3l-0.3-0.2c0,0-0.1-0.1-0.1-0.1c0,0,0,0,0,0l-4.3-3.3
		c-0.5-0.4-0.6-1.2-0.2-1.7l40.6-52.9c0.4-0.5,1.2-0.6,1.7-0.2l14.9,11.4c0.2-0.2,0.4-0.5,0.7-0.8l-16-12.3
		c-0.5-0.4-1.3-0.3-1.8,0.2l-41.8,54.5c-0.4,0.5-0.3,1.3,0.2,1.8l7.1,5.4c0-0.1,0-0.2,0-0.3C396.4,492.9,396.3,492.5,396.1,492.2z"
		/>
	<path class="st1" d="M473.5,464.4c0.1,0,0.1-0.1,0.2-0.1c0.2-0.2,0.4-0.4,0.6-0.6l-4-3.1l-0.8,0.8L473.5,464.4z"/>
	<polygon class="st1" points="422.2,512 421.8,513.1 426.4,516.6 427,515.7 	"/>
	<path class="st1" d="M395.5,491.6l0.3,0.2C395.7,491.7,395.6,491.6,395.5,491.6z"/>
	<path class="st1" d="M392.7,488.1c-0.5-0.4-0.6-1.1-0.2-1.7l39.3-51.3c0.4-0.5,1.1-0.6,1.7-0.2l13.8,10.6c0,0,0.1-0.1,0.1-0.1
		c0,0,0.2-0.2,0.6-0.7l-14.9-11.4c-0.5-0.4-1.3-0.3-1.7,0.2l-40.6,52.9c-0.4,0.5-0.3,1.3,0.2,1.7l4.3,3.3c0.2,0,0.8,0.1,1.8,0.1
		L392.7,488.1z"/>
	<path class="st1" d="M472.7,465.1c0.3-0.2,0.5-0.5,0.8-0.7l-4-3l-0.7,0.7L472.7,465.1z"/>
	<polygon class="st1" points="427.2,515.5 427.3,514.6 422.5,511 422.2,512 427,515.7 	"/>
	<path class="st1" d="M472,465.7c0.3-0.2,0.5-0.4,0.8-0.7l-3.9-3l-0.7,0.7L472,465.7z"/>
	<path class="st1" d="M394.3,488c-0.5-0.4-0.6-1.1-0.2-1.6l38.2-49.7c0.4-0.5,1.1-0.6,1.6-0.2l12.8,9.8c0.2-0.3,0.4-0.5,0.6-0.8
		l-13.8-10.6c-0.5-0.4-1.3-0.3-1.7,0.2l-39.3,51.3c-0.4,0.5-0.3,1.3,0.2,1.7l4.6,3.5c0.5,0,1,0,1.6,0L394.3,488z"/>
	<polygon class="st1" points="422.9,510 422.5,511 427.3,514.6 427.4,513.5 	"/>
	<path class="st1" d="M400.3,491.5l-4.5-3.5c-0.5-0.4-0.6-1.1-0.2-1.6l37-48.2c0.4-0.5,1.1-0.6,1.6-0.2l11.9,9.1
		c0.2-0.2,0.4-0.5,0.6-0.8l-12.8-9.8c-0.5-0.4-1.2-0.3-1.6,0.2l-38.2,49.7c-0.4,0.5-0.3,1.2,0.2,1.6l4.6,3.5c0.3,0,0.6,0,0.9-0.1
		C400,491.5,400.2,491.5,400.3,491.5z"/>
	<path class="st1" d="M467.4,463.5l3.8,2.9c0.3-0.2,0.5-0.4,0.8-0.6l-3.8-2.9L467.4,463.5z"/>
	<polygon class="st1" points="423.2,509 422.9,510 427.4,513.5 427.5,512.3 	"/>
	<path class="st1" d="M401.7,491.3l-4.4-3.4c-0.5-0.4-0.6-1-0.2-1.5l35.9-46.8c0.4-0.5,1-0.6,1.5-0.2l10.9,8.4
		c0.2-0.2,0.4-0.5,0.6-0.7l-11.9-9.1c-0.5-0.4-1.2-0.3-1.6,0.2l-37,48.2c-0.4,0.5-0.3,1.2,0.2,1.6l4.5,3.5
		C400.8,491.4,401.2,491.4,401.7,491.3z"/>
	<path class="st1" d="M470.5,467c0.2-0.2,0.5-0.4,0.7-0.6l-3.8-2.9l-0.7,0.7L470.5,467z"/>
	<polygon class="st1" points="423.6,508.1 423.2,509 427.5,512.3 427.6,511.2 	"/>
	<path class="st1" d="M433,439.6l-35.9,46.8c-0.4,0.5-0.3,1.2,0.2,1.5l4.4,3.4c0.4-0.1,0.8-0.2,1.2-0.2l-4.1-3.2
		c-0.5-0.4-0.5-1-0.2-1.5l34.8-45.4c0.4-0.5,1-0.5,1.5-0.2l10,7.7c0.2-0.2,0.4-0.5,0.6-0.7l-10.9-8.4
		C434.1,439.1,433.4,439.2,433,439.6z"/>
	<path class="st1" d="M469.8,467.6c0.2-0.2,0.5-0.4,0.7-0.6l-3.7-2.8l-0.6,0.7L469.8,467.6z"/>
	<polygon class="st1" points="423.9,507.2 423.6,508.1 427.6,511.2 427.7,510.1 	"/>
	<path class="st1" d="M403.9,490.7l-3.8-2.9c-0.4-0.3-0.5-1-0.2-1.4l6-7.9c0-0.1-0.1-0.1-0.1-0.2l0.3-0.3l0.6-0.7l0.6-0.7l2.7-3.5
		c0.1,0,0.2,0,0.3,0l23.5-30.6c0.3-0.4,1-0.5,1.4-0.2l9.1,7c0.2-0.2,0.4-0.4,0.6-0.7l-10-7.7c-0.5-0.4-1.1-0.3-1.5,0.2l-34.8,45.4
		c-0.4,0.5-0.3,1.1,0.2,1.5l4.1,3.2c0.2,0,0.4-0.1,0.6-0.2C403.6,490.9,403.8,490.8,403.9,490.7z"/>
	<path class="st1" d="M469.1,468.2c0.2-0.2,0.5-0.4,0.7-0.6l-3.6-2.8l-0.6,0.6L469.1,468.2z"/>
	<polygon class="st1" points="424.2,506.3 423.9,507.2 427.7,510.1 427.8,509 	"/>
	<path class="st1" d="M401.5,487.8c-0.4-0.3-0.5-1-0.2-1.4l5.3-6.9c-0.1-0.2-0.3-0.5-0.4-0.7c-0.1-0.1-0.1-0.2-0.2-0.3l-6,7.9
		c-0.3,0.4-0.3,1.1,0.2,1.4l3.8,2.9c0.3-0.1,0.6-0.2,0.9-0.4L401.5,487.8z"/>
	<path class="st1" d="M468.4,468.8c0.2-0.2,0.4-0.4,0.7-0.6l-3.6-2.7l-0.6,0.6L468.4,468.8z"/>
	<path class="st1" d="M411.5,473.1l22.6-29.4c0.3-0.4,1-0.5,1.4-0.2l8.2,6.3c0-0.1,0.1-0.2,0.1-0.3c0.1-0.1,0.2-0.3,0.4-0.4l-9.1-7
		c-0.4-0.3-1.1-0.3-1.4,0.2L410.3,473c0.2,0,0.3,0,0.5,0C411,473,411.3,473,411.5,473.1z"/>
	<polygon class="st1" points="427.9,508 424.5,505.4 424.2,506.3 427.8,509 	"/>
	<path class="st1" d="M412.5,473.4c0,0,0.1,0,0.2,0.1l11.8-15.4c0-0.1,0-0.2,0-0.3c0-0.3-0.1-0.7-0.3-1l0,0c0.1,0,0.3,0.2,0.7,0.4
		c0,0,0.1,0,0.2,0.1l9.5-12.3c0.3-0.4,0.9-0.5,1.3-0.2l7.9,6.1c0,0,0-0.1,0-0.1c0-0.4,0-0.7,0.1-0.9l-8.2-6.3
		c-0.4-0.3-1.1-0.2-1.4,0.2l-22.6,29.4c0,0,0.1,0,0.1,0C411.9,473.2,412.2,473.3,412.5,473.4z"/>
	<path class="st1" d="M405.7,490l-2.9-2.2c-0.4-0.3-0.5-0.9-0.2-1.3l4.5-5.8c-0.1-0.3-0.3-0.6-0.4-0.9c0-0.1-0.1-0.1-0.1-0.2
		l-5.3,6.9c-0.3,0.4-0.2,1.1,0.2,1.4l3.4,2.6c0.2-0.1,0.4-0.2,0.6-0.3C405.6,490.1,405.6,490,405.7,490z"/>
	<path class="st1" d="M467.7,469.3c0.2-0.2,0.4-0.4,0.7-0.6l-3.5-2.7l-0.6,0.6L467.7,469.3z"/>
	<polygon class="st1" points="424.8,504.6 424.5,505.4 427.9,508 427.9,507 	"/>
	<path class="st1" d="M413.5,473.9l5.3-6.9c-0.1-0.1-0.2-0.1-0.3-0.1c-0.1,0-0.2-0.1-0.2-0.1c0.3-0.3,0.7-0.6,1-0.9
		c0.7-0.6,1.3-1.3,1.9-1.9l2.4-3.1c0.3-0.5,0.5-1,0.7-1.5c0.2-0.5,0.2-0.9,0.2-1.4l-11.8,15.4c0.2,0.1,0.4,0.2,0.6,0.3
		C413.3,473.8,413.4,473.9,413.5,473.9z"/>
	<path class="st1" d="M404.1,487.7c-0.4-0.3-0.5-0.9-0.2-1.3l3.6-4.7c0,0,0,0,0-0.1c-0.1-0.3-0.3-0.6-0.4-0.9c0,0,0,0,0-0.1
		l-4.5,5.8c-0.3,0.4-0.2,1,0.2,1.3l2.9,2.2c0.2-0.1,0.5-0.3,0.7-0.5L404.1,487.7z"/>
	<path class="st1" d="M426,457.7l8.8-11.5c0.3-0.4,0.9-0.5,1.3-0.2l7.9,6.1c-0.1-0.5-0.2-0.9-0.3-1.2l-7.9-6.1
		c-0.4-0.3-1-0.2-1.3,0.2l-9.5,12.3c0.2,0.1,0.4,0.2,0.6,0.3C425.7,457.6,425.9,457.7,426,457.7z"/>
	<path class="st1" d="M463.7,467.3l3.4,2.6c0.2-0.1,0.3-0.3,0.5-0.4c0.1,0,0.1-0.1,0.2-0.1l-3.4-2.6L463.7,467.3z"/>
	<polygon class="st1" points="425,503.8 424.8,504.6 427.9,507 428,506.1 	"/>
	<path class="st1" d="M407,488.9l-1.6-1.3c-0.4-0.3-0.5-0.9-0.2-1.3l2.8-3.6c0-0.1,0-0.2-0.1-0.3c-0.1-0.3-0.2-0.6-0.3-0.9l-3.6,4.7
		c-0.3,0.4-0.2,1,0.2,1.3l2.3,1.8c0.1-0.1,0.2-0.2,0.3-0.3C406.8,489.1,406.9,489,407,488.9z"/>
	<path class="st1" d="M466.5,470.4c0.2-0.2,0.4-0.3,0.6-0.5l-3.4-2.6l-0.6,0.6L466.5,470.4z"/>
	<path class="st1" d="M414.4,474.4l5.2-6.8c-0.1-0.1-0.3-0.2-0.4-0.3c-0.1-0.1-0.3-0.2-0.4-0.3l-5.3,6.9c0.1,0.1,0.3,0.1,0.4,0.2
		C414.1,474.2,414.3,474.3,414.4,474.4z"/>
	<path class="st1" d="M423.5,460.9l-2.4,3.1C422.1,463,422.9,461.9,423.5,460.9z"/>
	<path class="st1" d="M427,458l8.1-10.5c0.3-0.4,0.9-0.5,1.3-0.2l8.1,6.2c0-0.1,0-0.1-0.1-0.2c-0.2-0.4-0.3-0.8-0.4-1.2c0,0,0,0,0,0
		l-7.9-6.1c-0.4-0.3-1-0.2-1.3,0.2l-8.8,11.5c0.2,0,0.3,0.1,0.5,0.1C426.6,457.9,426.8,457.9,427,458z"/>
	<polygon class="st1" points="425.3,503 425,503.8 428,506.1 428.1,505.2 	"/>
	<path class="st1" d="M435.1,447.4L427,458c0.1,0,0.2,0.1,0.4,0.1c0.2,0,0.5,0.1,0.7,0.1l7.3-9.5c0.3-0.4,0.8-0.5,1.2-0.2l8.5,6.5
		c-0.1-0.1-0.1-0.3-0.2-0.5c-0.2-0.3-0.3-0.7-0.4-1l-8.1-6.2C436,447,435.4,447.1,435.1,447.4z"/>
	<path class="st1" d="M415.2,475l5.1-6.6c-0.1-0.2-0.3-0.3-0.4-0.5c-0.1-0.1-0.2-0.2-0.2-0.2l-5.2,6.8c0.1,0.1,0.2,0.1,0.3,0.2
		C414.9,474.7,415,474.8,415.2,475z"/>
	<path class="st1" d="M406.6,487.6c-0.4-0.3-0.5-0.8-0.2-1.2l1.9-2.4c0-0.2-0.1-0.3-0.1-0.5c-0.1-0.2-0.1-0.5-0.2-0.7l-2.8,3.6
		c-0.3,0.4-0.2,1,0.2,1.3l1.6,1.3c0.2-0.2,0.3-0.4,0.5-0.6L406.6,487.6z"/>
	<path class="st1" d="M465.9,470.9c0.2-0.2,0.4-0.3,0.6-0.5l-3.3-2.5l-0.5,0.5L465.9,470.9z"/>
	<polygon class="st1" points="425.6,502.3 425.3,503 428.1,505.2 428.2,504.2 	"/>
	<path class="st1" d="M407.9,487.7l-0.1-0.1c-0.4-0.3-0.4-0.8-0.2-1.2l0.8-1.1c0-0.3,0-0.6-0.1-0.9c0-0.1-0.1-0.3-0.1-0.4l-1.9,2.4
		c-0.3,0.4-0.2,0.9,0.2,1.2l0.9,0.7c0,0,0-0.1,0.1-0.1C407.7,488.1,407.8,487.9,407.9,487.7z"/>
	<path class="st1" d="M415.9,475.5l4.9-6.4c-0.1-0.2-0.3-0.4-0.4-0.6c-0.1-0.1-0.1-0.1-0.2-0.2l-5.1,6.6c0.1,0.1,0.1,0.1,0.2,0.1
		C415.6,475.3,415.7,475.4,415.9,475.5z"/>
	<path class="st1" d="M429.3,458.1l6.4-8.4c0.3-0.4,0.8-0.4,1.2-0.2l8.9,6.8c-0.1-0.3-0.3-0.5-0.4-0.8c-0.1-0.2-0.2-0.5-0.3-0.7
		l-8.5-6.5c-0.4-0.3-0.9-0.2-1.2,0.2l-7.3,9.5c0.1,0,0.2,0,0.3,0C428.7,458.1,429,458.1,429.3,458.1z"/>
	<path class="st1" d="M465.3,471.4c0.2-0.2,0.4-0.3,0.6-0.5l-3.2-2.5l-0.5,0.5L465.3,471.4z"/>
	<polygon class="st1" points="425.8,501.5 425.6,502.3 428.2,504.2 428.3,503.4 	"/>
	<path class="st1" d="M430.5,458l5.5-7.2c0.3-0.4,0.8-0.4,1.2-0.2l9.4,7.2c0,0,0,0,0,0c-0.2-0.4-0.4-0.8-0.6-1.1
		c-0.1-0.1-0.1-0.2-0.2-0.3l-8.9-6.8c-0.4-0.3-0.9-0.2-1.2,0.2l-6.4,8.4c0.1,0,0.2,0,0.3,0C429.9,458.1,430.2,458.1,430.5,458z"/>
	<path class="st1" d="M464.7,471.9c0.2-0.2,0.4-0.3,0.6-0.5l-3.2-2.4l-0.5,0.5L464.7,471.9z"/>
	<path class="st1" d="M416.1,475.7c0.2,0.1,0.4,0.3,0.5,0.4l4.7-6.2c-0.1-0.2-0.3-0.4-0.4-0.6c0-0.1-0.1-0.1-0.1-0.2l-4.9,6.4
		C416,475.6,416,475.6,416.1,475.7z"/>
	<path class="st1" d="M408.3,486.4c0.1-0.3,0.1-0.6,0.1-1c0,0,0,0,0-0.1l-0.8,1.1c-0.3,0.4-0.2,0.9,0.2,1.2l0.1,0.1
		c0.1-0.1,0.1-0.3,0.2-0.4C408.2,487,408.2,486.7,408.3,486.4z"/>
	<polygon class="st1" points="426.1,500.8 425.8,501.5 428.3,503.4 428.3,502.5 	"/>
	<path class="st1" d="M417.3,476.7l4.5-5.9c-0.1-0.2-0.2-0.4-0.3-0.6c0-0.1-0.1-0.1-0.1-0.2l-4.7,6.2c0.1,0,0.1,0.1,0.2,0.1
		C417,476.4,417.1,476.5,417.3,476.7z"/>
	<path class="st1" d="M461.1,470l3.1,2.3c0.2-0.1,0.4-0.3,0.6-0.5l-3.1-2.4l-0.3,0.3L461.1,470z"/>
	<path class="st1" d="M431.8,457.8l4.5-5.8c0.3-0.3,0.8-0.4,1.1-0.1l10,7.6c-0.1-0.1-0.1-0.2-0.2-0.4c-0.2-0.4-0.4-0.8-0.6-1.1
		l-9.4-7.2c-0.4-0.3-0.9-0.2-1.2,0.2l-5.5,7.2c0.1,0,0.2,0,0.3,0C431.1,457.9,431.5,457.8,431.8,457.8z"/>
	<polygon class="st1" points="426.3,500.1 426.1,500.8 428.3,502.5 428.4,501.7 	"/>
	<path class="st1" d="M433.2,457.3l3.4-4.4c0.3-0.3,0.7-0.4,1.1-0.1l10.6,8.1c-0.1-0.2-0.3-0.5-0.4-0.7c-0.1-0.3-0.3-0.5-0.4-0.8
		l-10-7.6c-0.3-0.3-0.9-0.2-1.1,0.1l-4.5,5.8c0.1,0,0.3-0.1,0.4-0.1C432.5,457.6,432.9,457.5,433.2,457.3z"/>
	<path class="st1" d="M463.6,472.7c0.2-0.1,0.3-0.3,0.5-0.4l-3.1-2.3l-0.5,0.5L463.6,472.7z"/>
	<path class="st1" d="M417.9,477.3l4.4-5.7c-0.1-0.2-0.2-0.4-0.3-0.6c0-0.1-0.1-0.2-0.1-0.3l-4.5,5.9c0.1,0.1,0.1,0.1,0.2,0.2
		C417.6,477,417.8,477.1,417.9,477.3z"/>
	<polygon class="st1" points="428.5,500.9 426.6,499.4 426.3,500.1 428.4,501.7 	"/>
	<path class="st1" d="M418.5,477.9l4.2-5.4c-0.1-0.2-0.1-0.3-0.2-0.5c-0.1-0.1-0.1-0.2-0.2-0.4l-4.4,5.7c0.1,0.1,0.2,0.2,0.3,0.3
		C418.3,477.6,418.4,477.7,418.5,477.9z"/>
	<path class="st1" d="M434.7,456.7l2.1-2.8c0.3-0.3,0.7-0.4,1.1-0.1l11.2,8.6c-0.2-0.3-0.4-0.7-0.6-1c-0.1-0.2-0.2-0.3-0.3-0.4
		l-10.6-8.1c-0.3-0.3-0.8-0.2-1.1,0.1l-3.4,4.4c0.2-0.1,0.4-0.2,0.6-0.2C434.1,457,434.4,456.9,434.7,456.7z"/>
	<path class="st1" d="M463.1,473.2c0.2-0.1,0.3-0.3,0.5-0.4l-3-2.3l-0.5,0.5L463.1,473.2z"/>
	<polygon class="st1" points="426.8,498.8 426.6,499.4 428.5,500.9 428.5,500.1 	"/>
	<path class="st1" d="M459.7,471.4l2.9,2.2c0.2-0.1,0.3-0.3,0.5-0.4l-2.9-2.3L459.7,471.4z"/>
	<path class="st1" d="M419.1,478.4l4-5.2c0-0.1-0.1-0.2-0.1-0.3c-0.1-0.2-0.2-0.3-0.2-0.5l-4.2,5.4c0.1,0.1,0.2,0.2,0.4,0.4
		C418.9,478.3,419,478.4,419.1,478.4z"/>
	<path class="st1" d="M435.6,456.3l0.4-0.1l1.1-1.4c0.2-0.3,0.7-0.4,1-0.1l11.8,9.1c0,0-0.1-0.1-0.1-0.1c-0.2-0.4-0.5-0.8-0.7-1.2
		c0,0-0.1-0.1-0.1-0.1l-11.2-8.6c-0.3-0.3-0.8-0.2-1.1,0.1l-2.1,2.8c0.3-0.2,0.7-0.3,1-0.5L435.6,456.3z"/>
	<polygon class="st1" points="427,498.1 426.8,498.8 428.5,500.1 428.6,499.4 	"/>
	<path class="st1" d="M419.6,479l3.8-5c0,0,0-0.1,0-0.1c-0.1-0.2-0.2-0.5-0.3-0.7l-4,5.2C419.2,478.6,419.4,478.8,419.6,479
		C419.6,479,419.6,479,419.6,479z"/>
	<path class="st1" d="M437.1,456.1L437.1,456.1l0.3-0.2c0.2-0.3,0.7-0.4,1-0.1l12.5,9.6c-0.1-0.1-0.2-0.3-0.2-0.4
		c-0.2-0.4-0.4-0.7-0.6-1.1l-11.8-9.1c-0.3-0.2-0.8-0.2-1,0.1l-1.1,1.4L437.1,456.1L437.1,456.1z"/>
	<path class="st1" d="M462.1,474c0.1-0.1,0.3-0.3,0.5-0.4l-2.9-2.2l-0.4,0.4L462.1,474z"/>
	<polygon class="st1" points="427.2,497.5 427,498.1 428.6,499.4 428.7,498.6 	"/>
	<path class="st1" d="M423.7,474.8c-0.1-0.3-0.2-0.5-0.3-0.8l-3.8,5c0.2,0.2,0.3,0.4,0.5,0.6L423.7,474.8z"/>
	<path class="st1" d="M437.4,455.9l-0.2,0.3l0.5,0.6l0,0c0.2-0.3,0.7-0.4,1-0.1l13.1,10.1c-0.1-0.2-0.2-0.4-0.4-0.6
		c-0.2-0.3-0.3-0.6-0.5-0.8l-12.5-9.6C438,455.5,437.6,455.6,437.4,455.9z"/>
	<path class="st1" d="M461.6,474.4c0.1-0.1,0.2-0.2,0.3-0.3c0,0,0.1-0.1,0.1-0.1l-2.8-2.2l-0.4,0.4L461.6,474.4z"/>
	<polygon class="st1" points="427.4,496.9 427.2,497.5 428.7,498.6 428.7,497.9 	"/>
	<path class="st1" d="M420.6,480.1l3.4-4.5c-0.1-0.2-0.2-0.4-0.2-0.6c0-0.1-0.1-0.1-0.1-0.2l-3.6,4.7c0,0,0.1,0.1,0.1,0.1
		C420.4,479.8,420.5,480,420.6,480.1z"/>
	<path class="st1" d="M461.2,474.8c0.1-0.1,0.2-0.2,0.2-0.2s0.1-0.1,0.3-0.2l-2.8-2.1l-0.4,0.4L461.2,474.8z"/>
	<path class="st1" d="M438.1,457.5c0.2-0.1,0.5-0.1,0.7,0.1l13.8,10.6c-0.2-0.3-0.3-0.5-0.5-0.8c-0.1-0.2-0.3-0.4-0.4-0.6
		l-13.1-10.1c-0.3-0.2-0.7-0.2-1,0.1l0,0l0.1,0.1L438.1,457.5z"/>
	<polygon class="st1" points="427.6,496.4 427.4,496.9 428.7,497.9 428.8,497.3 	"/>
	<path class="st1" d="M460.8,475.2c0.2-0.2,0.3-0.3,0.4-0.4l-2.7-2.1l-0.4,0.4L460.8,475.2z"/>
	<path class="st1" d="M438.7,458.3c0.1,0,0.2,0.1,0.3,0.1l14.5,11.1c-0.2-0.3-0.4-0.6-0.6-0.9c-0.1-0.2-0.2-0.3-0.3-0.5l-13.8-10.6
		c-0.2-0.2-0.5-0.2-0.7-0.1l0.2,0.3L438.7,458.3z"/>
	<path class="st1" d="M420.9,480.5c0.1,0.1,0.1,0.1,0.2,0.2l3.3-4.3c0-0.1-0.1-0.2-0.1-0.3c-0.1-0.2-0.1-0.3-0.2-0.5l-3.4,4.5
		C420.7,480.2,420.8,480.3,420.9,480.5z"/>
	<polygon class="st1" points="427.8,495.8 427.6,496.4 428.8,497.3 428.9,496.6 	"/>
	<path class="st1" d="M439.7,459.5l0.2,0.2l14.5,11.1c-0.2-0.3-0.4-0.6-0.6-1c-0.1-0.1-0.2-0.2-0.2-0.4L439,458.4
		c-0.1-0.1-0.2-0.1-0.3-0.1l0.3,0.4L439.7,459.5z"/>
	<path class="st1" d="M460.4,475.5c0.2-0.1,0.3-0.2,0.4-0.4l-2.7-2.1l-0.4,0.4L460.4,475.5z"/>
	<path class="st1" d="M424.7,477.1c-0.1-0.3-0.2-0.5-0.3-0.7l-3.3,4.3c0.2,0.2,0.3,0.4,0.5,0.5L424.7,477.1z"/>
	<polygon class="st1" points="428,495.3 427.8,495.8 428.9,496.6 428.9,495.9 	"/>
	<path class="st1" d="M422,481.7l2.9-3.8c-0.1-0.2-0.2-0.4-0.2-0.6c0,0,0-0.1,0-0.1l-3.1,4c0,0,0.1,0.1,0.1,0.1
		C421.8,481.4,421.9,481.5,422,481.7z"/>
	<path class="st1" d="M459.9,475.8c0.2-0.1,0.3-0.2,0.5-0.3l-2.7-2.1l-0.4,0.4L459.9,475.8z"/>
	<path class="st1" d="M441,461.3l14.2,10.9c-0.2-0.3-0.4-0.7-0.7-1c-0.1-0.1-0.1-0.2-0.2-0.3l-14.5-11.1l0.5,0.7L441,461.3z"/>
	<polygon class="st1" points="429,495.3 428.2,494.7 428,495.3 428.9,495.9 	"/>
	<path class="st1" d="M422.4,482.2l2.8-3.6c0,0,0-0.1-0.1-0.1c-0.1-0.2-0.1-0.4-0.2-0.6l-2.9,3.8c0.1,0.1,0.2,0.3,0.3,0.4
		C422.4,482.1,422.4,482.2,422.4,482.2z"/>
	<path class="st1" d="M459.4,476.1c0.2-0.1,0.4-0.2,0.5-0.3l-2.6-2l-0.4,0.4L459.4,476.1z"/>
	<path class="st1" d="M441.7,462.3l0.4,0.6l13.9,10.6c-0.2-0.3-0.4-0.6-0.7-1c-0.1-0.1-0.1-0.2-0.2-0.3L441,461.3l0,0L441.7,462.3z"
		/>
	<polygon class="st1" points="428.4,494.2 428.2,494.7 429,495.3 429,494.7 	"/>
	<path class="st1" d="M425.5,479.3c-0.1-0.2-0.2-0.5-0.3-0.7l-2.8,3.6c0.1,0.2,0.3,0.3,0.4,0.5L425.5,479.3z"/>
	<path class="st1" d="M456.7,474.5c0,0-0.2-0.2-0.4-0.6c-0.1-0.1-0.1-0.2-0.2-0.3l-13.9-10.6l0.3,0.4l0.7,1l0.1,0.2l15.5,11.9
		c0.2-0.1,0.4-0.1,0.6-0.2l-2.4-1.9L456.7,474.5z"/>
	<polygon class="st1" points="428.5,493.7 428.4,494.2 429,494.7 429.1,494.1 	"/>
	<path class="st1" d="M444.4,465.9l13.8,10.6c0.2,0,0.4-0.1,0.6-0.1l-15.5-11.9l0.6,0.8L444.4,465.9z"/>
	<path class="st1" d="M423.2,483.2l2.5-3.2c0-0.1-0.1-0.2-0.1-0.3c0-0.1-0.1-0.2-0.1-0.4l-2.6,3.4c0.1,0.1,0.1,0.2,0.2,0.3
		C423.1,483,423.2,483.1,423.2,483.2z"/>
	<polygon class="st1" points="428.7,493.2 428.5,493.7 429.1,494.1 429.1,493.5 	"/>
	<path class="st1" d="M445.5,467.3l12,9.2c0.2,0,0.5,0,0.7-0.1c0,0,0,0,0,0l-13.8-10.6l0.3,0.4L445.5,467.3z"/>
	<path class="st1" d="M423.6,483.7l2.3-3c-0.1-0.2-0.2-0.4-0.2-0.7l-2.5,3.2C423.4,483.3,423.5,483.5,423.6,483.7z"/>
	<polygon class="st1" points="428.9,492.8 428.7,493.2 429.1,493.5 429.2,493 	"/>
	<path class="st1" d="M424,484.1l2.2-2.9c0-0.1-0.1-0.2-0.1-0.4c0-0.1-0.1-0.2-0.1-0.3l-2.3,3c0.1,0.1,0.1,0.1,0.2,0.2
		C423.8,483.9,423.9,484,424,484.1z"/>
	<path class="st1" d="M446.3,468.3l0.2,0.3l10.2,7.8c0.3,0,0.5,0,0.8,0l-12-9.2l0,0L446.3,468.3z"/>
	<polygon class="st1" points="429,492.3 428.9,492.8 429.2,493 429.2,492.5 	"/>
	<path class="st1" d="M426.4,481.9c-0.1-0.2-0.1-0.4-0.2-0.6l-2.2,2.9c0.1,0.2,0.2,0.3,0.4,0.5L426.4,481.9z"/>
	<path class="st1" d="M447.5,470l8.2,6.3c0.2,0,0.3,0.1,0.5,0.1c0.2,0,0.3,0.1,0.5,0.1l-10.2-7.8l0.6,0.8L447.5,470z"/>
	<polygon class="st1" points="429.3,491.9 429.2,491.9 429,492.3 429.2,492.5 	"/>
	<path class="st1" d="M429.3,491.5c0,0,0-0.1,0-0.2l-0.1-0.1C429.2,491.5,429.3,491.5,429.3,491.5z"/>
	<path class="st1" d="M448,470.5c0.3,0.4,0.6,0.7,0.9,1c0,0,0.1,0.1,0.1,0.1l5.5,4.2c0.1,0,0.1,0.1,0.2,0.1c0.4,0.2,0.7,0.3,1.1,0.4
		l-8.2-6.3l0.1,0.2C447.8,470.3,447.9,470.4,448,470.5z"/>
	<path class="st1" d="M424.7,485l1.9-2.5c0-0.1-0.1-0.2-0.1-0.3c0-0.1-0.1-0.2-0.1-0.3l-2.1,2.7c0.1,0.1,0.1,0.1,0.2,0.2
		C424.5,484.9,424.6,484.9,424.7,485z"/>
	<polygon class="st1" points="429.2,491.9 429.3,491.9 429.3,491.5 	"/>
	<path class="st1" d="M426.8,483.1c-0.1-0.2-0.1-0.4-0.2-0.6l-1.9,2.5c0.1,0.1,0.2,0.3,0.3,0.4L426.8,483.1z"/>
	<path class="st1" d="M429.1,490.7l-0.7-0.5c0.2,0.3,0.4,0.6,0.5,0.8c0.1,0.1,0.1,0.2,0.2,0.3l0.1,0.1
		C429.2,491.3,429.2,491.1,429.1,490.7C429.1,490.8,429.1,490.7,429.1,490.7z"/>
	<path class="st1" d="M449.9,472.5c0.4,0.3,0.7,0.7,1,1c0.4,0.3,0.8,0.6,1.1,0.9c0.4,0.3,0.8,0.6,1.2,0.8c0.4,0.2,0.8,0.4,1.2,0.6
		l-5.5-4.2C449.3,471.9,449.6,472.3,449.9,472.5z"/>
	<path class="st1" d="M427.7,489.1c0.2,0.3,0.3,0.5,0.5,0.7c0.1,0.1,0.2,0.2,0.2,0.4l0.7,0.5c-0.1-0.2-0.1-0.4-0.2-0.6L427.7,489.1z
		"/>
	<path class="st1" d="M425.2,485.7c0,0,0.1,0.1,0.1,0.1l1.7-2.2c0-0.1,0-0.1-0.1-0.2c0-0.1-0.1-0.3-0.1-0.4l-1.8,2.3
		C425.1,485.5,425.1,485.6,425.2,485.7z"/>
	<path class="st1" d="M426.9,488.1c0.2,0.2,0.3,0.5,0.5,0.7c0.1,0.1,0.2,0.2,0.3,0.4l1.2,0.9c-0.1-0.2-0.1-0.4-0.2-0.6L426.9,488.1z
		"/>
	<path class="st1" d="M427.2,484.3c-0.1-0.2-0.1-0.4-0.2-0.6l-1.7,2.2c0.1,0.1,0.2,0.3,0.3,0.4L427.2,484.3z"/>
	<path class="st1" d="M426.1,486.9c-0.1-0.1-0.1-0.3,0-0.5l1.2-1.6c-0.1-0.2-0.1-0.4-0.2-0.6l-1.5,2c0.1,0.1,0.2,0.3,0.3,0.4
		C426,486.8,426,486.8,426.1,486.9z"/>
	<path class="st1" d="M428.7,489.2c0-0.1-0.1-0.3-0.1-0.4l-2.4-1.8c0,0-0.1-0.1-0.1-0.1c0.2,0.3,0.4,0.6,0.6,0.8
		c0.1,0.1,0.2,0.2,0.2,0.3l1.8,1.4C428.7,489.4,428.7,489.3,428.7,489.2z"/>
	<path class="st1" d="M426.8,487c-0.2-0.1-0.2-0.4-0.1-0.6l0.8-1.1c0-0.2-0.1-0.3-0.1-0.5c0,0,0,0,0-0.1l-1.2,1.6
		c-0.1,0.1-0.1,0.3,0,0.5c0,0,0,0,0,0c0,0,0.1,0.1,0.1,0.1l2.4,1.8c-0.1-0.2-0.1-0.4-0.2-0.6L426.8,487z"/>
	<path class="st1" d="M426.8,487l1.6,1.2c0-0.2-0.1-0.3-0.1-0.5c0,0,0-0.1,0-0.1l-0.9-0.7c-0.2-0.1-0.2-0.4-0.1-0.6l0.4-0.5
		c-0.1-0.2-0.1-0.3-0.2-0.5l-0.8,1.1C426.5,486.6,426.6,486.9,426.8,487z"/>
	<path class="st1" d="M427.9,487c-0.2-0.1-0.2-0.4-0.1-0.6l0,0c0,0,0-0.1,0-0.1c0-0.1-0.1-0.3-0.1-0.4l-0.4,0.5
		c-0.1,0.2-0.1,0.4,0.1,0.6l0.9,0.7c-0.1-0.2-0.1-0.4-0.2-0.6L427.9,487z"/>
	<path class="st1" d="M427.9,487l0.2,0.1c-0.1-0.2-0.1-0.5-0.2-0.7l0,0C427.7,486.6,427.7,486.8,427.9,487z"/>
</g>
</svg>
