<?xml version="1.0" encoding="utf-8"?>
<!-- Generator: Adobe Illustrator 22.0.1, SVG Export Plug-In . SVG Version: 6.00 Build 0)  -->
<svg version="1.1" id="レイヤー_1" xmlns="http://www.w3.org/2000/svg" xmlns:xlink="http://www.w3.org/1999/xlink" x="0px"
	 y="0px" viewBox="0 0 640 640" style="enable-background:new 0 0 640 640;" xml:space="preserve">
<style type="text/css">
	.st0{fill:#E50012;stroke:#E60012;stroke-width:0.5;stroke-miterlimit:10;}
	.st1{fill:none;stroke:#E60012;stroke-width:0.5;stroke-miterlimit:10;}
</style>
<g id="レイヤー_2_1_">
</g>
<g>
	<path class="st0" d="M251,353.1c0.3-0.1,0.5-0.3,0.7-0.5l-0.7,0.3C251,353.1,251,353.1,251,353.1z"/>
	<path class="st0" d="M190.4,375.5c0,0-0.1-0.1-0.2-0.2l-0.7,0.3C189.9,375.6,190.1,375.6,190.4,375.5z"/>
	<path class="st1" d="M253.6,348.2c0.2-1.3,0.2-2.9,0-4.6c0-0.1,0-0.3-0.1-0.4l-4,1.5c0.3,1.1,0.5,2.1,0.6,3c0.5,2.4,0.6,4,0.7,4.8
		c0,0.2,0,0.4,0,0.5l0.7-0.3c0,0,0.1,0,0.1-0.1C252.8,351.6,253.4,350.1,253.6,348.2z"/>
	<path class="st1" d="M186,368.2l-4,1.5c0.3,0.4,0.6,0.8,0.9,1.2c2.2,2.9,4.5,4.7,6.7,4.7l0.7-0.3c-0.3-0.4-1.1-1.5-2.3-3.6
		C187.4,370.8,186.7,369.6,186,368.2z"/>
	<path class="st1" d="M252,335.3l-4.5,1.6c0.1,0.4,0.2,0.8,0.4,1.2c0.5,1.7,0.9,3.3,1.2,4.7c0.2,0.6,0.3,1.2,0.4,1.8l4-1.5
		c-0.1-1.3-0.4-2.7-0.7-4.2C252.7,337.8,252.4,336.6,252,335.3z"/>
	<path class="st1" d="M184.8,365.9c-0.7-1.4-1.5-3.1-2.3-4.9l-4.5,1.6c0.4,0.8,0.8,1.6,1.2,2.3c0.9,1.7,1.9,3.3,2.8,4.7l4-1.5
		C185.6,367.5,185.2,366.8,184.8,365.9z"/>
	<path class="st1" d="M179.8,354.9c-0.1-0.3-0.2-0.6-0.4-0.9l-4.5,1.7c0.5,1.3,1,2.5,1.6,3.7c0.5,1.2,1,2.3,1.5,3.3l4.5-1.6
		c-0.1-0.2-0.2-0.5-0.3-0.7C181.4,358.7,180.6,356.9,179.8,354.9z"/>
	<path class="st1" d="M250.4,329.7c-0.2-0.6-0.4-1.2-0.6-1.8l-4.5,1.7c0.5,1.4,0.9,2.7,1.3,4c0.4,1.2,0.7,2.3,1,3.4l4.5-1.6
		c-0.1-0.3-0.1-0.6-0.2-0.9C251.4,332.9,250.9,331.4,250.4,329.7z"/>
	<path class="st1" d="M176.7,347l-4.4,1.6c0.6,1.8,1.3,3.6,2,5.3c0.2,0.6,0.5,1.1,0.7,1.7l4.5-1.7c-0.6-1.4-1.2-2.9-1.8-4.4
		C177.3,348.7,177,347.9,176.7,347z"/>
	<path class="st1" d="M248.8,325.1c-0.5-1.4-1-2.8-1.6-4.2l-4.4,1.6c0.2,0.7,0.5,1.3,0.7,2c0.6,1.6,1.1,3.1,1.5,4.5
		c0.1,0.2,0.1,0.4,0.2,0.6l4.5-1.7C249.5,327,249.2,326.1,248.8,325.1z"/>
	<path class="st1" d="M174.2,340.2l-4.3,1.6c0.2,0.6,0.4,1.1,0.5,1.7c0.6,1.7,1.2,3.5,1.8,5.2c0,0,0,0,0,0l4.4-1.6
		c-0.3-0.9-0.7-1.8-1-2.7C175.2,343,174.7,341.6,174.2,340.2z"/>
	<path class="st1" d="M245.5,316.5c-0.3-0.8-0.6-1.5-1-2.3l-4.3,1.6c0,0,0,0,0,0c0.6,1.5,1.1,2.9,1.6,4.3c0.3,0.8,0.6,1.6,0.9,2.4
		l4.4-1.6c0-0.1,0-0.1-0.1-0.2C246.7,319.3,246.1,317.9,245.5,316.5z"/>
	<path class="st1" d="M173.9,339.2c-0.2-0.6-0.4-1.2-0.6-1.8c-0.3-0.7-0.7-1.8-1.3-3.2c-0.1-0.2-0.2-0.4-0.3-0.6l-3.9,1.4
		c0.3,1.1,0.7,2.2,1,3.3c0.4,1.1,0.7,2.3,1.1,3.4l4.3-1.6C174.1,339.9,174,339.6,173.9,339.2z"/>
	<path class="st1" d="M242,308.2c-0.1-0.2-0.1-0.3-0.2-0.5l-3.9,1.4c0.3,0.9,0.6,1.7,0.8,2.4c0.2,0.6,0.4,1.2,0.6,1.6
		c0.4,0.9,0.7,1.8,1,2.7l4.3-1.6c-0.3-0.6-0.5-1.2-0.7-1.8C243.2,311,242.6,309.6,242,308.2z"/>
	<path class="st1" d="M169.2,327.3l-3.3,1.2c0,0,0,0.1,0,0.1c0.4,1.6,0.9,3.2,1.4,4.8c0.2,0.5,0.3,1.1,0.5,1.6l3.9-1.4
		c-0.5-1.3-1.1-2.7-1.7-4.3C169.7,328.7,169.5,328,169.2,327.3z"/>
	<path class="st1" d="M239,301.5l-3.3,1.2c0.1,0.2,0.1,0.4,0.2,0.6c0.5,1.4,1,2.8,1.4,4.1c0.2,0.6,0.4,1.2,0.6,1.8l3.9-1.4
		c-0.5-1.2-1.1-2.5-1.6-3.7C239.8,303.2,239.4,302.3,239,301.5z"/>
	<path class="st1" d="M238.3,300c-0.6-1.4-1.3-2.7-1.9-4c-0.1-0.2-0.2-0.3-0.2-0.5l-2.7,1c0.4,1,0.7,1.9,1.1,2.8
		c0.4,1.2,0.8,2.3,1.2,3.4l3.3-1.2C238.7,301,238.5,300.5,238.3,300z"/>
	<path class="st1" d="M166.9,321.1l-2.7,1c0.2,0.6,0.3,1.2,0.5,1.8c0.4,1.5,0.8,3,1.3,4.6l3.3-1.2c-0.3-0.9-0.7-1.8-1.1-2.8
		C167.7,323.4,167.3,322.3,166.9,321.1z"/>
	<path class="st1" d="M165,315.3c0-0.1-0.1-0.2-0.1-0.3l-2.3,0.9c0.3,1.1,0.6,2.3,0.9,3.5c0.2,0.9,0.5,1.8,0.7,2.8l2.7-1
		c-0.1-0.4-0.3-0.8-0.4-1.2C165.9,318.3,165.4,316.8,165,315.3z"/>
	<path class="st1" d="M233.3,289.7l-2.4,0.9c0.1,0.3,0.3,0.7,0.5,1c0.6,1.3,1.1,2.6,1.6,3.9c0.1,0.4,0.3,0.7,0.4,1.1l2.7-1
		c-0.6-1.2-1.1-2.3-1.7-3.4C234.1,291.3,233.7,290.5,233.3,289.7z"/>
	<path class="st1" d="M230.7,284.5c-0.1-0.1-0.1-0.2-0.2-0.4l-2.3,0.8c0.5,0.9,1,1.8,1.4,2.8c0.4,0.9,0.9,1.9,1.3,2.8l2.4-0.9
		c-0.2-0.5-0.5-1-0.7-1.5C231.9,286.9,231.3,285.7,230.7,284.5z"/>
	<path class="st1" d="M163.8,310.9c-0.2-0.6-0.3-1.3-0.4-1.9l-2.3,0.8c0.1,0.2,0.1,0.4,0.2,0.6c0.3,1.4,0.7,2.9,1.1,4.4
		c0.1,0.3,0.2,0.7,0.3,1l2.3-0.9C164.5,313.6,164.1,312.2,163.8,310.9z"/>
	<path class="st1" d="M162.5,302.8l-2.8,1c0.2,0.7,0.3,1.4,0.5,2.2c0.3,1.1,0.6,2.4,0.9,3.7l2.3-0.8c-0.2-0.8-0.3-1.6-0.5-2.4
		C162.7,305.3,162.5,304,162.5,302.8z"/>
	<path class="st1" d="M227.7,278.7l-2.8,1c0.1,0.1,0.2,0.3,0.3,0.4c0.8,1.1,1.7,2.4,2.5,3.8c0.2,0.3,0.4,0.7,0.5,1l2.3-0.8
		c-0.6-1.2-1.2-2.3-1.7-3.3C228.4,280,228.1,279.4,227.7,278.7z"/>
	<path class="st1" d="M173.2,295.3c0,0-1-0.6-2.9-1.6l-1.5,0.5C170,294.3,171.5,294.7,173.2,295.3z"/>
	<path class="st1" d="M213,278c-0.7,1.9-1.1,2.9-1.1,2.9c0.6-1.1,1.3-2,1.9-2.8c0.3-0.3,0.5-0.6,0.8-0.8l-1.5,0.5
		C213,277.9,213,278,213,278z"/>
	<path class="st1" d="M226.9,277.1c-0.8-1.5-1.4-2.7-1.9-3.6c0,0,0,0,0-0.1l-6.1,2.3l2.1,0.4c1.4,0.7,2.7,2,4,3.7l2.8-1
		C227.4,278.1,227.2,277.6,226.9,277.1z"/>
	<path class="st1" d="M162.8,298.5c0.2-1,0.6-1.8,1.2-2.5l-5.6,2.1c0.2,1,0.5,2.2,0.8,3.8c0.1,0.6,0.3,1.3,0.5,2l2.8-1
		c0-0.1,0-0.3,0-0.4C162.4,301,162.5,299.7,162.8,298.5z"/>
	<path class="st1" d="M225.2,270.4c0.5-0.7,0.9-1.7,1.4-2.9c0.1-0.2,0.2-0.5,0.3-0.8l-11.3,4.2c-0.1,0.3-0.2,0.7-0.4,1
		c-0.4,1.1-0.8,2.1-1.1,3.1c-0.4,1.1-0.8,2.1-1.1,3l1.5-0.5c1-1,2.1-1.6,3.1-1.8l1.3,0.2l6.1-2.3c-0.6-1.2-1-1.9-1-1.9
		C224.4,271.5,224.8,271.1,225.2,270.4z"/>
	<path class="st1" d="M163.8,290.1l-11.3,4.2c2.6,1.5,4.5,2.2,5.4,1.8c0,0,0.1,0.6,0.4,1.7c0,0.1,0.1,0.2,0.1,0.4l5.6-2.1
		c0.3-0.4,0.7-0.8,1.1-1c0.9-0.6,2.2-0.9,3.8-0.8l1.5-0.5c-1.1-0.6-2.5-1.4-4.2-2.3C165.4,291,164.6,290.5,163.8,290.1z"/>
	<path class="st1" d="M157.6,286.5l-10.8,4c0.9,0.7,1.9,1.3,2.7,1.9c1.1,0.7,2.1,1.3,3,1.9l11.3-4.2
		C161.9,289,159.8,287.8,157.6,286.5z"/>
	<path class="st1" d="M228.8,260.1l-10.8,4c-0.2,0.6-0.4,1.2-0.6,1.8c-0.4,1-0.7,2-1,2.9c-0.2,0.7-0.5,1.4-0.7,2l11.3-4.2
		c0.5-1.5,1.1-3.2,1.6-5.2C228.6,261,228.7,260.6,228.8,260.1z"/>
	<path class="st1" d="M151.7,283l-10.1,3.7c0.3,0.2,0.6,0.4,0.9,0.7c1.5,1.1,2.9,2.2,4.3,3.1l10.8-4c-0.2-0.1-0.5-0.3-0.7-0.4
		C155.2,285.1,153.5,284.1,151.7,283z"/>
	<path class="st1" d="M230.2,253.9l-10.1,3.7c-0.3,0.9-0.6,1.7-0.9,2.6c-0.3,1-0.6,1.9-1,2.8c-0.1,0.4-0.3,0.7-0.4,1.1l10.8-4
		c0.4-1.6,0.8-3.3,1.2-5.1C230.1,254.6,230.2,254.3,230.2,253.9z"/>
	<path class="st1" d="M231.2,249c0.1-0.3,0.1-0.7,0.2-1l-9.2,3.4c-0.4,1.1-0.7,2.3-1.1,3.4c-0.3,0.9-0.6,1.8-0.9,2.7
		c0,0.1,0,0.1-0.1,0.2l10.1-3.7C230.6,252.3,230.9,250.7,231.2,249z"/>
	<path class="st1" d="M146,279.5l-9.2,3.4c1.6,1.3,3.2,2.6,4.8,3.8l10.1-3.7c-1.1-0.7-2.2-1.3-3.3-2
		C147.6,280.5,146.8,280,146,279.5z"/>
	<path class="st1" d="M232.5,242.2l-8.4,3.1c-0.6,1.9-1.1,3.8-1.7,5.6c-0.1,0.2-0.1,0.3-0.2,0.5l9.2-3.4c0.3-1.5,0.6-3.1,0.9-4.7
		C232.4,242.9,232.4,242.5,232.5,242.2z"/>
	<path class="st1" d="M132.3,279.3c1.4,1.1,2.7,2.2,4.1,3.3c0.2,0.1,0.3,0.3,0.5,0.4l9.2-3.4c-1.8-1.1-3.5-2.2-5.4-3.4L132.3,279.3z
		"/>
	<path class="st1" d="M140.4,276c-1.6-1-3.2-2.1-4.8-3.2l-7.6,2.8c0.9,0.8,1.8,1.5,2.7,2.2c0.6,0.5,1.1,0.9,1.6,1.3l8.4-3.1
		C140.6,276.1,140.5,276,140.4,276z"/>
	<path class="st1" d="M233.4,236.6l-7.7,2.8c-0.4,1.6-0.9,3.1-1.3,4.6c-0.1,0.4-0.2,0.8-0.4,1.2l8.4-3.1c0.3-1.5,0.5-2.9,0.8-4.4
		C233.3,237.4,233.4,237,233.4,236.6z"/>
	<path class="st1" d="M234.3,231.3l-7,2.6c-0.3,1.3-0.7,2.6-1,3.8c-0.2,0.6-0.3,1.2-0.5,1.8l7.7-2.8c0.2-1.4,0.5-2.8,0.7-4.2
		C234.2,232.1,234.3,231.7,234.3,231.3z"/>
	<path class="st1" d="M130.8,269.6l-7,2.6c0.5,0.4,1,0.8,1.5,1.2c0.9,0.8,1.8,1.5,2.7,2.3l7.6-2.8c-0.8-0.5-1.6-1.1-2.4-1.6
		C132.4,270.7,131.6,270.1,130.8,269.6z"/>
	<path class="st1" d="M284.2,199.1c0.7,0.9,1.4,1.8,1.8,2.6c0.4,0.6,0.6,1.2,0.8,1.7c0.3-0.7,0.2-1.5-0.1-2.5
		c-0.3-0.9-0.9-1.8-1.6-2.9c-0.5-0.8-1.2-1.6-1.9-2.4c-0.6-0.7-1.3-1.5-2-2.2c-0.1-0.1-0.1-0.1-0.2-0.2l1.4,3.9
		C283.1,197.7,283.7,198.4,284.2,199.1z"/>
	<path class="st1" d="M173.3,252.3c1.6-0.5,3.2-1.1,4.8-2.1c0.1-0.1,0.3-0.1,0.4-0.2c2-0.2,3.9-0.8,5.6-1.6c1.3-0.6,2.5-1.4,3.5-2.2
		c0.9-0.7,1.8-1.5,2.6-2.3c0.5-0.5,1-1.1,1.4-1.6l-28.1,10.4C166.7,253.2,170,253.3,173.3,252.3z"/>
	<path class="st1" d="M234.9,227.3c0.1-0.4,0.1-0.8,0.2-1.2l-6.4,2.4c-0.3,1.1-0.5,2.1-0.8,3.2c-0.2,0.7-0.4,1.5-0.6,2.2l7-2.6
		C234.5,230,234.7,228.6,234.9,227.3z"/>
	<path class="st1" d="M126.2,266.4l-6.4,2.4c0.1,0.1,0.2,0.2,0.3,0.3c1.2,1,2.5,2.1,3.7,3.2l7-2.6c-1.4-1-2.8-1.9-4.2-2.9
		C126.4,266.6,126.3,266.5,126.2,266.4z"/>
	<path class="st1" d="M116,265.4c1.2,1.1,2.5,2.2,3.8,3.3l6.4-2.4c-1.5-1-2.9-2.1-4.3-3.1L116,265.4z"/>
	<path class="st1" d="M277.1,189.3c-0.7-0.6-1.4-1.2-2.1-1.9c-0.7-0.6-1.3-1.2-2-1.8c-0.3-0.3-0.7-0.6-1-0.9l1.3,3.5
		c0.2,0.2,0.4,0.4,0.7,0.6c0.7,0.6,1.4,1.2,2.1,1.8c0.7,0.7,1.4,1.3,2.1,1.9c0.7,0.7,1.4,1.4,2.1,2c0.7,0.7,1.4,1.5,2.1,2.1
		c0.1,0.1,0.2,0.2,0.3,0.3l-1.4-3.9c-0.6-0.6-1.2-1.2-1.9-1.9C278.5,190.6,277.8,190,277.1,189.3z"/>
	<path class="st1" d="M235.9,221.1l-5.9,2.2c-0.2,0.9-0.4,1.8-0.6,2.6c-0.2,0.9-0.4,1.7-0.6,2.6l6.4-2.4c0.2-1.3,0.4-2.5,0.6-3.8
		C235.7,221.9,235.8,221.5,235.9,221.1z"/>
	<path class="st1" d="M193.8,239.1c0.5-0.8,1-1.6,1.4-2.4c0.1-0.3,0.2-0.5,0.4-0.8l-39.3,14.5c2.2,0.9,4.6,1.7,7.1,2.1l28.1-10.4
		c0.2-0.2,0.4-0.5,0.6-0.7C192.7,240.7,193.3,239.9,193.8,239.1z"/>
	<path class="st1" d="M65.8,285.2c-0.1-0.3-0.2-0.7-0.3-1.1l-0.6,0.2C65.1,284.7,65.4,285,65.8,285.2z"/>
	<path class="st1" d="M64.9,279.7l-1.3,0.5c0.1,0.5,0.1,1,0.2,1.4c0.2,1.2,0.6,2.1,1.1,2.7l0.6-0.2c-0.2-0.7-0.3-1.4-0.4-2.3
		C65,281.2,64.9,280.4,64.9,279.7z"/>
	<path class="st1" d="M236.6,216.2l-5.5,2c-0.2,0.7-0.3,1.5-0.5,2.2c-0.2,0.9-0.4,1.9-0.6,2.8l5.9-2.2c0.2-1.2,0.4-2.4,0.5-3.6
		C236.4,217,236.5,216.6,236.6,216.2z"/>
	<path class="st1" d="M197.4,232.1c0.2-0.5,0.4-1.1,0.6-1.6l-47.1,17.4c0.5,0.3,1.1,0.6,1.7,0.9c1.2,0.6,2.4,1.2,3.8,1.7l39.3-14.5
		c0.3-0.5,0.6-1.1,0.8-1.6C196.7,233.6,197.1,232.8,197.4,232.1z"/>
	<path class="st1" d="M271,183.9c-0.7-0.6-1.3-1.1-2-1.7c-0.7-0.5-1.3-1.1-2-1.6c-0.7-0.5-1.3-1-2-1.6c-0.4-0.3-0.9-0.7-1.3-1
		l1.2,3.3c0.3,0.2,0.6,0.5,0.9,0.7c0.7,0.5,1.3,1.1,2,1.6c0.7,0.6,1.4,1.1,2,1.7c0.7,0.6,1.4,1.1,2,1.7c0.5,0.4,0.9,0.8,1.4,1.2
		l-1.3-3.5C271.6,184.5,271.3,184.2,271,183.9z"/>
	<path class="st1" d="M117.8,260.2l-5.5,2c0.9,0.8,1.9,1.7,2.9,2.5c0.3,0.2,0.5,0.5,0.8,0.7l5.9-2.2c-0.5-0.3-0.9-0.7-1.4-1
		C119.6,261.5,118.7,260.8,117.8,260.2z"/>
	<path class="st1" d="M261.2,176c-0.6-0.5-1.3-1-1.9-1.4c-0.6-0.5-1.2-0.9-1.8-1.4c-0.5-0.4-1-0.8-1.5-1.2l1.2,3.2
		c0.3,0.3,0.7,0.5,1,0.8c0.6,0.5,1.3,1,1.9,1.4c0.6,0.5,1.3,1,1.9,1.5c0.6,0.5,1.3,1,1.9,1.5c0.4,0.3,0.7,0.6,1.1,0.9l-1.2-3.3
		c-0.2-0.2-0.4-0.3-0.6-0.5C262.4,177,261.8,176.5,261.2,176z"/>
	<path class="st1" d="M113.9,257.1l-5.2,1.9c0.5,0.5,1.1,1,1.7,1.5c0.6,0.5,1.3,1.1,1.9,1.7l5.5-2c-0.9-0.7-1.8-1.4-2.7-2.2
		C114.7,257.7,114.3,257.4,113.9,257.1z"/>
	<path class="st1" d="M65,275.2l-1.6,0.6c0,0.6,0,1.3,0,1.8c0,0.9,0.1,1.8,0.2,2.6l1.3-0.5c0-0.6,0-1.2,0-1.8
		C64.9,277,65,276.1,65,275.2z"/>
	<path class="st1" d="M237.2,211.5l-5.2,1.9c-0.1,0.6-0.2,1.3-0.3,1.9c-0.2,0.9-0.4,1.9-0.6,2.9l5.5-2c0.2-1.2,0.3-2.4,0.5-3.5
		C237.1,212.3,237.2,211.9,237.2,211.5z"/>
	<path class="st1" d="M199,227.5c0.2-0.8,0.4-1.5,0.6-2.1l-53.3,19.7c1.2,0.8,2.7,1.8,4.5,2.8l47.1-17.4c0.1-0.2,0.2-0.5,0.3-0.7
		C198.5,229,198.8,228.2,199,227.5z"/>
	<path class="st1" d="M237.8,207l-5.1,1.9c-0.1,0.6-0.2,1.2-0.3,1.8c-0.1,0.9-0.3,1.9-0.5,2.9l5.2-1.9c0.2-1.2,0.3-2.3,0.5-3.4
		C237.7,207.7,237.8,207.4,237.8,207z"/>
	<path class="st1" d="M65.1,274.1c0.1-1.1,0.2-2.2,0.3-3.4l-1.8,0.7c-0.1,0.8-0.1,1.7-0.2,2.5c0,0.7-0.1,1.3-0.1,2l1.6-0.6
		C65.1,274.8,65.1,274.5,65.1,274.1z"/>
	<path class="st1" d="M253.8,170.5c-0.6-0.4-1.2-0.9-1.8-1.3c-0.6-0.4-1.2-0.8-1.7-1.3c-0.6-0.4-1.1-0.8-1.7-1.2
		c-0.1,0-0.1-0.1-0.2-0.1l1.1,3.1c0.4,0.3,0.9,0.6,1.3,1c0.6,0.4,1.2,0.9,1.8,1.3c0.6,0.4,1.2,0.9,1.8,1.3c0.6,0.4,1.2,0.9,1.8,1.4
		c0.3,0.2,0.5,0.4,0.8,0.6l-1.2-3.2c-0.1-0.1-0.2-0.1-0.3-0.2C255,171.4,254.4,171,253.8,170.5z"/>
	<path class="st1" d="M200.2,223.1c0-0.2,0.1-0.4,0.1-0.4c0.2-0.5,0.4-1.1,0.6-1.8c0-0.1,0-0.2,0.1-0.3l-58.7,21.7
		c0.6,0.5,1.2,0.9,1.8,1.2c0,0,0.6,0.5,1.6,1.2c0.2,0.1,0.4,0.3,0.6,0.4l53.3-19.7c0,0,0-0.1,0-0.1
		C199.9,224.2,200.1,223.5,200.2,223.1z"/>
	<path class="st1" d="M105.3,256c0.2,0.1,0.3,0.3,0.5,0.4c0.9,0.8,1.9,1.7,2.9,2.6l5.2-1.9c-1.2-1-2.4-2-3.6-3L105.3,256z"/>
	<path class="st1" d="M201.3,216.6c0-0.1,0-0.2,0-0.3l-62.2,23c0.5,0.6,1,1.2,1.6,1.7c0.5,0.5,1,1,1.6,1.4l58.7-21.7
		c0.1-0.6,0.2-1.2,0.3-1.9C201.3,218.1,201.3,217.4,201.3,216.6z"/>
	<path class="st1" d="M238.4,202.5l-5.1,1.9c-0.1,0.6-0.1,1.1-0.2,1.7c-0.1,0.9-0.2,1.8-0.4,2.7l5.1-1.9c0.2-1.2,0.3-2.3,0.4-3.3
		C238.3,203.3,238.3,202.9,238.4,202.5z"/>
	<path class="st1" d="M107.1,251.1L102,253c1,0.9,2.1,1.9,3.3,3l5.1-1.9c-0.1-0.1-0.1-0.1-0.2-0.2C109.1,253,108.1,252,107.1,251.1z
		"/>
	<path class="st1" d="M245.3,164.4c-0.6-0.4-1.1-0.8-1.6-1.1c-0.6-0.4-1.1-0.8-1.6-1.1c-0.3-0.2-0.5-0.4-0.8-0.6l1.1,3
		c0.1,0,0.1,0.1,0.2,0.1c0.5,0.4,1,0.7,1.6,1.1c0.5,0.4,1.1,0.8,1.6,1.2c0.5,0.4,1.1,0.8,1.7,1.2c0.6,0.4,1.1,0.8,1.7,1.2
		c0.1,0.1,0.3,0.2,0.4,0.3l-1.1-3.1c-0.5-0.4-1-0.7-1.5-1.1C246.4,165.1,245.9,164.7,245.3,164.4z"/>
	<path class="st1" d="M65.9,266.8c0-0.2,0.1-0.4,0.1-0.5l-1.9,0.7c-0.1,1.1-0.3,2.1-0.4,3.1c0,0.4-0.1,0.8-0.1,1.2l1.8-0.7
		c0-0.1,0-0.2,0-0.3C65.6,269.3,65.7,268.1,65.9,266.8z"/>
	<path class="st1" d="M66.6,262l-1.9,0.7c0,0.1,0,0.2-0.1,0.3c-0.2,1.2-0.3,2.4-0.5,3.5c0,0.2,0,0.3-0.1,0.5l1.9-0.7
		c0.1-1,0.3-2,0.4-3C66.5,262.9,66.6,262.4,66.6,262z"/>
	<path class="st1" d="M201.1,212.4C201.1,212.3,201.1,212.3,201.1,212.4l-64.4,23.7c0.4,0.5,0.7,1.1,1.1,1.5
		c0.4,0.6,0.9,1.1,1.3,1.6l62.2-23c0-0.6,0-1.2,0-1.8C201.2,213.8,201.2,213.1,201.1,212.4z"/>
	<path class="st1" d="M105.9,250c-0.6-0.6-1.3-1.2-1.8-1.8l-5.2,1.9c0.6,0.6,1.5,1.3,2.5,2.3c0.2,0.2,0.4,0.4,0.7,0.6l5.1-1.9
		C106.7,250.7,106.3,250.4,105.9,250z"/>
	<path class="st1" d="M239,160c-0.6-0.4-1.1-0.7-1.5-1c-0.7-0.5-1.2-0.8-1.5-1c-0.1-0.1-0.2-0.1-0.2-0.1c0.4-0.5,0.5-1.4,0.2-2.6
		c-0.1-0.6-0.3-1.3-0.5-2c-0.2-0.6-0.4-1.2-0.7-1.8c-0.2-0.5-0.5-1.1-0.7-1.7c-0.2-0.5-0.5-1.1-0.7-1.6c-0.2-0.5-0.5-1-0.8-1.6
		c-0.2-0.5-0.5-1-0.8-1.5c-0.2-0.5-0.5-1-0.8-1.5c-0.2-0.5-0.5-0.9-0.8-1.4c-0.2-0.5-0.5-0.9-0.7-1.4c-0.2-0.4-0.5-0.9-0.7-1.3
		c-0.2-0.4-0.5-0.9-0.7-1.3c-0.2-0.4-0.5-0.8-0.7-1.3c-0.2-0.4-0.5-0.8-0.7-1.2c-0.2-0.3-0.4-0.6-0.5-0.9l10,27.1l0.7-1
		c0,0,0.4,0.2,1,0.7c0.4,0.3,0.9,0.6,1.5,1.1c0.5,0.3,1,0.7,1.6,1.1c0.4,0.3,0.9,0.6,1.4,1l-1.1-3c-0.2-0.2-0.5-0.4-0.7-0.5
		C240,160.7,239.5,160.3,239,160z"/>
	<path class="st1" d="M238.9,198.3l-5.2,1.9c0,0.6-0.1,1.2-0.1,1.8c-0.1,0.8-0.2,1.6-0.2,2.5l5.1-1.9c0.2-1.3,0.3-2.4,0.4-3.3
		C238.9,198.9,238.9,198.6,238.9,198.3z"/>
	<path class="st1" d="M101.3,245.2l-4.7,1.7c0.2,0.6,0.4,1.1,0.7,1.6c0.1,0.2,0.2,0.3,0.3,0.5c0,0,0.4,0.4,1.2,1.1l5.2-1.9
		c-0.6-0.6-1.2-1.3-1.8-1.9C101.9,245.9,101.6,245.6,101.3,245.2z"/>
	<path class="st1" d="M67.4,257.8l-2,0.7c-0.1,0.4-0.1,0.7-0.2,1.1c-0.2,1-0.3,2.1-0.5,3.1l1.9-0.7c0.1-0.7,0.2-1.4,0.3-2.1
		C67.1,259.2,67.2,258.5,67.4,257.8z"/>
	<path class="st1" d="M225.3,133.1c-0.2-0.4-0.5-0.8-0.7-1.2c-0.2-0.4-0.4-0.8-0.7-1.1c-0.2-0.4-0.4-0.7-0.7-1.1
		c-0.2-0.4-0.4-0.7-0.7-1.1c-0.2-0.4-0.4-0.7-0.6-1.1c-0.2-0.3-0.4-0.7-0.6-1c-0.2-0.3-0.4-0.7-0.6-1c-0.2-0.3-0.4-0.7-0.6-1
		c-0.2-0.3-0.4-0.6-0.6-1c-0.2-0.3-0.4-0.6-0.6-0.9c-0.2-0.3-0.4-0.6-0.6-0.9c-0.2-0.3-0.4-0.6-0.6-0.9c-0.2-0.3-0.4-0.6-0.6-0.9
		c-0.2-0.3-0.4-0.6-0.5-0.9c-0.2-0.3-0.4-0.6-0.5-0.8c-0.2-0.3-0.4-0.6-0.5-0.8c-0.2-0.3-0.3-0.5-0.5-0.8c-0.2-0.3-0.3-0.5-0.5-0.8
		c-0.2-0.3-0.3-0.5-0.5-0.8c-0.1-0.1-0.1-0.2-0.2-0.2l17.3,46.9l0.6,1.2l0.9,1.7l0.6,1.1l2.9-4.1l-10-27.1c-0.1-0.1-0.1-0.2-0.2-0.3
		C225.8,133.9,225.6,133.5,225.3,133.1z"/>
	<path class="st1" d="M200.6,208.5l-66,24.4c0.3,0.6,0.7,1.1,1,1.6c0.4,0.5,0.7,1.1,1.1,1.6l64.4-23.8c-0.1-0.6-0.1-1.3-0.2-2
		C200.8,209.7,200.7,209.1,200.6,208.5z"/>
	<path class="st1" d="M238.9,195.6c-0.1-0.4-0.2-0.7-0.4-1.1l-4.6,1.7c0,0.6,0,1.3,0,1.9c0,0.7-0.1,1.4-0.1,2.1l5.2-1.9
		c0.1-1,0.2-1.6,0.2-1.6C239.1,196.3,239,195.9,238.9,195.6z"/>
	<path class="st1" d="M197.4,67.8L197.4,67.8C197.4,67.8,197.4,67.8,197.4,67.8L197.4,67.8z"/>
	<path class="st1" d="M68.1,253.7l-2,0.7c-0.1,0.6-0.2,1.2-0.3,1.9c-0.1,0.8-0.3,1.5-0.4,2.3l2-0.7c0.1-0.4,0.1-0.8,0.2-1.2
		C67.8,255.6,67.9,254.6,68.1,253.7z"/>
	<path class="st1" d="M237.8,193.3c-0.4-0.6-0.8-1.2-1.4-1.8c-0.3-0.3-0.5-0.6-0.8-0.8c-0.5,0.9-1.2,1.6-2.2,1.9l-3.8,1.4
		c0.6,0.1,1.1,0.3,1.6,0.4c1.2,0.3,2.1,0.5,2.4,0.5c0.1,0,0.2,0,0.2,0c0,0.4,0,0.9,0,1.4l4.6-1.7
		C238.3,194.1,238.1,193.7,237.8,193.3z"/>
	<path class="st1" d="M101.3,243c0.4-0.6,1-1.3,1.7-2.3l-6.7,2.5c0,0.7,0,1.4,0.1,2c0.1,0.6,0.2,1.2,0.4,1.7l4.7-1.7
		c-0.3-0.3-0.6-0.7-0.9-1C100.4,244.2,100.8,243.8,101.3,243z"/>
	<path class="st1" d="M200.5,208.2c-0.1-0.7-0.2-1.3-0.4-2c-0.1-0.4-0.2-0.8-0.3-1.3l-67.1,24.8c0.3,0.6,0.6,1.2,1,1.8
		c0.3,0.5,0.6,1,0.8,1.4l66-24.4C200.5,208.4,200.5,208.3,200.5,208.2z"/>
	<path class="st1" d="M213.1,113.6c-0.2-0.2-0.3-0.5-0.5-0.7c-0.2-0.4-0.5-0.7-0.7-1c-0.8-1.2-1.4-2.2-1.9-2.9
		c-0.6-0.9-0.9-1.4-0.9-1.4s-0.3-0.9-1.1-2c-0.3-0.4-0.8-0.8-1.3-1.2c-0.3-0.2-0.7-0.5-1-0.7c-0.2-0.1-0.5-0.2-0.8-0.4l9.2,25
		l0.1,0.1l0.5,1l0.5,1l0.5,1.1l0.6,1.1l0.6,1.1l0.6,1.1l0.6,1.1l0.6,1.2l0.6,1.2l0.6,1.2l0.6,1.2l0.7,1.3l0.7,1.3l0.7,1.3l0.7,1.4
		l0.7,1.4l0.7,1.4l0.7,1.4l0.8,1.5l0.8,1.5l0.8,1.5l0.8,1.6l0.8,1.6l0.8,1.6l0.9,1.7l0.2,0.5L214,114.8c-0.1-0.2-0.2-0.3-0.3-0.5
		C213.5,114.1,213.3,113.8,213.1,113.6z"/>
	<path class="st1" d="M203.9,103c-0.3-0.1-0.5-0.1-0.8-0.2c-0.2,0-0.5-0.1-0.8-0.1c-0.2,0-0.5,0-0.7,0c-0.2,0-0.5,0-0.7,0
		c-0.2,0-0.4,0-0.7,0c-0.1,0-0.1,0-0.2,0l1.4,3.8c0,0,0.1-0.1,0.1-0.1c0.2-0.2,0.4-0.3,0.5-0.4c0.3-0.2,0.4-0.3,0.4-0.3l0.6,1.2
		l2.2,4.3l0.3,0.7l0.3,0.7l0.4,0.7l0.4,0.7l0.4,0.7l0.4,0.7l0.4,0.8l0.4,0.8l0.4,0.8l0.4,0.8l0.4,0.8l0.4,0.8l0.4,0.8l0.4,0.9
		l0.5,0.9l0.5,0.9l0.5,0.9l0.5,0.9l0.5,1l0.5,1l0.5,0.9l-9.2-25c0,0-0.1,0-0.1-0.1C204.5,103.2,204.2,103.1,203.9,103z"/>
	<polygon class="st1" points="178.4,35.4 168.8,8.4 169.2,19.4 177.2,41.1 	"/>
	<path class="st1" d="M199.3,202.3c-0.1-0.2-0.1-0.5-0.2-0.7l-67.9,25.1c0.3,0.7,0.7,1.3,1,1.9c0.2,0.4,0.4,0.8,0.6,1.2l67.1-24.8
		c-0.1-0.2-0.1-0.5-0.2-0.7C199.6,203.6,199.4,202.9,199.3,202.3z"/>
	<path class="st1" d="M105.2,237.8c0.5-0.7,1-1.4,1.5-2.1l-10,3.7c-0.2,1-0.4,1.9-0.4,2.8c0,0.4,0,0.7,0,1.1l6.7-2.5
		c0.1-0.1,0.2-0.3,0.3-0.4C103.8,239.6,104.5,238.7,105.2,237.8z"/>
	<path class="st1" d="M68.8,250.1c0-0.1,0.1-0.3,0.1-0.4l-2,0.8c-0.2,0.9-0.3,1.7-0.5,2.6c-0.1,0.5-0.2,0.9-0.3,1.4l2-0.7
		c0-0.1,0-0.2,0.1-0.4C68.4,252.2,68.6,251.1,68.8,250.1z"/>
	<path class="st1" d="M233.3,188.5c-0.5-0.4-1.1-0.8-1.7-1.2c-0.2-0.1-0.5-0.3-0.7-0.4c0,1.6-1,3.2-2.6,3.8l-4.7,1.7
		c0.3,0.1,0.6,0.1,0.9,0.2c0.8,0.2,1.5,0.4,2.2,0.5c0.8,0.2,1.6,0.4,2.3,0.5c0.3,0.1,0.5,0.1,0.8,0.2l3.8-1.4c1-0.4,1.7-1.1,2.2-1.9
		c-0.2-0.2-0.5-0.5-0.7-0.7C234.4,189.4,233.8,189,233.3,188.5z"/>
	<path class="st1" d="M108.8,232.7c0.5-0.6,0.9-1.3,1.4-1.9l-12.3,4.6c-0.1,0.4-0.3,0.8-0.4,1.1c-0.3,1-0.6,1.9-0.8,2.8
		c0,0,0,0.1,0,0.1l10-3.7c0.1-0.2,0.2-0.3,0.3-0.5C107.6,234.4,108.2,233.6,108.8,232.7z"/>
	<path class="st1" d="M198.3,198.4c0-0.1,0-0.1-0.1-0.2l-68.6,25.4c0.3,0.7,0.7,1.4,1,2.1c0.2,0.3,0.3,0.6,0.5,0.9l67.9-25.1
		c-0.1-0.4-0.2-0.8-0.3-1.2C198.6,199.7,198.5,199.1,198.3,198.4z"/>
	<path class="st1" d="M230.9,186.9c-0.4-0.2-0.7-0.5-1.1-0.7c-0.6-0.3-1.2-0.7-1.8-1c-0.6-0.3-1.2-0.6-1.8-0.9
		c-0.2-0.1-0.4-0.2-0.7-0.3c0.7,2-0.3,4.2-2.3,5l-5.5,2c0.1,0,0.2,0.1,0.3,0.1c0.7,0.2,1.4,0.3,2.1,0.5c0.7,0.2,1.4,0.4,2.1,0.5
		c0.4,0.1,0.9,0.2,1.3,0.3l4.7-1.7C229.9,190.1,230.9,188.6,230.9,186.9z"/>
	<path class="st1" d="M69.8,245.7l-2,0.8c0,0.1,0,0.1,0,0.1c-0.2,1-0.4,2.1-0.7,3.1c0,0.2-0.1,0.4-0.1,0.6l2-0.8
		c0.2-0.9,0.4-1.8,0.6-2.7C69.6,246.5,69.7,246.1,69.8,245.7z"/>
	<polygon class="st1" points="175.5,48.8 177.2,41.1 169.2,19.4 169.6,32.9 	"/>
	<path class="st1" d="M198.9,103c-0.2,0-0.4,0.1-0.6,0.1c-0.2,0-0.4,0.1-0.6,0.1c-0.2,0-0.4,0.1-0.6,0.2c-0.2,0.1-0.4,0.1-0.6,0.2
		c-0.2,0.1-0.4,0.1-0.5,0.2c-0.1,0-0.1,0.1-0.2,0.1l2.1,5.6c0.1-0.1,0.1-0.1,0.2-0.2c0.2-0.1,0.3-0.3,0.5-0.4
		c0.2-0.1,0.3-0.3,0.5-0.4c0.2-0.1,0.3-0.3,0.5-0.4c0.2-0.1,0.3-0.3,0.5-0.4c0.2-0.1,0.3-0.3,0.5-0.4c0.2-0.1,0.3-0.3,0.5-0.4
		c0.1-0.1,0.3-0.2,0.4-0.3l-1.4-3.8c-0.2,0-0.3,0-0.5,0.1C199.3,102.9,199.1,102.9,198.9,103z"/>
	<path class="st1" d="M70.6,241.9l-2.1,0.8c-0.1,0.3-0.1,0.6-0.2,0.9c-0.2,1-0.4,1.9-0.6,2.9l2-0.8c0.1-0.6,0.3-1.2,0.4-1.9
		C70.3,243.2,70.4,242.6,70.6,241.9z"/>
	<path class="st1" d="M112.3,227.8c0.4-0.6,0.8-1.2,1.2-1.8l-14,5.2c-0.4,0.8-0.7,1.7-1,2.5c-0.2,0.5-0.4,1.1-0.6,1.6l12.3-4.6
		c0.1-0.2,0.3-0.4,0.4-0.5C111.2,229.4,111.7,228.6,112.3,227.8z"/>
	<path class="st1" d="M195,104.1c-0.2,0.1-0.3,0.1-0.5,0.2c-0.2,0.1-0.3,0.1-0.5,0.2c-0.2,0.1-0.3,0.1-0.5,0.2
		c-0.1,0.1-0.3,0.1-0.5,0.2c-0.1,0.1-0.3,0.1-0.4,0.2c-0.1,0.1-0.3,0.1-0.4,0.2c-0.1,0-0.1,0.1-0.2,0.1l2.5,6.8
		c0.4-0.4,0.9-0.7,1.3-1.1c0.6-0.5,1.2-1,1.8-1.5c0.1-0.1,0.2-0.1,0.3-0.2l-2.1-5.6c-0.1,0-0.2,0.1-0.3,0.1
		C195.4,104,195.2,104,195,104.1z"/>
	<polygon class="st1" points="173.9,56.3 175.5,48.8 169.6,32.9 170.1,46 	"/>
	<path class="st1" d="M222.6,182.7c-0.6-0.3-1.2-0.5-1.8-0.7c-0.2-0.1-0.3-0.1-0.5-0.2l0.3,0.7c0.7,1.9-0.3,4.1-2.2,4.8l-6.2,2.3
		c0.6,0.2,1.3,0.3,1.9,0.5c0.7,0.2,1.3,0.3,2,0.5c0.6,0.1,1.1,0.3,1.7,0.4l5.5-2c2-0.7,3-3,2.3-5c-0.4-0.2-0.8-0.4-1.1-0.5
		C223.8,183.2,223.2,182.9,222.6,182.7z"/>
	<path class="st1" d="M197.3,195l-69.1,25.5c0.4,0.8,0.7,1.6,1.1,2.4c0.1,0.2,0.2,0.4,0.3,0.6l68.6-25.4c-0.1-0.5-0.3-1.1-0.5-1.6
		C197.6,196.1,197.5,195.6,197.3,195z"/>
	<path class="st1" d="M191.9,105.5c-0.1,0.1-0.3,0.1-0.4,0.2c-0.1,0.1-0.3,0.1-0.4,0.2c-0.1,0.1-0.3,0.1-0.4,0.2
		c-0.1,0.1-0.3,0.1-0.4,0.2c-0.1,0.1-0.2,0.1-0.4,0.2c-0.1,0.1-0.2,0.1-0.4,0.2c-0.1,0.1-0.2,0.1-0.4,0.2c-0.1,0.1-0.2,0.1-0.3,0.2
		c-0.1,0.1-0.2,0.1-0.3,0.2l2.8,7.6c0.7-0.6,1.5-1.3,2.2-1.9c0.4-0.3,0.7-0.6,1.1-0.9l-2.5-6.8C192,105.5,191.9,105.5,191.9,105.5z"
		/>
	<path class="st1" d="M217.2,180.6c-0.6-0.2-1.2-0.4-1.8-0.6c0,0-0.1,0-0.1,0l0.4,1c0.7,1.9-0.3,4-2.2,4.7l-6.8,2.5
		c0.5,0.1,1,0.3,1.5,0.4c0.6,0.2,1.2,0.3,1.9,0.5c0.6,0.2,1.3,0.3,1.9,0.5c0,0,0,0,0,0l6.2-2.3c1.9-0.7,2.9-2.9,2.2-4.8l-0.3-0.7
		c-0.4-0.2-0.9-0.3-1.3-0.5C218.4,181,217.8,180.8,217.2,180.6z"/>
	<path class="st1" d="M71.4,238.2l-2.1,0.8c-0.1,0.5-0.2,1-0.4,1.6c-0.2,0.7-0.3,1.4-0.5,2.1l2.1-0.8c0.1-0.3,0.2-0.7,0.2-1
		C71,240,71.2,239.1,71.4,238.2z"/>
	<polygon class="st1" points="172.3,63.5 173.9,56.3 170.1,46 170.5,58.7 	"/>
	<path class="st1" d="M115.5,223.1c0.4-0.5,0.7-1.1,1.1-1.6l-15.2,5.6c-0.2,0.5-0.5,1-0.7,1.4c-0.4,0.9-0.8,1.7-1.2,2.6
		c0,0,0,0.1-0.1,0.1l14-5.2c0.1-0.2,0.3-0.4,0.4-0.6C114.5,224.7,115,223.9,115.5,223.1z"/>
	<path class="st1" d="M196.7,193c-0.1-0.3-0.2-0.6-0.3-1L127,217.7c0.4,0.9,0.7,1.7,1.1,2.6c0.1,0.1,0.1,0.2,0.2,0.4l69.1-25.5
		c0-0.1-0.1-0.2-0.1-0.3C197.1,194.2,196.9,193.6,196.7,193z"/>
	<path class="st1" d="M212,178.8c-0.4-0.1-0.9-0.3-1.3-0.4l0.4,1.1c0.7,1.8-0.3,3.9-2.1,4.5l-7.2,2.7c0.4,0.1,0.8,0.2,1.2,0.4
		c0.6,0.2,1.1,0.3,1.7,0.5c0.6,0.2,1.2,0.3,1.8,0.5c0.1,0,0.2,0.1,0.3,0.1l6.8-2.5c1.9-0.7,2.8-2.8,2.2-4.7l-0.4-1
		c-0.5-0.2-1.1-0.4-1.6-0.5C213.2,179.2,212.6,179,212,178.8z"/>
	<path class="st1" d="M72.2,235.1c0-0.2,0.1-0.3,0.1-0.4l-2.1,0.8c-0.2,0.7-0.4,1.5-0.5,2.2c-0.1,0.4-0.2,0.9-0.3,1.4l2.1-0.8
		c0-0.1,0-0.2,0.1-0.3C71.7,236.9,71.9,236,72.2,235.1z"/>
	<path class="st1" d="M188.2,107.7c-0.1,0.1-0.2,0.1-0.3,0.2l0,0l-0.6,0.4l-1.2,0.8l-0.8,0.6l3,8.1c0.1-0.1,0.3-0.2,0.4-0.3
		c0.8-0.7,1.7-1.5,2.5-2.2c0.1-0.1,0.2-0.1,0.2-0.2l-2.8-7.6c0,0,0,0-0.1,0C188.4,107.5,188.3,107.6,188.2,107.7z"/>
	<path class="st1" d="M170.6,70.1l0.1,0.3c0-0.1,0.1-0.2,0.1-0.2c0.2-0.4,0.4-0.6,0.4-0.6s-0.1,0.1-0.3,0.3l1.4-6.3l-1.8-4.9
		l0.4,11.3C170.8,70,170.7,70.1,170.6,70.1z"/>
	<path class="st1" d="M118.6,218.6c0.3-0.5,0.6-1,0.9-1.4l-15.8,5.8c-0.1,0.2-0.3,0.4-0.4,0.6c-0.5,0.8-0.9,1.6-1.3,2.4
		c-0.2,0.3-0.4,0.7-0.5,1l15.2-5.6c0.1-0.2,0.3-0.4,0.5-0.7C117.6,220.1,118.1,219.3,118.6,218.6z"/>
	<path class="st1" d="M195.6,189.5c0-0.1-0.1-0.3-0.1-0.4l-69.7,25.8c0,0.1,0,0.1,0.1,0.2c0.4,0.9,0.7,1.7,1.1,2.6c0,0,0,0.1,0,0.1
		l69.4-25.7c-0.1-0.3-0.2-0.5-0.2-0.8C196,190.6,195.8,190,195.6,189.5z"/>
	<path class="st1" d="M121.3,214.2c0.2-0.4,0.5-0.8,0.7-1.2l-15.8,5.8c0,0,0,0,0,0.1c-0.5,0.8-0.9,1.5-1.4,2.3
		c-0.3,0.6-0.7,1.1-1,1.7l15.8-5.8c0.2-0.3,0.3-0.5,0.5-0.8C120.4,215.6,120.9,214.9,121.3,214.2z"/>
	<path class="st1" d="M194.5,186.2L124.7,212c0.1,0.1,0.1,0.3,0.2,0.4c0.3,0.8,0.6,1.6,1,2.3l69.7-25.8c-0.1-0.4-0.3-0.9-0.4-1.3
		C194.9,187.3,194.7,186.7,194.5,186.2z"/>
	<path class="st1" d="M183.9,110.7l-1.1,0.8l-0.7,0.5l3.2,8.5c0.3-0.2,0.5-0.5,0.7-0.7c0.7-0.7,1.5-1.4,2.2-2l-3-8.1l-0.3,0.2
		L183.9,110.7z"/>
	<path class="st1" d="M73.1,231.1l-2.1,0.8c0,0,0,0,0,0.1c-0.2,0.9-0.5,1.9-0.7,2.8c0,0.2-0.1,0.4-0.1,0.6l2.1-0.8
		c0.2-0.8,0.4-1.6,0.6-2.4C72.9,231.9,73,231.5,73.1,231.1z"/>
	<path class="st1" d="M170.6,70.2c-0.2,0.2-0.4,0.4-0.7,0.6c-0.2,0.2-0.4,0.4-0.7,0.6c-0.2,0.2-0.5,0.4-0.7,0.6
		c-0.2,0.2-0.4,0.4-0.7,0.5c-0.1,0.1-0.2,0.1-0.2,0.2l0.7,1.8c0.1-0.2,0.2-0.4,0.4-0.6c0.1-0.2,0.3-0.4,0.4-0.6
		c0.1-0.2,0.3-0.4,0.4-0.6c0.1-0.2,0.3-0.4,0.4-0.6c0.1-0.2,0.3-0.4,0.4-0.6c0.1-0.2,0.3-0.4,0.4-0.6c0.1-0.2,0.2-0.3,0.3-0.4
		L170.6,70.2C170.6,70.1,170.6,70.2,170.6,70.2z"/>
	<path class="st1" d="M74,227.7l-2,0.8c-0.1,0.2-0.1,0.5-0.2,0.7c-0.2,0.9-0.4,1.8-0.7,2.7l2.1-0.8c0.1-0.6,0.3-1.1,0.4-1.6
		C73.7,228.9,73.8,228.3,74,227.7z"/>
	<path class="st1" d="M180.6,113l-1,0.7l-0.6,0.4l3.3,9.1c0.3-0.2,0.5-0.5,0.8-0.7c0.7-0.7,1.4-1.3,2.1-2l-3.2-8.5l-0.4,0.3
		L180.6,113z"/>
	<path class="st1" d="M203.7,176.5c-0.5-0.1-1.1-0.3-1.6-0.4c-0.1,0-0.2,0-0.3-0.1l0.3,0.8c0.6,1.7-0.3,3.6-2,4.3l-91.4,33.8
		c-0.4,0.6-0.8,1.2-1.2,1.9c-0.5,0.7-0.9,1.4-1.4,2.2l15.8-5.8c0.2-0.3,0.4-0.7,0.5-1c0.5-0.9,0.8-1.6,0.9-2.1l0.5,0.1
		c0.3,0.7,0.5,1.4,0.8,2l69.9-25.8c0,0,0-0.1,0-0.1c-0.2-0.5-0.4-1.1-0.6-1.6l2.5,0.4c0.2,0.1,0.5,0.2,0.8,0.3l7.3-2.7
		c1.8-0.7,2.7-2.6,2-4.4l-0.4-1c-0.3-0.1-0.6-0.2-0.8-0.2C204.8,176.7,204.3,176.6,203.7,176.5z"/>
	<path class="st1" d="M166.4,73.4c-0.2,0.2-0.4,0.3-0.7,0.5c-0.2,0.2-0.4,0.3-0.7,0.5c-0.2,0.1-0.4,0.3-0.6,0.4l1.2,3.2
		c0,0,0.1-0.1,0.1-0.1c0.1-0.2,0.2-0.3,0.3-0.5c0.1-0.2,0.2-0.3,0.3-0.5c0.1-0.2,0.2-0.3,0.3-0.5c0.1-0.2,0.2-0.3,0.3-0.5
		c0.1-0.2,0.2-0.4,0.4-0.5c0.1-0.2,0.2-0.4,0.4-0.5c0.1-0.2,0.2-0.4,0.4-0.5c0,0,0,0,0,0l-0.7-1.8c-0.1,0.1-0.3,0.2-0.4,0.3
		C166.9,73.1,166.6,73.3,166.4,73.4z"/>
	<path class="st1" d="M177.6,115.2l-1,0.7l-0.6,0.4l3.6,9.7c0.9-0.9,1.8-1.8,2.8-2.8l-3.3-9.1l-0.4,0.3L177.6,115.2z"/>
	<polygon class="st1" points="81.9,221.8 81.9,221.8 81.8,221.8 	"/>
	<path class="st1" d="M74.2,226.8c0.2-0.9,0.4-1.7,0.6-2.4l-2,0.8c-0.1,0.4-0.2,0.9-0.3,1.3c-0.2,0.6-0.3,1.3-0.5,2l2-0.8
		C74,227.4,74.1,227.1,74.2,226.8z"/>
	<path class="st1" d="M163.8,75.4c-0.2,0.2-0.4,0.3-0.6,0.5c-0.2,0.2-0.4,0.3-0.6,0.5c-0.2,0.1-0.4,0.3-0.6,0.4
		c-0.1,0.1-0.3,0.2-0.4,0.3l1.7,4.5c0,0,0.1-0.1,0.1-0.1c0.1-0.1,0.2-0.3,0.3-0.4c0.1-0.1,0.2-0.3,0.3-0.4c0.1-0.1,0.2-0.3,0.3-0.4
		c0.1-0.1,0.2-0.3,0.3-0.4c0.1-0.1,0.2-0.3,0.3-0.4c0.1-0.2,0.2-0.3,0.3-0.5c0.1-0.2,0.2-0.3,0.3-0.5c0.1-0.1,0.2-0.2,0.2-0.4
		l-1.2-3.2c0,0,0,0,0,0C164.2,75.1,164,75.2,163.8,75.4z"/>
	<path class="st1" d="M199,175.3c-0.4-0.1-0.9-0.2-1.3-0.3l0.2,0.4c0.6,1.7-0.2,3.5-1.9,4.1l-84.4,31.2c-0.4,0.5-0.7,1-1.1,1.6
		c-0.5,0.7-1,1.4-1.5,2.1c-0.1,0.1-0.1,0.2-0.2,0.3l91.4-33.8c1.7-0.6,2.6-2.6,2-4.3l-0.3-0.8c-0.4-0.1-0.9-0.2-1.3-0.3
		C200,175.5,199.5,175.4,199,175.3z"/>
	<polygon class="st1" points="81.2,219.1 77.2,220.6 81.8,221.8 81.9,221.8 81.4,219.9 	"/>
	<path class="st1" d="M196,174.6c-0.5-0.1-1-0.2-1.5-0.3c-0.3-0.1-0.5-0.1-0.8-0.2l0,0c0.6,1.6-0.2,3.4-1.8,4l-77.5,28.7
		c-0.3,0.5-0.7,0.9-1,1.4c-0.5,0.7-1,1.3-1.5,2.1c-0.1,0.2-0.3,0.4-0.4,0.5l84.4-31.2c1.7-0.6,2.5-2.5,1.9-4.1l-0.2-0.4
		c-0.1,0-0.1,0-0.2-0.1C197,174.8,196.5,174.7,196,174.6z"/>
	<path class="st1" d="M158.5,78.9L158.5,78.9l2.2-1.3c-0.2,0.1-0.4,0.3-0.6,0.4c-0.2,0.1-0.4,0.3-0.6,0.4c-0.2,0.1-0.4,0.3-0.6,0.4
		l-0.3,0.2l2.2,5.9c0,0,0.1-0.1,0.1-0.1c0.1-0.1,0.2-0.2,0.3-0.3c0.1-0.1,0.2-0.2,0.3-0.3c0.1-0.1,0.2-0.2,0.3-0.4
		c0.1-0.1,0.2-0.2,0.3-0.4c0.1-0.1,0.2-0.2,0.3-0.4c0.1-0.1,0.2-0.3,0.3-0.4c0.1-0.1,0.2-0.3,0.3-0.4c0.1-0.1,0.2-0.3,0.3-0.4
		c0.1-0.1,0.1-0.2,0.2-0.3l-1.7-4.5c-0.1,0-0.1,0.1-0.2,0.1L158.5,78.9z"/>
	<path class="st1" d="M174.8,117.3l-0.9,0.7l-0.7,0.5l3.9,10.6l2.5-3c0,0,0,0,0.1-0.1l-3.6-9.7l-0.3,0.2L174.8,117.3z"/>
	<path class="st1" d="M75.5,221.5c0-0.1,0.1-0.2,0.1-0.4l-2,0.8c-0.2,0.6-0.3,1.2-0.5,1.9c-0.1,0.4-0.2,0.9-0.3,1.3l2-0.8
		c0-0.1,0-0.2,0.1-0.3C75.1,223.1,75.4,222.2,75.5,221.5z"/>
	<path class="st1" d="M172.1,119.2l-0.3,0.2l-0.3,0.2l-0.3,0.2l-0.3,0.2l-0.3,0.2l-0.1,0.1l4.3,11.5c0.1-0.1,0.1-0.2,0.2-0.3
		c0.1-0.1,0.2-0.3,0.3-0.5c0.1-0.2,0.2-0.3,0.3-0.5c0.1-0.1,0.2-0.3,0.3-0.4c0.1-0.1,0.2-0.3,0.3-0.4l0.2,0l0.7-0.9l-3.9-10.6
		l-0.2,0.1L172.1,119.2z"/>
	<path class="st1" d="M192.8,174.3l-2.7-0.5c0-0.1-0.1-0.2-0.1-0.3c0.2,1.4-0.6,2.8-1.9,3.3l-70.6,26.1c-0.3,0.4-0.7,0.9-1,1.4
		c-0.5,0.6-1,1.3-1.5,2c-0.1,0.2-0.3,0.4-0.5,0.6l77.5-28.7c1.6-0.6,2.4-2.4,1.8-4l0,0c-0.2,0-0.5-0.1-0.7-0.1L192.8,174.3z"/>
	<path class="st1" d="M157.5,79.1l-0.8,0.9l-1.1,0.7l0,0.1l1-0.6l-0.2,0.3l-0.7,0.4l2.6,7.1c0.6-0.7,1.2-1.5,1.8-2.3
		c0.1-0.1,0.2-0.2,0.2-0.3c0.1-0.1,0.2-0.2,0.2-0.3c0.1-0.1,0.1-0.1,0.2-0.2l-2.2-5.9l-0.3,0.2l-0.1,0l0.4-0.2l0,0l-0.4,0.3
		L157.5,79.1z"/>
	<path class="st1" d="M80.8,217.2l-0.2-0.7l-6.2,2.3c-0.2,0.6-0.4,1.4-0.7,2.4c-0.1,0.2-0.1,0.5-0.2,0.7l2-0.8
		c0.2-0.6,0.3-0.9,0.3-0.9l1.3,0.4l4-1.5L80.8,217.2z"/>
	<path class="st1" d="M95.2,30.3l1.5-1.8c0.6,0,1.3,0.2,2.1,0.7c0.2,0.1,0.4,0.2,0.6,0.4l4.4-1.6c-0.5,0-0.9,0-1.3-0.1
		c-1,0-1.9,0-2.7,0.1c-1.5,0.1-2.6,0.4-3.1,0.5c-0.2,0-0.3,0.1-0.3,0.1s-2.9,1.4-6,4.3l4.4-1.6C95,30.9,95.1,30.5,95.2,30.3z"/>
	<path class="st1" d="M80,214l-6.5,2.4c0.4,0.6,0.9,0.9,1.3,1c0,0-0.1,0.5-0.4,1.3c0,0,0,0.1,0,0.1l6.2-2.3l-0.5-2L80,214z"/>
	<path class="st1" d="M153.8,82.1c-0.3,0.2-0.6,0.3-0.9,0.5l3.1,8.3c0.8-0.9,1.6-1.9,2.4-2.9l-2.6-7.1l-0.7,0.4
		C154.6,81.6,154.2,81.9,153.8,82.1z"/>
	<polygon class="st1" points="152.9,82.6 155.7,80.9 155.7,80.8 152.9,82.5 	"/>
	<path class="st1" d="M169.7,120.9l-0.4,0.3l-0.4,0.3l-0.4,0.3l-0.4,0.3l-0.4,0.3l-0.2,0.1l18.2,49.3c0.6,1.5-0.2,3.2-1.7,3.8
		l-64.2,23.8c0,0.1,0.1,0.3,0.1,0.4c0,0-0.2,0.3-0.7,0.8c-0.4,0.5-0.9,1.1-1.5,1.9c-0.1,0.2-0.3,0.4-0.4,0.6l70.6-26.1
		c1.4-0.5,2.1-1.9,1.9-3.3c-0.1-0.4-0.3-0.7-0.4-1.1c-0.2-0.5-0.4-0.9-0.5-1.4c-0.2-0.5-0.4-0.9-0.5-1.3c-0.2-0.4-0.4-0.9-0.5-1.3
		c-0.2-0.4-0.3-0.9-0.5-1.3c-0.2-0.4-0.3-0.9-0.5-1.3c-0.2-0.4-0.3-0.8-0.5-1.2c-0.2-0.4-0.3-0.8-0.5-1.2c-0.2-0.4-0.3-0.8-0.5-1.2
		c-0.2-0.4-0.3-0.8-0.5-1.2c-0.2-0.4-0.3-0.8-0.5-1.2c-0.2-0.4-0.3-0.8-0.5-1.1c-0.2-0.4-0.3-0.7-0.5-1.1c-0.2-0.4-0.3-0.7-0.5-1.1
		c-0.2-0.4-0.3-0.7-0.5-1.1c-0.2-0.4-0.3-0.7-0.5-1c-0.2-0.3-0.3-0.7-0.5-1c-0.2-0.3-0.3-0.7-0.4-1c-0.1-0.3-0.3-0.7-0.4-1
		c-0.1-0.3-0.3-0.7-0.4-1c-0.1-0.3-0.3-0.6-0.4-0.9c-0.1-0.3-0.3-0.6-0.4-0.9c-0.1-0.3-0.3-0.6-0.4-0.9c-0.1-0.3-0.3-0.6-0.4-0.9
		c-0.1-0.3-0.3-0.6-0.4-0.9c-0.1-0.3-0.3-0.6-0.4-0.9c-0.1-0.3-0.3-0.6-0.4-0.8c-0.2-0.3-0.3-0.6-0.4-0.8c-0.2-0.5-0.4-0.8-0.4-0.8
		c0,0,0,0,0-0.1c-0.1-0.3-0.2-0.5-0.3-0.8c-0.1-0.3-0.2-0.5-0.3-0.8c-0.1-0.2-0.2-0.5-0.3-0.7c-0.1-0.3-0.2-0.5-0.3-0.7
		c-0.1-0.2-0.2-0.5-0.3-0.7c-0.1-0.2-0.2-0.5-0.3-0.7c-0.1-0.2-0.2-0.5-0.3-0.7c-0.1-0.2-0.2-0.5-0.3-0.7c-0.1-0.2-0.2-0.5-0.3-0.7
		c-0.1-0.2-0.2-0.4-0.3-0.7c0,0,0-0.1-0.1-0.1c-0.1-0.1-0.1-0.3-0.1-0.5c0-0.2,0-0.4,0.1-0.6c0-0.2,0.1-0.4,0.2-0.5
		c0.1-0.2,0.1-0.3,0.2-0.5c0.1-0.2,0.2-0.3,0.3-0.5c0.1-0.2,0.2-0.3,0.3-0.5c0-0.1,0.1-0.1,0.1-0.2l-4.3-11.5l-0.3,0.2L169.7,120.9z
		"/>
	<path class="st1" d="M87.4,36.4c-0.1,0.1-0.1,0.2-0.2,0.3l7.1-2.6c0.2-1.1,0.4-2.1,0.6-2.9l-4.4,1.6c-0.2,0.2-0.4,0.4-0.6,0.5
		C89.1,34.2,88.2,35.2,87.4,36.4z"/>
	<path class="st1" d="M79.4,211.5l-7.2,2.7c0.4,0.9,0.8,1.7,1.2,2.2L80,214l-0.5-2.1L79.4,211.5z"/>
	<path class="st1" d="M153.6,93.6c0.8-0.8,1.6-1.7,2.4-2.7l-3.1-8.3c-0.1,0.1-0.3,0.2-0.4,0.2c-0.4,0.2-0.8,0.5-1.2,0.7l1.6-1l0-0.1
		l-2.7,1.7L153.6,93.6z"/>
	<path class="st1" d="M185.9,171.7l-18.2-49.3l-0.2,0.2l-0.4,0.3l-0.4,0.3l-0.4,0.3l-0.2,0c-0.1-0.2-0.3-0.3-0.4-0.5
		c-0.1-0.2-0.3-0.3-0.4-0.4c-0.1-0.1-0.3-0.3-0.4-0.4c-0.2-0.1-0.3-0.3-0.4-0.4c-0.1-0.1-0.2-0.2-0.3-0.3l18.2,49.2
		c0.5,1.5-0.2,3.1-1.7,3.7l-61.3,22.7c0.2,0.5,0.4,1,0.5,1.5c0.1,0.3,0.2,0.5,0.3,0.8l64.2-23.8
		C185.6,174.9,186.4,173.2,185.9,171.7z"/>
	<path class="st1" d="M100.5,30.3c0.4,0.3,0.8,0.7,1.3,1l7.1-2.6c-0.6-0.2-1.1-0.3-1.7-0.4c-0.8-0.1-1.5-0.3-2.2-0.3
		c-0.4,0-0.7-0.1-1.1-0.1l-4.4,1.6C99.8,29.7,100.1,30,100.5,30.3z"/>
	<path class="st1" d="M103.5,32.8c0.1,0.1,0.2,0.2,0.3,0.3l8.6-3.2c-0.4-0.2-0.8-0.4-1.2-0.5c-0.6-0.2-1.3-0.5-1.9-0.6
		c-0.1,0-0.3-0.1-0.4-0.1l-7.1,2.6c0.1,0.1,0.2,0.1,0.3,0.2C102.5,31.9,103,32.4,103.5,32.8z"/>
	<path class="st1" d="M148.9,84.8c-0.4,0.2-0.8,0.4-1.2,0.6c-0.1,0-0.2,0.1-0.3,0.1l3.9,10.5c0.4-0.4,0.8-0.7,1.1-1.1
		c0.4-0.4,0.8-0.8,1.2-1.3l-3.5-9.4l-0.1,0.1C149.7,84.4,149.3,84.6,148.9,84.8z"/>
	<path class="st1" d="M85.4,39.9l8.6-3.2c0.1-0.7,0.1-1.4,0.2-2.1c0-0.2,0.1-0.4,0.1-0.6l-7.1,2.6C86.6,37.7,85.9,38.8,85.4,39.9z"
		/>
	<path class="st1" d="M130.7,38.7c0-0.6-0.1-1.3-0.3-1.9c-0.1-0.6-0.3-1.1-0.5-1.6c-0.2-0.6-0.5-1.1-0.7-1.5
		c-0.3-0.6-0.6-1.1-0.8-1.4l-0.4,0.5l2.7,7.4C130.7,39.7,130.8,39.2,130.7,38.7z"/>
	<path class="st1" d="M71.4,211.9c0.3,0.8,0.6,1.6,0.9,2.3l7.2-2.7l-0.6-2.4L71.4,211.9z"/>
	<path class="st1" d="M163.3,120.8c-0.2-0.1-0.3-0.3-0.5-0.4c-0.2-0.1-0.3-0.3-0.5-0.4c-0.2-0.1-0.4-0.3-0.6-0.4
		c-0.2-0.1-0.4-0.3-0.6-0.4c-0.2-0.1-0.4-0.3-0.6-0.4c-0.2-0.1-0.5-0.3-0.7-0.4c-0.1-0.1-0.2-0.1-0.3-0.2l19,51.3
		c0.5,1.4-0.2,3-1.6,3.6l-58.5,21.6c0.2,0.6,0.4,1.1,0.6,1.7c0.1,0.2,0.1,0.4,0.2,0.6l61.3-22.7c1.5-0.5,2.2-2.2,1.7-3.7l-18.2-49.2
		c0,0-0.1-0.1-0.1-0.1C163.6,121.1,163.4,120.9,163.3,120.8z"/>
	<polygon class="st1" points="27.9,60.1 28.2,61.1 28.5,61 	"/>
	<path class="st1" d="M70.7,209.7c0.2,0.8,0.5,1.5,0.7,2.2l7.5-2.8l-0.5-2.3L70.7,209.7z"/>
	<path class="st1" d="M138.9,69.5c0.2-0.7,0.4-1.3,0.5-1.9c0.1-0.5,0.1-1,0-1.4c0-0.4-0.1-0.8-0.2-1.2c-0.1-0.4-0.2-0.7-0.4-1
		c-0.1-0.3-0.3-0.6-0.5-0.9c-0.2-0.3-0.4-0.6-0.6-0.8c-0.2-0.3-0.4-0.5-0.7-0.8c-0.2-0.2-0.5-0.5-0.7-0.7c-0.3-0.2-0.5-0.5-0.8-0.7
		c-0.3-0.2-0.6-0.4-0.9-0.6c0,0-0.1,0-0.1-0.1l4.1,11C138.7,70,138.8,69.7,138.9,69.5z"/>
	<path class="st1" d="M93.8,39.3c0-0.3,0-0.7,0.1-1c0-0.5,0.1-1,0.1-1.5l-8.6,3.2c-0.4,0.9-0.8,1.9-1.1,2.9L93.8,39.3z"/>
	<path class="st1" d="M105.6,35l9.5-3.5c-0.2-0.1-0.4-0.3-0.6-0.4c-0.5-0.3-1.1-0.6-1.6-0.9c-0.2-0.1-0.3-0.1-0.5-0.2l-8.6,3.2
		c0.3,0.3,0.7,0.7,1,1C105.1,34.4,105.4,34.7,105.6,35z"/>
	<path class="st1" d="M146.5,85.9c-0.4,0.2-0.7,0.3-1.1,0.5c-0.3,0.1-0.5,0.2-0.8,0.3l4.2,11.4c0.5-0.3,0.9-0.7,1.4-1.1
		c0.3-0.3,0.7-0.6,1-0.9l-3.9-10.5C147.1,85.6,146.8,85.8,146.5,85.9z"/>
	<path class="st1" d="M158.1,117.4c-0.4-0.2-0.8-0.3-1.2-0.5c-0.1,0-0.1,0-0.2-0.1c-0.1,0-0.2-0.1-0.3-0.1c-0.1,0-0.2-0.1-0.3-0.1
		c-0.1,0-0.2-0.1-0.3-0.1l19.2,51.8c0.5,1.4-0.2,2.9-1.6,3.5l-55.8,20.6c0.2,0.6,0.4,1.2,0.6,1.8c0.1,0.1,0.1,0.3,0.2,0.5l58.5-21.6
		c1.4-0.5,2.2-2.1,1.6-3.6l-19-51.3c-0.1-0.1-0.3-0.2-0.4-0.2C158.7,117.7,158.4,117.5,158.1,117.4z"/>
	<path class="st1" d="M129,44.1c0.8-0.9,1.3-1.9,1.5-2.9c0.1-0.3,0.1-0.6,0.2-0.9l-2.7-7.4l-2.2,2.6L129,44.1z"/>
	<polygon class="st1" points="30.1,62.9 28.5,61 28.2,61.1 29.1,63.3 	"/>
	<path class="st1" d="M143.3,87.1c-0.3,0.1-0.7,0.2-1,0.3c-0.1,0-0.2,0-0.3,0.1l4.4,12c0.2-0.1,0.4-0.1,0.5-0.2
		c0.3-0.1,0.6-0.3,0.9-0.5c0.3-0.2,0.7-0.4,1.1-0.7c0,0,0,0,0,0l-4.2-11.4c-0.1,0-0.2,0.1-0.3,0.1C144,86.9,143.6,87,143.3,87.1z"/>
	<path class="st1" d="M70,207.5c0.2,0.8,0.4,1.5,0.6,2.2l7.7-2.8l-0.5-2.2L70,207.5z"/>
	<path class="st1" d="M155.3,116.4c-0.1,0-0.2-0.1-0.4-0.1c-0.1,0-0.2-0.1-0.4-0.1c-0.1,0-0.2-0.1-0.4-0.1c-0.1,0-0.2,0-0.4-0.1
		c-0.1,0-0.3,0-0.4-0.1c-0.1,0-0.3,0-0.4,0c-0.1,0-0.3,0-0.4,0c-0.1,0-0.1,0-0.2,0l19,51.3c0.5,1.3-0.2,2.9-1.5,3.3l-53.1,19.6
		c0.2,0.6,0.4,1.2,0.6,1.9c0,0.1,0.1,0.2,0.1,0.3l55.8-20.6c1.4-0.5,2.1-2.1,1.6-3.5l-19.2-51.8c0,0-0.1,0-0.1,0
		C155.5,116.4,155.4,116.4,155.3,116.4z"/>
	<path class="st1" d="M132.7,58.1c-0.3-0.2-0.7-0.4-1-0.5c-0.3-0.1-0.6-0.3-0.9-0.4l6,16.2c0.8-1.1,1.4-2.2,1.9-3.2l-4.1-11
		c-0.3-0.2-0.6-0.4-0.8-0.5C133.4,58.5,133,58.3,132.7,58.1z"/>
	<path class="st1" d="M127.6,46.8c-0.3,0-0.5-0.1-0.7-0.1l0.3,0.7L127.6,46.8z"/>
	<path class="st1" d="M83.7,45.5l10-3.7c0-0.1,0-0.1,0-0.2c0-0.7,0.1-1.5,0.1-2.3l-9.5,3.5c-0.1,0.3-0.2,0.6-0.3,0.9
		C83.9,44.3,83.8,44.9,83.7,45.5z"/>
	<path class="st1" d="M126.6,46.1c1-0.6,1.7-1.3,2.3-2l-3.2-8.6l-2.1,2.5L126.6,46.1z"/>
	<path class="st1" d="M107.3,36.8l10-3.7c0,0,0,0,0,0c-0.4-0.4-0.9-0.7-1.4-1c-0.3-0.2-0.6-0.4-0.8-0.6l-9.5,3.5
		c0.2,0.2,0.3,0.3,0.5,0.5C106.5,35.9,106.9,36.3,107.3,36.8z"/>
	<polygon class="st1" points="31.6,64.8 30.1,62.9 29.1,63.3 29.9,65.4 	"/>
	<path class="st1" d="M140.3,87.8c-0.3,0-0.6,0.1-0.9,0.1c-0.1,0-0.2,0-0.3,0l10.2,27.7c0.1-0.1,0.1-0.3,0.2-0.4
		c0.1-0.2,0.1-0.4,0.2-0.6c0.1-0.2,0.1-0.5,0.2-0.7c0-0.3,0.1-0.6,0.1-0.9c0-0.4,0-0.8-0.1-1.3c-0.1-0.8-0.3-1.6-0.5-2.5
		c-0.3-0.9-0.6-1.8-1-2.8c-0.5-1.1-1-2.3-1.7-3.4c-0.4-0.7-0.8-1.4-1.2-2.1c-0.1-0.1-0.2-0.3-0.2-0.4c-0.1-0.1-0.1-0.2-0.2-0.4
		c-0.1-0.1-0.1-0.2-0.2-0.4l0.1-0.1c0.2,0,0.3,0,0.5,0c0.2,0,0.4-0.1,0.6-0.2c0.1,0,0.1-0.1,0.2-0.1l-4.4-12
		c-0.2,0.1-0.4,0.1-0.7,0.2C141,87.7,140.7,87.7,140.3,87.8z"/>
	<path class="st1" d="M130.6,57.1c-0.4-0.2-0.8-0.3-1.2-0.5c-0.4-0.2-0.8-0.3-1.2-0.4c-0.3-0.1-0.6-0.2-0.9-0.3l7.4,19.9
		c0.8-0.8,1.5-1.6,2.1-2.4l-6-16.2C130.7,57.2,130.6,57.1,130.6,57.1z"/>
	<path class="st1" d="M108.6,38.1c0.1,0.1,0.2,0.3,0.3,0.4l8.1-3c1.3-0.5,2.8,0.2,3.2,1.5l5.6,15c0.1-0.4,0.2-0.9,0.2-1.4
		c0.1-0.8,0.1-1.5,0-2.1l1-1.2l-0.3-0.7c-0.4-0.1-0.7-0.1-0.8-0.1l0.1-0.1c0.2-0.1,0.3-0.2,0.5-0.3l-3-8.1l-1.1,1.3
		c-0.3-0.5-0.6-0.9-0.9-1.4c-0.3-0.5-0.6-0.9-1-1.3c-0.3-0.4-0.7-0.9-1.1-1.3c-0.4-0.4-0.8-0.8-1.1-1.2c-0.4-0.4-0.8-0.8-1.2-1.1
		l-10,3.7c0,0,0,0,0,0.1C107.8,37.3,108.2,37.7,108.6,38.1z"/>
	<path class="st1" d="M151.9,115.9c-0.1,0-0.3,0-0.4,0c-0.1,0-0.3,0-0.4,0c-0.1,0-0.3,0-0.4,0c-0.1,0-0.3,0-0.4,0
		c-0.1,0-0.3,0-0.4,0.1c-0.1,0-0.2,0-0.3,0.1l18.5,50c0.5,1.3-0.2,2.8-1.5,3.2l-50.5,18.7c0.2,0.6,0.4,1.3,0.6,1.9
		c0,0.1,0,0.1,0.1,0.2l53.1-19.6c1.3-0.5,2-2,1.5-3.3l-19-51.3c-0.1,0-0.1,0-0.2,0C152.2,116,152,115.9,151.9,115.9z"/>
	<path class="st1" d="M83.1,48.1l10.5-3.9c0-0.8,0-1.6,0.1-2.4l-10,3.7c-0.1,0.7-0.2,1.4-0.3,2.2L83.1,48.1z"/>
	<path class="st1" d="M77.3,202.5l-7.8,2.9c0.2,0.7,0.4,1.5,0.5,2.2l7.7-2.9l-0.3-1.2L77.3,202.5z"/>
	<polygon class="st1" points="33,66.6 31.6,64.8 29.9,65.4 30.7,67.5 	"/>
	<path class="st1" d="M125.6,55.4c-0.5-0.1-1-0.3-1.4-0.4c0,0-0.1,0-0.1,0l8.5,22.9c0.8-0.7,1.5-1.4,2.1-2l-7.4-19.9
		c-0.1,0-0.3-0.1-0.4-0.1C126.5,55.6,126,55.5,125.6,55.4z"/>
	<path class="st1" d="M137.8,87.8c-0.3,0-0.5-0.1-0.8-0.1c-0.2-0.1-0.5-0.1-0.7-0.2c-0.1,0-0.1-0.1-0.2-0.1l28.8,77.8
		c0.5,1.3-0.2,2.7-1.4,3.1l-47.9,17.7c0,0,0,0,0,0c0.2,0.6,0.4,1.3,0.6,2c0,0,0,0,0,0.1l50.5-18.7c1.3-0.5,2-1.9,1.5-3.2l-18.5-50
		c0,0-0.1,0-0.1,0c-0.2,0-0.3,0.1-0.4,0.1c-0.2,0.1-0.3,0.1-0.3,0.1c0.1-0.1,0.2-0.2,0.3-0.3c0.1-0.1,0.2-0.3,0.3-0.4
		c0,0,0-0.1,0-0.1l-10.2-27.7c-0.2,0-0.4,0-0.6,0C138.3,87.9,138,87.9,137.8,87.8z"/>
	<path class="st1" d="M110.4,40.2l4.9-1.8c1.3-0.5,2.7,0.2,3.1,1.4l5.5,14.8c1-0.4,1.6-1.4,1.9-2.6l-5.6-15c-0.5-1.3-1.9-2-3.2-1.5
		l-8.1,3c0.3,0.3,0.6,0.6,0.8,0.9C110,39.7,110.2,40,110.4,40.2z"/>
	<path class="st1" d="M93.6,46.5c0-0.6,0-1.1,0-1.8c0-0.2,0-0.4,0-0.5l-10.5,3.9l-2.7,3.3L93.6,46.5z"/>
	<path class="st1" d="M69,203.2c0.2,0.7,0.3,1.4,0.5,2.1l7.8-2.9l-0.5-2.1L69,203.2z"/>
	<polygon class="st1" points="34.5,68.3 33,66.6 30.7,67.5 31.5,69.5 	"/>
	<path class="st1" d="M115.4,38.4l-4.9,1.8c0.2,0.2,0.3,0.4,0.5,0.5c0.4,0.4,0.7,0.8,1,1.2l1.8-0.7c1.2-0.5,2.6,0.2,3.1,1.4
		l45,121.6c0.5,1.2-0.2,2.6-1.4,3.1l-45.5,16.8c0,0,0,0.1,0,0.1c0.2,0.6,0.4,1.2,0.6,1.9l47.9-17.7c1.3-0.5,1.9-1.9,1.4-3.1
		l-28.8-77.8c-0.1,0-0.2-0.1-0.2-0.1l-0.1-0.3l-0.3-0.8l-0.3-0.8l-0.3-0.8l-0.3-0.8l-0.3-0.8l-0.3-0.9l-0.3-0.9l-0.3-0.9l-0.3-0.9
		l-0.3-0.9l-0.2-0.5c0.1,0,0.1-0.1,0.2-0.1L124.1,55c-0.5-0.1-0.8-0.2-0.8-0.2c0.2,0,0.5-0.1,0.7-0.2l-5.5-14.8
		C118,38.6,116.6,38,115.4,38.4z"/>
	<path class="st1" d="M93.6,48.7c0-0.3,0-0.6,0-1c0-0.4,0-0.8,0-1.2l-13.2,4.9l-2.7,3.2L93.6,48.7z"/>
	<path class="st1" d="M68.5,201.2c0.1,0.7,0.3,1.4,0.5,2l7.8-2.9l-0.5-2L68.5,201.2z"/>
	<polygon class="st1" points="35.8,70.1 34.5,68.3 31.5,69.5 32.2,71.4 	"/>
	<path class="st1" d="M76.3,57.2l17.3-6.4c0-0.1,0-0.2,0-0.3c0-0.5,0-1.1,0-1.9l-15.8,5.9L76,56.6C76.1,56.8,76.2,57,76.3,57.2z"/>
	<path class="st1" d="M110.3,44.1c-0.8,0.1-1.6,0.1-2.4,0.3c-1,0.2-2,0.4-2.9,0.8c-0.8,0.3-1.4,0.8-1.8,1.3c-0.5-0.1-1-0.1-1.6,0
		c-1.2,0.2-2.4,0.8-3.6,1.6c-1.2,0.7-2.2,1.5-3,2.2l17-6.3C111.4,44.1,110.9,44.1,110.3,44.1z"/>
	<path class="st1" d="M68.1,199.2c0,0.1,0,0.2,0.1,0.3c0.1,0.6,0.2,1.1,0.4,1.7l7.8-2.9l-0.5-2L68.1,199.2z"/>
	<path class="st1" d="M113.1,43.4l-0.4,0.5c1-0.1,2,0.5,2.4,1.5l43.6,117.9c0.4,1.2-0.2,2.5-1.4,3l-43,15.9c0,0.1,0,0.1,0,0.2
		c0.2,0.6,0.4,1.2,0.6,1.8l45.5-16.8c1.2-0.5,1.9-1.8,1.4-3.1l-45-121.6c-0.5-1.2-1.8-1.9-3.1-1.4l-1.8,0.7c0,0,0.1,0.1,0.1,0.1
		C112.4,42.6,112.8,43,113.1,43.4z"/>
	<polygon class="st1" points="37.1,71.7 35.8,70.1 32.2,71.4 32.9,73.3 	"/>
	<path class="st1" d="M77.1,58.5c0.1,0.1,0.2,0.3,0.4,0.4l33.1-12.2c1.2-0.4,2.4,0.2,2.9,1.3l42.3,114.4c0.4,1.2-0.2,2.4-1.3,2.9
		l-40.7,15.1c0,0.1,0,0.1,0.1,0.2c0.2,0.5,0.3,1.1,0.5,1.7l43-15.9c1.2-0.4,1.8-1.8,1.4-3L115.1,45.4c-0.4-1-1.4-1.6-2.4-1.5
		l-0.2,0.2c-0.2,0-0.4,0-0.6,0l-17,6.3c-0.8,0.7-1.3,1.1-1.3,1.1s0-0.2,0-0.6l-17.3,6.4C76.6,57.6,76.8,58.1,77.1,58.5z"/>
	<path class="st1" d="M67.7,197.3c0.1,0.7,0.3,1.3,0.4,1.9l7.7-2.8l-0.5-1.9L67.7,197.3z"/>
	<polygon class="st1" points="38.4,73.3 37.1,71.7 32.9,73.3 33.6,75.1 	"/>
	<path class="st1" d="M79.1,60.3l30-11.1c1.1-0.4,2.4,0.2,2.8,1.3l41,110.9c0.4,1.1-0.2,2.4-1.3,2.8l-38.4,14.2c0,0.1,0,0.1,0.1,0.2
		c0.2,0.5,0.3,1.1,0.5,1.6l40.7-15.1c1.2-0.4,1.7-1.7,1.3-2.9L113.4,48c-0.4-1.2-1.7-1.7-2.9-1.3L77.5,58.9c0.3,0.4,0.6,0.7,1,1
		C78.7,60,78.9,60.2,79.1,60.3z"/>
	<path class="st1" d="M67.4,195.4c0.1,0.6,0.2,1.3,0.4,1.9l7.6-2.8l-0.4-1.9L67.4,195.4z"/>
	<polygon class="st1" points="39.7,74.9 38.4,73.3 33.6,75.1 34.3,76.9 	"/>
	<path class="st1" d="M81.5,61.4l26-9.6c1.1-0.4,2.3,0.2,2.7,1.2l39.8,107.6c0.4,1.1-0.2,2.3-1.2,2.7l-36.2,13.4
		c0,0.1,0,0.1,0.1,0.2c0.1,0.5,0.3,1,0.5,1.5l38.4-14.2c1.1-0.4,1.7-1.7,1.3-2.8l-41-110.9c-0.4-1.1-1.7-1.7-2.8-1.3l-30,11.1
		c0.3,0.2,0.7,0.4,1.1,0.6C80.6,61.1,81,61.2,81.5,61.4z"/>
	<path class="st1" d="M67,193.5c0.1,0.6,0.2,1.2,0.3,1.8l7.5-2.8l-0.4-1.8L67,193.5z"/>
	<polygon class="st1" points="35,78.6 40.9,76.4 39.7,74.9 34.3,76.9 	"/>
	<path class="st1" d="M84.5,61.6c0.5,0,0.9-0.1,1.4-0.2c0,0,0.1,0.1,0.1,0.2l20.1-7.4c1.1-0.4,2.2,0.2,2.6,1.2l38.6,104.4
		c0.4,1.1-0.2,2.2-1.2,2.6L112.1,175c0,0.1,0,0.1,0.1,0.2c0.1,0.5,0.3,1,0.4,1.5l36.2-13.4c1.1-0.4,1.6-1.6,1.2-2.7L110.3,53
		c-0.4-1.1-1.6-1.6-2.7-1.2l-26,9.6c0.2,0,0.4,0.1,0.6,0.1C82.8,61.6,83.6,61.6,84.5,61.6z"/>
	<path class="st1" d="M66.7,191.8c0.1,0.6,0.2,1.2,0.3,1.8l7.5-2.8l-0.4-1.7L66.7,191.8z"/>
	<polygon class="st1" points="42.1,77.9 40.9,76.4 35,78.6 35.6,80.2 	"/>
	<path class="st1" d="M73.7,187.3l-7.3,2.7c0.1,0.6,0.2,1.2,0.3,1.7l7.4-2.7L73.7,187.3z"/>
	<path class="st1" d="M87.1,63.1l17.7-6.5c1-0.4,2.2,0.1,2.5,1.2l37.4,101.3c0.4,1-0.1,2.2-1.2,2.5l-32,11.8c0,0.1,0,0.1,0.1,0.2
		c0.1,0.5,0.3,1,0.4,1.5l34.1-12.6c1.1-0.4,1.6-1.6,1.2-2.6L108.8,55.4c-0.4-1.1-1.6-1.6-2.6-1.2l-20.1,7.4c0.1,0.1,0.2,0.3,0.3,0.5
		C86.6,62.4,86.8,62.7,87.1,63.1z"/>
	<polygon class="st1" points="43.2,79.3 42.1,77.9 35.6,80.2 36.2,81.9 	"/>
	<path class="st1" d="M88.3,64.4l15.2-5.6c1-0.4,2.1,0.1,2.5,1.1l36.3,98.2c0.4,1-0.1,2.1-1.1,2.5l-29.9,11.1c0,0.1,0,0.1,0,0.2
		c0.1,0.5,0.3,0.9,0.4,1.4l32-11.8c1-0.4,1.5-1.5,1.2-2.5L107.3,57.7c-0.4-1-1.5-1.5-2.5-1.2l-17.7,6.5c0.1,0.2,0.3,0.3,0.4,0.5
		C87.7,63.9,88,64.1,88.3,64.4z"/>
	<path class="st1" d="M66.1,188.3c0.1,0.6,0.2,1.1,0.3,1.7l7.3-2.7l-0.4-1.6L66.1,188.3z"/>
	<polygon class="st1" points="44.3,80.7 43.2,79.3 36.2,81.9 36.8,83.4 	"/>
	<path class="st1" d="M142.2,158.2l-36.3-98.2c-0.4-1-1.5-1.5-2.5-1.1l-15.2,5.6c0.1,0.1,0.3,0.3,0.4,0.4c0.3,0.3,0.7,0.5,1,0.8
		l12.4-4.6c1-0.4,2,0.1,2.4,1.1l35.2,95.3c0.4,1-0.1,2-1.1,2.4l-27.9,10.3c0.1,0.5,0.3,1,0.4,1.6l29.9-11.1
		C142.1,160.3,142.6,159.1,142.2,158.2z"/>
	<path class="st1" d="M72.9,184.1l-7,2.6c0.1,0.5,0.2,1.1,0.3,1.6l7.2-2.6l-0.3-1.4L72.9,184.1z"/>
	<polygon class="st1" points="45.4,82 44.3,80.7 36.8,83.4 37.4,85 	"/>
	<path class="st1" d="M91.8,66.3c0.2,0,0.4,0,0.7-0.1l0.6-0.2c0.1,0,0.1-0.1,0.2-0.1c0,0,0,0,0,0l7.6-2.8c0.9-0.3,2,0.1,2.3,1.1
		l34.2,92.4c0.3,0.9-0.1,2-1.1,2.3l-26,9.6c0.1,0.4,0.3,0.9,0.4,1.5l27.9-10.3c1-0.4,1.5-1.4,1.1-2.4l-35.2-95.3
		c-0.4-1-1.4-1.5-2.4-1.1l-12.4,4.6c0.1,0.1,0.2,0.2,0.4,0.2C90.6,66.2,91.2,66.3,91.8,66.3z"/>
	<path class="st1" d="M65.6,185.1c0,0.1,0,0.2,0.1,0.3c0.1,0.4,0.1,0.8,0.2,1.3l7-2.6l-0.4-1.5L65.6,185.1z"/>
	<polygon class="st1" points="46.4,83.3 45.4,82 37.4,85 38,86.4 	"/>
	<path class="st1" d="M93.1,66.1l-0.6,0.2C92.7,66.2,92.9,66.1,93.1,66.1z"/>
	<path class="st1" d="M99.6,65.3c0.9-0.3,1.9,0.1,2.3,1l33.1,89.6c0.3,0.9-0.1,1.9-1,2.3l-24.1,8.9c0,0.1,0,0.1,0.1,0.2
		c0,0,0.1,0.5,0.4,1.3l26-9.6c0.9-0.3,1.4-1.4,1.1-2.3l-34.2-92.4c-0.3-0.9-1.4-1.4-2.3-1.1L93.3,66c-0.1,0.2-0.8,1-1.6,2.2
		L99.6,65.3z"/>
	<path class="st1" d="M65.4,183.6c0.1,0.5,0.2,1,0.2,1.5l6.9-2.6l-0.4-1.5L65.4,183.6z"/>
	<polygon class="st1" points="38.2,86.9 39.2,87.6 47.4,84.6 46.4,83.3 38,86.4 	"/>
	<path class="st1" d="M65.1,182.1c0.1,0.5,0.2,1,0.2,1.5l6.8-2.5l-0.3-1.5L65.1,182.1z"/>
	<path class="st1" d="M98.5,67.3c0.9-0.3,1.9,0.1,2.2,1l32.2,86.9c0.3,0.9-0.1,1.9-1,2.2l-22.4,8.3c0.2,0.5,0.3,0.9,0.5,1.4
		l24.1-8.9c0.9-0.3,1.4-1.3,1-2.3l-33.1-89.6c-0.3-0.9-1.3-1.4-2.3-1l-8,2.9c-0.4,0.6-0.8,1.3-1.3,2.1L98.5,67.3z"/>
	<polygon class="st1" points="48.4,85.8 47.4,84.6 39.2,87.6 40.6,88.7 	"/>
	<path class="st1" d="M89.4,72.2l7.9-2.9c0.9-0.3,1.8,0.1,2.1,1l31.2,84.3c0.3,0.9-0.1,1.8-1,2.1l-20.7,7.7c0.1,0.5,0.3,0.9,0.5,1.4
		l22.4-8.3c0.9-0.3,1.3-1.3,1-2.2l-32.2-86.9c-0.3-0.9-1.3-1.3-2.2-1l-8.1,3c-0.2,0.4-0.4,0.8-0.7,1.2
		C89.6,71.7,89.5,71.9,89.4,72.2z"/>
	<path class="st1" d="M71.5,178.2l-6.6,2.4c0.1,0.5,0.1,1,0.2,1.5l6.7-2.5L71.5,178.2z"/>
	<polygon class="st1" points="49.4,87 48.4,85.8 40.6,88.7 41.9,89.7 	"/>
	<path class="st1" d="M88.5,74l7.7-2.8c0.8-0.3,1.8,0.1,2.1,0.9l30.3,81.8c0.3,0.8-0.1,1.8-0.9,2.1l-19.1,7.1
		c0.1,0.4,0.3,0.9,0.4,1.3l20.7-7.7c0.9-0.3,1.3-1.3,1-2.1L99.4,70.2c-0.3-0.9-1.3-1.3-2.1-1l-7.9,2.9C89.1,72.8,88.8,73.4,88.5,74z
		"/>
	<path class="st1" d="M64.7,179.2c0.1,0.5,0.1,0.9,0.2,1.4l6.6-2.4l-0.3-1.4L64.7,179.2z"/>
	<polygon class="st1" points="50.3,88.1 49.4,87 41.9,89.7 43.2,90.7 	"/>
	<path class="st1" d="M128.5,153.9L98.2,72.1c-0.3-0.8-1.2-1.3-2.1-0.9L88.5,74c-0.2,0.5-0.4,1.1-0.6,1.7l7.2-2.7
		c0.8-0.3,1.7,0.1,2,0.9l29.3,79.4c0.3,0.8-0.1,1.7-0.9,2l-17.5,6.5c0.1,0.4,0.3,0.9,0.4,1.3l19.1-7.1
		C128.4,155.7,128.8,154.7,128.5,153.9z"/>
	<path class="st1" d="M64.5,177.8c0.1,0.5,0.1,0.9,0.2,1.4l6.5-2.4l-0.3-1.3L64.5,177.8z"/>
	<polygon class="st1" points="51.2,89.2 50.3,88.1 43.2,90.7 44.5,91.7 	"/>
	<path class="st1" d="M87.5,77.2l6.6-2.4c0.8-0.3,1.6,0.1,1.9,0.9l5.1,13.8c0.1,0,0.2,0,0.4,0l0.2,0.6l0.5,1.3l0.5,1.3l2.3,6.2
		c-0.1,0.1-0.1,0.3-0.2,0.4l19.8,53.5c0.3,0.8-0.1,1.6-0.9,1.9l-15.9,5.9c0.1,0.4,0.2,0.8,0.4,1.3l17.5-6.5c0.8-0.3,1.2-1.2,0.9-2
		L97.1,73.9c-0.3-0.8-1.2-1.2-2-0.9l-7.2,2.7c-0.1,0.3-0.2,0.6-0.3,0.9C87.6,76.8,87.5,77,87.5,77.2z"/>
	<path class="st1" d="M64.3,176.5c0.1,0.4,0.1,0.9,0.2,1.3l6.4-2.3l-0.3-1.3L64.3,176.5z"/>
	<polygon class="st1" points="52,90.3 51.2,89.2 44.5,91.7 45.8,92.6 	"/>
	<path class="st1" d="M93,76.5c0.8-0.3,1.6,0.1,1.9,0.9l4.4,12c0.4,0,0.8,0.1,1.2,0.1c0.2,0,0.3,0,0.5,0L96,75.7
		c-0.3-0.8-1.2-1.2-1.9-0.9l-6.6,2.4c-0.1,0.5-0.2,1-0.3,1.5L93,76.5z"/>
	<path class="st1" d="M64.1,175.2c0.1,0.4,0.1,0.9,0.2,1.3l6.2-2.3l-0.3-1.3L64.1,175.2z"/>
	<path class="st1" d="M103.5,100.7l19,51.4c0.3,0.8-0.1,1.6-0.9,1.9l-14.4,5.3c0.1,0.1,0.2,0.3,0.2,0.4c0.1,0.3,0.1,0.5,0.2,0.8
		l15.9-5.9c0.8-0.3,1.2-1.2,0.9-1.9l-19.8-53.5c-0.1,0.2-0.2,0.4-0.4,0.6C104.1,100.1,103.8,100.4,103.5,100.7z"/>
	<polygon class="st1" points="47,93.6 52.9,91.4 52,90.3 45.8,92.6 	"/>
	<path class="st1" d="M102.5,101.6c-0.1,0-0.1,0.1-0.2,0.1l10,26.9c0.1,0.1,0.2,0.1,0.3,0.2c0.4,0.2,0.9,0.4,1.4,0.4l0,0
		c-0.1,0-0.5,0.2-1.1,0.6c-0.1,0-0.1,0.1-0.2,0.1l8,21.5c0.3,0.7-0.1,1.6-0.8,1.8l-13.8,5.1c0,0,0.1,0,0.1,0
		c0.5,0.2,0.9,0.5,1.1,0.8l14.4-5.3c0.8-0.3,1.1-1.1,0.9-1.9l-19-51.4c0,0-0.1,0.1-0.1,0.1C103.1,101,102.8,101.3,102.5,101.6z"/>
	<path class="st1" d="M87,80.1l5-1.8c0.7-0.3,1.6,0.1,1.8,0.8l3.8,10.2c0.5,0.1,0.9,0.1,1.4,0.1c0.1,0,0.2,0,0.3,0l-4.4-12
		c-0.3-0.8-1.1-1.1-1.9-0.9l-5.9,2.2c0,0.3-0.1,0.7-0.1,1C87,79.8,87.1,79.9,87,80.1z"/>
	<path class="st1" d="M64,173.9c0.1,0.4,0.1,0.8,0.2,1.3l6.1-2.3l-0.3-1.2L64,173.9z"/>
	<polygon class="st1" points="53.7,92.4 52.9,91.4 47,93.6 48.1,94.4 	"/>
	<path class="st1" d="M100.9,102.5l4.4,12c0.2-0.1,0.3-0.2,0.5-0.3c0.1-0.1,0.2-0.2,0.3-0.2c0.1,0.6,0.2,1.3,0.3,1.9
		c0.2,1.3,0.5,2.6,0.9,3.9l2,5.5c0.4,0.8,0.8,1.4,1.3,2c0.5,0.6,1,1,1.5,1.3l-10-26.9c-0.3,0.2-0.5,0.4-0.8,0.6
		C101.3,102.4,101.1,102.4,100.9,102.5z"/>
	<path class="st1" d="M91.1,79.8c0.7-0.3,1.5,0.1,1.8,0.8l3.1,8.3c0,0,0.1,0,0.1,0c0.5,0.1,1,0.2,1.5,0.2c0,0,0.1,0,0.1,0L93.9,79
		c-0.3-0.7-1.1-1.1-1.8-0.8l-5,1.8c0,0.4,0,0.8,0,1.3L91.1,79.8z"/>
	<path class="st1" d="M111.4,130.9l7.4,20c0.3,0.7-0.1,1.5-0.8,1.8l-13.8,5.1c0.7,0.2,1.3,0.4,1.8,0.6l13.8-5.1
		c0.7-0.3,1.1-1.1,0.8-1.8l-8-21.5c-0.3,0.2-0.5,0.3-0.8,0.6C111.7,130.6,111.6,130.7,111.4,130.9z"/>
	<path class="st1" d="M69.7,170.5l-5.9,2.2c0,0.3,0.1,0.6,0.1,0.9c0,0.1,0,0.2,0,0.3l6-2.2L69.7,170.5z"/>
	<polygon class="st1" points="54.5,93.4 53.7,92.4 48.1,94.4 49.3,95.3 	"/>
	<path class="st1" d="M87.3,82.5l2.9-1.1c0.7-0.3,1.5,0.1,1.7,0.8l2.3,6.3c0.1,0,0.2,0.1,0.4,0.1c0.4,0.1,0.9,0.2,1.3,0.3l-3.1-8.3
		c-0.3-0.7-1.1-1.1-1.8-0.8l-4,1.5c0,0.2,0,0.4,0.1,0.6C87.2,82.1,87.2,82.3,87.3,82.5z"/>
	<path class="st1" d="M63.6,171.5c0.1,0.4,0.1,0.8,0.2,1.2l5.9-2.2l-0.3-1.1L63.6,171.5z"/>
	<path class="st1" d="M99.6,103.2L104,115c0.3-0.1,0.5-0.1,0.7-0.2c0.2-0.1,0.4-0.2,0.6-0.3l-4.4-12c-0.2,0.1-0.4,0.2-0.6,0.3
		C100.1,103,99.9,103.1,99.6,103.2z"/>
	<path class="st1" d="M109.4,125.3l-2-5.5C107.9,121.9,108.5,123.7,109.4,125.3z"/>
	<path class="st1" d="M110.3,132l6.8,18.4c0.3,0.7-0.1,1.5-0.8,1.7l-14.2,5.3c0.1,0,0.2,0,0.3,0c0.7,0.1,1.3,0.3,1.8,0.4
		c0,0,0,0,0,0l13.8-5.1c0.7-0.3,1.1-1.1,0.8-1.8l-7.4-20c-0.2,0.2-0.4,0.3-0.6,0.5C110.7,131.6,110.5,131.8,110.3,132z"/>
	<polygon class="st1" points="55.3,94.3 54.5,93.4 49.3,95.3 50.4,96.1 	"/>
	<path class="st1" d="M117.1,150.4l-6.8-18.4c-0.1,0.1-0.3,0.3-0.4,0.4c-0.2,0.3-0.4,0.5-0.7,0.8l6.1,16.6c0.2,0.7-0.1,1.4-0.8,1.7
		L99.8,157c0.2,0,0.5,0.1,0.7,0.1c0.5,0.1,1.1,0.2,1.6,0.3l14.2-5.3C117,151.8,117.3,151,117.1,150.4z"/>
	<path class="st1" d="M98.3,103.8l4.3,11.5c0.3,0,0.6-0.1,0.9-0.1c0.2,0,0.3-0.1,0.5-0.1l-4.4-11.9c-0.2,0.1-0.3,0.1-0.5,0.2
		C98.9,103.5,98.6,103.6,98.3,103.8z"/>
	<path class="st1" d="M89.3,83c0.7-0.2,1.4,0.1,1.7,0.8l1.6,4.2c0.2,0.1,0.5,0.2,0.7,0.3c0.3,0.1,0.7,0.2,1,0.3l-2.3-6.3
		c-0.3-0.7-1-1-1.7-0.8l-2.9,1.1c0.1,0.4,0.2,0.7,0.3,1.1L89.3,83z"/>
	<path class="st1" d="M63.5,170.4c0,0.4,0.1,0.8,0.2,1.1l5.8-2.1l-0.3-1.1L63.5,170.4z"/>
	<polygon class="st1" points="56,95.3 55.3,94.3 50.4,96.1 51.4,97 	"/>
	<path class="st1" d="M88.1,84.6l0.3-0.1c0.6-0.2,1.4,0.1,1.6,0.7l0.7,1.9c0.4,0.2,0.7,0.4,1.2,0.6c0.2,0.1,0.4,0.2,0.6,0.3
		l-1.6-4.2c-0.2-0.7-1-1-1.7-0.8l-1.6,0.6c0,0,0,0.1,0.1,0.1C87.8,84,88,84.3,88.1,84.6z"/>
	<path class="st1" d="M97,104.2l4.1,11.2c0.4,0,0.7,0,1-0.1c0.1,0,0.3,0,0.4-0.1l-4.3-11.5c-0.1,0-0.2,0.1-0.3,0.1
		C97.7,104,97.4,104.1,97,104.2z"/>
	<path class="st1" d="M108.3,134.7l5.4,14.6c0.2,0.6-0.1,1.4-0.7,1.6l-15.6,5.8c0.4,0,0.9,0.1,1.3,0.1c0.4,0,0.7,0.1,1.1,0.1
		l14.8-5.5c0.7-0.2,1-1,0.8-1.7l-6.1-16.6c-0.1,0.1-0.2,0.2-0.3,0.4C108.7,133.9,108.5,134.3,108.3,134.7z"/>
	<path class="st1" d="M63.3,169.3c0,0.4,0.1,0.7,0.1,1.1l5.7-2.1l-0.3-1.1L63.3,169.3z"/>
	<polygon class="st1" points="56.7,96.2 56,95.3 51.4,97 52.5,97.7 	"/>
	<path class="st1" d="M107.5,136.3l4.6,12.5c0.2,0.6-0.1,1.3-0.7,1.6l-16.4,6.1c0,0,0,0,0,0c0.6,0,1.3,0.1,1.9,0.2
		c0.2,0,0.4,0,0.6,0.1l15.6-5.8c0.6-0.2,1-1,0.7-1.6l-5.4-14.6c-0.1,0.1-0.1,0.2-0.2,0.4C107.9,135.4,107.7,135.8,107.5,136.3z"/>
	<path class="st1" d="M63.2,168.2c0,0.3,0.1,0.7,0.1,1.1l5.6-2.1l-0.2-1L63.2,168.2z"/>
	<path class="st1" d="M96.7,104.3c-0.3,0.1-0.6,0.2-1,0.3l4,10.8c0.4,0,0.7,0,1.1,0c0.1,0,0.2,0,0.3,0L97,104.2
		C96.9,104.3,96.8,104.3,96.7,104.3z"/>
	<path class="st1" d="M89.5,86.2c0.3,0.3,0.7,0.6,1.1,0.9c0,0,0.1,0,0.1,0L90,85.2c-0.2-0.6-1-1-1.6-0.7l-0.3,0.1
		c0.1,0.2,0.2,0.4,0.3,0.5C88.8,85.5,89.1,85.8,89.5,86.2z"/>
	<polygon class="st1" points="57.4,97 56.7,96.2 52.5,97.7 53.5,98.5 	"/>
	<path class="st1" d="M94.5,105l3.8,10.3c0.4,0,0.7,0,1.1,0.1c0.1,0,0.2,0,0.3,0l-4-10.8c-0.1,0-0.2,0.1-0.3,0.1
		C95.1,104.8,94.8,104.9,94.5,105z"/>
	<path class="st1" d="M68.4,165.2l-5.3,2c0,0.3,0.1,0.7,0.1,1l5.5-2l-0.1-0.6L68.4,165.2z"/>
	<path class="st1" d="M106.8,138.1l3.8,10.2c0.2,0.6-0.1,1.3-0.7,1.5l-17.4,6.4c0.2,0,0.4,0,0.6,0c0.6,0,1.3,0.1,1.9,0.1l16.4-6.1
		c0.6-0.2,1-0.9,0.7-1.6l-4.6-12.5c-0.1,0.1-0.1,0.3-0.2,0.4C107.1,137.2,106.9,137.6,106.8,138.1z"/>
	<polygon class="st1" points="58.1,97.9 57.4,97 53.5,98.5 54.5,99.2 	"/>
	<path class="st1" d="M106.2,140.2l2.8,7.7c0.2,0.6-0.1,1.3-0.7,1.5l-18.5,6.8c0.4,0,0.8,0,1.2,0.1c0.4,0,0.9,0,1.3,0.1l17.4-6.4
		c0.6-0.2,0.9-0.9,0.7-1.5l-3.8-10.2c-0.1,0.2-0.1,0.4-0.2,0.6C106.4,139.2,106.3,139.7,106.2,140.2z"/>
	<path class="st1" d="M62.9,166.1c0,0.3,0.1,0.7,0.1,1l5.3-2l-0.2-1L62.9,166.1z"/>
	<path class="st1" d="M93.3,105.3l3.7,9.9c0.3,0,0.6,0.1,0.9,0.1c0.1,0,0.3,0,0.4,0L94.5,105c-0.1,0-0.3,0.1-0.4,0.1
		C93.9,105.2,93.6,105.3,93.3,105.3z"/>
	<polygon class="st1" points="55.4,100 58.8,98.7 58.1,97.9 54.5,99.2 	"/>
	<path class="st1" d="M92.1,105.6l3.5,9.5c0.3,0,0.5,0.1,0.8,0.1c0.2,0,0.4,0,0.6,0.1l-3.7-9.9c-0.2,0-0.3,0.1-0.5,0.1
		C92.6,105.5,92.3,105.6,92.1,105.6z"/>
	<path class="st1" d="M105.8,142.6l1.8,4.9c0.2,0.6-0.1,1.2-0.7,1.4l-19.5,7.2c0.6,0,1.2,0,1.8,0.1c0.3,0,0.5,0,0.8,0l18.5-6.8
		c0.6-0.2,0.9-0.9,0.7-1.5l-2.8-7.7c-0.1,0.3-0.1,0.7-0.2,1C105.9,141.6,105.8,142.1,105.8,142.6z"/>
	<path class="st1" d="M62.8,165.1c0,0.3,0.1,0.6,0.1,1l5.2-1.9l-0.2-1L62.8,165.1z"/>
	<polygon class="st1" points="59.4,99.5 58.8,98.7 55.4,100 56.3,100.7 	"/>
	<path class="st1" d="M67.7,162.3l-5,1.9c0,0.3,0.1,0.6,0.1,1l5.1-1.9L67.7,162.3z"/>
	<path class="st1" d="M90.9,105.9l3.4,9.1c0.2,0,0.3,0,0.5,0.1c0.3,0,0.6,0.1,0.8,0.1l-3.5-9.5c-0.2,0.1-0.5,0.1-0.7,0.2
		C91.2,105.8,91.1,105.9,90.9,105.9z"/>
	<path class="st1" d="M105.5,144l-0.3,0.6l0.9,2.4c0.2,0.6-0.1,1.2-0.6,1.4L84.8,156c0.1,0,0.2,0,0.2,0c0.7,0,1.4,0,2,0.1
		c0.1,0,0.2,0,0.2,0l19.5-7.2c0.6-0.2,0.9-0.9,0.7-1.4l-1.8-4.9c-0.1,0.5-0.1,1.1-0.2,1.7L105.5,144z"/>
	<polygon class="st1" points="60,100.3 59.4,99.5 56.3,100.7 57.2,101.3 	"/>
	<path class="st1" d="M89.8,106.1l3.2,8.7c0,0,0.1,0,0.1,0c0.4,0.1,0.8,0.1,1.1,0.2l-3.4-9.1c-0.3,0.1-0.7,0.1-1,0.2
		C89.9,106.1,89.8,106.1,89.8,106.1z"/>
	<path class="st1" d="M104.7,146l-0.1,0l0.2,0.6c0.2,0.5-0.1,1.1-0.6,1.3l-21.8,8.1c0.2,0,0.4,0,0.7,0c0.6,0,1.2,0,1.8,0l20.7-7.6
		c0.6-0.2,0.8-0.8,0.6-1.4l-0.9-2.4L104.7,146L104.7,146z"/>
	<path class="st1" d="M62.6,163.3c0,0.3,0.1,0.6,0.1,0.9l5-1.9l-0.2-0.9L62.6,163.3z"/>
	<polygon class="st1" points="60.6,101 60,100.3 57.2,101.3 58.1,102 	"/>
	<path class="st1" d="M91.7,114.6c0.4,0.1,0.8,0.1,1.3,0.2l-3.2-8.7c-0.4,0.1-0.7,0.1-1.1,0.2L91.7,114.6z"/>
	<path class="st1" d="M104.8,146.5l-0.2-0.6l-1.1,0.1l0,0c0.2,0.5-0.1,1.1-0.6,1.3l-23,8.5c0.3,0,0.7,0,1,0c0.5,0,1,0,1.4,0
		l21.8-8.1C104.7,147.7,105,147.1,104.8,146.5z"/>
	<path class="st1" d="M62.5,162.3c0,0.2,0,0.4,0.1,0.6c0,0.1,0,0.2,0,0.3l4.9-1.8l-0.2-0.9L62.5,162.3z"/>
	<polygon class="st1" points="61.2,101.8 60.6,101 58.1,102 58.9,102.6 	"/>
	<path class="st1" d="M87.6,106.5l2.9,7.8c0.3,0.1,0.6,0.1,0.9,0.2c0.1,0,0.2,0,0.3,0l-3-8.2c-0.1,0-0.2,0-0.2,0
		C88.2,106.4,87.9,106.5,87.6,106.5z"/>
	<path class="st1" d="M62.3,161.5c0.1,0.2,0.1,0.3,0.1,0.3s0,0.2,0.1,0.5l4.8-1.8l-0.2-0.8L62.3,161.5z"/>
	<path class="st1" d="M102.2,146.2c0,0.3-0.3,0.7-0.6,0.8l-24.1,8.9c0.4,0,0.9,0,1.4,0c0.4,0,0.7,0,1.1,0l23-8.5
		c0.5-0.2,0.8-0.8,0.6-1.3l0,0l-0.3,0L102.2,146.2z"/>
	<polygon class="st1" points="61.8,102.5 61.2,101.8 58.9,102.6 59.7,103.2 	"/>
	<path class="st1" d="M62.1,160.7c0.1,0.3,0.1,0.6,0.2,0.8l4.8-1.8l-0.2-0.8L62.1,160.7z"/>
	<path class="st1" d="M100.6,146.3c-0.1,0.1-0.2,0.2-0.3,0.2L75,155.9c0.5,0,1,0,1.6,0c0.3,0,0.6,0,0.8,0l24.1-8.9
		c0.4-0.1,0.6-0.4,0.6-0.8l-0.6,0.1L100.6,146.3z"/>
	<path class="st1" d="M86.9,106.6c-0.1,0-0.2,0-0.4,0.1l2.8,7.5c0.1,0,0.3,0.1,0.4,0.1c0.3,0,0.5,0.1,0.8,0.1l-2.9-7.8
		C87.4,106.6,87.2,106.6,86.9,106.6z"/>
	<polygon class="st1" points="62.3,103.2 61.8,102.5 59.7,103.2 60.5,103.8 	"/>
	<path class="st1" d="M98.3,146.5l-0.4,0l-25.4,9.4c0.6,0,1.1,0,1.7,0c0.2,0,0.4,0,0.6,0l25.3-9.4c0.1-0.1,0.2-0.1,0.3-0.2l-0.7,0.1
		L98.3,146.5z"/>
	<path class="st1" d="M62,159.8c0,0.3,0.1,0.6,0.1,0.8l4.8-1.8l-0.2-0.8L62,159.8z"/>
	<path class="st1" d="M88.2,113.9c0.4,0.1,0.8,0.1,1.2,0.2l-2.8-7.5c-0.3,0.1-0.7,0.1-1,0.2L88.2,113.9z"/>
	<polygon class="st1" points="62.8,103.8 62.3,103.2 60.5,103.8 61.3,104.4 	"/>
	<path class="st1" d="M84.5,107l2.5,6.7c0.3,0.1,0.6,0.1,0.9,0.2c0.1,0,0.1,0,0.2,0l-2.6-7.1c-0.1,0-0.1,0-0.2,0
		C85.1,106.9,84.8,106.9,84.5,107z"/>
	<path class="st1" d="M62,159c0,0.3,0,0.6,0,0.8l4.7-1.7l-0.2-0.8L62,159z"/>
	<path class="st1" d="M95,146.8L70.2,156c0.6,0,1.2,0,1.8,0c0.2,0,0.4,0,0.5,0l25.4-9.4l-1.3,0.1L95,146.8z"/>
	<polygon class="st1" points="62,105 63.4,104.5 62.8,103.8 61.3,104.4 	"/>
	<path class="st1" d="M83.6,107.1l2.3,6.3c0.1,0,0.1,0,0.2,0c0.3,0.1,0.6,0.1,0.9,0.2l-2.5-6.7c-0.3,0-0.5,0.1-0.8,0.1
		C83.7,107.1,83.6,107.1,83.6,107.1z"/>
	<path class="st1" d="M62.1,158.2c0,0.3-0.1,0.6-0.1,0.8l4.5-1.7l-0.2-0.7L62.1,158.2z"/>
	<path class="st1" d="M93.3,147l-1.1,0.1l-24.3,9c0.5,0,1.1,0,1.8,0c0.2,0,0.3,0,0.5,0l24.8-9.2l0,0L93.3,147z"/>
	<polygon class="st1" points="63.9,105.1 63.4,104.5 62,105 62.7,105.5 	"/>
	<path class="st1" d="M84.8,113.2c0.4,0.1,0.7,0.2,1.1,0.2l-2.3-6.3c-0.3,0-0.6,0.1-0.9,0.1L84.8,113.2z"/>
	<path class="st1" d="M66.2,156.1c0,0,0.4,0,1.2,0c0.2,0,0.3,0,0.5,0l24.3-9l-0.7,0.1l-1.8,0.2l-0.3,0l-27.1,10
		c-0.1,0.3-0.1,0.6-0.2,0.9l4.3-1.6L66.2,156.1z"/>
	<polygon class="st1" points="64.3,105.7 63.9,105.1 62.7,105.5 63.4,106 	"/>
	<path class="st1" d="M86.7,147.5l-24.1,8.9c-0.1,0.3-0.2,0.6-0.3,0.9l27.1-10l-1.5,0.1L86.7,147.5z"/>
	<path class="st1" d="M81.7,107.3l2.1,5.7c0.2,0,0.3,0.1,0.5,0.1c0.2,0,0.4,0.1,0.6,0.1l-2.2-6c-0.2,0-0.3,0-0.5,0.1
		C82,107.3,81.9,107.3,81.7,107.3z"/>
	<polygon class="st1" points="64.8,106.3 64.3,105.7 63.4,106 64.1,106.6 	"/>
	<path class="st1" d="M84.1,147.8l-21,7.8c-0.2,0.3-0.3,0.6-0.5,0.9c0,0,0,0,0,0l24.1-8.9l-0.7,0.1L84.1,147.8z"/>
	<path class="st1" d="M80.8,107.4l2,5.3c0.3,0.1,0.7,0.2,1,0.2l-2.1-5.7C81.4,107.4,81.1,107.4,80.8,107.4z"/>
	<polygon class="st1" points="65.3,106.9 64.8,106.3 64.1,106.6 64.8,107.1 	"/>
	<path class="st1" d="M80,107.5l1.8,5c0.2,0,0.4,0.1,0.6,0.1c0.1,0,0.3,0.1,0.4,0.1l-2-5.3c-0.1,0-0.3,0-0.4,0
		C80.3,107.5,80.1,107.5,80,107.5z"/>
	<path class="st1" d="M82.1,147.9l-0.5,0l-17.8,6.6c-0.3,0.3-0.5,0.6-0.7,1l21-7.8l0,0L82.1,147.9z"/>
	<polygon class="st1" points="65.7,107.4 65.3,106.9 64.8,107.1 65.4,107.5 	"/>
	<path class="st1" d="M80.8,112.3c0.3,0.1,0.6,0.2,1,0.2l-1.8-5c-0.3,0-0.6,0.1-0.8,0.1L80.8,112.3z"/>
	<path class="st1" d="M79.1,148.2l-14.4,5.3c-0.2,0.2-0.4,0.3-0.5,0.5c-0.2,0.2-0.3,0.4-0.5,0.6l17.8-6.6l-1.5,0.1L79.1,148.2z"/>
	<polygon class="st1" points="66,108 66.1,108 65.7,107.4 65.4,107.5 	"/>
	<path class="st1" d="M66.5,108.4c0,0,0.1,0,0.2,0.1l0.2-0.1C66.6,108.4,66.5,108.4,66.5,108.4z"/>
	<path class="st1" d="M78.1,148.3c-0.7,0.1-1.4,0.2-2,0.3c-0.1,0-0.1,0-0.2,0l-9.6,3.5c-0.1,0.1-0.2,0.1-0.3,0.2
		c-0.5,0.4-0.9,0.7-1.3,1.1l14.4-5.3l-0.3,0C78.5,148.2,78.3,148.3,78.1,148.3z"/>
	<path class="st1" d="M78.3,107.7l1.6,4.4c0.2,0,0.3,0.1,0.5,0.1c0.1,0,0.3,0.1,0.4,0.1l-1.7-4.7c-0.1,0-0.3,0-0.4,0
		C78.6,107.7,78.4,107.7,78.3,107.7z"/>
	<polygon class="st1" points="66.1,108 66,108 66.5,108.4 	"/>
	<path class="st1" d="M79,111.8c0.3,0.1,0.6,0.2,0.9,0.2l-1.6-4.4c-0.3,0-0.5,0-0.8,0.1L79,111.8z"/>
	<path class="st1" d="M67.7,108.7l1.1-0.4c-0.5,0-1,0-1.4,0c-0.2,0-0.4,0-0.6,0l-0.2,0.1C66.9,108.5,67.2,108.6,67.7,108.7
		C67.6,108.7,67.6,108.7,67.7,108.7z"/>
	<path class="st1" d="M74,149.1c-0.7,0.2-1.4,0.4-2,0.5c-0.7,0.2-1.4,0.5-2,0.7c-0.7,0.3-1.4,0.6-2,0.9c-0.6,0.3-1.2,0.7-1.7,1
		l9.6-3.5C75.2,148.8,74.6,149,74,149.1z"/>
	<path class="st1" d="M70.7,108.2c-0.5,0-0.9,0-1.3,0.1c-0.2,0-0.4,0-0.6,0l-1.1,0.4c0.3,0.1,0.6,0.2,1,0.3L70.7,108.2z"/>
	<path class="st1" d="M77,107.8c-0.1,0-0.2,0-0.2,0l1.4,3.8c0.1,0,0.2,0,0.3,0.1c0.2,0.1,0.4,0.1,0.6,0.2l-1.5-4.1
		C77.3,107.8,77.1,107.8,77,107.8z"/>
	<path class="st1" d="M72.7,108.1c-0.4,0-0.9,0-1.3,0.1c-0.2,0-0.4,0-0.7,0l-2.1,0.8c0.3,0.1,0.6,0.2,0.9,0.3L72.7,108.1z"/>
	<path class="st1" d="M77.3,111.4c0.3,0.1,0.6,0.1,0.9,0.2l-1.4-3.8c-0.3,0-0.5,0-0.8,0.1L77.3,111.4z"/>
	<path class="st1" d="M74.8,108c0.2,0,0.5,0.2,0.6,0.4l1,2.8c0.3,0.1,0.6,0.1,0.8,0.2l-1.3-3.5c-0.3,0-0.6,0-0.8,0.1
		C75,108,75,108,74.8,108z"/>
	<path class="st1" d="M69.9,109.4c0.2,0.1,0.4,0.1,0.6,0.2l4.1-1.5c0.1,0,0.1,0,0.2,0c-0.5,0-1,0.1-1.5,0.1c-0.2,0-0.4,0-0.6,0
		l-3.1,1.2C69.6,109.3,69.7,109.3,69.9,109.4z"/>
	<path class="st1" d="M74.2,108.8c0.3-0.1,0.7,0,0.8,0.4l0.7,1.9c0.2,0.1,0.5,0.1,0.7,0.2c0,0,0.1,0,0.1,0l-1-2.8
		c-0.1-0.2-0.3-0.4-0.6-0.4c0,0,0,0-0.1,0c-0.1,0-0.1,0-0.2,0l-4.1,1.5c0.3,0.1,0.6,0.2,0.9,0.3L74.2,108.8z"/>
	<path class="st1" d="M74.1,108.8l-2.8,1c0.2,0.1,0.5,0.1,0.7,0.2c0,0,0.1,0,0.1,0l1.5-0.6c0.3-0.1,0.7,0,0.8,0.4l0.3,0.9
		c0.3,0.1,0.5,0.1,0.8,0.2l-0.7-1.9C74.8,108.8,74.5,108.6,74.1,108.8z"/>
	<path class="st1" d="M73.3,110.2c0.3-0.1,0.6,0,0.8,0.3l0,0c0,0,0.1,0,0.1,0c0.2,0.1,0.4,0.1,0.6,0.2l-0.3-0.9
		c-0.1-0.3-0.5-0.5-0.8-0.4l-1.5,0.6c0.3,0.1,0.6,0.2,0.8,0.2L73.3,110.2z"/>
	<path class="st1" d="M73.3,110.2l-0.3,0.1c0.3,0.1,0.7,0.2,1.1,0.3l0,0C74,110.2,73.6,110.1,73.3,110.2z"/>
</g>
</svg>
