<?xml version="1.0" encoding="utf-8"?>
<!-- Generator: Adobe Illustrator 22.0.1, SVG Export Plug-In . SVG Version: 6.00 Build 0)  -->
<svg version="1.1" id="レイヤー_1" xmlns="http://www.w3.org/2000/svg" xmlns:xlink="http://www.w3.org/1999/xlink" x="0px"
	 y="0px" viewBox="0 0 640 640" style="enable-background:new 0 0 640 640;" xml:space="preserve">
<style type="text/css">
	.st0{fill:#E50012;stroke:#E5004C;stroke-width:0.342;stroke-miterlimit:10;}
	.st1{fill:none;stroke:#E5004C;stroke-width:0.342;stroke-miterlimit:10;}
</style>
<g id="レイヤー_2_1_">
</g>
<g>
	<path class="st0" d="M80.3,550.9c0.2,0.1,0.4,0.1,0.6,0.2l-0.4-0.3C80.3,550.9,80.3,550.9,80.3,550.9z"/>
	<path class="st0" d="M42.9,527.5c0,0,0-0.1,0-0.2l-0.4-0.3C42.6,527.2,42.7,527.3,42.9,527.5z"/>
	<path class="st1" d="M84.1,550.3c0.8-0.5,1.6-1.1,2.5-1.9c0.1-0.1,0.1-0.1,0.2-0.2l-2.5-1.5c-0.5,0.6-0.9,1.1-1.3,1.6
		c-1.1,1.3-1.9,2-2.3,2.4c-0.1,0.1-0.2,0.2-0.2,0.2l0.4,0.3c0,0,0,0,0.1,0C81.9,551.3,82.9,551,84.1,550.3z"/>
	<path class="st1" d="M45,522l-2.5-1.5c-0.1,0.3-0.2,0.7-0.3,1c-0.7,2.4-0.7,4.4,0.2,5.6l0.4,0.3c0.1-0.3,0.3-1.2,1-2.8
		C44.2,523.8,44.6,523,45,522z"/>
	<path class="st1" d="M90.4,544.1l-2.8-1.7c-0.2,0.2-0.3,0.5-0.5,0.7c-0.7,1-1.4,1.9-2,2.6c-0.3,0.3-0.5,0.7-0.8,1l2.5,1.5
		c0.6-0.6,1.3-1.3,2-2.1C89.3,545.5,89.8,544.8,90.4,544.1z"/>
	<path class="st1" d="M45.7,520.4c0.5-1,1-2.1,1.7-3.3l-2.8-1.7c-0.3,0.5-0.5,1.1-0.8,1.6c-0.6,1.2-1,2.4-1.4,3.5L45,522
		C45.2,521.5,45.5,521,45.7,520.4z"/>
	<path class="st1" d="M49.7,513.1c0.1-0.2,0.2-0.4,0.3-0.6l-2.8-1.8c-0.5,0.8-0.9,1.6-1.4,2.4c-0.4,0.8-0.8,1.5-1.2,2.2l2.8,1.7
		c0.1-0.2,0.2-0.3,0.2-0.5C48.3,515.5,48.9,514.4,49.7,513.1z"/>
	<path class="st1" d="M92.7,540.9c0.2-0.4,0.5-0.7,0.7-1.1l-2.8-1.8c-0.6,0.8-1.1,1.6-1.6,2.3c-0.5,0.7-1,1.4-1.4,2l2.8,1.7
		c0.1-0.2,0.2-0.3,0.4-0.5C91.4,542.7,92.1,541.8,92.7,540.9z"/>
	<path class="st1" d="M52.6,508.1l-2.7-1.7c-0.7,1.1-1.4,2.2-2,3.3c-0.2,0.4-0.4,0.7-0.6,1.1l2.8,1.8c0.5-0.9,1.1-1.8,1.7-2.8
		C52,509.2,52.3,508.7,52.6,508.1z"/>
	<path class="st1" d="M94.6,538.1c0.5-0.8,1.1-1.7,1.6-2.6l-2.7-1.7c-0.3,0.4-0.5,0.8-0.8,1.2c-0.6,1-1.2,1.9-1.8,2.7
		c-0.1,0.1-0.2,0.2-0.2,0.4l2.8,1.8C93.8,539.2,94.2,538.7,94.6,538.1z"/>
	<path class="st1" d="M55.3,503.9l-2.6-1.7c-0.2,0.3-0.5,0.7-0.7,1c-0.7,1-1.4,2.1-2.1,3.1c0,0,0,0,0,0l2.7,1.7
		c0.3-0.5,0.7-1.1,1-1.7C54.2,505.6,54.7,504.8,55.3,503.9z"/>
	<path class="st1" d="M97.9,532.7c0.3-0.5,0.6-1,0.8-1.5l-2.6-1.7c0,0,0,0,0,0c-0.6,0.9-1.1,1.8-1.7,2.7c-0.3,0.5-0.6,1-1,1.5
		l2.7,1.7c0,0,0.1-0.1,0.1-0.1C96.8,534.5,97.4,533.6,97.9,532.7z"/>
	<path class="st1" d="M55.7,503.3c0.2-0.4,0.5-0.7,0.7-1.1c0.3-0.4,0.7-1.1,1.2-2c0.1-0.1,0.2-0.3,0.2-0.4l-2.4-1.5
		c-0.5,0.6-0.9,1.3-1.4,1.9c-0.5,0.7-0.9,1.3-1.4,2l2.6,1.7C55.4,503.7,55.5,503.5,55.7,503.3z"/>
	<path class="st1" d="M100.9,527.3c0.1-0.1,0.1-0.2,0.2-0.3l-2.4-1.5c-0.4,0.5-0.7,1-0.9,1.4c-0.2,0.4-0.5,0.7-0.6,1
		c-0.3,0.6-0.7,1.1-1,1.7l2.6,1.7c0.2-0.4,0.4-0.8,0.7-1.2C99.9,529.2,100.4,528.3,100.9,527.3z"/>
	<path class="st1" d="M60.2,495.8l-2-1.3c0,0,0,0.1-0.1,0.1c-0.7,0.9-1.4,1.8-2,2.8c-0.2,0.3-0.4,0.6-0.7,0.9l2.4,1.5
		c0.5-0.8,1-1.7,1.6-2.7C59.7,496.7,59.9,496.3,60.2,495.8z"/>
	<path class="st1" d="M103.3,522.9l-2-1.3c-0.1,0.1-0.2,0.3-0.2,0.4c-0.6,0.9-1.1,1.7-1.6,2.4c-0.3,0.4-0.5,0.7-0.7,1.1l2.4,1.5
		c0.4-0.8,0.9-1.6,1.3-2.4C102.7,524,103,523.5,103.3,522.9z"/>
	<path class="st1" d="M103.8,521.9c0.5-0.9,0.9-1.8,1.4-2.7c0.1-0.1,0.1-0.2,0.2-0.3l-1.7-1.1c-0.4,0.6-0.7,1.2-1.1,1.8
		c-0.4,0.7-0.9,1.4-1.3,2.1l2,1.3C103.5,522.6,103.6,522.2,103.8,521.9z"/>
	<path class="st1" d="M62.6,492l-1.7-1.1c-0.3,0.3-0.5,0.7-0.8,1c-0.6,0.8-1.3,1.7-1.9,2.6l2,1.3c0.3-0.6,0.7-1.1,1.1-1.7
		C61.7,493.4,62.1,492.7,62.6,492z"/>
	<path class="st1" d="M64.9,488.5c0-0.1,0.1-0.1,0.1-0.2l-1.4-0.9c-0.5,0.6-1,1.3-1.5,1.9c-0.4,0.5-0.8,1-1.2,1.5l1.7,1.1
		c0.2-0.3,0.3-0.5,0.5-0.8C63.7,490.3,64.3,489.4,64.9,488.5z"/>
	<path class="st1" d="M107.3,514.9l-1.5-0.9c-0.1,0.2-0.2,0.4-0.3,0.7c-0.5,0.8-0.9,1.7-1.4,2.5c-0.1,0.2-0.3,0.4-0.4,0.7l1.7,1.1
		c0.4-0.8,0.8-1.6,1.2-2.3C106.8,516,107.1,515.5,107.3,514.9z"/>
	<path class="st1" d="M109.1,511.3c0-0.1,0.1-0.2,0.1-0.2l-1.4-0.9c-0.3,0.6-0.6,1.3-0.9,1.9c-0.3,0.6-0.7,1.3-1,1.9l1.5,0.9
		c0.2-0.3,0.3-0.7,0.5-1C108.2,513,108.7,512.1,109.1,511.3z"/>
	<path class="st1" d="M66.8,486c0.3-0.4,0.6-0.7,0.9-1l-1.4-0.9c-0.1,0.1-0.2,0.2-0.3,0.3c-0.6,0.8-1.3,1.6-1.9,2.4
		c-0.1,0.2-0.3,0.4-0.5,0.6l1.4,0.9C65.6,487.6,66.2,486.8,66.8,486z"/>
	<path class="st1" d="M70.7,482l-1.7-1.1c-0.3,0.4-0.6,0.8-1,1.2c-0.5,0.6-1.1,1.3-1.6,2l1.4,0.9c0.4-0.4,0.7-0.8,1.1-1.2
		C69.4,483.1,70,482.5,70.7,482z"/>
	<path class="st1" d="M110.9,507.3l-1.7-1.1c0,0.1,0,0.2-0.1,0.3c-0.3,0.9-0.6,1.9-1,2.9c-0.1,0.2-0.2,0.5-0.3,0.7l1.4,0.9
		c0.4-0.8,0.8-1.6,1.1-2.3C110.5,508.2,110.7,507.8,110.9,507.3z"/>
	<path class="st1" d="M79.2,484.6c0,0-0.1-0.8-0.4-2.2l-0.9-0.6C78.4,482.6,78.8,483.5,79.2,484.6z"/>
	<path class="st1" d="M105.1,499c-1.3,0.4-2,0.6-2,0.6c0.9-0.1,1.6-0.2,2.3-0.1c0.3,0,0.5,0,0.8,0.1l-0.9-0.6
		C105.2,499,105.2,499,105.1,499z"/>
	<path class="st1" d="M111.5,506.2c0.5-1,0.9-1.9,1.1-2.5c0,0,0,0,0,0l-3.8-2.4l0.7,1.3c0.2,1,0,2.3-0.3,3.7l1.7,1.1
		C111.1,506.9,111.3,506.5,111.5,506.2z"/>
	<path class="st1" d="M73.1,480.4c0.6-0.3,1.2-0.4,1.8-0.4l-3.5-2.2c-0.4,0.5-1,1.2-1.7,2c-0.3,0.3-0.6,0.7-0.9,1.1l1.7,1.1
		c0.1-0.1,0.1-0.1,0.2-0.2C71.6,481.2,72.4,480.7,73.1,480.4z"/>
	<path class="st1" d="M114.4,502.5c0.6,0,1.3-0.2,2.1-0.5c0.2-0.1,0.4-0.1,0.6-0.2l-7-4.4c-0.2,0.1-0.5,0.1-0.7,0.2
		c-0.8,0.2-1.5,0.5-2.1,0.7c-0.8,0.2-1.5,0.5-2.1,0.6l0.9,0.6c1,0.1,1.7,0.4,2.3,0.9l0.4,0.8l3.8,2.4c0.4-0.9,0.6-1.3,0.6-1.3
		C113.4,502.5,113.9,502.5,114.4,502.5z"/>
	<path class="st1" d="M78.1,477.4l-7-4.4c0.3,2,0.7,3.4,1.3,3.7c0,0-0.3,0.3-0.8,0.9c0,0.1-0.1,0.1-0.2,0.2L75,480
		c0.3,0,0.7,0,1,0.2c0.7,0.3,1.4,0.8,2,1.7l0.9,0.6c-0.1-0.9-0.3-1.9-0.5-3.2C78.3,478.6,78.2,478,78.1,477.4z"/>
	<path class="st1" d="M77.5,472.5l-6.7-4.2c0,0.8,0.1,1.6,0.1,2.3c0.1,0.9,0.1,1.7,0.2,2.4l7,4.4C77.9,475.9,77.7,474.3,77.5,472.5z
		"/>
	<path class="st1" d="M121.5,500.2l-6.7-4.2c-0.4,0.1-0.8,0.3-1.2,0.4c-0.7,0.2-1.4,0.5-2,0.7c-0.5,0.2-0.9,0.3-1.4,0.4l7,4.4
		c1-0.3,2.2-0.8,3.5-1.3C120.9,500.4,121.2,500.3,121.5,500.2z"/>
	<path class="st1" d="M76.9,467.8l-6.2-3.9c0,0.2,0,0.5,0,0.7c0,1.3,0,2.5,0.1,3.6l6.7,4.2c0-0.2,0-0.4-0.1-0.6
		C77.2,470.6,77.1,469.3,76.9,467.8z"/>
	<path class="st1" d="M125.4,498.3l-6.2-3.9c-0.6,0.2-1.2,0.4-1.8,0.6c-0.7,0.2-1.3,0.4-1.9,0.7c-0.3,0.1-0.5,0.2-0.7,0.2l6.7,4.2
		c1-0.4,2.1-0.9,3.3-1.5C125,498.6,125.2,498.4,125.4,498.3z"/>
	<path class="st1" d="M128.5,496.8c0.2-0.1,0.4-0.2,0.6-0.3l-5.7-3.6c-0.8,0.3-1.5,0.6-2.3,0.8c-0.6,0.2-1.2,0.4-1.8,0.7
		c0,0-0.1,0-0.1,0l6.2,3.9C126.4,497.9,127.5,497.4,128.5,496.8z"/>
	<path class="st1" d="M76.4,463.4l-5.7-3.6c0,1.4,0,2.8,0,4.2l6.2,3.9c-0.1-0.9-0.2-1.8-0.3-2.7C76.6,464.6,76.5,464,76.4,463.4z"/>
	<path class="st1" d="M132.7,494.7l-5.2-3.3c-1.3,0.5-2.5,0.9-3.7,1.4c-0.1,0-0.2,0.1-0.3,0.1l5.7,3.6c1-0.5,1.9-1,2.9-1.5
		C132.3,494.9,132.5,494.8,132.7,494.7z"/>
	<path class="st1" d="M70.8,455.8c0,1.2-0.1,2.4-0.1,3.6c0,0.1,0,0.3,0,0.4l5.7,3.6c-0.1-1.4-0.3-2.8-0.4-4.3L70.8,455.8z"/>
	<path class="st1" d="M76,458.9c-0.1-1.3-0.2-2.6-0.3-3.9l-4.7-3c0,0.8-0.1,1.6-0.1,2.4c0,0.5,0,1,0,1.5L76,459
		C76,459,76,458.9,76,458.9z"/>
	<path class="st1" d="M136.1,492.9l-4.7-3c-1,0.4-2.1,0.8-3.1,1.2c-0.3,0.1-0.5,0.2-0.8,0.3l5.2,3.3c0.9-0.5,1.8-0.9,2.7-1.4
		C135.7,493.1,135.9,493,136.1,492.9z"/>
	<path class="st1" d="M139.4,491.1l-4.3-2.7c-0.8,0.3-1.7,0.7-2.5,1c-0.4,0.2-0.8,0.3-1.2,0.5l4.7,3c0.9-0.5,1.7-0.9,2.6-1.4
		C138.9,491.4,139.2,491.2,139.4,491.1z"/>
	<path class="st1" d="M75.5,450.9l-4.3-2.7c0,0.4,0,0.9-0.1,1.3c0,0.8-0.1,1.6-0.1,2.4l4.7,3c0-0.7-0.1-1.3-0.1-2
		C75.5,452.3,75.5,451.6,75.5,450.9z"/>
	<path class="st1" d="M177.7,504.7c-0.2,0.8-0.4,1.5-0.7,2.1c-0.2,0.5-0.4,0.8-0.6,1.2c0.5-0.1,0.9-0.5,1.3-1.1
		c0.3-0.5,0.6-1.2,0.9-2.1c0.2-0.6,0.4-1.3,0.5-2c0.1-0.6,0.3-1.3,0.4-2c0-0.1,0-0.1,0-0.2l-1.5,2.4
		C177.9,503.6,177.8,504.2,177.7,504.7z"/>
	<path class="st1" d="M102.5,466.8c0.9,0.7,2,1.3,3.1,1.7c0.1,0,0.2,0.1,0.3,0.1c1,1,2.1,1.8,3.2,2.4c0.9,0.4,1.8,0.8,2.7,1
		c0.8,0.2,1.5,0.3,2.3,0.4c0.5,0.1,1,0.1,1.5,0.1l-17.4-10.9C99.3,463.6,100.7,465.4,102.5,466.8z"/>
	<path class="st1" d="M141.8,489.8c0.2-0.1,0.5-0.3,0.7-0.4l-3.9-2.5c-0.7,0.3-1.4,0.6-2.1,0.9c-0.5,0.2-1,0.4-1.5,0.6l4.3,2.7
		C140.2,490.7,141,490.2,141.8,489.8z"/>
	<path class="st1" d="M75.3,447.1l-3.9-2.5c0,0.1,0,0.2,0,0.3c-0.1,1.1-0.1,2.2-0.2,3.3l4.3,2.7c-0.1-1.2-0.1-2.3-0.2-3.5
		C75.3,447.3,75.3,447.2,75.3,447.1z"/>
	<path class="st1" d="M71.6,441.2c-0.1,1.1-0.1,2.3-0.2,3.5l3.9,2.5c0-1.2-0.1-2.4-0.1-3.7L71.6,441.2z"/>
	<path class="st1" d="M180,496.8c0.1-0.6,0.1-1.2,0.2-1.9c0-0.6,0.1-1.2,0.1-1.9c0-0.3,0-0.6,0-0.9l-1.3,2.1c0,0.2,0,0.4,0,0.6
		c0,0.6-0.1,1.3-0.1,1.9c-0.1,0.7-0.1,1.3-0.2,1.9c-0.1,0.7-0.1,1.3-0.2,2c-0.1,0.7-0.2,1.4-0.3,2c0,0.1,0,0.2,0,0.3l1.5-2.4
		c0.1-0.6,0.2-1.2,0.2-1.8C179.9,498.1,180,497.5,180,496.8z"/>
	<path class="st1" d="M145.6,487.7l-3.6-2.3c-0.6,0.3-1.1,0.5-1.7,0.8c-0.5,0.2-1.1,0.5-1.7,0.7l3.9,2.5c0.8-0.4,1.5-0.9,2.3-1.3
		C145.1,488,145.3,487.8,145.6,487.7z"/>
	<path class="st1" d="M118.3,472.4c0.6-0.1,1.3-0.1,1.9-0.2c0.2,0,0.4-0.1,0.6-0.1l-24.2-15.2c0.4,1.6,1,3.2,1.8,4.7l17.4,10.9
		c0.2,0,0.4,0,0.7,0C116.9,472.5,117.6,472.4,118.3,472.4z"/>
	<path class="st1" d="M39.9,422.2c0.1-0.2,0.3-0.4,0.4-0.6l-0.4-0.2C39.9,421.6,39.9,421.9,39.9,422.2z"/>
	<path class="st1" d="M42.5,419.5l-0.8-0.5c-0.2,0.2-0.5,0.5-0.7,0.7c-0.5,0.6-0.9,1.2-1,1.7l0.4,0.2c0.3-0.4,0.6-0.8,1.1-1.2
		C41.8,420.1,42.1,419.8,42.5,419.5z"/>
	<path class="st1" d="M148.5,486l-3.4-2.1c-0.5,0.2-0.9,0.5-1.4,0.7c-0.6,0.3-1.2,0.5-1.8,0.8l3.6,2.3c0.7-0.4,1.5-0.8,2.2-1.2
		C148,486.3,148.3,486.2,148.5,486z"/>
	<path class="st1" d="M123.6,471.4c0.4-0.1,0.8-0.2,1.1-0.3l-29.1-18.3c0.1,0.4,0.1,0.8,0.2,1.3c0.2,0.9,0.4,1.8,0.6,2.7l24.2,15.2
		c0.4-0.1,0.8-0.1,1.2-0.2C122.5,471.7,123,471.6,123.6,471.4z"/>
	<path class="st1" d="M180.4,491.2c0-0.6,0-1.2,0.1-1.8c0-0.6,0-1.2,0-1.8c0-0.6,0-1.1,0-1.7c0-0.4,0-0.8,0-1.1l-1.3,2
		c0,0.3,0,0.5,0,0.8c0,0.6,0,1.2,0,1.8c0,0.6,0,1.2-0.1,1.8c0,0.6-0.1,1.2-0.1,1.8c0,0.4,0,0.8-0.1,1.3l1.3-2.1
		C180.3,491.8,180.4,491.5,180.4,491.2z"/>
	<path class="st1" d="M75.2,440l-3.4-2.1c-0.1,0.9-0.1,1.7-0.2,2.6c0,0.2,0,0.5,0,0.7l3.6,2.3c0-0.4,0-0.8,0-1.2
		C75.2,441.5,75.1,440.7,75.2,440z"/>
	<path class="st1" d="M180.6,482.6c0-0.5,0-1.1,0-1.6c0-0.5,0-1.1,0-1.6c0-0.4,0-0.9,0-1.3l-1.2,2c0,0.3,0,0.6,0,0.9
		c0,0.5,0,1.1,0,1.6c0,0.5,0,1.1,0,1.7c0,0.6,0,1.1,0,1.7c0,0.3,0,0.6,0,1l1.3-2c0-0.2,0-0.4,0-0.5
		C180.5,483.7,180.5,483.2,180.6,482.6z"/>
	<path class="st1" d="M75.2,436.6l-3.2-2c0,0.5-0.1,1-0.1,1.5c0,0.6-0.1,1.1-0.1,1.7l3.4,2.1c0-0.8,0-1.6,0-2.4
		C75.2,437.2,75.2,436.9,75.2,436.6z"/>
	<path class="st1" d="M45,417.6l-1-0.6c-0.4,0.3-0.7,0.5-1,0.8c-0.5,0.4-0.9,0.8-1.3,1.2l0.8,0.5c0.3-0.2,0.6-0.5,1-0.8
		C44,418.3,44.5,418,45,417.6z"/>
	<path class="st1" d="M151.3,484.4l-3.2-2c-0.4,0.2-0.8,0.4-1.2,0.6c-0.6,0.3-1.2,0.6-1.8,0.9l3.4,2.1c0.7-0.4,1.4-0.8,2.1-1.2
		C150.8,484.7,151.1,484.6,151.3,484.4z"/>
	<path class="st1" d="M126.7,470.4c0.5-0.2,1-0.4,1.4-0.5l-32.9-20.7c0.1,1,0.2,2.2,0.4,3.6l29.1,18.3c0.2-0.1,0.3-0.1,0.5-0.2
		C125.7,470.7,126.3,470.6,126.7,470.4z"/>
	<path class="st1" d="M154,482.9l-3.1-2c-0.4,0.2-0.7,0.4-1.1,0.6c-0.6,0.3-1.2,0.6-1.8,0.9l3.2,2c0.7-0.4,1.4-0.8,2-1.2
		C153.6,483.1,153.8,483,154,482.9z"/>
	<path class="st1" d="M45.6,417.2c0.6-0.4,1.3-0.8,2-1.2l-1.1-0.7c-0.5,0.3-1,0.6-1.4,0.9c-0.4,0.3-0.7,0.5-1.1,0.8l1,0.6
		C45.2,417.5,45.4,417.4,45.6,417.2z"/>
	<path class="st1" d="M180.5,476.4c0-0.5,0-1,0-1.5c0-0.5,0-1,0-1.5c0-0.5,0-1,0-1.4c0-0.1,0-0.1,0-0.2l-1.2,1.9c0,0.4,0,0.7,0,1.1
		c0,0.5,0,1,0,1.5c0,0.5,0,1,0,1.5c0,0.5,0,1,0,1.6c0,0.2,0,0.5,0,0.7l1.2-2c0-0.1,0-0.2,0-0.2C180.5,477.4,180.5,476.9,180.5,476.4
		z"/>
	<path class="st1" d="M129.6,469.2c0.1-0.1,0.2-0.1,0.2-0.1c0.4-0.1,0.8-0.2,1.2-0.4c0.1,0,0.1-0.1,0.2-0.1L95,445.8
		c0,0.5,0,1,0.1,1.5c0,0,0,0.5,0,1.4c0,0.2,0,0.3,0,0.5l32.9,20.7c0,0,0.1,0,0.1,0C128.9,469.5,129.4,469.3,129.6,469.2z"/>
	<path class="st1" d="M72.2,431.5c0,0.2,0,0.3,0,0.4c-0.1,0.8-0.1,1.7-0.2,2.7l3.2,2c0-1.1,0.1-2.2,0.1-3.2L72.2,431.5z"/>
	<path class="st1" d="M133.6,467.1c0.1,0,0.1-0.1,0.2-0.1l-38.4-24.1c-0.1,0.5-0.2,1.1-0.3,1.5c-0.1,0.5-0.1,1-0.1,1.4l36.2,22.8
		c0.4-0.2,0.7-0.4,1.1-0.6C132.8,467.7,133.2,467.4,133.6,467.1z"/>
	<path class="st1" d="M156.7,481.3l-3.1-2c-0.3,0.2-0.7,0.4-1,0.6c-0.5,0.3-1.1,0.6-1.6,0.9l3.1,2c0.7-0.4,1.4-0.8,2-1.1
		C156.3,481.6,156.5,481.5,156.7,481.3z"/>
	<path class="st1" d="M75.6,430.4l-3.1-2c-0.1,0.9-0.2,1.9-0.2,3l3.1,2c0-0.1,0-0.1,0-0.2C75.4,432.3,75.5,431.3,75.6,430.4z"/>
	<path class="st1" d="M180.3,469.2c0-0.5,0-0.9-0.1-1.4c0-0.5,0-0.9-0.1-1.3c0-0.2,0-0.5,0-0.7l-1.1,1.8c0,0,0,0.1,0,0.1
		c0,0.4,0,0.9,0.1,1.4c0,0.4,0,0.9,0,1.4c0,0.5,0,0.9,0,1.4c0,0.5,0,0.9,0,1.4c0,0.1,0,0.2,0,0.3l1.2-1.9c0-0.4,0-0.8,0-1.2
		C180.3,470.1,180.3,469.6,180.3,469.2z"/>
	<path class="st1" d="M49.9,414.6c0.1-0.1,0.2-0.1,0.3-0.2l-1.2-0.7c-0.6,0.4-1.3,0.7-1.8,1.1c-0.2,0.2-0.5,0.3-0.7,0.5l1.1,0.7
		c0.1,0,0.1-0.1,0.2-0.1C48.5,415.5,49.2,415,49.9,414.6z"/>
	<path class="st1" d="M52.8,413l-1.2-0.8c-0.1,0-0.1,0.1-0.2,0.1c-0.7,0.4-1.4,0.8-2.1,1.2c-0.1,0.1-0.2,0.1-0.3,0.2l1.2,0.7
		c0.6-0.3,1.2-0.7,1.8-1C52.3,413.3,52.6,413.1,52.8,413z"/>
	<path class="st1" d="M135.8,465.2C135.8,465.2,135.8,465.2,135.8,465.2l-39.7-25c-0.1,0.4-0.3,0.8-0.4,1.3
		c-0.1,0.5-0.2,0.9-0.3,1.4l38.4,24.1c0.3-0.2,0.6-0.5,1-0.8C135.1,465.9,135.4,465.6,135.8,465.2z"/>
	<path class="st1" d="M75.7,429.3c0.1-0.6,0.1-1.2,0.2-1.8l-3.2-2c0,0.6-0.1,1.4-0.2,2.3c0,0.2,0,0.4,0,0.6l3.1,2
		C75.6,430,75.7,429.6,75.7,429.3z"/>
	<path class="st1" d="M180,463.9c0-0.5,0-0.9-0.1-1.2c0-0.6-0.1-1-0.1-1.2c0-0.1,0-0.2,0-0.2c0.4,0,1-0.3,1.5-1
		c0.3-0.3,0.6-0.7,0.9-1.1c0.2-0.3,0.5-0.7,0.7-1.1c0.2-0.3,0.4-0.7,0.6-1.1c0.2-0.3,0.4-0.7,0.6-1.1c0.2-0.3,0.4-0.7,0.5-1.1
		c0.2-0.3,0.3-0.7,0.5-1c0.2-0.3,0.3-0.7,0.5-1c0.2-0.3,0.3-0.7,0.5-1c0.1-0.3,0.3-0.6,0.4-1c0.1-0.3,0.3-0.6,0.4-1
		c0.1-0.3,0.3-0.6,0.4-0.9c0.1-0.3,0.3-0.6,0.4-0.9c0.1-0.3,0.2-0.6,0.4-0.9c0.1-0.2,0.2-0.4,0.3-0.7l-10.5,16.7l0.8,0
		c0,0,0,0.3,0,0.8c0,0.3,0,0.8,0.1,1.3c0,0.4,0,0.8,0.1,1.3c0,0.4,0,0.8,0,1.2l1.1-1.8c0-0.2,0-0.4,0-0.6
		C180.1,464.7,180,464.3,180,463.9z"/>
	<path class="st1" d="M159.2,479.8l-3.2-2c-0.3,0.2-0.7,0.4-1,0.7c-0.5,0.3-0.9,0.6-1.4,0.9l3.1,2c0.8-0.4,1.4-0.8,1.9-1.1
		C158.8,480.1,159,480,159.2,479.8z"/>
	<path class="st1" d="M76.4,424.8l-2.9-1.8c-0.2,0.3-0.4,0.7-0.6,1c-0.1,0.1-0.1,0.2-0.1,0.3c0,0,0,0.4-0.1,1.1l3.2,2
		c0.1-0.6,0.2-1.2,0.3-1.8C76.3,425.4,76.3,425.1,76.4,424.8z"/>
	<path class="st1" d="M55.4,411.6l-1.2-0.8c-0.2,0.1-0.5,0.2-0.7,0.4c-0.6,0.3-1.3,0.7-1.9,1l1.2,0.8c0.4-0.2,0.8-0.5,1.3-0.7
		C54.5,412.1,55,411.9,55.4,411.6z"/>
	<path class="st1" d="M188.9,445.3c0.1-0.3,0.2-0.6,0.3-0.9c0.1-0.3,0.2-0.6,0.3-0.8c0.1-0.3,0.2-0.5,0.3-0.8
		c0.1-0.3,0.2-0.5,0.3-0.8c0.1-0.3,0.2-0.5,0.3-0.8c0.1-0.3,0.2-0.5,0.3-0.8c0.1-0.3,0.2-0.5,0.3-0.8c0.1-0.2,0.2-0.5,0.3-0.7
		c0.1-0.2,0.2-0.5,0.3-0.7c0.1-0.2,0.2-0.5,0.3-0.7c0.1-0.2,0.2-0.5,0.3-0.7c0.1-0.2,0.2-0.5,0.2-0.7c0.1-0.2,0.2-0.4,0.2-0.7
		c0.1-0.2,0.2-0.4,0.2-0.7c0.1-0.2,0.2-0.4,0.2-0.6c0.1-0.2,0.2-0.4,0.2-0.6c0.1-0.2,0.1-0.4,0.2-0.6c0.1-0.2,0.1-0.4,0.2-0.6
		c0.1-0.2,0.1-0.4,0.2-0.6c0-0.1,0-0.1,0.1-0.2l-18.2,28.9l-0.4,0.8l-0.6,1.2l-0.4,0.8l3.4-0.2l10.5-16.7c0-0.1,0.1-0.1,0.1-0.2
		C188.7,445.9,188.8,445.6,188.9,445.3z"/>
	<path class="st1" d="M137.7,463.3l-40.7-25.6c-0.2,0.4-0.3,0.8-0.5,1.2c-0.2,0.4-0.3,0.8-0.4,1.2l39.8,25c0.3-0.3,0.6-0.6,1-1
		C137.1,463.9,137.4,463.6,137.7,463.3z"/>
	<path class="st1" d="M160.7,478.7c0.2-0.2,0.3-0.4,0.4-0.7l-2.9-1.8c-0.3,0.3-0.7,0.5-1.1,0.8c-0.4,0.3-0.8,0.5-1.2,0.8l3.2,2
		c0.6-0.4,0.9-0.6,0.9-0.6C160.3,479.1,160.5,478.9,160.7,478.7z"/>
	<path class="st1" d="M212.7,402.9L212.7,402.9C212.6,402.9,212.7,402.9,212.7,402.9L212.7,402.9z"/>
	<path class="st1" d="M58,410.3l-1.2-0.8c-0.4,0.2-0.8,0.4-1.2,0.6c-0.5,0.2-0.9,0.5-1.4,0.7l1.2,0.8c0.2-0.1,0.5-0.3,0.7-0.4
		C56.8,410.9,57.4,410.6,58,410.3z"/>
	<path class="st1" d="M161.5,477.2c0.2-0.5,0.3-1,0.4-1.5c0-0.3,0.1-0.5,0.1-0.8c-0.7,0.1-1.4,0-2-0.4l-2.3-1.5
		c0.2,0.4,0.3,0.7,0.5,1c0.4,0.8,0.6,1.3,0.7,1.5c0,0.1,0.1,0.1,0.1,0.1c-0.2,0.2-0.5,0.4-0.7,0.6l2.9,1.8
		C161.2,477.8,161.4,477.5,161.5,477.2z"/>
	<path class="st1" d="M77.6,423.9c0.5,0,1.1,0,1.9,0l-4.1-2.6c-0.4,0.3-0.7,0.6-1,0.9c-0.3,0.3-0.5,0.6-0.8,0.9l2.9,1.8
		c0.1-0.3,0.1-0.6,0.2-0.9C76.6,423.9,77,423.9,77.6,423.9z"/>
	<path class="st1" d="M137.8,463.2c0.3-0.3,0.6-0.7,0.9-1c0.2-0.2,0.4-0.4,0.6-0.7l-41.4-26c-0.2,0.4-0.4,0.8-0.5,1.3
		c-0.1,0.4-0.3,0.7-0.4,1l40.7,25.6C137.7,463.3,137.8,463.2,137.8,463.2z"/>
	<path class="st1" d="M194.4,430.6c0.1-0.2,0.1-0.4,0.2-0.6c0.1-0.3,0.2-0.6,0.3-0.8c0.3-0.9,0.6-1.7,0.8-2.2
		c0.2-0.7,0.4-1.1,0.4-1.1s0.4-0.5,0.6-1.4c0.1-0.4,0.1-0.8,0.1-1.2c0-0.3,0-0.6-0.1-0.8c0-0.2-0.1-0.4-0.1-0.6l-9.7,15.4l0,0.1
		l-0.3,0.7l-0.3,0.7l-0.3,0.7l-0.4,0.8L185,441l-0.4,0.8l-0.4,0.8l-0.4,0.8l-0.4,0.8l-0.4,0.8l-0.4,0.9l-0.4,0.9l-0.4,0.9l-0.4,0.9
		l-0.4,0.9l-0.5,1l-0.5,1l-0.5,1l-0.5,1l-0.5,1l-0.5,1.1l-0.5,1.1l-0.5,1.1l-0.5,1.1l-0.5,1.2l-0.2,0.3l18.2-28.9
		c0-0.1,0.1-0.3,0.1-0.4C194.3,430.9,194.3,430.7,194.4,430.6z"/>
	<path class="st1" d="M196.3,421.1c-0.1-0.2-0.2-0.3-0.2-0.5c-0.1-0.2-0.2-0.3-0.3-0.5c-0.1-0.1-0.2-0.3-0.3-0.4
		c-0.1-0.1-0.2-0.2-0.3-0.4c-0.1-0.1-0.2-0.2-0.3-0.3c0,0-0.1-0.1-0.1-0.1l-1.5,2.3c0,0,0.1,0,0.1,0c0.2,0,0.3,0.1,0.5,0.1
		c0.2,0.1,0.3,0.1,0.3,0.1l-0.4,0.9l-1.4,3l-0.2,0.5l-0.2,0.5l-0.2,0.5l-0.2,0.5l-0.2,0.5l-0.2,0.5l-0.2,0.5l-0.3,0.5l-0.3,0.5
		l-0.3,0.6l-0.3,0.6l-0.3,0.6l-0.3,0.6l-0.3,0.6l-0.3,0.6l-0.3,0.6l-0.3,0.6l-0.3,0.7l-0.3,0.7l-0.3,0.7l-0.3,0.6l9.7-15.4
		c0,0,0-0.1,0-0.1C196.4,421.5,196.3,421.3,196.3,421.1z"/>
	<polygon class="st1" points="222.3,379.1 233,362.7 227.1,367.5 218.7,380.8 	"/>
	<path class="st1" d="M140.5,460c0.1-0.1,0.2-0.3,0.3-0.4l-41.9-26.4c-0.2,0.5-0.4,0.9-0.6,1.3c-0.1,0.3-0.2,0.6-0.4,0.8l41.4,26
		c0.1-0.1,0.2-0.3,0.3-0.4C139.9,460.7,140.2,460.4,140.5,460z"/>
	<path class="st1" d="M82,423.8c0.6,0,1.2,0,1.8,0l-6.1-3.9c-0.6,0.3-1.2,0.6-1.7,0.9c-0.2,0.1-0.4,0.3-0.6,0.4l4.1,2.6
		c0.1,0,0.2,0,0.3,0C80.5,423.8,81.2,423.8,82,423.8z"/>
	<path class="st1" d="M60.2,409.2c0.1,0,0.2-0.1,0.3-0.1l-1.3-0.8c-0.5,0.3-1.1,0.5-1.6,0.8c-0.3,0.1-0.6,0.3-0.9,0.4l1.2,0.8
		c0.1,0,0.2-0.1,0.2-0.1C58.9,409.9,59.5,409.6,60.2,409.2z"/>
	<path class="st1" d="M162.1,472.7c0-0.5,0-0.9-0.1-1.4c0-0.2,0-0.4-0.1-0.5c-0.9,0.7-2.1,0.8-3.1,0.2l-2.9-1.8
		c0.1,0.2,0.2,0.4,0.2,0.6c0.2,0.5,0.4,1,0.6,1.4c0.2,0.5,0.5,1,0.7,1.5c0.1,0.2,0.1,0.3,0.2,0.5l2.3,1.5c0.6,0.4,1.3,0.5,2,0.4
		c0-0.2,0.1-0.5,0.1-0.7C162.1,473.7,162.1,473.2,162.1,472.7z"/>
	<path class="st1" d="M86.3,423.7c0.5,0,1.1,0,1.6-0.1l-7.6-4.8c-0.3,0.1-0.5,0.2-0.8,0.3c-0.6,0.2-1.3,0.5-1.8,0.8c0,0,0,0-0.1,0
		l6.1,3.9c0.1,0,0.3,0,0.4,0C84.9,423.7,85.6,423.7,86.3,423.7z"/>
	<path class="st1" d="M142.2,457.9c0,0,0.1-0.1,0.1-0.1L100,431.2c-0.2,0.5-0.5,1-0.7,1.5c-0.1,0.2-0.2,0.4-0.3,0.6l41.9,26.4
		c0.2-0.2,0.3-0.4,0.5-0.7C141.6,458.6,141.9,458.2,142.2,457.9z"/>
	<path class="st1" d="M162,470.7c0-0.3-0.1-0.6-0.1-0.9c-0.1-0.5-0.1-0.9-0.2-1.4c-0.1-0.4-0.2-0.9-0.3-1.4c0-0.2-0.1-0.3-0.1-0.5
		c-0.8,1.2-2.4,1.6-3.6,0.8l-3.4-2.1c0,0.1,0.1,0.2,0.1,0.2c0.2,0.5,0.4,0.9,0.6,1.3c0.2,0.5,0.4,0.9,0.6,1.4
		c0.1,0.3,0.3,0.6,0.4,0.8l2.9,1.8C159.9,471.5,161.1,471.4,162,470.7z"/>
	<path class="st1" d="M63,407.9l-1.3-0.8c0,0-0.1,0-0.1,0c-0.7,0.3-1.3,0.6-2,1c-0.1,0.1-0.3,0.1-0.4,0.2l1.3,0.8
		c0.6-0.3,1.1-0.5,1.7-0.8C62.4,408.1,62.7,408,63,407.9z"/>
	<polygon class="st1" points="213.8,383.1 218.7,380.8 227.1,367.5 220,373.3 	"/>
	<path class="st1" d="M194.2,418.4c-0.1-0.1-0.2-0.2-0.3-0.3c-0.1-0.1-0.2-0.2-0.3-0.3c-0.1-0.1-0.2-0.2-0.3-0.2
		c-0.1-0.1-0.2-0.2-0.3-0.2c-0.1-0.1-0.2-0.1-0.3-0.2c0,0-0.1-0.1-0.1-0.1l-2.2,3.5c0.1,0,0.1,0,0.2,0c0.1,0,0.3,0.1,0.4,0.1
		c0.1,0,0.3,0.1,0.4,0.1c0.1,0,0.3,0.1,0.4,0.1c0.1,0,0.3,0.1,0.4,0.1c0.1,0,0.3,0.1,0.4,0.1c0.2,0,0.3,0.1,0.4,0.1
		c0.1,0,0.2,0.1,0.3,0.1l1.5-2.3c-0.1-0.1-0.1-0.2-0.2-0.2C194.4,418.6,194.3,418.5,194.2,418.4z"/>
	<path class="st1" d="M65.4,406.8l-1.3-0.8c-0.2,0.1-0.4,0.2-0.6,0.3c-0.6,0.3-1.2,0.6-1.8,0.9l1.3,0.8c0.4-0.2,0.8-0.4,1.2-0.6
		C64.5,407.2,65,407,65.4,406.8z"/>
	<path class="st1" d="M90.4,423.5c0.5,0,1,0,1.5-0.1l-8.7-5.4c-0.6,0.2-1.2,0.3-1.8,0.5c-0.4,0.1-0.7,0.2-1.1,0.4l7.6,4.8
		c0.2,0,0.3,0,0.5,0C89.1,423.6,89.7,423.5,90.4,423.5z"/>
	<path class="st1" d="M192,416.8c-0.1-0.1-0.2-0.1-0.3-0.2c-0.1-0.1-0.2-0.1-0.3-0.2c-0.1-0.1-0.2-0.1-0.3-0.2
		c-0.1-0.1-0.2-0.1-0.3-0.2c-0.1-0.1-0.2-0.1-0.3-0.2c-0.1,0-0.2-0.1-0.3-0.1c0,0-0.1,0-0.1-0.1l-2.6,4.2c0.4,0.1,0.8,0.2,1.1,0.2
		c0.5,0.1,1.1,0.2,1.6,0.3c0.1,0,0.2,0,0.2,0.1l2.2-3.5c-0.1,0-0.1-0.1-0.2-0.1C192.2,416.9,192.1,416.9,192,416.8z"/>
	<polygon class="st1" points="209.1,385.4 213.8,383.1 220,373.3 213.1,379 	"/>
	<path class="st1" d="M160.9,464.5c-0.1-0.4-0.2-0.9-0.3-1.3c0-0.1-0.1-0.2-0.1-0.3l-0.3,0.4c-0.8,1.2-2.3,1.6-3.5,0.8l-3.8-2.4
		c0.2,0.4,0.4,0.8,0.5,1.2c0.2,0.4,0.4,0.9,0.6,1.3c0.2,0.4,0.3,0.7,0.5,1.1l3.4,2.1c1.2,0.8,2.9,0.4,3.6-0.8
		c-0.1-0.3-0.1-0.6-0.2-0.8C161.1,465.4,161,464.9,160.9,464.5z"/>
	<path class="st1" d="M143.6,456L101,429.2c-0.3,0.5-0.6,1-0.8,1.6c-0.1,0.1-0.1,0.3-0.2,0.4l42.3,26.6c0.2-0.3,0.5-0.6,0.7-0.9
		C143.2,456.5,143.4,456.3,143.6,456z"/>
	<path class="st1" d="M189.9,415.7c-0.1,0-0.2-0.1-0.3-0.1c-0.1,0-0.2-0.1-0.3-0.1c-0.1,0-0.2-0.1-0.3-0.1c-0.1,0-0.2-0.1-0.3-0.1
		c-0.1,0-0.2-0.1-0.3-0.1c-0.1,0-0.2-0.1-0.3-0.1c-0.1,0-0.2-0.1-0.3-0.1c-0.1,0-0.2-0.1-0.3-0.1c-0.1,0-0.1-0.1-0.2-0.1l-2.9,4.7
		c0.7,0.1,1.3,0.3,1.9,0.4c0.3,0.1,0.6,0.1,0.9,0.2l2.6-4.2C190,415.7,189.9,415.7,189.9,415.7z"/>
	<path class="st1" d="M159.8,460.7c-0.1-0.4-0.3-0.8-0.4-1.2c0,0,0,0,0-0.1l-0.4,0.6c-0.7,1.2-2.3,1.5-3.4,0.8l-4.2-2.6
		c0.1,0.3,0.3,0.7,0.4,1c0.2,0.4,0.3,0.8,0.5,1.2c0.2,0.4,0.3,0.8,0.5,1.2c0,0,0,0,0,0l3.8,2.4c1.2,0.8,2.8,0.4,3.5-0.8l0.3-0.4
		c-0.1-0.3-0.2-0.6-0.3-0.9C160,461.5,159.9,461.1,159.8,460.7z"/>
	<path class="st1" d="M67.7,405.7l-1.3-0.8c-0.3,0.2-0.7,0.3-1,0.5c-0.4,0.2-0.9,0.4-1.3,0.6l1.3,0.8c0.2-0.1,0.4-0.2,0.7-0.3
		C66.6,406.2,67.2,405.9,67.7,405.7z"/>
	<polygon class="st1" points="204.5,387.6 209.1,385.4 213.1,379 206.4,384.5 	"/>
	<path class="st1" d="M94.3,423.3c0.5,0,0.9-0.1,1.3-0.1l-9.4-5.9c-0.4,0.1-0.7,0.1-1.1,0.2c-0.6,0.1-1.3,0.3-1.9,0.4
		c0,0-0.1,0-0.1,0l8.7,5.4c0.2,0,0.3,0,0.5,0C93,423.4,93.7,423.3,94.3,423.3z"/>
	<path class="st1" d="M144.5,454.7c0.1-0.2,0.3-0.4,0.4-0.6L102,427.2c-0.3,0.6-0.6,1.1-0.9,1.7c0,0.1-0.1,0.2-0.1,0.2l42.6,26.8
		c0-0.1,0.1-0.1,0.1-0.2C144,455.4,144.3,455.1,144.5,454.7z"/>
	<path class="st1" d="M158.5,457.2c-0.1-0.3-0.2-0.6-0.3-0.9l-0.4,0.7c-0.7,1.1-2.2,1.5-3.3,0.8l-4.4-2.8c0.1,0.3,0.2,0.5,0.3,0.8
		c0.1,0.4,0.3,0.8,0.4,1.1c0.2,0.4,0.3,0.8,0.5,1.2c0,0.1,0,0.1,0.1,0.2l4.2,2.6c1.2,0.7,2.7,0.4,3.4-0.8l0.4-0.6
		c-0.1-0.4-0.3-0.7-0.4-1.1C158.8,457.9,158.7,457.5,158.5,457.2z"/>
	<path class="st1" d="M69.7,404.8c0.1,0,0.2-0.1,0.3-0.1l-1.3-0.8c-0.5,0.2-1,0.4-1.4,0.6c-0.3,0.1-0.6,0.3-0.9,0.4l1.3,0.8
		c0.1,0,0.1-0.1,0.2-0.1C68.5,405.3,69.2,405,69.7,404.8z"/>
	<path class="st1" d="M187.2,414.6c-0.1,0-0.1-0.1-0.2-0.1l0,0l-0.5-0.1l-0.9-0.3l-0.7-0.2l-3.1,5c0.1,0,0.2,0,0.3,0.1
		c0.8,0.1,1.5,0.3,2.2,0.4c0.1,0,0.1,0,0.2,0l2.9-4.7c0,0,0,0,0,0C187.3,414.6,187.3,414.6,187.2,414.6z"/>
	<path class="st1" d="M200.2,389.4l-0.1,0.2c0.1,0,0.1,0,0.2,0c0.3,0,0.5,0,0.5,0s-0.1,0-0.3-0.1l4-1.9l1.9-3l-5.9,4.9
		C200.4,389.4,200.3,389.4,200.2,389.4z"/>
	<path class="st1" d="M98,423.1c0.4,0,0.8-0.1,1.2-0.1l-9.7-6.1c-0.2,0-0.3,0-0.5,0.1c-0.6,0.1-1.3,0.2-1.9,0.3
		c-0.3,0-0.5,0.1-0.8,0.1l9.4,5.9c0.2,0,0.4,0,0.6,0C96.8,423.1,97.4,423.1,98,423.1z"/>
	<path class="st1" d="M145.9,452.7c0.1-0.1,0.1-0.2,0.2-0.2l-43-27c0,0,0,0.1-0.1,0.1c-0.3,0.6-0.6,1.1-0.9,1.7c0,0,0,0,0,0.1
		l42.9,26.9c0.1-0.2,0.2-0.3,0.3-0.5C145.5,453.4,145.7,453,145.9,452.7z"/>
	<path class="st1" d="M101.5,422.7c0.3,0,0.6-0.1,0.9-0.1l-9.7-6.1c0,0,0,0-0.1,0c-0.6,0.1-1.2,0.1-1.8,0.2
		c-0.5,0.1-0.9,0.1-1.3,0.2l9.7,6.1c0.2,0,0.4,0,0.6-0.1C100.4,422.8,101,422.8,101.5,422.7z"/>
	<path class="st1" d="M147.3,450.7l-43.1-27.1c-0.1,0.1-0.1,0.2-0.2,0.3c-0.3,0.5-0.6,1-0.9,1.5l43,27c0.2-0.3,0.3-0.5,0.5-0.8
		C146.8,451.4,147,451.1,147.3,450.7z"/>
	<path class="st1" d="M183.7,413.5l-0.9-0.3l-0.5-0.2l-3.3,5.3c0.2,0,0.5,0.1,0.7,0.1c0.7,0.1,1.4,0.2,2,0.4l3.1-5l-0.2-0.1
		L183.7,413.5z"/>
	<path class="st1" d="M72.3,403.6l-1.3-0.8c0,0,0,0,0,0c-0.6,0.3-1.2,0.5-1.8,0.8c-0.1,0.1-0.3,0.1-0.4,0.2l1.3,0.8
		c0.5-0.2,1-0.5,1.5-0.7C71.8,403.8,72,403.7,72.3,403.6z"/>
	<path class="st1" d="M200.2,389.4c-0.2,0-0.4-0.1-0.6-0.1c-0.2,0-0.4-0.1-0.6-0.1c-0.2,0-0.4-0.1-0.6-0.1c-0.2,0-0.4-0.1-0.6-0.1
		c-0.1,0-0.1,0-0.2-0.1l-0.7,1.1c0.2,0,0.3,0,0.5,0c0.2,0,0.3,0,0.5,0c0.2,0,0.3,0,0.5,0c0.2,0,0.3,0,0.5,0c0.2,0,0.3,0,0.5,0
		c0.2,0,0.3,0,0.5,0c0.1,0,0.2,0,0.3,0L200.2,389.4C200.2,389.4,200.2,389.4,200.2,389.4z"/>
	<path class="st1" d="M74.5,402.7l-1.3-0.8c-0.2,0.1-0.3,0.1-0.5,0.2c-0.6,0.2-1.1,0.5-1.7,0.8l1.3,0.8c0.4-0.2,0.7-0.3,1.1-0.5
		C73.7,403,74.1,402.8,74.5,402.7z"/>
	<path class="st1" d="M181.1,412.7l-0.8-0.2l-0.5-0.1l-3.5,5.6c0.2,0,0.5,0.1,0.7,0.1c0.6,0.1,1.3,0.2,2,0.3l3.3-5.3L182,413
		L181.1,412.7z"/>
	<path class="st1" d="M156.4,451.7c-0.1-0.4-0.3-0.7-0.4-1c0-0.1-0.1-0.1-0.1-0.2l-0.3,0.5c-0.7,1.1-2.1,1.4-3.1,0.7L96,416.2
		c-0.5,0-1,0.1-1.5,0.1c-0.6,0-1.2,0.1-1.8,0.2l9.7,6.1c0.3,0,0.5-0.1,0.8-0.1c0.7-0.1,1.2-0.2,1.6-0.4l0.1,0.3
		c-0.3,0.4-0.5,0.9-0.8,1.3l43.1,27.1c0,0,0,0,0-0.1c0.2-0.3,0.4-0.7,0.7-1l0.8,1.6c0.1,0.2,0.1,0.4,0.2,0.6l4.5,2.8
		c1.1,0.7,2.5,0.4,3.2-0.7l0.4-0.6c-0.1-0.2-0.1-0.4-0.2-0.6C156.7,452.4,156.5,452,156.4,451.7z"/>
	<path class="st1" d="M196.7,388.5c-0.2,0-0.4-0.1-0.6-0.2c-0.2,0-0.4-0.1-0.5-0.2c-0.2,0-0.3-0.1-0.5-0.1l-1.2,2c0,0,0.1,0,0.1,0
		c0.1,0,0.3,0,0.4,0c0.1,0,0.3,0,0.4,0c0.1,0,0.3,0,0.4,0c0.1,0,0.3,0,0.4,0c0.1,0,0.3,0,0.4,0c0.2,0,0.3,0,0.4,0c0.1,0,0.3,0,0.4,0
		c0,0,0,0,0,0l0.7-1.1c-0.1,0-0.2-0.1-0.4-0.1C197,388.6,196.9,388.5,196.7,388.5z"/>
	<path class="st1" d="M178.7,412l-0.8-0.2l-0.5-0.1l-3.8,6c0.8,0.1,1.7,0.2,2.6,0.3l3.5-5.6l-0.3-0.1L178.7,412z"/>
	<polygon class="st1" points="81,404.5 81,404.5 81,404.5 	"/>
	<path class="st1" d="M75.1,402.4c0.6-0.2,1.1-0.5,1.5-0.7l-1.3-0.8c-0.3,0.1-0.6,0.2-0.9,0.4c-0.4,0.2-0.8,0.4-1.3,0.6l1.3,0.8
		C74.7,402.6,74.9,402.5,75.1,402.4z"/>
	<path class="st1" d="M194.5,387.9c-0.2,0-0.3-0.1-0.5-0.2c-0.2,0-0.3-0.1-0.5-0.2c-0.2,0-0.3-0.1-0.5-0.2c-0.1,0-0.2-0.1-0.3-0.1
		l-1.8,2.8c0,0,0.1,0,0.1,0c0.1,0,0.2,0,0.3,0c0.1,0,0.2,0,0.3,0c0.1,0,0.2,0,0.4,0c0.1,0,0.2,0,0.4,0c0.1,0,0.2,0,0.4,0
		c0.1,0,0.3,0,0.4,0c0.1,0,0.3,0,0.4,0c0.1,0,0.2,0,0.3,0l1.2-2c0,0,0,0,0,0C194.9,388,194.7,387.9,194.5,387.9z"/>
	<path class="st1" d="M155,448.6c-0.1-0.3-0.3-0.6-0.4-0.8l-0.2,0.3c-0.6,1-2,1.3-3,0.7L99.3,416c-0.4,0-0.9,0-1.3,0.1
		c-0.6,0-1.2,0.1-1.8,0.1c-0.1,0-0.2,0-0.3,0l56.4,35.5c1.1,0.7,2.5,0.3,3.1-0.7l0.3-0.5c-0.1-0.3-0.2-0.6-0.4-0.8
		C155.3,449.3,155.2,449,155,448.6z"/>
	<polygon class="st1" points="82.2,403 79.7,401.5 81,404.5 81,404.5 81.8,403.5 	"/>
	<path class="st1" d="M154.2,446.7c-0.2-0.3-0.3-0.6-0.4-0.9c-0.1-0.2-0.2-0.3-0.2-0.5l0,0c-0.6,1-2,1.3-2.9,0.7l-47.8-30.1
		c-0.4,0-0.8,0-1.2,0c-0.6,0-1.1,0-1.7,0.1c-0.1,0-0.3,0-0.4,0l52.1,32.8c1,0.6,2.4,0.3,3-0.7l0.2-0.3c0,0,0-0.1-0.1-0.1
		C154.5,447.3,154.3,447,154.2,446.7z"/>
	<path class="st1" d="M190.4,386.5L190.4,386.5l1.6,0.6c-0.2,0-0.3-0.1-0.5-0.2c-0.2-0.1-0.3-0.1-0.5-0.2c-0.2-0.1-0.3-0.1-0.5-0.2
		L190.4,386.5l-2.3,3.7c0,0,0.1,0,0.1,0c0.1,0,0.2,0,0.3,0c0.1,0,0.2,0,0.3,0c0.1,0,0.2,0,0.3,0c0.1,0,0.2,0,0.3,0
		c0.1,0,0.2,0,0.3,0c0.1,0,0.2,0,0.3,0c0.1,0,0.2,0,0.3,0c0.1,0,0.2,0,0.3,0c0.1,0,0.2,0,0.2,0l1.8-2.8c-0.1,0-0.1,0-0.2-0.1
		L190.4,386.5z"/>
	<path class="st1" d="M176.4,411.3l-0.7-0.2l-0.6-0.2l-4.1,6.6l2.6,0.1c0,0,0,0,0.1,0l3.8-6l-0.3-0.1L176.4,411.3z"/>
	<path class="st1" d="M78.5,401c0.1,0,0.2-0.1,0.2-0.1l-1.3-0.8c-0.4,0.2-0.8,0.3-1.2,0.5c-0.3,0.1-0.6,0.2-0.9,0.4l1.3,0.8
		c0.1,0,0.1-0.1,0.2-0.1C77.5,401.4,78.1,401.1,78.5,401z"/>
	<path class="st1" d="M174.2,410.6l-0.3-0.1l-0.3-0.1l-0.3-0.1l-0.3-0.1l-0.3-0.1l-0.1,0l-4.5,7.1c0.1,0,0.1,0,0.2,0
		c0.1,0,0.3,0,0.4,0c0.1,0,0.2,0,0.4,0c0.1,0,0.3,0,0.4,0c0.1,0,0.2,0,0.4,0l0.1,0.1l0.8,0l4.1-6.6l-0.1,0L174.2,410.6z"/>
	<path class="st1" d="M153,444.8l-0.9-1.7c0-0.1,0.1-0.1,0.1-0.2c-0.7,0.7-1.7,0.8-2.6,0.3L106,415.9c-0.4,0-0.7,0-1.2,0
		c-0.5,0-1.1,0-1.7,0c-0.2,0-0.4,0-0.5,0l47.8,30.1c1,0.6,2.3,0.3,2.9-0.7l0,0c-0.1-0.1-0.1-0.3-0.2-0.4L153,444.8z"/>
	<path class="st1" d="M189.9,386l-0.8,0l-0.8-0.3l0,0l0.7,0.3l-0.3,0l-0.5-0.2l-2.8,4.4c0.7,0,1.3,0,2,0c0.1,0,0.2,0,0.3,0
		c0.1,0,0.2,0,0.3,0c0.1,0,0.1,0,0.2,0l2.3-3.6l-0.2-0.1l0-0.1l0.3,0.1l0,0l-0.3-0.1L189.9,386z"/>
	<path class="st1" d="M83,402l0.3-0.4l-3.8-2.4c-0.4,0.2-0.9,0.4-1.6,0.7c-0.1,0.1-0.3,0.1-0.5,0.2l1.3,0.8c0.4-0.2,0.6-0.3,0.6-0.3
		l0.4,0.9l2.5,1.6L83,402z"/>
	<path class="st1" d="M190.4,331.9l1.6,0.1c0.3,0.3,0.4,0.8,0.5,1.4c0,0.2,0,0.3,0,0.5l2.7,1.7c-0.2-0.3-0.4-0.5-0.5-0.7
		c-0.4-0.5-0.8-1-1.2-1.4c-0.7-0.8-1.3-1.2-1.5-1.5c-0.1-0.1-0.2-0.1-0.2-0.1s-2-1-4.9-1.4l2.7,1.7C190,332,190.2,331.9,190.4,331.9
		z"/>
	<path class="st1" d="M84.5,400.2l-4-2.5c-0.1,0.5-0.1,0.8,0,1.1c0,0-0.3,0.1-0.9,0.4c0,0,0,0-0.1,0l3.8,2.4l0.9-1.1L84.5,400.2z"/>
	<path class="st1" d="M186.7,385.2c-0.2-0.1-0.4-0.2-0.6-0.3l-3.2,5.1c0.8,0,1.7,0.1,2.6,0.1l2.8-4.4l-0.5-0.2
		C187.3,385.5,187,385.4,186.7,385.2z"/>
	<polygon class="st1" points="186.1,385 188.2,385.8 188.2,385.7 186.1,384.9 	"/>
	<path class="st1" d="M172.3,410.1L172,410l-0.3-0.1l-0.3-0.1l-0.3-0.1l-0.3-0.1l-0.1,0L151.5,440c-0.6,0.9-1.8,1.2-2.8,0.6
		l-39.7-24.9c-0.1,0.1-0.1,0.2-0.2,0.2c0,0-0.3,0-0.7,0c-0.4,0-1,0-1.6,0c-0.2,0-0.3,0-0.5,0l43.6,27.4c0.8,0.5,1.9,0.4,2.6-0.3
		c0.1-0.2,0.3-0.4,0.4-0.7c0.2-0.3,0.3-0.6,0.5-0.9c0.2-0.3,0.3-0.6,0.5-0.9c0.2-0.3,0.3-0.6,0.5-0.8c0.2-0.3,0.3-0.6,0.5-0.8
		c0.2-0.3,0.3-0.5,0.5-0.8c0.2-0.3,0.3-0.5,0.5-0.8c0.2-0.3,0.3-0.5,0.5-0.8c0.1-0.3,0.3-0.5,0.4-0.8c0.1-0.3,0.3-0.5,0.4-0.8
		c0.1-0.3,0.3-0.5,0.4-0.7c0.1-0.2,0.3-0.5,0.4-0.7c0.1-0.2,0.3-0.5,0.4-0.7c0.1-0.2,0.3-0.5,0.4-0.7c0.1-0.2,0.3-0.5,0.4-0.7
		c0.1-0.2,0.3-0.5,0.4-0.7c0.1-0.2,0.2-0.5,0.4-0.7c0.1-0.2,0.2-0.4,0.4-0.7c0.1-0.2,0.2-0.4,0.4-0.6c0.1-0.2,0.2-0.4,0.3-0.6
		c0.1-0.2,0.2-0.4,0.3-0.6c0.1-0.2,0.2-0.4,0.3-0.6c0.1-0.2,0.2-0.4,0.3-0.6c0.1-0.2,0.2-0.4,0.3-0.6c0.1-0.2,0.2-0.4,0.3-0.6
		c0.1-0.2,0.2-0.4,0.3-0.6c0.1-0.2,0.2-0.4,0.3-0.6c0.1-0.2,0.2-0.4,0.3-0.6c0.2-0.3,0.3-0.5,0.3-0.5c0,0,0,0,0,0
		c0.1-0.2,0.2-0.3,0.3-0.5c0.1-0.2,0.2-0.3,0.3-0.5c0.1-0.2,0.2-0.3,0.3-0.5c0.1-0.2,0.2-0.3,0.3-0.5c0.1-0.2,0.2-0.3,0.3-0.5
		c0.1-0.2,0.2-0.3,0.3-0.5c0.1-0.2,0.2-0.3,0.3-0.5c0.1-0.2,0.2-0.3,0.2-0.5c0.1-0.1,0.2-0.3,0.2-0.4c0.1-0.1,0.2-0.3,0.2-0.4
		c0,0,0-0.1,0-0.1c0.1-0.1,0.1-0.2,0.2-0.3c0.1-0.1,0.2-0.1,0.3-0.2c0.1,0,0.2-0.1,0.4-0.1c0.1,0,0.2-0.1,0.4-0.1
		c0.1,0,0.2-0.1,0.4-0.1c0.1,0,0.3,0,0.4,0c0.1,0,0.1,0,0.2,0l4.5-7.1l-0.2-0.1L172.3,410.1z"/>
	<path class="st1" d="M183.8,330.2c-0.1,0-0.2,0-0.2,0l4.4,2.7c0.6-0.4,1.3-0.7,1.8-0.9l-2.7-1.7c-0.2,0-0.3,0-0.5-0.1
		C185.7,330.2,184.8,330.2,183.8,330.2z"/>
	<path class="st1" d="M85.5,398.9l-4.4-2.8c-0.3,0.6-0.6,1.1-0.7,1.6l4,2.5l0.9-1.1L85.5,398.9z"/>
	<path class="st1" d="M180.4,390c0.8,0.1,1.6,0.1,2.4,0.2l3.2-5.1c-0.1,0-0.2-0.1-0.3-0.1c-0.3-0.1-0.6-0.3-0.9-0.4l1.2,0.5l0,0
		l-2-0.8L180.4,390z"/>
	<path class="st1" d="M151.5,440l19.1-30.4l-0.2-0.1l-0.3-0.1l-0.3-0.1l-0.3-0.1l-0.1-0.1c0-0.1,0.1-0.3,0.1-0.4
		c0-0.1,0-0.3,0.1-0.4c0-0.1,0-0.3,0.1-0.4c0-0.1,0-0.3,0-0.4c0-0.1,0-0.2,0-0.3l-19.1,30.4c-0.6,0.9-1.8,1.2-2.7,0.6L110,414.3
		c-0.2,0.3-0.4,0.6-0.6,0.9c-0.1,0.2-0.2,0.3-0.3,0.5l39.7,24.9C149.7,441.2,150.9,440.9,151.5,440z"/>
	<path class="st1" d="M192.6,334.8c0,0.4,0,0.7,0,1.1l4.4,2.8c-0.2-0.4-0.3-0.7-0.5-1.1c-0.2-0.5-0.5-0.9-0.8-1.4
		c-0.1-0.2-0.3-0.4-0.4-0.6l-2.7-1.7C192.6,334.1,192.6,334.4,192.6,334.8z"/>
	<path class="st1" d="M192.5,337.4c0,0.1,0,0.2,0,0.3l5.3,3.3c-0.1-0.3-0.1-0.6-0.2-0.9c-0.1-0.4-0.3-0.9-0.4-1.3
		c0-0.1-0.1-0.2-0.1-0.3l-4.4-2.8c0,0.1,0,0.1,0,0.2C192.5,336.5,192.5,337,192.5,337.4z"/>
	<path class="st1" d="M183.2,383.7c-0.3-0.1-0.5-0.3-0.8-0.4c-0.1,0-0.1-0.1-0.2-0.1l-4.1,6.5c0.3,0.1,0.7,0.1,1.1,0.2
		c0.4,0,0.8,0.1,1.2,0.1l3.7-5.8l-0.1,0C183.7,384,183.5,383.8,183.2,383.7z"/>
	<path class="st1" d="M181.1,330.6l5.3,3.3c0.4-0.3,0.8-0.5,1.2-0.7c0.1-0.1,0.3-0.1,0.4-0.2l-4.4-2.7
		C182.8,330.3,181.9,330.4,181.1,330.6z"/>
	<path class="st1" d="M200.6,354.7c0.3-0.3,0.6-0.6,0.9-0.9c0.3-0.3,0.5-0.6,0.7-1c0.2-0.4,0.4-0.7,0.5-1c0.2-0.4,0.3-0.8,0.4-1
		l-0.5,0l-2.9,4.5C200.1,355.1,200.4,354.9,200.6,354.7z"/>
	<path class="st1" d="M82,394.7c-0.3,0.5-0.6,1-0.9,1.4l4.4,2.8l1.1-1.3L82,394.7z"/>
	<path class="st1" d="M169.7,406.5c0-0.2,0-0.3,0-0.5c0-0.2,0-0.3,0-0.5c0-0.2,0-0.3,0-0.5c0-0.2,0-0.3,0-0.5c0-0.2,0-0.3,0-0.5
		c0-0.2,0-0.4-0.1-0.6c0-0.1,0-0.2,0-0.3L149.7,435c-0.6,0.9-1.7,1.2-2.6,0.6l-36.1-22.7c-0.2,0.3-0.4,0.7-0.7,1
		c-0.1,0.1-0.2,0.3-0.2,0.4l37.9,23.8c0.9,0.6,2.1,0.3,2.7-0.6l19.1-30.4c0,0,0-0.1,0-0.1C169.7,406.8,169.7,406.7,169.7,406.5z"/>
	<polygon class="st1" points="146.1,307.8 145.8,308.4 146,308.5 	"/>
	<path class="st1" d="M82.9,393.4c-0.3,0.5-0.6,0.9-0.9,1.3l4.6,2.9l1-1.3L82.9,393.4z"/>
	<path class="st1" d="M187.4,371.9c0.5-0.2,0.9-0.3,1.2-0.6c0.3-0.2,0.6-0.4,0.8-0.6c0.2-0.2,0.4-0.4,0.6-0.6
		c0.2-0.2,0.3-0.4,0.4-0.6c0.1-0.2,0.2-0.4,0.3-0.7c0.1-0.2,0.2-0.4,0.2-0.7c0.1-0.2,0.1-0.5,0.1-0.7c0-0.2,0.1-0.5,0.1-0.7
		c0-0.2,0-0.5,0-0.7c0-0.2,0-0.5,0-0.7c0,0,0,0,0-0.1l-4.3,6.8C187,372,187.2,372,187.4,371.9z"/>
	<path class="st1" d="M184.9,334.9c0.2-0.1,0.4-0.3,0.6-0.4c0.3-0.2,0.6-0.4,0.9-0.6l-5.3-3.3c-0.7,0.2-1.3,0.4-2,0.6L184.9,334.9z"
		/>
	<path class="st1" d="M192.2,339.5l5.8,3.7c0-0.2,0-0.3,0-0.5c0-0.4-0.1-0.8-0.2-1.2c0-0.1-0.1-0.2-0.1-0.4l-5.3-3.3
		c0,0.3-0.1,0.6-0.1,1C192.3,339,192.2,339.2,192.2,339.5z"/>
	<path class="st1" d="M181.6,382.9c-0.2-0.1-0.5-0.3-0.7-0.4c-0.2-0.1-0.3-0.2-0.5-0.3l-4.4,7c0.4,0.1,0.8,0.2,1.2,0.3
		c0.3,0.1,0.6,0.1,0.9,0.2l4.1-6.5C182,383.1,181.8,383,181.6,382.9z"/>
	<path class="st1" d="M169.4,402.3c-0.1-0.3-0.1-0.6-0.2-0.9c0,0,0-0.1,0-0.1c0-0.1-0.1-0.2-0.1-0.2c0-0.1-0.1-0.2-0.1-0.2
		c0-0.1,0-0.1-0.1-0.2l-20.1,32c-0.5,0.9-1.7,1.1-2.5,0.6l-34.4-21.6c-0.2,0.4-0.5,0.7-0.7,1.1c-0.1,0.1-0.1,0.2-0.2,0.3l36.1,22.7
		c0.9,0.6,2.1,0.3,2.6-0.6l19.9-31.7c0-0.1,0-0.2-0.1-0.3C169.5,402.7,169.4,402.5,169.4,402.3z"/>
	<path class="st1" d="M197,355.9c0.8,0,1.6-0.1,2.2-0.4c0.2-0.1,0.4-0.2,0.6-0.3l2.9-4.5l-2.3-0.1L197,355.9z"/>
	<polygon class="st1" points="145.6,310.2 146,308.5 145.8,308.4 144.9,309.8 	"/>
	<path class="st1" d="M179.6,381.6c-0.2-0.1-0.4-0.3-0.6-0.4c-0.1,0-0.1-0.1-0.2-0.1l-4.6,7.4c0.1,0.1,0.2,0.1,0.3,0.2
		c0.2,0.1,0.4,0.2,0.6,0.3c0.3,0.1,0.5,0.2,0.8,0.3c0,0,0,0,0,0l4.4-7c-0.1,0-0.1-0.1-0.2-0.1C180,381.9,179.8,381.8,179.6,381.6z"
		/>
	<path class="st1" d="M83.8,392.1c-0.3,0.4-0.6,0.8-0.9,1.3l4.7,3l1-1.2L83.8,392.1z"/>
	<path class="st1" d="M168.7,400.4c0-0.1-0.1-0.2-0.1-0.2c0-0.1-0.1-0.2-0.1-0.2c0-0.1-0.1-0.2-0.1-0.2c0-0.1-0.1-0.1-0.1-0.2
		c0-0.1-0.1-0.2-0.1-0.2c0-0.1-0.1-0.2-0.1-0.2c0-0.1-0.1-0.1-0.1-0.2c0,0-0.1-0.1-0.1-0.1l-19.9,31.6c-0.5,0.8-1.6,1.1-2.5,0.6
		l-32.8-20.6c-0.2,0.4-0.5,0.7-0.8,1.1c0,0.1-0.1,0.1-0.1,0.2l34.4,21.6c0.9,0.5,2,0.3,2.5-0.6l20.1-32c0,0,0,0,0-0.1
		C168.8,400.5,168.8,400.4,168.7,400.4z"/>
	<path class="st1" d="M190.9,363.8c0-0.3-0.1-0.5-0.2-0.8c0-0.2-0.1-0.4-0.2-0.7l-6.3,10c1,0,1.8-0.1,2.5-0.3l4.3-6.8
		c0-0.2,0-0.5-0.1-0.7C191,364.3,191,364.1,190.9,363.8z"/>
	<path class="st1" d="M194.9,356.3c-0.1-0.2-0.2-0.3-0.2-0.4l-0.3,0.4L194.9,356.3z"/>
	<path class="st1" d="M177.3,332l6.2,3.9c0,0,0.1-0.1,0.1-0.1c0.4-0.3,0.9-0.6,1.3-0.9l-5.8-3.7c-0.2,0.1-0.4,0.1-0.6,0.2
		C178.1,331.6,177.7,331.8,177.3,332z"/>
	<path class="st1" d="M194.9,355.5c0.7,0.3,1.4,0.4,2,0.4l3.3-5.3l-2.3-0.1L194.9,355.5z"/>
	<path class="st1" d="M191.9,341.2l6.2,3.9c0,0,0,0,0,0c0-0.4,0-0.8,0-1.2c0-0.2,0-0.5-0.1-0.7l-5.8-3.7c0,0.2,0,0.3-0.1,0.5
		C192.1,340.4,192,340.8,191.9,341.2z"/>
	<polygon class="st1" points="145.2,311.8 145.6,310.2 144.9,309.8 144.1,311.1 	"/>
	<path class="st1" d="M178,380.3c-0.2-0.1-0.3-0.3-0.4-0.5c0-0.1-0.1-0.1-0.1-0.2l-10.7,17.1c0.1,0,0.2,0,0.3-0.1
		c0.1,0,0.3-0.1,0.4-0.1c0.2-0.1,0.3-0.1,0.4-0.2c0.2-0.1,0.3-0.2,0.5-0.3c0.2-0.2,0.4-0.4,0.7-0.6c0.4-0.4,0.8-0.8,1.1-1.3
		c0.4-0.5,0.7-1.1,1.1-1.7c0.4-0.7,0.8-1.5,1.2-2.3c0.2-0.5,0.4-1,0.6-1.5c0-0.1,0.1-0.2,0.1-0.3c0-0.1,0.1-0.2,0.1-0.3
		c0-0.1,0.1-0.2,0.1-0.3l0.1,0c0.1,0.1,0.1,0.2,0.2,0.3c0.1,0.1,0.2,0.2,0.3,0.3c0,0,0.1,0,0.1,0.1l4.6-7.4
		c-0.1-0.1-0.2-0.2-0.4-0.3C178.3,380.6,178.2,380.5,178,380.3z"/>
	<path class="st1" d="M190.6,362.2c-0.1-0.3-0.1-0.6-0.2-0.8c-0.1-0.3-0.2-0.6-0.3-0.8c-0.1-0.2-0.1-0.4-0.2-0.6l-7.7,12.3
		c0.8,0.1,1.5,0.1,2.2,0.1l6.3-10C190.6,362.3,190.6,362.3,190.6,362.2z"/>
	<path class="st1" d="M191.7,342.4c0,0.1,0,0.2-0.1,0.3l5,3.2c0.8,0.5,1,1.6,0.5,2.4l-5.8,9.3c0.3-0.1,0.6-0.3,0.8-0.4
		c0.4-0.3,0.8-0.6,1.2-0.9l1,0l0.3-0.4c-0.1-0.3-0.2-0.4-0.3-0.5l0.1,0c0.1,0.1,0.3,0.1,0.4,0.1l3.1-5l-1.1,0c0.1-0.4,0.3-0.7,0.4-1
		c0.1-0.4,0.2-0.7,0.3-1.1c0.1-0.4,0.2-0.7,0.2-1.1c0.1-0.4,0.1-0.8,0.2-1.1c0-0.4,0.1-0.8,0.1-1.1l-6.2-3.9c0,0,0,0,0,0
		C191.9,341.6,191.8,342,191.7,342.4z"/>
	<path class="st1" d="M167.6,398.3c-0.1-0.1-0.1-0.1-0.2-0.2c-0.1-0.1-0.1-0.1-0.2-0.2c-0.1-0.1-0.1-0.1-0.2-0.2
		c-0.1-0.1-0.1-0.1-0.2-0.2c-0.1-0.1-0.1-0.1-0.2-0.2c-0.1-0.1-0.1-0.1-0.2-0.2l-19.4,30.9c-0.5,0.8-1.6,1-2.4,0.5L113.5,409
		c-0.3,0.4-0.5,0.8-0.8,1.1c0,0,0,0.1-0.1,0.1l32.8,20.6c0.8,0.5,1.9,0.3,2.5-0.6l19.9-31.6c0,0,0-0.1-0.1-0.1
		C167.7,398.5,167.6,398.4,167.6,398.3z"/>
	<path class="st1" d="M175.7,332.7l6.5,4.1c0.4-0.3,0.9-0.6,1.3-1l-6.2-3.9c-0.4,0.2-0.9,0.5-1.3,0.8L175.7,332.7z"/>
	<path class="st1" d="M89.6,394l-4.8-3c-0.3,0.4-0.6,0.8-0.9,1.2l4.8,3l0.5-0.7L89.6,394z"/>
	<polygon class="st1" points="144.8,313.3 145.2,311.8 144.1,311.1 143.3,312.4 	"/>
	<path class="st1" d="M189.4,358.8c-0.1-0.4-0.3-0.7-0.4-0.9c0,0,0,0,0-0.1l-8.9,14.1c0.7,0.1,1.4,0.2,2,0.3l7.7-12.3
		c0-0.1-0.1-0.2-0.1-0.3C189.7,359.4,189.5,359.1,189.4,358.8z"/>
	<path class="st1" d="M176.9,379c-0.1-0.2-0.2-0.3-0.2-0.5c-0.1-0.2-0.1-0.3-0.2-0.5c0,0,0-0.1,0-0.1l-30.2,48
		c-0.5,0.8-1.5,1-2.3,0.5l-29.6-18.6c0,0,0,0,0,0c-0.3,0.4-0.5,0.8-0.8,1.2c0,0,0,0,0,0l31.2,19.6c0.8,0.5,1.9,0.3,2.4-0.5
		l19.4-30.9c0,0,0,0,0,0c-0.1-0.1-0.2-0.1-0.2-0.2c-0.1-0.1-0.2-0.1-0.2-0.1c0.1,0,0.2,0,0.3,0c0.1,0,0.2,0,0.3,0c0,0,0,0,0.1,0
		l10.7-17.1c-0.1-0.1-0.2-0.2-0.2-0.3C177.1,379.3,177,379.1,176.9,379z"/>
	<path class="st1" d="M191.3,344.3l3,1.9c0.8,0.5,1,1.5,0.5,2.3l-5.7,9.1c0.7,0.4,1.5,0.3,2.2,0l5.8-9.3c0.5-0.8,0.3-1.9-0.5-2.4
		l-5-3.2c-0.1,0.3-0.1,0.6-0.2,0.8C191.4,343.8,191.4,344.1,191.3,344.3z"/>
	<path class="st1" d="M180.9,337.7c0.3-0.2,0.6-0.5,1-0.7c0.1-0.1,0.2-0.1,0.3-0.2l-6.5-4.1l-2.9-0.1L180.9,337.7z"/>
	<path class="st1" d="M85.7,389.8c-0.3,0.4-0.6,0.8-0.9,1.1l4.8,3l0.9-1.1L85.7,389.8z"/>
	<polygon class="st1" points="144.4,314.8 144.8,313.3 143.3,312.4 142.6,313.6 	"/>
	<path class="st1" d="M194.4,346.2l-3-1.9c0,0.2-0.1,0.3-0.1,0.5c-0.1,0.4-0.2,0.7-0.2,1l1.1,0.7c0.8,0.5,1,1.5,0.5,2.2l-47.2,75.1
		c-0.5,0.8-1.5,1-2.2,0.5l-28.1-17.6c0,0,0,0,0,0.1c-0.3,0.4-0.5,0.7-0.8,1.1l29.6,18.6c0.8,0.5,1.8,0.3,2.3-0.5l30.2-48
		c0-0.1,0-0.1,0-0.2l0.1-0.2l0.3-0.5l0.3-0.5l0.3-0.5l0.3-0.5l0.3-0.5l0.3-0.5l0.3-0.5l0.3-0.6l0.4-0.6l0.4-0.6l0.2-0.3
		c0,0,0.1,0,0.1,0l8.9-14.1c-0.1-0.3-0.2-0.5-0.2-0.5c0.1,0.1,0.3,0.2,0.4,0.3l5.7-9.1C195.4,347.7,195.2,346.7,194.4,346.2z"/>
	<path class="st1" d="M179.7,338.7c0.2-0.1,0.3-0.3,0.5-0.4c0.2-0.2,0.4-0.3,0.7-0.5l-8.1-5.1l-2.8-0.1L179.7,338.7z"/>
	<path class="st1" d="M86.6,388.7c-0.3,0.4-0.6,0.7-0.9,1.1l4.8,3l0.9-1.1L86.6,388.7z"/>
	<polygon class="st1" points="144.1,316.3 144.4,314.8 142.6,313.6 141.8,314.9 	"/>
	<path class="st1" d="M167.9,332.9l10.7,6.7c0,0,0.1-0.1,0.1-0.1c0.2-0.2,0.6-0.5,1-0.8l-9.8-6.1l-1.8-0.1
		C168,332.6,168,332.7,167.9,332.9z"/>
	<path class="st1" d="M189.2,345.8c-0.4-0.4-0.7-0.8-1.2-1.2c-0.5-0.5-1.1-0.9-1.6-1.2c-0.5-0.3-1-0.4-1.5-0.4
		c-0.1-0.3-0.4-0.6-0.7-0.9c-0.6-0.5-1.5-1-2.4-1.3c-0.9-0.3-1.8-0.6-2.5-0.7l10.5,6.6C189.7,346.4,189.4,346.1,189.2,345.8z"/>
	<path class="st1" d="M87.5,387.6c0,0.1-0.1,0.1-0.1,0.2c-0.3,0.3-0.5,0.6-0.8,0.9l4.8,3l0.9-1.1L87.5,387.6z"/>
	<path class="st1" d="M190.7,347l-0.5,0c0.5,0.5,0.6,1.3,0.2,1.9l-45.7,72.8c-0.5,0.7-1.4,1-2.2,0.5L116,405.5c0,0,0,0.1-0.1,0.1
		c-0.2,0.3-0.5,0.7-0.7,1l28.1,17.6c0.8,0.5,1.8,0.2,2.2-0.5l47.2-75.1c0.5-0.8,0.2-1.8-0.5-2.2l-1.1-0.7c0,0,0,0.1,0,0.1
		C190.9,346.4,190.8,346.7,190.7,347z"/>
	<polygon class="st1" points="143.7,317.7 144.1,316.3 141.8,314.9 141.1,316 	"/>
	<path class="st1" d="M167.6,333.8c0,0.1-0.1,0.3-0.1,0.4l20.4,12.8c0.7,0.4,0.9,1.4,0.5,2.1L144,419.7c-0.4,0.7-1.4,0.9-2.1,0.5
		l-25.1-15.8c0,0-0.1,0.1-0.1,0.1c-0.2,0.3-0.5,0.6-0.7,1l26.6,16.7c0.7,0.5,1.7,0.2,2.2-0.5l45.7-72.8c0.4-0.6,0.3-1.4-0.2-1.9
		l-0.2,0c-0.1-0.1-0.2-0.2-0.2-0.3l-10.5-6.6c-0.7-0.2-1.2-0.2-1.2-0.2s0.1-0.1,0.3-0.3l-10.7-6.7
		C167.8,333.2,167.7,333.5,167.6,333.8z"/>
	<path class="st1" d="M88.4,386.6c-0.3,0.3-0.6,0.7-0.9,1l4.8,3l0.8-1L88.4,386.6z"/>
	<polygon class="st1" points="143.4,319 143.7,317.7 141.1,316 140.4,317.2 	"/>
	<path class="st1" d="M167.4,335.7l18.5,11.6c0.7,0.4,0.9,1.4,0.5,2l-43,68.5c-0.4,0.7-1.4,0.9-2,0.5l-23.7-14.9
		c0,0-0.1,0.1-0.1,0.1c-0.2,0.3-0.4,0.6-0.7,0.9l25.1,15.8c0.7,0.4,1.7,0.2,2.1-0.5l44.4-70.6c0.4-0.7,0.2-1.7-0.5-2.1l-20.4-12.8
		c-0.1,0.3-0.1,0.6-0.1,1C167.3,335.3,167.4,335.5,167.4,335.7z"/>
	<path class="st1" d="M89.3,385.6c-0.3,0.3-0.6,0.7-0.9,1l4.7,3l0.8-1L89.3,385.6z"/>
	<polygon class="st1" points="143.1,320.4 143.4,319 140.4,317.2 139.7,318.3 	"/>
	<path class="st1" d="M167.8,337.4l16.1,10.1c0.7,0.4,0.9,1.3,0.5,2L142.6,416c-0.4,0.7-1.3,0.9-2,0.5l-22.4-14.1
		c0,0-0.1,0.1-0.1,0.1c-0.2,0.3-0.4,0.6-0.6,0.9l23.7,14.9c0.7,0.4,1.6,0.2,2-0.5l43-68.5c0.4-0.7,0.2-1.6-0.5-2l-18.5-11.6
		c0,0.3,0.1,0.5,0.1,0.8C167.6,336.8,167.7,337.1,167.8,337.4z"/>
	<path class="st1" d="M90.1,384.7c-0.3,0.3-0.6,0.6-0.9,0.9l4.7,2.9l0.8-1L90.1,384.7z"/>
	<polygon class="st1" points="139.1,319.4 142.7,321.7 143.1,320.4 139.7,318.3 	"/>
	<path class="st1" d="M169,339.1c0.2,0.2,0.4,0.5,0.7,0.7c0,0,0,0.1-0.1,0.2l12.4,7.8c0.7,0.4,0.8,1.3,0.4,1.9l-40.5,64.4
		c-0.4,0.7-1.3,0.8-1.9,0.4l-21-13.2c0,0-0.1,0.1-0.1,0.1c-0.2,0.3-0.4,0.6-0.6,0.9l22.4,14.1c0.7,0.4,1.6,0.2,2-0.5l41.8-66.4
		c0.4-0.7,0.2-1.6-0.5-2l-16.1-10.1c0.1,0.1,0.1,0.2,0.2,0.4C168.2,338.2,168.6,338.7,169,339.1z"/>
	<path class="st1" d="M91,383.8c-0.3,0.3-0.6,0.6-0.8,0.9l4.6,2.9l0.8-1L91,383.8z"/>
	<polygon class="st1" points="142.4,322.9 142.7,321.7 139.1,319.4 138.4,320.4 	"/>
	<path class="st1" d="M96.3,385.7l-4.5-2.8c-0.3,0.3-0.5,0.6-0.8,0.9l4.5,2.9L96.3,385.7z"/>
	<path class="st1" d="M169.2,341.1l10.9,6.9c0.6,0.4,0.8,1.2,0.4,1.9l-39.3,62.5c-0.4,0.6-1.2,0.8-1.9,0.4l-19.7-12.4
		c0,0-0.1,0.1-0.1,0.1c-0.2,0.3-0.4,0.6-0.6,0.8l21,13.2c0.7,0.4,1.5,0.2,1.9-0.4l40.5-64.4c0.4-0.7,0.2-1.5-0.4-1.9l-12.4-7.8
		c0,0.1-0.1,0.2-0.1,0.4C169.4,340.6,169.3,340.8,169.2,341.1z"/>
	<polygon class="st1" points="142.1,324.1 142.4,322.9 138.4,320.4 137.8,321.4 	"/>
	<path class="st1" d="M169,342.3l9.4,5.9c0.6,0.4,0.8,1.2,0.4,1.8l-38.1,60.6c-0.4,0.6-1.2,0.8-1.8,0.4l-18.5-11.6
		c0,0,0,0.1-0.1,0.1c-0.2,0.3-0.4,0.5-0.6,0.8l19.7,12.4c0.6,0.4,1.5,0.2,1.9-0.4l39.3-62.5c0.4-0.6,0.2-1.5-0.4-1.9l-10.9-6.9
		c0,0.1-0.1,0.3-0.1,0.4C169.1,341.8,169,342.1,169,342.3z"/>
	<path class="st1" d="M92.6,382c-0.3,0.3-0.5,0.6-0.8,0.9l4.5,2.8l0.7-0.9L92.6,382z"/>
	<polygon class="st1" points="141.8,325.3 142.1,324.1 137.8,321.4 137.2,322.4 	"/>
	<path class="st1" d="M140.6,410.7l38.1-60.6c0.4-0.6,0.2-1.4-0.4-1.8l-9.4-5.9c0,0.1,0,0.3,0,0.4c0,0.3,0,0.6,0,0.9l7.7,4.8
		c0.6,0.4,0.8,1.2,0.4,1.8L140,409c-0.4,0.6-1.2,0.8-1.8,0.4L121,398.6c-0.2,0.3-0.4,0.6-0.7,0.9l18.5,11.6
		C139.4,411.5,140.3,411.3,140.6,410.7z"/>
	<path class="st1" d="M97.7,383.9l-4.3-2.7c-0.3,0.3-0.5,0.6-0.8,0.8l4.4,2.8l0.6-0.7L97.7,383.9z"/>
	<polygon class="st1" points="141.6,326.4 141.8,325.3 137.2,322.4 136.7,323.3 	"/>
	<path class="st1" d="M169.4,345.1c0.1,0.1,0.2,0.2,0.3,0.3l0.3,0.2c0.1,0,0.1,0.1,0.2,0.1c0,0,0,0,0,0l4.7,2.9
		c0.6,0.4,0.8,1.1,0.4,1.7l-35.9,57.1c-0.4,0.6-1.1,0.8-1.7,0.4l-16.1-10.1c-0.2,0.2-0.4,0.5-0.7,0.9l17.3,10.8
		c0.6,0.4,1.4,0.2,1.8-0.4l37-58.8c0.4-0.6,0.2-1.4-0.4-1.8l-7.7-4.8c0,0.1,0,0.2,0,0.3C169,344.4,169.2,344.8,169.4,345.1z"/>
	<path class="st1" d="M94.1,380.4c-0.1,0.1-0.1,0.1-0.2,0.2c-0.2,0.2-0.4,0.4-0.6,0.6l4.3,2.7l0.7-0.8L94.1,380.4z"/>
	<polygon class="st1" points="141.3,327.5 141.6,326.4 136.7,323.3 136.1,324.3 	"/>
	<path class="st1" d="M170.1,345.6l-0.3-0.2C169.9,345.5,170,345.6,170.1,345.6z"/>
	<path class="st1" d="M173.3,348.9c0.6,0.4,0.7,1.1,0.4,1.7l-34.8,55.3c-0.4,0.6-1.1,0.7-1.7,0.4l-14.9-9.4c0,0,0,0.1-0.1,0.1
		c0,0-0.2,0.3-0.6,0.7l16.1,10.1c0.6,0.4,1.3,0.2,1.7-0.4l35.9-57.1c0.4-0.6,0.2-1.3-0.4-1.7l-4.7-2.9c-0.2,0-0.9,0-1.9,0.1
		L173.3,348.9z"/>
	<path class="st1" d="M94.8,379.6c-0.2,0.3-0.5,0.5-0.7,0.8l4.3,2.7l0.7-0.8L94.8,379.6z"/>
	<polygon class="st1" points="135.9,324.5 135.9,325.4 141,328.6 141.3,327.5 136.1,324.3 	"/>
	<path class="st1" d="M95.5,378.9c-0.2,0.2-0.5,0.5-0.7,0.8l4.2,2.6l0.6-0.8L95.5,378.9z"/>
	<path class="st1" d="M171.7,349.1c0.5,0.3,0.7,1.1,0.4,1.6l-33.7,53.7c-0.3,0.5-1.1,0.7-1.6,0.4l-13.8-8.7
		c-0.2,0.3-0.4,0.6-0.6,0.9l14.9,9.4c0.6,0.4,1.3,0.2,1.7-0.4l34.8-55.3c0.4-0.6,0.2-1.3-0.4-1.7l-4.9-3.1c-0.5,0-1,0.1-1.6,0.2
		L171.7,349.1z"/>
	<polygon class="st1" points="140.8,329.7 141,328.6 135.9,325.4 135.9,326.6 	"/>
	<path class="st1" d="M165.2,346.2l4.9,3.1c0.5,0.3,0.7,1,0.4,1.6l-32.7,52.1c-0.3,0.5-1,0.7-1.6,0.4l-12.8-8
		c-0.2,0.3-0.4,0.5-0.5,0.8l13.8,8.7c0.5,0.3,1.3,0.2,1.6-0.4l33.7-53.7c0.3-0.5,0.2-1.3-0.4-1.6l-5-3.1c-0.3,0-0.6,0.1-0.9,0.1
		C165.6,346.1,165.4,346.1,165.2,346.2z"/>
	<path class="st1" d="M100.3,380.7l-4.1-2.6c-0.2,0.2-0.5,0.5-0.7,0.7l4.1,2.6L100.3,380.7z"/>
	<polygon class="st1" points="140.5,330.7 140.8,329.7 135.9,326.6 135.9,327.8 	"/>
	<path class="st1" d="M163.9,346.5l4.7,3c0.5,0.3,0.7,1,0.3,1.5l-31.7,50.5c-0.3,0.5-1,0.7-1.5,0.3l-11.8-7.4
		c-0.2,0.3-0.4,0.5-0.5,0.8l12.8,8c0.5,0.3,1.2,0.2,1.6-0.4l32.7-52.1c0.3-0.5,0.2-1.2-0.4-1.6l-4.9-3.1
		C164.8,346.3,164.4,346.4,163.9,346.5z"/>
	<path class="st1" d="M96.9,377.4c-0.2,0.2-0.5,0.5-0.7,0.7l4.1,2.6l0.6-0.7L96.9,377.4z"/>
	<polygon class="st1" points="140.3,331.6 140.5,330.7 135.9,327.8 135.9,328.9 	"/>
	<path class="st1" d="M137.2,401.5L169,351c0.3-0.5,0.2-1.2-0.3-1.5l-4.7-3c-0.4,0.1-0.8,0.2-1.2,0.4l4.4,2.8c0.5,0.3,0.6,1,0.3,1.5
		l-30.8,49c-0.3,0.5-1,0.6-1.5,0.3l-10.8-6.8c-0.2,0.2-0.4,0.5-0.5,0.8l11.8,7.4C136.2,402.1,136.9,402,137.2,401.5z"/>
	<path class="st1" d="M97.6,376.8c-0.2,0.2-0.4,0.4-0.7,0.7l4,2.5l0.6-0.7L97.6,376.8z"/>
	<polygon class="st1" points="140.1,332.6 140.3,331.6 135.9,328.9 136,330 	"/>
	<path class="st1" d="M161.7,347.3l4.1,2.6c0.5,0.3,0.6,0.9,0.3,1.4l-5.3,8.5c0,0.1,0.1,0.1,0.1,0.2l-0.2,0.4l-0.5,0.8l-0.5,0.8
		l-2.4,3.8c-0.1,0-0.2,0-0.3,0.1l-20.8,33c-0.3,0.5-0.9,0.6-1.4,0.3l-9.8-6.2c-0.2,0.2-0.4,0.5-0.5,0.7l10.8,6.8
		c0.5,0.3,1.2,0.2,1.5-0.3l30.8-49c0.3-0.5,0.2-1.2-0.3-1.5l-4.4-2.8c-0.2,0.1-0.4,0.1-0.6,0.2C162,347.1,161.9,347.2,161.7,347.3z"
		/>
	<path class="st1" d="M98.2,376.1c-0.2,0.2-0.4,0.4-0.6,0.7l3.9,2.5l0.6-0.7L98.2,376.1z"/>
	<polygon class="st1" points="139.8,333.5 140.1,332.6 136,330 136,331.1 	"/>
	<path class="st1" d="M164.4,350c0.5,0.3,0.6,0.9,0.3,1.4l-4.6,7.4c0.2,0.2,0.3,0.5,0.5,0.7c0.1,0.1,0.1,0.2,0.2,0.3l5.3-8.5
		c0.3-0.5,0.2-1.1-0.3-1.4l-4.1-2.6c-0.3,0.1-0.6,0.3-0.9,0.5L164.4,350z"/>
	<path class="st1" d="M98.9,375.5c-0.2,0.2-0.4,0.4-0.6,0.6l3.9,2.4l0.6-0.7L98.9,375.5z"/>
	<path class="st1" d="M155.7,365.7l-19.9,31.7c-0.3,0.5-0.9,0.6-1.4,0.3l-8.9-5.6c0,0.1-0.1,0.2-0.1,0.3c-0.1,0.1-0.2,0.3-0.3,0.4
		l9.8,6.2c0.5,0.3,1.1,0.2,1.4-0.3l20.8-33c-0.2,0-0.3,0-0.5,0C156.2,365.8,156,365.8,155.7,365.7z"/>
	<polygon class="st1" points="136,332.1 139.6,334.4 139.8,333.5 136,331.1 	"/>
	<path class="st1" d="M154.8,365.5c-0.1,0-0.1,0-0.2-0.1l-10.4,16.6c0,0.1,0,0.2,0,0.3c0.1,0.3,0.2,0.7,0.4,0.9l0,0
		c-0.1,0-0.3-0.2-0.7-0.3c0,0-0.1,0-0.2-0.1l-8.4,13.3c-0.3,0.5-0.9,0.6-1.3,0.3l-8.5-5.4c0,0,0,0.1,0,0.1c0.1,0.4,0.1,0.7,0,1
		l8.9,5.6c0.5,0.3,1.1,0.2,1.4-0.3l19.9-31.7c0,0-0.1,0-0.1,0C155.3,365.7,155,365.6,154.8,365.5z"/>
	<path class="st1" d="M160,348.2l3.1,1.9c0.5,0.3,0.6,0.9,0.3,1.3l-3.9,6.3c0.2,0.3,0.3,0.5,0.5,0.8c0,0.1,0.1,0.1,0.1,0.2l4.6-7.4
		c0.3-0.5,0.2-1.1-0.3-1.4l-3.6-2.3c-0.2,0.1-0.4,0.2-0.6,0.3C160.1,348.1,160.1,348.2,160,348.2z"/>
	<path class="st1" d="M99.5,374.8c-0.2,0.2-0.4,0.4-0.6,0.6l3.8,2.4l0.5-0.7L99.5,374.8z"/>
	<polygon class="st1" points="139.4,335.3 139.6,334.4 136,332.1 136,333.1 	"/>
	<path class="st1" d="M153.6,365.1l-4.7,7.4c0.1,0,0.2,0.1,0.4,0.1c0.1,0,0.2,0.1,0.3,0.1c-0.3,0.3-0.6,0.7-0.9,1
		c-0.6,0.7-1.2,1.4-1.7,2.1l-2.1,3.4c-0.2,0.5-0.4,1-0.5,1.5c-0.1,0.5-0.1,1-0.1,1.4l10.4-16.6c-0.2-0.1-0.4-0.1-0.6-0.2
		C153.8,365.2,153.7,365.2,153.6,365.1z"/>
	<path class="st1" d="M161.8,350.3c0.4,0.3,0.6,0.9,0.3,1.3l-3.2,5.1c0,0,0,0,0,0.1c0.2,0.3,0.3,0.6,0.5,0.9c0,0,0,0,0,0.1l3.9-6.3
		c0.3-0.5,0.1-1.1-0.3-1.3l-3.1-1.9c-0.2,0.2-0.5,0.4-0.7,0.6L161.8,350.3z"/>
	<path class="st1" d="M142.6,382.6l-7.8,12.4c-0.3,0.4-0.9,0.6-1.3,0.3l-8.5-5.4c0.2,0.5,0.3,0.9,0.4,1.2l8.5,5.4
		c0.5,0.3,1.1,0.1,1.3-0.3l8.4-13.3c-0.2-0.1-0.4-0.1-0.7-0.2C142.9,382.7,142.7,382.6,142.6,382.6z"/>
	<path class="st1" d="M103.7,376.5l-3.6-2.3c-0.1,0.1-0.3,0.3-0.4,0.4c-0.1,0.1-0.1,0.1-0.2,0.2l3.7,2.3L103.7,376.5z"/>
	<polygon class="st1" points="139.2,336.1 139.4,335.3 136,333.1 136,334.1 	"/>
	<path class="st1" d="M158.8,349.4l1.8,1.1c0.4,0.3,0.6,0.8,0.3,1.3l-2.5,3.9c0,0.1,0.1,0.2,0.1,0.3c0.1,0.3,0.3,0.6,0.4,0.8
		l3.2-5.1c0.3-0.4,0.1-1-0.3-1.3l-2.5-1.6c-0.1,0.1-0.2,0.2-0.3,0.3C158.9,349.2,158.9,349.3,158.8,349.4z"/>
	<path class="st1" d="M100.6,373.7c-0.2,0.2-0.4,0.4-0.6,0.6l3.6,2.3l0.5-0.6L100.6,373.7z"/>
	<path class="st1" d="M152.7,364.7l-4.6,7.3c0.1,0.1,0.3,0.2,0.4,0.3c0.1,0.1,0.3,0.2,0.4,0.2l4.7-7.4c-0.1-0.1-0.3-0.1-0.4-0.2
		C153,364.8,152.9,364.8,152.7,364.7z"/>
	<path class="st1" d="M144.8,379.2l2.1-3.4C146,376.9,145.3,378.1,144.8,379.2z"/>
	<path class="st1" d="M141.5,382.5l-7.1,11.3c-0.3,0.4-0.8,0.6-1.3,0.3l-8.8-5.5c0,0.1,0.1,0.1,0.1,0.2c0.2,0.4,0.4,0.8,0.5,1.2
		c0,0,0,0,0,0l8.5,5.4c0.4,0.3,1,0.1,1.3-0.3l7.8-12.4c-0.2,0-0.3-0.1-0.5-0.1C141.9,382.5,141.7,382.5,141.5,382.5z"/>
	<polygon class="st1" points="139,336.9 139.2,336.1 136,334.1 136,335 	"/>
	<path class="st1" d="M134.4,393.8l7.1-11.3c-0.1,0-0.2,0-0.4,0c-0.2,0-0.5,0-0.7,0l-6.4,10.2c-0.3,0.4-0.8,0.5-1.2,0.3l-9.1-5.7
		c0.1,0.1,0.2,0.3,0.3,0.4c0.2,0.3,0.4,0.6,0.5,1l8.8,5.5C133.6,394.4,134.1,394.2,134.4,393.8z"/>
	<path class="st1" d="M151.8,364.2l-4.5,7.1c0.2,0.2,0.3,0.3,0.5,0.4c0.1,0.1,0.2,0.2,0.3,0.2l4.6-7.3c-0.1-0.1-0.2-0.1-0.3-0.2
		C152.2,364.4,152,364.3,151.8,364.2z"/>
	<path class="st1" d="M159.3,350.6c0.4,0.3,0.5,0.8,0.3,1.2l-1.6,2.6c0,0.2,0.1,0.3,0.1,0.5c0.1,0.2,0.2,0.4,0.3,0.7l2.5-3.9
		c0.3-0.4,0.1-1-0.3-1.3l-1.8-1.1c-0.2,0.2-0.3,0.4-0.4,0.6L159.3,350.6z"/>
	<path class="st1" d="M101.2,373.1c-0.2,0.2-0.4,0.4-0.6,0.6l3.6,2.2l0.5-0.6L101.2,373.1z"/>
	<polygon class="st1" points="138.8,337.7 139,336.9 136,335 136,335.9 	"/>
	<path class="st1" d="M158,350.7l0.2,0.1c0.4,0.3,0.5,0.8,0.3,1.2l-0.7,1.2c0,0.3,0.1,0.6,0.1,0.9c0,0.1,0.1,0.3,0.1,0.4l1.6-2.6
		c0.3-0.4,0.1-1-0.3-1.2l-1-0.6c0,0,0,0.1-0.1,0.1C158.2,350.3,158.1,350.5,158,350.7z"/>
	<path class="st1" d="M151.1,363.7l-4.3,6.9c0.2,0.2,0.3,0.4,0.5,0.5c0.1,0.1,0.1,0.1,0.2,0.2l4.5-7.1c-0.1,0-0.1-0.1-0.2-0.1
		C151.4,364,151.2,363.8,151.1,363.7z"/>
	<path class="st1" d="M139.2,382.5l-5.7,9c-0.3,0.4-0.8,0.5-1.2,0.3l-9.6-6c0.2,0.3,0.3,0.5,0.5,0.8c0.1,0.2,0.3,0.4,0.4,0.7
		l9.1,5.7c0.4,0.3,1,0.1,1.2-0.3l6.4-10.2c-0.1,0-0.2,0-0.3,0C139.8,382.4,139.5,382.5,139.2,382.5z"/>
	<path class="st1" d="M101.7,372.6c-0.2,0.2-0.4,0.4-0.5,0.5l3.5,2.2l0.5-0.6L101.7,372.6z"/>
	<polygon class="st1" points="138.6,338.5 138.8,337.7 136,335.9 136,336.8 	"/>
	<path class="st1" d="M138,382.7l-4.9,7.7c-0.2,0.4-0.8,0.5-1.1,0.3l-10.2-6.4c0,0,0,0,0,0c0.2,0.4,0.5,0.7,0.7,1.1
		c0.1,0.1,0.1,0.2,0.2,0.3l9.6,6c0.4,0.3,0.9,0.1,1.2-0.3l5.7-9c-0.1,0-0.2,0-0.3,0C138.7,382.6,138.3,382.7,138,382.7z"/>
	<path class="st1" d="M102.3,372c-0.2,0.2-0.3,0.3-0.5,0.5l3.4,2.2l0.5-0.6L102.3,372z"/>
	<path class="st1" d="M150.9,363.6c-0.2-0.1-0.4-0.3-0.6-0.4l-4.2,6.6c0.2,0.2,0.3,0.4,0.5,0.6c0,0.1,0.1,0.1,0.1,0.2l4.3-6.9
		C151,363.7,150.9,363.6,150.9,363.6z"/>
	<path class="st1" d="M157.7,352.1c0,0.3,0,0.6,0,1c0,0,0,0,0,0.1l0.7-1.2c0.3-0.4,0.1-0.9-0.3-1.2l-0.2-0.1
		c-0.1,0.1-0.1,0.3-0.1,0.4C157.8,351.4,157.7,351.7,157.7,352.1z"/>
	<polygon class="st1" points="138.4,339.2 138.6,338.5 136,336.8 136,337.7 	"/>
	<path class="st1" d="M149.6,362.7l-4,6.4c0.1,0.2,0.3,0.4,0.4,0.6c0,0.1,0.1,0.1,0.1,0.2l4.2-6.6c-0.1,0-0.1-0.1-0.2-0.1
		C149.9,362.9,149.8,362.8,149.6,362.7z"/>
	<path class="st1" d="M106.1,373.6l-3.3-2.1c-0.2,0.2-0.3,0.3-0.5,0.5l3.4,2.1l0.3-0.3L106.1,373.6z"/>
	<path class="st1" d="M136.7,383.1l-4,6.3c-0.2,0.4-0.7,0.5-1.1,0.3l-10.8-6.8c0.1,0.1,0.2,0.2,0.2,0.3c0.2,0.4,0.5,0.7,0.7,1.1
		l10.2,6.4c0.4,0.2,0.9,0.1,1.1-0.3l4.9-7.7c-0.1,0-0.2,0-0.3,0.1C137.4,382.9,137.1,383,136.7,383.1z"/>
	<polygon class="st1" points="138.3,339.9 138.4,339.2 136,337.7 136,338.5 	"/>
	<path class="st1" d="M135.4,383.7l-3,4.7c-0.2,0.4-0.7,0.5-1.1,0.2l-11.4-7.2c0.2,0.2,0.3,0.5,0.5,0.7c0.2,0.3,0.3,0.5,0.5,0.7
		l10.8,6.8c0.4,0.2,0.9,0.1,1.1-0.3l4-6.3c-0.1,0-0.3,0.1-0.4,0.1C136,383.4,135.7,383.5,135.4,383.7z"/>
	<path class="st1" d="M103.3,371c-0.2,0.2-0.3,0.3-0.5,0.5l3.3,2.1l0.4-0.5L103.3,371z"/>
	<path class="st1" d="M148.9,362.1l-3.8,6.1c0.1,0.2,0.2,0.4,0.3,0.5c0.1,0.1,0.1,0.2,0.2,0.2l4-6.4c-0.1-0.1-0.1-0.1-0.2-0.2
		C149.2,362.4,149,362.3,148.9,362.1z"/>
	<polygon class="st1" points="136,339.3 138.1,340.6 138.3,339.9 136,338.5 	"/>
	<path class="st1" d="M148.2,361.6l-3.7,5.9c0.1,0.1,0.2,0.3,0.3,0.4c0.1,0.1,0.1,0.2,0.2,0.3l3.8-6.1c-0.1-0.1-0.2-0.2-0.3-0.2
		C148.5,361.8,148.4,361.7,148.2,361.6z"/>
	<path class="st1" d="M133.9,384.4l-1.9,3c-0.2,0.4-0.7,0.5-1,0.2l-12.1-7.6c0.2,0.3,0.5,0.7,0.7,1c0.1,0.1,0.2,0.3,0.3,0.4
		l11.4,7.2c0.4,0.2,0.9,0.1,1.1-0.2l3-4.7c-0.2,0.1-0.4,0.2-0.6,0.3C134.5,384.1,134.2,384.3,133.9,384.4z"/>
	<path class="st1" d="M103.8,370.5c-0.2,0.2-0.3,0.3-0.5,0.5l3.2,2l0.4-0.5L103.8,370.5z"/>
	<polygon class="st1" points="137.9,341.3 138.1,340.6 136,339.3 136,340.1 	"/>
	<path class="st1" d="M107.3,372l-3.1-2c-0.1,0.1-0.3,0.3-0.5,0.5l3.2,2L107.3,372z"/>
	<path class="st1" d="M147.6,361.1l-3.5,5.6c0.1,0.1,0.1,0.2,0.2,0.3c0.1,0.2,0.2,0.3,0.3,0.5l3.7-5.9c-0.1-0.1-0.3-0.2-0.4-0.3
		C147.8,361.2,147.7,361.2,147.6,361.1z"/>
	<path class="st1" d="M133,384.9l-0.4,0.1l-0.9,1.5c-0.2,0.3-0.7,0.4-1,0.2l-12.8-8c0,0,0.1,0.1,0.1,0.1c0.3,0.4,0.5,0.8,0.8,1.1
		c0,0,0.1,0.1,0.1,0.1l12.1,7.6c0.4,0.2,0.8,0.1,1-0.2l1.9-3c-0.3,0.2-0.7,0.4-1,0.6L133,384.9z"/>
	<polygon class="st1" points="137.8,342 137.9,341.3 136,340.1 136,340.9 	"/>
	<path class="st1" d="M147,360.6l-3.4,5.3c0,0,0,0.1,0,0.1c0.1,0.2,0.3,0.5,0.4,0.7l3.5-5.6C147.4,360.9,147.3,360.8,147,360.6
		C147.1,360.6,147,360.6,147,360.6z"/>
	<path class="st1" d="M131.6,385.3L131.6,385.3l-0.3,0.3c-0.2,0.3-0.7,0.4-1,0.2l-13.5-8.5c0.1,0.1,0.2,0.2,0.3,0.4
		c0.2,0.3,0.5,0.7,0.7,1l12.8,8c0.3,0.2,0.8,0.1,1-0.2l0.9-1.5L131.6,385.3L131.6,385.3z"/>
	<path class="st1" d="M104.7,369.6c-0.1,0.1-0.3,0.3-0.5,0.4l3.1,2l0.4-0.5L104.7,369.6z"/>
	<polygon class="st1" points="137.6,342.6 137.8,342 136,340.9 136,341.6 	"/>
	<path class="st1" d="M143.2,365.1c0.1,0.3,0.3,0.5,0.4,0.8l3.4-5.3c-0.2-0.2-0.4-0.3-0.6-0.5L143.2,365.1z"/>
	<path class="st1" d="M131.3,385.5l0.2-0.3l-0.5-0.6l0,0c-0.2,0.3-0.6,0.4-1,0.2l-14.2-8.9c0.1,0.2,0.3,0.4,0.4,0.6
		c0.2,0.3,0.4,0.5,0.6,0.8l13.5,8.5C130.7,386,131.1,385.9,131.3,385.5z"/>
	<path class="st1" d="M105.1,369.2c-0.1,0.1-0.2,0.2-0.3,0.3c0,0-0.1,0.1-0.1,0.1l3,1.9l0.4-0.5L105.1,369.2z"/>
	<polygon class="st1" points="137.4,343.2 137.6,342.6 136,341.6 136,342.4 	"/>
	<path class="st1" d="M145.9,359.5l-3,4.8c0.1,0.2,0.2,0.4,0.3,0.6c0,0.1,0.1,0.1,0.1,0.2l3.2-5.1c0,0-0.1-0.1-0.1-0.1
		C146.2,359.8,146,359.7,145.9,359.5z"/>
	<path class="st1" d="M105.5,368.7c-0.1,0.1-0.1,0.2-0.1,0.2s-0.1,0.1-0.2,0.2l3,1.9l0.4-0.5L105.5,368.7z"/>
	<path class="st1" d="M130.4,384c-0.2,0.1-0.5,0.1-0.7,0l-14.9-9.4c0.2,0.2,0.4,0.5,0.6,0.7c0.1,0.2,0.3,0.4,0.5,0.6l14.2,8.9
		c0.3,0.2,0.8,0.1,1-0.2l0,0l-0.1-0.1L130.4,384z"/>
	<polygon class="st1" points="137.3,343.8 137.4,343.2 136,342.4 136,343.1 	"/>
	<path class="st1" d="M105.9,368.3c-0.2,0.2-0.3,0.3-0.4,0.4l3,1.9l0.4-0.4L105.9,368.3z"/>
	<path class="st1" d="M129.7,383.2c-0.1,0-0.2,0-0.3-0.1l-15.6-9.8c0.2,0.3,0.4,0.6,0.7,0.9c0.1,0.1,0.2,0.3,0.3,0.5l14.9,9.4
		c0.2,0.1,0.5,0.1,0.7,0l-0.3-0.3L129.7,383.2z"/>
	<path class="st1" d="M145.5,359.2c-0.1-0.1-0.1-0.1-0.2-0.2l-2.9,4.6c0,0.1,0.1,0.2,0.1,0.3c0.1,0.2,0.2,0.3,0.3,0.5l3-4.8
		C145.8,359.4,145.7,359.3,145.5,359.2z"/>
	<polygon class="st1" points="137.2,344.4 137.3,343.8 136,343.1 136,343.7 	"/>
	<path class="st1" d="M128.7,382l-0.2-0.2l-15.7-9.9c0.2,0.3,0.5,0.6,0.7,0.9c0.1,0.1,0.2,0.2,0.3,0.3l15.6,9.8
		c0.1,0.1,0.2,0.1,0.3,0.1l-0.3-0.3L128.7,382z"/>
	<path class="st1" d="M106.3,367.9c-0.2,0.1-0.3,0.3-0.4,0.4l3,1.9l0.4-0.4L106.3,367.9z"/>
	<path class="st1" d="M142.1,362.9c0.1,0.2,0.2,0.5,0.4,0.7l2.9-4.6c-0.2-0.2-0.3-0.3-0.5-0.5L142.1,362.9z"/>
	<polygon class="st1" points="137,345 137.2,344.4 136,343.7 136,344.4 	"/>
	<path class="st1" d="M144.4,358.1l-2.6,4.1c0.1,0.2,0.2,0.4,0.3,0.6c0,0,0,0.1,0.1,0.1l2.7-4.4c0,0-0.1-0.1-0.1-0.1
		C144.6,358.3,144.5,358.2,144.4,358.1z"/>
	<path class="st1" d="M106.8,367.6c-0.2,0.1-0.3,0.2-0.5,0.3l2.9,1.8l0.3-0.4L106.8,367.6z"/>
	<path class="st1" d="M127.1,380.4l-15.3-9.6c0.2,0.3,0.5,0.6,0.8,1c0.1,0.1,0.1,0.2,0.2,0.3l15.7,9.9l-0.6-0.7L127.1,380.4z"/>
	<polygon class="st1" points="136,345 136.9,345.5 137,345 136,344.4 	"/>
	<path class="st1" d="M143.9,357.6l-2.5,3.9c0,0,0,0.1,0.1,0.1c0.1,0.2,0.2,0.4,0.3,0.6l2.6-4.1C144.2,358,144.1,357.8,143.9,357.6
		C143.9,357.7,143.9,357.6,143.9,357.6z"/>
	<path class="st1" d="M107.2,367.3c-0.2,0.1-0.3,0.2-0.5,0.3l2.8,1.8l0.3-0.4L107.2,367.3z"/>
	<path class="st1" d="M126.3,379.5l-0.5-0.6l-15-9.4c0.2,0.3,0.5,0.6,0.8,1c0.1,0.1,0.1,0.2,0.2,0.3l15.3,9.6l0,0L126.3,379.5z"/>
	<polygon class="st1" points="136.8,346.1 136.9,345.5 136,345 136,345.6 	"/>
	<path class="st1" d="M141.1,360.8c0.1,0.2,0.2,0.5,0.3,0.7l2.5-3.9c-0.2-0.2-0.3-0.3-0.5-0.5L141.1,360.8z"/>
	<path class="st1" d="M110.1,368.6c0,0,0.2,0.2,0.5,0.6c0.1,0.1,0.1,0.2,0.2,0.3l15,9.4l-0.3-0.3l-0.8-0.9l-0.1-0.2L107.8,367
		c-0.2,0.1-0.4,0.2-0.5,0.3l2.6,1.6L110.1,368.6z"/>
	<polygon class="st1" points="136.6,346.6 136.8,346.1 136,345.6 136.1,346.2 	"/>
	<path class="st1" d="M123.3,376.1l-14.9-9.3c-0.2,0.1-0.4,0.1-0.6,0.2l16.7,10.5l-0.7-0.8L123.3,376.1z"/>
	<path class="st1" d="M143,356.7l-2.2,3.5c0,0.1,0.1,0.2,0.1,0.3c0.1,0.1,0.1,0.2,0.2,0.4l2.3-3.7c-0.1-0.1-0.2-0.2-0.2-0.2
		C143.1,356.8,143,356.8,143,356.7z"/>
	<polygon class="st1" points="136.5,347.1 136.6,346.6 136.1,346.2 136.1,346.8 	"/>
	<path class="st1" d="M122.1,374.8l-13-8.1c-0.2,0-0.5,0.1-0.7,0.1c0,0,0,0,0,0l14.9,9.3l-0.3-0.4L122.1,374.8z"/>
	<path class="st1" d="M142.5,356.3l-2.1,3.3c0.1,0.2,0.2,0.4,0.3,0.6l2.2-3.5C142.8,356.5,142.7,356.4,142.5,356.3z"/>
	<polygon class="st1" points="136.4,347.6 136.5,347.1 136.1,346.8 136.1,347.4 	"/>
	<path class="st1" d="M142.1,355.8l-1.9,3.1c0.1,0.1,0.1,0.2,0.2,0.4c0,0.1,0.1,0.2,0.1,0.3l2.1-3.3c-0.1-0.1-0.1-0.1-0.2-0.2
		C142.3,356,142.2,355.9,142.1,355.8z"/>
	<path class="st1" d="M121.1,373.8l-0.3-0.3l-11-6.9c-0.3,0-0.5,0-0.8,0l13,8.1l0,0L121.1,373.8z"/>
	<polygon class="st1" points="136.3,348.1 136.4,347.6 136.1,347.4 136.1,347.9 	"/>
	<path class="st1" d="M139.9,358.3c0.1,0.2,0.2,0.4,0.3,0.6l1.9-3.1c-0.1-0.1-0.3-0.3-0.4-0.4L139.9,358.3z"/>
	<path class="st1" d="M119.7,372.3l-8.9-5.6c-0.2,0-0.3-0.1-0.5-0.1c-0.2,0-0.3,0-0.5,0l11,6.9l-0.7-0.7L119.7,372.3z"/>
	<polygon class="st1" points="136.1,348.5 136.2,348.5 136.3,348.1 136.1,347.9 	"/>
	<path class="st1" d="M136.1,348.8c0,0,0,0.1,0.1,0.2l0.1,0.1C136.1,348.9,136.1,348.8,136.1,348.8z"/>
	<path class="st1" d="M119.2,371.8c-0.3-0.3-0.7-0.7-1-1c0,0-0.1-0.1-0.1-0.1l-5.9-3.7c-0.1,0-0.1-0.1-0.2-0.1
		c-0.4-0.1-0.8-0.2-1.1-0.3l8.9,5.6l-0.2-0.2C119.5,372,119.4,371.9,119.2,371.8z"/>
	<path class="st1" d="M141.4,355l-1.7,2.7c0,0.1,0.1,0.2,0.1,0.3c0,0.1,0.1,0.2,0.1,0.3l1.8-2.9c-0.1-0.1-0.1-0.1-0.2-0.2
		C141.5,355.1,141.4,355.1,141.4,355z"/>
	<polygon class="st1" points="136.2,348.5 136.1,348.5 136.1,348.8 	"/>
	<path class="st1" d="M139.4,357.1c0.1,0.2,0.2,0.4,0.3,0.6l1.7-2.7c-0.1-0.1-0.2-0.3-0.4-0.4L139.4,357.1z"/>
	<path class="st1" d="M136.4,349.7l0.7,0.4c-0.2-0.3-0.4-0.5-0.6-0.7c-0.1-0.1-0.2-0.2-0.2-0.3l-0.1-0.1
		C136.2,349.1,136.2,349.3,136.4,349.7C136.4,349.6,136.4,349.6,136.4,349.7z"/>
	<path class="st1" d="M117.1,369.9c-0.4-0.3-0.8-0.6-1.1-0.9c-0.4-0.3-0.8-0.6-1.2-0.8c-0.5-0.3-0.9-0.5-1.3-0.7
		c-0.4-0.2-0.8-0.4-1.2-0.5l5.9,3.7C117.8,370.5,117.5,370.2,117.1,369.9z"/>
	<path class="st1" d="M137.9,351.1c-0.2-0.2-0.4-0.5-0.6-0.7c-0.1-0.1-0.2-0.2-0.3-0.3l-0.7-0.4c0.1,0.2,0.2,0.4,0.2,0.6
		L137.9,351.1z"/>
	<path class="st1" d="M140.7,354.3c0,0-0.1-0.1-0.1-0.1l-1.5,2.3c0,0.1,0,0.1,0.1,0.2c0.1,0.1,0.1,0.3,0.2,0.4l1.6-2.5
		C140.9,354.5,140.8,354.4,140.7,354.3z"/>
	<path class="st1" d="M138.8,352.1c-0.2-0.2-0.4-0.5-0.6-0.7c-0.1-0.1-0.2-0.2-0.3-0.3l-1.3-0.8c0.1,0.2,0.2,0.4,0.2,0.6
		L138.8,352.1z"/>
	<path class="st1" d="M138.9,356c0.1,0.2,0.2,0.4,0.2,0.6l1.5-2.3c-0.1-0.1-0.2-0.3-0.3-0.4L138.9,356z"/>
	<path class="st1" d="M139.8,353.2c0.1,0.1,0.1,0.3,0,0.5l-1.1,1.7c0.1,0.2,0.2,0.4,0.2,0.5l1.4-2.2c-0.1-0.1-0.3-0.3-0.4-0.4
		C139.9,353.3,139.8,353.3,139.8,353.2z"/>
	<path class="st1" d="M136.9,351.1c0,0.1,0.1,0.3,0.2,0.4l2.6,1.6c0,0,0.1,0.1,0.1,0.1c-0.2-0.3-0.5-0.5-0.7-0.8
		c-0.1-0.1-0.2-0.2-0.3-0.3l-1.9-1.2C136.9,351,136.9,351,136.9,351.1z"/>
	<path class="st1" d="M139,353.2c0.2,0.1,0.3,0.4,0.1,0.6l-0.7,1.1c0.1,0.2,0.1,0.3,0.2,0.5c0,0,0,0,0,0.1l1.1-1.7
		c0.1-0.1,0.1-0.3,0-0.5c0,0,0,0,0,0c0,0-0.1-0.1-0.1-0.1l-2.6-1.6c0.1,0.2,0.2,0.4,0.2,0.6L139,353.2z"/>
	<path class="st1" d="M139.1,353.2l-1.7-1.1c0.1,0.2,0.1,0.3,0.2,0.5c0,0,0,0.1,0,0.1l0.9,0.6c0.2,0.1,0.3,0.4,0.1,0.6l-0.4,0.6
		c0.1,0.2,0.1,0.3,0.2,0.5l0.7-1.1C139.3,353.6,139.3,353.3,139.1,353.2z"/>
	<path class="st1" d="M137.9,353.3c0.2,0.1,0.2,0.4,0.1,0.6l0,0c0,0,0,0.1,0,0.1c0.1,0.1,0.1,0.3,0.2,0.4l0.4-0.6
		c0.1-0.2,0.1-0.4-0.1-0.6l-0.9-0.6c0.1,0.2,0.1,0.4,0.2,0.6L137.9,353.3z"/>
	<path class="st1" d="M137.9,353.3l-0.2-0.1c0.1,0.2,0.2,0.5,0.3,0.7l0,0C138.2,353.7,138.1,353.4,137.9,353.3z"/>
</g>
</svg>
