<?xml version="1.0" encoding="utf-8"?>
<!-- Generator: Adobe Illustrator 22.0.1, SVG Export Plug-In . SVG Version: 6.00 Build 0)  -->
<svg version="1.1" id="レイヤー_1" xmlns="http://www.w3.org/2000/svg" xmlns:xlink="http://www.w3.org/1999/xlink" x="0px"
	 y="0px" viewBox="0 0 640 640" style="enable-background:new 0 0 640 640;" xml:space="preserve">
<style type="text/css">
	.st0{fill:none;}
	.st1{fill:#FFFFFF;}
	.st2{fill:url(#SVGID_1_);}
	.st3{fill:url(#SVGID_2_);}
	.st4{fill:url(#SVGID_3_);}
	.st5{fill:url(#SVGID_4_);}
	.st6{fill:url(#SVGID_5_);}
	.st7{fill:url(#SVGID_6_);}
	.st8{fill:url(#SVGID_7_);}
	.st9{fill:url(#SVGID_8_);}
	.st10{fill:url(#SVGID_9_);}
	.st11{fill:url(#SVGID_10_);}
	.st12{fill:url(#SVGID_11_);}
	.st13{fill:url(#SVGID_12_);}
	.st14{fill:url(#SVGID_13_);}
	.st15{fill:url(#SVGID_14_);}
	.st16{fill:url(#SVGID_15_);}
	.st17{fill:url(#SVGID_16_);}
	.st18{fill:url(#SVGID_17_);}
	.st19{fill:url(#SVGID_18_);}
</style>
<pattern  y="640" width="6.8" height="6.8" patternUnits="userSpaceOnUse" id="新規パターンスウォッチ_5" viewBox="0 -6.8 6.8 6.8" style="overflow:visible;">
	<g>
		<rect y="-6.8" class="st0" width="6.8" height="6.8"/>
		<circle class="st1" cx="3.4" cy="-3.4" r="2.1"/>
	</g>
</pattern>
<g id="レイヤー_2_1_">
</g>
<g>
	
		<pattern  id="SVGID_1_" xlink:href="#譁ｰ隕上ヱ繧ｿ繝ｼ繝ｳ繧ｹ繧ｦ繧ｩ繝メ_5" patternTransform="matrix(0.2811 0.5197 -0.5197 0.2811 -11191.3369 5609.6777)">
	</pattern>
	<path class="st2" d="M149.4,203.7l0.4-0.1c0.2,0,0.4,0.1,0.6,0.1c0.6,0.1,1.2,0.2,1.8,0.2l-0.4,0.8l-0.3,0.5
		c0.1-0.2,0.4-0.3,0.8-0.4c0.5-0.1,1.2-0.3,2-0.3c0.4,0,0.8-0.1,1.3-0.1c1-0.1,2.1-0.1,3.1-0.2c2.1-0.1,3.8-0.1,3.8-0.1
		c0.1,0.1,0.1,0.1,0.2,0.1c0.2,0.1,0.4,0.3,0.6,0.4c0.6,0.3,1.1,0.6,1.7,0.8c0.3,0.1,0.6,0.2,1,0.2c1.5,0.2,2.9,0,4.2-0.5
		c0.1,0,0.1-0.1,0.2-0.1c0.7-0.3,1.4-0.7,1.9-1s1-0.7,1.3-1c0.5-0.4,0.9-0.8,1.1-1c0.1-0.1,0.2-0.2,0.2-0.2s0.2-0.3,0.6-0.8
		c0.2-0.2,0.4-0.5,0.7-0.9c0.2-0.3,0.5-0.6,0.7-0.9c0.2-0.3,0.5-0.6,0.7-0.9c0.2-0.3,0.5-0.6,0.7-0.9c0.2-0.3,0.5-0.6,0.7-0.9
		c0.2-0.3,0.5-0.6,0.8-0.9c0.3-0.3,0.5-0.6,0.8-1c0.3-0.3,0.5-0.6,0.8-1c0.3-0.3,0.5-0.6,0.8-0.9c0.3-0.3,0.6-0.7,0.8-1
		c0.3-0.3,0.6-0.7,0.9-1c0.3-0.3,0.6-0.7,0.9-1c0.3-0.4,0.7-0.7,1-1.1c0.4-0.4,0.7-0.8,1-1.1c0.4-0.5,0.8-0.9,1.2-1.2
		c0.3-0.1,0.7-0.3,1-0.4c0.3-0.1,0.5-0.2,0.8-0.3c-0.1,0.3-0.2,0.6-0.3,0.9c-0.1,0.3-0.2,0.6-0.3,0.9c-0.1,0.3-0.2,0.6-0.3,0.9
		c-0.1,0.3-0.2,0.6-0.3,0.9c-0.1,0.3-0.2,0.6-0.3,0.9c-0.1,0.3-0.2,0.6-0.2,0.8c-0.1,0.3-0.2,0.6-0.2,0.8c0,0.1,0,0.2-0.1,0.3
		c-0.1,0.2-0.1,0.4-0.2,0.6c-0.1,0.3-0.1,0.6-0.2,0.9c-0.1,0.3-0.1,0.6-0.2,0.9c-0.1,0.3-0.1,0.6-0.2,0.9c-0.1,0.3-0.1,0.6-0.2,0.9
		c-0.1,0.3-0.1,0.6-0.2,0.9c-0.1,0.3-0.1,0.6-0.2,0.9c-0.1,0.3-0.1,0.6-0.1,0.8v0.1c-0.1,0.4-0.1,0.6-0.1,0.6
		c-0.3,0.1-0.5,0.3-0.8,0.5c0,0-0.1,0-0.1,0.1c-0.4,0.3-0.8,0.7-1.2,1.1c-0.3,0.3-0.5,0.7-0.8,1c-0.2,0.3-0.4,0.7-0.6,1
		c-0.2,0.3-0.4,0.7-0.5,1c-0.1,0.2-0.2,0.4-0.3,0.6c-0.1,0.1-0.1,0.3-0.2,0.4c-0.2,0.3-0.3,0.6-0.4,1c-0.1,0.3-0.3,0.6-0.4,0.9
		c-0.1,0.3-0.3,0.6-0.4,0.9c-0.1,0.4-0.2,0.7-0.3,0.9c-0.2,0.5-0.3,0.8-0.3,1v0.1c-0.8,0.3-1.4,0.7-1.9,1.1l-0.1,0.1
		c-0.4,0.3-0.7,0.7-0.9,1s-0.4,0.6-0.5,1c-0.1,0.3-0.2,0.6-0.3,1c0,0.2-0.1,0.4-0.1,0.7c0,0.1,0,0.2,0,0.3c0,0.3,0,0.6,0,0.9
		c0,0.3,0,0.6,0.1,0.9c0,0.3,0.1,0.6,0.2,0.9c0.1,0.3,0.1,0.6,0.2,0.9c0.1,0.3,0.2,0.6,0.3,0.9c0,0.1,0.1,0.1,0.1,0.2
		c0.1,0.2,0.2,0.5,0.3,0.7c0.1,0.3,0.3,0.6,0.4,0.9c0.1,0.3,0.3,0.6,0.5,0.9c0.2,0.3,0.3,0.6,0.5,0.9l0,0c0.2,0.3,0.4,0.6,0.5,0.9
		c0.2,0.3,0.4,0.6,0.6,0.9c0.2,0.3,0.4,0.7,0.6,0.9l0.1,0.1c0.2,0.4,0.5,0.6,0.6,0.8c0.2,0.2,0.2,0.3,0.2,0.3s0.1,0.2,0.4,0.7
		c0.2,0.3,0.4,0.6,0.6,1l0,0c0.2,0.3,0.4,0.6,0.6,0.9c0.2,0.3,0.4,0.6,0.7,1c0.2,0.2,0.4,0.5,0.6,0.7c0.1,0.1,0.1,0.2,0.2,0.2
		c0.3,0.3,0.5,0.6,0.8,1c0.3,0.3,0.6,0.6,0.9,0.9c0,0,0,0,0.1,0.1c0.3,0.3,0.6,0.6,0.9,0.9c0.4,0.3,0.7,0.6,1.1,0.9l0,0
		c0.4,0.3,0.9,0.6,1.4,0.9c0.3,0.1,0.5,0.2,0.8,0.3c0.4,0.2,0.8,0.3,1.2,0.4c0.4,0.1,0.8,0.1,1.1,0.1c0.9,0,1.7-0.2,2.6-0.7
		c0.4-0.2,0.9-0.5,1.3-0.9c0.4-0.1,0.7-0.2,1.1-0.3c0.1,0,0.2,0,0.4,0c0.6,0,1.3,0.1,2.2,0.1c0.2,0,0.4,0,0.7,0c0.5,0,1,0,1.6,0
		c0.7,0,1.5-0.1,2.3-0.2c0.2,0,0.3,0,0.5-0.1c0.7-0.1,1.3-0.3,1.9-0.5c0.8-0.3,1.5-0.6,2-1.1c0,0,0.2,0,0.5,0.1s0.8,0.2,1.4,0.3
		c0.1,0,0.3,0.1,0.4,0.1c0.5,0.1,1,0.2,1.6,0.3c0.1,0,0.1,0,0.2,0c0.6,0.1,1.2,0.2,1.8,0.3h0.1c0.5,0.1,1.1,0.2,1.7,0.3
		c0.2,0,0.3,0,0.5,0.1c0.4,0.1,0.8,0.1,1.2,0.1c0.3,0,0.7,0.1,1,0.1c0.2,0,0.5,0,0.7,0.1c0.5,0,1.1,0.1,1.6,0.1
		c-0.8,0.4-1.6,0.8-2.3,1.2c-0.8,0.4-1.6,0.8-2.3,1.2s-1.5,0.7-2.2,1.1c-0.5,0.2-1.1,0.5-1.6,0.7c-0.2,0.1-0.4,0.1-0.6,0.2
		c-0.7,0.2-1.4,0.4-2.1,0.6c-0.7,0.2-1.4,0.4-2.1,0.6c-0.7,0.2-1.5,0.4-2.1,0.6c-0.8,0.2-1.5,0.4-2.2,0.6c-1.3,0.3-2.1,0.5-2.2,0.6
		l0,0c-0.2,0.1-1.2,0.5-2.4,1.2c-0.6,0.4-1.2,0.8-1.9,1.4c-0.3,0.2-0.5,0.5-0.7,0.7c-0.3,0.3-0.6,0.6-0.8,1c-0.3,0.5-0.6,1-0.8,1.6
		c-0.2,0.4-0.3,0.9-0.4,1.4c-0.1,0.4-0.1,0.9-0.1,1.4c0,0.4,0.1,0.9,0.2,1.3c0,0.2,0,0.3,0.1,0.5c0,0-0.2,0.4-0.4,1
		c-0.2,0.4-0.4,1-0.7,1.6c-0.2,0.4-0.4,0.8-0.6,1.2c-0.1,0.1-0.1,0.2-0.2,0.3c-0.3,0.5-0.5,1.1-0.8,1.6c-0.3,0.6-0.6,1.1-0.9,1.6
		c-0.2,0.3-0.3,0.5-0.5,0.8s-0.4,0.6-0.6,0.9c-0.3,0.4-0.5,0.6-0.8,0.7l1.4-0.1l1.2-0.1l-0.6,0.8l-0.6,0.8l-0.7,1l-0.2,0.2
		c0,0,0.1-0.1,0.3-0.3c0.2-0.2,0.4-0.4,0.7-0.7c0.3-0.3,0.6-0.6,0.9-1.1c0.4-0.5,0.8-1,1.2-1.6c0.1-0.1,0.1-0.1,0.2-0.2
		c0.4-0.5,0.7-1.1,1.1-1.7c0.3-0.5,0.6-1,0.9-1.6c0,0,0-0.1,0.1-0.1c0.3-0.5,0.5-1.1,0.7-1.6s0.3-1,0.5-1.5c0.1-0.5,0.2-1,0.3-1.5
		c0-0.5,0.1-0.9,0-1.4c0.4-0.1,0.7-0.2,1.1-0.3c0.7-0.2,1.4-0.4,2.1-0.6c0.7-0.2,1.4-0.4,2.1-0.6c0.7-0.2,1.3-0.4,2-0.7
		c0.7-0.2,1.3-0.4,2-0.7c0.7-0.2,1.3-0.5,1.9-0.7c0.4-0.2,0.8-0.3,1.2-0.5c0.2,0.1,0.4,0.3,0.5,0.5c0.1,0.1,0.1,0.1,0.2,0.2
		c0,0,0.6-0.3,1.7-0.7c0.5-0.2,1.1-0.5,1.9-0.8c0.6-0.2,1.2-0.5,1.9-0.8c0.6-0.3,1.2-0.5,1.8-0.8s1.2-0.6,1.8-0.9
		c0.6-0.3,1.2-0.6,1.8-0.9c0.6-0.3,1.2-0.6,1.9-0.9c0.6-0.3,1.3-0.7,1.9-1c0.7-0.3,1.3-0.7,2-1.1c0.7-0.4,1.4-0.8,2.1-1.2
		c0.8-0.5,1.6-1,2.3-1.4c1.1-0.7,2.1-1.5,3-2.2c0.8-0.6,1.4-1.3,2-1.9c0.5-0.6,0.9-1.1,1.1-1.7c0.1-0.3,0.2-0.6,0.2-0.9
		c0-0.3,0-0.6-0.1-0.9c-0.1-0.2-0.1-0.3-0.2-0.4c0.9-0.7,1.9-1.3,2.8-2c0.1,0,0.2,0,0.2,0.1c0.4,0.1,0.8,0.2,1.3,0.4h0.1
		c0.6-0.4,1.2-0.8,1.8-1.2c1.8-1.2,3.6-2.2,5.5-3.1c-1.7,0.8-3.4,1.8-5.1,2.8c-0.6,0.4-1.2,0.8-1.8,1.2c0.4,0.1,0.8,0.2,1.3,0.4
		c-0.1,0.1-0.2,0.2-0.3,0.2c0,0,0,0,0.1,0c0.4,0.1,0.9,0.2,1.4,0.4c0.1,0,0.2,0,0.3,0.1c0.4,0.1,0.8,0.2,1.2,0.3
		c0.2,0,0.3,0.1,0.4,0.1c0.3,0.1,0.7,0.2,1,0.2c0.2,0.1,0.4,0.1,0.7,0.2c0.3,0.1,0.6,0.1,0.8,0.2c0.3,0.1,0.6,0.1,0.9,0.2
		c0.2,0,0.4,0.1,0.6,0.1c0.4,0.1,0.7,0.1,1.1,0.2c0.2,0,0.3,0.1,0.5,0.1c0.4,0.1,0.9,0.1,1.3,0.2c0.2,0,0.3,0,0.5,0.1
		c0.5,0.1,1,0.1,1.4,0.2c0.2,0,0.4,0,0.6,0.1c0.5,0,0.9,0.1,1.3,0.1c0.6,0,1.2,0,1.7,0c0.2,0,0.3,0,0.5,0c0.9,0,1.8-0.2,2.5-0.3
		c0.2,0,0.3-0.1,0.5-0.2c0.4-0.1,0.7-0.3,1.1-0.5c0,0,0.4,0,1.1,0.1c0.5,0.1,1.2,0.1,1.9,0.2c0.6,0.1,1.2,0.1,1.9,0.2
		c0.6,0.1,1.3,0.1,1.9,0.2c0.6,0.1,1.3,0.2,1.9,0.2c0.6,0.1,1.3,0.2,1.9,0.2c0.3,0,0.6,0.1,0.9,0.1s0.7,0.1,1,0.1
		c0.6,0.1,1.3,0.2,1.9,0.3c0.1,0,0.3,0,0.4,0.1c0.5,0.1,1,0.2,1.5,0.2c0.4,0.1,0.8,0.1,1.2,0.2c0.2,0,0.5,0.1,0.7,0.1
		c0.6,0.1,1.2,0.2,1.7,0.3c0.1,0,0.1,0,0.2,0c0.7,0.1,1.3,0.3,1.8,0.4c0.1,0,0.2,0.1,0.3,0.1c0.6,0.2,1.1,0.3,1.4,0.5
		c0.3,0.1,0.5,0.3,0.5,0.4c0,0,0.3,0.3,0.8,0.6c0.3,0.2,0.8,0.5,1.2,0.8c0.1,0,0.1,0.1,0.2,0.1c0.5,0.3,1,0.5,1.6,0.8
		c0.2,0.1,0.4,0.1,0.6,0.2c0.4,0.1,0.8,0.3,1.2,0.4c0.2,0,0.3,0.1,0.5,0.1c0.5,0.1,1,0.1,1.5,0.1c0.1,0,0.1,0,0.2,0
		c0.4,0,0.8-0.1,1.2-0.2c0.4-0.1,0.8-0.2,1.2-0.4c0.3-0.1,0.6-0.3,0.8-0.5c0.1-0.1,0.2-0.1,0.2-0.2c0.3-0.2,0.7-0.5,1-0.8l0,0
		c0,0,0-0.1-0.1-0.4c-0.1-0.2-0.3-0.4-0.7-0.7c-0.2-0.1-0.4-0.3-0.7-0.4c-0.4-0.2-1-0.5-1.7-0.7h-0.1c-0.5-0.2-1.1-0.3-1.7-0.5
		c-0.1,0-0.3-0.1-0.5-0.1c-0.4-0.1-0.9-0.2-1.4-0.3c-0.2,0-0.5-0.1-0.7-0.1c-0.4-0.1-0.8-0.2-1.2-0.2c-0.3-0.1-0.6-0.1-0.9-0.2
		c-0.3-0.1-0.7-0.1-1-0.2c-0.3,0-0.5-0.1-0.8-0.1h-0.3l-0.9-0.1l-1.4-0.2l-0.5-0.1l-1.8-0.3l0,0l-1.9-0.3l-0.9-0.1l-1-0.2l-1.9-0.3
		l-0.6-0.1L276,230l-1.8-0.3l-1.8-0.3l-1.8-0.3l-1.8-0.3l-1.8-0.3l-1.8-0.3l-1.8-0.3l-1.1-0.2l-0.7-0.1l-1.8-0.3l-1.1-0.2L258,227
		l-1.7-0.3l-0.3-0.1l-1.4-0.2l-1-0.2l-0.7-0.1l-1.5-0.3h-0.2l-1.7-0.3c0.1-0.1,0.1-0.1,0.2-0.2c-0.4,0.2-0.8,0.3-1.2,0.5
		c0.5-0.3,1.1-0.5,1.6-0.7c0.2-0.2,0.4-0.3,0.5-0.5c0.6-0.1,1.2-0.3,1.8-0.5c1.3-0.4,2.5-0.8,3.8-1.1c0.1,0,0.1,0,0.2,0l0,0
		c5.1-1.2,10.4-1.3,15.4-0.3c0.4-0.2,0.8-0.3,1.1-0.5c0.1,0,0.2-0.1,0.3-0.1l0,0c0.6-0.3,1.2-0.5,1.8-0.8c0.2-0.1,0.4-0.2,0.6-0.3
		c0.4-0.2,0.7-0.3,1.1-0.5c0.6-0.3,1.1-0.5,1.6-0.8c0.2-0.1,0.3-0.2,0.5-0.3c0.4-0.2,0.7-0.4,1.1-0.6c0.5-0.3,1-0.6,1.6-0.9
		c0.3-0.2,0.6-0.3,0.8-0.5c0.2-0.1,0.4-0.3,0.7-0.4c0.5-0.3,1-0.6,1.5-0.9c0.5-0.3,0.9-0.7,1.4-1c0.1-0.1,0.2-0.2,0.3-0.3
		c0.3-0.3,0.7-0.5,1-0.8c0.4-0.4,0.9-0.8,1.2-1.2c0.1-0.1,0.1-0.1,0.2-0.2c0,0,0.6-0.4,1.4-0.8c0.1,0,0.1-0.1,0.2-0.1
		c0.5-0.2,1-0.5,1.7-0.8c0.3-0.1,0.7-0.3,1-0.4c0.4-0.1,0.7-0.2,1.1-0.4c0.4-0.1,0.8-0.2,1.2-0.3c0.5-0.1,0.9-0.1,1.4-0.1
		c0.2,0,0.4,0,0.6,0c0.6,0,1.2,0.1,1.7,0.4c0.1,0.1,0.2,0.1,0.3,0.1v-0.7v-0.3v-2.3v-0.6v-1.7v-0.3c0,0,0.6-0.4,1.5-1.1
		c0.1-0.1,0.3-0.2,0.4-0.3c0.4-0.3,0.9-0.7,1.3-1c0.5-0.4,1.1-0.9,1.7-1.4c0.1-0.1,0.1-0.1,0.2-0.2c0.5-0.4,1-0.9,1.5-1.3
		c0.6-0.5,1.2-1,1.7-1.6l0.1-0.1c0.3-0.7,0.6-1.3,1-2c0.3-0.5,0.5-1.1,0.8-1.6h1.1h0.7c0.5-0.5,0.9-1,1.3-1.6
		c0.6-0.7,1.1-1.4,1.5-2.1c0.5-0.8,1-1.6,1.3-2.3c0.4-0.9,0.7-1.7,0.8-2.5l0.1-0.2l1.4-2.4l0.1-0.2l1.5-1.9l0.4,1.5l0.3,1.1
		c0,0,0.6-0.8,1-1.8c0.3-0.9,0.5-2,0.1-3.1c-0.1-0.2-0.2-0.5-0.3-0.7l0,0l0,0l0,0c-0.2-0.3-0.5-0.7-0.8-1c-0.4-0.4-0.9-0.7-1.4-1
		l0,0l-0.5-0.4c0.3-0.8,0.6-1.6,0.9-2.5c0.3-1.1,0.6-2.2,0.8-3.2c0.2-1.2,0.3-2.4,0.4-3.6c0-0.5,0-1,0-1.6c0-0.4,0-0.8-0.1-1.2
		c0,0-0.1-0.5-0.2-1.2c-0.1-0.6-0.2-1.3-0.4-2.2c-0.1-0.7-0.3-1.4-0.4-2.2c-0.1-0.6-0.2-1.2-0.4-1.9c-0.2-0.9-0.4-1.8-0.6-2.7
		c-0.1-0.4-0.2-0.7-0.3-1.1c-0.3-1.2-0.7-2.3-1-3.4c0-0.1-0.1-0.2-0.1-0.3c-0.3-1-0.7-1.9-1.1-2.8c-0.4-0.9-0.8-1.7-1.2-2.4
		c0,0,0-0.1-0.1-0.1c-0.4-0.7-0.9-1.4-1.3-1.9c-0.3-0.4-0.6-0.7-0.9-1c-0.1-0.3-0.2-0.7-0.4-1c-0.3-0.6-0.7-1.2-1.1-1.8
		c-0.1-0.1-0.1-0.2-0.2-0.3c-0.4-0.6-0.9-1.1-1.4-1.7c-0.4-0.5-0.9-1-1.4-1.4c-0.4-0.4-0.9-0.9-1.4-1.3c-0.5-0.4-0.9-0.8-1.4-1.2
		c-0.3-0.2-0.5-0.4-0.8-0.6c-0.2-0.2-0.4-0.3-0.6-0.5c-0.5-0.4-0.9-0.7-1.4-1s-0.9-0.7-1.4-1c-0.5-0.3-0.9-0.7-1.4-1
		s-0.9-0.6-1.4-0.9s-0.9-0.6-1.4-0.9s-1-0.6-1.3-0.9c-0.7-0.4-1.1-0.7-1.3-0.8l0,0c-0.1,0-0.1-0.1-0.1-0.1c-0.4-0.2-0.8-0.4-1.2-0.6
		c-0.4-0.2-0.9-0.4-1.3-0.5c-0.4-0.2-0.9-0.3-1.3-0.5c-0.4-0.1-0.9-0.3-1.3-0.4s-0.8-0.2-1.3-0.3c-0.4-0.1-0.8-0.2-1.3-0.2
		c-0.4-0.1-0.8-0.1-1.2-0.2c-0.4-0.1-0.8-0.1-1.2-0.1c-0.4,0-0.8-0.1-1.2-0.1c-0.4,0-0.8,0-1.2,0c0-0.9-0.1-1.8-0.1-2.7
		c-0.2-0.3-0.3-0.6-0.5-0.9s-0.5-0.5-0.8-0.7c-0.4-0.3-0.8-0.5-1.2-0.6c-0.4-0.1-0.8-0.2-1.2-0.2c-0.4,0-0.8,0-1.2,0
		c-0.6,0.1-1.1,0.2-1.1,0.2l1.2,0.9v0.1c0,0.3,0,0.6,0.1,0.9l-1.1,0.3l-1.1,0.3l-1.1,0.3l-0.4,0.1c-0.2-0.1-0.5-0.2-0.7-0.3
		c-0.4-0.1-0.7-0.2-1.1-0.2s-0.7-0.1-1.1-0.1s-0.7,0-1.1,0c-0.3,0-0.7,0.1-1.1,0.1c-0.3,0-0.7,0.1-1,0.2s-0.7,0.1-1,0.2
		s-0.7,0.2-1,0.3c-0.3,0.1-0.7,0.2-1,0.3c-0.3,0.1-0.7,0.2-1,0.3c-0.3,0.1-0.7,0.2-1,0.3c-0.3,0.1-0.7,0.2-1,0.4
		c-0.3,0.1-0.6,0.2-1,0.4l0,0c-0.3,0.1-0.6,0.3-1,0.4c-0.3,0.1-0.6,0.3-1,0.4c-0.3,0.1-0.6,0.3-1,0.4c-0.3,0.1-0.6,0.3-0.9,0.4
		c-0.3,0.1-0.6,0.3-0.9,0.4c-0.3,0.2-0.6,0.3-0.9,0.5c-0.3,0.2-0.6,0.3-0.9,0.5c-0.3,0.2-0.6,0.3-0.9,0.5c-0.3,0.2-0.6,0.3-0.9,0.5
		c-0.3,0.2-0.6,0.3-0.9,0.5c-0.3,0.2-0.5,0.3-0.8,0.4c0,0-0.1,0-0.1,0.1c-0.3,0.2-0.6,0.4-0.9,0.5c-0.4,0.3-0.7,0.4-0.9,0.5
		c-0.1,0-0.1,0.1-0.1,0.1l-0.7-0.3l-0.8-0.3l-0.2-0.1l-0.6-0.3l-0.8-0.3l-0.8-0.3l-0.8-0.3l-0.5-0.2c0.1,0.7-0.1,1.4-0.3,2.1
		c0,0,0,0,0,0.1c-0.2,0.5-0.5,1.1-0.9,1.6c-0.3,0.4-0.5,0.8-0.8,1.1s-0.6,0.7-0.9,1c-0.3,0.3-0.6,0.6-0.8,0.8
		c-0.1,0.1-0.1,0.1-0.2,0.2c-0.2,0.2-0.4,0.4-0.6,0.6c-0.3,0.3-0.6,0.5-0.8,0.7c-0.4,0.3-0.7,0.5-0.8,0.6s-0.2,0.1-0.2,0.1
		c-0.2,0.1-0.4,0.2-0.6,0.3c-0.3,0.1-0.5,0.2-0.8,0.4c-0.3,0.1-0.5,0.3-0.8,0.4c-0.3,0.1-0.5,0.3-0.8,0.4c-0.3,0.1-0.5,0.3-0.8,0.5
		s-0.5,0.3-0.8,0.5s-0.5,0.3-0.8,0.5s-0.5,0.4-0.8,0.6c-0.3,0.2-0.5,0.4-0.8,0.6c-0.2,0.2-0.4,0.3-0.7,0.5l-0.1,0.1
		c-0.3,0.2-0.6,0.4-0.8,0.7c-0.3,0.2-0.6,0.5-0.8,0.7c-0.3,0.2-0.6,0.5-0.8,0.7c-0.3,0.2-0.6,0.5-0.9,0.7c-0.3,0.3-0.6,0.5-0.9,0.8
		c-0.3,0.3-0.6,0.5-0.9,0.8c-0.3,0.3-0.6,0.6-0.9,0.9c-0.3,0.3-0.7,0.6-1,0.9c-0.1,0.1-0.1,0.1-0.2,0.2c-0.3,0.3-0.5,0.5-0.8,0.8
		c-0.4,0.4-0.7,0.7-1.1,1.1c-0.4,0.4-0.7,0.8-1.1,1.1c-0.4,0.4-0.8,0.9-1.2,1.3c-0.5,0.5-0.9,1-1.3,1.4c-0.3,0.3-0.6,0.7-0.9,1
		c-0.2,0.3-0.4,0.5-0.7,0.7c-0.8,0.9-1.5,1.7-1.9,2.2s-0.7,0.8-0.7,0.8l0.3-1.4l0.3-1.2l0.2-0.8l0.6-2.4l0.3-1.4l0.3-1.4l0.8-3.2
		l0.3-1.1l0.9-3.6l1.1-4.8l0.2-1l0.9-3.9l0.1-0.4l0.5-2.1c0.1-0.3,0.1-0.5,0.2-0.8c0.1-0.6,0.3-1.2,0.4-1.7c0.1-0.2,0.1-0.5,0.1-0.7
		c0.2-0.9,0.3-1.7,0.5-2.4c0.1-0.7,0.2-1.3,0.3-1.9c0-0.3,0.1-0.6,0.1-0.8c0.2-2.5-0.3-3.4-0.5-3.6c-0.1-0.1-0.2-0.1-0.2-0.1
		c-0.1,0-0.2,0.1-0.4,0.2s-0.4,0.2-0.5,0.2c-0.2,0.1-0.4,0.2-0.5,0.3c-0.2,0.1-0.4,0.2-0.5,0.4c-0.2,0.1-0.3,0.3-0.5,0.5
		s-0.3,0.3-0.5,0.5s-0.3,0.4-0.4,0.7c-0.2,0.3-0.3,0.6-0.4,0.9c-0.2,0.4-0.3,0.8-0.4,1.2c-0.1,0.5-0.2,1-0.2,1.5
		c-0.1,1.9,0.2,3.6,0.4,4.6c0.1,0.2,0.1,0.4,0.1,0.6c0,1.4-0.1,2.7-0.2,4.1c0,0.3,0,0.5-0.1,0.8c-0.3,1.2-0.6,2.6-1,4.1
		c-0.4,1.6-0.9,3.3-1.3,4.9c-0.5,1.8-1,3.4-1.4,4.9c-0.1,0.5-0.3,0.9-0.4,1.4c-0.5,1.5-0.8,2.7-1,3.4c0,0.1-0.1,0.1-0.1,0.2
		c-0.1,0.2-0.2,0.4-0.3,0.5c-1.2,1-2.2,2.7-3,4.9c-0.1,0.2-0.1,0.4-0.2,0.6c-0.1,0.4-0.3,0.8-0.4,1.3c-0.1,0.5-0.3,1-0.4,1.4
		c-0.1,0.4-0.2,0.9-0.4,1.4c-0.1,0.3-0.1,0.6-0.2,0.9c0,0.1,0,0.2-0.1,0.3c-0.1,0.4-0.2,0.8-0.3,1.2s-0.2,0.7-0.2,1.1
		c-0.1,0.3-0.1,0.7-0.2,1c-0.1,0.3-0.1,0.7-0.2,1v0.1c-0.1,0.3-0.1,0.6-0.2,0.9c-0.1,0.3-0.1,0.6-0.1,1c0,0.3-0.1,0.6-0.1,1
		c0,0.3-0.1,0.6-0.1,1c0,0.2-0.1,0.5-0.1,0.7c0,0.1,0,0.2,0,0.3c0,0.3-0.1,0.6-0.1,0.9c0,0.3-0.1,0.6-0.1,0.9c0,0.4-0.1,0.7-0.1,0.9
		c-0.9,0.7-1.8,1.5-2.7,2.1c-0.1-0.2-0.2-0.4-0.3-0.6c-0.1-0.2-0.3-0.3-0.4-0.4c-0.2-0.1-0.4-0.2-0.6-0.3c-0.2-0.1-0.5-0.1-0.8-0.1
		h-0.1c-0.4,0-0.8,0-1.3,0.2c-0.7,0.2-1.6,0.5-2.4,0.9c-1.3,0.6-2.7,1.4-4.1,2.4c-1,0.7-2,1.4-3,2.1c-0.6,0.5-1.3,1-1.9,1.5
		c-0.5,0.4-1,0.8-1.5,1.2c-0.1,0.1-0.3,0.2-0.4,0.3c-0.3,0.3-0.7,0.6-1,0.8c-0.4,0.3-0.8,0.7-1.2,1s-0.8,0.7-1.2,1s-0.7,0.6-1,0.9
		c-0.4,0.3-0.7,0.6-1,0.9c-0.3,0.3-0.7,0.6-1,0.9c-0.3,0.3-0.6,0.6-0.9,0.9c-0.3,0.3-0.6,0.6-0.9,0.9c-0.3,0.3-0.6,0.6-0.9,0.8
		c-0.3,0.3-0.6,0.6-0.8,0.8c-0.5,0.5-0.8,0.8-0.8,0.8l0,0c0.1,0.2,0.3,0.4,0.3,0.6c0.1,0.2,0.1,0.5,0.1,0.7s0,0.5-0.1,0.7
		c-0.1,0.3-0.2,0.5-0.3,0.8c-0.2,0.3-0.3,0.5-0.6,0.8c-0.2,0.3-0.5,0.6-0.8,0.8c-0.3,0.3-0.6,0.6-1,0.8c-0.4,0.3-0.9,0.6-1.2,0.9
		c-0.6,0.4-1.1,0.7-1.4,0.8c-0.1,0.1-0.2,0.1-0.2,0.1l2.3,0.4h0.2l2.6,0.5l0.4,0.1c-0.1,0.3-0.2,0.5-0.4,0.7
		c-0.2,0.3-0.5,0.6-0.9,0.9c-0.6,0.4-1.3,0.8-2,1c-0.8,0.3-1.6,0.5-2.3,0.6c-1.1,0.2-1.9,0.2-1.9,0.2c-0.2-0.2-0.5-0.3-0.8-0.5
		s-0.6-0.3-0.9-0.5c-0.2-0.1-0.5-0.2-0.7-0.3c-0.9-0.3-1.9-0.5-3-0.5c-1.3-0.1-2.7,0-4,0.2c-0.1,0-0.2,0-0.4,0.1
		c-0.8,0.1-1.6,0.3-2.3,0.5s-1.4,0.4-1.9,0.5c-0.3,0.1-0.5,0.2-0.8,0.3c-0.4,0.1-0.7,0.2-0.9,0.3
		C149.5,203.7,149.4,203.7,149.4,203.7z M210.9,156.9l0.4-1.6c0.1-0.1,0.1-0.2,0.2-0.3l0.3,0.7l0.2,0.6v0.1l0.3,0.7l0.3,0.7l0.3,0.7
		l0.3,0.7c-0.2,0.2-0.3,0.5-0.5,0.7c-1,1.5-2.2,3-3.4,4.4l0.3-1.3l0.3-1.4v-0.2l0.3-1.2l0.4-1.6l0.4-1.6L210.9,156.9z"/>
	
		<pattern  id="SVGID_2_" xlink:href="#譁ｰ隕上ヱ繧ｿ繝ｼ繝ｳ繧ｹ繧ｦ繧ｩ繝メ_5" patternTransform="matrix(0.2811 0.5197 -0.5197 0.2811 -11088.2363 5501.7598)">
	</pattern>
	<path class="st3" d="M252.5,224.3c1.2-0.4,2.4-0.8,3.7-1.1c0,0,0,0,0.1-0.1c5.1-1.2,10.4-1.3,15.4-0.3c-0.7,0.3-1.3,0.5-2,0.8h-0.1
		c-4.3-0.6-8.8-0.4-13.1,0.6l-0.7-0.7c0.1-0.1,0.3-0.2,0.4-0.4c-0.9,0.3-1.8,0.6-2.6,0.8C253.1,224.1,252.8,224.2,252.5,224.3z"/>
	
		<pattern  id="SVGID_3_" xlink:href="#譁ｰ隕上ヱ繧ｿ繝ｼ繝ｳ繧ｹ繧ｦ繧ｩ繝メ_5" patternTransform="matrix(0.2811 0.5197 -0.5197 0.2811 -11084.4365 5500.5156)">
	</pattern>
	<path class="st4" d="M267,224.6c-0.2,0.1-0.5,0.2-0.7,0.2c-0.7,0.3-1.4,0.5-2.1,0.7c-0.3,0.1-0.7,0.2-1,0.3c-1.3,0.4-2.3,0.7-3,1
		l0,0c-0.6,0.2-1,0.3-1,0.3l-0.1-0.1l-0.5-0.5l-0.4-0.4l-0.6-0.6l-0.3-0.3l-0.7-0.6l-0.3-0.3c4.3-1,8.8-1.2,13.1-0.6
		C268.6,224.1,267.8,224.4,267,224.6z"/>
</g>
<g>
	
		<pattern  id="SVGID_4_" xlink:href="#譁ｰ隕上ヱ繧ｿ繝ｼ繝ｳ繧ｹ繧ｦ繧ｩ繝メ_5" patternTransform="matrix(-0.3353 -0.4346 0.4346 -0.3353 -20718.2617 -5103.9658)">
	</pattern>
	<path class="st5" d="M474.8,378.6l-0.4,0.2c-0.2,0-0.4,0-0.6,0c-0.5,0-1.1,0-1.6,0l0.3-0.8l0.2-0.5c-0.1,0.2-0.3,0.3-0.7,0.5
		c-0.4,0.2-1.1,0.4-1.8,0.6c-0.4,0.1-0.7,0.2-1.1,0.3c-0.9,0.2-1.9,0.4-2.8,0.6c-1.9,0.4-3.5,0.6-3.5,0.6c-0.1,0-0.1-0.1-0.2-0.1
		c-0.2-0.1-0.4-0.2-0.6-0.3c-0.6-0.2-1.1-0.4-1.6-0.5c-0.3,0-0.6-0.1-0.9-0.1c-1.4,0-2.7,0.4-3.7,1.1c-0.1,0-0.1,0.1-0.2,0.1
		c-0.6,0.4-1.2,0.8-1.6,1.2c-0.4,0.4-0.8,0.8-1.1,1.1c-0.4,0.5-0.7,0.8-0.8,1.1c-0.1,0.1-0.1,0.2-0.1,0.2s-0.2,0.3-0.4,0.8
		c-0.1,0.3-0.3,0.6-0.5,0.9s-0.3,0.6-0.5,1c-0.2,0.3-0.3,0.6-0.5,1c-0.2,0.3-0.3,0.6-0.5,1c-0.2,0.3-0.3,0.6-0.5,0.9s-0.4,0.6-0.6,1
		c-0.2,0.3-0.4,0.7-0.6,1s-0.4,0.7-0.6,1s-0.4,0.7-0.6,1c-0.2,0.4-0.4,0.7-0.6,1.1s-0.4,0.7-0.6,1.1s-0.4,0.7-0.6,1.1
		s-0.5,0.8-0.7,1.1c-0.3,0.4-0.5,0.8-0.8,1.2c-0.3,0.5-0.6,0.9-0.9,1.3c-0.3,0.2-0.6,0.4-0.8,0.5c-0.2,0.1-0.5,0.3-0.7,0.4
		c0.1-0.3,0.1-0.6,0.2-0.9s0.1-0.6,0.1-0.8c0-0.3,0.1-0.6,0.1-0.8c0-0.3,0.1-0.6,0.1-0.8c0-0.3,0.1-0.5,0.1-0.8s0.1-0.5,0.1-0.8
		s0.1-0.5,0.1-0.8c0-0.1,0-0.2,0-0.2c0-0.2,0-0.4,0.1-0.6c0-0.3,0-0.5,0.1-0.8c0-0.3,0-0.6,0.1-0.8c0-0.3,0-0.6,0-0.8
		c0-0.3,0-0.6,0-0.8c0-0.3,0-0.6,0-0.8c0-0.3,0-0.6,0-0.8c0-0.3,0-0.5,0-0.7v-0.1c0-0.4,0-0.6,0-0.6c0.2-0.1,0.4-0.3,0.6-0.5
		c0,0,0-0.1,0.1-0.1c0.3-0.3,0.6-0.8,0.9-1.2c0.2-0.3,0.4-0.7,0.5-1.1c0.2-0.3,0.3-0.7,0.4-1s0.2-0.7,0.3-1c0.1-0.2,0.1-0.4,0.2-0.6
		c0-0.1,0.1-0.3,0.1-0.4c0.1-0.3,0.2-0.6,0.3-0.9c0.1-0.3,0.2-0.6,0.2-0.9c0.1-0.3,0.1-0.6,0.2-0.9s0.1-0.7,0.2-0.9
		c0.1-0.5,0.1-0.8,0.1-0.9v-0.1c0.6-0.4,1.1-0.9,1.6-1.3l0.1-0.1c0.3-0.4,0.5-0.7,0.7-1.1c0.2-0.3,0.3-0.7,0.4-1s0.1-0.6,0.1-0.9
		c0-0.2,0-0.4,0-0.6c0-0.1,0-0.2,0-0.3c0-0.3-0.1-0.6-0.1-0.9c-0.1-0.3-0.1-0.6-0.2-0.8c-0.1-0.3-0.2-0.5-0.3-0.8
		c-0.1-0.3-0.2-0.5-0.4-0.8c-0.1-0.3-0.3-0.5-0.4-0.8c0-0.1-0.1-0.1-0.1-0.2c-0.1-0.2-0.2-0.4-0.4-0.6c-0.2-0.3-0.3-0.5-0.5-0.8
		s-0.4-0.5-0.6-0.8s-0.4-0.5-0.6-0.8l0,0c-0.2-0.3-0.4-0.5-0.6-0.8s-0.5-0.5-0.7-0.8c-0.3-0.3-0.5-0.5-0.7-0.8l-0.1-0.1
		c-0.3-0.3-0.5-0.5-0.7-0.7s-0.3-0.2-0.3-0.2s-0.2-0.2-0.4-0.5c-0.2-0.2-0.4-0.5-0.7-0.8l0,0c-0.2-0.2-0.4-0.5-0.7-0.8
		c-0.2-0.3-0.5-0.5-0.8-0.8c-0.2-0.2-0.4-0.4-0.6-0.6c-0.1-0.1-0.1-0.1-0.2-0.2c-0.3-0.3-0.6-0.5-0.9-0.8s-0.6-0.5-1-0.7
		c0,0-0.1,0-0.1-0.1c-0.3-0.2-0.6-0.4-1-0.7c-0.4-0.2-0.8-0.5-1.2-0.7l0,0c-0.5-0.2-0.9-0.4-1.4-0.6c-0.3-0.1-0.5-0.1-0.8-0.2
		c-0.4-0.1-0.8-0.1-1.1-0.2c-0.4,0-0.7,0-1.1,0.1c-0.8,0.1-1.6,0.4-2.3,1c-0.4,0.3-0.7,0.6-1.1,1c-0.3,0.2-0.6,0.3-0.9,0.5
		c-0.1,0-0.2,0-0.4,0c-0.5,0-1.2,0.1-2.1,0.2c-0.2,0-0.4,0.1-0.6,0.1c-0.5,0.1-1,0.2-1.4,0.3c-0.7,0.1-1.4,0.3-2,0.5
		c-0.1,0-0.3,0.1-0.4,0.1c-0.6,0.2-1.2,0.4-1.7,0.7c-0.7,0.4-1.3,0.8-1.7,1.3c0,0-0.2,0-0.5,0s-0.8,0-1.3-0.1c-0.1,0-0.3,0-0.4,0
		c-0.5,0-1,0-1.5,0c-0.1,0-0.1,0-0.2,0c-0.5,0-1.1,0-1.7,0h-0.1c-0.5,0-1,0-1.6,0c-0.2,0-0.3,0-0.5,0c-0.4,0-0.8,0-1.1,0.1
		c-0.3,0-0.6,0-0.9,0c-0.2,0-0.4,0-0.7,0c-0.5,0-1,0.1-1.5,0.1c0.7-0.5,1.3-1,2-1.5s1.3-0.9,2-1.4c0.6-0.4,1.3-0.9,1.9-1.3
		c0.5-0.3,0.9-0.6,1.4-0.9c0.2-0.1,0.3-0.2,0.5-0.2c0.6-0.3,1.2-0.6,1.8-0.9c0.6-0.3,1.2-0.6,1.8-0.9c0.7-0.3,1.3-0.6,1.9-0.9
		c0.7-0.3,1.3-0.6,1.9-0.9c1.1-0.5,1.8-0.8,1.9-0.8l0,0c0.2-0.1,1-0.6,2-1.4c0.5-0.4,1-0.9,1.5-1.5c0.2-0.2,0.4-0.5,0.6-0.8
		s0.4-0.7,0.6-1c0.2-0.5,0.4-1,0.5-1.6c0.1-0.4,0.1-0.9,0.1-1.4c0-0.4,0-0.8-0.1-1.3c-0.1-0.4-0.2-0.8-0.4-1.2
		c-0.1-0.1-0.1-0.3-0.1-0.4c0,0,0.1-0.4,0.2-1c0.1-0.4,0.2-0.9,0.4-1.5c0.1-0.4,0.2-0.8,0.3-1.2c0-0.1,0.1-0.2,0.1-0.3
		c0.2-0.5,0.3-1,0.5-1.6s0.4-1.1,0.6-1.6c0.1-0.3,0.2-0.5,0.3-0.8c0.1-0.3,0.3-0.6,0.4-0.9c0.2-0.4,0.4-0.7,0.6-0.7l-1.3,0.3
		l-1.1,0.3l0.4-0.8l0.4-0.8l0.5-1l0.1-0.3c0,0-0.1,0.1-0.2,0.3c-0.1,0.2-0.3,0.4-0.5,0.8c-0.2,0.3-0.4,0.7-0.7,1.1
		c-0.3,0.5-0.6,1-0.9,1.6c0,0.1-0.1,0.1-0.1,0.2c-0.3,0.5-0.5,1.1-0.8,1.7c-0.2,0.5-0.4,1-0.6,1.6v0.1c-0.2,0.5-0.3,1-0.4,1.6
		c-0.1,0.5-0.2,1-0.2,1.5s0,0.9,0,1.4c0,0.4,0.1,0.9,0.2,1.3c-0.3,0.1-0.6,0.3-0.9,0.4c-0.6,0.3-1.2,0.6-1.8,0.9
		c-0.6,0.3-1.2,0.6-1.8,0.9c-0.6,0.3-1.2,0.6-1.8,0.9c-0.6,0.3-1.1,0.6-1.7,0.9s-1.1,0.6-1.7,0.9c-0.4,0.2-0.7,0.4-1.1,0.6
		c-0.2-0.1-0.4-0.2-0.5-0.4c-0.1-0.1-0.1-0.1-0.2-0.2c0,0-0.5,0.3-1.4,0.9c-0.4,0.3-1,0.6-1.6,1c-0.5,0.3-1,0.7-1.6,1
		c-0.5,0.3-1,0.7-1.5,1s-1,0.7-1.6,1.1c-0.5,0.3-1,0.7-1.5,1.1s-1,0.7-1.6,1.1c-0.5,0.4-1.1,0.8-1.6,1.2c-0.6,0.4-1.1,0.8-1.6,1.3
		c-0.6,0.5-1.2,0.9-1.7,1.4c-0.7,0.6-1.3,1.1-1.9,1.7c-0.9,0.8-1.7,1.7-2.4,2.4c-0.6,0.7-1.1,1.4-1.5,2s-0.6,1.2-0.8,1.7
		c-0.1,0.3-0.1,0.6-0.1,0.8c0,0.3,0.1,0.6,0.2,0.8c0.1,0.1,0.2,0.3,0.3,0.4c-0.8,0.7-1.5,1.5-2.2,2.3c-0.1,0-0.2,0-0.2,0
		c-0.3,0-0.8-0.1-1.3-0.2h-0.1c-0.5,0.5-0.9,0.9-1.4,1.4c-1.5,1.4-3,2.6-4.6,3.6c1.5-1,2.9-2.1,4.2-3.4c0.5-0.5,1-0.9,1.4-1.4
		c-0.4,0-0.8-0.1-1.3-0.1c0.1-0.1,0.2-0.2,0.3-0.3c0,0,0,0-0.1,0c-0.4,0-0.9-0.1-1.3-0.1c-0.1,0-0.2,0-0.2,0c-0.4,0-0.8-0.1-1.1-0.1
		c-0.1,0-0.3,0-0.4,0c-0.3,0-0.6,0-1-0.1c-0.2,0-0.4,0-0.6,0c-0.3,0-0.5,0-0.8,0s-0.6,0-0.9,0c-0.2,0-0.4,0-0.6,0
		c-0.4,0-0.7,0-1.1,0c-0.2,0-0.3,0-0.5,0c-0.4,0-0.8,0-1.2,0c-0.2,0-0.3,0-0.4,0c-0.4,0-0.9,0-1.3,0c-0.2,0-0.4,0-0.6,0
		c-0.4,0-0.8,0.1-1.2,0.1c-0.5,0.1-1.1,0.1-1.6,0.2c-0.1,0-0.3,0-0.4,0.1c-0.8,0.2-1.6,0.4-2.3,0.7c-0.2,0.1-0.3,0.1-0.4,0.2
		c-0.3,0.2-0.6,0.4-0.9,0.6c0,0-0.4,0-1,0.1c-0.5,0-1.1,0.1-1.8,0.1c-0.5,0-1.1,0.1-1.8,0.1c-0.6,0-1.2,0.1-1.8,0.1
		c-0.6,0-1.2,0-1.8,0.1c-0.6,0-1.2,0-1.8,0.1c-0.3,0-0.6,0-0.8,0c-0.3,0-0.6,0-1,0c-0.6,0-1.2,0-1.8,0c-0.1,0-0.3,0-0.4,0
		c-0.5,0-1,0-1.4,0s-0.8,0-1.1,0c-0.2,0-0.5,0-0.7,0c-0.6,0-1.1,0-1.6,0c-0.1,0-0.1,0-0.2,0c-0.6,0-1.2-0.1-1.7-0.1
		c-0.1,0-0.2,0-0.3,0c-0.6-0.1-1-0.1-1.4-0.2c-0.3-0.1-0.5-0.2-0.5-0.3c0,0-0.3-0.2-0.8-0.4c-0.3-0.2-0.8-0.4-1.3-0.5
		c-0.1,0-0.1-0.1-0.2-0.1c-0.5-0.2-1-0.3-1.6-0.5c-0.2,0-0.4-0.1-0.6-0.1c-0.4-0.1-0.8-0.1-1.2-0.2c-0.2,0-0.3,0-0.5,0
		c-0.5,0-0.9,0-1.4,0.1h-0.1c-0.4,0.1-0.7,0.2-1,0.3c-0.4,0.1-0.7,0.3-1,0.5c-0.2,0.2-0.5,0.3-0.7,0.5c-0.1,0.1-0.1,0.1-0.2,0.2
		c-0.3,0.3-0.5,0.6-0.8,0.9l0,0c0,0,0,0.1,0.1,0.3c0.1,0.1,0.4,0.3,0.8,0.5c0.2,0.1,0.4,0.2,0.7,0.3c0.4,0.1,1,0.3,1.6,0.4h0.1
		c0.5,0.1,1,0.2,1.6,0.2c0.1,0,0.3,0,0.4,0c0.4,0,0.9,0.1,1.3,0.1c0.2,0,0.4,0,0.6,0c0.4,0,0.7,0,1.1,0c0.3,0,0.5,0,0.8,0s0.6,0,1,0
		c0.2,0,0.5,0,0.7,0h0.3h0.8h1.3h0.5h1.7l0,0h1.8h0.8h0.9h1.8h0.6h1.1h1.7h1.7h1.7h1.7h1.7h1.7h1.7h1h0.6h1.6h1h0.7h1.6h0.3h1.3h0.9
		h0.7h1.4h0.2h1.6c-0.1,0.1-0.1,0.1-0.2,0.2c0.3-0.2,0.7-0.4,1-0.7c-0.5,0.3-0.9,0.6-1.4,0.9c-0.1,0.2-0.3,0.3-0.4,0.5
		c-0.5,0.2-1.1,0.4-1.6,0.7c-1.1,0.6-2.2,1.1-3.3,1.6c0,0-0.1,0-0.1,0.1l0,0c-4.5,1.8-9.3,2.7-14.1,2.6c-0.3,0.2-0.7,0.4-1,0.6
		c-0.1,0-0.2,0.1-0.2,0.1l0,0c-0.5,0.3-1,0.6-1.5,1c-0.2,0.1-0.4,0.2-0.5,0.3c-0.3,0.2-0.6,0.4-0.9,0.6c-0.5,0.3-0.9,0.6-1.4,1
		c-0.1,0.1-0.3,0.2-0.4,0.3c-0.3,0.2-0.6,0.4-0.9,0.7c-0.4,0.3-0.9,0.7-1.3,1c-0.2,0.2-0.5,0.4-0.7,0.6s-0.4,0.3-0.6,0.5
		c-0.4,0.4-0.8,0.7-1.2,1.1c-0.4,0.4-0.8,0.7-1.1,1.1c-0.1,0.1-0.2,0.2-0.3,0.3c-0.3,0.3-0.5,0.6-0.8,0.9c-0.3,0.4-0.7,0.8-1,1.2
		c0,0.1-0.1,0.1-0.1,0.2c0,0-0.5,0.4-1.2,1c-0.1,0-0.1,0.1-0.2,0.1c-0.4,0.3-0.9,0.6-1.4,1c-0.3,0.2-0.6,0.4-0.9,0.5
		c-0.3,0.2-0.6,0.3-0.9,0.5c-0.4,0.2-0.7,0.3-1.1,0.5s-0.8,0.3-1.3,0.3c-0.2,0-0.4,0.1-0.6,0.1c-0.6,0.1-1.1,0-1.6-0.1
		c-0.1,0-0.2,0-0.3-0.1l0.1,0.7v0.2l0.3,2.1l0.1,0.6l0.2,1.6v0.2c0,0-0.5,0.5-1.2,1.3c-0.1,0.1-0.2,0.2-0.3,0.3
		c-0.3,0.3-0.7,0.7-1.1,1.2s-0.9,1-1.4,1.6c-0.1,0.1-0.1,0.1-0.2,0.2c-0.4,0.5-0.8,0.9-1.2,1.4c-0.4,0.5-0.9,1.1-1.4,1.7l-0.1,0.1
		c-0.2,0.7-0.4,1.3-0.6,2c-0.2,0.5-0.3,1.1-0.5,1.6l-1,0.2l-0.7,0.1c-0.3,0.5-0.7,1.1-1,1.6c-0.4,0.7-0.8,1.4-1.1,2.1
		c-0.4,0.8-0.6,1.6-0.8,2.3c-0.2,0.9-0.4,1.7-0.3,2.4l-0.1,0.2l-0.9,2.4l-0.1,0.2l-1.1,1.9l-0.6-1.3l-0.4-1c0,0-0.4,0.8-0.6,1.8
		c-0.2,0.9-0.2,1.9,0.4,2.9c0.1,0.2,0.3,0.4,0.4,0.6l0,0l0,0l0,0c0.2,0.3,0.5,0.5,0.9,0.8s0.9,0.5,1.5,0.7l0,0l0.5,0.3
		c-0.2,0.8-0.3,1.6-0.4,2.4c-0.1,1-0.2,2.1-0.2,3.1c0,1.1,0,2.2,0.2,3.4c0.1,0.5,0.1,1,0.2,1.4s0.1,0.7,0.2,1.1c0,0,0.1,0.4,0.3,1.1
		c0.2,0.5,0.4,1.2,0.7,2c0.2,0.6,0.4,1.3,0.7,2c0.2,0.5,0.4,1.1,0.6,1.7c0.3,0.8,0.6,1.6,1,2.4c0.1,0.3,0.3,0.6,0.4,1
		c0.5,1,0.9,2,1.5,3c0,0.1,0.1,0.1,0.1,0.2c0.4,0.8,0.9,1.6,1.4,2.4c0.5,0.7,0.9,1.4,1.4,2c0,0,0,0.1,0.1,0.1c0.5,0.6,1,1.1,1.5,1.6
		c0.3,0.3,0.7,0.5,1,0.7c0.1,0.3,0.3,0.6,0.5,0.8c0.3,0.5,0.8,1,1.3,1.5c0.1,0.1,0.2,0.2,0.3,0.3c0.5,0.4,1,0.9,1.5,1.3
		s1,0.7,1.5,1.1c0.5,0.3,1,0.7,1.5,1s1,0.6,1.5,0.9c0.3,0.2,0.5,0.3,0.8,0.5c0.2,0.1,0.4,0.2,0.6,0.4c0.5,0.3,0.9,0.5,1.4,0.8
		c0.5,0.2,1,0.5,1.4,0.7c0.5,0.2,0.9,0.5,1.4,0.7s0.9,0.4,1.4,0.6s0.9,0.4,1.4,0.6s1,0.4,1.4,0.6c0.7,0.3,1.1,0.5,1.3,0.5l0,0
		c0.1,0,0.1,0,0.1,0c0.4,0.1,0.8,0.2,1.2,0.3c0.4,0.1,0.9,0.2,1.3,0.3c0.4,0.1,0.8,0.2,1.3,0.2c0.4,0.1,0.8,0.1,1.2,0.2
		c0.4,0,0.8,0.1,1.2,0.1c0.4,0,0.8,0,1.2,0c0.4,0,0.8,0,1.2,0c0.4,0,0.8,0,1.2-0.1c0.4,0,0.8-0.1,1.1-0.1c0.4,0,0.7-0.1,1.1-0.2
		c0.2,0.8,0.3,1.7,0.5,2.5c0.2,0.3,0.4,0.5,0.6,0.7c0.3,0.2,0.5,0.4,0.8,0.6c0.4,0.2,0.8,0.3,1.2,0.4c0.4,0.1,0.8,0.1,1.1,0
		c0.4,0,0.8-0.1,1.1-0.2c0.6-0.1,1-0.3,1-0.3l-1.2-0.6v-0.1c-0.1-0.3-0.1-0.5-0.2-0.8l1-0.5l1-0.5l1-0.5l0.3-0.2
		c0.2,0.1,0.5,0.1,0.7,0.1c0.3,0,0.7,0,1.1,0c0.3,0,0.7,0,1-0.1c0.3,0,0.7-0.1,1-0.2s0.6-0.2,1-0.3c0.3-0.1,0.6-0.2,0.9-0.3
		c0.3-0.1,0.6-0.2,0.9-0.4c0.3-0.1,0.6-0.3,0.9-0.4s0.6-0.3,0.9-0.4s0.6-0.3,0.9-0.4s0.6-0.3,0.9-0.5s0.6-0.3,0.8-0.5
		c0.3-0.2,0.6-0.3,0.8-0.5l0,0c0.3-0.2,0.5-0.3,0.8-0.5s0.5-0.3,0.8-0.5s0.5-0.4,0.8-0.5c0.3-0.2,0.5-0.4,0.8-0.5
		c0.3-0.2,0.5-0.4,0.8-0.5c0.3-0.2,0.5-0.4,0.8-0.6s0.5-0.4,0.8-0.6s0.5-0.4,0.8-0.6s0.5-0.4,0.7-0.6c0.3-0.2,0.5-0.4,0.7-0.6
		s0.4-0.3,0.6-0.5l0.1-0.1c0.3-0.2,0.5-0.4,0.7-0.6c0.4-0.3,0.6-0.5,0.7-0.6s0.1-0.1,0.1-0.1l0.7,0.2l0.8,0.2h0.2l0.6,0.1l0.8,0.2
		l0.8,0.2l0.8,0.2l0.5,0.1c-0.2-0.6-0.2-1.3,0-2c0,0,0,0,0-0.1c0.1-0.5,0.3-1.1,0.5-1.6c0.2-0.4,0.4-0.8,0.6-1.2
		c0.2-0.4,0.4-0.7,0.6-1s0.4-0.6,0.7-0.9c0.1-0.1,0.1-0.1,0.2-0.2c0.2-0.2,0.3-0.4,0.5-0.6c0.2-0.3,0.5-0.5,0.7-0.7
		c0.3-0.3,0.5-0.6,0.7-0.7c0.1-0.1,0.1-0.1,0.1-0.1c0.2-0.1,0.4-0.2,0.5-0.3c0.2-0.1,0.4-0.3,0.7-0.4c0.2-0.2,0.4-0.3,0.7-0.5
		c0.2-0.2,0.4-0.3,0.7-0.5c0.2-0.2,0.4-0.4,0.6-0.5c0.2-0.2,0.4-0.4,0.7-0.6c0.2-0.2,0.4-0.4,0.7-0.6c0.2-0.2,0.4-0.4,0.7-0.6
		c0.2-0.2,0.4-0.4,0.6-0.7c0.2-0.2,0.4-0.4,0.5-0.6l0.1-0.1c0.2-0.2,0.4-0.5,0.7-0.7c0.2-0.2,0.4-0.5,0.7-0.8
		c0.2-0.3,0.4-0.5,0.7-0.8c0.2-0.3,0.4-0.5,0.7-0.8c0.2-0.3,0.5-0.6,0.7-0.9s0.5-0.6,0.7-0.9s0.5-0.6,0.7-0.9c0.3-0.3,0.5-0.7,0.8-1
		c0-0.1,0.1-0.1,0.1-0.2c0.2-0.3,0.4-0.6,0.6-0.8c0.3-0.4,0.5-0.8,0.8-1.1c0.3-0.4,0.6-0.8,0.8-1.2c0.3-0.5,0.6-0.9,0.9-1.4
		s0.7-1,1-1.5c0.2-0.3,0.4-0.7,0.6-1s0.3-0.5,0.5-0.8c0.6-1,1.1-1.8,1.4-2.3s0.5-0.9,0.5-0.9l-0.1,1.3l-0.1,1.1l-0.1,0.8l-0.2,2.2
		l-0.1,1.3l-0.1,1.4l-0.2,3.1l-0.1,1.1l-0.2,3.4l-0.3,4.6L423,453l-0.3,3.7v0.4l-0.1,2c0,0.3,0,0.5-0.1,0.7c0,0.6-0.1,1.1-0.1,1.6
		c0,0.2,0,0.4,0,0.6c0,0.8-0.1,1.6-0.1,2.3c0,0.7,0,1.3,0.1,1.8c0,0.3,0,0.5,0.1,0.8c0.2,2.3,0.7,3,1,3.2c0.1,0.1,0.2,0.1,0.2,0.1
		c0.1-0.1,0.2-0.1,0.3-0.2c0.2-0.1,0.3-0.2,0.5-0.3c0.2-0.1,0.3-0.2,0.4-0.4c0.1-0.1,0.3-0.3,0.4-0.4c0.1-0.2,0.3-0.3,0.4-0.5
		s0.3-0.4,0.4-0.5c0.1-0.2,0.2-0.4,0.3-0.7c0.1-0.3,0.2-0.6,0.3-0.8c0.1-0.4,0.2-0.8,0.2-1.2c0-0.5,0-1,0-1.4
		c-0.1-1.7-0.7-3.3-1-4.1c-0.1-0.2-0.2-0.4-0.2-0.5c-0.2-1.3-0.3-2.5-0.4-3.8c0-0.2,0-0.5-0.1-0.7c0.1-1.2,0.2-2.5,0.3-3.9
		c0.1-1.5,0.3-3.2,0.5-4.7c0.2-1.7,0.4-3.3,0.6-4.7c0.1-0.5,0.1-0.9,0.2-1.3c0.2-1.5,0.3-2.6,0.4-3.3c0-0.1,0-0.1,0.1-0.2
		c0.1-0.2,0.1-0.4,0.2-0.5c0.9-1.1,1.6-2.8,2-4.9c0-0.2,0.1-0.4,0.1-0.6c0.1-0.4,0.1-0.8,0.2-1.2c0.1-0.5,0.1-0.9,0.2-1.4
		c0-0.4,0.1-0.9,0.1-1.3c0-0.3,0-0.6,0.1-0.9c0-0.1,0-0.2,0-0.2c0-0.4,0-0.7,0.1-1.1c0-0.3,0-0.7,0-1s0-0.7,0-1s0-0.7,0-1v-0.1
		c0-0.3,0-0.6,0-0.9s0-0.6,0-0.9s0-0.6,0-0.9s0-0.6,0-0.9c0-0.2,0-0.4,0-0.6c0-0.1,0-0.2,0-0.2c0-0.3,0-0.6,0-0.8c0-0.3,0-0.6,0-0.8
		c0-0.3,0-0.6,0-0.8c0.7-0.8,1.4-1.6,2.1-2.4c0.1,0.2,0.2,0.3,0.4,0.5c0.1,0.1,0.3,0.3,0.5,0.3c0.2,0.1,0.4,0.2,0.6,0.2s0.5,0,0.7,0
		h0.1c0.4-0.1,0.7-0.2,1.1-0.3c0.6-0.3,1.4-0.7,2.1-1.2c1.1-0.8,2.2-1.7,3.4-2.9c0.8-0.7,1.6-1.6,2.4-2.4c0.5-0.5,1-1.1,1.5-1.6
		c0.4-0.5,0.8-0.9,1.2-1.4c0.1-0.1,0.2-0.2,0.3-0.4c0.3-0.3,0.5-0.6,0.8-0.9c0.3-0.4,0.6-0.8,1-1.1c0.3-0.4,0.6-0.8,0.9-1.1
		c0.3-0.3,0.6-0.7,0.8-1c0.3-0.3,0.5-0.7,0.8-1s0.5-0.7,0.8-1s0.5-0.6,0.7-0.9c0.3-0.3,0.5-0.6,0.7-0.9s0.5-0.6,0.7-0.9
		c0.3-0.3,0.5-0.6,0.7-0.9c0.4-0.5,0.6-0.9,0.6-0.9l0,0c-0.2-0.2-0.3-0.4-0.4-0.5c-0.1-0.2-0.2-0.4-0.2-0.6s0-0.5,0-0.7
		c0-0.3,0.1-0.5,0.2-0.8s0.2-0.5,0.4-0.8c0.2-0.3,0.4-0.6,0.6-0.9s0.5-0.6,0.8-0.9c0.3-0.4,0.7-0.7,1-1c0.5-0.5,0.9-0.8,1.2-1
		c0.1-0.1,0.1-0.1,0.1-0.1h-2.2h-0.2h-2.4h-0.3c0-0.2,0.1-0.5,0.2-0.7c0.2-0.3,0.4-0.6,0.7-0.9c0.5-0.5,1-0.9,1.7-1.2
		c0.7-0.4,1.4-0.7,2-0.9c1-0.3,1.7-0.5,1.7-0.5c0.2,0.1,0.5,0.2,0.8,0.4c0.3,0.1,0.6,0.2,0.9,0.3c0.2,0.1,0.5,0.1,0.7,0.1
		c0.9,0.1,1.8,0.1,2.8,0c1.2-0.1,2.5-0.4,3.7-0.8c0.1,0,0.2-0.1,0.3-0.1c0.7-0.2,1.4-0.5,2-0.8s1.2-0.5,1.7-0.8
		c0.2-0.1,0.5-0.2,0.7-0.3c0.3-0.2,0.6-0.3,0.8-0.4C474.7,378.6,474.8,378.6,474.8,378.6z M425.4,430.7l-0.1,1.5
		c0,0.1-0.1,0.2-0.1,0.3l-0.3-0.6l-0.3-0.5v-0.1l-0.3-0.6l-0.3-0.6l-0.3-0.6l-0.3-0.6c0.1-0.2,0.2-0.5,0.3-0.7
		c0.7-1.5,1.5-3,2.4-4.5L426,425l-0.1,1.4v0.2l-0.1,1.2l-0.1,1.5l-0.1,1.5L425.4,430.7z"/>
	
		<pattern  id="SVGID_5_" xlink:href="#譁ｰ隕上ヱ繧ｿ繝ｼ繝ｳ繧ｹ繧ｦ繧ｩ繝メ_5" patternTransform="matrix(-0.3353 -0.4346 0.4346 -0.3353 -20678.043 -5150.9648)">
	</pattern>
	<path class="st6" d="M377.2,375.1c-1,0.6-2.1,1.1-3.2,1.5c0,0,0,0-0.1,0.1c-4.5,1.8-9.3,2.7-14.1,2.6c0.6-0.3,1.1-0.7,1.7-1h0.1
		c4.1-0.1,8.1-0.9,11.9-2.5l0.8,0.5c-0.1,0.1-0.2,0.3-0.3,0.4c0.8-0.4,1.6-0.8,2.3-1.1C376.7,375.4,377,375.2,377.2,375.1z"/>
	
		<pattern  id="SVGID_6_" xlink:href="#譁ｰ隕上ヱ繧ｿ繝ｼ繝ｳ繧ｹ繧ｦ繧ｩ繝メ_5" patternTransform="matrix(-0.3353 -0.4346 0.4346 -0.3353 -20676.043 -5149.4648)">
	</pattern>
	<path class="st7" d="M363.8,377c0.2-0.1,0.4-0.2,0.6-0.3c0.6-0.4,1.2-0.7,1.8-1c0.3-0.2,0.6-0.3,0.8-0.4c1.1-0.6,2-1,2.6-1.3l0,0
		c0.6-0.3,0.9-0.4,0.9-0.4l0.1,0.1l0.6,0.4l0.4,0.3l0.7,0.4l0.4,0.2l0.7,0.5l0.3,0.2c-3.8,1.6-7.9,2.4-11.9,2.5
		C362.5,377.7,363.2,377.3,363.8,377z"/>
</g>
<g>
	
		<pattern  id="SVGID_7_" xlink:href="#譁ｰ隕上ヱ繧ｿ繝ｼ繝ｳ繧ｹ繧ｦ繧ｩ繝メ_5" patternTransform="matrix(-0.3123 8.149185e-02 -8.149185e-02 -0.3123 -20241.2012 -4624.2476)">
	</pattern>
	<path class="st8" d="M475.6,248v0.2c0,0.1-0.1,0.2-0.1,0.3c-0.1,0.3-0.2,0.6-0.4,0.9l-0.3-0.3l-0.2-0.2c0.1,0.1,0.1,0.3,0.1,0.5
		c0,0.3,0,0.7-0.1,1.1c0,0.2-0.1,0.4-0.1,0.7c-0.1,0.5-0.2,1.1-0.3,1.6c-0.2,1.1-0.5,2-0.5,2l-0.1,0.1c-0.1,0.1-0.2,0.2-0.3,0.3
		c-0.3,0.3-0.5,0.5-0.6,0.8c-0.1,0.2-0.2,0.3-0.2,0.5c-0.3,0.8-0.4,1.5-0.3,2.3v0.1c0.1,0.4,0.2,0.8,0.3,1.2
		c0.1,0.3,0.2,0.6,0.3,0.8c0.2,0.3,0.3,0.6,0.4,0.7c0,0.1,0.1,0.1,0.1,0.1s0.1,0.2,0.3,0.4c0.1,0.1,0.2,0.3,0.4,0.5
		c0.1,0.2,0.3,0.3,0.4,0.5s0.3,0.3,0.4,0.5s0.3,0.3,0.4,0.5s0.3,0.3,0.4,0.5s0.3,0.3,0.4,0.5s0.3,0.4,0.4,0.5
		c0.1,0.2,0.3,0.4,0.4,0.5c0.1,0.2,0.3,0.4,0.4,0.5c0.1,0.2,0.3,0.4,0.4,0.6s0.3,0.4,0.4,0.6s0.3,0.4,0.4,0.6
		c0.2,0.2,0.3,0.4,0.5,0.7c0.2,0.2,0.3,0.5,0.5,0.7c0.2,0.3,0.3,0.6,0.5,0.8c0,0.2,0.1,0.4,0.1,0.6s0.1,0.3,0.1,0.5
		c-0.1-0.1-0.3-0.2-0.4-0.3c-0.1-0.1-0.3-0.2-0.4-0.3c-0.1-0.1-0.3-0.2-0.4-0.3c-0.1-0.1-0.3-0.2-0.4-0.3c-0.1-0.1-0.3-0.2-0.4-0.2
		c-0.1-0.1-0.3-0.2-0.4-0.2c-0.1-0.1-0.3-0.2-0.4-0.2c0,0-0.1,0-0.1-0.1c-0.1-0.1-0.2-0.1-0.3-0.2c-0.1-0.1-0.3-0.2-0.4-0.2
		c-0.1-0.1-0.3-0.2-0.4-0.2c-0.2-0.1-0.3-0.1-0.4-0.2c-0.2-0.1-0.3-0.1-0.4-0.2s-0.3-0.1-0.4-0.2c-0.2-0.1-0.3-0.1-0.4-0.2
		c-0.2-0.1-0.3-0.1-0.4-0.2l0,0c-0.2-0.1-0.3-0.1-0.3-0.1c0-0.2-0.1-0.3-0.1-0.5c0,0,0,0,0-0.1c-0.1-0.3-0.3-0.5-0.5-0.8
		c-0.1-0.2-0.3-0.4-0.4-0.5c-0.1-0.2-0.3-0.3-0.4-0.5c-0.1-0.1-0.3-0.3-0.5-0.4c-0.1-0.1-0.2-0.2-0.3-0.2c-0.1-0.1-0.1-0.1-0.2-0.2
		c-0.2-0.1-0.3-0.2-0.4-0.4c-0.2-0.1-0.3-0.2-0.4-0.3c-0.2-0.1-0.3-0.2-0.5-0.3c-0.2-0.1-0.3-0.2-0.5-0.3c-0.2-0.2-0.4-0.3-0.5-0.3
		l0,0c-0.1-0.4-0.2-0.8-0.4-1.1c0,0,0,0,0-0.1c-0.1-0.2-0.3-0.5-0.4-0.6c-0.1-0.2-0.3-0.3-0.5-0.4c-0.1-0.1-0.3-0.2-0.5-0.3
		c-0.1-0.1-0.2-0.1-0.3-0.1c0,0-0.1,0-0.1-0.1c-0.2-0.1-0.3-0.1-0.5-0.1s-0.3-0.1-0.5-0.1s-0.3,0-0.5,0s-0.3,0-0.5,0s-0.4,0-0.5,0
		h-0.1c-0.1,0-0.3,0-0.4,0.1c-0.2,0-0.4,0.1-0.5,0.1c-0.2,0-0.4,0.1-0.6,0.1s-0.4,0.1-0.6,0.1l0,0c-0.2,0.1-0.4,0.1-0.6,0.2
		s-0.4,0.1-0.6,0.2s-0.4,0.1-0.6,0.2c0,0,0,0-0.1,0c-0.2,0.1-0.4,0.2-0.5,0.2c-0.1,0.1-0.2,0.1-0.2,0.1s-0.1,0-0.4,0.1
		c-0.2,0-0.4,0.1-0.6,0.2l0,0c-0.2,0.1-0.4,0.1-0.6,0.2s-0.4,0.2-0.6,0.2c-0.1,0.1-0.3,0.1-0.5,0.2c-0.1,0-0.1,0-0.2,0.1
		c-0.2,0.1-0.4,0.2-0.6,0.3c-0.2,0.1-0.4,0.2-0.6,0.3l0,0c-0.2,0.1-0.4,0.2-0.6,0.4c-0.2,0.2-0.4,0.3-0.6,0.5l0,0
		c-0.2,0.2-0.4,0.4-0.6,0.6c-0.1,0.1-0.2,0.2-0.3,0.4c-0.1,0.2-0.3,0.4-0.3,0.6c-0.1,0.2-0.2,0.4-0.2,0.6c-0.1,0.5-0.1,0.9,0,1.5
		c0.1,0.3,0.2,0.5,0.3,0.8c0,0.2,0,0.4,0,0.6c0,0.1,0,0.1-0.1,0.2c-0.1,0.3-0.2,0.7-0.3,1.2c0,0.1-0.1,0.2-0.1,0.3
		c-0.1,0.3-0.1,0.6-0.2,0.8c-0.1,0.4-0.1,0.8-0.2,1.2c0,0.1,0,0.2,0,0.3c0,0.4,0,0.7,0,1.1c0,0.5,0.1,0.9,0.3,1.2c0,0,0,0.1-0.1,0.3
		c-0.1,0.2-0.2,0.4-0.3,0.7c0,0.1-0.1,0.1-0.1,0.2c-0.1,0.2-0.2,0.5-0.4,0.8v0.1c-0.1,0.3-0.3,0.6-0.4,0.9l0,0
		c-0.1,0.3-0.2,0.6-0.3,0.8c0,0.1-0.1,0.2-0.1,0.3c-0.1,0.2-0.2,0.4-0.2,0.6c-0.1,0.2-0.1,0.3-0.2,0.5c0,0.1-0.1,0.2-0.1,0.4
		c-0.1,0.3-0.2,0.6-0.3,0.9c-0.1-0.5-0.2-0.9-0.3-1.4c-0.1-0.5-0.2-0.9-0.3-1.4c-0.1-0.4-0.2-0.9-0.3-1.3c-0.1-0.3-0.1-0.6-0.2-0.9
		c0-0.1,0-0.2,0-0.3c0-0.4,0-0.8-0.1-1.2c0-0.4,0-0.8,0-1.2c0-0.4,0-0.8,0-1.2c0-0.5,0-0.9,0-1.2c0-0.7,0-1.2,0-1.2l0,0
		c0-0.1-0.1-0.7-0.3-1.4c-0.1-0.4-0.3-0.8-0.5-1.2c-0.1-0.2-0.2-0.3-0.3-0.5c-0.1-0.2-0.3-0.4-0.4-0.6c-0.2-0.2-0.4-0.5-0.7-0.6
		c-0.2-0.1-0.5-0.3-0.7-0.4s-0.5-0.2-0.7-0.2s-0.5-0.1-0.7-0.1c-0.1,0-0.2,0-0.3,0c0,0-0.2-0.1-0.5-0.4c-0.2-0.2-0.5-0.4-0.7-0.6
		c-0.2-0.1-0.4-0.3-0.6-0.5c-0.1,0-0.1-0.1-0.2-0.1c-0.2-0.2-0.5-0.4-0.7-0.6c-0.3-0.2-0.5-0.5-0.7-0.7c-0.1-0.1-0.2-0.2-0.4-0.4
		c-0.1-0.2-0.3-0.3-0.4-0.4c-0.2-0.2-0.3-0.4-0.3-0.5l-0.1,0.8l-0.1,0.7l-0.3-0.4l-0.3-0.4l-0.4-0.5l-0.1-0.1c0,0,0,0.1,0.1,0.2
		s0.2,0.3,0.3,0.5c0.1,0.2,0.3,0.4,0.4,0.6c0.2,0.3,0.4,0.5,0.7,0.8l0.1,0.1c0.2,0.3,0.5,0.5,0.8,0.8c0.2,0.2,0.5,0.5,0.7,0.7l0,0
		c0.2,0.2,0.5,0.4,0.8,0.6c0.2,0.2,0.5,0.3,0.7,0.4s0.5,0.2,0.7,0.3c0.2,0.1,0.5,0.2,0.7,0.2c0,0.2,0,0.4,0,0.6c0,0.4,0,0.8,0,1.2
		c0,0.4,0,0.8,0.1,1.2c0,0.4,0.1,0.8,0.1,1.2c0,0.4,0.1,0.8,0.1,1.1c0,0.4,0.1,0.8,0.1,1.1c0,0.2,0.1,0.5,0.1,0.7
		c-0.1,0.1-0.2,0.1-0.3,0.2c0,0-0.1,0-0.1,0.1c0,0,0.1,0.4,0.2,1c0,0.3,0.1,0.7,0.2,1.1c0.1,0.3,0.1,0.7,0.2,1.1
		c0.1,0.3,0.1,0.7,0.2,1.1s0.1,0.7,0.2,1.1s0.1,0.7,0.2,1.1s0.2,0.7,0.3,1.1c0.1,0.4,0.2,0.8,0.3,1.1c0.1,0.4,0.2,0.8,0.3,1.2
		c0.1,0.4,0.2,0.8,0.4,1.3c0.1,0.5,0.3,1,0.5,1.4c0.2,0.7,0.5,1.3,0.8,1.9c0.2,0.5,0.5,0.9,0.7,1.3c0.2,0.3,0.5,0.6,0.7,0.8
		c0.1,0.1,0.3,0.2,0.4,0.2c0.2,0.1,0.3,0.1,0.5,0.1c0.1,0,0.2,0,0.3-0.1c0.2,0.6,0.5,1.2,0.7,1.7c0,0,0,0.1-0.1,0.1
		c-0.1,0.2-0.2,0.4-0.4,0.6c0,0,0,0,0,0.1c0.2,0.4,0.3,0.7,0.4,1.1c0.4,1.1,0.7,2.2,0.9,3.3c-0.2-1-0.5-2.1-0.8-3.1
		c-0.1-0.4-0.3-0.7-0.4-1.1c-0.1,0.2-0.2,0.4-0.4,0.7c0-0.1-0.1-0.1-0.1-0.2l0,0c-0.1,0.2-0.2,0.4-0.4,0.7c0,0,0,0.1-0.1,0.1
		c-0.1,0.2-0.2,0.4-0.3,0.6c0,0.1-0.1,0.1-0.1,0.2c-0.1,0.2-0.2,0.3-0.3,0.5c-0.1,0.1-0.1,0.2-0.2,0.3c-0.1,0.1-0.1,0.3-0.2,0.4
		c-0.1,0.2-0.1,0.3-0.2,0.5c-0.1,0.1-0.1,0.2-0.1,0.3c-0.1,0.2-0.2,0.4-0.3,0.6c0,0.1-0.1,0.2-0.1,0.3c-0.1,0.2-0.2,0.4-0.3,0.7
		c0,0.1-0.1,0.2-0.1,0.2c-0.1,0.2-0.2,0.5-0.3,0.7c0,0.1-0.1,0.2-0.1,0.3c-0.1,0.2-0.2,0.5-0.2,0.7c-0.1,0.3-0.2,0.6-0.2,0.9
		c0,0.1,0,0.2-0.1,0.2c-0.1,0.5-0.2,1-0.1,1.4c0,0.1,0,0.2,0,0.3c0,0.2,0.1,0.4,0.1,0.6c0,0-0.1,0.2-0.2,0.6c-0.1,0.3-0.2,0.6-0.4,1
		c-0.1,0.3-0.2,0.6-0.4,1c-0.1,0.3-0.2,0.6-0.4,1c-0.1,0.3-0.2,0.6-0.4,1c-0.1,0.3-0.3,0.7-0.4,1c-0.1,0.2-0.1,0.3-0.2,0.5
		s-0.1,0.4-0.2,0.5c-0.1,0.3-0.3,0.7-0.4,1c0,0.1-0.1,0.1-0.1,0.2c-0.1,0.3-0.2,0.5-0.3,0.8c-0.1,0.2-0.2,0.4-0.3,0.6
		c-0.1,0.1-0.1,0.2-0.2,0.4c-0.1,0.3-0.3,0.6-0.4,0.9v0.1c-0.2,0.3-0.3,0.7-0.5,0.9c0,0.1-0.1,0.1-0.1,0.2c-0.2,0.3-0.3,0.5-0.4,0.7
		c-0.1,0.1-0.2,0.2-0.3,0.2c0,0-0.2,0.1-0.4,0.4c-0.2,0.1-0.4,0.3-0.6,0.6l-0.1,0.1c-0.2,0.2-0.4,0.5-0.6,0.7
		c-0.1,0.1-0.1,0.2-0.2,0.3c-0.1,0.2-0.2,0.4-0.4,0.6c0,0.1-0.1,0.2-0.1,0.3c-0.1,0.2-0.2,0.5-0.3,0.8v0.1c0,0.2-0.1,0.4-0.1,0.6
		s0,0.4,0.1,0.7c0,0.2,0.1,0.3,0.1,0.5c0,0,0,0.1,0.1,0.1c0.1,0.2,0.2,0.4,0.3,0.6l0,0c0,0,0.1,0,0.2,0s0.3-0.1,0.5-0.3
		c0.1-0.1,0.2-0.2,0.3-0.3c0.2-0.2,0.4-0.5,0.6-0.8l0,0c0.2-0.2,0.3-0.5,0.5-0.8c0-0.1,0.1-0.2,0.1-0.2c0.1-0.2,0.2-0.4,0.4-0.7
		c0.1-0.1,0.1-0.2,0.2-0.3c0.1-0.2,0.2-0.4,0.3-0.6c0.1-0.1,0.1-0.3,0.2-0.4c0.1-0.2,0.2-0.3,0.2-0.5c0.1-0.1,0.1-0.2,0.2-0.4
		l0.1-0.1l0.2-0.4l0.3-0.7l0.1-0.3l0.4-0.9l0,0l0.4-1l0.2-0.4l0.2-0.5l0.4-0.9l0.1-0.3l0.3-0.6l0.4-0.9l0.4-0.9l0.4-0.9l0.4-0.9
		l0.4-0.9l0.4-0.9l0.4-0.9l0.2-0.6l0.1-0.3l0.4-0.9l0.2-0.5l0.2-0.4l0.4-0.9l0.1-0.2l0.3-0.7l0.2-0.5l0.2-0.4l0.3-0.8l0.1-0.1
		l0.4-0.9c0,0,0,0.1,0.1,0.1c0-0.2-0.1-0.5-0.1-0.7c0.1,0.3,0.1,0.6,0.2,1c0.1,0.1,0.1,0.2,0.2,0.3c0,0.3,0,0.7,0,1
		c0.1,0.7,0.1,1.5,0.1,2.2v0.1l0,0c0,2.9-0.7,5.7-1.8,8.2c0,0.2,0.1,0.4,0.1,0.7c0,0.1,0,0.1,0,0.2l0,0c0.1,0.3,0.1,0.7,0.2,1.1
		c0,0.1,0,0.2,0.1,0.4c0,0.2,0.1,0.4,0.1,0.6c0.1,0.3,0.1,0.7,0.2,1c0,0.1,0,0.2,0.1,0.3c0.1,0.2,0.1,0.4,0.2,0.6
		c0.1,0.3,0.2,0.6,0.3,0.9c0,0.2,0.1,0.3,0.1,0.5c0,0.1,0.1,0.3,0.1,0.4c0.1,0.3,0.2,0.6,0.3,0.9c0.1,0.3,0.2,0.6,0.3,0.9
		c0,0.1,0.1,0.1,0.1,0.2c0.1,0.2,0.2,0.4,0.3,0.6c0.1,0.3,0.3,0.6,0.4,0.8c0,0,0,0.1,0.1,0.1c0,0,0.1,0.3,0.2,0.9v0.1
		c0.1,0.3,0.1,0.6,0.2,1c0,0.2,0.1,0.4,0.1,0.6s0,0.4,0,0.6s0,0.5,0,0.7c0,0.3-0.1,0.5-0.1,0.8c0,0.1,0,0.2-0.1,0.3
		c-0.1,0.3-0.2,0.6-0.4,0.8c0,0.1-0.1,0.1-0.1,0.2l0.4,0.1h0.1l1.2,0.3l0.3,0.1l0.9,0.2h0.1c0,0,0.1,0.4,0.4,1
		c0,0.1,0.1,0.2,0.1,0.3c0.1,0.3,0.2,0.5,0.4,0.8c0.2,0.3,0.3,0.7,0.5,1.1c0,0,0,0.1,0.1,0.1c0.2,0.3,0.3,0.6,0.5,1s0.4,0.7,0.6,1.1
		v0.1c0.3,0.3,0.6,0.5,0.9,0.8c0.3,0.2,0.5,0.4,0.8,0.6l-0.1,0.6l-0.1,0.4c0.2,0.3,0.4,0.6,0.7,0.9c0.3,0.4,0.6,0.7,0.9,1.1
		s0.7,0.7,1.1,1s0.8,0.6,1.2,0.7l0.1,0.1l1.1,1.1l0.1,0.1l0.8,1h-0.8h-0.6c0,0,0.3,0.4,0.8,0.8c0.4,0.3,1,0.5,1.6,0.5
		c0.1,0,0.3,0,0.4-0.1l0,0l0,0l0,0c0.2-0.1,0.4-0.2,0.6-0.3c0.2-0.2,0.5-0.4,0.7-0.6l0,0l0.3-0.2c0.4,0.3,0.8,0.5,1.2,0.8
		c0.5,0.3,1.1,0.6,1.6,0.8c0.6,0.3,1.2,0.5,1.9,0.7c0.3,0.1,0.6,0.2,0.8,0.2c0.2,0,0.4,0.1,0.6,0.1c0,0,0.3,0,0.7,0.1
		c0.3,0,0.7,0.1,1.2,0.1c0.4,0,0.8,0,1.2,0.1c0.3,0,0.7,0,1,0c0.5,0,1,0,1.5,0c0.2,0,0.4,0,0.6,0c0.7,0,1.3,0,2-0.1
		c0.1,0,0.1,0,0.1,0c0.6,0,1.1-0.1,1.6-0.2s1-0.2,1.4-0.3c0,0,0,0,0.1,0c0.4-0.1,0.8-0.3,1.2-0.4c0.2-0.1,0.4-0.2,0.6-0.4
		c0.2,0,0.4,0,0.6-0.1c0.3-0.1,0.7-0.2,1.1-0.3c0.1,0,0.1,0,0.2-0.1c0.3-0.1,0.7-0.3,1.1-0.5c0.3-0.2,0.6-0.4,0.9-0.5
		c0.3-0.2,0.6-0.4,0.9-0.6s0.5-0.4,0.8-0.6c0.1-0.1,0.3-0.2,0.4-0.3c0.1-0.1,0.2-0.2,0.3-0.3c0.2-0.2,0.5-0.4,0.7-0.6
		s0.5-0.4,0.7-0.6s0.5-0.4,0.7-0.6s0.5-0.4,0.7-0.6s0.4-0.4,0.6-0.6s0.4-0.4,0.6-0.6c0.3-0.3,0.5-0.5,0.6-0.6l0,0l0.1-0.1
		c0.2-0.2,0.3-0.4,0.5-0.6s0.3-0.4,0.5-0.6c0.1-0.2,0.3-0.4,0.4-0.6s0.3-0.4,0.4-0.6s0.2-0.4,0.3-0.6c0.1-0.2,0.2-0.4,0.3-0.6
		c0.1-0.2,0.2-0.4,0.3-0.6c0.1-0.2,0.2-0.4,0.2-0.6c0.1-0.2,0.1-0.4,0.2-0.6s0.1-0.4,0.2-0.6c0.5,0.1,1,0.2,1.5,0.3
		c0.2,0,0.4-0.1,0.5-0.2c0.2-0.1,0.3-0.2,0.5-0.3c0.2-0.2,0.4-0.4,0.5-0.6s0.2-0.4,0.3-0.6c0.1-0.2,0.1-0.4,0.2-0.6
		c0.1-0.3,0-0.6,0-0.6l-0.6,0.5c0,0,0,0-0.1,0c-0.2,0-0.3-0.1-0.5-0.1v-0.6v-0.6v-0.6v-0.2c0.1-0.1,0.2-0.2,0.2-0.4
		c0.1-0.2,0.2-0.4,0.3-0.6c0.1-0.2,0.1-0.4,0.2-0.6s0.1-0.4,0.1-0.6s0.1-0.4,0.1-0.6s0-0.4,0-0.6s0-0.4,0-0.6s0-0.4,0-0.6
		s0-0.4,0-0.6s0-0.4,0-0.6s0-0.4-0.1-0.6c0-0.2,0-0.4-0.1-0.6c0-0.2,0-0.4-0.1-0.6l0,0c0-0.2-0.1-0.4-0.1-0.6s-0.1-0.4-0.1-0.6
		s-0.1-0.4-0.1-0.6s-0.1-0.4-0.1-0.6s-0.1-0.4-0.1-0.6s-0.1-0.4-0.1-0.5c0-0.2-0.1-0.4-0.1-0.5c0-0.2-0.1-0.4-0.1-0.5
		c0-0.2-0.1-0.4-0.1-0.5c0-0.2-0.1-0.4-0.1-0.5c0-0.2-0.1-0.3-0.1-0.5c0,0,0,0,0-0.1c-0.1-0.2-0.1-0.4-0.2-0.5
		c-0.1-0.3-0.1-0.4-0.2-0.5v-0.1l0.3-0.3l0.3-0.4l0.1-0.1l0.2-0.3l0.3-0.4l0.3-0.4l0.3-0.4l0.2-0.2c-0.4,0-0.7-0.2-1.1-0.4l0,0
		c-0.3-0.2-0.5-0.4-0.7-0.7c-0.2-0.2-0.3-0.4-0.5-0.6c-0.1-0.2-0.3-0.4-0.4-0.6s-0.2-0.4-0.3-0.6c0,0,0-0.1-0.1-0.1
		c-0.1-0.1-0.1-0.3-0.2-0.4c-0.1-0.2-0.2-0.4-0.3-0.5c-0.1-0.2-0.2-0.4-0.2-0.5s0-0.1,0-0.1c0-0.1,0-0.2-0.1-0.4
		c0-0.2-0.1-0.3-0.1-0.5s-0.1-0.3-0.1-0.5s-0.1-0.3-0.1-0.5s-0.1-0.3-0.1-0.5c-0.1-0.2-0.1-0.3-0.2-0.5s-0.1-0.3-0.2-0.5
		s-0.1-0.3-0.2-0.5s-0.1-0.3-0.2-0.5c-0.1-0.1-0.1-0.3-0.2-0.4V299c-0.1-0.2-0.2-0.4-0.2-0.5c-0.1-0.2-0.2-0.4-0.3-0.5
		c-0.1-0.2-0.2-0.4-0.3-0.5c-0.1-0.2-0.2-0.4-0.3-0.5c-0.1-0.2-0.2-0.4-0.3-0.6c-0.1-0.2-0.2-0.4-0.3-0.6c-0.1-0.2-0.2-0.4-0.3-0.6
		c-0.1-0.2-0.2-0.4-0.4-0.6l-0.1-0.1c-0.1-0.2-0.2-0.3-0.3-0.5c-0.1-0.2-0.3-0.5-0.4-0.7c-0.2-0.2-0.3-0.5-0.5-0.7
		c-0.2-0.3-0.4-0.5-0.5-0.8c-0.2-0.3-0.4-0.6-0.6-0.9c-0.1-0.2-0.3-0.4-0.4-0.6s-0.2-0.3-0.3-0.4c-0.4-0.6-0.7-1-0.9-1.3
		c-0.2-0.3-0.4-0.5-0.4-0.5l0.7,0.4l0.6,0.3l0.4,0.2l1.2,0.6l0.7,0.4l0.7,0.4l1.6,0.8l0.6,0.3l1.8,0.9l2.4,1.2l0.5,0.2l2,1l0.2,0.1
		l1,0.5c0.1,0.1,0.3,0.1,0.4,0.2c0.3,0.2,0.6,0.3,0.9,0.4c0.1,0.1,0.2,0.1,0.3,0.2c0.4,0.2,0.8,0.4,1.2,0.5c0.4,0.2,0.7,0.3,1,0.4
		c0.2,0.1,0.3,0.1,0.4,0.1c1.3,0.4,1.8,0.3,2,0.2c0.1,0,0.1-0.1,0.1-0.1c0-0.1,0-0.1,0-0.2s0-0.2-0.1-0.3c0-0.1-0.1-0.2-0.1-0.3
		c0-0.1-0.1-0.2-0.1-0.3c-0.1-0.1-0.1-0.2-0.2-0.3c-0.1-0.1-0.1-0.2-0.2-0.3c-0.1-0.1-0.2-0.2-0.3-0.3c-0.1-0.1-0.3-0.2-0.4-0.3
		c-0.2-0.1-0.4-0.3-0.6-0.4c-0.3-0.1-0.5-0.2-0.8-0.3c-1-0.3-1.9-0.4-2.5-0.4c-0.1,0-0.2,0-0.3,0c-0.7-0.2-1.4-0.4-2.1-0.7
		c-0.1,0-0.3-0.1-0.4-0.1c-0.6-0.3-1.3-0.7-2.1-1c-0.8-0.4-1.6-0.9-2.5-1.3c-0.9-0.5-1.7-1-2.4-1.4c-0.2-0.1-0.5-0.3-0.7-0.4
		c-0.8-0.4-1.3-0.8-1.7-1l-0.1-0.1c-0.1-0.1-0.2-0.1-0.3-0.2c-0.4-0.7-1.2-1.5-2.2-2.2c-0.1-0.1-0.2-0.1-0.3-0.2
		c-0.2-0.1-0.4-0.3-0.6-0.4s-0.5-0.3-0.7-0.4s-0.4-0.2-0.7-0.4c-0.2-0.1-0.3-0.2-0.5-0.2c0,0-0.1,0-0.1-0.1
		c-0.2-0.1-0.4-0.2-0.6-0.3c-0.2-0.1-0.4-0.2-0.6-0.3c-0.2-0.1-0.4-0.2-0.5-0.2c-0.2-0.1-0.4-0.2-0.5-0.2l0,0
		c-0.2-0.1-0.3-0.1-0.5-0.2s-0.3-0.1-0.5-0.2s-0.3-0.1-0.5-0.2s-0.3-0.1-0.5-0.2c-0.1,0-0.2-0.1-0.4-0.1c0,0-0.1,0-0.1-0.1
		c-0.2-0.1-0.3-0.1-0.5-0.2s-0.3-0.1-0.5-0.2s-0.3-0.1-0.5-0.2c-0.3-0.6-0.5-1.1-0.8-1.7c0.1,0,0.2,0,0.3-0.1c0.1,0,0.2-0.1,0.3-0.2
		c0.1-0.1,0.2-0.2,0.2-0.3c0.1-0.1,0.1-0.2,0.2-0.4c0,0,0,0,0-0.1c0.1-0.2,0.1-0.4,0.1-0.7c0-0.4-0.1-0.9-0.2-1.4
		c-0.2-0.8-0.4-1.6-0.8-2.5c-0.2-0.6-0.5-1.2-0.7-1.9c-0.2-0.4-0.4-0.8-0.5-1.2c-0.2-0.3-0.3-0.6-0.5-1c0-0.1-0.1-0.2-0.1-0.3
		c-0.1-0.2-0.2-0.4-0.3-0.6c-0.1-0.3-0.3-0.5-0.4-0.8s-0.3-0.5-0.4-0.8c-0.1-0.2-0.2-0.5-0.4-0.7c-0.1-0.2-0.2-0.5-0.4-0.7
		c-0.1-0.2-0.2-0.4-0.4-0.6c-0.1-0.2-0.2-0.4-0.3-0.6c-0.1-0.2-0.2-0.4-0.3-0.6c-0.1-0.2-0.2-0.4-0.3-0.6c-0.1-0.2-0.2-0.4-0.3-0.6
		c-0.2-0.3-0.3-0.5-0.3-0.5l0,0c-0.1,0.1-0.3,0.1-0.4,0.1s-0.3,0-0.4,0s-0.3-0.1-0.4-0.2s-0.2-0.2-0.4-0.3c-0.1-0.1-0.2-0.2-0.4-0.4
		c-0.1-0.2-0.2-0.3-0.3-0.5c-0.1-0.2-0.2-0.4-0.3-0.6c-0.1-0.3-0.2-0.5-0.3-0.8c-0.1-0.4-0.2-0.7-0.3-0.8c0-0.1,0-0.1,0-0.1
		l-0.5,1.2l-0.1,0.1l-0.6,1.3l-0.1,0.2c-0.1-0.1-0.2-0.2-0.3-0.3c-0.1-0.2-0.3-0.4-0.4-0.6c-0.2-0.4-0.2-0.8-0.3-1.2
		c0-0.4,0-0.9,0-1.3c0-0.6,0.1-1,0.1-1c0.1-0.1,0.2-0.2,0.4-0.3c0.1-0.1,0.3-0.3,0.4-0.4s0.2-0.2,0.2-0.3c0.3-0.5,0.5-1,0.7-1.5
		c0.2-0.7,0.3-1.5,0.4-2.2c0-0.1,0-0.1,0-0.2c0-0.4,0-0.9,0-1.3c0-0.4,0-0.8,0-1.1c0-0.2,0-0.3,0-0.4c0-0.2,0-0.4-0.1-0.5
		C475.6,248.1,475.6,248,475.6,248z M492.4,286.8l0.8,0.4l0.1,0.1h-0.4h-0.4l0,0h-0.4h-0.4h-0.4h-0.4c-0.1-0.1-0.2-0.2-0.3-0.3
		c-0.7-0.8-1.3-1.5-1.9-2.4l0.7,0.3l0.7,0.4h0.1l0.6,0.3l0.8,0.4L492.4,286.8L492.4,286.8z"/>
	
		<pattern  id="SVGID_8_" xlink:href="#譁ｰ隕上ヱ繧ｿ繝ｼ繝ｳ繧ｹ繧ｦ繧ｩ繝メ_5" patternTransform="matrix(-0.3123 8.149185e-02 -8.149185e-02 -0.3123 -20230.3008 -4676.2476)">
	</pattern>
	<path class="st9" d="M451.3,300c0.1,0.7,0.1,1.4,0.1,2.1l0,0c0,2.9-0.7,5.7-1.8,8.2c-0.1-0.4-0.1-0.8-0.2-1.1c0,0,0,0,0-0.1
		c0.9-2.2,1.4-4.6,1.4-7l0.4-0.3c0,0.1,0.1,0.2,0.1,0.2c0-0.5-0.1-1-0.1-1.5C451.3,300.4,451.3,300.2,451.3,300z"/>
	
		<pattern  id="SVGID_9_" xlink:href="#譁ｰ隕上ヱ繧ｿ繝ｼ繝ｳ繧ｹ繧ｦ繧ｩ繝メ_5" patternTransform="matrix(-0.3123 8.149185e-02 -8.149185e-02 -0.3123 -20230.7012 -4678.1475)">
	</pattern>
	<path class="st10" d="M449.2,307.7c0-0.1,0-0.3,0-0.4c0-0.4-0.1-0.8-0.1-1.2c0-0.2,0-0.4,0-0.6c-0.1-0.7-0.1-1.3-0.1-1.7l0,0
		c0-0.4,0-0.6,0-0.6l0.1-0.1l0.3-0.2l0.3-0.2l0.4-0.3l0.2-0.1l0.4-0.3l0.2-0.1c0,2.4-0.5,4.8-1.4,7
		C449.3,308.6,449.2,308.2,449.2,307.7z"/>
</g>
<g>
	
		<pattern  id="SVGID_10_" xlink:href="#譁ｰ隕上ヱ繧ｿ繝ｼ繝ｳ繧ｹ繧ｦ繧ｩ繝メ_5" patternTransform="matrix(-0.2884 0.3926 -0.3926 -0.2884 -19975.8398 -4096.8643)">
	</pattern>
	<path class="st11" d="M365.2,136.6l0.2,0.3c0,0.2,0.1,0.3,0.1,0.5c0.1,0.5,0.3,0.9,0.4,1.4h-0.7h-0.5c0.2,0,0.4,0.2,0.6,0.5
		c0.3,0.3,0.6,0.8,1,1.4c0.2,0.3,0.4,0.6,0.5,0.9c0.4,0.7,0.8,1.5,1.2,2.2c0.8,1.5,1.4,2.8,1.4,2.8c0,0.1,0,0.1,0,0.2
		c0,0.2-0.1,0.4-0.1,0.6c-0.1,0.5-0.1,1,0,1.5c0,0.3,0.1,0.5,0.2,0.8c0.3,1.2,1,2.2,1.8,2.9l0.1,0.1c0.5,0.4,1,0.8,1.5,1.1
		c0.4,0.3,0.8,0.5,1.2,0.7c0.5,0.2,0.9,0.4,1.1,0.5c0.1,0,0.2,0.1,0.2,0.1s0.3,0.1,0.8,0.2c0.3,0.1,0.6,0.1,0.9,0.2
		c0.3,0.1,0.6,0.1,0.9,0.2c0.3,0.1,0.6,0.1,1,0.2c0.3,0.1,0.6,0.1,0.9,0.2c0.3,0.1,0.6,0.1,0.9,0.2c0.3,0.1,0.6,0.2,1,0.2
		c0.3,0.1,0.7,0.2,1,0.2c0.3,0.1,0.7,0.2,1,0.2c0.3,0.1,0.7,0.2,1,0.2c0.4,0.1,0.7,0.2,1.1,0.3s0.7,0.2,1.1,0.3s0.7,0.2,1.1,0.3
		s0.8,0.2,1.2,0.3c0.4,0.1,0.8,0.2,1.2,0.4c0.5,0.2,0.9,0.3,1.3,0.5c0.2,0.2,0.4,0.4,0.7,0.6c0.2,0.2,0.4,0.3,0.5,0.5
		c-0.3,0-0.5,0-0.8,0.1c-0.2,0-0.5,0.1-0.8,0.1s-0.5,0.1-0.8,0.1c-0.2,0-0.5,0.1-0.7,0.1s-0.5,0.1-0.7,0.1s-0.5,0.1-0.7,0.1
		s-0.5,0.1-0.7,0.1c-0.1,0-0.1,0-0.2,0c-0.2,0-0.3,0.1-0.5,0.1s-0.5,0.1-0.7,0.1c-0.2,0.1-0.5,0.1-0.7,0.2c-0.3,0.1-0.5,0.1-0.7,0.2
		c-0.2,0.1-0.5,0.1-0.7,0.2c-0.2,0.1-0.5,0.1-0.7,0.2c-0.3,0.1-0.5,0.1-0.7,0.2c-0.2,0.1-0.5,0.1-0.6,0.2c0,0,0,0-0.1,0
		c-0.3,0.1-0.5,0.1-0.5,0.1c-0.2-0.2-0.4-0.3-0.6-0.4H381c-0.4-0.2-0.8-0.4-1.3-0.5c-0.3-0.1-0.7-0.2-1-0.2s-0.6-0.1-1-0.1
		c-0.3,0-0.6,0-0.9-0.1c-0.2,0-0.4,0-0.5,0s-0.2,0-0.4,0c-0.3,0-0.6,0-0.9,0s-0.6,0-0.8,0c-0.3,0-0.6,0-0.8,0.1
		c-0.3,0-0.6,0.1-0.8,0.1c-0.4,0-0.7,0.1-0.8,0.1h-0.1c-0.5-0.4-1-0.8-1.5-1h-0.1c-0.4-0.2-0.7-0.3-1.1-0.3
		c-0.3-0.1-0.6-0.1-0.9-0.1s-0.6,0.1-0.8,0.1c-0.2,0-0.4,0.1-0.5,0.1s-0.2,0-0.2,0.1c-0.2,0.1-0.5,0.2-0.7,0.3s-0.4,0.2-0.7,0.4
		c-0.2,0.1-0.4,0.3-0.6,0.4c-0.2,0.2-0.4,0.3-0.6,0.5s-0.4,0.4-0.6,0.6l-0.1,0.1c-0.1,0.1-0.3,0.3-0.4,0.4c-0.2,0.2-0.4,0.4-0.5,0.6
		c-0.2,0.2-0.4,0.4-0.5,0.7c-0.2,0.2-0.4,0.5-0.5,0.7l0,0c-0.2,0.2-0.3,0.5-0.5,0.7c-0.2,0.3-0.3,0.5-0.5,0.8s-0.3,0.6-0.5,0.8
		c0,0,0,0.1-0.1,0.1c-0.2,0.3-0.3,0.6-0.4,0.7c-0.1,0.2-0.1,0.3-0.1,0.3s-0.1,0.2-0.4,0.5c-0.1,0.2-0.3,0.5-0.5,0.8l0,0
		c-0.1,0.2-0.3,0.5-0.5,0.8s-0.3,0.6-0.5,0.9c-0.1,0.2-0.2,0.4-0.3,0.7c0,0.1-0.1,0.1-0.1,0.2c-0.1,0.3-0.3,0.6-0.4,0.9
		c-0.1,0.3-0.3,0.7-0.4,1v0.1c-0.1,0.3-0.2,0.7-0.3,1c-0.1,0.4-0.2,0.8-0.3,1.2l0,0c-0.1,0.4-0.1,0.9-0.1,1.3c0,0.2,0,0.5,0,0.7
		c0,0.3,0.1,0.7,0.1,1c0.1,0.3,0.2,0.6,0.3,0.9c0.3,0.6,0.8,1.2,1.4,1.7c0.3,0.2,0.7,0.5,1.1,0.7c0.2,0.2,0.4,0.5,0.6,0.7
		c0,0.1,0.1,0.2,0.1,0.3c0.2,0.4,0.4,1,0.7,1.7c0.1,0.2,0.1,0.3,0.2,0.5c0.2,0.4,0.4,0.8,0.6,1.2c0.3,0.5,0.6,1.1,1,1.6
		c0.1,0.1,0.1,0.2,0.2,0.3c0.3,0.5,0.7,0.9,1,1.2c0.5,0.5,1,0.9,1.5,1.1c0,0,0,0.2,0.1,0.4c0.1,0.3,0.2,0.7,0.3,1.2
		c0,0.1,0.1,0.2,0.1,0.4c0.1,0.4,0.2,0.8,0.3,1.3c0,0.1,0,0.1,0,0.2c0.1,0.5,0.3,0.9,0.4,1.4c0,0,0,0,0,0.1c0.1,0.4,0.3,0.9,0.4,1.3
		c0,0.1,0.1,0.3,0.1,0.4c0.1,0.3,0.2,0.6,0.3,1c0.1,0.3,0.2,0.5,0.3,0.8c0.1,0.2,0.1,0.4,0.2,0.6c0.2,0.4,0.3,0.8,0.5,1.3
		c-0.6-0.4-1.2-0.9-1.7-1.3c-0.6-0.4-1.1-0.9-1.7-1.3c-0.5-0.4-1.1-0.9-1.6-1.3c-0.4-0.3-0.7-0.6-1.1-0.9c-0.1-0.1-0.2-0.2-0.3-0.4
		c-0.4-0.4-0.8-0.9-1.2-1.3c-0.4-0.5-0.8-0.9-1.2-1.4c-0.4-0.5-0.8-0.9-1.2-1.4c-0.4-0.5-0.9-1-1.2-1.4c-0.7-0.8-1.1-1.4-1.2-1.4
		l0,0c-0.1-0.1-0.8-0.7-1.7-1.4c-0.5-0.3-1.1-0.6-1.7-0.9c-0.3-0.1-0.5-0.2-0.8-0.3s-0.7-0.2-1-0.2c-0.5-0.1-1-0.1-1.4-0.1
		s-0.8,0.1-1.2,0.2c-0.3,0.1-0.7,0.2-1,0.4s-0.6,0.4-0.9,0.6c-0.1,0.1-0.2,0.1-0.3,0.2c0,0-0.3,0-0.9,0c-0.4,0-0.9,0-1.4,0
		c-0.4,0-0.7,0-1.1,0c-0.1,0-0.2,0-0.3,0c-0.5,0-1,0-1.5,0s-1,0-1.5-0.1c-0.3,0-0.5,0-0.7-0.1c-0.3,0-0.6-0.1-0.9-0.1
		c-0.4-0.1-0.7-0.2-0.8-0.3l0.6,1l0.5,0.9l-0.8-0.2l-0.8-0.2l-1-0.2l-0.3-0.1c0,0,0.1,0,0.3,0.1c0.2,0.1,0.4,0.1,0.8,0.2
		c0.3,0.1,0.7,0.2,1.1,0.3c0.5,0.1,1,0.2,1.6,0.3c0.1,0,0.1,0,0.2,0c0.5,0.1,1.1,0.2,1.7,0.2c0.5,0.1,1,0.1,1.5,0.1h0.1
		c0.5,0,1,0,1.4,0s0.9-0.1,1.3-0.2c0.4-0.1,0.8-0.2,1.2-0.3c0.4-0.1,0.7-0.3,1-0.5c0.2,0.2,0.4,0.5,0.6,0.7c0.4,0.5,0.8,0.9,1.2,1.4
		c0.4,0.4,0.8,0.9,1.2,1.3c0.4,0.4,0.8,0.9,1.2,1.3c0.4,0.4,0.8,0.8,1.2,1.2c0.4,0.4,0.8,0.8,1.2,1.2c0.3,0.3,0.5,0.5,0.8,0.8
		c0,0.2-0.1,0.4-0.2,0.6c0,0.1-0.1,0.1-0.1,0.2c0,0,0.4,0.4,1.1,1c0.3,0.3,0.8,0.7,1.3,1.1c0.4,0.3,0.8,0.7,1.3,1.1
		c0.4,0.3,0.8,0.7,1.3,1.1c0.4,0.3,0.8,0.7,1.3,1.1c0.4,0.3,0.9,0.7,1.3,1s0.9,0.7,1.3,1.1c0.5,0.4,0.9,0.7,1.4,1.1
		c0.5,0.4,1,0.7,1.5,1.1c0.5,0.4,1.1,0.8,1.6,1.1c0.6,0.4,1.3,0.8,1.9,1.2c0.9,0.6,1.8,1.1,2.7,1.5c0.7,0.4,1.4,0.6,2.1,0.8
		c0.6,0.2,1.1,0.3,1.6,0.2c0.3,0,0.5,0,0.7-0.1c0.3-0.1,0.5-0.2,0.7-0.4c0.1-0.1,0.2-0.2,0.3-0.3c0.8,0.5,1.6,0.9,2.5,1.4
		c0,0.1,0,0.1,0,0.2c0,0.3,0.1,0.7,0.2,1.1v0.1c0.5,0.3,1,0.6,1.5,0.9c1.5,0.9,2.9,1.9,4.2,3.1c-1.2-1-2.5-1.9-3.9-2.8
		c-0.5-0.3-1-0.6-1.5-0.9c0.1,0.3,0.1,0.7,0.2,1.1c-0.1-0.1-0.2-0.1-0.3-0.2l0,0c0.1,0.4,0.1,0.7,0.2,1.1c0,0.1,0,0.1,0,0.2
		c0.1,0.3,0.1,0.7,0.2,1c0,0.1,0,0.2,0.1,0.4c0.1,0.3,0.1,0.6,0.2,0.8c0,0.2,0.1,0.4,0.1,0.6c0,0.2,0.1,0.5,0.2,0.7s0.1,0.5,0.2,0.7
		c0,0.2,0.1,0.3,0.1,0.5c0.1,0.3,0.2,0.6,0.2,0.9c0,0.1,0.1,0.3,0.1,0.4c0.1,0.4,0.2,0.7,0.3,1c0,0.1,0.1,0.3,0.1,0.4
		c0.1,0.4,0.2,0.8,0.4,1.1c0.1,0.2,0.1,0.3,0.2,0.5c0.1,0.4,0.3,0.7,0.4,1c0.2,0.5,0.4,0.9,0.6,1.3c0.1,0.1,0.1,0.2,0.2,0.3
		c0.4,0.7,0.7,1.3,1.1,1.8c0.1,0.1,0.2,0.2,0.3,0.3c0.2,0.2,0.5,0.5,0.7,0.6c0,0,0.1,0.3,0.3,0.9c0.1,0.4,0.3,0.9,0.5,1.5
		c0.2,0.5,0.3,1,0.5,1.5s0.3,1,0.5,1.5s0.3,1,0.5,1.5s0.3,1,0.5,1.5c0.1,0.2,0.2,0.5,0.2,0.7c0.1,0.3,0.2,0.5,0.3,0.8
		c0.2,0.5,0.3,1,0.5,1.5c0,0.1,0.1,0.2,0.1,0.3c0.1,0.4,0.2,0.8,0.4,1.2c0.1,0.3,0.2,0.6,0.3,1c0.1,0.2,0.1,0.4,0.2,0.6
		c0.1,0.5,0.3,0.9,0.4,1.4c0,0.1,0,0.1,0,0.2c0.1,0.6,0.3,1.1,0.3,1.5c0,0.1,0,0.2,0,0.3c0.1,0.5,0.1,0.9,0.1,1.2s0,0.5-0.1,0.5
		c0,0-0.1,0.3-0.2,0.8c-0.1,0.3-0.1,0.7-0.2,1.2c0,0.1,0,0.1,0,0.2c0,0.5,0,0.9,0,1.5c0,0.2,0,0.3,0,0.5c0,0.3,0.1,0.7,0.2,1
		c0,0.1,0.1,0.3,0.1,0.4c0.1,0.4,0.2,0.8,0.4,1.1c0,0,0,0.1,0.1,0.1c0.1,0.3,0.3,0.5,0.5,0.8s0.4,0.5,0.7,0.7
		c0.2,0.2,0.4,0.3,0.6,0.5c0.1,0,0.1,0.1,0.2,0.1c0.3,0.2,0.6,0.3,1,0.4l0,0c0,0,0.1,0,0.2-0.2c0.1-0.1,0.2-0.4,0.3-0.8
		c0-0.2,0-0.4,0.1-0.6c0-0.4,0-0.9-0.1-1.5v-0.1c0-0.4-0.1-0.9-0.2-1.5c0-0.1,0-0.3-0.1-0.4c-0.1-0.4-0.1-0.7-0.2-1.2
		c0-0.2-0.1-0.4-0.1-0.6c-0.1-0.3-0.2-0.6-0.2-1c-0.1-0.2-0.1-0.5-0.2-0.7c-0.1-0.3-0.2-0.6-0.2-0.8c-0.1-0.2-0.1-0.4-0.2-0.6
		l-0.1-0.2l-0.2-0.7l-0.3-1.1l-0.1-0.4l-0.4-1.5l0,0l-0.4-1.5l-0.2-0.7l-0.2-0.8l-0.4-1.5l-0.1-0.5l-0.3-1l-0.4-1.5l-0.4-1.5
		l-0.4-1.5l-0.4-1.4l-0.4-1.4l-0.4-1.4L388,230l-0.2-0.9l-0.2-0.5l-0.4-1.4l-0.2-0.8l-0.2-0.6l-0.4-1.4l-0.1-0.2l-0.3-1.1l-0.2-0.8
		l-0.2-0.6l-0.3-1.2l-0.1-0.2l-0.4-1.4c0.1,0,0.1,0.1,0.2,0.1c-0.3-0.2-0.5-0.5-0.8-0.7c0.4,0.3,0.8,0.6,1.1,0.9
		c0.2,0.1,0.4,0.2,0.5,0.2c0.3,0.4,0.6,0.8,1,1.2c0.8,0.8,1.5,1.6,2.2,2.5l0.1,0.1l0,0c2.7,3.4,4.6,7.3,5.7,11.4
		c0.2,0.2,0.5,0.5,0.7,0.7c0.1,0.1,0.1,0.1,0.2,0.2l0,0c0.4,0.4,0.8,0.7,1.2,1.1c0.1,0.1,0.3,0.2,0.4,0.4c0.3,0.2,0.5,0.4,0.8,0.6
		c0.4,0.3,0.8,0.6,1.2,0.9c0.1,0.1,0.2,0.2,0.4,0.3c0.3,0.2,0.5,0.4,0.8,0.6c0.4,0.3,0.8,0.6,1.2,0.9c0.2,0.1,0.4,0.3,0.6,0.4
		c0.2,0.1,0.4,0.2,0.5,0.4c0.4,0.3,0.8,0.5,1.2,0.8c0.4,0.2,0.8,0.5,1.2,0.7c0.1,0.1,0.2,0.1,0.3,0.2c0.3,0.2,0.6,0.3,0.9,0.4
		c0.4,0.2,0.9,0.4,1.3,0.5c0.1,0,0.1,0.1,0.2,0.1c0,0,0.5,0.3,1.1,0.8c0.1,0,0.1,0.1,0.2,0.1c0.4,0.3,0.8,0.6,1.2,1
		c0.2,0.2,0.4,0.4,0.7,0.6c0.2,0.2,0.4,0.4,0.6,0.7s0.5,0.5,0.7,0.8s0.4,0.7,0.6,1c0.1,0.2,0.2,0.3,0.2,0.5c0.2,0.5,0.3,0.9,0.3,1.4
		c0,0.1,0,0.2,0,0.3l0.5-0.2l0.2-0.1l1.7-0.8l0.5-0.2l1.3-0.6l0.2-0.1c0,0,0.5,0.3,1.4,0.8c0.1,0.1,0.2,0.1,0.4,0.2
		c0.4,0.2,0.8,0.4,1.3,0.6c0.5,0.2,1.1,0.5,1.7,0.8c0.1,0,0.1,0.1,0.2,0.1c0.5,0.2,1,0.4,1.5,0.7c0.6,0.2,1.2,0.5,1.8,0.7
		c0,0,0.1,0,0.1,0.1c0.6,0,1.2,0,1.8,0c0.5,0,1,0,1.5,0l0.4,0.8l0.3,0.6c0.5,0.2,1.1,0.3,1.6,0.4c0.7,0.2,1.4,0.3,2.1,0.4
		c0.8,0.1,1.5,0.2,2.2,0.2c0.8,0,1.5-0.1,2.2-0.3h0.2l2.3,0.2h0.2l1.9,0.5l-1,0.8l-0.7,0.6c0,0,0.8,0.2,1.7,0.1
		c0.8-0.1,1.7-0.3,2.4-1c0.1-0.1,0.3-0.3,0.4-0.5l0,0l0,0l0,0c0.2-0.3,0.3-0.6,0.5-1c0.1-0.4,0.2-0.9,0.2-1.4l0,0l0.2-0.5
		c0.7,0,1.4-0.1,2.2-0.2c0.9-0.1,1.8-0.3,2.7-0.6c1-0.3,1.9-0.6,2.8-1c0.4-0.2,0.8-0.3,1.2-0.5c0.3-0.1,0.6-0.3,0.9-0.5
		c0,0,0.3-0.2,0.9-0.6c0.4-0.3,0.9-0.6,1.5-1c0.5-0.3,1-0.7,1.5-1.1c0.4-0.3,0.8-0.6,1.3-0.9c0.6-0.4,1.2-0.9,1.8-1.4
		c0.2-0.2,0.5-0.4,0.7-0.6c0.8-0.6,1.5-1.3,2.2-2c0.1-0.1,0.1-0.1,0.2-0.2c0.6-0.6,1.2-1.2,1.7-1.8s1-1.2,1.4-1.7c0,0,0-0.1,0.1-0.1
		c0.4-0.6,0.7-1.1,1-1.7c0.2-0.4,0.3-0.7,0.4-1c0.2-0.2,0.4-0.4,0.6-0.6c0.3-0.4,0.7-0.9,1-1.4c0.1-0.1,0.1-0.2,0.2-0.3
		c0.3-0.5,0.5-1,0.8-1.6c0.2-0.5,0.4-1,0.6-1.5s0.3-1,0.5-1.5c0.1-0.5,0.3-1,0.4-1.5c0.1-0.3,0.1-0.5,0.2-0.8c0-0.2,0.1-0.4,0.2-0.6
		c0.1-0.5,0.2-0.9,0.3-1.4c0.1-0.5,0.2-0.9,0.3-1.4c0.1-0.5,0.2-0.9,0.2-1.4c0.1-0.5,0.1-0.9,0.2-1.3c0.1-0.5,0.1-0.9,0.2-1.3
		c0.1-0.5,0.1-0.9,0.2-1.3c0.1-0.6,0.1-1.1,0.1-1.3l0,0c0-0.1,0-0.1,0-0.1c0-0.4,0-0.7,0-1.1c0-0.4,0-0.8-0.1-1.2
		c0-0.4-0.1-0.8-0.1-1.1c0-0.4-0.1-0.7-0.2-1.1c-0.1-0.4-0.1-0.7-0.2-1.1c-0.1-0.3-0.2-0.7-0.3-1c-0.1-0.3-0.2-0.7-0.3-1
		c-0.1-0.3-0.2-0.6-0.3-1c-0.1-0.3-0.2-0.6-0.4-0.9c-0.1-0.3-0.3-0.6-0.4-0.9c0.7-0.3,1.3-0.7,2-1.1c0.2-0.2,0.3-0.5,0.5-0.7
		c0.1-0.3,0.2-0.5,0.3-0.8c0.1-0.4,0.1-0.8,0-1.1c0-0.3-0.1-0.7-0.2-1s-0.3-0.6-0.4-0.9c-0.3-0.5-0.5-0.7-0.5-0.7l-0.2,1.2
		c0,0-0.1,0-0.1,0.1c-0.2,0.1-0.4,0.2-0.6,0.4l-0.6-0.7l-0.6-0.7l-0.6-0.7l-0.2-0.2c0-0.2,0-0.4-0.1-0.7c0-0.3-0.1-0.6-0.2-0.9
		c-0.1-0.3-0.2-0.6-0.3-0.8c-0.1-0.3-0.3-0.5-0.4-0.8s-0.3-0.5-0.5-0.8c-0.2-0.2-0.3-0.5-0.5-0.7s-0.3-0.5-0.5-0.7s-0.4-0.4-0.5-0.7
		c-0.2-0.2-0.4-0.4-0.6-0.7c-0.2-0.2-0.4-0.4-0.6-0.6c-0.2-0.2-0.4-0.4-0.6-0.6c-0.2-0.2-0.4-0.4-0.6-0.6c-0.2-0.2-0.4-0.4-0.6-0.6
		l0,0c-0.2-0.2-0.4-0.4-0.6-0.6c-0.2-0.2-0.4-0.4-0.6-0.6c-0.2-0.2-0.4-0.4-0.7-0.6c-0.2-0.2-0.4-0.4-0.7-0.5
		c-0.2-0.2-0.4-0.4-0.7-0.5c-0.2-0.2-0.4-0.4-0.7-0.5c-0.2-0.2-0.4-0.3-0.7-0.5c-0.2-0.2-0.5-0.3-0.7-0.5s-0.5-0.3-0.7-0.5
		s-0.5-0.3-0.7-0.5s-0.4-0.3-0.6-0.4c0,0-0.1,0-0.1-0.1c-0.3-0.2-0.5-0.3-0.7-0.5c-0.3-0.2-0.6-0.4-0.7-0.5c-0.1,0-0.1-0.1-0.1-0.1
		v-0.6V182v-0.2v-0.6v-0.7v-0.7v-0.7v-0.5c-0.5,0.3-1.1,0.5-1.7,0.5c0,0,0,0-0.1,0c-0.5,0-1,0-1.5-0.1c-0.4-0.1-0.8-0.1-1.1-0.2
		c-0.3-0.1-0.7-0.2-1-0.3s-0.6-0.2-0.9-0.3c-0.1,0-0.1-0.1-0.2-0.1c-0.2-0.1-0.4-0.2-0.6-0.3c-0.3-0.1-0.6-0.3-0.8-0.4
		c-0.4-0.2-0.6-0.3-0.8-0.4c-0.1,0-0.1-0.1-0.1-0.1c-0.1-0.1-0.3-0.3-0.4-0.4c-0.2-0.2-0.4-0.3-0.5-0.5c-0.2-0.2-0.4-0.3-0.6-0.4
		c-0.2-0.1-0.4-0.3-0.6-0.4c-0.2-0.1-0.4-0.3-0.6-0.4c-0.2-0.1-0.4-0.3-0.7-0.4c-0.2-0.1-0.4-0.3-0.7-0.4c-0.2-0.1-0.5-0.3-0.7-0.4
		c-0.2-0.1-0.5-0.3-0.7-0.4c-0.2-0.1-0.4-0.2-0.6-0.3c0,0-0.1,0-0.1-0.1c-0.3-0.1-0.5-0.3-0.8-0.4c-0.3-0.1-0.5-0.3-0.8-0.4
		c-0.3-0.1-0.5-0.3-0.8-0.4c-0.3-0.1-0.6-0.3-0.9-0.4c-0.3-0.1-0.6-0.3-0.9-0.4c-0.3-0.1-0.6-0.3-0.9-0.4c-0.3-0.1-0.6-0.3-1-0.4
		c-0.3-0.1-0.7-0.3-1-0.4c-0.1,0-0.1,0-0.2-0.1c-0.3-0.1-0.6-0.2-0.9-0.3c-0.4-0.1-0.8-0.3-1.2-0.4c-0.4-0.1-0.8-0.3-1.2-0.4
		c-0.5-0.2-0.9-0.3-1.4-0.4c-0.5-0.2-1-0.3-1.5-0.5c-0.4-0.1-0.7-0.2-1-0.3s-0.5-0.2-0.8-0.2c-1-0.3-1.8-0.5-2.3-0.6
		s-0.9-0.2-0.9-0.2l1.1-0.2l1-0.2l0.7-0.1l2-0.4l1.2-0.2l1.2-0.3l2.7-0.6l0.9-0.2l3-0.6l4-0.8l0.8-0.2l3.2-0.7l0.3-0.1l1.7-0.4
		c0.2,0,0.4-0.1,0.6-0.1c0.5-0.1,1-0.2,1.4-0.3c0.2,0,0.4-0.1,0.6-0.1c0.7-0.2,1.4-0.3,1.9-0.5c0.6-0.2,1.1-0.3,1.5-0.5
		c0.2-0.1,0.5-0.2,0.7-0.2c1.9-0.8,2.4-1.4,2.5-1.7c0-0.1,0-0.2,0-0.2c-0.1-0.1-0.2-0.1-0.3-0.2c-0.1-0.1-0.2-0.2-0.4-0.3
		c-0.1-0.1-0.3-0.2-0.4-0.3s-0.3-0.2-0.4-0.3c-0.2-0.1-0.3-0.1-0.5-0.2c-0.2-0.1-0.4-0.1-0.5-0.2c-0.2,0-0.4-0.1-0.6-0.1
		c-0.3,0-0.5,0-0.8,0c-0.4,0-0.7,0.1-1,0.1c-0.4,0.1-0.8,0.2-1.2,0.4c-1.4,0.5-2.6,1.4-3.3,1.9c-0.2,0.1-0.3,0.2-0.4,0.3
		c-1,0.5-2.1,0.9-3.1,1.3c-0.2,0.1-0.4,0.2-0.6,0.2c-1,0.2-2.2,0.5-3.4,0.7c-1.3,0.3-2.8,0.5-4.2,0.8c-1.5,0.3-2.9,0.5-4.2,0.7
		c-0.4,0.1-0.8,0.1-1.2,0.2c-1.3,0.2-2.3,0.4-2.9,0.4c-0.1,0-0.1,0-0.2,0c-0.2,0-0.3,0-0.5,0c-1.1-0.5-2.8-0.6-4.7-0.5
		c-0.2,0-0.3,0-0.5,0c-0.4,0-0.7,0.1-1.1,0.1c-0.4,0.1-0.8,0.1-1.2,0.2c-0.4,0.1-0.8,0.1-1.1,0.2c-0.3,0.1-0.5,0.1-0.8,0.2
		c-0.1,0-0.1,0-0.2,0c-0.3,0.1-0.6,0.1-1,0.2c-0.3,0.1-0.6,0.1-0.9,0.2c-0.3,0.1-0.6,0.1-0.8,0.2c-0.3,0.1-0.6,0.2-0.8,0.2
		c0,0,0,0-0.1,0c-0.3,0.1-0.5,0.1-0.7,0.2c-0.3,0.1-0.5,0.2-0.8,0.2c-0.3,0.1-0.5,0.2-0.8,0.2c-0.3,0.1-0.5,0.2-0.8,0.2
		c-0.2,0.1-0.4,0.1-0.5,0.2c-0.1,0-0.1,0-0.2,0.1c-0.3,0.1-0.5,0.2-0.7,0.2c-0.3,0.1-0.5,0.2-0.7,0.2c-0.3,0.1-0.5,0.2-0.7,0.3
		c-0.9-0.4-1.7-0.8-2.6-1.2c0.1-0.1,0.2-0.3,0.3-0.4c0.1-0.2,0.1-0.3,0.2-0.5c0-0.2,0-0.4,0-0.6c0-0.2-0.1-0.4-0.2-0.6v-0.1
		c-0.1-0.3-0.3-0.6-0.6-0.9c-0.4-0.5-0.9-1-1.5-1.5c-0.9-0.7-2-1.5-3.3-2.2c-0.8-0.5-1.7-1-2.6-1.5c-0.6-0.3-1.2-0.6-1.8-0.9
		c-0.5-0.2-1-0.5-1.5-0.7c-0.1-0.1-0.3-0.1-0.4-0.2c-0.3-0.2-0.6-0.3-1-0.4c-0.4-0.2-0.8-0.4-1.2-0.5c-0.4-0.2-0.8-0.3-1.2-0.5
		c-0.4-0.2-0.7-0.3-1.1-0.5s-0.7-0.3-1.1-0.4c-0.3-0.1-0.7-0.3-1-0.4c-0.3-0.1-0.7-0.3-1-0.4c-0.3-0.1-0.7-0.3-1-0.4
		c-0.3-0.1-0.7-0.3-0.9-0.4c-0.4-0.1-0.6-0.2-0.9-0.3c-0.6-0.2-0.9-0.3-0.9-0.3l0,0c-0.1,0.2-0.2,0.3-0.4,0.5
		c-0.1,0.1-0.3,0.2-0.5,0.3s-0.4,0.1-0.6,0.2c-0.2,0-0.5,0-0.7,0c-0.3,0-0.5-0.1-0.8-0.1c-0.3-0.1-0.6-0.2-0.9-0.3s-0.7-0.3-1-0.4
		c-0.4-0.2-0.8-0.4-1.1-0.6c-0.5-0.3-0.9-0.6-1.1-0.7c-0.1-0.1-0.1-0.1-0.1-0.1l0.5,1.9l0.1,0.2l0.6,2.1l0.1,0.3c-0.2,0-0.4,0-0.7,0
		c-0.3-0.1-0.6-0.2-1-0.3c-0.5-0.3-1-0.7-1.4-1.1c-0.5-0.5-0.9-1-1.2-1.5c-0.5-0.7-0.8-1.3-0.8-1.3c0.1-0.2,0.1-0.5,0.1-0.7
		c0-0.3,0-0.6,0-0.9c0-0.2,0-0.4,0-0.6c-0.1-0.8-0.3-1.6-0.7-2.4c-0.4-1-1-2-1.6-2.9c-0.1-0.1-0.1-0.2-0.2-0.2
		c-0.4-0.5-0.8-1.1-1.1-1.5c-0.4-0.5-0.8-0.9-1.1-1.2c-0.2-0.2-0.3-0.3-0.5-0.5s-0.4-0.4-0.6-0.6
		C365.3,136.6,365.2,136.6,365.2,136.6z M421.7,166l1.3-0.3c0.1,0,0.2,0,0.3,0l-0.4,0.4l-0.4,0.4l-0.1,0.1L422,167l-0.4,0.4
		l-0.4,0.4l-0.4,0.4c-0.2,0-0.4-0.1-0.7-0.1c-1.5-0.3-3-0.6-4.4-1l1.1-0.2l1.2-0.3h0.2l1-0.2l1.3-0.3l1.3-0.3L421.7,166z"/>
	
		<pattern  id="SVGID_11_" xlink:href="#譁ｰ隕上ヱ繧ｿ繝ｼ繝ｳ繧ｹ繧ｦ繧ｩ繝メ_5" patternTransform="matrix(-0.2884 0.3926 -0.3926 -0.2884 -19923.6406 -4180.8643)">
	</pattern>
	<path class="st12" d="M386.2,220.6c0.7,0.8,1.4,1.5,2.1,2.3c0,0,0,0,0.1,0c2.7,3.4,4.6,7.3,5.7,11.4c-0.4-0.4-0.9-0.8-1.3-1.2
		c0,0,0,0-0.1-0.1c-1.1-3.4-2.8-6.7-5.1-9.6l0.2-0.8c0.1,0.1,0.3,0.1,0.4,0.2c-0.5-0.6-1-1.1-1.5-1.7
		C386.5,221.1,386.3,220.9,386.2,220.6z"/>
	
		<pattern  id="SVGID_12_" xlink:href="#譁ｰ隕上ヱ繧ｿ繝ｼ繝ｳ繧ｹ繧ｦ繧ｩ繝メ_5" patternTransform="matrix(-0.2884 0.3926 -0.3926 -0.2884 -19923.541 -4183.8643)">
	</pattern>
	<path class="st13" d="M391,231.6c-0.1-0.1-0.3-0.3-0.4-0.4c-0.5-0.5-0.9-0.9-1.3-1.3c-0.2-0.2-0.4-0.4-0.6-0.6
		c-0.8-0.8-1.4-1.5-1.8-1.9l0,0c-0.4-0.4-0.6-0.6-0.6-0.6v-0.1l0.2-0.6l0.1-0.4l0.2-0.7l0.1-0.4l0.2-0.7l0.1-0.3
		c2.3,2.9,4,6.1,5.1,9.6C392,232.6,391.5,232.1,391,231.6z"/>
</g>
<g>
	
		<pattern  id="SVGID_13_" xlink:href="#譁ｰ隕上ヱ繧ｿ繝ｼ繝ｳ繧ｹ繧ｦ繧ｩ繝メ_5" patternTransform="matrix(0.3171 -6.027919e-02 6.027919e-02 0.3171 -10651.7109 6090.7954)">
	</pattern>
	<path class="st14" d="M160.6,348.6v-0.2c0-0.1,0.1-0.2,0.1-0.3c0.1-0.3,0.3-0.6,0.4-0.9l0.3,0.3l0.2,0.2c-0.1-0.1-0.1-0.3-0.1-0.5
		c0-0.3,0.1-0.7,0.1-1.1c0-0.2,0.1-0.4,0.1-0.7c0.1-0.5,0.3-1.1,0.4-1.6c0.3-1.1,0.6-2,0.6-2l0.1-0.1c0.1-0.1,0.2-0.2,0.3-0.2
		c0.3-0.2,0.5-0.5,0.7-0.7c0.1-0.2,0.2-0.3,0.3-0.5c0.4-0.7,0.5-1.5,0.4-2.2V338c0-0.4-0.1-0.8-0.2-1.2c-0.1-0.3-0.2-0.6-0.3-0.9
		s-0.3-0.6-0.3-0.7s-0.1-0.1-0.1-0.1s-0.1-0.2-0.3-0.4c-0.1-0.1-0.2-0.3-0.4-0.5c-0.1-0.2-0.2-0.3-0.4-0.5c-0.1-0.2-0.2-0.3-0.4-0.5
		c-0.1-0.2-0.2-0.3-0.4-0.5c-0.1-0.2-0.2-0.3-0.4-0.5c-0.1-0.2-0.2-0.4-0.4-0.5c-0.1-0.2-0.2-0.4-0.4-0.6c-0.1-0.2-0.2-0.4-0.4-0.6
		c-0.1-0.2-0.2-0.4-0.4-0.6c-0.1-0.2-0.3-0.4-0.4-0.6c-0.1-0.2-0.3-0.4-0.4-0.6c-0.1-0.2-0.3-0.4-0.4-0.6c-0.1-0.2-0.3-0.5-0.4-0.7
		c-0.1-0.2-0.3-0.5-0.4-0.7c-0.2-0.3-0.3-0.6-0.4-0.8c0-0.2,0-0.4-0.1-0.6c0-0.2,0-0.3,0-0.5c0.1,0.1,0.3,0.2,0.4,0.3
		c0.1,0.1,0.3,0.2,0.4,0.3c0.1,0.1,0.3,0.2,0.4,0.3c0.1,0.1,0.3,0.2,0.4,0.3c0.1,0.1,0.3,0.2,0.4,0.3c0.1,0.1,0.3,0.2,0.4,0.3
		c0.1,0.1,0.3,0.2,0.4,0.3l0.1,0.1c0.1,0.1,0.2,0.1,0.3,0.2s0.3,0.2,0.4,0.3c0.1,0.1,0.3,0.2,0.4,0.3c0.1,0.1,0.3,0.2,0.4,0.2
		c0.1,0.1,0.3,0.2,0.4,0.2c0.1,0.1,0.3,0.2,0.4,0.2c0.2,0.1,0.3,0.2,0.4,0.2c0.1,0.1,0.3,0.1,0.4,0.2l0,0c0.2,0.1,0.3,0.2,0.3,0.2
		c0,0.2,0.1,0.3,0.1,0.5c0,0,0,0,0,0.1c0.1,0.3,0.2,0.5,0.4,0.8c0.1,0.2,0.3,0.4,0.4,0.6c0.1,0.2,0.3,0.3,0.4,0.5
		c0.1,0.2,0.3,0.3,0.4,0.4c0.1,0.1,0.2,0.2,0.3,0.2c0.1,0.1,0.1,0.1,0.2,0.2c0.1,0.1,0.3,0.3,0.4,0.4c0.1,0.1,0.3,0.2,0.4,0.4
		c0.2,0.1,0.3,0.2,0.4,0.3c0.2,0.1,0.3,0.2,0.4,0.3c0.2,0.2,0.4,0.3,0.4,0.3l0,0c0,0.4,0.1,0.8,0.3,1.2c0,0,0,0,0,0.1
		c0.1,0.2,0.2,0.5,0.4,0.7c0.1,0.2,0.3,0.3,0.4,0.5c0.1,0.1,0.3,0.2,0.5,0.3c0.1,0.1,0.2,0.1,0.3,0.2c0,0,0.1,0,0.1,0.1
		c0.2,0.1,0.3,0.1,0.5,0.2c0.2,0,0.3,0.1,0.5,0.1s0.3,0.1,0.5,0.1s0.3,0,0.5,0s0.4,0,0.5,0h0.1c0.1,0,0.3,0,0.4,0
		c0.2,0,0.4,0,0.5-0.1c0.2,0,0.4-0.1,0.6-0.1c0.2,0,0.4-0.1,0.6-0.1l0,0c0.2,0,0.4-0.1,0.6-0.1c0.2,0,0.4-0.1,0.6-0.2
		c0.2-0.1,0.4-0.1,0.6-0.2c0,0,0,0,0.1,0c0.2-0.1,0.4-0.1,0.5-0.2c0.1,0,0.2-0.1,0.2-0.1s0.1,0,0.4-0.1c0.2,0,0.4-0.1,0.6-0.2l0,0
		c0.2,0,0.4-0.1,0.6-0.2c0.2-0.1,0.4-0.1,0.6-0.2c0.2-0.1,0.3-0.1,0.5-0.2c0.1,0,0.1,0,0.2-0.1c0.2-0.1,0.4-0.2,0.6-0.3
		c0.2-0.1,0.4-0.2,0.6-0.3l0,0c0.2-0.1,0.4-0.2,0.6-0.3c0.2-0.1,0.4-0.3,0.7-0.4l0,0c0.2-0.2,0.5-0.4,0.7-0.6
		c0.1-0.1,0.2-0.2,0.3-0.3c0.1-0.2,0.3-0.4,0.4-0.6c0.1-0.2,0.2-0.4,0.2-0.6c0.1-0.4,0.2-0.9,0.1-1.5c0-0.3-0.1-0.5-0.2-0.8
		c0-0.2,0-0.4,0-0.6c0-0.1,0.1-0.1,0.1-0.2c0.1-0.3,0.3-0.7,0.4-1.2c0-0.1,0.1-0.2,0.1-0.3c0.1-0.3,0.2-0.5,0.2-0.8
		c0.1-0.4,0.2-0.8,0.3-1.2c0-0.1,0-0.2,0-0.3c0-0.4,0.1-0.7,0.1-1.1c0-0.5-0.1-0.9-0.2-1.2c0,0,0.1-0.1,0.2-0.3
		c0.1-0.2,0.2-0.4,0.4-0.7c0-0.1,0.1-0.1,0.1-0.2c0.1-0.2,0.3-0.5,0.4-0.8c0,0,0-0.1,0.1-0.1c0.1-0.3,0.3-0.6,0.5-0.9l0,0
		c0.1-0.3,0.3-0.5,0.4-0.8c0-0.1,0.1-0.2,0.1-0.2c0.1-0.2,0.2-0.4,0.3-0.6s0.2-0.3,0.2-0.5c0.1-0.1,0.1-0.2,0.2-0.4
		c0.1-0.3,0.2-0.6,0.3-0.8c0.1,0.5,0.2,1,0.3,1.4c0.1,0.5,0.1,0.9,0.2,1.4c0.1,0.4,0.1,0.9,0.2,1.3c0,0.3,0.1,0.6,0.1,1
		c0,0.1,0,0.2,0,0.3c0,0.4,0,0.8,0,1.2c0,0.4,0,0.8,0,1.2c0,0.4,0,0.8,0,1.2c0,0.5,0,0.9-0.1,1.2c0,0.7-0.1,1.2-0.1,1.2l0,0
		c0,0.1,0,0.7,0.2,1.4c0.1,0.4,0.2,0.8,0.4,1.2c0.1,0.2,0.2,0.3,0.3,0.5s0.2,0.4,0.4,0.6s0.4,0.5,0.7,0.7c0.2,0.2,0.4,0.3,0.7,0.4
		c0.2,0.1,0.4,0.2,0.7,0.3c0.2,0.1,0.5,0.1,0.7,0.1c0.1,0,0.2,0,0.3,0c0,0,0.2,0.1,0.4,0.4c0.2,0.2,0.4,0.4,0.7,0.6
		c0.2,0.2,0.4,0.3,0.6,0.5l0.1,0.1c0.2,0.2,0.5,0.4,0.7,0.7c0.2,0.2,0.5,0.5,0.7,0.7c0.1,0.1,0.2,0.3,0.3,0.4
		c0.1,0.2,0.3,0.3,0.4,0.5c0.1,0.2,0.2,0.4,0.2,0.5l0.2-0.7l0.1-0.7l0.3,0.4l0.3,0.4l0.4,0.5l0.1,0.1c0,0,0-0.1-0.1-0.2
		s-0.2-0.3-0.3-0.5s-0.2-0.4-0.4-0.6c-0.2-0.3-0.4-0.6-0.6-0.9l-0.1-0.1c-0.2-0.3-0.4-0.6-0.7-0.9c-0.2-0.2-0.4-0.5-0.7-0.7l0,0
		c-0.2-0.2-0.5-0.4-0.7-0.6s-0.5-0.3-0.7-0.5c-0.2-0.1-0.5-0.3-0.7-0.4s-0.5-0.2-0.7-0.2c0-0.2,0-0.4,0-0.6c0-0.4,0-0.8,0-1.2
		c0-0.4,0-0.8,0-1.2c0-0.4,0-0.8,0-1.2c0-0.4,0-0.8,0-1.1c0-0.4,0-0.8,0-1.1c0-0.2,0-0.5,0-0.7c0.1-0.1,0.2-0.1,0.3-0.2h0.1
		c0,0,0-0.4-0.1-1c0-0.3-0.1-0.7-0.1-1.1c0-0.3-0.1-0.7-0.1-1.1c0-0.3-0.1-0.7-0.1-1.1s-0.1-0.7-0.1-1.1s-0.1-0.7-0.2-1.1
		c-0.1-0.4-0.1-0.7-0.2-1.1c-0.1-0.4-0.1-0.8-0.2-1.2c-0.1-0.4-0.1-0.8-0.2-1.2c-0.1-0.4-0.2-0.9-0.3-1.3c-0.1-0.5-0.2-1-0.4-1.4
		c-0.2-0.7-0.4-1.4-0.6-1.9c-0.2-0.5-0.4-1-0.6-1.3c-0.2-0.4-0.4-0.6-0.7-0.8c-0.1-0.1-0.3-0.2-0.4-0.3c-0.2-0.1-0.3-0.1-0.5-0.1
		c-0.1,0-0.2,0-0.3,0c-0.2-0.6-0.4-1.2-0.6-1.8l0.1-0.1c0.1-0.2,0.3-0.4,0.4-0.6l0,0c-0.1-0.4-0.2-0.7-0.4-1.1
		c-0.3-1.1-0.5-2.3-0.7-3.4c0.1,1,0.3,2.1,0.6,3.1c0.1,0.4,0.2,0.8,0.4,1.1c0.1-0.2,0.3-0.4,0.4-0.6c0,0.1,0,0.1,0.1,0.2l0,0
		c0.1-0.2,0.3-0.4,0.4-0.6l0.1-0.1c0.1-0.2,0.2-0.4,0.4-0.6c0-0.1,0.1-0.1,0.1-0.2c0.1-0.2,0.2-0.3,0.3-0.5c0.1-0.1,0.1-0.2,0.2-0.3
		c0.1-0.1,0.2-0.3,0.2-0.4c0.1-0.1,0.2-0.3,0.3-0.4s0.1-0.2,0.2-0.3c0.1-0.2,0.2-0.4,0.3-0.5c0-0.1,0.1-0.2,0.1-0.3
		c0.1-0.2,0.2-0.4,0.3-0.6c0-0.1,0.1-0.2,0.1-0.2c0.1-0.2,0.2-0.5,0.3-0.7c0-0.1,0.1-0.2,0.1-0.3c0.1-0.2,0.2-0.5,0.3-0.7
		c0.1-0.3,0.2-0.6,0.3-0.9c0-0.1,0-0.2,0.1-0.2c0.1-0.5,0.2-1,0.2-1.4c0-0.1,0-0.2,0-0.3c0-0.2,0-0.4-0.1-0.6c0,0,0.1-0.2,0.2-0.6
		c0.1-0.3,0.3-0.6,0.4-1c0.1-0.3,0.3-0.6,0.4-1c0.1-0.3,0.3-0.6,0.4-1c0.1-0.3,0.3-0.6,0.4-1c0.1-0.3,0.3-0.6,0.4-1
		c0.1-0.1,0.1-0.3,0.2-0.4c0.1-0.2,0.2-0.3,0.2-0.5c0.2-0.3,0.3-0.6,0.5-0.9c0-0.1,0.1-0.1,0.1-0.2c0.1-0.3,0.2-0.5,0.4-0.7
		c0.1-0.2,0.2-0.4,0.3-0.6c0.1-0.1,0.1-0.2,0.2-0.3c0.2-0.3,0.3-0.6,0.4-0.8c0,0,0-0.1,0.1-0.1c0.2-0.3,0.4-0.6,0.5-0.9
		c0-0.1,0.1-0.1,0.1-0.2c0.2-0.3,0.3-0.5,0.5-0.6c0.1-0.1,0.2-0.2,0.3-0.2c0,0,0.2-0.1,0.5-0.3c0.2-0.1,0.4-0.3,0.6-0.5l0.1-0.1
		c0.2-0.2,0.4-0.4,0.7-0.7c0.1-0.1,0.1-0.2,0.2-0.3c0.1-0.2,0.3-0.4,0.4-0.6c0-0.1,0.1-0.2,0.1-0.3c0.1-0.2,0.2-0.5,0.3-0.7v-0.1
		c0.1-0.2,0.1-0.4,0.1-0.6s0-0.4,0-0.7c0-0.2-0.1-0.3-0.1-0.5c0-0.1,0-0.1,0-0.2c-0.1-0.2-0.2-0.4-0.3-0.6l0,0c0,0-0.1,0-0.2,0
		c-0.1,0-0.3,0.1-0.5,0.3c-0.1,0.1-0.2,0.2-0.3,0.3c-0.2,0.2-0.4,0.4-0.6,0.8l0,0c-0.2,0.2-0.4,0.5-0.5,0.8c0,0.1-0.1,0.1-0.1,0.2
		c-0.1,0.2-0.3,0.4-0.4,0.7c-0.1,0.1-0.1,0.2-0.2,0.3c-0.1,0.2-0.2,0.4-0.3,0.6c-0.1,0.1-0.1,0.3-0.2,0.4c-0.1,0.2-0.2,0.3-0.3,0.5
		c-0.1,0.1-0.1,0.2-0.2,0.4l-0.1,0.1l-0.2,0.4l-0.3,0.7l-0.1,0.3l-0.5,0.9l0,0l-0.5,0.9l-0.2,0.4l-0.3,0.5l-0.5,0.9l-0.2,0.3
		l-0.3,0.6l-0.5,0.9l-0.5,0.9l-0.5,0.9l-0.5,0.9l-0.5,0.9l-0.5,0.9l-0.5,0.9l-0.3,0.5l-0.2,0.3l-0.4,0.9l-0.3,0.5l-0.2,0.3L189,297
		l-0.1,0.2l-0.4,0.7l-0.3,0.5l-0.2,0.4l-0.4,0.7l-0.1,0.1l-0.4,0.8c0,0,0-0.1-0.1-0.1c0,0.2,0.1,0.5,0.1,0.7c0-0.3-0.1-0.6-0.1-1
		c-0.1-0.1-0.1-0.2-0.2-0.4c0-0.3,0-0.7,0.1-1c0-0.7,0-1.5,0.1-2.2v-0.1l0,0c0.2-2.9,1.1-5.6,2.4-8.1c0-0.2,0-0.4-0.1-0.7
		c0-0.1,0-0.1,0-0.2l0,0c0-0.4-0.1-0.7-0.1-1.1c0-0.1,0-0.2,0-0.4c0-0.2-0.1-0.4-0.1-0.7c0-0.3-0.1-0.7-0.1-1c0-0.1,0-0.2,0-0.3
		c0-0.2-0.1-0.4-0.1-0.6c-0.1-0.3-0.1-0.6-0.2-0.9c0-0.2-0.1-0.3-0.1-0.5c0-0.1-0.1-0.3-0.1-0.4c-0.1-0.3-0.2-0.6-0.2-0.9
		c-0.1-0.3-0.2-0.6-0.3-0.9c0-0.1-0.1-0.2-0.1-0.2c-0.1-0.2-0.2-0.4-0.3-0.6c-0.1-0.3-0.3-0.6-0.4-0.8c0,0,0-0.1-0.1-0.1
		c0,0-0.1-0.4-0.2-0.9v-0.1c0-0.3-0.1-0.6-0.1-1c0-0.2,0-0.4,0-0.6s0-0.4,0-0.6s0-0.5,0-0.7c0-0.3,0.1-0.5,0.2-0.8
		c0-0.1,0.1-0.2,0.1-0.3c0.1-0.3,0.3-0.6,0.5-0.8c0-0.1,0.1-0.1,0.1-0.2l-0.4-0.1h-0.1l-1.2-0.4l1-0.4l-0.9-0.3H186
		c0,0-0.1-0.4-0.3-1c0-0.1-0.1-0.2-0.1-0.3c-0.1-0.3-0.2-0.6-0.3-0.9c-0.1-0.4-0.3-0.7-0.4-1.1c0,0,0-0.1-0.1-0.1
		c-0.1-0.3-0.3-0.7-0.4-1c-0.2-0.4-0.3-0.8-0.5-1.2V265c-0.3-0.3-0.6-0.6-0.9-0.8c-0.2-0.2-0.5-0.5-0.7-0.7l0.2-0.6l0.1-0.4
		c-0.2-0.3-0.4-0.6-0.6-1c-0.3-0.4-0.5-0.8-0.8-1.1c-0.3-0.4-0.7-0.8-1-1.1c-0.4-0.3-0.8-0.6-1.2-0.8l-0.1-0.1l-1-1.1l-0.1-0.1
		l-0.7-1.1l0.8,0.1h0.6c0,0-0.3-0.4-0.8-0.8c-0.4-0.3-1-0.6-1.6-0.6c-0.1,0-0.3,0-0.4,0.1l0,0l0,0l0,0c-0.2,0.1-0.4,0.1-0.7,0.3
		c-0.2,0.1-0.5,0.3-0.8,0.6l0,0l-0.3,0.2c-0.4-0.3-0.8-0.6-1.1-0.9c-0.5-0.3-1-0.7-1.6-0.9c-0.6-0.3-1.2-0.6-1.8-0.8
		c-0.3-0.1-0.5-0.2-0.8-0.3c-0.2-0.1-0.4-0.1-0.6-0.2c0,0-0.2,0-0.7-0.1c-0.3-0.1-0.7-0.1-1.2-0.2c-0.4-0.1-0.8-0.1-1.2-0.2
		c-0.3,0-0.7-0.1-1-0.1c-0.5,0-1-0.1-1.5-0.1c-0.2,0-0.4,0-0.6,0c-0.7,0-1.3,0-2,0c-0.1,0-0.1,0-0.1,0c-0.6,0-1.1,0-1.6,0.1
		c-0.5,0-1,0.1-1.4,0.2c0,0,0,0-0.1,0c-0.4,0.1-0.9,0.2-1.2,0.4c-0.2,0.1-0.5,0.2-0.7,0.3c-0.2,0-0.4,0-0.6,0
		c-0.4,0-0.7,0.1-1.1,0.3c-0.1,0-0.1,0-0.2,0.1c-0.4,0.1-0.7,0.3-1.1,0.4c-0.3,0.1-0.6,0.3-1,0.5c-0.3,0.2-0.6,0.3-0.9,0.5
		c-0.3,0.2-0.6,0.3-0.9,0.5c-0.2,0.1-0.3,0.2-0.5,0.3c-0.1,0.1-0.2,0.2-0.4,0.2c-0.3,0.2-0.5,0.4-0.8,0.5c-0.3,0.2-0.5,0.4-0.8,0.6
		s-0.5,0.4-0.7,0.6s-0.5,0.4-0.7,0.6s-0.5,0.4-0.7,0.6c-0.3,0.2-0.5,0.4-0.7,0.6c-0.3,0.3-0.5,0.5-0.6,0.6l0,0l-0.1,0.1
		c-0.2,0.2-0.3,0.3-0.5,0.5s-0.3,0.4-0.5,0.6s-0.3,0.4-0.5,0.6c-0.1,0.2-0.3,0.4-0.4,0.6c-0.1,0.2-0.3,0.4-0.4,0.6
		c-0.1,0.2-0.2,0.4-0.3,0.6s-0.2,0.4-0.3,0.6s-0.2,0.4-0.3,0.6s-0.2,0.4-0.2,0.6c-0.1,0.2-0.1,0.4-0.2,0.6c-0.5-0.1-1-0.3-1.4-0.4
		c-0.2,0-0.4,0.1-0.5,0.1c-0.2,0.1-0.4,0.2-0.5,0.3c-0.2,0.2-0.4,0.3-0.5,0.5s-0.2,0.4-0.3,0.6s-0.2,0.4-0.2,0.6
		c-0.1,0.3-0.1,0.6-0.1,0.6l0.6-0.5c0,0,0,0,0.1,0c0.2,0,0.3,0.1,0.5,0.1v0.6v0.6v0.6v0.2c-0.1,0.1-0.2,0.2-0.3,0.3
		c-0.1,0.2-0.2,0.4-0.3,0.5c-0.1,0.2-0.2,0.4-0.2,0.6c-0.1,0.2-0.1,0.4-0.2,0.6c0,0.2-0.1,0.4-0.1,0.6s-0.1,0.4-0.1,0.6
		s0,0.4-0.1,0.6c0,0.2,0,0.4,0,0.6s0,0.4,0,0.6s0,0.4,0,0.6s0,0.4,0,0.6s0,0.4,0,0.6s0,0.4,0,0.6l0,0c0,0.2,0,0.4,0,0.6
		s0,0.4,0.1,0.6c0,0.2,0,0.4,0.1,0.6c0,0.2,0,0.4,0.1,0.6c0,0.2,0.1,0.4,0.1,0.6s0.1,0.4,0.1,0.6s0.1,0.4,0.1,0.6s0.1,0.4,0.1,0.5
		c0,0.2,0.1,0.4,0.1,0.5c0,0.2,0.1,0.4,0.1,0.5c0,0.2,0.1,0.3,0.1,0.5c0,0,0,0,0,0.1c0,0.2,0.1,0.4,0.1,0.5c0.1,0.3,0.1,0.5,0.1,0.5
		v0.1l-0.3,0.3l-0.3,0.4l-0.1,0.1l-0.2,0.3l-0.3,0.4l-0.3,0.4l-0.3,0.4l-0.2,0.2c0.4,0.1,0.7,0.3,1,0.5l0,0c0.3,0.2,0.5,0.4,0.7,0.7
		c0.2,0.2,0.3,0.4,0.4,0.6c0.1,0.2,0.3,0.4,0.4,0.6c0.1,0.2,0.2,0.4,0.3,0.6c0,0,0,0.1,0.1,0.1c0.1,0.1,0.1,0.3,0.2,0.4
		c0.1,0.2,0.2,0.4,0.2,0.5c0.1,0.2,0.2,0.4,0.2,0.5s0,0.1,0,0.1c0,0.1,0,0.2,0,0.4c0,0.2,0,0.3,0.1,0.5c0,0.2,0,0.3,0.1,0.5
		c0,0.2,0.1,0.3,0.1,0.5s0.1,0.3,0.1,0.5s0.1,0.3,0.1,0.5s0.1,0.3,0.1,0.5c0.1,0.2,0.1,0.3,0.2,0.5c0.1,0.2,0.1,0.3,0.2,0.5
		c0,0.1,0.1,0.3,0.2,0.4v0.1c0.1,0.2,0.1,0.4,0.2,0.5c0.1,0.2,0.1,0.4,0.2,0.5c0.1,0.2,0.1,0.4,0.2,0.6c0.1,0.2,0.2,0.4,0.2,0.6
		c0.1,0.2,0.2,0.4,0.3,0.6s0.2,0.4,0.3,0.6s0.2,0.4,0.3,0.6s0.2,0.4,0.3,0.7c0,0,0,0.1,0.1,0.1c0.1,0.2,0.2,0.4,0.3,0.5
		c0.1,0.2,0.3,0.5,0.4,0.7c0.1,0.3,0.3,0.5,0.4,0.8c0.2,0.3,0.3,0.6,0.5,0.8c0.2,0.3,0.4,0.6,0.5,0.9c0.1,0.2,0.2,0.4,0.4,0.6
		c0.1,0.2,0.2,0.3,0.3,0.5c0.3,0.6,0.6,1,0.8,1.4c0.2,0.3,0.3,0.5,0.3,0.5l-0.7-0.4l-0.6-0.3l-0.4-0.2l-1.1-0.7l-0.7-0.4l-0.7-0.4
		l-1.6-0.9l-0.5-0.3l-1.7-1l-2.3-1.4l-0.5-0.3l-1.9-1.1l-0.2-0.1l-1-0.6c-0.1-0.1-0.2-0.1-0.4-0.2c-0.3-0.2-0.6-0.3-0.8-0.5
		c-0.1-0.1-0.2-0.1-0.3-0.2c-0.4-0.2-0.8-0.5-1.2-0.6c-0.4-0.2-0.7-0.3-0.9-0.4c-0.1-0.1-0.3-0.1-0.4-0.2c-1.3-0.5-1.8-0.4-2-0.3
		c-0.1,0-0.1,0.1-0.1,0.1c0,0.1,0,0.1,0,0.2s0,0.2,0,0.3c0,0.1,0,0.2,0.1,0.3c0,0.1,0.1,0.2,0.1,0.3c0,0.1,0.1,0.2,0.2,0.3
		c0.1,0.1,0.1,0.2,0.2,0.3c0.1,0.1,0.2,0.2,0.3,0.3c0.1,0.1,0.2,0.3,0.4,0.4c0.2,0.2,0.4,0.3,0.6,0.4s0.5,0.3,0.8,0.4
		c0.9,0.4,1.9,0.5,2.4,0.6c0.1,0,0.2,0,0.3,0c0.7,0.2,1.4,0.5,2.1,0.8c0.1,0.1,0.3,0.1,0.4,0.2c0.6,0.3,1.3,0.7,2,1.2
		c0.8,0.5,1.6,1,2.4,1.5c0.8,0.5,1.6,1.1,2.3,1.6c0.2,0.2,0.4,0.3,0.6,0.4c0.7,0.5,1.3,0.9,1.6,1.1l0.1,0.1c0.1,0.1,0.2,0.2,0.2,0.2
		c0.3,0.8,1.1,1.6,2.1,2.4c0.1,0.1,0.2,0.1,0.3,0.2c0.2,0.1,0.4,0.3,0.6,0.4c0.2,0.2,0.4,0.3,0.7,0.5c0.2,0.1,0.4,0.3,0.6,0.4
		c0.1,0.1,0.3,0.2,0.4,0.3l0.1,0.1c0.2,0.1,0.4,0.2,0.6,0.3c0.2,0.1,0.4,0.2,0.5,0.3c0.2,0.1,0.3,0.2,0.5,0.3
		c0.2,0.1,0.3,0.2,0.5,0.3l0,0c0.2,0.1,0.3,0.2,0.5,0.2c0.2,0.1,0.3,0.2,0.5,0.2c0.2,0.1,0.3,0.2,0.5,0.2c0.2,0.1,0.3,0.2,0.5,0.2
		c0.1,0.1,0.2,0.1,0.3,0.2c0,0,0.1,0,0.1,0.1c0.2,0.1,0.3,0.1,0.5,0.2s0.3,0.1,0.5,0.2s0.3,0.1,0.5,0.2c0.2,0.6,0.5,1.2,0.7,1.8
		c-0.1,0-0.2,0-0.3,0.1c-0.1,0-0.2,0.1-0.3,0.2s-0.2,0.2-0.3,0.3c-0.1,0.1-0.1,0.2-0.2,0.4c0,0,0,0,0,0.1c-0.1,0.2-0.1,0.4-0.1,0.7
		c0,0.4,0,0.9,0.1,1.4c0.1,0.8,0.3,1.6,0.6,2.6c0.2,0.6,0.4,1.3,0.6,1.9c0.1,0.4,0.3,0.8,0.5,1.2c0.1,0.3,0.3,0.7,0.4,1
		c0,0.1,0.1,0.2,0.1,0.3c0.1,0.2,0.2,0.4,0.3,0.7c0.1,0.3,0.2,0.5,0.3,0.8s0.2,0.5,0.3,0.8c0.1,0.2,0.2,0.5,0.3,0.7s0.2,0.5,0.3,0.7
		s0.2,0.4,0.3,0.7c0.1,0.2,0.2,0.4,0.3,0.6s0.2,0.4,0.3,0.6s0.2,0.4,0.3,0.6s0.2,0.4,0.3,0.6c0.2,0.3,0.3,0.6,0.3,0.6l0,0
		c0.1,0,0.3-0.1,0.4-0.1c0.1,0,0.3,0,0.4,0.1c0.1,0,0.2,0.1,0.4,0.2c0.1,0.1,0.2,0.2,0.3,0.3c0.1,0.1,0.2,0.3,0.3,0.4
		c0.1,0.2,0.2,0.4,0.3,0.5c0.1,0.2,0.2,0.4,0.3,0.7c0.1,0.3,0.2,0.5,0.3,0.8c0.1,0.4,0.2,0.7,0.2,0.9c0,0.1,0,0.1,0,0.1l0.6-1.1
		l0.1-0.1l0.7-1.3l0.1-0.2c0.1,0.1,0.2,0.2,0.3,0.3c0.1,0.2,0.2,0.4,0.3,0.6c0.1,0.4,0.2,0.8,0.2,1.2c0,0.5,0,0.9-0.1,1.3
		c-0.1,0.6-0.2,1-0.2,1c-0.1,0.1-0.3,0.2-0.4,0.3c-0.1,0.1-0.3,0.3-0.4,0.4c-0.1,0.1-0.2,0.2-0.3,0.3c-0.3,0.4-0.6,0.9-0.8,1.5
		c-0.3,0.7-0.4,1.4-0.5,2.1c0,0.1,0,0.1,0,0.2c-0.1,0.4-0.1,0.9-0.1,1.3s0,0.8,0,1.1c0,0.2,0,0.3,0,0.4c0,0.2,0,0.4,0,0.5
		C160.6,348.5,160.6,348.6,160.6,348.6z M146.5,308.8l-0.8-0.4l-0.1-0.1h0.4h0.4l0,0h0.4h0.4h0.4h0.4c0.1,0.1,0.2,0.2,0.3,0.4
		c0.6,0.8,1.2,1.6,1.7,2.5l-0.6-0.4l-0.7-0.4l-0.1-0.1l-0.6-0.4l-0.7-0.4L146.5,308.8L146.5,308.8z"/>
	
		<pattern  id="SVGID_14_" xlink:href="#譁ｰ隕上ヱ繧ｿ繝ｼ繝ｳ繧ｹ繧ｦ繧ｩ繝メ_5" patternTransform="matrix(0.3171 -6.027919e-02 6.027919e-02 0.3171 -10588.9111 6054.896)">
	</pattern>
	<path class="st15" d="M188.4,298.3c0-0.7,0-1.4,0-2.1l0,0c0.2-2.9,1.1-5.6,2.4-8.1c0,0.4,0.1,0.8,0.1,1.2c0,0,0,0,0,0.1
		c-1,2.2-1.7,4.5-1.9,6.9l-0.5,0.3c0-0.1-0.1-0.2-0.1-0.3c0,0.5,0,1,0,1.5C188.4,298,188.4,298.1,188.4,298.3z"/>
	
		<pattern  id="SVGID_15_" xlink:href="#譁ｰ隕上ヱ繧ｿ繝ｼ繝ｳ繧ｹ繧ｦ繧ｩ繝メ_5" patternTransform="matrix(0.3171 -6.027919e-02 6.027919e-02 0.3171 -10588.3115 6053.396)">
	</pattern>
	<path class="st16" d="M191,290.8c0,0.1,0,0.3,0,0.4c0,0.4,0,0.8,0,1.2c0,0.2,0,0.4,0,0.6c0,0.7,0,1.3,0,1.7l0,0c0,0.4,0,0.6,0,0.6
		l-0.1,0.1l-0.4,0.2l-0.3,0.2l-0.4,0.2l-0.2,0.1l-0.4,0.3l-0.2,0.1c0.2-2.4,0.8-4.8,1.9-6.9C191,289.9,191,290.4,191,290.8z"/>
</g>
<g>
	
		<pattern  id="SVGID_16_" xlink:href="#譁ｰ隕上ヱ繧ｿ繝ｼ繝ｳ繧ｹ繧ｦ繧ｩ繝メ_5" patternTransform="matrix(0.3142 -0.3723 0.3723 0.3142 -10641.3311 5928.5083)">
	</pattern>
	<path class="st17" d="M275.6,478.5l-0.2-0.3c0-0.2-0.1-0.3-0.1-0.5c-0.1-0.5-0.2-0.9-0.3-1.4l0.7,0.1l0.4,0.1
		c-0.2,0-0.4-0.2-0.6-0.5c-0.3-0.3-0.6-0.8-0.9-1.4c-0.2-0.3-0.3-0.6-0.5-0.9c-0.4-0.7-0.7-1.5-1.1-2.3c-0.7-1.6-1.2-2.9-1.2-2.9
		c0-0.1,0-0.1,0-0.2c0-0.2,0.1-0.4,0.1-0.6c0.1-0.5,0.1-1,0.1-1.5c0-0.3-0.1-0.5-0.1-0.8c-0.3-1.2-0.9-2.2-1.6-3l-0.1-0.1
		c-0.4-0.5-0.9-0.9-1.4-1.2c-0.4-0.3-0.8-0.5-1.2-0.7c-0.5-0.3-0.9-0.4-1.1-0.5c-0.1,0-0.2-0.1-0.2-0.1s-0.3-0.1-0.8-0.2
		c-0.2-0.1-0.5-0.2-0.9-0.3c-0.3-0.1-0.6-0.2-0.9-0.3c-0.3-0.1-0.6-0.2-0.9-0.3c-0.3-0.1-0.6-0.2-0.9-0.3c-0.3-0.1-0.6-0.2-0.9-0.3
		c-0.3-0.1-0.6-0.2-1-0.3c-0.3-0.1-0.6-0.2-1-0.3c-0.3-0.1-0.6-0.2-1-0.3c-0.3-0.1-0.6-0.2-1-0.3c-0.3-0.1-0.7-0.2-1-0.3
		c-0.3-0.1-0.7-0.2-1-0.4c-0.4-0.1-0.7-0.2-1-0.4c-0.4-0.1-0.8-0.3-1.1-0.4c-0.4-0.2-0.8-0.3-1.2-0.5c-0.5-0.2-0.9-0.4-1.3-0.6
		c-0.2-0.2-0.4-0.4-0.6-0.6c-0.2-0.2-0.3-0.3-0.5-0.5c0.3,0,0.5,0,0.8,0s0.5,0,0.8,0s0.5,0,0.8,0s0.5,0,0.8-0.1c0.2,0,0.5,0,0.7-0.1
		c0.2,0,0.5,0,0.7-0.1c0.2,0,0.5-0.1,0.7-0.1c0.1,0,0.1,0,0.2,0c0.2,0,0.3,0,0.5-0.1c0.2,0,0.5-0.1,0.7-0.1s0.5-0.1,0.7-0.1
		c0.3,0,0.5-0.1,0.7-0.1c0.3,0,0.5-0.1,0.7-0.1s0.5-0.1,0.7-0.1c0.3,0,0.5-0.1,0.7-0.1s0.5-0.1,0.6-0.1c0,0,0,0,0.1,0
		c0.3-0.1,0.5-0.1,0.5-0.1c0.2,0.2,0.4,0.3,0.6,0.4h0.1c0.4,0.2,0.8,0.4,1.2,0.6c0.3,0.1,0.7,0.2,1,0.3c0.3,0.1,0.6,0.1,1,0.2
		c0.3,0,0.6,0.1,0.9,0.1c0.2,0,0.4,0,0.5,0s0.2,0,0.4,0c0.3,0,0.6,0,0.9,0s0.6,0,0.8,0c0.3,0,0.6,0,0.8,0c0.3,0,0.6,0,0.8,0
		c0.4,0,0.7,0,0.8,0h0.1c0.5,0.5,1,0.8,1.4,1.1c0,0,0.1,0,0.1,0.1c0.4,0.2,0.7,0.3,1.1,0.4c0.3,0.1,0.6,0.1,0.9,0.1s0.6,0,0.8-0.1
		c0.2,0,0.4-0.1,0.5-0.1s0.2,0,0.2-0.1c0.2-0.1,0.5-0.2,0.7-0.3c0.2-0.1,0.5-0.2,0.7-0.3c0.2-0.1,0.4-0.3,0.7-0.4
		c0.2-0.1,0.4-0.3,0.6-0.5s0.4-0.3,0.6-0.5l0.1-0.1c0.2-0.1,0.3-0.3,0.5-0.4c0.2-0.2,0.4-0.4,0.6-0.6s0.4-0.4,0.6-0.6
		s0.4-0.4,0.6-0.7l0,0c0.2-0.2,0.4-0.5,0.5-0.7c0.2-0.3,0.4-0.5,0.5-0.7c0.2-0.3,0.4-0.5,0.5-0.8c0,0,0-0.1,0.1-0.1
		c0.2-0.3,0.4-0.5,0.5-0.7s0.2-0.3,0.2-0.3s0.1-0.2,0.4-0.5c0.2-0.2,0.3-0.5,0.6-0.7l0,0c0.2-0.2,0.3-0.5,0.5-0.7
		c0.2-0.3,0.4-0.5,0.5-0.8c0.1-0.2,0.3-0.4,0.4-0.6c0-0.1,0.1-0.1,0.1-0.2c0.2-0.3,0.3-0.6,0.5-0.9s0.3-0.6,0.5-1c0,0,0,0,0-0.1
		c0.1-0.3,0.3-0.6,0.4-1s0.3-0.8,0.4-1.1l0,0c0.1-0.4,0.2-0.9,0.2-1.3c0-0.2,0-0.5,0-0.7c0-0.3,0-0.7-0.1-1s-0.1-0.6-0.3-0.9
		c-0.3-0.7-0.7-1.3-1.3-1.8c-0.3-0.3-0.7-0.5-1.1-0.7c-0.2-0.2-0.4-0.5-0.6-0.7c0-0.1-0.1-0.2-0.1-0.3c-0.1-0.5-0.3-1.1-0.6-1.8
		c-0.1-0.2-0.1-0.3-0.2-0.5c-0.2-0.4-0.3-0.8-0.5-1.2c-0.3-0.6-0.5-1.1-0.8-1.7c-0.1-0.1-0.1-0.2-0.2-0.3c-0.3-0.5-0.6-0.9-0.9-1.3
		c-0.4-0.5-0.9-0.9-1.4-1.2c0,0,0-0.2-0.1-0.4c0-0.3-0.1-0.7-0.2-1.2c0-0.1,0-0.2-0.1-0.4c-0.1-0.4-0.1-0.8-0.2-1.3
		c0-0.1,0-0.1,0-0.2c-0.1-0.5-0.2-0.9-0.3-1.5c0,0,0,0,0-0.1c-0.1-0.4-0.2-0.9-0.3-1.4c0-0.1-0.1-0.3-0.1-0.4
		c-0.1-0.3-0.2-0.7-0.3-1c-0.1-0.3-0.1-0.5-0.2-0.8c-0.1-0.2-0.1-0.4-0.2-0.6c-0.1-0.4-0.3-0.9-0.4-1.3c0.6,0.5,1.1,1,1.6,1.4
		c0.5,0.5,1.1,1,1.6,1.4c0.5,0.5,1,0.9,1.5,1.4c0.3,0.3,0.7,0.7,1,1c0.1,0.1,0.2,0.3,0.3,0.4c0.4,0.5,0.7,0.9,1.1,1.4s0.7,1,1.1,1.4
		c0.4,0.5,0.7,1,1.1,1.5c0.4,0.6,0.8,1.1,1.1,1.5c0.6,0.9,1,1.4,1.1,1.5l0,0c0.1,0.1,0.7,0.8,1.6,1.5c0.5,0.3,1,0.7,1.6,1
		c0.3,0.1,0.5,0.2,0.8,0.3c0.3,0.1,0.7,0.2,1,0.3c0.5,0.1,0.9,0.2,1.4,0.2c0.4,0,0.8-0.1,1.2-0.2c0.4-0.1,0.7-0.2,1.1-0.4
		c0.3-0.1,0.6-0.3,1-0.5c0.1-0.1,0.2-0.1,0.3-0.2c0,0,0.3,0,0.9,0c0.4,0,0.9,0,1.4,0.1c0.4,0,0.7,0,1.1,0.1c0.1,0,0.2,0,0.3,0
		c0.5,0,1,0.1,1.5,0.1c0.5,0.1,1,0.1,1.5,0.2c0.3,0,0.5,0.1,0.7,0.1c0.3,0.1,0.6,0.1,0.8,0.2c0.4,0.1,0.6,0.2,0.7,0.4l-0.5-1
		l-0.5-0.9l0.8,0.2l0.8,0.2l1,0.3l0.2,0.1c0,0-0.1,0-0.3-0.1c-0.2-0.1-0.4-0.2-0.8-0.3c-0.3-0.1-0.7-0.2-1.1-0.4
		c-0.5-0.2-1-0.3-1.6-0.5c-0.1,0-0.1,0-0.2-0.1c-0.5-0.1-1.1-0.2-1.6-0.3c-0.5-0.1-1-0.2-1.5-0.2h-0.1c-0.5,0-1-0.1-1.4,0
		c-0.4,0-0.9,0-1.3,0.1s-0.8,0.1-1.2,0.2c-0.4,0.1-0.7,0.2-1.1,0.4c-0.2-0.2-0.4-0.5-0.5-0.7c-0.4-0.5-0.7-1-1.1-1.4
		c-0.4-0.5-0.7-0.9-1.1-1.4s-0.7-0.9-1.1-1.4c-0.4-0.4-0.7-0.9-1.1-1.3s-0.8-0.9-1.1-1.3c-0.2-0.3-0.5-0.5-0.7-0.8
		c0-0.2,0.1-0.4,0.2-0.5c0-0.1,0.1-0.1,0.1-0.2c0,0-0.4-0.4-1-1.1c-0.3-0.3-0.7-0.7-1.2-1.2c-0.4-0.4-0.8-0.8-1.2-1.2
		c-0.4-0.4-0.8-0.7-1.2-1.1c-0.4-0.4-0.8-0.8-1.2-1.2c-0.4-0.4-0.8-0.8-1.2-1.1c-0.4-0.4-0.8-0.8-1.3-1.1c-0.4-0.4-0.9-0.8-1.3-1.2
		c-0.5-0.4-0.9-0.8-1.4-1.2c-0.5-0.4-1-0.8-1.5-1.2c-0.6-0.5-1.2-0.9-1.8-1.3c-0.9-0.6-1.8-1.2-2.6-1.7c-0.7-0.4-1.4-0.7-2-1
		c-0.6-0.2-1.1-0.3-1.6-0.3c-0.3,0-0.5,0-0.7,0.1c-0.3,0.1-0.5,0.2-0.7,0.4c-0.1,0.1-0.2,0.2-0.3,0.3c-0.8-0.5-1.6-1-2.4-1.5
		c0-0.1,0-0.1,0-0.2c0-0.3-0.1-0.7-0.1-1.1v-0.1c-0.5-0.3-1-0.6-1.5-1c-1.4-1-2.8-2.1-4-3.3c1.1,1.1,2.4,2.1,3.7,3
		c0.5,0.3,1,0.7,1.5,1c0-0.3-0.1-0.7-0.1-1.1c0.1,0.1,0.2,0.1,0.3,0.2l0,0c0-0.4-0.1-0.8-0.1-1.2c0-0.1,0-0.1,0-0.2
		c0-0.3-0.1-0.7-0.1-1c0-0.1,0-0.2,0-0.4c0-0.3-0.1-0.6-0.1-0.8c0-0.2-0.1-0.4-0.1-0.6s-0.1-0.5-0.1-0.7c0-0.3-0.1-0.5-0.1-0.8
		c0-0.2-0.1-0.4-0.1-0.5c-0.1-0.3-0.1-0.6-0.2-0.9c0-0.1-0.1-0.3-0.1-0.4c-0.1-0.4-0.1-0.7-0.2-1.1c0-0.1-0.1-0.3-0.1-0.4
		c-0.1-0.4-0.2-0.8-0.3-1.2c0-0.2-0.1-0.3-0.1-0.5c-0.1-0.4-0.2-0.7-0.3-1.1c-0.2-0.5-0.3-0.9-0.5-1.3c0-0.1-0.1-0.2-0.1-0.3
		c-0.3-0.7-0.7-1.3-1-1.8c-0.1-0.1-0.2-0.2-0.3-0.3c-0.2-0.3-0.4-0.5-0.7-0.7c0,0-0.1-0.3-0.2-0.9c-0.1-0.4-0.3-0.9-0.4-1.5
		c-0.1-0.5-0.3-1-0.4-1.5s-0.3-1-0.4-1.6c-0.1-0.5-0.3-1-0.4-1.5s-0.3-1-0.4-1.5c-0.1-0.2-0.1-0.5-0.2-0.7c-0.1-0.3-0.1-0.6-0.2-0.8
		c-0.1-0.5-0.2-1-0.4-1.5c0-0.1,0-0.2-0.1-0.3c-0.1-0.4-0.2-0.8-0.3-1.2c-0.1-0.3-0.1-0.7-0.2-1c0-0.2-0.1-0.4-0.1-0.6
		c-0.1-0.5-0.2-1-0.3-1.4c0-0.1,0-0.1,0-0.2c-0.1-0.6-0.2-1.1-0.2-1.5c0-0.1,0-0.2,0-0.3c-0.1-0.5-0.1-0.9-0.1-1.2
		c0-0.3,0.1-0.5,0.2-0.5c0,0,0.1-0.3,0.2-0.8c0.1-0.3,0.2-0.7,0.2-1.2c0-0.1,0-0.1,0-0.2c0.1-0.5,0.1-0.9,0.1-1.5c0-0.2,0-0.3,0-0.5
		c0-0.3,0-0.7-0.1-1.1c0-0.1-0.1-0.3-0.1-0.4c-0.1-0.4-0.2-0.8-0.4-1.2v-0.1c-0.1-0.3-0.3-0.6-0.5-0.8c-0.2-0.3-0.4-0.5-0.7-0.8
		c-0.2-0.2-0.4-0.3-0.6-0.5c-0.1,0-0.1-0.1-0.2-0.1c-0.3-0.2-0.6-0.3-0.9-0.5l0,0c0,0-0.1,0-0.3,0.2c-0.1,0.1-0.2,0.4-0.3,0.8
		c0,0.2-0.1,0.4-0.1,0.6c0,0.4-0.1,0.9,0,1.5v0.1c0,0.4,0.1,0.9,0.1,1.5c0,0.1,0,0.3,0,0.4c0,0.4,0.1,0.8,0.2,1.2
		c0,0.2,0.1,0.4,0.1,0.6c0.1,0.3,0.1,0.6,0.2,1c0,0.2,0.1,0.5,0.1,0.7c0.1,0.3,0.1,0.6,0.2,0.9c0,0.2,0.1,0.4,0.1,0.6v0.2l0.1,0.7
		l0.2,1.1l0.1,0.4l0.3,1.5l0,0l0.3,1.5l0.1,0.7l0.2,0.8l0.3,1.5l0.1,0.5l0.2,1l0.3,1.5l0.3,1.5l0.3,1.5l0.3,1.5l0.3,1.5l0.3,1.5
		l0.3,1.5l0.2,0.9l0.1,0.6l0.3,1.4l0.2,0.9l0.1,0.6l0.3,1.4l0.1,0.3l0.2,1.2l0.2,0.8l0.1,0.6l0.3,1.2v0.2l0.3,1.4
		c-0.1,0-0.1-0.1-0.2-0.1c0.2,0.2,0.5,0.5,0.8,0.7c-0.4-0.3-0.7-0.7-1.1-1c-0.2-0.1-0.3-0.2-0.5-0.3c-0.3-0.4-0.6-0.8-0.9-1.3
		c-0.7-0.8-1.4-1.7-2-2.6l-0.1-0.1l0,0c-2.4-3.6-4.1-7.6-4.9-11.7c-0.2-0.2-0.5-0.5-0.7-0.7c-0.1-0.1-0.1-0.1-0.2-0.2l0,0
		c-0.4-0.4-0.8-0.8-1.1-1.1c-0.1-0.1-0.3-0.3-0.4-0.4c-0.2-0.2-0.5-0.5-0.7-0.7c-0.4-0.3-0.7-0.7-1.1-1c-0.1-0.1-0.2-0.2-0.4-0.3
		c-0.2-0.2-0.5-0.4-0.7-0.6c-0.4-0.3-0.7-0.6-1.1-0.9c-0.2-0.2-0.4-0.3-0.6-0.5c-0.2-0.1-0.3-0.3-0.5-0.4c-0.4-0.3-0.8-0.6-1.2-0.8
		c-0.4-0.3-0.8-0.5-1.2-0.8c-0.1-0.1-0.2-0.1-0.3-0.2c-0.3-0.2-0.6-0.3-0.9-0.5c-0.4-0.2-0.8-0.4-1.3-0.6c-0.1,0-0.1-0.1-0.2-0.1
		c0,0-0.4-0.3-1.1-0.9c-0.1,0-0.1-0.1-0.2-0.1c-0.3-0.3-0.7-0.6-1.1-1c-0.2-0.2-0.4-0.4-0.6-0.7c-0.2-0.2-0.4-0.5-0.6-0.7
		c-0.2-0.3-0.4-0.6-0.6-0.9c-0.2-0.3-0.4-0.7-0.5-1c-0.1-0.2-0.1-0.3-0.2-0.5c-0.2-0.5-0.2-0.9-0.2-1.4c0-0.1,0-0.2,0-0.3l-0.6,0.2
		l-0.2,0.1l-1.8,0.7l-0.5,0.2l-1.3,0.5l-0.2,0.1c0,0-0.5-0.3-1.3-0.8c-0.1-0.1-0.2-0.1-0.4-0.2c-0.4-0.2-0.8-0.5-1.2-0.7
		c-0.5-0.3-1-0.6-1.6-0.9c-0.1,0-0.1-0.1-0.2-0.1c-0.5-0.3-1-0.5-1.5-0.8c-0.6-0.3-1.1-0.6-1.7-0.9c0,0-0.1,0-0.1-0.1
		c-0.6-0.1-1.2-0.1-1.8-0.1c-0.5,0-1-0.1-1.5-0.1l-0.3-0.8l-0.2-0.6c-0.5-0.2-1.1-0.4-1.6-0.5c-0.7-0.2-1.4-0.4-2-0.5
		c-0.8-0.2-1.5-0.3-2.2-0.3c-0.8,0-1.5,0-2.2,0.2h-0.2l-2.3-0.4h-0.2l-1.9-0.6l1-0.7l0.8-0.5c0,0-0.8-0.2-1.7-0.2
		c-0.8,0-1.7,0.2-2.4,0.9c-0.2,0.1-0.3,0.3-0.4,0.5l0,0l0,0l0,0c-0.2,0.3-0.4,0.6-0.5,0.9c-0.2,0.4-0.3,0.9-0.3,1.4l0,0l-0.2,0.5
		c-0.7,0-1.4,0-2.2,0.1c-0.9,0.1-1.8,0.2-2.7,0.4c-1,0.2-1.9,0.5-2.9,0.8c-0.4,0.1-0.8,0.3-1.2,0.5c-0.3,0.1-0.6,0.3-0.9,0.4
		c0,0-0.3,0.2-0.9,0.5c-0.4,0.2-0.9,0.6-1.6,0.9c-0.5,0.3-1,0.6-1.6,1c-0.4,0.3-0.9,0.6-1.3,0.9c-0.6,0.4-1.2,0.9-1.9,1.3
		c-0.2,0.2-0.5,0.4-0.7,0.5c-0.8,0.6-1.6,1.2-2.3,1.8c-0.1,0-0.1,0.1-0.2,0.1c-0.6,0.5-1.2,1.1-1.8,1.7c-0.5,0.5-1,1.1-1.5,1.6
		c0,0,0,0.1-0.1,0.1c-0.4,0.5-0.8,1.1-1.1,1.6c-0.2,0.3-0.3,0.7-0.5,1c-0.2,0.2-0.4,0.4-0.6,0.6c-0.4,0.4-0.7,0.9-1,1.4
		c-0.1,0.1-0.1,0.2-0.2,0.3c-0.3,0.5-0.6,1-0.9,1.6c-0.2,0.5-0.5,1-0.7,1.5s-0.4,1-0.6,1.4c-0.2,0.5-0.3,0.9-0.5,1.4
		c-0.1,0.3-0.2,0.5-0.2,0.8c-0.1,0.2-0.1,0.4-0.2,0.6c-0.1,0.5-0.3,0.9-0.4,1.4c-0.1,0.5-0.2,0.9-0.4,1.4c-0.1,0.5-0.2,0.9-0.3,1.3
		c-0.1,0.5-0.2,0.9-0.3,1.3c-0.1,0.5-0.2,0.9-0.3,1.3c-0.1,0.5-0.2,0.9-0.2,1.3c-0.1,0.6-0.2,1.1-0.2,1.3l0,0c0,0.1,0,0.1,0,0.1
		c0,0.4-0.1,0.7-0.1,1.1s0,0.8,0,1.2c0,0.4,0,0.8,0,1.1c0,0.4,0.1,0.7,0.1,1.1s0.1,0.7,0.2,1.1c0.1,0.3,0.1,0.7,0.2,1
		c0.1,0.3,0.2,0.7,0.2,1c0.1,0.3,0.2,0.7,0.3,1s0.2,0.6,0.3,1c0.1,0.3,0.2,0.6,0.3,0.9c-0.7,0.3-1.4,0.6-2.1,0.9
		c-0.2,0.2-0.4,0.4-0.5,0.7c-0.2,0.3-0.3,0.5-0.3,0.8c-0.1,0.4-0.1,0.8-0.1,1.1c0,0.3,0.1,0.7,0.2,1c0.1,0.3,0.2,0.6,0.3,0.9
		c0.2,0.5,0.5,0.8,0.5,0.8l0.3-1.1h0.1c0.2-0.1,0.4-0.2,0.7-0.3l0.6,0.8l0.6,0.8l0.6,0.8l0.2,0.3c0,0.2,0,0.4,0,0.7
		c0,0.3,0.1,0.6,0.2,0.9c0.1,0.3,0.2,0.6,0.3,0.9s0.2,0.6,0.4,0.8c0.1,0.3,0.3,0.5,0.4,0.8c0.1,0.3,0.3,0.5,0.4,0.8
		c0.2,0.2,0.3,0.5,0.5,0.7s0.3,0.5,0.5,0.7s0.3,0.5,0.5,0.7s0.4,0.4,0.5,0.7c0.2,0.2,0.4,0.4,0.6,0.7c0.2,0.2,0.4,0.4,0.6,0.6
		c0.2,0.2,0.4,0.4,0.6,0.6l0,0c0.2,0.2,0.4,0.4,0.6,0.6c0.2,0.2,0.4,0.4,0.6,0.6c0.2,0.2,0.4,0.4,0.6,0.6c0.2,0.2,0.4,0.4,0.6,0.6
		c0.2,0.2,0.4,0.4,0.6,0.6c0.2,0.2,0.4,0.4,0.6,0.6c0.2,0.2,0.4,0.4,0.6,0.6c0.2,0.2,0.4,0.4,0.6,0.6c0.2,0.2,0.4,0.4,0.6,0.5
		c0.2,0.2,0.4,0.4,0.6,0.5c0.2,0.2,0.4,0.3,0.6,0.5c0,0,0.1,0,0.1,0.1c0.3,0.2,0.5,0.4,0.7,0.5c0.3,0.3,0.6,0.4,0.7,0.5
		c0.1,0,0.1,0.1,0.1,0.1v0.6v0.7v0.2v0.6v0.7v0.7v0.7v0.5c0.5-0.3,1.1-0.4,1.7-0.4c0,0,0,0,0.1,0c0.5,0,1,0.1,1.5,0.2
		c0.4,0.1,0.7,0.2,1.1,0.3c0.3,0.1,0.7,0.2,1,0.4c0.3,0.1,0.6,0.3,0.9,0.4c0.1,0,0.1,0.1,0.2,0.1c0.2,0.1,0.4,0.2,0.6,0.3
		c0.3,0.2,0.5,0.3,0.8,0.4c0.3,0.2,0.6,0.4,0.7,0.5c0.1,0.1,0.1,0.1,0.1,0.1c0.1,0.1,0.3,0.3,0.4,0.4c0.2,0.2,0.3,0.3,0.5,0.5
		s0.4,0.3,0.5,0.5c0.2,0.2,0.4,0.3,0.6,0.5c0.2,0.2,0.4,0.3,0.6,0.5c0.2,0.2,0.4,0.3,0.6,0.5c0.2,0.2,0.4,0.3,0.7,0.5
		c0.2,0.2,0.4,0.3,0.7,0.4c0.2,0.1,0.5,0.3,0.7,0.4s0.4,0.2,0.6,0.4l0.1,0.1c0.3,0.1,0.5,0.3,0.8,0.4s0.5,0.3,0.8,0.4
		s0.5,0.3,0.8,0.4s0.5,0.3,0.8,0.4c0.3,0.2,0.6,0.3,0.9,0.4c0.3,0.1,0.6,0.3,0.9,0.4c0.3,0.1,0.6,0.3,0.9,0.4c0.3,0.2,0.7,0.3,1,0.5
		c0.1,0,0.1,0.1,0.2,0.1c0.3,0.1,0.6,0.2,0.8,0.4c0.4,0.2,0.8,0.3,1.1,0.5c0.4,0.2,0.8,0.3,1.2,0.5c0.5,0.2,0.9,0.4,1.4,0.5
		c0.5,0.2,1,0.4,1.5,0.6c0.3,0.1,0.7,0.3,1,0.4s0.5,0.2,0.8,0.3c1,0.3,1.7,0.6,2.3,0.8c0.5,0.2,0.8,0.3,0.8,0.3l-1.2,0.2l-1,0.1
		l-0.7,0.1l-2,0.3l-1.2,0.2l-1.2,0.2l-2.7,0.4l-0.9,0.1l-3,0.4l-4,0.6l-0.8,0.1l-3.3,0.5h-0.3l-1.8,0.3c-0.2,0-0.4,0.1-0.7,0.1
		c-0.5,0.1-1,0.1-1.4,0.2c-0.2,0-0.4,0.1-0.6,0.1c-0.7,0.1-1.4,0.2-2,0.4c-0.6,0.1-1.1,0.3-1.5,0.4c-0.2,0.1-0.5,0.1-0.7,0.2
		c-2,0.6-2.5,1.2-2.6,1.5c0,0.1,0,0.2,0,0.2c0.1,0.1,0.2,0.2,0.2,0.2c0.1,0.1,0.2,0.2,0.4,0.3c0.1,0.1,0.3,0.2,0.4,0.3
		c0.1,0.1,0.3,0.2,0.4,0.3c0.2,0.1,0.3,0.2,0.5,0.2c0.2,0.1,0.4,0.2,0.5,0.2c0.2,0.1,0.4,0.1,0.6,0.1c0.3,0,0.5,0.1,0.8,0.1
		c0.4,0,0.7,0,1.1-0.1c0.4-0.1,0.8-0.2,1.2-0.3c1.5-0.5,2.7-1.2,3.4-1.7c0.2-0.1,0.3-0.2,0.4-0.3c1.1-0.4,2.1-0.7,3.2-1
		c0.2-0.1,0.4-0.1,0.6-0.2c1-0.2,2.2-0.3,3.4-0.5c1.4-0.2,2.8-0.3,4.2-0.5c1.5-0.2,2.9-0.3,4.2-0.4c0.4,0,0.8-0.1,1.2-0.1
		c1.3-0.1,2.4-0.2,2.9-0.2c0.1,0,0.1,0,0.2,0c0.2,0,0.3,0,0.5,0.1c1.1,0.6,2.8,0.8,4.6,0.8c0.2,0,0.3,0,0.5,0c0.4,0,0.7,0,1.1-0.1
		c0.4,0,0.8-0.1,1.2-0.1s0.8-0.1,1.1-0.1s0.5-0.1,0.8-0.1c0.1,0,0.1,0,0.2,0c0.3,0,0.6-0.1,1-0.2c0.3-0.1,0.6-0.1,0.9-0.2
		c0.3-0.1,0.6-0.1,0.9-0.2c0.3-0.1,0.6-0.1,0.8-0.2c0,0,0,0,0.1,0c0.3-0.1,0.5-0.1,0.8-0.2s0.5-0.1,0.8-0.2s0.5-0.1,0.8-0.2
		s0.5-0.1,0.8-0.2c0.2,0,0.4-0.1,0.6-0.1c0.1,0,0.1,0,0.2-0.1c0.3-0.1,0.5-0.1,0.7-0.2c0.3-0.1,0.5-0.1,0.7-0.2
		c0.3-0.1,0.5-0.1,0.7-0.2c0.8,0.4,1.6,0.9,2.5,1.4c-0.1,0.1-0.3,0.3-0.3,0.4c-0.1,0.2-0.2,0.3-0.2,0.5s-0.1,0.4,0,0.6
		c0,0.2,0.1,0.4,0.1,0.6v0.1c0.1,0.3,0.3,0.6,0.5,0.9c0.4,0.5,0.9,1,1.4,1.6c0.9,0.8,1.9,1.6,3.1,2.4c0.8,0.5,1.7,1.1,2.5,1.6
		c0.6,0.3,1.1,0.7,1.7,1c0.5,0.3,0.9,0.5,1.4,0.8c0.1,0.1,0.3,0.1,0.4,0.2c0.3,0.2,0.6,0.3,0.9,0.5c0.4,0.2,0.8,0.4,1.2,0.6
		s0.8,0.4,1.1,0.6s0.7,0.4,1,0.5c0.4,0.2,0.7,0.3,1,0.5s0.7,0.3,1,0.5s0.6,0.3,0.9,0.5c0.3,0.2,0.6,0.3,0.9,0.4
		c0.3,0.2,0.6,0.3,0.9,0.4c0.3,0.2,0.6,0.3,0.9,0.4c0.5,0.2,0.9,0.4,0.9,0.4l0,0c0.1-0.2,0.3-0.3,0.4-0.4c0.2-0.1,0.3-0.2,0.5-0.3
		c0.2-0.1,0.4-0.1,0.6-0.1s0.5,0,0.7,0c0.3,0,0.5,0.1,0.8,0.2s0.6,0.2,0.9,0.4c0.3,0.2,0.6,0.3,0.9,0.5c0.4,0.2,0.7,0.5,1.1,0.7
		c0.5,0.4,0.9,0.7,1.1,0.8c0.1,0.1,0.1,0.1,0.1,0.1l-0.4-1.9v-0.2l-0.4-2.1l-0.1-0.3c0.2,0,0.4,0,0.7,0.1c0.3,0.1,0.6,0.2,0.9,0.4
		c0.5,0.3,1,0.7,1.4,1.2s0.8,1.1,1.1,1.6c0.5,0.8,0.7,1.4,0.7,1.4c-0.1,0.2-0.1,0.5-0.2,0.7c-0.1,0.3-0.1,0.6-0.1,0.9
		c0,0.2,0,0.4,0,0.6c0,0.8,0.2,1.6,0.5,2.4c0.4,1.1,0.9,2.1,1.4,3c0.1,0.1,0.1,0.2,0.2,0.3c0.3,0.6,0.7,1.1,1,1.6
		c0.4,0.5,0.7,0.9,1,1.3c0.2,0.2,0.3,0.4,0.4,0.5c0.2,0.3,0.4,0.5,0.5,0.6C275.6,478.4,275.6,478.5,275.6,478.5z M221.2,445.4
		l-1.3,0.2c-0.1,0-0.2,0-0.3,0l0.5-0.4l0.4-0.4h0.1l0.5-0.4l0.5-0.4l0.5-0.4l0.5-0.4c0.2,0.1,0.4,0.1,0.7,0.2
		c1.5,0.4,2.9,0.8,4.4,1.3l-1.1,0.2l-1.2,0.2h-0.2l-1,0.1l-1.3,0.2l-1.3,0.2L221.2,445.4z"/>
	
		<pattern  id="SVGID_17_" xlink:href="#譁ｰ隕上ヱ繧ｿ繝ｼ繝ｳ繧ｹ繧ｦ繧ｩ繝メ_5" patternTransform="matrix(0.3142 -0.3723 0.3723 0.3142 -10556.0312 5903.1079)">
	</pattern>
	<path class="st18" d="M260.4,393.2c-0.7-0.8-1.3-1.6-1.9-2.5c0,0,0,0-0.1,0c-2.4-3.6-4.1-7.6-4.9-11.7c0.4,0.4,0.8,0.9,1.2,1.3
		c0,0,0,0,0.1,0.1c0.9,3.5,2.3,6.9,4.4,9.9l-0.3,0.8c-0.1-0.1-0.3-0.1-0.4-0.2c0.5,0.6,1,1.2,1.4,1.8
		C260,392.7,260.2,393,260.4,393.2z"/>
	
		<pattern  id="SVGID_18_" xlink:href="#譁ｰ隕上ヱ繧ｿ繝ｼ繝ｳ繧ｹ繧ｦ繧ｩ繝メ_5" patternTransform="matrix(0.3142 -0.3723 0.3723 0.3142 -10554.7314 5901.9077)">
	</pattern>
	<path class="st19" d="M256.2,381.9c0.1,0.1,0.3,0.3,0.4,0.4c0.4,0.5,0.8,0.9,1.2,1.4c0.2,0.2,0.4,0.4,0.5,0.6
		c0.7,0.9,1.3,1.6,1.7,2l0,0c0.3,0.4,0.5,0.7,0.5,0.7l-0.1,0.1l-0.2,0.6l-0.2,0.4l-0.3,0.7l-0.1,0.3l-0.3,0.7l-0.1,0.3
		c-2.1-3-3.6-6.4-4.4-9.9C255.4,380.9,255.8,381.4,256.2,381.9z"/>
</g>
</svg>
