<?xml version="1.0" encoding="utf-8"?>
<!-- Generator: Adobe Illustrator 22.0.1, SVG Export Plug-In . SVG Version: 6.00 Build 0)  -->
<svg version="1.1" id="レイヤー_1" xmlns="http://www.w3.org/2000/svg" xmlns:xlink="http://www.w3.org/1999/xlink" x="0px"
	 y="0px" viewBox="0 0 640 640" style="enable-background:new 0 0 640 640;" xml:space="preserve">
<style type="text/css">
	.st0{fill:none;}
	.st1{fill:#E50012;}
	.st2{fill:url(#SVGID_1_);}
	.st3{fill:url(#SVGID_2_);}
	.st4{fill:url(#SVGID_3_);}
	.st5{fill:url(#SVGID_4_);}
	.st6{fill:url(#SVGID_5_);}
	.st7{fill:url(#SVGID_6_);}
	.st8{fill:url(#SVGID_7_);}
	.st9{fill:url(#SVGID_8_);}
	.st10{fill:url(#SVGID_9_);}
	.st11{fill:url(#SVGID_10_);}
	.st12{fill:url(#SVGID_11_);}
	.st13{fill:url(#SVGID_12_);}
	.st14{fill:url(#SVGID_13_);}
	.st15{fill:url(#SVGID_14_);}
	.st16{fill:url(#SVGID_15_);}
	.st17{fill:url(#SVGID_16_);}
	.st18{fill:url(#SVGID_17_);}
	.st19{fill:url(#SVGID_18_);}
</style>
<pattern  y="640" width="6.8" height="6.8" patternUnits="userSpaceOnUse" id="新規パターンスウォッ" viewBox="0 -6.8 6.8 6.8" style="overflow:visible;">
	<g>
		<rect y="-6.8" class="st0" width="6.8" height="6.8"/>
		<g>
			<rect y="-6.8" class="st0" width="6.8" height="6.8"/>
			<circle class="st1" cx="3.4" cy="-3.4" r="2.1"/>
		</g>
	</g>
</pattern>
<g id="レイヤー_2_1_">
</g>
<g>
	
		<pattern  id="SVGID_1_" xlink:href="#譁ｰ隕上ヱ繧ｿ繝ｼ繝ｳ繧ｹ繧ｦ繧ｩ繝" patternTransform="matrix(-0.2811 0.5197 0.5197 0.2811 -19870.1582 5610.1455)">
	</pattern>
	<path class="st2" d="M488.3,203.6c-0.2-0.1-0.5-0.2-0.9-0.3c-0.2-0.1-0.5-0.2-0.8-0.3c-0.6-0.2-1.2-0.4-1.9-0.5
		c-0.7-0.2-1.5-0.3-2.3-0.5c-0.1,0-0.2,0-0.4-0.1c-1.3-0.2-2.7-0.3-4-0.2c-1,0.1-2,0.2-3,0.5c-0.2,0.1-0.5,0.2-0.7,0.3
		c-0.3,0.1-0.6,0.3-0.9,0.5s-0.5,0.3-0.8,0.5c0,0-0.8,0-1.9-0.2c-0.7-0.1-1.5-0.3-2.3-0.6c-0.7-0.3-1.4-0.6-2-1
		c-0.3-0.3-0.6-0.5-0.9-0.9c-0.2-0.2-0.3-0.5-0.4-0.7l0.4-0.1l2.6-0.5h0.2l2.3-0.4c0,0-0.1,0-0.2-0.1c-0.3-0.1-0.8-0.4-1.4-0.8
		c-0.4-0.3-0.8-0.5-1.2-0.9c-0.3-0.3-0.7-0.5-1-0.8s-0.5-0.5-0.8-0.8c-0.2-0.3-0.4-0.5-0.6-0.8c-0.1-0.3-0.3-0.5-0.3-0.8
		c-0.1-0.2-0.1-0.5-0.1-0.7s0-0.5,0.1-0.7s0.2-0.4,0.3-0.6l0,0c0,0-0.3-0.3-0.8-0.8c-0.2-0.2-0.5-0.5-0.8-0.8s-0.6-0.5-0.9-0.8
		s-0.6-0.6-0.9-0.9c-0.3-0.3-0.6-0.6-0.9-0.9c-0.3-0.3-0.6-0.6-1-0.9c-0.3-0.3-0.7-0.6-1-0.9c-0.3-0.3-0.7-0.6-1-0.9
		c-0.4-0.3-0.8-0.7-1.2-1c-0.4-0.3-0.8-0.7-1.2-1c-0.3-0.3-0.7-0.6-1-0.8c-0.1-0.1-0.3-0.2-0.4-0.3c-0.5-0.4-1-0.8-1.5-1.2
		c-0.6-0.5-1.3-1-1.9-1.5c-1-0.8-2-1.5-3-2.1c-1.5-1-2.9-1.8-4.1-2.4c-0.9-0.4-1.7-0.7-2.4-0.9c-0.5-0.1-0.9-0.2-1.3-0.2H440
		c-0.3,0-0.5,0-0.8,0.1c-0.2,0.1-0.4,0.2-0.6,0.3s-0.3,0.3-0.4,0.4c-0.1,0.2-0.2,0.4-0.3,0.6c-0.9-0.7-1.8-1.4-2.7-2.1
		c0-0.3-0.1-0.6-0.1-0.9c0-0.3-0.1-0.6-0.1-0.9c0-0.3-0.1-0.6-0.1-0.9c0-0.1,0-0.2,0-0.3c0-0.2-0.1-0.4-0.1-0.7s-0.1-0.6-0.1-1
		c0-0.3-0.1-0.6-0.1-1c0-0.3-0.1-0.6-0.1-1c0-0.3-0.1-0.6-0.2-0.9v-0.1c-0.1-0.3-0.1-0.7-0.2-1s-0.1-0.7-0.2-1
		c-0.1-0.4-0.1-0.7-0.2-1.1c-0.1-0.4-0.2-0.8-0.3-1.2c0-0.1,0-0.2-0.1-0.3c-0.1-0.3-0.1-0.6-0.2-0.9c-0.1-0.5-0.2-0.9-0.4-1.4
		c-0.1-0.5-0.3-1-0.4-1.4s-0.3-0.9-0.4-1.3c-0.1-0.2-0.1-0.4-0.2-0.6c-0.8-2.1-1.8-3.9-3-4.9c-0.1-0.2-0.2-0.4-0.3-0.5
		c0-0.1-0.1-0.1-0.1-0.2c-0.2-0.7-0.6-1.9-1-3.4c-0.1-0.4-0.3-0.9-0.4-1.4c-0.4-1.5-0.9-3.2-1.4-4.9c-0.5-1.6-0.9-3.3-1.3-4.9
		c-0.4-1.5-0.7-2.9-1-4.1c0-0.3,0-0.5-0.1-0.8c-0.1-1.4-0.2-2.7-0.2-4.1c0-0.1,0.1-0.3,0.1-0.6c0.2-1,0.5-2.7,0.4-4.6
		c0-0.5-0.1-1-0.2-1.5c-0.1-0.4-0.2-0.8-0.4-1.2c-0.1-0.3-0.3-0.6-0.4-0.9c-0.1-0.2-0.3-0.4-0.4-0.7c-0.1-0.2-0.3-0.3-0.5-0.5
		s-0.3-0.3-0.5-0.5c-0.2-0.1-0.3-0.2-0.5-0.4c-0.2-0.1-0.3-0.2-0.5-0.3c-0.2-0.1-0.4-0.2-0.5-0.2c-0.1-0.1-0.2-0.1-0.4-0.2
		c0,0-0.1,0-0.2,0.1c-0.3,0.3-0.7,1.1-0.5,3.6c0,0.3,0,0.5,0.1,0.8c0.1,0.6,0.1,1.2,0.3,1.9c0.1,0.7,0.3,1.5,0.5,2.4
		c0,0.2,0.1,0.5,0.1,0.7c0.1,0.5,0.2,1.1,0.4,1.7c0.1,0.3,0.1,0.5,0.2,0.8l0.5,2.1l0.1,0.4l0.9,3.9l0.2,1l1.1,4.8l0.9,3.6l0.3,1.1
		l0.8,3.2l0.3,1.4l0.3,1.4l0.6,2.4l0.2,0.8l0.3,1.2l0.3,1.4c0,0-0.2-0.3-0.7-0.8c-0.4-0.5-1.1-1.3-1.9-2.2c-0.2-0.2-0.4-0.5-0.7-0.7
		c-0.3-0.3-0.6-0.6-0.9-1c-0.4-0.5-0.8-0.9-1.3-1.4c-0.4-0.4-0.8-0.9-1.2-1.3c-0.4-0.4-0.7-0.7-1.1-1.1c-0.3-0.4-0.7-0.7-1.1-1.1
		c-0.3-0.3-0.5-0.5-0.8-0.8c-0.1-0.1-0.1-0.1-0.2-0.2c-0.3-0.3-0.6-0.6-1-0.9c-0.3-0.3-0.6-0.6-0.9-0.9c-0.3-0.3-0.6-0.5-0.9-0.8
		s-0.6-0.5-0.9-0.8c-0.3-0.2-0.6-0.5-0.9-0.7s-0.6-0.5-0.8-0.7c-0.3-0.2-0.6-0.5-0.8-0.7c-0.3-0.2-0.6-0.4-0.8-0.7l-0.1-0.1
		c-0.2-0.2-0.4-0.3-0.7-0.5c-0.3-0.2-0.5-0.4-0.8-0.6c-0.3-0.2-0.5-0.4-0.8-0.6c-0.3-0.2-0.5-0.4-0.8-0.5c-0.3-0.2-0.5-0.3-0.8-0.5
		s-0.5-0.3-0.8-0.5c-0.3-0.1-0.5-0.3-0.8-0.4c-0.3-0.1-0.5-0.3-0.8-0.4c-0.3-0.1-0.5-0.2-0.8-0.4c-0.2-0.1-0.4-0.2-0.6-0.3
		c0,0-0.1,0-0.2-0.1c-0.2-0.1-0.5-0.3-0.8-0.6c-0.2-0.2-0.5-0.4-0.8-0.7c-0.2-0.2-0.4-0.4-0.6-0.6c-0.1-0.1-0.1-0.1-0.2-0.2
		c-0.3-0.3-0.6-0.5-0.8-0.8c-0.3-0.3-0.6-0.6-0.9-1s-0.6-0.7-0.8-1.1c-0.4-0.5-0.6-1.1-0.9-1.6c0,0,0,0,0-0.1
		c-0.3-0.7-0.4-1.4-0.3-2.1l-0.5,0.2l-0.8,0.3l-0.8,0.3l-0.8,0.3l-0.6,0.3l-0.2,0.1l-0.8,0.3l-0.7,0.3c0,0-0.1,0-0.1-0.1
		c-0.2-0.1-0.5-0.3-0.9-0.5c-0.3-0.1-0.6-0.3-0.9-0.5c0,0-0.1,0-0.1-0.1c-0.2-0.1-0.5-0.3-0.8-0.4c-0.3-0.2-0.6-0.3-0.9-0.5
		s-0.6-0.3-0.9-0.5s-0.6-0.3-0.9-0.5s-0.6-0.3-0.9-0.5s-0.6-0.3-0.9-0.5c-0.3-0.1-0.6-0.3-0.9-0.4s-0.6-0.3-0.9-0.4s-0.6-0.3-1-0.4
		c-0.3-0.1-0.6-0.3-1-0.4c-0.3-0.1-0.6-0.3-1-0.4l0,0c-0.3-0.1-0.6-0.3-1-0.4c-0.3-0.1-0.6-0.2-1-0.4c-0.3-0.1-0.7-0.2-1-0.3
		c-0.3-0.1-0.7-0.2-1-0.3c-0.3-0.1-0.7-0.2-1-0.3c-0.3-0.1-0.7-0.2-1-0.3c-0.3-0.1-0.7-0.2-1-0.2c-0.4-0.1-0.7-0.1-1-0.2
		c-0.4,0-0.7-0.1-1.1-0.1s-0.7,0-1.1,0s-0.7,0-1.1,0.1c-0.4,0-0.8,0.1-1.1,0.2c-0.3,0.1-0.5,0.2-0.7,0.3l-0.4-0.1l-1.1-0.3l-1.1-0.3
		l-1.1-0.3c0-0.3,0-0.6,0.1-0.9v-0.1l1.2-0.9c0,0-0.4-0.1-1.1-0.2c-0.3,0-0.7,0-1.2,0c-0.4,0-0.8,0.1-1.2,0.2
		c-0.4,0.1-0.8,0.3-1.2,0.6c-0.3,0.2-0.5,0.4-0.8,0.7c-0.2,0.3-0.4,0.5-0.5,0.9c-0.1,0.9-0.1,1.8-0.1,2.7c-0.4,0-0.8,0-1.2,0
		c-0.4,0-0.8,0-1.2,0.1c-0.4,0-0.8,0.1-1.2,0.1c-0.4,0.1-0.8,0.1-1.2,0.2c-0.4,0.1-0.8,0.1-1.3,0.2c-0.4,0.1-0.9,0.2-1.3,0.3
		c-0.4,0.1-0.9,0.2-1.3,0.4c-0.4,0.1-0.9,0.3-1.3,0.5s-0.9,0.3-1.3,0.5s-0.8,0.4-1.2,0.6c0,0,0,0-0.1,0.1l0,0
		c-0.2,0.1-0.7,0.4-1.3,0.8c-0.4,0.2-0.8,0.5-1.3,0.9c-0.4,0.3-0.9,0.6-1.4,0.9c-0.4,0.3-0.9,0.6-1.4,0.9c-0.4,0.3-0.9,0.6-1.4,1
		c-0.5,0.3-0.9,0.7-1.4,1s-0.9,0.7-1.4,1c-0.2,0.2-0.4,0.3-0.6,0.5c-0.3,0.2-0.5,0.4-0.8,0.6c-0.5,0.4-0.9,0.8-1.4,1.2
		s-0.9,0.8-1.4,1.3s-0.9,0.9-1.4,1.4c-0.5,0.6-1,1.1-1.4,1.7c-0.1,0.1-0.2,0.2-0.2,0.3c-0.4,0.6-0.8,1.2-1.1,1.8
		c-0.2,0.3-0.3,0.7-0.4,1c-0.3,0.3-0.6,0.6-0.9,1c-0.5,0.6-0.9,1.2-1.3,1.9c0,0,0,0.1-0.1,0.1c-0.4,0.7-0.8,1.5-1.2,2.4
		c-0.4,0.9-0.7,1.8-1.1,2.8c0,0.1-0.1,0.2-0.1,0.3c-0.4,1.1-0.7,2.3-1,3.4c-0.1,0.4-0.2,0.7-0.3,1.1c-0.2,0.9-0.5,1.8-0.6,2.7
		c-0.1,0.6-0.3,1.3-0.4,1.9c-0.2,0.8-0.3,1.5-0.4,2.2c-0.2,0.9-0.3,1.6-0.4,2.2c-0.1,0.8-0.2,1.2-0.2,1.2c0,0.4,0,0.8-0.1,1.2
		c0,0.5,0,1.1,0,1.6c0,1.2,0.2,2.4,0.4,3.6c0.2,1.1,0.5,2.2,0.8,3.2c0.3,0.8,0.5,1.7,0.9,2.5l-0.5,0.4l0,0c-0.6,0.3-1,0.7-1.4,1
		c-0.3,0.3-0.6,0.7-0.8,1l0,0l0,0l0,0c-0.1,0.2-0.3,0.5-0.3,0.7c-0.4,1.1-0.2,2.2,0.1,3.1c0.4,1.1,1,1.8,1,1.8l0.3-1.1l0.4-1.5
		l1.5,1.9l0.1,0.2l1.4,2.4l0.1,0.2c0.1,0.8,0.4,1.7,0.8,2.5c0.3,0.8,0.8,1.5,1.3,2.3c0.5,0.7,1,1.4,1.5,2.1c0.4,0.5,0.9,1.1,1.3,1.6
		h0.7h1.1c0.3,0.5,0.5,1.1,0.8,1.6c0.3,0.7,0.6,1.3,1,2l0.1,0.1c0.6,0.5,1.2,1.1,1.7,1.6s1,0.9,1.5,1.3c0.1,0.1,0.1,0.1,0.2,0.2
		c0.6,0.5,1.2,1,1.7,1.4s0.9,0.7,1.3,1c0.1,0.1,0.3,0.2,0.4,0.3c1,0.7,1.5,1.1,1.5,1.1v0.3v1.7v0.6v2.3v0.3v0.7
		c0.1-0.1,0.2-0.1,0.3-0.1c0.5-0.2,1.1-0.3,1.7-0.4c0.2,0,0.4,0,0.6,0c0.5,0,0.9,0.1,1.4,0.1c0.4,0.1,0.8,0.2,1.2,0.3
		c0.4,0.1,0.7,0.2,1.1,0.4c0.4,0.1,0.7,0.3,1,0.4c0.6,0.3,1.2,0.5,1.7,0.8c0.1,0,0.1,0.1,0.2,0.1c0.9,0.5,1.4,0.8,1.4,0.8
		c0.1,0.1,0.1,0.1,0.2,0.2c0.4,0.4,0.8,0.8,1.2,1.2c0.3,0.3,0.6,0.5,1,0.8c0.1,0.1,0.2,0.2,0.3,0.3c0.4,0.3,0.9,0.7,1.4,1
		s1,0.6,1.5,0.9c0.2,0.1,0.4,0.3,0.7,0.4c0.3,0.2,0.5,0.3,0.8,0.5c0.5,0.3,1,0.6,1.6,0.9c0.4,0.2,0.7,0.4,1.1,0.6
		c0.2,0.1,0.3,0.2,0.5,0.3c0.5,0.3,1.1,0.5,1.6,0.8c0.4,0.2,0.7,0.3,1.1,0.5c0.2,0.1,0.4,0.2,0.6,0.3c0.6,0.3,1.2,0.5,1.8,0.8l0,0
		c0.1,0,0.2,0.1,0.3,0.1c0.4,0.2,0.8,0.3,1.1,0.5c5.1-1,10.3-0.9,15.4,0.3l0,0c0.1,0,0.1,0,0.2,0c1.3,0.3,2.6,0.7,3.8,1.1
		c0.6,0.2,1.2,0.3,1.8,0.5c0.2,0.2,0.4,0.3,0.5,0.5c0.5,0.2,1.1,0.5,1.6,0.7c-0.4-0.2-0.8-0.4-1.2-0.5c0.1,0.1,0.1,0.1,0.2,0.2
		l-1.7,0.3h-0.2l-1.5,0.3l-0.7,0.1l-1,0.2l-1.4,0.2l-0.3,0.1l-1.7,0.3l-0.7,0.1l-1.1,0.2l-1.8,0.3l-0.7,0.1l-1.1,0.2l-1.8,0.3
		l-1.8,0.3l-1.8,0.3l-1.8,0.3l-1.8,0.3l-1.8,0.3L362,230l-1.2,0.2l-0.6,0.1l-1.9,0.3l-1,0.2l-0.9,0.1l-1.9,0.3l0,0l-1.8,0.3
		l-0.5,0.1l-1.4,0.2l-0.9,0.1h-0.3c-0.3,0-0.5,0.1-0.8,0.1c-0.4,0.1-0.7,0.1-1,0.2c-0.3,0.1-0.6,0.1-0.9,0.2
		c-0.4,0.1-0.8,0.2-1.2,0.2c-0.2,0-0.5,0.1-0.7,0.1c-0.5,0.1-1,0.2-1.4,0.3c-0.2,0-0.3,0.1-0.5,0.1c-0.6,0.2-1.2,0.3-1.7,0.5h-0.1
		c-0.7,0.2-1.3,0.5-1.7,0.7c-0.3,0.1-0.5,0.3-0.7,0.4c-0.4,0.3-0.6,0.5-0.7,0.7s-0.1,0.4-0.1,0.4l0,0c0.3,0.3,0.6,0.6,1,0.8
		c0.1,0.1,0.2,0.1,0.2,0.2c0.3,0.2,0.5,0.3,0.8,0.5c0.4,0.2,0.8,0.3,1.2,0.4c0.4,0.1,0.8,0.2,1.2,0.2c0.1,0,0.1,0,0.2,0
		c0.5,0,1,0,1.5-0.1c0.2,0,0.3,0,0.5-0.1c0.4-0.1,0.8-0.2,1.2-0.4c0.2-0.1,0.4-0.1,0.6-0.2c0.6-0.2,1.1-0.5,1.6-0.8
		c0.1,0,0.1-0.1,0.2-0.1c0.5-0.3,0.9-0.6,1.2-0.8c0.5-0.4,0.8-0.6,0.8-0.6c0-0.1,0.2-0.3,0.5-0.4c0.3-0.2,0.8-0.3,1.4-0.5
		c0.1,0,0.2-0.1,0.3-0.1c0.5-0.1,1.2-0.3,1.8-0.4c0.1,0,0.1,0,0.2,0c0.5-0.1,1.1-0.2,1.7-0.3c0.2,0,0.5-0.1,0.7-0.1
		c0.4-0.1,0.8-0.1,1.2-0.2c0.5-0.1,1-0.2,1.5-0.2c0.1,0,0.3,0,0.4-0.1c0.6-0.1,1.3-0.2,1.9-0.3c0.3,0,0.7-0.1,1-0.1s0.6-0.1,0.9-0.1
		c0.6-0.1,1.3-0.2,1.9-0.2c0.7-0.1,1.3-0.2,1.9-0.2c0.7-0.1,1.3-0.2,1.9-0.2c0.7-0.1,1.3-0.2,1.9-0.2c0.8-0.1,1.4-0.2,1.9-0.2
		c0.7-0.1,1.1-0.1,1.1-0.1c0.3,0.2,0.7,0.3,1.1,0.5c0.2,0.1,0.3,0.1,0.5,0.2c0.7,0.2,1.6,0.3,2.5,0.3c0.1,0,0.3,0,0.5,0
		c0.6,0,1.1,0,1.7,0c0.4,0,0.9-0.1,1.3-0.1c0.2,0,0.4,0,0.6-0.1c0.5,0,0.9-0.1,1.4-0.2c0.2,0,0.3,0,0.5-0.1c0.4-0.1,0.9-0.1,1.3-0.2
		c0.2,0,0.3-0.1,0.5-0.1c0.4-0.1,0.7-0.1,1.1-0.2c0.2,0,0.4-0.1,0.6-0.1c0.3-0.1,0.6-0.1,0.9-0.2c0.3-0.1,0.6-0.1,0.8-0.2
		c0.2-0.1,0.5-0.1,0.7-0.2c0.3-0.1,0.7-0.2,1-0.2c0.2,0,0.3-0.1,0.4-0.1c0.4-0.1,0.8-0.2,1.2-0.3c0.1,0,0.2,0,0.3-0.1
		c0.5-0.1,0.9-0.2,1.4-0.4c0,0,0,0,0.1,0c-0.1-0.1-0.2-0.2-0.3-0.2c0.5-0.1,0.9-0.3,1.3-0.4c-0.6-0.4-1.2-0.8-1.8-1.2
		c-1.6-1.1-3.3-2-5.1-2.8c1.9,0.9,3.7,1.9,5.5,3.1c0.6,0.4,1.2,0.8,1.8,1.2h0.1c0.5-0.1,0.9-0.3,1.3-0.4c0.1,0,0.2-0.1,0.2-0.1
		c0.9,0.7,1.8,1.4,2.8,2c-0.1,0.1-0.2,0.3-0.2,0.4c-0.1,0.3-0.1,0.6-0.1,0.9c0,0.3,0.1,0.6,0.2,0.9c0.2,0.5,0.6,1.1,1.1,1.7
		c0.5,0.6,1.2,1.2,2,1.9c0.9,0.7,1.9,1.4,3,2.2c0.7,0.5,1.5,1,2.3,1.4c0.7,0.4,1.4,0.8,2.1,1.2c0.6,0.4,1.3,0.7,2,1.1
		c0.6,0.3,1.3,0.7,1.9,1s1.2,0.6,1.9,0.9c0.6,0.3,1.2,0.6,1.8,0.9c0.6,0.3,1.2,0.6,1.8,0.9c0.6,0.3,1.2,0.6,1.8,0.8
		c0.7,0.3,1.3,0.6,1.9,0.8c0.7,0.3,1.3,0.6,1.9,0.8c1,0.4,1.7,0.7,1.7,0.7c0-0.1,0.1-0.1,0.2-0.2c0.2-0.2,0.3-0.4,0.5-0.5
		c0.4,0.2,0.8,0.3,1.2,0.5c0.6,0.2,1.3,0.5,1.9,0.7c0.7,0.2,1.3,0.5,2,0.7s1.3,0.4,2,0.7c0.7,0.2,1.4,0.4,2.1,0.6
		c0.7,0.2,1.4,0.4,2.1,0.6c0.4,0.1,0.7,0.2,1.1,0.3c0,0.5,0,0.9,0,1.4s0.1,1,0.3,1.5c0.1,0.5,0.3,1,0.5,1.5s0.4,1.1,0.7,1.6
		c0,0,0,0.1,0.1,0.1c0.3,0.5,0.6,1.1,0.9,1.6c0.4,0.6,0.7,1.2,1.1,1.7c0.1,0.1,0.1,0.1,0.2,0.2c0.4,0.6,0.8,1.1,1.2,1.6
		c0.3,0.4,0.6,0.8,0.9,1.1c0.3,0.3,0.5,0.6,0.7,0.7c0.2,0.2,0.3,0.3,0.3,0.3l-0.2-0.2l-0.7-1l-0.6-0.8l-0.6-0.8l1.2,0.1l1.4,0.1
		c-0.2-0.1-0.5-0.3-0.8-0.7c-0.2-0.2-0.4-0.5-0.6-0.9c-0.2-0.2-0.3-0.5-0.5-0.8c-0.3-0.5-0.6-1.1-0.9-1.6s-0.5-1.1-0.8-1.6
		c-0.1-0.1-0.1-0.2-0.2-0.3c-0.2-0.4-0.4-0.9-0.6-1.2c-0.3-0.6-0.5-1.1-0.7-1.6c-0.3-0.6-0.4-1-0.4-1c0-0.2,0.1-0.3,0.1-0.5
		c0.1-0.5,0.2-0.9,0.2-1.3c0-0.5,0-0.9-0.1-1.4s-0.2-1-0.4-1.4c-0.2-0.6-0.5-1.1-0.8-1.6c-0.2-0.4-0.5-0.7-0.8-1
		c-0.2-0.3-0.5-0.5-0.7-0.7c-0.6-0.6-1.3-1-1.9-1.4c-1.2-0.7-2.2-1.1-2.4-1.2l0,0c-0.1,0-0.9-0.2-2.2-0.6c-0.6-0.2-1.4-0.4-2.2-0.6
		c-0.7-0.2-1.4-0.4-2.1-0.6c-0.7-0.2-1.4-0.4-2.1-0.6c-0.7-0.2-1.4-0.4-2.1-0.6c-0.2-0.1-0.4-0.1-0.6-0.2c-0.5-0.2-1.1-0.5-1.6-0.7
		c-0.8-0.3-1.5-0.7-2.2-1.1c-0.8-0.4-1.6-0.8-2.3-1.2c-0.8-0.4-1.6-0.8-2.3-1.2c0.5,0,1.1-0.1,1.6-0.1c0.2,0,0.5,0,0.7-0.1
		c0.3,0,0.7-0.1,1-0.1c0.4,0,0.8-0.1,1.2-0.1c0.2,0,0.3,0,0.5-0.1c0.6-0.1,1.1-0.2,1.7-0.3h0.1c0.6-0.1,1.2-0.2,1.8-0.3
		c0.1,0,0.1,0,0.2,0c0.6-0.1,1.1-0.2,1.6-0.3c0.1,0,0.3-0.1,0.4-0.1c0.6-0.1,1.1-0.2,1.4-0.3s0.5-0.1,0.5-0.1c0.5,0.5,1.2,0.8,2,1.1
		c0.6,0.2,1.2,0.4,1.9,0.5c0.2,0,0.3,0,0.5,0.1c0.7,0.1,1.5,0.2,2.3,0.2c0.5,0,1.1,0,1.6,0c0.2,0,0.4,0,0.7,0c0.9,0,1.7-0.1,2.2-0.1
		c0.1,0,0.3,0,0.4,0c0.4,0.1,0.7,0.2,1.1,0.3c0.4,0.4,0.9,0.7,1.3,0.9c0.9,0.5,1.7,0.7,2.6,0.7c0.4,0,0.8,0,1.1-0.1
		c0.4-0.1,0.8-0.2,1.2-0.4c0.3-0.1,0.5-0.2,0.8-0.3c0.5-0.2,0.9-0.5,1.4-0.9l0,0c0.4-0.3,0.8-0.6,1.1-0.9c0.3-0.3,0.6-0.6,0.9-0.9
		c0,0,0,0,0.1-0.1c0.3-0.3,0.6-0.6,0.9-0.9c0.3-0.3,0.6-0.6,0.8-1c0.1-0.1,0.1-0.2,0.2-0.2c0.2-0.2,0.4-0.5,0.6-0.7
		c0.2-0.3,0.5-0.7,0.7-1s0.4-0.6,0.6-0.9l0,0c0.2-0.4,0.4-0.7,0.6-1c0.2-0.4,0.4-0.7,0.4-0.7s0.1-0.1,0.2-0.3s0.4-0.5,0.6-0.8
		c0,0,0-0.1,0.1-0.1c0.2-0.3,0.4-0.6,0.6-0.9c0.2-0.3,0.4-0.6,0.6-0.9c0.2-0.3,0.4-0.6,0.5-0.9l0,0c0.2-0.3,0.3-0.6,0.5-0.9
		c0.2-0.3,0.3-0.6,0.5-0.9c0.1-0.3,0.3-0.6,0.4-0.9c0.1-0.2,0.2-0.5,0.3-0.7c0-0.1,0.1-0.1,0.1-0.2c0.1-0.3,0.2-0.6,0.3-0.9
		c0.1-0.3,0.2-0.6,0.2-0.9c0.1-0.3,0.1-0.6,0.2-0.9c0-0.3,0.1-0.6,0.1-0.9c0-0.3,0-0.6,0-0.9c0-0.1,0-0.2,0-0.3
		c0-0.2-0.1-0.4-0.1-0.7c-0.1-0.3-0.2-0.7-0.3-1c-0.1-0.3-0.3-0.7-0.5-1c-0.3-0.4-0.6-0.7-0.9-1l-0.1-0.1c-0.5-0.4-1.1-0.8-1.9-1.1
		c0,0,0,0,0-0.1s-0.1-0.5-0.3-1c-0.1-0.3-0.2-0.6-0.3-0.9c-0.1-0.3-0.2-0.6-0.4-0.9c-0.1-0.3-0.3-0.6-0.4-0.9
		c-0.1-0.3-0.3-0.6-0.4-1c-0.1-0.1-0.1-0.3-0.2-0.4c-0.1-0.2-0.2-0.4-0.3-0.6c-0.2-0.3-0.4-0.7-0.5-1c-0.2-0.3-0.4-0.7-0.6-1
		c-0.2-0.4-0.5-0.7-0.8-1c-0.4-0.4-0.8-0.8-1.2-1.1c0,0-0.1,0-0.1-0.1c-0.2-0.2-0.5-0.3-0.8-0.5c0,0,0-0.2-0.1-0.6v-0.1
		c0-0.2-0.1-0.5-0.1-0.8c-0.1-0.3-0.1-0.5-0.2-0.9c-0.1-0.3-0.1-0.6-0.2-0.9c-0.1-0.3-0.1-0.6-0.2-0.9c-0.1-0.3-0.1-0.6-0.2-0.9
		c-0.1-0.3-0.1-0.6-0.2-0.9c-0.1-0.3-0.1-0.6-0.2-0.9c0-0.2-0.1-0.4-0.2-0.6c0-0.1,0-0.2-0.1-0.3c-0.1-0.3-0.2-0.6-0.2-0.8
		c-0.1-0.3-0.2-0.6-0.2-0.8c-0.1-0.3-0.2-0.6-0.3-0.9c-0.1-0.3-0.2-0.6-0.3-0.9c-0.1-0.3-0.2-0.6-0.3-0.9c-0.1-0.3-0.2-0.6-0.3-0.9
		c-0.1-0.3-0.2-0.6-0.3-0.9c0.3,0.1,0.5,0.2,0.8,0.3s0.6,0.3,1,0.4c0.4,0.3,0.8,0.8,1.2,1.2c0.3,0.3,0.7,0.7,1,1.1
		c0.3,0.3,0.6,0.7,1,1.1c0.3,0.3,0.6,0.7,0.9,1s0.6,0.7,0.9,1s0.6,0.7,0.8,1c0.3,0.3,0.5,0.6,0.8,0.9c0.3,0.3,0.5,0.6,0.8,1
		c0.3,0.3,0.5,0.6,0.8,1c0.3,0.3,0.5,0.6,0.8,0.9c0.2,0.3,0.5,0.6,0.7,0.9c0.3,0.3,0.5,0.6,0.7,0.9c0.3,0.3,0.5,0.6,0.7,0.9
		c0.3,0.3,0.5,0.6,0.7,0.9c0.3,0.3,0.5,0.6,0.7,0.9c0.3,0.4,0.5,0.7,0.6,0.8c0,0,0.1,0.1,0.2,0.2c0.2,0.2,0.6,0.5,1.1,1
		c0.4,0.3,0.8,0.6,1.3,1c0.6,0.4,1.2,0.7,1.9,1c0.1,0,0.1,0.1,0.2,0.1c1.3,0.5,2.7,0.7,4.2,0.5c0.3-0.1,0.6-0.1,1-0.2
		c0.6-0.2,1.1-0.4,1.7-0.8c0.2-0.1,0.4-0.2,0.6-0.4c0.1,0,0.1-0.1,0.2-0.1c0,0,1.7,0,3.8,0.1c1,0,2.1,0.1,3.1,0.2
		c0.4,0,0.9,0.1,1.3,0.1c0.8,0.1,1.5,0.2,2,0.3c0.4,0.1,0.7,0.3,0.8,0.4l-0.3-0.5l-0.4-0.8c0.6-0.1,1.2-0.2,1.8-0.2
		C487.8,203.7,488,203.7,488.3,203.6l0.3,0.1C488.6,203.7,488.5,203.7,488.3,203.6z M427.1,157.1l0.4,1.6l0.4,1.6l0.3,1.2v0.2
		l0.3,1.4l0.3,1.3c-1.2-1.4-2.3-2.9-3.4-4.4c-0.2-0.2-0.3-0.5-0.5-0.7l0.3-0.7l0.3-0.7l0.3-0.7l0.3-0.7v-0.1l0.2-0.6l0.3-0.7
		c0.1,0.1,0.1,0.2,0.2,0.3L427.1,157.1L427.1,157.1z"/>
	
		<pattern  id="SVGID_2_" xlink:href="#譁ｰ隕上ヱ繧ｿ繝ｼ繝ｳ繧ｹ繧ｦ繧ｩ繝" patternTransform="matrix(-0.2811 0.5197 0.5197 0.2811 -19820.6348 5502.4272)">
	</pattern>
	<path class="st3" d="M385.5,224.3c-1.2-0.4-2.4-0.8-3.7-1.1c0,0,0,0-0.1-0.1c-5.1-1.2-10.4-1.3-15.4-0.3c0.7,0.3,1.3,0.5,2,0.8h0.1
		c4.3-0.6,8.8-0.4,13.1,0.6l0.7-0.7c-0.1-0.1-0.3-0.2-0.4-0.4c0.9,0.3,1.8,0.6,2.6,0.8C384.9,224.1,385.2,224.2,385.5,224.3z"/>
	
		<pattern  id="SVGID_3_" xlink:href="#譁ｰ隕上ヱ繧ｿ繝ｼ繝ｳ繧ｹ繧ｦ繧ｩ繝" patternTransform="matrix(-0.2811 0.5197 0.5197 0.2811 -19818.3359 5501.1831)">
	</pattern>
	<path class="st4" d="M371,224.6c0.2,0.1,0.5,0.2,0.7,0.2c0.7,0.3,1.4,0.5,2.1,0.7c0.3,0.1,0.7,0.2,1,0.3c1.3,0.4,2.3,0.7,3,1l0,0
		c0.6,0.2,1,0.3,1,0.3l0.1-0.1l0.5-0.5l0.4-0.4l0.6-0.6l0.3-0.3l0.7-0.6l0.3-0.3c-4.3-1-8.8-1.2-13.1-0.6
		C369.4,224.1,370.2,224.4,371,224.6z"/>
</g>
<g>
	
		<pattern  id="SVGID_4_" xlink:href="#譁ｰ隕上ヱ繧ｿ繝ｼ繝ｳ繧ｹ繧ｦ繧ｩ繝" patternTransform="matrix(0.3353 -0.4346 -0.4346 -0.3353 -10328.3398 -5101.7632)">
	</pattern>
	<path class="st5" d="M163.4,378.7c0.2,0.1,0.4,0.3,0.8,0.4c0.2,0.1,0.4,0.2,0.7,0.3c0.5,0.2,1,0.5,1.7,0.8c0.6,0.3,1.3,0.5,2,0.8
		c0.1,0,0.2,0.1,0.3,0.1c1.2,0.4,2.4,0.7,3.7,0.8c0.9,0.1,1.9,0.1,2.8,0c0.2,0,0.5-0.1,0.7-0.1c0.3-0.1,0.6-0.2,0.9-0.3
		c0.3-0.1,0.5-0.2,0.8-0.4c0,0,0.7,0.2,1.7,0.5c0.6,0.2,1.3,0.5,2,0.9c0.6,0.3,1.2,0.7,1.7,1.2c0.3,0.3,0.5,0.6,0.7,0.9
		c0.1,0.2,0.2,0.5,0.2,0.7h-0.3h-2.4h-0.2H179c0,0,0.1,0,0.1,0.1c0.2,0.2,0.6,0.5,1.2,1c0.3,0.3,0.7,0.6,1,1
		c0.3,0.3,0.5,0.6,0.8,0.9c0.2,0.3,0.4,0.6,0.6,0.9c0.2,0.3,0.3,0.5,0.4,0.8c0.1,0.3,0.2,0.5,0.2,0.8c0,0.2,0,0.5,0,0.7
		s-0.1,0.4-0.2,0.6c-0.1,0.2-0.2,0.4-0.4,0.5l0,0c0,0,0.2,0.3,0.6,0.9c0.2,0.2,0.4,0.5,0.7,0.9c0.2,0.3,0.4,0.6,0.7,0.9
		c0.2,0.3,0.5,0.6,0.7,0.9s0.5,0.6,0.7,0.9s0.5,0.6,0.8,1c0.3,0.3,0.5,0.7,0.8,1s0.5,0.7,0.8,1c0.3,0.4,0.6,0.7,0.9,1.1
		c0.3,0.4,0.6,0.8,1,1.1c0.3,0.3,0.5,0.6,0.8,0.9c0.1,0.1,0.2,0.2,0.3,0.4c0.4,0.5,0.8,0.9,1.2,1.4c0.5,0.6,1,1.1,1.5,1.6
		c0.8,0.8,1.6,1.7,2.4,2.4c1.2,1.1,2.4,2.1,3.4,2.9c0.7,0.5,1.5,0.9,2.1,1.2c0.4,0.2,0.8,0.3,1.1,0.3h0.1c0.2,0,0.5,0,0.7,0
		s0.4-0.1,0.6-0.2c0.2-0.1,0.3-0.2,0.5-0.3c0.1-0.1,0.3-0.3,0.4-0.5c0.7,0.8,1.5,1.6,2.1,2.4c0,0.2,0,0.5,0,0.8s0,0.5,0,0.8
		s0,0.5,0,0.8c0,0.1,0,0.2,0,0.2c0,0.2,0,0.4,0,0.6c0,0.3,0,0.6,0,0.9s0,0.6,0,0.9s0,0.6,0,0.9s0,0.6,0,0.9v0.1c0,0.3,0,0.6,0,1
		c0,0.3,0,0.7,0,1s0,0.7,0,1c0,0.4,0,0.7,0.1,1.1c0,0.1,0,0.2,0,0.2c0,0.3,0,0.6,0.1,0.9c0,0.4,0.1,0.9,0.1,1.3
		c0.1,0.5,0.1,0.9,0.2,1.4c0.1,0.4,0.1,0.8,0.2,1.2c0,0.2,0.1,0.4,0.1,0.6c0.4,2.1,1.1,3.9,2,4.9c0.1,0.2,0.1,0.4,0.2,0.5
		c0,0.1,0,0.1,0.1,0.2c0.1,0.6,0.2,1.8,0.4,3.3c0.1,0.4,0.1,0.9,0.2,1.3c0.2,1.4,0.4,3.1,0.6,4.7c0.2,1.6,0.3,3.2,0.5,4.7
		c0.1,1.4,0.2,2.7,0.3,3.9c0,0.2,0,0.5-0.1,0.7c-0.1,1.3-0.2,2.5-0.4,3.8c-0.1,0.1-0.1,0.3-0.2,0.5c-0.3,0.8-0.9,2.4-1,4.1
		c0,0.5,0,0.9,0,1.4c0,0.4,0.1,0.8,0.2,1.2c0.1,0.3,0.2,0.6,0.3,0.8c0.1,0.2,0.2,0.5,0.3,0.7s0.2,0.4,0.4,0.5
		c0.1,0.2,0.2,0.3,0.4,0.5c0.1,0.1,0.3,0.3,0.4,0.4c0.1,0.1,0.3,0.2,0.4,0.4c0.1,0.1,0.3,0.2,0.5,0.3c0.1,0.1,0.2,0.1,0.3,0.2
		c0,0,0.1,0,0.2-0.1c0.3-0.2,0.8-0.9,1-3.2c0-0.2,0-0.5,0.1-0.8c0-0.5,0.1-1.1,0.1-1.8c0-0.7,0-1.4-0.1-2.3c0-0.2,0-0.4,0-0.6
		c0-0.5-0.1-1.1-0.1-1.6c0-0.3,0-0.5-0.1-0.7l-0.1-2v-0.4l-0.3-3.7l-0.1-0.9l-0.3-4.6l-0.2-3.4l-0.1-1.1l-0.2-3.1l-0.1-1.4l-0.1-1.3
		l-0.2-2.2l-0.1-0.8l-0.1-1.1l-0.1-1.3c0,0,0.2,0.3,0.5,0.9s0.8,1.4,1.4,2.3c0.2,0.2,0.3,0.5,0.5,0.8s0.4,0.7,0.6,1
		c0.3,0.5,0.6,1,1,1.5c0.3,0.4,0.6,0.9,0.9,1.4c0.3,0.4,0.5,0.8,0.8,1.2c0.3,0.4,0.5,0.8,0.8,1.1c0.2,0.3,0.4,0.6,0.6,0.8
		c0,0.1,0.1,0.1,0.1,0.2c0.2,0.3,0.5,0.7,0.8,1c0.2,0.3,0.5,0.6,0.7,0.9s0.5,0.6,0.7,0.9s0.5,0.6,0.7,0.9s0.4,0.5,0.7,0.8
		c0.2,0.3,0.4,0.5,0.7,0.8c0.2,0.3,0.4,0.5,0.7,0.8c0.2,0.2,0.4,0.5,0.7,0.7l0.1,0.1c0.2,0.2,0.4,0.4,0.5,0.6
		c0.2,0.2,0.4,0.4,0.6,0.7c0.2,0.2,0.4,0.4,0.7,0.6c0.2,0.2,0.4,0.4,0.7,0.6c0.2,0.2,0.4,0.4,0.7,0.6c0.2,0.2,0.4,0.4,0.6,0.5
		c0.2,0.2,0.4,0.3,0.7,0.5c0.2,0.2,0.4,0.3,0.7,0.5c0.2,0.2,0.4,0.3,0.7,0.4c0.2,0.1,0.4,0.2,0.5,0.3l0.1,0.1
		c0.1,0.1,0.4,0.4,0.7,0.7c0.2,0.2,0.4,0.5,0.7,0.7c0.2,0.2,0.3,0.4,0.5,0.6c0.1,0.1,0.1,0.1,0.2,0.2c0.2,0.3,0.4,0.6,0.7,0.9
		c0.2,0.3,0.4,0.7,0.6,1c0.2,0.4,0.4,0.8,0.6,1.2c0.2,0.5,0.4,1.1,0.5,1.6c0,0,0,0,0,0.1c0.1,0.7,0.2,1.3,0,2l0.5-0.1l0.8-0.2
		l0.8-0.2l0.8-0.2l0.6-0.1h0.2l0.8-0.2l0.7-0.2c0,0,0,0,0.1,0.1s0.4,0.3,0.7,0.6c0.2,0.2,0.5,0.4,0.7,0.6l0.1,0.1
		c0.2,0.2,0.4,0.3,0.6,0.5c0.2,0.2,0.5,0.4,0.7,0.6s0.5,0.4,0.7,0.6s0.5,0.4,0.8,0.6c0.2,0.2,0.5,0.4,0.8,0.6s0.5,0.4,0.8,0.6
		s0.5,0.4,0.8,0.5c0.3,0.2,0.5,0.4,0.8,0.5c0.3,0.2,0.5,0.4,0.8,0.5c0.3,0.2,0.5,0.3,0.8,0.5s0.5,0.3,0.8,0.5l0,0
		c0.3,0.2,0.6,0.3,0.8,0.5c0.3,0.2,0.6,0.3,0.8,0.5c0.3,0.2,0.6,0.3,0.9,0.5c0.3,0.2,0.6,0.3,0.9,0.4s0.6,0.3,0.9,0.4
		s0.6,0.3,0.9,0.4s0.6,0.2,0.9,0.4c0.3,0.1,0.6,0.2,0.9,0.3c0.3,0.1,0.6,0.2,1,0.3c0.3,0.1,0.7,0.1,1,0.2s0.7,0.1,1,0.1
		c0.4,0,0.7,0,1.1,0c0.2,0,0.5-0.1,0.7-0.1l0.3,0.2l1,0.5l1,0.5l1,0.5c-0.1,0.3-0.1,0.5-0.2,0.8v0.1l-1.2,0.6c0,0,0.4,0.2,1,0.3
		c0.3,0.1,0.7,0.1,1.1,0.2c0.4,0,0.7,0,1.1,0c0.4-0.1,0.8-0.2,1.2-0.4c0.3-0.1,0.5-0.3,0.8-0.6c0.2-0.2,0.4-0.4,0.6-0.7
		c0.2-0.8,0.4-1.7,0.5-2.5c0.4,0.1,0.7,0.1,1.1,0.2c0.4,0,0.8,0.1,1.1,0.1c0.4,0,0.8,0.1,1.2,0.1c0.4,0,0.8,0,1.2,0
		c0.4,0,0.8,0,1.2,0c0.4,0,0.8,0,1.2-0.1c0.4,0,0.8-0.1,1.2-0.2c0.4-0.1,0.8-0.1,1.3-0.2c0.4-0.1,0.9-0.2,1.3-0.3
		c0.4-0.1,0.8-0.2,1.2-0.3c0,0,0,0,0.1,0l0,0c0.2-0.1,0.7-0.3,1.3-0.5c0.4-0.2,0.9-0.4,1.4-0.6c0.4-0.2,0.9-0.4,1.4-0.6
		c0.4-0.2,0.9-0.4,1.4-0.6s0.9-0.4,1.4-0.7c0.5-0.2,0.9-0.5,1.4-0.7s0.9-0.5,1.4-0.8c0.2-0.1,0.4-0.2,0.6-0.4
		c0.3-0.2,0.5-0.3,0.8-0.5c0.5-0.3,1-0.6,1.5-0.9s1-0.6,1.5-1s1-0.7,1.5-1.1s1-0.9,1.5-1.3c0.1-0.1,0.2-0.2,0.3-0.3
		c0.5-0.5,0.9-1,1.3-1.5c0.2-0.3,0.4-0.6,0.5-0.8c0.3-0.2,0.7-0.5,1-0.7c0.5-0.4,1-1,1.5-1.6c0,0,0-0.1,0.1-0.1c0.5-0.6,1-1.3,1.4-2
		c0.5-0.8,0.9-1.6,1.4-2.4c0-0.1,0.1-0.1,0.1-0.2c0.5-1,1-2,1.5-3c0.1-0.3,0.3-0.6,0.4-1c0.4-0.8,0.7-1.6,1-2.4
		c0.2-0.6,0.4-1.1,0.6-1.7c0.3-0.7,0.5-1.4,0.7-2c0.3-0.8,0.5-1.4,0.7-2c0.2-0.7,0.3-1.1,0.3-1.1c0.1-0.4,0.2-0.7,0.2-1.1
		c0.1-0.5,0.2-1,0.2-1.4c0.1-1.1,0.2-2.2,0.2-3.4c0-1-0.1-2.1-0.2-3.1c-0.1-0.8-0.2-1.6-0.4-2.4l0.5-0.3l0,0
		c0.6-0.2,1.1-0.4,1.5-0.7c0.4-0.2,0.7-0.5,0.9-0.8l0,0l0,0l0,0c0.2-0.2,0.3-0.4,0.4-0.6c0.5-1,0.5-2,0.4-2.9
		c-0.2-1.1-0.6-1.8-0.6-1.8l-0.4,1l-0.6,1.3l-1.1-1.9l-0.1-0.2l-0.9-2.4l-0.1-0.2c0-0.8-0.1-1.6-0.3-2.4c-0.2-0.8-0.5-1.5-0.8-2.3
		c-0.3-0.7-0.7-1.4-1.1-2.1c-0.3-0.5-0.6-1.1-1-1.6l-0.7-0.1l-1-0.2c-0.2-0.5-0.3-1.1-0.5-1.6c-0.2-0.7-0.4-1.3-0.6-2l-0.1-0.1
		c-0.5-0.6-0.9-1.2-1.4-1.7c-0.4-0.5-0.8-1-1.2-1.4c-0.1-0.1-0.1-0.1-0.2-0.2c-0.5-0.6-0.9-1.1-1.4-1.6c-0.4-0.4-0.8-0.8-1.1-1.2
		c-0.1-0.1-0.2-0.2-0.3-0.3c-0.8-0.8-1.2-1.3-1.2-1.3v-0.2l0.2-1.6l0.1-0.6l0.3-2.1v-0.2l0.1-0.7c-0.1,0-0.2,0.1-0.3,0.1
		c-0.5,0.1-1,0.2-1.6,0.1c-0.2,0-0.4-0.1-0.6-0.1c-0.4-0.1-0.8-0.2-1.3-0.3c-0.4-0.1-0.7-0.3-1.1-0.5c-0.3-0.2-0.6-0.3-0.9-0.5
		s-0.6-0.4-0.9-0.5c-0.5-0.3-1-0.7-1.4-1c-0.1,0-0.1-0.1-0.2-0.1c-0.7-0.6-1.2-1-1.2-1c0-0.1-0.1-0.1-0.1-0.2
		c-0.3-0.4-0.6-0.8-1-1.2c-0.2-0.3-0.5-0.6-0.8-0.9c-0.1-0.1-0.2-0.2-0.3-0.3c-0.4-0.4-0.7-0.7-1.1-1.1s-0.8-0.7-1.2-1.1
		c-0.2-0.2-0.4-0.3-0.6-0.5s-0.5-0.4-0.7-0.6c-0.4-0.3-0.9-0.7-1.3-1c-0.3-0.2-0.6-0.5-0.9-0.7c-0.1-0.1-0.3-0.2-0.4-0.3
		c-0.5-0.3-0.9-0.7-1.4-1c-0.3-0.2-0.6-0.4-0.9-0.6c-0.2-0.1-0.4-0.2-0.5-0.3c-0.5-0.3-1-0.7-1.5-1l0,0c-0.1,0-0.2-0.1-0.2-0.1
		c-0.3-0.2-0.7-0.4-1-0.6c-4.8,0.1-9.6-0.7-14.1-2.6l0,0c0,0-0.1,0-0.1-0.1c-1.1-0.5-2.3-1-3.3-1.6c-0.5-0.2-1.1-0.5-1.6-0.7
		c-0.1-0.2-0.3-0.3-0.4-0.5c-0.5-0.3-0.9-0.6-1.4-0.9c0.3,0.2,0.7,0.4,1,0.7c-0.1-0.1-0.1-0.1-0.2-0.2h1.6h0.2h1.4h0.7h0.9h1.3h0.3
		h1.6h0.7h1h1.6h0.6h1h1.7h1.7h1.7h1.7h1.7h1.7h1.7h1.1h0.6h1.8h0.9h0.8h1.8l0,0h1.7h0.5h1.3h0.8h0.3c0.3,0,0.5,0,0.7,0
		c0.3,0,0.7,0,1,0s0.6,0,0.8,0c0.4,0,0.8,0,1.1,0c0.2,0,0.4,0,0.6,0c0.5,0,0.9-0.1,1.3-0.1c0.1,0,0.3,0,0.4,0
		c0.6-0.1,1.2-0.1,1.6-0.2h0.1c0.7-0.1,1.2-0.3,1.6-0.4c0.3-0.1,0.5-0.2,0.7-0.3c0.4-0.2,0.6-0.4,0.8-0.5c0.2-0.2,0.1-0.3,0.1-0.3
		l0,0c-0.2-0.4-0.5-0.6-0.8-0.9c-0.1-0.1-0.1-0.1-0.2-0.2c-0.2-0.2-0.5-0.4-0.7-0.5c-0.3-0.2-0.7-0.4-1-0.5s-0.7-0.3-1-0.3h-0.1
		c-0.5-0.1-0.9-0.1-1.4-0.1c-0.2,0-0.3,0-0.5,0c-0.4,0-0.8,0.1-1.2,0.2c-0.2,0-0.4,0.1-0.6,0.1c-0.6,0.1-1.1,0.3-1.6,0.5
		c-0.1,0-0.1,0.1-0.2,0.1c-0.5,0.2-0.9,0.4-1.3,0.5c-0.5,0.3-0.8,0.4-0.8,0.4c0,0.1-0.2,0.2-0.5,0.3c-0.3,0.1-0.8,0.2-1.4,0.2
		c-0.1,0-0.2,0-0.3,0c-0.5,0-1.1,0.1-1.7,0.1c-0.1,0-0.1,0-0.2,0c-0.5,0-1,0-1.6,0c-0.2,0-0.4,0-0.7,0c-0.4,0-0.7,0-1.1,0
		c-0.5,0-0.9,0-1.4,0c-0.1,0-0.3,0-0.4,0c-0.6,0-1.2,0-1.8,0c-0.3,0-0.6,0-1,0c-0.3,0-0.6,0-0.8,0c-0.6,0-1.2,0-1.8-0.1
		c-0.6,0-1.2,0-1.8-0.1c-0.6,0-1.2-0.1-1.8-0.1c-0.7,0-1.3-0.1-1.8-0.1c-0.7,0-1.3-0.1-1.8-0.1c-0.7,0-1-0.1-1-0.1
		c-0.3-0.2-0.6-0.4-0.9-0.6c-0.1-0.1-0.3-0.1-0.4-0.2c-0.7-0.3-1.4-0.5-2.3-0.7c-0.1,0-0.3-0.1-0.4-0.1c-0.5-0.1-1-0.2-1.6-0.2
		c-0.4,0-0.8-0.1-1.2-0.1c-0.2,0-0.4,0-0.6,0c-0.4,0-0.9,0-1.3,0c-0.2,0-0.3,0-0.4,0c-0.4,0-0.8,0-1.2,0c-0.2,0-0.3,0-0.5,0
		c-0.4,0-0.7,0-1.1,0c-0.2,0-0.4,0-0.6,0c-0.3,0-0.6,0-0.9,0s-0.5,0-0.8,0c-0.2,0-0.4,0-0.6,0c-0.3,0-0.6,0-1,0.1
		c-0.1,0-0.3,0-0.4,0c-0.4,0-0.8,0.1-1.1,0.1c-0.1,0-0.2,0-0.2,0c-0.5,0-0.9,0.1-1.3,0.1c0,0,0,0-0.1,0c0.1,0.1,0.2,0.2,0.3,0.3
		c-0.5,0.1-0.9,0.1-1.3,0.1c0.5,0.5,0.9,0.9,1.4,1.4c1.3,1.2,2.8,2.4,4.2,3.4c-1.6-1.1-3.2-2.3-4.6-3.6c-0.5-0.5-1-0.9-1.4-1.4h-0.1
		c-0.5,0.1-0.9,0.1-1.3,0.2c-0.1,0-0.2,0-0.2,0c-0.7-0.8-1.5-1.5-2.2-2.3c0.1-0.1,0.2-0.2,0.3-0.4c0.1-0.3,0.2-0.5,0.2-0.8
		s0-0.5-0.1-0.8c-0.1-0.5-0.4-1.1-0.8-1.7c-0.4-0.6-0.9-1.3-1.5-2c-0.7-0.8-1.5-1.6-2.4-2.4c-0.6-0.6-1.2-1.1-1.9-1.7
		c-0.6-0.5-1.1-0.9-1.7-1.4c-0.5-0.4-1.1-0.8-1.6-1.3c-0.5-0.4-1.1-0.8-1.6-1.2c-0.5-0.4-1-0.8-1.6-1.1c-0.5-0.4-1-0.7-1.5-1.1
		s-1.1-0.7-1.6-1.1s-1.1-0.7-1.5-1c-0.6-0.4-1.1-0.7-1.6-1c-0.6-0.4-1.1-0.7-1.6-1c-0.9-0.6-1.4-0.9-1.4-0.9
		c-0.1,0.1-0.1,0.1-0.2,0.2c-0.2,0.2-0.4,0.3-0.5,0.4c-0.4-0.2-0.7-0.4-1.1-0.6c-0.6-0.3-1.1-0.6-1.7-0.9c-0.6-0.3-1.1-0.6-1.7-0.9
		c-0.6-0.3-1.2-0.6-1.8-0.9s-1.2-0.6-1.8-0.9s-1.2-0.6-1.8-0.9c-0.3-0.1-0.6-0.3-0.9-0.4c0.1-0.4,0.2-0.8,0.2-1.3s0-0.9,0-1.4
		s-0.1-1-0.2-1.5c-0.1-0.5-0.2-1-0.4-1.6v-0.1c-0.2-0.5-0.4-1.1-0.6-1.6c-0.2-0.6-0.5-1.2-0.8-1.7c0-0.1-0.1-0.1-0.1-0.2
		c-0.3-0.6-0.6-1.1-0.9-1.6c-0.2-0.4-0.5-0.8-0.7-1.1c-0.2-0.3-0.4-0.6-0.5-0.8c-0.1-0.2-0.2-0.3-0.2-0.3l0.1,0.3l0.5,1l0.4,0.8
		l0.4,0.8l-1.1-0.3l-1.3-0.3c0.2,0.1,0.4,0.4,0.6,0.7c0.1,0.2,0.3,0.5,0.4,0.9c0.1,0.2,0.2,0.5,0.3,0.8c0.2,0.5,0.4,1,0.6,1.6
		c0.2,0.5,0.3,1,0.5,1.6c0,0.1,0.1,0.2,0.1,0.3c0.1,0.4,0.2,0.8,0.3,1.2c0.2,0.6,0.3,1.1,0.4,1.5c0.2,0.6,0.2,1,0.2,1
		c-0.1,0.1-0.1,0.3-0.1,0.4c-0.2,0.4-0.3,0.8-0.4,1.2c-0.1,0.4-0.1,0.9-0.1,1.3c0,0.5,0,0.9,0.1,1.4s0.3,1.1,0.5,1.6
		c0.2,0.4,0.4,0.7,0.6,1c0.2,0.3,0.4,0.5,0.6,0.8c0.5,0.6,1,1.1,1.5,1.5c1,0.9,1.8,1.4,2,1.4l0,0c0.1,0,0.8,0.3,1.9,0.8
		c0.5,0.2,1.2,0.5,1.9,0.9c0.6,0.3,1.2,0.5,1.9,0.9c0.6,0.3,1.2,0.6,1.8,0.9s1.2,0.6,1.8,0.9c0.2,0.1,0.3,0.2,0.5,0.2
		c0.5,0.3,0.9,0.6,1.4,0.9c0.6,0.4,1.3,0.9,1.9,1.3c0.7,0.5,1.3,0.9,2,1.4s1.3,1,2,1.5c-0.5-0.1-1-0.1-1.5-0.1c-0.2,0-0.4,0-0.7,0
		s-0.6,0-0.9,0c-0.4,0-0.8,0-1.1-0.1c-0.2,0-0.3,0-0.5,0c-0.5,0-1.1,0-1.6,0h-0.1c-0.6,0-1.1,0-1.7,0c-0.1,0-0.1,0-0.2,0
		c-0.6,0-1.1,0-1.5,0c-0.1,0-0.3,0-0.4,0c-0.6,0-1,0-1.3,0.1c-0.3,0-0.5,0-0.5,0c-0.4-0.5-1-0.9-1.7-1.3c-0.5-0.3-1.1-0.5-1.7-0.7
		c-0.1,0-0.3-0.1-0.4-0.1c-0.7-0.2-1.4-0.4-2-0.5c-0.5-0.1-1-0.2-1.4-0.3c-0.2,0-0.4-0.1-0.6-0.1c-0.8-0.1-1.5-0.2-2.1-0.2
		c-0.1,0-0.3,0-0.4,0c-0.3-0.2-0.6-0.3-0.9-0.5c-0.3-0.4-0.7-0.7-1.1-1c-0.7-0.6-1.5-0.9-2.3-1c-0.3-0.1-0.7-0.1-1.1-0.1
		c-0.4,0-0.8,0.1-1.1,0.2s-0.5,0.1-0.8,0.2c-0.5,0.2-0.9,0.3-1.4,0.6l0,0c-0.4,0.2-0.8,0.4-1.2,0.7c-0.3,0.2-0.7,0.4-1,0.7
		c0,0-0.1,0-0.1,0.1c-0.3,0.2-0.6,0.5-1,0.7c-0.3,0.3-0.6,0.5-0.9,0.8c-0.1,0.1-0.1,0.1-0.2,0.2c-0.2,0.2-0.4,0.4-0.6,0.6
		c-0.3,0.3-0.5,0.5-0.8,0.8s-0.5,0.5-0.7,0.8l0,0c-0.3,0.3-0.5,0.6-0.7,0.8c-0.3,0.3-0.4,0.5-0.4,0.5s-0.1,0.1-0.3,0.2
		c-0.2,0.2-0.4,0.4-0.7,0.7l-0.1,0.1c-0.2,0.2-0.5,0.5-0.7,0.8c-0.2,0.2-0.4,0.5-0.7,0.8c-0.2,0.2-0.4,0.5-0.6,0.8l0,0
		c-0.2,0.2-0.4,0.5-0.6,0.8c-0.2,0.3-0.4,0.5-0.6,0.8c-0.2,0.3-0.3,0.5-0.5,0.8c-0.1,0.2-0.2,0.4-0.4,0.6c0,0.1-0.1,0.1-0.1,0.2
		c-0.1,0.3-0.3,0.5-0.4,0.8c-0.1,0.3-0.2,0.5-0.4,0.8c-0.1,0.3-0.2,0.5-0.3,0.8s-0.2,0.6-0.2,0.8c-0.1,0.3-0.1,0.6-0.1,0.9
		c0,0.1,0,0.2,0,0.3c0,0.2,0,0.4,0,0.6c0,0.3,0.1,0.6,0.1,0.9c0.1,0.3,0.2,0.7,0.4,1c0.2,0.4,0.4,0.7,0.7,1.1l0.1,0.1
		c0.4,0.5,0.9,0.9,1.6,1.3c0,0,0,0,0,0.1s0.1,0.4,0.1,0.9c0,0.3,0.1,0.6,0.2,0.9c0.1,0.3,0.1,0.6,0.2,0.9c0.1,0.3,0.1,0.6,0.2,0.9
		c0.1,0.3,0.2,0.6,0.3,0.9c0,0.1,0.1,0.3,0.1,0.4c0.1,0.2,0.1,0.4,0.2,0.6c0.1,0.3,0.2,0.7,0.3,1s0.3,0.7,0.4,1
		c0.2,0.4,0.3,0.7,0.5,1.1c0.3,0.5,0.6,0.9,0.9,1.2c0,0,0,0.1,0.1,0.1c0.2,0.2,0.4,0.4,0.6,0.5c0,0,0,0.2,0,0.6v0.1
		c0,0.2,0,0.5,0,0.7s0,0.5,0,0.8c0,0.2,0,0.5,0,0.8s0,0.5,0,0.8s0,0.5,0,0.8s0,0.5,0.1,0.8c0,0.3,0,0.5,0.1,0.8c0,0.2,0,0.4,0.1,0.6
		c0,0.1,0,0.2,0,0.2c0,0.3,0.1,0.5,0.1,0.8s0.1,0.5,0.1,0.8s0.1,0.5,0.1,0.8s0.1,0.6,0.1,0.8c0,0.3,0.1,0.6,0.1,0.8
		c0,0.3,0.1,0.6,0.1,0.8c0.1,0.3,0.1,0.6,0.2,0.9c-0.2-0.1-0.5-0.3-0.7-0.4c-0.3-0.2-0.6-0.4-0.8-0.5c-0.3-0.4-0.6-0.8-0.9-1.3
		c-0.2-0.4-0.5-0.8-0.8-1.2c-0.2-0.4-0.5-0.8-0.7-1.1c-0.2-0.3-0.4-0.7-0.6-1.1c-0.2-0.3-0.4-0.7-0.6-1.1c-0.2-0.3-0.4-0.7-0.6-1.1
		c-0.2-0.3-0.4-0.7-0.6-1c-0.2-0.3-0.4-0.7-0.6-1c-0.2-0.3-0.4-0.7-0.6-1c-0.2-0.3-0.4-0.7-0.6-1c-0.2-0.3-0.4-0.6-0.5-0.9
		c-0.2-0.3-0.4-0.6-0.5-1c-0.2-0.3-0.4-0.7-0.5-1c-0.2-0.3-0.4-0.7-0.5-1c-0.2-0.4-0.4-0.7-0.5-0.9c-0.2-0.4-0.4-0.7-0.4-0.8
		c0,0,0-0.1-0.1-0.2c-0.1-0.2-0.4-0.6-0.8-1.1c-0.3-0.3-0.7-0.7-1.1-1.1c-0.5-0.4-1-0.9-1.6-1.2c-0.1,0-0.1-0.1-0.2-0.1
		c-1.1-0.6-2.3-1.1-3.7-1.1c-0.3,0-0.6,0-0.9,0.1c-0.5,0.1-1.1,0.2-1.6,0.5c-0.2,0.1-0.4,0.2-0.6,0.3c-0.1,0-0.1,0.1-0.2,0.1
		c0,0-1.6-0.3-3.5-0.6c-0.9-0.2-1.9-0.4-2.8-0.6c-0.4-0.1-0.8-0.2-1.1-0.3c-0.7-0.2-1.3-0.4-1.8-0.6c-0.4-0.2-0.6-0.3-0.7-0.5
		l0.2,0.5l0.3,0.8c-0.5,0-1.1,0-1.6,0C163.9,378.7,163.7,378.7,163.4,378.7l-0.3-0.2C163.2,378.6,163.3,378.6,163.4,378.7z
		 M212.6,430.5l-0.1-1.5l-0.1-1.5l-0.1-1.2v-0.2l-0.1-1.4l-0.1-1.3c0.9,1.5,1.7,3,2.4,4.5c0.1,0.2,0.2,0.5,0.3,0.7l-0.3,0.6
		l-0.3,0.6l-0.3,0.6l-0.3,0.6v0.1l-0.3,0.5l-0.3,0.6c0-0.1-0.1-0.2-0.1-0.3l-0.1-1.5L212.6,430.5z"/>
	
		<pattern  id="SVGID_5_" xlink:href="#譁ｰ隕上ヱ繧ｿ繝ｼ繝ｳ繧ｹ繧ｦ繧ｩ繝" patternTransform="matrix(0.3353 -0.4346 -0.4346 -0.3353 -10230.6406 -5148.563)">
	</pattern>
	<path class="st6" d="M260.8,375.1c1,0.6,2.1,1.1,3.2,1.5c0,0,0,0,0.1,0.1c4.5,1.8,9.3,2.7,14.1,2.6c-0.6-0.3-1.1-0.7-1.7-1h-0.1
		c-4.1-0.1-8.1-0.9-11.9-2.5l-0.8,0.5c0.1,0.1,0.2,0.3,0.3,0.4c-0.8-0.4-1.6-0.8-2.3-1.1C261.3,375.4,261,375.2,260.8,375.1z"/>
	
		<pattern  id="SVGID_6_" xlink:href="#譁ｰ隕上ヱ繧ｿ繝ｼ繝ｳ繧ｹ繧ｦ繧ｩ繝" patternTransform="matrix(0.3353 -0.4346 -0.4346 -0.3353 -10227.1406 -5147.063)">
	</pattern>
	<path class="st7" d="M274.2,377c-0.2-0.1-0.4-0.2-0.6-0.3c-0.6-0.4-1.2-0.7-1.8-1c-0.3-0.2-0.6-0.3-0.8-0.4c-1.1-0.6-2-1-2.6-1.3
		l0,0c-0.6-0.3-0.9-0.4-0.9-0.4l-0.1,0.1l-0.6,0.4l-0.4,0.3l-0.7,0.4l-0.4,0.2l-0.7,0.5l-0.3,0.2c3.8,1.6,7.9,2.4,11.9,2.5
		C275.5,377.7,274.8,377.3,274.2,377z"/>
</g>
<g>
	
		<pattern  id="SVGID_7_" xlink:href="#譁ｰ隕上ヱ繧ｿ繝ｼ繝ｳ繧ｹ繧ｦ繧ｩ繝" patternTransform="matrix(0.3123 8.149185e-02 8.149185e-02 -0.3123 -10728.0918 -4623.124)">
	</pattern>
	<path class="st8" d="M162.4,248.2c0,0.1,0,0.3-0.1,0.5c0,0.1,0,0.3,0,0.4c0,0.3,0,0.7,0,1.1c0,0.4,0,0.8,0,1.3c0,0.1,0,0.1,0,0.2
		c0.1,0.7,0.2,1.5,0.4,2.2c0.2,0.5,0.4,1,0.7,1.5c0.1,0.1,0.2,0.2,0.2,0.3c0.1,0.2,0.2,0.3,0.4,0.4c0.1,0.1,0.2,0.2,0.4,0.3
		c0,0,0.1,0.4,0.1,1c0,0.4,0,0.8,0,1.3c0,0.4-0.1,0.8-0.3,1.2c-0.1,0.2-0.2,0.4-0.4,0.6c-0.1,0.1-0.2,0.2-0.3,0.3l-0.1-0.2l-0.6-1.3
		l-0.1-0.1l-0.5-1.2c0,0,0,0,0,0.1c0,0.2-0.1,0.5-0.3,0.8c-0.1,0.2-0.2,0.5-0.3,0.8c-0.1,0.2-0.2,0.4-0.3,0.6s-0.2,0.4-0.3,0.5
		s-0.2,0.3-0.4,0.4c-0.1,0.1-0.2,0.2-0.4,0.3c-0.1,0.1-0.2,0.1-0.4,0.2c-0.1,0-0.2,0-0.4,0c-0.1,0-0.3,0-0.4-0.1l0,0
		c0,0-0.1,0.2-0.3,0.5c-0.1,0.2-0.2,0.3-0.3,0.6c-0.1,0.2-0.2,0.4-0.3,0.6s-0.2,0.4-0.3,0.6s-0.2,0.4-0.3,0.6s-0.2,0.4-0.4,0.6
		c-0.1,0.2-0.2,0.4-0.4,0.7c-0.1,0.2-0.2,0.4-0.4,0.7c-0.1,0.2-0.3,0.5-0.4,0.8c-0.1,0.3-0.3,0.5-0.4,0.8c-0.1,0.2-0.2,0.4-0.3,0.6
		c0,0.1-0.1,0.2-0.1,0.3c-0.2,0.3-0.3,0.6-0.5,1s-0.4,0.8-0.5,1.2c-0.3,0.6-0.5,1.3-0.7,1.9c-0.3,0.9-0.6,1.8-0.8,2.5
		c-0.1,0.5-0.2,1-0.2,1.4c0,0.3,0,0.5,0.1,0.7c0,0,0,0,0,0.1s0.1,0.3,0.2,0.4c0.1,0.1,0.1,0.2,0.2,0.3c0.1,0.1,0.2,0.1,0.3,0.2
		c0.1,0,0.2,0.1,0.3,0.1c-0.2,0.6-0.5,1.1-0.8,1.7c-0.1,0-0.3,0.1-0.5,0.2c-0.1,0.1-0.3,0.1-0.5,0.2c-0.1,0.1-0.3,0.1-0.5,0.2
		c0,0-0.1,0-0.1,0.1c-0.1,0-0.2,0.1-0.4,0.1c-0.2,0.1-0.3,0.1-0.5,0.2s-0.3,0.1-0.5,0.2s-0.3,0.1-0.5,0.2s-0.3,0.1-0.5,0.2l0,0
		c-0.2,0.1-0.3,0.2-0.5,0.2c-0.2,0.1-0.4,0.2-0.5,0.2c-0.2,0.1-0.4,0.2-0.6,0.3c-0.2,0.1-0.4,0.2-0.6,0.3c0,0-0.1,0-0.1,0.1
		c-0.2,0.1-0.3,0.2-0.5,0.2c-0.2,0.1-0.5,0.2-0.7,0.4c-0.2,0.1-0.5,0.3-0.7,0.4s-0.4,0.3-0.6,0.4c-0.1,0.1-0.2,0.1-0.3,0.2
		c-1,0.7-1.8,1.5-2.2,2.2c-0.1,0.1-0.2,0.1-0.3,0.2l-0.1,0.1c-0.3,0.2-0.9,0.5-1.7,1c-0.2,0.1-0.4,0.3-0.7,0.4
		c-0.7,0.4-1.6,0.9-2.4,1.4c-0.8,0.5-1.7,0.9-2.5,1.3c-0.7,0.4-1.4,0.7-2.1,1c-0.1,0-0.3,0.1-0.4,0.1c-0.7,0.2-1.4,0.5-2.1,0.7
		c-0.1,0-0.2,0-0.3,0c-0.5,0-1.5,0.1-2.5,0.4c-0.3,0.1-0.5,0.2-0.8,0.3c-0.2,0.1-0.4,0.2-0.6,0.4c-0.1,0.1-0.3,0.2-0.4,0.3
		c-0.1,0.1-0.2,0.2-0.3,0.3c-0.1,0.1-0.1,0.2-0.2,0.3c-0.1,0.1-0.1,0.2-0.2,0.3c0,0.1-0.1,0.2-0.1,0.3c0,0.1-0.1,0.2-0.1,0.3
		c0,0.1,0,0.2-0.1,0.3c0,0.1,0,0.1,0,0.2c0,0,0,0,0.1,0.1c0.2,0.1,0.7,0.2,2-0.2c0.1,0,0.3-0.1,0.4-0.1c0.3-0.1,0.6-0.2,1-0.4
		c0.4-0.2,0.8-0.3,1.2-0.5c0.1-0.1,0.2-0.1,0.3-0.2c0.3-0.1,0.6-0.3,0.9-0.4c0.1-0.1,0.3-0.1,0.4-0.2l1-0.5l0.2-0.1l2-1l0.5-0.2
		l2.4-1.2l1.8-0.9l0.6-0.3l1.6-0.8l0.7-0.4l0.7-0.4l1.2-0.6l0.4-0.2l0.6-0.3l0.7-0.4c0,0-0.1,0.2-0.4,0.5c-0.2,0.3-0.5,0.7-0.9,1.3
		c-0.1,0.1-0.2,0.3-0.3,0.4c-0.1,0.2-0.3,0.4-0.4,0.6c-0.2,0.3-0.4,0.6-0.6,0.9c-0.2,0.3-0.3,0.5-0.5,0.8c-0.2,0.2-0.3,0.5-0.5,0.7
		c-0.1,0.2-0.3,0.5-0.4,0.7c-0.1,0.2-0.2,0.3-0.3,0.5l-0.1,0.1c-0.1,0.2-0.2,0.4-0.4,0.6c-0.1,0.2-0.2,0.4-0.3,0.6s-0.2,0.4-0.3,0.6
		s-0.2,0.4-0.3,0.6s-0.2,0.4-0.3,0.5c-0.1,0.2-0.2,0.4-0.3,0.5c-0.1,0.2-0.2,0.4-0.3,0.5c-0.1,0.2-0.2,0.4-0.2,0.5v0.1
		c-0.1,0.1-0.1,0.3-0.2,0.4c-0.1,0.2-0.1,0.3-0.2,0.5c-0.1,0.2-0.1,0.3-0.2,0.5c-0.1,0.2-0.1,0.3-0.2,0.5c-0.1,0.2-0.1,0.3-0.2,0.5
		c0,0.2-0.1,0.3-0.1,0.5s-0.1,0.3-0.1,0.5s-0.1,0.3-0.1,0.5s-0.1,0.3-0.1,0.5c0,0.1,0,0.3-0.1,0.4c0,0,0,0,0,0.1s-0.1,0.3-0.2,0.5
		c-0.1,0.2-0.2,0.3-0.3,0.5c-0.1,0.1-0.1,0.3-0.2,0.4c0,0,0,0.1-0.1,0.1c-0.1,0.2-0.2,0.4-0.3,0.6s-0.3,0.4-0.4,0.6
		c-0.2,0.2-0.3,0.4-0.5,0.6c-0.2,0.3-0.5,0.5-0.7,0.7l0,0c-0.3,0.2-0.7,0.4-1.1,0.4l0.2,0.2l0.3,0.4l0.3,0.4l0.3,0.4l0.2,0.3
		l0.1,0.1l0.3,0.4l0.3,0.3c0,0,0,0,0,0.1s-0.1,0.3-0.2,0.5c0,0.2-0.1,0.3-0.2,0.5c0,0,0,0,0,0.1s-0.1,0.3-0.1,0.5s-0.1,0.3-0.1,0.5
		s-0.1,0.4-0.1,0.5c0,0.2-0.1,0.4-0.1,0.5c0,0.2-0.1,0.4-0.1,0.5c0,0.2-0.1,0.4-0.1,0.5c0,0.2-0.1,0.4-0.1,0.6s-0.1,0.4-0.1,0.6
		s-0.1,0.4-0.1,0.6s-0.1,0.4-0.1,0.6s-0.1,0.4-0.1,0.6l0,0c0,0.2-0.1,0.4-0.1,0.6s0,0.4-0.1,0.6c0,0.2,0,0.4-0.1,0.6
		c0,0.2,0,0.4,0,0.6s0,0.4,0,0.6s0,0.4,0,0.6s0,0.4,0,0.6s0,0.4,0,0.6s0,0.4,0.1,0.6c0,0.2,0.1,0.4,0.1,0.6c0.1,0.2,0.1,0.4,0.2,0.6
		c0.1,0.2,0.2,0.4,0.3,0.6c0.1,0.1,0.2,0.3,0.2,0.4v0.2v0.6v0.6v0.6c-0.2,0-0.3,0.1-0.5,0.1c0,0,0,0-0.1,0l-0.6-0.5c0,0,0,0.2,0,0.6
		c0,0.2,0.1,0.4,0.2,0.6c0.1,0.2,0.2,0.4,0.3,0.6s0.3,0.4,0.5,0.6c0.1,0.1,0.3,0.2,0.5,0.3c0.2,0.1,0.3,0.1,0.5,0.2
		c0.5-0.1,1-0.2,1.5-0.3c0.1,0.2,0.1,0.4,0.2,0.6c0.1,0.2,0.1,0.4,0.2,0.6c0.1,0.2,0.1,0.4,0.2,0.6c0.1,0.2,0.2,0.4,0.3,0.6
		s0.2,0.4,0.3,0.6s0.2,0.4,0.3,0.6s0.2,0.4,0.4,0.6c0.1,0.2,0.3,0.4,0.4,0.6c0.1,0.2,0.3,0.4,0.5,0.6c0.1,0.2,0.3,0.4,0.5,0.6
		c0,0,0,0,0.1,0.1l0,0c0.1,0.1,0.3,0.3,0.6,0.6c0.2,0.2,0.4,0.4,0.6,0.6c0.2,0.2,0.4,0.4,0.6,0.6c0.2,0.2,0.4,0.4,0.7,0.6
		c0.2,0.2,0.4,0.4,0.7,0.6c0.2,0.2,0.5,0.4,0.7,0.6s0.5,0.4,0.7,0.6c0.1,0.1,0.2,0.2,0.3,0.3c0.1,0.1,0.3,0.2,0.4,0.3
		c0.3,0.2,0.5,0.4,0.8,0.6s0.6,0.4,0.9,0.6c0.3,0.2,0.6,0.4,0.9,0.5c0.4,0.2,0.7,0.4,1.1,0.5c0.1,0,0.1,0.1,0.2,0.1
		c0.4,0.1,0.7,0.3,1.1,0.3c0.2,0,0.4,0.1,0.6,0.1c0.2,0.1,0.4,0.3,0.6,0.4c0.4,0.2,0.8,0.3,1.2,0.4c0,0,0,0,0.1,0
		c0.4,0.1,0.9,0.2,1.4,0.3c0.5,0.1,1.1,0.2,1.6,0.2c0.1,0,0.1,0,0.1,0c0.7,0.1,1.3,0.1,2,0.1c0.2,0,0.4,0,0.6,0c0.5,0,1,0,1.5,0
		c0.4,0,0.7,0,1,0c0.4,0,0.9,0,1.2-0.1c0.5,0,0.9-0.1,1.2-0.1c0.4,0,0.7-0.1,0.7-0.1c0.2,0,0.4-0.1,0.6-0.1c0.3-0.1,0.6-0.1,0.8-0.2
		c0.6-0.2,1.3-0.4,1.9-0.7c0.6-0.2,1.1-0.5,1.6-0.8c0.4-0.2,0.8-0.5,1.2-0.8l0.3,0.2l0,0c0.2,0.3,0.5,0.5,0.7,0.6s0.4,0.2,0.6,0.3
		l0,0l0,0l0,0c0.1,0,0.3,0.1,0.4,0.1c0.6,0.1,1.2-0.2,1.6-0.5c0.5-0.3,0.8-0.8,0.8-0.8h-0.6h-0.8l0.8-1l0.1-0.1l1.1-1.1l0.1-0.1
		c0.4-0.2,0.8-0.4,1.2-0.7c0.4-0.3,0.7-0.6,1.1-1c0.3-0.3,0.6-0.7,0.9-1.1c0.2-0.3,0.4-0.6,0.7-0.9l-0.1-0.4l-0.1-0.6
		c0.3-0.2,0.5-0.4,0.8-0.6c0.3-0.3,0.6-0.5,0.9-0.8v-0.1c0.2-0.4,0.4-0.8,0.6-1.1c0.2-0.3,0.3-0.7,0.5-1c0,0,0-0.1,0.1-0.1
		c0.2-0.4,0.4-0.8,0.5-1.1c0.1-0.3,0.3-0.6,0.4-0.8c0-0.1,0.1-0.2,0.1-0.3c0.3-0.6,0.4-1,0.4-1h0.1l0.9-0.2l0.3-0.1l1.2-0.3h0.1
		l0.4-0.1c0,0-0.1-0.1-0.1-0.2c-0.2-0.2-0.3-0.5-0.4-0.8c0-0.1-0.1-0.2-0.1-0.3c-0.1-0.2-0.1-0.5-0.1-0.8c0-0.2,0-0.5,0-0.7
		s0-0.4,0-0.6s0.1-0.4,0.1-0.6c0.1-0.4,0.1-0.7,0.2-1v-0.1c0.1-0.5,0.2-0.9,0.2-0.9s0-0.1,0.1-0.1c0.2-0.3,0.3-0.5,0.4-0.8
		c0.1-0.2,0.2-0.4,0.3-0.6c0-0.1,0.1-0.1,0.1-0.2c0.1-0.3,0.2-0.6,0.3-0.9s0.2-0.6,0.3-0.9c0-0.1,0.1-0.3,0.1-0.4
		c0-0.2,0.1-0.3,0.1-0.5c0.1-0.3,0.2-0.6,0.3-0.9c0.1-0.2,0.1-0.4,0.2-0.6c0-0.1,0-0.2,0.1-0.3c0.1-0.3,0.1-0.6,0.2-1
		c0-0.2,0.1-0.4,0.1-0.6c0-0.1,0-0.2,0.1-0.4c0.1-0.4,0.1-0.7,0.2-1.1l0,0c0-0.1,0-0.1,0-0.2c0-0.2,0.1-0.4,0.1-0.7
		c-1.2-2.6-1.8-5.4-1.8-8.2l0,0v-0.1c0-0.7,0-1.4,0.1-2.2c0-0.4,0-0.7,0-1c0.1-0.1,0.1-0.2,0.2-0.3c0.1-0.3,0.1-0.6,0.2-1
		c0,0.2-0.1,0.5-0.1,0.7c0,0,0-0.1,0.1-0.1l0.4,0.9l0.1,0.1l0.3,0.8l0.2,0.4l0.2,0.5l0.3,0.7l0.1,0.2l0.4,0.9l0.2,0.4l0.2,0.5
		l0.4,0.9l0.1,0.3l0.2,0.6l0.4,0.9l0.4,0.9l0.4,0.9l0.4,0.9l0.4,0.9l0.4,0.9l0.4,0.9l0.3,0.6l0.1,0.3l0.4,0.9l0.2,0.5l0.2,0.4l0.4,1
		l0,0l0.4,0.9l0.1,0.3l0.3,0.7l0.2,0.4l0.1,0.1c0.1,0.1,0.1,0.3,0.2,0.4c0.1,0.2,0.2,0.4,0.2,0.5c0.1,0.2,0.1,0.3,0.2,0.4
		c0.1,0.2,0.2,0.4,0.3,0.6c0.1,0.1,0.1,0.2,0.2,0.3c0.1,0.3,0.2,0.5,0.4,0.7c0,0.1,0.1,0.2,0.1,0.2c0.2,0.3,0.3,0.6,0.5,0.8l0,0
		c0.2,0.3,0.4,0.6,0.6,0.8c0.1,0.1,0.2,0.2,0.3,0.3c0.2,0.2,0.4,0.3,0.5,0.3s0.2,0,0.2,0l0,0c0.1-0.2,0.2-0.4,0.3-0.6
		c0,0,0-0.1,0.1-0.1c0.1-0.2,0.1-0.3,0.1-0.5s0.1-0.5,0.1-0.7s0-0.4-0.1-0.6v-0.1c-0.1-0.3-0.1-0.5-0.3-0.8c0-0.1-0.1-0.2-0.1-0.3
		c-0.1-0.2-0.2-0.4-0.4-0.6c-0.1-0.1-0.1-0.2-0.2-0.3c-0.2-0.3-0.4-0.5-0.6-0.7l-0.1-0.1c-0.2-0.2-0.4-0.4-0.6-0.6
		c-0.3-0.2-0.4-0.4-0.4-0.4c-0.1,0-0.2-0.1-0.3-0.2c-0.1-0.2-0.3-0.4-0.4-0.7c0-0.1-0.1-0.1-0.1-0.2c-0.1-0.3-0.3-0.6-0.5-0.9v-0.1
		c-0.1-0.3-0.3-0.6-0.4-0.9c-0.1-0.1-0.1-0.2-0.2-0.4c-0.1-0.2-0.2-0.4-0.3-0.6s-0.2-0.5-0.3-0.8c0-0.1-0.1-0.1-0.1-0.2
		c-0.1-0.3-0.3-0.6-0.4-1c-0.1-0.2-0.1-0.4-0.2-0.5c-0.1-0.2-0.1-0.3-0.2-0.5c-0.1-0.3-0.3-0.7-0.4-1c-0.1-0.3-0.3-0.7-0.4-1
		c-0.1-0.3-0.3-0.7-0.4-1c-0.1-0.4-0.3-0.7-0.4-1c-0.1-0.4-0.3-0.7-0.4-1c-0.1-0.4-0.2-0.6-0.2-0.6c0.1-0.2,0.1-0.4,0.1-0.6
		c0-0.1,0-0.2,0-0.3c0-0.4,0-0.9-0.1-1.4c0-0.1,0-0.2-0.1-0.2c-0.1-0.3-0.1-0.6-0.2-0.9c-0.1-0.2-0.1-0.5-0.2-0.7
		c0-0.1-0.1-0.2-0.1-0.3c-0.1-0.2-0.2-0.5-0.3-0.7c0-0.1-0.1-0.2-0.1-0.2c-0.1-0.2-0.2-0.4-0.3-0.7c0-0.1-0.1-0.2-0.1-0.3
		c-0.1-0.2-0.2-0.4-0.3-0.6c0-0.1-0.1-0.2-0.1-0.3c-0.1-0.2-0.1-0.3-0.2-0.5c-0.1-0.1-0.1-0.3-0.2-0.4c-0.1-0.1-0.1-0.2-0.2-0.3
		c-0.1-0.2-0.2-0.3-0.3-0.5c0-0.1-0.1-0.1-0.1-0.2c-0.1-0.2-0.2-0.4-0.3-0.6c0,0,0-0.1-0.1-0.1c-0.1-0.2-0.3-0.5-0.4-0.7l0,0
		c0,0.1-0.1,0.1-0.1,0.2c-0.1-0.2-0.3-0.5-0.4-0.7c-0.2,0.4-0.3,0.7-0.4,1.1c-0.4,1-0.6,2-0.8,3.1c0.2-1.1,0.5-2.2,0.9-3.3
		c0.1-0.4,0.3-0.7,0.4-1.1c0,0,0,0,0-0.1c-0.1-0.3-0.3-0.5-0.4-0.6c0,0,0-0.1-0.1-0.1c0.2-0.6,0.5-1.1,0.7-1.7c0.1,0,0.2,0,0.3,0.1
		c0.2,0,0.3,0,0.5-0.1c0.1-0.1,0.3-0.1,0.4-0.2c0.3-0.2,0.5-0.5,0.7-0.8c0.3-0.4,0.5-0.8,0.7-1.3c0.3-0.6,0.5-1.2,0.8-1.9
		c0.2-0.5,0.3-0.9,0.5-1.4c0.1-0.4,0.2-0.8,0.4-1.3c0.1-0.4,0.2-0.8,0.3-1.2c0.1-0.4,0.2-0.8,0.3-1.1c0.1-0.4,0.2-0.7,0.3-1.1
		s0.2-0.7,0.2-1.1c0.1-0.4,0.1-0.7,0.2-1.1c0.1-0.4,0.1-0.7,0.2-1.1c0.1-0.4,0.1-0.8,0.2-1.1c0.1-0.4,0.1-0.8,0.2-1.1
		c0.1-0.6,0.2-1,0.2-1s-0.1,0-0.1-0.1c-0.1-0.1-0.2-0.1-0.3-0.2c0-0.2,0.1-0.5,0.1-0.7c0-0.4,0.1-0.8,0.1-1.1c0-0.4,0.1-0.8,0.1-1.1
		c0-0.4,0.1-0.8,0.1-1.2c0-0.4,0.1-0.8,0.1-1.2c0-0.4,0-0.8,0-1.2c0-0.2,0-0.4,0-0.6c0.2,0,0.5-0.1,0.7-0.2c0.3-0.1,0.5-0.2,0.7-0.3
		c0.3-0.1,0.5-0.3,0.7-0.4c0.3-0.2,0.5-0.4,0.8-0.6l0,0c0.3-0.2,0.5-0.4,0.7-0.7c0.3-0.3,0.5-0.5,0.8-0.8l0.1-0.1
		c0.2-0.3,0.5-0.6,0.7-0.8c0.2-0.2,0.3-0.4,0.4-0.6c0.1-0.2,0.2-0.3,0.3-0.5c0.1-0.1,0.1-0.2,0.1-0.2l-0.1,0.1l-0.4,0.5l-0.3,0.4
		l-0.3,0.4l-0.1-0.7l-0.1-0.8c0,0.1-0.1,0.3-0.3,0.5c-0.1,0.1-0.2,0.3-0.4,0.4c-0.1,0.1-0.2,0.2-0.4,0.4c-0.2,0.2-0.5,0.4-0.7,0.7
		c-0.2,0.2-0.5,0.4-0.7,0.6c-0.1,0-0.1,0.1-0.2,0.1c-0.2,0.2-0.4,0.3-0.6,0.5c-0.3,0.2-0.5,0.4-0.7,0.6c-0.3,0.2-0.5,0.4-0.5,0.4
		c-0.1,0-0.2,0-0.3,0c-0.3,0-0.5,0-0.7,0.1c-0.3,0.1-0.5,0.1-0.7,0.2c-0.3,0.1-0.5,0.2-0.7,0.4c-0.3,0.2-0.5,0.4-0.7,0.6
		s-0.3,0.4-0.4,0.6c-0.1,0.2-0.2,0.3-0.3,0.5c-0.2,0.4-0.4,0.8-0.5,1.2c-0.2,0.7-0.3,1.3-0.3,1.4l0,0c0,0.1,0,0.5,0,1.2
		c0,0.4,0,0.8,0,1.2c0,0.4,0,0.8,0,1.2c0,0.4,0,0.8,0,1.2c0,0.4,0,0.8-0.1,1.2c0,0.1,0,0.2,0,0.3c-0.1,0.3-0.1,0.6-0.2,0.9
		c-0.1,0.4-0.2,0.9-0.3,1.3c-0.1,0.5-0.2,0.9-0.3,1.4s-0.2,0.9-0.3,1.4c-0.1-0.3-0.2-0.6-0.3-0.9c0-0.1-0.1-0.2-0.1-0.4
		c-0.1-0.2-0.1-0.3-0.2-0.5c-0.1-0.2-0.2-0.4-0.2-0.6c0-0.1-0.1-0.2-0.1-0.3c-0.1-0.3-0.2-0.6-0.3-0.8l0,0c-0.1-0.3-0.3-0.6-0.4-0.9
		v-0.1c-0.1-0.3-0.3-0.6-0.4-0.8c0-0.1-0.1-0.2-0.1-0.2c-0.1-0.3-0.3-0.5-0.3-0.7c-0.1-0.2-0.1-0.3-0.1-0.3c0.2-0.3,0.3-0.7,0.3-1.2
		c0-0.3,0-0.7,0-1.1c0-0.1,0-0.2,0-0.3c0-0.4-0.1-0.8-0.2-1.2c-0.1-0.3-0.1-0.6-0.2-0.8c0-0.1-0.1-0.2-0.1-0.3
		c-0.1-0.5-0.2-0.9-0.3-1.2c0-0.1,0-0.1-0.1-0.2c0-0.2,0-0.4,0-0.6c0.1-0.3,0.2-0.5,0.3-0.8c0.1-0.5,0.1-1,0-1.5
		c-0.1-0.2-0.1-0.4-0.2-0.6c-0.1-0.2-0.2-0.4-0.3-0.6c-0.1-0.1-0.2-0.2-0.3-0.4c-0.2-0.2-0.4-0.4-0.6-0.6l0,0
		c-0.2-0.2-0.4-0.3-0.6-0.5c-0.2-0.1-0.4-0.3-0.6-0.4l0,0c-0.2-0.1-0.4-0.2-0.6-0.3c-0.2-0.1-0.4-0.2-0.6-0.3c-0.1,0-0.1,0-0.2-0.1
		c-0.2-0.1-0.3-0.1-0.5-0.2s-0.4-0.2-0.6-0.2c-0.2-0.1-0.4-0.1-0.6-0.2l0,0c-0.2-0.1-0.4-0.1-0.6-0.2c-0.2-0.1-0.4-0.1-0.4-0.1
		s-0.1,0-0.2-0.1c-0.1-0.1-0.3-0.1-0.5-0.2c0,0,0,0-0.1,0c-0.2-0.1-0.4-0.1-0.6-0.2c-0.2-0.1-0.4-0.1-0.6-0.2
		c-0.2-0.1-0.4-0.1-0.6-0.2l0,0c-0.2-0.1-0.4-0.1-0.6-0.1c-0.2,0-0.4-0.1-0.6-0.1c-0.2,0-0.4-0.1-0.5-0.1s-0.3,0-0.4-0.1H174
		c-0.2,0-0.4,0-0.5,0c-0.2,0-0.3,0-0.5,0s-0.3,0-0.5,0s-0.3,0-0.5,0.1c-0.2,0-0.3,0.1-0.5,0.1c-0.1,0-0.1,0-0.1,0.1
		c-0.1,0-0.2,0.1-0.3,0.1c-0.2,0.1-0.3,0.2-0.5,0.3c-0.2,0.1-0.3,0.3-0.5,0.4c-0.2,0.2-0.3,0.4-0.4,0.6c0,0,0,0,0,0.1
		c-0.2,0.3-0.3,0.7-0.4,1.1l0,0c-0.1,0-0.2,0.1-0.5,0.3c-0.1,0.1-0.3,0.2-0.5,0.3c-0.1,0.1-0.3,0.2-0.5,0.3
		c-0.1,0.1-0.3,0.2-0.4,0.3c-0.1,0.1-0.3,0.2-0.4,0.4c-0.1,0-0.1,0.1-0.2,0.2c-0.1,0.1-0.2,0.2-0.3,0.2c-0.2,0.1-0.3,0.3-0.5,0.4
		c-0.2,0.2-0.3,0.3-0.4,0.5c-0.2,0.2-0.3,0.4-0.4,0.5c-0.2,0.3-0.3,0.5-0.5,0.8c0,0,0,0,0,0.1c-0.1,0.2-0.1,0.3-0.1,0.5
		c0,0-0.1,0.1-0.3,0.1l0,0c-0.1,0-0.2,0.1-0.4,0.2c-0.1,0.1-0.3,0.1-0.4,0.2c-0.1,0.1-0.3,0.1-0.4,0.2c-0.1,0.1-0.3,0.1-0.4,0.2
		c-0.1,0.1-0.3,0.1-0.4,0.2c-0.1,0.1-0.3,0.1-0.4,0.2c-0.1,0.1-0.3,0.1-0.4,0.2c-0.1,0.1-0.2,0.1-0.3,0.2c0,0-0.1,0-0.1,0.1
		c-0.1,0.1-0.3,0.2-0.4,0.2c-0.1,0.1-0.3,0.2-0.4,0.2c-0.1,0.1-0.3,0.2-0.4,0.2c-0.1,0.1-0.3,0.2-0.4,0.3c-0.1,0.1-0.3,0.2-0.4,0.3
		c-0.1,0.1-0.3,0.2-0.4,0.3c-0.1,0.1-0.3,0.2-0.4,0.3c0-0.2,0.1-0.3,0.1-0.5s0.1-0.4,0.1-0.6c0.1-0.2,0.3-0.5,0.5-0.8
		c0.1-0.2,0.3-0.4,0.5-0.7c0.1-0.2,0.3-0.4,0.5-0.7c0.1-0.2,0.3-0.4,0.4-0.6c0.1-0.2,0.3-0.4,0.4-0.6c0.1-0.2,0.3-0.4,0.4-0.6
		c0.1-0.2,0.3-0.4,0.4-0.5c0.1-0.2,0.3-0.4,0.4-0.5c0.1-0.2,0.3-0.4,0.4-0.5c0.1-0.2,0.3-0.4,0.4-0.5c0.1-0.2,0.3-0.3,0.4-0.5
		c0.1-0.2,0.3-0.3,0.4-0.5c0.1-0.2,0.3-0.3,0.4-0.5c0.1-0.2,0.3-0.3,0.4-0.5c0.1-0.2,0.3-0.4,0.4-0.5c0.2-0.2,0.3-0.4,0.3-0.4
		s0,0,0.1-0.1s0.2-0.4,0.4-0.7c0.1-0.2,0.2-0.5,0.3-0.8c0.1-0.4,0.2-0.7,0.3-1.2v-0.1c0.1-0.7,0-1.5-0.3-2.3
		c-0.1-0.2-0.1-0.3-0.2-0.5c-0.2-0.3-0.4-0.5-0.6-0.8c-0.1-0.1-0.2-0.2-0.3-0.3l-0.1-0.1c0,0-0.2-0.9-0.5-2
		c-0.1-0.5-0.2-1.1-0.3-1.6c0-0.2-0.1-0.5-0.1-0.7c-0.1-0.4-0.1-0.8-0.1-1.1c0-0.2,0-0.4,0.1-0.5l-0.2,0.2l-0.3,0.3
		c-0.1-0.3-0.2-0.6-0.4-0.9C162.5,248.5,162.4,248.4,162.4,248.2V248C162.4,248,162.4,248.1,162.4,248.2z M145.7,286.7l0.8-0.4
		l0.8-0.4l0.6-0.3h0.1l0.7-0.4l0.7-0.3c-0.6,0.8-1.2,1.6-1.9,2.4c-0.1,0.1-0.2,0.2-0.3,0.3h-0.4h-0.4H146h-0.4l0,0h-0.4h-0.4
		l0.1-0.1L145.7,286.7L145.7,286.7z"/>
	
		<pattern  id="SVGID_8_" xlink:href="#譁ｰ隕上ヱ繧ｿ繝ｼ繝ｳ繧ｹ繧ｦ繧ｩ繝" patternTransform="matrix(0.3123 8.149185e-02 8.149185e-02 -0.3123 -10664.9922 -4675.3242)">
	</pattern>
	<path class="st9" d="M186.7,300c-0.1,0.7-0.1,1.4-0.1,2.1l0,0c0,2.9,0.7,5.7,1.8,8.2c0.1-0.4,0.1-0.8,0.2-1.1c0,0,0,0,0-0.1
		c-0.9-2.2-1.4-4.6-1.4-7l-0.4-0.3c0,0.1-0.1,0.2-0.1,0.2c0-0.5,0.1-1,0.1-1.5C186.7,300.4,186.7,300.2,186.7,300z"/>
	
		<pattern  id="SVGID_9_" xlink:href="#譁ｰ隕上ヱ繧ｿ繝ｼ繝ｳ繧ｹ繧ｦ繧ｩ繝" patternTransform="matrix(0.3123 8.149185e-02 8.149185e-02 -0.3123 -10664.4922 -4677.2241)">
	</pattern>
	<path class="st10" d="M188.8,307.7c0-0.1,0-0.3,0-0.4c0-0.4,0.1-0.8,0.1-1.2c0-0.2,0-0.4,0-0.6c0.1-0.7,0.1-1.3,0.1-1.7l0,0
		c0-0.4,0-0.6,0-0.6l-0.1-0.1l-0.3-0.2l-0.3-0.2l-0.4-0.3l-0.2-0.1l-0.4-0.3l-0.2-0.1c0,2.4,0.5,4.8,1.4,7
		C188.7,308.6,188.8,308.2,188.8,307.7z"/>
</g>
<g>
	
		<pattern  id="SVGID_10_" xlink:href="#譁ｰ隕上ヱ繧ｿ繝ｼ繝ｳ繧ｹ繧ｦ繧ｩ繝" patternTransform="matrix(0.2884 0.3926 0.3926 -0.2884 -11059.7949 -4097.1968)">
	</pattern>
	<path class="st11" d="M272.6,136.8c-0.1,0.1-0.3,0.3-0.6,0.6c-0.1,0.1-0.3,0.3-0.5,0.5c-0.3,0.4-0.7,0.8-1.1,1.2
		c-0.4,0.5-0.8,1-1.1,1.5c-0.1,0.1-0.1,0.2-0.2,0.2c-0.6,0.9-1.2,1.9-1.6,2.9c-0.3,0.8-0.6,1.6-0.7,2.4c0,0.2,0,0.4,0,0.6
		c0,0.3,0,0.6,0,0.9c0,0.2,0.1,0.5,0.1,0.7c0,0-0.3,0.6-0.8,1.3c-0.3,0.5-0.7,1-1.2,1.5c-0.4,0.4-0.9,0.8-1.4,1.1
		c-0.3,0.2-0.6,0.3-1,0.3c-0.2,0-0.4,0.1-0.7,0l0.1-0.3l0.6-2.1l0.1-0.2l0.5-1.9c0,0-0.1,0-0.1,0.1c-0.2,0.1-0.6,0.4-1.1,0.7
		c-0.3,0.2-0.7,0.4-1.1,0.6c-0.3,0.2-0.6,0.3-1,0.4c-0.3,0.1-0.6,0.2-0.9,0.3s-0.5,0.1-0.8,0.1c-0.2,0-0.5,0-0.7,0s-0.4-0.1-0.6-0.2
		c-0.2-0.1-0.3-0.2-0.5-0.3c-0.1-0.1-0.3-0.3-0.4-0.5l0,0c0,0-0.3,0.1-0.9,0.3c-0.3,0.1-0.6,0.2-0.9,0.3c-0.3,0.1-0.6,0.2-0.9,0.4
		c-0.3,0.1-0.6,0.2-1,0.4c-0.3,0.1-0.6,0.3-1,0.4c-0.3,0.1-0.7,0.3-1,0.4c-0.3,0.1-0.7,0.3-1.1,0.4c-0.3,0.1-0.7,0.3-1.1,0.5
		c-0.4,0.2-0.8,0.3-1.2,0.5s-0.8,0.4-1.2,0.5c-0.3,0.1-0.6,0.3-1,0.4c-0.1,0.1-0.3,0.1-0.4,0.2c-0.5,0.2-1,0.5-1.5,0.7
		c-0.6,0.3-1.2,0.6-1.8,0.9c-0.9,0.5-1.8,1-2.6,1.5c-1.3,0.7-2.4,1.5-3.3,2.2c-0.6,0.5-1.2,1-1.5,1.5c-0.2,0.3-0.4,0.6-0.6,0.9v0.1
		c-0.1,0.2-0.2,0.4-0.2,0.6c0,0.2,0,0.4,0,0.6c0,0.2,0.1,0.3,0.2,0.5c0.1,0.1,0.2,0.3,0.3,0.4c-0.8,0.4-1.7,0.9-2.6,1.2
		c-0.2-0.1-0.4-0.2-0.7-0.3c-0.2-0.1-0.5-0.2-0.7-0.2c-0.2-0.1-0.5-0.2-0.7-0.2c-0.1,0-0.1,0-0.2-0.1c-0.2-0.1-0.4-0.1-0.5-0.2
		c-0.2-0.1-0.5-0.2-0.8-0.2c-0.2-0.1-0.5-0.2-0.8-0.2c-0.3-0.1-0.5-0.2-0.8-0.2c-0.2-0.1-0.5-0.1-0.7-0.2c0,0,0,0-0.1,0
		c-0.3-0.1-0.6-0.2-0.8-0.2c-0.3-0.1-0.6-0.1-0.8-0.2c-0.3-0.1-0.6-0.1-0.9-0.2c-0.3-0.1-0.6-0.1-1-0.2c-0.1,0-0.1,0-0.2,0
		c-0.3-0.1-0.5-0.1-0.8-0.2c-0.4-0.1-0.8-0.1-1.1-0.2c-0.4-0.1-0.8-0.1-1.2-0.2c-0.4-0.1-0.7-0.1-1.1-0.1c-0.2,0-0.3,0-0.5,0
		c-1.9-0.1-3.6,0-4.7,0.5c-0.2,0-0.3,0-0.5,0c-0.1,0-0.1,0-0.2,0c-0.6-0.1-1.6-0.2-2.9-0.4c-0.4-0.1-0.8-0.1-1.2-0.2
		c-1.3-0.2-2.7-0.4-4.2-0.7c-1.4-0.2-2.8-0.5-4.2-0.8c-1.2-0.2-2.4-0.5-3.4-0.7c-0.2-0.1-0.4-0.2-0.6-0.2c-1.1-0.4-2.1-0.8-3.1-1.3
		c-0.1-0.1-0.2-0.2-0.4-0.3c-0.6-0.5-1.8-1.4-3.3-1.9c-0.4-0.1-0.8-0.3-1.2-0.4c-0.3-0.1-0.7-0.1-1-0.1s-0.5,0-0.8,0
		c-0.2,0-0.4,0.1-0.6,0.1c-0.2,0-0.4,0.1-0.5,0.2c-0.2,0.1-0.3,0.1-0.5,0.2c-0.2,0.1-0.3,0.2-0.4,0.3c-0.1,0.1-0.3,0.2-0.4,0.3
		c-0.1,0.1-0.3,0.2-0.4,0.3c-0.1,0.1-0.2,0.1-0.3,0.2c0,0,0,0.1,0,0.2c0.1,0.3,0.6,0.9,2.5,1.7c0.2,0.1,0.4,0.2,0.7,0.2
		c0.4,0.2,0.9,0.3,1.5,0.5s1.2,0.3,1.9,0.5c0.2,0,0.4,0.1,0.6,0.1c0.4,0.1,0.9,0.2,1.4,0.3c0.2,0,0.4,0.1,0.6,0.1l1.7,0.4l0.3,0.1
		l3.2,0.7l0.8,0.2l4,0.8l3,0.6l0.9,0.2l2.7,0.6l1.2,0.3l1.2,0.2l2,0.4l0.7,0.1l1,0.2l1.1,0.2c0,0-0.3,0.1-0.9,0.2
		c-0.6,0.1-1.4,0.4-2.3,0.6c-0.3,0.1-0.5,0.1-0.8,0.2c-0.3,0.1-0.7,0.2-1,0.3c-0.5,0.1-1,0.3-1.5,0.5c-0.5,0.1-0.9,0.3-1.4,0.4
		c-0.4,0.1-0.8,0.3-1.2,0.4c-0.4,0.1-0.8,0.3-1.2,0.4c-0.3,0.1-0.6,0.2-0.9,0.3c-0.1,0-0.1,0-0.2,0.1c-0.3,0.1-0.7,0.3-1,0.4
		c-0.3,0.1-0.6,0.2-1,0.4c-0.3,0.1-0.6,0.2-0.9,0.4c-0.3,0.1-0.6,0.3-0.9,0.4c-0.3,0.1-0.6,0.2-0.9,0.4c-0.3,0.1-0.5,0.2-0.8,0.4
		c-0.3,0.1-0.5,0.3-0.8,0.4c-0.3,0.1-0.5,0.3-0.8,0.4c0,0-0.1,0-0.1,0.1c-0.2,0.1-0.4,0.2-0.6,0.3c-0.2,0.1-0.5,0.3-0.7,0.4
		c-0.2,0.1-0.5,0.3-0.7,0.4c-0.2,0.1-0.5,0.3-0.7,0.4c-0.2,0.1-0.4,0.3-0.7,0.4c-0.2,0.1-0.4,0.3-0.6,0.4c-0.2,0.1-0.4,0.3-0.6,0.4
		c-0.2,0.1-0.4,0.3-0.6,0.4c-0.2,0.2-0.4,0.3-0.5,0.5c-0.1,0.1-0.3,0.3-0.4,0.4c0,0-0.1,0-0.1,0.1c-0.1,0.1-0.4,0.2-0.8,0.4
		c-0.2,0.1-0.5,0.2-0.8,0.4c-0.2,0.1-0.4,0.2-0.6,0.3c-0.1,0-0.1,0.1-0.2,0.1c-0.3,0.1-0.6,0.2-0.9,0.3c-0.3,0.1-0.7,0.2-1,0.3
		c-0.4,0.1-0.8,0.2-1.1,0.2c-0.5,0.1-1,0.1-1.5,0.1c0,0,0,0-0.1,0c-0.6-0.1-1.2-0.2-1.7-0.5v0.5v0.7v0.7v0.7v0.6v0.2v0.7v0.6
		c0,0,0,0-0.1,0.1s-0.4,0.2-0.7,0.5c-0.2,0.1-0.4,0.3-0.7,0.5c0,0-0.1,0-0.1,0.1c-0.2,0.1-0.4,0.3-0.6,0.4c-0.2,0.2-0.4,0.3-0.7,0.5
		c-0.2,0.2-0.4,0.3-0.7,0.5c-0.2,0.2-0.4,0.3-0.7,0.5c-0.2,0.2-0.4,0.3-0.7,0.5c-0.2,0.2-0.4,0.3-0.7,0.5c-0.2,0.2-0.4,0.4-0.7,0.5
		c-0.2,0.2-0.4,0.4-0.7,0.5c-0.2,0.2-0.4,0.4-0.7,0.6c-0.2,0.2-0.4,0.4-0.6,0.6c-0.2,0.2-0.4,0.4-0.6,0.6l0,0
		c-0.2,0.2-0.4,0.4-0.6,0.6c-0.2,0.2-0.4,0.4-0.6,0.6c-0.2,0.2-0.4,0.4-0.6,0.6c-0.2,0.2-0.4,0.4-0.6,0.6c-0.2,0.2-0.4,0.4-0.6,0.7
		c-0.2,0.2-0.4,0.4-0.5,0.7c-0.2,0.2-0.4,0.5-0.5,0.7c-0.2,0.2-0.3,0.5-0.5,0.7c-0.2,0.3-0.3,0.5-0.5,0.8s-0.3,0.5-0.4,0.8
		c-0.1,0.3-0.2,0.6-0.3,0.8c-0.1,0.3-0.2,0.6-0.2,0.9c0,0.2-0.1,0.4-0.1,0.7l-0.2,0.2l-0.6,0.7l-0.6,0.7l-0.6,0.7
		c-0.2-0.1-0.4-0.2-0.6-0.4c0,0-0.1,0-0.1-0.1l-0.2-1.2c0,0-0.2,0.3-0.5,0.7c-0.1,0.2-0.3,0.5-0.4,0.9c-0.1,0.3-0.2,0.6-0.2,1
		c-0.1,0.4,0,0.7,0,1.1c0.1,0.3,0.1,0.5,0.3,0.8c0.1,0.2,0.3,0.5,0.5,0.7c0.7,0.4,1.3,0.7,2,1.1c-0.1,0.3-0.3,0.6-0.4,0.9
		c-0.1,0.3-0.3,0.6-0.4,0.9c-0.1,0.3-0.2,0.6-0.3,1c-0.1,0.3-0.2,0.7-0.3,1s-0.2,0.7-0.3,1c-0.1,0.4-0.2,0.7-0.2,1.1
		c-0.1,0.4-0.1,0.7-0.2,1.1c-0.1,0.4-0.1,0.8-0.1,1.1c0,0.4-0.1,0.8-0.1,1.2s0,0.7,0,1.1c0,0,0,0,0,0.1l0,0c0,0.2,0.1,0.6,0.1,1.3
		c0,0.4,0.1,0.8,0.2,1.3c0.1,0.4,0.1,0.8,0.2,1.3c0.1,0.4,0.1,0.9,0.2,1.3c0.1,0.4,0.1,0.9,0.2,1.4c0.1,0.5,0.2,0.9,0.3,1.4
		s0.2,0.9,0.3,1.4c0,0.2,0.1,0.4,0.2,0.6c0.1,0.3,0.1,0.5,0.2,0.8c0.1,0.5,0.3,1,0.4,1.5c0.1,0.5,0.3,1,0.5,1.5s0.4,1,0.6,1.5
		c0.2,0.6,0.5,1.1,0.8,1.6c0.1,0.1,0.1,0.2,0.2,0.3c0.3,0.5,0.6,1,1,1.4c0.2,0.2,0.4,0.5,0.6,0.6c0.1,0.3,0.2,0.7,0.4,1
		c0.3,0.5,0.6,1.1,1,1.7c0,0,0,0.1,0.1,0.1c0.4,0.6,0.9,1.2,1.4,1.7c0.5,0.6,1.1,1.2,1.7,1.8c0.1,0.1,0.1,0.1,0.2,0.2
		c0.7,0.7,1.5,1.3,2.2,2c0.2,0.2,0.5,0.4,0.7,0.6c0.6,0.5,1.2,1,1.8,1.4c0.4,0.3,0.9,0.6,1.3,0.9c0.5,0.4,1,0.8,1.5,1.1
		c0.6,0.4,1.1,0.8,1.5,1c0.5,0.4,0.9,0.6,0.9,0.6c0.3,0.2,0.6,0.3,0.9,0.5c0.4,0.2,0.8,0.4,1.2,0.5c0.9,0.4,1.9,0.7,2.8,1
		c0.9,0.2,1.8,0.4,2.7,0.6c0.7,0.1,1.4,0.2,2.2,0.2l0.2,0.5l0,0c0,0.5,0.1,1,0.2,1.4c0.1,0.4,0.3,0.7,0.5,1l0,0l0,0l0,0
		c0.1,0.2,0.3,0.4,0.4,0.5c0.7,0.7,1.6,0.9,2.4,1c0.9,0.1,1.7-0.1,1.7-0.1l-0.7-0.6l-1-0.8l1.9-0.5h0.2l2.3-0.2h0.2
		c0.6,0.2,1.4,0.3,2.2,0.3c0.7,0,1.4,0,2.2-0.2c0.7-0.1,1.4-0.2,2.1-0.4c0.5-0.1,1.1-0.3,1.6-0.4l0.3-0.6l0.4-0.8c0.5,0,1,0,1.5,0
		c0.6,0,1.2,0,1.8,0c0,0,0.1,0,0.1-0.1c0.6-0.2,1.2-0.5,1.8-0.7c0.5-0.2,1-0.5,1.5-0.7c0.1,0,0.1-0.1,0.2-0.1
		c0.6-0.3,1.2-0.5,1.7-0.8c0.5-0.2,0.9-0.4,1.3-0.6c0.1-0.1,0.2-0.1,0.4-0.2c0.9-0.5,1.4-0.8,1.4-0.8l0.2,0.1l1.3,0.6l0.5,0.2
		l1.7,0.8l0.2,0.1l0.5,0.2c0-0.1,0-0.2,0-0.3c0-0.5,0.1-0.9,0.3-1.4c0.1-0.2,0.1-0.3,0.2-0.5c0.2-0.3,0.4-0.7,0.6-1
		c0.2-0.3,0.4-0.6,0.7-0.8c0.2-0.2,0.4-0.5,0.6-0.7c0.2-0.2,0.4-0.4,0.7-0.6c0.4-0.4,0.8-0.7,1.2-1c0.1,0,0.1-0.1,0.2-0.1
		c0.7-0.5,1.1-0.8,1.1-0.8c0.1,0,0.1-0.1,0.2-0.1c0.4-0.1,0.9-0.3,1.3-0.5c0.3-0.1,0.6-0.3,0.9-0.4c0.1-0.1,0.2-0.1,0.3-0.2
		c0.4-0.2,0.8-0.4,1.2-0.7c0.4-0.2,0.8-0.5,1.2-0.8c0.2-0.1,0.4-0.2,0.5-0.4c0.2-0.1,0.4-0.3,0.6-0.4c0.4-0.3,0.8-0.6,1.2-0.9
		c0.3-0.2,0.5-0.4,0.8-0.6c0.1-0.1,0.2-0.2,0.4-0.3c0.4-0.3,0.8-0.6,1.2-0.9c0.3-0.2,0.5-0.4,0.8-0.6c0.1-0.1,0.3-0.2,0.4-0.4
		c0.4-0.4,0.8-0.7,1.2-1.1l0,0c0.1-0.1,0.1-0.1,0.2-0.2c0.3-0.2,0.5-0.5,0.7-0.7c1.1-4.1,3-8,5.7-11.4l0,0l0.1-0.1
		c0.7-0.9,1.4-1.7,2.2-2.5c0.3-0.4,0.7-0.8,1-1.2c0.2-0.1,0.4-0.2,0.5-0.2c0.4-0.3,0.7-0.6,1.1-0.9c-0.3,0.2-0.5,0.5-0.8,0.7
		c0.1,0,0.1-0.1,0.2-0.1l-0.4,1.4l-0.1,0.2l-0.3,1.2l-0.2,0.6l-0.2,0.8l-0.3,1.1l-0.1,0.2l-0.4,1.4l-0.2,0.6l-0.2,0.8l-0.4,1.4
		l-0.2,0.5l-0.2,0.9l-0.4,1.4l-0.4,1.4l-0.4,1.4l-0.4,1.4l-0.4,1.5l-0.4,1.5l-0.4,1.5l-0.3,1l-0.1,0.5l-0.4,1.5l-0.2,0.8l-0.2,0.7
		l-0.4,1.5l0,0l-0.4,1.5l-0.1,0.4l-0.3,1.1l-0.2,0.7l-0.1,0.2c-0.1,0.2-0.1,0.4-0.2,0.6c-0.1,0.3-0.2,0.6-0.2,0.8
		c-0.1,0.2-0.1,0.5-0.2,0.7c-0.1,0.3-0.2,0.7-0.2,1c0,0.2-0.1,0.4-0.1,0.6c-0.1,0.4-0.2,0.8-0.2,1.2c0,0.1-0.1,0.3-0.1,0.4
		c-0.1,0.5-0.2,1-0.2,1.5v0.1c-0.1,0.6-0.1,1.1-0.1,1.5c0,0.3,0,0.5,0.1,0.6c0.1,0.4,0.2,0.6,0.3,0.8c0.1,0.2,0.2,0.2,0.2,0.2l0,0
		c0.4-0.1,0.7-0.3,1-0.4c0.1,0,0.1-0.1,0.2-0.1c0.2-0.1,0.4-0.3,0.6-0.5c0.3-0.2,0.5-0.5,0.7-0.7c0.2-0.3,0.4-0.5,0.5-0.8
		c0,0,0-0.1,0.1-0.1c0.2-0.4,0.3-0.7,0.4-1.1c0-0.1,0.1-0.3,0.1-0.4c0.1-0.4,0.1-0.7,0.2-1c0-0.2,0-0.3,0-0.5c0-0.5,0-1,0-1.5
		c0-0.1,0-0.1,0-0.2c0-0.5-0.1-0.9-0.2-1.2c-0.1-0.5-0.2-0.8-0.2-0.8c-0.1-0.1-0.1-0.3-0.1-0.5c0-0.3,0-0.7,0.1-1.2
		c0-0.1,0-0.2,0-0.3c0.1-0.4,0.2-1,0.3-1.5c0,0,0-0.1,0-0.2c0.1-0.4,0.2-0.9,0.4-1.4c0.1-0.2,0.1-0.4,0.2-0.6c0.1-0.3,0.2-0.6,0.3-1
		s0.2-0.8,0.4-1.2c0-0.1,0.1-0.2,0.1-0.3c0.2-0.5,0.3-1,0.5-1.5c0.1-0.3,0.2-0.5,0.3-0.8c0.1-0.2,0.2-0.5,0.2-0.7
		c0.2-0.5,0.3-1,0.5-1.5s0.3-1,0.5-1.5s0.3-1,0.5-1.5s0.4-1.1,0.5-1.5c0.2-0.6,0.4-1.1,0.5-1.5c0.2-0.6,0.3-0.9,0.3-0.9
		c0.2-0.2,0.5-0.4,0.7-0.6c0.1-0.1,0.2-0.2,0.3-0.3c0.4-0.5,0.8-1.1,1.1-1.8c0.1-0.1,0.1-0.2,0.2-0.3c0.2-0.4,0.4-0.8,0.6-1.3
		c0.1-0.3,0.3-0.7,0.4-1c0.1-0.2,0.1-0.3,0.2-0.5c0.1-0.4,0.2-0.7,0.4-1.1c0-0.1,0.1-0.2,0.1-0.4c0.1-0.3,0.2-0.7,0.3-1
		c0-0.1,0.1-0.3,0.1-0.4c0.1-0.3,0.2-0.6,0.2-0.9c0-0.2,0.1-0.3,0.1-0.5c0.1-0.3,0.1-0.5,0.2-0.7s0.1-0.5,0.2-0.7
		c0-0.2,0.1-0.4,0.1-0.6c0.1-0.3,0.1-0.6,0.2-0.8c0-0.1,0-0.2,0.1-0.4c0.1-0.3,0.1-0.7,0.2-1c0-0.1,0-0.1,0-0.2
		c0.1-0.4,0.1-0.8,0.2-1.1l0,0c-0.1,0.1-0.2,0.1-0.3,0.2c0.1-0.4,0.1-0.8,0.2-1.1c-0.5,0.3-1,0.6-1.5,0.9c-1.4,0.8-2.7,1.8-3.9,2.8
		c1.3-1.1,2.7-2.1,4.2-3.1c0.5-0.3,1-0.6,1.5-0.9v-0.1c0.1-0.4,0.1-0.8,0.2-1.1c0-0.1,0-0.1,0-0.2c0.8-0.4,1.7-0.9,2.5-1.4
		c0.1,0.1,0.2,0.2,0.3,0.3c0.2,0.2,0.4,0.3,0.7,0.4c0.2,0.1,0.5,0.1,0.7,0.1c0.5,0,1-0.1,1.6-0.2c0.6-0.2,1.3-0.5,2.1-0.8
		c0.8-0.4,1.7-0.9,2.7-1.5c0.6-0.4,1.2-0.8,1.9-1.2c0.5-0.4,1.1-0.7,1.6-1.1c0.5-0.4,1-0.7,1.5-1.1c0.5-0.4,0.9-0.7,1.4-1.1
		c0.5-0.4,0.9-0.7,1.3-1.1c0.4-0.4,0.9-0.7,1.3-1c0.4-0.4,0.9-0.7,1.3-1.1c0.4-0.4,0.9-0.7,1.3-1.1c0.5-0.4,0.9-0.8,1.3-1.1
		c0.5-0.4,0.9-0.8,1.3-1.1c0.7-0.6,1.1-1,1.1-1c0-0.1-0.1-0.1-0.1-0.2c-0.1-0.2-0.2-0.4-0.2-0.6c0.3-0.3,0.5-0.5,0.8-0.8
		c0.4-0.4,0.8-0.8,1.2-1.2c0.4-0.4,0.8-0.8,1.2-1.2c0.4-0.4,0.8-0.8,1.2-1.3c0.4-0.4,0.8-0.9,1.2-1.3c0.4-0.4,0.8-0.9,1.2-1.4
		c0.2-0.2,0.4-0.5,0.6-0.7c0.3,0.2,0.7,0.3,1,0.5c0.4,0.1,0.8,0.2,1.2,0.3c0.4,0.1,0.9,0.1,1.3,0.2c0.5,0,0.9,0.1,1.4,0h0.1
		c0.5,0,1-0.1,1.5-0.1c0.6-0.1,1.1-0.1,1.7-0.2c0.1,0,0.1,0,0.2,0c0.6-0.1,1.1-0.2,1.6-0.3c0.4-0.1,0.8-0.2,1.1-0.3
		c0.3-0.1,0.6-0.2,0.8-0.2c0.2-0.1,0.3-0.1,0.3-0.1l-0.3,0.1l-1,0.2l-0.8,0.2l-0.8,0.2l0.5-0.9l0.6-1c-0.1,0.1-0.4,0.2-0.8,0.3
		c-0.2,0.1-0.5,0.1-0.9,0.1c-0.2,0-0.5,0.1-0.7,0.1c-0.5,0-1,0.1-1.5,0.1s-1,0-1.5,0c-0.1,0-0.2,0-0.3,0c-0.4,0-0.8,0-1.1,0
		c-0.5,0-1,0-1.4,0c-0.5,0-0.9,0-0.9,0c-0.1-0.1-0.2-0.1-0.3-0.2c-0.3-0.2-0.6-0.4-0.9-0.6c-0.3-0.2-0.7-0.3-1-0.4
		c-0.4-0.1-0.8-0.2-1.2-0.2c-0.5,0-1,0-1.4,0.1s-0.7,0.1-1,0.2c-0.3,0.1-0.6,0.2-0.8,0.3c-0.6,0.3-1.2,0.6-1.7,0.9
		c-1,0.6-1.6,1.2-1.7,1.4l0,0c0,0.1-0.5,0.6-1.2,1.4c-0.3,0.4-0.7,0.9-1.2,1.4c-0.4,0.4-0.8,0.9-1.2,1.4c-0.4,0.4-0.8,0.9-1.2,1.4
		c-0.4,0.4-0.8,0.9-1.2,1.3c-0.1,0.1-0.2,0.2-0.3,0.4c-0.4,0.3-0.7,0.6-1.1,0.9c-0.5,0.4-1,0.9-1.6,1.3c-0.6,0.4-1.1,0.9-1.7,1.3
		c-0.6,0.4-1.2,0.9-1.7,1.3c0.2-0.4,0.3-0.8,0.5-1.3c0.1-0.2,0.1-0.4,0.2-0.6c0.1-0.3,0.2-0.5,0.3-0.8c0.1-0.3,0.2-0.6,0.3-1
		c0-0.1,0.1-0.3,0.1-0.4c0.1-0.5,0.3-0.9,0.4-1.3c0,0,0,0,0-0.1c0.1-0.5,0.3-1,0.4-1.4c0-0.1,0-0.1,0-0.2c0.1-0.5,0.2-0.9,0.3-1.3
		c0-0.1,0.1-0.3,0.1-0.4c0.1-0.5,0.2-0.9,0.3-1.2c0.1-0.3,0.1-0.4,0.1-0.4c0.5-0.2,1-0.6,1.5-1.1c0.4-0.4,0.7-0.8,1-1.2
		c0.1-0.1,0.1-0.2,0.2-0.3c0.3-0.5,0.7-1.1,1-1.6c0.2-0.4,0.4-0.8,0.6-1.2c0.1-0.2,0.2-0.3,0.2-0.5c0.3-0.7,0.5-1.3,0.7-1.7
		c0-0.1,0.1-0.2,0.1-0.3c0.2-0.2,0.4-0.5,0.6-0.7c0.4-0.2,0.8-0.4,1.1-0.7c0.7-0.5,1.1-1.1,1.4-1.7c0.1-0.3,0.2-0.6,0.3-0.9
		c0.1-0.3,0.1-0.7,0.1-1c0-0.2,0-0.5,0-0.7c0-0.4-0.1-0.9-0.1-1.3l0,0c-0.1-0.4-0.2-0.8-0.3-1.2c-0.1-0.3-0.2-0.7-0.3-1v-0.1
		c-0.1-0.3-0.3-0.7-0.4-1s-0.3-0.6-0.4-0.9c0-0.1-0.1-0.1-0.1-0.2c-0.1-0.2-0.2-0.5-0.3-0.7c-0.2-0.3-0.3-0.6-0.5-0.9
		c-0.2-0.3-0.3-0.5-0.5-0.8l0,0c-0.2-0.3-0.4-0.6-0.5-0.8c-0.2-0.3-0.4-0.5-0.4-0.5s-0.1-0.1-0.1-0.3c-0.1-0.2-0.2-0.4-0.4-0.7
		c0,0,0-0.1-0.1-0.1c-0.1-0.2-0.3-0.5-0.5-0.8c-0.1-0.2-0.3-0.5-0.5-0.8c-0.2-0.2-0.3-0.5-0.5-0.7l0,0c-0.2-0.2-0.3-0.5-0.5-0.7
		s-0.3-0.4-0.5-0.7c-0.2-0.2-0.4-0.4-0.5-0.6c-0.1-0.2-0.3-0.3-0.4-0.4l-0.1-0.1c-0.2-0.2-0.4-0.4-0.6-0.6c-0.2-0.2-0.4-0.3-0.6-0.5
		s-0.4-0.3-0.6-0.4c-0.2-0.1-0.4-0.3-0.7-0.4c-0.2-0.1-0.5-0.2-0.7-0.3c-0.1,0-0.2-0.1-0.2-0.1c-0.2-0.1-0.4-0.1-0.5-0.1
		c-0.3-0.1-0.5-0.1-0.8-0.1s-0.6,0-0.9,0.1c-0.4,0.1-0.7,0.2-1.1,0.3h-0.1c-0.5,0.2-1,0.6-1.5,1c0,0,0,0-0.1,0s-0.4-0.1-0.8-0.1
		c-0.2,0-0.5-0.1-0.8-0.1s-0.5,0-0.8-0.1c-0.3,0-0.5,0-0.8,0s-0.6,0-0.9,0c-0.1,0-0.2,0-0.4,0c-0.2,0-0.4,0-0.5,0
		c-0.3,0-0.6,0-0.9,0.1c-0.3,0-0.6,0.1-1,0.1c-0.4,0.1-0.7,0.1-1,0.2c-0.5,0.1-0.9,0.3-1.3,0.5h-0.1c-0.2,0.1-0.4,0.3-0.6,0.4
		c0,0-0.2-0.1-0.5-0.1c0,0,0,0-0.1,0c-0.2,0-0.4-0.1-0.6-0.2c-0.2-0.1-0.4-0.1-0.7-0.2c-0.2-0.1-0.5-0.1-0.7-0.2
		c-0.2-0.1-0.5-0.1-0.7-0.2c-0.2-0.1-0.5-0.1-0.7-0.2c-0.2-0.1-0.5-0.1-0.7-0.2c-0.2,0-0.5-0.1-0.7-0.1s-0.3-0.1-0.5-0.1
		c-0.1,0-0.1,0-0.2,0c-0.2,0-0.5-0.1-0.7-0.1s-0.5-0.1-0.7-0.1s-0.5-0.1-0.7-0.1s-0.5-0.1-0.7-0.1c-0.3,0-0.5-0.1-0.8-0.1
		s-0.5-0.1-0.8-0.1s-0.5,0-0.8-0.1c0.2-0.2,0.4-0.3,0.5-0.5c0.2-0.2,0.4-0.4,0.7-0.6c0.4-0.1,0.8-0.3,1.3-0.5
		c0.4-0.1,0.8-0.2,1.2-0.4c0.4-0.1,0.8-0.2,1.2-0.3c0.3-0.1,0.7-0.2,1.1-0.3c0.3-0.1,0.7-0.2,1.1-0.3c0.3-0.1,0.7-0.2,1.1-0.3
		c0.3-0.1,0.7-0.2,1-0.2c0.3-0.1,0.7-0.2,1-0.2c0.3-0.1,0.7-0.2,1-0.2c0.3-0.1,0.7-0.2,1-0.2c0.3-0.1,0.6-0.1,0.9-0.2
		c0.3-0.1,0.6-0.1,0.9-0.2c0.3-0.1,0.7-0.1,1-0.2c0.3-0.1,0.7-0.1,0.9-0.2c0.4-0.1,0.7-0.1,0.9-0.2c0.4-0.1,0.7-0.2,0.8-0.2
		c0,0,0.1,0,0.2-0.1c0.2-0.1,0.6-0.2,1.1-0.5c0.4-0.2,0.8-0.4,1.2-0.7c0.5-0.3,1-0.7,1.5-1.1l0.1-0.1c0.8-0.8,1.5-1.7,1.8-2.9
		c0.1-0.3,0.1-0.5,0.2-0.8c0.1-0.5,0.1-1,0-1.5c0-0.2,0-0.4-0.1-0.6c0-0.1,0-0.1,0-0.2c0,0,0.6-1.3,1.4-2.8c0.4-0.7,0.8-1.5,1.2-2.2
		c0.2-0.3,0.4-0.6,0.5-0.9c0.3-0.5,0.7-1,1-1.4c0.2-0.3,0.4-0.4,0.6-0.5h-0.5h-0.7c0.2-0.5,0.3-0.9,0.4-1.4
		C272.5,137.1,272.6,137,272.6,136.8l0.2-0.2C272.8,136.6,272.7,136.6,272.6,136.8z M216.4,166l1.3,0.3l1.3,0.3l1,0.2h0.2l1.2,0.3
		l1.1,0.2c-1.5,0.4-3,0.7-4.4,1c-0.2,0-0.4,0.1-0.7,0.1L217,168l-0.4-0.4L216,167l-0.4-0.4l-0.1-0.1l-0.4-0.4l-0.4-0.4
		c0.1,0,0.2,0,0.3,0L216.4,166L216.4,166z"/>
	
		<pattern  id="SVGID_11_" xlink:href="#譁ｰ隕上ヱ繧ｿ繝ｼ繝ｳ繧ｹ繧ｦ繧ｩ繝" patternTransform="matrix(0.2884 0.3926 0.3926 -0.2884 -10977.75 -4181.1973)">
	</pattern>
	<path class="st12" d="M251.8,220.6c-0.7,0.8-1.4,1.5-2.1,2.3c0,0,0,0-0.1,0c-2.7,3.4-4.6,7.3-5.7,11.4c0.4-0.4,0.9-0.8,1.3-1.2
		c0,0,0,0,0.1-0.1c1.1-3.4,2.8-6.7,5.1-9.6l-0.2-0.8c-0.1,0.1-0.3,0.1-0.4,0.2c0.5-0.6,1-1.1,1.5-1.7
		C251.5,221.1,251.7,220.9,251.8,220.6z"/>
	
		<pattern  id="SVGID_12_" xlink:href="#譁ｰ隕上ヱ繧ｿ繝ｼ繝ｳ繧ｹ繧ｦ繧ｩ繝" patternTransform="matrix(0.2884 0.3926 0.3926 -0.2884 -10975.9502 -4184.1973)">
	</pattern>
	<path class="st13" d="M247,231.6c0.1-0.1,0.3-0.3,0.4-0.4c0.5-0.5,0.9-0.9,1.3-1.3c0.2-0.2,0.4-0.4,0.6-0.6
		c0.8-0.8,1.4-1.5,1.8-1.9l0,0c0.4-0.4,0.6-0.6,0.6-0.6v-0.1l-0.2-0.6l-0.1-0.4l-0.2-0.7l-0.1-0.4l-0.2-0.7l-0.1-0.3
		c-2.3,2.9-4,6.1-5.1,9.6C246,232.6,246.5,232.1,247,231.6z"/>
</g>
<g>
	
		<pattern  id="SVGID_13_" xlink:href="#譁ｰ隕上ヱ繧ｿ繝ｼ繝ｳ繧ｹ繧ｦ繧ｩ繝" patternTransform="matrix(-0.3171 -6.027919e-02 -6.027919e-02 0.3171 -20319.1836 6092.041)">
	</pattern>
	<path class="st14" d="M477.4,348.4c0-0.1,0-0.3,0-0.5c0-0.1,0-0.3,0-0.4c0-0.3,0-0.7,0-1.1s-0.1-0.8-0.1-1.3c0-0.1,0-0.1,0-0.2
		c-0.1-0.7-0.3-1.5-0.5-2.1c-0.2-0.5-0.4-1-0.8-1.5c-0.1-0.1-0.2-0.2-0.3-0.3c-0.1-0.1-0.3-0.3-0.4-0.4s-0.2-0.2-0.4-0.3
		c0,0-0.1-0.4-0.2-1c-0.1-0.4-0.1-0.8-0.1-1.3c0-0.4,0.1-0.8,0.2-1.2c0.1-0.2,0.2-0.4,0.3-0.6c0.1-0.1,0.2-0.2,0.3-0.3l0.1,0.2
		l0.7,1.3l0.1,0.1l0.6,1.1c0,0,0,0,0-0.1c0-0.2,0.1-0.5,0.2-0.9c0.1-0.2,0.2-0.5,0.3-0.8c0.1-0.2,0.2-0.4,0.3-0.7
		c0.1-0.2,0.2-0.4,0.3-0.5c0.1-0.2,0.2-0.3,0.3-0.4c0.1-0.1,0.2-0.2,0.3-0.3c0.1-0.1,0.2-0.1,0.4-0.2c0.1,0,0.2-0.1,0.4-0.1
		c0.1,0,0.3,0,0.4,0.1l0,0c0,0,0.1-0.2,0.3-0.6c0.1-0.2,0.2-0.3,0.3-0.6c0.1-0.2,0.2-0.4,0.3-0.6c0.1-0.2,0.2-0.4,0.3-0.6
		c0.1-0.2,0.2-0.4,0.3-0.6c0.1-0.2,0.2-0.4,0.3-0.7c0.1-0.2,0.2-0.5,0.3-0.7c0.1-0.2,0.2-0.5,0.3-0.7c0.1-0.3,0.2-0.5,0.3-0.8
		c0.1-0.3,0.2-0.5,0.3-0.8c0.1-0.2,0.2-0.4,0.3-0.7c0-0.1,0.1-0.2,0.1-0.3c0.1-0.3,0.3-0.7,0.4-1c0.2-0.4,0.3-0.8,0.5-1.2
		c0.2-0.6,0.4-1.3,0.6-1.9c0.3-0.9,0.5-1.8,0.6-2.6c0.1-0.5,0.1-1,0.1-1.4c0-0.3-0.1-0.5-0.1-0.7c0,0,0,0,0-0.1s-0.1-0.3-0.2-0.4
		s-0.2-0.2-0.3-0.3c-0.1-0.1-0.2-0.1-0.3-0.2c-0.1,0-0.2-0.1-0.3-0.1c0.2-0.6,0.4-1.2,0.7-1.8c0.1-0.1,0.3-0.1,0.5-0.2
		c0.1-0.1,0.3-0.1,0.5-0.2c0.1-0.1,0.3-0.1,0.5-0.2c0,0,0.1,0,0.1-0.1c0.1-0.1,0.2-0.1,0.3-0.2c0.2-0.1,0.3-0.1,0.5-0.2
		s0.3-0.2,0.5-0.2c0.2-0.1,0.3-0.2,0.5-0.2c0.2-0.1,0.3-0.2,0.5-0.2l0,0c0.2-0.1,0.3-0.2,0.5-0.3c0.2-0.1,0.3-0.2,0.5-0.3
		c0.2-0.1,0.4-0.2,0.5-0.3c0.2-0.1,0.4-0.2,0.6-0.3l0.1-0.1c0.1-0.1,0.3-0.2,0.4-0.3c0.2-0.1,0.4-0.3,0.6-0.4
		c0.2-0.2,0.5-0.3,0.7-0.5c0.2-0.1,0.4-0.3,0.6-0.4c0.1-0.1,0.2-0.1,0.3-0.2c1-0.8,1.7-1.6,2.1-2.4c0.1-0.1,0.2-0.2,0.2-0.2l0.1-0.1
		c0.3-0.2,0.9-0.6,1.6-1.1c0.2-0.1,0.4-0.3,0.6-0.4c0.7-0.5,1.5-1,2.3-1.6c0.8-0.5,1.6-1,2.4-1.5c0.7-0.4,1.4-0.8,2-1.2
		c0.1-0.1,0.3-0.1,0.4-0.2c0.7-0.3,1.4-0.6,2.1-0.8c0.1,0,0.2,0,0.3,0c0.5,0,1.5-0.2,2.4-0.6c0.3-0.1,0.5-0.2,0.8-0.4
		c0.2-0.1,0.4-0.3,0.6-0.4c0.1-0.1,0.3-0.2,0.4-0.4c0.1-0.1,0.2-0.2,0.3-0.3c0.1-0.1,0.1-0.2,0.2-0.3c0.1-0.1,0.1-0.2,0.2-0.3
		c0-0.1,0.1-0.2,0.1-0.3c0-0.1,0.1-0.2,0.1-0.3c0-0.1,0-0.2,0-0.3c0-0.1,0-0.1,0-0.2c0,0,0,0-0.1-0.1c-0.2-0.1-0.7-0.2-2,0.3
		c-0.1,0.1-0.3,0.1-0.4,0.2c-0.3,0.1-0.6,0.3-0.9,0.4c-0.3,0.2-0.7,0.4-1.2,0.6c-0.1,0.1-0.2,0.1-0.3,0.2c-0.3,0.2-0.5,0.3-0.8,0.5
		c-0.1,0.1-0.2,0.1-0.4,0.2l-1,0.6l-0.2,0.1l-1.9,1.1l-0.5,0.3l-2.3,1.4l-1.7,1l-0.5,0.3l-1.6,0.9l-0.7,0.4l-0.7,0.4l-1.1,0.7
		l-0.4,0.2l-0.6,0.3l-0.7,0.4c0,0,0.1-0.2,0.3-0.5c0.2-0.3,0.5-0.8,0.8-1.4c0.1-0.1,0.2-0.3,0.3-0.5c0.1-0.2,0.2-0.4,0.4-0.6
		c0.2-0.3,0.3-0.6,0.5-0.9s0.3-0.6,0.5-0.8c0.1-0.2,0.3-0.5,0.4-0.8c0.1-0.2,0.3-0.5,0.4-0.7s0.2-0.4,0.3-0.5c0,0,0-0.1,0.1-0.1
		c0.1-0.2,0.2-0.4,0.3-0.7c0.1-0.2,0.2-0.4,0.3-0.6c0.1-0.2,0.2-0.4,0.3-0.6c0.1-0.2,0.2-0.4,0.3-0.6c0.1-0.2,0.2-0.4,0.2-0.6
		c0.1-0.2,0.2-0.4,0.2-0.6c0.1-0.2,0.1-0.4,0.2-0.5c0.1-0.2,0.1-0.4,0.2-0.5V296c0.1-0.1,0.1-0.3,0.2-0.4c0.1-0.2,0.1-0.3,0.2-0.5
		s0.1-0.3,0.2-0.5s0.1-0.3,0.1-0.5s0.1-0.3,0.1-0.5s0.1-0.3,0.1-0.5s0.1-0.3,0.1-0.5s0.1-0.3,0.1-0.5s0-0.3,0.1-0.5
		c0-0.1,0-0.3,0-0.4c0,0,0,0,0-0.1s0.1-0.3,0.2-0.5s0.1-0.3,0.2-0.5c0.1-0.1,0.1-0.3,0.2-0.4c0,0,0-0.1,0.1-0.1
		c0.1-0.2,0.2-0.4,0.3-0.6c0.1-0.2,0.2-0.4,0.4-0.6c0.1-0.2,0.3-0.4,0.4-0.6c0.2-0.3,0.5-0.5,0.7-0.7l0,0c0.3-0.3,0.7-0.4,1-0.5
		l-0.2-0.2L503,286l-0.3-0.4l-0.3-0.4l-0.2-0.3l-0.1-0.1l-0.3-0.4l-0.3-0.3c0,0,0,0,0-0.1s0.1-0.3,0.1-0.5s0.1-0.3,0.1-0.5
		c0,0,0,0,0-0.1s0.1-0.3,0.1-0.5s0.1-0.4,0.1-0.5c0-0.2,0.1-0.4,0.1-0.5c0-0.2,0.1-0.4,0.1-0.5c0-0.2,0.1-0.4,0.1-0.6
		s0.1-0.4,0.1-0.6s0.1-0.4,0.1-0.6s0-0.4,0.1-0.6c0-0.2,0-0.4,0.1-0.6c0-0.2,0-0.4,0.1-0.6c0-0.2,0-0.4,0-0.6l0,0c0-0.2,0-0.4,0-0.6
		s0-0.4,0-0.6s0-0.4,0-0.6s0-0.4,0-0.6s0-0.4,0-0.6s0-0.4,0-0.6s0-0.4-0.1-0.6c0-0.2-0.1-0.4-0.1-0.6s-0.1-0.4-0.1-0.6
		s-0.1-0.4-0.2-0.6s-0.1-0.4-0.2-0.6s-0.2-0.4-0.3-0.5c-0.1-0.1-0.2-0.2-0.3-0.3v-0.2v-0.6v-0.6v-0.6c0.2,0,0.3-0.1,0.5-0.1
		c0,0,0,0,0.1,0l0.6,0.5c0,0,0-0.2-0.1-0.6c0-0.2-0.1-0.4-0.2-0.6s-0.2-0.4-0.3-0.6c-0.1-0.2-0.3-0.4-0.5-0.5
		c-0.1-0.1-0.3-0.2-0.5-0.3c-0.2-0.1-0.3-0.1-0.5-0.1c-0.5,0.1-1,0.3-1.4,0.4c-0.1-0.2-0.1-0.4-0.2-0.6s-0.2-0.4-0.2-0.6
		c-0.1-0.2-0.2-0.4-0.3-0.6c-0.1-0.2-0.2-0.4-0.3-0.6c-0.1-0.2-0.2-0.4-0.3-0.6c-0.1-0.2-0.2-0.4-0.4-0.6c-0.1-0.2-0.3-0.4-0.4-0.6
		s-0.3-0.4-0.5-0.6s-0.3-0.4-0.5-0.6s-0.3-0.4-0.5-0.5c0,0,0,0-0.1-0.1l0,0c-0.1-0.1-0.3-0.3-0.6-0.6c-0.2-0.2-0.4-0.4-0.7-0.6
		c-0.2-0.2-0.4-0.4-0.7-0.6c-0.2-0.2-0.5-0.4-0.7-0.6s-0.5-0.4-0.7-0.6s-0.5-0.4-0.8-0.6c-0.3-0.2-0.5-0.4-0.8-0.5
		c-0.1-0.1-0.2-0.2-0.4-0.2c-0.2-0.1-0.3-0.2-0.5-0.3c-0.3-0.2-0.6-0.4-0.9-0.5c-0.3-0.2-0.6-0.3-0.9-0.5s-0.6-0.3-1-0.5
		s-0.7-0.3-1.1-0.4c-0.1,0-0.1,0-0.2-0.1c-0.4-0.1-0.8-0.2-1.1-0.3c-0.2,0-0.4,0-0.6,0c-0.2-0.1-0.4-0.2-0.7-0.3
		c-0.4-0.2-0.8-0.3-1.2-0.4c0,0,0,0-0.1,0c-0.5-0.1-0.9-0.2-1.4-0.2c-0.5-0.1-1.1-0.1-1.6-0.1c-0.1,0-0.1,0-0.1,0c-0.7,0-1.3,0-2,0
		c-0.2,0-0.4,0-0.6,0c-0.5,0-1,0.1-1.5,0.1c-0.4,0-0.7,0.1-1,0.1c-0.4,0.1-0.8,0.1-1.2,0.2c-0.5,0.1-0.9,0.1-1.2,0.2
		c-0.4,0.1-0.7,0.1-0.7,0.1c-0.2,0.1-0.4,0.1-0.6,0.2c-0.3,0.1-0.5,0.2-0.8,0.3c-0.6,0.2-1.2,0.5-1.8,0.8c-0.5,0.3-1.1,0.6-1.6,0.9
		c-0.4,0.3-0.8,0.6-1.1,0.9l-0.3-0.2l0,0c-0.3-0.2-0.5-0.4-0.8-0.6c-0.2-0.1-0.4-0.2-0.7-0.3l0,0l0,0l0,0c-0.1,0-0.3-0.1-0.4-0.1
		c-0.6,0-1.2,0.3-1.6,0.6c-0.5,0.4-0.8,0.8-0.8,0.8h0.6l0.8-0.1l-0.7,1.1l-0.1,0.1l-1,1.1l-0.1,0.1c-0.4,0.2-0.8,0.5-1.2,0.8
		c-0.3,0.3-0.7,0.7-1,1.1s-0.6,0.7-0.8,1.1c-0.2,0.3-0.4,0.6-0.6,1l0.1,0.4l0.2,0.6c-0.2,0.2-0.5,0.5-0.7,0.7
		c-0.3,0.3-0.6,0.5-0.9,0.8v0.1c-0.2,0.4-0.4,0.8-0.5,1.2c-0.2,0.3-0.3,0.7-0.4,1c0,0,0,0.1-0.1,0.1c-0.2,0.4-0.3,0.8-0.4,1.1
		c-0.1,0.3-0.2,0.6-0.3,0.9c0,0.1-0.1,0.2-0.1,0.3c-0.2,0.6-0.3,1-0.3,1h-0.1l-1.3,1l-0.3,0.1l-1.2,0.4h-0.1l-0.4,0.1
		c0,0,0.1,0.1,0.1,0.2c0.2,0.2,0.4,0.5,0.5,0.8c0,0.1,0.1,0.2,0.1,0.3c0.1,0.2,0.1,0.5,0.2,0.8c0,0.2,0,0.5,0,0.7s0,0.4,0,0.6
		s0,0.4,0,0.6c0,0.4-0.1,0.7-0.1,1v0.1c-0.1,0.5-0.2,0.9-0.2,0.9s0,0.1-0.1,0.1c-0.1,0.3-0.3,0.5-0.4,0.8c-0.1,0.2-0.2,0.4-0.3,0.6
		c0,0.1-0.1,0.1-0.1,0.2c-0.1,0.3-0.2,0.6-0.3,0.9c-0.1,0.3-0.2,0.6-0.2,0.9c0,0.1-0.1,0.3-0.1,0.4c0,0.2-0.1,0.3-0.1,0.5
		c-0.1,0.3-0.1,0.6-0.2,0.9c0,0.2-0.1,0.4-0.1,0.6c0,0.1,0,0.2,0,0.3c-0.1,0.3-0.1,0.7-0.1,1c0,0.2-0.1,0.4-0.1,0.7
		c0,0.1,0,0.2,0,0.4c0,0.4-0.1,0.7-0.1,1.1l0,0c0,0.1,0,0.1,0,0.2c0,0.2,0,0.4-0.1,0.7c1.3,2.5,2.2,5.2,2.4,8.1l0,0v0.1
		c0.1,0.7,0.1,1.4,0.1,2.2c0,0.4,0,0.7,0.1,1c-0.1,0.1-0.1,0.2-0.2,0.4c0,0.3-0.1,0.6-0.1,1c0-0.2,0.1-0.5,0.1-0.7
		c0,0,0,0.1-0.1,0.1l-0.4-0.8l-0.1-0.1l-0.4-0.7l-0.2-0.4l-0.3-0.5l-0.4-0.7l-0.1-0.2l-0.4-0.9l-0.2-0.3l-0.3-0.5l-0.4-0.9l-0.2-0.3
		l-0.3-0.5l-0.5-0.9l-0.5-0.9l-0.5-0.9l-0.5-0.9l-0.5-0.9l-0.5-0.9l-0.5-0.9l-0.3-0.6l-0.2-0.3l-0.5-0.9l-0.3-0.5l-0.2-0.4l-0.5-0.9
		l0,0l-0.5-0.9l-0.1-0.3l-0.3-0.7l-0.2-0.4l-0.1-0.1c-0.1-0.1-0.1-0.2-0.2-0.4c-0.1-0.2-0.2-0.3-0.3-0.5c-0.1-0.1-0.2-0.3-0.2-0.4
		c-0.1-0.2-0.2-0.4-0.3-0.6c-0.1-0.1-0.1-0.2-0.2-0.3c-0.1-0.2-0.3-0.5-0.4-0.7c0-0.1-0.1-0.1-0.1-0.2c-0.2-0.3-0.4-0.6-0.5-0.8l0,0
		c-0.2-0.3-0.5-0.6-0.6-0.8c-0.1-0.1-0.2-0.2-0.3-0.3c-0.2-0.2-0.4-0.2-0.5-0.3c-0.1,0-0.2,0-0.2,0l0,0c-0.1,0.2-0.2,0.4-0.3,0.6
		c0,0.1,0,0.1,0,0.2c0,0.2-0.1,0.3-0.1,0.5s0,0.5,0,0.7s0,0.4,0.1,0.6v0.1c0.1,0.3,0.2,0.5,0.3,0.7c0,0.1,0.1,0.2,0.1,0.3
		c0.1,0.2,0.3,0.4,0.4,0.6c0.1,0.1,0.1,0.2,0.2,0.3c0.2,0.3,0.4,0.5,0.7,0.7l0.1,0.1c0.2,0.2,0.4,0.4,0.6,0.5
		c0.3,0.2,0.5,0.3,0.5,0.3c0.1,0,0.2,0.1,0.3,0.2c0.1,0.1,0.3,0.4,0.5,0.6c0,0.1,0.1,0.1,0.1,0.2c0.2,0.3,0.3,0.6,0.5,0.9
		c0,0,0,0.1,0.1,0.1c0.1,0.3,0.3,0.5,0.4,0.8c0.1,0.1,0.1,0.2,0.2,0.3c0.1,0.2,0.2,0.4,0.3,0.6c0.1,0.2,0.2,0.5,0.4,0.7
		c0,0.1,0.1,0.1,0.1,0.2c0.2,0.3,0.3,0.6,0.5,0.9c0.1,0.2,0.2,0.3,0.2,0.5c0.1,0.1,0.1,0.3,0.2,0.4c0.2,0.3,0.3,0.6,0.4,1
		c0.2,0.3,0.3,0.6,0.4,1c0.2,0.3,0.3,0.7,0.4,1c0.2,0.3,0.3,0.7,0.4,1c0.2,0.4,0.3,0.7,0.4,1c0.2,0.4,0.2,0.6,0.2,0.6
		c0,0.2-0.1,0.4-0.1,0.6c0,0.1,0,0.2,0,0.3c0,0.4,0.1,0.9,0.2,1.4c0,0.1,0,0.2,0.1,0.2c0.1,0.3,0.2,0.6,0.3,0.9
		c0.1,0.2,0.2,0.5,0.3,0.7c0,0.1,0.1,0.2,0.1,0.3c0.1,0.2,0.2,0.5,0.3,0.7c0,0.1,0.1,0.2,0.1,0.2c0.1,0.2,0.2,0.4,0.3,0.6
		c0,0.1,0.1,0.2,0.1,0.3c0.1,0.2,0.2,0.4,0.3,0.5c0.1,0.1,0.1,0.2,0.2,0.3c0.1,0.1,0.2,0.3,0.3,0.4c0.1,0.1,0.2,0.3,0.2,0.4
		c0.1,0.1,0.1,0.2,0.2,0.3c0.1,0.2,0.2,0.3,0.3,0.5c0,0.1,0.1,0.1,0.1,0.2c0.1,0.2,0.2,0.4,0.4,0.6l0.1,0.1c0.1,0.2,0.3,0.4,0.4,0.6
		l0,0c0-0.1,0-0.1,0.1-0.2c0.1,0.2,0.3,0.4,0.4,0.6c0.1-0.4,0.2-0.7,0.4-1.1c0.3-1,0.5-2.1,0.6-3.1c-0.1,1.1-0.4,2.3-0.7,3.4
		c-0.1,0.4-0.2,0.8-0.4,1.1l0,0c0.2,0.2,0.3,0.4,0.4,0.6l0.1,0.1c-0.2,0.6-0.4,1.2-0.6,1.8c-0.1,0-0.2,0-0.3,0c-0.2,0-0.3,0-0.5,0.1
		c-0.1,0.1-0.3,0.2-0.4,0.3c-0.2,0.2-0.5,0.5-0.7,0.8c-0.2,0.4-0.4,0.8-0.6,1.3c-0.2,0.6-0.4,1.2-0.6,1.9c-0.1,0.5-0.3,0.9-0.4,1.4
		c-0.1,0.4-0.2,0.8-0.3,1.3c-0.1,0.4-0.2,0.8-0.2,1.2c-0.1,0.4-0.1,0.8-0.2,1.2c-0.1,0.4-0.1,0.7-0.2,1.1s-0.1,0.7-0.2,1.1
		s-0.1,0.7-0.1,1.1s-0.1,0.7-0.1,1.1s-0.1,0.8-0.1,1.1c0,0.4-0.1,0.8-0.1,1.1c-0.1,0.6-0.1,1-0.1,1h0.1c0.1,0,0.2,0.1,0.3,0.2
		c0,0.2,0,0.5,0,0.7c0,0.4,0,0.8,0,1.1c0,0.4,0,0.8,0,1.1c0,0.4,0,0.8,0,1.2c0,0.4,0,0.8,0,1.2c0,0.4,0,0.8,0,1.2c0,0.2,0,0.4,0,0.6
		c-0.2,0.1-0.5,0.1-0.7,0.2s-0.5,0.2-0.7,0.4c-0.2,0.2-0.5,0.3-0.7,0.5s-0.5,0.4-0.7,0.6l0,0c-0.2,0.2-0.5,0.5-0.7,0.7
		c-0.2,0.3-0.5,0.6-0.7,0.9l-0.1,0.1c-0.2,0.3-0.4,0.6-0.6,0.9c-0.2,0.2-0.3,0.5-0.4,0.6c-0.1,0.2-0.2,0.4-0.3,0.5
		c-0.1,0.1-0.1,0.2-0.1,0.2l0.1-0.1l0.4-0.5l0.3-0.4l0.3-0.4l0.1,0.7l0.2,0.7c0-0.1,0.1-0.3,0.2-0.5c0.1-0.1,0.2-0.3,0.4-0.5
		c0.1-0.1,0.2-0.2,0.3-0.4c0.2-0.2,0.5-0.5,0.7-0.7s0.5-0.4,0.7-0.7l0.1-0.1c0.2-0.2,0.4-0.3,0.6-0.5c0.3-0.2,0.5-0.5,0.7-0.6
		c0.3-0.2,0.4-0.4,0.4-0.4c0.1,0,0.2,0,0.3,0c0.3,0,0.5-0.1,0.7-0.1c0.3-0.1,0.5-0.2,0.7-0.3c0.2-0.1,0.5-0.3,0.7-0.4
		c0.3-0.2,0.5-0.4,0.7-0.7c0.1-0.2,0.3-0.4,0.4-0.6s0.2-0.3,0.3-0.5c0.2-0.4,0.3-0.8,0.4-1.2c0.2-0.7,0.2-1.3,0.2-1.4l0,0
		c0-0.1,0-0.5-0.1-1.2c0-0.4,0-0.8-0.1-1.2c0-0.4,0-0.8,0-1.2c0-0.4,0-0.8,0-1.2c0-0.4,0-0.8,0-1.2c0-0.1,0-0.2,0-0.3
		c0-0.3,0.1-0.6,0.1-1c0.1-0.4,0.1-0.9,0.2-1.3c0.1-0.5,0.1-0.9,0.2-1.4s0.2-1,0.3-1.4c0.1,0.3,0.2,0.6,0.3,0.8
		c0.1,0.1,0.1,0.2,0.2,0.4c0.1,0.2,0.2,0.3,0.2,0.5c0.1,0.2,0.2,0.4,0.3,0.6c0,0.1,0.1,0.2,0.1,0.2c0.1,0.3,0.3,0.6,0.4,0.8l0,0
		c0.2,0.3,0.3,0.6,0.5,0.9c0,0,0,0.1,0.1,0.1c0.2,0.3,0.3,0.5,0.4,0.8c0,0.1,0.1,0.2,0.1,0.2c0.2,0.3,0.3,0.5,0.4,0.7
		s0.2,0.3,0.2,0.3c-0.2,0.3-0.2,0.8-0.2,1.2c0,0.3,0,0.7,0.1,1.1c0,0.1,0,0.2,0,0.3c0.1,0.4,0.2,0.8,0.3,1.2
		c0.1,0.3,0.2,0.6,0.2,0.8c0,0.1,0.1,0.2,0.1,0.3c0.2,0.5,0.3,0.9,0.4,1.2c0,0.1,0.1,0.1,0.1,0.2c0,0.2,0,0.4,0,0.6
		c-0.1,0.3-0.2,0.6-0.2,0.8c-0.1,0.5-0.1,1,0.1,1.5c0.1,0.2,0.1,0.4,0.2,0.6s0.2,0.4,0.4,0.6c0.1,0.1,0.2,0.2,0.3,0.3
		c0.2,0.2,0.4,0.4,0.7,0.6l0,0c0.2,0.2,0.4,0.3,0.7,0.4c0.2,0.1,0.4,0.2,0.6,0.3l0,0c0.2,0.1,0.4,0.2,0.6,0.3
		c0.2,0.1,0.4,0.2,0.6,0.3c0.1,0,0.1,0,0.2,0.1c0.2,0.1,0.3,0.1,0.5,0.2s0.4,0.1,0.6,0.2s0.4,0.1,0.6,0.2l0,0
		c0.2,0.1,0.4,0.1,0.6,0.2c0.3,0.1,0.4,0.1,0.4,0.1s0.1,0,0.2,0.1c0.1,0,0.3,0.1,0.5,0.2c0,0,0,0,0.1,0c0.2,0.1,0.4,0.1,0.6,0.2
		s0.4,0.1,0.6,0.2c0.2,0,0.4,0.1,0.6,0.1l0,0c0.2,0,0.4,0.1,0.6,0.1s0.4,0.1,0.6,0.1s0.4,0,0.5,0.1c0.1,0,0.3,0,0.4,0h0.1
		c0.2,0,0.4,0,0.5,0c0.2,0,0.3,0,0.5,0s0.3,0,0.5-0.1c0.2,0,0.3-0.1,0.5-0.1s0.3-0.1,0.5-0.2c0,0,0.1,0,0.1-0.1
		c0.1-0.1,0.2-0.1,0.3-0.2c0.2-0.1,0.3-0.2,0.5-0.3c0.2-0.1,0.3-0.3,0.4-0.5c0.2-0.2,0.3-0.4,0.4-0.7c0,0,0,0,0-0.1
		c0.1-0.3,0.2-0.7,0.3-1.2l0,0c0.1,0,0.2-0.2,0.4-0.3c0.1-0.1,0.3-0.2,0.4-0.3c0.1-0.1,0.3-0.2,0.4-0.3c0.1-0.1,0.3-0.2,0.4-0.4
		c0.1-0.1,0.3-0.2,0.4-0.4c0.1-0.1,0.1-0.1,0.2-0.2s0.2-0.2,0.3-0.2c0.1-0.1,0.3-0.3,0.4-0.4c0.1-0.2,0.3-0.3,0.4-0.5
		s0.3-0.4,0.4-0.6c0.2-0.3,0.3-0.5,0.4-0.8c0,0,0,0,0-0.1c0.1-0.2,0.1-0.3,0.1-0.5c0,0,0.1-0.1,0.3-0.2l0,0c0.1-0.1,0.2-0.1,0.4-0.2
		c0.1-0.1,0.3-0.1,0.4-0.2s0.3-0.2,0.4-0.2c0.1-0.1,0.3-0.2,0.4-0.2c0.1-0.1,0.3-0.2,0.4-0.2c0.1-0.1,0.3-0.2,0.4-0.3
		c0.1-0.1,0.3-0.2,0.4-0.3c0.1-0.1,0.2-0.1,0.3-0.2l0.1-0.1c0.1-0.1,0.3-0.2,0.4-0.3c0.1-0.1,0.3-0.2,0.4-0.3
		c0.1-0.1,0.3-0.2,0.4-0.3c0.1-0.1,0.3-0.2,0.4-0.3c0.1-0.1,0.3-0.2,0.4-0.3c0.1-0.1,0.3-0.2,0.4-0.3c0.1-0.1,0.3-0.2,0.4-0.3
		c0,0.2,0,0.3,0,0.5s0,0.4-0.1,0.6s-0.3,0.5-0.4,0.8c-0.1,0.2-0.3,0.5-0.4,0.7s-0.3,0.5-0.4,0.7s-0.2,0.4-0.4,0.6
		c-0.1,0.2-0.3,0.4-0.4,0.6s-0.3,0.4-0.4,0.6s-0.2,0.4-0.4,0.6c-0.1,0.2-0.2,0.4-0.4,0.6c-0.1,0.2-0.2,0.4-0.4,0.6
		c-0.1,0.2-0.2,0.4-0.4,0.5c-0.1,0.2-0.2,0.4-0.4,0.5c-0.1,0.2-0.2,0.4-0.4,0.5c-0.1,0.2-0.2,0.4-0.4,0.5c-0.1,0.2-0.3,0.4-0.4,0.5
		c-0.1,0.2-0.3,0.4-0.4,0.5c-0.2,0.2-0.3,0.4-0.3,0.4s0,0-0.1,0.1s-0.2,0.4-0.3,0.7c-0.1,0.2-0.2,0.5-0.3,0.9
		c-0.1,0.4-0.2,0.8-0.2,1.2v0.1c0,0.7,0.1,1.5,0.4,2.2c0.1,0.2,0.2,0.3,0.3,0.5c0.2,0.3,0.4,0.5,0.7,0.7c0.1,0.1,0.2,0.2,0.3,0.2
		l0.1,0.1c0,0,0.3,0.9,0.6,2c0.1,0.5,0.3,1.1,0.4,1.6c0.1,0.2,0.1,0.5,0.1,0.7c0.1,0.4,0.1,0.8,0.1,1.1c0,0.2,0,0.4-0.1,0.5l0.2-0.2
		l0.3-0.3c0.1,0.3,0.3,0.6,0.4,0.9C477.3,348.2,477.3,348.3,477.4,348.4v0.2C477.4,348.6,477.4,348.5,477.4,348.4z M491.4,308.9
		l-0.7,0.4l-0.7,0.4l-0.6,0.4l-0.1,0.1l-0.7,0.4L488,311c0.5-0.9,1.1-1.7,1.7-2.5c0.1-0.1,0.2-0.2,0.3-0.4h0.4h0.4h0.4h0.4l0,0h0.4
		h0.4l-0.1,0.1L491.4,308.9L491.4,308.9z"/>
	
		<pattern  id="SVGID_14_" xlink:href="#譁ｰ隕上ヱ繧ｿ繝ｼ繝ｳ繧ｹ繧ｦ繧ｩ繝" patternTransform="matrix(-0.3171 -6.027919e-02 -6.027919e-02 0.3171 -20307.084 6055.4414)">
	</pattern>
	<path class="st15" d="M449.6,298.3c0-0.7,0-1.4,0-2.1l0,0c-0.2-2.9-1.1-5.6-2.4-8.1c0,0.4-0.1,0.8-0.1,1.2c0,0,0,0,0,0.1
		c1,2.2,1.7,4.5,1.9,6.9l0.5,0.3c0-0.1,0.1-0.2,0.1-0.3c0,0.5,0,1,0,1.5C449.6,298,449.6,298.1,449.6,298.3z"/>
	
		<pattern  id="SVGID_15_" xlink:href="#譁ｰ隕上ヱ繧ｿ繝ｼ繝ｳ繧ｹ繧ｦ繧ｩ繝" patternTransform="matrix(-0.3171 -6.027919e-02 -6.027919e-02 0.3171 -20307.1836 6053.9414)">
	</pattern>
	<path class="st16" d="M447,290.8c0,0.1,0,0.3,0,0.4c0,0.4,0,0.8,0,1.2c0,0.2,0,0.4,0,0.6c0,0.7,0,1.3,0,1.7l0,0c0,0.4,0,0.6,0,0.6
		l0.1,0.1l0.4,0.2l0.3,0.2l0.4,0.2l0.2,0.1l0.4,0.3l0.2,0.1c-0.2-2.4-0.8-4.8-1.9-6.9C447,289.9,447,290.4,447,290.8z"/>
</g>
<g>
	
		<pattern  id="SVGID_16_" xlink:href="#譁ｰ隕上ヱ繧ｿ繝ｼ繝ｳ繧ｹ繧ｦ繧ｩ繝" patternTransform="matrix(-0.3142 -0.3723 -0.3723 0.3142 -20391.9219 5930.1016)">
	</pattern>
	<path class="st17" d="M362.5,478.3c0.1-0.1,0.3-0.3,0.5-0.6c0.1-0.2,0.3-0.3,0.4-0.5c0.3-0.4,0.6-0.8,1-1.3c0.3-0.5,0.7-1,1-1.6
		c0.1-0.1,0.1-0.2,0.2-0.3c0.6-0.9,1.1-2,1.4-3c0.3-0.8,0.5-1.6,0.5-2.4c0-0.2,0-0.4,0-0.6c0-0.3,0-0.6-0.1-0.9
		c0-0.2-0.1-0.5-0.2-0.7c0,0,0.3-0.6,0.7-1.4c0.3-0.5,0.7-1.1,1.1-1.6s0.9-0.9,1.4-1.2c0.3-0.2,0.6-0.3,0.9-0.4
		c0.2-0.1,0.4-0.1,0.7-0.1l-0.1,0.3l-0.4,2.1v0.2l-0.4,1.9c0,0,0.1,0,0.1-0.1c0.2-0.2,0.6-0.5,1.1-0.8c0.3-0.2,0.7-0.5,1.1-0.7
		c0.3-0.2,0.6-0.3,0.9-0.5c0.3-0.1,0.6-0.3,0.9-0.4s0.5-0.1,0.8-0.2c0.2,0,0.5,0,0.7,0s0.4,0.1,0.6,0.1c0.2,0.1,0.3,0.2,0.5,0.3
		c0.1,0.1,0.3,0.3,0.4,0.4l0,0c0,0,0.3-0.1,0.9-0.4c0.3-0.1,0.5-0.2,0.9-0.4c0.3-0.1,0.6-0.3,0.9-0.4s0.6-0.3,0.9-0.4
		s0.6-0.3,0.9-0.5s0.6-0.3,1-0.5c0.3-0.2,0.7-0.3,1-0.5s0.7-0.3,1-0.5c0.4-0.2,0.8-0.4,1.1-0.6c0.4-0.2,0.8-0.4,1.2-0.6
		c0.3-0.2,0.6-0.3,0.9-0.5c0.1-0.1,0.3-0.1,0.4-0.2c0.5-0.3,0.9-0.5,1.4-0.8c0.6-0.3,1.2-0.7,1.7-1c0.9-0.5,1.7-1.1,2.5-1.6
		c1.2-0.8,2.3-1.6,3.1-2.4c0.6-0.5,1.1-1.1,1.4-1.6c0.2-0.3,0.4-0.6,0.5-0.9v-0.1c0.1-0.2,0.1-0.4,0.1-0.6s0-0.4,0-0.6
		s-0.1-0.3-0.2-0.5c-0.1-0.1-0.2-0.3-0.3-0.4c0.8-0.5,1.6-1,2.5-1.4c0.2,0.1,0.4,0.1,0.7,0.2c0.2,0.1,0.5,0.1,0.7,0.2
		s0.5,0.1,0.7,0.2c0.1,0,0.1,0,0.2,0.1c0.2,0,0.4,0.1,0.6,0.1c0.3,0.1,0.5,0.1,0.8,0.2s0.5,0.1,0.8,0.2s0.5,0.1,0.8,0.2
		c0.2,0.1,0.5,0.1,0.8,0.2c0,0,0,0,0.1,0c0.3,0.1,0.6,0.1,0.8,0.2c0.3,0.1,0.6,0.1,0.9,0.2s0.6,0.1,0.9,0.2s0.6,0.1,1,0.2
		c0.1,0,0.1,0,0.2,0c0.3,0,0.5,0.1,0.8,0.1c0.4,0.1,0.8,0.1,1.1,0.1c0.4,0,0.8,0.1,1.2,0.1c0.4,0,0.7,0,1.1,0.1c0.2,0,0.3,0,0.5,0
		c1.9,0,3.5-0.2,4.6-0.8c0.2,0,0.3,0,0.5-0.1c0.1,0,0.1,0,0.2,0c0.6,0,1.6,0.1,2.9,0.2c0.4,0,0.8,0.1,1.2,0.1
		c1.3,0.1,2.7,0.3,4.2,0.4c1.4,0.1,2.8,0.3,4.2,0.5c1.2,0.2,2.4,0.3,3.4,0.5c0.2,0.1,0.4,0.1,0.6,0.2c1.1,0.3,2.2,0.7,3.2,1
		c0.1,0.1,0.2,0.2,0.4,0.3c0.7,0.5,1.9,1.2,3.4,1.7c0.4,0.1,0.8,0.2,1.2,0.3c0.3,0,0.7,0.1,1.1,0.1c0.3,0,0.5,0,0.8-0.1
		c0.2,0,0.4-0.1,0.6-0.1c0.2-0.1,0.4-0.1,0.5-0.2c0.2-0.1,0.3-0.1,0.5-0.2c0.1-0.1,0.3-0.2,0.4-0.3c0.1-0.1,0.3-0.2,0.4-0.3
		c0.1-0.1,0.2-0.2,0.4-0.3c0.1-0.1,0.2-0.1,0.2-0.2c0,0,0-0.1,0-0.2c-0.1-0.3-0.6-0.9-2.6-1.5c-0.2-0.1-0.4-0.1-0.7-0.2
		c-0.4-0.1-0.9-0.3-1.5-0.4s-1.2-0.3-2-0.4c-0.2,0-0.4-0.1-0.6-0.1c-0.5-0.1-0.9-0.1-1.4-0.2c-0.2,0-0.4-0.1-0.7-0.1l-1.8-0.3H440
		l-3.3-0.5l-0.8-0.1l-4-0.6l-3-0.4l-0.9-0.1l-2.7-0.4l-1.2-0.2l-1.2-0.2l-2-0.3l-0.7-0.1l-1-0.1l-1.2-0.2c0,0,0.3-0.1,0.8-0.3
		c0.5-0.2,1.3-0.4,2.3-0.8c0.2-0.1,0.5-0.2,0.8-0.3c0.3-0.1,0.6-0.2,1-0.4c0.5-0.2,1-0.4,1.5-0.6c0.4-0.2,0.9-0.4,1.4-0.5
		c0.4-0.2,0.8-0.3,1.2-0.5c0.4-0.2,0.8-0.3,1.1-0.5c0.3-0.1,0.6-0.2,0.8-0.4c0.1,0,0.1-0.1,0.2-0.1c0.3-0.2,0.7-0.3,1-0.5
		c0.3-0.1,0.6-0.3,0.9-0.4s0.6-0.3,0.9-0.4s0.6-0.3,0.9-0.4s0.6-0.3,0.8-0.4c0.3-0.1,0.5-0.3,0.8-0.4s0.5-0.3,0.8-0.4
		s0.5-0.3,0.8-0.4l0.1-0.1c0.2-0.1,0.4-0.2,0.6-0.4c0.2-0.1,0.5-0.3,0.7-0.4s0.4-0.3,0.7-0.4c0.2-0.2,0.4-0.3,0.7-0.5
		c0.2-0.2,0.4-0.3,0.6-0.5s0.4-0.3,0.6-0.5s0.4-0.3,0.6-0.5s0.4-0.3,0.5-0.5c0.2-0.2,0.3-0.3,0.5-0.5c0.1-0.1,0.3-0.3,0.4-0.4
		c0,0,0.1,0,0.1-0.1c0.1-0.1,0.4-0.3,0.7-0.5c0.2-0.1,0.5-0.3,0.8-0.4c0.2-0.1,0.4-0.2,0.6-0.3c0.1,0,0.1-0.1,0.2-0.1
		c0.3-0.1,0.6-0.3,0.9-0.4s0.7-0.3,1-0.4c0.4-0.1,0.7-0.2,1.1-0.3c0.5-0.1,1-0.2,1.5-0.2c0,0,0,0,0.1,0c0.6,0,1.2,0.1,1.7,0.4v-0.5
		v-0.7v-0.7v-0.7v-0.6v-0.2V427v-0.6c0,0,0,0,0.1-0.1s0.3-0.3,0.7-0.5c0.2-0.2,0.4-0.3,0.7-0.5c0,0,0.1,0,0.1-0.1
		c0.2-0.1,0.4-0.3,0.6-0.5s0.4-0.3,0.6-0.5s0.4-0.4,0.6-0.5c0.2-0.2,0.4-0.4,0.6-0.6s0.4-0.4,0.6-0.6s0.4-0.4,0.6-0.6
		s0.4-0.4,0.6-0.6s0.4-0.4,0.6-0.6s0.4-0.4,0.6-0.6s0.4-0.4,0.6-0.6s0.4-0.4,0.6-0.6l0,0c0.2-0.2,0.4-0.4,0.6-0.6s0.4-0.4,0.6-0.6
		s0.4-0.4,0.6-0.7c0.2-0.2,0.4-0.4,0.5-0.7c0.2-0.2,0.4-0.5,0.5-0.7c0.2-0.2,0.3-0.5,0.5-0.7s0.3-0.5,0.5-0.7
		c0.2-0.3,0.3-0.5,0.4-0.8s0.3-0.5,0.4-0.8s0.2-0.6,0.4-0.8c0.1-0.3,0.2-0.6,0.3-0.9c0.1-0.3,0.1-0.6,0.2-0.9c0-0.2,0-0.4,0-0.7
		l0.2-0.3l0.6-0.8l0.6-0.8l0.6-0.8c0.2,0.1,0.4,0.2,0.7,0.3h0.1l0.3,1.1c0,0,0.2-0.3,0.5-0.8c0.1-0.3,0.2-0.6,0.3-0.9
		c0.1-0.3,0.2-0.6,0.2-1s0-0.7-0.1-1.1c-0.1-0.3-0.2-0.5-0.3-0.8c-0.1-0.2-0.3-0.5-0.5-0.7c-0.7-0.3-1.4-0.6-2.1-0.9
		c0.1-0.3,0.2-0.6,0.3-0.9c0.1-0.3,0.2-0.6,0.3-1c0.1-0.3,0.2-0.7,0.3-1c0.1-0.3,0.2-0.7,0.2-1c0.1-0.3,0.1-0.7,0.2-1
		c0.1-0.4,0.1-0.7,0.2-1.1c0-0.4,0.1-0.7,0.1-1.1s0-0.8,0-1.1c0-0.4,0-0.8,0-1.2c0-0.4,0-0.7-0.1-1.1c0,0,0,0,0-0.1l0,0
		c0-0.2-0.1-0.6-0.2-1.3c-0.1-0.4-0.2-0.8-0.2-1.3c-0.1-0.4-0.2-0.8-0.3-1.3c-0.1-0.4-0.2-0.9-0.3-1.3c-0.1-0.4-0.2-0.9-0.3-1.3
		c-0.1-0.4-0.2-0.9-0.4-1.4c-0.1-0.5-0.3-0.9-0.4-1.4c-0.1-0.2-0.1-0.4-0.2-0.6c-0.1-0.3-0.2-0.5-0.2-0.8c-0.2-0.5-0.3-1-0.5-1.4
		c-0.2-0.5-0.4-1-0.6-1.4c-0.2-0.5-0.4-1-0.7-1.5c-0.3-0.6-0.6-1.1-0.9-1.6c-0.1-0.1-0.1-0.2-0.2-0.3c-0.3-0.5-0.7-1-1-1.4
		c-0.2-0.2-0.4-0.4-0.6-0.6c-0.1-0.3-0.3-0.7-0.5-1c-0.3-0.5-0.7-1.1-1.1-1.6c0,0,0-0.1-0.1-0.1c-0.4-0.5-0.9-1.1-1.5-1.6
		c-0.6-0.6-1.2-1.1-1.8-1.7c-0.1,0-0.1-0.1-0.2-0.1c-0.8-0.6-1.5-1.2-2.3-1.8c-0.3-0.2-0.5-0.4-0.7-0.5c-0.6-0.5-1.3-0.9-1.9-1.3
		c-0.5-0.3-0.9-0.6-1.3-0.9c-0.6-0.4-1.1-0.7-1.6-1c-0.6-0.4-1.2-0.7-1.6-0.9c-0.6-0.3-0.9-0.5-0.9-0.5c-0.3-0.1-0.6-0.3-0.9-0.4
		c-0.4-0.2-0.8-0.3-1.2-0.5c-0.9-0.3-1.9-0.6-2.9-0.8c-0.9-0.2-1.8-0.3-2.7-0.4c-0.7-0.1-1.4-0.1-2.2-0.1l-0.2-0.5l0,0
		c-0.1-0.5-0.2-1-0.3-1.4c-0.1-0.4-0.3-0.7-0.5-0.9l0,0l0,0l0,0c-0.1-0.2-0.3-0.3-0.4-0.5c-0.7-0.6-1.7-0.8-2.4-0.9
		c-1,0-1.7,0.2-1.7,0.2l0.8,0.5l1,0.7l-1.9,0.6h-0.2l-2.3,0.4h-0.2c-0.7-0.2-1.4-0.2-2.2-0.2c-0.7,0-1.4,0.1-2.2,0.3
		c-0.7,0.1-1.4,0.3-2,0.5c-0.5,0.2-1.1,0.3-1.6,0.5l-0.2,0.6l-0.3,0.8c-0.5,0-1,0.1-1.5,0.1c-0.6,0-1.2,0.1-1.8,0.1
		c0,0-0.1,0-0.1,0.1c-0.6,0.3-1.2,0.6-1.7,0.9s-1,0.5-1.5,0.8c-0.1,0-0.1,0.1-0.2,0.1c-0.6,0.3-1.1,0.6-1.6,0.9
		c-0.4,0.3-0.9,0.5-1.2,0.7c-0.1,0.1-0.2,0.1-0.4,0.2c-0.8,0.5-1.3,0.8-1.3,0.8l-0.2-0.1l-1.3-0.5l-0.5-0.2l-1.8-0.7l-0.2-0.1
		l-0.6-0.2c0,0.1,0,0.2,0,0.3c0,0.5-0.1,0.9-0.2,1.4c-0.1,0.2-0.1,0.3-0.2,0.5c-0.1,0.3-0.3,0.7-0.5,1s-0.4,0.6-0.6,0.9
		c-0.2,0.2-0.4,0.5-0.6,0.7s-0.4,0.5-0.6,0.7c-0.4,0.4-0.8,0.7-1.1,1c-0.1,0-0.1,0.1-0.2,0.1c-0.6,0.5-1.1,0.9-1.1,0.9
		c-0.1,0-0.1,0.1-0.2,0.1c-0.4,0.2-0.8,0.4-1.3,0.6c-0.3,0.2-0.6,0.3-0.9,0.5c-0.1,0.1-0.2,0.1-0.3,0.2c-0.4,0.2-0.8,0.5-1.2,0.8
		c-0.4,0.3-0.8,0.5-1.2,0.8c-0.2,0.1-0.3,0.3-0.5,0.4c-0.2,0.2-0.4,0.3-0.6,0.5c-0.4,0.3-0.7,0.6-1.1,0.9c-0.2,0.2-0.5,0.4-0.7,0.6
		c-0.1,0.1-0.2,0.2-0.4,0.3c-0.4,0.3-0.7,0.7-1.1,1c-0.2,0.2-0.5,0.5-0.7,0.7c-0.1,0.1-0.3,0.3-0.4,0.4c-0.4,0.4-0.8,0.8-1.1,1.1
		l0,0c-0.1,0.1-0.1,0.1-0.2,0.2c-0.2,0.2-0.5,0.5-0.7,0.7c-0.8,4.2-2.4,8.2-4.9,11.7l0,0l-0.1,0.1c-0.6,0.9-1.3,1.8-2,2.6
		c-0.3,0.4-0.6,0.9-0.9,1.3c-0.2,0.1-0.3,0.2-0.5,0.3c-0.3,0.3-0.7,0.7-1.1,1c0.3-0.2,0.5-0.5,0.8-0.7c-0.1,0-0.1,0.1-0.2,0.1
		l0.3-1.4v-0.2l0.3-1.2l0.1-0.6l0.2-0.8l0.2-1.2l0.1-0.3l0.3-1.4l0.1-0.6l0.2-0.9l0.3-1.4l0.1-0.6l0.2-0.9l0.3-1.5l0.3-1.5l0.3-1.5
		l0.3-1.5l0.3-1.5l0.3-1.5l0.3-1.5l0.2-1l0.1-0.5l0.3-1.5l0.2-0.8l0.1-0.7l0.3-1.5l0,0l0.3-1.5l0.1-0.4l0.2-1.1l0.1-0.7v-0.2
		c0-0.2,0.1-0.4,0.1-0.6c0.1-0.3,0.1-0.6,0.2-0.9c0-0.2,0.1-0.5,0.1-0.7c0.1-0.3,0.1-0.7,0.2-1c0-0.2,0.1-0.4,0.1-0.6
		c0.1-0.4,0.1-0.8,0.2-1.2c0-0.1,0-0.3,0-0.4c0.1-0.6,0.1-1,0.1-1.5v-0.1c0-0.6,0-1.1,0-1.5c0-0.3-0.1-0.5-0.1-0.6
		c-0.1-0.4-0.2-0.6-0.3-0.8c-0.1-0.2-0.3-0.2-0.3-0.2l0,0c-0.3,0.1-0.7,0.3-0.9,0.5c-0.1,0-0.1,0.1-0.2,0.1
		c-0.2,0.2-0.4,0.3-0.6,0.5c-0.3,0.2-0.5,0.5-0.7,0.8s-0.3,0.5-0.5,0.8v0.1c-0.2,0.4-0.3,0.8-0.4,1.2c0,0.1-0.1,0.3-0.1,0.4
		c-0.1,0.4-0.1,0.7-0.1,1.1c0,0.2,0,0.3,0,0.5c0,0.5,0.1,1,0.1,1.5c0,0.1,0,0.1,0,0.2c0.1,0.5,0.2,0.9,0.2,1.2
		c0.1,0.5,0.2,0.8,0.2,0.8c0.1,0.1,0.2,0.2,0.2,0.5s0,0.7-0.1,1.2c0,0.1,0,0.2,0,0.3c-0.1,0.5-0.1,1-0.2,1.5c0,0.1,0,0.1,0,0.2
		c-0.1,0.4-0.2,0.9-0.3,1.4c0,0.2-0.1,0.4-0.1,0.6c-0.1,0.3-0.1,0.6-0.2,1s-0.2,0.8-0.3,1.2c0,0.1,0,0.2-0.1,0.3
		c-0.1,0.5-0.2,1-0.4,1.5c-0.1,0.3-0.1,0.6-0.2,0.8c-0.1,0.2-0.1,0.5-0.2,0.7c-0.1,0.5-0.3,1-0.4,1.5s-0.3,1-0.4,1.5
		s-0.3,1.1-0.4,1.6c-0.1,0.6-0.3,1.1-0.4,1.5c-0.2,0.6-0.3,1.1-0.4,1.5c-0.2,0.6-0.2,0.9-0.2,0.9c-0.2,0.2-0.5,0.4-0.7,0.7
		c-0.1,0.1-0.2,0.2-0.3,0.3c-0.4,0.5-0.7,1.1-1,1.8c0,0.1-0.1,0.2-0.1,0.3c-0.2,0.4-0.3,0.9-0.5,1.3c-0.1,0.3-0.2,0.7-0.3,1.1
		c0,0.2-0.1,0.3-0.1,0.5c-0.1,0.4-0.2,0.8-0.3,1.2c0,0.1-0.1,0.3-0.1,0.4c-0.1,0.4-0.2,0.7-0.2,1.1c0,0.1-0.1,0.3-0.1,0.4
		c-0.1,0.3-0.1,0.6-0.2,0.9c0,0.2-0.1,0.4-0.1,0.5c0,0.3-0.1,0.5-0.1,0.8c0,0.2-0.1,0.5-0.1,0.7s-0.1,0.4-0.1,0.6
		c0,0.3-0.1,0.6-0.1,0.8c0,0.1,0,0.2,0,0.4c0,0.3-0.1,0.7-0.1,1c0,0.1,0,0.1,0,0.2c0,0.4-0.1,0.8-0.1,1.2l0,0
		c0.1-0.1,0.2-0.1,0.3-0.2c0,0.4-0.1,0.8-0.1,1.1c0.5-0.3,1-0.6,1.5-1c1.3-0.9,2.6-2,3.7-3c-1.2,1.2-2.6,2.3-4,3.3
		c-0.5,0.3-1,0.7-1.5,1v0.1c0,0.4-0.1,0.8-0.1,1.1c0,0.1,0,0.1,0,0.2c-0.8,0.5-1.6,1-2.4,1.5c-0.1-0.1-0.2-0.2-0.3-0.3
		c-0.2-0.2-0.4-0.3-0.7-0.4c-0.2-0.1-0.5-0.1-0.7-0.1c-0.5,0-1,0.1-1.6,0.3c-0.6,0.2-1.3,0.6-2,1c-0.8,0.5-1.7,1-2.6,1.7
		c-0.6,0.4-1.2,0.9-1.8,1.3c-0.5,0.4-1,0.8-1.5,1.2c-0.5,0.4-0.9,0.8-1.4,1.2c-0.4,0.4-0.9,0.8-1.3,1.2c-0.4,0.4-0.9,0.8-1.3,1.1
		c-0.4,0.4-0.8,0.8-1.2,1.1c-0.4,0.4-0.8,0.8-1.2,1.2c-0.4,0.4-0.8,0.8-1.2,1.1c-0.4,0.4-0.8,0.8-1.2,1.2c-0.5,0.5-0.8,0.9-1.2,1.2
		c-0.7,0.7-1,1.1-1,1.1c0,0.1,0.1,0.1,0.1,0.2c0.1,0.2,0.2,0.4,0.2,0.5c-0.2,0.3-0.5,0.5-0.7,0.8c-0.4,0.4-0.8,0.9-1.1,1.3
		c-0.4,0.4-0.7,0.9-1.1,1.3s-0.7,0.9-1.1,1.4s-0.8,0.9-1.1,1.4c-0.4,0.5-0.7,1-1.1,1.4c-0.2,0.2-0.4,0.5-0.5,0.7
		c-0.3-0.2-0.7-0.3-1.1-0.4s-0.8-0.2-1.2-0.2c-0.4-0.1-0.9-0.1-1.3-0.1c-0.5,0-1,0-1.4,0H334c-0.5,0-1,0.1-1.5,0.2
		c-0.6,0.1-1.1,0.2-1.6,0.3c-0.1,0-0.1,0-0.2,0.1c-0.6,0.1-1.1,0.3-1.6,0.5c-0.4,0.1-0.8,0.3-1.1,0.4c-0.3,0.1-0.6,0.2-0.8,0.3
		c-0.2,0.1-0.3,0.1-0.3,0.1l0.2-0.1l1-0.3l0.8-0.2l0.8-0.2l-0.5,0.9l-0.5,1c0.1-0.1,0.4-0.3,0.7-0.4c0.2-0.1,0.5-0.1,0.8-0.2
		c0.2,0,0.5-0.1,0.7-0.1c0.5-0.1,1-0.1,1.5-0.2c0.5,0,1-0.1,1.5-0.1c0.1,0,0.2,0,0.3,0c0.4,0,0.8,0,1.1-0.1c0.5,0,1-0.1,1.4-0.1
		c0.5,0,0.9,0,0.9,0c0.1,0.1,0.2,0.1,0.3,0.2c0.3,0.2,0.6,0.4,1,0.5c0.4,0.2,0.7,0.3,1.1,0.4s0.8,0.1,1.2,0.2c0.5,0,1-0.1,1.4-0.2
		c0.3-0.1,0.7-0.2,1-0.3c0.3-0.1,0.5-0.2,0.8-0.3c0.6-0.3,1.2-0.7,1.6-1c0.9-0.7,1.5-1.3,1.6-1.5l0,0c0-0.1,0.5-0.6,1.1-1.5
		c0.3-0.4,0.7-0.9,1.1-1.5c0.3-0.5,0.7-0.9,1.1-1.5c0.3-0.5,0.7-0.9,1.1-1.4s0.7-0.9,1.1-1.4c0.1-0.1,0.2-0.3,0.3-0.4
		c0.3-0.3,0.7-0.7,1-1c0.5-0.5,1-0.9,1.5-1.4s1.1-1,1.6-1.4c0.5-0.5,1.1-1,1.6-1.4c-0.1,0.4-0.3,0.9-0.4,1.3
		c-0.1,0.2-0.1,0.4-0.2,0.6c-0.1,0.3-0.1,0.5-0.2,0.8s-0.2,0.7-0.3,1c0,0.1-0.1,0.3-0.1,0.4c-0.1,0.5-0.2,0.9-0.3,1.4c0,0,0,0,0,0.1
		c-0.1,0.5-0.2,1-0.3,1.5c0,0.1,0,0.1,0,0.2c-0.1,0.5-0.2,0.9-0.2,1.3c0,0.1,0,0.3-0.1,0.4c-0.1,0.5-0.1,0.9-0.2,1.2
		c0,0.3-0.1,0.4-0.1,0.4c-0.5,0.3-1,0.7-1.4,1.2c-0.3,0.4-0.6,0.8-0.9,1.3c-0.1,0.1-0.1,0.2-0.2,0.3c-0.3,0.5-0.6,1.1-0.8,1.7
		c-0.2,0.4-0.4,0.8-0.5,1.2c-0.1,0.2-0.1,0.3-0.2,0.5c-0.3,0.7-0.5,1.3-0.6,1.8c0,0.1-0.1,0.2-0.1,0.3c-0.2,0.2-0.4,0.5-0.6,0.7
		c-0.4,0.2-0.8,0.5-1.1,0.7c-0.6,0.5-1,1.1-1.3,1.8c-0.1,0.3-0.2,0.6-0.3,0.9c-0.1,0.3-0.1,0.7-0.1,1c0,0.2,0,0.5,0,0.7
		c0,0.4,0.1,0.9,0.2,1.3l0,0c0.1,0.4,0.2,0.8,0.4,1.1c0.1,0.3,0.2,0.6,0.4,1c0,0,0,0,0,0.1c0.1,0.3,0.3,0.7,0.5,1s0.3,0.6,0.5,0.9
		c0,0.1,0.1,0.1,0.1,0.2c0.1,0.2,0.3,0.4,0.4,0.6c0.2,0.3,0.4,0.6,0.5,0.8c0.2,0.3,0.4,0.5,0.5,0.7l0,0c0.2,0.3,0.4,0.6,0.6,0.7
		c0.2,0.3,0.4,0.5,0.4,0.5s0.1,0.1,0.2,0.3c0.1,0.2,0.3,0.4,0.5,0.7c0,0,0,0.1,0.1,0.1c0.2,0.2,0.3,0.5,0.5,0.8
		c0.2,0.2,0.3,0.5,0.5,0.7s0.4,0.5,0.5,0.7l0,0c0.2,0.2,0.4,0.4,0.6,0.7c0.2,0.2,0.4,0.4,0.6,0.6s0.4,0.4,0.6,0.6
		c0.1,0.1,0.3,0.3,0.5,0.4l0.1,0.1c0.2,0.2,0.4,0.3,0.6,0.5s0.4,0.3,0.6,0.5c0.2,0.1,0.4,0.3,0.7,0.4c0.2,0.1,0.5,0.2,0.7,0.3
		c0.2,0.1,0.5,0.2,0.7,0.3c0.1,0,0.2,0,0.2,0.1c0.2,0,0.4,0.1,0.5,0.1c0.3,0,0.6,0.1,0.8,0.1c0.3,0,0.6,0,0.9-0.1
		c0.4-0.1,0.7-0.2,1.1-0.4c0,0,0.1,0,0.1-0.1c0.5-0.3,1-0.6,1.4-1.1c0,0,0,0,0.1,0s0.4,0,0.8,0c0.2,0,0.5,0,0.8,0s0.5,0,0.8,0
		s0.6,0,0.8,0c0.3,0,0.6,0,0.9,0c0.1,0,0.2,0,0.4,0c0.2,0,0.4,0,0.5,0c0.3,0,0.6-0.1,0.9-0.1s0.6-0.1,1-0.2s0.7-0.2,1-0.3
		c0.5-0.2,0.9-0.3,1.2-0.6h0.1c0.2-0.1,0.4-0.3,0.6-0.4c0,0,0.2,0,0.5,0.1c0,0,0,0,0.1,0c0.2,0,0.4,0.1,0.6,0.1s0.5,0.1,0.7,0.1
		s0.5,0.1,0.7,0.1s0.5,0.1,0.7,0.1s0.5,0.1,0.7,0.1s0.5,0.1,0.7,0.1s0.5,0.1,0.7,0.1s0.3,0,0.5,0.1c0.1,0,0.1,0,0.2,0
		c0.2,0,0.5,0.1,0.7,0.1s0.5,0,0.7,0.1c0.2,0,0.5,0,0.7,0.1c0.3,0,0.5,0,0.8,0.1c0.3,0,0.5,0,0.8,0s0.5,0,0.8,0s0.5,0,0.8,0
		c-0.2,0.2-0.3,0.3-0.5,0.5s-0.4,0.4-0.6,0.6c-0.4,0.2-0.8,0.4-1.3,0.6c-0.4,0.1-0.8,0.3-1.2,0.5c-0.4,0.1-0.7,0.3-1.1,0.4
		c-0.3,0.1-0.7,0.2-1,0.4c-0.3,0.1-0.7,0.2-1,0.4c-0.3,0.1-0.7,0.2-1,0.3c-0.3,0.1-0.6,0.2-1,0.3c-0.3,0.1-0.6,0.2-1,0.3
		c-0.3,0.1-0.6,0.2-1,0.3c-0.3,0.1-0.6,0.2-1,0.3c-0.3,0.1-0.6,0.2-0.9,0.3c-0.3,0.1-0.6,0.2-0.9,0.3c-0.3,0.1-0.6,0.2-0.9,0.3
		c-0.3,0.1-0.6,0.2-0.9,0.3c-0.3,0.1-0.6,0.2-0.9,0.3c-0.4,0.1-0.7,0.2-0.8,0.2c0,0-0.1,0-0.2,0.1c-0.2,0.1-0.6,0.3-1.1,0.5
		c-0.4,0.2-0.7,0.4-1.2,0.7c-0.5,0.3-0.9,0.7-1.4,1.2l-0.1,0.1c-0.8,0.8-1.4,1.8-1.6,3c-0.1,0.3-0.1,0.5-0.1,0.8c0,0.5,0,1,0.1,1.5
		c0,0.2,0.1,0.4,0.1,0.6c0,0.1,0,0.1,0,0.2c0,0-0.5,1.3-1.2,2.9c-0.3,0.7-0.7,1.5-1.1,2.3c-0.2,0.3-0.3,0.6-0.5,0.9
		c-0.3,0.6-0.6,1.1-0.9,1.4c-0.2,0.3-0.4,0.5-0.6,0.5l0.4-0.1l0.7-0.1c-0.1,0.5-0.2,0.9-0.3,1.4
		C362.6,477.9,362.6,478.1,362.5,478.3l-0.2,0.2C362.4,478.5,362.4,478.4,362.5,478.3z M416.7,445.3l-1.3-0.2L414,445l-1-0.1h-0.2
		l-1.2-0.2l-1.1-0.2c1.4-0.5,2.9-0.9,4.4-1.3c0.2-0.1,0.4-0.1,0.7-0.2l0.5,0.4l0.5,0.4l0.5,0.4l0.5,0.4h0.1l0.4,0.4l0.5,0.4
		c-0.1,0-0.2,0-0.3,0l-1.3-0.2L416.7,445.3z"/>
	
		<pattern  id="SVGID_17_" xlink:href="#譁ｰ隕上ヱ繧ｿ繝ｼ繝ｳ繧ｹ繧ｦ繧ｩ繝" patternTransform="matrix(-0.3142 -0.3723 -0.3723 0.3142 -20341.2207 5903.502)">
	</pattern>
	<path class="st18" d="M377.6,393.2c0.7-0.8,1.3-1.6,1.9-2.5c0,0,0,0,0.1,0c2.4-3.6,4.1-7.6,4.9-11.7c-0.4,0.4-0.8,0.9-1.2,1.3
		c0,0,0,0-0.1,0.1c-0.9,3.5-2.3,6.9-4.4,9.9l0.3,0.8c0.1-0.1,0.3-0.1,0.4-0.2c-0.5,0.6-1,1.2-1.4,1.8
		C378,392.7,377.8,393,377.6,393.2z"/>
	
		<pattern  id="SVGID_18_" xlink:href="#譁ｰ隕上ヱ繧ｿ繝ｼ繝ｳ繧ｹ繧ｦ繧ｩ繝" patternTransform="matrix(-0.3142 -0.3723 -0.3723 0.3142 -20341.3223 5902.3018)">
	</pattern>
	<path class="st19" d="M381.8,381.9c-0.1,0.1-0.3,0.3-0.4,0.4c-0.4,0.5-0.8,0.9-1.2,1.4c-0.2,0.2-0.4,0.4-0.5,0.6
		c-0.7,0.9-1.3,1.6-1.7,2l0,0c-0.3,0.4-0.5,0.7-0.5,0.7l0.1,0.1l0.2,0.6l0.2,0.4l0.3,0.7l0.1,0.3l0.3,0.7l0.1,0.3
		c2.1-3,3.6-6.4,4.4-9.9C382.6,380.9,382.2,381.4,381.8,381.9z"/>
</g>
</svg>
