<?xml version="1.0" encoding="utf-8"?>
<!-- Generator: Adobe Illustrator 22.0.1, SVG Export Plug-In . SVG Version: 6.00 Build 0)  -->
<svg version="1.1" id="レイヤー_1" xmlns="http://www.w3.org/2000/svg" xmlns:xlink="http://www.w3.org/1999/xlink" x="0px"
	 y="0px" viewBox="0 0 640 640" style="enable-background:new 0 0 640 640;" xml:space="preserve">
<style type="text/css">
	.st0{fill:none;stroke:#FFFFFF;stroke-width:9.685884e-02;stroke-miterlimit:10;}
</style>
<g>
	<path class="st0" d="M175.6,153.4c-0.1-0.1-0.2-0.1-0.2-0.1l0.8,0.8l0.3-0.3C176,153.6,175.7,153.4,175.6,153.4z"/>
	<path class="st0" d="M177.2,154.9c0,0,0.1,0.3,0.3,0.5c0.1,0.1,0.1,0.1,0.2,0.1l0.8-1c-0.3-0.1-0.6-0.2-0.8-0.3
		c-0.1,0-0.2-0.1-0.2-0.1l-0.6,0.8C177,154.9,177.1,154.9,177.2,154.9z"/>
	<path class="st0" d="M187,145.6c-0.1,0.1-0.2,0.1-0.3,0.2c-0.1,0.1-0.2,0.1-0.3,0.2c-0.1,0.1-0.2,0.2-0.3,0.3
		c-0.1,0.1-0.2,0.2-0.3,0.3c-0.1,0.1-0.2,0.2-0.3,0.3c-0.1,0.1-0.2,0.2-0.3,0.4c-0.1,0.1-0.1,0.3-0.2,0.4c-0.1,0.2-0.1,0.4-0.1,0.5
		c0,0.1,0,0.2,0,0.2l2.5-3.1C187.2,145.5,187.1,145.6,187,145.6z"/>
	<path class="st0" d="M178.4,155.5c0,0,0.1,0.1,0.2,0.2c0.1,0.1,0.2,0.2,0.3,0.3l0.8-1c-0.4-0.1-0.7-0.3-1-0.4l-0.8,1
		C177.9,155.6,178.1,155.7,178.4,155.5z"/>
	<path class="st0" d="M185.2,149.7l5.9-7.3c-0.3,0-0.7,0.1-1,0.3c-0.2,0.1-0.3,0.2-0.5,0.3c-0.1,0.1-0.3,0.2-0.4,0.3
		c-0.1,0.1-0.2,0.2-0.3,0.3c-0.1,0.1-0.2,0.2-0.3,0.3c-0.1,0.1-0.2,0.2-0.2,0.3c-0.1,0.1-0.1,0.2-0.2,0.3c-0.1,0.1-0.1,0.2-0.2,0.3
		c-0.1,0.1-0.1,0.2-0.2,0.3c0,0.1-0.1,0.1-0.1,0.1s-0.1,0-0.2,0.1c-0.1,0-0.2,0.1-0.4,0.2c0,0,0,0,0,0l-2.5,3.1c0,0.2,0,0.3,0.1,0.5
		C185,149.2,185.1,149.4,185.2,149.7z"/>
	<path class="st0" d="M214.5,190.8c0.2,0.1,0.4,0.3,0.5,0.4c0.3,0.2,0.6,0.5,0.9,0.7c0.3,0.2,0.6,0.5,0.9,0.7
		c0.3,0.2,0.6,0.4,0.8,0.6c0.2,0.1,0.3,0.2,0.5,0.4l-1.8-2.8L214.5,190.8z"/>
	<path class="st0" d="M179.1,156.2c0.3,0.1,0.5,0.1,0.7-0.2c0,0,0,0.1,0.1,0.1l0.7-0.8c-0.1,0-0.1,0-0.2-0.1
		c-0.3-0.1-0.6-0.2-0.9-0.3c0,0,0,0,0,0l-0.8,1C178.9,156,179,156.1,179.1,156.2z"/>
	<path class="st0" d="M180.2,156.4c0.1,0.1,0.4,0.3,0.6,0.4l0.9-1.1c-0.1,0-0.2-0.1-0.3-0.1c-0.2-0.1-0.5-0.2-0.7-0.2l-0.7,0.8
		C180,156.2,180.1,156.3,180.2,156.4z"/>
	<path class="st0" d="M185.9,150.5l6.4-7.8c-0.2-0.1-0.4-0.2-0.6-0.2l-0.4,0c0,0-0.1,0-0.1,0l-5.9,7.3
		C185.4,149.9,185.6,150.2,185.9,150.5z"/>
	<path class="st0" d="M219.2,194.4c0.2,0.2,0.5,0.3,0.7,0.5c0.2,0.2,0.5,0.3,0.7,0.5c0.1,0,0.1,0.1,0.2,0.1l-4-6.1l-4.1-0.1
		c0.1,0.1,0.2,0.2,0.4,0.3c0.3,0.3,0.7,0.6,1,0.9c0.1,0.1,0.3,0.2,0.4,0.3l1.8,0.1l1.8,2.8c0.1,0.1,0.2,0.1,0.3,0.2
		C218.7,194.1,219,194.2,219.2,194.4z"/>
	<path class="st0" d="M206.9,188.9C206.9,188.9,206.9,188.9,206.9,188.9C206.9,188.9,206.9,188.9,206.9,188.9c0-0.1,0-0.1,0-0.1
		C206.9,188.8,206.9,188.8,206.9,188.9z"/>
	<path class="st0" d="M210.5,188c0.3,0.2,0.6,0.3,0.8,0.3l-0.2-0.5l-1,0C210.2,187.9,210.3,188,210.5,188z"/>
	<path class="st0" d="M182,156.5l0.2,0l0.4-0.5c-0.1,0-0.3-0.1-0.4-0.2c-0.2-0.1-0.3-0.1-0.5-0.2l-0.9,1.1c0,0,0,0,0.1,0
		C181.2,156.9,181.6,156.8,182,156.5z"/>
	<path class="st0" d="M193,143.2c-0.1-0.1-0.2-0.2-0.4-0.3c-0.1-0.1-0.3-0.2-0.4-0.3l-6.4,7.8c0.2,0.2,0.4,0.4,0.7,0.6L193,143.2z"
		/>
	<path class="st0" d="M220.8,195.5c0.2,0.1,0.3,0.2,0.5,0.3c0.2,0.1,0.4,0.3,0.6,0.4c0.2,0.1,0.4,0.3,0.6,0.4
		c0.2,0.1,0.4,0.2,0.6,0.4l-5.8-9l-6.3-0.2c0.3,0.3,0.6,0.6,0.9,0.8c0.2,0.2,0.5,0.4,0.7,0.6l4.1,0.1L220.8,195.5z"/>
	<path class="st0" d="M206.6,187.9c0.1,0.2,0.1,0.3,0.2,0.5c0.1,0.2,0.1,0.3,0.1,0.4c0-0.1,0-0.3,0.1-0.6c0-0.1,0.1-0.3,0.1-0.5
		l-0.6,0C206.5,187.8,206.5,187.8,206.6,187.9z"/>
	<path class="st0" d="M183.3,156.7l0.7-0.8c-0.2-0.1-0.3-0.1-0.4,0c0,0,0-0.1,0-0.1l-0.6,0.4c-0.1,0-0.2-0.1-0.4-0.1l-0.4,0.5l0.2,0
		L183.3,156.7z"/>
	<path class="st0" d="M223.7,197.3c0.1,0.1,0.2,0.1,0.3,0.2c0.1,0.1,0.2,0.1,0.3,0.2c0.1,0.1,0.2,0.1,0.4,0.2c0.1,0,0.1,0.1,0.2,0.1
		c0,0,0.1,0,0.2,0.1c0.1,0,0.1,0.1,0.2,0.1l-7.5-11.5l-10.1-0.3c0.1,0.1,0.2,0.2,0.4,0.3c0.1,0.1,0.3,0.2,0.4,0.3
		c0.1,0.1,0.3,0.2,0.4,0.3c0.1,0.1,0.3,0.2,0.5,0.3c0.2,0.1,0.3,0.2,0.5,0.3c0,0,0.1,0,0.1,0.1l1,0l-0.1-0.1c0.1,0,0.1,0.1,0.2,0.1
		l6.3,0.2l5.8,9c0.1,0,0.1,0.1,0.2,0.1C223.5,197.2,223.6,197.2,223.7,197.3z"/>
	<path class="st0" d="M207.4,186.7c0-0.1,0.1-0.2,0.1-0.3l-1.6,0c0.1,0.1,0.1,0.2,0.2,0.3c0.1,0.1,0.1,0.3,0.2,0.4
		c0.1,0.1,0.1,0.3,0.2,0.4c0,0.1,0.1,0.2,0.1,0.2l0.6,0c0-0.1,0-0.2,0.1-0.3C207.2,187.2,207.3,186.9,207.4,186.7z"/>
	<path class="st0" d="M193.6,143.9c-0.1-0.1-0.1-0.2-0.2-0.2c-0.1-0.1-0.2-0.3-0.3-0.4c0,0-0.1-0.1-0.1-0.1l-6.4,7.9
		c0.2,0.2,0.5,0.4,0.8,0.5L193.6,143.9z"/>
	<path class="st0" d="M183.6,156.8l0,0.5l0,0.4l0,0l1-1.2c-0.1-0.1-0.3-0.3-0.4-0.4c-0.1-0.1-0.2-0.2-0.3-0.2l-0.7,0.8l0.1,0
		L183.6,156.8z"/>
	<path class="st0" d="M225.9,198.4c0.1,0.1,0.3,0.1,0.4,0.2c0.1,0.1,0.3,0.1,0.4,0.2c0.1,0.1,0.3,0.1,0.4,0.2c0,0,0,0,0,0l-8.9-13.7
		l-13.1-0.4c0,0.1,0.1,0.1,0.1,0.2c0.1,0.1,0.1,0.2,0.2,0.4c0.1,0.1,0.1,0.2,0.2,0.4c0.1,0.1,0.1,0.3,0.2,0.4c0,0,0,0,0,0.1l1.6,0
		c0-0.1,0.1-0.2,0.1-0.2s0.1,0.1,0.3,0.2c0,0,0,0,0,0l10.1,0.3l7.5,11.5c0,0,0.1,0,0.2,0.1C225.6,198.3,225.7,198.4,225.9,198.4z"/>
	<path class="st0" d="M187.4,151.6c0,0,0,0.1,0,0.2c0,0.2,0,0.4,0,0.7c0,0.1,0,0.2,0,0.3l6.7-8.2c-0.1-0.1-0.1-0.2-0.2-0.3
		c-0.1-0.1-0.2-0.2-0.2-0.4c0,0-0.1-0.1-0.1-0.1L187.4,151.6C187.4,151.6,187.4,151.6,187.4,151.6z"/>
	<path class="st0" d="M187.6,154.1l7.2-8.9c-0.3,0-0.5,0-0.5,0c0,0,0,0,0-0.1c-0.1-0.1-0.1-0.2-0.2-0.3c0,0,0,0,0-0.1l-6.7,8.2
		c0,0.1,0,0.3,0.1,0.5C187.5,153.6,187.6,153.9,187.6,154.1z"/>
	<path class="st0" d="M228.1,199.4c0.2,0.1,0.3,0.1,0.5,0.2c0.1,0.1,0.3,0.1,0.4,0.2l-10.2-15.7l-14.2-0.4c0,0.1,0.1,0.1,0.1,0.2
		c0,0.1,0.1,0.2,0.2,0.3c0.1,0.1,0.1,0.2,0.2,0.3c0.1,0.1,0.1,0.2,0.2,0.3c0,0.1,0.1,0.1,0.1,0.2l13.1,0.4l8.9,13.7
		c0.1,0.1,0.3,0.1,0.4,0.2C227.8,199.3,227.9,199.3,228.1,199.4z"/>
	<path class="st0" d="M183.9,157.9l0.4,0.3l0.9-1.1c0,0,0-0.1,0-0.1c0,0,0,0,0-0.1c-0.1-0.1-0.2-0.3-0.4-0.5c0,0,0-0.1-0.1-0.1
		l-1,1.2L183.9,157.9L183.9,157.9z"/>
	<path class="st0" d="M199.6,140.2L199.6,140.2C199.7,140.2,199.7,140.1,199.6,140.2l-1.6-5.8l0,0l0,0l-0.7-0.7l-0.4-0.4
		c0.1,0.1,0.3,0.7,0.5,1.5c0.3,1.1,0.7,2.5,1.1,3.8c0,0.2,0.1,0.4,0.1,0.5c0,0.2,0.1,0.3,0.1,0.5c0,0.2,0.1,0.3,0.1,0.5
		c0,0.2,0.1,0.3,0.1,0.5c0,0.2,0.1,0.3,0.1,0.5c0,0,0,0.1,0,0.1l0.4-0.5L199.6,140.2z"/>
	<path class="st0" d="M184.3,158.3l0.4,0.4c0,0.1,0.1,0.1,0.2,0.2l0.6-0.7c-0.1-0.2-0.2-0.3-0.2-0.5c0-0.1-0.1-0.3-0.1-0.4
		L184.3,158.3L184.3,158.3z"/>
	<path class="st0" d="M187.9,155.2l8-9.8c-0.4-0.1-0.7-0.1-1-0.1l-7.2,8.9c0,0,0,0.1,0,0.1C187.7,154.6,187.8,154.9,187.9,155.2z"/>
	<path class="st0" d="M229.6,200c0.2,0.1,0.4,0.1,0.5,0.2c0.2,0.1,0.3,0.1,0.5,0.2l-11.4-17.6l-15.3-0.4c0,0,0,0,0,0
		c0,0.1,0.1,0.2,0.1,0.3c0,0.1,0.1,0.2,0.1,0.3c0,0.1,0.1,0.2,0.1,0.3c0,0.1,0.1,0.2,0.1,0.3c0,0,0,0.1,0.1,0.1l14.2,0.4l10.2,15.7
		c0,0,0.1,0,0.1,0C229.3,199.9,229.4,199.9,229.6,200z"/>
	<path class="st0" d="M185.5,159.5l0.5-0.6c-0.1-0.1-0.1-0.1-0.2-0.2c-0.1-0.2-0.2-0.3-0.3-0.5c0,0,0,0,0,0l-0.6,0.7
		c0.1,0.1,0.2,0.2,0.2,0.2C185.2,159.2,185.3,159.4,185.5,159.5z"/>
	<path class="st0" d="M199.6,138.3c-0.1-0.2-0.3-0.2-0.3-0.2c0.1-0.1,0.2-0.1,0.2-0.2c0.2-0.2,0-0.6-0.1-0.8
		c-0.2-0.3-0.4-0.5-0.4-0.5c0.3-0.5-0.1-0.9-0.3-1c-0.1-0.1-0.2-0.1-0.2-0.1c0.1-0.2,0.1-0.6,0.1-0.8c0-0.2,0-0.3,0-0.3l0,0
		l-0.4,0.3l1.7,5.7C200.3,139.3,199.9,138.6,199.6,138.3z"/>
	<path class="st0" d="M188,155.8c0,0.1,0.1,0.3,0.1,0.4l8.6-10.6c-0.3-0.1-0.6-0.2-0.9-0.2l-8,9.8c0,0,0,0,0,0
		C187.9,155.4,188,155.6,188,155.8z"/>
	<path class="st0" d="M231.3,200.6c0.2,0.1,0.4,0.1,0.6,0.2c0.1,0,0.2,0.1,0.3,0.1l-12.5-19.3l-16.3-0.5c0,0.1,0.1,0.2,0.1,0.2
		c0,0.1,0.1,0.2,0.1,0.2c0,0.1,0.1,0.2,0.1,0.2c0,0.1,0.1,0.2,0.1,0.3c0,0.1,0.1,0.2,0.1,0.3l15.3,0.4l11.4,17.6c0,0,0,0,0.1,0
		C230.9,200.5,231.1,200.5,231.3,200.6z"/>
	<path class="st0" d="M199.4,141.6c-0.2,0-0.3,0-0.4,0c-0.1,0.1-0.1,0.1-0.1,0.3c0,0.1,0.1,0.3,0.2,0.4c0,0.1,0.1,0.1,0.1,0.2
		l0.6-0.7l0,0l0-0.2l0-0.4l0-0.5l0,0l-0.4,0.5C199.3,141.3,199.3,141.5,199.4,141.6C199.4,141.6,199.4,141.6,199.4,141.6z"/>
	<path class="st0" d="M199.5,142.8c0.1,0.1,0.2,0.2,0.3,0.3l1-1.2l-0.1-0.1l-0.9,0l-0.6,0.7C199.3,142.6,199.4,142.7,199.5,142.8z"
		/>
	<path class="st0" d="M188.4,156.9c0,0.1,0,0.1,0.1,0.2l9.1-11.2c-0.1,0-0.2-0.1-0.3-0.1c-0.2-0.1-0.4-0.1-0.5-0.1l-8.6,10.6
		c0,0.1,0,0.1,0.1,0.2C188.3,156.5,188.3,156.7,188.4,156.9z"/>
	<path class="st0" d="M232.2,200.9c0.1,0,0.2,0.1,0.3,0.1c0.2,0.1,0.4,0.1,0.6,0.2c0.2,0,0.3,0.1,0.4,0.1l-13.4-20.8l-18.4-0.5
		c0,0,0.1,0,0.1,0.1c0.1,0.1,0.2,0.1,0.3,0.2c0.1,0.1,0.2,0.1,0.3,0.2c0.1,0.1,0.2,0.1,0.3,0.1c0.1,0,0.2,0.1,0.3,0c0,0,0.1,0,0.1,0
		c0,0,0.1,0.1,0.1,0.3c0,0.1,0.1,0.2,0.2,0.3l16.3,0.5L232.2,200.9z"/>
	<path class="st0" d="M185.9,159.9c0,0,0.1,0.1,0.1,0.1l0.4-0.5c-0.1-0.1-0.2-0.3-0.4-0.4c-0.1-0.1-0.1-0.1-0.2-0.2l-0.5,0.6
		c0,0,0,0,0.1,0.1C185.6,159.6,185.8,159.8,185.9,159.9z"/>
	<path class="st0" d="M200,143.3c0.2,0,0.3,0.1,0.5,0.2l0.7-0.9l-0.3-0.4l0,0l-0.2-0.2l-1,1.2C199.8,143.2,199.9,143.2,200,143.3
		C200,143.3,200,143.3,200,143.3z"/>
	<path class="st0" d="M234.5,201.3c0.1,0,0.2,0,0.2,0l-14.2-21.9l-20.1-0.6c0.1,0.1,0.1,0.1,0.2,0.2c0.1,0.1,0.2,0.2,0.3,0.3
		c0.1,0.1,0.2,0.2,0.3,0.3c0.1,0.1,0.2,0.2,0.3,0.3c0.1,0.1,0.1,0.1,0.2,0.2l18.4,0.5l13.4,20.8c0.1,0,0.2,0,0.2,0
		C234,201.3,234.3,201.3,234.5,201.3z"/>
	<path class="st0" d="M186.6,160.5l0.4-0.5c-0.1,0-0.1-0.1-0.2-0.1c-0.1-0.1-0.3-0.2-0.4-0.4c0,0,0,0,0,0l-0.4,0.5
		c0.1,0.1,0.2,0.2,0.3,0.2C186.4,160.4,186.5,160.4,186.6,160.5z"/>
	<path class="st0" d="M188.8,157.9l9.6-11.8c-0.3-0.1-0.5-0.2-0.8-0.3l-9.1,11.2c0,0.1,0.1,0.2,0.1,0.4
		C188.7,157.6,188.7,157.7,188.8,157.9z"/>
	<path class="st0" d="M235.3,200.9L235.3,200.9l0-0.2c0,0,0,0,0.1,0l-14.5-22.4l-19.7-0.5c0,0,0.1,0.1,0.1,0.1l-0.1,0.2
		c-0.1,0-0.2-0.1-0.3-0.2c-0.1,0-0.1-0.1-0.2-0.1l-1.5,0c0.1,0.1,0.2,0.2,0.3,0.3c0.1,0.1,0.2,0.2,0.3,0.3c0.1,0.1,0.2,0.2,0.3,0.3
		c0,0,0.1,0.1,0.1,0.1l20.1,0.6l14.2,21.9C235,201.2,235.2,201.1,235.3,200.9z"/>
	<path class="st0" d="M189,158.4c0,0.1,0.1,0.2,0.1,0.3l10-12.3c-0.2-0.1-0.4-0.2-0.6-0.2c-0.1,0-0.1,0-0.1-0.1l-9.6,11.8
		c0,0,0,0,0,0C188.9,158.1,188.9,158.3,189,158.4z"/>
	<path class="st0" d="M187.1,160.9c0,0,0.1,0.1,0.1,0.1l0.4-0.5c-0.1-0.1-0.3-0.2-0.4-0.3c-0.1-0.1-0.2-0.1-0.2-0.2l-0.4,0.5
		c0,0,0,0,0.1,0.1C186.8,160.7,187,160.8,187.1,160.9z"/>
	<path class="st0" d="M201.1,143.7c0,0,0.1,0.1,0.1,0.1l0.6-0.7c0,0-0.1-0.1-0.1-0.1c-0.2-0.2-0.3-0.3-0.3-0.3l-0.1-0.1l0,0
		l-0.7,0.9C200.7,143.5,200.9,143.6,201.1,143.7z"/>
	<path class="st0" d="M187.8,161.4l0.5-0.6c0,0-0.1,0-0.1-0.1c-0.1-0.1-0.3-0.2-0.5-0.3c0,0,0,0-0.1,0l-0.4,0.5
		c0.1,0.1,0.2,0.1,0.3,0.2C187.6,161.3,187.7,161.4,187.8,161.4z"/>
	<path class="st0" d="M189.4,159.3C189.4,159.4,189.5,159.4,189.4,159.3l10.4-12.7c-0.1-0.1-0.2-0.1-0.4-0.2
		c-0.1-0.1-0.2-0.1-0.3-0.1l-10,12.3c0,0.1,0.1,0.1,0.1,0.2C189.3,159,189.4,159.2,189.4,159.3z"/>
	<path class="st0" d="M200.3,177.3c-0.1-0.1-0.2-0.2-0.3-0.3c-0.1-0.1-0.2-0.2-0.4-0.3c0,0-0.1-0.1-0.1-0.1l-1.2,0
		c0.1,0.1,0.2,0.1,0.3,0.2c0,0,0,0,0.1,0.1c0.1,0.1,0.2,0.2,0.4,0.4c0.1,0.1,0.2,0.2,0.3,0.4c0,0,0,0,0,0l1.5,0
		c-0.1,0-0.1-0.1-0.2-0.1C200.5,177.4,200.4,177.3,200.3,177.3z"/>
	<path class="st0" d="M236.4,200.4l-15.1-23.3l-20.9-0.6c0,0,0,0,0,0c0.1,0.1,0.2,0.3,0.3,0.4c0.1,0.1,0.2,0.3,0.3,0.4
		c0.1,0.1,0.1,0.2,0.2,0.3l19.7,0.5l14.5,22.4c0.1,0,0.4,0,0.7-0.1C236.2,200.5,236.3,200.5,236.4,200.4z"/>
	<path class="st0" d="M201.8,144.3l0.5-0.6c-0.1-0.1-0.1-0.2-0.2-0.2c-0.1-0.1-0.2-0.2-0.3-0.3l-0.6,0.7c0.2,0.1,0.3,0.2,0.5,0.3
		C201.7,144.2,201.7,144.2,201.8,144.3z"/>
	<path class="st0" d="M202.3,144.8l0.4-0.5c-0.1-0.1-0.2-0.3-0.3-0.4c0-0.1-0.1-0.1-0.1-0.2l-0.5,0.6c0.1,0.1,0.2,0.2,0.3,0.3
		C202.2,144.6,202.2,144.7,202.3,144.8z"/>
	<path class="st0" d="M237,200C237,200,237,199.9,237,200l-15.4-23.9l-22-0.6c0.1,0.1,0.1,0.2,0.2,0.3c0.1,0.1,0.2,0.3,0.3,0.4
		c0.1,0.1,0.2,0.3,0.3,0.4l20.9,0.6l15.1,23.3C236.6,200.3,236.8,200.2,237,200z"/>
	<path class="st0" d="M199.1,176.2c-0.1,0-0.2-0.1-0.3-0.1c-0.1-0.1-0.3-0.2-0.4-0.3c-0.1-0.1-0.3-0.2-0.4-0.3c0,0,0,0,0,0l-1,0
		c0,0,0,0,0,0c0.1,0.1,0.3,0.3,0.4,0.4c0.1,0.1,0.3,0.2,0.4,0.4c0.1,0.1,0.3,0.2,0.4,0.3c0,0,0,0,0,0l1.2,0
		C199.3,176.5,199.3,176.4,199.1,176.2C199.1,176.3,199.1,176.2,199.1,176.2z"/>
	<path class="st0" d="M188.3,161.8c0,0,0.1,0,0.1,0.1l1.2-1.5l-0.5,0.3l-0.5,0.4c-0.1,0-0.2-0.1-0.3-0.2l-0.5,0.6c0,0,0.1,0,0.1,0.1
		C188.1,161.6,188.2,161.7,188.3,161.8z"/>
	<path class="st0" d="M189.6,159.8c0.1,0.1,0.1,0.2,0.2,0.3l10.6-13.1c-0.1,0-0.2-0.1-0.2-0.1c-0.1-0.1-0.3-0.1-0.4-0.2l-10.3,12.7
		C189.5,159.5,189.6,159.7,189.6,159.8z"/>
	<path class="st0" d="M197.2,174.7c-0.1-0.1-0.2-0.2-0.2-0.3l-0.9,0c0,0,0.1,0.1,0.1,0.1c0.1,0.2,0.3,0.3,0.4,0.5
		c0.1,0.1,0.3,0.3,0.4,0.4l1,0c-0.1-0.1-0.3-0.2-0.4-0.4C197.4,175,197.3,174.8,197.2,174.7z"/>
	<path class="st0" d="M202.7,145.3C202.7,145.3,202.7,145.3,202.7,145.3l0.4-0.5c0-0.1-0.1-0.1-0.1-0.2c-0.1-0.1-0.2-0.3-0.3-0.4
		c0,0,0,0,0,0l-0.4,0.5c0,0.1,0.1,0.1,0.1,0.2C202.5,145.1,202.6,145.2,202.7,145.3z"/>
	<path class="st0" d="M189.7,160.3l-1.2,1.5c0.1,0.1,0.2,0.1,0.3,0.2c0.1,0.1,0.2,0.1,0.3,0.1l12-14.8c-0.1,0-0.1-0.1-0.2-0.1
		c-0.1-0.1-0.3-0.2-0.4-0.2l-10.6,13.1c0,0,0,0,0,0.1L189.7,160.3z"/>
	<path class="st0" d="M222,175.1l-23.1-0.6c0.1,0.1,0.2,0.2,0.3,0.4c0.1,0.2,0.2,0.3,0.3,0.5c0,0.1,0.1,0.1,0.1,0.2l22,0.6
		l15.4,23.8c0.2-0.2,0.3-0.5,0.4-0.9L222,175.1z"/>
	<path class="st0" d="M196,173.4l-0.7,0c0.1,0.1,0.2,0.3,0.3,0.4c0.1,0.2,0.3,0.4,0.4,0.6l0.9,0c-0.1-0.1-0.1-0.1-0.2-0.2
		C196.5,173.9,196.2,173.6,196,173.4z"/>
	<path class="st0" d="M238.1,198.7c0,0,0.1,0,0.1,0c0,0,0,0,0,0l-15.9-24.5l-24.2-0.7c0.1,0.1,0.2,0.3,0.3,0.4
		c0.1,0.2,0.2,0.3,0.4,0.5c0,0,0.1,0.1,0.1,0.1l23.1,0.6l15.5,23.9c0-0.1,0-0.1,0.1-0.2C237.8,198.8,237.9,198.8,238.1,198.7z"/>
	<path class="st0" d="M203.1,146l0.5-0.6c-0.1-0.1-0.2-0.2-0.2-0.4c-0.1-0.1-0.1-0.1-0.2-0.2l-0.4,0.5c0.1,0.1,0.1,0.2,0.2,0.3
		C203,145.8,203,145.9,203.1,146z"/>
	<path class="st0" d="M189.8,162.3L189.8,162.3l11.9-14.6c-0.1,0-0.1-0.1-0.2-0.1c-0.1-0.1-0.3-0.2-0.4-0.2l-12,14.8
		c0,0,0.1,0,0.1,0.1C189.4,162.2,189.6,162.3,189.8,162.3z"/>
	<path class="st0" d="M203.3,146.3c0,0.1,0.1,0.2,0.1,0.3l0.5-0.6c0-0.1-0.1-0.1-0.1-0.2c-0.1-0.1-0.2-0.2-0.2-0.4c0,0,0,0,0,0
		l-0.5,0.6c0,0,0,0,0,0.1C203.2,146.1,203.2,146.2,203.3,146.3z"/>
	<path class="st0" d="M202.3,147.9l-0.3,0c-0.1-0.1-0.2-0.1-0.4-0.2l-11.9,14.6l1.1-0.3L202.3,147.9z"/>
	<path class="st0" d="M196,173.3c-0.2-0.3-0.4-0.4-0.4-0.5c0,0,0,0,0,0c0.1,0,0.3-0.2,0.4-0.4l-1.4,0c0.1,0.1,0.2,0.3,0.4,0.3
		c0,0,0,0,0,0.1c0,0.1,0.1,0.3,0.3,0.5c0,0,0,0.1,0.1,0.1L196,173.3C196,173.4,196,173.4,196,173.3z"/>
	<path class="st0" d="M238.9,198.2l-16.2-25l-25.2-0.7c0.2,0.3,0.4,0.6,0.6,0.9c0,0,0.1,0.1,0.1,0.1l24.2,0.7l15.9,24.5
		C238.5,198.6,238.7,198.4,238.9,198.2z"/>
	<path class="st0" d="M196.4,171.9l0.7,0c0.1,0.1,0.2,0.3,0.3,0.5c0,0,0,0.1,0.1,0.1l25.2,0.7l16.2,25c0,0,0.1-0.1,0.1-0.1
		c0.2-0.2,0.3-0.4,0.4-0.6L223,172.3l-28.6-0.8c0,0.1,0,0.3,0,0.4c0,0.2,0.1,0.3,0.1,0.5c0,0,0,0.1,0,0.1l1.4,0c0,0,0,0,0.1-0.1
		C196.1,172.2,196.2,172.1,196.4,171.9z"/>
	<path class="st0" d="M191.1,162.3c0,0.1,0.1,0.1,0.1,0.2l13-16c0,0,0-0.1-0.1-0.1c-0.1-0.1-0.1-0.2-0.2-0.3c0,0-0.1-0.1-0.1-0.1
		l-0.5,0.6c0,0,0,0,0,0.1c0,0.1,0.1,0.2,0.1,0.3c0.1,0.2,0.1,0.3,0.1,0.3c0,0,0,0,0,0l-0.3,0.2l-0.3,0.2l-0.2,0.2l-0.6-0.1
		L190.9,162l0,0C191,162.1,191.1,162.2,191.1,162.3z"/>
	<path class="st0" d="M191.5,162.9c0,0,0.1,0.1,0.1,0.1l12.9-15.9c0,0,0-0.1,0-0.1c0-0.1-0.1-0.2-0.1-0.3c0-0.1-0.1-0.1-0.1-0.2
		l-13,16c0,0,0,0.1,0.1,0.1C191.4,162.7,191.5,162.8,191.5,162.9z"/>
	<path class="st0" d="M239.5,196.7c0.1,0,0.1,0,0.2,0l-16.4-25.3l-28.8-0.8c0,0,0,0,0,0c0,0.1-0.1,0.3-0.1,0.4
		c0,0.1-0.1,0.3-0.1,0.4c0,0,0,0,0,0l28.6,0.8l16.4,25.2c0,0,0-0.1,0-0.1C239.5,197,239.5,196.7,239.5,196.7z"/>
	<path class="st0" d="M240.2,196.1l-16.6-25.6l-28.7-0.8c0,0,0,0.1,0,0.1c-0.1,0.1-0.1,0.2-0.2,0.4c-0.1,0.1-0.1,0.2-0.1,0.4
		l28.8,0.8l16.4,25.3c0,0,0.1,0,0.1,0C240,196.6,240.1,196.4,240.2,196.1z"/>
	<path class="st0" d="M191.7,163.2c0,0,0,0.1,0.1,0.1c0,0,0.1-0.2,0.3-0.4c0.4-0.5,1.1-1.2,1.4-1.3l11.2-13.8c0-0.1,0-0.1-0.1-0.2
		c0-0.1-0.1-0.2-0.1-0.3c0-0.1-0.1-0.1-0.1-0.2l-12.9,15.9C191.6,163.1,191.7,163.2,191.7,163.2z"/>
	<path class="st0" d="M240.2,195.2c0-0.1,0-0.2,0-0.4l-16.3-25.1l-29.1-0.8c0.1,0.1,0.1,0.1,0.2,0.2c0.1,0.1,0.1,0.1,0.2,0.1
		c0,0-0.1,0.1-0.1,0.2c0,0.1-0.1,0.2-0.1,0.3l28.7,0.8l16.6,25.6c0,0,0-0.1,0-0.1C240.3,195.8,240.3,195.5,240.2,195.2z"/>
	<path class="st0" d="M193.6,161.6c0,0,0.2,0,0.4,0c0.1,0,0.1,0,0.2,0l10.6-13c0,0,0,0,0,0c0-0.1,0-0.2,0-0.2c0-0.1,0-0.2,0-0.3
		c0-0.1,0-0.2,0-0.3c0,0,0-0.1,0-0.1l-11.2,13.8C193.6,161.6,193.6,161.6,193.6,161.6z"/>
	<path class="st0" d="M194.5,162.1c-0.1,0.2-0.2,0.4-0.5,0.7c0,0-0.6,0.3-1,0.8c-0.2,0.2-0.3,0.4-0.4,0.7c0,0.1-0.1,0.3-0.1,0.4
		c0,0,0,0.1,0,0.1l12.2-15.1c-0.1-0.1-0.2-0.1-0.2-0.2l0-0.2c0.1-0.1,0.1-0.1,0.2-0.2c0-0.1,0.1-0.1,0.1-0.2c0-0.1,0-0.1,0.1-0.2
		l-10.6,13c0.1,0,0.2,0.1,0.2,0.1C194.5,161.9,194.6,162,194.5,162.1z"/>
	<path class="st0" d="M240.2,194.8c0-0.2,0-0.3-0.1-0.5c0-0.3-0.1-0.6-0.2-0.9c0-0.1-0.1-0.2-0.1-0.4l-15.7-24.2l-30-0.8
		c0.1,0.1,0.1,0.2,0.2,0.3c0.1,0.1,0.2,0.2,0.3,0.4c0,0.1,0.1,0.1,0.1,0.2l29.1,0.8L240.2,194.8z"/>
	<path class="st0" d="M239.5,191.7c-0.1-0.2-0.1-0.5-0.2-0.7l-14.8-22.9l-30.8-0.9c0,0,0.1,0.1,0.1,0.1c0.1,0.1,0.1,0.2,0.2,0.3
		c0.1,0.1,0.1,0.2,0.2,0.3c0,0,0,0,0,0l30,0.8l15.7,24.2c0-0.2-0.1-0.3-0.1-0.5C239.7,192.3,239.6,192,239.5,191.7z"/>
	<path class="st0" d="M192.7,165.2C192.7,165.2,192.7,165.3,192.7,165.2C192.7,165.3,192.7,165.3,192.7,165.2l12.5-15.2c0,0,0,0,0,0
		c-0.1-0.1-0.2-0.2-0.3-0.2c0,0-0.1,0-0.1-0.1l-12.2,15.1c0,0.1,0,0.1,0.1,0.2C192.6,165,192.6,165.1,192.7,165.2z"/>
	<path class="st0" d="M239,190.1c-0.1-0.3-0.2-0.5-0.3-0.8c-0.1-0.2-0.1-0.4-0.2-0.6l-13.8-21.3l-31.5-0.9c0,0,0,0,0,0
		c0.1,0.1,0.1,0.2,0.2,0.3c0.1,0.1,0.1,0.2,0.2,0.3c0,0.1,0.1,0.1,0.1,0.2l30.8,0.9l14.8,22.9c0,0,0-0.1,0-0.1
		C239.2,190.6,239.1,190.3,239,190.1z"/>
	<path class="st0" d="M192.9,165.7c0,0,0.1,0.1,0.1,0.2l10.9-13.4c0-0.1,0-0.2,0-0.2c0,0,0,0,0,0c0,0,0-0.1,0-0.2
		c0,0,0.1-0.1,0.1-0.1c0,0,0.1-0.1,0.1-0.1c0,0,0.1-0.1,0.1-0.1c0,0,0.1-0.1,0.1-0.1c0,0,0.1-0.1,0.1-0.1c0,0,0.1-0.1,0.1-0.1
		c0.1,0,0.1-0.1,0.2-0.1c0.1,0,0.1-0.1,0.2-0.1c0,0,0.1,0,0.1-0.1l0.5-0.6c-0.1,0-0.1-0.1-0.2-0.1c-0.1-0.1-0.2-0.1-0.2-0.2
		l-12.4,15.3C192.7,165.4,192.8,165.5,192.9,165.7z"/>
	<path class="st0" d="M205.3,150.7c0.1-0.1,0.2-0.1,0.2-0.2c0.1-0.1,0.2-0.1,0.2-0.1c0,0,0,0-0.1,0c0,0-0.1-0.1-0.1-0.1L205,151
		c0,0,0.1-0.1,0.1-0.1C205.2,150.8,205.3,150.8,205.3,150.7z"/>
	<path class="st0" d="M193.2,166.2c0,0.1,0.1,0.2,0.1,0.3l31.5,0.9l13.8,21.3c0-0.1,0-0.1-0.1-0.2c-0.1-0.3-0.2-0.5-0.3-0.8
		c-0.1-0.3-0.2-0.5-0.3-0.8c-0.1-0.4-0.2-0.6-0.3-0.7c0,0,0-0.1,0-0.1c0,0,0-0.1-0.1-0.1L225,166.6l-31.3-0.9L204,153
		c-0.1-0.1-0.1-0.2-0.2-0.3c0-0.1,0-0.2,0-0.3c0,0,0,0,0,0L193,165.8c0,0,0,0.1,0.1,0.1C193.1,166,193.1,166.1,193.2,166.2z"/>
	<path class="st0" d="M237,184.7c-0.1-0.2-0.2-0.5-0.4-0.7c-0.1-0.2-0.2-0.5-0.4-0.7c-0.1-0.2-0.2-0.5-0.4-0.7
		c-0.1-0.2-0.2-0.5-0.4-0.7c-0.1-0.2-0.3-0.4-0.4-0.7c-0.1-0.2-0.3-0.4-0.4-0.7c-0.1-0.2-0.2-0.4-0.4-0.6l-2.6-4.1
		c0,0,0-0.1-0.1-0.1c-0.1-0.2-0.3-0.4-0.4-0.5c-0.1-0.2-0.3-0.4-0.4-0.5c-0.1-0.2-0.2-0.3-0.4-0.5c-0.1-0.2-0.2-0.3-0.4-0.5
		c-0.1-0.2-0.2-0.3-0.4-0.5c-0.1-0.2-0.2-0.3-0.4-0.5c-0.1-0.2-0.2-0.3-0.4-0.5l0.1,0c0-0.1,0.1-0.2,0-0.3c0,0,0-0.1,0-0.1l-3.9-6
		l-30.4-0.8l10.1-12.4c0,0-0.1,0-0.1,0.1c0,0-0.1,0.1-0.1,0.1c-0.1,0-0.1,0.1-0.2,0.1c-0.1,0-0.1,0.1-0.2,0.1
		c-0.1,0-0.1,0.1-0.2,0.1c-0.1,0-0.2,0-0.2,0l-10.3,12.7l31.3,0.9l12.6,19.4c-0.1-0.2-0.2-0.4-0.3-0.6
		C237.2,185.2,237.1,185,237,184.7z"/>
	<path class="st0" d="M205.4,152c0,0-0.1,0.1-0.1,0.1c0,0-0.1,0.1-0.1,0.1c0,0-0.1,0.1-0.1,0.1c0,0.1-0.1,0.1-0.1,0.1l0.5-0.6
		C205.5,152,205.5,152,205.4,152z"/>
	<path class="st0" d="M225.3,165.9l3.9,6c0-0.1,0-0.1-0.1-0.2c0-0.1-0.1-0.2-0.1-0.3c0-0.1-0.1-0.2-0.1-0.3c0-0.1-0.1-0.2-0.1-0.3
		c0-0.1-0.1-0.2-0.2-0.3c-0.1-0.1-0.1-0.2-0.2-0.3c-0.1-0.1-0.1-0.2-0.2-0.3c-0.1-0.1-0.1-0.2-0.2-0.3c-0.1-0.1-0.1-0.2-0.2-0.3
		c-0.1-0.1-0.1-0.2-0.2-0.3c-0.1-0.1-0.1-0.2-0.2-0.3c-0.1-0.1-0.1-0.2-0.2-0.3c-0.1-0.1-0.1-0.2-0.2-0.3c0-0.1-0.1-0.1-0.1-0.1
		s0,0,0,0l-1.7-2.7l-29.5-0.8l10.7-13.2c0,0-0.1,0-0.1,0c-0.1,0-0.2,0.1-0.4,0.1c-0.1,0-0.2,0.1-0.2,0.1c-0.1,0-0.1,0.1-0.2,0.1
		c-0.1,0-0.1,0.1-0.2,0.1c-0.1,0.1-0.1,0.1-0.2,0.2c0,0,0,0,0,0l-0.5,0.6c0,0,0,0,0,0c0,0,0,0,0,0c0,0,0,0,0,0L194.9,165
		L225.3,165.9z"/>
	<path class="st0" d="M234,179.3c-0.1-0.2-0.3-0.4-0.4-0.6c-0.1-0.2-0.3-0.4-0.4-0.6c-0.1-0.2-0.3-0.4-0.4-0.6
		c-0.1-0.2-0.3-0.4-0.4-0.6c-0.1-0.2-0.3-0.4-0.4-0.6c-0.1-0.2-0.2-0.3-0.3-0.5l2.6,4.1c0,0,0,0,0,0
		C234.3,179.7,234.1,179.5,234,179.3z"/>
	<path class="st0" d="M227.7,167.8c0.1,0,0.1,0,0.2,0l-1.4-2.1c-0.4-0.2-0.9-0.5-1.3-0.8c-0.3-0.1-0.5-0.3-0.8-0.4l-27.3-0.8
		l10.1-12.4c0,0,0,0,0,0c-0.2-0.1-0.3-0.1-0.5-0.1l-10.7,13.2l29.5,0.8l1.7,2.7c0,0,0.1,0,0.1,0
		C227.5,167.8,227.6,167.8,227.7,167.8z"/>
	<path class="st0" d="M228.2,167.7c0.1,0,0.2,0,0.3,0c0,0,0,0,0,0l-0.9-1.4c-0.3-0.2-0.6-0.3-0.9-0.5c0,0-0.1,0-0.1-0.1l1.4,2.1
		c0,0,0,0,0.1,0C228,167.7,228.1,167.7,228.2,167.7z"/>
	<path class="st0" d="M224.5,164.5c-0.2-0.1-0.4-0.2-0.6-0.3c-0.2-0.1-0.4-0.3-0.6-0.4l-25-0.7l9.4-11.5c0,0-0.1,0-0.1,0
		c0,0,0,0-0.1,0c-0.1-0.1-0.2-0.1-0.3-0.2l-10.1,12.4L224.5,164.5z"/>
	<path class="st0" d="M229,167.6C229,167.6,229,167.6,229,167.6l-0.4-0.8c-0.1,0-0.1-0.1-0.2-0.1c-0.2-0.1-0.5-0.3-0.8-0.4l0.9,1.4
		c0.1,0,0.2,0,0.2,0C228.8,167.6,228.9,167.6,229,167.6z"/>
	<path class="st0" d="M222.1,163.1l-22.8-0.6l8.7-10.7c-0.1,0-0.1-0.1-0.2-0.1c-0.1,0-0.1-0.1-0.2-0.1l-9.4,11.5l25,0.7
		c-0.2-0.1-0.4-0.2-0.6-0.3C222.5,163.3,222.3,163.2,222.1,163.1z"/>
	<path class="st0" d="M229.2,167.6c0.1,0,0.2,0,0.3,0c0,0,0.1,0,0.1,0l-0.1-0.2c0,0-0.1,0-0.1,0c-0.1,0-0.1-0.1-0.2-0.1
		c-0.1,0-0.1-0.1-0.2-0.1c-0.1-0.1-0.3-0.2-0.5-0.2l0.5,0.7C229.1,167.6,229.2,167.6,229.2,167.6z"/>
	<path class="st0" d="M222,163C222,163,222,162.9,222,163c0.1-0.1,0.1-0.2,0.1-0.2c0,0,0-0.1,0-0.1c0,0,0-0.1,0-0.1c0,0,0,0,0,0
		l-21.6-0.6l8-9.9c-0.1-0.1-0.2-0.1-0.3-0.2c0,0-0.1,0-0.1-0.1l-8.7,10.7l22.8,0.6C222,163.1,222,163,222,163
		C222,163,222,163,222,163z"/>
	<path class="st0" d="M230,167.5C230,167.5,230,167.5,230,167.5C230,167.5,230,167.5,230,167.5c0,0-0.1,0-0.2,0
		C229.9,167.5,230,167.5,230,167.5z"/>
	<path class="st0" d="M221.9,162.3c0,0,0-0.1-0.1-0.1c0,0,0-0.1-0.1-0.1c0,0-0.1-0.1-0.1-0.1c0,0,0,0,0,0l-20.3-0.6l7.4-9.1
		c0,0,0,0,0,0c-0.1-0.1-0.2-0.1-0.3-0.2c0,0,0,0,0,0l-8,9.9l21.6,0.6c0,0,0-0.1,0-0.1C221.9,162.4,221.9,162.3,221.9,162.3z"/>
	<path class="st0" d="M229.8,167.5C229.8,167.5,229.9,167.5,229.8,167.5C229.8,167.5,229.8,167.5,229.8,167.5
		c-0.1,0-0.1-0.1-0.2-0.1c0,0-0.1,0-0.1-0.1l0.1,0.2c0,0,0,0,0.1,0C229.7,167.5,229.8,167.5,229.8,167.5z"/>
	<path class="st0" d="M221.6,161.9c0,0,0-0.1-0.1-0.1c0,0-0.1-0.1-0.1-0.1c0,0-0.1-0.1-0.1-0.1c0,0-0.1-0.1-0.1-0.1
		c0,0-0.1-0.1-0.1-0.1l-1.6,0l0,0c0,0,0,0,0,0c0,0,0,0,0,0c0,0,0,0,0,0l-17.2-0.5l6.8-8.3c0,0-0.1-0.1-0.1-0.1
		c-0.1,0-0.1-0.1-0.2-0.1l-7.4,9.1L221.6,161.9z"/>
	<path class="st0" d="M219.4,161.1C219.4,161.1,219.4,161.1,219.4,161.1c-0.1-0.1-0.1-0.1-0.2-0.2c0,0-0.1-0.1-0.1-0.1
		c0,0-0.1-0.1-0.1-0.1c0,0-0.1-0.1-0.1-0.1c0,0,0,0-0.1-0.1l-15.6-0.4l6.1-7.6c-0.1,0-0.1-0.1-0.2-0.1c0,0-0.1-0.1-0.1-0.1l-6.8,8.3
		l17.2,0.5C219.5,161.2,219.5,161.2,219.4,161.1C219.5,161.2,219.4,161.1,219.4,161.1z"/>
	<path class="st0" d="M221.1,161.2c0,0-0.1-0.1-0.1-0.1c0,0-0.1-0.1-0.1-0.1c0,0,0,0-0.1-0.1c0,0,0,0,0-0.1c0,0,0,0,0-0.1
		c0,0,0,0,0,0l-1.4,0l0.3,0.6l1.6,0c0,0,0,0,0,0C221.2,161.2,221.2,161.2,221.1,161.2z"/>
	<path class="st0" d="M220.7,160.6C220.7,160.6,220.7,160.6,220.7,160.6C220.7,160.6,220.7,160.6,220.7,160.6
		c-0.1-0.1-0.1-0.1-0.1-0.1c0,0,0,0,0,0c0,0,0,0,0,0c0,0,0,0,0,0c0,0,0,0,0,0c0,0,0,0,0,0c0,0,0,0,0,0c0,0,0,0,0,0c0,0,0,0,0,0
		c0,0,0,0,0,0l-1.3,0c0,0.1,0.1,0.1,0.1,0.2c0.1,0.1,0.1,0.2,0.1,0.2l0.1,0.2L220.7,160.6C220.8,160.7,220.8,160.7,220.7,160.6
		C220.8,160.7,220.7,160.6,220.7,160.6z"/>
	<path class="st0" d="M218.9,160.7C218.9,160.6,218.9,160.6,218.9,160.7l-0.1-0.1L218.9,160.7c-0.1-0.1-0.1-0.1-0.1-0.1c0,0,0,0,0,0
		c0,0,0,0,0,0c0,0,0,0,0,0c0,0,0,0,0,0c0,0,0,0,0,0c0,0,0,0,0,0c0,0,0,0,0,0c0,0,0,0,0,0c0,0,0,0,0,0c0,0,0,0,0,0c0,0,0,0,0,0
		c0,0,0,0,0,0c0,0,0,0,0,0c0,0,0,0,0,0c0,0,0,0,0,0c0,0,0,0,0,0c0,0,0,0,0,0c0,0,0,0,0,0c0,0,0,0,0,0c0,0,0,0,0,0l-14.1-0.4l5.5-6.8
		c0,0,0,0-0.1,0c-0.1-0.1-0.1-0.1-0.2-0.1c0,0,0,0,0,0l-6.1,7.6L218.9,160.7z"/>
	<path class="st0" d="M220.3,160.1C220.3,160.1,220.3,160.1,220.3,160.1C220.3,160.1,220.2,160.1,220.3,160.1
		C220.2,160,220.2,160,220.3,160.1c-0.1-0.1-0.1-0.1-0.1-0.1c0,0,0,0,0,0c0,0,0,0,0,0c0,0,0,0,0,0c0,0,0,0,0,0c0,0,0,0,0,0
		c0,0,0,0,0,0c0,0,0,0,0,0c0,0,0,0,0,0c0,0,0,0,0,0c0,0,0,0,0,0c0,0,0,0,0,0c0,0,0,0,0,0c0,0,0,0,0,0c0,0,0,0,0,0c0,0,0,0,0,0
		c0,0,0,0,0,0l-1.2,0c0,0,0,0,0,0c0,0,0,0,0,0c0,0,0,0,0,0c0,0,0,0,0,0c0,0,0,0,0,0c0,0,0,0,0,0c0,0,0,0,0,0c0,0,0,0,0,0
		c0,0,0,0,0,0c0,0,0,0,0,0c0,0,0,0,0,0c0,0,0,0,0,0c0,0,0,0,0,0c0,0,0,0,0,0c0,0,0,0,0,0c0,0,0,0,0,0c0,0,0,0,0,0c0,0,0,0,0,0
		c0,0,0,0,0,0c0,0,0,0,0,0c0,0,0,0,0,0c0,0,0,0,0,0c0,0,0,0,0,0c0,0,0,0,0,0L220.3,160.1C220.3,160.1,220.3,160.1,220.3,160.1
		C220.3,160.1,220.3,160.1,220.3,160.1z"/>
	<path class="st0" d="M218.2,160.1C218.2,160.1,218.2,160.1,218.2,160.1C218.2,160,218.2,160,218.2,160.1
		C218.2,160,218.2,160,218.2,160.1C218.2,160,218.2,160,218.2,160.1C218.1,160,218.1,160,218.2,160.1c-0.1-0.1-0.1-0.1-0.1-0.1
		c0,0,0,0,0,0c0,0,0,0,0,0c0,0,0,0,0,0c0,0,0,0,0,0c0,0,0,0,0,0c0,0,0,0,0,0c0,0,0,0,0,0c0,0,0,0,0,0c0,0,0,0,0,0c0,0,0,0,0,0
		c0,0,0,0,0,0c0,0,0,0,0,0c0,0,0,0,0,0c0,0,0,0,0,0c0,0,0,0,0,0c0,0,0,0,0,0c0,0,0,0,0,0l-12.6-0.4l5-6.1c-0.1,0-0.1-0.1-0.2-0.1
		c0,0-0.1-0.1-0.1-0.1l-5.5,6.8L218.2,160.1C218.2,160.1,218.2,160.1,218.2,160.1C218.2,160.1,218.2,160.1,218.2,160.1z"/>
	<path class="st0" d="M219.4,159.1l-1.1,0c0,0,0,0,0,0c0,0,0,0,0,0c0,0,0,0,0,0c0,0,0,0,0,0c0,0,0,0,0,0c0,0,0,0,0,0c0,0,0,0,0,0
		c0,0,0,0,0,0c0,0,0,0,0,0c0,0,0,0,0,0c0,0,0,0,0,0c0,0,0,0,0,0c0,0.1,0.1,0.1,0.1,0.2c0,0,0,0,0,0c0,0,0,0,0,0l1.2,0
		C219.7,159.4,219.5,159.2,219.4,159.1z"/>
	<path class="st0" d="M217.6,159.5C217.6,159.5,217.5,159.5,217.6,159.5C217.5,159.5,217.5,159.4,217.6,159.5l-0.1-0.1l-0.1,0
		c0,0,0,0-0.1,0c0,0,0,0-0.1,0c0,0,0,0-0.1,0c0,0,0,0,0,0c0,0,0,0,0,0c0,0,0,0,0,0c0,0,0,0,0,0c0,0,0,0,0,0c0,0,0,0,0,0c0,0,0,0,0,0
		l-11.1-0.3l4.4-5.4c0,0,0,0-0.1-0.1c-0.1,0-0.1-0.1-0.2-0.1c0,0,0,0,0,0l-5,6.1L217.6,159.5C217.6,159.5,217.6,159.5,217.6,159.5
		C217.6,159.5,217.6,159.5,217.6,159.5z"/>
	<path class="st0" d="M218.9,158.5l-1,0c0,0,0,0,0,0c0,0,0,0,0,0c0,0,0,0,0,0c0,0,0,0,0,0c0,0,0,0,0,0c0,0,0,0,0,0c0,0,0,0,0,0
		c0,0,0,0,0,0c0,0,0,0,0,0c0,0,0,0,0,0c0,0,0,0,0,0c0,0,0,0,0,0c0,0,0,0,0,0c0,0,0,0,0,0c0,0,0,0,0,0c0,0,0,0,0,0c0,0,0,0,0,0
		c0,0,0,0,0,0c0,0,0,0,0,0c0,0,0,0,0,0l1.1,0C219.2,158.9,219,158.7,218.9,158.5z"/>
	<path class="st0" d="M216.9,158.9C216.9,158.9,216.9,158.9,216.9,158.9C216.9,158.9,216.9,158.9,216.9,158.9
		c-0.1-0.1-0.1-0.1-0.1-0.1c0,0,0,0,0,0c0,0,0,0,0,0c0,0,0,0,0,0c0,0,0,0,0,0c0,0,0,0,0,0c0,0,0,0,0,0c0,0,0,0,0,0c0,0,0,0,0,0
		c0,0,0,0,0,0c0,0,0,0,0,0c0,0,0,0,0,0c0,0,0,0,0,0c0,0,0,0,0,0c0,0,0,0,0,0c0,0,0,0,0,0c0,0,0,0,0,0l-9.6-0.3l3.8-4.7c0,0,0,0,0,0
		c-0.1,0-0.1-0.1-0.2-0.1c0,0-0.1-0.1-0.1-0.1l-4.4,5.4L216.9,158.9C217,159,217,159,216.9,158.9C216.9,159,216.9,159,216.9,158.9z"
		/>
	<path class="st0" d="M218.5,158.1l-0.8,0c0,0,0,0,0,0c0,0,0,0,0,0c0,0,0,0,0,0c0,0,0,0,0,0c0,0,0,0,0,0c0,0,0,0,0,0c0,0,0,0,0,0
		c0,0,0,0,0,0c0,0,0,0,0,0c0,0,0,0,0,0c0,0,0,0,0,0c0,0,0,0,0,0c0,0,0,0,0,0c0,0.1,0.1,0.2,0.1,0.2l1,0c-0.2-0.2-0.4-0.4-0.4-0.4
		C218.5,158.1,218.5,158.1,218.5,158.1z"/>
	<path class="st0" d="M216.4,158.5C216.4,158.5,216.4,158.5,216.4,158.5C216.4,158.5,216.4,158.5,216.4,158.5
		C216.3,158.4,216.3,158.4,216.4,158.5c-0.1-0.1-0.1-0.1-0.1-0.1c0,0,0,0,0,0c0,0,0,0,0,0c0,0,0,0,0,0c0,0,0,0,0,0c0,0,0,0,0,0
		c0,0,0,0,0,0c0,0,0,0,0,0c0,0,0,0,0,0c0,0,0,0,0,0c0,0,0,0,0,0c0,0,0,0-0.1,0c0,0,0,0,0,0l-8.2-0.2l3.3-4c0,0-0.1-0.1-0.1-0.1
		c0,0-0.1-0.1-0.1-0.1l-3.8,4.7L216.4,158.5z"/>
	<path class="st0" d="M215.7,157.9C215.7,157.9,215.7,157.9,215.7,157.9c-0.1-0.1-0.1-0.1-0.1-0.1c0,0,0,0-0.1,0c0,0,0,0-0.1-0.1
		c0,0,0,0-0.1-0.1c-0.1-0.1-0.1-0.1-0.2-0.2l-6.9-0.2l2.7-3.3c0,0-0.1-0.1-0.1-0.1c0,0-0.1-0.1-0.1-0.1c0,0,0,0,0,0l-3.3,4l8.2,0.2
		C215.8,158,215.8,157.9,215.7,157.9C215.7,157.9,215.7,157.9,215.7,157.9z"/>
	<path class="st0" d="M218.5,157.9l-0.3-0.2c0,0,0,0,0-0.1l-0.9,0c0,0,0,0,0,0c0,0.1,0.1,0.1,0.1,0.2c0,0,0,0,0,0.1c0,0,0,0,0,0
		s0,0,0,0c0,0,0,0,0,0c0,0,0,0,0,0c0,0,0,0,0,0c0,0,0,0,0,0c0,0,0,0,0,0c0,0,0,0,0,0l0.8,0C218.4,158,218.4,158,218.5,157.9
		L218.5,157.9z"/>
	<path class="st0" d="M217.8,157.1l-0.9,0c0,0,0,0,0,0c0,0.1,0.1,0.1,0.1,0.2c0,0.1,0.1,0.1,0.1,0.2c0,0,0.1,0.1,0.1,0.1l0.9,0
		C218.1,157.4,217.9,157.3,217.8,157.1z"/>
	<path class="st0" d="M209.1,156.9l2.2-2.7c0,0,0,0,0,0c0,0,0-0.1-0.1-0.1c0,0-0.1-0.1-0.1-0.1c0,0,0,0,0,0l-2.7,3.3l6.9,0.2
		c-0.2-0.2-0.4-0.3-0.6-0.5L209.1,156.9z"/>
	<path class="st0" d="M217.8,157.1C217.8,157.1,217.8,157,217.8,157.1C217.8,157,217.8,157,217.8,157.1
		C217.8,157,217.8,157,217.8,157.1C217.7,157,217.7,157,217.8,157.1c-0.1-0.1-0.1-0.1-0.1-0.1c0,0,0,0,0,0c0,0,0,0,0,0c0,0,0,0,0,0
		c0,0,0,0,0,0c0,0,0,0,0,0c0,0,0,0,0,0c0,0,0,0,0,0c0,0,0,0,0,0c0,0,0,0,0,0c0,0,0,0,0,0l-1,0l0.1,0.1c0.1,0.1,0.1,0.1,0.2,0.2
		c0,0.1,0.1,0.1,0.1,0.2L217.8,157.1C217.8,157.1,217.8,157.1,217.8,157.1C217.8,157.1,217.8,157.1,217.8,157.1z"/>
	<path class="st0" d="M209.8,156.4l1.8-2.3c0,0,0,0,0,0c-0.1,0-0.1,0.1-0.2,0.1c-0.1,0-0.1,0.1-0.1,0.1c0,0,0-0.1,0-0.1
		c0,0,0,0,0-0.1l-2.2,2.7l5.6,0.2c-0.2-0.2-0.4-0.3-0.5-0.5L209.8,156.4z"/>
	<path class="st0" d="M214.1,156.6c-0.2-0.2-0.4-0.3-0.5-0.4l-3.1-0.1l1.7-2.1c0,0,0,0,0,0c-0.1,0-0.1,0.1-0.2,0.1
		c-0.1,0-0.1,0.1-0.2,0.1c-0.1,0-0.1,0-0.1,0.1l-1.8,2.3L214.1,156.6z"/>
	<path class="st0" d="M217.4,156.6C217.4,156.6,217.4,156.6,217.4,156.6C217.4,156.5,217.4,156.5,217.4,156.6
		c-0.1-0.1-0.1-0.1-0.1-0.1c0,0,0,0,0,0c0,0,0,0,0,0c0,0,0,0,0,0c0,0,0,0,0,0c0,0,0,0,0,0c0,0,0,0,0,0l-1,0c0,0,0,0,0,0c0,0,0,0,0,0
		c0,0,0,0,0,0c0,0,0,0,0,0c0,0,0,0,0,0c0,0,0,0,0,0c0,0,0,0,0,0c0,0,0,0,0,0c0,0,0,0,0,0c0,0,0,0,0,0c0,0,0,0,0,0l0,0l0,0
		L217.4,156.6C217.5,156.6,217.5,156.6,217.4,156.6C217.4,156.6,217.4,156.6,217.4,156.6z"/>
	<path class="st0" d="M213.5,155.9C213.5,155.9,213.5,155.9,213.5,155.9c0.1-0.1,0.1-0.1,0.1-0.1c0,0,0,0,0.1,0c0,0,0,0,0.1,0
		c0,0,0,0,0.1,0c0,0,0,0,0.1,0c0,0,0,0,0,0l-2.7-0.1l1.5-1.8c0,0,0,0-0.1,0c-0.1,0-0.2,0.1-0.3,0.1c-0.1,0-0.1,0-0.2,0.1l-1.7,2.1
		l3.1,0.1C213.5,156,213.4,156,213.5,155.9C213.4,156,213.4,155.9,213.5,155.9z"/>
	<path class="st0" d="M217,156.1C217,156.1,217,156.1,217,156.1c-0.1-0.1-0.1-0.1-0.1-0.1c0,0,0,0-0.1-0.1c0,0,0,0-0.1-0.1
		c0,0,0,0-0.1-0.1c0,0,0,0-0.1-0.1c0,0,0,0,0,0l-1,0c0,0,0,0,0.1,0.1c0,0,0,0,0.1,0.1c0,0,0,0,0.1,0.1c0,0,0,0,0.1,0.1
		c0,0,0,0,0.1,0.1c0,0,0,0,0,0.1c0,0,0,0,0,0.1c0,0,0,0,0,0L217,156.1C217.1,156.2,217.1,156.2,217,156.1
		C217.1,156.2,217.1,156.2,217,156.1z"/>
	<path class="st0" d="M214,155.6C214,155.6,214,155.6,214,155.6c0.1,0,0.1-0.1,0.1-0.1c0,0,0,0,0.1,0c0,0,0.1,0,0.1,0
		c0,0,0.1,0,0.1-0.1c0,0,0.1,0,0.1-0.1c0,0,0.1,0,0.1-0.1c0,0,0,0,0,0l-2.6-0.1l1.2-1.5c-0.1,0-0.1,0-0.2,0c-0.1,0-0.2,0-0.2,0.1
		l-1.5,1.8l2.7,0.1C213.9,155.7,213.9,155.7,214,155.6C213.9,155.7,214,155.6,214,155.6z"/>
	<path class="st0" d="M216.6,155.7C216.6,155.7,216.6,155.7,216.6,155.7c-0.1-0.1-0.1-0.1-0.1-0.1c0,0-0.1,0-0.1-0.1
		c0,0-0.1,0-0.1-0.1c0,0-0.1-0.1-0.1-0.1c0,0,0,0,0,0l-0.9,0c0,0,0,0,0,0c0,0,0,0,0.1,0.1c0,0,0,0,0.1,0.1c0,0,0,0,0.1,0.1
		c0,0,0,0,0.1,0.1c0,0,0,0,0.1,0.1c0,0,0,0,0.1,0.1c0,0,0,0,0,0L216.6,155.7C216.7,155.8,216.7,155.7,216.6,155.7z"/>
	<path class="st0" d="M216.1,155.2C216,155.2,216,155.2,216.1,155.2c-0.1-0.1-0.2-0.1-0.2-0.2c0,0-0.1-0.1-0.1-0.1c0,0,0,0,0,0
		l-3.2-0.1l1-1.2c-0.1,0-0.1,0-0.2,0c-0.1,0-0.1,0-0.2,0l-1.2,1.5l2.6,0.1c0,0,0,0,0.1,0c0,0,0,0,0.1-0.1c0,0,0,0,0.1-0.1
		c0,0,0,0,0.1-0.1c0,0,0,0,0.1-0.1c0,0,0,0,0-0.1l0.1,0c0,0,0.1,0,0.1,0.1c0,0,0.1,0.1,0.1,0.1c0,0,0.1,0.1,0.1,0.1
		c0,0,0.1,0.1,0.1,0.1c0,0,0,0,0.1,0.1l0.9,0C216.2,155.3,216.2,155.3,216.1,155.2C216.1,155.3,216.1,155.2,216.1,155.2z"/>
	<path class="st0" d="M215.8,155c0,0-0.1-0.1-0.1-0.1c0,0-0.1-0.1-0.1-0.1c0,0-0.1-0.1-0.1-0.1c-0.1,0-0.1-0.1-0.1-0.1c0,0,0,0,0,0
		l-2-0.1l0.7-0.8c-0.1,0-0.2,0-0.3,0l-1,1.2L215.8,155z"/>
	<path class="st0" d="M214.9,154.3C214.9,154.3,214.9,154.3,214.9,154.3c0-0.1-0.1-0.1-0.1-0.1c0,0,0,0,0-0.1l-1,0l0.4-0.4
		c-0.1,0-0.2,0-0.3,0l-0.7,0.8l2,0.1c-0.1,0-0.1-0.1-0.1-0.1C215,154.4,214.9,154.4,214.9,154.3z"/>
	<path class="st0" d="M214.8,154.2C214.8,154.2,214.8,154.1,214.8,154.2c0-0.1-0.1-0.1-0.1-0.1c0,0-0.1-0.1-0.1-0.1
		c0,0-0.1-0.1-0.2-0.1l0,0l0,0c0,0,0,0,0,0c-0.1,0-0.1-0.1-0.2-0.1l-0.4,0.4L214.8,154.2z"/>
	<path class="st0" d="M214.4,153.8L214.4,153.8C214.4,153.8,214.4,153.8,214.4,153.8L214.4,153.8z"/>
</g>
</svg>
