<?xml version="1.0" encoding="utf-8"?>
<!-- Generator: Adobe Illustrator 22.0.1, SVG Export Plug-In . SVG Version: 6.00 Build 0)  -->
<svg version="1.1" id="レイヤー_1" xmlns="http://www.w3.org/2000/svg" xmlns:xlink="http://www.w3.org/1999/xlink" x="0px"
	 y="0px" viewBox="0 0 640 640" style="enable-background:new 0 0 640 640;" xml:space="preserve">
<style type="text/css">
	.st0{fill:none;stroke:#E50012;stroke-width:0.3124;stroke-miterlimit:10;}
</style>
<g>
	<path class="st0" d="M602.8,1.6c0.2-0.3,0.4-0.4,0.6-0.5l-3.2,1.6l0.8,1.1C601.7,2.9,602.3,2.1,602.8,1.6z"/>
	<path class="st0" d="M596.4,5.4c0,0-1,0.1-1.9,0.6c-0.2,0.1-0.4,0.3-0.6,0.5l2.3,3.4c0.6-0.8,1.2-1.6,1.7-2.3
		c0.2-0.2,0.3-0.4,0.5-0.6l-1.9-2.7C596.5,4.6,596.4,5,596.4,5.4z"/>
	<path class="st0" d="M616.2,44.1c-0.1-0.4-0.2-0.8-0.3-1.2c-0.1-0.4-0.3-0.8-0.4-1.2c-0.1-0.4-0.3-0.8-0.5-1.2
		c-0.2-0.4-0.4-0.8-0.6-1.2c-0.2-0.4-0.5-0.8-0.7-1.2c-0.3-0.4-0.6-0.8-0.9-1.1c-0.4-0.4-0.7-0.7-1.2-1c-0.5-0.3-1-0.6-1.6-0.8
		c-0.2-0.1-0.5-0.2-0.7-0.2l7.2,10.5C616.4,44.9,616.3,44.5,616.2,44.1z"/>
	<path class="st0" d="M593.5,8.3c0,0-0.3,0.1-0.7,0.3c-0.3,0.2-0.7,0.4-1.1,0.6l2.4,3.5c0.7-1,1.4-1.9,2.2-2.9l-2.3-3.4
		C593.5,6.9,593.3,7.5,593.5,8.3z"/>
	<path class="st0" d="M605.4,34.9l17.2,25c0.3-1.1,0.3-2.2,0.1-3.3c-0.1-0.6-0.3-1.2-0.5-1.8c-0.2-0.5-0.4-1-0.7-1.4
		c-0.2-0.4-0.5-0.8-0.7-1.2c-0.2-0.4-0.5-0.7-0.7-1.1c-0.2-0.3-0.5-0.7-0.7-1c-0.2-0.3-0.4-0.6-0.6-0.8c-0.3-0.3-0.5-0.6-0.7-0.8
		c-0.3-0.3-0.6-0.6-0.8-0.8c-0.2-0.2-0.3-0.3-0.3-0.3s0-0.3-0.1-0.7c0-0.3-0.1-0.7-0.2-1.2c0,0,0-0.1,0-0.1l-7.2-10.5
		c-0.5-0.1-1-0.2-1.6-0.2C606.9,34.6,606.2,34.7,605.4,34.9z"/>
	<path class="st0" d="M451.3,88c-0.6,0.4-1.2,0.8-1.8,1.2c-1,0.7-2.1,1.4-3.1,2.2c-1,0.7-1.9,1.4-2.9,2.1c-0.9,0.7-1.8,1.3-2.7,2
		c-0.5,0.4-1.1,0.8-1.6,1.2l10.3-3.1L451.3,88z"/>
	<path class="st0" d="M590.8,10.1c-0.6,0.7-0.9,1.6-0.1,2.5c0,0-0.2,0.1-0.5,0.2l1.9,2.8c0.1-0.1,0.2-0.3,0.3-0.4
		c0.6-0.8,1.2-1.6,1.8-2.4c0,0,0,0,0,0l-2.4-3.5C591.4,9.5,591,9.8,590.8,10.1z"/>
	<path class="st0" d="M589.3,13.1c-0.6,0.3-1.2,0.8-1.7,1.5l2.5,3.7c0.2-0.3,0.4-0.5,0.6-0.8c0.4-0.6,0.9-1.3,1.4-1.9l-1.9-2.8
		C589.9,12.8,589.6,13,589.3,13.1z"/>
	<path class="st0" d="M602.3,36.2L620.7,63c0.5-0.6,1-1.1,1.3-1.7l0.4-1.1c0-0.1,0-0.2,0.1-0.3l-17.2-25
		C604.4,35.2,603.4,35.6,602.3,36.2z"/>
	<path class="st0" d="M435.8,99.3c-0.8,0.6-1.5,1.2-2.2,1.8c-0.7,0.6-1.4,1.1-2.1,1.7c-0.2,0.1-0.3,0.3-0.5,0.4l22.5-6.7l4.1-12.7
		c-0.4,0.3-0.8,0.5-1.3,0.8c-1.2,0.8-2.4,1.5-3.6,2.3c-0.5,0.3-1,0.7-1.5,1l-1.8,5.6l-10.3,3.1c-0.3,0.2-0.6,0.5-1,0.7
		C437.4,98,436.6,98.6,435.8,99.3z"/>
	<path class="st0" d="M464.3,66.2C464.2,66.2,464.2,66.2,464.3,66.2c-0.1,0.1,0,0.1,0,0.1c0.1,0,0.2,0,0.4,0
		C464.5,66.2,464.4,66.1,464.3,66.2z"/>
	<path class="st0" d="M463.6,78c-0.7,0.8-1.4,1.5-1.8,2.1l1.9-0.3l1-2.9C464.3,77.2,464,77.6,463.6,78z"/>
	<path class="st0" d="M587.2,18.8l-0.3,0.5l1.2,1.7c0.3-0.4,0.6-0.8,0.9-1.2c0.3-0.5,0.7-0.9,1.1-1.5l-2.5-3.7
		c0,0.1-0.1,0.1-0.1,0.2C586.8,15.7,586.6,17,587.2,18.8z"/>
	<path class="st0" d="M618.2,64.8c0.5-0.3,0.9-0.6,1.3-0.9c0.4-0.3,0.8-0.7,1.2-1l-18.4-26.8c-0.8,0.5-1.7,1-2.6,1.7L618.2,64.8z"/>
	<path class="st0" d="M431,103.2c-0.5,0.4-1,0.8-1.5,1.3c-0.6,0.5-1.2,1.1-1.9,1.6c-0.6,0.5-1.2,1-1.7,1.6c-0.6,0.5-1.1,1-1.7,1.5
		l33.1-9.8l6.3-19.3c-1.2,0.7-2.3,1.4-3.5,2.2c-0.8,0.5-1.7,1.1-2.5,1.6l-4.1,12.7L431,103.2z"/>
	<path class="st0" d="M467.6,66c-0.6,0.1-1.1,0.1-1.6,0.2c-0.5,0.1-1,0.1-1.3,0.1c0.4,0.2,1,0.4,1.6,0.8c0.4,0.2,0.9,0.5,1.3,0.7
		l0.6-1.9C468,65.9,467.8,66,467.6,66z"/>
	<path class="st0" d="M585.4,22.4l1.9,2.8c0.4-0.4,0.6-0.8,0.3-1.2c0.1,0,0.3,0,0.4,0.1l-0.7-2.1c0.2-0.3,0.5-0.6,0.7-1l-1.2-1.7
		l-0.3,0.5L585.4,22.4z"/>
	<path class="st0" d="M422.9,110.4c-0.3,0.3-0.6,0.6-0.9,0.9c-0.3,0.3-0.6,0.6-0.9,0.9c-0.3,0.3-0.6,0.6-0.9,0.9
		c-0.1,0.1-0.3,0.3-0.4,0.4c0,0-0.2,0.2-0.5,0.6c-0.1,0.2-0.3,0.4-0.5,0.6l42.4-12.6l10-30.8c-0.3,0.3-0.7,0.6-1.1,0.9
		c-0.4,0.3-0.8,0.7-1.2,1c-0.4,0.3-0.8,0.7-1.3,1.1c-0.4,0.4-0.9,0.8-1.3,1.1c-0.4,0.4-0.9,0.8-1.3,1.2c-0.1,0.1-0.2,0.2-0.2,0.2
		l-1,2.9l0.5-0.1c-0.2,0.1-0.4,0.2-0.6,0.4l-6.3,19.3l-33.1,9.8c-0.1,0.1-0.3,0.3-0.4,0.4C423.5,109.8,423.2,110.1,422.9,110.4z"/>
	<path class="st0" d="M470.6,69.5c0.4,0.2,0.7,0.4,1,0.6l1.6-4.9c-0.4,0.1-0.8,0.1-1.2,0.2c-0.5,0.1-1,0.1-1.4,0.2
		c-0.5,0.1-1,0.1-1.5,0.2c-0.3,0-0.6,0.1-0.8,0.1l-0.6,1.9c0.3,0.2,0.6,0.3,0.8,0.5C469.3,68.7,470,69.1,470.6,69.5z"/>
	<path class="st0" d="M615.4,66.1c0.3-0.1,0.6-0.2,0.9-0.3c0.6-0.2,1.1-0.5,1.5-0.7c0.1-0.1,0.2-0.1,0.4-0.2l-18.5-27
		c-0.8,0.6-1.5,1.2-2.4,1.9L615.4,66.1z"/>
	<path class="st0" d="M584.9,23.4l-1.7-0.6l-1.1-0.4l-0.2,0.1l2.9,4.2c0.5-0.3,1.1-0.5,1.6-0.8c0.4-0.2,0.7-0.5,0.9-0.7l-1.9-2.8
		l-0.1,0.2L584.9,23.4z"/>
	<path class="st0" d="M417.4,116.2c-0.3,0.3-0.6,0.7-1,1.1c-0.3,0.4-0.6,0.7-1,1.1c-0.3,0.4-0.7,0.8-1,1.2c0,0-0.1,0.1-0.1,0.1
		l50.4-14.9l13.1-40.3c-0.2,0-0.4,0.1-0.7,0.1c-0.4,0.1-0.8,0.1-1.3,0.2c-0.4,0.1-0.9,0.1-1.3,0.2c-0.5,0.1-0.9,0.1-1.3,0.2
		c-0.1,0-0.1,0-0.2,0l-1.6,4.9c0.4,0.2,0.6,0.4,0.6,0.4s-0.3,0.3-0.9,0.7c0,0-0.1,0.1-0.1,0.1l-10,30.8l-42.4,12.6
		c-0.1,0.1-0.2,0.3-0.4,0.4C418,115.4,417.7,115.8,417.4,116.2z"/>
	<path class="st0" d="M597.2,39.9c0,0-0.3-0.1-0.8-0.3c-0.5-0.2-1.3-0.4-2.2-0.6c-0.3-0.1-0.7-0.1-1.1-0.2L612.5,67
		c0.4-0.1,0.7-0.2,1.1-0.3c0.5-0.1,0.9-0.3,1.3-0.4c0.2-0.1,0.4-0.1,0.5-0.2l-18.1-26.3C597.3,39.8,597.3,39.8,597.2,39.9z"/>
	<path class="st0" d="M589.3,38.3l21,30.5c0.4-0.9,0.5-1.5,0.5-1.5c0.1,0,0.2,0,0.3-0.1c0.4-0.1,0.8-0.2,1.2-0.3c0.1,0,0.1,0,0.2,0
		l-19.3-28.2c-0.4-0.1-0.9-0.2-1.4-0.2C591,38.5,590.2,38.4,589.3,38.3z"/>
	<path class="st0" d="M412.4,122.1c-0.4,0.4-0.7,0.9-1.1,1.3c-0.3,0.4-0.6,0.7-0.8,1.1l57.8-17.1l14.2-43.6c-0.2,0-0.4,0.1-0.6,0.1
		c-0.4,0.1-0.7,0.1-1.1,0.2c-0.4,0.1-0.8,0.1-1.1,0.2c-0.4,0.1-0.8,0.1-1.2,0.2c-0.2,0-0.4,0.1-0.6,0.1l-13.1,40.3l-50.4,14.9
		c-0.3,0.4-0.6,0.7-0.9,1.1C413.1,121.2,412.7,121.7,412.4,122.1z"/>
	<path class="st0" d="M581,23.2l-1.4,0.9l2.5,3.6c0.1,0,0.3,0,0.4,0c0,0,0.1,0,0.2-0.1c0.3-0.1,1.1-0.4,1.9-0.8
		c0.1,0,0.2-0.1,0.3-0.1l-2.9-4.2l-0.8,0.5L581,23.2z"/>
	<path class="st0" d="M621.5,88.1L621.5,88.1c0.1,0.1,0.2,0.2,0.2,0.3l19.1,0l0-0.2l0.1,0l2.8-1.4l1.6-0.8c-0.4,0.2-2.3,0.3-5,0.3
		c-3.6,0-8.4,0-12.8-0.1c-0.6,0-1.2,0-1.8,0c-0.6,0-1.2,0-1.7,0c-0.6,0-1.1,0-1.7,0c-0.6,0-1.1,0-1.6,0c-0.6,0-1.1,0-1.6,0
		c-0.1,0-0.2,0-0.4,0l1.2,1.8L621.5,88.1z"/>
	<path class="st0" d="M579.5,24.1l-1.7,0.9c-0.2,0.1-0.4,0.2-0.7,0.3l1.7,2.4c0.6-0.1,1.2-0.2,1.8-0.2c0.5,0,1,0,1.4,0.1L579.5,24.1
		L579.5,24.1z"/>
	<path class="st0" d="M585.8,38L609,71.7c0.6-1.2,1.1-2.2,1.4-2.9l-21-30.5c-0.2,0-0.3,0-0.5,0C587.9,38.1,586.9,38.1,585.8,38z"/>
	<path class="st0" d="M409.2,126.2c-0.4,0.5-0.7,1-1.1,1.5c-0.3,0.5-0.7,0.9-1,1.4l64.7-19.2L487,63c0,0,0,0,0,0
		c-0.3,0.1-0.6,0.1-1,0.2c-0.3,0.1-0.6,0.1-1,0.2c-0.3,0.1-0.7,0.1-1,0.2c-0.3,0.1-0.7,0.1-1,0.2c-0.2,0-0.3,0-0.5,0.1l-14.2,43.6
		l-57.8,17.1c-0.1,0.1-0.2,0.2-0.2,0.3C409.9,125.2,409.5,125.7,409.2,126.2z"/>
	<path class="st0" d="M574.8,26.7l1.3,1.9c0.3-0.1,0.6-0.2,0.8-0.3c0.6-0.2,1.2-0.3,1.8-0.4c0,0,0.1,0,0.1,0l-1.7-2.4
		c-0.3,0.2-0.6,0.3-1,0.5C575.7,26.1,575.3,26.4,574.8,26.7z"/>
	<path class="st0" d="M627.5,89.8c0.6-0.3,1-0.6,1-0.6c0.1,0.3,0.2,0.6,0.4,0.8c0.6,0.7,1.7,0.7,2.7,0.4c1.1-0.3,2.1-0.9,2.1-0.9
		c1.2,1.5,2.7,0.6,3.5,0c0.4-0.3,0.6-0.5,0.6-0.5c0.6,0.5,1.7,0.8,2.6,1c0.5,0.1,0.9,0.2,0.9,0.2l0-0.1l-0.4-1.6l-19.1,0
		C623.6,91.1,626.1,90.4,627.5,89.8z"/>
	<path class="st0" d="M583.9,38c-0.4,0-0.9,0-1.4,0l24.9,36.3c0.6-0.9,1.1-1.8,1.5-2.6L585.8,38c0,0-0.1,0-0.1,0
		C585.1,38,584.6,38,583.9,38z"/>
	<path class="st0" d="M405.8,130.8c-0.4,0.6-0.8,1.1-1.1,1.7c-0.2,0.3-0.4,0.6-0.6,0.9l71-21l16.3-50c-0.3,0-0.6,0.1-0.9,0.1
		c-0.3,0-0.5,0.1-0.8,0.1c-0.3,0-0.6,0.1-0.9,0.1c-0.3,0-0.6,0.1-0.9,0.1c-0.3,0-0.6,0.1-0.9,0.1l-15.3,46.9L407,129
		c0,0.1-0.1,0.1-0.1,0.2C406.5,129.7,406.2,130.2,405.8,130.8z"/>
	<path class="st0" d="M617.3,86c0.3-0.6,0.3-1.1,0.3-1.4c-0.1-0.4-0.3-0.5-0.7-0.5c-0.4,0-1,0.1-1.6,0.4c-0.2,0.1-0.4,0.2-0.7,0.3
		l1.8,2.6l0-0.1l0.6,0.1l1.4,0.3l1.5,0.3l0,0l-1.2-1.8c-0.5,0-0.9,0-1.2,0C617.4,86,617.3,86,617.3,86z"/>
	<path class="st0" d="M613.6,85.2c-0.5,0.2-0.9,0.5-1.2,0.7l2.8,4.1l0.4-0.1l0.9-2.6l-1.8-2.6C614.3,84.9,613.9,85,613.6,85.2z"/>
	<path class="st0" d="M580.1,38.1c-0.2,0-0.4,0-0.6,0L606,76.6c0.2-0.3,0.4-0.6,0.6-0.9c0.3-0.5,0.7-1,0.9-1.5L582.6,38
		c-0.2,0-0.4,0-0.6,0C581.4,38,580.7,38.1,580.1,38.1z"/>
	<path class="st0" d="M404.1,133.3c-0.2,0.3-0.4,0.6-0.5,0.9c-0.4,0.6-0.7,1.2-1.1,1.8c-0.2,0.4-0.5,0.9-0.7,1.3l76.5-22.6
		l18.4-56.3c-0.1,0.1-0.2,0.1-0.3,0.2c-0.3,0.2-0.6,0.5-0.9,0.7c-0.3,0.2-0.6,0.5-0.8,0.7c-0.3,0.3-0.5,0.5-0.7,0.8
		c-0.2,0.3-0.4,0.7-0.4,0.9c0,0.1,0,0.2,0.1,0.3c0,0-0.4,0.1-1.1,0.2c-0.3,0.1-0.8,0.1-1.2,0.2l-16.3,50L404.1,133.3z"/>
	<path class="st0" d="M573.1,27.7c-0.2,0.1-0.3,0.2-0.5,0.3l1.2,1.7c0.5-0.3,1-0.5,1.5-0.8c0.3-0.1,0.5-0.2,0.8-0.3l-1.3-1.9
		c-0.1,0-0.1,0.1-0.2,0.1C574.1,27.1,573.6,27.4,573.1,27.7z"/>
	<path class="st0" d="M611.5,86.4c-0.3,0.5-0.6,1-0.9,1.4l2.1,3.1l1.5-0.6l0.1,0l0.8-0.3l-2.8-4.1c-0.2,0.1-0.4,0.2-0.5,0.3
		C611.6,86.4,611.5,86.4,611.5,86.4z"/>
	<path class="st0" d="M400.7,140.1c-0.1,0.3-0.1,0.5-0.1,0.8l80.9-23.9l20.1-61.6c-0.2,0.1-0.5,0.3-0.7,0.4
		c-0.4,0.2-0.8,0.5-1.2,0.7c-0.4,0.2-0.8,0.5-1.1,0.7c-0.4,0.2-0.7,0.5-1.1,0.7c-0.3,0.2-0.5,0.3-0.7,0.5l-18.4,56.3l-76.5,22.6
		c-0.1,0.2-0.2,0.4-0.3,0.7C401.1,138.7,400.9,139.4,400.7,140.1z"/>
	<path class="st0" d="M570.4,29.3l1.2,1.7c0.2-0.1,0.4-0.3,0.6-0.4c0.5-0.3,1-0.6,1.5-0.9c0,0,0,0,0,0l-1.2-1.7
		c-0.3,0.2-0.6,0.4-1,0.6C571.2,28.8,570.8,29.1,570.4,29.3z"/>
	<path class="st0" d="M576.6,38.4l27.8,40.4c0.6-0.7,1.1-1.5,1.6-2.2l-26.4-38.5c-0.4,0-0.8,0.1-1.3,0.1
		C577.7,38.3,577.2,38.3,576.6,38.4z"/>
	<path class="st0" d="M401.3,143l0.2,0.1l0.5,0.2c0,0-0.1,0.1-0.1,0.3l82.6-24.5l19.6-60.3c-0.2,0.1-0.3,0.1-0.4,0.2l-0.5-0.3
		c0.2-0.3,0.6-0.5,0.9-0.8c0.2-0.1,0.3-0.3,0.5-0.4l1.5-4.5c-0.4,0.2-0.9,0.4-1.4,0.7c-0.4,0.2-0.9,0.5-1.4,0.7
		c-0.4,0.2-0.9,0.5-1.3,0.7c-0.2,0.1-0.3,0.2-0.5,0.3l-20.1,61.6l-80.9,23.9C400.5,141.8,400.7,142.6,401.3,143z"/>
	<path class="st0" d="M574.8,38.6c-0.3,0-0.6,0.1-0.9,0.1l28.9,42.1c0.4-0.5,0.9-1.1,1.3-1.6c0.1-0.1,0.2-0.3,0.3-0.4l-27.8-40.4
		c0,0-0.1,0-0.1,0C575.9,38.5,575.4,38.5,574.8,38.6z"/>
	<path class="st0" d="M568.8,30.4c-0.1,0.1-0.3,0.2-0.4,0.3l1.3,1.9c0.4-0.3,0.7-0.6,1.2-1c0.2-0.2,0.5-0.4,0.8-0.6l-1.2-1.7
		c-0.1,0.1-0.2,0.1-0.2,0.2C569.7,29.8,569.3,30.1,568.8,30.4z"/>
	<path class="st0" d="M609.2,89.3c-0.1,0.1-0.2,0.2-0.4,0.3l1.6,2.3c0.2-0.1,0.3-0.1,0.4-0.2c0.8-0.4,1.3-0.6,1.3-0.6l0.5-0.2l0.1,0
		l-2.1-3.1C610.2,88.3,609.7,88.8,609.2,89.3z"/>
	<path class="st0" d="M566.5,32.2l1.4,2.1c0.1-0.1,0.2-0.2,0.3-0.4c0.4-0.4,0.8-0.8,1.2-1.2c0,0,0.1-0.1,0.1-0.1l-1.3-1.9
		c-0.3,0.2-0.6,0.4-0.9,0.7C567.2,31.7,566.9,31.9,566.5,32.2z"/>
	<path class="st0" d="M571.6,39.1c-0.1,0-0.2,0-0.3,0l29.9,43.6c0.3-0.3,0.5-0.6,0.8-0.9c0.3-0.3,0.5-0.6,0.8-0.9l-28.9-42.1
		c-0.2,0-0.5,0.1-0.7,0.1C572.6,38.9,572.1,39,571.6,39.1z"/>
	<path class="st0" d="M506.3,56.2c0.4-0.3,0.8-0.5,1.2-0.8c0.5-0.3,0.9-0.6,1.3-0.8c0.2-0.1,0.3-0.2,0.5-0.3l1.2-3.8
		c-0.3,0.2-0.6,0.5-0.9,0.7c0,0-0.1,0.1-0.4,0.2c-0.3,0.2-0.9,0.4-1.6,0.7c-0.4,0.2-0.9,0.5-1.5,0.7c0,0,0,0-0.1,0l-1.5,4.5
		c0.2-0.1,0.4-0.3,0.5-0.4C505.5,56.7,505.9,56.5,506.3,56.2z"/>
	<path class="st0" d="M401.6,146.7l85.8-25.4l20.8-64c-0.1,0-0.1,0-0.2,0.1c-0.5,0.2-1,0.4-1.5,0.6c-0.5,0.2-1,0.4-1.5,0.5
		c-0.4,0.1-0.7,0.3-1,0.4l-19.6,60.3l-82.6,24.5c-0.1,0.4-0.3,1.2-0.3,2.2C401.5,146.1,401.5,146.4,401.6,146.7z"/>
	<path class="st0" d="M606.9,91l1.3,1.9c0.3-0.1,0.7-0.3,1-0.4c0.5-0.2,0.9-0.4,1.2-0.6l-1.6-2.3c-0.5,0.4-1,0.8-1.5,1.2
		C607.2,90.9,607.1,90.9,606.9,91z"/>
	<path class="st0" d="M604.9,92.1l1.2,1.8c0.5-0.2,1-0.4,1.5-0.6c0.2-0.1,0.4-0.2,0.7-0.3l-1.3-1.9c-0.4,0.2-0.8,0.5-1.2,0.7
		C605.4,91.8,605.2,92,604.9,92.1z"/>
	<path class="st0" d="M402.4,149.1c0,0.1,0.1,0.2,0.2,0.2l87.7-26l22-67.5c-0.3,0.1-0.6,0.2-1,0.3c-0.6,0.2-1.1,0.4-1.6,0.6
		c-0.5,0.2-1,0.3-1.4,0.5l-20.8,64l-85.8,25.4C401.7,147.5,401.9,148.3,402.4,149.1z"/>
	<path class="st0" d="M510.5,53.6c0.2-0.3,0.4-0.6,0.7-0.8c0.3-0.3,0.8-0.7,1.2-1c0.4-0.3,0.9-0.6,1.4-0.9c0,0,0,0,0.1,0l1-3.2
		c0,0-0.1,0-0.1,0c-0.5,0.3-1.1,0.6-1.6,0.9c-0.5,0.3-1,0.6-1.5,1c-0.4,0.3-0.9,0.6-1.3,1c0,0,0,0,0,0l-1.2,3.8
		c0.4-0.2,0.7-0.4,0.9-0.5C510.3,53.6,510.5,53.6,510.5,53.6z"/>
	<path class="st0" d="M565.1,33.4c-0.1,0.1-0.2,0.2-0.3,0.3l3.5,5.2l-0.5-1.7l-0.6-2c0.2-0.2,0.4-0.5,0.8-0.9l-1.4-2.1
		c-0.1,0.1-0.2,0.1-0.3,0.2C565.9,32.7,565.5,33.1,565.1,33.4z"/>
	<path class="st0" d="M570.1,39.3c-0.4,0.1-0.8,0.2-1.2,0.2l30.8,44.9c0.2-0.2,0.4-0.4,0.6-0.6c0.3-0.4,0.7-0.8,1-1.1l-29.9-43.6
		C570.9,39.2,570.5,39.3,570.1,39.3z"/>
	<path class="st0" d="M517.1,49c0.3-0.2,0.7-0.3,1-0.5l0.9-2.8c-0.2,0.1-0.3,0.1-0.5,0.2c-0.6,0.3-1.3,0.5-1.9,0.9
		c-0.5,0.3-1.1,0.6-1.7,0.9l-1,3.2c0.5-0.3,1-0.6,1.5-0.9C516,49.6,516.5,49.3,517.1,49z"/>
	<path class="st0" d="M602.9,92.9c0,0-0.1,0-0.1,0l1.2,1.8c0.2-0.1,0.4-0.1,0.6-0.2c0.5-0.2,1-0.4,1.5-0.6c0,0,0,0,0,0l-1.2-1.8
		c-0.2,0.1-0.4,0.2-0.7,0.3C603.8,92.5,603.3,92.7,602.9,92.9z"/>
	<path class="st0" d="M568.4,38.9l-3.5-5.2c-0.3,0.3-0.6,0.6-0.8,0.8c-0.3,0.3-0.5,0.6-0.7,0.9l34.8,50.7c0.2-0.2,0.3-0.3,0.5-0.5
		c0.4-0.4,0.7-0.8,1.1-1.2l-30.8-44.9c-0.1,0-0.2,0-0.2,0L568.4,38.9z"/>
	<path class="st0" d="M493.1,125.4l23.1-70.9c-0.5,0.2-0.9,0.3-1.4,0.5c-0.6,0.2-1.2,0.4-1.7,0.6c-0.2,0.1-0.5,0.2-0.7,0.3l-22,67.5
		l-87.7,26c0.5,0.8,1.2,1.5,2.3,2.2L493.1,125.4z"/>
	<path class="st0" d="M522.1,46.6l0.7-2.2c-0.5,0.1-1,0.3-1.6,0.5c-0.7,0.2-1.4,0.5-2.2,0.8l-0.9,2.8c0.3-0.1,0.5-0.3,0.8-0.4
		C520,47.5,521.1,47,522.1,46.6z"/>
	<path class="st0" d="M405.3,153.5c0,0.1,0,0.3,0,0.4c0,0.1,0,0.1,0,0.1l90.4-26.7l24.2-74.2c-0.5,0.2-1,0.4-1.5,0.5
		c-0.6,0.2-1.2,0.4-1.9,0.7c-0.1,0-0.3,0.1-0.4,0.1l-23.1,70.9l-88.2,26.1c0.2,0.1,0.4,0.3,0.6,0.4
		C405.4,152.5,405.3,153,405.3,153.5z"/>
	<path class="st0" d="M600.5,93.5l1.3,1.9c0.4-0.1,0.9-0.3,1.3-0.4c0.3-0.1,0.5-0.2,0.8-0.3l-1.2-1.8c-0.4,0.1-0.8,0.2-1.2,0.4
		C601.2,93.3,600.9,93.4,600.5,93.5z"/>
	<path class="st0" d="M562.1,37.4l0,0.1l34.4,50.1c0.2-0.2,0.3-0.3,0.5-0.5c0.4-0.4,0.7-0.7,1.1-1.1l-34.8-50.7
		c-0.1,0.1-0.2,0.3-0.3,0.4C562.6,36.3,562.3,36.9,562.1,37.4z"/>
	<path class="st0" d="M599.2,93.8c-0.3,0.1-0.6,0.1-0.9,0.1l1.5,2.1c0.3-0.1,0.5-0.1,0.8-0.2c0.4-0.1,0.9-0.3,1.3-0.4c0,0,0,0,0,0
		l-1.3-1.9c-0.1,0-0.1,0-0.2,0C599.9,93.6,599.6,93.7,599.2,93.8z"/>
	<path class="st0" d="M595.2,89.4l0.4-0.9c0.3-0.3,0.6-0.6,1-0.9l-34.4-50.1l-0.1,3.5L595.2,89.4z"/>
	<path class="st0" d="M522.4,46.5c1-0.4,1.7-0.7,1.9-0.8c0.1,0,0.1,0,0.1,0c0,0.4,0.3,1,0.7,1.6l1.4-4.3c-0.5,0.2-1,0.4-1.4,0.9
		c0,0-0.1,0-0.2,0c-0.3,0.1-0.9,0.2-1.8,0.4c-0.1,0-0.2,0.1-0.3,0.1l-0.7,2.2C522.2,46.6,522.3,46.5,522.4,46.5z"/>
	<path class="st0" d="M406.1,156.6l92.2-27.3l25.2-77.4c-1,0.3-2.1,0.7-3.2,1.1c-0.1,0-0.3,0.1-0.4,0.1l-24.2,74.2l-90.4,26.7
		C405.5,155.1,405.7,155.9,406.1,156.6z"/>
	<path class="st0" d="M526.3,49l-0.7,2.2c-0.5,0.2-1.1,0.4-1.7,0.6c-0.1,0-0.2,0.1-0.3,0.1l-25.2,77.4l-92.2,27.3
		c0.1,0.1,0.2,0.3,0.2,0.4c0.4,0.7,1,1.2,1.5,1.7l93-27.5l28.6-87.9c-0.4-0.2-0.8-0.3-1.2-0.4c-0.5-0.1-1-0.1-1.5,0
		c-0.1,0-0.2,0.1-0.3,0.1l-1.4,4.3c0.1,0.1,0.1,0.2,0.2,0.3C525.6,48,525.9,48.5,526.3,49z"/>
	<path class="st0" d="M560.8,41.6c-0.3,0.1-0.5,0.2-0.8,0.2l37.6,54.8c0.1,0,0.3-0.1,0.4-0.1c0.4-0.1,0.8-0.2,1.2-0.3
		c0.2,0,0.3-0.1,0.5-0.1l-1.5-2.1c-0.1,0-0.1,0-0.2,0c-0.4,0.1-0.8,0.1-1.1,0.1c-0.6,0.1-0.9,0.1-1,0.1c0,0,0,0,0,0l-0.5-1l-0.5-1
		l-0.5-1l0.7-1.7L562,41.1l0,0.1C561.6,41.3,561.2,41.4,560.8,41.6z"/>
	<path class="st0" d="M558.5,42.3c-0.2,0.1-0.3,0.1-0.5,0.2l37.4,54.5c0.1,0,0.2,0,0.4,0c0.4,0,0.7-0.1,1.1-0.2
		c0.2,0,0.5-0.1,0.7-0.1L560,41.8c-0.1,0-0.2,0.1-0.4,0.1C559.3,42,558.9,42.1,558.5,42.3z"/>
	<path class="st0" d="M410.1,159.9c-0.1,0.2-0.1,0.4-0.1,0.6l93.3-27.6l28.7-88.2c0,0,0,0,0,0c-0.4-0.3-0.8-0.5-1.2-0.8
		c-0.4-0.2-0.8-0.5-1.2-0.6c0,0-0.1,0-0.1,0l-28.6,87.9l-93,27.5c0.1,0.1,0.2,0.2,0.4,0.3C409.2,159.6,410.1,159.9,410.1,159.9z"/>
	<path class="st0" d="M411.5,162.5l94.3-27.9l28.7-88c-0.1-0.1-0.2-0.2-0.2-0.2c-0.3-0.3-0.7-0.6-1-0.9c-0.3-0.3-0.7-0.5-1-0.8
		l-28.7,88.2L410,160.5c0,0.1,0,0.2,0,0.3C410.1,161.5,410.6,162.1,411.5,162.5z"/>
	<path class="st0" d="M557.5,42.6c-0.1,0-0.3,0.1-0.4,0.1c0,0,0.4,0.6,0.9,1.4c1.1,1.7,2.7,4.5,2.8,5.6L593.2,97c0.2,0,0.4,0,0.6,0
		c0.3,0,0.6,0,1,0c0.2,0,0.4,0,0.6-0.1l-37.4-54.5C557.9,42.5,557.7,42.5,557.5,42.6z"/>
	<path class="st0" d="M414.3,163.5c0.4,0.1,0.7,0.2,1.1,0.2l92.6-27.4L537.1,47c-0.3,0.1-0.6,0.3-0.8,0.4c-0.2,0.2-0.5,0.3-0.6,0.5
		c0,0-0.2-0.2-0.6-0.6c-0.2-0.2-0.4-0.4-0.7-0.7l-28.7,88l-94.3,27.9c0.1,0,0.2,0.1,0.3,0.1C412.4,163,413.3,163.3,414.3,163.5z"/>
	<path class="st0" d="M560.7,50c0,0-0.1,0.7-0.4,1.3c-0.1,0.2-0.2,0.4-0.3,0.5l30.6,44.5c0,0,0,0,0,0c0.2,0.1,0.5,0.2,0.7,0.3
		c0.2,0.1,0.5,0.1,0.8,0.2c0.3,0,0.6,0.1,0.8,0.1c0.1,0,0.2,0,0.3,0l-32.5-47.3C560.7,49.8,560.7,49.9,560.7,50z"/>
	<path class="st0" d="M558.3,52.2c-0.5-0.4-1-1.1-1.6-2.3c0,0-0.4-2.1-1.5-3.9c-0.4-0.8-1-1.5-1.7-2c-0.4-0.3-0.8-0.5-1.2-0.6
		c-0.1,0-0.2,0-0.3,0l35.5,51.7c0.2-0.2,0.5-0.4,0.7-0.5l0.7,0.1c0.1,0.3,0.3,0.6,0.4,0.8c0.2,0.2,0.4,0.4,0.6,0.6
		c0.2,0.1,0.4,0.3,0.6,0.4L560,51.9c-0.1,0.2-0.3,0.4-0.5,0.5C559.1,52.6,558.8,52.6,558.3,52.2z"/>
	<path class="st0" d="M415.4,163.7c0.5,0.1,1.1,0.2,1.6,0.2c0.9,0.1,1.9,0.2,2.9,0.3c0.4,0,0.8,0.1,1.2,0.1l89.2-26.4l30-92
		c-0.4,0.1-0.8,0.2-1.2,0.4c-0.5,0.2-0.9,0.3-1.3,0.5c-0.2,0.1-0.4,0.2-0.6,0.3L508,136.3L415.4,163.7z"/>
	<path class="st0" d="M425.6,164.5c0.8,0,1.6,0,2.4,0l84.4-25l30.8-94.4c-0.2,0-0.3,0.1-0.5,0.1c-0.4,0.1-0.8,0.2-1.2,0.3
		c-0.4,0.1-0.8,0.2-1.2,0.3c0,0,0,0-0.1,0l-30,92l-89.2,26.4c0.6,0,1.1,0.1,1.7,0.1C423.7,164.5,424.7,164.5,425.6,164.5z"/>
	<path class="st0" d="M550.5,43.7c-0.1,0-0.2,0-0.3,0.1c0,0,0,0-0.1,0l36,52.4c0,0,0.1-0.1,0.1-0.1c0.3-0.2,0.7-0.5,1-0.7
		c0.1-0.1,0.2-0.2,0.3-0.2L552,43.5c-0.2,0-0.4,0-0.7,0C551.1,43.5,550.8,43.6,550.5,43.7z"/>
	<path class="st0" d="M431.2,164.5c0.9,0,1.9,0,2.7-0.1c0.7,0,1.4-0.1,2-0.1l78.5-23.2L546,44.5c0,0-0.1,0-0.1,0
		c-0.3,0.1-0.7,0.1-1,0.2c-0.4,0.1-0.7,0.2-1.1,0.2c-0.2,0-0.4,0.1-0.6,0.1l-30.8,94.4l-84.4,25c0.1,0,0.3,0,0.4,0
		C429.4,164.5,430.3,164.5,431.2,164.5z"/>
	<path class="st0" d="M548.8,44c-0.2,0-0.4,0.1-0.5,0.1l31.5,45.8c0.3,0.1,0.5,0.2,0.7,0.3c0.1,0,0.1,0.1,0.1,0.1
		c0.1,0,0.3,0.1,0.4,0.3c0.1,0.1,0.2,0.3,0.3,0.5c0.1,0.1,0.2,0.3,0.3,0.5c0.1,0.2,0.2,0.3,0.3,0.5c0.1,0.2,0.2,0.3,0.2,0.5
		c0.1,0.2,0.1,0.3,0.2,0.5c0.1,0.1,0.1,0.2,0.2,0.4c0.1,0.2,0.2,0.4,0.3,0.7c0.1,0.2,0.2,0.5,0.3,0.7c0,0.1,0.1,0.2,0.1,0.3l1.5,2.2
		c0.2-0.1,0.4-0.3,0.5-0.4c0.3-0.2,0.6-0.4,0.8-0.6l-36-52.4C549.9,43.8,549.5,43.9,548.8,44z"/>
	<path class="st0" d="M583.7,96.1c0.1,0.3,0.2,0.6,0.3,0.8c0.1,0.4,0.2,0.7,0.2,0.7c0.1,0,0.1-0.1,0.2-0.1c0.1-0.1,0.2-0.2,0.4-0.3
		l-1.5-2.2c0.1,0.1,0.1,0.3,0.2,0.4C583.5,95.6,583.6,95.8,583.7,96.1z"/>
	<path class="st0" d="M546.9,44.4c-0.3,0.1-0.6,0.1-0.9,0.2l-31.5,96.5L436,164.3c0.2,0,0.4,0,0.7,0c0.9,0,1.8-0.1,2.6-0.1
		c1-0.1,1.8-0.1,2.6-0.2c1.3-0.1,2.2-0.2,2.5-0.2c0.1,0,0.2,0,0.2,0c0.2,0,0.3,0,0.5-0.1l71.5-21.2l31.3-96.1l29.8,43.4
		c0.3-0.2,0.7-0.2,1.1-0.2c0.3,0,0.6,0.1,0.9,0.2c0,0,0,0,0.1,0l-31.5-45.8c-0.1,0-0.3,0-0.4,0.1C547.6,44.2,547.3,44.3,546.9,44.4z
		"/>
	<path class="st0" d="M449.7,163c0.9-0.1,1.7-0.3,2.6-0.4c0.8-0.2,1.7-0.3,2.5-0.5c0.8-0.2,1.7-0.3,2.5-0.5c0.8-0.2,1.6-0.4,2.5-0.5
		c0.8-0.2,1.6-0.4,2.4-0.6c0.8-0.2,1.6-0.4,2.4-0.6c0.8-0.2,1.5-0.4,2.3-0.6l15.1-4.5c0.1,0,0.2-0.1,0.3-0.1c0.7-0.2,1.4-0.4,2-0.7
		c0.7-0.2,1.3-0.5,2-0.7c0.7-0.2,1.3-0.5,1.9-0.7c0.6-0.2,1.3-0.5,1.9-0.7c0.6-0.2,1.2-0.5,1.9-0.7c0.6-0.2,1.2-0.5,1.8-0.7
		c0.6-0.2,1.2-0.5,1.8-0.7l-0.1,0.1c0.1,0.2,0.4,0.3,0.8,0.4c0.1,0,0.2,0,0.3,0l22.1-6.6L549,50.8l29.3,42.6
		c-0.1-0.1-0.1-0.2-0.1-0.3c-0.1-0.2-0.2-0.4-0.2-0.5c-0.1-0.2-0.2-0.4-0.2-0.6c-0.1-0.2-0.1-0.4-0.2-0.6c-0.1-0.3-0.1-0.5-0.1-0.7
		c0-0.4,0.2-0.6,0.4-0.7l-29.8-43.4l-31.3,96.1l-71.5,21.2c0.6-0.1,1.3-0.2,1.9-0.3C447.9,163.3,448.8,163.2,449.7,163z"/>
	<path class="st0" d="M579.5,95.2c-0.1-0.1-0.2-0.3-0.3-0.4c-0.1-0.2-0.2-0.3-0.3-0.4c-0.1-0.2-0.2-0.3-0.3-0.4
		c-0.1-0.2-0.3-0.3-0.3-0.4l1.4,2.1C579.7,95.5,579.6,95.4,579.5,95.2z"/>
	<path class="st0" d="M518.6,144l-22.1,6.6c0.2,0,0.5,0,0.8,0c0.3,0,0.7,0,1.1,0c0.4,0,0.7-0.1,1.1-0.1c0.4,0,0.8-0.1,1.1-0.2
		c0.4-0.1,0.8-0.1,1.1-0.2c0.4-0.1,0.8-0.1,1.1-0.2c0.4-0.1,0.7-0.1,1.1-0.2c0.4-0.1,0.7-0.1,1.1-0.2c0.4-0.1,0.7-0.2,1.1-0.2
		c0.4-0.1,0.7-0.2,1.1-0.2c0.4-0.1,0.7-0.2,1-0.2c0.4-0.1,0.7-0.2,1-0.2c0.4-0.1,0.8-0.2,1-0.2c0.3-0.1,0.4-0.1,0.4-0.1s0,0.1,0,0.2
		l9.9-2.9L550,55l31,45.1c0-0.1,0-0.2,0-0.3c0-0.4,0-0.8-0.1-1.2c-0.1-0.3-0.1-0.6-0.2-0.8c-0.1-0.2-0.2-0.5-0.3-0.7
		c-0.1-0.2-0.2-0.4-0.3-0.6c-0.1-0.3-0.3-0.5-0.4-0.8c0,0,0,0,0,0l-1.4-2.1c0,0,0,0,0,0c0-0.1-0.1-0.1-0.1-0.1c0,0,0-0.1,0-0.1
		L549,50.8L518.6,144z"/>
	<path class="st0" d="M469.2,158.7c0.8-0.2,1.5-0.4,2.3-0.6c0.7-0.2,1.5-0.4,2.2-0.6c0.7-0.2,1.5-0.4,2.2-0.7
		c0.7-0.2,1.4-0.4,2.1-0.7c0.7-0.2,1.4-0.4,2.1-0.7c0.6-0.2,1.2-0.4,1.8-0.6l-15.1,4.5c0,0,0.1,0,0.1,0
		C467.6,159.1,468.4,158.9,469.2,158.7z"/>
	<path class="st0" d="M510.5,149.6c0,0.2,0,0.4-0.1,0.7l7.7-2.3c1.2-1.1,2.4-2.3,3.5-3.4c0.7-0.7,1.4-1.3,2-1.9L550.9,59l29.2,42.5
		c0,0,0.1-0.1,0.1-0.1c0.3-0.4,0.6-0.9,0.6-1.4L550,55l-29.5,90.5l-9.9,2.9c0,0.1,0,0.2,0,0.4C510.6,149,510.5,149.3,510.5,149.6z"
		/>
	<path class="st0" d="M510.3,151.4c0,0.3-0.1,0.6-0.1,0.8c0,0,0,0,0,0l5.1-1.5c0.8-0.8,1.6-1.6,2.5-2.4c0.1-0.1,0.2-0.2,0.3-0.3
		l-7.7,2.3c0,0.1,0,0.1,0,0.2C510.4,150.8,510.3,151.1,510.3,151.4z"/>
	<path class="st0" d="M523.7,142.7c0.5-0.5,1-1,1.5-1.4c0.6-0.6,1.2-1.1,1.7-1.6l25-76.7l27.1,39.5c0.1-0.1,0.2-0.2,0.2-0.2
		c0.1,0,0.1-0.1,0.2-0.1c0.3-0.2,0.5-0.4,0.8-0.6L550.9,59L523.7,142.7z"/>
	<path class="st0" d="M510,153.8c0,0.1,0,0.2,0,0.3l2.7-0.8c0.2-0.2,0.4-0.4,0.6-0.6c0.6-0.6,1.3-1.3,2.1-2l-5.1,1.5
		c0,0.3-0.1,0.5-0.1,0.8C510.1,153.3,510,153.5,510,153.8z"/>
	<path class="st0" d="M530,136.8l22.8-69.9l25.2,36.7c0.2-0.2,0.4-0.4,0.6-0.5c0.2-0.2,0.4-0.4,0.5-0.5L551.9,63l-25,76.7
		c0.6-0.6,1.1-1.1,1.6-1.5C529.2,137.6,529.7,137.1,530,136.8z"/>
	<path class="st0" d="M509.9,154.6c-0.1,0.4-0.1,0.8-0.2,1.1c0,0.1,0,0.2-0.1,0.3l0.6-0.2c0.1-0.1,0.2-0.2,0.2-0.2
		c0.2-0.2,0.3-0.3,0.5-0.5c0.2-0.2,0.3-0.3,0.5-0.5c0.4-0.4,0.8-0.8,1.2-1.2l-2.7,0.8C509.9,154.3,509.9,154.4,509.9,154.6z"/>
	<path class="st0" d="M530.6,136.4c0.1,0.1,0.2,0.2,0.3,0.2c0.1,0.1,0.2,0.1,0.3,0.1c0.1,0,0.2,0,0.4,0.1c0.1,0,0.3,0,0.4,0
		c0,0,0.1,0,0.2,0l21.6-66.3l23.3,33.9c0.3-0.2,0.5-0.5,0.7-0.7c0.1-0.1,0.2-0.2,0.3-0.3l-25.2-36.7L530,136.8
		c0.3-0.3,0.5-0.5,0.5-0.5C530.5,136.4,530.6,136.4,530.6,136.4z"/>
	<path class="st0" d="M509.2,157.1C509.2,157.1,509.2,157.1,509.2,157.1c0,0,0.1,0,0.1,0c0.1-0.1,0.1-0.2,0.2-0.4
		C509.3,156.9,509.2,157.1,509.2,157.1z"/>
	<path class="st0" d="M532.9,136.7c0.1,0,0.3-0.1,0.5-0.1c0.2,0,0.3-0.1,0.5-0.1c0.2,0,0.3-0.1,0.5-0.1c0,0,0,0,0,0l20.3-62.2
		l21.4,31.1c0,0,0.1-0.1,0.1-0.1c0.3-0.2,0.5-0.5,0.8-0.7c0,0,0.1,0,0.1-0.1l-23.3-33.9l-21.6,66.3c0.1,0,0.2,0,0.3,0
		C532.6,136.8,532.7,136.7,532.9,136.7z"/>
	<path class="st0" d="M509.5,156.6C509.5,156.6,509.5,156.6,509.5,156.6C509.5,156.6,509.5,156.6,509.5,156.6
		c0.2-0.2,0.3-0.3,0.5-0.6c0.1-0.1,0.2-0.2,0.3-0.3l-0.6,0.2c0,0.1,0,0.1,0,0.2C509.6,156.3,509.5,156.5,509.5,156.6z"/>
	<path class="st0" d="M534.3,136.4c0.1,0,0.3-0.1,0.4-0.1c0.2,0,0.3-0.1,0.5-0.1c0.2,0,0.3-0.1,0.5-0.2c0.2-0.1,0.3-0.1,0.5-0.2
		c0.1,0,0.3-0.1,0.4-0.1l1.6-5l-0.1,0c0,0-0.1,0-0.1-0.1c0,0,0.1,0,0.1-0.1c0,0,0.1,0,0.1-0.1l17.2-52.8l19.6,28.5
		c0.1-0.1,0.3-0.2,0.4-0.3c0.2-0.2,0.4-0.4,0.6-0.5l-21.4-31.1L534.3,136.4z"/>
	<path class="st0" d="M538.7,130.2c0.1-0.1,0.2-0.1,0.3-0.2c0.1-0.1,0.2-0.1,0.3-0.2c0.1-0.1,0.2-0.1,0.3-0.2
		c0.1-0.1,0.2-0.1,0.3-0.2c0.1-0.1,0.2-0.1,0.3-0.2c0.1-0.1,0.2-0.1,0.3-0.2l15.6-48l17.8,25.9c0.2-0.2,0.4-0.3,0.6-0.5
		c0.1-0.1,0.2-0.2,0.3-0.3l-19.6-28.5l-17.2,52.8c0.1,0,0.1-0.1,0.2-0.1C538.5,130.3,538.6,130.3,538.7,130.2z"/>
	<path class="st0" d="M537,135.5c0.1-0.1,0.3-0.1,0.4-0.2c0.1-0.1,0.3-0.1,0.4-0.2c0.1,0,0.2-0.1,0.3-0.1c0.1,0,0.1-0.1,0.2-0.1
		c0.1,0,0.1-0.1,0.2-0.1c0,0,0.1,0,0.1,0l1.4-4.4l-2,0.3l-1.6,5c0,0,0,0,0.1,0C536.7,135.6,536.9,135.5,537,135.5z"/>
	<path class="st0" d="M539,134.7c0.1,0,0.1-0.1,0.2-0.1c0.1,0,0.1-0.1,0.2-0.1c0.1,0,0.1-0.1,0.2-0.1c0.1,0,0.1,0,0.2-0.1
		c0.1,0,0.1,0,0.2-0.1c0.1,0,0.1,0,0.2-0.1c0.1,0,0.1,0,0.2-0.1c0.1,0,0.1,0,0.2-0.1c0,0,0.1,0,0.1-0.1c0,0,0.1,0,0.1-0.1
		c0,0,0.1,0,0.1-0.1c0,0,0.1,0,0.1,0l1.3-4c-0.2,0.1-0.4,0.1-0.6,0.2c-0.3,0.1-0.6,0.2-0.8,0.2l-0.6,0.1l-1.4,4.4c0,0,0.1,0,0.1,0
		C538.9,134.7,538.9,134.7,539,134.7z"/>
	<path class="st0" d="M540.6,129C540.6,129,540.7,129,540.6,129l0.4-0.1l0-0.1c0,0,0.1-0.1,0.1-0.1c0,0,0.1-0.1,0.1-0.1
		c0,0,0.1-0.1,0.1-0.1c0,0,0.1-0.1,0.1-0.1c0,0,0.1,0,0.1-0.1c0,0,0.1,0,0.1-0.1c0,0,0.1,0,0.1-0.1c0,0,0.1,0,0.1-0.1
		c0,0,0.1,0,0.1-0.1c0,0,0.1,0,0.1-0.1c0,0,0.1,0,0.1-0.1c0,0,0.1,0,0.1-0.1c0,0,0.1,0,0.1-0.1c0,0,0.1,0,0.1-0.1c0,0,0.1,0,0.1-0.1
		c0,0,0.1,0,0.1-0.1c0,0,0.1,0,0.1-0.1c0,0,0.1,0,0.1,0c0,0,0,0,0.1,0c0,0,0,0,0.1,0c0,0,0,0,0.1,0L557,84.3l16.1,23.4
		c0.1-0.1,0.1-0.1,0.2-0.2c0.2-0.2,0.4-0.4,0.7-0.5c0,0,0.1,0,0.1-0.1L556.2,81L540.6,129z"/>
	<path class="st0" d="M541,133.8c0,0,0.1,0,0.1-0.1c0,0,0.1,0,0.1-0.1c0,0,0.1,0,0.1-0.1c0,0,0.1,0,0.1-0.1c0,0,0.1,0,0.1,0
		c0,0,0.1,0,0.1,0c0,0,0.1,0,0.1,0c0,0,0.1,0,0.1,0c0,0,0.1,0,0.1,0c0,0,0.1,0,0.1,0c0,0,0.1,0,0.1,0c0,0,0.1,0,0.1,0
		c0,0,0.1,0,0.1,0c0,0,0.1,0,0.1,0c0,0,0.1,0,0.1,0c0,0,0.1,0,0.1,0c0,0,0,0,0.1,0c0,0,0,0,0.1,0c0,0,0,0,0.1,0
		c0.1,0,0.1-0.1,0.2-0.1l1.2-3.7c0,0,0,0,0,0c0,0,0,0-0.1,0c0,0,0,0-0.1,0c0,0,0,0-0.1,0c0,0,0,0-0.1,0c0,0,0,0-0.1,0c0,0,0,0-0.1,0
		c0,0,0,0-0.1,0c0,0-0.1,0-0.1,0c0,0-0.1,0-0.1,0c0,0-0.1,0-0.1,0c0,0-0.1,0-0.1,0c0,0-0.1,0-0.1,0c0,0-0.1,0-0.1,0c0,0-0.1,0-0.1,0
		c0,0-0.1,0-0.1,0c0,0-0.1,0-0.1,0c0,0-0.1,0-0.1,0c0,0-0.1,0-0.1,0c0,0-0.1,0-0.1,0c0,0-0.1,0-0.1,0c0,0-0.1,0-0.1,0c0,0,0,0-0.1,0
		c0,0-0.1,0-0.1,0l-1.3,4c0,0,0,0,0,0C541,133.8,541,133.8,541,133.8z"/>
	<path class="st0" d="M543.1,127.5C543.1,127.4,543.1,127.4,543.1,127.5c0.1-0.1,0.1-0.1,0.1-0.1c0,0,0,0,0.1,0c0,0,0,0,0.1,0
		c0,0,0.1,0,0.1,0c0,0,0.1,0,0.1-0.1c0,0,0.1,0,0.1-0.1c0,0,0.1,0,0.1-0.1c0,0,0.1,0,0.1-0.1c0,0,0.1,0,0.1-0.1c0,0,0.1,0,0.1-0.1
		c0,0,0.1,0,0.1-0.1c0,0,0.1,0,0.1-0.1c0,0,0.1,0,0.1-0.1c0,0,0.1,0,0.1-0.1c0,0,0.1,0,0.1-0.1c0,0,0.1,0,0.1-0.1c0,0,0.1,0,0.1-0.1
		c0,0,0.1-0.1,0.1-0.1c0,0,0.1-0.1,0.1-0.1c0,0,0.1-0.1,0.1-0.1c0,0,0.1-0.1,0.1-0.1c0,0,0.1-0.1,0.1-0.1l12.5-38.5l14.4,20.9
		c0.2-0.1,0.3-0.3,0.5-0.4c0.1-0.1,0.3-0.2,0.4-0.3L557,84.3L543.1,127.5C543,127.5,543,127.5,543.1,127.5
		C543,127.5,543,127.5,543.1,127.5z"/>
	<path class="st0" d="M545.1,131.9l1.1-3.5c0,0,0,0-0.1,0c0,0-0.1,0-0.1,0c0,0-0.1,0-0.1,0c0,0-0.1,0-0.1,0c0,0-0.1,0-0.1,0
		c0,0-0.1,0-0.1,0c0,0-0.1,0-0.1,0c0,0-0.1,0-0.1,0c0,0-0.1,0-0.1,0c0,0-0.1,0-0.1,0c0,0-0.1,0-0.1,0c0,0-0.1,0-0.1,0
		c-0.2,0.1-0.5,0.2-0.8,0.3c0,0,0,0-0.1,0c0,0,0,0,0,0l-1.2,3.7C543.8,132.6,544.5,132.2,545.1,131.9z"/>
	<path class="st0" d="M545.4,125.9c0,0,0.1-0.1,0.1-0.1c0,0,0.1-0.1,0.1-0.1l0.1,0.1l0.1-0.2c0.1,0,0.1-0.1,0.2-0.1
		c0.1,0,0.1-0.1,0.2-0.1c0.1,0,0.1-0.1,0.2-0.1c0.1,0,0.1-0.1,0.2-0.1c0.1,0,0.1-0.1,0.2-0.1c0.1,0,0.1-0.1,0.2-0.1
		c0.1,0,0.1-0.1,0.2-0.1c0.1,0,0.1-0.1,0.2-0.1c0.1,0,0.1-0.1,0.2-0.1c0,0,0,0,0.1,0l11.1-34l12.7,18.5c0.1-0.1,0.1-0.1,0.2-0.2
		c0.2-0.1,0.4-0.3,0.6-0.4c0,0,0.1-0.1,0.1-0.1l-14.4-20.9L545.3,126c0,0,0,0,0,0C545.3,126,545.4,126,545.4,125.9z"/>
	<path class="st0" d="M547.1,130.9l1-2.9c0,0-0.1,0-0.1,0c0,0,0,0-0.1,0c0,0,0,0-0.1,0c0,0-0.1,0-0.1,0c0,0-0.1,0-0.1,0
		c0,0-0.1,0-0.1,0c0,0-0.1,0-0.1,0c0,0-0.1,0-0.1,0c0,0-0.1,0-0.1,0c0,0,0,0,0,0c0,0,0,0-0.1,0c0,0-0.1,0-0.1,0c0,0-0.1,0-0.1,0
		c0,0-0.1,0-0.1,0c0,0-0.1,0-0.1,0c0,0-0.1,0-0.1,0c-0.1,0-0.1,0-0.2,0.1c0,0-0.1,0-0.1,0c0,0-0.1,0-0.1,0c0,0,0,0,0,0l-1.1,3.5
		C545.9,131.5,546.6,131.2,547.1,130.9z"/>
	<path class="st0" d="M547.7,124.5c0,0,0.1-0.1,0.1-0.1c0,0,0.1-0.1,0.1-0.1c0,0,0.1-0.1,0.1-0.1c0,0,0.1-0.1,0.1-0.1
		c0,0,0.1-0.1,0.1-0.1c0,0,0.1-0.1,0.1-0.1c0,0,0,0,0,0c0,0,0.1,0,0.1-0.1c0,0,0.1,0,0.1-0.1c0,0,0.1,0,0.1-0.1c0,0,0.1,0,0.1-0.1
		c0,0,0.1,0,0.1-0.1c0,0,0.1,0,0.1-0.1c0,0,0.1,0,0.1-0.1c0,0,0.1,0,0.1-0.1c0,0,0.1,0,0.1-0.1c0,0,0.1,0,0.1-0.1c0,0,0.1,0,0.1-0.1
		c0,0,0.1,0,0.1-0.1l9.6-29.6l11.1,16.1c0,0,0,0,0,0c0.2-0.1,0.4-0.2,0.5-0.4c0.1-0.1,0.2-0.2,0.3-0.2l-12.7-18.5l-11.1,34
		c0,0,0.1,0,0.1-0.1C547.6,124.5,547.7,124.5,547.7,124.5z"/>
	<path class="st0" d="M549.1,130l0.8-2.5c0,0,0,0,0,0c0,0-0.1,0-0.1,0c0,0-0.1,0-0.1,0c0,0-0.1,0-0.1,0c0,0-0.1,0-0.1,0
		c0,0-0.1,0-0.1,0c0,0-0.1,0-0.1,0c0,0-0.1,0-0.1,0c0,0-0.1,0-0.1,0c0,0-0.1,0-0.1,0c0,0,0,0-0.1,0c0,0,0,0-0.1,0c0,0,0,0-0.1,0
		c-0.3,0.1-0.5,0.1-0.8,0.1l-1,2.9c0.9-0.5,1.5-0.8,1.5-0.8C548.8,130.1,548.9,130.1,549.1,130z"/>
	<path class="st0" d="M549.6,123.2C549.7,123.2,549.7,123.2,549.6,123.2c0.1,0,0.1-0.1,0.1-0.1c0,0,0.1-0.1,0.1-0.1
		c0,0,0.1-0.1,0.1-0.1c0,0,0.1-0.1,0.1-0.1c0,0,0.1-0.1,0.1-0.1c0,0,0.1-0.1,0.1-0.1c0,0,0.1-0.1,0.1-0.1c0,0,0.1-0.1,0.1-0.1
		c0.1,0,0.1-0.1,0.2-0.1c0.1,0,0.1-0.1,0.2-0.1c0.1,0,0.1-0.1,0.2-0.1c0.1,0,0.1-0.1,0.2-0.1c0.1,0,0.1-0.1,0.2-0.1
		c0.1,0,0.1-0.1,0.2-0.1c0,0,0,0,0,0l8.2-25.3l9.5,13.8c0.1-0.1,0.3-0.2,0.4-0.3c0.2-0.1,0.3-0.2,0.5-0.3l-11.1-16.1L549.6,123.2z"
		/>
	<path class="st0" d="M552.1,121.6c0.1,0,0.1-0.1,0.2-0.1c0.1,0,0.1-0.1,0.2-0.1c0.1,0,0.1-0.1,0.2-0.1c0.1,0,0.1-0.1,0.2-0.1
		c0.1,0,0.1-0.1,0.2-0.1c0.2-0.1,0.4-0.3,0.6-0.4l6.9-21.1l7.9,11.5c0.1-0.1,0.3-0.1,0.4-0.2c0.1-0.1,0.3-0.2,0.5-0.3c0,0,0,0,0,0
		L560,96.6l-8.2,25.3c0.1,0,0.1-0.1,0.2-0.1C552,121.7,552,121.6,552.1,121.6z"/>
	<path class="st0" d="M549.6,130.2l1-0.6c0.1,0,0.1,0,0.2-0.1l0.8-2.6c-0.1,0-0.1,0-0.2,0.1c-0.2,0.1-0.4,0.1-0.6,0.2
		c-0.1,0-0.2,0.1-0.2,0.1c0,0-0.1,0-0.1,0c0,0-0.1,0-0.1,0c0,0-0.1,0-0.1,0c0,0-0.1,0-0.1,0c0,0-0.1,0-0.1,0c0,0-0.1,0-0.1,0
		c0,0-0.1,0-0.1,0c0,0,0,0-0.1,0l-0.8,2.5c0.2,0,0.3-0.1,0.5-0.1L549.6,130.2z"/>
	<path class="st0" d="M552.6,129l0.9-2.8c0,0,0,0,0,0c-0.2,0.1-0.5,0.2-0.7,0.3c-0.2,0.1-0.4,0.2-0.6,0.3c-0.1,0.1-0.3,0.1-0.4,0.2
		l-0.8,2.6C551.4,129.4,552,129.2,552.6,129z"/>
	<path class="st0" d="M561.3,102.1l6.3,9.1c0.1,0,0.1,0,0.2,0c0.1,0,0.2-0.1,0.4-0.1c0.1-0.1,0.3-0.1,0.4-0.2c0,0,0,0,0,0l-7.9-11.5
		l-6.9,21.1c0.7-0.5,1.4-0.9,2-1.3L561.3,102.1z"/>
	<path class="st0" d="M552.7,128.9C552.7,128.9,552.8,128.9,552.7,128.9c0.1,0,0.2-0.1,0.2-0.1c0,0,0.1,0,0.1,0c0,0,0.1,0,0.1,0
		c0,0,0.1,0,0.1,0c0,0,0.1,0,0.1,0c0,0,0.1,0,0.1,0c0,0,0.1,0,0.1,0c0,0,0.1,0,0.1,0c0,0,0.1,0,0.1-0.1c0,0,0.1,0,0.1-0.1
		c0,0,0.1,0,0.1-0.1c0,0,0.1,0,0.1-0.1c0,0,0.1,0,0.1-0.1c0,0,0,0,0,0l1-3l-0.4,0.2c-0.3,0.1-0.5,0.2-0.8,0.4
		c-0.2,0.1-0.4,0.2-0.7,0.3l-0.9,2.8C552.6,129,552.6,128.9,552.7,128.9C552.7,128.9,552.7,128.9,552.7,128.9z"/>
	<path class="st0" d="M562,104.8l5.3,7.7c0,0,0-0.1,0-0.1c0-0.2-0.1-0.4-0.1-0.5c-0.1-0.3-0.1-0.5-0.1-0.5c0.1,0,0.2,0,0.3,0
		c0.1,0,0.1,0,0.2-0.1l-6.3-9.1l-5.6,17.1c0.7-0.5,1.3-0.9,1.9-1.3L562,104.8z"/>
	<path class="st0" d="M557.7,118c0.8-0.5,1.4-0.9,1.9-1.2l3.1-9.4l4.9,7.1c0,0,0-0.1,0-0.1c0-0.2,0-0.5-0.1-0.7c0-0.2,0-0.4-0.1-0.6
		c0-0.2,0-0.3-0.1-0.5l-5.3-7.7L557.7,118z"/>
	<path class="st0" d="M554.5,128.2c0,0,0.1,0,0.1-0.1c0,0,0.1,0,0.2-0.1c0.1,0,0.1,0,0.2-0.1c0.1,0,0.1-0.1,0.2-0.1
		c0.1,0,0.1-0.1,0.2-0.1c0.1,0,0.1-0.1,0.2-0.1c0.1,0,0.1-0.1,0.2-0.1c0.1,0,0.1-0.1,0.2-0.1c0,0,0.1,0,0.1-0.1l1-3c0,0,0,0,0,0
		c-0.1,0-0.1,0.1-0.2,0.1c-0.1,0-0.1,0.1-0.2,0.1c-0.1,0-0.1,0.1-0.2,0.1c-0.1,0-0.1,0.1-0.2,0.1c-0.1,0-0.1,0.1-0.2,0.1
		c-0.1,0-0.1,0.1-0.2,0.1c-0.1,0-0.1,0-0.2,0.1c0,0-0.1,0-0.1,0.1c0,0-0.1,0-0.1,0.1c0,0-0.1,0-0.1,0.1l0-0.1l-0.1,0.1l-1,3
		c0,0,0.1,0,0.1,0C554.4,128.2,554.5,128.2,554.5,128.2z"/>
	<path class="st0" d="M560.2,116.6c0,0.1,0,0.2,0.1,0.3c0,0.1,0,0.2,0.1,0.2c0,0.1,0,0.2,0.1,0.2c0,0.1,0,0.2,0.1,0.2
		c0,0.1,0,0.1,0.1,0.2c0,0.1,0,0.1,0.1,0.2c0,0,0,0,0,0l2.7-8.2l4.3,6.2c0-0.1,0-0.1,0-0.2c0-0.3,0-0.6,0-0.8c0-0.2,0-0.4,0-0.6
		l-4.9-7.1l-3.1,9.4c0.4-0.3,0.6-0.4,0.6-0.4S560.2,116.4,560.2,116.6z"/>
	<path class="st0" d="M556.3,127.4c0.1,0,0.1-0.1,0.2-0.1c0.1,0,0.1-0.1,0.2-0.1c0.1,0,0.2-0.1,0.2-0.1c0.1,0,0.2-0.1,0.2-0.1
		c0.1,0,0.2-0.1,0.2-0.1c0.1,0,0.2-0.1,0.3-0.1c0,0,0,0,0.1,0l1-3c-0.1,0-0.2,0.1-0.2,0.1c-0.1,0-0.2,0.1-0.2,0.1
		c-0.1,0-0.1,0.1-0.2,0.1c-0.1,0-0.1,0.1-0.2,0.1c-0.1,0-0.1,0.1-0.2,0.1c-0.1,0-0.1,0.1-0.2,0.1c-0.1,0-0.1,0.1-0.2,0.1
		c-0.1,0-0.1,0.1-0.2,0.1l-1,3c0,0,0,0,0.1,0C556.2,127.4,556.2,127.4,556.3,127.4z"/>
	<path class="st0" d="M560.6,118.4c0,0.1,0,0.1,0.1,0.2c0,0.1,0,0.1,0.1,0.2c0,0.1,0,0.2,0.1,0.2c0,0.1,0.1,0.2,0.1,0.3
		c0,0.1,0.1,0.2,0.1,0.3c0,0.1,0.1,0.2,0.1,0.3c0,0.1,0.1,0.2,0.1,0.3c0,0,0,0,0,0.1l2.6-7.9l3.6,5.2c0-0.2,0.1-0.4,0.1-0.6
		c0-0.3,0-0.5,0-0.8l-4.3-6.2l-2.7,8.2c0,0.1,0,0.1,0,0.2C560.6,118.2,560.6,118.3,560.6,118.4z"/>
	<path class="st0" d="M557.9,126.5c0.1-0.1,0.2-0.1,0.3-0.2c0.1-0.1,0.2-0.1,0.3-0.2c0.1-0.1,0.2-0.1,0.3-0.2
		c0.1-0.1,0.2-0.1,0.3-0.2c0.1-0.1,0.2-0.1,0.3-0.2c0,0,0,0,0.1,0l0.9-2.9c0,0,0,0-0.1,0c-0.1,0.1-0.2,0.1-0.3,0.2
		c-0.1,0.1-0.2,0.1-0.3,0.2c-0.1,0-0.2,0.1-0.3,0.1c-0.1,0-0.2,0.1-0.3,0.1c-0.1,0-0.2,0.1-0.3,0.1c-0.1,0-0.2,0.1-0.2,0.1
		c0,0,0,0,0,0l-1,3C557.8,126.6,557.9,126.5,557.9,126.5z"/>
	<path class="st0" d="M560,125.2c0.1-0.1,0.2-0.2,0.3-0.2c0.1-0.1,0.2-0.2,0.4-0.2c0.1-0.1,0.3-0.2,0.4-0.3c0,0,0,0,0,0l3.2-9.8
		l2.8,4.1c0-0.2,0.1-0.4,0.1-0.6c0-0.2,0-0.4,0.1-0.6l-3.6-5.2l-2.6,7.9c0,0.1,0.1,0.1,0.1,0.2c0,0.1,0.1,0.2,0.1,0.3
		c0,0.1,0.1,0.2,0.1,0.3c0,0.1,0.1,0.2,0.1,0.3c0.1,0.1,0.1,0.2,0.2,0.2c0.1,0.1,0.1,0.2,0.2,0.2l-0.1,0.2c-0.1,0-0.2,0.1-0.3,0.2
		c-0.1,0.1-0.2,0.1-0.3,0.2c-0.1,0.1-0.2,0.1-0.3,0.2c-0.1,0.1-0.2,0.1-0.3,0.2c-0.1,0-0.2,0.1-0.2,0.1l-0.9,2.9
		c0.1-0.1,0.2-0.1,0.3-0.2C559.8,125.4,559.9,125.3,560,125.2z"/>
	<path class="st0" d="M561.1,124.5c0.1-0.1,0.3-0.2,0.4-0.3c0.1-0.1,0.3-0.2,0.4-0.3c0.2-0.1,0.3-0.2,0.4-0.3
		c0.2-0.1,0.3-0.2,0.5-0.4c0,0,0,0,0,0l2-6.3l2,2.9c0.1-0.3,0.2-0.7,0.3-1l-2.8-4.1L561.1,124.5z"/>
	<path class="st0" d="M563.8,122.4c0.1-0.1,0.1-0.1,0.1-0.1c0.1,0,0.2,0,0.3,0c0.1,0,0.2,0,0.2-0.1l1-3.1l1,1.5
		c0.2-0.3,0.3-0.5,0.4-0.8l-2-2.9l-2,6.3c0.2-0.1,0.3-0.3,0.4-0.4C563.5,122.6,563.7,122.5,563.8,122.4z"/>
	<path class="st0" d="M564.4,122.2c0,0,0.1,0,0.1,0c0.1,0,0.3-0.1,0.4-0.1c0.2-0.1,0.3-0.2,0.5-0.3c0.2-0.1,0.3-0.2,0.5-0.4l0-0.1
		l0,0c0,0,0.1-0.1,0.1-0.1c0.2-0.2,0.3-0.4,0.4-0.6l-1-1.5L564.4,122.2z"/>
	<path class="st0" d="M565.9,121.3L565.9,121.3C565.9,121.4,565.9,121.3,565.9,121.3L565.9,121.3z"/>
</g>
</svg>
