<?xml version="1.0" encoding="utf-8"?>
<!-- Generator: Adobe Illustrator 22.0.1, SVG Export Plug-In . SVG Version: 6.00 Build 0)  -->
<svg version="1.1" id="レイヤー_1" xmlns="http://www.w3.org/2000/svg" xmlns:xlink="http://www.w3.org/1999/xlink" x="0px"
	 y="0px" viewBox="0 0 640 640" style="enable-background:new 0 0 640 640;" xml:space="preserve">
<style type="text/css">
	.st0{fill:none;stroke:#FFFFFF;stroke-width:0.1193;stroke-miterlimit:10;}
</style>
<g>
	<path class="st0" d="M404.2,553.1c-0.1-0.1-0.2-0.1-0.2-0.2l0.9,1l0.3-0.4C404.8,553.4,404.4,553.2,404.2,553.1z"/>
	<path class="st0" d="M406.2,555.1c0,0,0.1,0.4,0.4,0.6c0.1,0.1,0.1,0.1,0.2,0.2l1-1.2c-0.3-0.1-0.7-0.3-1-0.4
		c-0.1,0-0.2-0.1-0.3-0.1l-0.8,0.9C405.9,555.1,406.1,555.1,406.2,555.1z"/>
	<path class="st0" d="M418.6,544.1c-0.1,0.1-0.3,0.2-0.4,0.2c-0.1,0.1-0.3,0.2-0.4,0.3c-0.1,0.1-0.3,0.2-0.4,0.3
		c-0.1,0.1-0.3,0.2-0.4,0.3c-0.1,0.1-0.3,0.2-0.4,0.4c-0.1,0.1-0.2,0.3-0.3,0.4c-0.1,0.2-0.2,0.3-0.3,0.5c-0.1,0.2-0.1,0.4-0.2,0.7
		c0,0.1,0,0.2,0,0.3l3.2-3.6C418.9,544,418.8,544,418.6,544.1z"/>
	<path class="st0" d="M407.5,555.9c0,0,0.1,0.1,0.2,0.2c0.1,0.1,0.2,0.2,0.3,0.3l1.1-1.2c-0.4-0.2-0.9-0.3-1.3-0.5l-1,1.2
		C407,556,407.3,556,407.5,555.9z"/>
	<path class="st0" d="M416.3,549l7.6-8.7c-0.4,0-0.8,0.1-1.2,0.3c-0.2,0.1-0.4,0.2-0.6,0.4c-0.2,0.1-0.3,0.2-0.5,0.4
		c-0.1,0.1-0.3,0.2-0.4,0.4c-0.1,0.1-0.2,0.2-0.3,0.4c-0.1,0.1-0.2,0.2-0.3,0.4c-0.1,0.1-0.2,0.2-0.2,0.3c-0.1,0.1-0.2,0.2-0.2,0.3
		c-0.1,0.1-0.2,0.3-0.2,0.4c-0.1,0.1-0.1,0.2-0.1,0.2s-0.1,0-0.3,0.1c-0.1,0-0.3,0.1-0.4,0.2c0,0,0,0,0,0l-3.2,3.6
		c0,0.2,0,0.4,0.1,0.6C416,548.4,416.1,548.7,416.3,549z"/>
	<path class="st0" d="M450.5,600.9c0.2,0.2,0.4,0.4,0.6,0.6c0.4,0.3,0.7,0.6,1.1,0.9c0.3,0.3,0.7,0.6,1,0.9c0.3,0.3,0.7,0.5,1,0.8
		c0.2,0.2,0.4,0.3,0.6,0.5l-2.1-3.5L450.5,600.9z"/>
	<path class="st0" d="M408.5,556.7c0.3,0.2,0.7,0.2,0.9-0.2c0,0,0,0.1,0.1,0.2l0.9-1c-0.1,0-0.1,0-0.2-0.1c-0.3-0.1-0.7-0.3-1.1-0.4
		c0,0,0,0,0,0l-1.1,1.2C408.2,556.5,408.3,556.6,408.5,556.7z"/>
	<path class="st0" d="M409.7,557c0.2,0.2,0.4,0.4,0.7,0.5l1.1-1.3c-0.1,0-0.2-0.1-0.4-0.1c-0.3-0.1-0.6-0.2-0.8-0.3l-0.9,1
		C409.6,556.8,409.6,556.9,409.7,557z"/>
	<path class="st0" d="M417,550l8.2-9.3c-0.3-0.1-0.5-0.3-0.8-0.3l-0.4-0.1c0,0-0.1,0-0.1,0l-7.6,8.7
		C416.5,549.3,416.7,549.6,417,550z"/>
	<path class="st0" d="M456.1,605.6c0.3,0.2,0.6,0.4,0.9,0.7c0.3,0.2,0.6,0.4,0.8,0.6c0.1,0,0.1,0.1,0.2,0.1l-4.6-7.7l-5.1-0.3
		c0.1,0.1,0.3,0.3,0.4,0.4c0.4,0.4,0.8,0.7,1.2,1.1c0.2,0.2,0.3,0.3,0.5,0.4l2.3,0.1l2.1,3.5c0.1,0.1,0.2,0.2,0.4,0.3
		C455.5,605.1,455.8,605.4,456.1,605.6z"/>
	<path class="st0" d="M441.2,598.2C441.2,598.2,441.2,598.2,441.2,598.2C441.2,598.2,441.2,598.2,441.2,598.2c0-0.1,0-0.1,0-0.2
		C441.2,598.1,441.2,598.2,441.2,598.2z"/>
	<path class="st0" d="M445.6,597.3c0.4,0.2,0.7,0.4,0.9,0.5l-0.3-0.7l-1.2-0.1C445.3,597.1,445.4,597.2,445.6,597.3z"/>
	<path class="st0" d="M412,557.2l0.2,0l0.5-0.6c-0.2-0.1-0.3-0.1-0.5-0.2c-0.2-0.1-0.4-0.2-0.6-0.3l-1.1,1.3c0,0,0,0,0.1,0
		C410.9,557.6,411.4,557.6,412,557.2z"/>
	<path class="st0" d="M426.1,541.4c-0.1-0.2-0.3-0.3-0.4-0.4c-0.2-0.1-0.3-0.2-0.5-0.3L417,550c0.2,0.3,0.5,0.5,0.9,0.8L426.1,541.4
		z"/>
	<path class="st0" d="M458,607c0.2,0.1,0.4,0.3,0.6,0.4c0.3,0.2,0.5,0.4,0.8,0.5c0.2,0.2,0.5,0.3,0.7,0.5c0.2,0.2,0.5,0.3,0.7,0.5
		l-6.8-11.3l-7.7-0.5c0.4,0.4,0.7,0.7,1.1,1.1c0.3,0.3,0.6,0.5,0.8,0.8l5.1,0.3L458,607z"/>
	<path class="st0" d="M440.8,597c0.1,0.2,0.2,0.4,0.2,0.6c0.1,0.2,0.1,0.3,0.2,0.5c0-0.2,0.1-0.4,0.1-0.7c0-0.2,0.1-0.4,0.1-0.6
		l-0.8,0C440.7,596.8,440.8,596.9,440.8,597z"/>
	<path class="st0" d="M413.5,557.5l0.9-1c-0.2-0.1-0.4-0.1-0.5,0c0-0.1,0-0.1,0-0.2l-0.7,0.4c-0.1-0.1-0.3-0.1-0.4-0.2l-0.5,0.6
		l0.2,0L413.5,557.5z"/>
	<path class="st0" d="M461.4,609.3c0.1,0.1,0.3,0.2,0.4,0.3c0.1,0.1,0.3,0.2,0.4,0.3c0.1,0.1,0.3,0.2,0.4,0.3c0.1,0,0.1,0.1,0.2,0.1
		c0,0,0.1,0.1,0.3,0.1c0.1,0,0.2,0.1,0.3,0.1l-8.7-14.5l-12.4-0.8c0.1,0.1,0.3,0.2,0.4,0.3c0.2,0.1,0.3,0.2,0.5,0.4
		c0.2,0.1,0.3,0.2,0.5,0.4c0.2,0.1,0.4,0.2,0.5,0.4c0.2,0.1,0.4,0.3,0.6,0.4c0,0,0.1,0,0.1,0.1l1.2,0.1l-0.1-0.2
		c0.1,0.1,0.1,0.1,0.2,0.2l7.7,0.5l6.8,11.3c0.1,0,0.1,0.1,0.2,0.1C461.2,609.2,461.3,609.2,461.4,609.3z"/>
	<path class="st0" d="M441.8,595.6c0-0.2,0.1-0.3,0.1-0.4l-2-0.1c0.1,0.1,0.1,0.3,0.2,0.4c0.1,0.2,0.1,0.3,0.2,0.5
		c0.1,0.2,0.1,0.4,0.2,0.5c0,0.1,0.1,0.2,0.1,0.3l0.8,0c0-0.1,0.1-0.2,0.1-0.4C441.6,596.1,441.7,595.8,441.8,595.6z"/>
	<path class="st0" d="M426.9,542.3c-0.1-0.1-0.1-0.2-0.2-0.3c-0.1-0.2-0.3-0.3-0.4-0.5c0,0-0.1-0.1-0.1-0.1l-8.2,9.4
		c0.3,0.2,0.6,0.5,0.9,0.7L426.9,542.3z"/>
	<path class="st0" d="M413.9,557.6l-0.1,0.7l0,0.4l0.1,0l1.3-1.5c-0.1-0.2-0.3-0.3-0.5-0.5c-0.1-0.1-0.2-0.2-0.4-0.3l-0.9,1l0.1,0
		L413.9,557.6z"/>
	<path class="st0" d="M464.1,610.8c0.2,0.1,0.3,0.2,0.5,0.2c0.2,0.1,0.3,0.2,0.5,0.3c0.2,0.1,0.3,0.2,0.5,0.3c0,0,0,0,0,0
		l-10.3-17.2l-16.2-1c0,0.1,0.1,0.2,0.1,0.2c0.1,0.1,0.1,0.3,0.2,0.4c0.1,0.2,0.1,0.3,0.2,0.5c0.1,0.2,0.1,0.3,0.2,0.5
		c0,0,0,0,0,0.1l2,0.1c0.1-0.2,0.1-0.3,0.1-0.3s0.1,0.1,0.3,0.3c0,0,0,0,0,0l12.4,0.8l8.7,14.5c0.1,0,0.1,0.1,0.2,0.1
		C463.8,610.7,463.9,610.7,464.1,610.8z"/>
	<path class="st0" d="M418.9,551.5c0,0,0,0.1,0,0.3c0,0.2,0,0.5,0,0.9c0,0.1,0,0.3,0,0.4l8.6-9.8c-0.1-0.1-0.1-0.3-0.2-0.4
		c-0.1-0.2-0.2-0.3-0.3-0.5c0-0.1-0.1-0.1-0.1-0.2L418.9,551.5C418.8,551.5,418.9,551.5,418.9,551.5z"/>
	<path class="st0" d="M419,554.6l9.3-10.6c-0.4-0.1-0.6-0.1-0.6-0.1c0,0,0-0.1,0-0.1c-0.1-0.1-0.1-0.3-0.2-0.4c0,0,0,0,0-0.1
		l-8.6,9.8c0,0.2,0,0.4,0,0.6C418.9,554,419,554.3,419,554.6z"/>
	<path class="st0" d="M466.8,612.1c0.2,0.1,0.4,0.2,0.6,0.3c0.2,0.1,0.3,0.1,0.5,0.2L456,592.8l-17.5-1.1c0,0.1,0.1,0.1,0.1,0.2
		c0.1,0.1,0.1,0.3,0.2,0.4c0.1,0.1,0.1,0.3,0.2,0.4c0.1,0.1,0.1,0.3,0.2,0.4c0,0.1,0.1,0.1,0.1,0.2l16.2,1l10.3,17.2
		c0.2,0.1,0.3,0.2,0.5,0.2C466.4,611.9,466.6,612,466.8,612.1z"/>
	<path class="st0" d="M414.2,559.1l0.5,0.4l1.1-1.3c0,0,0-0.1,0-0.1c0,0,0,0-0.1-0.1c-0.1-0.1-0.3-0.4-0.5-0.6c0,0-0.1-0.1-0.1-0.1
		l-1.3,1.5L414.2,559.1L414.2,559.1z"/>
	<path class="st0" d="M434.4,538L434.4,538c0,0,0.1-0.1,0.1-0.1l-1.8-7.1l-0.1,0l0,0l-0.8-0.9l-0.4-0.5c0.1,0.1,0.3,0.8,0.6,1.8
		c0.4,1.3,0.8,3.1,1.2,4.7c0.1,0.2,0.1,0.4,0.2,0.7c0.1,0.2,0.1,0.4,0.1,0.6c0.1,0.2,0.1,0.4,0.1,0.6c0,0.2,0.1,0.4,0.1,0.6
		c0.1,0.2,0.1,0.4,0.1,0.6c0,0,0,0.1,0,0.1l0.6-0.6L434.4,538z"/>
	<path class="st0" d="M414.7,559.6l0.5,0.5c0.1,0.1,0.1,0.1,0.2,0.2l0.7-0.9c-0.1-0.2-0.2-0.4-0.2-0.7c0-0.2-0.1-0.4-0.1-0.5
		L414.7,559.6L414.7,559.6z"/>
	<path class="st0" d="M419.3,555.9l10.3-11.7c-0.5-0.1-0.9-0.2-1.2-0.2l-9.3,10.6c0,0.1,0,0.1,0,0.2
		C419.1,555.1,419.2,555.5,419.3,555.9z"/>
	<path class="st0" d="M468.6,612.9c0.2,0.1,0.4,0.2,0.6,0.3c0.2,0.1,0.4,0.2,0.6,0.2l-13.2-22.1l-18.8-1.2c0,0,0,0,0,0
		c0,0.1,0.1,0.2,0.1,0.3c0,0.1,0.1,0.2,0.2,0.3c0.1,0.1,0.1,0.2,0.2,0.4c0.1,0.1,0.1,0.2,0.2,0.4c0,0.1,0,0.1,0.1,0.2l17.5,1.1
		l11.8,19.8c0,0,0.1,0,0.1,0.1C468.2,612.7,468.4,612.8,468.6,612.9z"/>
	<path class="st0" d="M416.1,561.1l0.6-0.7c-0.1-0.1-0.1-0.2-0.2-0.3c-0.1-0.2-0.2-0.4-0.3-0.6c0,0,0,0,0,0l-0.7,0.9
		c0.1,0.1,0.2,0.2,0.3,0.3C415.8,560.8,416,560.9,416.1,561.1z"/>
	<path class="st0" d="M434.5,535.6c-0.2-0.2-0.3-0.3-0.3-0.3c0.1-0.1,0.2-0.1,0.3-0.2c0.2-0.3,0.1-0.7-0.1-1
		c-0.2-0.4-0.5-0.7-0.5-0.7c0.4-0.6,0-1-0.3-1.3c-0.1-0.1-0.3-0.2-0.3-0.2c0.1-0.3,0.1-0.7,0.1-1c0-0.2,0-0.4,0-0.4l0,0l-0.5,0.3
		l1.8,7.1C435.3,536.9,434.8,536,434.5,535.6z"/>
	<path class="st0" d="M419.4,556.6c0,0.2,0.1,0.3,0.1,0.5l11.1-12.6c-0.4-0.1-0.8-0.2-1.1-0.3l-10.3,11.7c0,0,0,0,0,0
		C419.3,556.2,419.4,556.4,419.4,556.6z"/>
	<path class="st0" d="M470.6,613.7c0.2,0.1,0.5,0.2,0.7,0.3c0.1,0,0.3,0.1,0.4,0.1l-14.5-24.3l-20-1.3c0,0.1,0.1,0.2,0.1,0.3
		c0,0.1,0.1,0.2,0.1,0.3c0,0.1,0.1,0.2,0.1,0.3c0,0.1,0.1,0.2,0.1,0.3c0,0.1,0.1,0.2,0.1,0.3l18.8,1.2l13.2,22.1c0,0,0,0,0.1,0
		C470.1,613.6,470.4,613.7,470.6,613.7z"/>
	<path class="st0" d="M434,539.7c-0.3,0-0.4,0-0.5,0c-0.1,0.1-0.2,0.2-0.1,0.3c0,0.2,0.1,0.4,0.3,0.6c0.1,0.1,0.1,0.1,0.2,0.2
		l0.8-0.9l-0.1,0l0-0.3l0-0.6l0-0.6l0,0l-0.6,0.6c0,0.2,0.1,0.3,0.1,0.4C434,539.7,434,539.7,434,539.7z"/>
	<path class="st0" d="M434.1,541.2c0.1,0.2,0.3,0.3,0.4,0.4l1.2-1.4l-0.1-0.1l-1.1-0.1l-0.8,0.9C433.9,541,434,541.1,434.1,541.2z"
		/>
	<path class="st0" d="M419.8,558c0,0.1,0,0.1,0.1,0.2l11.7-13.4c-0.1,0-0.3-0.1-0.4-0.1c-0.2-0.1-0.4-0.1-0.6-0.2l-11.1,12.6
		c0,0.1,0,0.1,0.1,0.2C419.7,557.6,419.8,557.8,419.8,558z"/>
	<path class="st0" d="M471.7,614.1c0.1,0,0.2,0.1,0.4,0.1c0.3,0.1,0.5,0.2,0.8,0.2c0.2,0,0.4,0.1,0.5,0.1l-15.6-26.2l-22.6-1.5
		c0,0,0.1,0.1,0.1,0.1c0.1,0.1,0.2,0.2,0.3,0.3c0.1,0.1,0.2,0.2,0.3,0.2c0.1,0.1,0.2,0.1,0.3,0.2c0.1,0.1,0.3,0.1,0.4,0
		c0,0,0.1,0,0.1-0.1c0,0,0.1,0.1,0.2,0.4c0.1,0.1,0.1,0.3,0.2,0.4l20,1.3L471.7,614.1z"/>
	<path class="st0" d="M416.7,561.6c0.1,0.1,0.1,0.1,0.2,0.2l0.5-0.6c-0.2-0.2-0.3-0.3-0.4-0.5c-0.1-0.1-0.1-0.2-0.2-0.3l-0.6,0.7
		c0,0,0,0,0.1,0.1C416.3,561.3,416.5,561.4,416.7,561.6z"/>
	<path class="st0" d="M434.7,541.8c0.2,0.1,0.4,0.1,0.6,0.2l0.9-1.1l-0.4-0.5l0,0l-0.2-0.3l-1.2,1.4
		C434.5,541.6,434.6,541.7,434.7,541.8C434.7,541.8,434.7,541.8,434.7,541.8z"/>
	<path class="st0" d="M474.5,614.7c0.1,0,0.2,0,0.3,0l-16.5-27.6l-24.7-1.6c0.1,0.1,0.1,0.2,0.2,0.2c0.1,0.1,0.2,0.3,0.4,0.4
		c0.1,0.1,0.2,0.2,0.4,0.4c0.1,0.1,0.2,0.2,0.4,0.3c0.1,0.1,0.2,0.1,0.3,0.2l22.6,1.5l15.6,26.2c0.1,0,0.2,0,0.3,0.1
		C474,614.7,474.3,614.7,474.5,614.7z"/>
	<path class="st0" d="M417.5,562.4l0.5-0.6c-0.1-0.1-0.1-0.1-0.2-0.2c-0.2-0.1-0.3-0.3-0.5-0.5c0,0,0,0,0,0l-0.5,0.6
		c0.1,0.1,0.2,0.2,0.3,0.3C417.3,562.2,417.4,562.3,417.5,562.4z"/>
	<path class="st0" d="M420.3,559.3l12.3-14.1c-0.3-0.1-0.6-0.3-1-0.4l-11.7,13.4c0,0.2,0.1,0.3,0.2,0.5
		C420.1,558.9,420.2,559.1,420.3,559.3z"/>
	<path class="st0" d="M475.6,614.2L475.6,614.2l0.1-0.3c0,0,0.1,0,0.1,0l-16.9-28.3l-24.2-1.6c0,0.1,0.1,0.1,0.1,0.1l-0.1,0.2
		c-0.1-0.1-0.3-0.2-0.4-0.3c-0.1,0-0.1-0.1-0.2-0.2l-1.8-0.1c0.1,0.1,0.2,0.3,0.4,0.4c0.1,0.1,0.3,0.3,0.4,0.4
		c0.1,0.1,0.3,0.3,0.4,0.4c0.1,0.1,0.1,0.1,0.2,0.2l24.7,1.6l16.5,27.6C475.2,614.7,475.5,614.5,475.6,614.2z"/>
	<path class="st0" d="M420.5,559.9c0,0.1,0.1,0.2,0.1,0.3l12.8-14.7c-0.2-0.1-0.5-0.2-0.7-0.3c-0.1,0-0.1,0-0.2-0.1l-12.3,14.1
		c0,0,0,0,0,0.1C420.4,559.5,420.4,559.7,420.5,559.9z"/>
	<path class="st0" d="M418.1,562.9c0,0,0.1,0.1,0.1,0.1l0.6-0.7c-0.2-0.1-0.3-0.2-0.5-0.3c-0.1-0.1-0.2-0.1-0.3-0.2l-0.5,0.6
		c0,0,0.1,0.1,0.1,0.1C417.8,562.6,417.9,562.8,418.1,562.9z"/>
	<path class="st0" d="M436,542.4c0.1,0,0.1,0.1,0.2,0.1l0.7-0.8c0-0.1-0.1-0.1-0.1-0.1c-0.2-0.3-0.3-0.4-0.3-0.4l-0.1-0.2l0,0
		l-0.9,1.1C435.6,542.1,435.8,542.3,436,542.4z"/>
	<path class="st0" d="M418.9,563.6l0.6-0.7c-0.1,0-0.1-0.1-0.2-0.1c-0.2-0.1-0.4-0.2-0.6-0.3c0,0,0,0-0.1,0l-0.6,0.7
		c0.1,0.1,0.2,0.2,0.3,0.3C418.7,563.4,418.8,563.5,418.9,563.6z"/>
	<path class="st0" d="M421,561.1C421,561.1,421,561.1,421,561.1l13.3-15.1c-0.1-0.1-0.3-0.1-0.4-0.2c-0.1-0.1-0.3-0.1-0.4-0.2
		l-12.8,14.7c0,0.1,0.1,0.2,0.1,0.3C420.8,560.7,420.9,560.9,421,561.1z"/>
	<path class="st0" d="M433.5,583.6c-0.1-0.1-0.3-0.3-0.4-0.4c-0.2-0.1-0.3-0.3-0.4-0.4c-0.1-0.1-0.1-0.1-0.1-0.1l-1.5-0.1
		c0.1,0.1,0.2,0.2,0.4,0.3c0,0,0,0,0.1,0.1c0.1,0.1,0.2,0.3,0.4,0.5c0.1,0.1,0.3,0.3,0.4,0.5c0,0,0,0,0,0l1.8,0.1
		c-0.1-0.1-0.1-0.1-0.2-0.2C433.8,583.9,433.7,583.7,433.5,583.6z"/>
	<path class="st0" d="M476.9,613.8l-17.5-29.4l-25.6-1.7c0,0,0,0,0,0.1c0.1,0.2,0.2,0.4,0.4,0.5c0.1,0.2,0.2,0.3,0.3,0.5
		c0.1,0.1,0.2,0.2,0.2,0.3l24.2,1.6l16.9,28.3c0.2,0,0.5,0,0.9-0.1C476.7,613.9,476.8,613.8,476.9,613.8z"/>
	<path class="st0" d="M436.9,543.1l0.6-0.7c-0.1-0.1-0.2-0.2-0.2-0.3c-0.1-0.1-0.2-0.3-0.3-0.4l-0.7,0.8c0.2,0.1,0.4,0.3,0.6,0.5
		C436.8,543,436.8,543,436.9,543.1z"/>
	<path class="st0" d="M437.5,543.7l0.5-0.6c-0.1-0.2-0.3-0.3-0.4-0.5c-0.1-0.1-0.1-0.1-0.2-0.2l-0.6,0.7c0.1,0.1,0.3,0.3,0.4,0.4
		C437.3,543.6,437.4,543.7,437.5,543.7z"/>
	<path class="st0" d="M477.7,613.3C477.7,613.2,477.8,613.2,477.7,613.3l-17.8-30.1l-27.1-1.8c0.1,0.1,0.1,0.2,0.2,0.3
		c0.1,0.2,0.3,0.4,0.4,0.5c0.1,0.2,0.2,0.3,0.3,0.5l25.6,1.7l17.5,29.4C477.2,613.7,477.4,613.5,477.7,613.3z"/>
	<path class="st0" d="M432.1,582.3c-0.1,0-0.2-0.1-0.4-0.2c-0.2-0.1-0.3-0.2-0.5-0.4c-0.2-0.1-0.3-0.3-0.5-0.4c0,0,0,0,0,0l-1.3-0.1
		c0,0,0,0,0,0c0.2,0.2,0.3,0.3,0.5,0.5c0.2,0.2,0.3,0.3,0.5,0.5c0.2,0.1,0.3,0.3,0.5,0.4c0,0,0,0,0,0l1.5,0.1
		c-0.1-0.1-0.2-0.2-0.3-0.3C432.2,582.4,432.1,582.3,432.1,582.3z"/>
	<path class="st0" d="M419.5,564c0,0,0.1,0.1,0.1,0.1l1.6-1.8l-0.6,0.4l-0.7,0.4c-0.1,0-0.2-0.1-0.4-0.2l-0.6,0.7
		c0,0,0.1,0.1,0.1,0.1C419.2,563.8,419.4,563.9,419.5,564z"/>
	<path class="st0" d="M421.2,561.6c0.1,0.1,0.1,0.3,0.2,0.4l13.7-15.6c-0.1-0.1-0.2-0.1-0.3-0.2c-0.2-0.1-0.3-0.2-0.5-0.3L421,561.2
		C421.1,561.3,421.2,561.5,421.2,561.6z"/>
	<path class="st0" d="M429.8,580.3c-0.1-0.1-0.2-0.2-0.3-0.3l-1.1-0.1c0,0.1,0.1,0.1,0.1,0.2c0.2,0.2,0.3,0.4,0.5,0.6
		c0.1,0.2,0.3,0.4,0.5,0.5l1.3,0.1c-0.2-0.1-0.3-0.3-0.5-0.5C430.2,580.7,430,580.5,429.8,580.3z"/>
	<path class="st0" d="M437.9,544.4C438,544.4,438,544.4,437.9,544.4l0.6-0.6c0-0.1-0.1-0.1-0.1-0.2c-0.1-0.2-0.2-0.3-0.4-0.5
		c0,0,0,0,0,0l-0.5,0.6c0.1,0.1,0.1,0.1,0.2,0.2C437.7,544.1,437.8,544.3,437.9,544.4z"/>
	<path class="st0" d="M421.2,562.3l-1.6,1.8c0.1,0.1,0.3,0.2,0.4,0.2c0.1,0.1,0.3,0.1,0.4,0.2l15.5-17.7c-0.1,0-0.1-0.1-0.2-0.1
		c-0.2-0.1-0.4-0.2-0.5-0.3L421.5,562c0,0,0,0.1,0,0.1L421.2,562.3z"/>
	<path class="st0" d="M460.4,582l-28.4-1.8c0.1,0.2,0.2,0.3,0.3,0.5c0.1,0.2,0.3,0.4,0.4,0.6c0.1,0.1,0.1,0.2,0.2,0.2l27.1,1.8
		l17.9,30c0.2-0.3,0.4-0.6,0.6-1L460.4,582z"/>
	<path class="st0" d="M428.5,578.7l-0.9-0.1c0.1,0.2,0.2,0.3,0.3,0.5c0.1,0.2,0.3,0.5,0.5,0.7l1.1,0.1c-0.1-0.1-0.1-0.2-0.2-0.2
		C429,579.3,428.7,579,428.5,578.7z"/>
	<path class="st0" d="M479.1,611.7c0.1,0,0.1,0,0.2,0c0,0,0,0,0.1,0l-18.4-30.9l-29.7-1.9c0.1,0.2,0.2,0.3,0.3,0.5
		c0.1,0.2,0.3,0.4,0.4,0.6c0,0,0.1,0.1,0.1,0.1l28.4,1.8l18,30.2c0-0.1,0.1-0.2,0.1-0.3C478.7,611.8,478.9,611.8,479.1,611.7z"/>
	<path class="st0" d="M438.4,545.2l0.6-0.7c-0.1-0.1-0.2-0.3-0.3-0.4c-0.1-0.1-0.1-0.2-0.2-0.3l-0.5,0.6c0.1,0.1,0.2,0.3,0.2,0.4
		C438.3,545,438.3,545.1,438.4,545.2z"/>
	<path class="st0" d="M421.3,564.7L421.3,564.7l15.3-17.5c-0.1,0-0.1-0.1-0.2-0.1c-0.2-0.1-0.3-0.2-0.5-0.3l-15.5,17.7
		c0.1,0,0.1,0.1,0.2,0.1C420.8,564.7,421.1,564.7,421.3,564.7z"/>
	<path class="st0" d="M438.6,545.7c0.1,0.1,0.1,0.2,0.1,0.3l0.7-0.7c0-0.1-0.1-0.2-0.1-0.3c-0.1-0.1-0.2-0.3-0.3-0.4c0,0,0,0,0,0
		l-0.6,0.7c0,0,0,0,0,0.1C438.5,545.4,438.6,545.6,438.6,545.7z"/>
	<path class="st0" d="M437.4,547.6l-0.4,0c-0.1-0.1-0.3-0.2-0.4-0.3l-15.3,17.5l1.3-0.3L437.4,547.6z"/>
	<path class="st0" d="M428.4,578.6c-0.3-0.3-0.4-0.5-0.5-0.6c0,0,0,0,0,0c0.2,0,0.3-0.2,0.5-0.4l-1.7-0.1c0.1,0.2,0.3,0.3,0.5,0.4
		c0,0,0,0,0,0.1c0,0.1,0.2,0.3,0.3,0.6c0,0,0,0.1,0.1,0.1l0.9,0.1C428.4,578.7,428.4,578.6,428.4,578.6z"/>
	<path class="st0" d="M480.1,611.2l-18.8-31.5l-31-2c0.2,0.3,0.5,0.7,0.7,1.1c0,0,0.1,0.1,0.1,0.1l29.7,1.9l18.4,30.9
		C479.6,611.6,479.9,611.4,480.1,611.2z"/>
	<path class="st0" d="M428.9,576.9l0.9,0.1c0.1,0.2,0.2,0.4,0.4,0.6c0,0,0,0.1,0.1,0.1l31,2l18.8,31.5c0,0,0.1-0.1,0.1-0.1
		c0.2-0.2,0.4-0.5,0.5-0.7l-19-31.8l-35.2-2.3c0,0.2,0,0.3,0,0.5c0,0.2,0.1,0.4,0.1,0.6c0,0,0,0.1,0.1,0.1l1.7,0.1
		c0,0,0.1-0.1,0.1-0.1C428.7,577.3,428.8,577.1,428.9,576.9z"/>
	<path class="st0" d="M422.9,564.8c0.1,0.1,0.1,0.2,0.2,0.3l16.7-19.1c0-0.1,0-0.1-0.1-0.2c-0.1-0.1-0.1-0.3-0.2-0.4
		c0-0.1-0.1-0.1-0.1-0.2l-0.7,0.7c0,0,0,0,0,0.1c0.1,0.1,0.1,0.3,0.1,0.4c0.1,0.2,0.1,0.3,0.1,0.4c0,0,0,0,0,0l-0.3,0.3l-0.3,0.3
		l-0.3,0.3l-0.7-0.1l-14.7,16.9l0.1,0C422.8,564.6,422.9,564.7,422.9,564.8z"/>
	<path class="st0" d="M423.4,565.6c0,0.1,0.1,0.1,0.1,0.2l16.6-19c0,0,0-0.1-0.1-0.1c-0.1-0.1-0.1-0.3-0.2-0.4
		c0-0.1-0.1-0.2-0.1-0.2l-16.7,19.1c0,0,0,0.1,0.1,0.1C423.3,565.3,423.3,565.5,423.4,565.6z"/>
	<path class="st0" d="M481,609.4c0.1,0,0.2,0,0.3,0l-19-31.9l-35.3-2.3c0,0,0,0,0,0c-0.1,0.2-0.1,0.3-0.2,0.5
		c-0.1,0.2-0.1,0.3-0.1,0.5c0,0,0,0,0,0.1l35.2,2.3l19,31.8c0-0.1,0-0.1,0.1-0.2C481,609.7,481,609.4,481,609.4z"/>
	<path class="st0" d="M481.8,608.6l-19.2-32.2l-35.3-2.3c0,0,0,0.1-0.1,0.1c-0.1,0.1-0.2,0.3-0.2,0.5c-0.1,0.1-0.1,0.3-0.2,0.5
		l35.3,2.3l19,31.9c0,0,0.1,0,0.1,0C481.6,609.2,481.7,609,481.8,608.6z"/>
	<path class="st0" d="M423.6,566c0,0,0.1,0.1,0.1,0.1c0,0,0.2-0.2,0.4-0.5c0.5-0.6,1.4-1.4,1.8-1.6l14.4-16.5c0-0.1,0-0.2-0.1-0.2
		c0-0.1-0.1-0.2-0.1-0.4c0-0.1-0.1-0.2-0.1-0.2l-16.6,19C423.6,565.8,423.6,565.9,423.6,566z"/>
	<path class="st0" d="M481.9,607.5c0-0.1,0-0.3,0-0.4L463,575.4l-35.8-2.3c0.1,0.1,0.2,0.2,0.2,0.3c0.1,0.1,0.2,0.1,0.2,0.2
		c0,0-0.1,0.1-0.2,0.3c-0.1,0.1-0.1,0.2-0.2,0.3l35.3,2.3l19.2,32.2c0,0,0-0.1,0-0.1C481.9,608.2,481.9,607.9,481.9,607.5z"/>
	<path class="st0" d="M426.1,564.1c0,0,0.3,0,0.5,0c0.1,0,0.2,0,0.2,0.1l13.6-15.5c0,0,0,0,0,0c0-0.1,0-0.2,0-0.3c0-0.1,0-0.2,0-0.3
		c0-0.1,0-0.2,0-0.3c0,0,0-0.1,0-0.1L426,564.1C426,564.1,426.1,564.1,426.1,564.1z"/>
	<path class="st0" d="M427.1,564.8c-0.1,0.2-0.3,0.5-0.7,0.8c0,0-0.7,0.4-1.3,0.9c-0.2,0.2-0.4,0.5-0.6,0.8
		c-0.1,0.2-0.1,0.3-0.1,0.5c0,0,0,0.1,0,0.1l15.8-18c-0.1-0.1-0.2-0.1-0.3-0.2l0-0.3c0.1-0.1,0.2-0.1,0.3-0.2
		c0.1-0.1,0.1-0.2,0.2-0.3c0-0.1,0.1-0.2,0.1-0.3l-13.6,15.5c0.1,0,0.2,0.1,0.2,0.1C427.2,564.4,427.2,564.5,427.1,564.8z"/>
	<path class="st0" d="M481.9,607.1c0-0.2,0-0.4-0.1-0.6c0-0.3-0.1-0.7-0.2-1.1c0-0.1-0.1-0.3-0.1-0.5l-18.2-30.5l-36.9-2.4
		c0.1,0.1,0.2,0.3,0.2,0.4c0.1,0.2,0.2,0.3,0.3,0.4c0.1,0.1,0.1,0.1,0.2,0.2l35.8,2.3L481.9,607.1z"/>
	<path class="st0" d="M481.2,603.2c-0.1-0.3-0.1-0.6-0.2-0.9l-17.2-28.9l-37.8-2.5c0,0.1,0.1,0.1,0.1,0.2c0.1,0.1,0.1,0.3,0.2,0.4
		c0.1,0.1,0.2,0.3,0.2,0.4c0,0,0,0,0,0l36.9,2.4l18.2,30.5c0-0.2-0.1-0.4-0.1-0.6C481.4,603.9,481.3,603.6,481.2,603.2z"/>
	<path class="st0" d="M424.7,568.4C424.7,568.5,424.7,568.5,424.7,568.4c0.1,0.1,0.1,0.1,0.1,0.1l16-18.3c0,0,0,0,0,0
		c-0.1-0.1-0.2-0.2-0.4-0.3c0,0-0.1-0.1-0.1-0.1l-15.8,18c0,0.1,0,0.2,0.1,0.3C424.6,568.2,424.6,568.3,424.7,568.4z"/>
	<path class="st0" d="M480.7,601.1c-0.1-0.3-0.2-0.7-0.3-1c-0.1-0.3-0.1-0.5-0.2-0.7l-16-26.9l-38.7-2.5c0,0,0,0,0,0
		c0.1,0.1,0.1,0.2,0.2,0.4c0.1,0.1,0.1,0.2,0.2,0.4c0,0.1,0.1,0.1,0.1,0.2l37.8,2.5l17.2,28.9c0,0,0-0.1,0-0.1
		C480.9,601.8,480.8,601.5,480.7,601.1z"/>
	<path class="st0" d="M425,569c0,0.1,0.1,0.1,0.1,0.2l14-16c0-0.1,0-0.2,0-0.3c0,0,0-0.1,0-0.1c0,0,0-0.1,0.1-0.2
		c0-0.1,0.1-0.1,0.1-0.2c0,0,0.1-0.1,0.2-0.2c0,0,0.1-0.1,0.2-0.1c0,0,0.1-0.1,0.2-0.1c0,0,0.1-0.1,0.2-0.1c0,0,0.1-0.1,0.1-0.1
		c0.1-0.1,0.1-0.1,0.2-0.2c0.1-0.1,0.2-0.1,0.2-0.2c0,0,0.1-0.1,0.1-0.1l0.7-0.8c-0.1-0.1-0.1-0.1-0.2-0.2c-0.1-0.1-0.2-0.2-0.3-0.3
		l-16,18.3C424.8,568.6,424.9,568.8,425,569z"/>
	<path class="st0" d="M441,551.2c0.1-0.1,0.2-0.1,0.3-0.2c0.1-0.1,0.2-0.2,0.2-0.2c0,0,0,0-0.1-0.1c0,0-0.1-0.1-0.1-0.1l-0.7,0.8
		c0,0,0.1-0.1,0.1-0.1C440.8,551.3,440.9,551.3,441,551.2z"/>
	<path class="st0" d="M425.3,569.7c0,0.1,0.1,0.2,0.2,0.3l38.7,2.5l16,26.9c0-0.1,0-0.2-0.1-0.2c-0.1-0.3-0.2-0.7-0.3-1
		c-0.1-0.4-0.2-0.7-0.3-0.9c-0.2-0.5-0.3-0.8-0.3-0.9c0,0,0-0.1,0-0.1c0-0.1,0-0.1-0.1-0.2l-14.6-24.4l-38.5-2.5l13.2-15.1
		c-0.1-0.1-0.2-0.2-0.2-0.4c0-0.1,0-0.2,0-0.3c0,0,0,0,0,0l-14,16c0,0,0,0.1,0.1,0.1C425.2,569.5,425.2,569.6,425.3,569.7z"/>
	<path class="st0" d="M478.4,594.5c-0.1-0.3-0.3-0.6-0.4-0.9c-0.1-0.3-0.3-0.6-0.4-0.9c-0.1-0.3-0.3-0.6-0.4-0.9
		c-0.1-0.3-0.3-0.6-0.4-0.9c-0.1-0.3-0.3-0.6-0.4-0.8c-0.1-0.3-0.3-0.6-0.4-0.8c-0.1-0.3-0.3-0.5-0.4-0.8l-3.1-5.2
		c0,0,0-0.1-0.1-0.1c-0.1-0.2-0.3-0.5-0.4-0.7c-0.1-0.2-0.3-0.4-0.4-0.7c-0.1-0.2-0.3-0.4-0.4-0.7c-0.1-0.2-0.3-0.4-0.4-0.6
		c-0.1-0.2-0.3-0.4-0.4-0.6c-0.1-0.2-0.3-0.4-0.4-0.6c-0.1-0.2-0.3-0.4-0.4-0.6l0.1,0c0.1-0.1,0.1-0.2,0.1-0.3c0,0,0-0.1,0-0.1
		l-4.5-7.6l-37.4-2.4l13-14.9c0,0-0.1,0.1-0.1,0.1c-0.1,0-0.1,0.1-0.2,0.1c-0.1,0-0.1,0.1-0.2,0.1c-0.1,0-0.1,0.1-0.2,0.1
		c-0.1,0-0.2,0.1-0.3,0.1c-0.1,0-0.2,0-0.3-0.1L426,569.1l38.5,2.5l14.6,24.4c-0.1-0.2-0.2-0.5-0.3-0.7
		C478.7,595.1,478.5,594.8,478.4,594.5z"/>
	<path class="st0" d="M441,552.8c0,0-0.1,0.1-0.1,0.1c0,0.1-0.1,0.1-0.1,0.1c0,0.1-0.1,0.1-0.1,0.2c-0.1,0.1-0.1,0.1-0.1,0.2
		l0.6-0.7C441.1,552.7,441.1,552.8,441,552.8z"/>
	<path class="st0" d="M464.8,570.8l4.5,7.6c0-0.1,0-0.2-0.1-0.3c0-0.1-0.1-0.3-0.1-0.4c0-0.1-0.1-0.3-0.1-0.4
		c-0.1-0.1-0.1-0.3-0.2-0.4c-0.1-0.1-0.1-0.3-0.2-0.4c-0.1-0.1-0.1-0.3-0.2-0.4c-0.1-0.1-0.1-0.3-0.2-0.4c-0.1-0.1-0.1-0.3-0.2-0.4
		c-0.1-0.1-0.1-0.3-0.2-0.4c-0.1-0.1-0.1-0.3-0.2-0.4c-0.1-0.1-0.1-0.2-0.2-0.4c-0.1-0.1-0.1-0.2-0.2-0.4c-0.1-0.1-0.1-0.3-0.2-0.3
		c0-0.1-0.1-0.1-0.1-0.1s0,0,0.1,0l-2-3.4l-36.2-2.4l13.7-15.7c0,0-0.1,0-0.1,0c-0.2,0-0.3,0.1-0.4,0.1c-0.1,0-0.2,0.1-0.3,0.2
		c-0.1,0-0.2,0.1-0.2,0.2c-0.1,0.1-0.1,0.1-0.2,0.2c-0.1,0.1-0.2,0.1-0.2,0.2c0,0,0,0,0,0l-0.6,0.7c0,0,0,0,0,0c0,0,0,0,0,0
		c0,0,0,0,0,0l-13,14.9L464.8,570.8z"/>
	<path class="st0" d="M474.9,587.7c-0.1-0.3-0.3-0.5-0.4-0.8c-0.1-0.3-0.3-0.5-0.4-0.8c-0.1-0.2-0.3-0.5-0.4-0.7
		c-0.1-0.2-0.3-0.5-0.4-0.7c-0.1-0.2-0.3-0.5-0.4-0.7c-0.1-0.2-0.3-0.4-0.4-0.6l3.1,5.2c0,0,0,0,0,0
		C475.2,588.2,475.1,587.9,474.9,587.7z"/>
	<path class="st0" d="M467.7,573.2c0.1,0,0.2,0,0.3,0l-1.6-2.6c-0.5-0.3-1.1-0.7-1.6-1c-0.3-0.2-0.6-0.4-0.9-0.6l-33.5-2.2l13-14.8
		c0,0,0,0-0.1,0c-0.2-0.1-0.4-0.1-0.6-0.1l-13.7,15.7l36.2,2.4l2,3.4c0,0,0.1,0,0.1,0C467.4,573.3,467.5,573.2,467.7,573.2z"/>
	<path class="st0" d="M468.3,573.1c0.1,0,0.2,0,0.3,0c0,0,0,0,0,0l-1-1.8c-0.4-0.2-0.7-0.4-1.1-0.7c0,0-0.1-0.1-0.1-0.1l1.6,2.6
		c0,0,0,0,0.1,0C468.1,573.2,468.2,573.1,468.3,573.1z"/>
	<path class="st0" d="M463.9,569c-0.2-0.1-0.5-0.3-0.7-0.4c-0.3-0.2-0.5-0.3-0.8-0.5l-30.7-2l12.1-13.8c0,0-0.1,0-0.1,0
		c0,0,0,0-0.1-0.1c-0.1-0.1-0.2-0.2-0.3-0.2l-13,14.8L463.9,569z"/>
	<path class="st0" d="M469.3,573c0,0,0.1,0,0.1,0l-0.6-0.9c-0.1-0.1-0.2-0.1-0.3-0.2c-0.3-0.2-0.6-0.4-0.9-0.6l1,1.8
		c0.1,0,0.2,0,0.3,0C469.1,573,469.2,573,469.3,573z"/>
	<path class="st0" d="M461.1,567.2l-28-1.8l11.2-12.8c-0.1-0.1-0.2-0.1-0.2-0.2c-0.1-0.1-0.2-0.1-0.2-0.1l-12.1,13.8l30.7,2
		c-0.3-0.2-0.5-0.3-0.7-0.4C461.5,567.5,461.2,567.3,461.1,567.2z"/>
	<path class="st0" d="M469.6,573c0.2,0,0.3,0,0.4,0c0,0,0.1,0,0.1,0l-0.1-0.2c0,0-0.1,0-0.1-0.1c-0.1,0-0.2-0.1-0.2-0.1
		c-0.1,0-0.2-0.1-0.2-0.1c-0.2-0.1-0.4-0.2-0.5-0.3l0.6,0.9C469.5,573,469.5,573,469.6,573z"/>
	<path class="st0" d="M460.9,567c0,0,0-0.1,0.1-0.1c0,0,0-0.1,0-0.1c0,0,0-0.1,0-0.1c0,0,0-0.1,0-0.2c0,0,0,0,0-0.1l-26.6-1.7
		l10.3-11.8c-0.1-0.1-0.2-0.1-0.3-0.2c0,0-0.1-0.1-0.1-0.1L433,565.4l28,1.8C460.9,567.1,460.9,567.1,460.9,567
		C460.9,567.1,460.9,567,460.9,567z"/>
	<path class="st0" d="M470.6,573C470.6,573,470.6,573,470.6,573C470.6,573,470.6,573,470.6,573c0,0-0.1-0.1-0.2-0.1
		C470.5,573,470.6,573,470.6,573z"/>
	<path class="st0" d="M460.8,566.2c0-0.1,0-0.1-0.1-0.2c0-0.1-0.1-0.1-0.1-0.2c0-0.1-0.1-0.1-0.1-0.2c0,0,0,0,0,0l-24.9-1.6
		l9.5-10.9c0,0,0,0-0.1,0c-0.1-0.1-0.2-0.2-0.3-0.2c0,0,0,0,0,0l-10.3,11.8l26.6,1.7c0,0,0-0.1,0-0.1
		C460.8,566.3,460.8,566.2,460.8,566.2z"/>
	<path class="st0" d="M470.4,572.9C470.4,572.9,470.4,572.9,470.4,572.9C470.4,572.9,470.4,572.9,470.4,572.9
		c-0.1,0-0.2-0.1-0.3-0.1c0,0-0.1,0-0.1-0.1l0.1,0.2c0,0,0,0,0.1,0C470.2,572.9,470.3,572.9,470.4,572.9z"/>
	<path class="st0" d="M460.5,565.7c0,0-0.1-0.1-0.1-0.1c0-0.1-0.1-0.1-0.1-0.2c0-0.1-0.1-0.1-0.1-0.2c0-0.1-0.1-0.1-0.1-0.2
		c0,0-0.1-0.1-0.1-0.1l-2-0.1l0,0c0,0,0,0,0,0.1c0,0,0,0,0,0c0,0,0,0,0,0l-21.2-1.4l8.7-9.9c-0.1,0-0.1-0.1-0.2-0.1
		c-0.1-0.1-0.2-0.1-0.3-0.2l-9.5,10.9L460.5,565.7z"/>
	<path class="st0" d="M457.8,564.6C457.8,564.6,457.8,564.6,457.8,564.6c-0.1-0.1-0.2-0.2-0.2-0.2c0,0-0.1-0.1-0.1-0.1
		c0,0-0.1-0.1-0.1-0.1c0,0-0.1-0.1-0.1-0.1c0,0-0.1-0.1-0.1-0.1l-19.2-1.2l7.9-9c-0.1-0.1-0.2-0.1-0.2-0.2c0,0-0.1-0.1-0.1-0.1
		l-8.7,9.9l21.2,1.4C458,564.8,457.9,564.7,457.8,564.6C457.9,564.7,457.9,564.7,457.8,564.6z"/>
	<path class="st0" d="M459.9,564.7c0,0-0.1-0.1-0.1-0.1c0,0-0.1-0.1-0.1-0.1c0,0,0-0.1-0.1-0.1c0,0,0,0-0.1-0.1c0,0,0,0-0.1-0.1
		c0,0,0,0,0,0l-1.8-0.1l0.3,0.7l2,0.1c0,0,0,0,0,0C460,564.8,460,564.8,459.9,564.7z"/>
	<path class="st0" d="M459.5,564.1C459.4,564.1,459.4,564,459.5,564.1c-0.1-0.1-0.1-0.1-0.1-0.1c0,0,0,0,0-0.1c0,0,0,0,0-0.1
		c0,0,0,0,0-0.1c0,0,0,0,0-0.1c0,0,0,0,0-0.1c0,0,0,0,0,0c0,0,0,0,0,0c0,0,0,0,0,0c0,0,0,0,0,0c0,0,0,0,0,0l-1.6-0.1
		c0,0.1,0.1,0.1,0.1,0.2c0.1,0.1,0.1,0.2,0.2,0.3l0.1,0.2L459.5,564.1C459.5,564.2,459.5,564.2,459.5,564.1
		C459.5,564.1,459.5,564.1,459.5,564.1z"/>
	<path class="st0" d="M457.2,564C457.2,564,457.2,564,457.2,564l-0.1-0.1l0,0c0,0,0,0,0,0c0,0,0,0,0,0c0,0,0,0,0,0c0,0,0,0,0,0
		c0,0,0,0,0,0c0,0,0,0,0,0c0,0,0,0,0,0c0,0,0,0,0,0c0,0,0,0,0,0c0,0,0,0,0,0c0,0,0,0,0,0c0,0,0,0,0,0c0,0,0,0,0,0c0,0,0,0,0,0
		c0,0,0,0,0,0c0,0,0,0,0,0c0,0,0,0,0,0c0,0,0,0,0,0c0,0,0,0,0,0c0,0,0,0,0,0c0,0,0,0,0,0l-17.3-1.1l7.1-8.1c0,0-0.1,0-0.1-0.1
		c-0.1-0.1-0.2-0.1-0.3-0.2c0,0,0,0,0,0l-7.9,9L457.2,564z"/>
	<path class="st0" d="M458.9,563.4C458.9,563.4,458.9,563.4,458.9,563.4C458.9,563.4,458.9,563.3,458.9,563.4
		c-0.1-0.1-0.1-0.1-0.1-0.1c0,0,0,0,0,0c0,0,0,0,0,0c0,0,0,0,0,0c0,0,0,0,0,0c0,0,0,0,0,0c0,0,0,0,0,0c0,0,0,0,0,0c0,0,0,0,0,0
		c0,0,0,0,0,0c0,0,0,0,0,0c0,0,0,0,0,0c0,0,0,0,0,0c0,0,0,0,0,0c0,0,0,0,0,0c0,0,0,0,0,0c0,0,0,0,0,0c0,0,0,0,0-0.1l-1.5-0.1
		c0,0,0,0,0,0c0,0,0,0,0,0c0,0,0,0,0,0c0,0,0,0,0,0c0,0,0,0,0,0c0,0,0,0,0,0c0,0,0,0,0,0c0,0,0,0,0,0s0,0,0,0c0,0,0,0,0,0
		c0,0,0,0,0,0c0,0,0,0,0,0c0,0,0,0,0,0c0,0,0,0,0,0c0,0,0,0,0,0c0,0,0,0,0,0c0,0,0,0,0,0c0,0,0,0,0,0c0,0,0,0,0,0c0,0,0,0,0,0
		c0,0,0,0,0,0c0,0,0,0,0,0c0,0,0,0,0,0c0,0,0,0,0,0L458.9,563.4C459,563.5,459,563.5,458.9,563.4C459,563.4,458.9,563.4,458.9,563.4
		z"/>
	<path class="st0" d="M456.4,563.3C456.4,563.3,456.4,563.3,456.4,563.3C456.4,563.2,456.4,563.2,456.4,563.3
		C456.4,563.2,456.3,563.2,456.4,563.3C456.3,563.2,456.3,563.2,456.4,563.3c-0.1-0.1-0.1-0.1-0.1-0.1c0,0,0,0,0,0c0,0,0,0,0,0
		c0,0,0,0,0,0c0,0,0,0,0,0c0,0,0,0,0,0c0,0,0,0,0,0c0,0,0,0,0,0c0,0,0,0,0,0c0,0,0,0,0,0c0,0,0,0,0,0c0,0,0,0,0,0c0,0,0,0,0,0
		c0,0,0,0,0,0c0,0,0,0,0,0c0,0,0,0,0,0c0,0,0,0,0,0c0,0,0,0,0,0c0,0,0,0,0,0l-15.4-1l6.4-7.3c-0.1,0-0.1-0.1-0.2-0.1
		c-0.1,0-0.1-0.1-0.2-0.1l-7.1,8.1L456.4,563.3C456.4,563.3,456.4,563.3,456.4,563.3C456.4,563.3,456.4,563.3,456.4,563.3z"/>
	<path class="st0" d="M457.9,562.1l-1.4-0.1c0,0,0,0,0,0c0,0,0,0,0,0c0,0,0,0,0,0c0,0,0,0,0,0c0,0,0,0,0,0c0,0,0,0,0,0c0,0,0,0,0,0
		c0,0,0,0,0,0c0,0,0,0,0,0c0,0,0,0,0,0c0,0,0,0,0,0c0,0,0,0,0,0c0.1,0.1,0.1,0.2,0.2,0.3c0,0,0,0,0,0c0,0,0,0,0,0l1.5,0.1
		C458.2,562.5,458,562.3,457.9,562.1z"/>
	<path class="st0" d="M455.6,562.5C455.6,562.5,455.6,562.5,455.6,562.5C455.6,562.5,455.5,562.5,455.6,562.5l-0.1-0.1l-0.1,0
		c0,0,0,0-0.1-0.1c0,0,0,0-0.1-0.1c0,0,0,0-0.1-0.1c0,0,0,0-0.1-0.1c0,0,0,0-0.1-0.1c0,0,0,0-0.1-0.1c0,0,0,0-0.1,0c0,0,0,0-0.1,0
		c0,0,0,0-0.1,0c0,0,0,0,0,0l-13.6-0.9l5.6-6.4c0,0-0.1,0-0.1-0.1c-0.1-0.1-0.1-0.1-0.2-0.2c0,0,0,0,0,0l-6.4,7.3L455.6,562.5
		C455.7,562.6,455.7,562.6,455.6,562.5C455.6,562.6,455.6,562.6,455.6,562.5z"/>
	<path class="st0" d="M457.3,561.4l-1.2-0.1c0,0,0,0,0,0c0,0,0,0,0,0c0,0,0,0,0,0c0,0,0,0,0,0c0,0,0,0,0,0c0,0,0,0,0,0c0,0,0,0,0,0
		c0,0,0,0,0,0c0,0,0,0,0,0c0,0,0,0,0,0c0,0,0,0,0,0c0,0,0,0,0,0c0,0,0,0,0,0c0,0,0,0,0,0c0,0,0,0,0,0c0,0,0,0,0,0c0,0,0,0,0,0.1
		c0,0,0,0,0,0c0,0,0,0,0,0c0,0,0,0,0,0l1.4,0.1C457.6,561.8,457.4,561.6,457.3,561.4z"/>
	<path class="st0" d="M454.8,561.8C454.8,561.8,454.8,561.8,454.8,561.8C454.8,561.8,454.8,561.8,454.8,561.8
		c-0.1-0.1-0.1-0.1-0.1-0.1c0,0,0,0,0,0c0,0,0,0,0,0c0,0,0,0,0,0c0,0,0,0,0,0c0,0,0,0,0,0c0,0,0,0,0,0c0,0,0,0,0,0c0,0,0,0,0,0
		c0,0,0,0,0,0c0,0,0,0,0,0c0,0,0,0,0,0c0,0,0,0,0,0c0,0,0,0,0,0c0,0,0,0,0,0c0,0,0,0,0,0c0,0,0,0,0,0l-11.8-0.8l4.9-5.6c0,0,0,0,0,0
		c-0.1-0.1-0.1-0.1-0.2-0.2c0,0-0.1-0.1-0.1-0.1l-5.6,6.4L454.8,561.8C454.9,561.9,454.9,561.9,454.8,561.8
		C454.9,561.9,454.9,561.8,454.8,561.8z"/>
	<path class="st0" d="M456.8,560.8l-1-0.1c0,0,0,0,0,0c0,0,0,0,0,0c0,0,0,0,0,0c0,0,0,0,0,0c0,0,0,0,0,0c0,0,0,0,0,0c0,0,0,0,0,0
		c0,0,0,0,0,0c0,0,0,0,0,0c0,0,0,0,0,0c0,0,0,0,0,0c0,0,0,0,0,0c0,0,0,0,0,0c0,0.1,0.1,0.2,0.1,0.3l1.2,0.1
		c-0.3-0.3-0.4-0.5-0.4-0.5C456.8,560.9,456.8,560.9,456.8,560.8z"/>
	<path class="st0" d="M454.2,561.2C454.2,561.2,454.2,561.2,454.2,561.2C454.2,561.2,454.2,561.2,454.2,561.2
		C454.1,561.2,454.1,561.2,454.2,561.2c-0.1-0.1-0.1-0.1-0.1-0.1c0,0,0,0,0,0c0,0,0,0,0,0c0,0,0,0,0,0c0,0,0,0,0,0c0,0,0,0,0,0
		c0,0,0,0-0.1,0c0,0,0,0-0.1,0c0,0,0,0-0.1-0.1c0,0,0,0-0.1-0.1c0,0,0,0-0.1-0.1c0,0,0,0-0.1-0.1c0,0,0,0,0,0l-10.1-0.7l4.2-4.8
		c0,0-0.1-0.1-0.1-0.1c-0.1,0-0.1-0.1-0.2-0.1l-4.9,5.6L454.2,561.2z"/>
	<path class="st0" d="M453.4,560.5C453.4,560.5,453.3,560.4,453.4,560.5c-0.1-0.1-0.1-0.1-0.1-0.1c0,0,0,0-0.1-0.1c0,0,0,0-0.1-0.1
		c0,0,0,0-0.1-0.1c-0.1-0.1-0.1-0.1-0.2-0.2l-8.5-0.5l3.5-4c0,0-0.1-0.1-0.1-0.1c0,0-0.1-0.1-0.1-0.1c0,0,0,0,0,0l-4.2,4.8l10.1,0.7
		C453.5,560.6,453.5,560.6,453.4,560.5C453.4,560.5,453.4,560.5,453.4,560.5z"/>
	<path class="st0" d="M456.8,560.6l-0.3-0.3c0,0,0-0.1,0-0.1l-1-0.1c0,0,0,0,0,0.1c0,0.1,0.1,0.1,0.1,0.2c0,0,0,0.1,0.1,0.1
		c0,0,0,0,0,0s0,0,0,0c0,0,0,0,0,0c0,0,0,0,0,0c0,0,0,0,0,0c0,0,0,0,0,0c0,0,0,0,0,0c0,0,0,0,0,0l1,0.1c0-0.1-0.1-0.1-0.1-0.2
		L456.8,560.6z"/>
	<path class="st0" d="M456.1,559.6l-1.1-0.1c0,0,0,0,0,0c0.1,0.1,0.1,0.1,0.2,0.2c0.1,0.1,0.1,0.1,0.2,0.2c0,0,0.1,0.1,0.1,0.1
		l1,0.1C456.3,560,456.2,559.8,456.1,559.6z"/>
	<path class="st0" d="M445.3,558.9l2.8-3.2c0,0,0,0,0-0.1c0,0-0.1-0.1-0.1-0.1c0,0-0.1-0.1-0.1-0.1c0,0,0,0,0,0l-3.5,4l8.5,0.5
		c-0.2-0.2-0.5-0.4-0.7-0.6L445.3,558.9z"/>
	<path class="st0" d="M456,559.6C456,559.6,456,559.5,456,559.6C456,559.5,456,559.5,456,559.6C456,559.5,456,559.5,456,559.6
		c-0.1-0.1-0.1-0.1-0.1-0.1c0,0,0,0,0,0c0,0,0,0,0,0c0,0,0,0,0,0c0,0,0,0,0,0c0,0,0,0,0,0c0,0,0,0,0,0c0,0,0,0,0,0c0,0,0,0,0,0
		c0,0,0,0,0,0c0,0,0,0,0,0c0,0,0,0,0,0l-1.2-0.1l0.1,0.1c0.1,0.1,0.1,0.2,0.2,0.2c0.1,0.1,0.1,0.1,0.2,0.2L456,559.6
		C456,559.6,456,559.6,456,559.6C456,559.6,456,559.6,456,559.6z"/>
	<path class="st0" d="M446.2,558.4l2.3-2.7c0,0,0,0,0,0c-0.1,0-0.1,0.1-0.2,0.1c-0.1,0-0.2,0.1-0.2,0.1c0,0,0-0.1,0-0.1
		c0,0,0,0,0-0.1l-2.8,3.2l6.8,0.4c-0.2-0.2-0.5-0.4-0.6-0.6L446.2,558.4z"/>
	<path class="st0" d="M451.5,558.8c-0.3-0.2-0.5-0.4-0.6-0.6l-3.8-0.2l2.2-2.5c0,0,0,0,0,0c-0.1,0-0.2,0.1-0.3,0.1
		c-0.1,0-0.2,0.1-0.2,0.1c-0.1,0-0.1,0-0.2,0.1l-2.3,2.7L451.5,558.8z"/>
	<path class="st0" d="M455.6,559C455.6,558.9,455.6,558.9,455.6,559C455.5,558.9,455.5,558.9,455.6,559c-0.1-0.1-0.1-0.1-0.1-0.2
		c0,0,0,0,0-0.1c0,0,0,0,0-0.1c0,0,0,0,0-0.1c0,0,0,0,0-0.1c0,0,0,0-0.1-0.1c0,0,0,0,0,0l-1.2-0.1c0,0,0,0,0,0c0,0,0,0,0.1,0.1
		c0,0,0,0,0.1,0.1c0,0,0,0,0,0.1c0,0,0,0,0,0.1c0,0,0,0,0,0.1c0,0,0,0,0,0.1c0,0,0,0,0,0c0,0,0,0,0,0c0,0,0,0,0,0c0,0,0,0,0,0l0,0
		l0,0L455.6,559C455.6,559,455.6,559,455.6,559C455.6,559,455.6,559,455.6,559z"/>
	<path class="st0" d="M450.7,558C450.8,557.9,450.8,557.9,450.7,558c0.1-0.1,0.1-0.1,0.2-0.1c0,0,0.1,0,0.1,0c0,0,0.1,0,0.1,0
		c0,0,0.1,0,0.1,0c0,0,0,0,0.1,0c0,0,0,0,0,0l-3.3-0.2l1.9-2.2c0,0,0,0-0.1,0c-0.1,0-0.2,0.1-0.3,0.1c-0.1,0-0.2,0-0.2,0.1l-2.2,2.5
		l3.8,0.2C450.7,558.1,450.7,558,450.7,558C450.7,558,450.7,558,450.7,558z"/>
	<path class="st0" d="M455.1,558.4C455.1,558.4,455.1,558.3,455.1,558.4c-0.1-0.1-0.1-0.1-0.1-0.1c0,0,0,0-0.1-0.1
		c0,0,0-0.1-0.1-0.1c0,0,0-0.1-0.1-0.1c0,0,0-0.1-0.1-0.1c0,0,0,0,0,0l-1.2-0.1c0,0,0,0,0.1,0.1c0,0,0,0,0.1,0.1c0,0,0,0,0.1,0.1
		c0,0,0,0,0.1,0.1c0,0,0,0,0.1,0.1c0,0,0,0,0.1,0.1c0,0,0,0,0.1,0.1c0,0,0,0,0.1,0.1L455.1,558.4
		C455.2,558.5,455.2,558.5,455.1,558.4C455.2,558.4,455.1,558.4,455.1,558.4z"/>
	<path class="st0" d="M451.4,557.6C451.4,557.6,451.4,557.6,451.4,557.6c0.1-0.1,0.1-0.1,0.1-0.1c0,0,0.1,0,0.1,0c0,0,0.1,0,0.1-0.1
		c0,0,0.1,0,0.1-0.1c0,0,0.1,0,0.1-0.1c0,0,0.1,0,0.1-0.1c0,0,0,0,0,0l-3.2-0.2l1.6-1.8c-0.1,0-0.2,0-0.2,0c-0.1,0-0.2,0-0.3,0.1
		l-1.9,2.2l3.3,0.2C451.3,557.7,451.3,557.7,451.4,557.6C451.3,557.7,451.4,557.6,451.4,557.6z"/>
	<path class="st0" d="M454.6,557.9C454.6,557.8,454.6,557.8,454.6,557.9c-0.1-0.1-0.1-0.1-0.2-0.2c0,0-0.1-0.1-0.1-0.1
		c0,0-0.1-0.1-0.1-0.1c0,0-0.1-0.1-0.1-0.1c0,0,0,0,0,0l-1.1-0.1c0,0,0,0,0,0c0,0,0.1,0.1,0.1,0.1c0,0,0.1,0.1,0.1,0.1
		c0,0,0.1,0.1,0.1,0.1c0,0,0.1,0.1,0.1,0.1c0,0,0,0.1,0.1,0.1c0,0,0,0.1,0.1,0.1c0,0,0,0,0,0L454.6,557.9
		C454.7,557.9,454.7,557.9,454.6,557.9z"/>
	<path class="st0" d="M454,557.2c0,0-0.1-0.1-0.1-0.1c0,0-0.1-0.1-0.1-0.1c0,0-0.1-0.1-0.1-0.1c0,0,0,0,0,0l-3.9-0.3l1.3-1.4
		c-0.1,0-0.2,0-0.2,0c-0.1,0-0.2,0-0.2,0l-1.6,1.8l3.2,0.2c0,0,0,0,0.1-0.1c0,0,0.1,0,0.1-0.1c0,0,0.1,0,0.1-0.1
		c0,0,0.1-0.1,0.1-0.1c0,0,0.1-0.1,0.1-0.1c0,0,0-0.1,0.1-0.1l0.1,0c0,0,0.1,0.1,0.1,0.1c0,0,0.1,0.1,0.1,0.1c0,0,0.1,0.1,0.1,0.1
		c0,0,0.1,0.1,0.1,0.1c0,0,0,0.1,0.1,0.1l1.1,0.1c0,0-0.1-0.1-0.1-0.1C454,557.3,454,557.2,454,557.2z"/>
	<path class="st0" d="M453.6,556.9c0,0-0.1-0.1-0.1-0.1c-0.1,0-0.1-0.1-0.2-0.1c-0.1,0-0.1-0.1-0.2-0.1c-0.1,0-0.1-0.1-0.2-0.1
		c0,0,0,0,0,0l-2.5-0.2l0.9-1c-0.1,0-0.3,0-0.4,0l-1.3,1.4L453.6,556.9z"/>
	<path class="st0" d="M452.6,556.1C452.5,556.1,452.5,556.1,452.6,556.1c-0.1-0.1-0.1-0.1-0.1-0.1c0,0,0-0.1,0-0.1l-1.2-0.1l0.5-0.5
		c-0.1,0-0.2-0.1-0.4-0.1l-0.9,1l2.5,0.2c-0.1,0-0.1-0.1-0.2-0.1C452.7,556.2,452.6,556.1,452.6,556.1z"/>
	<path class="st0" d="M452.4,555.9C452.4,555.8,452.4,555.8,452.4,555.9c-0.1-0.1-0.1-0.1-0.1-0.2c0-0.1-0.1-0.1-0.1-0.2
		c-0.1-0.1-0.1-0.1-0.2-0.1l0,0l0,0c0,0,0,0,0,0c-0.1,0-0.2-0.1-0.2-0.1l-0.5,0.5L452.4,555.9z"/>
	<path class="st0" d="M452,555.4L452,555.4C452,555.4,452,555.4,452,555.4L452,555.4z"/>
</g>
</svg>
