<?xml version="1.0" encoding="utf-8"?>
<!-- Generator: Adobe Illustrator 22.0.1, SVG Export Plug-In . SVG Version: 6.00 Build 0)  -->
<svg version="1.1" id="レイヤー_1" xmlns="http://www.w3.org/2000/svg" xmlns:xlink="http://www.w3.org/1999/xlink" x="0px"
	 y="0px" viewBox="0 0 640 640" style="enable-background:new 0 0 640 640;" xml:space="preserve">
<style type="text/css">
	.st0{fill:none;stroke:#E50012;stroke-width:7.202276e-02;stroke-miterlimit:10;}
</style>
<g>
	<path class="st0" d="M48,574.6c0-0.1,0-0.1,0.1-0.2l-0.5,0.7l0.3,0.2C47.9,575,48,574.8,48,574.6z"/>
	<path class="st0" d="M47.1,576c0,0-0.2,0.1-0.3,0.3c0,0.1-0.1,0.1-0.1,0.2l0.8,0.5c0-0.2,0.1-0.4,0.1-0.7c0-0.1,0-0.1,0-0.2
		l-0.7-0.4C47.1,575.9,47.1,576,47.1,576z"/>
	<path class="st0" d="M55.1,582.1c-0.1-0.1-0.1-0.1-0.2-0.2c-0.1-0.1-0.1-0.1-0.2-0.2c-0.1-0.1-0.1-0.1-0.2-0.2
		c-0.1-0.1-0.2-0.1-0.2-0.2c-0.1-0.1-0.2-0.1-0.3-0.2c-0.1-0.1-0.2-0.1-0.3-0.1c-0.1,0-0.2-0.1-0.3-0.1c-0.1,0-0.3,0-0.4,0
		c-0.1,0-0.1,0-0.2,0l2.5,1.4C55.2,582.2,55.2,582.1,55.1,582.1z"/>
	<path class="st0" d="M46.8,576.9c0,0,0,0.1-0.1,0.1c0,0.1-0.1,0.1-0.2,0.2l0.8,0.5c0.1-0.3,0.1-0.5,0.2-0.8l-0.8-0.5
		C46.7,576.6,46.7,576.8,46.8,576.9z"/>
	<path class="st0" d="M51.9,581.3l6.1,3.4c-0.1-0.3-0.2-0.5-0.3-0.7c-0.1-0.1-0.2-0.2-0.3-0.3c-0.1-0.1-0.2-0.2-0.3-0.2
		c-0.1-0.1-0.2-0.1-0.3-0.2c-0.1-0.1-0.2-0.1-0.3-0.2c-0.1,0-0.2-0.1-0.3-0.1c-0.1,0-0.1-0.1-0.2-0.1c-0.1,0-0.2-0.1-0.2-0.1
		c-0.1,0-0.2-0.1-0.2-0.1c-0.1,0-0.1,0-0.1,0s0-0.1-0.1-0.1c0-0.1-0.1-0.1-0.2-0.2c0,0,0,0,0,0l-2.5-1.4c-0.1,0-0.2,0.1-0.4,0.1
		C52.2,581,52.1,581.1,51.9,581.3z"/>
	<path class="st0" d="M25.4,607.8c-0.1,0.1-0.2,0.3-0.3,0.4c-0.1,0.3-0.3,0.5-0.4,0.8c-0.1,0.2-0.3,0.5-0.4,0.7
		c-0.1,0.2-0.2,0.5-0.4,0.7c-0.1,0.1-0.1,0.3-0.2,0.4l1.8-1.7L25.4,607.8z"/>
	<path class="st0" d="M46.4,577.6c-0.1,0.2,0,0.4,0.2,0.5c0,0,0,0-0.1,0.1l0.7,0.4c0,0,0-0.1,0-0.1c0-0.2,0.1-0.4,0.1-0.7
		c0,0,0,0,0,0l-0.8-0.5C46.5,577.4,46.4,577.5,46.4,577.6z"/>
	<path class="st0" d="M46.4,578.4c-0.1,0.1-0.2,0.3-0.2,0.5l0.9,0.5c0-0.1,0-0.2,0-0.2c0-0.2,0.1-0.4,0.1-0.5l-0.7-0.4
		C46.5,578.2,46.5,578.3,46.4,578.4z"/>
	<path class="st0" d="M51.4,581.8l6.5,3.7c0.1-0.2,0.1-0.3,0.1-0.5l0-0.3c0,0,0,0,0-0.1l-6.1-3.4C51.8,581.4,51.6,581.6,51.4,581.8z
		"/>
	<path class="st0" d="M23.3,611.7c-0.1,0.2-0.2,0.4-0.3,0.6c-0.1,0.2-0.2,0.4-0.3,0.6c0,0,0,0.1-0.1,0.1l4-3.7l-0.4-3
		c-0.1,0.1-0.1,0.2-0.2,0.3c-0.2,0.3-0.3,0.6-0.5,0.8c-0.1,0.1-0.1,0.2-0.2,0.4l0.2,1.4l-1.8,1.7c0,0.1-0.1,0.2-0.1,0.2
		C23.5,611.3,23.4,611.5,23.3,611.7z"/>
	<path class="st0" d="M25.9,602C25.9,602,25.9,602,25.9,602C25.9,602,25.9,602,25.9,602c0,0,0.1,0,0.1,0C25.9,602,25.9,602,25.9,602
		z"/>
	<path class="st0" d="M26.9,604.5c-0.1,0.2-0.1,0.4-0.2,0.6l0.4-0.2l-0.1-0.7C27,604.3,27,604.4,26.9,604.5z"/>
	<path class="st0" d="M46.6,579.7l0,0.1l0.4,0.2c0-0.1,0-0.2,0.1-0.3c0-0.1,0-0.3,0.1-0.4l-0.9-0.5c0,0,0,0,0,0
		C46.2,579.2,46.2,579.5,46.6,579.7z"/>
	<path class="st0" d="M57.6,586.2c0.1-0.1,0.1-0.2,0.2-0.3c0.1-0.1,0.1-0.2,0.1-0.3l-6.5-3.7c-0.1,0.2-0.2,0.4-0.4,0.6L57.6,586.2z"
		/>
	<path class="st0" d="M22.7,613c-0.1,0.1-0.1,0.3-0.2,0.4c-0.1,0.2-0.1,0.3-0.2,0.5c-0.1,0.2-0.1,0.3-0.2,0.5
		c-0.1,0.2-0.1,0.3-0.2,0.5l5.9-5.4l-0.6-4.6c-0.2,0.3-0.3,0.5-0.5,0.8c-0.1,0.2-0.2,0.4-0.4,0.6l0.4,3L22.7,613z"/>
	<path class="st0" d="M26.5,601.6c-0.1,0.1-0.2,0.1-0.3,0.2c-0.1,0.1-0.2,0.1-0.3,0.1c0.1,0,0.2,0,0.4,0c0.1,0,0.2,0,0.3,0l-0.1-0.5
		C26.6,601.6,26.6,601.6,26.5,601.6z"/>
	<path class="st0" d="M46.5,580.7l0.7,0.4c0-0.1,0-0.2-0.1-0.3c0,0,0.1,0,0.1,0l-0.4-0.4c0-0.1,0-0.2,0-0.3l-0.4-0.2l0,0.1
		L46.5,580.7z"/>
	<path class="st0" d="M21.8,615.3c0,0.1-0.1,0.2-0.1,0.3c0,0.1-0.1,0.2-0.1,0.3c0,0.1-0.1,0.2-0.1,0.3c0,0,0,0.1,0,0.1
		c0,0,0,0.1,0,0.2c0,0,0,0.1-0.1,0.2l7.5-6.9l-1-7.4c0,0.1-0.1,0.2-0.1,0.3c0,0.1-0.1,0.2-0.2,0.3c0,0.1-0.1,0.2-0.2,0.4
		c-0.1,0.1-0.1,0.2-0.2,0.4c-0.1,0.1-0.1,0.3-0.2,0.4c0,0,0,0,0,0.1l0.1,0.7l0.1-0.1c0,0-0.1,0.1-0.1,0.1l0.6,4.6l-5.9,5.4
		c0,0,0,0.1,0,0.1C21.8,615.2,21.8,615.2,21.8,615.3z"/>
	<path class="st0" d="M27.5,602c0.1,0,0.2,0,0.3,0l-0.2-1.2c-0.1,0.1-0.2,0.1-0.2,0.2c-0.1,0.1-0.2,0.1-0.3,0.2
		c-0.1,0.1-0.2,0.1-0.3,0.2c-0.1,0-0.1,0.1-0.2,0.1l0.1,0.5c0.1,0,0.1,0,0.2,0C27.2,602,27.4,602,27.5,602z"/>
	<path class="st0" d="M57.2,586.7c0.1-0.1,0.1-0.1,0.1-0.2c0.1-0.1,0.2-0.2,0.2-0.3c0,0,0-0.1,0.1-0.1l-6.6-3.7
		c-0.1,0.2-0.2,0.4-0.3,0.6L57.2,586.7z"/>
	<path class="st0" d="M46.5,580.9l-0.4,0.1l-0.3,0l0,0l1,0.6c0.1-0.1,0.2-0.2,0.2-0.3c0.1-0.1,0.1-0.2,0.1-0.2l-0.7-0.4l0,0
		L46.5,580.9z"/>
	<path class="st0" d="M21.2,617.1c0,0.1-0.1,0.2-0.1,0.3c0,0.1-0.1,0.2-0.1,0.3c0,0.1-0.1,0.2-0.1,0.3c0,0,0,0,0,0l8.9-8.2l-1.4-9.7
		c0,0-0.1,0.1-0.1,0.1c-0.1,0.1-0.2,0.1-0.2,0.2c-0.1,0.1-0.2,0.1-0.2,0.2c-0.1,0.1-0.2,0.1-0.3,0.2c0,0,0,0,0,0l0.2,1.2
		c0.1,0,0.2,0,0.2,0s0,0.1-0.1,0.2c0,0,0,0,0,0l1,7.4l-7.5,6.9c0,0,0,0.1,0,0.1C21.3,616.9,21.2,617,21.2,617.1z"/>
	<path class="st0" d="M50.8,583.1c0,0-0.1,0-0.2,0c-0.1,0-0.3,0.1-0.5,0.1c-0.1,0-0.2,0-0.2,0.1l6.9,3.9c0.1-0.1,0.1-0.1,0.2-0.2
		c0.1-0.1,0.2-0.1,0.2-0.2c0,0,0.1-0.1,0.1-0.1L50.8,583.1C50.8,583.1,50.8,583.1,50.8,583.1z"/>
	<path class="st0" d="M49,583.6l7.4,4.2c0-0.2,0-0.4,0-0.4c0,0,0,0,0,0c0.1-0.1,0.2-0.1,0.2-0.2c0,0,0,0,0,0l-6.9-3.9
		c-0.1,0-0.2,0.1-0.3,0.1C49.3,583.4,49.1,583.5,49,583.6z"/>
	<path class="st0" d="M20.8,618.8c0,0.1-0.1,0.3-0.1,0.4c0,0.1,0,0.2-0.1,0.3l10.3-9.4l-1.5-10.5c0,0-0.1,0.1-0.1,0.1
		c-0.1,0-0.1,0.1-0.2,0.1c-0.1,0.1-0.1,0.1-0.2,0.2c-0.1,0.1-0.2,0.1-0.2,0.2c0,0-0.1,0.1-0.1,0.1l1.4,9.7l-8.9,8.2
		c0,0.1-0.1,0.2-0.1,0.3C20.8,618.6,20.8,618.7,20.8,618.8z"/>
	<path class="st0" d="M45.7,581.3l-0.2,0.3l0.9,0.5c0,0,0.1,0,0.1,0c0,0,0,0,0,0c0.1-0.1,0.2-0.2,0.3-0.3c0,0,0,0,0-0.1l-1-0.6
		L45.7,581.3L45.7,581.3z"/>
	<path class="st0" d="M60.7,590.6L60.7,590.6C60.7,590.7,60.7,590.7,60.7,590.6l4-1.9l0,0l0,0l0.4-0.6l0.3-0.3
		c-0.1,0.1-0.5,0.3-1,0.6c-0.7,0.4-1.8,0.8-2.7,1.3c-0.1,0.1-0.3,0.1-0.4,0.2c-0.1,0.1-0.2,0.1-0.4,0.2c-0.1,0.1-0.2,0.1-0.4,0.2
		c-0.1,0.1-0.2,0.1-0.3,0.2c-0.1,0.1-0.2,0.1-0.3,0.2c0,0-0.1,0-0.1,0l0.4,0.2L60.7,590.6z"/>
	<path class="st0" d="M45.5,581.6l-0.3,0.4c0,0-0.1,0.1-0.1,0.1l0.6,0.3c0.1-0.1,0.2-0.2,0.4-0.2c0.1,0,0.2-0.1,0.3-0.1L45.5,581.6
		L45.5,581.6z"/>
	<path class="st0" d="M48.2,583.9l8.2,4.6c0-0.3,0-0.6,0-0.7l-7.4-4.2c0,0-0.1,0-0.1,0C48.7,583.7,48.4,583.8,48.2,583.9z"/>
	<path class="st0" d="M20.5,620c0,0.1-0.1,0.3-0.1,0.4c0,0.1,0,0.3-0.1,0.4l11.5-10.5L30.3,599c0,0,0,0,0,0c-0.1,0-0.1,0.1-0.2,0.1
		c-0.1,0-0.1,0.1-0.2,0.1c-0.1,0-0.1,0.1-0.2,0.1c-0.1,0-0.1,0.1-0.2,0.1c0,0-0.1,0-0.1,0.1l1.5,10.5l-10.3,9.4c0,0,0,0.1,0,0.1
		C20.6,619.7,20.5,619.9,20.5,620z"/>
	<path class="st0" d="M44.8,582.6l0.5,0.3c0,0,0.1-0.1,0.1-0.1c0.1-0.1,0.2-0.2,0.3-0.3c0,0,0,0,0,0l-0.6-0.3c0,0.1-0.1,0.1-0.1,0.2
		C44.9,582.4,44.9,582.5,44.8,582.6z"/>
	<path class="st0" d="M62.1,590.4c0.1-0.1,0.1-0.2,0.1-0.2c0.1,0.1,0.1,0.1,0.2,0.1c0.2,0.1,0.4,0,0.6-0.2c0.2-0.2,0.3-0.4,0.3-0.4
		c0.4,0.2,0.6-0.1,0.7-0.4c0-0.1,0.1-0.2,0.1-0.2c0.2,0,0.4,0,0.6-0.1c0.1,0,0.2-0.1,0.2-0.1l0,0l-0.2-0.3l-4,1.9
		C61.4,591.1,61.9,590.7,62.1,590.4z"/>
	<path class="st0" d="M47.8,584.1c-0.1,0-0.2,0.1-0.3,0.1l8.8,5c0-0.3,0-0.5,0-0.7l-8.2-4.6c0,0,0,0,0,0
		C48.1,583.9,47.9,584,47.8,584.1z"/>
	<path class="st0" d="M20.3,621.3c0,0.2,0,0.3-0.1,0.5c0,0.1,0,0.2,0,0.2l12.6-11.5l-1.7-12c-0.1,0-0.1,0.1-0.2,0.1
		c-0.1,0-0.1,0.1-0.2,0.1c-0.1,0-0.1,0.1-0.2,0.1c-0.1,0-0.1,0.1-0.2,0.1c-0.1,0-0.1,0.1-0.2,0.1l1.6,11.3l-11.5,10.5c0,0,0,0,0,0
		C20.3,621,20.3,621.1,20.3,621.3z"/>
	<path class="st0" d="M59.6,590.6c0-0.2,0-0.3-0.1-0.3c-0.1-0.1-0.1-0.1-0.2,0c-0.1,0-0.2,0.1-0.3,0.2c0,0-0.1,0.1-0.1,0.1l0.6,0.4
		l0,0l0.1,0l0.3-0.1l0.3-0.1l0,0l-0.4-0.2C59.8,590.5,59.7,590.6,59.6,590.6C59.6,590.6,59.6,590.6,59.6,590.6z"/>
	<path class="st0" d="M58.7,590.9c-0.1,0.1-0.1,0.2-0.2,0.3l1,0.6l0.1-0.1l-0.1-0.6l-0.6-0.4C58.8,590.7,58.8,590.8,58.7,590.9z"/>
	<path class="st0" d="M47,584.5c0,0-0.1,0-0.1,0.1l9.4,5.3c0-0.1,0-0.2,0-0.2c0-0.1,0-0.3,0-0.4l-8.8-5c0,0-0.1,0-0.1,0.1
		C47.3,584.3,47.2,584.4,47,584.5z"/>
	<path class="st0" d="M20.2,622c0,0.1,0,0.2,0,0.2c0,0.2,0,0.3,0,0.5c0,0.1,0,0.2,0,0.3l13.6-12.4l-1.9-13.5c0,0,0,0,0,0.1
		c0,0.1-0.1,0.2-0.1,0.2c0,0.1-0.1,0.2-0.1,0.2c0,0.1-0.1,0.2-0.1,0.2c0,0.1,0,0.2,0,0.2c0,0,0,0,0,0.1c0,0-0.1,0.1-0.2,0.1
		c-0.1,0-0.1,0.1-0.2,0.2l1.7,12L20.2,622z"/>
	<path class="st0" d="M44.5,583c0,0,0,0.1-0.1,0.1l0.4,0.2c0.1-0.1,0.2-0.2,0.2-0.3c0-0.1,0.1-0.1,0.1-0.2l-0.5-0.3c0,0,0,0,0,0
		C44.7,582.8,44.6,582.9,44.5,583z"/>
	<path class="st0" d="M58.4,591.3c0,0.1,0,0.3-0.1,0.4l0.8,0.4l0.3-0.3l0,0l0.1-0.1l-1-0.6C58.5,591.2,58.5,591.2,58.4,591.3
		C58.4,591.3,58.4,591.3,58.4,591.3z"/>
	<path class="st0" d="M20.2,623.7c0,0.1,0,0.1,0,0.2l14.3-13.1L32.5,596c0,0.1-0.1,0.1-0.1,0.2c-0.1,0.1-0.1,0.2-0.2,0.3
		c-0.1,0.1-0.1,0.2-0.2,0.3c-0.1,0.1-0.1,0.2-0.2,0.2c0,0.1-0.1,0.1-0.1,0.2l1.9,13.5L20.1,623c0,0.1,0,0.1,0,0.2
		C20.1,623.4,20.1,623.6,20.2,623.7z"/>
	<path class="st0" d="M44.1,583.6l0.4,0.2c0-0.1,0.1-0.1,0.1-0.2c0.1-0.1,0.1-0.2,0.2-0.3c0,0,0,0,0,0l-0.4-0.2
		c0,0.1-0.1,0.1-0.1,0.2C44.3,583.5,44.2,583.5,44.1,583.6z"/>
	<path class="st0" d="M46.3,584.9l9.8,5.6c0-0.2,0.1-0.4,0.1-0.6l-9.4-5.3c-0.1,0-0.2,0.1-0.3,0.1C46.6,584.8,46.4,584.8,46.3,584.9
		z"/>
	<path class="st0" d="M20.6,624.3L20.6,624.3l0.2,0c0,0,0,0,0,0.1l14.7-13.4l-2-14.5c0,0-0.1,0.1-0.1,0.1l-0.1,0
		c0-0.1,0.1-0.2,0.1-0.3c0,0,0-0.1,0.1-0.1l-0.1-1.1c-0.1,0.1-0.1,0.2-0.2,0.3c-0.1,0.1-0.1,0.2-0.2,0.3c-0.1,0.1-0.1,0.2-0.2,0.3
		c0,0-0.1,0.1-0.1,0.1l2.1,14.8l-14.3,13.1C20.3,624.1,20.4,624.3,20.6,624.3z"/>
	<path class="st0" d="M46,585.1c-0.1,0-0.1,0.1-0.2,0.1l10.3,5.8c0-0.2,0.1-0.3,0.1-0.5c0,0,0-0.1,0-0.1l-9.8-5.6c0,0,0,0,0,0
		C46.2,585,46.1,585,46,585.1z"/>
	<path class="st0" d="M43.9,584c0,0,0,0.1-0.1,0.1l0.5,0.3c0-0.1,0.1-0.2,0.1-0.3c0-0.1,0.1-0.1,0.1-0.2l-0.4-0.2c0,0,0,0,0,0.1
		C44,583.8,44,583.9,43.9,584z"/>
	<path class="st0" d="M58.2,592.1c0,0,0,0.1,0,0.1l0.6,0.3c0,0,0-0.1,0.1-0.1c0.1-0.2,0.2-0.3,0.2-0.3l0.1-0.1l0,0l-0.8-0.4
		C58.3,591.8,58.3,592,58.2,592.1z"/>
	<path class="st0" d="M43.6,584.6l0.5,0.3c0,0,0-0.1,0-0.1c0-0.1,0.1-0.2,0.1-0.4c0,0,0,0,0,0l-0.5-0.3c0,0.1-0.1,0.2-0.1,0.2
		C43.7,584.4,43.7,584.5,43.6,584.6z"/>
	<path class="st0" d="M45.4,585.5C45.3,585.5,45.3,585.6,45.4,585.5l10.6,6c0-0.1,0-0.2,0.1-0.3c0-0.1,0-0.2,0.1-0.3l-10.3-5.8
		c0,0-0.1,0.1-0.1,0.1C45.6,585.4,45.5,585.5,45.4,585.5z"/>
	<path class="st0" d="M33.6,595.7c0.1-0.1,0.1-0.2,0.2-0.3c0.1-0.1,0.1-0.2,0.2-0.3c0,0,0-0.1,0.1-0.1l-0.1-0.9
		c0,0.1-0.1,0.2-0.1,0.2c0,0,0,0-0.1,0.1c-0.1,0.1-0.1,0.2-0.2,0.3c-0.1,0.1-0.1,0.2-0.2,0.3c0,0,0,0,0,0l0.1,1.1c0,0,0-0.1,0.1-0.1
		C33.5,595.9,33.5,595.8,33.6,595.7z"/>
	<path class="st0" d="M21,625l15.2-13.9l-2.1-15.4c0,0,0,0,0,0c-0.1,0.1-0.2,0.2-0.3,0.3c-0.1,0.1-0.2,0.2-0.3,0.3
		c-0.1,0.1-0.1,0.1-0.2,0.2l2,14.5l-14.7,13.4c0,0.1,0.1,0.3,0.2,0.5C20.9,624.9,21,625,21,625z"/>
	<path class="st0" d="M57.9,592.7l0.5,0.3c0.1-0.1,0.1-0.1,0.2-0.2c0.1-0.1,0.1-0.2,0.2-0.2l-0.6-0.3
		C58.1,592.4,58.1,592.5,57.9,592.7C58,592.7,58,592.7,57.9,592.7z"/>
	<path class="st0" d="M57.6,593.2l0.4,0.2c0.1-0.1,0.2-0.2,0.2-0.3c0,0,0.1-0.1,0.1-0.1l-0.5-0.3c-0.1,0.1-0.1,0.2-0.2,0.3
		C57.7,593,57.7,593.1,57.6,593.2z"/>
	<path class="st0" d="M21.4,625.4C21.4,625.4,21.5,625.5,21.4,625.4L37,611.2L34.8,595c-0.1,0.1-0.1,0.1-0.2,0.2
		c-0.1,0.1-0.2,0.2-0.3,0.3c-0.1,0.1-0.2,0.2-0.2,0.2l2.1,15.4L21,625C21.1,625.2,21.2,625.3,21.4,625.4z"/>
	<path class="st0" d="M34.2,594.7c0-0.1,0-0.2,0.1-0.3c0-0.1,0.1-0.2,0.2-0.3c0.1-0.1,0.1-0.2,0.2-0.3c0,0,0,0,0,0l-0.1-0.8
		c0,0,0,0,0,0c-0.1,0.1-0.2,0.2-0.2,0.4c-0.1,0.1-0.1,0.2-0.2,0.3c-0.1,0.1-0.1,0.2-0.2,0.3c0,0,0,0,0,0L34,595
		C34,594.9,34.1,594.8,34.2,594.7C34.1,594.7,34.2,594.7,34.2,594.7z"/>
	<path class="st0" d="M43.5,585C43.4,585.1,43.4,585.1,43.5,585l1.2,0.8l-0.3-0.3l-0.3-0.4c0-0.1,0-0.1,0.1-0.3l-0.5-0.3
		c0,0,0,0,0,0.1C43.5,584.8,43.5,584.9,43.5,585z"/>
	<path class="st0" d="M45.1,585.7c-0.1,0.1-0.2,0.1-0.2,0.2l10.9,6.2c0-0.1,0-0.1,0.1-0.2c0-0.1,0.1-0.2,0.1-0.3l-10.6-6
		C45.2,585.6,45.2,585.7,45.1,585.7z"/>
	<path class="st0" d="M35.1,593.1c0.1-0.1,0.1-0.1,0.2-0.2l-0.1-0.7c0,0-0.1,0.1-0.1,0.1c-0.1,0.1-0.2,0.2-0.3,0.4
		c-0.1,0.1-0.2,0.2-0.3,0.3l0.1,0.8c0.1-0.1,0.1-0.2,0.2-0.3C34.9,593.3,35,593.2,35.1,593.1z"/>
	<path class="st0" d="M57.3,593.5C57.3,593.5,57.3,593.5,57.3,593.5l0.4,0.3c0,0,0.1-0.1,0.1-0.1c0.1-0.1,0.2-0.2,0.2-0.3
		c0,0,0,0,0,0l-0.4-0.2c0,0-0.1,0.1-0.1,0.1C57.4,593.4,57.4,593.4,57.3,593.5z"/>
	<path class="st0" d="M44.7,585.8l-1.3-0.7c0,0.1-0.1,0.2-0.1,0.3c0,0.1,0,0.2-0.1,0.3l12.3,7c0,0,0-0.1,0.1-0.1
		c0-0.1,0.1-0.2,0.1-0.4l-10.9-6.2c0,0,0,0,0,0L44.7,585.8z"/>
	<path class="st0" d="M37.8,611.4l-2.4-17c-0.1,0.1-0.2,0.2-0.2,0.2c-0.1,0.1-0.2,0.2-0.3,0.3c0,0-0.1,0.1-0.1,0.1l2.3,16.2
		l-15.6,14.2c0.2,0.1,0.4,0.2,0.7,0.2L37.8,611.4z"/>
	<path class="st0" d="M35.9,592.1l-0.1-0.5c-0.1,0.1-0.2,0.2-0.3,0.3c-0.1,0.1-0.2,0.2-0.4,0.4l0.1,0.7c0-0.1,0.1-0.1,0.1-0.2
		C35.5,592.5,35.7,592.3,35.9,592.1z"/>
	<path class="st0" d="M22.5,626.1C22.5,626.1,22.5,626.1,22.5,626.1c0.1,0.1,0.1,0.1,0.1,0.1l16-14.7l-2.5-17.8
		c-0.1,0.1-0.2,0.2-0.3,0.3c-0.1,0.1-0.2,0.2-0.3,0.3c0,0,0,0-0.1,0.1l2.4,17l-15.6,14.3c0.1,0,0.1,0,0.2,0
		C22.4,625.8,22.4,625.9,22.5,626.1z"/>
	<path class="st0" d="M56.9,593.9l0.5,0.3c0.1-0.1,0.2-0.1,0.2-0.2c0,0,0.1-0.1,0.1-0.1l-0.4-0.2c-0.1,0.1-0.1,0.1-0.2,0.2
		C57,593.8,56.9,593.8,56.9,593.9z"/>
	<path class="st0" d="M43.2,586.1L43.2,586.1l12.2,6.9c0,0,0-0.1,0.1-0.1c0-0.1,0.1-0.2,0.1-0.3l-12.3-7c0,0,0,0.1,0,0.1
		C43.2,585.9,43.2,586,43.2,586.1z"/>
	<path class="st0" d="M56.6,594.1c-0.1,0-0.1,0.1-0.2,0.1l0.5,0.3c0,0,0.1-0.1,0.1-0.1c0.1-0.1,0.2-0.1,0.2-0.2c0,0,0,0,0,0
		l-0.5-0.3c0,0,0,0,0,0C56.8,594,56.7,594,56.6,594.1z"/>
	<path class="st0" d="M55.3,593.6l0-0.2c0-0.1,0.1-0.2,0.1-0.3l-12.2-6.9l0.3,0.7L55.3,593.6z"/>
	<path class="st0" d="M35.9,592c0.2-0.2,0.3-0.3,0.3-0.4c0,0,0,0,0,0c0,0.1,0.2,0.2,0.3,0.3l-0.1-1c-0.1,0.1-0.2,0.2-0.2,0.3
		c0,0,0,0,0,0c-0.1,0-0.2,0.1-0.3,0.3c0,0,0,0-0.1,0L35.9,592C35.9,592.1,35.9,592.1,35.9,592z"/>
	<path class="st0" d="M22.9,626.6l16.4-15L36.7,593c-0.2,0.2-0.4,0.4-0.6,0.6c0,0,0,0-0.1,0.1l2.5,17.8l-16,14.7
		C22.7,626.4,22.8,626.5,22.9,626.6z"/>
	<path class="st0" d="M37,592.2l0.1,0.5c-0.1,0.1-0.2,0.2-0.3,0.3c0,0,0,0-0.1,0.1l2.6,18.6l-16.4,15c0,0,0.1,0,0.1,0.1
		c0.2,0.1,0.3,0.2,0.5,0.2L40,611.8l-2.9-21.1c-0.1,0-0.2,0-0.3,0c-0.1,0-0.2,0.1-0.3,0.2c0,0,0,0,0,0l0.1,1c0,0,0,0,0.1,0
		C36.7,592,36.9,592.1,37,592.2z"/>
	<path class="st0" d="M43.4,587.1c0,0-0.1,0.1-0.1,0.1l13.3,7.5c0,0,0.1,0,0.1-0.1c0.1-0.1,0.1-0.1,0.2-0.2c0,0,0.1-0.1,0.1-0.1
		l-0.5-0.3c0,0,0,0,0,0c-0.1,0.1-0.1,0.1-0.2,0.1c-0.1,0.1-0.2,0.1-0.2,0.1c0,0,0,0,0,0l-0.2-0.2l-0.2-0.2l-0.2-0.2l0-0.4l-11.8-6.7
		l0,0C43.5,587,43.5,587.1,43.4,587.1z"/>
	<path class="st0" d="M43,587.5C43,587.5,42.9,587.6,43,587.5l13.2,7.6c0,0,0,0,0.1,0c0.1,0,0.1-0.1,0.2-0.1c0,0,0.1-0.1,0.1-0.1
		l-13.3-7.5c0,0,0,0-0.1,0.1C43.1,587.4,43.1,587.4,43,587.5z"/>
	<path class="st0" d="M24.1,626.9c0,0.1,0,0.1,0,0.1l16.5-15.2l-3-21.2c0,0,0,0,0,0c-0.1,0-0.2,0-0.3,0c-0.1,0-0.2,0-0.3,0
		c0,0,0,0,0,0l2.9,21.1l-16.5,15.1c0,0,0.1,0,0.1,0C23.9,626.9,24.1,626.9,24.1,626.9z"/>
	<path class="st0" d="M24.7,627.3L41.4,612l-3-21.1c0,0,0,0-0.1,0c-0.1,0-0.2-0.1-0.3-0.1c-0.1,0-0.2,0-0.3-0.1l3,21.2L24.2,627
		c0,0,0,0,0,0.1C24.3,627.2,24.4,627.3,24.7,627.3z"/>
	<path class="st0" d="M42.8,587.7C42.8,587.7,42.7,587.7,42.8,587.7c-0.1,0.1,0.1,0.2,0.3,0.3c0.4,0.2,1,0.7,1.1,0.9l11.5,6.5
		c0,0,0.1,0,0.1-0.1c0.1,0,0.1-0.1,0.2-0.1c0,0,0.1-0.1,0.1-0.1l-13.3-7.5C42.9,587.6,42.8,587.7,42.8,587.7z"/>
	<path class="st0" d="M25.3,627.2c0.1,0,0.2,0,0.3-0.1l16.4-15l-3-21.4c0,0.1-0.1,0.1-0.1,0.2c0,0.1-0.1,0.1-0.1,0.2
		c0,0-0.1,0-0.2-0.1c-0.1,0-0.1,0-0.2-0.1l3,21.1l-16.7,15.3c0,0,0,0,0.1,0C24.9,627.3,25.1,627.3,25.3,627.2z"/>
	<path class="st0" d="M44.2,588.9c0,0,0,0.1,0,0.3c0,0,0,0.1,0,0.1l10.8,6.1c0,0,0,0,0,0c0.1,0,0.1,0,0.2,0c0.1,0,0.1,0,0.2,0
		c0.1,0,0.1,0,0.2-0.1c0,0,0,0,0.1,0L44.2,588.9C44.2,588.9,44.2,588.9,44.2,588.9z"/>
	<path class="st0" d="M43.9,589.6c-0.1,0-0.3-0.1-0.6-0.3c0,0-0.3-0.4-0.7-0.7c-0.2-0.1-0.4-0.2-0.5-0.2c-0.1,0-0.2,0-0.3,0
		c0,0,0,0-0.1,0l12.6,7.1c0-0.1,0.1-0.1,0.1-0.2l0.2-0.1c0.1,0,0.1,0.1,0.2,0.1c0.1,0,0.1,0,0.2,0.1c0.1,0,0.1,0,0.2,0l-10.8-6.1
		c0,0.1,0,0.1-0.1,0.2C44.2,589.6,44.1,589.6,43.9,589.6z"/>
	<path class="st0" d="M25.6,627.2c0.1,0,0.2-0.1,0.4-0.1c0.2-0.1,0.4-0.1,0.6-0.2c0.1,0,0.2-0.1,0.3-0.1l15.8-14.5l-3.1-22.1
		c-0.1,0.1-0.1,0.1-0.2,0.2c-0.1,0.1-0.2,0.2-0.2,0.2c0,0-0.1,0.1-0.1,0.1l3,21.4L25.6,627.2z"/>
	<path class="st0" d="M27.8,626.3c0.2-0.1,0.3-0.2,0.5-0.2l15-13.7l-3.2-22.7c0,0-0.1,0.1-0.1,0.1c-0.1,0.1-0.1,0.1-0.2,0.2
		c-0.1,0.1-0.1,0.1-0.2,0.2c0,0,0,0,0,0l3.1,22.1l-15.8,14.5c0.1,0,0.2-0.1,0.4-0.2C27.4,626.5,27.6,626.4,27.8,626.3z"/>
	<path class="st0" d="M41.5,588.6C41.4,588.6,41.4,588.6,41.5,588.6C41.4,588.7,41.4,588.7,41.5,588.6l12.7,7.3c0,0,0,0,0,0
		c0-0.1,0.1-0.2,0.1-0.2c0,0,0-0.1,0-0.1l-12.6-7.1c0,0-0.1,0-0.1,0.1C41.6,588.5,41.5,588.6,41.5,588.6z"/>
	<path class="st0" d="M29,625.7c0.2-0.1,0.4-0.2,0.6-0.3c0.1-0.1,0.3-0.1,0.4-0.2l13.9-12.8l-3.2-23.2c0,0,0,0,0,0
		c-0.1,0-0.1,0.1-0.2,0.2c-0.1,0.1-0.1,0.1-0.2,0.2c0,0-0.1,0.1-0.1,0.1l3.2,22.7l-15,13.7c0,0,0.1,0,0.1,0
		C28.6,625.9,28.8,625.8,29,625.7z"/>
	<path class="st0" d="M41.2,588.9c0,0-0.1,0-0.1,0.1l11.2,6.3c0.1,0,0.1,0,0.2,0c0,0,0,0,0,0c0,0,0.1,0,0.1,0c0,0,0.1,0,0.1,0.1
		c0,0,0.1,0,0.1,0.1c0,0,0.1,0,0.1,0.1c0,0,0.1,0,0.1,0.1c0,0,0.1,0,0.1,0.1c0,0,0,0,0.1,0.1c0,0,0.1,0.1,0.1,0.1
		c0,0,0.1,0.1,0.1,0.1c0,0,0,0,0.1,0.1l0.5,0.3c0,0,0-0.1,0.1-0.1c0-0.1,0.1-0.1,0.1-0.2l-12.8-7.2
		C41.4,588.7,41.3,588.8,41.2,588.9z"/>
	<path class="st0" d="M53.6,596.1c0.1,0.1,0.1,0.1,0.1,0.1c0.1,0.1,0.1,0.1,0.1,0.1c0,0,0,0,0,0c0,0,0-0.1,0.1-0.1l-0.5-0.3
		c0,0,0,0,0.1,0.1C53.5,596,53.6,596.1,53.6,596.1z"/>
	<path class="st0" d="M40.8,589.1c-0.1,0-0.1,0.1-0.2,0.1l3.2,23.2l-13.9,12.8c0,0,0.1,0,0.1-0.1c0.2-0.1,0.4-0.2,0.5-0.3
		c0.2-0.1,0.4-0.2,0.5-0.3c0.3-0.1,0.4-0.3,0.5-0.3c0,0,0,0,0,0c0,0,0.1,0,0.1-0.1l12.7-11.6l-3.2-23.1l10.6,6
		c0-0.1,0.1-0.1,0.2-0.2c0.1,0,0.1,0,0.2,0c0,0,0,0,0,0L41,588.9c0,0,0,0-0.1,0.1C40.9,589,40.9,589.1,40.8,589.1z"/>
	<path class="st0" d="M32.6,623.5c0.2-0.1,0.3-0.2,0.5-0.4c0.2-0.1,0.3-0.2,0.5-0.4c0.2-0.1,0.3-0.2,0.5-0.4
		c0.2-0.1,0.3-0.2,0.5-0.4c0.1-0.1,0.3-0.2,0.4-0.4c0.1-0.1,0.3-0.2,0.4-0.4c0.1-0.1,0.3-0.2,0.4-0.3l2.7-2.4c0,0,0,0,0.1,0
		c0.1-0.1,0.2-0.2,0.4-0.3c0.1-0.1,0.2-0.2,0.3-0.3c0.1-0.1,0.2-0.2,0.3-0.3c0.1-0.1,0.2-0.2,0.3-0.3c0.1-0.1,0.2-0.2,0.3-0.3
		c0.1-0.1,0.2-0.2,0.3-0.3c0.1-0.1,0.2-0.2,0.3-0.3l0,0c0,0,0.1,0,0.2,0c0,0,0,0,0.1,0l3.9-3.6l-3.1-22.4l10.4,5.9c0,0,0,0-0.1-0.1
		c0,0-0.1-0.1-0.1-0.1c0,0-0.1-0.1-0.1-0.1c0,0-0.1-0.1-0.1-0.1c0-0.1-0.1-0.1-0.1-0.1c0-0.1,0-0.1,0-0.2l-10.6-6l3.2,23.1
		l-12.7,11.6c0.1-0.1,0.2-0.2,0.4-0.3C32.3,623.8,32.5,623.7,32.6,623.5z"/>
	<path class="st0" d="M52.7,596.4C52.7,596.3,52.6,596.3,52.7,596.4c-0.1-0.1-0.2-0.1-0.2-0.1c0,0-0.1,0-0.1-0.1c0,0-0.1,0-0.1-0.1
		L52.7,596.4C52.7,596.4,52.7,596.4,52.7,596.4z"/>
	<path class="st0" d="M45,612.6l-3.9,3.6c0.1,0,0.1,0,0.2-0.1c0.1,0,0.1-0.1,0.2-0.1c0.1,0,0.1-0.1,0.2-0.1c0.1,0,0.1-0.1,0.2-0.1
		c0.1,0,0.1-0.1,0.2-0.2c0.1-0.1,0.1-0.1,0.2-0.2c0.1-0.1,0.1-0.1,0.2-0.2c0.1-0.1,0.1-0.1,0.2-0.2c0.1-0.1,0.1-0.1,0.2-0.2
		c0.1-0.1,0.1-0.1,0.2-0.2c0.1-0.1,0.1-0.1,0.2-0.2c0.1-0.1,0.1-0.1,0.2-0.2c0.1-0.1,0.1-0.1,0.2-0.2c0,0,0.1-0.1,0.1-0.1s0,0,0,0
		l1.7-1.6l-3-21.7l11,6.2c0,0,0,0,0-0.1c0-0.1-0.1-0.2-0.1-0.2c0-0.1-0.1-0.1-0.1-0.2c0,0-0.1-0.1-0.1-0.1c0,0-0.1-0.1-0.1-0.1
		c-0.1,0-0.1-0.1-0.2-0.1c0,0,0,0,0,0l-0.5-0.3c0,0,0,0,0,0c0,0,0,0,0,0c0,0,0,0,0,0l-10.4-5.9L45,612.6z"/>
	<path class="st0" d="M36.2,620.7c0.1-0.1,0.3-0.2,0.4-0.4c0.1-0.1,0.3-0.2,0.4-0.4c0.1-0.1,0.3-0.2,0.4-0.4
		c0.1-0.1,0.3-0.2,0.4-0.4c0.1-0.1,0.2-0.2,0.4-0.4c0.1-0.1,0.2-0.2,0.3-0.3l-2.7,2.4c0,0,0,0,0,0C36,620.9,36.1,620.8,36.2,620.7z"
		/>
	<path class="st0" d="M43.9,614.6c0,0,0,0.1,0.1,0.2l1.4-1.2c0.1-0.4,0.3-0.7,0.4-1.1c0.1-0.2,0.2-0.4,0.2-0.6l-2.8-20.1l10.4,5.9
		c0,0,0,0,0,0c0-0.1,0-0.2,0-0.4l-11-6.2l3,21.7l-1.7,1.6c0,0,0,0,0,0.1C43.8,614.5,43.8,614.5,43.9,614.6z"/>
	<path class="st0" d="M44,615c0,0.1,0,0.1,0.1,0.2c0,0,0,0,0,0l0.9-0.8c0.1-0.2,0.2-0.5,0.3-0.7c0,0,0-0.1,0-0.1l-1.4,1.2
		c0,0,0,0,0,0C44,614.9,44,614.9,44,615z"/>
	<path class="st0" d="M45.9,611.9c0.1-0.2,0.1-0.3,0.2-0.4c0.1-0.2,0.1-0.4,0.2-0.5l-2.6-18.4l9.6,5.4c0,0,0-0.1,0-0.1c0,0,0,0,0,0
		c0-0.1,0.1-0.1,0.1-0.2l-10.4-5.9L45.9,611.9z"/>
	<path class="st0" d="M44.2,615.5C44.2,615.6,44.2,615.6,44.2,615.5l0.5-0.4c0-0.1,0-0.1,0.1-0.2c0.1-0.2,0.1-0.4,0.2-0.6l-0.9,0.8
		c0,0.1,0,0.1,0.1,0.2C44.2,615.4,44.2,615.5,44.2,615.5z"/>
	<path class="st0" d="M46.6,610l-2.3-16.8l8.9,5.1c0-0.1,0-0.1,0.1-0.2c0-0.1,0-0.1,0.1-0.1l-9.6-5.4l2.6,18.4
		c0.1-0.2,0.1-0.3,0.2-0.5C46.5,610.2,46.6,610.1,46.6,610z"/>
	<path class="st0" d="M44.3,615.7c0,0.1,0.1,0.2,0.1,0.2c0,0,0,0,0,0.1l0.1-0.1c0,0,0,0,0-0.1c0,0,0-0.1,0.1-0.2c0,0,0-0.1,0.1-0.2
		c0-0.1,0.1-0.2,0.1-0.4l-0.5,0.4C44.2,615.6,44.2,615.7,44.3,615.7z"/>
	<path class="st0" d="M46.7,609.8C46.7,609.9,46.8,609.9,46.7,609.8c0.1,0,0.1,0,0.2,0c0,0,0.1,0,0.1,0c0,0,0.1,0,0.1,0c0,0,0,0,0,0
		l-2.2-15.9l8.2,4.7c0-0.1,0.1-0.1,0.1-0.2c0,0,0-0.1,0-0.1l-8.9-5.1l2.3,16.8C46.7,609.9,46.7,609.8,46.7,609.8
		C46.7,609.8,46.7,609.8,46.7,609.8z"/>
	<path class="st0" d="M44.4,616.3C44.4,616.3,44.4,616.3,44.4,616.3C44.4,616.3,44.4,616.3,44.4,616.3c0,0,0-0.1,0-0.1
		C44.4,616.3,44.4,616.3,44.4,616.3z"/>
	<path class="st0" d="M47.2,609.7C47.2,609.7,47.3,609.6,47.2,609.7c0.1-0.1,0.1-0.1,0.2-0.1c0,0,0.1,0,0.1-0.1c0,0,0,0,0,0
		l-2.1-14.9l7.6,4.3c0,0,0,0,0,0c0-0.1,0.1-0.2,0.1-0.2c0,0,0,0,0,0l-8.2-4.7l2.2,15.9C47.1,609.8,47.1,609.8,47.2,609.7
		C47.2,609.7,47.2,609.7,47.2,609.7z"/>
	<path class="st0" d="M44.4,616.2C44.4,616.2,44.4,616.2,44.4,616.2C44.4,616.2,44.4,616.2,44.4,616.2c0-0.1,0-0.1,0.1-0.2
		c0,0,0-0.1,0-0.1l-0.1,0.1c0,0,0,0,0,0C44.4,616.1,44.4,616.1,44.4,616.2z"/>
	<path class="st0" d="M47.5,609.5C47.5,609.4,47.5,609.4,47.5,609.5c0.1-0.1,0.1-0.1,0.2-0.1c0,0,0.1-0.1,0.1-0.1
		c0,0,0.1-0.1,0.1-0.1c0,0,0,0,0.1-0.1l-0.2-1.2l0,0c0,0,0,0,0,0c0,0,0,0,0,0c0,0,0,0,0,0l-1.8-12.7l6.9,3.9c0,0,0-0.1,0-0.1
		c0-0.1,0-0.1,0.1-0.2l-7.6-4.3L47.5,609.5z"/>
	<path class="st0" d="M47.8,607.7C47.8,607.7,47.8,607.7,47.8,607.7c0.1-0.1,0.1-0.1,0.1-0.1c0,0,0,0,0-0.1c0,0,0,0,0-0.1
		c0,0,0-0.1,0-0.1c0,0,0,0,0-0.1l-1.6-11.5l6.3,3.6c0-0.1,0.1-0.1,0.1-0.2c0,0,0-0.1,0-0.1l-6.9-3.9l1.8,12.7
		C47.7,607.8,47.7,607.8,47.8,607.7C47.7,607.8,47.7,607.8,47.8,607.7z"/>
	<path class="st0" d="M47.9,609C48,609,48,609,47.9,609c0.1-0.1,0.1-0.1,0.1-0.2c0,0,0,0,0-0.1c0,0,0,0,0,0c0,0,0,0,0,0c0,0,0,0,0,0
		l-0.1-1.1l-0.4,0.3L47.9,609C47.9,609.1,47.9,609.1,47.9,609C47.9,609.1,47.9,609,47.9,609z"/>
	<path class="st0" d="M48.3,608.6C48.3,608.6,48.3,608.6,48.3,608.6C48.3,608.6,48.3,608.6,48.3,608.6c0.1-0.1,0.1-0.1,0.1-0.1
		c0,0,0,0,0,0c0,0,0,0,0,0c0,0,0,0,0,0c0,0,0,0,0,0c0,0,0,0,0,0c0,0,0,0,0,0c0,0,0,0,0,0c0,0,0,0,0,0c0,0,0,0,0,0l-0.1-1
		c0,0-0.1,0.1-0.1,0.1c0,0-0.1,0.1-0.1,0.1l-0.1,0.1L48.3,608.6C48.2,608.7,48.2,608.7,48.3,608.6C48.3,608.7,48.3,608.7,48.3,608.6
		z"/>
	<path class="st0" d="M48,607.3C48,607.3,48,607.3,48,607.3L48,607.3L48,607.3c0.1-0.1,0.1-0.1,0.1-0.1c0,0,0,0,0,0c0,0,0,0,0,0
		c0,0,0,0,0,0c0,0,0,0,0,0c0,0,0,0,0,0c0,0,0,0,0,0c0,0,0,0,0,0c0,0,0,0,0,0c0,0,0,0,0,0c0,0,0,0,0,0c0,0,0,0,0,0c0,0,0,0,0,0
		c0,0,0,0,0,0c0,0,0,0,0,0c0,0,0,0,0,0c0,0,0,0,0,0c0,0,0,0,0,0c0,0,0,0,0,0c0,0,0,0,0,0c0,0,0,0,0,0l-1.4-10.4l5.7,3.2
		c0,0,0,0,0-0.1c0-0.1,0.1-0.1,0.1-0.2c0,0,0,0,0,0l-6.3-3.6L48,607.3z"/>
	<path class="st0" d="M48.6,608.3C48.6,608.2,48.6,608.2,48.6,608.3C48.6,608.2,48.6,608.2,48.6,608.3
		C48.7,608.2,48.7,608.2,48.6,608.3C48.7,608.2,48.7,608.2,48.6,608.3c0.1-0.1,0.1-0.1,0.1-0.1c0,0,0,0,0,0c0,0,0,0,0,0c0,0,0,0,0,0
		c0,0,0,0,0,0c0,0,0,0,0,0c0,0,0,0,0,0c0,0,0,0,0,0c0,0,0,0,0,0c0,0,0,0,0,0c0,0,0,0,0,0c0,0,0,0,0,0c0,0,0,0,0,0c0,0,0,0,0,0
		c0,0,0,0,0,0c0,0,0,0,0,0l-0.1-0.9c0,0,0,0,0,0c0,0,0,0,0,0c0,0,0,0,0,0c0,0,0,0,0,0c0,0,0,0,0,0c0,0,0,0,0,0c0,0,0,0,0,0
		c0,0,0,0,0,0c0,0,0,0,0,0c0,0,0,0,0,0c0,0,0,0,0,0c0,0,0,0,0,0c0,0,0,0,0,0c0,0,0,0,0,0c0,0,0,0,0,0c0,0,0,0,0,0c0,0,0,0,0,0
		c0,0,0,0,0,0c0,0,0,0,0,0c0,0,0,0,0,0c0,0,0,0,0,0c0,0,0,0,0,0c0,0,0,0,0,0c0,0,0,0,0,0L48.6,608.3
		C48.6,608.3,48.6,608.3,48.6,608.3C48.6,608.3,48.6,608.3,48.6,608.3z"/>
	<path class="st0" d="M48.4,606.7C48.4,606.7,48.4,606.7,48.4,606.7C48.4,606.7,48.4,606.7,48.4,606.7
		C48.4,606.7,48.4,606.7,48.4,606.7C48.4,606.7,48.4,606.7,48.4,606.7C48.4,606.7,48.4,606.7,48.4,606.7
		C48.4,606.6,48.4,606.6,48.4,606.7c0.1-0.1,0.1-0.1,0.1-0.1c0,0,0,0,0,0c0,0,0,0,0,0c0,0,0,0,0,0c0,0,0,0,0,0c0,0,0,0,0,0
		c0,0,0,0,0,0c0,0,0,0,0,0c0,0,0,0,0,0c0,0,0,0,0,0c0,0,0,0,0,0c0,0,0,0,0,0c0,0,0,0,0,0c0,0,0,0,0,0c0,0,0,0,0,0c0,0,0,0,0,0
		c0,0,0,0,0,0l-1.3-9.2l5.1,2.9c0,0,0-0.1,0.1-0.1c0,0,0-0.1,0.1-0.1l-5.7-3.2L48.4,606.7C48.4,606.8,48.4,606.8,48.4,606.7
		C48.4,606.7,48.4,606.7,48.4,606.7z"/>
	<path class="st0" d="M49.3,607.5l-0.1-0.8c0,0,0,0,0,0c0,0,0,0,0,0c0,0,0,0,0,0c0,0,0,0,0,0c0,0,0,0,0,0c0,0,0,0,0,0c0,0,0,0,0,0
		c0,0,0,0,0,0c0,0,0,0,0,0c0,0,0,0,0,0c0,0,0,0,0,0c0,0,0,0,0,0c0,0-0.1,0.1-0.1,0.1c0,0,0,0,0,0c0,0,0,0,0,0l0.1,0.9
		C49,607.7,49.2,607.6,49.3,607.5z"/>
	<path class="st0" d="M48.7,606.2C48.7,606.2,48.7,606.2,48.7,606.2C48.7,606.1,48.8,606.1,48.7,606.2L48.7,606.2l0.1-0.1
		c0,0,0,0,0,0c0,0,0,0,0,0c0,0,0,0,0,0c0,0,0,0,0,0c0,0,0,0,0,0c0,0,0,0,0,0c0,0,0,0,0,0c0,0,0,0,0,0c0,0,0,0,0,0c0,0,0,0,0,0
		l-1.1-8.2l4.5,2.5c0,0,0,0,0-0.1c0,0,0.1-0.1,0.1-0.1c0,0,0,0,0,0l-5.1-2.9L48.7,606.2C48.7,606.2,48.7,606.2,48.7,606.2
		C48.7,606.2,48.7,606.2,48.7,606.2z"/>
	<path class="st0" d="M49.6,607l-0.1-0.7c0,0,0,0,0,0c0,0,0,0,0,0c0,0,0,0,0,0c0,0,0,0,0,0c0,0,0,0,0,0c0,0,0,0,0,0c0,0,0,0,0,0
		c0,0,0,0,0,0c0,0,0,0,0,0c0,0,0,0,0,0c0,0,0,0,0,0c0,0,0,0,0,0c0,0,0,0,0,0c0,0,0,0,0,0c0,0,0,0,0,0c0,0,0,0,0,0c0,0,0,0,0,0
		c0,0,0,0,0,0c0,0,0,0,0,0c0,0,0,0,0,0l0.1,0.8C49.4,607.3,49.5,607.2,49.6,607z"/>
	<path class="st0" d="M49,605.6C49.1,605.6,49.1,605.6,49,605.6C49.1,605.6,49.1,605.6,49,605.6C49.1,605.6,49.1,605.6,49,605.6
		c0.1-0.1,0.1-0.1,0.1-0.1c0,0,0,0,0,0c0,0,0,0,0,0c0,0,0,0,0,0c0,0,0,0,0,0c0,0,0,0,0,0c0,0,0,0,0,0c0,0,0,0,0,0c0,0,0,0,0,0
		c0,0,0,0,0,0c0,0,0,0,0,0c0,0,0,0,0,0c0,0,0,0,0,0c0,0,0,0,0,0c0,0,0,0,0,0c0,0,0,0,0,0l-1-7.1l3.9,2.2c0,0,0,0,0,0
		c0,0,0-0.1,0.1-0.1c0,0,0-0.1,0-0.1l-4.5-2.5L49,605.6C49,605.7,49,605.7,49,605.6C49,605.7,49,605.7,49,605.6z"/>
	<path class="st0" d="M49.9,606.7l-0.1-0.6c0,0,0,0,0,0c0,0,0,0,0,0c0,0,0,0,0,0c0,0,0,0,0,0c0,0,0,0,0,0c0,0,0,0,0,0c0,0,0,0,0,0
		c0,0,0,0,0,0c0,0,0,0,0,0c0,0,0,0,0,0c0,0,0,0,0,0c0,0,0,0,0,0c0,0,0,0,0,0c-0.1,0-0.1,0.1-0.1,0.1l0.1,0.7
		C49.7,606.8,49.8,606.7,49.9,606.7C49.8,606.7,49.9,606.7,49.9,606.7z"/>
	<path class="st0" d="M49.3,605.2C49.3,605.2,49.3,605.2,49.3,605.2C49.3,605.2,49.3,605.2,49.3,605.2
		C49.3,605.1,49.4,605.1,49.3,605.2C49.4,605.1,49.4,605.1,49.3,605.2c0.1-0.1,0.1-0.1,0.1-0.1c0,0,0,0,0,0c0,0,0,0,0,0c0,0,0,0,0,0
		c0,0,0,0,0,0c0,0,0,0,0,0c0,0,0,0,0,0c0,0,0,0,0,0c0,0,0,0,0,0c0,0,0,0,0,0c0,0,0,0,0,0c0,0,0,0,0,0l-0.8-6.1l3.4,1.9
		c0,0,0-0.1,0.1-0.1c0,0,0-0.1,0.1-0.1l-3.9-2.2L49.3,605.2z"/>
	<path class="st0" d="M49.7,604.6C49.7,604.6,49.7,604.6,49.7,604.6C49.7,604.5,49.7,604.5,49.7,604.6c0.1-0.1,0.1-0.1,0.1-0.1
		c0,0,0,0,0-0.1c0,0,0,0,0-0.1c0-0.1,0.1-0.1,0.1-0.2l-0.7-5.1l2.8,1.6c0,0,0-0.1,0.1-0.1c0,0,0-0.1,0.1-0.1c0,0,0,0,0,0l-3.4-1.9
		L49.7,604.6C49.6,604.7,49.6,604.7,49.7,604.6C49.6,604.6,49.7,604.6,49.7,604.6z"/>
	<path class="st0" d="M50,606.6l0.1-0.2c0,0,0,0,0,0l-0.1-0.6c0,0,0,0,0,0c0,0-0.1,0.1-0.1,0.1c0,0,0,0,0,0c0,0,0,0,0,0c0,0,0,0,0,0
		c0,0,0,0,0,0c0,0,0,0,0,0c0,0,0,0,0,0c0,0,0,0,0,0c0,0,0,0,0,0c0,0,0,0,0,0l0.1,0.6C49.9,606.6,49.9,606.6,50,606.6L50,606.6z"/>
	<path class="st0" d="M50.5,606.1l-0.1-0.7c0,0,0,0,0,0c0,0-0.1,0.1-0.1,0.1c0,0-0.1,0.1-0.1,0.1c0,0,0,0.1-0.1,0.1l0.1,0.6
		C50.3,606.3,50.4,606.2,50.5,606.1z"/>
	<path class="st0" d="M49.6,599.6l2.2,1.3c0,0,0,0,0,0c0,0,0,0,0.1-0.1c0,0,0-0.1,0.1-0.1c0,0,0,0,0,0l-2.8-1.6l0.7,5.1
		c0.1-0.2,0.2-0.3,0.3-0.5L49.6,599.6z"/>
	<path class="st0" d="M50.5,606.1C50.5,606.1,50.5,606,50.5,606.1C50.6,606,50.6,606,50.5,606.1C50.6,606,50.6,606,50.5,606.1
		C50.6,606,50.6,606,50.5,606.1C50.6,606,50.6,606,50.5,606.1c0.1-0.1,0.1-0.1,0.1-0.1c0,0,0,0,0,0c0,0,0,0,0,0c0,0,0,0,0,0
		c0,0,0,0,0,0c0,0,0,0,0,0c0,0,0,0,0,0c0,0,0,0,0,0c0,0,0,0,0,0c0,0,0,0,0,0l-0.1-0.7l-0.1,0.1c0,0.1-0.1,0.1-0.1,0.2
		c0,0-0.1,0.1-0.1,0.1L50.5,606.1C50.5,606.1,50.5,606.1,50.5,606.1C50.5,606.1,50.5,606.1,50.5,606.1z"/>
	<path class="st0" d="M50,600.1l1.9,1.1c0,0,0,0,0,0c0,0-0.1-0.1-0.1-0.1c0-0.1-0.1-0.1-0.1-0.1c0,0,0,0,0.1,0c0,0,0,0,0,0l-2.2-1.3
		l0.6,4.1c0.1-0.2,0.2-0.3,0.3-0.5L50,600.1z"/>
	<path class="st0" d="M50.5,603.3c0.1-0.2,0.2-0.3,0.3-0.4l-0.3-2.3l1.7,1c0,0,0,0,0,0c0,0-0.1-0.1-0.1-0.1c0,0-0.1-0.1-0.1-0.1
		c0,0,0-0.1-0.1-0.1l-1.9-1.1L50.5,603.3z"/>
	<path class="st0" d="M50.8,605.7C50.8,605.7,50.9,605.7,50.8,605.7C50.9,605.7,50.9,605.7,50.8,605.7
		C50.9,605.7,50.9,605.6,50.8,605.7c0.1-0.1,0.1-0.1,0.1-0.1c0,0,0,0,0,0c0,0,0,0,0,0c0,0,0,0,0,0c0,0,0,0,0,0c0,0,0,0,0,0l-0.1-0.7
		c0,0,0,0,0,0c0,0,0,0,0,0c0,0,0,0,0,0c0,0,0,0,0,0c0,0,0,0,0,0c0,0,0,0,0,0c0,0,0,0,0,0c0,0,0,0,0,0c0,0,0,0,0,0c0,0,0,0,0,0
		c0,0,0,0,0,0l0,0l0,0L50.8,605.7C50.8,605.8,50.8,605.8,50.8,605.7C50.8,605.7,50.8,605.7,50.8,605.7z"/>
	<path class="st0" d="M50.8,602.7C50.8,602.8,50.9,602.8,50.8,602.7C50.9,602.8,50.9,602.8,50.8,602.7c0.1,0.1,0.1,0.1,0.1,0.1
		c0,0,0,0,0,0c0,0,0,0,0,0c0,0,0,0,0,0c0,0,0,0,0,0l-0.3-2l1.5,0.9c0,0,0,0,0,0c0-0.1-0.1-0.1-0.1-0.2c0,0,0-0.1-0.1-0.1l-1.7-1
		l0.3,2.3C50.8,602.8,50.8,602.7,50.8,602.7C50.8,602.7,50.8,602.7,50.8,602.7z"/>
	<path class="st0" d="M51.1,605.4C51.1,605.4,51.1,605.3,51.1,605.4C51.2,605.3,51.2,605.3,51.1,605.4c0.1-0.1,0.1-0.1,0.1-0.1
		c0,0,0,0,0,0c0,0,0,0,0,0c0,0,0,0,0-0.1c0,0,0,0,0,0l-0.1-0.7c0,0,0,0,0,0c0,0,0,0,0,0c0,0,0,0,0,0c0,0,0,0,0,0c0,0,0,0,0,0
		c0,0,0,0,0,0c0,0,0,0,0,0c0,0,0,0,0,0L51.1,605.4C51.1,605.4,51.1,605.4,51.1,605.4C51.1,605.4,51.1,605.4,51.1,605.4z"/>
	<path class="st0" d="M51.1,603.1C51.1,603.1,51.1,603.1,51.1,603.1C51.1,603.1,51.2,603.1,51.1,603.1c0.1,0.1,0.1,0.1,0.1,0.1
		c0,0,0,0,0,0.1c0,0,0,0,0,0.1c0,0,0,0,0,0c0,0,0,0,0.1,0c0,0,0,0,0,0l-0.3-1.9l1.3,0.7c0,0,0-0.1,0-0.1c0-0.1,0-0.1-0.1-0.2
		l-1.5-0.9L51.1,603.1C51.1,603,51.1,603,51.1,603.1C51.1,603.1,51.1,603.1,51.1,603.1z"/>
	<path class="st0" d="M51.4,605C51.4,605,51.4,605,51.4,605c0.1-0.1,0.1-0.1,0.1-0.1c0,0,0,0,0-0.1c0,0,0,0,0-0.1c0,0,0,0,0-0.1
		c0,0,0,0,0,0l-0.1-0.7c0,0,0,0,0,0c0,0,0,0,0,0.1c0,0,0,0,0,0.1c0,0,0,0,0,0.1c0,0,0,0,0,0.1c0,0,0,0,0,0.1c0,0,0,0,0,0.1
		c0,0,0,0,0,0L51.4,605C51.4,605.1,51.4,605,51.4,605z"/>
	<path class="st0" d="M51.7,604.6C51.7,604.5,51.7,604.5,51.7,604.6c0.1-0.1,0.1-0.1,0.1-0.2c0,0,0-0.1,0.1-0.1c0,0,0,0,0,0
		l-0.3-2.4l1,0.6c0,0,0-0.1,0-0.1c0,0,0-0.1,0-0.1l-1.3-0.7l0.3,1.9c0,0,0,0,0,0c0,0,0,0,0.1,0c0,0,0,0,0.1,0c0,0,0,0,0.1,0
		c0,0,0,0,0.1,0c0,0,0,0,0.1,0l0,0c0,0,0,0-0.1,0.1c0,0,0,0,0,0.1c0,0,0,0,0,0.1c0,0,0,0,0,0.1c0,0,0,0,0,0.1l0.1,0.7
		C51.6,604.7,51.6,604.7,51.7,604.6C51.6,604.6,51.7,604.6,51.7,604.6z"/>
	<path class="st0" d="M51.8,604.3C51.8,604.3,51.9,604.2,51.8,604.3c0.1-0.1,0.1-0.2,0.1-0.2c0,0,0-0.1,0.1-0.1c0,0,0-0.1,0.1-0.1
		c0,0,0,0,0,0l-0.2-1.5l0.7,0.4c0-0.1,0-0.2,0-0.2l-1-0.6L51.8,604.3z"/>
	<path class="st0" d="M52.2,603.6C52.2,603.6,52.2,603.6,52.2,603.6C52.2,603.5,52.2,603.5,52.2,603.6c0.1-0.1,0.1-0.1,0.1-0.1
		l-0.1-0.7l0.4,0.2c0-0.1,0-0.1,0-0.2l-0.7-0.4l0.2,1.5c0,0,0-0.1,0.1-0.1C52.1,603.7,52.2,603.6,52.2,603.6z"/>
	<path class="st0" d="M52.3,603.5C52.3,603.5,52.3,603.5,52.3,603.5C52.3,603.4,52.4,603.4,52.3,603.5c0.1-0.1,0.1-0.2,0.2-0.2
		c0,0,0-0.1,0.1-0.1l0,0l0,0c0,0,0,0,0,0c0-0.1,0-0.1,0-0.2l-0.4-0.2L52.3,603.5z"/>
	<path class="st0" d="M52.5,603.1L52.5,603.1C52.5,603.2,52.5,603.2,52.5,603.1L52.5,603.1z"/>
</g>
</svg>
