<?xml version="1.0" encoding="utf-8"?>
<!-- Generator: Adobe Illustrator 22.0.1, SVG Export Plug-In . SVG Version: 6.00 Build 0)  -->
<svg version="1.1" id="レイヤー_1" xmlns="http://www.w3.org/2000/svg" xmlns:xlink="http://www.w3.org/1999/xlink" x="0px"
	 y="0px" viewBox="0 0 640 640" style="enable-background:new 0 0 640 640;" xml:space="preserve">
<style type="text/css">
	.st0{fill:none;stroke:#FFFFFF;stroke-width:0.1541;stroke-miterlimit:10;}
</style>
<g>
	<path class="st0" d="M129.7,196.6c-0.1-0.1-0.2-0.2-0.2-0.3l0.7,1.7l0.6-0.3C130.3,197.2,129.9,196.8,129.7,196.6z"/>
	<path class="st0" d="M131.3,199.8c0,0,0,0.5,0.2,0.9c0.1,0.1,0.1,0.2,0.2,0.3l1.8-1c-0.4-0.3-0.7-0.6-1.1-0.9
		c-0.1-0.1-0.2-0.2-0.3-0.3l-1.4,0.8C130.9,199.8,131.1,199.8,131.3,199.8z"/>
	<path class="st0" d="M151.1,191.7c-0.2,0-0.4,0.1-0.6,0.1c-0.2,0-0.4,0.1-0.6,0.2c-0.2,0.1-0.4,0.1-0.6,0.2
		c-0.2,0.1-0.4,0.2-0.6,0.2c-0.2,0.1-0.4,0.2-0.6,0.3c-0.2,0.1-0.4,0.3-0.6,0.4c-0.2,0.2-0.4,0.3-0.5,0.5c-0.2,0.2-0.3,0.5-0.5,0.7
		c0,0.1-0.1,0.2-0.1,0.3l5.4-3.1C151.5,191.6,151.3,191.6,151.1,191.7z"/>
	<path class="st0" d="M132.6,201.4c0,0,0,0.1,0.1,0.3c0.1,0.2,0.2,0.4,0.3,0.5l1.8-1c-0.4-0.4-0.9-0.8-1.3-1.2l-1.8,1
		C131.9,201.3,132.2,201.5,132.6,201.4z"/>
	<path class="st0" d="M146.1,196.6l13-7.5c-0.5-0.2-1.1-0.2-1.6-0.2c-0.3,0-0.6,0.1-0.9,0.2c-0.2,0.1-0.5,0.2-0.7,0.3
		c-0.2,0.1-0.4,0.2-0.6,0.3c-0.2,0.1-0.4,0.2-0.6,0.3c-0.2,0.1-0.3,0.2-0.5,0.3c-0.1,0.1-0.3,0.2-0.4,0.3c-0.2,0.1-0.3,0.2-0.4,0.3
		c-0.2,0.1-0.3,0.3-0.4,0.3c-0.1,0.1-0.2,0.2-0.2,0.2s-0.1,0-0.4,0c-0.2,0-0.4,0-0.6,0.1c0,0,0,0-0.1,0l-5.4,3.1
		c-0.1,0.2-0.1,0.5-0.2,0.8C146,195.8,146.1,196.2,146.1,196.6z"/>
	<path class="st0" d="M166.2,274.4c0.2,0.3,0.4,0.6,0.5,1c0.3,0.5,0.6,1.1,0.9,1.6c0.3,0.5,0.6,1,0.9,1.5c0.3,0.5,0.6,0.9,0.9,1.4
		c0.2,0.3,0.4,0.6,0.5,0.8l-1.1-5.2L166.2,274.4z"/>
	<path class="st0" d="M133.4,202.8c0.3,0.3,0.7,0.5,1.2,0.2c0,0,0,0.1,0.1,0.2l1.5-0.8c-0.1-0.1-0.1-0.1-0.2-0.2
		c-0.4-0.3-0.7-0.6-1.1-1c0,0,0,0,0,0l-1.8,1C133.1,202.5,133.2,202.7,133.4,202.8z"/>
	<path class="st0" d="M134.8,203.7c0.1,0.3,0.3,0.6,0.7,0.9l1.9-1.1c-0.1-0.1-0.3-0.2-0.4-0.3c-0.3-0.2-0.6-0.5-0.9-0.8l-1.5,0.8
		C134.7,203.4,134.7,203.5,134.8,203.7z"/>
	<path class="st0" d="M146.7,198.2l13.9-8c-0.3-0.3-0.5-0.5-0.8-0.7l-0.5-0.3c0,0-0.1,0-0.1,0l-13,7.5
		C146.2,197.1,146.4,197.6,146.7,198.2z"/>
	<path class="st0" d="M171.1,282.5c0.3,0.4,0.5,0.8,0.8,1.2c0.3,0.4,0.5,0.7,0.8,1.1c0.1,0.1,0.1,0.2,0.2,0.3l-2.4-11.3l-6.1-2.5
		c0.1,0.2,0.2,0.4,0.3,0.7c0.3,0.6,0.7,1.2,1,1.8c0.1,0.3,0.3,0.5,0.4,0.8l2.7,1.1l1.1,5.2c0.1,0.2,0.2,0.3,0.3,0.5
		C170.6,281.7,170.9,282.1,171.1,282.5z"/>
	<path class="st0" d="M156,267.2C156,267.2,156,267.3,156,267.2C156,267.3,156,267.2,156,267.2c0.1-0.1,0.1-0.1,0.1-0.2
		C156,267.1,156,267.2,156,267.2z"/>
	<path class="st0" d="M161.8,268c0.4,0.4,0.7,0.7,1,1l-0.1-1l-1.4-0.6C161.4,267.6,161.6,267.8,161.8,268z"/>
	<path class="st0" d="M137.5,204.9l0.2,0.1l0.9-0.5c-0.2-0.1-0.4-0.3-0.6-0.5c-0.2-0.2-0.4-0.4-0.7-0.6l-1.9,1.1c0,0,0,0,0.1,0.1
		C136,205,136.6,205.2,137.5,204.9z"/>
	<path class="st0" d="M161.4,191.5c-0.1-0.3-0.2-0.5-0.4-0.7c-0.1-0.2-0.3-0.4-0.5-0.6l-13.9,8c0.2,0.4,0.4,0.9,0.7,1.4L161.4,191.5
		z"/>
	<path class="st0" d="M172.9,285c0.2,0.3,0.4,0.5,0.6,0.8c0.2,0.3,0.5,0.7,0.7,1c0.2,0.3,0.5,0.6,0.7,0.9c0.2,0.3,0.5,0.6,0.7,0.9
		l-3.5-16.7l-9.2-3.8c0.3,0.6,0.6,1.2,0.9,1.8c0.2,0.4,0.5,0.9,0.7,1.3l6.1,2.5L172.9,285z"/>
	<path class="st0" d="M156,265.6c0,0.3,0,0.6,0,0.8c0,0.3,0,0.5,0,0.6c0.1-0.2,0.3-0.5,0.5-0.8c0.1-0.2,0.3-0.4,0.4-0.6l-0.9-0.4
		C156,265.4,156,265.5,156,265.6z"/>
	<path class="st0" d="M139.2,205.9l1.5-0.8c-0.2-0.2-0.4-0.3-0.6-0.2c0-0.1,0-0.1,0.1-0.2l-1.1,0.2c-0.1-0.1-0.3-0.2-0.5-0.4
		l-0.9,0.5l0.2,0.1L139.2,205.9z"/>
	<path class="st0" d="M176.1,289.3c0.1,0.2,0.3,0.3,0.4,0.5c0.1,0.2,0.3,0.3,0.4,0.5c0.1,0.2,0.3,0.3,0.4,0.5
		c0.1,0.1,0.1,0.1,0.2,0.2c0,0,0.1,0.1,0.3,0.3c0.1,0.1,0.2,0.2,0.3,0.3l-4.5-21.4l-14.8-6.2c0.1,0.2,0.2,0.4,0.4,0.6
		c0.1,0.2,0.3,0.4,0.5,0.6c0.2,0.2,0.3,0.4,0.5,0.7c0.2,0.2,0.3,0.5,0.5,0.7c0.2,0.2,0.4,0.5,0.5,0.7c0,0,0.1,0.1,0.1,0.1l1.4,0.6
		l0-0.2c0.1,0.1,0.1,0.2,0.2,0.3l9.2,3.8l3.5,16.7c0.1,0.1,0.1,0.1,0.2,0.2C175.8,289,176,289.1,176.1,289.3z"/>
	<path class="st0" d="M157.9,264.2c0.1-0.2,0.2-0.3,0.3-0.5l-2.3-1c0,0.2,0,0.4,0,0.6c0,0.2,0,0.5,0,0.7c0,0.3,0,0.5,0,0.7
		c0,0.1,0,0.3,0,0.4l0.9,0.4c0.1-0.1,0.2-0.3,0.3-0.4C157.4,264.9,157.7,264.5,157.9,264.2z"/>
	<path class="st0" d="M161.9,192.9c0-0.2-0.1-0.3-0.1-0.4c-0.1-0.3-0.2-0.5-0.3-0.8c0-0.1-0.1-0.1-0.1-0.2l-14,8.1
		c0.2,0.4,0.5,0.8,0.8,1.2L161.9,192.9z"/>
	<path class="st0" d="M139.7,206.2l-0.3,0.8l-0.2,0.5l0,0.1l2.2-1.2c-0.1-0.3-0.2-0.6-0.3-0.8c-0.1-0.2-0.2-0.4-0.3-0.5l-1.5,0.8
		l0.1,0L139.7,206.2z"/>
	<path class="st0" d="M178.7,292.2c0.2,0.2,0.3,0.3,0.5,0.5c0.2,0.2,0.3,0.3,0.5,0.5c0.2,0.2,0.4,0.4,0.5,0.5c0,0,0,0,0,0l-5.4-25.4
		l-19.3-8c0,0.1,0,0.2,0,0.3c0,0.2,0,0.4,0,0.6c0,0.2,0,0.4,0,0.6c0,0.2,0,0.4,0,0.7c0,0,0,0.1,0,0.1l2.3,1c0.1-0.2,0.2-0.3,0.2-0.3
		s0.1,0.2,0.3,0.5c0,0,0,0,0,0l14.8,6.2l4.5,21.4c0.1,0.1,0.1,0.1,0.2,0.2C178.4,291.9,178.5,292.1,178.7,292.2z"/>
	<path class="st0" d="M148.3,200.8c0,0-0.1,0.1-0.2,0.4c-0.1,0.2-0.2,0.6-0.4,1.1c0,0.2-0.1,0.3-0.1,0.5l14.6-8.4
		c0-0.2-0.1-0.4-0.1-0.5c0-0.2-0.1-0.5-0.1-0.7c0-0.1,0-0.2-0.1-0.3L148.3,200.8C148.2,200.8,148.2,200.8,148.3,200.8z"/>
	<path class="st0" d="M147.2,204.6l15.8-9.1c-0.4-0.2-0.7-0.3-0.7-0.3c0,0,0-0.1,0-0.1c0-0.2-0.1-0.4-0.1-0.6c0,0,0-0.1,0-0.1
		l-14.6,8.4c-0.1,0.2-0.1,0.4-0.2,0.7C147.3,203.8,147.3,204.2,147.2,204.6z"/>
	<path class="st0" d="M181.4,294.9c0.2,0.2,0.4,0.4,0.6,0.6c0.2,0.2,0.3,0.3,0.5,0.5l-6.1-29.1l-20.9-8.7c0,0.1,0,0.2,0,0.3
		c0,0.2,0,0.4,0,0.6c0,0.2,0,0.4,0,0.6c0,0.2,0,0.4,0,0.6c0,0.1,0,0.2,0,0.3l19.3,8l5.4,25.4c0.2,0.2,0.3,0.3,0.5,0.5
		C181,294.6,181.2,294.7,181.4,294.9z"/>
	<path class="st0" d="M139.4,208.1l0.4,0.7l1.9-1.1c0-0.1,0-0.1,0-0.2c0,0,0,0,0-0.1c-0.1-0.2-0.2-0.5-0.3-0.9c0-0.1,0-0.1-0.1-0.2
		l-2.2,1.2l0.2,0.4L139.4,208.1z"/>
	<path class="st0" d="M172.9,190.8L172.9,190.8c0.1,0,0.1-0.1,0.2-0.1l0.8-9.4l-0.1,0l0,0l-0.6-1.5l-0.3-0.8c0.1,0.2,0,1.2,0,2.5
		c-0.1,1.8-0.3,4.2-0.6,6.3c0,0.3-0.1,0.6-0.1,0.9c0,0.3-0.1,0.6-0.1,0.8c0,0.3-0.1,0.6-0.1,0.8c0,0.3-0.1,0.6-0.1,0.8
		c0,0.3-0.1,0.5-0.1,0.8c0,0.1,0,0.1,0,0.2l0.9-0.5L172.9,190.8z"/>
	<path class="st0" d="M139.8,208.9l0.4,0.9c0,0.1,0.1,0.2,0.1,0.3l1.3-0.7c0-0.3,0-0.6,0-0.9c0-0.2,0-0.5,0.1-0.7L139.8,208.9
		L139.8,208.9z"/>
	<path class="st0" d="M146.9,206.3l17.5-10c-0.6-0.4-1-0.6-1.4-0.8l-15.8,9.1c0,0.1,0,0.1,0,0.2C147.1,205.3,147,205.8,146.9,206.3z
		"/>
	<path class="st0" d="M183.3,296.7c0.2,0.2,0.5,0.4,0.7,0.6c0.2,0.2,0.4,0.4,0.6,0.5l-6.9-32.6l-22.4-9.3c0,0,0,0,0,0
		c0,0.2,0,0.3,0,0.5c0,0.2,0,0.3,0,0.5c0,0.2,0,0.3,0,0.5c0,0.2,0,0.3,0,0.5c0,0.1,0,0.2,0,0.2l20.9,8.7l6.1,29.1
		c0,0,0.1,0.1,0.1,0.1C182.9,296.3,183.1,296.5,183.3,296.7z"/>
	<path class="st0" d="M140.9,211.3l1-0.6c0-0.1-0.1-0.3-0.1-0.4c-0.1-0.3-0.1-0.6-0.1-0.9c0,0,0,0,0-0.1l-1.3,0.7
		c0.1,0.2,0.1,0.3,0.2,0.5C140.7,210.8,140.8,211.1,140.9,211.3z"/>
	<path class="st0" d="M174,187.9c-0.1-0.3-0.3-0.5-0.3-0.5c0.2,0,0.3-0.1,0.4-0.2c0.4-0.3,0.4-0.8,0.3-1.3c-0.1-0.6-0.4-1.1-0.4-1.1
		c0.8-0.5,0.4-1.3,0.1-1.7c-0.1-0.2-0.2-0.3-0.2-0.3c0.2-0.3,0.5-0.8,0.6-1.2c0.1-0.3,0.1-0.5,0.1-0.5l0,0l-0.8,0.1l-0.8,9.4
		C174.5,189.8,174.3,188.6,174,187.9z"/>
	<path class="st0" d="M146.8,207.3c0,0.2,0,0.4,0,0.7l18.8-10.8c-0.4-0.3-0.8-0.6-1.2-0.8l-17.5,10c0,0,0,0,0,0.1
		C146.9,206.7,146.9,207,146.8,207.3z"/>
	<path class="st0" d="M185.4,298.5c0.3,0.2,0.5,0.4,0.8,0.6c0.1,0.1,0.3,0.2,0.4,0.3l-7.5-35.7l-24-10c0,0.1,0,0.3,0,0.4
		c0,0.1,0,0.3,0,0.4c0,0.1,0,0.3,0,0.4c0,0.1,0,0.3,0,0.4c0,0.1,0,0.3,0,0.4l22.4,9.3l6.9,32.6c0,0,0.1,0,0.1,0.1
		C185,298.1,185.2,298.3,185.4,298.5z"/>
	<path class="st0" d="M171.7,192.7c-0.3-0.2-0.5-0.2-0.7-0.2c-0.2,0-0.3,0.1-0.3,0.3c0,0.2,0,0.5,0.1,0.8c0,0.1,0.1,0.2,0.1,0.3
		l1.3-0.8l-0.1,0l0.1-0.3l0.2-0.7l0.2-0.7l0,0l-0.9,0.5c0,0.3,0,0.5-0.1,0.6C171.7,192.7,171.7,192.7,171.7,192.7z"/>
	<path class="st0" d="M171.2,194.6c0.1,0.2,0.2,0.5,0.3,0.6l2.1-1.2l-0.1-0.2l-1.3-0.5L171,194C171.1,194.2,171.1,194.4,171.2,194.6
		z"/>
	<path class="st0" d="M146.7,209.2c0,0.1,0,0.2,0,0.3l20-11.5c-0.1-0.1-0.3-0.2-0.4-0.3c-0.2-0.2-0.5-0.4-0.7-0.5l-18.8,10.8
		c0,0.1,0,0.2,0,0.3C146.8,208.5,146.7,208.9,146.7,209.2z"/>
	<path class="st0" d="M186.6,299.5c0.1,0.1,0.3,0.2,0.4,0.3c0.3,0.2,0.6,0.4,0.9,0.6c0.2,0.1,0.4,0.3,0.6,0.4l-8.1-38.5l-27-11.2
		c0,0,0.1,0.1,0.1,0.1c0.1,0.2,0.2,0.3,0.3,0.5c0.1,0.2,0.2,0.3,0.3,0.4c0.1,0.1,0.2,0.3,0.3,0.4c0.2,0.1,0.3,0.2,0.4,0.2
		c0.1,0,0.1,0,0.2,0c0,0,0,0.2,0,0.5c0,0.2,0,0.4,0.1,0.6l24,10L186.6,299.5z"/>
	<path class="st0" d="M141.3,212.2c0,0.1,0.1,0.2,0.1,0.3l0.9-0.5c-0.1-0.3-0.2-0.5-0.3-0.8c0-0.1-0.1-0.3-0.1-0.4l-1,0.6
		c0,0,0,0.1,0,0.1C141.1,211.7,141.2,212,141.3,212.2z"/>
	<path class="st0" d="M171.7,195.6c0.2,0.2,0.4,0.3,0.6,0.5l1.6-0.9l-0.2-0.8l0,0l-0.1-0.4l-2.1,1.2c0.1,0.1,0.1,0.2,0.1,0.3
		C171.7,195.6,171.7,195.6,171.7,195.6z"/>
	<path class="st0" d="M189.8,301.4c0.1,0,0.3,0.1,0.4,0.1l-8.6-40.7l-29.5-12.3c0.1,0.1,0.1,0.3,0.2,0.4c0.1,0.2,0.2,0.4,0.3,0.6
		c0.1,0.2,0.2,0.4,0.3,0.6c0.1,0.2,0.2,0.4,0.3,0.6c0.1,0.1,0.1,0.3,0.2,0.4l27,11.2l8.1,38.5c0.1,0.1,0.2,0.1,0.3,0.2
		C189.2,301.1,189.5,301.3,189.8,301.4z"/>
	<path class="st0" d="M142,213.6l0.9-0.5c-0.1-0.1-0.1-0.2-0.2-0.3c-0.1-0.2-0.3-0.5-0.4-0.8c0,0,0,0,0,0l-0.9,0.5
		c0.1,0.2,0.2,0.3,0.3,0.5C141.8,213.2,141.9,213.4,142,213.6z"/>
	<path class="st0" d="M146.7,210.9l21-12.1c-0.3-0.3-0.7-0.6-1-0.9l-20,11.5c0,0.2,0,0.4,0,0.6C146.7,210.3,146.7,210.6,146.7,210.9
		z"/>
	<path class="st0" d="M191.3,301.2L191.3,301.2l0.2-0.3c0,0,0.1,0,0.1,0.1l-8.8-41.6l-28.9-12c0,0.1,0,0.2,0.1,0.2l-0.2,0.3
		c-0.1-0.1-0.2-0.3-0.4-0.5c-0.1-0.1-0.1-0.2-0.2-0.3l-2.1-0.9c0.1,0.2,0.2,0.5,0.3,0.7c0.1,0.2,0.2,0.5,0.3,0.7
		c0.1,0.2,0.2,0.4,0.3,0.7c0,0.1,0.1,0.2,0.1,0.3l29.5,12.3l8.6,40.7C190.7,301.6,191.1,301.5,191.3,301.2z"/>
	<path class="st0" d="M146.8,211.8c0,0.1,0,0.3,0,0.4l21.8-12.6c-0.3-0.2-0.5-0.5-0.7-0.7c-0.1-0.1-0.1-0.1-0.2-0.2l-21,12.1
		c0,0,0,0,0,0.1C146.7,211.2,146.8,211.5,146.8,211.8z"/>
	<path class="st0" d="M142.5,214.4c0,0.1,0.1,0.1,0.1,0.2l1-0.6c-0.1-0.2-0.3-0.4-0.4-0.6c-0.1-0.1-0.2-0.3-0.2-0.4l-0.9,0.5
		c0,0,0,0.1,0.1,0.1C142.2,213.9,142.4,214.2,142.5,214.4z"/>
	<path class="st0" d="M173,196.9c0.1,0.1,0.1,0.1,0.1,0.2l1.2-0.7c0-0.1-0.1-0.2-0.1-0.2c-0.2-0.4-0.3-0.6-0.3-0.6l-0.1-0.2l0,0
		l-1.6,0.9C172.6,196.4,172.8,196.6,173,196.9z"/>
	<path class="st0" d="M143.3,215.6l1.1-0.6c-0.1-0.1-0.1-0.1-0.2-0.2c-0.2-0.2-0.3-0.4-0.5-0.7c0,0,0-0.1-0.1-0.1l-1,0.6
		c0.1,0.2,0.2,0.3,0.3,0.5C143.1,215.3,143.2,215.4,143.3,215.6z"/>
	<path class="st0" d="M146.9,213.4c0,0,0,0.1,0,0.1l22.6-13c-0.1-0.1-0.3-0.3-0.4-0.4c-0.1-0.1-0.3-0.3-0.4-0.4l-21.8,12.6
		c0,0.1,0,0.2,0,0.4C146.8,212.9,146.8,213.1,146.9,213.4z"/>
	<path class="st0" d="M152.7,246.2c-0.1-0.2-0.2-0.4-0.3-0.6c-0.1-0.2-0.2-0.5-0.3-0.7c0-0.1-0.1-0.2-0.1-0.2l-1.8-0.8
		c0.1,0.2,0.2,0.3,0.3,0.5c0,0,0,0.1,0.1,0.2c0.1,0.2,0.2,0.4,0.3,0.8c0.1,0.2,0.2,0.5,0.3,0.8c0,0,0,0,0,0l2.1,0.9
		c-0.1-0.1-0.1-0.2-0.2-0.3C153,246.6,152.8,246.4,152.7,246.2z"/>
	<path class="st0" d="M193.1,301.2L184,258l-30.6-12.8c0,0,0,0.1,0,0.1c0.1,0.3,0.1,0.5,0.2,0.8c0.1,0.3,0.1,0.5,0.2,0.7
		c0.1,0.2,0.1,0.3,0.1,0.5l28.9,12l8.8,41.6c0.2,0.1,0.6,0.2,1.1,0.2C192.8,301.2,193,301.2,193.1,301.2z"/>
	<path class="st0" d="M173.8,198l1-0.6c-0.1-0.2-0.1-0.3-0.2-0.5c-0.1-0.2-0.2-0.4-0.2-0.6l-1.2,0.7c0.2,0.3,0.4,0.5,0.5,0.8
		C173.7,197.9,173.8,198,173.8,198z"/>
	<path class="st0" d="M174.2,199.1l0.9-0.5c-0.1-0.3-0.2-0.5-0.2-0.8c0-0.1-0.1-0.2-0.1-0.3l-1,0.6c0.1,0.2,0.2,0.4,0.3,0.6
		C174.1,198.8,174.2,199,174.2,199.1z"/>
	<path class="st0" d="M194.3,300.9c0,0,0.1,0,0.1-0.1l-9.3-44.2l-32.3-13.5c0,0.2,0.1,0.3,0.1,0.5c0.1,0.3,0.2,0.6,0.2,0.8
		c0.1,0.2,0.1,0.5,0.2,0.7L184,258l9.1,43.2C193.5,301.2,193.9,301.1,194.3,300.9z"/>
	<path class="st0" d="M151.6,244c-0.1-0.1-0.3-0.2-0.4-0.4c-0.1-0.2-0.3-0.4-0.4-0.7c-0.1-0.2-0.3-0.5-0.4-0.7c0,0,0,0,0,0l-1.5-0.6
		c0,0,0,0,0,0c0.1,0.3,0.3,0.5,0.4,0.8c0.1,0.3,0.3,0.5,0.4,0.8c0.1,0.2,0.3,0.5,0.4,0.7c0,0,0,0,0,0l1.8,0.8
		c-0.1-0.2-0.2-0.3-0.2-0.5C151.6,244.1,151.6,244,151.6,244z"/>
	<path class="st0" d="M143.8,216.4c0,0.1,0.1,0.1,0.1,0.2l2.7-1.5l-0.9,0.2l-1,0.2c-0.1-0.1-0.2-0.2-0.4-0.4l-1.1,0.6
		c0,0,0.1,0.1,0.1,0.1C143.5,216,143.7,216.2,143.8,216.4z"/>
	<path class="st0" d="M146.9,214.2c0,0.2,0,0.4,0.1,0.6l23.3-13.4c-0.1-0.1-0.2-0.2-0.3-0.3c-0.2-0.2-0.3-0.4-0.5-0.5l-22.6,13
		C146.9,213.7,146.9,213.9,146.9,214.2z"/>
	<path class="st0" d="M149.6,240.6c-0.1-0.2-0.1-0.3-0.2-0.5l-1.4-0.6c0,0.1,0,0.2,0.1,0.2c0.1,0.3,0.2,0.6,0.3,1
		c0.1,0.3,0.2,0.6,0.4,0.9l1.5,0.6c-0.1-0.2-0.2-0.5-0.4-0.8C149.9,241.1,149.7,240.9,149.6,240.6z"/>
	<path class="st0" d="M174.5,200.1C174.6,200.1,174.6,200.2,174.5,200.1l0.9-0.5c0-0.1-0.1-0.2-0.1-0.3c-0.1-0.3-0.2-0.5-0.2-0.8
		c0,0,0,0,0,0l-0.9,0.5c0,0.1,0.1,0.2,0.1,0.3C174.4,199.7,174.5,199.9,174.5,200.1z"/>
	<path class="st0" d="M146.7,215l-2.7,1.5c0.1,0.2,0.3,0.3,0.4,0.4c0.1,0.1,0.3,0.3,0.4,0.4l26.3-15.1c-0.1-0.1-0.1-0.2-0.2-0.3
		c-0.2-0.2-0.4-0.4-0.5-0.6L147,214.8c0,0,0,0.1,0,0.1L146.7,215z"/>
	<path class="st0" d="M186.2,255.4l-34-14.2c0.1,0.2,0.1,0.5,0.2,0.7c0.1,0.3,0.2,0.6,0.2,0.9c0,0.1,0.1,0.2,0.1,0.4l32.3,13.5
		l9.3,44.2c0.4-0.2,0.8-0.5,1.2-1L186.2,255.4z"/>
	<path class="st0" d="M148.6,238l-1.1-0.4c0,0.2,0.1,0.5,0.2,0.8c0.1,0.3,0.2,0.7,0.3,1.1l1.4,0.6c-0.1-0.1-0.1-0.3-0.2-0.4
		C149,239.1,148.8,238.5,148.6,238z"/>
	<path class="st0" d="M196.6,299.6c0.1,0,0.1,0,0.2,0c0,0,0,0,0.1,0l-9.6-45.5l-35.5-14.8c0.1,0.3,0.1,0.5,0.2,0.8
		c0.1,0.3,0.2,0.6,0.3,0.9c0,0.1,0,0.1,0.1,0.2l34,14.2l9.4,44.4c0.1-0.1,0.1-0.2,0.2-0.3C196.1,299.6,196.4,299.6,196.6,299.6z"/>
	<path class="st0" d="M174.8,201.3l1-0.6c-0.1-0.2-0.1-0.4-0.2-0.7c0-0.1-0.1-0.3-0.1-0.4l-0.9,0.5c0,0.2,0.1,0.4,0.1,0.6
		C174.7,201,174.7,201.1,174.8,201.3z"/>
	<path class="st0" d="M145.7,218L145.7,218l26-14.9c-0.1-0.1-0.1-0.2-0.2-0.3c-0.2-0.2-0.3-0.4-0.5-0.6l-26.3,15.1
		c0.1,0.1,0.1,0.1,0.2,0.2C145.2,217.7,145.4,217.9,145.7,218z"/>
	<path class="st0" d="M174.8,202c0,0.2,0,0.3,0,0.4l1.1-0.6c0-0.1,0-0.3-0.1-0.4c0-0.2-0.1-0.4-0.1-0.7c0,0,0,0,0,0l-1,0.6
		c0,0,0,0.1,0,0.1C174.8,201.6,174.8,201.8,174.8,202z"/>
	<path class="st0" d="M172.6,203.8l-0.4-0.2c-0.1-0.2-0.3-0.3-0.4-0.5l-26,15l1.7,0.2L172.6,203.8z"/>
	<path class="st0" d="M148.6,237.9c-0.2-0.5-0.3-0.8-0.3-1c0,0,0,0,0,0c0.2,0,0.5-0.1,0.8-0.3l-2.1-0.9c0.1,0.3,0.2,0.5,0.4,0.7
		c0,0,0,0,0,0.1c0,0.1,0.1,0.5,0.1,0.9c0,0,0,0.1,0,0.2l1.1,0.4C148.6,238,148.6,237.9,148.6,237.9z"/>
	<path class="st0" d="M198.1,299.4l-9.8-46.4l-37.1-15.4c0.1,0.5,0.3,1,0.4,1.6c0,0.1,0,0.1,0.1,0.2l35.5,14.8l9.6,45.5
		C197.4,299.6,197.8,299.5,198.1,299.4z"/>
	<path class="st0" d="M150,236l1,0.4c0.1,0.3,0.1,0.5,0.2,0.9c0,0,0,0.1,0,0.1l37.1,15.4l9.8,46.4c0.1,0,0.1-0.1,0.2-0.1
		c0.4-0.2,0.6-0.4,0.9-0.7l-9.9-46.8l-42.1-17.5c-0.1,0.2-0.2,0.4-0.2,0.6c-0.1,0.3-0.1,0.5-0.1,0.8c0,0,0,0.1,0,0.1l2.1,0.9
		c0,0,0.1,0,0.1-0.1C149.5,236.4,149.7,236.2,150,236z"/>
	<path class="st0" d="M147.7,218.8c0,0.1,0.1,0.3,0.1,0.4l28.4-16.3c0-0.1,0-0.1,0-0.2c0-0.2-0.1-0.4-0.1-0.6c0-0.1,0-0.2,0-0.2
		l-1.1,0.6c0,0,0,0.1,0,0.1c0,0.2,0,0.4,0,0.5c0,0.3,0,0.5,0,0.5c0,0,0,0,0,0l-0.5,0.2l-0.5,0.2l-0.5,0.2l-0.8-0.4l-25.1,14.4l0.1,0
		C147.6,218.4,147.6,218.6,147.7,218.8z"/>
	<path class="st0" d="M147.9,219.9c0,0.1,0,0.2,0.1,0.2l28.3-16.3c0-0.1,0-0.1,0-0.2c0-0.2,0-0.4,0-0.5c0-0.1,0-0.2,0-0.3
		l-28.4,16.3c0,0.1,0,0.1,0,0.2C147.8,219.6,147.9,219.7,147.9,219.9z"/>
	<path class="st0" d="M199.9,297.5c0.1,0.1,0.2,0.1,0.3,0.1l-9.9-47L148.1,233c0,0,0,0,0,0c-0.1,0.2-0.3,0.4-0.4,0.5
		c-0.1,0.2-0.3,0.4-0.4,0.6c0,0,0,0,0,0.1l42.1,17.5l9.9,46.8c0.1-0.1,0.1-0.1,0.1-0.2C199.8,298,199.9,297.5,199.9,297.5z"/>
	<path class="st0" d="M201.3,297l-10-47.4L149.1,232c0,0-0.1,0.1-0.1,0.1c-0.2,0.1-0.3,0.3-0.5,0.5c-0.1,0.2-0.3,0.3-0.4,0.5
		l42.2,17.6l9.9,47c0,0,0.1,0,0.1,0C200.7,297.6,201,297.4,201.3,297z"/>
	<path class="st0" d="M148,220.5c0,0.1,0,0.1,0,0.2c0,0,0.3-0.2,0.7-0.4c0.9-0.5,2.3-1.2,2.8-1.1l24.5-14.1c0-0.1,0-0.2,0-0.3
		c0-0.2,0-0.3,0-0.5c0-0.1,0-0.2,0-0.3L148,220.2C148,220.3,148,220.4,148,220.5z"/>
	<path class="st0" d="M201.9,295.6c0.1-0.2,0.1-0.4,0.2-0.5l-9.8-46.6l-42.8-17.8c0.1,0.2,0.1,0.3,0.2,0.4c0.1,0.1,0.1,0.2,0.2,0.3
		c0,0-0.1,0.1-0.3,0.3c-0.1,0.1-0.2,0.2-0.4,0.3l42.1,17.6l10,47.4c0,0,0.1-0.1,0.1-0.1C201.6,296.5,201.7,296.1,201.9,295.6z"/>
	<path class="st0" d="M151.8,219.2c0,0,0.3,0.1,0.6,0.3c0.1,0,0.2,0.1,0.3,0.2l23.1-13.3c0,0,0,0,0,0c0.1-0.1,0.1-0.2,0.2-0.3
		c0-0.1,0.1-0.2,0.1-0.4c0-0.1,0.1-0.3,0.1-0.4c0,0,0-0.1,0-0.1l-24.5,14.1C151.7,219.1,151.8,219.2,151.8,219.2z"/>
	<path class="st0" d="M152.8,220.4c-0.2,0.2-0.6,0.4-1.2,0.7c0,0-1,0.1-2,0.6c-0.4,0.2-0.8,0.4-1,0.7c-0.1,0.2-0.3,0.4-0.3,0.6
		c0,0.1,0,0.1,0,0.2l26.8-15.4c-0.1-0.1-0.2-0.3-0.2-0.4l0.1-0.4c0.2,0,0.3-0.1,0.4-0.2c0.1-0.1,0.2-0.2,0.3-0.3
		c0.1-0.1,0.1-0.2,0.2-0.3l-23.1,13.3c0.1,0.1,0.2,0.2,0.2,0.3C153,220,153,220.2,152.8,220.4z"/>
	<path class="st0" d="M202,295.1c0.1-0.3,0.1-0.5,0.2-0.8c0.1-0.4,0.2-0.9,0.3-1.4c0-0.2,0.1-0.4,0.1-0.6l-9.5-44.9L149,229.1
		c0,0.2,0.1,0.4,0.1,0.6c0.1,0.2,0.1,0.5,0.2,0.7c0,0.1,0.1,0.2,0.1,0.3l42.8,17.8L202,295.1z"/>
	<path class="st0" d="M202.8,290.1c0-0.4,0.1-0.8,0.1-1.2l-9-42.5l-45.2-18.8c0,0.1,0,0.2,0,0.3c0,0.2,0.1,0.4,0.1,0.6
		c0,0.2,0.1,0.4,0.1,0.6c0,0,0,0,0,0l44.1,18.4l9.5,44.9c0-0.3,0.1-0.5,0.1-0.8C202.7,291,202.8,290.6,202.8,290.1z"/>
	<path class="st0" d="M148.3,224c0,0,0,0.1,0,0.1c0,0,0,0,0,0l27.2-15.6c0,0,0,0,0-0.1c-0.1-0.2-0.2-0.3-0.3-0.5
		c0-0.1-0.1-0.1-0.1-0.2l-26.8,15.4c0,0.1,0,0.2,0,0.3C148.2,223.6,148.3,223.8,148.3,224z"/>
	<path class="st0" d="M203,287.3c0-0.5,0-0.9,0.1-1.4c0-0.3,0-0.7,0-1l-8.3-39.5l-46.2-19.3c0,0,0,0,0,0c0,0.2,0,0.3,0.1,0.5
		c0,0.2,0,0.4,0.1,0.5c0,0.1,0,0.2,0,0.3l45.2,18.8l9,42.5c0-0.1,0-0.1,0-0.2C203,288.2,203,287.8,203,287.3z"/>
	<path class="st0" d="M148.4,224.8c0,0.1,0,0.2,0,0.3l23.8-13.7c0.1-0.1,0.1-0.2,0.2-0.3c0,0,0-0.1,0-0.1c0-0.1,0.1-0.1,0.2-0.2
		c0.1,0,0.1-0.1,0.2-0.2c0.1,0,0.2-0.1,0.2-0.1c0.1,0,0.2-0.1,0.2-0.1c0.1,0,0.2-0.1,0.2-0.1c0.1,0,0.2-0.1,0.2-0.1
		c0.1,0,0.1,0,0.2-0.1c0.1,0,0.2-0.1,0.3-0.1c0.1,0,0.2-0.1,0.3-0.1c0.1,0,0.1,0,0.2-0.1l1.1-0.7c-0.1-0.1-0.1-0.2-0.2-0.3
		c-0.1-0.1-0.2-0.3-0.3-0.4l-27.2,15.6C148.3,224.2,148.4,224.5,148.4,224.8z"/>
	<path class="st0" d="M175.4,209.7c0.2,0,0.3-0.1,0.4-0.1c0.2-0.1,0.3-0.1,0.3-0.1c0,0,0-0.1-0.1-0.1c0-0.1-0.1-0.1-0.1-0.2
		l-1.1,0.7c0.1,0,0.1,0,0.2-0.1C175.1,209.8,175.3,209.7,175.4,209.7z"/>
	<path class="st0" d="M148.5,225.7c0,0.1,0,0.3,0.1,0.5l46.2,19.3l8.3,39.5c0-0.1,0-0.2,0-0.3c0-0.5,0-0.9,0-1.3c0-0.5,0-0.9,0-1.3
		c0-0.6,0-1.1,0-1.3c0-0.1,0-0.1,0-0.1c0-0.1,0-0.2,0-0.2l-7.6-36l-46-19.2l22.5-13c-0.1-0.1-0.1-0.3,0-0.6c0-0.1,0.1-0.3,0.1-0.4
		c0,0,0,0,0,0L148.4,225c0,0.1,0,0.1,0,0.2C148.5,225.4,148.5,225.6,148.5,225.7z"/>
	<path class="st0" d="M203,278.2c0-0.4-0.1-0.9-0.1-1.3c0-0.4-0.1-0.8-0.1-1.3c0-0.4-0.1-0.8-0.2-1.2c-0.1-0.4-0.1-0.8-0.2-1.2
		c-0.1-0.4-0.1-0.8-0.2-1.2c-0.1-0.4-0.1-0.8-0.2-1.2c-0.1-0.4-0.1-0.8-0.2-1.1l-1.6-7.6c0,0,0-0.1,0-0.1c-0.1-0.3-0.2-0.7-0.3-1
		c-0.1-0.3-0.2-0.7-0.3-1c-0.1-0.3-0.2-0.7-0.3-1c-0.1-0.3-0.2-0.6-0.3-1c-0.1-0.3-0.2-0.6-0.3-0.9c-0.1-0.3-0.2-0.6-0.3-0.9
		c-0.1-0.3-0.2-0.6-0.3-0.9l0.1,0.1c0.1-0.1,0.2-0.2,0.2-0.4c0,0,0-0.1,0-0.1l-2.4-11.1L151.7,225l22.1-12.7c-0.1,0-0.1,0-0.2,0.1
		c-0.1,0-0.2,0.1-0.3,0.1c-0.1,0-0.2,0.1-0.3,0.1c-0.1,0-0.2,0-0.3,0.1c-0.1,0-0.3,0-0.4,0c-0.2,0-0.3-0.1-0.3-0.2l-22.5,13l46,19.2
		l7.6,36c0-0.3,0-0.6-0.1-1C203.1,279.1,203.1,278.6,203,278.2z"/>
	<path class="st0" d="M174.8,211.7c-0.1,0-0.1,0.1-0.2,0.1c-0.1,0-0.2,0.1-0.2,0.1c-0.1,0-0.2,0.1-0.2,0.1c-0.1,0.1-0.2,0.1-0.2,0.1
		l1.1-0.6C174.9,211.6,174.9,211.7,174.8,211.7z"/>
	<path class="st0" d="M196.4,243.6l2.4,11.1c0-0.1,0-0.2,0.1-0.4c0-0.2,0-0.3,0-0.5c0-0.2,0-0.4,0-0.6c0-0.2,0-0.4,0-0.6
		c0-0.2,0-0.4,0-0.6c0-0.2,0-0.4-0.1-0.6c0-0.2,0-0.4-0.1-0.6c0-0.2,0-0.4-0.1-0.5c0-0.2,0-0.4-0.1-0.5c0-0.2-0.1-0.4-0.1-0.5
		c0-0.2-0.1-0.4-0.1-0.5c0-0.2-0.1-0.4-0.1-0.5c0-0.2-0.1-0.4-0.1-0.5c0-0.1,0-0.2,0-0.2s0,0,0.1,0l-1-5l-43.3-18l23.4-13.5
		c0,0-0.1,0-0.1,0c-0.2,0-0.4,0-0.6,0c-0.1,0-0.3,0-0.4,0.1c-0.1,0-0.2,0.1-0.3,0.1c-0.1,0-0.2,0.1-0.3,0.1
		c-0.1,0.1-0.3,0.1-0.4,0.2c0,0,0,0,0,0l-1.1,0.6c0,0,0,0,0,0c0,0-0.1,0-0.1,0c0,0,0,0,0,0L151.7,225L196.4,243.6z"/>
	<path class="st0" d="M201.7,268.5c-0.1-0.4-0.1-0.8-0.2-1.1c-0.1-0.4-0.2-0.7-0.2-1.1c-0.1-0.4-0.2-0.7-0.2-1.1
		c-0.1-0.4-0.2-0.7-0.2-1.1c-0.1-0.4-0.2-0.7-0.2-1.1c-0.1-0.3-0.1-0.6-0.2-0.9l1.6,7.6c0,0,0,0,0,0
		C201.8,269.2,201.7,268.8,201.7,268.5z"/>
	<path class="st0" d="M198.8,247.8c0.1,0,0.2,0,0.3,0.1l-0.8-3.9c-0.5-0.6-1-1.3-1.5-1.9c-0.3-0.4-0.6-0.7-0.9-1.1l-40.1-16.7
		l22.1-12.7c0,0,0,0-0.1-0.1c-0.2-0.2-0.4-0.3-0.7-0.4l-23.4,13.5l43.3,18l1,5c0,0,0.1,0,0.2,0C198.5,247.7,198.7,247.7,198.8,247.8
		z"/>
	<path class="st0" d="M199.7,247.9c0.1,0,0.3,0.1,0.4,0.1c0,0,0,0,0,0l-0.5-2.6c-0.3-0.4-0.7-0.9-1.1-1.3c0-0.1-0.1-0.1-0.1-0.2
		l0.8,3.9c0,0,0.1,0,0.1,0C199.4,247.9,199.5,247.9,199.7,247.9z"/>
	<path class="st0" d="M196,241c-0.2-0.3-0.4-0.5-0.6-0.8c-0.3-0.3-0.5-0.6-0.7-0.9L157.9,224l20.5-11.8c0-0.1-0.1-0.1-0.1-0.1
		c0,0,0-0.1-0.1-0.1c-0.1-0.2-0.2-0.3-0.3-0.4l-22.1,12.7L196,241z"/>
	<path class="st0" d="M200.9,248.2c0.1,0,0.1,0,0.1,0l-0.3-1.4c-0.1-0.1-0.2-0.2-0.3-0.3c-0.3-0.3-0.6-0.7-0.9-1.1l0.5,2.6
		c0.1,0,0.3,0.1,0.4,0.1C200.6,248.1,200.7,248.2,200.9,248.2z"/>
	<path class="st0" d="M193.3,237.7l-33.5-14l19-10.9c-0.1-0.1-0.2-0.2-0.2-0.3c-0.1-0.1-0.2-0.2-0.2-0.3L157.9,224l36.7,15.3
		c-0.2-0.3-0.5-0.6-0.7-0.8C193.6,238.1,193.4,237.8,193.3,237.7z"/>
	<path class="st0" d="M201.3,248.3c0.2,0,0.4,0.1,0.5,0.1c0,0,0.1,0,0.1,0l-0.1-0.3c0,0-0.1-0.1-0.1-0.1c-0.1-0.1-0.2-0.2-0.2-0.3
		c-0.1-0.1-0.2-0.2-0.2-0.3c-0.2-0.2-0.3-0.4-0.5-0.6l0.3,1.4C201.1,248.2,201.2,248.3,201.3,248.3z"/>
	<path class="st0" d="M193.1,237.4c0,0,0.1-0.1,0.1-0.1c0,0,0.1-0.1,0.1-0.2c0-0.1,0-0.1,0-0.2c0-0.1,0-0.1,0-0.2c0,0,0-0.1,0-0.1
		l-31.7-13.2l17.6-10.1c-0.1-0.1-0.2-0.3-0.3-0.4c0-0.1-0.1-0.1-0.1-0.2l-19,10.9l33.5,14C193.1,237.5,193.1,237.4,193.1,237.4
		C193.1,237.4,193.1,237.4,193.1,237.4z"/>
	<path class="st0" d="M202.5,248.7C202.5,248.7,202.5,248.7,202.5,248.7C202.5,248.7,202.5,248.7,202.5,248.7c0-0.1-0.1-0.1-0.2-0.2
		C202.4,248.7,202.4,248.7,202.5,248.7z"/>
	<path class="st0" d="M193.4,236.3c0-0.1,0-0.1,0-0.2c0-0.1,0-0.2,0-0.2c0-0.1,0-0.2,0-0.2c0,0,0,0,0,0l-29.8-12.4l16.1-9.3
		c0,0,0-0.1-0.1-0.1c-0.1-0.1-0.2-0.3-0.3-0.4c0,0,0,0,0,0l-17.6,10.1l31.7,13.2c0,0,0-0.1,0-0.1
		C193.4,236.4,193.4,236.3,193.4,236.3z"/>
	<path class="st0" d="M202.2,248.5C202.2,248.6,202.2,248.6,202.2,248.5C202.2,248.5,202.2,248.5,202.2,248.5
		c-0.1-0.1-0.2-0.2-0.3-0.3c0,0-0.1-0.1-0.1-0.1l0.1,0.3c0,0,0.1,0,0.1,0C202.1,248.5,202.2,248.5,202.2,248.5z"/>
	<path class="st0" d="M193.3,235.5c0-0.1,0-0.1,0-0.2c0-0.1,0-0.2-0.1-0.2c0-0.1,0-0.2-0.1-0.2c0-0.1,0-0.2-0.1-0.2
		c0-0.1,0-0.1-0.1-0.2l-2.4-1l0,0c0,0,0,0,0,0.1c0,0,0,0,0-0.1c0,0,0,0,0-0.1l-25.3-10.5l14.8-8.5c0-0.1-0.1-0.1-0.1-0.2
		c-0.1-0.1-0.2-0.2-0.2-0.3l-16.1,9.3L193.3,235.5z"/>
	<path class="st0" d="M190.4,233.1c0-0.1-0.1-0.1-0.1-0.2c0-0.1-0.1-0.1-0.1-0.2c0-0.1-0.1-0.1-0.1-0.2c0-0.1-0.1-0.1-0.1-0.2
		c0-0.1-0.1-0.1-0.1-0.2c0,0,0-0.1-0.1-0.1l-23-9.6l13.4-7.7c-0.1-0.1-0.2-0.2-0.2-0.3c0-0.1-0.1-0.1-0.1-0.2l-14.8,8.5l25.3,10.5
		c0,0,0-0.1,0-0.1C190.4,233.2,190.4,233.2,190.4,233.1z"/>
	<path class="st0" d="M192.9,234.2c0-0.1,0-0.1-0.1-0.2c0-0.1,0-0.1-0.1-0.2c0,0,0-0.1,0-0.1c0,0,0-0.1,0-0.1c0,0,0-0.1,0-0.1
		c0,0,0,0,0-0.1l-2.1-0.9l0.1,1l2.4,1c0,0,0,0,0,0C193,234.3,192.9,234.2,192.9,234.2z"/>
	<path class="st0" d="M192.6,233.2C192.6,233.1,192.6,233.1,192.6,233.2c0-0.1-0.1-0.2-0.1-0.2c0,0,0-0.1,0-0.1c0,0,0-0.1,0-0.1
		c0,0,0-0.1,0-0.1c0,0,0-0.1,0-0.1c0,0,0-0.1,0-0.1c0,0,0-0.1,0-0.1c0,0,0,0,0-0.1c0,0,0,0,0-0.1c0,0,0,0,0-0.1c0,0,0,0,0-0.1
		l-1.9-0.8c0,0.1,0,0.2,0.1,0.3c0,0.1,0.1,0.3,0.1,0.4l0,0.3l2.1,0.9C192.6,233.3,192.6,233.3,192.6,233.2
		C192.6,233.2,192.6,233.2,192.6,233.2z"/>
	<path class="st0" d="M189.9,232.2C189.9,232.1,189.9,232.1,189.9,232.2l0-0.2l-0.1,0c0,0,0,0,0-0.1c0,0,0,0,0-0.1c0,0,0,0,0-0.1
		c0,0,0,0,0-0.1c0,0,0,0,0-0.1c0,0,0,0,0-0.1c0,0,0,0,0-0.1c0,0,0,0,0-0.1c0,0,0,0,0-0.1c0,0,0,0,0-0.1c0,0,0,0,0,0c0,0,0,0,0,0
		c0,0,0,0,0,0c0,0,0,0,0,0c0,0,0,0,0,0c0,0,0,0,0,0c0,0,0,0,0,0c0,0,0,0,0,0c0,0,0,0,0,0c0,0,0,0,0,0c0,0,0,0,0,0l-20.7-8.6l12.1-7
		c0,0,0-0.1-0.1-0.1c-0.1-0.1-0.2-0.2-0.2-0.3c0,0,0,0,0,0l-13.4,7.7L189.9,232.2z"/>
	<path class="st0" d="M192.3,232.1C192.2,232.1,192.2,232.1,192.3,232.1c0-0.1,0-0.1,0-0.1c0,0,0,0,0-0.1c0,0,0,0,0-0.1
		c0,0,0,0,0-0.1c0,0,0,0,0-0.1c0,0,0,0,0-0.1c0,0,0,0,0-0.1c0,0,0,0,0,0c0,0,0,0,0,0c0,0,0,0,0,0c0,0,0,0,0,0c0,0,0,0,0,0
		c0,0,0,0,0,0c0,0,0,0,0,0c0,0,0,0,0,0c0,0,0,0,0,0c0,0,0,0,0,0c0,0,0,0,0,0c0,0,0-0.1,0-0.1l-1.8-0.7c0,0,0,0,0,0c0,0,0,0,0,0
		c0,0,0,0,0,0c0,0,0,0,0,0c0,0,0,0,0,0c0,0,0,0,0,0c0,0,0,0,0,0c0,0,0,0,0,0c0,0,0,0,0,0c0,0,0,0,0,0c0,0,0,0,0,0c0,0,0,0,0,0
		c0,0,0,0,0,0c0,0,0,0,0,0c0,0,0,0,0,0c0,0,0,0,0,0c0,0,0,0,0,0.1c0,0,0,0,0,0.1c0,0,0,0,0,0.1c0,0,0,0,0,0.1c0,0,0,0,0,0.1
		c0,0,0,0,0,0.1c0,0,0,0,0,0c0,0,0,0,0,0.1L192.3,232.1C192.3,232.2,192.3,232.2,192.3,232.1C192.3,232.2,192.3,232.2,192.3,232.1z"
		/>
	<path class="st0" d="M189.2,230.9C189.2,230.9,189.2,230.9,189.2,230.9C189.2,230.9,189.2,230.8,189.2,230.9
		C189.2,230.8,189.2,230.8,189.2,230.9c-0.1-0.1-0.1-0.1-0.1-0.1c0,0,0,0,0,0c0,0,0,0,0,0c0,0,0,0,0,0c0,0,0,0,0,0c0,0,0,0,0,0
		c0,0,0,0,0,0c0,0,0,0,0,0c0,0,0,0,0,0c0,0,0,0,0-0.1c0,0,0,0,0-0.1c0,0,0,0,0-0.1c0,0,0,0,0-0.1c0,0,0,0,0-0.1c0,0,0,0,0-0.1
		c0,0,0,0,0-0.1c0,0,0,0,0-0.1c0,0,0,0,0-0.1c0,0,0,0,0-0.1c0,0,0,0,0-0.1l-18.4-7.7l10.8-6.2c-0.1-0.1-0.1-0.2-0.2-0.3
		c0-0.1-0.1-0.2-0.2-0.2l-12.1,7L189.2,230.9C189.2,230.9,189.2,230.9,189.2,230.9C189.2,230.9,189.2,230.9,189.2,230.9z"/>
	<path class="st0" d="M191.5,230.1l-1.7-0.7c0,0,0,0,0,0c0,0,0,0,0,0.1c0,0,0,0,0,0.1c0,0,0,0,0,0.1c0,0,0,0,0,0.1c0,0,0,0,0,0.1
		c0,0,0,0,0,0c0,0,0,0,0,0c0,0,0,0,0,0c0,0,0,0,0,0c0,0,0,0,0,0c0,0,0,0,0,0c0,0.1,0.1,0.3,0.1,0.4c0,0,0,0,0,0c0,0,0,0,0,0l1.8,0.7
		C191.7,230.8,191.6,230.4,191.5,230.1z"/>
	<path class="st0" d="M188.6,229.7C188.5,229.7,188.5,229.6,188.6,229.7c-0.1-0.1-0.1-0.1-0.1-0.1l0-0.1l-0.1,0c0,0,0-0.1-0.1-0.1
		c0,0,0-0.1-0.1-0.1c0,0,0-0.1-0.1-0.1c0,0,0-0.1,0-0.1c0,0,0-0.1,0-0.1c0,0,0-0.1,0-0.1c0,0,0-0.1,0-0.1c0,0,0-0.1,0-0.1
		c0,0,0-0.1,0-0.1c0,0,0,0,0,0l-16.3-6.8l9.6-5.5c0,0,0-0.1-0.1-0.1c-0.1-0.1-0.1-0.2-0.2-0.3c0,0,0,0,0-0.1l-10.8,6.2L188.6,229.7
		C188.6,229.8,188.6,229.8,188.6,229.7C188.6,229.7,188.6,229.7,188.6,229.7z"/>
	<path class="st0" d="M191.1,229l-1.4-0.6c0,0,0,0,0,0.1c0,0,0,0,0,0c0,0,0,0,0,0c0,0,0,0,0,0c0,0,0,0,0,0c0,0,0,0,0,0c0,0,0,0,0,0
		c0,0,0,0,0,0c0,0,0,0,0,0c0,0,0,0,0,0c0,0,0,0,0,0c0,0,0,0,0,0.1c0,0,0,0,0,0.1c0,0,0,0,0,0.1c0,0,0,0,0,0.1c0,0,0,0,0,0.1
		c0,0,0,0.1,0,0.1c0,0,0,0,0,0.1c0,0,0,0,0,0.1c0,0,0,0,0,0l1.7,0.7C191.3,229.7,191.2,229.3,191.1,229z"/>
	<path class="st0" d="M187.9,228.5C187.9,228.5,187.9,228.4,187.9,228.5c-0.1-0.1-0.1-0.1-0.1-0.1c0,0,0,0,0-0.1c0,0,0,0,0-0.1
		c0,0,0,0,0-0.1c0,0,0,0,0-0.1c0,0,0,0,0,0c0,0,0,0,0,0c0,0,0,0,0,0c0,0,0,0,0,0c0,0,0,0,0,0c0,0,0,0,0,0c0,0,0,0,0-0.1
		c0,0,0,0,0-0.1c0,0,0,0,0-0.1c0,0,0,0,0-0.1c0,0,0,0,0-0.1c0,0,0,0,0-0.1c0,0,0,0,0,0l-14.2-5.9l8.4-4.8c0,0,0,0,0,0
		c-0.1-0.1-0.1-0.2-0.2-0.3c0-0.1-0.1-0.1-0.1-0.2l-9.6,5.5l16.3,6.8C188,228.6,188,228.6,187.9,228.5
		C187.9,228.5,187.9,228.5,187.9,228.5z"/>
	<path class="st0" d="M190.7,228l-1.2-0.5c0,0,0,0,0,0c0,0,0,0,0,0c0,0,0,0,0,0c0,0,0,0,0,0c0,0,0,0,0,0c0,0,0,0,0,0c0,0,0,0,0,0
		c0,0,0,0,0,0c0,0,0,0,0,0c0,0,0,0,0,0c0,0,0,0,0,0c0,0,0,0,0,0c0,0,0,0,0,0c0,0.1,0,0.3,0,0.4l1.4,0.6c-0.2-0.5-0.3-0.7-0.3-0.7
		C190.7,228.2,190.7,228.1,190.7,228z"/>
	<path class="st0" d="M187.4,227.5C187.4,227.5,187.4,227.5,187.4,227.5C187.4,227.5,187.3,227.4,187.4,227.5
		c-0.1-0.1-0.1-0.1-0.1-0.1c0,0,0,0,0-0.1c0,0,0,0,0-0.1c0,0,0,0,0-0.1c0,0,0,0,0-0.1c0,0,0,0,0-0.1c0,0,0-0.1,0-0.1
		c0,0,0-0.1,0-0.1c0,0,0-0.1,0-0.1c0,0,0-0.1,0-0.1c0,0,0-0.1,0-0.1c0,0,0-0.1,0-0.1c0,0,0-0.1-0.1-0.1c0,0,0,0,0,0l-12.1-5l7.1-4.1
		c0-0.1-0.1-0.1-0.1-0.2c0-0.1-0.1-0.2-0.1-0.2l-8.4,4.8L187.4,227.5z"/>
	<path class="st0" d="M186.7,226.2c0,0,0-0.1-0.1-0.1c0,0,0-0.1-0.1-0.1c0,0,0-0.1-0.1-0.1c0,0,0-0.1-0.1-0.1c0,0,0-0.1-0.1-0.1
		c-0.1-0.1-0.1-0.2-0.2-0.3l-10.1-4.2l5.9-3.4c0-0.1-0.1-0.1-0.1-0.2c0-0.1-0.1-0.2-0.1-0.2c0,0,0,0,0,0l-7.1,4.1l12.1,5
		C186.8,226.4,186.8,226.3,186.7,226.2C186.7,226.3,186.7,226.3,186.7,226.2z"/>
	<path class="st0" d="M190.8,227.8l-0.3-0.5c0,0,0-0.1,0-0.1l-1.2-0.5c0,0,0,0.1,0,0.1c0,0.1,0.1,0.2,0.1,0.3c0,0,0,0.1,0,0.1
		c0,0,0,0,0,0.1c0,0,0,0,0,0.1c0,0,0,0,0,0.1c0,0,0,0,0,0.1c0,0,0,0,0,0.1c0,0,0,0,0,0.1c0,0,0,0,0,0.1c0,0,0,0,0,0l1.2,0.5
		c0-0.1,0-0.2,0-0.2L190.8,227.8z"/>
	<path class="st0" d="M190.3,226.3l-1.3-0.6c0,0,0,0,0,0c0,0.1,0.1,0.2,0.1,0.3c0,0.1,0.1,0.2,0.1,0.3c0,0.1,0,0.1,0.1,0.2l1.2,0.5
		C190.5,226.9,190.4,226.6,190.3,226.3z"/>
	<path class="st0" d="M177.5,220.9l4.7-2.7c0,0,0-0.1,0-0.1c0-0.1,0-0.1-0.1-0.2c0-0.1,0-0.1-0.1-0.2c0,0,0,0,0,0l-5.9,3.4l10.1,4.2
		c-0.2-0.4-0.4-0.7-0.6-1L177.5,220.9z"/>
	<path class="st0" d="M190.3,226.2C190.3,226.2,190.3,226.2,190.3,226.2C190.3,226.1,190.3,226.1,190.3,226.2c0-0.1,0-0.1,0-0.1
		c0,0,0,0,0,0c0,0,0,0,0-0.1c0,0,0,0,0-0.1c0,0,0,0,0-0.1c0,0,0,0,0-0.1c0,0,0,0,0-0.1c0,0,0,0,0-0.1c0,0,0,0,0-0.1c0,0,0,0,0-0.1
		c0,0,0,0,0-0.1c0,0,0,0,0-0.1c0,0,0,0,0,0l-1.4-0.6l0.1,0.2c0,0.1,0.1,0.3,0.1,0.4c0,0.1,0.1,0.2,0.1,0.3L190.3,226.2
		C190.3,226.3,190.3,226.3,190.3,226.2C190.3,226.2,190.3,226.2,190.3,226.2z"/>
	<path class="st0" d="M178.8,220.7l4-2.3c0,0,0,0,0,0c-0.1,0-0.2,0-0.3,0c-0.2,0-0.3,0-0.3,0c0,0,0-0.1,0-0.2c0,0,0-0.1,0-0.1
		l-4.7,2.7l8.2,3.4c-0.2-0.4-0.4-0.7-0.5-1L178.8,220.7z"/>
	<path class="st0" d="M185.1,223.3c-0.2-0.4-0.4-0.7-0.5-1l-4.5-1.9l3.7-2.1c0,0,0,0-0.1,0c-0.1,0-0.2,0-0.3,0c-0.1,0-0.2,0-0.3,0
		c-0.1,0-0.2,0-0.2,0l-4,2.3L185.1,223.3z"/>
	<path class="st0" d="M190,225.3C190,225.2,190,225.2,190,225.3c0-0.1,0-0.1-0.1-0.2c0,0,0-0.1,0-0.1c0,0,0-0.1,0-0.1
		c0,0,0-0.1,0-0.1c0,0,0-0.1,0-0.1c0,0,0-0.1,0-0.1c0,0,0-0.1,0-0.1c0,0,0,0,0-0.1l-1.4-0.6c0,0,0,0,0,0c0,0,0,0.1,0,0.1
		c0,0,0,0.1,0,0.1c0,0,0,0.1,0,0.1c0,0,0,0.1,0,0.1c0,0,0,0.1,0,0.1c0,0,0,0.1,0,0.1c0,0,0,0.1,0,0.1c0,0,0,0.1,0,0.1c0,0,0,0,0,0.1
		c0,0,0,0,0,0.1l0,0l0,0.1l1.4,0.6C190.1,225.4,190,225.4,190,225.3C190,225.3,190,225.3,190,225.3z"/>
	<path class="st0" d="M184.5,222c0,0,0.1,0,0.1,0c0,0,0.1,0,0.1,0c0,0,0.1,0,0.1,0c0,0,0.1,0,0.1,0c0,0,0.1,0,0.1,0c0,0,0.1,0,0.1,0
		c0,0,0,0,0,0l-3.9-1.6l3.2-1.9c0,0-0.1,0-0.1,0c-0.1,0-0.3,0-0.4,0c-0.1,0-0.2,0-0.3,0l-3.7,2.1l4.5,1.9c-0.1-0.2-0.2-0.3-0.2-0.3
		S184.5,222,184.5,222z"/>
	<path class="st0" d="M189.7,224.4c0,0,0-0.1,0-0.1c0,0,0-0.1,0-0.1c0,0,0-0.1,0-0.1c0,0,0-0.1-0.1-0.1c0,0,0-0.1-0.1-0.1
		c0,0,0-0.1-0.1-0.1c0,0,0,0,0,0l-1.4-0.6c0,0,0,0.1,0.1,0.1c0,0,0,0.1,0.1,0.1c0,0,0,0.1,0,0.1c0,0,0,0.1,0,0.1c0,0,0,0.1,0,0.1
		c0,0,0,0.1,0,0.1c0,0,0,0.1,0,0.1c0,0,0,0.1,0,0.1l1.4,0.6c0,0,0,0,0,0C189.7,224.5,189.7,224.4,189.7,224.4z"/>
	<path class="st0" d="M185.4,221.9C185.5,221.9,185.5,221.9,185.4,221.9c0.1,0,0.2,0,0.2,0c0,0,0.1,0,0.1,0c0,0,0.1,0,0.1,0
		c0,0,0.1,0,0.1,0c0,0,0.1,0,0.1,0c0,0,0.1,0,0.1,0c0,0,0,0,0,0l-3.8-1.6l2.7-1.6c-0.1,0-0.2,0-0.3-0.1c-0.1,0-0.3,0-0.4,0l-3.2,1.9
		l3.9,1.6c0,0,0.1,0,0.1,0C185.4,221.9,185.4,221.9,185.4,221.9z"/>
	<path class="st0" d="M189.3,223.5c0,0,0-0.1-0.1-0.1c0,0,0-0.1-0.1-0.1c0,0,0-0.1-0.1-0.1c0-0.1-0.1-0.1-0.1-0.2
		c0-0.1-0.1-0.1-0.1-0.2c0,0,0,0,0,0l-1.4-0.6c0,0,0,0,0,0c0,0,0,0.1,0.1,0.1c0,0,0,0.1,0.1,0.1c0,0,0,0.1,0.1,0.1
		c0,0,0,0.1,0.1,0.1c0,0,0,0.1,0.1,0.1c0,0,0,0.1,0.1,0.1c0,0,0,0,0,0l1.4,0.6C189.4,223.6,189.3,223.6,189.3,223.5z"/>
	<path class="st0" d="M188.8,222.5c0-0.1-0.1-0.1-0.1-0.2c0-0.1-0.1-0.1-0.1-0.2c0-0.1-0.1-0.1-0.1-0.2c0,0,0,0,0,0l-4.7-2l2.1-1.2
		c-0.1,0-0.2-0.1-0.3-0.1c-0.1,0-0.2,0-0.3-0.1l-2.7,1.6l3.8,1.6c0,0,0.1,0,0.1,0c0,0,0.1,0,0.1,0c0,0,0.1,0,0.1-0.1
		c0,0,0.1,0,0.1-0.1c0,0,0.1,0,0.1-0.1c0,0,0.1-0.1,0.1-0.1l0.1,0c0,0,0,0.1,0.1,0.2c0,0,0,0.1,0.1,0.2c0,0.1,0,0.1,0.1,0.2
		c0,0.1,0,0.1,0.1,0.2c0,0,0,0.1,0.1,0.1l1.4,0.6c0,0,0-0.1-0.1-0.1C188.8,222.6,188.8,222.5,188.8,222.5z"/>
	<path class="st0" d="M188.5,221.9c0-0.1-0.1-0.1-0.1-0.2c0-0.1-0.1-0.1-0.1-0.2c0-0.1-0.1-0.2-0.1-0.2c-0.1-0.1-0.1-0.2-0.2-0.2
		c0,0,0,0,0,0l-3-1.2l1.5-0.9c-0.2-0.1-0.3-0.1-0.5-0.2l-2.1,1.2L188.5,221.9z"/>
	<path class="st0" d="M187.5,220.5C187.5,220.5,187.5,220.4,187.5,220.5c0-0.1,0-0.1-0.1-0.2c0,0,0-0.1,0-0.1l-1.5-0.6l0.8-0.5
		c-0.1-0.1-0.3-0.2-0.4-0.2l-1.5,0.9l3,1.2c-0.1-0.1-0.1-0.2-0.2-0.2C187.6,220.6,187.6,220.6,187.5,220.5z"/>
	<path class="st0" d="M187.5,220.2C187.5,220.2,187.5,220.1,187.5,220.2c0-0.1,0-0.2-0.1-0.3c0-0.1-0.1-0.2-0.1-0.2
		c0-0.1-0.1-0.2-0.2-0.2l0,0l0,0c0,0,0,0,0,0c-0.1-0.1-0.2-0.2-0.3-0.2l-0.8,0.5L187.5,220.2z"/>
	<path class="st0" d="M187.1,219.4L187.1,219.4C187.1,219.4,187.1,219.4,187.1,219.4L187.1,219.4z"/>
</g>
</svg>
