<?xml version="1.0" encoding="utf-8"?>
<!-- Generator: Adobe Illustrator 22.0.1, SVG Export Plug-In . SVG Version: 6.00 Build 0)  -->
<svg version="1.1" id="レイヤー_1" xmlns="http://www.w3.org/2000/svg" xmlns:xlink="http://www.w3.org/1999/xlink" x="0px"
	 y="0px" viewBox="0 0 640 640" style="enable-background:new 0 0 640 640;" xml:space="preserve">
<style type="text/css">
	.st0{fill:none;stroke:#E50012;stroke-width:0.1802;stroke-miterlimit:10;}
</style>
<g>
	<path class="st0" d="M277.6,387.4c0-0.2,0.1-0.4,0.1-0.4l-1.1,1.8l0.7,0.3C277.4,388.4,277.5,387.8,277.6,387.4z"/>
	<path class="st0" d="M275.7,391.2c0,0-0.5,0.4-0.7,0.9c-0.1,0.1-0.1,0.3-0.2,0.4l2.2,0.9c0-0.6,0.1-1.1,0.1-1.7c0-0.2,0-0.3,0-0.5
		l-1.7-0.7C275.5,390.8,275.5,391,275.7,391.2z"/>
	<path class="st0" d="M297.2,404c-0.2-0.2-0.4-0.3-0.5-0.5c-0.2-0.2-0.4-0.3-0.6-0.5c-0.2-0.2-0.4-0.3-0.6-0.5
		c-0.2-0.1-0.4-0.3-0.7-0.4c-0.2-0.1-0.5-0.3-0.7-0.4c-0.3-0.1-0.5-0.2-0.8-0.3c-0.3-0.1-0.6-0.1-0.9-0.1c-0.3,0-0.7,0-1,0.1
		c-0.1,0-0.3,0.1-0.4,0.1l6.7,2.9C297.5,404.4,297.4,404.2,297.2,404z"/>
	<path class="st0" d="M275.1,393.5c0,0-0.1,0.1-0.2,0.4c-0.1,0.2-0.2,0.4-0.3,0.6l2.2,1c0.1-0.7,0.1-1.4,0.2-2.1l-2.2-0.9
		C274.7,392.8,274.8,393.2,275.1,393.5z"/>
	<path class="st0" d="M289.1,402.9l16.1,6.9c-0.2-0.6-0.5-1.2-1-1.6c-0.2-0.3-0.5-0.5-0.8-0.7c-0.2-0.2-0.5-0.3-0.8-0.5
		c-0.2-0.1-0.5-0.3-0.7-0.4c-0.2-0.1-0.5-0.2-0.7-0.3c-0.2-0.1-0.4-0.2-0.7-0.3c-0.2-0.1-0.4-0.1-0.6-0.2c-0.2-0.1-0.4-0.1-0.6-0.2
		c-0.3-0.1-0.5-0.1-0.6-0.2c-0.2,0-0.3-0.1-0.3-0.1s-0.1-0.1-0.3-0.3c-0.1-0.1-0.3-0.3-0.5-0.5c0,0,0,0-0.1-0.1l-6.7-2.9
		c-0.3,0.1-0.6,0.2-0.9,0.4C289.7,402.2,289.4,402.5,289.1,402.9z"/>
	<path class="st0" d="M230.2,476.2c-0.2,0.4-0.3,0.8-0.5,1.2c-0.3,0.7-0.6,1.3-0.8,2c-0.3,0.6-0.5,1.3-0.8,1.9
		c-0.2,0.6-0.5,1.2-0.7,1.8c-0.1,0.4-0.3,0.7-0.4,1.1l4.1-4.7L230.2,476.2z"/>
	<path class="st0" d="M274.3,395.3c-0.1,0.5,0,1,0.7,1.2c0,0-0.1,0.1-0.2,0.2l1.8,0.8c0-0.1,0-0.2,0-0.3c0-0.6,0.1-1.1,0.1-1.7
		c0,0,0,0,0,0l-2.2-1C274.5,394.8,274.4,395,274.3,395.3z"/>
	<path class="st0" d="M274.5,397.2c-0.2,0.3-0.4,0.8-0.4,1.3l2.4,1c0-0.2,0-0.4,0-0.6c0-0.4,0.1-0.9,0.1-1.4l-1.8-0.8
		C274.8,396.9,274.6,397,274.5,397.2z"/>
	<path class="st0" d="M288,404.4l17.2,7.4c0.1-0.4,0.1-0.9,0.1-1.2l-0.1-0.6c0-0.1,0-0.1-0.1-0.2l-16.1-6.9
		C288.7,403.3,288.3,403.8,288,404.4z"/>
	<path class="st0" d="M226.1,486.5c-0.2,0.5-0.4,1-0.5,1.6c-0.2,0.5-0.3,1-0.5,1.5c0,0.1-0.1,0.2-0.1,0.3l8.9-10.2l-1.9-7.5
		c-0.1,0.3-0.2,0.5-0.4,0.8c-0.3,0.7-0.7,1.5-1,2.2c-0.1,0.3-0.3,0.6-0.4,0.9l0.8,3.3l-4.1,4.7c-0.1,0.2-0.2,0.4-0.2,0.6
		C226.5,485.4,226.3,485.9,226.1,486.5z"/>
	<path class="st0" d="M229.8,461.5C229.8,461.6,229.8,461.6,229.8,461.5C229.8,461.6,229.9,461.6,229.8,461.5c0.1,0,0.2,0,0.3-0.1
		C230,461.5,229.9,461.5,229.8,461.5z"/>
	<path class="st0" d="M233.1,467.5c-0.1,0.6-0.2,1.2-0.2,1.6l0.9-0.7l-0.4-1.7C233.3,466.9,233.2,467.2,233.1,467.5z"/>
	<path class="st0" d="M275.3,400.6l0,0.3l1.1,0.5c0-0.3,0-0.6,0.1-0.9c0-0.3,0-0.7,0.1-1l-2.4-1c0,0,0,0.1,0,0.1
		C274.1,399.2,274.4,399.9,275.3,400.6z"/>
	<path class="st0" d="M304.6,413.5c0.2-0.3,0.3-0.6,0.4-0.8c0.1-0.3,0.2-0.6,0.3-0.8l-17.2-7.4c-0.3,0.5-0.5,1-0.8,1.6L304.6,413.5z
		"/>
	<path class="st0" d="M225,489.9c-0.1,0.4-0.2,0.7-0.3,1.1c-0.1,0.5-0.3,0.9-0.4,1.4c-0.1,0.4-0.3,0.9-0.4,1.3
		c-0.1,0.4-0.2,0.8-0.3,1.3l13.2-15l-2.9-11.3c-0.3,0.7-0.7,1.4-1,2.1c-0.2,0.5-0.5,1-0.7,1.6l1.9,7.5L225,489.9z"/>
	<path class="st0" d="M231.4,460.5c-0.3,0.2-0.5,0.4-0.7,0.6c-0.2,0.2-0.4,0.3-0.6,0.4c0.2,0,0.6-0.1,1-0.1c0.3,0,0.6,0,0.9,0
		l-0.3-1.1C231.6,460.3,231.5,460.4,231.4,460.5z"/>
	<path class="st0" d="M275.5,402.9l1.8,0.8c0.1-0.3,0-0.6-0.2-0.7c0.1,0,0.2-0.1,0.2-0.1l-1-0.8c0-0.2,0-0.4,0-0.7l-1.1-0.5l0,0.3
		L275.5,402.9z"/>
	<path class="st0" d="M223.3,495.9c-0.1,0.2-0.1,0.5-0.2,0.7c-0.1,0.2-0.1,0.5-0.2,0.7c-0.1,0.2-0.1,0.5-0.2,0.7
		c0,0.1-0.1,0.2-0.1,0.3c0,0,0,0.2-0.1,0.4c0,0.1,0,0.3-0.1,0.5l16.9-19.2l-4.6-18.1c-0.1,0.2-0.2,0.5-0.3,0.8
		c-0.1,0.3-0.2,0.6-0.3,0.9c-0.1,0.3-0.2,0.6-0.3,0.9c-0.1,0.3-0.2,0.6-0.3,1c-0.1,0.3-0.2,0.7-0.3,1c0,0.1,0,0.1,0,0.2l0.4,1.7
		l0.2-0.2c-0.1,0.1-0.1,0.2-0.2,0.4l2.9,11.3l-13.2,15c0,0.1-0.1,0.2-0.1,0.3C223.4,495.4,223.3,495.6,223.3,495.9z"/>
	<path class="st0" d="M234,461.2c0.3,0,0.5,0,0.6,0l-0.7-2.9c-0.2,0.2-0.3,0.3-0.5,0.4c-0.2,0.2-0.4,0.4-0.6,0.5
		c-0.2,0.2-0.4,0.4-0.7,0.6c-0.1,0.1-0.2,0.2-0.4,0.3l0.3,1.1c0.2,0,0.4,0,0.6,0C233.1,461.3,233.5,461.3,234,461.2z"/>
	<path class="st0" d="M303.6,415c0.1-0.1,0.2-0.3,0.3-0.4c0.2-0.3,0.4-0.6,0.5-0.8c0-0.1,0.1-0.1,0.1-0.2l-17.3-7.5
		c-0.2,0.5-0.4,1.1-0.6,1.7L303.6,415z"/>
	<path class="st0" d="M275.6,403.6l-1,0.2l-0.7,0.2l0,0.1l2.7,1.2c0.2-0.3,0.4-0.6,0.5-0.9c0.1-0.2,0.2-0.4,0.2-0.6l-1.8-0.8l0,0.1
		L275.6,403.6z"/>
	<path class="st0" d="M222.3,500.4c0,0.3-0.1,0.5-0.1,0.8c0,0.3-0.1,0.6-0.1,0.9c0,0.3-0.1,0.6-0.1,0.9c0,0,0,0,0,0.1l20-22.8
		l-6-23.7c-0.1,0.1-0.2,0.2-0.3,0.3c-0.2,0.2-0.4,0.3-0.6,0.5c-0.2,0.2-0.4,0.3-0.6,0.5c-0.2,0.2-0.4,0.3-0.6,0.5
		c0,0-0.1,0.1-0.1,0.1l0.7,2.9c0.3,0,0.4,0,0.4,0s-0.1,0.2-0.2,0.6c0,0,0,0,0,0.1l4.6,18.1l-16.9,19.2c0,0.1,0,0.2-0.1,0.3
		C222.4,499.8,222.4,500.1,222.3,500.4z"/>
	<path class="st0" d="M286.6,407.8c0,0-0.2,0-0.4,0.1c-0.3,0.1-0.7,0.2-1.3,0.4c-0.2,0.1-0.4,0.1-0.6,0.2l18.1,7.8
		c0.2-0.2,0.3-0.3,0.4-0.5c0.2-0.2,0.4-0.4,0.5-0.6c0.1-0.1,0.1-0.2,0.2-0.3L286.6,407.8C286.7,407.7,286.6,407.8,286.6,407.8z"/>
	<path class="st0" d="M282.3,409.5l19.6,8.4c-0.1-0.6-0.2-0.9-0.2-0.9c0,0,0.1-0.1,0.1-0.1c0.2-0.2,0.3-0.3,0.5-0.5
		c0,0,0.1-0.1,0.1-0.1l-18.1-7.8c-0.2,0.1-0.5,0.2-0.8,0.3C283.2,409,282.7,409.2,282.3,409.5z"/>
	<path class="st0" d="M221.7,504.8c0,0.3-0.1,0.6-0.1,1c0,0.3-0.1,0.5-0.1,0.8l23-26.2l-6.5-25.7c-0.1,0.1-0.2,0.2-0.3,0.2
		c-0.2,0.1-0.3,0.3-0.5,0.4c-0.2,0.1-0.3,0.3-0.5,0.4c-0.2,0.2-0.3,0.3-0.5,0.5c-0.1,0.1-0.2,0.1-0.2,0.2l6,23.7L222,503
		c0,0.3-0.1,0.6-0.1,0.8C221.8,504.2,221.8,504.5,221.7,504.8z"/>
	<path class="st0" d="M273.6,404.7l-0.4,0.9l2.3,1c0.1,0,0.1-0.1,0.2-0.1c0,0,0,0,0.1-0.1c0.1-0.2,0.4-0.5,0.7-0.9
		c0-0.1,0.1-0.1,0.1-0.2l-2.7-1.2l-0.2,0.5L273.6,404.7z"/>
	<path class="st0" d="M313.3,423.9L313.3,423.9c0.1,0,0.1,0,0.2,0.1l9.3-5.9l-0.1-0.1l0,0l1-1.6l0.5-0.9c-0.1,0.2-1,0.9-2.4,1.7
		c-1.7,1.1-4.1,2.6-6.3,3.9c-0.3,0.2-0.6,0.4-0.9,0.5c-0.3,0.2-0.6,0.3-0.9,0.5c-0.3,0.2-0.6,0.3-0.8,0.5c-0.3,0.2-0.6,0.3-0.8,0.5
		c-0.3,0.2-0.6,0.3-0.8,0.5c-0.1,0-0.1,0.1-0.2,0.1l1.2,0.5L313.3,423.9z"/>
	<path class="st0" d="M273.2,405.6l-0.6,1c-0.1,0.1-0.1,0.2-0.2,0.4l1.6,0.7c0.3-0.2,0.5-0.5,0.8-0.6c0.2-0.2,0.5-0.3,0.7-0.4
		L273.2,405.6L273.2,405.6z"/>
	<path class="st0" d="M280.5,410.4l21.6,9.3c-0.1-0.8-0.2-1.4-0.2-1.8l-19.6-8.4c-0.1,0-0.2,0.1-0.2,0.1
		C281.6,409.8,281.1,410.1,280.5,410.4z"/>
	<path class="st0" d="M221.4,507.8c0,0.4-0.1,0.7-0.1,1.1c0,0.3,0,0.6-0.1,1l25.7-29.3l-7-27.6c0,0,0,0,0,0
		c-0.1,0.1-0.3,0.2-0.4,0.4c-0.1,0.1-0.3,0.3-0.4,0.4c-0.1,0.1-0.3,0.3-0.4,0.4c-0.2,0.1-0.3,0.3-0.5,0.4c-0.1,0.1-0.1,0.1-0.2,0.2
		l6.5,25.7l-23,26.2c0,0.1,0,0.1,0,0.2C221.5,507.1,221.4,507.5,221.4,507.8z"/>
	<path class="st0" d="M271.6,408.3l1.2,0.5c0.1-0.1,0.2-0.3,0.3-0.4c0.2-0.3,0.5-0.5,0.7-0.8c0,0,0,0,0,0l-1.6-0.7
		c-0.1,0.2-0.2,0.4-0.3,0.6C271.9,407.7,271.8,408,271.6,408.3z"/>
	<path class="st0" d="M316.8,422.8c0.2-0.3,0.3-0.6,0.3-0.6c0.1,0.1,0.3,0.2,0.4,0.3c0.5,0.2,1-0.2,1.4-0.6c0.4-0.5,0.8-1.1,0.8-1.1
		c1,0.4,1.5-0.5,1.7-1.1c0.1-0.3,0.1-0.4,0.1-0.4c0.4,0,1.1-0.2,1.6-0.3c0.3-0.1,0.5-0.2,0.5-0.2l0,0l-0.7-0.6l-9.3,5.9
		C315.3,424.7,316.3,423.6,316.8,422.8z"/>
	<path class="st0" d="M279.6,411c-0.2,0.1-0.4,0.3-0.7,0.4l23.3,10c0-0.6,0-1.2-0.1-1.7l-21.6-9.3c0,0,0,0-0.1,0
		C280.2,410.6,279.9,410.8,279.6,411z"/>
	<path class="st0" d="M221.2,511.1c0,0.4,0,0.8,0,1.2c0,0.2,0,0.4,0,0.6l28.2-32.1l-7.4-29.4c-0.1,0.1-0.2,0.2-0.4,0.3
		c-0.1,0.1-0.2,0.2-0.4,0.3c-0.1,0.1-0.2,0.2-0.4,0.3c-0.1,0.1-0.3,0.2-0.4,0.3c-0.1,0.1-0.3,0.2-0.4,0.3l7,27.6l-25.7,29.3
		c0,0,0,0.1,0,0.1C221.2,510.3,221.2,510.7,221.2,511.1z"/>
	<path class="st0" d="M310.6,424.1c-0.1-0.4-0.2-0.6-0.3-0.8c-0.1-0.2-0.3-0.2-0.5,0c-0.2,0.1-0.4,0.4-0.7,0.7
		c-0.1,0.1-0.2,0.2-0.2,0.3l1.6,0.7l0-0.1l0.4-0.1l0.8-0.3l0.8-0.3l0,0l-1.2-0.5c-0.3,0.2-0.5,0.3-0.6,0.3
		C310.7,424.1,310.6,424.1,310.6,424.1z"/>
	<path class="st0" d="M308.6,424.9c-0.2,0.3-0.3,0.5-0.4,0.7l2.6,1.1l0.1-0.2l-0.4-1.6l-1.6-0.7
		C308.8,424.5,308.7,424.7,308.6,424.9z"/>
	<path class="st0" d="M277.7,412.2c-0.1,0.1-0.2,0.1-0.3,0.2l24.8,10.7c0-0.2,0-0.4,0-0.6c0-0.4,0-0.7,0-1l-23.3-10
		c-0.1,0.1-0.2,0.1-0.3,0.2C278.3,411.8,278,412,277.7,412.2z"/>
	<path class="st0" d="M221.1,512.8c0,0.2,0,0.4,0,0.6c0,0.4,0,0.8,0,1.2c0,0.3,0,0.6,0.1,0.8l30.4-34.6l-8.4-33.2
		c0,0.1-0.1,0.1-0.1,0.2c-0.1,0.2-0.2,0.4-0.2,0.6c-0.1,0.2-0.1,0.4-0.2,0.6c-0.1,0.2-0.1,0.4-0.1,0.6c0,0.2,0,0.4,0.1,0.6
		c0,0.1,0.1,0.1,0.1,0.1c0,0-0.2,0.2-0.5,0.4c-0.1,0.1-0.3,0.3-0.5,0.5l7.4,29.4L221.1,512.8z"/>
	<path class="st0" d="M271.1,409.3c-0.1,0.1-0.1,0.2-0.2,0.3l1.1,0.5c0.2-0.3,0.3-0.6,0.5-0.9c0.1-0.1,0.2-0.3,0.3-0.4l-1.2-0.5
		c0,0,0,0.1-0.1,0.1C271.4,408.7,271.3,409,271.1,409.3z"/>
	<path class="st0" d="M307.9,426.1c0,0.3,0,0.6,0,1l2,0.9l0.6-0.7l0,0l0.3-0.4l-2.6-1.1c-0.1,0.1-0.1,0.2-0.2,0.3
		C308,426.1,307.9,426.1,307.9,426.1z"/>
	<path class="st0" d="M221.6,517.2c0.1,0.2,0.1,0.3,0.2,0.4l32.1-36.6l-9.2-36.2c-0.1,0.1-0.2,0.3-0.2,0.4c-0.1,0.2-0.2,0.5-0.4,0.7
		c-0.1,0.2-0.2,0.5-0.3,0.7c-0.1,0.2-0.2,0.4-0.3,0.7c-0.1,0.2-0.1,0.3-0.2,0.5l8.4,33.2l-30.4,34.6c0,0.1,0,0.3,0,0.4
		C221.3,516.4,221.4,516.8,221.6,517.2z"/>
	<path class="st0" d="M270.3,410.9l1.1,0.5c0.1-0.1,0.1-0.3,0.2-0.4c0.1-0.3,0.3-0.6,0.4-0.9c0,0,0,0,0,0l-1.1-0.5
		c-0.1,0.2-0.2,0.4-0.3,0.6C270.5,410.4,270.4,410.7,270.3,410.9z"/>
	<path class="st0" d="M276.1,413.4l26,11.2c0-0.5,0.1-1.1,0.1-1.5l-24.8-10.7c-0.2,0.1-0.4,0.3-0.6,0.4
		C276.6,413,276.4,413.2,276.1,413.4z"/>
	<path class="st0" d="M222.7,518.4l0.1,0l0.3,0c0,0,0,0.1,0,0.2l32.8-37.4l-9-35.5c-0.1,0.1-0.1,0.2-0.2,0.2l-0.4,0
		c0-0.2,0.1-0.4,0.2-0.7c0-0.1,0.1-0.2,0.1-0.4l-0.7-2.6c-0.1,0.2-0.3,0.5-0.4,0.8c-0.1,0.2-0.3,0.5-0.4,0.8
		c-0.1,0.2-0.3,0.5-0.4,0.7c-0.1,0.1-0.1,0.2-0.2,0.3l9.2,36.2l-32.1,36.6C222,518.1,222.3,518.4,222.7,518.4z"/>
	<path class="st0" d="M275.3,414.1c-0.1,0.1-0.3,0.2-0.4,0.3l27.1,11.7c0-0.4,0.1-0.8,0.1-1.2c0-0.1,0-0.2,0-0.3l-26-11.2
		c0,0,0,0-0.1,0.1C275.8,413.7,275.6,413.9,275.3,414.1z"/>
	<path class="st0" d="M269.9,411.9c0,0.1-0.1,0.2-0.1,0.3l1.2,0.5c0.1-0.3,0.2-0.5,0.3-0.8c0.1-0.2,0.1-0.3,0.2-0.5l-1.1-0.5
		c0,0.1,0,0.1-0.1,0.2C270.1,411.4,270,411.7,269.9,411.9z"/>
	<path class="st0" d="M307.7,428.2c0,0.1-0.1,0.2-0.1,0.3l1.5,0.6c0.1-0.1,0.1-0.2,0.2-0.2c0.3-0.4,0.4-0.7,0.4-0.7l0.2-0.2l0,0
		l-2-0.9C307.9,427.5,307.8,427.9,307.7,428.2z"/>
	<path class="st0" d="M269.3,413.5l1.3,0.6c0-0.1,0-0.2,0.1-0.3c0.1-0.3,0.1-0.6,0.2-1c0,0,0-0.1,0-0.1l-1.2-0.5
		c-0.1,0.2-0.2,0.4-0.2,0.6C269.5,413,269.4,413.3,269.3,413.5z"/>
	<path class="st0" d="M273.9,415.3c0,0-0.1,0.1-0.1,0.1l28,12.1c0-0.2,0.1-0.5,0.1-0.7c0-0.2,0.1-0.5,0.1-0.7l-27.1-11.7
		c-0.1,0.1-0.2,0.2-0.3,0.3C274.3,414.9,274.1,415.1,273.9,415.3z"/>
	<path class="st0" d="M247.3,443.8c0.1-0.3,0.2-0.5,0.3-0.8c0.1-0.3,0.3-0.6,0.4-0.8c0-0.1,0.1-0.2,0.1-0.3l-0.6-2.2
		c-0.1,0.2-0.2,0.4-0.2,0.6c0,0,0,0.1-0.1,0.2c-0.1,0.2-0.3,0.5-0.5,0.8c-0.1,0.2-0.3,0.5-0.5,0.8c0,0,0,0,0,0l0.7,2.6
		c0-0.1,0.1-0.2,0.1-0.4C247.1,444.3,247.2,444,247.3,443.8z"/>
	<path class="st0" d="M224,520.2l34.1-38.8l-9.5-37.7c0,0,0,0.1-0.1,0.1c-0.2,0.3-0.4,0.5-0.6,0.7c-0.2,0.3-0.4,0.5-0.6,0.7
		c-0.1,0.2-0.3,0.3-0.4,0.5l9,35.5l-32.8,37.4c0.1,0.2,0.2,0.7,0.5,1.2C223.8,519.9,223.9,520,224,520.2z"/>
	<path class="st0" d="M307.1,429.8l1.2,0.5c0.1-0.2,0.2-0.3,0.3-0.5c0.2-0.2,0.3-0.5,0.4-0.7l-1.5-0.6c-0.1,0.4-0.2,0.7-0.4,1
		C307.2,429.6,307.2,429.7,307.1,429.8z"/>
	<path class="st0" d="M306.5,430.9l1.1,0.5c0.2-0.3,0.4-0.5,0.5-0.8c0.1-0.1,0.2-0.2,0.2-0.3l-1.2-0.5c-0.1,0.2-0.3,0.5-0.4,0.7
		C306.6,430.6,306.5,430.8,306.5,430.9z"/>
	<path class="st0" d="M225.2,521.1c0,0,0.1,0,0.1,0.1l34.8-39.7l-10-39.7c-0.1,0.2-0.2,0.3-0.4,0.5c-0.2,0.3-0.4,0.5-0.6,0.8
		c-0.2,0.2-0.4,0.5-0.5,0.7l9.5,37.7L224,520.2C224.3,520.5,224.7,520.8,225.2,521.1z"/>
	<path class="st0" d="M248.5,441.2c0-0.2,0-0.4,0.1-0.6c0.1-0.3,0.2-0.6,0.3-0.9c0.1-0.3,0.3-0.6,0.4-0.9c0,0,0,0,0,0l-0.5-1.9
		c0,0,0,0,0,0c-0.2,0.3-0.3,0.6-0.5,1c-0.1,0.3-0.3,0.6-0.4,0.9c-0.1,0.3-0.2,0.6-0.4,0.9c0,0,0,0,0,0l0.6,2.2
		c0.1-0.2,0.2-0.4,0.3-0.5C248.5,441.3,248.5,441.2,248.5,441.2z"/>
	<path class="st0" d="M269,414.6c0,0.1,0,0.2-0.1,0.2l3.3,1.4l-0.8-0.7l-0.9-0.8c0-0.2,0.1-0.4,0.1-0.7l-1.3-0.6
		c0,0.1,0,0.1-0.1,0.2C269.1,414,269.1,414.3,269,414.6z"/>
	<path class="st0" d="M273.2,415.9c-0.2,0.2-0.3,0.3-0.5,0.5l28.9,12.4c0-0.2,0.1-0.3,0.1-0.5c0.1-0.3,0.1-0.6,0.1-0.9l-28-12.1
		C273.6,415.6,273.4,415.7,273.2,415.9z"/>
	<path class="st0" d="M250.3,436.9c0.1-0.2,0.2-0.4,0.3-0.6l-0.4-1.7c-0.1,0.1-0.1,0.2-0.2,0.2c-0.2,0.3-0.4,0.7-0.7,1
		c-0.2,0.3-0.4,0.6-0.6,0.9l0.5,1.9c0.1-0.3,0.3-0.6,0.5-0.9C250,437.6,250.2,437.2,250.3,436.9z"/>
	<path class="st0" d="M305.7,431.9C305.7,432,305.7,432,305.7,431.9l1.1,0.5c0.1-0.1,0.2-0.2,0.2-0.3c0.2-0.2,0.4-0.5,0.5-0.7
		c0,0,0,0,0,0l-1.1-0.5c-0.1,0.1-0.2,0.2-0.2,0.3C306,431.5,305.9,431.7,305.7,431.9z"/>
	<path class="st0" d="M272.2,416.2l-3.3-1.4c-0.1,0.2-0.1,0.4-0.1,0.7c0,0.2-0.1,0.4-0.1,0.6l32.6,14c0-0.1,0.1-0.3,0.1-0.4
		c0.1-0.3,0.1-0.6,0.2-0.9l-28.9-12.4c0,0-0.1,0.1-0.1,0.1L272.2,416.2z"/>
	<path class="st0" d="M262.1,481.6l-10.5-41.7c-0.2,0.2-0.4,0.5-0.5,0.7c-0.2,0.3-0.4,0.6-0.7,0.8c-0.1,0.1-0.2,0.2-0.3,0.4l10,39.7
		l-34.8,39.7c0.5,0.2,1.1,0.4,1.8,0.4L262.1,481.6z"/>
	<path class="st0" d="M252,434.2l-0.3-1.3c-0.2,0.2-0.4,0.4-0.6,0.7c-0.3,0.3-0.5,0.7-0.8,1.1l0.4,1.7c0.1-0.1,0.2-0.3,0.3-0.4
		C251.3,435.3,251.7,434.7,252,434.2z"/>
	<path class="st0" d="M228,522.3c0,0.1,0.1,0.1,0.1,0.2c0,0,0,0,0.1,0.1l35.9-40.9l-11-43.7c-0.2,0.2-0.4,0.5-0.6,0.7
		c-0.2,0.3-0.5,0.6-0.7,0.9c0,0.1-0.1,0.1-0.1,0.2l10.5,41.7l-35,39.9c0.1,0,0.3,0,0.4,0C227.6,521.8,227.8,522.1,228,522.3z"/>
	<path class="st0" d="M304.8,433l1.2,0.5c0.2-0.2,0.3-0.4,0.5-0.6c0.1-0.1,0.2-0.3,0.3-0.4l-1.1-0.5c-0.2,0.2-0.3,0.4-0.5,0.5
		C305,432.7,304.9,432.8,304.8,433z"/>
	<path class="st0" d="M268.7,417.4L268.7,417.4l32.2,13.9c0-0.1,0.1-0.3,0.1-0.4c0.1-0.3,0.1-0.6,0.2-0.9l-32.6-14
		c0,0.1,0,0.2,0,0.3C268.7,416.7,268.7,417.1,268.7,417.4z"/>
	<path class="st0" d="M304.2,433.5c-0.1,0.1-0.3,0.2-0.4,0.3l1.4,0.6c0.1-0.1,0.2-0.2,0.3-0.3c0.2-0.2,0.3-0.4,0.5-0.6c0,0,0,0,0,0
		l-1.2-0.5c0,0-0.1,0.1-0.1,0.1C304.5,433.2,304.3,433.4,304.2,433.5z"/>
	<path class="st0" d="M300.9,432.6l-0.1-0.5c0.1-0.3,0.1-0.5,0.2-0.7l-32.2-13.9l1,1.8L300.9,432.6z"/>
	<path class="st0" d="M252.1,434.1c0.3-0.5,0.6-0.9,0.7-1c0,0,0,0,0,0c0.1,0.2,0.5,0.4,0.9,0.6l-0.6-2.5c-0.2,0.2-0.3,0.5-0.4,0.9
		c0,0,0,0-0.1,0.1c-0.1,0.1-0.4,0.4-0.7,0.7c0,0-0.1,0.1-0.1,0.1l0.3,1.3C252.1,434.2,252.1,434.1,252.1,434.1z"/>
	<path class="st0" d="M229.3,523.6l36.6-41.7l-11.5-45.6c-0.4,0.5-0.8,1-1.2,1.6c0,0.1-0.1,0.1-0.2,0.2l11,43.7l-35.9,40.9
		C228.5,523,228.9,523.4,229.3,523.6z"/>
	<path class="st0" d="M254.8,434.1l0.3,1.3c-0.2,0.2-0.4,0.5-0.7,0.8c0,0-0.1,0.1-0.1,0.1l11.5,45.6l-36.6,41.7
		c0.1,0,0.2,0.1,0.2,0.1c0.4,0.2,0.9,0.3,1.2,0.3l36.9-42.1l-13.1-51.7c-0.3,0-0.5,0.1-0.7,0.2c-0.3,0.1-0.5,0.3-0.7,0.5
		c0,0-0.1,0.1-0.1,0.1l0.6,2.5c0.1,0,0.1,0.1,0.2,0.1C254.2,433.8,254.5,434,254.8,434.1z"/>
	<path class="st0" d="M269.4,419.8c-0.1,0.1-0.2,0.2-0.3,0.4l35.2,15.2c0.1-0.1,0.1-0.1,0.2-0.2c0.2-0.2,0.3-0.3,0.5-0.5
		c0.1-0.1,0.1-0.1,0.2-0.2l-1.4-0.6c0,0-0.1,0.1-0.1,0.1c-0.2,0.1-0.3,0.3-0.5,0.4c-0.3,0.2-0.4,0.3-0.5,0.3c0,0,0,0,0,0l-0.5-0.3
		l-0.6-0.3l-0.5-0.3l-0.2-1l-31.1-13.4l0,0.1C269.7,419.5,269.5,419.7,269.4,419.8z"/>
	<path class="st0" d="M268.5,420.9c-0.1,0.1-0.1,0.2-0.2,0.2l35,15.1c0.1,0,0.1-0.1,0.2-0.1c0.2-0.1,0.3-0.3,0.5-0.4
		c0.1-0.1,0.2-0.2,0.3-0.3l-35.2-15.2c0,0.1-0.1,0.1-0.1,0.2C268.8,420.5,268.6,420.7,268.5,420.9z"/>
	<path class="st0" d="M232.3,524c0,0.1,0.1,0.3,0.1,0.4l37.1-42.2l-13.1-51.9c0,0,0,0,0,0c-0.3,0-0.5,0-0.8,0c-0.3,0-0.5,0-0.8,0.1
		c0,0-0.1,0-0.1,0l13.1,51.7l-36.9,42.1c0.1,0,0.2,0,0.3,0C231.7,524.1,232.3,524,232.3,524z"/>
	<path class="st0" d="M233.7,524.8l37.4-42.6l-13.1-51.8c-0.1,0-0.1,0-0.2,0c-0.2,0-0.5-0.1-0.8-0.1c-0.2,0-0.5-0.1-0.8-0.1
		l13.1,51.9l-37.1,42.2c0,0,0.1,0.1,0.1,0.1C232.7,524.8,233.1,524.9,233.7,524.8z"/>
	<path class="st0" d="M268.1,421.4c-0.1,0.1-0.1,0.1-0.2,0.2c0,0,0.4,0.2,0.9,0.4c1.1,0.5,2.7,1.4,3.1,1.9l30.4,13.1
		c0.1-0.1,0.2-0.1,0.3-0.2c0.2-0.1,0.3-0.2,0.5-0.3c0.1-0.1,0.2-0.2,0.3-0.2l-35-15.1C268.2,421.2,268.2,421.3,268.1,421.4z"/>
	<path class="st0" d="M235.4,524.5c0.2-0.1,0.4-0.2,0.6-0.2l36.8-41.9l-13.3-52.5c-0.1,0.2-0.2,0.3-0.3,0.5
		c-0.1,0.2-0.1,0.3-0.1,0.4c0,0-0.2-0.1-0.5-0.1c-0.2,0-0.4-0.1-0.6-0.1l13.1,51.8l-37.4,42.6c0.1,0,0.1,0,0.2,0
		C234.3,524.8,234.8,524.7,235.4,524.5z"/>
	<path class="st0" d="M271.9,424c0,0,0.1,0.4,0.2,0.8c0,0.1,0,0.2,0,0.4l28.6,12.3c0,0,0,0,0,0c0.1,0,0.3,0,0.4-0.1
		c0.1,0,0.3-0.1,0.4-0.2c0.1-0.1,0.3-0.1,0.4-0.2c0,0,0.1-0.1,0.1-0.1l-30.4-13.1C271.9,423.9,271.9,424,271.9,424z"/>
	<path class="st0" d="M271.4,425.8c-0.3,0-0.8-0.2-1.5-0.6c0,0-0.9-0.9-1.9-1.4c-0.5-0.2-0.9-0.4-1.4-0.4c-0.3,0-0.5,0-0.8,0.1
		c-0.1,0-0.1,0.1-0.2,0.1l33.2,14.3c0.1-0.2,0.1-0.3,0.2-0.5l0.4-0.2c0.1,0.1,0.3,0.2,0.5,0.3c0.1,0.1,0.3,0.1,0.4,0.1
		c0.1,0,0.3,0,0.4,0l-28.6-12.3c0,0.2,0,0.3-0.1,0.4C272,425.7,271.8,425.9,271.4,425.8z"/>
	<path class="st0" d="M236,524.2c0.3-0.1,0.6-0.2,0.9-0.4c0.5-0.2,1-0.5,1.5-0.7c0.2-0.1,0.4-0.2,0.6-0.3l35.4-40.3l-13.7-54.1
		c-0.2,0.2-0.3,0.4-0.5,0.5c-0.2,0.2-0.4,0.4-0.5,0.6c-0.1,0.1-0.2,0.2-0.2,0.3l13.3,52.5L236,524.2z"/>
	<path class="st0" d="M241.2,521.4c0.4-0.2,0.8-0.5,1.2-0.7l33.5-38.2l-14-55.5c-0.1,0.1-0.1,0.1-0.2,0.2c-0.2,0.2-0.3,0.3-0.5,0.5
		c-0.2,0.2-0.3,0.4-0.5,0.5c0,0,0,0,0,0l13.7,54.1L239,522.8c0.3-0.2,0.6-0.3,0.8-0.5C240.3,522,240.8,521.7,241.2,521.4z"/>
	<path class="st0" d="M265,424.1c0,0-0.1,0.1-0.1,0.1c0,0,0,0,0,0l33.7,14.5c0,0,0-0.1,0-0.1c0.1-0.2,0.2-0.4,0.3-0.7
		c0-0.1,0.1-0.1,0.1-0.2l-33.2-14.3c-0.1,0.1-0.2,0.1-0.3,0.2C265.2,423.8,265.1,423.9,265,424.1z"/>
	<path class="st0" d="M244,519.7c0.5-0.3,0.9-0.6,1.3-0.9c0.3-0.2,0.7-0.4,1-0.7l31.2-35.5l-14.4-56.8c0,0,0,0,0,0
		c-0.1,0.1-0.3,0.3-0.4,0.4c-0.1,0.1-0.3,0.3-0.5,0.4c-0.1,0.1-0.2,0.2-0.3,0.3l14,55.5l-33.5,38.2c0.1,0,0.1-0.1,0.2-0.1
		C243.1,520.3,243.5,520,244,519.7z"/>
	<path class="st0" d="M264.3,424.7c-0.1,0.1-0.2,0.1-0.2,0.2l29.5,12.7c0.2,0,0.3-0.1,0.4-0.1c0.1,0,0.1,0,0.1,0c0.1,0,0.2,0,0.3,0
		c0.1,0,0.2,0.1,0.3,0.1c0.1,0,0.2,0.1,0.3,0.1c0.1,0,0.2,0.1,0.3,0.2c0.1,0.1,0.2,0.1,0.3,0.2c0.1,0.1,0.2,0.1,0.2,0.2
		c0.1,0,0.1,0.1,0.2,0.1c0.1,0.1,0.2,0.2,0.3,0.2c0.1,0.1,0.2,0.2,0.3,0.2c0.1,0,0.1,0.1,0.2,0.1l1.4,0.6c0-0.1,0.1-0.2,0.1-0.4
		c0.1-0.2,0.2-0.4,0.2-0.5l-33.7-14.5C264.8,424.3,264.6,424.5,264.3,424.7z"/>
	<path class="st0" d="M297.3,439.4c0.1,0.1,0.3,0.2,0.4,0.3c0.2,0.2,0.3,0.3,0.3,0.3c0,0,0-0.1,0-0.1c0-0.1,0.1-0.2,0.1-0.2
		l-1.4-0.6c0.1,0,0.1,0.1,0.2,0.1C297.1,439.2,297.2,439.3,297.3,439.4z"/>
	<path class="st0" d="M263.5,425.5c-0.1,0.1-0.3,0.2-0.4,0.4l14.4,56.8l-31.2,35.5c0.1-0.1,0.2-0.1,0.3-0.2c0.4-0.3,0.9-0.6,1.2-0.9
		c0.5-0.3,0.9-0.6,1.2-0.9c0.6-0.4,1-0.7,1.2-0.9c0.1,0,0.1-0.1,0.1-0.1c0.1-0.1,0.1-0.1,0.2-0.2l28.4-32.3l-14.3-56.6l27.9,12
		c0.1-0.2,0.3-0.3,0.5-0.4c0.2-0.1,0.3-0.1,0.5-0.2c0,0,0,0,0,0l-29.5-12.7c-0.1,0.1-0.1,0.1-0.2,0.2
		C263.8,425.2,263.6,425.3,263.5,425.5z"/>
	<path class="st0" d="M252.5,513.3c0.4-0.3,0.7-0.7,1.1-1c0.4-0.3,0.7-0.7,1.1-1c0.4-0.3,0.7-0.7,1.1-1c0.3-0.3,0.7-0.7,1-1
		c0.3-0.3,0.7-0.7,1-1c0.3-0.3,0.7-0.7,1-1c0.3-0.3,0.6-0.7,0.9-1l6-6.8c0,0,0.1-0.1,0.1-0.1c0.3-0.3,0.5-0.6,0.8-1
		c0.3-0.3,0.5-0.6,0.8-0.9c0.2-0.3,0.5-0.6,0.7-0.9c0.2-0.3,0.5-0.6,0.7-0.9c0.2-0.3,0.5-0.6,0.7-0.9c0.2-0.3,0.5-0.6,0.7-0.9
		c0.2-0.3,0.4-0.6,0.7-0.9l0,0.1c0.1,0,0.3,0,0.5-0.1c0,0,0.1,0,0.1-0.1l8.8-10L266.4,428l27.4,11.8c-0.1,0-0.1-0.1-0.2-0.1
		c-0.1-0.1-0.2-0.1-0.3-0.2c-0.1-0.1-0.2-0.1-0.3-0.2c-0.1-0.1-0.2-0.2-0.3-0.3c-0.1-0.1-0.2-0.2-0.2-0.3c-0.1-0.2-0.1-0.3,0-0.5
		l-27.9-12l14.3,56.6l-28.4,32.3c0.3-0.2,0.6-0.5,0.9-0.7C251.8,514,252.1,513.7,252.5,513.3z"/>
	<path class="st0" d="M295,440.3c-0.1,0-0.2-0.1-0.3-0.1c-0.1,0-0.2-0.1-0.3-0.1c-0.1,0-0.2-0.1-0.3-0.1c-0.1,0-0.2-0.1-0.3-0.1
		l1.3,0.6C295.2,440.4,295.1,440.3,295,440.3z"/>
	<path class="st0" d="M280.3,482.8l-8.8,10c0.1-0.1,0.2-0.1,0.4-0.2c0.2-0.1,0.3-0.2,0.5-0.4c0.2-0.1,0.3-0.3,0.5-0.4
		c0.2-0.1,0.3-0.3,0.5-0.4c0.2-0.1,0.3-0.3,0.5-0.4c0.2-0.1,0.3-0.3,0.5-0.4c0.2-0.1,0.3-0.3,0.5-0.4c0.2-0.2,0.3-0.3,0.5-0.4
		c0.2-0.2,0.3-0.3,0.5-0.4c0.2-0.2,0.3-0.3,0.4-0.4c0.2-0.2,0.3-0.3,0.4-0.4c0.2-0.2,0.3-0.3,0.4-0.4c0.2-0.2,0.3-0.3,0.4-0.4
		c0.1-0.1,0.2-0.2,0.2-0.2s0,0,0,0.1l3.9-4.5l-13.4-53.2l29,12.5c0-0.1,0-0.1-0.1-0.2c-0.1-0.2-0.2-0.4-0.4-0.6
		c-0.1-0.1-0.2-0.2-0.4-0.3c-0.1-0.1-0.2-0.2-0.3-0.3c-0.1-0.1-0.2-0.1-0.3-0.2c-0.1-0.1-0.3-0.2-0.4-0.3c0,0,0,0,0,0l-1.3-0.6
		c0,0,0,0,0,0c0,0-0.1,0-0.1,0c0,0,0,0,0,0L266.4,428L280.3,482.8z"/>
	<path class="st0" d="M260.7,505.2c0.3-0.3,0.6-0.7,0.9-1c0.3-0.3,0.6-0.7,0.9-1c0.3-0.3,0.6-0.7,0.9-1c0.3-0.3,0.6-0.7,0.8-1
		c0.3-0.3,0.5-0.6,0.8-1c0.2-0.3,0.5-0.6,0.7-0.8l-6,6.8c0,0,0,0,0,0C260.1,505.9,260.4,505.6,260.7,505.2z"/>
	<path class="st0" d="M278.1,488.1c0.1,0.1,0.1,0.2,0.2,0.4l3.1-3.5c0.2-0.9,0.5-1.8,0.7-2.7c0.1-0.5,0.3-1.1,0.4-1.6L270,431.4
		l27.4,11.8c0,0,0-0.1,0-0.1c0-0.3,0-0.6-0.1-0.9l-29-12.5l13.4,53.2l-3.9,4.5c0,0,0.1,0.1,0.1,0.2
		C277.9,487.7,278,487.9,278.1,488.1z"/>
	<path class="st0" d="M278.5,489c0.1,0.1,0.1,0.3,0.2,0.4c0,0,0,0,0,0l2-2.3c0.1-0.6,0.3-1.3,0.5-1.9c0-0.1,0-0.2,0.1-0.3l-3.1,3.5
		c0,0,0,0.1,0,0.1C278.4,488.7,278.4,488.8,278.5,489z"/>
	<path class="st0" d="M282.4,480.7c0.1-0.4,0.2-0.8,0.3-1.2c0.1-0.5,0.2-0.9,0.3-1.3L271.6,433L297,444c0-0.1,0-0.1,0-0.1
		c0,0,0-0.1,0.1-0.1c0.1-0.2,0.1-0.4,0.2-0.5L270,431.4L282.4,480.7z"/>
	<path class="st0" d="M279.1,490.3c0,0.1,0,0.1,0.1,0.2l1.1-1.2c0-0.2,0.1-0.3,0.1-0.5c0.1-0.5,0.2-1,0.4-1.6l-2,2.3
		c0.1,0.1,0.1,0.3,0.2,0.4C279,490,279.1,490.1,279.1,490.3z"/>
	<path class="st0" d="M283.7,475.8l-10.4-41.2l23.6,10.1c0-0.2,0.1-0.3,0.1-0.4c0-0.2,0.1-0.3,0.1-0.4L271.6,433l11.4,45.1
		c0.1-0.5,0.2-0.9,0.3-1.2C283.5,476.4,283.6,476.1,283.7,475.8z"/>
	<path class="st0" d="M279.3,490.7c0.1,0.2,0.2,0.4,0.2,0.6c0,0.1,0,0.1,0.1,0.1l0.3-0.3c0-0.1,0-0.1,0-0.2c0-0.1,0.1-0.3,0.1-0.4
		c0-0.1,0.1-0.3,0.1-0.4c0.1-0.3,0.1-0.6,0.2-0.9l-1.1,1.2C279.2,490.5,279.3,490.6,279.3,490.7z"/>
	<path class="st0" d="M283.8,475.4c0.1,0,0.1,0,0.2,0c0.1,0,0.1,0,0.2,0c0.1,0,0.1-0.1,0.2-0.1c0.1,0,0.1-0.1,0.2-0.1
		c0,0,0,0,0.1-0.1l-9.8-39l21.8,9.4c0.1-0.2,0.1-0.4,0.2-0.5c0-0.1,0-0.1,0.1-0.2l-23.6-10.1l10.4,41.2
		C283.7,475.5,283.8,475.4,283.8,475.4C283.8,475.4,283.8,475.4,283.8,475.4z"/>
	<path class="st0" d="M279.8,492.1C279.8,492.1,279.8,492.1,279.8,492.1C279.8,492.1,279.8,492.1,279.8,492.1c0-0.1,0-0.2,0-0.3
		C279.7,492,279.7,492.1,279.8,492.1z"/>
	<path class="st0" d="M285,474.9c0.1-0.1,0.1-0.1,0.2-0.2c0.1-0.1,0.1-0.1,0.2-0.2c0.1-0.1,0.1-0.1,0.2-0.2c0,0,0,0,0,0l-9.2-36.6
		l20,8.6c0,0,0-0.1,0-0.1c0.1-0.2,0.1-0.4,0.2-0.6c0,0,0,0,0-0.1l-21.8-9.4l9.8,39c0,0,0.1-0.1,0.1-0.1
		C284.9,475,285,474.9,285,474.9z"/>
	<path class="st0" d="M279.7,491.8C279.7,491.8,279.7,491.8,279.7,491.8C279.7,491.8,279.7,491.8,279.7,491.8c0-0.1,0.1-0.3,0.1-0.4
		c0-0.1,0-0.1,0-0.2l-0.3,0.3c0,0,0,0.1,0,0.1C279.7,491.6,279.7,491.7,279.7,491.8z"/>
	<path class="st0" d="M285.6,474.3c0.1-0.1,0.1-0.1,0.2-0.2c0.1-0.1,0.1-0.1,0.2-0.2c0.1-0.1,0.1-0.1,0.2-0.2
		c0.1-0.1,0.1-0.1,0.2-0.2c0-0.1,0.1-0.1,0.2-0.2l-0.7-2.9l0,0c0,0-0.1,0-0.1,0c0,0,0,0,0-0.1c0,0,0,0,0-0.1l-7.9-31.1l18.3,7.9
		c0-0.1,0.1-0.2,0.1-0.3c0-0.2,0.1-0.3,0.1-0.4l-20-8.6L285.6,474.3z"/>
	<path class="st0" d="M285.9,469.9c0-0.1,0.1-0.1,0.1-0.2c0-0.1,0.1-0.1,0.1-0.2c0-0.1,0.1-0.1,0.1-0.2c0-0.1,0.1-0.1,0.1-0.2
		c0-0.1,0.1-0.1,0.1-0.2c0-0.1,0.1-0.1,0.1-0.2l-7.1-28.2l16.6,7.2c0-0.1,0.1-0.3,0.1-0.4c0-0.1,0.1-0.2,0.1-0.3l-18.3-7.9l7.9,31.1
		c0,0,0-0.1,0.1-0.1C285.8,470,285.8,470,285.9,469.9z"/>
	<path class="st0" d="M286.7,473c0.1-0.1,0.1-0.1,0.2-0.2c0.1-0.1,0.1-0.1,0.2-0.2c0,0,0.1-0.1,0.1-0.1c0,0,0.1-0.1,0.1-0.1
		c0,0,0.1-0.1,0.1-0.1c0,0,0,0,0-0.1l-0.7-2.6l-0.9,0.8l0.7,2.9c0,0,0,0,0,0C286.6,473.1,286.6,473.1,286.7,473z"/>
	<path class="st0" d="M287.4,472C287.4,472,287.4,471.9,287.4,472c0.1-0.1,0.1-0.2,0.1-0.2c0,0,0-0.1,0.1-0.1c0,0,0-0.1,0.1-0.1
		c0,0,0-0.1,0.1-0.1c0,0,0-0.1,0.1-0.1c0,0,0-0.1,0.1-0.1c0,0,0-0.1,0.1-0.1c0,0,0-0.1,0.1-0.1c0,0,0,0,0-0.1c0,0,0,0,0-0.1
		c0,0,0,0,0-0.1l-0.6-2.3c-0.1,0.1-0.2,0.2-0.2,0.3c-0.1,0.1-0.2,0.3-0.3,0.4l-0.3,0.2l0.7,2.6c0,0,0,0,0,0
		C287.4,472.1,287.4,472,287.4,472z"/>
	<path class="st0" d="M286.4,468.7C286.4,468.7,286.5,468.7,286.4,468.7l0.2-0.2l-0.1,0c0,0,0-0.1,0-0.1c0,0,0-0.1,0-0.1
		c0,0,0,0,0-0.1c0,0,0,0,0-0.1c0,0,0,0,0-0.1c0,0,0,0,0-0.1c0,0,0,0,0-0.1c0,0,0,0,0-0.1c0,0,0,0,0-0.1c0,0,0,0,0-0.1c0,0,0,0,0-0.1
		c0,0,0,0,0-0.1c0,0,0,0,0-0.1c0,0,0,0,0-0.1c0,0,0,0,0-0.1c0,0,0,0,0-0.1c0,0,0,0,0,0c0,0,0,0,0,0c0,0,0,0,0,0c0,0,0,0,0,0
		c0,0,0,0,0,0l-6.4-25.4l15,6.5c0,0,0-0.1,0-0.1c0.1-0.2,0.1-0.3,0.2-0.5c0,0,0,0,0-0.1l-16.6-7.2L286.4,468.7z"/>
	<path class="st0" d="M288.1,470.9C288.1,470.9,288.2,470.9,288.1,470.9c0.1-0.1,0.1-0.1,0.1-0.1c0,0,0,0,0-0.1c0,0,0,0,0-0.1
		c0,0,0,0,0-0.1c0,0,0,0,0-0.1c0,0,0,0,0-0.1c0,0,0,0,0-0.1c0,0,0,0,0-0.1c0,0,0,0,0,0c0,0,0,0,0,0c0,0,0,0,0,0c0,0,0,0,0,0
		c0,0,0,0,0,0c0,0,0,0,0,0c0,0,0,0,0,0c0,0,0,0,0,0c0,0,0,0,0,0c0,0,0,0,0,0c0,0,0-0.1,0.1-0.1l-0.6-2.2c0,0,0,0,0,0c0,0,0,0,0,0
		c0,0,0,0,0,0c0,0,0,0,0,0c0,0,0,0,0,0c0,0,0,0,0,0c0,0,0,0,0,0c0,0,0,0,0,0c0,0,0,0,0,0c0,0,0,0,0,0c0,0,0,0,0,0c0,0,0,0,0,0
		c0,0,0,0,0,0c0,0,0,0,0,0c0,0,0,0,0,0c0,0,0,0,0,0c0,0,0,0,0,0c0,0,0,0,0,0c0,0,0,0,0,0c0,0,0,0,0,0.1c0,0,0,0,0,0.1c0,0,0,0,0,0.1
		c0,0,0,0,0,0c0,0,0,0-0.1,0.1L288.1,470.9C288.1,471,288.1,471,288.1,470.9C288.1,471,288.1,471,288.1,470.9z"/>
	<path class="st0" d="M287.2,467.2C287.2,467.2,287.2,467.2,287.2,467.2C287.2,467.2,287.2,467.2,287.2,467.2c0-0.1,0.1-0.1,0.1-0.1
		c0,0,0,0,0,0c0,0,0,0,0,0c0,0,0,0,0,0c0,0,0,0,0-0.1c0,0,0,0,0-0.1c0,0,0,0,0-0.1c0,0,0,0,0-0.1c0,0,0,0,0-0.1c0,0,0,0,0-0.1
		c0,0,0,0,0-0.1c0,0,0,0,0-0.1c0,0,0,0,0-0.1c0,0,0,0,0-0.1c0,0,0,0,0-0.1c0,0,0,0,0-0.1c0,0,0,0,0-0.1c0,0,0-0.1,0-0.1
		c0,0,0-0.1,0-0.1c0,0,0-0.1,0-0.1c0,0,0,0,0-0.1l-5.7-22.7l13.4,5.8c0-0.1,0.1-0.2,0.1-0.3c0-0.1,0.1-0.2,0.1-0.3l-15-6.5
		L287.2,467.2C287.1,467.3,287.1,467.3,287.2,467.2C287.1,467.3,287.1,467.2,287.2,467.2z"/>
	<path class="st0" d="M289.5,468.8l-0.5-2c0,0,0,0,0,0c0,0,0,0,0,0.1c0,0,0,0,0,0.1c0,0,0,0,0,0.1c0,0,0,0,0,0.1c0,0,0,0,0,0
		c0,0,0,0,0,0c0,0,0,0,0,0c0,0,0,0,0,0c0,0,0,0,0,0c0,0,0,0,0,0c0,0,0,0,0,0c-0.1,0.1-0.2,0.2-0.3,0.4c0,0,0,0,0,0c0,0,0,0,0,0
		l0.6,2.2C289.1,469.5,289.3,469.1,289.5,468.8z"/>
	<path class="st0" d="M287.8,465.8C287.9,465.7,287.9,465.7,287.8,465.8c0.1-0.1,0.1-0.1,0.1-0.2l0.1,0l0-0.1c0,0,0-0.1,0.1-0.1
		c0,0,0-0.1,0.1-0.1c0,0,0-0.1,0.1-0.1c0,0,0-0.1,0.1-0.1c0,0,0-0.1,0-0.1c0,0,0-0.1,0-0.1c0,0,0-0.1,0-0.1c0,0,0-0.1,0-0.1
		c0,0,0-0.1,0-0.1c0,0,0,0,0,0l-5-20l11.9,5.1c0,0,0-0.1,0.1-0.1c0.1-0.1,0.1-0.3,0.1-0.4c0,0,0-0.1,0-0.1l-13.4-5.8L287.8,465.8
		C287.8,465.9,287.8,465.9,287.8,465.8C287.8,465.8,287.8,465.8,287.8,465.8z"/>
	<path class="st0" d="M290.2,467.7l-0.4-1.7c0,0,0,0-0.1,0c0,0,0,0,0,0c0,0,0,0,0,0c0,0,0,0,0,0c0,0,0,0,0,0c0,0,0,0,0,0
		c0,0,0,0,0,0c0,0,0,0,0,0c0,0,0,0,0,0c0,0,0,0,0,0c0,0,0,0,0,0c0,0,0,0,0,0.1c0,0,0,0,0,0.1c0,0,0,0,0,0.1c0,0,0,0,0,0.1
		c0,0,0,0,0,0.1c0,0,0,0.1-0.1,0.1c0,0,0,0,0,0.1c0,0,0,0,0,0.1c0,0,0,0,0,0l0.5,2C289.8,468.3,290,468,290.2,467.7z"/>
	<path class="st0" d="M288.5,464.3C288.5,464.3,288.5,464.3,288.5,464.3c0.1-0.1,0.1-0.1,0.1-0.2c0,0,0-0.1,0-0.1c0,0,0-0.1,0-0.1
		c0,0,0-0.1,0-0.1c0,0,0,0,0-0.1c0,0,0,0,0,0c0,0,0,0,0-0.1c0,0,0,0,0-0.1c0,0,0,0,0-0.1c0,0,0,0,0-0.1c0,0,0,0,0-0.1c0,0,0,0,0-0.1
		c0,0,0,0,0-0.1c0,0,0,0,0-0.1c0,0,0,0,0-0.1c0,0,0,0,0-0.1c0,0,0,0,0-0.1c0,0,0,0,0-0.1l-4.4-17.4l10.4,4.5c0,0,0,0,0,0
		c0-0.1,0.1-0.2,0.1-0.3c0-0.1,0.1-0.1,0.1-0.2l-11.9-5.1l5,20C288.4,464.5,288.5,464.4,288.5,464.3
		C288.5,464.4,288.5,464.4,288.5,464.3z"/>
	<path class="st0" d="M290.9,466.6l-0.4-1.4c0,0,0,0,0,0c0,0,0,0,0,0c0,0,0,0,0,0c0,0,0,0,0,0c0,0,0,0,0,0c0,0,0,0,0,0c0,0,0,0,0,0
		c0,0,0,0,0,0c0,0,0,0,0,0c0,0,0,0,0,0c0,0,0,0,0,0c0,0,0,0,0,0c0,0,0,0,0,0c-0.1,0.1-0.2,0.2-0.3,0.3l0.4,1.7
		c0.3-0.5,0.5-0.8,0.5-0.8C290.8,466.8,290.8,466.7,290.9,466.6z"/>
	<path class="st0" d="M289.1,463.1C289.1,463.1,289.1,463.1,289.1,463.1C289.1,463.1,289.1,463.1,289.1,463.1
		c0.1-0.1,0.1-0.1,0.1-0.2c0,0,0-0.1,0-0.1c0,0,0-0.1,0-0.1c0,0,0-0.1,0-0.1c0,0,0-0.1,0-0.1c0,0,0-0.1,0-0.1c0,0,0-0.1,0-0.1
		c0,0,0-0.1,0-0.1c0,0,0-0.1,0-0.1c0,0,0-0.1,0-0.1c0,0,0-0.1,0-0.1c0,0,0-0.1,0-0.1c0,0,0-0.1,0.1-0.1c0,0,0,0,0,0l-3.8-14.9
		l8.9,3.8c0-0.1,0.1-0.2,0.1-0.3c0-0.1,0.1-0.2,0.1-0.3l-10.4-4.5L289.1,463.1z"/>
	<path class="st0" d="M289.8,461.6c0,0,0-0.1,0.1-0.1c0,0,0-0.1,0.1-0.1c0,0,0-0.1,0.1-0.1c0,0,0-0.1,0.1-0.1c0,0,0-0.1,0.1-0.1
		c0.1-0.1,0.1-0.3,0.2-0.4l-3.1-12.4l7.4,3.2c0-0.1,0.1-0.2,0.1-0.2c0-0.1,0.1-0.2,0.1-0.3c0,0,0,0,0,0l-8.9-3.8l3.8,14.9
		c0,0,0-0.1,0-0.1C289.7,461.7,289.7,461.6,289.8,461.6z"/>
	<path class="st0" d="M291.2,466.6l0.3-0.6c0,0,0.1-0.1,0.1-0.1l-0.4-1.5c0,0,0,0.1-0.1,0.1c-0.1,0.1-0.1,0.2-0.2,0.3
		c0,0-0.1,0.1-0.1,0.1c0,0,0,0,0,0.1c0,0,0,0,0,0.1c0,0,0,0,0,0.1c0,0,0,0,0,0.1c0,0,0,0,0,0c0,0,0,0,0,0c0,0,0,0,0,0c0,0,0,0,0,0
		l0.4,1.4c0.1-0.1,0.1-0.1,0.2-0.2L291.2,466.6z"/>
	<path class="st0" d="M292.3,465l-0.4-1.6c0,0,0,0,0,0c-0.1,0.1-0.2,0.2-0.2,0.4c-0.1,0.1-0.2,0.2-0.2,0.3c-0.1,0.1-0.1,0.1-0.2,0.2
		l0.4,1.5C291.8,465.6,292,465.3,292.3,465z"/>
	<path class="st0" d="M288.3,449.2l5.9,2.5c0,0,0,0,0.1-0.1c0-0.1,0.1-0.1,0.1-0.2c0-0.1,0.1-0.1,0.1-0.2c0,0,0,0,0,0l-7.4-3.2
		l3.1,12.4c0.2-0.4,0.4-0.9,0.6-1.2L288.3,449.2z"/>
	<path class="st0" d="M292.3,465C292.3,465,292.3,464.9,292.3,465C292.4,464.9,292.4,464.9,292.3,465c0.1-0.1,0.1-0.1,0.1-0.1
		c0,0,0,0,0,0c0,0,0,0,0,0c0,0,0,0,0-0.1c0,0,0,0,0-0.1c0,0,0,0,0-0.1c0,0,0,0,0-0.1c0,0,0,0,0-0.1c0,0,0,0,0-0.1c0,0,0,0,0-0.1
		c0,0,0,0,0-0.1c0,0,0,0,0-0.1c0,0,0,0,0,0l-0.4-1.7l-0.1,0.2c-0.1,0.1-0.2,0.3-0.3,0.4c-0.1,0.1-0.2,0.2-0.2,0.3L292.3,465
		C292.3,465,292.3,465,292.3,465C292.3,465,292.3,465,292.3,465z"/>
	<path class="st0" d="M289.4,450.3l5,2.1c0,0,0,0,0,0c-0.1-0.1-0.1-0.2-0.2-0.2c-0.1-0.1-0.2-0.2-0.2-0.2c0,0,0.1-0.1,0.1-0.1
		c0,0,0.1-0.1,0.1-0.1l-5.9-2.5l2.5,10.1c0.2-0.4,0.4-0.8,0.5-1.2L289.4,450.3z"/>
	<path class="st0" d="M291.4,458.1c0.2-0.5,0.4-0.9,0.5-1.2l-1.4-5.5l4.5,2c0,0,0,0,0-0.1c-0.1-0.1-0.2-0.2-0.2-0.3
		c-0.1-0.1-0.2-0.2-0.2-0.3c-0.1-0.1-0.1-0.2-0.2-0.2l-5-2.1L291.4,458.1z"/>
	<path class="st0" d="M293,464C293,464,293,464,293,464c0.1-0.1,0.1-0.1,0.1-0.2c0,0,0-0.1,0.1-0.1c0,0,0-0.1,0.1-0.1
		c0,0,0-0.1,0.1-0.1c0,0,0-0.1,0.1-0.1c0,0,0-0.1,0.1-0.1c0,0,0-0.1,0.1-0.1c0,0,0,0,0-0.1l-0.4-1.8c0,0,0,0,0,0c0,0,0,0.1-0.1,0.1
		c0,0,0,0.1-0.1,0.1c0,0,0,0.1-0.1,0.1c0,0,0,0.1-0.1,0.1c0,0,0,0.1-0.1,0.1c0,0,0,0.1-0.1,0.1c0,0,0,0.1-0.1,0.1c0,0,0,0.1-0.1,0.1
		c0,0,0,0.1,0,0.1c0,0,0,0.1,0,0.1l0-0.1l0,0.1l0.4,1.7C292.9,464.2,292.9,464.1,293,464C292.9,464.1,293,464.1,293,464z"/>
	<path class="st0" d="M292.2,456.6c0,0,0.1,0.1,0.1,0.1c0,0,0.1,0.1,0.1,0.1c0,0,0.1,0.1,0.1,0.1c0,0,0.1,0.1,0.1,0.1
		c0,0,0.1,0.1,0.1,0.1c0,0,0.1,0.1,0.1,0.1c0,0,0,0,0,0l-1.2-4.8l4,1.7c0,0,0-0.1-0.1-0.1c-0.1-0.1-0.2-0.3-0.3-0.4
		c-0.1-0.1-0.1-0.2-0.2-0.3l-4.5-2l1.4,5.5C292,456.7,292.1,456.5,292.2,456.6C292.1,456.5,292.1,456.6,292.2,456.6z"/>
	<path class="st0" d="M293.6,463.1c0,0,0-0.1,0.1-0.1c0,0,0-0.1,0.1-0.1c0,0,0-0.1,0.1-0.1c0,0,0.1-0.1,0.1-0.1c0,0,0.1-0.1,0.1-0.1
		c0,0,0.1-0.1,0.1-0.1c0,0,0,0,0,0l-0.4-1.7c0,0-0.1,0.1-0.1,0.1c0,0-0.1,0.1-0.1,0.1c0,0,0,0.1-0.1,0.1c0,0,0,0.1-0.1,0.1
		c0,0,0,0.1-0.1,0.1c0,0,0,0.1-0.1,0.1c0,0,0,0.1-0.1,0.1c0,0,0,0.1-0.1,0.1l0.4,1.8c0,0,0,0,0,0
		C293.5,463.2,293.6,463.2,293.6,463.1z"/>
	<path class="st0" d="M292.9,457.4C293,457.4,293,457.5,292.9,457.4c0.1,0.1,0.1,0.1,0.2,0.2c0,0,0.1,0.1,0.1,0.1
		c0,0,0.1,0.1,0.1,0.1c0,0,0.1,0.1,0.1,0.1c0,0,0.1,0.1,0.1,0.1c0,0,0.1,0.1,0.1,0.1c0,0,0,0,0,0l-1.2-4.7l3.4,1.5
		c-0.1-0.1-0.1-0.2-0.2-0.3c-0.1-0.1-0.2-0.3-0.2-0.4l-4-1.7l1.2,4.8C292.8,457.3,292.8,457.3,292.9,457.4
		C292.9,457.3,292.9,457.4,292.9,457.4z"/>
	<path class="st0" d="M294.1,462.2c0-0.1,0.1-0.1,0.1-0.2c0-0.1,0.1-0.1,0.1-0.2c0-0.1,0.1-0.1,0.1-0.2c0-0.1,0.1-0.1,0.1-0.2
		c0-0.1,0.1-0.1,0.1-0.2c0,0,0,0,0,0l-0.4-1.7c0,0,0,0,0,0c0,0.1-0.1,0.1-0.1,0.2c0,0.1-0.1,0.1-0.1,0.2c0,0.1-0.1,0.1-0.1,0.2
		c0,0-0.1,0.1-0.1,0.1c0,0-0.1,0.1-0.1,0.1c0,0-0.1,0.1-0.1,0.1c0,0,0,0,0,0l0.4,1.7C294.1,462.3,294.1,462.2,294.1,462.2z"/>
	<path class="st0" d="M294.8,460.9c0-0.1,0.1-0.1,0.1-0.2c0-0.1,0.1-0.2,0.1-0.2c0-0.1,0.1-0.2,0.1-0.2c0,0,0,0,0,0l-1.5-5.8
		l2.7,1.1c0-0.1-0.1-0.2-0.1-0.3c0-0.1-0.1-0.2-0.2-0.3l-3.4-1.5l1.2,4.7c0,0,0.1,0.1,0.1,0.1c0,0,0.1,0.1,0.1,0.1
		c0,0,0.1,0.1,0.1,0.1c0.1,0,0.1,0.1,0.1,0.1c0.1,0,0.1,0,0.2,0.1c0.1,0,0.1,0,0.2,0l0,0.1c0,0-0.1,0.1-0.1,0.2
		c0,0.1-0.1,0.1-0.1,0.2c0,0.1-0.1,0.1-0.1,0.2c0,0.1-0.1,0.1-0.1,0.2c0,0-0.1,0.1-0.1,0.1l0.4,1.7c0-0.1,0.1-0.1,0.1-0.2
		C294.7,461.1,294.7,461,294.8,460.9z"/>
	<path class="st0" d="M295.1,460.2c0-0.1,0.1-0.2,0.1-0.2c0-0.1,0.1-0.2,0.1-0.3c0-0.1,0.1-0.2,0.1-0.3c0-0.1,0.1-0.2,0.1-0.3
		c0,0,0,0,0,0l-0.9-3.7l1.9,0.8c0-0.2-0.1-0.4-0.2-0.6l-2.7-1.1L295.1,460.2z"/>
	<path class="st0" d="M295.7,458.4C295.7,458.3,295.7,458.3,295.7,458.4c0.1-0.1,0.1-0.1,0.1-0.2c0,0,0.1-0.1,0.1-0.1l-0.5-1.8
		l1,0.4c0-0.2,0-0.4-0.1-0.5l-1.9-0.8l0.9,3.7c0-0.1,0.1-0.2,0.1-0.3C295.7,458.6,295.7,458.5,295.7,458.4z"/>
	<path class="st0" d="M296,458.1C296,458.1,296,458.1,296,458.1c0.1-0.1,0.2-0.2,0.2-0.3c0.1-0.1,0.1-0.2,0.2-0.3
		c0-0.1,0.1-0.2,0.1-0.3l0,0l0,0c0,0,0,0,0-0.1c0-0.1,0-0.3,0-0.4l-1-0.4L296,458.1z"/>
	<path class="st0" d="M296.4,457.2L296.4,457.2C296.4,457.2,296.4,457.2,296.4,457.2L296.4,457.2z"/>
</g>
</svg>
