<?xml version="1.0" encoding="utf-8"?>
<!-- Generator: Adobe Illustrator 22.0.1, SVG Export Plug-In . SVG Version: 6.00 Build 0)  -->
<svg version="1.1" id="レイヤー_1" xmlns="http://www.w3.org/2000/svg" xmlns:xlink="http://www.w3.org/1999/xlink" x="0px"
	 y="0px" viewBox="0 0 640 640" style="enable-background:new 0 0 640 640;" xml:space="preserve">
<style type="text/css">
	.st0{fill:none;stroke:#FFFFFF;stroke-width:0.1625;stroke-miterlimit:10;}
</style>
<g>
	<path class="st0" d="M218.5,366.4c-0.1-0.1-0.2-0.3-0.2-0.3l0.6,1.8l0.6-0.3C219.1,367,218.7,366.6,218.5,366.4z"/>
	<path class="st0" d="M220.1,369.9c0,0,0,0.5,0.2,1c0.1,0.1,0.1,0.2,0.2,0.4l1.9-1c-0.4-0.4-0.7-0.7-1.1-1c-0.1-0.1-0.2-0.2-0.3-0.3
		l-1.5,0.8C219.7,369.8,219.9,369.9,220.1,369.9z"/>
	<path class="st0" d="M241.2,361.9c-0.2,0-0.4,0.1-0.7,0.1c-0.2,0-0.4,0.1-0.7,0.1c-0.2,0.1-0.4,0.1-0.7,0.2
		c-0.2,0.1-0.4,0.2-0.7,0.2c-0.2,0.1-0.4,0.2-0.7,0.3c-0.2,0.1-0.4,0.3-0.6,0.4c-0.2,0.2-0.4,0.3-0.6,0.5c-0.2,0.2-0.4,0.5-0.5,0.8
		c-0.1,0.1-0.1,0.2-0.1,0.4l5.8-3.1C241.6,361.8,241.4,361.8,241.2,361.9z"/>
	<path class="st0" d="M221.4,371.6c0,0,0,0.2,0.1,0.4c0.1,0.2,0.2,0.4,0.3,0.6l1.9-1c-0.5-0.4-0.9-0.9-1.4-1.3l-1.9,1
		C220.7,371.5,221,371.6,221.4,371.6z"/>
	<path class="st0" d="M235.8,366.9l13.9-7.5c-0.5-0.2-1.1-0.3-1.7-0.2c-0.3,0-0.7,0.1-1,0.2c-0.3,0.1-0.5,0.2-0.8,0.3
		c-0.2,0.1-0.5,0.2-0.7,0.3c-0.2,0.1-0.4,0.2-0.6,0.3c-0.2,0.1-0.4,0.2-0.5,0.3c-0.2,0.1-0.3,0.2-0.4,0.3c-0.2,0.1-0.3,0.2-0.5,0.3
		c-0.2,0.1-0.4,0.3-0.5,0.4c-0.1,0.1-0.2,0.2-0.2,0.2s-0.1,0-0.4,0c-0.2,0-0.4,0-0.7,0c0,0,0,0-0.1,0l-5.8,3.1
		c-0.1,0.3-0.2,0.5-0.2,0.8C235.8,366.1,235.8,366.5,235.8,366.9z"/>
	<path class="st0" d="M254.6,449.6c0.2,0.3,0.4,0.7,0.5,1c0.3,0.6,0.6,1.1,0.9,1.7c0.3,0.5,0.6,1.1,0.9,1.6c0.3,0.5,0.6,1,0.9,1.5
		c0.2,0.3,0.4,0.6,0.5,0.9l-1-5.5L254.6,449.6z"/>
	<path class="st0" d="M222.2,373.1c0.3,0.4,0.8,0.6,1.3,0.2c0,0,0,0.1,0.1,0.3l1.6-0.8c-0.1-0.1-0.1-0.1-0.2-0.2
		c-0.4-0.3-0.8-0.7-1.1-1c0,0,0,0,0,0l-1.9,1C221.9,372.7,222.1,372.9,222.2,373.1z"/>
	<path class="st0" d="M223.7,374c0.1,0.3,0.3,0.7,0.7,1l2-1.1c-0.1-0.1-0.3-0.2-0.4-0.4c-0.3-0.3-0.6-0.5-0.9-0.8l-1.6,0.8
		C223.6,373.7,223.6,373.8,223.7,374z"/>
	<path class="st0" d="M236.3,368.6l14.9-8c-0.3-0.3-0.5-0.6-0.8-0.8l-0.5-0.3c0,0-0.1,0-0.1,0l-13.9,7.5
		C235.9,367.4,236.1,368,236.3,368.6z"/>
	<path class="st0" d="M259.5,458.2c0.3,0.4,0.5,0.8,0.8,1.3c0.3,0.4,0.5,0.8,0.8,1.2c0.1,0.1,0.1,0.2,0.2,0.3l-2.2-12l-6.3-2.9
		c0.1,0.2,0.2,0.5,0.3,0.7c0.3,0.7,0.7,1.3,1,2c0.1,0.3,0.3,0.5,0.4,0.8l2.8,1.3l1,5.5c0.1,0.2,0.2,0.4,0.3,0.5
		C259,457.3,259.2,457.8,259.5,458.2z"/>
	<path class="st0" d="M244,441.7C244,441.7,244,441.7,244,441.7C244,441.7,244.1,441.7,244,441.7c0.1-0.1,0.1-0.1,0.1-0.2
		C244,441.5,244,441.6,244,441.7z"/>
	<path class="st0" d="M250.1,442.7c0.4,0.4,0.7,0.8,1,1l0-1l-1.5-0.7C249.7,442.3,249.9,442.5,250.1,442.7z"/>
	<path class="st0" d="M226.5,375.4l0.3,0.2l0.9-0.5c-0.2-0.2-0.4-0.3-0.6-0.5c-0.2-0.2-0.4-0.4-0.7-0.6l-2,1.1c0,0,0,0,0.1,0.1
		C224.9,375.4,225.5,375.6,226.5,375.4z"/>
	<path class="st0" d="M252,362c-0.1-0.3-0.2-0.5-0.4-0.7c-0.1-0.2-0.3-0.5-0.5-0.7l-14.9,8c0.2,0.5,0.4,0.9,0.7,1.4L252,362z"/>
	<path class="st0" d="M261.3,461c0.2,0.3,0.4,0.6,0.6,0.8c0.2,0.4,0.5,0.7,0.7,1.1c0.2,0.3,0.5,0.7,0.7,1c0.2,0.3,0.5,0.6,0.7,1
		l-3.2-17.7l-9.6-4.3c0.3,0.6,0.6,1.3,0.9,1.9c0.2,0.5,0.5,0.9,0.7,1.4l6.3,2.9L261.3,461z"/>
	<path class="st0" d="M244.1,439.9c0,0.3,0,0.6,0,0.8c0,0.3,0,0.5,0,0.7c0.1-0.2,0.3-0.5,0.5-0.8c0.1-0.2,0.3-0.4,0.5-0.6l-0.9-0.4
		C244.1,439.7,244.1,439.8,244.1,439.9z"/>
	<path class="st0" d="M228.2,376.5l1.6-0.8c-0.2-0.2-0.4-0.4-0.6-0.2c0-0.1,0-0.2,0.1-0.2l-1.1,0.2c-0.1-0.1-0.3-0.3-0.5-0.4
		l-0.9,0.5l0.2,0.2L228.2,376.5z"/>
	<path class="st0" d="M264.5,465.5c0.1,0.2,0.3,0.3,0.4,0.5c0.1,0.2,0.3,0.4,0.4,0.5c0.1,0.2,0.3,0.4,0.4,0.5
		c0.1,0.1,0.1,0.2,0.2,0.2c0,0,0.1,0.1,0.3,0.3c0.1,0.1,0.2,0.2,0.3,0.3l-4.1-22.7l-15.4-6.9c0.1,0.2,0.2,0.4,0.4,0.6
		c0.1,0.2,0.3,0.5,0.5,0.7c0.2,0.2,0.3,0.5,0.5,0.7c0.2,0.2,0.3,0.5,0.5,0.7c0.2,0.3,0.4,0.5,0.6,0.8c0,0,0.1,0.1,0.1,0.1l1.5,0.7
		l0-0.3c0.1,0.1,0.1,0.2,0.2,0.3l9.6,4.3l3.2,17.7c0.1,0.1,0.1,0.2,0.2,0.2C264.3,465.2,264.4,465.4,264.5,465.5z"/>
	<path class="st0" d="M246.1,438.6c0.1-0.2,0.3-0.3,0.4-0.5L244,437c0,0.2,0,0.4,0,0.6c0,0.3,0,0.5,0,0.7c0,0.3,0,0.5,0,0.8
		c0,0.1,0,0.3,0,0.4l0.9,0.4c0.1-0.1,0.2-0.3,0.3-0.4C245.6,439.2,245.9,438.9,246.1,438.6z"/>
	<path class="st0" d="M252.5,363.5c0-0.2-0.1-0.3-0.1-0.5c-0.1-0.3-0.2-0.6-0.3-0.8c0-0.1-0.1-0.1-0.1-0.2l-15,8.1
		c0.2,0.4,0.5,0.9,0.8,1.3L252.5,363.5z"/>
	<path class="st0" d="M228.7,376.9l-0.4,0.8l-0.3,0.5l0,0.1l2.3-1.2c-0.1-0.3-0.2-0.6-0.3-0.9c-0.1-0.2-0.2-0.4-0.3-0.5l-1.6,0.8
		l0.1,0.1L228.7,376.9z"/>
	<path class="st0" d="M267.2,468.7c0.2,0.2,0.3,0.4,0.5,0.6c0.2,0.2,0.3,0.4,0.5,0.6c0.2,0.2,0.4,0.4,0.6,0.6c0,0,0,0,0,0l-4.9-26.9
		l-20.1-9.1c0,0.1,0,0.2,0,0.3c0,0.2,0,0.4,0,0.7c0,0.2,0,0.5,0,0.7c0,0.2,0,0.5,0,0.7c0,0,0,0.1,0,0.1l2.4,1.1
		c0.1-0.2,0.2-0.3,0.2-0.3s0.1,0.2,0.3,0.5c0,0,0,0,0,0.1l15.4,6.9l4.1,22.7c0.1,0.1,0.1,0.1,0.2,0.2
		C266.9,468.4,267,468.5,267.2,468.7z"/>
	<path class="st0" d="M237.9,371.4c0,0-0.1,0.1-0.2,0.4c-0.1,0.3-0.3,0.6-0.4,1.1c-0.1,0.2-0.1,0.4-0.2,0.5l15.7-8.4
		c0-0.2-0.1-0.4-0.1-0.6c0-0.2-0.1-0.5-0.1-0.7c0-0.1,0-0.2-0.1-0.3L237.9,371.4C237.9,371.4,237.9,371.4,237.9,371.4z"/>
	<path class="st0" d="M236.7,375.4l17-9.1c-0.5-0.2-0.7-0.4-0.7-0.4c0,0,0-0.1,0-0.1c0-0.2,0-0.4-0.1-0.6c0,0,0-0.1,0-0.1l-15.7,8.4
		c-0.1,0.2-0.1,0.5-0.2,0.7C236.9,374.6,236.8,375,236.7,375.4z"/>
	<path class="st0" d="M270,471.7c0.2,0.2,0.4,0.4,0.6,0.6c0.2,0.2,0.3,0.3,0.5,0.5l-5.6-30.9l-21.7-9.8c0,0.1,0,0.2,0,0.3
		c0,0.2,0,0.4,0,0.6c0,0.2,0,0.4,0,0.6c0,0.2,0,0.4,0,0.6c0,0.1,0,0.2,0,0.3l20.1,9.1l4.9,26.9c0.2,0.2,0.3,0.4,0.5,0.6
		C269.6,471.2,269.8,471.4,270,471.7z"/>
	<path class="st0" d="M228.4,378.9l0.4,0.8l2-1.1c0-0.1,0-0.1,0-0.2c0,0,0,0,0-0.1c0-0.2-0.2-0.6-0.3-1c0-0.1,0-0.1-0.1-0.2
		l-2.3,1.2l0.2,0.4L228.4,378.9z"/>
	<path class="st0" d="M264.3,361.6L264.3,361.6c0.1,0,0.1-0.1,0.2-0.1l1.1-9.9l-0.1,0l0,0l-0.6-1.6l-0.3-0.9c0.1,0.2,0,1.2-0.1,2.6
		c-0.2,1.8-0.5,4.4-0.8,6.6c0,0.3-0.1,0.6-0.1,0.9c0,0.3-0.1,0.6-0.1,0.9c0,0.3-0.1,0.6-0.1,0.9c0,0.3-0.1,0.6-0.1,0.8
		c0,0.3-0.1,0.6-0.1,0.8c0,0.1,0,0.1,0,0.2l1-0.5L264.3,361.6z"/>
	<path class="st0" d="M228.8,379.7l0.4,0.9c0,0.1,0.1,0.2,0.1,0.4l1.4-0.7c0-0.3,0-0.6,0-0.9c0-0.2,0.1-0.5,0.1-0.7L228.8,379.7
		L228.8,379.7z"/>
	<path class="st0" d="M236.4,377.2l18.7-10c-0.6-0.4-1.1-0.7-1.4-0.9l-17,9.1c0,0.1,0,0.2,0,0.2
		C236.5,376.1,236.4,376.7,236.4,377.2z"/>
	<path class="st0" d="M271.9,473.6c0.2,0.2,0.5,0.4,0.7,0.7c0.2,0.2,0.4,0.4,0.6,0.6l-6.2-34.5l-23.4-10.6c0,0,0,0,0,0
		c0,0.2,0,0.3,0,0.5c0,0.2,0,0.3,0,0.5c0,0.2,0,0.4,0,0.5c0,0.2,0,0.4,0,0.5c0,0.1,0,0.2,0,0.2l21.7,9.8l5.6,30.9
		c0,0,0.1,0.1,0.1,0.1C271.5,473.1,271.7,473.3,271.9,473.6z"/>
	<path class="st0" d="M229.9,382.3l1.1-0.6c0-0.1-0.1-0.3-0.1-0.4c-0.1-0.3-0.1-0.6-0.1-0.9c0,0,0,0,0-0.1l-1.4,0.7
		c0.1,0.2,0.1,0.3,0.2,0.5C229.6,381.8,229.7,382,229.9,382.3z"/>
	<path class="st0" d="M265.5,358.6c-0.1-0.3-0.3-0.6-0.3-0.6c0.2,0,0.3-0.1,0.4-0.2c0.4-0.3,0.4-0.8,0.3-1.4
		c-0.1-0.6-0.3-1.1-0.3-1.1c0.8-0.5,0.5-1.3,0.2-1.8c-0.1-0.2-0.2-0.3-0.2-0.3c0.3-0.3,0.5-0.9,0.7-1.3c0.1-0.3,0.2-0.5,0.2-0.5l0,0
		l-0.8,0.1l-1.1,9.9C265.9,360.7,265.7,359.3,265.5,358.6z"/>
	<path class="st0" d="M236.2,378.2c0,0.2,0,0.5-0.1,0.7l20.2-10.8c-0.5-0.4-0.9-0.7-1.3-0.9l-18.7,10c0,0,0,0,0,0.1
		C236.3,377.6,236.3,377.9,236.2,378.2z"/>
	<path class="st0" d="M274.1,475.6c0.3,0.2,0.5,0.5,0.8,0.7c0.1,0.1,0.3,0.2,0.4,0.3l-6.8-37.9l-24.9-11.3c0,0.1,0,0.3,0,0.5
		c0,0.1,0,0.3,0,0.4c0,0.1,0,0.3,0,0.5c0,0.2,0,0.3,0,0.5c0,0.2,0,0.3,0,0.5l23.4,10.6l6.2,34.5c0,0,0.1,0,0.1,0.1
		C273.6,475.1,273.8,475.3,274.1,475.6z"/>
	<path class="st0" d="M262.9,363.6c-0.3-0.2-0.5-0.2-0.7-0.2c-0.2,0-0.3,0.1-0.3,0.3c0,0.2,0,0.5,0.1,0.8c0,0.1,0.1,0.2,0.1,0.4
		l1.4-0.8l-0.1,0l0.1-0.3l0.2-0.7l0.2-0.7l0,0l-1,0.5c0,0.3-0.1,0.5-0.1,0.6C262.9,363.6,262.9,363.6,262.9,363.6z"/>
	<path class="st0" d="M262.3,365.5c0.1,0.3,0.2,0.5,0.3,0.7l2.3-1.2l0-0.2l-1.3-0.6l-1.4,0.8C262.2,365.2,262.3,365.4,262.3,365.5z"
		/>
	<path class="st0" d="M236.1,380.2c0,0.1,0,0.2,0,0.3l21.4-11.5c-0.1-0.1-0.3-0.2-0.4-0.3c-0.3-0.2-0.5-0.4-0.7-0.6l-20.2,10.8
		c0,0.1,0,0.2,0,0.3C236.1,379.5,236.1,379.9,236.1,380.2z"/>
	<path class="st0" d="M275.3,476.6c0.1,0.1,0.3,0.2,0.4,0.3c0.3,0.2,0.6,0.5,0.9,0.7c0.2,0.2,0.4,0.3,0.6,0.4l-7.4-40.8l-28.1-12.7
		c0,0,0.1,0.1,0.1,0.1c0.1,0.2,0.2,0.4,0.3,0.5c0.1,0.2,0.2,0.3,0.3,0.5c0.1,0.2,0.2,0.3,0.4,0.4c0.2,0.1,0.3,0.2,0.5,0.2
		c0.1,0,0.1,0,0.2,0c0,0,0,0.2,0,0.6c0,0.2,0,0.4,0,0.6l24.9,11.3L275.3,476.6z"/>
	<path class="st0" d="M230.3,383.2c0,0.1,0.1,0.2,0.1,0.3l0.9-0.5c-0.1-0.3-0.2-0.6-0.3-0.8c0-0.1-0.1-0.3-0.1-0.4l-1.1,0.6
		c0,0,0,0.1,0,0.1C230,382.7,230.2,382.9,230.3,383.2z"/>
	<path class="st0" d="M262.8,366.7c0.2,0.2,0.5,0.4,0.7,0.6l1.7-0.9l-0.2-0.8l0-0.1l-0.1-0.4l-2.3,1.2c0.1,0.1,0.1,0.2,0.1,0.3
		C262.8,366.6,262.8,366.7,262.8,366.7z"/>
	<path class="st0" d="M278.6,478.7c0.1,0.1,0.3,0.1,0.4,0.1l-7.8-43.2l-30.7-13.9c0.1,0.1,0.1,0.3,0.2,0.4c0.1,0.2,0.2,0.4,0.3,0.7
		c0.1,0.2,0.2,0.4,0.3,0.6c0.1,0.2,0.2,0.4,0.3,0.6c0.1,0.1,0.1,0.3,0.2,0.4l28.1,12.7l7.4,40.8c0.1,0.1,0.2,0.1,0.3,0.2
		C277.9,478.4,278.3,478.6,278.6,478.7z"/>
	<path class="st0" d="M231,384.7l1-0.5c-0.1-0.1-0.1-0.2-0.2-0.4c-0.1-0.3-0.3-0.5-0.4-0.8c0,0,0,0,0,0l-0.9,0.5
		c0.1,0.2,0.2,0.4,0.2,0.5C230.8,384.3,230.9,384.5,231,384.7z"/>
	<path class="st0" d="M236,382l22.5-12.1c-0.4-0.3-0.7-0.6-1-0.9l-21.4,11.5c0,0.2,0,0.4,0,0.7C236,381.4,236,381.7,236,382z"/>
	<path class="st0" d="M280.2,478.6L280.2,478.6l0.2-0.3c0,0,0.1,0,0.1,0.1l-8-44.1l-30.1-13.6c0,0.1,0,0.2,0.1,0.2l-0.2,0.3
		c-0.1-0.1-0.2-0.3-0.4-0.5c-0.1-0.1-0.1-0.2-0.2-0.3l-2.2-1c0.1,0.2,0.2,0.5,0.3,0.7c0.1,0.2,0.2,0.5,0.3,0.7
		c0.1,0.2,0.2,0.5,0.3,0.7c0,0.1,0.1,0.2,0.1,0.3l30.7,13.9l7.8,43.2C279.5,478.9,279.9,478.9,280.2,478.6z"/>
	<path class="st0" d="M236,383c0,0.2,0,0.3,0,0.5l23.4-12.6c-0.3-0.3-0.5-0.5-0.8-0.7c-0.1-0.1-0.1-0.1-0.2-0.2L236,382
		c0,0,0,0.1,0,0.1C236,382.4,236,382.7,236,383z"/>
	<path class="st0" d="M231.5,385.6c0,0.1,0.1,0.1,0.1,0.2l1-0.6c-0.1-0.2-0.3-0.4-0.4-0.7c-0.1-0.1-0.2-0.3-0.3-0.4l-1,0.5
		c0,0,0,0.1,0.1,0.1C231.2,385.1,231.3,385.3,231.5,385.6z"/>
	<path class="st0" d="M264.2,368c0.1,0.1,0.1,0.1,0.1,0.2l1.3-0.7c0-0.1-0.1-0.2-0.1-0.2c-0.1-0.4-0.2-0.7-0.2-0.7l-0.1-0.3l0,0
		l-1.7,0.9C263.7,367.5,264,367.7,264.2,368z"/>
	<path class="st0" d="M232.2,386.9l1.2-0.6c-0.1-0.1-0.1-0.1-0.2-0.2c-0.2-0.2-0.3-0.4-0.5-0.7c0,0,0-0.1-0.1-0.1l-1,0.6
		c0.1,0.2,0.2,0.3,0.3,0.5C232,386.5,232.1,386.7,232.2,386.9z"/>
	<path class="st0" d="M236.1,384.6c0,0,0,0.1,0,0.1l24.2-13c-0.1-0.2-0.3-0.3-0.4-0.5c-0.1-0.2-0.3-0.3-0.4-0.5L236,383.4
		c0,0.1,0,0.3,0,0.4C236.1,384.1,236.1,384.4,236.1,384.6z"/>
	<path class="st0" d="M241.2,419.4c-0.1-0.2-0.2-0.5-0.3-0.7c-0.1-0.3-0.2-0.5-0.3-0.7c0-0.1-0.1-0.2-0.1-0.3l-1.9-0.9
		c0.1,0.2,0.2,0.4,0.3,0.5c0,0,0,0.1,0.1,0.2c0.1,0.2,0.2,0.5,0.3,0.8c0.1,0.2,0.2,0.5,0.3,0.8c0,0,0,0,0,0l2.2,1
		c-0.1-0.1-0.1-0.2-0.2-0.3C241.5,419.8,241.4,419.6,241.2,419.4z"/>
	<path class="st0" d="M282.1,478.6l-8.3-45.8l-31.9-14.4c0,0,0,0.1,0,0.1c0.1,0.3,0.1,0.6,0.2,0.8c0.1,0.3,0.1,0.6,0.2,0.8
		c0,0.2,0.1,0.4,0.1,0.5l30.1,13.6l8,44.1c0.2,0.1,0.6,0.2,1.1,0.3C281.8,478.6,281.9,478.7,282.1,478.6z"/>
	<path class="st0" d="M264.9,369.3l1.1-0.6c-0.1-0.2-0.1-0.4-0.2-0.5c-0.1-0.2-0.2-0.5-0.2-0.7l-1.3,0.7c0.2,0.3,0.4,0.6,0.5,0.9
		C264.9,369.2,264.9,369.2,264.9,369.3z"/>
	<path class="st0" d="M265.4,370.4l1-0.5c-0.1-0.3-0.2-0.6-0.2-0.8c0-0.1-0.1-0.2-0.1-0.4l-1.1,0.6c0.1,0.2,0.2,0.5,0.3,0.7
		C265.3,370.1,265.3,370.3,265.4,370.4z"/>
	<path class="st0" d="M283.4,478.4c0,0,0.1,0,0.1-0.1l-8.5-46.8l-33.7-15.2c0,0.2,0.1,0.3,0.1,0.5c0.1,0.3,0.1,0.6,0.2,0.9
		c0.1,0.3,0.1,0.5,0.2,0.8l31.9,14.4l8.3,45.8C282.5,478.6,282.9,478.6,283.4,478.4z"/>
	<path class="st0" d="M240.1,417.1c-0.1-0.1-0.3-0.3-0.4-0.4c-0.1-0.2-0.3-0.4-0.4-0.7c-0.1-0.2-0.3-0.5-0.4-0.8c0,0,0,0,0,0
		l-1.6-0.7c0,0,0,0,0,0c0.1,0.3,0.3,0.6,0.4,0.9c0.1,0.3,0.3,0.5,0.4,0.8c0.1,0.2,0.3,0.5,0.4,0.8c0,0,0,0,0,0l1.9,0.9
		c-0.1-0.2-0.2-0.4-0.2-0.5C240.2,417.1,240.1,417.1,240.1,417.1z"/>
	<path class="st0" d="M232.8,387.7c0,0.1,0.1,0.1,0.1,0.2l2.9-1.5l-0.9,0.2l-1.1,0.2c-0.1-0.1-0.2-0.3-0.4-0.5l-1.2,0.6
		c0,0,0.1,0.1,0.1,0.1C232.5,387.2,232.6,387.5,232.8,387.7z"/>
	<path class="st0" d="M236.1,385.4c0,0.2,0,0.4,0.1,0.6l25-13.4c-0.1-0.1-0.2-0.2-0.3-0.3c-0.2-0.2-0.4-0.4-0.5-0.6l-24.2,13
		C236.1,385,236.1,385.2,236.1,385.4z"/>
	<path class="st0" d="M238.1,413.4c-0.1-0.2-0.1-0.4-0.2-0.6l-1.4-0.6c0,0.1,0,0.2,0.1,0.3c0.1,0.3,0.2,0.7,0.3,1
		c0.1,0.3,0.2,0.6,0.4,0.9l1.6,0.7c-0.1-0.3-0.2-0.5-0.4-0.8C238.4,414,238.2,413.7,238.1,413.4z"/>
	<path class="st0" d="M265.7,371.5C265.7,371.5,265.7,371.6,265.7,371.5l1-0.5c0-0.1-0.1-0.2-0.1-0.3c-0.1-0.3-0.1-0.5-0.2-0.8
		c0,0,0,0,0,0l-1,0.5c0,0.1,0.1,0.2,0.1,0.4C265.6,371,265.6,371.3,265.7,371.5z"/>
	<path class="st0" d="M235.8,386.3l-2.9,1.5c0.1,0.2,0.3,0.3,0.4,0.5c0.1,0.2,0.3,0.3,0.4,0.4l28.2-15.1c-0.1-0.1-0.1-0.2-0.2-0.3
		c-0.2-0.2-0.4-0.4-0.5-0.6l-25,13.4c0,0,0,0.1,0,0.1L235.8,386.3z"/>
	<path class="st0" d="M276.3,430.1l-35.4-16c0.1,0.3,0.1,0.5,0.2,0.8c0.1,0.3,0.1,0.6,0.2,0.9c0,0.1,0.1,0.3,0.1,0.4l33.7,15.2
		l8.5,46.8c0.4-0.2,0.9-0.5,1.3-1L276.3,430.1z"/>
	<path class="st0" d="M237.2,410.7l-1.1-0.5c0,0.2,0.1,0.5,0.2,0.8c0.1,0.4,0.2,0.8,0.3,1.2l1.4,0.6c-0.1-0.1-0.1-0.3-0.2-0.4
		C237.5,411.8,237.3,411.2,237.2,410.7z"/>
	<path class="st0" d="M285.9,477.1c0.1,0,0.1,0,0.2,0c0,0,0,0,0.1,0l-8.7-48.2l-37-16.7c0.1,0.3,0.1,0.5,0.2,0.8
		c0.1,0.3,0.2,0.7,0.2,1c0,0.1,0,0.1,0,0.2l35.4,16l8.5,47.1c0.1-0.1,0.2-0.2,0.2-0.3C285.3,477,285.6,477.1,285.9,477.1z"/>
	<path class="st0" d="M265.9,372.7l1.1-0.6c0-0.2-0.1-0.5-0.2-0.7c0-0.1-0.1-0.3-0.1-0.4l-1,0.5c0,0.2,0.1,0.4,0.1,0.6
		C265.8,372.4,265.8,372.6,265.9,372.7z"/>
	<path class="st0" d="M234.7,389.4L234.7,389.4l27.9-14.9c-0.1-0.1-0.1-0.2-0.2-0.3c-0.2-0.2-0.3-0.4-0.5-0.6l-28.2,15.1
		c0.1,0.1,0.1,0.1,0.2,0.2C234.2,389.1,234.4,389.3,234.7,389.4z"/>
	<path class="st0" d="M265.9,373.5c0,0.2,0,0.3,0,0.5l1.2-0.6c0-0.1,0-0.3-0.1-0.4c0-0.2-0.1-0.5-0.1-0.7c0,0,0,0,0,0l-1.1,0.6
		c0,0,0,0.1,0,0.1C265.9,373.1,265.9,373.3,265.9,373.5z"/>
	<path class="st0" d="M263.5,375.3L263,375c-0.1-0.2-0.3-0.4-0.4-0.5l-27.9,15l1.8,0.3L263.5,375.3z"/>
	<path class="st0" d="M237.1,410.5c-0.2-0.5-0.3-0.9-0.3-1c0,0,0,0,0,0c0.2,0,0.5-0.1,0.9-0.3l-2.2-1c0.1,0.3,0.2,0.5,0.4,0.8
		c0,0,0,0,0,0.1c0,0.2,0,0.5,0.1,0.9c0,0.1,0,0.1,0,0.2l1.1,0.5C237.2,410.6,237.1,410.6,237.1,410.5z"/>
	<path class="st0" d="M287.5,476.9l-8.9-49.2L240,410.2c0.1,0.5,0.3,1.1,0.4,1.7c0,0.1,0,0.1,0.1,0.2l37,16.7l8.7,48.2
		C286.7,477.1,287.1,477,287.5,476.9z"/>
	<path class="st0" d="M238.6,408.6l1.1,0.5c0.1,0.3,0.1,0.6,0.2,0.9c0,0.1,0,0.1,0,0.2l38.6,17.4l8.9,49.2c0.1,0,0.2-0.1,0.2-0.1
		c0.4-0.2,0.7-0.4,0.9-0.7l-9-49.7l-43.8-19.8c-0.1,0.2-0.2,0.4-0.3,0.6c-0.1,0.3-0.1,0.5-0.1,0.8c0,0.1,0,0.1,0,0.1l2.2,1
		c0,0,0.1,0,0.1-0.1C238.1,408.9,238.4,408.8,238.6,408.6z"/>
	<path class="st0" d="M236.8,390.4c0,0.1,0,0.3,0.1,0.4l30.4-16.3c0-0.1,0-0.2,0-0.2c0-0.2-0.1-0.4-0.1-0.6c0-0.1,0-0.2,0-0.3
		l-1.2,0.6c0,0,0,0.1,0,0.1c0,0.2,0,0.4,0,0.6c0,0.3,0,0.5,0,0.5c0,0,0,0,0,0l-0.5,0.2l-0.6,0.2l-0.5,0.2l-0.8-0.5l-26.9,14.4l0.1,0
		C236.7,389.9,236.7,390.1,236.8,390.4z"/>
	<path class="st0" d="M237,391.6c0,0.1,0,0.2,0.1,0.3l30.3-16.3c0-0.1,0-0.1,0-0.2c0-0.2,0-0.4,0-0.6c0-0.1,0-0.2,0-0.4l-30.4,16.3
		c0,0.1,0,0.1,0,0.2C236.9,391.2,237,391.4,237,391.6z"/>
	<path class="st0" d="M289.4,475c0.1,0.1,0.2,0.1,0.3,0.1l-9-49.8l-44-19.9c0,0,0,0,0,0c-0.2,0.2-0.3,0.4-0.5,0.6
		c-0.1,0.2-0.3,0.4-0.4,0.6c0,0,0,0,0,0.1l43.8,19.8l9,49.7c0.1-0.1,0.1-0.1,0.2-0.2C289.2,475.4,289.4,475,289.4,475z"/>
	<path class="st0" d="M290.8,474.4l-9.1-50.3l-43.9-19.8c0,0-0.1,0.1-0.1,0.1c-0.2,0.1-0.3,0.3-0.5,0.5c-0.2,0.2-0.3,0.3-0.5,0.5
		l44,19.9l9,49.8c0,0,0.1,0,0.1,0C290.2,475.1,290.6,474.9,290.8,474.4z"/>
	<path class="st0" d="M237.1,392.1c0,0.1,0,0.1,0,0.2c0,0,0.3-0.2,0.8-0.4c1-0.5,2.5-1.2,3-1.1l26.3-14.1c0-0.1,0-0.2,0-0.3
		c0-0.2,0-0.3,0-0.5c0-0.1,0-0.2,0-0.3L237,391.8C237.1,391.9,237.1,392,237.1,392.1z"/>
	<path class="st0" d="M291.5,473c0.1-0.2,0.1-0.4,0.2-0.6l-8.9-49.4l-44.5-20.1c0.1,0.2,0.1,0.3,0.2,0.4c0.1,0.1,0.1,0.3,0.2,0.3
		c0,0-0.1,0.1-0.4,0.3c-0.1,0.1-0.3,0.2-0.4,0.3l43.9,19.8l9.1,50.3c0,0,0.1-0.1,0.1-0.1C291.1,474,291.3,473.5,291.5,473z"/>
	<path class="st0" d="M241.1,390.9c0,0,0.3,0.1,0.7,0.3c0.1,0.1,0.2,0.1,0.3,0.2l24.8-13.3c0,0,0,0,0,0c0.1-0.1,0.1-0.2,0.2-0.4
		c0.1-0.1,0.1-0.3,0.1-0.4c0-0.1,0.1-0.3,0.1-0.4c0,0,0-0.1,0-0.1L241,390.8C241,390.9,241.1,390.9,241.1,390.9z"/>
	<path class="st0" d="M242.1,392.3c-0.2,0.2-0.6,0.4-1.3,0.7c0,0-1.1,0.1-2.1,0.5c-0.4,0.2-0.8,0.4-1.1,0.8
		c-0.2,0.2-0.3,0.4-0.4,0.6c0,0.1,0,0.1,0,0.2l28.7-15.4c-0.1-0.1-0.2-0.3-0.2-0.4l0.1-0.4c0.2,0,0.3-0.1,0.4-0.2
		c0.1-0.1,0.2-0.2,0.3-0.3c0.1-0.1,0.2-0.2,0.2-0.3L242,391.4c0.1,0.1,0.2,0.2,0.3,0.3C242.4,391.8,242.3,392,242.1,392.3z"/>
	<path class="st0" d="M291.7,472.5c0.1-0.3,0.2-0.5,0.2-0.8c0.1-0.5,0.2-0.9,0.3-1.5c0-0.2,0.1-0.4,0.1-0.6l-8.6-47.6l-45.9-20.7
		c0,0.2,0.1,0.4,0.1,0.6c0.1,0.3,0.1,0.5,0.2,0.7c0,0.1,0.1,0.2,0.1,0.3l44.5,20.1L291.7,472.5z"/>
	<path class="st0" d="M292.7,467.2c0.1-0.4,0.1-0.8,0.1-1.3l-8.1-45l-47.1-21.3c0,0.1,0,0.2,0,0.3c0,0.2,0.1,0.4,0.1,0.6
		c0,0.2,0.1,0.4,0.1,0.6c0,0,0,0,0,0l45.9,20.7l8.6,47.6c0-0.3,0.1-0.6,0.1-0.9C292.5,468.2,292.6,467.7,292.7,467.2z"/>
	<path class="st0" d="M237.3,395.8c0,0,0,0.1,0,0.1c0,0,0,0,0,0l29.1-15.6c0,0,0,0,0-0.1c-0.1-0.2-0.2-0.4-0.3-0.6
		c0-0.1-0.1-0.1-0.1-0.2L237.3,395c0,0.1,0,0.2,0,0.3C237.2,395.5,237.2,395.6,237.3,395.8z"/>
	<path class="st0" d="M293,464.3c0-0.5,0.1-1,0.1-1.4c0-0.4,0.1-0.7,0.1-1.1l-7.6-41.9l-48.1-21.7c0,0,0,0,0,0c0,0.2,0,0.4,0.1,0.6
		c0,0.2,0,0.4,0.1,0.6c0,0.1,0,0.2,0,0.3l47.1,21.3l8.1,45c0-0.1,0-0.1,0-0.2C292.9,465.3,292.9,464.8,293,464.3z"/>
	<path class="st0" d="M237.3,396.7c0,0.1,0,0.2,0,0.3l25.5-13.7c0.1-0.1,0.1-0.3,0.2-0.3c0,0,0-0.1,0-0.1c0-0.1,0.1-0.1,0.2-0.2
		c0.1-0.1,0.2-0.1,0.3-0.2c0.1,0,0.2-0.1,0.3-0.1c0.1,0,0.2-0.1,0.3-0.1c0.1,0,0.2-0.1,0.3-0.1c0.1,0,0.2-0.1,0.3-0.1
		c0.1,0,0.1,0,0.2-0.1c0.1,0,0.2-0.1,0.4-0.1c0.1,0,0.2-0.1,0.4-0.1c0.1,0,0.1,0,0.2,0l1.2-0.7c-0.1-0.1-0.1-0.2-0.2-0.3
		c-0.1-0.2-0.2-0.3-0.3-0.5L237.3,396C237.3,396.1,237.3,396.3,237.3,396.7z"/>
	<path class="st0" d="M266.3,381.6c0.2,0,0.3-0.1,0.4-0.1c0.2-0.1,0.4-0.1,0.4-0.1c0,0,0-0.1-0.1-0.1c0-0.1-0.1-0.1-0.1-0.2
		l-1.2,0.7c0.1,0,0.1,0,0.2-0.1C266,381.7,266.1,381.7,266.3,381.6z"/>
	<path class="st0" d="M237.4,397.7c0,0.2,0,0.3,0,0.5l48.1,21.7l7.6,41.9c0-0.1,0-0.2,0-0.3c0-0.5,0.1-0.9,0.1-1.4
		c0-0.5,0-1,0.1-1.3c0-0.7,0-1.1,0-1.3c0-0.1,0-0.1,0-0.1c0-0.1,0-0.2,0-0.3l-6.9-38.1l-47.9-21.6l24.2-13c-0.1-0.2-0.1-0.4,0-0.6
		c0-0.2,0.1-0.3,0.2-0.4c0,0,0,0,0,0L237.4,397c0,0.1,0,0.1,0,0.2C237.4,397.3,237.4,397.5,237.4,397.7z"/>
	<path class="st0" d="M293.3,454.7c0-0.4-0.1-0.9-0.1-1.4c0-0.4-0.1-0.9-0.1-1.3c0-0.4-0.1-0.9-0.1-1.3c0-0.4-0.1-0.9-0.1-1.3
		c0-0.4-0.1-0.9-0.2-1.3c-0.1-0.4-0.1-0.8-0.2-1.3c-0.1-0.4-0.1-0.8-0.2-1.2l-1.5-8c0-0.1,0-0.1,0-0.2c-0.1-0.4-0.2-0.7-0.2-1.1
		c-0.1-0.4-0.2-0.7-0.2-1.1c-0.1-0.3-0.2-0.7-0.2-1c-0.1-0.3-0.2-0.7-0.2-1c-0.1-0.3-0.2-0.7-0.2-1c-0.1-0.3-0.2-0.7-0.2-1
		c-0.1-0.3-0.2-0.6-0.2-1l0.1,0.1c0.1-0.1,0.2-0.2,0.2-0.4c0,0,0-0.1,0-0.1l-2.1-11.8l-46.5-21l23.7-12.7c-0.1,0-0.1,0-0.2,0.1
		c-0.1,0-0.2,0.1-0.3,0.1c-0.1,0-0.2,0.1-0.3,0.1c-0.1,0-0.2,0-0.3,0.1c-0.1,0-0.3,0-0.4,0c-0.2,0-0.3-0.1-0.4-0.2l-24.2,13
		l47.9,21.6l6.9,38.1c0-0.3,0-0.7,0-1C293.3,455.6,293.3,455.2,293.3,454.7z"/>
	<path class="st0" d="M265.6,383.7c-0.1,0-0.2,0.1-0.2,0.1c-0.1,0-0.2,0.1-0.2,0.1c-0.1,0-0.2,0.1-0.2,0.1c-0.1,0.1-0.2,0.1-0.2,0.1
		l1.2-0.6C265.7,383.6,265.7,383.7,265.6,383.7z"/>
	<path class="st0" d="M287.3,418l2.1,11.8c0-0.1,0.1-0.2,0.1-0.4c0-0.2,0-0.4,0-0.6c0-0.2,0-0.4,0-0.6c0-0.2,0-0.4,0-0.6
		c0-0.2,0-0.4,0-0.6c0-0.2,0-0.4,0-0.6c0-0.2,0-0.4,0-0.6c0-0.2,0-0.4-0.1-0.6c0-0.2,0-0.4-0.1-0.6c0-0.2,0-0.4-0.1-0.6
		c0-0.2,0-0.4-0.1-0.5c0-0.2,0-0.4-0.1-0.5c0-0.2-0.1-0.4-0.1-0.5c0-0.1,0-0.2,0-0.2s0,0,0.1,0l-1-5.3l-45.1-20.4l25.1-13.5
		c0,0-0.1,0-0.1,0c-0.2,0-0.4-0.1-0.6,0c-0.1,0-0.3,0-0.4,0.1c-0.1,0-0.2,0.1-0.4,0.1c-0.1,0-0.2,0.1-0.3,0.1
		c-0.1,0.1-0.3,0.1-0.4,0.2c0,0,0,0,0,0l-1.2,0.6c0,0,0,0,0,0c0,0-0.1,0-0.1,0c0,0,0,0,0,0L240.9,397L287.3,418z"/>
	<path class="st0" d="M292.1,444.4c-0.1-0.4-0.1-0.8-0.2-1.2c-0.1-0.4-0.1-0.8-0.2-1.2c-0.1-0.4-0.1-0.8-0.2-1.2
		c-0.1-0.4-0.1-0.8-0.2-1.1c-0.1-0.4-0.1-0.8-0.2-1.1c-0.1-0.3-0.1-0.6-0.2-0.9l1.5,8c0,0,0,0,0,0
		C292.3,445.2,292.2,444.8,292.1,444.4z"/>
	<path class="st0" d="M289.8,422.5c0.1,0,0.2,0.1,0.4,0.1l-0.7-4.1c-0.5-0.7-1-1.4-1.5-2c-0.3-0.4-0.6-0.8-0.9-1.2l-41.7-18.8
		l23.7-12.7c0,0,0,0-0.1-0.1c-0.2-0.2-0.4-0.3-0.7-0.4l-25.1,13.5l45.1,20.4l1,5.3c0,0,0.1,0,0.2,0
		C289.5,422.4,289.6,422.5,289.8,422.5z"/>
	<path class="st0" d="M290.7,422.7c0.1,0,0.3,0.1,0.4,0.1c0,0,0,0,0,0l-0.5-2.7c-0.3-0.4-0.7-0.9-1.1-1.4c0-0.1-0.1-0.1-0.1-0.2
		l0.7,4.1c0,0,0.1,0,0.1,0C290.4,422.6,290.5,422.7,290.7,422.7z"/>
	<path class="st0" d="M287,415.3c-0.2-0.3-0.4-0.6-0.7-0.9c-0.3-0.3-0.5-0.7-0.7-1l-38.2-17.3l22-11.8c0-0.1-0.1-0.1-0.1-0.1
		c0,0,0-0.1-0.1-0.1c-0.1-0.2-0.2-0.3-0.3-0.4l-23.7,12.7L287,415.3z"/>
	<path class="st0" d="M291.9,423c0.1,0,0.1,0,0.2,0l-0.3-1.5c-0.1-0.1-0.2-0.2-0.3-0.3c-0.3-0.4-0.6-0.8-0.9-1.2l0.5,2.7
		c0.1,0,0.3,0.1,0.4,0.1C291.7,422.9,291.8,423,291.9,423z"/>
	<path class="st0" d="M284.2,411.7l-34.9-15.7l20.4-10.9c-0.1-0.1-0.2-0.2-0.2-0.3c-0.1-0.1-0.2-0.2-0.2-0.3l-22,11.8l38.2,17.3
		c-0.3-0.3-0.5-0.6-0.7-0.9C284.6,412.2,284.4,411.9,284.2,411.7z"/>
	<path class="st0" d="M292.3,423.1c0.2,0.1,0.4,0.1,0.6,0.2c0,0,0.1,0,0.1,0l-0.1-0.3c0,0-0.1-0.1-0.1-0.1c-0.1-0.1-0.2-0.2-0.2-0.3
		c-0.1-0.1-0.2-0.2-0.2-0.3c-0.2-0.2-0.4-0.4-0.5-0.7l0.3,1.5C292.2,423.1,292.2,423.1,292.3,423.1z"/>
	<path class="st0" d="M284.1,411.4c0,0,0.1-0.1,0.1-0.1c0,0,0.1-0.1,0.1-0.2c0-0.1,0-0.1,0-0.2c0-0.1,0-0.1,0-0.2c0,0,0-0.1,0-0.1
		l-33-14.9l18.8-10.1c-0.1-0.1-0.2-0.3-0.3-0.4c0-0.1-0.1-0.1-0.1-0.2l-20.4,10.9l34.9,15.7C284.1,411.5,284,411.4,284.1,411.4
		C284.1,411.4,284.1,411.4,284.1,411.4z"/>
	<path class="st0" d="M293.6,423.6C293.6,423.6,293.6,423.6,293.6,423.6C293.6,423.6,293.6,423.6,293.6,423.6c0-0.1-0.1-0.1-0.2-0.2
		C293.5,423.5,293.6,423.6,293.6,423.6z"/>
	<path class="st0" d="M284.4,410.2c0-0.1,0-0.2,0-0.2c0-0.1,0-0.2,0-0.2c0-0.1,0-0.2,0-0.3c0,0,0,0,0,0l-31-14l17.3-9.3
		c0,0,0-0.1-0.1-0.1c-0.1-0.2-0.2-0.3-0.3-0.4c0,0,0,0,0,0l-18.8,10.1l33,14.9c0,0,0-0.1,0-0.1C284.4,410.4,284.4,410.3,284.4,410.2
		z"/>
	<path class="st0" d="M293.3,423.4C293.3,423.4,293.4,423.4,293.3,423.4C293.4,423.4,293.3,423.4,293.3,423.4
		c-0.1-0.1-0.2-0.2-0.3-0.3c0,0-0.1-0.1-0.1-0.2l0.1,0.3c0,0,0.1,0,0.1,0C293.2,423.4,293.3,423.4,293.3,423.4z"/>
	<path class="st0" d="M284.3,409.4c0-0.1,0-0.1,0-0.2c0-0.1,0-0.2,0-0.3c0-0.1,0-0.2-0.1-0.3c0-0.1,0-0.2-0.1-0.2
		c0-0.1,0-0.1-0.1-0.2l-2.5-1.1l0,0c0,0,0,0,0,0.1c0,0,0,0,0-0.1c0,0,0,0,0-0.1l-26.3-11.9l15.8-8.5c0-0.1-0.1-0.1-0.1-0.2
		c-0.1-0.1-0.2-0.2-0.2-0.3l-17.3,9.3L284.3,409.4z"/>
	<path class="st0" d="M281.3,406.8c0-0.1-0.1-0.1-0.1-0.2c0-0.1-0.1-0.1-0.1-0.2c0-0.1-0.1-0.1-0.1-0.2c0-0.1-0.1-0.1-0.1-0.2
		c0-0.1-0.1-0.1-0.1-0.2c0,0,0-0.1-0.1-0.2L256.9,395l14.4-7.7c-0.1-0.1-0.2-0.2-0.2-0.3c0-0.1-0.1-0.1-0.1-0.2l-15.8,8.5l26.3,11.9
		c0,0,0-0.1,0-0.1C281.4,406.9,281.4,406.9,281.3,406.8z"/>
	<path class="st0" d="M284,408c0-0.1,0-0.2-0.1-0.2c0-0.1,0-0.2-0.1-0.2c0,0,0-0.1,0-0.1c0,0,0-0.1,0-0.1c0,0,0-0.1,0-0.1
		c0,0,0,0,0-0.1l-2.2-1l0,1.1l2.5,1.1c0,0,0,0,0,0C284,408.1,284,408.1,284,408z"/>
	<path class="st0" d="M283.7,406.9c0,0,0-0.1,0-0.1c0,0,0-0.1,0-0.1c0,0,0-0.1,0-0.1c0,0,0-0.1,0-0.1c0,0,0-0.1,0-0.1
		c0,0,0-0.1,0-0.1c0,0,0-0.1,0-0.1c0,0,0-0.1,0-0.1c0,0,0-0.1,0-0.1c0,0,0-0.1,0-0.1c0,0,0,0,0-0.1c0,0,0,0,0-0.1l-2-0.9
		c0,0.1,0,0.2,0.1,0.3c0,0.2,0.1,0.3,0.1,0.4l0,0.3l2.2,1c0,0,0,0,0,0C283.7,407,283.7,406.9,283.7,406.9z"/>
	<path class="st0" d="M280.8,405.8C280.8,405.7,280.8,405.7,280.8,405.8l0-0.2l-0.1,0c0,0,0,0,0-0.1c0,0,0,0,0-0.1c0,0,0,0,0-0.1
		c0,0,0,0,0-0.1c0,0,0,0,0-0.1c0,0,0,0,0-0.1c0,0,0,0,0-0.1c0,0,0,0,0-0.1c0,0,0,0,0-0.1c0,0,0,0,0-0.1c0,0,0,0,0-0.1c0,0,0,0,0-0.1
		c0,0,0,0,0,0c0,0,0,0,0,0c0,0,0,0,0,0c0,0,0,0,0,0c0,0,0,0,0,0c0,0,0,0,0,0c0,0,0,0,0,0c0,0,0,0,0,0c0,0,0,0,0,0l-21.5-9.7l13-7
		c0,0,0-0.1-0.1-0.1c-0.1-0.1-0.2-0.2-0.2-0.4c0,0,0,0,0,0l-14.4,7.7L280.8,405.8z"/>
	<path class="st0" d="M283.3,405.8C283.3,405.8,283.3,405.8,283.3,405.8c0-0.1,0-0.1,0-0.1c0,0,0,0,0-0.1c0,0,0,0,0-0.1
		c0,0,0,0,0-0.1c0,0,0,0,0-0.1c0,0,0,0,0-0.1c0,0,0,0,0-0.1c0,0,0,0,0-0.1c0,0,0,0,0-0.1c0,0,0,0,0,0c0,0,0,0,0,0c0,0,0,0,0,0
		c0,0,0,0,0,0c0,0,0,0,0,0c0,0,0,0,0,0c0,0,0,0,0,0c0,0,0,0,0,0c0,0,0,0,0,0c0,0,0-0.1,0-0.1l-1.9-0.8c0,0,0,0,0,0c0,0,0,0,0,0
		c0,0,0,0,0,0c0,0,0,0,0,0c0,0,0,0,0,0c0,0,0,0,0,0c0,0,0,0,0,0c0,0,0,0,0,0s0,0,0,0c0,0,0,0,0,0c0,0,0,0,0,0c0,0,0,0,0,0
		c0,0,0,0,0,0c0,0,0,0,0,0c0,0,0,0,0,0.1c0,0,0,0,0,0.1c0,0,0,0,0,0.1c0,0,0,0,0,0.1c0,0,0,0,0,0.1c0,0,0,0,0,0.1c0,0,0,0,0,0.1
		c0,0,0,0,0,0.1c0,0,0,0,0,0c0,0,0,0.1,0,0.1L283.3,405.8C283.4,405.9,283.4,405.9,283.3,405.8C283.4,405.8,283.4,405.8,283.3,405.8
		z"/>
	<path class="st0" d="M280.2,404.4C280.2,404.4,280.2,404.4,280.2,404.4C280.2,404.4,280.1,404.3,280.2,404.4c0-0.1,0-0.1-0.1-0.1
		c0,0,0,0,0,0c0,0,0,0,0,0c0,0,0,0,0,0c0,0,0,0,0,0c0,0,0,0,0,0c0,0,0,0,0,0c0,0,0,0,0,0c0,0,0,0,0-0.1c0,0,0,0,0-0.1c0,0,0,0,0-0.1
		c0,0,0,0,0-0.1c0,0,0,0,0-0.1c0,0,0,0,0-0.1c0,0,0,0,0-0.1c0,0,0,0,0-0.1c0,0,0,0,0-0.1c0,0,0,0,0-0.1c0,0,0,0,0-0.1c0,0,0,0,0-0.1
		c0,0,0,0,0-0.1l-19.2-8.7l11.6-6.2c-0.1-0.1-0.1-0.2-0.2-0.3c-0.1-0.1-0.1-0.2-0.2-0.2l-13,7L280.2,404.4
		C280.2,404.4,280.2,404.4,280.2,404.4C280.2,404.4,280.2,404.4,280.2,404.4z"/>
	<path class="st0" d="M282.6,403.6l-1.7-0.8c0,0,0,0,0,0c0,0,0,0,0,0.1c0,0,0,0,0,0.1c0,0,0,0,0,0.1c0,0,0,0,0,0.1c0,0,0,0,0,0.1
		c0,0,0,0,0,0.1c0,0,0,0,0,0.1c0,0,0,0,0,0c0,0,0,0,0,0c0,0,0,0,0,0c0,0,0,0,0,0c0,0.1,0.1,0.3,0.1,0.4c0,0,0,0,0,0c0,0,0,0,0,0
		l1.9,0.8C282.9,404.3,282.7,403.9,282.6,403.6z"/>
	<path class="st0" d="M279.5,403.1C279.5,403.1,279.5,403,279.5,403.1c-0.1-0.1-0.1-0.1-0.1-0.2l0-0.1l-0.1,0c0,0,0-0.1-0.1-0.1
		c0,0,0-0.1-0.1-0.1c0,0,0-0.1-0.1-0.1c0,0,0-0.1,0-0.1c0,0,0-0.1,0-0.1c0,0,0-0.1,0-0.1c0,0,0-0.1,0-0.1c0,0,0-0.1,0-0.1
		c0,0,0-0.1,0-0.1c0,0,0,0,0,0l-16.9-7.6l10.3-5.5c0,0,0-0.1-0.1-0.1c-0.1-0.1-0.1-0.2-0.2-0.3c0,0,0,0,0-0.1l-11.6,6.2L279.5,403.1
		C279.6,403.2,279.6,403.2,279.5,403.1C279.6,403.1,279.5,403.1,279.5,403.1z"/>
	<path class="st0" d="M282.2,402.5l-1.5-0.7c0,0,0,0,0,0.1c0,0,0,0,0,0c0,0,0,0,0,0c0,0,0,0,0,0c0,0,0,0,0,0c0,0,0,0,0,0
		c0,0,0,0,0,0c0,0,0,0,0,0c0,0,0,0,0,0c0,0,0,0,0,0c0,0,0,0,0,0c0,0,0,0,0,0.1c0,0,0,0,0,0.1c0,0,0,0,0,0.1c0,0,0,0,0,0.1
		c0,0,0,0,0,0.1c0,0,0,0.1,0,0.1c0,0,0,0,0,0.1c0,0,0,0,0,0.1c0,0,0,0,0,0l1.7,0.8C282.4,403.2,282.3,402.8,282.2,402.5z"/>
	<path class="st0" d="M278.9,401.8C278.9,401.8,278.9,401.8,278.9,401.8c-0.1-0.1-0.1-0.1-0.1-0.1c0,0,0,0,0-0.1c0,0,0,0,0-0.1
		c0,0,0,0,0-0.1c0,0,0,0,0-0.1c0,0,0,0,0,0c0,0,0,0,0,0c0,0,0,0,0,0c0,0,0,0,0,0c0,0,0,0,0-0.1c0,0,0,0,0-0.1c0,0,0,0,0-0.1
		c0,0,0,0,0-0.1c0,0,0,0,0-0.1c0,0,0,0,0-0.1c0,0,0,0,0-0.1c0,0,0,0,0-0.1c0,0,0,0,0-0.1l-14.7-6.7l9-4.8c0,0,0,0,0,0
		c-0.1-0.1-0.1-0.2-0.2-0.3c0-0.1-0.1-0.1-0.1-0.2l-10.3,5.5l16.9,7.6C278.9,401.9,278.9,401.9,278.9,401.8
		C278.9,401.9,278.9,401.8,278.9,401.8z"/>
	<path class="st0" d="M281.8,401.4l-1.2-0.6c0,0,0,0,0,0c0,0,0,0,0,0.1c0,0,0,0,0,0c0,0,0,0,0,0c0,0,0,0,0,0c0,0,0,0,0,0
		c0,0,0,0,0,0c0,0,0,0,0,0c0,0,0,0,0,0c0,0,0,0,0,0c0,0,0,0,0,0c0,0,0,0,0,0c0,0,0,0,0,0c0,0.1,0,0.3,0,0.4l1.5,0.7
		c-0.2-0.5-0.3-0.8-0.3-0.8C281.9,401.6,281.9,401.5,281.8,401.4z"/>
	<path class="st0" d="M278.3,400.8C278.3,400.7,278.3,400.7,278.3,400.8C278.3,400.7,278.3,400.7,278.3,400.8
		c-0.1-0.1-0.1-0.1-0.1-0.1c0,0,0,0,0-0.1c0,0,0,0,0-0.1c0,0,0,0,0-0.1c0,0,0-0.1,0-0.1c0,0,0-0.1,0-0.1c0,0,0-0.1,0-0.1
		c0,0,0-0.1,0-0.1c0,0,0-0.1,0-0.1c0,0,0-0.1,0-0.1c0,0,0-0.1,0-0.1c0,0,0-0.1,0-0.1c0,0,0-0.1,0-0.1c0,0,0,0,0,0l-12.6-5.7l7.7-4.1
		c0-0.1-0.1-0.2-0.1-0.2c0-0.1-0.1-0.2-0.1-0.3l-9,4.8L278.3,400.8z"/>
	<path class="st0" d="M277.7,399.4c0,0,0-0.1-0.1-0.1c0,0,0-0.1-0.1-0.1c0,0,0-0.1-0.1-0.1c0,0,0-0.1-0.1-0.1c0,0,0-0.1-0.1-0.1
		c-0.1-0.1-0.1-0.2-0.2-0.4l-10.5-4.8l6.4-3.4c0-0.1-0.1-0.1-0.1-0.2c0-0.1-0.1-0.2-0.1-0.2c0,0,0,0,0,0l-7.7,4.1l12.6,5.7
		c0,0,0-0.1,0-0.1C277.7,399.5,277.7,399.4,277.7,399.4z"/>
	<path class="st0" d="M282,401.2l-0.3-0.5c0,0,0-0.1,0-0.1l-1.3-0.6c0,0,0,0.1,0,0.1c0,0.1,0.1,0.2,0.1,0.3c0,0,0,0.1,0,0.1
		c0,0,0,0,0,0.1s0,0,0,0.1c0,0,0,0,0,0.1c0,0,0,0,0,0.1c0,0,0,0,0,0.1c0,0,0,0,0,0.1c0,0,0,0,0,0.1c0,0,0,0,0,0l1.2,0.6
		c0-0.1,0-0.2,0-0.2L282,401.2z"/>
	<path class="st0" d="M281.5,399.6l-1.4-0.6c0,0,0,0,0,0c0,0.1,0.1,0.2,0.1,0.4c0,0.1,0.1,0.2,0.1,0.3c0,0.1,0,0.2,0.1,0.2l1.3,0.6
		C281.6,400.2,281.6,399.9,281.5,399.6z"/>
	<path class="st0" d="M268.1,393.5l5.1-2.7c0,0,0-0.1,0-0.1c0-0.1,0-0.1-0.1-0.2c0-0.1,0-0.1-0.1-0.2c0,0,0,0,0,0l-6.4,3.4l10.5,4.8
		c-0.2-0.4-0.4-0.8-0.6-1.1L268.1,393.5z"/>
	<path class="st0" d="M281.5,399.5C281.5,399.5,281.5,399.5,281.5,399.5C281.5,399.4,281.5,399.4,281.5,399.5c0-0.1,0-0.1,0-0.1
		c0,0,0,0,0-0.1c0,0,0,0,0-0.1c0,0,0,0,0-0.1c0,0,0,0,0-0.1c0,0,0,0,0-0.1c0,0,0,0,0-0.1c0,0,0,0,0-0.1c0,0,0,0,0-0.1c0,0,0,0,0-0.1
		c0,0,0,0,0-0.1c0,0,0,0,0-0.1c0,0,0,0,0,0l-1.5-0.7l0.1,0.2c0,0.1,0.1,0.3,0.1,0.4c0,0.1,0.1,0.2,0.1,0.4L281.5,399.5
		C281.5,399.6,281.5,399.5,281.5,399.5C281.5,399.5,281.5,399.5,281.5,399.5z"/>
	<path class="st0" d="M269.5,393.3l4.3-2.3c0,0,0,0,0,0c-0.1,0-0.2,0-0.3,0c-0.2,0-0.3,0-0.3,0c0-0.1,0-0.1,0-0.2c0,0,0-0.1,0-0.1
		l-5.1,2.7l8.5,3.8c-0.2-0.4-0.4-0.7-0.5-1.1L269.5,393.3z"/>
	<path class="st0" d="M276.1,396.3c-0.2-0.4-0.4-0.8-0.5-1l-4.7-2.1l3.9-2.1c0,0,0,0-0.1,0c-0.1,0-0.2,0-0.4,0c-0.1,0-0.2,0-0.3,0
		c-0.1,0-0.2,0-0.3,0l-4.3,2.3L276.1,396.3z"/>
	<path class="st0" d="M281.2,398.5C281.2,398.5,281.2,398.4,281.2,398.5c0-0.1,0-0.1,0-0.2c0,0,0-0.1,0-0.1c0,0,0-0.1,0-0.1
		c0,0,0-0.1,0-0.1c0,0,0-0.1,0-0.1c0,0,0-0.1,0-0.1c0,0,0-0.1,0-0.1c0,0,0,0,0-0.1l-1.5-0.7c0,0,0,0,0,0c0,0,0,0.1,0,0.1
		c0,0,0,0.1,0,0.1c0,0,0,0.1,0,0.1c0,0,0,0.1,0,0.1c0,0,0,0.1,0,0.1c0,0,0,0.1,0,0.1c0,0,0,0.1,0,0.1c0,0,0,0.1,0,0.1
		c0,0,0,0.1,0,0.1c0,0,0,0.1,0,0.1l0,0l0,0.1l1.5,0.7C281.2,398.6,281.2,398.6,281.2,398.5C281.2,398.6,281.2,398.5,281.2,398.5z"/>
	<path class="st0" d="M275.5,394.9c0,0,0.1,0,0.1,0c0,0,0.1,0,0.1,0c0,0,0.1,0,0.1,0c0,0,0.1,0,0.1,0c0,0,0.1,0,0.1,0
		c0,0,0.1,0,0.1,0c0,0,0,0,0,0l-4.1-1.8l3.5-1.9c0,0-0.1,0-0.1,0c-0.1,0-0.3,0-0.4,0c-0.1,0-0.2,0-0.3,0l-3.9,2.1l4.7,2.1
		c-0.1-0.2-0.2-0.3-0.2-0.3S275.4,394.9,275.5,394.9z"/>
	<path class="st0" d="M280.9,397.6c0,0,0-0.1,0-0.1c0,0,0-0.1,0-0.1c0,0,0-0.1,0-0.1c0,0,0-0.1,0-0.1c0,0,0-0.1-0.1-0.1
		c0,0,0-0.1-0.1-0.1c0,0,0,0,0,0l-1.5-0.7c0,0,0,0.1,0.1,0.1c0,0,0,0.1,0,0.1c0,0,0,0.1,0,0.1c0,0,0,0.1,0,0.1c0,0,0,0.1,0,0.1
		c0,0,0,0.1,0,0.1c0,0,0,0.1,0,0.1c0,0,0,0.1,0,0.1l1.5,0.7c0,0,0,0,0,0C280.9,397.6,280.9,397.6,280.9,397.6z"/>
	<path class="st0" d="M276.5,394.8c0,0,0.1,0,0.1,0c0,0,0.1,0,0.1,0c0,0,0.1,0,0.1,0c0.1,0,0.1,0,0.2,0c0.1,0,0.1,0,0.2,0
		c0.1,0,0.1,0,0.2,0c0.1,0,0.1,0,0.2,0c0,0,0,0,0,0l-3.9-1.8l2.9-1.6c-0.1,0-0.2-0.1-0.3-0.1c-0.1,0-0.3,0-0.4-0.1l-3.5,1.9l4.1,1.8
		c0,0,0.1,0,0.1,0C276.4,394.8,276.4,394.8,276.5,394.8z"/>
	<path class="st0" d="M280.5,396.7c0,0,0-0.1-0.1-0.1c0-0.1,0-0.1-0.1-0.2c0-0.1,0-0.1-0.1-0.2c0-0.1-0.1-0.1-0.1-0.2
		c0-0.1-0.1-0.1-0.1-0.2c0,0,0,0,0,0l-1.4-0.6c0,0,0,0,0,0c0,0.1,0,0.1,0.1,0.2c0,0.1,0,0.1,0.1,0.2c0,0,0,0.1,0.1,0.1
		c0,0,0,0.1,0.1,0.1c0,0,0,0.1,0.1,0.1c0,0,0,0.1,0.1,0.1c0,0,0,0,0,0l1.5,0.7C280.6,396.7,280.5,396.7,280.5,396.7z"/>
	<path class="st0" d="M280,395.5c0-0.1-0.1-0.1-0.1-0.2c0-0.1-0.1-0.1-0.1-0.2c0-0.1-0.1-0.1-0.1-0.2c0,0,0,0,0,0l-4.9-2.2l2.3-1.2
		c-0.1,0-0.2-0.1-0.3-0.1c-0.1,0-0.2,0-0.3-0.1l-2.9,1.6l3.9,1.8c0,0,0.1,0,0.1,0c0.1,0,0.1,0,0.2,0c0.1,0,0.1,0,0.2,0
		c0.1,0,0.1,0,0.1-0.1c0,0,0.1,0,0.1-0.1c0,0,0.1-0.1,0.1-0.1l0.1,0c0,0,0,0.1,0.1,0.2c0,0.1,0,0.1,0.1,0.2c0,0.1,0,0.1,0.1,0.2
		c0,0.1,0,0.1,0.1,0.2c0,0,0,0.1,0.1,0.1l1.4,0.6c0,0,0-0.1-0.1-0.1C280,395.6,280,395.6,280,395.5z"/>
	<path class="st0" d="M279.7,394.9c0-0.1-0.1-0.1-0.1-0.2c0-0.1-0.1-0.2-0.1-0.2c0-0.1-0.1-0.2-0.1-0.2c-0.1-0.1-0.1-0.2-0.2-0.3
		c0,0,0,0,0,0l-3.1-1.4l1.6-0.9c-0.2-0.1-0.3-0.2-0.5-0.2l-2.3,1.2L279.7,394.9z"/>
	<path class="st0" d="M278.7,393.4C278.7,393.4,278.7,393.3,278.7,393.4c0-0.1,0-0.2,0-0.2c0,0,0-0.1,0-0.1l-1.5-0.7l0.8-0.5
		c-0.1-0.1-0.3-0.2-0.4-0.3l-1.6,0.9l3.1,1.4c-0.1-0.1-0.1-0.2-0.2-0.2C278.8,393.5,278.8,393.4,278.7,393.4z"/>
	<path class="st0" d="M278.7,393.1C278.7,393,278.7,393,278.7,393.1c0-0.2,0-0.2-0.1-0.3c0-0.1-0.1-0.2-0.1-0.3
		c0-0.1-0.1-0.2-0.2-0.3l0,0l0,0c0,0,0,0,0-0.1c-0.1-0.1-0.2-0.2-0.3-0.2l-0.8,0.5L278.7,393.1z"/>
	<path class="st0" d="M278.3,392.2L278.3,392.2C278.3,392.2,278.3,392.2,278.3,392.2L278.3,392.2z"/>
</g>
</svg>
