<?xml version="1.0" encoding="utf-8"?>
<!-- Generator: Adobe Illustrator 22.0.1, SVG Export Plug-In . SVG Version: 6.00 Build 0)  -->
<svg version="1.1" id="レイヤー_1" xmlns="http://www.w3.org/2000/svg" xmlns:xlink="http://www.w3.org/1999/xlink" x="0px"
	 y="0px" viewBox="0 0 640 640" style="enable-background:new 0 0 640 640;" xml:space="preserve">
<style type="text/css">
	.st0{fill:none;stroke:#FFFFFF;stroke-width:0.1886;stroke-miterlimit:10;}
</style>
<g>
	<path class="st0" d="M314.7,465c-0.2-0.1-0.4-0.1-0.4-0.2l1.7,1.4l0.4-0.7C315.7,465.3,315.1,465.1,314.7,465z"/>
	<path class="st0" d="M318.4,467.5c0,0,0.3,0.5,0.8,0.9c0.1,0.1,0.3,0.2,0.4,0.2l1.3-2.2c-0.6-0.1-1.2-0.2-1.7-0.4
		c-0.2,0-0.3-0.1-0.5-0.1l-1,1.7C317.9,467.6,318.2,467.6,318.4,467.5z"/>
	<path class="st0" d="M334.4,446.7c-0.2,0.2-0.4,0.3-0.6,0.5c-0.2,0.2-0.4,0.4-0.6,0.5c-0.2,0.2-0.4,0.4-0.5,0.6
		c-0.2,0.2-0.3,0.4-0.5,0.6c-0.2,0.2-0.3,0.5-0.5,0.7c-0.1,0.3-0.3,0.5-0.4,0.8c-0.1,0.3-0.2,0.6-0.3,0.9c-0.1,0.3-0.1,0.7,0,1.1
		c0,0.1,0,0.3,0.1,0.4l3.8-6.6C334.8,446.4,334.6,446.6,334.4,446.7z"/>
	<path class="st0" d="M320.7,468.3c0,0,0.1,0.1,0.4,0.3c0.2,0.1,0.4,0.3,0.6,0.4l1.3-2.2c-0.7-0.1-1.4-0.3-2.1-0.4l-1.3,2.2
		C319.9,468.7,320.3,468.7,320.7,468.3z"/>
	<path class="st0" d="M332.2,455l9.2-15.8c-0.7,0.1-1.3,0.4-1.8,0.8c-0.3,0.2-0.6,0.5-0.9,0.8c-0.2,0.2-0.4,0.5-0.6,0.7
		c-0.2,0.2-0.3,0.5-0.5,0.7c-0.1,0.2-0.3,0.5-0.4,0.7c-0.1,0.2-0.2,0.4-0.3,0.7c-0.1,0.2-0.2,0.4-0.3,0.6c-0.1,0.2-0.2,0.4-0.3,0.6
		c-0.1,0.3-0.2,0.5-0.2,0.6c-0.1,0.2-0.1,0.3-0.1,0.3s-0.1,0.1-0.4,0.2c-0.2,0.1-0.4,0.3-0.6,0.4c0,0,0,0-0.1,0l-3.8,6.6
		c0.1,0.3,0.2,0.6,0.3,0.9C331.6,454.2,331.9,454.6,332.2,455z"/>
	<path class="st0" d="M401,525.3c0.4,0.2,0.8,0.5,1.2,0.7c0.7,0.4,1.3,0.8,2,1.1c0.6,0.4,1.3,0.7,1.9,1c0.6,0.3,1.2,0.6,1.8,1
		c0.4,0.2,0.7,0.4,1.1,0.6l-4.3-4.8L401,525.3z"/>
	<path class="st0" d="M322.4,469.4c0.5,0.2,1.1,0.1,1.4-0.6c0,0,0.1,0.1,0.2,0.2l1-1.8c-0.1,0-0.2,0-0.3-0.1
		c-0.6-0.1-1.2-0.2-1.8-0.3c0,0,0,0,0,0l-1.3,2.2C321.9,469.2,322.2,469.3,322.4,469.4z"/>
	<path class="st0" d="M324.5,469.4c0.3,0.2,0.8,0.5,1.3,0.6l1.3-2.3c-0.2,0-0.4-0.1-0.6-0.1c-0.5-0.1-0.9-0.2-1.4-0.3l-1,1.8
		C324.1,469.1,324.3,469.3,324.5,469.4z"/>
	<path class="st0" d="M333.7,456.3l9.9-17c-0.4-0.2-0.9-0.2-1.3-0.3l-0.7,0c-0.1,0-0.1,0-0.2,0l-9.2,15.8
		C332.6,455.4,333.1,455.9,333.7,456.3z"/>
	<path class="st0" d="M411.1,530.8c0.5,0.3,1,0.5,1.6,0.8c0.5,0.2,1,0.5,1.5,0.7c0.1,0.1,0.2,0.1,0.3,0.2l-9.4-10.5l-8,1
		c0.3,0.2,0.5,0.3,0.8,0.5c0.7,0.4,1.4,0.9,2.2,1.3c0.3,0.2,0.6,0.4,0.9,0.5l3.5-0.5l4.3,4.8c0.2,0.1,0.4,0.2,0.6,0.3
		C410,530.3,410.6,530.6,411.1,530.8z"/>
	<path class="st0" d="M385.7,523.9C385.7,523.9,385.8,523.9,385.7,523.9C385.8,523.9,385.8,523.9,385.7,523.9c0-0.1,0-0.2,0-0.3
		C385.7,523.7,385.7,523.8,385.7,523.9z"/>
	<path class="st0" d="M392.3,521.2c0.6,0.2,1.2,0.4,1.6,0.4l-0.6-1l-1.8,0.2C391.8,521,392.1,521.1,392.3,521.2z"/>
	<path class="st0" d="M328.1,469.1l0.3,0l0.6-1.1c-0.3-0.1-0.6-0.1-0.9-0.2c-0.3-0.1-0.7-0.1-1.1-0.2l-1.3,2.3c0,0,0.1,0,0.1,0
		C326.5,470.1,327.3,469.9,328.1,469.1z"/>
	<path class="st0" d="M345.2,440.2c-0.3-0.2-0.5-0.4-0.8-0.5c-0.3-0.2-0.6-0.3-0.8-0.4l-9.9,17c0.5,0.3,1,0.7,1.6,1L345.2,440.2z"/>
	<path class="st0" d="M414.5,532.4c0.4,0.2,0.7,0.3,1.1,0.5c0.5,0.2,0.9,0.4,1.4,0.6c0.4,0.2,0.9,0.4,1.3,0.6
		c0.4,0.2,0.9,0.3,1.3,0.5l-13.9-15.5l-12.1,1.6c0.7,0.4,1.4,0.9,2.1,1.3c0.5,0.3,1,0.6,1.5,1l8-1L414.5,532.4z"/>
	<path class="st0" d="M384.8,522.1c0.2,0.3,0.4,0.6,0.5,0.8c0.2,0.3,0.3,0.5,0.4,0.7c0-0.3,0-0.6,0-1.1c0-0.3,0-0.6,0.1-0.9
		l-1.2,0.2C384.6,521.9,384.7,522,384.8,522.1z"/>
	<path class="st0" d="M330.5,469.1l1-1.8c-0.3-0.1-0.6-0.1-0.7,0.2c0-0.1-0.1-0.2-0.1-0.3l-1,0.9c-0.2,0-0.5-0.1-0.7-0.1l-0.6,1.1
		l0.3,0L330.5,469.1z"/>
	<path class="st0" d="M420.5,535c0.2,0.1,0.5,0.2,0.7,0.3c0.2,0.1,0.5,0.2,0.7,0.3c0.2,0.1,0.5,0.2,0.7,0.3c0.1,0,0.2,0.1,0.3,0.1
		c0,0,0.2,0,0.4,0.1c0.1,0,0.3,0.1,0.5,0.1l-17.8-19.9l-19.4,2.5c0.2,0.1,0.5,0.2,0.8,0.4c0.3,0.1,0.6,0.3,0.9,0.4
		c0.3,0.1,0.6,0.3,0.9,0.4c0.3,0.1,0.6,0.3,1,0.4c0.3,0.1,0.7,0.3,1,0.4c0.1,0,0.1,0,0.2,0.1l1.8-0.2l-0.2-0.3
		c0.1,0.1,0.2,0.2,0.4,0.2l12.1-1.6l13.9,15.5c0.1,0,0.2,0.1,0.3,0.1C420.1,534.8,420.3,534.9,420.5,535z"/>
	<path class="st0" d="M385.9,519.6c0-0.3,0.1-0.5,0.1-0.7l-3.1,0.4c0.1,0.2,0.3,0.4,0.4,0.6c0.2,0.2,0.3,0.5,0.5,0.7
		c0.2,0.3,0.3,0.5,0.5,0.7c0.1,0.1,0.2,0.3,0.3,0.4l1.2-0.2c0-0.2,0-0.4,0-0.6C385.8,520.5,385.9,520,385.9,519.6z"/>
	<path class="st0" d="M346.6,441.4c-0.1-0.1-0.3-0.3-0.4-0.4c-0.3-0.2-0.5-0.5-0.8-0.7c-0.1-0.1-0.1-0.1-0.2-0.1l-9.9,17.1
		c0.5,0.3,1,0.5,1.6,0.8L346.6,441.4z"/>
	<path class="st0" d="M331.2,469.1l0.1,1l0.1,0.7l0.1,0.1l1.5-2.6c-0.3-0.2-0.6-0.5-0.9-0.6c-0.2-0.1-0.4-0.3-0.6-0.3l-1,1.8l0.1,0
		L331.2,469.1z"/>
	<path class="st0" d="M425.1,536.5c0.3,0.1,0.5,0.2,0.9,0.2c0.3,0.1,0.6,0.2,0.9,0.2c0.3,0.1,0.6,0.2,0.9,0.2c0,0,0,0,0.1,0
		l-21.2-23.6l-25.4,3.3c0.1,0.1,0.1,0.2,0.2,0.3c0.1,0.2,0.3,0.4,0.4,0.6c0.1,0.2,0.3,0.4,0.4,0.7c0.2,0.2,0.3,0.5,0.5,0.7
		c0,0,0,0.1,0.1,0.1l3.1-0.4c0-0.3,0-0.4,0-0.4s0.2,0.1,0.6,0.3c0,0,0,0,0.1,0l19.4-2.5l17.8,19.9c0.1,0,0.2,0.1,0.3,0.1
		C424.6,536.4,424.8,536.5,425.1,536.5z"/>
	<path class="st0" d="M337,458.2c0,0,0,0.2,0.1,0.5c0,0.3,0.1,0.8,0.3,1.4c0,0.2,0.1,0.4,0.2,0.6l10.4-17.8
		c-0.1-0.2-0.3-0.4-0.4-0.5c-0.2-0.2-0.4-0.4-0.6-0.6c-0.1-0.1-0.2-0.2-0.2-0.2L337,458.2C336.9,458.1,337,458.1,337,458.2z"/>
	<path class="st0" d="M338.2,462.9l11.2-19.3c-0.6,0-0.9,0.1-0.9,0.1c0,0-0.1-0.1-0.1-0.1c-0.2-0.2-0.3-0.4-0.5-0.6
		c0,0-0.1-0.1-0.1-0.1l-10.4,17.8c0.1,0.3,0.1,0.5,0.2,0.9C337.8,461.9,338,462.4,338.2,462.9z"/>
	<path class="st0" d="M429.7,537.7c0.3,0.1,0.7,0.2,1,0.2c0.3,0.1,0.5,0.1,0.8,0.2L407.1,511l-27.5,3.5c0.1,0.1,0.1,0.2,0.2,0.3
		c0.1,0.2,0.3,0.4,0.4,0.6c0.1,0.2,0.3,0.4,0.4,0.6c0.1,0.2,0.3,0.4,0.4,0.6c0.1,0.1,0.1,0.2,0.2,0.3l25.4-3.3l21.2,23.6
		c0.3,0.1,0.6,0.1,0.9,0.2C429,537.6,429.3,537.6,429.7,537.7z"/>
	<path class="st0" d="M332.1,471.3l0.9,0.5l1.3-2.3c0-0.1-0.1-0.1-0.1-0.2c0,0,0,0-0.1-0.1c-0.2-0.2-0.5-0.5-0.9-0.8
		c-0.1,0-0.1-0.1-0.2-0.1l-1.5,2.6l0.5,0.3L332.1,471.3z"/>
	<path class="st0" d="M357,432.4L357,432.4c0-0.1,0.1-0.1,0.1-0.2l-4.9-10.4l-0.1,0.1l0,0l-1.5-1.2l-0.8-0.7
		c0.2,0.2,0.8,1.2,1.5,2.7c0.9,1.9,2.2,4.6,3.3,7c0.2,0.3,0.3,0.7,0.4,1c0.1,0.3,0.3,0.6,0.4,0.9c0.1,0.3,0.3,0.6,0.4,0.9
		c0.1,0.3,0.3,0.6,0.4,0.9c0.1,0.3,0.3,0.6,0.4,0.9c0,0.1,0.1,0.1,0.1,0.2l0.7-1.1L357,432.4z"/>
	<path class="st0" d="M333,471.9l0.9,0.7c0.1,0.1,0.2,0.2,0.4,0.3l0.9-1.5c-0.2-0.3-0.4-0.6-0.6-0.9c-0.1-0.3-0.2-0.5-0.3-0.8
		L333,471.9L333,471.9z"/>
	<path class="st0" d="M338.9,464.8l12.4-21.3c-0.8,0-1.5,0-1.9,0l-11.2,19.3c0,0.1,0.1,0.2,0.1,0.3
		C338.5,463.7,338.7,464.2,338.9,464.8z"/>
	<path class="st0" d="M432.7,538.4c0.4,0.1,0.7,0.2,1.1,0.2c0.3,0.1,0.7,0.1,1,0.2l-27.2-30.4l-29.5,3.8c0,0,0,0,0,0
		c0.1,0.2,0.2,0.3,0.3,0.5c0.1,0.2,0.2,0.3,0.3,0.5c0.1,0.2,0.2,0.3,0.4,0.5c0.1,0.2,0.2,0.3,0.4,0.5c0.1,0.1,0.1,0.2,0.2,0.2
		l27.5-3.5l24.3,27.1c0.1,0,0.1,0,0.2,0.1C432,538.3,432.4,538.4,432.7,538.4z"/>
	<path class="st0" d="M335.6,473.8l0.7-1.2c-0.1-0.1-0.3-0.3-0.4-0.4c-0.3-0.3-0.5-0.6-0.7-0.9c0,0,0,0,0-0.1l-0.9,1.5
		c0.2,0.1,0.3,0.3,0.5,0.4C335.1,473.4,335.3,473.6,335.6,473.8z"/>
	<path class="st0" d="M356.4,428.7c-0.3-0.3-0.6-0.4-0.6-0.4c0.2-0.1,0.3-0.3,0.3-0.4c0.2-0.5-0.1-1.1-0.5-1.6c-0.5-0.5-1-0.9-1-0.9
		c0.5-1-0.4-1.6-0.9-1.9c-0.3-0.1-0.4-0.2-0.4-0.2c0.1-0.4,0-1.2-0.1-1.7c-0.1-0.3-0.1-0.6-0.1-0.6l0,0l-0.8,0.6l4.9,10.4
		C358.1,430.5,357.1,429.3,356.4,428.7z"/>
	<path class="st0" d="M339.4,465.9c0.1,0.2,0.2,0.5,0.4,0.7l13.3-23c-0.7-0.1-1.3-0.1-1.8-0.1l-12.4,21.3c0,0,0,0,0,0.1
		C339.1,465.2,339.3,465.6,339.4,465.9z"/>
	<path class="st0" d="M436.1,539.1c0.4,0.1,0.8,0.1,1.2,0.2c0.2,0,0.4,0.1,0.6,0.1l-29.8-33.3l-31.5,4c0.1,0.1,0.2,0.3,0.3,0.4
		c0.1,0.1,0.2,0.3,0.3,0.4c0.1,0.1,0.2,0.3,0.3,0.4c0.1,0.1,0.2,0.3,0.3,0.4c0.1,0.1,0.2,0.3,0.3,0.4l29.5-3.8l27.2,30.4
		c0,0,0.1,0,0.1,0C435.3,539,435.7,539,436.1,539.1z"/>
	<path class="st0" d="M356.9,435.3c-0.4,0-0.7,0.1-0.8,0.2c-0.2,0.1-0.2,0.3-0.1,0.5c0.1,0.2,0.3,0.5,0.6,0.8
		c0.1,0.1,0.2,0.2,0.3,0.3l0.9-1.6l-0.1,0l-0.1-0.4l-0.2-0.8l-0.2-0.9l0,0l-0.7,1.1c0.1,0.3,0.2,0.5,0.3,0.6
		C356.9,435.2,356.9,435.3,356.9,435.3z"/>
	<path class="st0" d="M357.5,437.5c0.3,0.2,0.5,0.4,0.7,0.5l1.5-2.6l-0.2-0.2l-1.7,0.2l-0.9,1.6
		C357.1,437.2,357.3,437.4,357.5,437.5z"/>
	<path class="st0" d="M340.5,468c0.1,0.1,0.1,0.2,0.2,0.3l14.2-24.4c-0.2,0-0.4-0.1-0.6-0.1c-0.4-0.1-0.7-0.1-1.1-0.1l-13.3,23
		c0.1,0.1,0.1,0.2,0.2,0.3C340.1,467.3,340.3,467.6,340.5,468z"/>
	<path class="st0" d="M437.9,539.4c0.2,0,0.4,0.1,0.6,0.1c0.4,0,0.9,0.1,1.3,0.1c0.3,0,0.6,0,0.9,0l-32.1-35.9l-35.5,4.6
		c0.1,0,0.1,0.1,0.2,0.1c0.2,0.1,0.4,0.2,0.6,0.3c0.2,0.1,0.4,0.2,0.6,0.3c0.2,0.1,0.4,0.1,0.6,0.2c0.3,0,0.5,0,0.6,0
		c0.1,0,0.1-0.1,0.1-0.1c0,0,0.1,0.2,0.4,0.5c0.1,0.2,0.3,0.4,0.4,0.6l31.5-4L437.9,539.4z"/>
	<path class="st0" d="M336.6,474.5c0.1,0.1,0.2,0.1,0.3,0.2l0.6-1.1c-0.3-0.2-0.6-0.4-0.8-0.6c-0.1-0.1-0.3-0.2-0.4-0.4l-0.7,1.2
		c0,0,0.1,0.1,0.1,0.1C336,474.1,336.3,474.3,336.6,474.5z"/>
	<path class="st0" d="M358.7,438.3c0.3,0,0.7,0.1,1,0.2l1.1-2l-0.7-0.7l0,0l-0.4-0.4l-1.5,2.6c0.1,0.1,0.2,0.2,0.3,0.2
		C358.6,438.3,358.7,438.3,358.7,438.3z"/>
	<path class="st0" d="M442.5,539.4c0.2,0,0.3-0.1,0.5-0.1l-34-37.9l-38.8,5c0.1,0.1,0.3,0.2,0.4,0.3c0.2,0.2,0.5,0.3,0.7,0.5
		c0.2,0.2,0.4,0.3,0.7,0.4c0.2,0.1,0.4,0.3,0.6,0.4c0.2,0.1,0.3,0.2,0.5,0.3l35.5-4.6l32.1,35.9c0.1,0,0.3,0,0.4,0
		C441.6,539.6,442.1,539.5,442.5,539.4z"/>
	<path class="st0" d="M338.2,475.5l0.6-1.1c-0.1-0.1-0.3-0.1-0.4-0.2c-0.3-0.2-0.6-0.4-0.9-0.6c0,0,0,0,0,0l-0.6,1.1
		c0.2,0.1,0.4,0.2,0.6,0.4C337.7,475.2,338,475.4,338.2,475.5z"/>
	<path class="st0" d="M341.5,469.8l14.9-25.6c-0.6-0.1-1.1-0.2-1.6-0.3l-14.2,24.4c0.1,0.2,0.2,0.4,0.4,0.7
		C341.2,469.2,341.3,469.5,341.5,469.8z"/>
	<path class="st0" d="M443.9,538.4l0-0.1l0-0.3c0,0,0.1,0,0.2,0l-34.7-38.8l-38,4.9c0.1,0.1,0.1,0.1,0.2,0.2l0,0.4
		c-0.2-0.1-0.4-0.2-0.7-0.3c-0.1-0.1-0.2-0.1-0.4-0.2l-2.8,0.4c0.2,0.2,0.5,0.4,0.7,0.6c0.2,0.2,0.5,0.4,0.7,0.6
		c0.2,0.2,0.5,0.4,0.7,0.5c0.1,0.1,0.2,0.1,0.3,0.2l38.8-5l34,37.9C443.5,539.1,443.9,538.8,443.9,538.4z"/>
	<path class="st0" d="M342.1,470.7c0.1,0.1,0.2,0.3,0.3,0.5l15.5-26.7c-0.4-0.1-0.8-0.2-1.2-0.3c-0.1,0-0.2,0-0.3-0.1l-14.9,25.6
		c0,0,0,0.1,0,0.1C341.7,470.1,341.9,470.4,342.1,470.7z"/>
	<path class="st0" d="M339.2,476.1c0.1,0,0.2,0.1,0.3,0.1l0.7-1.2c-0.3-0.1-0.5-0.2-0.8-0.4c-0.2-0.1-0.3-0.2-0.5-0.3l-0.6,1.1
		c0.1,0,0.1,0.1,0.2,0.1C338.6,475.8,338.9,475.9,339.2,476.1z"/>
	<path class="st0" d="M360.9,438.8c0.1,0,0.2,0.1,0.3,0.1l0.9-1.5c-0.1-0.1-0.2-0.1-0.2-0.2c-0.4-0.3-0.7-0.5-0.7-0.5l-0.2-0.2l0,0
		l-1.1,2C360.1,438.6,360.5,438.7,360.9,438.8z"/>
	<path class="st0" d="M340.7,476.9l0.8-1.3c-0.1,0-0.2-0.1-0.3-0.1c-0.3-0.1-0.6-0.2-1-0.4c0,0-0.1,0-0.1,0l-0.7,1.2
		c0.2,0.1,0.4,0.2,0.6,0.3C340.3,476.7,340.5,476.8,340.7,476.9z"/>
	<path class="st0" d="M343.2,472.4c0,0,0.1,0.1,0.1,0.1l16-27.6c-0.2-0.1-0.5-0.1-0.7-0.2c-0.2-0.1-0.5-0.1-0.7-0.2l-15.5,26.7
		c0.1,0.1,0.2,0.3,0.2,0.4C342.8,471.8,343,472.1,343.2,472.4z"/>
	<path class="st0" d="M369.4,503.5c-0.3-0.2-0.5-0.3-0.8-0.5c-0.3-0.2-0.5-0.3-0.8-0.5c-0.1-0.1-0.2-0.1-0.3-0.2l-2.4,0.3
		c0.2,0.1,0.4,0.2,0.6,0.3c0,0,0.1,0.1,0.2,0.2c0.2,0.1,0.5,0.4,0.8,0.7c0.2,0.2,0.5,0.4,0.8,0.6c0,0,0,0,0,0l2.8-0.4
		c-0.1-0.1-0.2-0.1-0.4-0.2C369.9,503.8,369.7,503.7,369.4,503.5z"/>
	<path class="st0" d="M445.9,537.3L409.8,497l-40.3,5.2c0,0,0.1,0.1,0.1,0.1c0.2,0.2,0.5,0.5,0.7,0.7c0.2,0.2,0.5,0.5,0.7,0.7
		c0.2,0.2,0.3,0.3,0.5,0.4l38-4.9l34.7,38.8c0.3,0,0.8-0.1,1.3-0.4C445.6,537.5,445.7,537.4,445.9,537.3z"/>
	<path class="st0" d="M362.4,439.6l0.7-1.2c-0.2-0.1-0.3-0.3-0.5-0.4c-0.2-0.2-0.4-0.4-0.6-0.5l-0.9,1.5c0.4,0.2,0.7,0.3,1,0.5
		C362.2,439.5,362.3,439.6,362.4,439.6z"/>
	<path class="st0" d="M363.5,440.5l0.6-1.1c-0.3-0.2-0.5-0.5-0.7-0.7c-0.1-0.1-0.2-0.2-0.3-0.3l-0.7,1.2c0.2,0.2,0.5,0.3,0.7,0.5
		C363.2,440.2,363.4,440.4,363.5,440.5z"/>
	<path class="st0" d="M447,536.2c0,0,0.1-0.1,0.1-0.1l-36.8-41.1l-42.5,5.5c0.1,0.1,0.3,0.3,0.4,0.4c0.3,0.3,0.5,0.5,0.7,0.7
		c0.2,0.2,0.4,0.4,0.6,0.6l40.3-5.2l36.1,40.3C446.3,537,446.7,536.7,447,536.2z"/>
	<path class="st0" d="M366.9,501.9c-0.2,0-0.4-0.1-0.7-0.2c-0.3-0.1-0.6-0.2-0.9-0.4c-0.3-0.2-0.6-0.3-0.9-0.5c0,0,0,0,0,0l-2,0.3
		c0,0,0,0,0,0c0.3,0.2,0.6,0.4,0.9,0.6c0.3,0.2,0.6,0.4,0.9,0.5c0.3,0.2,0.6,0.3,0.9,0.5c0,0,0,0,0,0l2.4-0.3
		c-0.2-0.1-0.4-0.3-0.5-0.3C367,502,366.9,501.9,366.9,501.9z"/>
	<path class="st0" d="M341.8,477.3c0.1,0,0.2,0.1,0.2,0.1l1.9-3.3l-0.8,0.7l-0.9,0.9c-0.2,0-0.4-0.1-0.7-0.2l-0.8,1.3
		c0.1,0,0.1,0.1,0.2,0.1C341.2,477.1,341.5,477.2,341.8,477.3z"/>
	<path class="st0" d="M343.7,473.1c0.1,0.2,0.3,0.4,0.4,0.6l16.5-28.4c-0.2-0.1-0.3-0.1-0.5-0.2c-0.3-0.1-0.6-0.2-0.9-0.3l-16,27.6
		C343.4,472.7,343.6,472.9,343.7,473.1z"/>
	<path class="st0" d="M362.7,499.5c-0.2-0.1-0.4-0.3-0.5-0.4l-1.8,0.2c0.1,0.1,0.1,0.1,0.2,0.2c0.3,0.3,0.6,0.5,1,0.8
		c0.3,0.2,0.6,0.5,0.9,0.7l2-0.3c-0.3-0.2-0.6-0.4-0.9-0.6C363.3,500,363,499.7,362.7,499.5z"/>
	<path class="st0" d="M364.5,441.4C364.5,441.4,364.5,441.4,364.5,441.4l0.7-1.1c-0.1-0.1-0.2-0.2-0.3-0.3c-0.2-0.2-0.5-0.4-0.7-0.7
		c0,0,0,0,0,0l-0.6,1.1c0.1,0.1,0.2,0.2,0.3,0.3C364,441,364.3,441.2,364.5,441.4z"/>
	<path class="st0" d="M343.9,474.2l-1.9,3.3c0.2,0.1,0.4,0.2,0.7,0.2c0.2,0.1,0.4,0.1,0.7,0.2l18.6-32.1c-0.1,0-0.3-0.1-0.4-0.1
		c-0.3-0.1-0.6-0.2-0.9-0.3l-16.5,28.4c0,0,0.1,0.1,0.1,0.1L343.9,474.2z"/>
	<path class="st0" d="M410.6,492.9l-44.7,5.7c0.2,0.2,0.4,0.4,0.6,0.6c0.3,0.3,0.5,0.5,0.8,0.8c0.1,0.1,0.2,0.2,0.3,0.3l42.5-5.5
		l36.8,41.1c0.3-0.5,0.5-1.1,0.6-1.8L410.6,492.9z"/>
	<path class="st0" d="M360.1,497.4l-1.4,0.2c0.2,0.2,0.4,0.5,0.7,0.7c0.3,0.3,0.6,0.6,1,1l1.8-0.2c-0.1-0.1-0.3-0.2-0.4-0.3
		C361.1,498.3,360.6,497.8,360.1,497.4z"/>
	<path class="st0" d="M448.6,533.4c0.1,0,0.2-0.1,0.2-0.1c0,0,0,0,0.1,0l-38-42.4l-46.8,6c0.2,0.2,0.5,0.5,0.7,0.7
		c0.3,0.3,0.6,0.6,0.8,0.8c0.1,0.1,0.1,0.1,0.2,0.2l44.7-5.7l37.1,41.4c0-0.1,0-0.3,0-0.4C448.1,533.7,448.4,533.6,448.6,533.4z"/>
	<path class="st0" d="M365.4,442.5l0.7-1.2c-0.2-0.2-0.4-0.4-0.6-0.6c-0.1-0.1-0.2-0.2-0.4-0.4l-0.7,1.1c0.2,0.2,0.3,0.4,0.5,0.6
		C365.1,442.2,365.3,442.3,365.4,442.5z"/>
	<path class="st0" d="M344.7,478L344.7,478l18.5-31.8c-0.1,0-0.3-0.1-0.4-0.1c-0.3-0.1-0.6-0.2-0.9-0.3l-18.6,32.1
		c0.1,0,0.2,0,0.3,0.1C344,478,344.4,478,344.7,478z"/>
	<path class="st0" d="M365.9,443.2c0.1,0.2,0.2,0.3,0.3,0.5l0.8-1.4c-0.1-0.1-0.2-0.2-0.3-0.4c-0.2-0.2-0.4-0.4-0.6-0.6c0,0,0,0,0,0
		l-0.7,1.2c0,0,0.1,0.1,0.1,0.1C365.6,442.8,365.8,443,365.9,443.2z"/>
	<path class="st0" d="M364.5,446.5l-0.6,0c-0.3-0.1-0.5-0.2-0.7-0.3l-18.4,31.7l2-0.9L364.5,446.5z"/>
	<path class="st0" d="M360,497.3c-0.5-0.4-0.8-0.7-0.9-0.8c0,0,0,0,0,0c0.2-0.1,0.5-0.4,0.7-0.8L357,496c0.2,0.2,0.5,0.4,0.9,0.5
		c0,0,0,0,0.1,0.1c0.1,0.1,0.3,0.4,0.7,0.9c0,0,0.1,0.1,0.1,0.1l1.4-0.2C360.1,497.4,360,497.3,360,497.3z"/>
	<path class="st0" d="M450.1,532.2L411.3,489l-48.8,6.3c0.4,0.4,0.9,0.9,1.5,1.5c0.1,0.1,0.1,0.1,0.2,0.2l46.8-6l38,42.4
		C449.4,533,449.8,532.6,450.1,532.2z"/>
	<path class="st0" d="M360.3,494.5l1.4-0.2c0.2,0.2,0.5,0.5,0.8,0.8c0,0,0.1,0.1,0.1,0.1l48.8-6.3l38.8,43.3
		c0.1-0.1,0.1-0.2,0.2-0.2c0.3-0.4,0.4-0.9,0.5-1.2l-39.1-43.6l-55.4,7.1c0,0.3,0,0.5,0.1,0.8c0.1,0.3,0.2,0.6,0.4,0.8
		c0,0,0.1,0.1,0.1,0.1l2.7-0.3c0-0.1,0.1-0.1,0.1-0.2C360,495.1,360.1,494.8,360.3,494.5z"/>
	<path class="st0" d="M347.3,477.6c0.1,0.1,0.2,0.2,0.3,0.4l20.1-34.7c-0.1-0.1-0.1-0.1-0.2-0.2c-0.2-0.2-0.3-0.4-0.5-0.6
		c-0.1-0.1-0.1-0.2-0.2-0.2l-0.8,1.4c0,0,0,0.1,0.1,0.1c0.1,0.2,0.2,0.4,0.3,0.5c0.2,0.3,0.3,0.5,0.3,0.5c0,0,0,0,0,0l-0.4,0.5
		l-0.4,0.5l-0.4,0.5l-1.1,0.1l-17.8,30.6l0.1,0C347,477.2,347.2,477.4,347.3,477.6z"/>
	<path class="st0" d="M348.3,478.6c0.1,0.1,0.1,0.2,0.2,0.2l20.1-34.5c0-0.1-0.1-0.1-0.1-0.2c-0.1-0.2-0.2-0.4-0.4-0.5
		c-0.1-0.1-0.2-0.2-0.3-0.3L347.7,478c0.1,0.1,0.1,0.1,0.2,0.2C348,478.3,348.1,478.5,348.3,478.6z"/>
	<path class="st0" d="M450.9,529.2c0.1,0,0.3,0,0.4-0.1L412,485.3l-55.6,7.1c0,0,0,0,0,0c0,0.3-0.1,0.5-0.1,0.8c0,0.3,0,0.6,0,0.8
		c0,0,0,0.1,0,0.1l55.4-7.1l39.1,43.6c0-0.1,0-0.2,0.1-0.3C450.9,529.7,450.9,529.2,450.9,529.2z"/>
	<path class="st0" d="M452,527.8l-39.6-44.2l-55.4,7.1c0,0.1,0,0.1-0.1,0.2c-0.1,0.2-0.2,0.5-0.2,0.8c-0.1,0.2-0.1,0.5-0.2,0.8
		l55.6-7.1l39.2,43.8c0.1,0,0.1,0,0.2-0.1C451.8,528.8,451.9,528.4,452,527.8z"/>
	<path class="st0" d="M348.8,479.1c0.1,0.1,0.1,0.1,0.2,0.2c0,0,0.2-0.4,0.5-0.9c0.7-1,1.8-2.7,2.3-3l17.4-30c0-0.1-0.1-0.2-0.2-0.4
		c-0.1-0.2-0.2-0.3-0.3-0.5c-0.1-0.1-0.1-0.2-0.2-0.3l-20.1,34.5C348.6,479,348.7,479,348.8,479.1z"/>
	<path class="st0" d="M451.8,526c0-0.2-0.1-0.4-0.2-0.7l-38.9-43.4l-56.2,7.2c0.2,0.1,0.3,0.2,0.4,0.3c0.2,0.1,0.3,0.2,0.4,0.2
		c0,0-0.1,0.2-0.2,0.5c-0.1,0.2-0.1,0.4-0.2,0.6l55.4-7.1l39.6,44.2c0-0.1,0-0.1,0-0.2C452,527.1,451.9,526.6,451.8,526z"/>
	<path class="st0" d="M352,475.5c0,0,0.4-0.1,0.8-0.1c0.1,0,0.2,0,0.4,0l16.4-28.2c0,0,0,0,0,0c0-0.2,0-0.3,0-0.5
		c0-0.2-0.1-0.3-0.1-0.5c0-0.2-0.1-0.3-0.2-0.5c0,0,0-0.1-0.1-0.1l-17.4,30C351.9,475.5,351.9,475.5,352,475.5z"/>
	<path class="st0" d="M353.8,476.2c-0.1,0.3-0.3,0.8-0.8,1.4c0,0-1,0.8-1.7,1.8c-0.3,0.4-0.5,0.9-0.6,1.4c0,0.3-0.1,0.5,0,0.8
		c0,0.1,0,0.1,0.1,0.2l19-32.7c-0.2-0.1-0.3-0.2-0.5-0.3l-0.2-0.4c0.1-0.1,0.2-0.3,0.3-0.4c0.1-0.1,0.1-0.3,0.2-0.4
		c0-0.1,0-0.3,0.1-0.4l-16.4,28.2c0.2,0,0.3,0.1,0.4,0.1C353.8,475.6,353.9,475.9,353.8,476.2z"/>
	<path class="st0" d="M451.6,525.3c-0.1-0.3-0.2-0.6-0.3-1c-0.2-0.5-0.4-1.1-0.6-1.6c-0.1-0.2-0.2-0.4-0.3-0.7L413,480.2l-58,7.4
		c0.2,0.2,0.3,0.4,0.5,0.6c0.2,0.2,0.4,0.4,0.6,0.6c0.1,0.1,0.2,0.2,0.3,0.3l56.2-7.2L451.6,525.3z"/>
	<path class="st0" d="M449.4,519.5c-0.2-0.4-0.4-0.9-0.6-1.3l-35.4-39.6l-59.4,7.6c0.1,0.1,0.1,0.2,0.2,0.2c0.2,0.2,0.3,0.4,0.5,0.6
		c0.2,0.2,0.3,0.4,0.5,0.6c0,0,0,0,0,0l58-7.4l37.5,41.8c-0.1-0.3-0.3-0.6-0.4-0.9C449.8,520.6,449.6,520.1,449.4,519.5z"/>
	<path class="st0" d="M351.2,482.7c0,0,0.1,0.1,0.1,0.1c0,0,0,0,0,0l19.3-33.2c0,0,0,0-0.1,0c-0.2-0.1-0.4-0.2-0.6-0.4
		c-0.1,0-0.1-0.1-0.2-0.1l-19,32.7c0,0.1,0.1,0.2,0.2,0.4C350.9,482.4,351,482.5,351.2,482.7z"/>
	<path class="st0" d="M447.9,516.5c-0.3-0.5-0.5-1-0.8-1.5c-0.2-0.4-0.4-0.7-0.6-1.1l-33-36.8l-60.8,7.8c0,0,0,0,0,0
		c0.1,0.2,0.3,0.3,0.4,0.5c0.1,0.2,0.3,0.3,0.4,0.5c0.1,0.1,0.2,0.2,0.2,0.3l59.4-7.6l35.4,39.6c0-0.1-0.1-0.1-0.1-0.2
		C448.4,517.5,448.2,517,447.9,516.5z"/>
	<path class="st0" d="M351.8,483.5c0.1,0.1,0.1,0.2,0.2,0.3l16.9-29c0-0.2,0-0.3,0-0.4c0-0.1,0-0.1,0-0.1c0-0.1,0-0.2,0-0.3
		c0-0.1,0.1-0.2,0.2-0.3c0.1-0.1,0.1-0.2,0.2-0.3c0.1-0.1,0.1-0.2,0.2-0.3c0.1-0.1,0.1-0.2,0.2-0.3c0.1-0.1,0.1-0.2,0.2-0.2
		c0.1-0.1,0.1-0.1,0.2-0.2c0.1-0.1,0.2-0.2,0.3-0.3c0.1-0.1,0.2-0.2,0.3-0.3c0.1-0.1,0.1-0.1,0.1-0.2l0.8-1.4
		c-0.1-0.1-0.2-0.1-0.4-0.2c-0.2-0.1-0.4-0.2-0.5-0.3l-19.3,33.2C351.4,482.9,351.5,483.2,351.8,483.5z"/>
	<path class="st0" d="M371.2,451c0.1-0.1,0.3-0.3,0.4-0.4c0.2-0.2,0.3-0.3,0.3-0.3c0,0-0.1,0-0.1-0.1c-0.1,0-0.2-0.1-0.2-0.1
		l-0.8,1.4c0.1-0.1,0.1-0.1,0.2-0.2C371,451.2,371.1,451.1,371.2,451z"/>
	<path class="st0" d="M352.5,484.4c0.1,0.1,0.2,0.3,0.3,0.5l60.8-7.8l33,36.8c-0.1-0.1-0.1-0.2-0.2-0.4c-0.3-0.5-0.5-1-0.8-1.4
		c-0.3-0.5-0.5-1-0.8-1.4c-0.4-0.7-0.6-1.1-0.8-1.3c0-0.1-0.1-0.1-0.1-0.1c-0.1-0.1-0.1-0.2-0.2-0.2l-30-33.5l-60.5,7.8l16-27.5
		c-0.2-0.1-0.3-0.3-0.4-0.6c-0.1-0.2-0.1-0.4-0.1-0.5c0,0,0,0,0,0l-16.9,29c0,0.1,0.1,0.1,0.1,0.2
		C352.2,484.1,352.3,484.3,352.5,484.4z"/>
	<path class="st0" d="M442.4,506.8c-0.3-0.4-0.6-0.9-0.9-1.3c-0.3-0.4-0.6-0.8-0.9-1.3c-0.3-0.4-0.6-0.8-0.9-1.2
		c-0.3-0.4-0.6-0.8-0.9-1.2c-0.3-0.4-0.6-0.8-0.9-1.2c-0.3-0.4-0.6-0.8-0.9-1.1c-0.3-0.4-0.6-0.7-0.9-1.1l-6.3-7.1
		c0,0-0.1-0.1-0.1-0.1c-0.3-0.3-0.6-0.6-0.9-0.9c-0.3-0.3-0.6-0.6-0.9-0.9c-0.3-0.3-0.6-0.6-0.9-0.9c-0.3-0.3-0.6-0.6-0.9-0.9
		c-0.3-0.3-0.6-0.6-0.9-0.8c-0.3-0.3-0.6-0.5-0.8-0.8c-0.3-0.3-0.6-0.5-0.8-0.8l0.1,0c0.1-0.1,0.1-0.3,0-0.5c0,0,0-0.1-0.1-0.2
		l-9.3-10.4l-58.7,7.5l15.7-27c0,0.1-0.1,0.1-0.1,0.2c-0.1,0.1-0.2,0.2-0.2,0.3c-0.1,0.1-0.2,0.2-0.3,0.3c-0.1,0.1-0.2,0.2-0.3,0.3
		c-0.1,0.1-0.3,0.2-0.4,0.2c-0.2,0.1-0.4,0.1-0.5,0l-16,27.5l60.5-7.8l30,33.5c-0.2-0.3-0.4-0.7-0.6-1
		C443,507.7,442.7,507.2,442.4,506.8z"/>
	<path class="st0" d="M371.8,453.5c-0.1,0.1-0.1,0.2-0.2,0.3c-0.1,0.1-0.1,0.2-0.2,0.3c-0.1,0.1-0.1,0.2-0.2,0.3
		c-0.1,0.1-0.1,0.2-0.1,0.3l0.8-1.3C371.9,453.3,371.8,453.4,371.8,453.5z"/>
	<path class="st0" d="M414.2,474.1l9.3,10.4c0-0.1-0.1-0.3-0.2-0.4c-0.1-0.2-0.2-0.4-0.3-0.6c-0.1-0.2-0.2-0.4-0.4-0.6
		c-0.1-0.2-0.2-0.4-0.4-0.6c-0.1-0.2-0.3-0.4-0.4-0.6c-0.1-0.2-0.3-0.4-0.4-0.6c-0.1-0.2-0.3-0.4-0.4-0.6c-0.1-0.2-0.3-0.4-0.4-0.5
		c-0.1-0.2-0.3-0.4-0.4-0.5c-0.1-0.2-0.3-0.4-0.4-0.5c-0.1-0.2-0.3-0.3-0.4-0.5c-0.1-0.2-0.3-0.3-0.4-0.5c-0.2-0.2-0.3-0.4-0.4-0.5
		c-0.1-0.1-0.2-0.2-0.2-0.2s0,0,0.1,0l-4.1-4.6l-57,7.3l16.6-28.6c-0.1,0-0.1,0-0.2,0c-0.2,0.1-0.4,0.2-0.7,0.4
		c-0.1,0.1-0.3,0.2-0.4,0.3c-0.1,0.1-0.2,0.2-0.3,0.3c-0.1,0.1-0.2,0.2-0.3,0.3c-0.1,0.1-0.2,0.3-0.3,0.4c0,0,0,0,0,0l-0.8,1.3
		c0,0,0,0,0,0c0,0,0,0.1,0,0.1c0,0,0,0,0,0l-15.7,27L414.2,474.1z"/>
	<path class="st0" d="M435,497.3c-0.3-0.4-0.6-0.7-0.9-1.1c-0.3-0.4-0.6-0.7-0.9-1c-0.3-0.3-0.6-0.7-0.9-1c-0.3-0.3-0.6-0.7-0.9-1
		c-0.3-0.3-0.6-0.7-0.9-1c-0.3-0.3-0.5-0.5-0.8-0.8l6.3,7.1c0,0,0,0,0,0C435.6,498,435.3,497.7,435,497.3z"/>
	<path class="st0" d="M419.3,477.1c0.1,0,0.3-0.1,0.4-0.1l-3.2-3.6c-0.9-0.3-1.8-0.7-2.8-1.1c-0.5-0.2-1.1-0.4-1.6-0.6l-52.7,6.8
		l15.6-26.9c0,0-0.1,0-0.1,0c-0.3-0.1-0.6-0.1-0.9,0L357.5,480l57-7.3l4.1,4.6c0.1,0,0.1,0,0.2-0.1
		C418.9,477.2,419.1,477.2,419.3,477.1z"/>
	<path class="st0" d="M420.3,476.7c0.2-0.1,0.3-0.1,0.5-0.2c0,0,0,0,0,0l-2.2-2.4c-0.6-0.2-1.3-0.5-1.9-0.7c-0.1,0-0.2-0.1-0.3-0.1
		l3.2,3.6c0,0,0.1,0,0.1,0C420,476.9,420.1,476.8,420.3,476.7z"/>
	<path class="st0" d="M412.1,471.7c-0.4-0.2-0.8-0.3-1.2-0.5c-0.5-0.2-0.9-0.4-1.3-0.5l-48.3,6.2l14.5-25c-0.1,0-0.1-0.1-0.1-0.1
		c0,0-0.1,0-0.1-0.1c-0.2-0.1-0.4-0.2-0.5-0.2l-15.6,26.9L412.1,471.7z"/>
	<path class="st0" d="M421.7,476.3c0.1,0,0.1,0,0.2-0.1l-1.2-1.3c-0.2-0.1-0.3-0.1-0.5-0.2c-0.5-0.2-1.1-0.4-1.6-0.6l2.2,2.4
		c0.1,0,0.3-0.1,0.4-0.1C421.4,476.4,421.6,476.3,421.7,476.3z"/>
	<path class="st0" d="M407.2,469.8l-44,5.7l13.5-23.2c-0.2-0.1-0.3-0.1-0.4-0.2c-0.2-0.1-0.3-0.1-0.4-0.1l-14.5,25l48.3-6.2
		c-0.5-0.2-0.9-0.3-1.2-0.5C407.9,470,407.5,469.9,407.2,469.8z"/>
	<path class="st0" d="M422.2,476.1c0.2-0.1,0.4-0.1,0.6-0.2c0.1,0,0.1,0,0.2,0l-0.3-0.3c-0.1,0-0.1,0-0.2-0.1
		c-0.1,0-0.3-0.1-0.4-0.1c-0.1,0-0.3-0.1-0.4-0.1c-0.3-0.1-0.6-0.2-1-0.3l1.2,1.3C422,476.2,422.1,476.2,422.2,476.1z"/>
	<path class="st0" d="M406.9,469.5c0-0.1,0-0.1,0.1-0.2c0-0.1,0-0.1,0-0.2c0-0.1,0-0.1-0.1-0.2c0-0.1-0.1-0.1-0.1-0.2
		c0,0,0-0.1,0-0.1L365,474l12.5-21.4c-0.2-0.1-0.4-0.2-0.5-0.2c-0.1,0-0.1-0.1-0.2-0.1l-13.5,23.2l44-5.7
		C407,469.7,406.9,469.6,406.9,469.5C406.9,469.6,406.9,469.6,406.9,469.5z"/>
	<path class="st0" d="M423.7,475.9C423.7,475.9,423.7,475.9,423.7,475.9C423.7,475.8,423.7,475.8,423.7,475.9
		c-0.1-0.1-0.2-0.1-0.3,0C423.6,475.9,423.7,475.9,423.7,475.9z"/>
	<path class="st0" d="M406.5,468.2c-0.1-0.1-0.1-0.2-0.2-0.2c-0.1-0.1-0.1-0.2-0.2-0.2c-0.1-0.1-0.1-0.1-0.2-0.2c0,0,0,0,0,0
		l-39.2,5l11.5-19.7c0,0-0.1,0-0.1,0c-0.2-0.1-0.4-0.2-0.6-0.2c0,0,0,0-0.1,0L365,474l41.7-5.4c0,0-0.1-0.1-0.1-0.1
		C406.6,468.4,406.5,468.3,406.5,468.2z"/>
	<path class="st0" d="M423.4,475.8C423.4,475.8,423.4,475.8,423.4,475.8C423.4,475.8,423.4,475.8,423.4,475.8
		c-0.1-0.1-0.3-0.1-0.4-0.1c-0.1,0-0.1,0-0.2-0.1l0.3,0.3c0,0,0.1,0,0.1,0C423.2,475.9,423.3,475.9,423.4,475.8z"/>
	<path class="st0" d="M405.9,467.5c-0.1-0.1-0.1-0.1-0.2-0.2c-0.1-0.1-0.1-0.1-0.2-0.2c-0.1-0.1-0.1-0.1-0.2-0.2
		c-0.1-0.1-0.1-0.1-0.2-0.2c-0.1-0.1-0.1-0.1-0.2-0.2l-3.1,0.4l0,0c0,0,0,0.1,0,0.1c0,0,0,0-0.1-0.1c0,0,0,0-0.1,0l-33.3,4.3
		l10.5-18c-0.1,0-0.2-0.1-0.3-0.1c-0.2-0.1-0.3-0.1-0.4-0.2l-11.5,19.7L405.9,467.5z"/>
	<path class="st0" d="M401.4,466.7c-0.1,0-0.1-0.1-0.2-0.1c-0.1,0-0.1-0.1-0.2-0.1c-0.1,0-0.1-0.1-0.2-0.1c-0.1,0-0.1-0.1-0.2-0.1
		c-0.1,0-0.1-0.1-0.2-0.1c-0.1,0-0.1-0.1-0.2-0.1l-30.2,3.9l9.5-16.4c-0.1-0.1-0.3-0.1-0.4-0.2c-0.1,0-0.2-0.1-0.3-0.1l-10.5,18
		l33.3-4.3c0,0-0.1,0-0.1-0.1C401.5,466.8,401.5,466.8,401.4,466.7z"/>
	<path class="st0" d="M404.7,466.3c-0.1-0.1-0.1-0.1-0.2-0.2c-0.1-0.1-0.1-0.1-0.2-0.2c0,0-0.1-0.1-0.1-0.1c0,0-0.1-0.1-0.1-0.1
		c0,0-0.1-0.1-0.1-0.1c0,0,0,0-0.1-0.1l-2.8,0.4l0.7,1l3.1-0.4c0,0,0,0,0,0C404.9,466.4,404.8,466.3,404.7,466.3z"/>
	<path class="st0" d="M403.8,465.4C403.8,465.4,403.7,465.3,403.8,465.4c-0.1-0.1-0.2-0.1-0.2-0.2c0,0-0.1-0.1-0.1-0.1
		c0,0-0.1,0-0.1-0.1c0,0-0.1,0-0.1-0.1c0,0-0.1,0-0.1-0.1c0,0-0.1,0-0.1-0.1c0,0,0,0-0.1-0.1c0,0,0,0-0.1-0.1c0,0,0,0-0.1-0.1
		c0,0,0,0-0.1-0.1c0,0,0,0-0.1,0l-2.5,0.3c0.1,0.1,0.2,0.2,0.3,0.3c0.1,0.1,0.2,0.3,0.3,0.4l0.2,0.3l2.8-0.4
		C403.9,465.5,403.9,465.5,403.8,465.4C403.8,465.5,403.8,465.4,403.8,465.4z"/>
	<path class="st0" d="M400.3,466C400.3,466,400.2,466,400.3,466l-0.1-0.2l-0.1,0.1c0,0-0.1,0-0.1,0c0,0-0.1,0-0.1,0c0,0,0,0-0.1,0
		c0,0,0,0-0.1,0c0,0,0,0-0.1,0c0,0,0,0-0.1,0c0,0,0,0-0.1,0c0,0,0,0-0.1,0c0,0,0,0-0.1,0c0,0,0,0-0.1,0c0,0,0,0-0.1,0c0,0,0,0-0.1,0
		c0,0,0,0-0.1,0c0,0,0,0-0.1,0c0,0,0,0-0.1,0c0,0,0,0,0,0c0,0,0,0,0,0c0,0,0,0,0,0c0,0,0,0,0,0c0,0,0,0,0,0c0,0,0,0,0,0l-27.2,3.5
		l8.6-14.8c0,0-0.1,0-0.1-0.1c-0.2-0.1-0.3-0.1-0.5-0.2c0,0,0,0-0.1,0l-9.5,16.4L400.3,466z"/>
	<path class="st0" d="M402.8,464.5C402.8,464.5,402.7,464.5,402.8,464.5c-0.1-0.1-0.1-0.1-0.1-0.1c0,0,0,0-0.1-0.1c0,0,0,0-0.1,0
		c0,0,0,0-0.1,0c0,0,0,0-0.1,0c0,0,0,0-0.1,0c0,0,0,0-0.1,0c0,0,0,0,0,0c0,0,0,0,0,0c0,0,0,0,0,0c0,0,0,0,0,0c0,0,0,0,0,0
		c0,0,0,0,0,0c0,0,0,0,0,0c0,0,0,0,0,0c0,0,0,0,0,0c0,0,0,0,0,0c0,0,0,0,0,0c0,0-0.1,0-0.1-0.1l-2.3,0.3c0,0,0,0,0,0c0,0,0,0,0,0
		c0,0,0,0,0,0c0,0,0,0,0,0c0,0,0,0,0,0c0,0,0,0,0,0c0,0,0,0,0,0c0,0,0,0,0,0c0,0,0,0,0,0c0,0,0,0,0,0c0,0,0,0,0,0c0,0,0,0,0,0
		c0,0,0,0,0,0c0,0,0,0,0,0c0,0,0,0,0,0c0,0,0,0,0,0c0,0,0,0,0,0c0,0,0,0,0,0c0,0,0,0,0,0c0,0,0,0,0,0.1c0,0,0,0,0,0.1
		c0,0,0,0,0.1,0.1c0,0,0,0,0,0c0,0,0,0,0.1,0.1L402.8,464.5C402.9,464.6,402.8,464.6,402.8,464.5
		C402.8,464.5,402.8,464.5,402.8,464.5z"/>
	<path class="st0" d="M398.8,465.1C398.8,465,398.8,465,398.8,465.1C398.7,465,398.7,465,398.8,465.1c-0.1-0.1-0.1-0.1-0.1-0.1
		c0,0,0,0,0,0c0,0,0,0,0,0c0,0,0,0,0,0c0,0,0,0-0.1,0c0,0,0,0-0.1,0c0,0,0,0-0.1,0c0,0,0,0-0.1,0c0,0,0,0-0.1,0c0,0,0,0-0.1,0
		c0,0,0,0-0.1,0c0,0,0,0-0.1,0c0,0,0,0-0.1,0c0,0,0,0-0.1,0c0,0,0,0-0.1,0c0,0,0,0-0.1,0c0,0,0,0-0.1,0c0,0,0,0-0.1,0
		c0,0-0.1,0-0.1,0c0,0-0.1,0-0.1,0c0,0,0,0-0.1,0l-24.3,3.1l7.7-13.2c-0.1-0.1-0.2-0.1-0.3-0.2c-0.1,0-0.2-0.1-0.3-0.1l-8.6,14.8
		L398.8,465.1C398.8,465.1,398.8,465.1,398.8,465.1C398.8,465.1,398.8,465.1,398.8,465.1z"/>
	<path class="st0" d="M400.7,462.8l-2.2,0.3c0,0,0,0,0,0c0,0,0,0,0.1,0.1c0,0,0,0,0.1,0c0,0,0,0,0,0c0,0,0,0,0,0c0,0,0,0,0,0
		c0,0,0,0,0,0c0,0,0,0,0,0c0,0,0,0,0,0c0,0,0,0,0,0c0,0,0,0,0,0c0,0,0,0,0,0c0.1,0.1,0.2,0.2,0.3,0.3c0,0,0,0,0,0c0,0,0,0,0,0
		l2.3-0.3C401.4,463.4,401,463.1,400.7,462.8z"/>
	<path class="st0" d="M397.4,464.2C397.3,464.1,397.3,464.1,397.4,464.2c-0.1-0.1-0.1-0.1-0.2-0.1l0-0.1l-0.1,0c0,0-0.1,0-0.1-0.1
		c0,0-0.1,0-0.1-0.1c0,0-0.1,0-0.1-0.1c0,0-0.1,0-0.1-0.1c0,0-0.1,0-0.1-0.1c0,0-0.1,0-0.1-0.1c0,0-0.1,0-0.1-0.1c0,0-0.1,0-0.1-0.1
		c0,0-0.1,0-0.1-0.1c0,0,0,0,0,0l-21.4,2.7l6.8-11.7c0,0-0.1-0.1-0.1-0.1c-0.1-0.1-0.3-0.1-0.4-0.2c0,0-0.1,0-0.1,0l-7.7,13.2
		L397.4,464.2C397.5,464.2,397.4,464.2,397.4,464.2C397.4,464.2,397.4,464.2,397.4,464.2z"/>
	<path class="st0" d="M399.6,461.9l-1.8,0.2c0,0,0,0,0,0.1c0,0,0,0,0,0c0,0,0,0,0,0c0,0,0,0,0,0c0,0,0,0,0,0c0,0,0,0,0,0
		c0,0,0,0,0,0c0,0,0,0,0,0c0,0,0,0,0,0c0,0,0,0,0,0c0,0,0,0,0,0c0,0,0,0,0,0c0,0,0,0,0.1,0c0,0,0,0,0.1,0c0,0,0,0,0.1,0.1
		c0,0,0,0,0.1,0.1c0,0,0,0,0.1,0.1c0,0,0,0,0.1,0.1c0,0,0,0,0.1,0.1c0,0,0,0,0,0l2.2-0.3C400.3,462.5,399.9,462.2,399.6,461.9z"/>
	<path class="st0" d="M396,463.3C395.9,463.3,395.9,463.3,396,463.3c-0.1-0.1-0.1-0.1-0.2-0.1c0,0-0.1,0-0.1,0c0,0-0.1,0-0.1,0
		c0,0,0,0-0.1,0c0,0,0,0-0.1,0c0,0,0,0,0,0c0,0,0,0-0.1,0c0,0,0,0-0.1,0c0,0,0,0-0.1,0c0,0,0,0-0.1,0c0,0,0,0-0.1,0c0,0,0,0-0.1,0
		c0,0,0,0-0.1,0c0,0,0,0-0.1,0c0,0,0,0-0.1,0c0,0,0,0-0.1,0c0,0,0,0-0.1,0c0,0,0,0-0.1,0l-18.6,2.4l5.9-10.2c0,0,0,0,0,0
		c-0.1-0.1-0.2-0.1-0.3-0.2c-0.1,0-0.1-0.1-0.2-0.1l-6.8,11.7l21.4-2.7C396.1,463.4,396.1,463.4,396,463.3
		C396,463.3,396,463.3,396,463.3z"/>
	<path class="st0" d="M398.6,461.1l-1.5,0.2c0,0,0,0,0,0c0,0,0,0,0,0c0,0,0,0,0,0c0,0,0,0,0,0c0,0,0,0,0,0c0,0,0,0,0,0c0,0,0,0,0,0
		c0,0,0,0,0,0c0,0,0,0,0,0c0,0,0,0,0,0c0,0,0,0,0,0c0,0,0,0,0,0c0,0,0,0,0,0c0.1,0.1,0.2,0.3,0.3,0.4l1.8-0.2
		c-0.5-0.4-0.8-0.6-0.8-0.6C398.8,461.3,398.7,461.2,398.6,461.1z"/>
	<path class="st0" d="M394.8,462.6C394.8,462.6,394.8,462.6,394.8,462.6C394.7,462.5,394.7,462.5,394.8,462.6
		c-0.1-0.1-0.1-0.1-0.2-0.1c0,0-0.1,0-0.1,0c0,0-0.1,0-0.1,0c0,0-0.1,0-0.1-0.1c0,0-0.1,0-0.1-0.1c0,0-0.1,0-0.1-0.1
		c0,0-0.1,0-0.1-0.1c0,0-0.1,0-0.1-0.1c0,0-0.1,0-0.1-0.1c0,0-0.1,0-0.1-0.1c0,0-0.1,0-0.1-0.1c0,0-0.1,0-0.1-0.1c0,0-0.1,0-0.1-0.1
		c0,0,0,0,0,0l-15.9,2l5.1-8.7c-0.1-0.1-0.2-0.1-0.3-0.2c-0.1-0.1-0.2-0.1-0.3-0.2l-5.9,10.2L394.8,462.6z"/>
	<path class="st0" d="M393.3,461.6c0,0-0.1,0-0.1-0.1c0,0-0.1-0.1-0.1-0.1c0,0-0.1-0.1-0.1-0.1c0,0-0.1-0.1-0.1-0.1
		c0,0-0.1-0.1-0.1-0.1c-0.1-0.1-0.3-0.2-0.4-0.2l-13.3,1.7l4.2-7.3c-0.1-0.1-0.1-0.1-0.2-0.2c-0.1-0.1-0.2-0.1-0.3-0.2c0,0,0,0,0,0
		l-5.1,8.7l15.9-2c0,0-0.1,0-0.1-0.1C393.3,461.7,393.3,461.7,393.3,461.6z"/>
	<path class="st0" d="M398.6,460.8l-0.6-0.4c0,0-0.1-0.1-0.1-0.1l-1.6,0.2c0,0,0.1,0.1,0.1,0.1c0.1,0.1,0.2,0.2,0.3,0.3
		c0,0,0.1,0.1,0.1,0.1c0,0,0,0,0.1,0.1c0,0,0,0,0.1,0.1c0,0,0,0,0,0.1c0,0,0,0,0,0.1c0,0,0,0,0,0c0,0,0,0,0,0c0,0,0,0,0,0
		c0,0,0,0,0,0l1.5-0.2c-0.1-0.1-0.1-0.1-0.2-0.2L398.6,460.8z"/>
	<path class="st0" d="M397.2,459.5l-1.7,0.2c0,0,0,0,0,0c0.1,0.1,0.2,0.2,0.3,0.3c0.1,0.1,0.2,0.2,0.3,0.3c0.1,0.1,0.1,0.1,0.2,0.2
		l1.6-0.2C397.7,460,397.4,459.7,397.2,459.5z"/>
	<path class="st0" d="M380.2,461.6l3.4-5.8c0,0,0,0-0.1-0.1c-0.1-0.1-0.1-0.1-0.2-0.2c-0.1-0.1-0.1-0.1-0.2-0.2c0,0,0,0,0,0
		l-4.2,7.3l13.3-1.7c-0.4-0.3-0.8-0.5-1.2-0.7L380.2,461.6z"/>
	<path class="st0" d="M397.1,459.4C397.1,459.4,397.1,459.4,397.1,459.4C397,459.4,397,459.3,397.1,459.4c-0.1-0.1-0.1-0.1-0.1-0.1
		c0,0,0,0,0,0c0,0,0,0,0,0c0,0,0,0,0,0c0,0,0,0,0,0c0,0,0,0-0.1,0c0,0,0,0-0.1-0.1c0,0,0,0-0.1-0.1c0,0,0,0-0.1-0.1c0,0,0,0-0.1-0.1
		c0,0,0,0-0.1-0.1c0,0,0,0-0.1-0.1c0,0,0,0,0,0l-1.9,0.2l0.2,0.1c0.1,0.1,0.3,0.2,0.4,0.3c0.1,0.1,0.2,0.2,0.3,0.3L397.1,459.4
		C397.1,459.5,397.1,459.5,397.1,459.4C397.1,459.4,397.1,459.4,397.1,459.4z"/>
	<path class="st0" d="M381.5,460.6l2.8-4.9c0,0,0,0,0,0c-0.1,0.1-0.2,0.1-0.3,0.2c-0.2,0.1-0.3,0.2-0.3,0.2c0-0.1-0.1-0.1-0.1-0.2
		c0,0-0.1-0.1-0.1-0.1l-3.4,5.8l10.8-1.4c-0.4-0.3-0.8-0.5-1.2-0.7L381.5,460.6z"/>
	<path class="st0" d="M389.8,459.5c-0.5-0.3-0.9-0.5-1.1-0.7l-5.9,0.8l2.6-4.5c0,0,0,0-0.1,0c-0.1,0.1-0.2,0.1-0.4,0.2
		c-0.1,0.1-0.2,0.1-0.3,0.2c-0.1,0.1-0.2,0.1-0.3,0.2l-2.8,4.9L389.8,459.5z"/>
	<path class="st0" d="M396.2,458.6C396.2,458.6,396.2,458.6,396.2,458.6c-0.1-0.1-0.1-0.1-0.1-0.1c0,0-0.1,0-0.1-0.1
		c0,0-0.1,0-0.1-0.1c0,0-0.1,0-0.1-0.1c0,0-0.1,0-0.1-0.1c0,0-0.1-0.1-0.1-0.1c0,0-0.1-0.1-0.1-0.1c0,0,0,0-0.1-0.1l-1.9,0.2
		c0,0,0,0,0,0c0,0,0.1,0.1,0.1,0.1c0,0,0.1,0,0.1,0.1c0,0,0.1,0,0.1,0.1c0,0,0.1,0,0.1,0.1c0,0,0.1,0,0.1,0.1c0,0,0.1,0,0.1,0.1
		c0,0,0.1,0,0.1,0.1c0,0,0.1,0,0.1,0.1c0,0,0.1,0,0.1,0.1c0,0,0,0,0.1,0.1l-0.1,0l0.1,0.1l1.9-0.2
		C396.3,458.7,396.3,458.7,396.2,458.6C396.3,458.6,396.2,458.6,396.2,458.6z"/>
	<path class="st0" d="M388.4,458.5c0,0,0.1-0.1,0.1-0.1c0,0,0.1-0.1,0.1-0.1c0,0,0.1-0.1,0.1-0.1c0,0,0.1-0.1,0.1-0.1
		c0,0,0.1-0.1,0.1-0.1c0,0,0.1-0.1,0.1-0.1c0,0,0,0,0,0l-5.1,0.7l2.3-4c0,0-0.1,0-0.1,0c-0.2,0.1-0.3,0.1-0.5,0.2
		c-0.1,0.1-0.2,0.1-0.3,0.2l-2.6,4.5l5.9-0.8c-0.2-0.1-0.4-0.2-0.4-0.2S388.3,458.6,388.4,458.5z"/>
	<path class="st0" d="M395.3,457.9c0,0-0.1-0.1-0.1-0.1c0,0-0.1-0.1-0.1-0.1c0,0-0.1-0.1-0.1-0.1c0,0-0.1-0.1-0.1-0.1
		c0,0-0.1-0.1-0.1-0.1c0,0-0.1-0.1-0.1-0.1c0,0,0,0,0,0l-1.9,0.2c0,0,0.1,0.1,0.1,0.1c0,0,0.1,0.1,0.1,0.1c0,0,0.1,0.1,0.1,0.1
		c0,0,0.1,0.1,0.1,0.1c0,0,0.1,0.1,0.1,0.1c0,0,0.1,0.1,0.1,0.1c0,0,0.1,0.1,0.1,0.1c0,0,0.1,0.1,0.1,0.1l1.9-0.2c0,0,0,0,0,0
		C395.4,457.9,395.4,457.9,395.3,457.9z"/>
	<path class="st0" d="M389.3,457.8C389.3,457.8,389.4,457.8,389.3,457.8c0.1-0.1,0.2-0.1,0.2-0.2c0,0,0.1-0.1,0.1-0.1
		c0,0,0.1-0.1,0.1-0.1c0,0,0.1-0.1,0.1-0.1c0,0,0.1-0.1,0.1-0.1c0,0,0.1-0.1,0.1-0.1c0,0,0,0,0,0l-5,0.6l1.9-3.3
		c-0.1,0-0.2,0.1-0.4,0.1c-0.2,0.1-0.3,0.1-0.4,0.2l-2.3,4l5.1-0.7C389.2,457.9,389.2,457.9,389.3,457.8
		C389.2,457.9,389.3,457.8,389.3,457.8z"/>
	<path class="st0" d="M394.4,457.2c-0.1,0-0.1-0.1-0.2-0.1c-0.1,0-0.1-0.1-0.2-0.1c-0.1,0-0.1-0.1-0.2-0.1c-0.1,0-0.1-0.1-0.2-0.1
		c-0.1,0-0.1-0.1-0.2-0.1c0,0,0,0,0,0l-1.8,0.2c0,0,0,0,0,0c0.1,0,0.1,0.1,0.2,0.1c0.1,0,0.1,0.1,0.2,0.1c0,0,0.1,0.1,0.2,0.1
		c0,0,0.1,0.1,0.1,0.1c0,0,0.1,0.1,0.1,0.1c0,0,0.1,0.1,0.1,0.1c0,0,0,0,0,0l1.9-0.2C394.5,457.2,394.5,457.2,394.4,457.2z"/>
	<path class="st0" d="M393.2,456.4c-0.1,0-0.1-0.1-0.2-0.1c-0.1,0-0.2-0.1-0.2-0.1c-0.1,0-0.2-0.1-0.2-0.1c0,0,0,0,0,0l-6.2,0.8
		l1.5-2.6c-0.1,0-0.2,0.1-0.4,0.1c-0.1,0-0.2,0.1-0.4,0.1l-1.9,3.3l5-0.6c0,0,0.1-0.1,0.1-0.1c0,0,0.1-0.1,0.1-0.1
		c0,0,0.1-0.1,0.1-0.1c0,0,0.1-0.1,0.1-0.1c0-0.1,0.1-0.1,0.1-0.1c0-0.1,0.1-0.1,0.1-0.2l0.1,0c0,0,0.1,0.1,0.2,0.1
		c0.1,0,0.1,0.1,0.2,0.1c0.1,0,0.1,0.1,0.2,0.1c0.1,0,0.1,0.1,0.2,0.1c0,0,0.1,0.1,0.1,0.1l1.8-0.2c-0.1,0-0.1-0.1-0.2-0.1
		C393.3,456.5,393.3,456.4,393.2,456.4z"/>
	<path class="st0" d="M392.5,456c-0.1,0-0.2-0.1-0.2-0.1c-0.1-0.1-0.2-0.1-0.3-0.1c-0.1-0.1-0.2-0.1-0.3-0.2
		c-0.1-0.1-0.2-0.1-0.3-0.2c0,0,0,0,0,0l-3.9,0.5l1.1-1.8c-0.2,0-0.4,0.1-0.6,0.1l-1.5,2.6L392.5,456z"/>
	<path class="st0" d="M390.7,455.1C390.6,455,390.6,455,390.7,455.1c-0.1-0.1-0.1-0.1-0.2-0.2c0,0-0.1-0.1-0.1-0.1l-1.9,0.2l0.6-1
		c-0.2,0-0.4,0-0.6,0l-1.1,1.8l3.9-0.5c-0.1-0.1-0.2-0.1-0.3-0.1C390.9,455.1,390.7,455.1,390.7,455.1z"/>
	<path class="st0" d="M390.4,454.8C390.4,454.7,390.4,454.7,390.4,454.8c-0.1-0.1-0.2-0.2-0.2-0.3c-0.1-0.1-0.2-0.1-0.3-0.2
		c-0.1-0.1-0.2-0.1-0.3-0.1l0,0l0,0c0,0,0,0-0.1,0c-0.1,0-0.3-0.1-0.4-0.1l-0.6,1L390.4,454.8z"/>
	<path class="st0" d="M389.5,454.2L389.5,454.2C389.6,454.2,389.5,454.2,389.5,454.2L389.5,454.2z"/>
</g>
</svg>
