<?xml version="1.0" encoding="utf-8"?>
<!-- Generator: Adobe Illustrator 22.0.1, SVG Export Plug-In . SVG Version: 6.00 Build 0)  -->
<svg version="1.1" id="レイヤー_1" xmlns="http://www.w3.org/2000/svg" xmlns:xlink="http://www.w3.org/1999/xlink" x="0px"
	 y="0px" viewBox="0 0 640 640" style="enable-background:new 0 0 640 640;" xml:space="preserve">
<style type="text/css">
	.st0{fill:none;stroke:#FFFFFF;stroke-width:0.2065;stroke-miterlimit:10;}
	.st1{fill:none;stroke:#FFFFFF;stroke-width:0.1362;stroke-miterlimit:10;}
</style>
<g>
	<path class="st0" d="M181,292.7c0.2-0.1,0.4-0.1,0.6,0l-2.4-0.4l0.2,0.9C179.9,293,180.5,292.8,181,292.7z"/>
	<path class="st0" d="M175.9,292.4c0,0-0.6-0.3-1.3-0.4c-0.1,0-0.3,0-0.6,0l0.3,2.6c0.6-0.2,1.2-0.4,1.7-0.5c0.2,0,0.3-0.1,0.5-0.2
		l-0.3-2.2C176.3,291.9,176.1,292.2,175.9,292.4z"/>
	<path class="st0" d="M175.2,320.1c0.1-0.2,0.2-0.5,0.2-0.7s0.1-0.5,0.2-0.8c0.1-0.2,0.1-0.5,0.1-0.8c0-0.3,0-0.6,0-0.9
		c0-0.3,0-0.6,0-0.9c0-0.3-0.1-0.7-0.2-0.9c-0.1-0.3-0.2-0.6-0.4-1c-0.2-0.4-0.4-0.7-0.7-1c-0.1-0.1-0.2-0.3-0.3-0.4l0.9,8.2
		C175,320.5,175.1,320.3,175.2,320.1z"/>
	<path class="st0" d="M173.2,292.8c0,0-0.2,0-0.5-0.1c-0.3,0-0.5-0.1-0.8-0.1l0.3,2.7c0.8-0.2,1.5-0.5,2.3-0.7l-0.3-2.6
		C173.7,292.1,173.4,292.3,173.2,292.8z"/>
	<path class="st0" d="M171.7,311.2l2.2,19.6c0.5-0.4,0.9-1,1.1-1.7c0.1-0.3,0.2-0.7,0.2-1.2c0-0.3,0.1-0.7,0-1c0-0.3,0-0.6,0-0.9
		c0-0.3,0-0.6,0-0.8c-0.1-0.2,0-0.6-0.1-0.8c-0.1-0.2-0.1-0.5-0.1-0.7c-0.1-0.3-0.1-0.5-0.1-0.7c-0.1-0.3-0.2-0.5-0.2-0.7
		c-0.1-0.2-0.1-0.3-0.1-0.3s0.1-0.1,0.1-0.4c0.1-0.1,0.1-0.4,0.3-0.8l0-0.1l-0.9-8.2c-0.2-0.3-0.6-0.5-0.9-0.7
		C172.7,311.6,172.3,311.4,171.7,311.2z"/>
	<path class="st0" d="M61.8,281.4c-0.5,0-1,0-1.5-0.1c-0.9,0-1.7-0.1-2.6,0c-0.9,0-1.6,0.1-2.4,0c-0.8,0-1.5,0-2.3,0.1
		c-0.4,0-0.9,0-1.4,0.1l7.2,2.3L61.8,281.4z"/>
	<path class="st0" d="M171.1,292.8c-0.6,0.1-1.1,0.5-0.8,1.3c0,0-0.1,0-0.4-0.1l0.2,2.2c0.1,0,0.2-0.1,0.3-0.1
		c0.6-0.2,1.2-0.4,1.8-0.6l0,0l-0.3-2.7C171.6,292.7,171.2,292.7,171.1,292.8z"/>
	<path class="st0" d="M169.2,293.7c-0.4,0-1,0-1.5,0.1l0.3,2.8c0.2-0.1,0.4-0.2,0.6-0.2c0.4-0.2,1-0.3,1.5-0.5l-0.2-2.2
		C169.6,293.8,169.4,293.8,169.2,293.7z"/>
	<path class="st0" d="M169.4,310.7l2.3,21c0.5-0.2,1-0.2,1.3-0.4l0.5-0.4c0-0.1,0-0.1,0.2-0.1l-2.2-19.6
		C171,310.9,170.3,310.8,169.4,310.7z"/>
	<path class="st0" d="M48.9,281.5c-0.7,0-1.3,0.1-1.9,0.1c-0.6,0.1-1.2,0-1.8,0.1c-0.1,0-0.3,0.1-0.4,0l15.7,4.9l6.6-5.1
		c-0.3,0-0.6-0.1-1-0.1c-1,0-2-0.1-2.9-0.2c-0.4-0.1-0.9,0-1.3,0l-2.9,2.2l-7.2-2.3c-0.3,0-0.6,0-0.9,0
		C50.2,281.5,49.5,281.5,48.9,281.5z"/>
	<path class="st0" d="M76.8,274.9C76.7,274.8,76.7,274.8,76.8,274.9C76.7,274.9,76.8,275,76.8,274.9c0,0.1,0.1,0.2,0.2,0.2
		C76.9,274.9,76.8,274.9,76.8,274.9z"/>
	<path class="st0" d="M72.5,280.8c-0.7,0.1-1.3,0.3-1.8,0.4l1.2,0.6l1.6-1.1C73.2,280.7,72.9,280.7,72.5,280.8z"/>
	<path class="st0" d="M166.1,296l-0.3,0.1l0.1,1.3c0.3-0.1,0.6-0.2,0.9-0.3c0.3-0.1,0.7-0.2,1.1-0.4l-0.3-2.8c0,0.1-0.1,0-0.1,0.1
		C166.8,294.2,166.3,294.8,166.1,296z"/>
	<path class="st0" d="M169.7,331.6c0.4,0.1,0.8,0,1.1,0c0.3,0,0.7-0.1,1-0.1l-2.3-21c-0.6-0.1-1.3-0.1-2.1,0L169.7,331.6z"/>
	<path class="st0" d="M44.7,281.8c-0.4,0-0.9,0-1.3,0.1c-0.6,0-1.1,0.1-1.7,0.1c-0.6,0-1,0.1-1.5,0.2c-0.6,0-1,0-1.5,0.1l23.1,7.2
		l10.1-7.8c-1-0.1-1.8-0.1-2.9-0.1c-0.6-0.1-1.4-0.1-2-0.1l-6.6,5.1L44.7,281.8z"/>
	<path class="st0" d="M78.8,276c-0.4-0.1-0.7-0.3-1.1-0.5c-0.3-0.1-0.6-0.3-0.9-0.4c0.2,0.2,0.5,0.6,0.7,1c0.2,0.2,0.4,0.6,0.6,0.9
		l1-0.7C79.1,276.1,78.9,276.1,78.8,276z"/>
	<path class="st0" d="M163.8,297.1l0.2,2.2c0.4-0.1,0.6-0.2,0.6-0.5c0.1,0,0.2,0.1,0.2,0.2l0.2-1.4c0.2-0.1,0.5-0.2,0.8-0.2
		l-0.1-1.3l-0.3,0.1L163.8,297.1z"/>
	<path class="st0" d="M37.5,282.5c-0.3,0.1-0.5,0.1-0.8,0.1c-0.3,0.1-0.5,0.1-0.8,0.1c-0.3,0.1-0.5,0.1-0.8,0.1
		c-0.1,0-0.3,0.1-0.4,0.1c0,0-0.2,0-0.5,0.2c-0.1,0.1-0.3,0.1-0.5,0.2l29.6,9.2l16.1-12.5c-0.3,0.1-0.6,0.1-1,0
		c-0.3,0-0.7,0.1-1,0.1c-0.3,0-0.7,0.1-1.2,0.1c-0.4,0.1-0.8,0.1-1.2,0.1c-0.4,0.1-0.8,0.1-1.1,0.2c-0.1,0-0.2,0-0.2,0l-1.6,1.1
		l0.3,0.1c-0.1,0-0.3,0-0.5,0l-10.1,7.8l-23.1-7.2c-0.1,0-0.3,0.1-0.4,0.1C38,282.5,37.8,282.6,37.5,282.5z"/>
	<path class="st0" d="M79.5,279c0.2,0.2,0.3,0.5,0.4,0.7l2.5-2c-0.3-0.2-0.5-0.3-0.8-0.3c-0.3-0.1-0.6-0.3-0.9-0.4
		c-0.3-0.1-0.6-0.3-1-0.5c-0.2-0.1-0.4-0.1-0.5-0.3l-1,0.7c0.2,0.2,0.3,0.4,0.3,0.6C79,278,79.2,278.5,79.5,279z"/>
	<path class="st0" d="M167.5,331.3c0.2,0,0.4,0.1,0.7,0.1c0.4,0.1,0.8,0.1,1.1,0.2c0.1,0,0.1,0,0.3,0l-2.3-21.1
		c-0.7,0-1.3,0.1-2,0.1L167.5,331.3z"/>
	<path class="st0" d="M163.2,297.5l-0.8-0.9l-0.5-0.7l-0.1,0l0.4,3.3c0.4,0.1,0.8,0.1,1.2,0.2c0.3,0,0.6,0,0.8,0l-0.2-2.2l-0.1,0.1
		L163.2,297.5z"/>
	<path class="st0" d="M32.3,283.5c-0.3,0.1-0.6,0.1-1,0.2c-0.3,0.1-0.6,0.1-1,0.2c-0.3,0.1-0.7,0.1-1,0.3l-0.1,0l35.1,11l21-16.2
		c-0.1-0.1-0.3-0.2-0.5-0.2c-0.3-0.2-0.5-0.3-0.8-0.4c-0.3-0.2-0.5-0.3-0.8-0.4c-0.3-0.1-0.5-0.3-0.8-0.4c-0.1,0-0.1,0-0.1-0.1
		l-2.5,2c0.2,0.2,0.2,0.4,0.2,0.4s-0.3,0.1-0.8,0l-0.1,0l-16.1,12.5l-29.6-9.2c-0.1,0-0.2,0.1-0.4,0.1
		C32.9,283.4,32.6,283.5,32.3,283.5z"/>
	<path class="st0" d="M165.1,310.8c0,0-0.2-0.1-0.4-0.5c-0.2-0.3-0.6-0.7-1.1-1.2c-0.2-0.1-0.4-0.3-0.6-0.5l2.5,22
		c0.3,0.2,0.5,0.2,0.8,0.3c0.3,0.1,0.7,0.1,0.9,0.2c0.1,0,0.3,0.2,0.4,0.1l-2.3-20.6C165.2,310.7,165.2,310.7,165.1,310.8z"/>
	<path class="st0" d="M160.9,307l2.6,23.8c0.5-0.3,0.8-0.6,0.8-0.6c0.1,0,0.1,0.1,0.2,0c0.3,0.2,0.6,0.2,0.8,0.3
		c0.1,0,0.1,0,0.1,0.1l-2.4-22c-0.2-0.2-0.5-0.5-0.8-0.7C161.9,307.7,161.5,307.3,160.9,307z"/>
	<path class="st0" d="M27.3,284.8c-0.4,0.1-0.7,0.2-1.1,0.3c-0.3,0.1-0.6,0.1-0.8,0.3l40.3,12.6l22.8-17.6c-0.1-0.1-0.3-0.2-0.4-0.1
		c-0.3-0.2-0.5-0.2-0.8-0.3c-0.3-0.2-0.5-0.3-0.8-0.3c-0.3-0.2-0.5-0.3-0.8-0.3c-0.1-0.1-0.3-0.2-0.4-0.1l-21,16.2l-35.1-11.1
		c-0.3,0.1-0.6,0.1-0.9,0.2C28.1,284.5,27.7,284.7,27.3,284.8z"/>
	<path class="st0" d="M160.9,295.9l-1.1,0l0.3,2.8c0.1,0,0.2,0.1,0.2,0.2l0.1,0c0.2,0,0.8,0.2,1.5,0.3c0.1,0,0.1,0,0.2,0l-0.4-3.3
		l-0.6-0.1L160.9,295.9z"/>
	<path class="st0" d="M164,345.1L164,345.1c0,0.1,0.1,0.2,0.1,0.2l11.4,7.1l0-0.1l0.1,0l2.1,0.3l1.2,0.2c-0.3,0-1.5-0.7-3.1-1.7
		c-2.1-1.4-5.1-3.1-7.7-4.8c-0.4-0.2-0.7-0.5-1.1-0.7c-0.4-0.2-0.7-0.5-1-0.6c-0.4-0.2-0.6-0.4-1-0.6c-0.4-0.2-0.6-0.4-1-0.6
		c-0.4-0.2-0.6-0.4-1-0.6c-0.1,0-0.1-0.1-0.2-0.2l0.1,1.3L164,345.1z"/>
	<path class="st0" d="M159.7,295.9l-1.3-0.1c-0.1,0-0.3,0-0.5-0.1l0.3,1.9c0.4,0.1,0.8,0.3,1.1,0.6c0.3,0.2,0.6,0.4,0.8,0.6
		L159.7,295.9L159.7,295.9z"/>
	<path class="st0" d="M158.9,305.5l2.9,26.3c0.7-0.4,1.4-0.8,1.8-1L161,307c-0.1-0.1-0.2-0.1-0.3-0.2
		C160.1,306.4,159.6,306,158.9,305.5z"/>
	<path class="st0" d="M24.1,285.8c-0.4,0.2-0.8,0.2-1.1,0.4c-0.3,0.1-0.7,0.2-1,0.3l45.1,14.1l24.4-18.9l0,0c-0.2,0-0.4-0.1-0.7-0.3
		c-0.2,0-0.4-0.1-0.7-0.3c-0.2,0-0.5-0.2-0.7-0.3c-0.2,0-0.5-0.2-0.7-0.3c-0.1-0.1-0.2-0.1-0.3-0.1L65.6,298l-40.3-12.6
		c-0.1,0-0.2,0-0.2,0.1C24.9,285.5,24.4,285.6,24.1,285.8z"/>
	<path class="st0" d="M156,295.4l0.2,1.5c0.2,0,0.4,0.1,0.6,0.2c0.4,0.1,0.8,0.3,1.2,0.5l0.1,0l-0.3-1.9c-0.3,0-0.4,0-0.7-0.1
		C156.7,295.5,156.4,295.4,156,295.4z"/>
	<path class="st0" d="M167.1,348.3c0.4,0,0.8,0.1,0.8,0.1c0,0.2-0.1,0.4,0,0.6c0.1,0.6,0.7,1,1.5,1.2c0.8,0.3,1.5,0.3,1.5,0.3
		c0.2,1.3,1.4,1.3,2.1,1.3c0.3,0,0.6,0,0.6,0c0.2,0.4,0.8,1.1,1.2,1.5c0.2,0.3,0.5,0.5,0.5,0.5l-0.1-0.1l0.3-0.9l-11.4-7.2
		C164.3,347.4,166,348,167.1,348.3z"/>
	<path class="st0" d="M157.8,304.8c-0.2-0.2-0.5-0.3-0.8-0.5l3.1,28.3c0.6-0.2,1.3-0.5,1.7-0.8l-2.8-26.3l-0.1,0
		C158.5,305.3,158.2,305,157.8,304.8z"/>
	<path class="st0" d="M20.5,286.9c-0.4,0.2-0.8,0.3-1.2,0.5c-0.2,0.1-0.4,0.2-0.6,0.2l49.5,15.5L94.4,283c-0.2-0.1-0.4-0.1-0.5-0.3
		c-0.2-0.1-0.3-0.1-0.5-0.3c-0.2-0.1-0.4-0.1-0.5-0.3c-0.2-0.1-0.4-0.1-0.5-0.3c-0.2-0.1-0.4-0.1-0.5-0.3l-24.5,18.9l-45.1-14.1
		c0,0.1-0.1,0-0.1,0.1C21.3,286.5,21,286.7,20.5,286.9z"/>
	<path class="st0" d="M162.2,342.4c0.4-0.2,0.5-0.4,0.6-0.6c0.1-0.2,0-0.3-0.2-0.5c-0.3-0.2-0.6-0.3-1.1-0.4c-0.1,0-0.3,0-0.5-0.1
		l0.2,2l0-0.1l0.3,0.3l0.8,0.7l0.8,0.7l0,0l-0.1-1.3c-0.3-0.2-0.5-0.3-0.7-0.5C162.2,342.5,162.2,342.4,162.2,342.4z"/>
	<path class="st0" d="M160.2,340.7c-0.4-0.1-0.7-0.1-1-0.1l0.3,3.2l0.3,0.2l1.4-1l-0.2-2C160.7,340.7,160.5,340.7,160.2,340.7z"/>
	<path class="st0" d="M155.5,303.4c-0.1-0.1-0.2-0.2-0.4-0.2l3.4,30.1c0.2-0.1,0.4-0.2,0.6-0.2c0.3-0.1,0.8-0.2,1.1-0.4l-3.1-28.3
		c-0.1-0.1-0.2-0.2-0.4-0.2C156.3,303.9,155.8,303.7,155.5,303.4z"/>
	<path class="st0" d="M18.7,287.6c-0.2,0.1-0.4,0.2-0.6,0.3c-0.4,0.2-0.8,0.3-1.3,0.5c-0.2,0.2-0.6,0.3-0.8,0.4l53.3,16.8l29.4-22.7
		c-0.1,0-0.1,0-0.3,0c-0.3,0-0.6,0-0.8,0c-0.2,0-0.6,0-0.7,0.1c-0.3,0.1-0.5,0.1-0.7,0.1c-0.2,0.1-0.4,0.2-0.5,0.3
		c0,0.1,0,0.1,0,0.2c0,0-0.3-0.2-0.8-0.3c-0.2,0-0.5-0.3-0.8-0.3l-26.1,20.1L18.7,287.6z"/>
	<path class="st0" d="M154.6,295.3c-0.1,0-0.3,0-0.4-0.1l0.1,1.3c0.4,0.1,0.7,0.1,1.2,0.1c0.2,0,0.4,0.1,0.6,0.2l-0.2-1.5
		c-0.1,0-0.1,0-0.1,0C155.5,295.4,155.1,295.4,154.6,295.3z"/>
	<path class="st0" d="M158.6,340.5c-0.3,0.1-0.7,0.4-1,0.4l0.3,2.4l1.1,0.3l0.1,0l0.6,0.2l-0.3-3.2c-0.1,0-0.3,0-0.4-0.1
		C158.6,340.5,158.6,340.5,158.6,340.5z"/>
	<path class="st0" d="M14.5,289.9c-0.2,0.1-0.2,0.2-0.3,0.4l56.4,17.7l32.2-24.7c-0.1,0-0.4-0.1-0.5-0.1c-0.3,0-0.6-0.1-1-0.1
		c-0.3,0-0.6-0.1-0.9,0c-0.3,0-0.6,0-0.9,0c-0.3,0-0.4-0.1-0.6,0l-29.4,22.7l-53.3-16.8c-0.1,0.1-0.2,0.2-0.4,0.3
		C15.1,289.2,14.8,289.5,14.5,289.9z"/>
	<path class="st0" d="M152.5,295.2l0.1,1.3c0.1,0,0.3,0,0.5,0c0.4,0.1,0.8,0.1,1.2,0l0,0l-0.1-1.3c-0.3,0-0.5,0-0.8-0.1
		C153.2,295.2,152.8,295.3,152.5,295.2z"/>
	<path class="st0" d="M153.3,302.2l3.5,31.6c0.6-0.1,1.1-0.4,1.7-0.5l-3.4-30.1c-0.2-0.2-0.5-0.3-0.9-0.4
		C154,302.6,153.6,302.4,153.3,302.2z"/>
	<path class="st0" d="M13.9,291.6l0.1,0.1l0.2,0.3c0,0-0.1,0-0.2,0.1l57.6,18l31.5-24.3c-0.1,0-0.2,0-0.3,0l-0.2-0.4
		c0.2-0.1,0.6,0,0.8-0.1c0.1,0,0.3-0.1,0.4,0l2.3-1.8c-0.3,0-0.7-0.1-1.1-0.1c-0.3,0-0.7-0.1-1.1-0.1c-0.3,0-0.7-0.1-1-0.1
		c-0.1,0-0.3,0-0.4-0.1l-32.2,24.7L14,290.2C13.8,290.7,13.6,291.2,13.9,291.6z"/>
	<path class="st0" d="M152.1,301.7c-0.2-0.1-0.4-0.1-0.5-0.3l3.6,32.8c0.4-0.2,0.9-0.2,1.3-0.3c0.1,0,0.2-0.1,0.3-0.1l-3.5-31.6
		l-0.1,0C152.8,302,152.5,301.9,152.1,301.7z"/>
	<path class="st0" d="M151.2,295.2c-0.1,0-0.3,0-0.3,0l0.2,1.5c0.3,0,0.6-0.1,1-0.1c0.2,0,0.4,0,0.7,0l-0.1-1.3c-0.1,0-0.1,0-0.2,0
		C151.9,295.2,151.6,295.2,151.2,295.2z"/>
	<path class="st0" d="M156.2,341.1c-0.1,0-0.2,0-0.3,0l0.2,1.8c0.1,0,0.2,0,0.3,0c0.6,0.1,0.9,0.1,0.9,0.1l0.4,0.1l0.1,0l-0.3-2.4
		C157.2,341,156.7,341,156.2,341.1z"/>
	<path class="st0" d="M149.2,295.2l0.1,1.6c0.1,0,0.2,0,0.3-0.1c0.4-0.1,0.7-0.1,1.1-0.2l0.1,0l-0.2-1.5c-0.3,0-0.5,0-0.8,0
		C149.8,295.2,149.6,295.2,149.2,295.2z"/>
	<path class="st0" d="M150,300.8c-0.1,0-0.1-0.1-0.2-0.1l3.7,34.1c0.3-0.1,0.5-0.2,0.8-0.2c0.3,0,0.5-0.2,0.8-0.2l-3.6-32.8
		c-0.1-0.1-0.3-0.1-0.5-0.2C150.7,301,150.4,300.9,150,300.8z"/>
	<path class="st0" d="M105.3,285.3c0.3,0,0.6,0.1,1,0c0.4,0.1,0.8,0,1,0.1c0.1,0,0.3,0,0.4,0.1l2-1.6c-0.3,0-0.6,0-0.8,0
		c0,0-0.1,0-0.3,0c-0.3,0-0.7-0.1-1.2-0.2c-0.3,0-0.7-0.1-1.1-0.2c0,0,0,0-0.1,0l-2.3,1.8c0.1,0,0.3,0,0.4,0
		C104.6,285.3,104.9,285.3,105.3,285.3z"/>
	<path class="st0" d="M12.9,293.7l59.8,18.8l33.4-25.8c-0.1,0-0.1,0-0.1,0c-0.4-0.1-0.7-0.2-1.1-0.3c-0.4-0.1-0.7-0.2-1-0.3
		c-0.3-0.2-0.5-0.1-0.7-0.2l-31.5,24.3l-57.6-18c-0.2,0.2-0.6,0.5-0.9,1C13,293.2,12.9,293.5,12.9,293.7z"/>
	<path class="st0" d="M154.3,341.2l0.2,1.5c0.2,0,0.5,0.1,0.7,0.2c0.4,0.1,0.7,0.1,0.9,0.1l-0.2-1.8c-0.4,0-0.9,0-1.3,0.1
		C154.5,341.2,154.4,341.2,154.3,341.2z"/>
	<path class="st0" d="M152.7,341l0.1,1.3c0.4,0.1,0.7,0.2,1.1,0.3c0.1,0,0.3,0,0.5,0.1l-0.2-1.5c-0.3,0-0.6-0.1-1-0.1
		C153.2,341,152.9,341.1,152.7,341z"/>
	<path class="st0" d="M12.5,295.2c0,0.1,0,0.1,0.1,0.2l61.1,19.2l35.3-27.2c-0.2,0-0.4-0.1-0.7-0.2c-0.4-0.1-0.8-0.2-1.2-0.2
		c-0.3,0-0.7-0.2-1-0.3l-33.4,25.8l-59.8-18.8C12.7,294.1,12.6,294.6,12.5,295.2z"/>
	<path class="st0" d="M108.7,285.5c0.2-0.1,0.4-0.2,0.7-0.1c0.3-0.1,0.7-0.1,1-0.1c0.3,0,0.8,0,1.1,0c0,0,0,0,0.1,0l1.6-1.3l-0.1,0
		c-0.4-0.1-0.8-0.1-1.3-0.2c-0.4-0.1-0.8-0.1-1.3,0c-0.3,0-0.8,0-1.1,0.1l0,0l-2,1.6c0.3,0,0.5,0.1,0.7,0.1
		C108.5,285.5,108.7,285.5,108.7,285.5z"/>
	<path class="st0" d="M148,295.3c-0.1,0-0.2,0-0.3,0.1l0.4,4.1l0.3-1.1l0.3-1.3c0.2,0,0.4-0.2,0.8-0.2l-0.1-1.6c-0.1,0-0.1,0-0.3,0
		C148.7,295.3,148.3,295.3,148,295.3z"/>
	<path class="st0" d="M149.1,300.3c-0.3-0.2-0.6-0.2-0.8-0.3l3.9,35.1c0.2,0,0.4-0.1,0.5-0.1c0.3-0.1,0.7-0.1,1-0.2l-3.7-34.1
		C149.6,300.6,149.3,300.5,149.1,300.3z"/>
	<path class="st0" d="M114.1,285.6c0.3,0,0.5,0.1,0.7,0.1l1.4-1.1c-0.1,0-0.2,0-0.4-0.1c-0.4,0-0.9-0.2-1.4-0.2
		c-0.4-0.1-0.8-0.1-1.3-0.1l-1.6,1.3c0.4,0.1,0.8,0.1,1.2,0C113.2,285.5,113.6,285.5,114.1,285.6z"/>
	<path class="st0" d="M151.3,340.7L151.3,340.7l0.1,1.4c0.1,0,0.3,0.2,0.4,0.1c0.4,0.1,0.7,0.2,1.1,0.3l0,0l-0.1-1.3
		c-0.1,0-0.3,0-0.5-0.1C152,340.8,151.5,340.7,151.3,340.7z"/>
	<path class="st0" d="M148.2,299.5l-0.4-4.1c-0.3,0.1-0.5,0.1-0.7,0.1c-0.3,0.1-0.5,0.2-0.7,0.2l4.3,39.6c0.2,0,0.3-0.1,0.5-0.1
		c0.4-0.1,0.7-0.1,1.1-0.2l-3.9-35.1c-0.1,0-0.1-0.1-0.1-0.1L148.2,299.5z"/>
	<path class="st0" d="M74.8,316.7l37-28.6c-0.4-0.1-0.7-0.1-1-0.3c-0.4-0.1-0.8-0.2-1.2-0.3c-0.1,0-0.4-0.1-0.5-0.1l-35.3,27.2
		l-61.1-19.2c0,0.6,0.2,1.3,0.6,2L74.8,316.7z"/>
	<path class="st0" d="M117.9,286.2l1.1-0.8c-0.3-0.1-0.7-0.2-1.1-0.3c-0.5-0.2-1-0.3-1.6-0.4l-1.4,1.1c0.2,0,0.4,0.1,0.6,0.1
		C116.3,285.9,117.2,286.1,117.9,286.2z"/>
	<path class="st0" d="M12.8,298.6c0,0.1-0.1,0.1-0.1,0.2c0,0.1,0,0.1,0,0.1l63,19.8l38.7-29.9c-0.4-0.1-0.7-0.2-1-0.3
		c-0.4-0.1-0.8-0.2-1.4-0.3c-0.1,0-0.2,0-0.3-0.2l-37,28.6l-61.4-19.3c0.1,0.1,0.1,0.3,0.2,0.4C13.2,298.1,13,298.3,12.8,298.6z"/>
	<path class="st0" d="M149.6,340.1l0.2,1.5c0.3,0.2,0.7,0.1,0.9,0.2c0.2,0,0.4,0.1,0.6,0.2l-0.1-1.3c-0.3-0.2-0.6-0.2-0.8-0.2
		C150.1,340.2,149.9,340.2,149.6,340.1z"/>
	<path class="st0" d="M144.9,296.3L144.9,296.3l4.3,39.2c0.2,0,0.3-0.1,0.5-0.1c0.4-0.1,0.7-0.1,1-0.2l-4.4-39.6
		c-0.1,0-0.2,0.1-0.3,0.1C145.5,295.9,145.2,296.1,144.9,296.3z"/>
	<path class="st0" d="M148.7,339.7c-0.2,0-0.4-0.1-0.5-0.3l0.3,1.7c0.2,0,0.3,0.1,0.6,0.2c0.3,0.2,0.7,0.1,0.9,0.2l0,0l-0.2-1.5
		c-0.1,0-0.1,0-0.1-0.1C149.2,339.9,149.1,339.9,148.7,339.7z"/>
	<path class="st0" d="M147.7,335.9l0.5-0.3c0.3-0.1,0.5-0.1,0.9-0.1l-4.3-39.1l-1.2,1.8L147.7,335.9z"/>
	<path class="st0" d="M118.1,286.2c0.7,0.2,1.3,0.3,1.5,0.3c0.1,0,0.1,0,0.1,0c-0.1,0.2-0.1,0.7-0.1,1.1l2.3-1.7
		c-0.4-0.1-0.7-0.2-1.1,0c0,0-0.1,0-0.1-0.1c-0.2,0-0.6-0.2-1.2-0.5c-0.1,0-0.1,0-0.2,0l-1.1,0.8C117.9,286.3,118,286.2,118.1,286.2
		z"/>
	<path class="st0" d="M12.3,300.5l64.2,20.1l40.4-31.2c-0.7-0.2-1.5-0.4-2.3-0.6c-0.1,0-0.2,0-0.3-0.2l-38.7,29.9l-63-19.8
		C12.4,299.5,12.3,300,12.3,300.5z"/>
	<path class="st0" d="M119.6,289l-1.1,0.8c-0.4-0.1-0.8-0.2-1.2-0.3c-0.1,0-0.1,0-0.2,0l-40.4,31.2l-64.2-20.1c0,0.1,0.1,0.2,0,0.3
		c0,0.6,0.2,1,0.4,1.4l64.8,20.4l45.8-35.4c-0.2-0.2-0.4-0.5-0.6-0.6c-0.2-0.3-0.6-0.4-0.9-0.6c-0.1,0-0.1,0-0.2,0l-2.3,1.7
		c0,0.1,0,0.1,0.1,0.2C119.5,288.2,119.5,288.6,119.6,289z"/>
	<path class="st0" d="M142.7,298c-0.2,0-0.4-0.1-0.6-0.2l4.7,42.8c0.1,0,0.2,0,0.3,0.2c0.3,0.2,0.6,0.2,0.8,0.3
		c0.1,0.1,0.2,0,0.3,0.1l-0.3-1.7c-0.1,0-0.1,0-0.1-0.1c-0.3-0.2-0.5-0.3-0.7-0.3c-0.4-0.1-0.5-0.3-0.6-0.3l0,0l0-0.7l0-0.7l0-0.7
		l1-0.7l-4.1-37.8l0,0.1C143.3,298.2,143,298.1,142.7,298z"/>
	<path class="st0" d="M141.1,297.6c-0.1,0-0.2,0-0.4-0.1l4.7,42.6c0.1,0,0.1,0.1,0.2,0.2c0.2,0.2,0.5,0.2,0.8,0.3
		c0.1,0.1,0.3,0.1,0.5,0.2l-4.7-42.8c-0.1,0-0.1,0-0.3-0.2C141.7,297.7,141.5,297.6,141.1,297.6z"/>
	<path class="st0" d="M13.6,303.8c-0.1,0.1-0.2,0.2-0.3,0.2l65.1,20.4l46-35.5l0,0c-0.1-0.3-0.3-0.6-0.5-0.9
		c-0.2-0.2-0.3-0.6-0.5-0.8l-0.1,0l-45.8,35.4l-64.8-20.4c0,0.1,0.1,0.2,0.1,0.3C13.2,303.2,13.6,303.8,13.6,303.8z"/>
	<path class="st0" d="M13.6,305.6l65.7,20.6l45.9-35.4c0-0.1-0.1-0.2-0.1-0.2c-0.1-0.3-0.2-0.6-0.3-0.8c-0.1-0.3-0.2-0.5-0.3-0.8
		l-46,35.5L13.4,304c0,0.1,0,0.1-0.1,0.1C13.1,304.5,13.2,305.1,13.6,305.6z"/>
	<path class="st0" d="M140.5,297.3c-0.1,0-0.2,0-0.3-0.2c0,0,0.1,0.5,0.1,1.1c0.1,1.3,0.1,3.4-0.1,4l4,36.9c0.1,0.1,0.2,0.2,0.4,0.2
		c0.2,0.1,0.4,0.2,0.6,0.4c0.1,0.1,0.2,0.2,0.4,0.1l-4.7-42.6C140.7,297.4,140.6,297.4,140.5,297.3z"/>
	<path class="st0" d="M15,307.2c0.2,0.2,0.3,0.4,0.6,0.5l64.5,20.2l46.6-35.9c-0.2,0-0.4,0-0.6-0.1c-0.2,0-0.4-0.1-0.6,0
		c0,0-0.1-0.2-0.2-0.5c-0.1-0.2-0.1-0.3-0.2-0.6l-45.9,35.4l-65.7-20.6c0.1,0,0.1,0.1,0.2,0.1C14,306.2,14.5,306.7,15,307.2z"/>
	<path class="st0" d="M139.9,302.4c0,0-0.3,0.3-0.7,0.5c-0.1,0.1-0.2,0.2-0.3,0.1l3.9,34.8l0,0c0.1,0.1,0.2,0.3,0.3,0.4
		c0.1,0.1,0.2,0.3,0.4,0.4c0.2,0.1,0.3,0.3,0.5,0.4c0.1,0,0.1,0.1,0.2,0.1l-4-37C140,302.3,140,302.4,139.9,302.4z"/>
	<path class="st0" d="M137.8,302.7c-0.2-0.4-0.3-0.9-0.2-1.8c0,0,0.4-1.3,0.4-2.6c0-0.6-0.1-1.2-0.4-1.7c-0.1-0.3-0.3-0.6-0.5-0.8
		c-0.1,0-0.1-0.1-0.2-0.1l4.4,40.4c0.2,0,0.4,0,0.6,0l0.4,0.3c0,0.2,0,0.4,0,0.6c0.1,0.2,0.1,0.3,0.2,0.5c0.1,0.1,0.1,0.3,0.2,0.4
		l-3.7-34.8c-0.1,0.1-0.3,0.1-0.5,0.1C138.1,303.2,138,303,137.8,302.7z"/>
	<path class="st0" d="M15.5,307.7c0.2,0.3,0.6,0.5,0.9,0.7c0.5,0.4,1.1,0.8,1.7,1.3c0.2,0.2,0.5,0.4,0.7,0.5L81,329.7l48-37
		c-0.3-0.2-0.6-0.2-0.8-0.2c-0.4-0.1-0.7-0.1-0.9-0.2c-0.1,0-0.3,0-0.4,0L80.1,328L15.5,307.7z"/>
	<path class="st0" d="M21.5,311.9c0.5,0.3,1,0.6,1.4,0.9l58.8,18.4l49.3-37.9c-0.1-0.1-0.2,0-0.3-0.1c-0.3-0.2-0.6-0.2-0.8-0.3
		c-0.3-0.2-0.6-0.2-0.8-0.3c0,0,0,0-0.1,0l-48,37l-62.2-19.5c0.4,0.2,0.6,0.4,1,0.7C20.3,311.2,20.9,311.6,21.5,311.9z"/>
	<path class="st0" d="M135.8,295.3c-0.1,0-0.1-0.1-0.2,0c0,0,0,0-0.1,0l4.5,40.9l0.1,0c0.3,0,0.6,0,0.9,0c0.1,0,0.2,0,0.3,0
		l-4.5-40.4c-0.1-0.1-0.2-0.2-0.4-0.3C136.4,295.4,136.1,295.4,135.8,295.3z"/>
	<path class="st0" d="M24.9,314.1c0.5,0.3,1.1,0.7,1.7,1c0.4,0.3,0.9,0.4,1.2,0.7L82.4,333l50.5-38.9l-0.1,0c-0.2,0-0.5-0.2-0.7-0.3
		c-0.3-0.2-0.5-0.2-0.8-0.3c-0.1-0.1-0.3-0.2-0.4-0.1l-49.3,37.9l-58.8-18.4c0.1,0,0.2,0.1,0.2,0.2
		C23.7,313.4,24.3,313.7,24.9,314.1z"/>
	<path class="st0" d="M134.8,294.8c-0.1-0.1-0.3-0.2-0.3-0.1l3.9,35.8c0.2,0.1,0.2,0.3,0.3,0.4c0.1,0,0,0.1,0,0.1
		c0.1,0,0.2,0.1,0.1,0.3c0,0.1,0.1,0.2,0,0.3c0,0.1,0.1,0.2,0,0.3c0,0.1,0.1,0.2,0,0.3c0,0.1,0.1,0.2,0,0.3c0,0.1,0,0.2,0,0.3
		c0,0.1,0,0.1,0,0.3c0,0.1,0,0.3,0,0.4c0,0.1,0,0.3,0,0.4c0,0.1,0,0.1,0,0.2l0.2,1.7c0.1,0,0.3,0,0.4,0c0.3,0,0.5,0,0.7,0l-4.5-40.9
		C135.5,295.1,135.2,295,134.8,294.8z"/>
	<path class="st0" d="M138.7,335.2c0,0.2-0.1,0.4-0.1,0.5c-0.1,0.2-0.1,0.4-0.1,0.4c0.1,0,0.1,0,0.1,0c0.1,0,0.2,0,0.3,0l-0.2-1.7
		c0,0.1,0,0.2,0,0.3C138.8,334.9,138.8,335,138.7,335.2z"/>
	<path class="st0" d="M133.5,294.3c-0.2,0-0.4-0.1-0.6-0.2l-50.4,38.8l-54.7-17.2c0.1,0.1,0.2,0.2,0.4,0.3c0.5,0.3,1.1,0.6,1.6,0.9
		c0.6,0.3,1.1,0.6,1.6,0.9c0.9,0.4,1.4,0.7,1.5,0.8c0.1,0,0.1,0.1,0.1,0.1c0.1,0.1,0.2,0.1,0.3,0.1l49.8,15.6l50.1-38.7l3.7,33.8
		c0.3,0,0.5,0.2,0.8,0.3c0.2,0.1,0.3,0.3,0.5,0.5c0,0,0,0,0.1,0l-3.9-35.8c-0.1,0-0.2-0.1-0.3-0.2
		C134,294.5,133.7,294.4,133.5,294.3z"/>
	<path class="st0" d="M36.4,320.1c0.5,0.3,1.1,0.5,1.8,0.8c0.6,0.2,1.1,0.5,1.7,0.7c0.6,0.2,1.1,0.5,1.7,0.7
		c0.6,0.2,1.1,0.4,1.7,0.7c0.6,0.2,1.1,0.4,1.6,0.6c0.6,0.2,1.1,0.4,1.6,0.6c0.6,0.2,1,0.4,1.6,0.5l10.5,3.3c0.1,0,0.1,0,0.2,0
		c0.5,0.2,1,0.4,1.4,0.4c0.5,0.2,0.9,0.2,1.4,0.4c0.5,0.2,0.9,0.2,1.4,0.3c0.4,0.1,0.9,0.2,1.4,0.3c0.4,0.1,0.9,0.2,1.4,0.3
		c0.4,0.1,0.9,0.2,1.3,0.3c0.4,0.1,0.9,0.2,1.3,0.3l-0.1,0c0,0.1,0.1,0.3,0.3,0.5c0.1,0,0.1,0.1,0.2,0.1l15.4,4.8l48.6-37.3
		l3.7,33.3c0-0.1,0-0.1,0-0.2c0-0.1,0-0.3,0-0.3c0-0.1,0-0.3,0.1-0.4c0-0.1,0.1-0.2,0.1-0.4c0-0.2,0.1-0.3,0.1-0.4
		c0.1-0.2,0.3-0.3,0.4-0.2l-3.7-33.8l-50.1,38.7l-49.8-15.7c0.4,0.1,0.8,0.4,1.2,0.6C35.2,319.7,35.8,319.9,36.4,320.1z"/>
	<path class="st0" d="M136.5,333.1c0-0.1-0.1-0.2,0-0.3c0-0.1-0.1-0.2,0-0.3c0-0.1-0.1-0.2,0-0.3c0-0.1-0.1-0.3,0-0.3l0.1,1.6
		C136.5,333.3,136.5,333.3,136.5,333.1z"/>
	<path class="st0" d="M84,336l-15.4-4.8c0.1,0.1,0.3,0.2,0.5,0.3c0.2,0.1,0.4,0.3,0.6,0.4s0.5,0.2,0.7,0.3c0.2,0.1,0.5,0.3,0.8,0.3
		c0.3,0.2,0.5,0.3,0.8,0.3c0.3,0.2,0.5,0.3,0.8,0.3c0.3,0.2,0.5,0.2,0.8,0.3c0.3,0.2,0.5,0.2,0.8,0.3c0.3,0.2,0.5,0.2,0.8,0.3
		s0.5,0.2,0.8,0.3s0.5,0.2,0.7,0.3c0.3,0.2,0.5,0.2,0.7,0.3c0.3,0.2,0.6,0.2,0.7,0.3c0.2,0,0.3,0.2,0.3,0.2l0,0.1l6.9,2.2l47.2-36.6
		L136,336c0-0.1,0-0.1,0.1-0.1c0.1-0.2,0.3-0.4,0.3-0.6c0-0.2,0.1-0.3,0.2-0.5c0-0.1,0-0.3,0-0.4c0-0.1,0-0.3,0-0.4
		c0-0.2,0-0.3,0-0.6l0,0l-0.1-1.6l0,0c0-0.1,0-0.1,0-0.1l0-0.1l-3.7-33.2L84,336z"/>
	<path class="st0" d="M49.5,325.2c0.6,0.2,1,0.4,1.6,0.5c0.5,0.2,1,0.4,1.5,0.5c0.5,0.2,1,0.4,1.5,0.4c0.5,0.2,1,0.4,1.5,0.4
		c0.5,0.2,1,0.4,1.5,0.4c0.4,0.1,0.8,0.2,1.3,0.4L48,324.6l0.1,0C48.4,324.8,49,325,49.5,325.2z"/>
	<path class="st0" d="M77.3,335.8c0,0.1-0.1,0.2-0.3,0.3l5.4,1.7c1.1-0.1,2.2-0.3,3.2-0.4c0.7-0.1,1.3-0.2,1.9-0.2l43.7-33.7
		l3.7,33.2l0.1,0c0.3-0.1,0.6-0.2,0.8-0.5l-3.8-35l-47.3,36.5l-6.9-2.2c0,0.1,0,0.1-0.1,0.2C77.6,335.6,77.4,335.7,77.3,335.8z"/>
	<path class="st0" d="M76.6,336.7c-0.1,0.1-0.3,0.2-0.3,0.4l0,0l3.5,1.1c0.7-0.1,1.5-0.2,2.3-0.3c0.1,0,0.2,0,0.3-0.1l-5.4-1.7
		c0,0.1,0,0.1,0,0.1C76.8,336.5,76.6,336.6,76.6,336.7z"/>
	<path class="st0" d="M87.5,337.2c0.5-0.1,0.9-0.2,1.3-0.1c0.5-0.1,1.1-0.1,1.5-0.2l40-30.9l3.4,30.8c0.1,0,0.2,0,0.2,0
		c0.1,0,0.1,0,0.1,0c0.3,0,0.4,0,0.7,0l-3.7-33.3L87.5,337.2z"/>
	<path class="st0" d="M75.6,337.8c0,0.1,0,0.1-0.1,0.1l1.9,0.6c0.2,0,0.4-0.1,0.5-0.1c0.5-0.1,1.2-0.2,1.9-0.3l-3.5-1.1
		c-0.1,0.1-0.2,0.2-0.3,0.4C75.8,337.7,75.7,337.8,75.6,337.8z"/>
	<path class="st0" d="M93.2,336.5l36.5-28.1l3.1,28.6c0.2,0,0.4-0.1,0.6,0c0.2,0,0.4-0.1,0.5-0.1l-3.4-30.9l-40,30.9
		c0.5-0.1,1-0.2,1.5-0.2C92.5,336.6,92.9,336.5,93.2,336.5z"/>
	<path class="st0" d="M75.3,338.2c-0.2,0.2-0.3,0.4-0.5,0.5c0,0.1,0,0.1-0.2,0.1l0.4,0.1c0.1,0,0.2,0,0.2,0c0.2,0,0.3-0.1,0.5-0.1
		c0.2,0,0.3-0.1,0.5-0.1c0.4-0.1,0.7-0.1,1.1-0.2l-1.9-0.6C75.5,338.1,75.4,338.2,75.3,338.2z"/>
	<path class="st0" d="M93.7,336.5c0,0.1,0.1,0.2,0.2,0.2c0,0.1,0.1,0.1,0.2,0.1c0.1,0,0.1,0.1,0.2,0.2c0.1,0,0.2,0.1,0.2,0.2
		c0,0,0.1,0,0.1,0.1l34.6-26.7l3,26.5c0.3,0,0.5-0.1,0.7-0.1c0.1,0,0.2,0,0.3-0.1l-3.1-28.6l-36.6,28.2
		C93.4,336.4,93.6,336.4,93.7,336.5C93.6,336.4,93.7,336.5,93.7,336.5z"/>
	<path class="st0" d="M74,339.3L74,339.3L74,339.3c0.2,0,0.2-0.1,0.3-0.1C74.2,339.2,74,339.3,74,339.3z"/>
	<path class="st0" d="M94.9,337.5c0.1,0,0.2,0,0.3,0.1c0.1,0.1,0.2,0,0.3,0.1c0.1,0.1,0.2,0,0.3,0.1l0,0l32.5-25l2.7,24.3l0.1,0
		c0.3,0,0.5-0.1,0.7-0.1l0.1,0l-3-26.5l-34.6,26.7c0.1,0,0.1,0.1,0.2,0.1C94.9,337.5,94.8,337.4,94.9,337.5z"/>
	<path class="st0" d="M74.4,339.2L74.4,339.2L74.4,339.2c0.2,0,0.3-0.1,0.5-0.2c0.1,0,0.2,0,0.3-0.1l-0.4-0.1c0,0.1,0,0.1,0,0.1
		C74.6,339,74.4,339.1,74.4,339.2z"/>
	<path class="st0" d="M95.9,337.8c0.1,0,0.2,0,0.3,0.2c0.1,0.1,0.2,0,0.3,0.1c0.1,0.1,0.2,0,0.4,0.1c0.2,0,0.2,0,0.4,0.1
		c0.1,0,0.2,0,0.3,0.2l2.6-2l-0.1,0c0,0-0.1,0,0-0.1l0.1,0l0.1,0l27.5-21.3l2.5,22.3c0.1,0,0.3,0,0.3,0c0.2,0,0.4-0.1,0.6,0
		l-2.8-24.4L95.9,337.8z"/>
	<path class="st0" d="M100.6,336.2c0.1,0,0.1,0,0.3,0c0.1,0,0.1,0,0.3,0c0.1,0,0.1,0,0.3,0c0.1,0,0.1,0,0.3,0c0.1,0,0.1,0,0.3,0
		c0.1,0,0.1,0,0.3,0l25-19.4l2.2,20.3c0.2,0,0.3,0,0.6,0c0.1,0,0.2,0,0.3-0.1l-2.5-22.3L100.1,336c0.1,0,0.1,0,0.1,0
		C100.4,336.3,100.5,336.3,100.6,336.2z"/>
	<path class="st0" d="M97.8,338.4c0.1,0,0.2,0,0.3,0c0.1,0,0.2,0,0.3,0c0.1,0,0.1,0,0.2,0c0.1,0,0.1,0,0.1,0c0.1,0,0.1,0,0.1,0
		l0.1,0l2.2-1.8l-1.3-0.6l-2.6,2c0,0,0,0,0.1,0C97.6,338.3,97.7,338.3,97.8,338.4z"/>
	<path class="st0" d="M99.2,338.7C99.3,338.7,99.3,338.7,99.2,338.7c0.2,0,0.2,0,0.2,0c0.1,0,0.1,0,0.1,0c0.1,0,0.1,0,0.1,0
		c0.1,0,0.1,0,0.1,0c0.1,0,0.1,0,0.1,0c0.1,0,0.1,0,0.1,0c0.1,0,0.1,0,0.1,0l0.1,0l0.1,0l0.1,0l0.1,0l2.1-1.6
		c-0.1,0-0.3-0.2-0.4-0.1c-0.2,0-0.4-0.1-0.6-0.2l-0.4-0.1l-2.2,1.8L99.2,338.7L99.2,338.7z"/>
	<path class="st0" d="M102.1,336.3C102.1,336.3,102.2,336.3,102.1,336.3l0.3,0.2l0-0.1l0.1,0l0.1,0l0.1,0l0.1,0l0.1,0l0.1,0l0.1,0
		l0.1,0l0.1,0l0.1,0l0.1,0l0.1,0l0.1,0l0.1,0l0.1,0l0.1,0l0.1,0l0.1,0c0,0,0,0,0.1,0c0,0,0,0,0.1,0c0,0,0,0,0.1,0l22.3-17.2l2,18.3
		c0.1,0,0.1,0,0.2,0c0.2,0,0.4-0.1,0.6,0l0.1,0l-2.3-20.3L102.1,336.3z"/>
	<path class="st0" d="M100.8,339L100.8,339l0.2,0l0.1,0l0.1,0l0.1,0l0.1,0l0.1,0l0.1,0l0.1,0l0.1,0l0.1,0l0.1,0l0.1,0l0.1,0l0.1,0
		l0.1,0c0,0,0,0,0.1,0c0,0,0,0,0.1,0c0,0,0,0,0.1,0c0.1,0,0.1,0,0.1,0l1.9-1.5l0,0c0,0,0,0-0.1,0c0,0,0,0-0.1,0c0,0,0,0-0.1,0
		c0,0,0,0-0.1,0c0,0,0,0-0.1,0c0,0,0,0-0.1,0c0,0,0,0-0.1,0l-0.1,0l-0.1,0l-0.1,0l-0.1,0l-0.1,0l-0.1,0l-0.1,0l-0.1,0l-0.1,0l-0.1,0
		l-0.1,0l-0.1,0l-0.1,0l-0.1,0c0,0,0,0-0.1,0l-0.1,0l-2.1,1.6l0,0C100.8,339,100.8,339,100.8,339z"/>
	<path class="st0" d="M104,336.5C104.1,336.4,104.1,336.4,104,336.5C104.1,336.5,104.1,336.5,104,336.5c0.1,0,0.1,0,0.2,0
		c0,0,0,0,0.1,0l0.1,0l0.1,0l0.1,0l0.1,0l0.1,0l0.1,0l0.1,0l0.1,0l0.1,0l0.1,0l0.1,0l0.1,0l0.1,0l0.1,0l0.1,0l0.1,0l0.1,0l0.1,0
		l0.1,0l20.1-15.5l1.8,16.3c0.1,0,0.3-0.1,0.4,0c0.1,0,0.3,0,0.3,0l-2.1-18.1L104,336.5C104,336.4,104,336.4,104,336.5
		C104,336.4,104,336.4,104,336.5z"/>
	<path class="st0" d="M103.8,339.5l1.8-1.4c0,0,0,0-0.1,0l-0.1,0l-0.1,0l-0.1,0l-0.1,0l-0.1,0l-0.1,0l-0.1,0l-0.1,0l-0.1,0l-0.1,0
		l-0.1,0c-0.1,0-0.4-0.1-0.6-0.2c0,0,0,0-0.1,0l0,0l-1.9,1.5C102.8,339.4,103.4,339.5,103.8,339.5z"/>
	<path class="st0" d="M106,336.5L106,336.5l0.2,0l0,0.1l0.2-0.1c0.1,0,0.1,0,0.1,0c0.1,0,0.1,0,0.1,0c0.1,0,0.1,0,0.1,0
		c0.1,0,0.1,0,0.1,0c0.1,0,0.1,0,0.1,0c0.1,0,0.1,0,0.1,0c0.1,0,0.1,0,0.1,0c0.1,0,0.1,0,0.1,0c0.1,0,0.1,0,0.1,0s0,0,0.1,0L125,323
		l1.6,14.5c0.1,0,0.1,0,0.2,0c0.1,0,0.3,0,0.5,0l0.1,0l-1.8-16.3l-20.2,15.4l0,0C105.8,336.5,105.9,336.6,106,336.5z"/>
	<path class="st0" d="M105.4,339.8l1.6-1.1l-0.1,0c0,0,0,0-0.1,0c0,0,0,0-0.1,0l-0.1,0l-0.1,0l-0.1,0l-0.1,0l-0.1,0l-0.1,0l0,0
		c0,0,0,0-0.1,0l-0.1,0l-0.1,0l-0.1,0l-0.1,0l-0.1,0c-0.1,0-0.1,0-0.1,0l-0.1,0l-0.1,0l0,0l-1.8,1.4
		C104.4,339.6,105,339.7,105.4,339.8z"/>
	<path class="st0" d="M107.8,336.6L107.8,336.6l0.2,0l0.1,0l0.1,0l0.1,0l0.1,0l0,0l0.1,0l0.1,0l0.1,0l0.1,0l0.1,0l0.1,0l0.1,0l0.1,0
		l0.1,0l0.1,0l0.1,0l0.1,0L125,325l1.5,12.6l0,0c0.1,0,0.3,0,0.4,0c0.1,0,0.2,0,0.3,0l-1.6-14.5l-17.7,13.7l0.1,0
		C107.7,336.6,107.8,336.6,107.8,336.6z"/>
	<path class="st0" d="M106.9,340l1.3-1l0,0l-0.1,0l0-0.1l-0.1,0l-0.1,0l-0.1,0l-0.1,0l-0.1,0l-0.1,0l-0.1,0c0,0,0,0-0.1,0
		c0,0,0,0-0.1,0c0,0,0,0-0.1,0c-0.2,0-0.3-0.1-0.5-0.3l-1.6,1.1c0.7,0.1,1.2,0.1,1.2,0.1C106.6,339.9,106.7,340,106.9,340z"/>
	<path class="st0" d="M109.4,336.7C109.5,336.7,109.5,336.7,109.4,336.7C109.5,336.7,109.5,336.7,109.4,336.7l0.2,0l0.1,0l0.1,0
		l0.1,0l0.1,0l0.1,0l0.1,0c0.1,0,0.1,0,0.1,0c0.1,0,0.1,0,0.1,0c0.1,0,0.1,0,0.1,0c0.1,0,0.1,0,0.1,0c0.1,0,0.1,0,0.1,0
		c0.1,0,0.1,0,0.1,0l0,0l13.2-10.2l1.2,10.8c0.1,0,0.3,0,0.3,0c0.1,0,0.3,0,0.4,0.1l-1.5-12.6L109.4,336.7z"/>
	<path class="st0" d="M111.4,336.7C111.5,336.8,111.5,336.8,111.4,336.7c0.2,0,0.2,0,0.2,0c0.1,0,0.1,0,0.1,0c0.1,0,0.1,0,0.1,0
		c0.1,0,0.1,0,0.1,0c0.1,0,0.3,0,0.5,0l11.1-8.5l1,9c0.1,0,0.2,0,0.3,0c0.1,0,0.3,0,0.4,0.1l0,0l-1.1-10.8l-13.2,10.2
		c0.1,0,0.1,0,0.1,0C111.4,336.8,111.3,336.7,111.4,336.7z"/>
	<path class="st0" d="M107.1,340.3l0.8,0.1c0.1,0,0.1,0,0.1,0l1.3-1c-0.1,0-0.1,0-0.1,0c-0.1,0-0.3-0.2-0.4-0.1c-0.1,0-0.1,0-0.1,0
		l-0.1,0l-0.1,0l-0.1,0l-0.1,0l-0.1,0l-0.1,0l-0.1,0c0,0,0,0-0.1,0l-1.3,1C106.9,340.2,107,340.2,107.1,340.3L107.1,340.3z"/>
	<path class="st0" d="M109.3,340.8l1.4-1.1l0,0c-0.1,0-0.4-0.1-0.5-0.1c-0.1,0-0.3,0-0.4,0c-0.1,0-0.2,0-0.3,0l-1.3,1
		C108.5,340.6,108.8,340.7,109.3,340.8z"/>
	<path class="st0" d="M123.3,330l0.8,7.1c0.1,0,0.1,0,0.1,0.1c0.1,0,0.1,0,0.3,0.2c0.1,0,0.2,0,0.3,0l0,0l-1-9l-11.1,8.5
		c0.6,0,1.1,0,1.6,0.1L123.3,330z"/>
	<path class="st0" d="M109.4,340.8C109.4,340.8,109.4,340.9,109.4,340.8C109.5,340.8,109.5,340.8,109.4,340.8l0.2,0l0.1,0l0.1,0
		l0.1,0l0.1,0l0.1,0l0.1,0l0.1,0l0.1,0l0.1,0l0.1,0l0.1,0l0,0l1.6-1.2l-0.3,0c-0.2,0-0.4-0.1-0.6-0.1c-0.1,0-0.3,0-0.5-0.1
		L109.4,340.8C109.3,340.8,109.3,340.8,109.4,340.8L109.4,340.8z"/>
	<path class="st0" d="M122.8,331.6l0.7,6l0-0.1c0-0.1,0.1-0.2,0.1-0.3c0-0.2,0.1-0.3,0.1-0.3c0.1,0,0.1,0.1,0.2,0.1
		c0.1,0,0.1,0,0.1,0l-0.8-7.1l-9,6.9c0.6,0,1.1,0,1.5,0L122.8,331.6z"/>
	<path class="st0" d="M116,336.9c0.6,0.1,1.1,0,1.5,0.1l4.9-3.8l0.6,5.5l0-0.1c0-0.1,0.2-0.3,0.1-0.4c0-0.1,0.1-0.2,0.1-0.3
		c0-0.1,0.1-0.1,0.1-0.3l-0.7-6L116,336.9z"/>
	<path class="st0" d="M110.7,341.1L110.7,341.1l0.2,0c0.1,0,0.1,0,0.1,0c0.1,0,0.1,0,0.1,0c0.1,0,0.1,0,0.1,0c0.1,0,0.1,0,0.1,0
		c0.1,0,0.1,0,0.1,0c0.1,0,0.1,0,0.1,0l0.1,0l1.6-1.2l0,0c-0.1,0-0.1,0-0.1,0c-0.1,0-0.1,0-0.1,0c-0.1,0-0.1,0-0.1,0
		c-0.1,0-0.1,0-0.1,0c-0.1,0-0.1,0-0.1,0c-0.1,0-0.1,0-0.1,0c-0.1,0-0.1,0-0.1,0l-0.1,0l-0.1,0l-0.1,0l0-0.1l-0.1,0l-1.6,1.2l0.1,0
		L110.7,341.1z"/>
	<path class="st0" d="M117.9,337.2c0,0.1,0,0.1,0,0.2c0,0.1,0,0.1,0,0.1c0,0.1,0,0.1,0,0.1c0,0.1,0,0.1,0,0.1c0,0.1,0,0.1,0,0.1
		c0,0.1,0,0.1,0,0.1l0,0l4.3-3.3l0.6,4.9c0-0.1,0-0.1,0-0.1c0.1-0.1,0.2-0.3,0.3-0.4c0-0.1,0.1-0.2,0.2-0.3l-0.6-5.5l-4.9,3.8
		c0.3,0,0.5,0,0.5,0S118,337,117.9,337.2z"/>
	<path class="st0" d="M112,341.4C112.1,341.4,112.1,341.4,112,341.4c0.2,0,0.2,0,0.2,0c0.1,0,0.1,0,0.1,0c0.1,0,0.1,0,0.1,0
		c0.1,0,0.1,0,0.1,0c0.1,0,0.1,0,0.2,0c0,0,0,0,0.1,0l1.6-1.2c-0.1,0-0.1,0-0.1,0c-0.1,0-0.1,0-0.1,0c-0.1,0-0.1,0-0.1,0
		c-0.1,0-0.1,0-0.1,0c-0.1,0-0.1,0-0.1,0c-0.1,0-0.1,0-0.1,0c-0.1,0-0.1,0-0.1,0c-0.1,0-0.1,0-0.1,0L112,341.4
		C111.9,341.3,111.9,341.3,112,341.4C112,341.3,112,341.3,112,341.4z"/>
	<path class="st0" d="M117.6,338.2C117.5,338.3,117.5,338.3,117.6,338.2c0,0.2,0,0.2,0,0.2c0,0.1,0,0.1,0,0.1c0,0.1,0,0.1,0,0.2
		c0,0.1,0,0.1,0,0.2c0,0.1,0,0.1,0,0.2c0,0.1,0,0.1,0,0.2c0,0,0,0,0,0.1l4.1-3.2l0.5,4c0-0.1,0.2-0.2,0.3-0.2
		c0.1-0.1,0.2-0.3,0.3-0.4l-0.6-4.9L117.6,338.2C117.6,338.2,117.6,338.2,117.6,338.2C117.6,338.1,117.6,338.2,117.6,338.2z"/>
	<path class="st0" d="M113.3,341.5c0.1,0,0.1,0,0.3,0c0.1,0,0.1,0,0.3,0c0.1,0,0.1,0,0.3,0c0.1,0,0.1,0,0.3,0c0.1,0,0.1,0,0.3,0
		c0,0,0,0,0.1,0l1.5-1.2c0,0,0,0-0.1,0c-0.1,0-0.1,0-0.3,0c-0.2,0-0.1,0-0.3,0c-0.1,0-0.1,0-0.2,0c-0.1,0-0.1,0-0.2,0
		c-0.1,0-0.1,0-0.2,0c-0.1,0-0.1,0-0.1,0l0,0L113.3,341.5C113.2,341.5,113.3,341.5,113.3,341.5z"/>
	<path class="st0" d="M115,341.6c0.1,0,0.2,0,0.3,0c0.1,0,0.2,0,0.3,0c0.1,0,0.3,0,0.3,0l0,0l5.1-3.9l0.3,3.2c0-0.1,0.2-0.2,0.3-0.2
		c0-0.1,0.1-0.2,0.3-0.2l-0.5-4l-4.1,3.2c0,0.1,0,0.1,0,0.1c0,0.1,0,0.1,0,0.2c0,0.1,0,0.1,0,0.2c0,0.1,0,0.1,0,0.2
		c0,0.1,0,0.1,0.1,0.2c0,0.1,0,0.1,0.1,0.2l-0.1,0.1c-0.1,0-0.1,0-0.3,0c-0.1,0-0.1,0-0.3,0c-0.1,0-0.1,0-0.3,0c-0.1,0-0.1,0-0.3,0
		c-0.1,0-0.1,0-0.1,0l-1.5,1.2c0.1,0,0.1,0,0.3,0C114.8,341.6,114.9,341.6,115,341.6z"/>
	<path class="st0" d="M115.8,341.6c0.1,0,0.3,0,0.3,0c0.1,0,0.3,0,0.3,0c0.1,0,0.3,0,0.3,0c0.1,0,0.3,0,0.4,0l0,0l3.3-2.6l0.2,2.3
		c0.2-0.1,0.4-0.3,0.5-0.4l-0.3-3.2L115.8,341.6z"/>
	<path class="st0" d="M118.1,341.5C118.2,341.5,118.2,341.5,118.1,341.5c0.2,0,0.2,0.1,0.3,0.2c0.1,0,0.1,0.1,0.1,0l1.6-1.2l0.1,1.2
		c0.2-0.1,0.3-0.1,0.5-0.2l-0.2-2.3l-3.3,2.6c0.1,0,0.3-0.1,0.4-0.1C117.9,341.5,118,341.5,118.1,341.5z"/>
	<path class="st0" d="M118.6,341.7L118.6,341.7c0.1,0,0.3,0.1,0.3,0.1c0.1,0,0.3,0,0.4,0.1c0.1,0.1,0.3,0,0.4,0l0-0.1l0,0l0.1,0
		c0.2,0,0.3-0.1,0.4-0.2l-0.1-1.2L118.6,341.7z"/>
	<path class="st0" d="M119.8,341.7L119.8,341.7L119.8,341.7L119.8,341.7z"/>
</g>
<g>
	<path class="st1" d="M610.6,310.3c0.1-0.1,0.2-0.2,0.3-0.2l-1.5,0.5l0.4,0.5C610.1,310.8,610.4,310.5,610.6,310.3z"/>
	<path class="st1" d="M607.6,311.7c0,0-0.5,0-0.9,0.2c-0.1,0-0.2,0.1-0.3,0.2l1,1.4c0.3-0.3,0.6-0.6,0.8-0.9
		c0.1-0.1,0.1-0.1,0.2-0.2l-0.8-1.2C607.7,311.3,607.6,311.5,607.6,311.7z"/>
	<path class="st1" d="M615.8,328c0-0.2-0.1-0.4-0.1-0.5s-0.1-0.3-0.1-0.5c0-0.2-0.1-0.3-0.2-0.5c-0.1-0.2-0.2-0.3-0.3-0.5
		c-0.1-0.2-0.2-0.3-0.3-0.5c-0.1-0.2-0.3-0.4-0.4-0.5c-0.2-0.2-0.3-0.3-0.5-0.5s-0.5-0.3-0.7-0.3c-0.1,0-0.2-0.1-0.3-0.1l3.1,4.5
		C615.8,328.3,615.8,328.1,615.8,328z"/>
	<path class="st1" d="M606.1,312.7c0,0-0.1,0-0.3,0.1c-0.1,0.1-0.3,0.1-0.5,0.2l1,1.5c0.4-0.4,0.7-0.7,1.1-1.1l-1-1.4
		C606.2,312.2,606.1,312.4,606.1,312.7z"/>
	<path class="st1" d="M611,323.9l7.4,10.7c0.2-0.4,0.2-0.9,0.1-1.4c0-0.2-0.1-0.5-0.2-0.8c-0.1-0.2-0.1-0.4-0.3-0.6
		c-0.1-0.2-0.2-0.3-0.3-0.5c-0.1-0.2-0.2-0.3-0.3-0.5c-0.1-0.1-0.2-0.3-0.3-0.4c-0.1-0.1-0.2-0.3-0.3-0.4c-0.1-0.1-0.2-0.3-0.3-0.4
		c-0.1-0.1-0.3-0.3-0.3-0.3c-0.1-0.1-0.1-0.1-0.1-0.1s0-0.1-0.1-0.3c0-0.1-0.1-0.3-0.1-0.5l0-0.1l-3.1-4.5c-0.2-0.1-0.5-0.1-0.7-0.1
		C611.7,323.9,611.4,323.8,611,323.9z"/>
	<path class="st1" d="M537.8,340.9c-0.3,0.2-0.6,0.3-0.9,0.4c-0.5,0.3-1,0.5-1.5,0.8c-0.5,0.3-0.9,0.5-1.4,0.8
		c-0.4,0.2-0.9,0.5-1.3,0.8c-0.2,0.1-0.5,0.3-0.8,0.5l4.9-0.9L537.8,340.9z"/>
	<path class="st1" d="M604.9,313.4c-0.3,0.3-0.5,0.6-0.1,1c0,0-0.1,0-0.3,0.1l0.8,1.2c0.1,0,0.1-0.1,0.1-0.1
		c0.3-0.3,0.6-0.6,0.9-0.9l0,0l-1-1.5C605.2,313.2,604.9,313.3,604.9,313.4z"/>
	<path class="st1" d="M604.1,314.6c-0.3,0.1-0.6,0.3-0.8,0.5l1,1.6c0.1-0.1,0.2-0.2,0.3-0.3c0.2-0.3,0.5-0.5,0.7-0.7l-0.8-1.2
		C604.4,314.4,604.2,314.5,604.1,314.6z"/>
	<path class="st1" d="M609.5,324.4l7.9,11.4c0.2-0.2,0.5-0.4,0.7-0.6l0.2-0.4c0-0.1,0-0.1,0.1-0.1l-7.4-10.7
		C610.5,324,610.1,324.1,609.5,324.4z"/>
	<path class="st1" d="M530.3,345c-0.4,0.2-0.7,0.4-1.1,0.7c-0.3,0.2-0.7,0.4-1,0.6c-0.1,0-0.1,0.1-0.2,0.1l10.6-2l2.3-5
		c-0.2,0.1-0.4,0.2-0.6,0.3c-0.6,0.3-1.2,0.6-1.7,0.8c-0.3,0.1-0.5,0.3-0.7,0.4l-1,2.2l-4.9,0.9c-0.1,0.1-0.3,0.2-0.5,0.3
		C531.1,344.6,530.7,344.8,530.3,345z"/>
	<path class="st1" d="M544.5,332.4C544.4,332.4,544.4,332.4,544.5,332.4C544.4,332.5,544.5,332.5,544.5,332.4c0,0,0.1,0.1,0.2,0
		C544.5,332.4,544.5,332.4,544.5,332.4z"/>
	<path class="st1" d="M543.8,337.2c-0.4,0.3-0.7,0.6-0.9,0.8l0.9-0.1l0.6-1.2C544.2,336.9,544,337,543.8,337.2z"/>
	<path class="st1" d="M603,316.8l-0.2,0.2l0.5,0.7c0.1-0.1,0.3-0.3,0.4-0.4c0.2-0.2,0.3-0.3,0.5-0.6l-1-1.6c0,0.1-0.1,0,0,0.1
		C602.9,315.6,602.7,316.1,603,316.8z"/>
	<path class="st1" d="M616.2,336.4c0.3-0.1,0.4-0.2,0.7-0.3c0.2-0.1,0.4-0.3,0.6-0.4l-7.9-11.4c-0.4,0.2-0.8,0.3-1.2,0.6
		L616.2,336.4z"/>
	<path class="st1" d="M528,346.5c-0.2,0.1-0.5,0.3-0.7,0.5c-0.3,0.2-0.6,0.4-0.9,0.6c-0.3,0.2-0.6,0.4-0.8,0.6
		c-0.3,0.2-0.5,0.3-0.8,0.5l15.7-3l3.4-7.6c-0.6,0.2-1.1,0.5-1.7,0.8c-0.4,0.2-0.8,0.4-1.2,0.6l-2.3,5L528,346.5z"/>
	<path class="st1" d="M546,332.5c-0.3,0.1-0.5,0-0.8,0.1c-0.2,0-0.5,0-0.6,0c0.2,0.1,0.5,0.2,0.7,0.3c0.2,0.1,0.4,0.2,0.6,0.3
		l0.3-0.7C546.2,332.4,546.1,332.5,546,332.5z"/>
	<path class="st1" d="M602,318.2l0.8,1.2c0.2-0.2,0.3-0.3,0.2-0.5c0.1,0,0.1,0,0.2,0l-0.3-0.9c0.1-0.1,0.2-0.2,0.4-0.4l-0.5-0.7
		l-0.2,0.2L602,318.2z"/>
	<path class="st1" d="M524,349.2c-0.1,0.1-0.3,0.2-0.4,0.3c-0.1,0.1-0.3,0.2-0.4,0.3c-0.1,0.1-0.3,0.2-0.4,0.3
		c-0.1,0-0.1,0.1-0.2,0.2c0,0-0.1,0.1-0.2,0.2c0,0.1-0.1,0.1-0.2,0.2l20.1-3.9l5.5-12.3c-0.1,0.1-0.3,0.2-0.5,0.3
		c-0.2,0.1-0.4,0.3-0.6,0.4c-0.2,0.1-0.4,0.3-0.7,0.4c-0.2,0.2-0.4,0.3-0.7,0.4c-0.2,0.2-0.4,0.3-0.6,0.5c-0.1,0-0.1,0.1-0.1,0.1
		l-0.6,1.2l0.2,0c-0.1,0-0.2,0.1-0.3,0.2l-3.4,7.6l-15.7,3c-0.1,0-0.1,0.1-0.2,0.2C524.3,348.9,524.2,349.1,524,349.2z"/>
	<path class="st1" d="M547.3,334c0.2,0.1,0.3,0.2,0.5,0.3l0.9-2c-0.2,0-0.4,0-0.6,0.1c-0.2,0-0.5,0-0.6,0c-0.2,0-0.5,0-0.7,0
		c-0.1,0-0.3,0.1-0.4,0l-0.3,0.7c0.2,0.1,0.3,0.2,0.3,0.2C546.7,333.6,547,333.8,547.3,334z"/>
	<path class="st1" d="M614.8,336.9c0.1,0,0.3-0.1,0.4-0.1c0.3-0.1,0.5-0.2,0.7-0.2c0.1,0,0.1,0,0.2-0.1l-7.9-11.6
		c-0.4,0.2-0.7,0.4-1.2,0.7L614.8,336.9z"/>
	<path class="st1" d="M601.8,318.6l-0.7-0.3l-0.5-0.2l-0.1,0l1.2,1.8c0.3-0.1,0.5-0.2,0.8-0.3c0.2-0.1,0.3-0.2,0.4-0.2l-0.8-1.2
		l0,0.1L601.8,318.6z"/>
	<path class="st1" d="M521.3,351.4c-0.1,0.1-0.3,0.3-0.5,0.4c-0.1,0.1-0.3,0.3-0.5,0.4c-0.1,0.1-0.4,0.3-0.5,0.5l-0.1,0l23.9-4.6
		l7.1-16c-0.1,0-0.2,0-0.3,0c-0.2,0-0.4,0-0.6,0c-0.2,0-0.4,0-0.6,0c-0.2,0-0.4,0-0.6,0c-0.1,0-0.1,0-0.1,0l-0.9,2
		c0.2,0.1,0.3,0.2,0.3,0.2s-0.1,0.1-0.4,0.2l-0.1,0L542,347l-20.1,3.9c-0.1,0-0.1,0.1-0.2,0.2C521.6,351.1,521.5,351.2,521.3,351.4z
		"/>
	<path class="st1" d="M607,325.7c0,0-0.1,0-0.4-0.2c-0.2-0.1-0.6-0.2-1-0.3c-0.1,0-0.3-0.1-0.5-0.1l8.3,12c0.2,0,0.3,0,0.5-0.1
		c0.2,0,0.4-0.1,0.6-0.1c0.1,0,0.2,0,0.3-0.1l-7.7-11.3C607.1,325.7,607.1,325.7,607,325.7z"/>
	<path class="st1" d="M603.4,324.9l9,13c0.2-0.4,0.3-0.6,0.3-0.6c0.1,0,0.1,0,0.1,0c0.2,0,0.4,0,0.6-0.1c0.1,0,0.1,0,0.1,0
		l-8.3-12.1c-0.2,0-0.4-0.1-0.7-0.1C604.2,325,603.8,324.9,603.4,324.9z"/>
	<path class="st1" d="M518.8,353.6c-0.2,0.2-0.3,0.3-0.5,0.5c-0.1,0.1-0.3,0.3-0.4,0.4l27.3-5.2L553,332c-0.1,0-0.2,0-0.3,0.1
		c-0.2,0-0.3,0-0.5,0.1c-0.2,0-0.4,0-0.5,0.1c-0.2,0-0.4,0-0.6,0.1c-0.1,0-0.2,0-0.3,0.1l-7.1,16l-23.8,4.5
		c-0.1,0.1-0.3,0.3-0.4,0.4C519.2,353.3,519,353.5,518.8,353.6z"/>
	<path class="st1" d="M599.9,318.4l-0.7,0.3l1.1,1.5c0.1,0,0.1,0,0.2,0l0.1,0c0.1,0,0.5-0.1,0.9-0.3c0.1,0,0.1,0,0.1,0l-1.2-1.8
		L599.9,318.4L599.9,318.4z"/>
	<path class="st1" d="M617.1,346L617.1,346c0,0.1,0.1,0.1,0.1,0.1l8.9,0.6l0-0.1l0.1,0l1.3-0.5l0.8-0.3c-0.2,0.1-1.1,0-2.3,0
		c-1.7-0.1-3.9-0.2-6-0.4c-0.3,0-0.6,0-0.9-0.1c-0.3,0-0.6,0-0.8,0c-0.3,0-0.5-0.1-0.8,0c-0.3,0-0.5-0.1-0.8,0c-0.3,0-0.5-0.1-0.8,0
		c-0.1,0-0.1,0-0.2,0l0.5,0.7L617.1,346z"/>
	<path class="st1" d="M599.2,318.8l-0.8,0.3c-0.1,0-0.2,0.1-0.3,0.1l0.7,1c0.3-0.1,0.6-0.1,0.8,0c0.2,0,0.5,0,0.6,0.1L599.2,318.8
		L599.2,318.8z"/>
	<path class="st1" d="M601.8,324.6l9.9,14.4c0.3-0.5,0.6-0.9,0.7-1.1l-9-13c-0.1,0-0.1,0-0.2,0C602.8,324.7,602.3,324.7,601.8,324.6
		z"/>
	<path class="st1" d="M517.3,355.2c-0.2,0.2-0.4,0.4-0.5,0.6c-0.2,0.2-0.3,0.3-0.5,0.5l30.6-5.9l8.3-18.6l0,0c-0.1,0-0.3,0.1-0.5,0
		c-0.1,0-0.3,0.1-0.5,0c-0.1,0-0.3,0-0.5,0c-0.1,0-0.3,0-0.5,0c-0.1,0-0.1,0-0.2,0l-7.8,17.3l-27.3,5.2c-0.1,0-0.1,0.1-0.1,0.1
		C517.6,354.8,517.4,355,517.3,355.2z"/>
	<path class="st1" d="M597,319.7l0.6,0.8c0.1,0,0.3-0.1,0.4-0.1c0.3-0.1,0.6-0.1,0.9-0.1l0.1,0l-0.7-1c-0.1,0.1-0.3,0.1-0.5,0.2
		C597.4,319.5,597.2,319.5,597,319.7z"/>
	<path class="st1" d="M619.9,346.9c0.3-0.1,0.5-0.2,0.5-0.2c0,0.1,0.1,0.3,0.2,0.3c0.3,0.3,0.8,0.4,1.2,0.2c0.5-0.1,1-0.3,1-0.3
		c0.5,0.7,1.2,0.3,1.6,0.1c0.2-0.1,0.3-0.2,0.3-0.2c0.3,0.2,0.8,0.4,1.2,0.5c0.2,0.1,0.4,0.1,0.4,0.1l-0.1,0l-0.1-0.6l-8.9-0.6
		C618,347.3,619.2,347.1,619.9,346.9z"/>
	<path class="st1" d="M600.9,324.6c-0.2,0-0.4,0-0.7,0l10.6,15.5c0.3-0.3,0.6-0.7,0.8-1l-9.9-14.4l-0.1,0
		C601.5,324.6,601.2,324.6,600.9,324.6z"/>
	<path class="st1" d="M515.5,357c-0.2,0.3-0.4,0.4-0.6,0.6c-0.1,0.1-0.2,0.3-0.3,0.3l33.6-6.4l8.9-19.8c-0.1,0-0.3,0.1-0.4,0
		c-0.1,0-0.2,0-0.4,0s-0.3,0.1-0.4,0c-0.1,0-0.3,0.1-0.4,0c-0.1,0-0.3,0.1-0.4,0l-8.4,18.6l-30.6,5.9c0,0.1-0.1,0,0,0.1
		C515.9,356.5,515.7,356.7,515.5,357z"/>
	<path class="st1" d="M615.2,345.1c0.2-0.2,0.2-0.4,0.2-0.5c0-0.2-0.1-0.2-0.3-0.2c-0.2,0-0.5,0-0.7,0.1c-0.1,0-0.2,0.1-0.3,0.1
		l0.8,1.1l0-0.1l0.3,0.1l0.7,0.1l0.7,0.2l0,0l-0.5-0.7c-0.2,0-0.4,0-0.6,0C615.3,345.1,615.2,345.1,615.2,345.1z"/>
	<path class="st1" d="M613.5,344.7c-0.3,0.1-0.5,0.2-0.6,0.2l1.2,1.8l0.2,0l0.5-1l-0.8-1.1C613.8,344.5,613.7,344.6,613.5,344.7z"/>
	<path class="st1" d="M599.1,324.5c-0.1,0-0.2,0-0.3,0l11.3,16.4c0.1-0.1,0.2-0.3,0.3-0.3c0.2-0.2,0.4-0.4,0.5-0.6l-10.7-15.5
		c-0.1,0-0.2,0-0.3,0C599.7,324.5,599.4,324.5,599.1,324.5z"/>
	<path class="st1" d="M514.7,357.9c-0.1,0.1-0.2,0.3-0.2,0.3c-0.2,0.3-0.3,0.4-0.6,0.7c-0.1,0.2-0.2,0.3-0.3,0.5l36.2-6.9l10-22.3
		c-0.1,0-0.1,0-0.1,0.1c-0.1,0.1-0.3,0.2-0.4,0.2c-0.1,0-0.3,0.2-0.4,0.3c-0.1,0.1-0.3,0.2-0.4,0.3s-0.2,0.3-0.2,0.4
		c0,0.1,0,0.1,0,0.1c0,0-0.2,0-0.5,0.1c-0.1,0-0.4,0-0.6,0.1l-8.9,19.8L514.7,357.9z"/>
	<path class="st1" d="M596.1,320c-0.1,0-0.1,0.1-0.3,0.1l0.5,0.7c0.3-0.1,0.5-0.2,0.7-0.3c0.1,0,0.3-0.1,0.4-0.1l-0.6-0.8
		c-0.1,0-0.1,0-0.1,0C596.6,319.8,596.4,319.9,596.1,320z"/>
	<path class="st1" d="M612.5,345.1c-0.2,0.2-0.3,0.4-0.5,0.5l0.9,1.3l0.7-0.2l0.1,0l0.4-0.1l-1.2-1.8c-0.1,0-0.2,0.1-0.3,0.1
		C612.5,345.1,612.5,345.1,612.5,345.1z"/>
	<path class="st1" d="M512.9,360.6c-0.1,0.1,0,0.2-0.1,0.3l38.3-7.3l11-24.4c-0.1,0-0.3,0.1-0.3,0.1c-0.2,0.1-0.4,0.2-0.6,0.2
		c-0.2,0.1-0.4,0.2-0.5,0.3c-0.2,0.1-0.3,0.2-0.5,0.3c-0.1,0.1-0.3,0.1-0.3,0.2l-10,22.3l-36.2,6.9c0,0.1-0.1,0.2-0.2,0.3
		C513.1,360,513,360.3,512.9,360.6z"/>
	<path class="st1" d="M594.9,320.6l0.5,0.7c0.1,0,0.2-0.1,0.3-0.2c0.3-0.1,0.5-0.2,0.7-0.3l0,0l-0.5-0.7c-0.1,0.1-0.3,0.2-0.5,0.2
		C595.2,320.4,595,320.6,594.9,320.6z"/>
	<path class="st1" d="M597.5,324.5l11.9,17.2c0.3-0.3,0.5-0.6,0.8-0.9l-11.3-16.4c-0.2,0-0.4,0-0.6,0
		C598,324.4,597.8,324.5,597.5,324.5z"/>
	<path class="st1" d="M513.1,361.8L513.1,361.8l0.3,0.1c0,0-0.1,0-0.1,0.1l39.1-7.5l10.7-24c-0.1,0-0.1,0-0.2,0.1l-0.2-0.1
		c0.1-0.1,0.3-0.2,0.4-0.3c0.1,0,0.1-0.1,0.2-0.1l0.8-1.8c-0.2,0.1-0.4,0.1-0.7,0.3c-0.2,0.1-0.5,0.2-0.7,0.3
		c-0.2,0.1-0.5,0.2-0.6,0.2c-0.1,0-0.1,0.1-0.3,0.1l-11,24.4l-38.3,7.3C512.8,361.3,512.8,361.6,513.1,361.8z"/>
	<path class="st1" d="M596.7,324.5c-0.1,0-0.3,0.1-0.4,0l12.3,18c0.2-0.2,0.4-0.4,0.6-0.6c0.1,0,0.1-0.1,0.1-0.1l-11.9-17.3l-0.1,0
		C597.2,324.5,597,324.5,596.7,324.5z"/>
	<path class="st1" d="M594.1,321c-0.1,0-0.1,0.1-0.2,0.1l0.6,0.8c0.2-0.1,0.3-0.2,0.6-0.4c0.1-0.1,0.2-0.1,0.4-0.2l-0.5-0.7
		c-0.1,0-0.1,0-0.1,0.1C594.5,320.8,594.3,320.9,594.1,321z"/>
	<path class="st1" d="M611.3,346.1c-0.1,0-0.1,0.1-0.2,0.1l0.7,1c0.1,0,0.1,0,0.2-0.1c0.4-0.2,0.6-0.2,0.6-0.2l0.3-0.1l0.1,0
		l-0.9-1.3C611.8,345.8,611.6,346,611.3,346.1z"/>
	<path class="st1" d="M592.9,321.7l0.6,0.9c0.1,0,0.1-0.1,0.1-0.1c0.2-0.2,0.4-0.3,0.6-0.5l0.1,0l-0.6-0.8c-0.1,0.1-0.3,0.2-0.4,0.2
		C593.3,321.5,593.2,321.5,592.9,321.7z"/>
	<path class="st1" d="M595.2,324.6c-0.1,0-0.1,0-0.1,0l12.8,18.6c0.1-0.1,0.2-0.2,0.4-0.4c0.2-0.1,0.2-0.2,0.4-0.4l-12.3-18
		c-0.1,0-0.2,0-0.3,0C595.6,324.6,595.4,324.6,595.2,324.6z"/>
	<path class="st1" d="M564.3,329.6c0.2-0.1,0.4-0.2,0.6-0.3c0.3-0.1,0.4-0.2,0.6-0.3c0.1,0,0.1-0.1,0.3-0.1l0.7-1.5
		c-0.1,0.1-0.3,0.2-0.4,0.2c0,0-0.1,0-0.2,0.1c-0.1,0.1-0.4,0.1-0.8,0.2c-0.2,0.1-0.5,0.2-0.7,0.2c0,0,0,0-0.1,0l-0.8,1.8
		c0.1,0,0.2-0.1,0.2-0.1C563.9,329.8,564.1,329.7,564.3,329.6z"/>
	<path class="st1" d="M513.2,363.3l40.6-7.8l11.4-25.4c-0.1,0-0.1,0-0.1,0c-0.3,0.1-0.5,0.1-0.7,0.2c-0.3,0.1-0.5,0.1-0.7,0.1
		c-0.2,0-0.3,0.1-0.5,0.1l-10.7,24l-39.1,7.5c0,0.2-0.2,0.5-0.2,0.9C513.1,363,513.1,363.2,513.2,363.3z"/>
	<path class="st1" d="M610.2,346.8l0.6,0.8c0.1,0,0.3-0.1,0.5-0.1c0.3-0.1,0.4-0.1,0.6-0.2l-0.7-1c-0.2,0.1-0.5,0.3-0.7,0.4
		C610.4,346.8,610.3,346.8,610.2,346.8z"/>
	<path class="st1" d="M609.3,347.2l0.5,0.7c0.3-0.1,0.5-0.1,0.7-0.2c0.1,0,0.2-0.1,0.3-0.1l-0.6-0.8c-0.2,0.1-0.4,0.2-0.6,0.2
		C609.5,347.1,609.4,347.2,609.3,347.2z"/>
	<path class="st1" d="M513.5,364.3c0,0.1,0,0.1,0.1,0.1l41.5-7.9l12-26.8c-0.1,0-0.3,0.1-0.5,0.1c-0.3,0.1-0.5,0.1-0.8,0.2
		c-0.2,0.1-0.5,0.1-0.7,0.2l-11.4,25.4l-40.6,7.8C513.2,363.7,513.3,364,513.5,364.3z"/>
	<path class="st1" d="M566.3,328.7c0.1-0.1,0.2-0.3,0.4-0.3c0.1-0.1,0.4-0.3,0.6-0.4c0.2-0.1,0.4-0.2,0.7-0.3c0,0,0,0,0.1,0l0.5-1.3
		l-0.1,0c-0.3,0.1-0.5,0.2-0.8,0.3c-0.3,0.1-0.5,0.2-0.7,0.4c-0.2,0.1-0.4,0.2-0.6,0.4l0,0l-0.7,1.5c0.2-0.1,0.3-0.1,0.5-0.2
		C566.2,328.7,566.3,328.7,566.3,328.7z"/>
	<path class="st1" d="M592.3,322.1c-0.1,0-0.1,0.1-0.1,0.1l1.5,2.2l-0.2-0.7l-0.2-0.9c0.1-0.1,0.2-0.2,0.4-0.4l-0.6-0.9
		c-0.1,0-0.1,0-0.1,0.1C592.7,321.8,592.5,322,592.3,322.1z"/>
	<path class="st1" d="M594.4,324.7c-0.2,0-0.4,0-0.6,0.1l13.2,19.2c0.1-0.1,0.2-0.2,0.3-0.2c0.1-0.1,0.4-0.3,0.5-0.4L595,324.6
		C594.8,324.6,594.6,324.7,594.4,324.7z"/>
	<path class="st1" d="M569.5,327c0.1-0.1,0.3-0.1,0.5-0.2l0.5-1.1c-0.1,0-0.1,0-0.3,0.1c-0.3,0.1-0.6,0.1-0.9,0.3
		c-0.3,0.1-0.5,0.2-0.8,0.3l-0.5,1.3c0.3-0.1,0.5-0.2,0.7-0.3C569,327.2,569.2,327.1,569.5,327z"/>
	<path class="st1" d="M608.3,347.4L608.3,347.4l0.5,0.8c0.1,0,0.2,0,0.3-0.1c0.3-0.1,0.5-0.1,0.7-0.2l0,0l-0.5-0.7
		c-0.1,0-0.2,0.1-0.3,0.1C608.8,347.3,608.5,347.4,608.3,347.4z"/>
	<path class="st1" d="M593.7,324.4l-1.5-2.2c-0.1,0.1-0.3,0.2-0.4,0.3c-0.1,0.1-0.2,0.2-0.3,0.3l14.9,21.7c0.1-0.1,0.1-0.1,0.3-0.2
		c0.2-0.2,0.4-0.3,0.6-0.5l-13.2-19.2c-0.1,0-0.1,0-0.1,0L593.7,324.4z"/>
	<path class="st1" d="M556.4,357.4l12.6-28.2c-0.3,0.1-0.4,0.1-0.7,0.2c-0.3,0.1-0.5,0.1-0.8,0.2c-0.1,0-0.3,0.1-0.3,0.1l-12,26.8
		l-41.5,7.9c0.2,0.3,0.5,0.7,1,1L556.4,357.4z"/>
	<path class="st1" d="M571.9,326.2l0.4-0.8c-0.2,0-0.5,0.1-0.8,0.2c-0.3,0-0.7,0.2-1,0.3l-0.5,1.1c0.1,0,0.3-0.1,0.4-0.2
		C570.9,326.5,571.5,326.3,571.9,326.2z"/>
	<path class="st1" d="M514.7,366.2c0,0.1,0,0.1,0,0.1c0,0.1,0,0.1,0,0.1l42.8-8.2l13.2-29.4c-0.3,0.1-0.5,0.1-0.7,0.1
		c-0.3,0.1-0.5,0.1-0.9,0.2c-0.1,0-0.1,0-0.2,0l-12.6,28.2l-41.7,8c0.1,0,0.2,0.2,0.3,0.2C514.8,365.8,514.7,366,514.7,366.2z"/>
	<path class="st1" d="M607.2,347.6l0.6,0.8c0.2,0,0.4-0.1,0.6-0.1c0.1,0,0.3-0.1,0.4-0.1l-0.5-0.7c-0.2,0-0.4,0-0.5,0.1
		C607.5,347.5,607.4,347.6,607.2,347.6z"/>
	<path class="st1" d="M590.7,323.6L590.7,323.6l14.8,21.4c0.1-0.1,0.1-0.1,0.3-0.2c0.2-0.2,0.4-0.3,0.6-0.4l-14.9-21.7
		c-0.1,0-0.1,0.1-0.1,0.1C591,323.2,590.9,323.4,590.7,323.6z"/>
	<path class="st1" d="M606.5,347.7c-0.1,0-0.3,0.1-0.4,0l0.7,0.9c0.1,0,0.2,0,0.4,0c0.2,0,0.4-0.1,0.6-0.1l0,0l-0.6-0.8
		c-0.1,0-0.1,0-0.1,0C606.9,347.6,606.8,347.7,606.5,347.7z"/>
	<path class="st1" d="M604.8,345.8l0.2-0.4c0.1-0.1,0.3-0.2,0.5-0.4l-14.7-21.4l-0.1,1.4L604.8,345.8z"/>
	<path class="st1" d="M572,326.2c0.5-0.1,0.8-0.2,0.9-0.3c0.1,0,0.1,0,0.1,0c0,0.1,0.1,0.4,0.3,0.7l0.8-1.7
		c-0.3,0.1-0.5,0.1-0.7,0.3c0,0-0.1,0-0.1,0c-0.1,0-0.4,0-0.9,0.1c-0.1,0-0.1,0-0.1,0L572,326.2C571.9,326.2,572,326.1,572,326.2z"
		/>
	<path class="st1" d="M515,367.5l43.6-8.3l13.8-30.8c-0.5,0.1-1,0.2-1.5,0.4c-0.1,0-0.1,0-0.2,0l-13.2,29.4l-42.8,8.2
		C514.8,366.9,514.8,367.2,515,367.5z"/>
	<path class="st1" d="M573.8,327.3l-0.4,0.8c-0.3,0.1-0.5,0.1-0.8,0.2c-0.1,0-0.1,0-0.1,0l-13.8,30.8l-43.6,8.3
		c0,0.1,0.1,0.1,0.1,0.2c0.2,0.3,0.5,0.5,0.7,0.7l44-8.4l15.6-34.9c-0.2-0.1-0.4-0.2-0.5-0.2c-0.2-0.1-0.5,0-0.7,0
		c-0.1,0-0.1,0-0.1,0l-0.8,1.7c0,0.1,0,0.1,0.1,0.1C573.5,326.9,573.6,327.1,573.8,327.3z"/>
	<path class="st1" d="M590,325.3c-0.1,0-0.3,0.1-0.4,0l16.1,23.4c0.1,0,0.1,0,0.2,0c0.2,0,0.4,0,0.6-0.1c0.1,0,0.1,0,0.2,0l-0.7-0.9
		c-0.1,0-0.1,0-0.1,0c-0.2,0-0.4,0-0.5,0c-0.3,0.1-0.4,0-0.5,0l0,0l-0.2-0.4l-0.2-0.4l-0.2-0.4l0.4-0.7l-14.2-20.7l0,0.1
		C590.4,325.3,590.2,325.3,590,325.3z"/>
	<path class="st1" d="M589,325.6c-0.1,0-0.1,0-0.3,0.1l16,23.3c0.1,0,0.1,0,0.2,0c0.2,0,0.3,0,0.5-0.1c0.1,0,0.2,0,0.3,0l-16.1-23.4
		c-0.1,0-0.1,0-0.2,0C589.3,325.4,589.2,325.5,589,325.6z"/>
	<path class="st1" d="M516.8,369c0,0.1,0,0.2-0.1,0.2l44.2-8.5l15.7-35l0,0c-0.2-0.2-0.3-0.2-0.5-0.3c-0.2-0.1-0.3-0.2-0.5-0.3
		l-0.1,0L559.8,360l-44,8.4c0,0.1,0.1,0.1,0.2,0.2C516.3,368.8,516.8,369,516.8,369z"/>
	<path class="st1" d="M517.4,370l44.6-8.5l15.7-34.9c0-0.1-0.1-0.1-0.1-0.1c-0.1-0.1-0.3-0.3-0.4-0.4c-0.1-0.1-0.3-0.2-0.4-0.3
		l-15.7,35l-44.3,8.4c0,0.1,0,0.1,0,0.1C516.7,369.6,517,369.9,517.4,370z"/>
	<path class="st1" d="M588.5,325.6c-0.1,0-0.1,0-0.2,0c0,0,0.2,0.3,0.4,0.6c0.5,0.7,1.1,1.9,1.2,2.4l13.9,20.2c0.1,0,0.2,0,0.3,0
		c0.1,0,0.3,0,0.5,0c0.1,0,0.2,0,0.3-0.1l-16-23.3C588.7,325.6,588.6,325.6,588.5,325.6z"/>
	<path class="st1" d="M518.7,370.5c0.2,0,0.3,0.1,0.5,0.1l43.8-8.4l15.9-35.4c-0.1,0-0.3,0.1-0.4,0.2c-0.1,0.1-0.3,0.1-0.3,0.2
		c0,0-0.1-0.1-0.3-0.3c-0.1-0.1-0.2-0.2-0.3-0.3l-15.7,34.9l-44.6,8.5c0.1,0,0.1,0,0.1,0C517.7,370.3,518.2,370.4,518.7,370.5z"/>
	<path class="st1" d="M589.8,328.7c0,0-0.1,0.3-0.2,0.5c0,0.1-0.1,0.2-0.2,0.2l13.1,19l0,0c0.1,0,0.2,0.1,0.3,0.1
		c0.1,0,0.2,0.1,0.3,0.1c0.1,0,0.3,0.1,0.4,0.1c0.1,0,0.1,0,0.1,0l-13.9-20.2C589.8,328.7,589.8,328.7,589.8,328.7z"/>
	<path class="st1" d="M588.6,329.6c-0.2-0.2-0.4-0.4-0.7-1c0,0-0.2-0.9-0.6-1.6c-0.2-0.3-0.4-0.7-0.7-0.9c-0.2-0.2-0.3-0.2-0.5-0.3
		c-0.1,0-0.1,0-0.1,0l15.2,22.1c0.1-0.1,0.2-0.1,0.3-0.2l0.3,0.1c0,0.1,0.1,0.3,0.2,0.3c0.1,0.1,0.2,0.2,0.3,0.3
		c0.1,0,0.2,0.2,0.3,0.2l-13-19.1c0,0.1-0.1,0.1-0.3,0.2C588.9,329.7,588.9,329.7,588.6,329.6z"/>
	<path class="st1" d="M519.1,370.7c0.2,0.1,0.5,0.1,0.7,0.1c0.4,0.1,0.9,0.1,1.4,0.2c0.2,0,0.4,0.1,0.6,0.1L564,363l16.4-36.5
		c-0.2,0-0.4,0-0.5,0.1c-0.3,0.1-0.4,0.1-0.6,0.1c-0.1,0-0.2,0.1-0.3,0.1L563,362.3L519.1,370.7z"/>
	<path class="st1" d="M523.9,371.3c0.4,0,0.8,0,1.1,0.1l40-7.7l16.8-37.5c-0.1,0-0.1,0-0.2,0c-0.2,0-0.4,0-0.6,0.1
		c-0.2,0-0.4,0-0.6,0.1c0,0,0,0-0.1,0L564,362.9l-42.2,8.1c0.3,0,0.5,0.1,0.8,0.1C523,371.2,523.5,371.2,523.9,371.3z"/>
	<path class="st1" d="M585.2,325.9c-0.1,0-0.1,0-0.1,0c0,0,0,0-0.1,0l15.4,22.4l0.1,0c0.1-0.1,0.3-0.2,0.5-0.3
		c0.1,0,0.1-0.1,0.1-0.1l-15.2-22.1c-0.1,0-0.2,0-0.3,0C585.5,325.8,585.3,325.8,585.2,325.9z"/>
	<path class="st1" d="M526.5,371.4c0.4,0,0.9,0.1,1.3,0.1c0.3,0,0.6,0,0.9,0l37.2-7.1l17.2-38.3l-0.1,0c-0.1,0-0.3,0-0.5,0
		c-0.2,0-0.3,0-0.5,0.1c-0.1,0-0.2,0-0.3,0.1l-16.8,37.5l-40,7.7c0.1,0,0.1,0,0.2,0C525.7,371.4,526.1,371.4,526.5,371.4z"/>
	<path class="st1" d="M584.4,325.9c-0.1,0-0.2,0-0.2,0l13.5,19.6c0.1,0,0.2,0.1,0.3,0.1c0.1,0,0,0.1,0,0.1c0.1,0,0.1,0,0.2,0.2
		c0,0.1,0.1,0.1,0.1,0.2c0,0.1,0.1,0.1,0.1,0.2c0,0.1,0.1,0.1,0.1,0.2c0,0.1,0.1,0.1,0.1,0.2c0,0.1,0,0.1,0.1,0.2
		c0,0.1,0,0.1,0.1,0.2c0,0.1,0.1,0.2,0.1,0.3c0,0.1,0.1,0.2,0.1,0.3c0,0.1,0,0.1,0,0.1l0.6,0.9c0.1,0,0.2-0.1,0.2-0.1
		c0.1-0.1,0.3-0.2,0.4-0.2L584.9,326C584.9,325.9,584.7,325.9,584.4,325.9z"/>
	<path class="st1" d="M599.3,348.2c0,0.1,0.1,0.3,0.1,0.3c0,0.2,0.1,0.3,0.1,0.3c0.1,0,0.1,0,0.1,0c0.1,0,0.1-0.1,0.2-0.1l-0.6-0.9
		c0,0.1,0,0.1,0.1,0.2C599.2,348,599.3,348,599.3,348.2z"/>
	<path class="st1" d="M583.5,326c-0.1,0-0.3,0.1-0.4,0l-17.2,38.3l-37.2,7.1c0.1,0,0.2,0,0.3,0c0.4,0,0.8,0,1.2,0c0.5,0,0.8,0,1.2,0
		c0.6,0,1.1,0,1.2,0c0.1,0,0.1,0,0.1,0c0.1,0,0.1,0,0.2,0l33.8-6.5l17.1-38.2l12.7,18.5c0.1-0.1,0.3,0,0.5-0.1
		c0.1,0,0.3,0.1,0.4,0.1c0,0,0,0,0.1,0l-13.5-19.6c-0.1,0-0.1,0-0.2,0C583.8,326,583.7,326,583.5,326z"/>
	<path class="st1" d="M535.1,371.3c0.4,0,0.8,0,1.3-0.1c0.4,0,0.8,0,1.2-0.1c0.4,0,0.8,0,1.2-0.1c0.4,0,0.7-0.1,1.2-0.1
		c0.4,0,0.7-0.1,1.1-0.2c0.4,0,0.7-0.1,1.1-0.2c0.4,0,0.7-0.1,1.1-0.2l7.2-1.4c0.1,0,0.1,0,0.1,0c0.3,0,0.7-0.1,1-0.2
		c0.3,0,0.6-0.1,1-0.2c0.3,0,0.6-0.1,0.9-0.2c0.3-0.1,0.6-0.1,0.9-0.2c0.3-0.1,0.6-0.2,0.9-0.2c0.3-0.1,0.6-0.2,0.9-0.2
		s0.6-0.2,0.9-0.2l-0.1,0c0,0.1,0.2,0.2,0.4,0.2c0.1,0,0.1,0,0.1,0l10.5-2l16.6-36.8l12.5,18.2c0-0.1,0-0.1,0-0.1
		c0-0.1-0.1-0.2-0.1-0.2c0-0.1-0.1-0.2-0.1-0.3c0-0.1,0-0.2-0.1-0.3c0-0.1,0-0.2-0.1-0.3c0-0.1,0.1-0.3,0.2-0.3L584.1,327
		l-17.1,38.2l-33.8,6.4c0.3-0.1,0.6,0,0.9-0.1C534.3,371.5,534.7,371.4,535.1,371.3z"/>
	<path class="st1" d="M597.4,347.7c0-0.1-0.1-0.1-0.1-0.2c0-0.1-0.1-0.1-0.1-0.2c0-0.1-0.1-0.1-0.1-0.2c0-0.1-0.1-0.1-0.1-0.2
		l0.6,0.9C597.5,347.8,597.4,347.8,597.4,347.7z"/>
	<path class="st1" d="M567.7,365.7l-10.5,2c0.1,0,0.2,0,0.4,0c0.1,0,0.3,0,0.5,0.1s0.3,0,0.5,0c0.2,0,0.4,0,0.5-0.1
		c0.2,0,0.4,0,0.5-0.1c0.2,0,0.4,0,0.5-0.1c0.2,0,0.3,0,0.5-0.1c0.2,0,0.3,0,0.5-0.1c0.2,0,0.3,0,0.5-0.1c0.2-0.1,0.3,0,0.5-0.1
		c0.2-0.1,0.3,0,0.5,0c0.2,0,0.3,0,0.5,0c0.2,0,0.4,0,0.5,0c0.1,0,0.2,0,0.2,0l0,0.1l4.7-0.9l16-36l13.3,19.3c0-0.1,0-0.1,0-0.1
		c0-0.1,0-0.3,0-0.5s0-0.2-0.1-0.4c0-0.1-0.1-0.2-0.1-0.3c0-0.1-0.1-0.2-0.1-0.3c0-0.1-0.1-0.2-0.2-0.3l0,0l-0.6-0.9l0,0
		c0-0.1,0-0.1,0-0.1l0-0.1l-12.5-18.2L567.7,365.7z"/>
	<path class="st1" d="M544.3,370.2c0.4,0,0.7-0.1,1.1-0.2c0.3,0,0.7-0.1,1-0.2c0.3,0,0.7-0.1,1-0.2c0.3,0,0.7-0.1,1-0.2
		c0.3,0,0.7-0.1,1-0.2c0.3-0.1,0.5-0.1,0.9-0.2l-7.2,1.4l0.1,0C543.6,370.4,544,370.3,544.3,370.2z"/>
	<path class="st1" d="M563.8,367.7c0,0.1,0,0.1-0.1,0.3l3.6-0.7c0.6-0.4,1.2-0.8,1.7-1.3c0.4-0.3,0.7-0.5,1-0.7l14.9-33.2l12.5,18.2
		l0.1,0c0.1-0.1,0.3-0.3,0.3-0.6l-13.1-19.2l-16.1,36l-4.7,0.9c0,0.1,0,0.1,0,0.1C563.9,367.5,563.8,367.6,563.8,367.7z"/>
	<path class="st1" d="M563.7,368.5c0,0.1-0.1,0.2-0.1,0.3l0,0l2.4-0.4c0.4-0.3,0.8-0.6,1.2-0.9c0.1,0,0.1-0.1,0.1-0.1l-3.6,0.7
		c0,0.1,0,0.1,0,0.1C563.7,368.3,563.7,368.4,563.7,368.5z"/>
	<path class="st1" d="M570.1,365.3c0.3-0.2,0.5-0.4,0.7-0.5c0.3-0.2,0.6-0.4,0.8-0.6l13.6-30.5l11.6,16.9c0.1,0,0.1-0.1,0.1-0.1
		c0.1,0,0.1,0,0.1,0c0.1-0.1,0.2-0.1,0.4-0.2l-12.5-18.2L570.1,365.3z"/>
	<path class="st1" d="M563.5,369.4c0,0.1,0,0.1,0,0.1l1.3-0.2c0.1-0.1,0.2-0.2,0.3-0.2c0.3-0.2,0.6-0.5,1-0.7l-2.4,0.4
		c0,0.1,0,0.2-0.1,0.3C563.5,369.3,563.5,369.3,563.5,369.4z"/>
	<path class="st1" d="M573.2,363.1l12.4-27.8l10.7,15.7c0.1-0.1,0.2-0.2,0.3-0.2c0.1-0.1,0.2-0.2,0.3-0.2l-11.6-16.9l-13.6,30.5
		c0.3-0.2,0.6-0.4,0.8-0.6C572.9,363.4,573.1,363.3,573.2,363.1z"/>
	<path class="st1" d="M563.4,369.7c0,0.2-0.1,0.3-0.1,0.4c0,0.1,0,0.1-0.1,0.1l0.3-0.1c0.1,0,0.1-0.1,0.1-0.1
		c0.1-0.1,0.1-0.1,0.3-0.2c0.1-0.1,0.1-0.1,0.3-0.2c0.2-0.2,0.4-0.3,0.6-0.5l-1.3,0.2C563.4,369.6,563.4,369.7,563.4,369.7z"/>
	<path class="st1" d="M573.5,363c0,0.1,0.1,0.1,0.2,0.1c0,0.1,0.1,0,0.1,0s0.1,0,0.2,0c0.1,0,0.1,0,0.2,0c0,0,0.1,0,0.1,0l11.8-26.3
		l10,14.5c0.1-0.1,0.3-0.2,0.4-0.3c0.1,0,0.1-0.1,0.1-0.1l-10.7-15.7l-12.5,27.8C573.4,363,573.5,363,573.5,363
		C573.5,363,573.5,363,573.5,363z"/>
	<path class="st1" d="M563,370.7L563,370.7L563,370.7c0.1-0.1,0.1-0.1,0.2-0.2C563,370.7,563,370.7,563,370.7z"/>
	<path class="st1" d="M574.6,363.2c0.1,0,0.1,0,0.2,0c0.1,0,0.1,0,0.2,0c0.1,0,0.1,0,0.2,0l0,0l11.1-24.7l9.2,13.3l0.1,0
		c0.1-0.1,0.3-0.2,0.4-0.3l0.1,0l-10-14.5l-11.8,26.3c0.1,0,0.1,0,0.1,0C574.6,363.2,574.5,363.2,574.6,363.2z"/>
	<path class="st1" d="M563.1,370.6L563.1,370.6L563.1,370.6c0.1-0.1,0.1-0.1,0.2-0.2c0.1,0,0.1-0.1,0.1-0.1l-0.3,0.1
		c0,0.1,0,0.1,0,0.1C563.2,370.4,563.2,370.5,563.1,370.6z"/>
	<path class="st1" d="M575.3,363.1c0.1,0,0.1,0,0.2,0c0.1,0,0.1,0,0.2,0c0.1,0,0.1,0,0.3-0.1s0.1,0,0.3-0.1c0.1,0,0.1,0,0.2,0l0.9-2
		l-0.1,0c0,0-0.1,0,0-0.1l0.1,0l0.1,0l9.4-21l8.4,12.2c0.1,0,0.1-0.1,0.2-0.1c0.1-0.1,0.2-0.2,0.3-0.2l-9.2-13.3L575.3,363.1z"/>
	<path class="st1" d="M577.4,360.7c0.1,0,0.1,0,0.1-0.1c0.1,0,0.1,0,0.1-0.1c0.1,0,0.1,0,0.1-0.1c0.1,0,0.1,0,0.1-0.1
		c0.1,0,0.1,0,0.1-0.1c0.1,0,0.1,0,0.1-0.1l8.5-19.1l7.6,11.1c0.1-0.1,0.2-0.1,0.3-0.2c0.1,0,0.1-0.1,0.1-0.1l-8.4-12.2l-9.4,21
		c0.1,0,0.1,0,0.1,0C577.4,360.8,577.4,360.7,577.4,360.7z"/>
	<path class="st1" d="M576.5,362.8c0.1,0,0.1,0,0.2-0.1c0.1,0,0.1,0,0.2-0.1c0.1,0,0.1,0,0.1,0c0.1,0,0.1,0,0.1,0c0.1,0,0.1,0,0.1,0
		l0.1,0l0.7-1.8l-0.9,0.1l-0.9,2c0,0,0,0,0.1,0C576.4,362.9,576.5,362.8,576.5,362.8z"/>
	<path class="st1" d="M577.4,362.5C577.5,362.5,577.5,362.5,577.4,362.5c0.1,0,0.1,0,0.1,0c0.1,0,0.1,0,0.1,0c0.1,0,0.1,0,0.1,0
		c0.1,0,0.1,0,0.1,0c0.1,0,0.1,0,0.1,0c0.1,0,0.1,0,0.1,0c0.1,0,0.1,0,0.1,0l0.1,0l0.1,0l0.1,0l0.1,0l0.7-1.6c-0.1,0-0.2,0-0.3,0.1
		c-0.1,0-0.3,0.1-0.4,0l-0.3,0.1l-0.7,1.8L577.4,362.5L577.4,362.5z"/>
	<path class="st1" d="M578.4,360.3C578.4,360.3,578.4,360.2,578.4,360.3l0.2,0l0-0.1l0.1,0l0.1,0l0.1,0l0.1,0l0.1,0l0.1,0l0.1,0
		l0.1,0l0.1,0l0.1,0l0.1,0l0.1,0l0.1,0l0.1,0l0.1,0l0.1,0l0.1,0l0.1,0c0,0,0,0,0.1,0c0,0,0,0,0.1,0c0,0,0,0,0.1,0l7.6-17l6.9,10
		c0.1,0,0.1,0,0.1-0.1c0.1-0.1,0.2-0.2,0.3-0.2l0.1,0l-7.7-11.1L578.4,360.3z"/>
	<path class="st1" d="M578.4,362.2L578.4,362.2l0.1,0l0.1,0l0.1,0l0.1,0l0.1,0l0.1,0l0.1,0l0.1,0l0.1,0l0.1,0l0.1,0l0.1,0l0.1,0
		l0.1,0l0.1,0c0,0,0,0,0.1,0c0,0,0,0,0.1,0c0,0,0,0,0.1,0s0.1,0,0.1,0l0.7-1.5l0,0c0,0,0,0-0.1,0c0,0,0,0-0.1,0c0,0,0,0-0.1,0
		c0,0,0,0-0.1,0c0,0,0,0-0.1,0c0,0,0,0-0.1,0c0,0,0,0-0.1,0l-0.1,0l-0.1,0l-0.1,0l-0.1,0l-0.1,0l-0.1,0l-0.1,0l-0.1,0l-0.1,0l-0.1,0
		l-0.1,0l-0.1,0l-0.1,0l-0.1,0c0,0,0,0-0.1,0l-0.1,0l-0.7,1.6l0,0C578.4,362.2,578.4,362.2,578.4,362.2z"/>
	<path class="st1" d="M579.5,359.7C579.6,359.7,579.6,359.7,579.5,359.7C579.6,359.7,579.6,359.7,579.5,359.7c0.1,0,0.1,0,0.1,0
		c0,0,0,0,0.1,0l0.1,0l0.1,0l0.1,0l0.1,0l0.1,0l0.1,0l0.1,0l0.1,0l0.1,0l0.1,0l0.1,0l0.1,0l0.1,0l0.1,0l0.1,0l0.1,0l0.1,0l0.1,0
		l0.1,0l6.9-15.3l6.2,8.9c0.1,0,0.1-0.1,0.2-0.1c0.1,0,0.1-0.1,0.2-0.1l-6.9-9.8L579.5,359.7C579.5,359.7,579.5,359.7,579.5,359.7
		C579.5,359.7,579.5,359.7,579.5,359.7z"/>
	<path class="st1" d="M580.4,361.6l0.6-1.4c0,0,0,0-0.1,0l-0.1,0l-0.1,0l-0.1,0l-0.1,0l-0.1,0l-0.1,0l-0.1,0l-0.1,0l-0.1,0l-0.1,0
		l-0.1,0c-0.1,0-0.3,0.1-0.4,0.1c0,0,0,0-0.1,0l0,0l-0.7,1.5C579.8,361.9,580.1,361.7,580.4,361.6z"/>
	<path class="st1" d="M580.7,359.1L580.7,359.1l0.1,0l0,0.1l0.1-0.1c0.1,0,0.1,0,0.1,0c0.1,0,0.1,0,0.1,0c0.1,0,0.1,0,0.1,0
		c0.1,0,0.1,0,0.1,0c0.1,0,0.1,0,0.1,0c0.1,0,0.1,0,0.1,0c0.1,0,0.1,0,0.1,0c0.1,0,0.1,0,0.1,0c0.1,0,0.1,0,0.1,0s0,0,0.1,0l6-13.5
		l5.5,7.9c0.1,0,0.1,0,0.1-0.1c0.1,0,0.2-0.1,0.3-0.2l0.1,0l-6.2-8.9l-6.9,15.2l0,0C580.6,359.2,580.7,359.2,580.7,359.1z"/>
	<path class="st1" d="M581.4,361.2l0.6-1.2l-0.1,0c0,0,0,0-0.1,0c0,0,0,0-0.1,0l-0.1,0l-0.1,0l-0.1,0l-0.1,0l-0.1,0l-0.1,0l0,0
		c0,0,0,0-0.1,0l-0.1,0l-0.1,0l-0.1,0l-0.1,0l-0.1,0c-0.1,0-0.1,0-0.1,0l-0.1,0l-0.1,0l0,0l-0.6,1.4
		C580.8,361.5,581.1,361.3,581.4,361.2z"/>
	<path class="st1" d="M581.8,358.6L581.8,358.6l0.1,0l0.1,0l0.1,0l0.1,0l0.1,0l0,0l0.1,0l0.1,0l0.1,0l0.1,0l0.1,0l0.1,0l0.1,0l0.1,0
		l0.1,0l0.1,0l0.1,0l0.1,0l5.2-11.8l4.8,6.9l0,0c0.1,0,0.2-0.1,0.2-0.1c0.1,0,0.1-0.1,0.1-0.1l-5.5-7.9l-6,13.5l0.1,0
		C581.8,358.7,581.8,358.6,581.8,358.6z"/>
	<path class="st1" d="M582.3,360.9l0.4-1l0,0l-0.1,0l0,0l-0.1,0l-0.1,0l-0.1,0l-0.1,0l-0.1,0l-0.1,0l-0.1,0c0,0,0,0-0.1,0
		c0,0,0,0-0.1,0c0,0,0,0-0.1,0c-0.1,0-0.2,0-0.4,0l-0.6,1.2c0.5-0.2,0.7-0.3,0.7-0.3C582.1,360.9,582.2,361,582.3,360.9z"/>
	<path class="st1" d="M582.7,358.2C582.8,358.2,582.8,358.2,582.7,358.2C582.8,358.2,582.8,358.2,582.7,358.2l0.1,0l0.1,0l0.1,0
		l0.1,0l0.1,0l0.1,0l0.1,0c0.1,0,0.1,0,0.1,0c0.1,0,0.1,0,0.1,0c0.1,0,0.1,0,0.1,0c0.1,0,0.1,0,0.1,0c0.1,0,0.1,0,0.1,0
		c0.1,0,0.1,0,0.1,0l0,0l4.5-10.1l4,5.9c0.1,0,0.1-0.1,0.2-0.1c0.1,0,0.1-0.1,0.3-0.1l-4.8-6.9L582.7,358.2z"/>
	<path class="st1" d="M583.9,357.6C584,357.6,584,357.6,583.9,357.6c0.1,0,0.1,0,0.1,0c0.1,0,0.1,0,0.1,0c0.1,0,0.1,0,0.1,0
		c0.1,0,0.1,0,0.1,0c0.1,0,0.2-0.1,0.3-0.2l3.8-8.4l3.4,4.9c0.1,0,0.1,0,0.2-0.1c0.1,0,0.1-0.1,0.3-0.1l0,0l-4-6l-4.5,10.1
		c0.1,0,0.1,0,0.1,0C583.9,357.6,583.9,357.6,583.9,357.6z"/>
	<path class="st1" d="M582.5,361l0.5-0.2c0.1,0,0.1,0,0.1,0l0.4-1c-0.1,0-0.1,0-0.1,0c-0.1,0-0.2,0-0.3,0.1c-0.1,0-0.1,0-0.1,0
		l-0.1,0l-0.1,0l-0.1,0l-0.1,0l-0.1,0l-0.1,0l-0.1,0c0,0,0,0-0.1,0l-0.4,1C582.4,361,582.4,361,582.5,361L582.5,361z"/>
	<path class="st1" d="M584,360.6l0.5-1.1l0,0c-0.1,0-0.3,0.1-0.3,0.1s-0.2,0.1-0.3,0.1c-0.1,0-0.1,0-0.2,0.1l-0.4,1
		C583.4,360.7,583.6,360.7,584,360.6z"/>
	<path class="st1" d="M588.7,350l2.7,3.9c0.1,0,0.1,0,0.1,0c0.1,0,0.1,0,0.2,0c0.1,0,0.1,0,0.2-0.1l0,0l-3.4-4.9l-3.8,8.4
		c0.3-0.2,0.7-0.3,1-0.5L588.7,350z"/>
	<path class="st1" d="M584,360.6C584,360.6,584.1,360.6,584,360.6C584,360.6,584,360.6,584,360.6l0.1,0l0.1,0l0.1,0l0.1,0l0.1,0
		l0.1,0l0.1,0l0.1,0l0.1,0l0.1,0l0.1,0l0.1,0l0,0l0.5-1.2l-0.2,0.1c-0.1,0-0.3,0.1-0.4,0.2c-0.1,0-0.2,0.1-0.3,0.1L584,360.6
		C584,360.6,584,360.6,584,360.6L584,360.6z"/>
	<path class="st1" d="M589,351l2.3,3.3l0-0.1c0-0.1,0-0.2,0-0.2c0-0.1,0-0.2,0-0.2c0.1,0,0.1,0,0.1,0c0.1,0,0.1,0,0.1,0l-2.7-3.9
		l-3.1,6.8c0.3-0.2,0.7-0.3,0.9-0.5L589,351z"/>
	<path class="st1" d="M586.6,356.3c0.4-0.2,0.7-0.3,0.9-0.4l1.7-3.8l2.1,3l0-0.1c0-0.1,0-0.2-0.1-0.3c0-0.1,0-0.1,0-0.2
		c0-0.1,0-0.1,0-0.2l-2.3-3.3L586.6,356.3z"/>
	<path class="st1" d="M584.9,360.4L584.9,360.4l0.1,0c0.1,0,0.1,0,0.1,0c0.1,0,0.1,0,0.1,0c0.1,0,0.1,0,0.1,0c0.1,0,0.1,0,0.1,0
		c0.1,0,0.1,0,0.1,0c0.1,0,0.1,0,0.1,0l0.1,0l0.5-1.2l0,0c-0.1,0-0.1,0-0.1,0c-0.1,0-0.1,0-0.1,0c-0.1,0-0.1,0-0.1,0
		c-0.1,0-0.1,0-0.1,0c-0.1,0-0.1,0-0.1,0c-0.1,0-0.1,0-0.1,0c-0.1,0-0.1,0-0.1,0l-0.1,0l-0.1,0l-0.1,0l0-0.1l-0.1,0l-0.5,1.2
		L584.9,360.4L584.9,360.4z"/>
	<path class="st1" d="M587.8,355.8c0,0.1,0,0.1,0,0.1c0,0.1,0,0.1,0,0.1c0,0.1,0,0.1,0,0.1c0,0.1,0,0.1,0,0.1c0,0.1,0,0.1,0,0.1
		c0,0.1,0,0.1,0,0.1l0,0l1.5-3.3l1.9,2.6c0-0.1,0-0.1,0-0.1c0-0.1,0-0.2,0-0.3c0-0.1,0-0.1,0-0.2l-2.1-3l-1.7,3.8
		c0.2-0.1,0.3-0.2,0.3-0.2S587.8,355.7,587.8,355.8z"/>
	<path class="st1" d="M585.7,360.1C585.8,360.1,585.8,360.1,585.7,360.1c0.1,0,0.1,0,0.1,0c0.1,0,0.1,0,0.1,0c0.1,0,0.1,0,0.1,0
		c0.1,0,0.1,0,0.1,0c0.1,0,0.1,0,0.1,0c0,0,0,0,0.1,0l0.5-1.2c-0.1,0-0.1,0-0.1,0c-0.1,0-0.1,0-0.1,0c-0.1,0-0.1,0-0.1,0
		c-0.1,0-0.1,0-0.1,0c-0.1,0-0.1,0-0.1,0c-0.1,0-0.1,0-0.1,0c-0.1,0-0.1,0-0.1,0c-0.1,0-0.1,0-0.1,0L585.7,360.1
		C585.6,360.1,585.6,360.1,585.7,360.1C585.7,360.1,585.7,360.1,585.7,360.1z"/>
	<path class="st1" d="M588,356.5C588,356.6,588,356.6,588,356.5c0,0.1,0,0.1,0,0.1c0,0.1,0,0.1,0,0.1c0,0.1,0,0.1,0,0.1
		c0,0.1,0,0.1,0,0.1c0,0.1,0,0.1,0,0.1c0,0.1,0,0.1,0,0.1c0,0,0,0,0,0.1l1.4-3.1l1.5,2.2c0-0.1,0-0.2,0.1-0.2c0-0.1,0-0.2,0-0.3
		l-1.9-2.6L588,356.5C588,356.5,588,356.5,588,356.5C588,356.4,588,356.5,588,356.5z"/>
	<path class="st1" d="M586.5,359.8c0.1,0,0.1,0,0.1-0.1c0.1,0,0.1,0,0.1-0.1c0.1,0,0.1,0,0.1-0.1c0.1,0,0.1,0,0.1-0.1
		c0.1,0,0.1,0,0.1-0.1c0,0,0,0,0.1,0l0.5-1.1c0,0,0,0-0.1,0c-0.1,0-0.1,0-0.1,0.1c-0.1,0.1-0.1,0-0.1,0.1c-0.1,0-0.1,0-0.1,0
		s-0.1,0-0.1,0c-0.1,0-0.1,0-0.1,0s-0.1,0-0.1,0l0,0L586.5,359.8C586.4,359.8,586.5,359.8,586.5,359.8z"/>
	<path class="st1" d="M587.5,359.3c0.1,0,0.1-0.1,0.1-0.1c0.1,0,0.1-0.1,0.2-0.1c0.1,0,0.1-0.1,0.2-0.1l0,0l1.7-3.9l1.2,1.8
		c0-0.1,0-0.2,0.1-0.2c0-0.1,0-0.1,0.1-0.2l-1.5-2.2l-1.4,3.1c0,0.1,0,0.1,0,0.1c0,0.1,0,0.1,0,0.1c0,0.1,0,0.1,0,0.1
		c0,0.1,0,0.1,0,0.1c0,0.1,0,0.1,0.1,0.1c0,0.1,0,0.1,0.1,0.1l0,0.1c-0.1,0-0.1,0-0.1,0.1c-0.1,0-0.1,0-0.1,0.1
		c-0.1,0-0.1,0-0.1,0.1c-0.1,0-0.1,0-0.1,0.1c-0.1,0-0.1,0-0.1,0l-0.5,1.1c0.1,0,0.1,0,0.1-0.1C587.4,359.4,587.5,359.3,587.5,359.3
		z"/>
	<path class="st1" d="M588,359c0.1,0,0.1-0.1,0.2-0.1c0.1,0,0.1-0.1,0.2-0.1c0.1,0,0.1-0.1,0.2-0.1s0.1-0.1,0.2-0.1l0,0l1.1-2.5
		l0.8,1.2c0.1-0.1,0.1-0.3,0.2-0.4l-1.2-1.8L588,359z"/>
	<path class="st1" d="M589.3,358.3C589.4,358.3,589.4,358.3,589.3,358.3c0.1,0,0.2,0,0.2,0c0.1,0,0.1,0,0.1,0l0.6-1.2l0.4,0.7
		c0.1-0.1,0.2-0.2,0.2-0.3l-0.8-1.2l-1.1,2.5c0.1,0,0.1-0.1,0.2-0.2C589.2,358.4,589.3,358.3,589.3,358.3z"/>
	<path class="st1" d="M589.6,358.2L589.6,358.2c0.1,0,0.2-0.1,0.2,0c0.1,0,0.1-0.1,0.3-0.1s0.1-0.1,0.2-0.1l0-0.1l0,0l0.1,0
		c0.1-0.1,0.1-0.1,0.2-0.3l-0.4-0.7L589.6,358.2z"/>
	<path class="st1" d="M590.3,357.9L590.3,357.9L590.3,357.9L590.3,357.9z"/>
</g>
</svg>
