<?xml version="1.0" encoding="utf-8"?>
<!-- Generator: Adobe Illustrator 22.0.1, SVG Export Plug-In . SVG Version: 6.00 Build 0)  -->
<svg version="1.1" id="レイヤー_1" xmlns="http://www.w3.org/2000/svg" xmlns:xlink="http://www.w3.org/1999/xlink" x="0px"
	 y="0px" viewBox="0 0 640 640" style="enable-background:new 0 0 640 640;" xml:space="preserve">
<style type="text/css">
	.st0{fill:none;stroke:#E50012;stroke-width:0.2952;stroke-miterlimit:10;}
</style>
<g>
	<path class="st0" d="M376.7,180.4c0.1-0.3,0.2-0.5,0.4-0.7l-2.3,2.6l1.2,0.5C376.2,181.9,376.5,181,376.7,180.4z"/>
	<path class="st0" d="M372.3,186.2c0,0-0.9,0.5-1.5,1.3c-0.1,0.1-0.3,0.4-0.4,0.7l3.3,1.7c0.2-0.9,0.5-1.8,0.7-2.5
		c0.1-0.2,0.1-0.4,0.2-0.7l-2.8-1.4C372.1,185.4,372.2,185.8,372.3,186.2z"/>
	<path class="st0" d="M404.9,208.7c-0.2-0.3-0.5-0.6-0.7-0.8c-0.2-0.2-0.6-0.5-0.8-0.8c-0.2-0.3-0.6-0.5-0.9-0.7
		c-0.4-0.2-0.7-0.4-1-0.7c-0.4-0.2-0.7-0.4-1.1-0.7c-0.4-0.2-0.9-0.4-1.2-0.5c-0.5-0.1-0.9-0.3-1.5-0.3s-1.2-0.1-1.7,0.1
		c-0.2,0-0.5,0.1-0.7,0.1l10.5,5.3C405.3,209.3,405.1,209,404.9,208.7z"/>
	<path class="st0" d="M370.7,189.7c0,0-0.2,0.2-0.5,0.5c-0.2,0.3-0.5,0.6-0.8,0.9l3.5,1.7c0.3-1.1,0.6-2.1,0.9-3.3l-3.3-1.7
		C370.2,188.6,370.3,189.1,370.7,189.7z"/>
	<path class="st0" d="M391.5,206l25.1,12.7c-0.1-1-0.5-1.9-1.2-2.7c-0.3-0.4-0.7-0.8-1.2-1.2c-0.4-0.3-0.7-0.7-1.2-0.8
		c-0.4-0.2-0.7-0.4-1.1-0.7s-0.7-0.4-1-0.6c-0.3-0.1-0.7-0.4-1-0.5c-0.3-0.1-0.6-0.3-0.9-0.4c-0.4-0.1-0.7-0.3-0.9-0.4
		c-0.4-0.1-0.8-0.2-1-0.3c-0.3-0.1-0.4-0.1-0.4-0.1s-0.1-0.2-0.4-0.5c-0.1-0.2-0.4-0.5-0.7-0.9l-0.1-0.1l-10.5-5.3
		c-0.5,0.1-1,0.3-1.5,0.5C392.8,205.1,392.2,205.4,391.5,206z"/>
	<path class="st0" d="M269.9,314.1c-0.4,0.6-0.8,1.2-1.2,1.7c-0.7,1-1.4,2-2,3.1c-0.7,1-1.2,2-1.9,2.9c-0.6,0.9-1.2,1.8-1.7,2.8
		c-0.3,0.5-0.7,1.1-1,1.7l8.3-6.8L269.9,314.1z"/>
	<path class="st0" d="M369,192.3c-0.3,0.8-0.2,1.7,0.9,2c0,0-0.1,0.1-0.4,0.4l2.8,1.5c0.1-0.1,0.1-0.3,0.1-0.4
		c0.2-0.9,0.5-1.8,0.7-2.7l0,0l-3.5-1.7C369.3,191.6,369,192,369,192.3z"/>
	<path class="st0" d="M368.7,195.3c-0.4,0.5-0.8,1.2-1,1.9l3.6,1.9c0.1-0.3,0.1-0.6,0.2-0.9c0.1-0.7,0.4-1.5,0.6-2.1l-2.8-1.5
		C369.1,194.8,368.9,195.1,368.7,195.3z"/>
	<path class="st0" d="M389.2,208.3l26.9,13.6c0.2-0.7,0.5-1.3,0.6-1.9l-0.1-1c-0.1-0.1-0.1-0.1,0-0.3L391.4,206
		C390.7,206.6,390,207.3,389.2,208.3z"/>
	<path class="st0" d="M259.9,329.7c-0.5,0.8-0.9,1.6-1.4,2.4c-0.4,0.8-0.9,1.5-1.3,2.3c-0.1,0.1-0.1,0.4-0.3,0.5L275,320l-0.9-11.9
		c-0.3,0.4-0.6,0.7-0.9,1.2c-0.8,1.2-1.7,2.3-2.5,3.3c-0.4,0.4-0.7,1-1,1.5l0.4,5.2l-8.3,6.8c-0.2,0.3-0.4,0.7-0.7,1
		C260.9,328.1,260.4,328.9,259.9,329.7z"/>
	<path class="st0" d="M273.8,291.1C273.6,291.2,273.6,291.2,273.8,291.1C273.7,291.2,273.9,291.2,273.8,291.1c0.1,0,0.3,0,0.4-0.1
		C273.9,291,273.8,291,273.8,291.1z"/>
	<path class="st0" d="M277.5,300.8c-0.4,0.9-0.7,1.8-0.9,2.5l1.6-1l-0.1-2.8C277.9,299.9,277.7,300.3,277.5,300.8z"/>
	<path class="st0" d="M368.9,200.8l-0.1,0.5l1.7,0.9c0.1-0.4,0.2-0.9,0.4-1.3c0.1-0.5,0.3-1,0.4-1.7l-3.6-1.9c0.1,0.1-0.1,0.1,0,0.2
		C367.4,198.5,367.7,199.6,368.9,200.8z"/>
	<path class="st0" d="M414.4,224.4c0.4-0.4,0.6-0.9,0.9-1.3c0.3-0.4,0.5-0.9,0.7-1.3l-26.9-13.6c-0.6,0.7-1.2,1.5-1.7,2.5
		L414.4,224.4z"/>
	<path class="st0" d="M257,334.9c-0.3,0.5-0.7,1.1-0.9,1.7c-0.4,0.7-0.7,1.4-1.2,2.1c-0.4,0.7-0.7,1.3-0.9,2c-0.4,0.7-0.7,1.2-1,1.9
		l26.7-22l-1.4-18.1c-0.9,1.1-1.6,2.1-2.4,3.3c-0.6,0.7-1.2,1.6-1.7,2.3l0.9,11.9L257,334.9z"/>
	<path class="st0" d="M276.7,289.6c-0.5,0.4-0.9,0.6-1.4,0.9c-0.4,0.3-0.9,0.5-1.2,0.7c0.4,0,1.1-0.1,1.7-0.1c0.4,0,1,0,1.5,0
		l-0.1-1.7C277.1,289.3,276.9,289.5,276.7,289.6z"/>
	<path class="st0" d="M368.5,204.4l2.8,1.5c0.2-0.5,0.2-0.9-0.1-1.1c0.1-0.1,0.3-0.1,0.4-0.1l-1.5-1.4c0.1-0.3,0.2-0.7,0.3-1.1
		l-1.7-0.9l-0.1,0.5L368.5,204.4z"/>
	<path class="st0" d="M252.2,344.1c-0.1,0.4-0.3,0.7-0.5,1.1c-0.1,0.4-0.3,0.7-0.5,1.1c-0.1,0.4-0.3,0.7-0.5,1.1
		c-0.1,0.1-0.1,0.4-0.2,0.5c0,0-0.1,0.2-0.2,0.7c0,0.2-0.1,0.4-0.2,0.7l34.2-28.2l-2.3-29c-0.1,0.4-0.4,0.8-0.7,1.2
		c-0.3,0.4-0.5,0.9-0.7,1.3c-0.3,0.4-0.5,0.9-0.8,1.5c-0.2,0.5-0.5,1-0.8,1.5c-0.2,0.5-0.5,1-0.7,1.5c-0.1,0.1-0.1,0.2-0.1,0.2
		l0.1,2.8l0.4-0.3c-0.1,0.1-0.3,0.4-0.4,0.6l1.4,18.1l-26.7,22c-0.1,0.1-0.1,0.4-0.2,0.5C252.5,343.4,252.4,343.8,252.2,344.1z"/>
	<path class="st0" d="M280.8,291.1c0.4,0,0.8,0,1.2,0.1l-0.4-4.6c-0.4,0.2-0.7,0.4-1,0.7c-0.4,0.3-0.9,0.5-1.2,0.7
		c-0.4,0.3-0.9,0.5-1.3,0.8c-0.3,0.1-0.5,0.4-0.7,0.4l0.1,1.7c0.4,0,0.7,0,0.9,0.1C279.2,290.9,280,291,280.8,291.1z"/>
	<path class="st0" d="M412.3,226.7c0.2-0.2,0.5-0.4,0.7-0.7c0.5-0.4,0.8-0.9,1.1-1.2c0.1-0.1,0.1-0.1,0.3-0.4l-27-13.8
		c-0.5,0.8-0.9,1.6-1.5,2.5L412.3,226.7z"/>
	<path class="st0" d="M368.5,205.4l-1.7,0.2l-1.2,0.1l-0.1,0.1l4.2,2.1c0.4-0.4,0.8-0.9,1.2-1.3c0.3-0.4,0.4-0.7,0.6-0.9l-2.8-1.5
		v0.2L368.5,205.4z"/>
	<path class="st0" d="M249.3,351.1c-0.1,0.4-0.3,0.8-0.5,1.3c-0.1,0.4-0.3,0.8-0.5,1.3c-0.1,0.4-0.4,0.9-0.4,1.4l-0.1,0.1l40.7-33.4
		l-3-37.8c-0.2,0.1-0.4,0.2-0.6,0.4c-0.4,0.2-0.7,0.4-1.1,0.7c-0.4,0.2-0.8,0.4-1.1,0.7c-0.4,0.3-0.8,0.4-1.1,0.7
		c-0.1,0.1-0.1,0.1-0.2,0.1l0.4,4.6c0.4,0,0.7,0.1,0.7,0.1s-0.1,0.4-0.6,0.9l-0.1,0.1l2.3,29l-34.2,28.2c-0.1,0.1-0.1,0.3-0.2,0.5
		C249.6,350.3,249.5,350.7,249.3,351.1z"/>
	<path class="st0" d="M385.9,213.5c0,0-0.3,0.1-0.9,0.1c-0.5,0.1-1.3,0.2-2.3,0.4c-0.3,0.1-0.7,0.2-1.1,0.3l28.3,14.3
		c0.4-0.2,0.6-0.4,0.9-0.7c0.4-0.3,0.7-0.7,1-0.9c0.1-0.1,0.4-0.2,0.4-0.4l-26.4-13.4C385.9,213.3,385.9,213.3,385.9,213.5z"/>
	<path class="st0" d="M378.1,215.6l30.6,15.5c0-0.9-0.1-1.4-0.1-1.4c0.1-0.1,0.2-0.1,0.2-0.2c0.4-0.2,0.7-0.5,1-0.7
		c0.1-0.1,0.1-0.1,0.2-0.1l-28.2-14.4c-0.4,0.1-0.9,0.2-1.4,0.4C379.7,215,378.9,215.2,378.1,215.6z"/>
	<path class="st0" d="M246.9,358c-0.2,0.5-0.3,1-0.5,1.5c-0.1,0.4-0.3,0.8-0.3,1.2l46.6-38.3l-3.2-41c-0.2,0.1-0.4,0.2-0.5,0.4
		c-0.4,0.2-0.6,0.4-0.9,0.7c-0.4,0.2-0.7,0.4-0.9,0.7c-0.4,0.2-0.7,0.4-1,0.7c-0.2,0.1-0.4,0.2-0.5,0.4l3,37.8L248,355.4
		c-0.1,0.4-0.3,0.8-0.4,1.2C247.2,356.9,247.1,357.5,246.9,358z"/>
	<path class="st0" d="M364.8,207l-0.9,1.3l3.6,1.8c0.1-0.1,0.3-0.1,0.4-0.1c0,0,0.1-0.1,0.1-0.1c0.2-0.2,0.9-0.8,1.5-1.5
		c0.1-0.1,0.1-0.1,0.2-0.2l-4.2-2.1l-0.6,0.7L364.8,207z"/>
	<path class="st0" d="M426.1,241.7L426.1,241.7c0.1,0.1,0.3,0.1,0.3,0.1l17.5-8.1l-0.1-0.1l0.1-0.1l2-2.3l1.2-1.3
		c-0.3,0.4-2,1.2-4.4,2.4c-3.3,1.5-7.7,3.6-11.8,5.4c-0.6,0.3-1.1,0.5-1.7,0.8c-0.6,0.3-1.1,0.5-1.5,0.7c-0.6,0.3-1,0.4-1.5,0.7
		c-0.6,0.3-1,0.4-1.5,0.7c-0.6,0.3-1,0.4-1.5,0.7c-0.1,0.1-0.2,0.1-0.4,0.1l1.7,0.9L426.1,241.7z"/>
	<path class="st0" d="M363.8,208.4l-1.2,1.5c-0.1,0.1-0.3,0.4-0.5,0.5l2.5,1.2c0.5-0.4,1-0.7,1.6-0.9c0.4-0.2,0.9-0.4,1.3-0.5
		L363.8,208.4L363.8,208.4z"/>
	<path class="st0" d="M374.7,216.8l33.8,17.1c0.1-1.2,0.2-2.3,0.2-2.9l-30.6-15.5c-0.2,0.1-0.3,0.1-0.4,0.2
		C376.7,216,375.8,216.4,374.7,216.8z"/>
	<path class="st0" d="M245.6,362.6c-0.1,0.6-0.3,1.1-0.4,1.7c-0.1,0.5-0.3,1-0.4,1.5l52.2-42.9l-3.5-44l0,0
		c-0.2,0.2-0.5,0.4-0.9,0.6c-0.2,0.2-0.5,0.4-0.9,0.6c-0.2,0.2-0.6,0.4-0.9,0.6c-0.2,0.2-0.6,0.4-0.9,0.6c-0.2,0.1-0.3,0.1-0.4,0.3
		l3.2,41l-46.6,38.3c-0.1,0.1-0.1,0.2-0.1,0.3C245.8,361.5,245.6,362.1,245.6,362.6z"/>
	<path class="st0" d="M360.4,212.4l1.9,0.9c0.2-0.2,0.5-0.4,0.7-0.6c0.5-0.4,1-0.7,1.5-1.1l0.1-0.1l-2.5-1.2
		c-0.2,0.3-0.4,0.5-0.7,0.8C361,211.6,360.7,211.9,360.4,212.4z"/>
	<path class="st0" d="M432.3,240.5c0.4-0.5,0.7-0.9,0.7-0.9c0.2,0.2,0.4,0.4,0.7,0.4c0.8,0.3,1.8-0.1,2.6-0.8
		c0.9-0.7,1.6-1.6,1.6-1.6c1.7,0.7,2.7-0.7,3.2-1.5c0.3-0.4,0.4-0.7,0.4-0.7c0.7,0.1,1.9-0.1,2.8-0.3c0.5-0.1,0.9-0.2,0.9-0.2
		L445,235l-0.9-1.1l-17.5,8C429.1,243.2,431.2,241.6,432.3,240.5z"/>
	<path class="st0" d="M373,217.6c-0.4,0.1-0.8,0.4-1.3,0.6l36.3,18.5c0.2-0.9,0.4-1.9,0.4-2.7l-33.7-17.2l-0.1,0.1
		C374.1,217.1,373.6,217.3,373,217.6z"/>
	<path class="st0" d="M244.1,367.8c-0.1,0.7-0.3,1.2-0.4,1.8c-0.1,0.3-0.1,0.7-0.2,0.9l57.3-47.1l-3.6-47c-0.3,0.1-0.5,0.4-0.8,0.4
		c-0.3,0.1-0.4,0.3-0.7,0.4c-0.3,0.1-0.5,0.4-0.8,0.4c-0.3,0.1-0.5,0.4-0.8,0.4c-0.3,0.1-0.5,0.4-0.8,0.4l3.4,44.1l-52.2,42.9
		c0.1,0.1-0.1,0.1,0,0.2C244.3,366.6,244.2,367.1,244.1,367.8z"/>
	<path class="st0" d="M421.5,241.8c0.1-0.6-0.1-1-0.2-1.2c-0.2-0.3-0.4-0.3-0.8-0.1s-0.9,0.5-1.3,1c-0.1,0.1-0.3,0.4-0.5,0.5
		l2.6,1.3l-0.1-0.1l0.6-0.1l1.4-0.4l1.5-0.4l0,0l-1.7-0.9c-0.4,0.2-0.8,0.4-1.1,0.5C421.6,241.8,421.5,241.8,421.5,241.8z"/>
	<path class="st0" d="M417.8,242.8c-0.4,0.4-0.7,0.8-0.9,1.1l4.1,2.1l0.4-0.2l-0.1-2.5l-2.6-1.3C418.3,242.2,418,242.5,417.8,242.8z
		"/>
	<path class="st0" d="M369.5,219.3c-0.2,0.1-0.4,0.1-0.6,0.3l38.6,19.5c0.1-0.3,0.1-0.7,0.2-0.9c0.1-0.5,0.3-1.1,0.3-1.6l-36.3-18.4
		c-0.2,0.1-0.4,0.1-0.6,0.3C370.7,218.7,370.1,219.1,369.5,219.3z"/>
	<path class="st0" d="M243.5,370.5c-0.1,0.3-0.1,0.7-0.1,0.9c-0.1,0.7-0.2,1.2-0.4,1.9c0,0.4-0.1,0.9-0.1,1.3l61.8-50.6l-4.1-52.9
		c-0.1,0.1-0.1,0.1-0.2,0.3c-0.2,0.3-0.4,0.7-0.6,0.9s-0.4,0.7-0.5,0.9c-0.1,0.4-0.3,0.6-0.4,0.9c-0.1,0.3-0.1,0.7,0,0.9
		c0.1,0.1,0.1,0.1,0.2,0.2c0,0-0.4,0.2-0.9,0.7c-0.2,0.2-0.7,0.4-1,0.7l3.6,47L243.5,370.5z"/>
	<path class="st0" d="M359.2,214c-0.1,0.1-0.2,0.3-0.4,0.4l1.7,0.9c0.4-0.4,0.7-0.8,1.1-1.3c0.2-0.2,0.4-0.4,0.7-0.6l-1.9-0.9
		c-0.1,0.1-0.1,0.1-0.1,0.1C359.9,213,359.6,213.5,359.2,214z"/>
	<path class="st0" d="M416.3,244.6c-0.1,0.5-0.1,1.1-0.3,1.5l3.1,1.6l1.2-1.1l0.1-0.1l0.7-0.6l-4.1-2.1c-0.1,0.1-0.3,0.4-0.4,0.4
		C416.4,244.6,416.3,244.6,416.3,244.6z"/>
	<path class="st0" d="M242.9,377.4c0,0.3,0.1,0.4,0.2,0.7l65.3-53.6l-4.4-57.9c-0.1,0.1-0.4,0.4-0.5,0.6c-0.3,0.4-0.6,0.7-0.9,1.1
		c-0.3,0.4-0.6,0.7-0.7,1c-0.3,0.4-0.4,0.7-0.7,1c-0.2,0.3-0.4,0.4-0.4,0.7l4.1,52.9l-61.8,50.6c0,0.2,0,0.4,0,0.7
		C242.7,376.1,242.8,376.7,242.9,377.4z"/>
	<path class="st0" d="M357.4,216.4l1.7,0.9c0.1-0.1,0.3-0.4,0.4-0.6c0.4-0.4,0.7-0.9,1-1.4l0,0l-1.7-0.9c-0.2,0.3-0.4,0.6-0.7,0.9
		C357.9,215.6,357.7,216.1,357.4,216.4z"/>
	<path class="st0" d="M366.4,221l40.5,20.5c0.3-0.8,0.4-1.7,0.7-2.5L369,219.5c-0.4,0.1-0.7,0.4-1.2,0.7
		C367.4,220.4,366.9,220.7,366.4,221z"/>
	<path class="st0" d="M244.5,379.4h0.2l0.5-0.1c0,0-0.1,0.1,0,0.3l66.7-54.8l-4.4-56.7c-0.1,0.1-0.2,0.2-0.3,0.4h-0.6
		c0.1-0.3,0.4-0.7,0.5-1c0.1-0.1,0.1-0.4,0.3-0.5l-0.3-4.2c-0.3,0.4-0.7,0.7-1,1.2c-0.3,0.4-0.7,0.8-1,1.2c-0.3,0.4-0.7,0.8-0.9,1.1
		c-0.1,0.1-0.2,0.3-0.4,0.4l4.4,57.9l-65.3,53.6C243.4,378.9,243.8,379.4,244.5,379.4z"/>
	<path class="st0" d="M364.9,222c-0.3,0.1-0.5,0.4-0.8,0.4l42.1,21.4c0.1-0.6,0.4-1.2,0.6-1.8c0.1-0.1,0.1-0.3,0.1-0.4L366.4,221
		l-0.1,0.1C365.8,221.4,365.4,221.6,364.9,222z"/>
	<path class="st0" d="M356.3,218c-0.1,0.1-0.2,0.3-0.3,0.4l1.9,0.9c0.3-0.4,0.4-0.8,0.7-1.3c0.1-0.2,0.3-0.5,0.5-0.8l-1.7-0.9
		c-0.1,0.1-0.1,0.1-0.1,0.2C356.9,217.1,356.7,217.5,356.3,218z"/>
	<path class="st0" d="M415.2,247.9c-0.1,0.1-0.1,0.2-0.3,0.4l2.3,1.2c0.1-0.1,0.2-0.2,0.3-0.4c0.6-0.7,0.9-1,0.9-1l0.4-0.4l0.1-0.1
		l-3.1-1.6C415.8,246.7,415.5,247.3,415.2,247.9z"/>
	<path class="st0" d="M354.8,220.4l2,1.1c0.1-0.1,0.1-0.2,0.1-0.4c0.2-0.5,0.4-0.9,0.7-1.5l0.1-0.1l-1.9-0.9
		c-0.2,0.3-0.4,0.6-0.6,0.9C355.3,219.6,355.1,219.9,354.8,220.4z"/>
	<path class="st0" d="M362.1,223.7c-0.1,0.1-0.2,0.1-0.3,0.1l43.7,22.2c0.1-0.4,0.2-0.7,0.4-1.1s0.2-0.7,0.4-1.1l-42.1-21.4
		c-0.2,0.1-0.4,0.3-0.6,0.4C362.9,223.1,362.6,223.4,362.1,223.7z"/>
	<path class="st0" d="M308.6,265.2c0.3-0.4,0.6-0.7,0.8-1.2c0.4-0.4,0.6-0.9,0.9-1.2c0.1-0.1,0.2-0.3,0.4-0.4l-0.3-3.6
		c-0.2,0.3-0.4,0.7-0.6,0.9c0,0-0.1,0.1-0.3,0.4c-0.2,0.3-0.7,0.7-1.2,1.2c-0.3,0.4-0.7,0.8-1.1,1.2c0,0,0,0-0.1,0.1l0.3,4.2
		c0.1-0.1,0.3-0.4,0.3-0.5C308,266,308.3,265.6,308.6,265.2z"/>
	<path class="st0" d="M246.2,382.3l69.3-56.9l-4.7-60.1c-0.1,0.1-0.1,0.1-0.1,0.1c-0.4,0.4-0.8,0.7-1.2,1.1s-0.8,0.7-1.2,1
		c-0.4,0.2-0.5,0.5-0.8,0.7l4.4,56.7l-66.7,54.8c0.1,0.4,0.1,1.1,0.5,1.9C245.8,381.8,246,382.1,246.2,382.3z"/>
	<path class="st0" d="M413.8,250.3l1.9,0.9c0.2-0.2,0.5-0.5,0.8-0.7c0.4-0.4,0.7-0.7,0.9-1l-2.3-1.2c-0.3,0.5-0.7,1.1-0.9,1.6
		C414,250.1,413.9,250.1,413.8,250.3z"/>
	<path class="st0" d="M412.3,252l1.7,0.9c0.4-0.4,0.8-0.7,1.2-1.1c0.1-0.1,0.3-0.4,0.5-0.5l-1.9-0.9c-0.3,0.4-0.6,0.7-0.9,1.1
		C412.7,251.5,412.6,251.8,412.3,252z"/>
	<path class="st0" d="M247.8,383.9c0.1,0.1,0.1,0.1,0.3,0.1l70.8-58.1l-4.9-63.5c-0.2,0.2-0.5,0.4-0.8,0.7c-0.5,0.4-0.9,0.8-1.2,1.2
		s-0.8,0.7-1.1,1l4.7,60.1l-69.3,56.9C246.6,382.9,247.1,383.4,247.8,383.9z"/>
	<path class="st0" d="M311.5,261.3c0.1-0.3,0.1-0.7,0.4-0.9c0.1-0.4,0.5-0.9,0.7-1.3c0.3-0.4,0.6-0.9,0.9-1.3c0,0,0,0,0.1-0.1
		l-0.3-3l-0.1,0.1c-0.4,0.4-0.8,0.9-1.2,1.4c-0.4,0.4-0.7,0.9-1,1.5c-0.3,0.4-0.6,0.9-0.8,1.4l0,0l0.3,3.6c0.3-0.4,0.5-0.6,0.7-0.8
		C311.3,261.4,311.5,261.3,311.5,261.3z"/>
	<path class="st0" d="M354,221.9c-0.1,0.1-0.1,0.2-0.1,0.4l5.2,2.7l-1.1-1.2l-1.3-1.4c0.1-0.2,0.1-0.6,0.4-1.1l-2-1.1
		c-0.1,0.1-0.1,0.1-0.2,0.3C354.5,221,354.3,221.5,354,221.9z"/>
	<path class="st0" d="M360.8,224.5c-0.4,0.2-0.7,0.5-1,0.7l45,22.8c0.1-0.2,0.2-0.5,0.3-0.7c0.1-0.4,0.4-0.9,0.5-1.3l-43.7-22.2
		C361.5,224.1,361.2,224.4,360.8,224.5z"/>
	<path class="st0" d="M315.8,254.9c0.2-0.3,0.5-0.5,0.7-0.8l-0.2-2.6c-0.1,0.1-0.2,0.2-0.4,0.4c-0.4,0.5-1,0.9-1.4,1.5
		c-0.4,0.4-0.8,0.9-1.2,1.5l0.3,3c0.4-0.4,0.7-0.9,1-1.4C315,255.8,315.3,255.4,315.8,254.9z"/>
	<path class="st0" d="M410.8,253.5L410.8,253.5l1.7,1c0.1-0.1,0.4-0.2,0.5-0.4c0.4-0.4,0.8-0.7,1.2-1.1l0,0l-1.7-0.9
		c-0.1,0.1-0.3,0.4-0.5,0.5C411.5,252.7,411.1,253.2,410.8,253.5z"/>
	<path class="st0" d="M359.1,224.9l-5.2-2.7c-0.1,0.4-0.3,0.7-0.4,0.9c-0.1,0.4-0.2,0.7-0.3,1L404,250c0.1-0.2,0.1-0.4,0.3-0.6
		c0.2-0.5,0.4-0.9,0.6-1.5l-45-22.8c-0.1,0.1-0.2,0.1-0.2,0.1L359.1,224.9z"/>
	<path class="st0" d="M322.2,326.2l-5.2-66.7c-0.4,0.4-0.7,0.7-1.1,1c-0.5,0.4-0.9,0.8-1.3,1.2c-0.1,0.1-0.4,0.4-0.5,0.5l4.9,63.5
		l-70.8,58.1c0.7,0.4,1.7,0.7,2.9,0.8L322.2,326.2z"/>
	<path class="st0" d="M319.5,250.8l-0.1-2c-0.4,0.3-0.8,0.7-1.3,1.1c-0.6,0.4-1.1,1-1.7,1.6l0.2,2.6c0.2-0.2,0.4-0.4,0.6-0.7
		C317.9,252.4,318.8,251.5,319.5,250.8z"/>
	<path class="st0" d="M252.1,386.2c0.1,0.1,0.1,0.2,0.1,0.3c0.1,0.1,0.1,0.1,0.1,0.1l73-59.9l-5.4-69.7c-0.4,0.4-0.8,0.7-1.2,1
		c-0.5,0.4-0.9,0.8-1.5,1.4c-0.1,0.1-0.2,0.2-0.4,0.2l5.2,66.7l-71.2,58.4c0.2,0,0.5,0.1,0.7,0.1
		C251.8,385.3,251.9,385.8,252.1,386.2z"/>
	<path class="st0" d="M408.8,255l1.9,0.9c0.4-0.2,0.7-0.7,1-0.9c0.2-0.2,0.4-0.4,0.7-0.6l-1.7-0.9c-0.4,0.2-0.7,0.5-0.9,0.8
		C409.4,254.5,409.2,254.7,408.8,255z"/>
	<path class="st0" d="M352.7,226.4L352.7,226.4l50.3,25.5c0.1-0.2,0.1-0.4,0.3-0.6c0.2-0.5,0.4-0.9,0.6-1.4l-50.8-25.8
		c-0.1,0.1-0.1,0.3-0.1,0.4C352.8,225.3,352.7,225.9,352.7,226.4z"/>
	<path class="st0" d="M407.7,255.8c-0.2,0.2-0.5,0.4-0.8,0.4l2.2,1c0.2-0.2,0.4-0.3,0.7-0.5c0.4-0.2,0.7-0.7,1-0.9l0,0l-1.9-0.9
		c-0.1,0.1-0.1,0.1-0.2,0.1C408.3,255.3,408.1,255.5,407.7,255.8z"/>
	<path class="st0" d="M402.4,254v-0.9c0.1-0.4,0.3-0.7,0.6-1.2l-50.2-25.5l1.2,2.8L402.4,254z"/>
	<path class="st0" d="M319.7,250.6c0.8-0.7,1.3-1.3,1.5-1.5c0.1-0.1,0.1-0.1,0.1-0.1c0.1,0.3,0.7,0.7,1.2,1l-0.3-4.1
		c-0.4,0.4-0.8,0.7-0.9,1.3c0,0-0.1,0.1-0.2,0.1c-0.2,0.2-0.7,0.5-1.5,1.1c-0.1,0.1-0.1,0.1-0.2,0.2l0.1,2
		C319.6,250.8,319.6,250.6,319.7,250.6z"/>
	<path class="st0" d="M254,388.3l74.4-61.1l-5.7-72.8c-0.8,0.7-1.7,1.5-2.5,2.3c-0.1,0.1-0.2,0.2-0.4,0.2l5.4,69.7l-73,59.9
		C252.9,387.4,253.3,387.9,254,388.3z"/>
	<path class="st0" d="M324.2,250.9l0.1,2c-0.4,0.4-0.9,0.8-1.3,1.2c-0.1,0.1-0.1,0.1-0.2,0.2l5.7,72.8l-74.4,61.1
		c0.1,0.1,0.3,0.1,0.4,0.2c0.7,0.4,1.4,0.5,2,0.7l75.1-61.6l-6.5-82.6c-0.4,0-0.9,0.1-1.2,0.2c-0.5,0.1-0.9,0.4-1.4,0.7
		c-0.1,0.1-0.1,0.1-0.2,0.2l0.3,4.1c0.1,0.1,0.1,0.1,0.3,0.1C323.2,250.4,323.7,250.7,324.2,250.9z"/>
	<path class="st0" d="M353.1,230.3c-0.2,0.2-0.4,0.4-0.7,0.5l54.9,27.9c0.1-0.1,0.2-0.2,0.4-0.2c0.4-0.2,0.7-0.5,1-0.7
		c0.2-0.1,0.2-0.2,0.4-0.3l-2.2-1c-0.1,0.1-0.1,0.1-0.2,0.1c-0.4,0.2-0.7,0.4-0.9,0.6c-0.5,0.4-0.8,0.4-0.9,0.5l0,0l-0.8-0.6
		l-0.8-0.6l-0.8-0.6v-1.7l-48.4-24.7l0.1,0.1C353.8,229.8,353.4,230,353.1,230.3z"/>
	<path class="st0" d="M351.3,231.9c-0.1,0.1-0.2,0.2-0.4,0.4l54.6,27.7c0.1-0.1,0.2-0.1,0.4-0.1c0.4-0.1,0.6-0.4,0.9-0.7
		c0.2-0.1,0.4-0.3,0.6-0.4l-54.9-27.9c-0.1,0.1-0.1,0.1-0.4,0.2C351.9,231.3,351.6,231.5,351.3,231.9z"/>
	<path class="st0" d="M258.9,389.3c0,0.2,0.1,0.4,0.1,0.5l75.3-61.9l-6.5-82.9l0,0c-0.5-0.1-0.9-0.1-1.4-0.1c-0.4,0-0.9-0.1-1.3,0
		l-0.1,0.1l6.5,82.6l-75.1,61.6c0.1,0.1,0.3,0.1,0.5,0.1C257.9,389.4,258.9,389.3,258.9,389.3z"/>
	<path class="st0" d="M261.1,390.7l76.1-62.5l-6.4-82.7c-0.1-0.1-0.3-0.1-0.3-0.1c-0.4-0.1-0.9-0.2-1.2-0.3
		c-0.4-0.1-0.8-0.1-1.2-0.2l6.5,82.9l-75.6,62c0.1,0.1,0.1,0.1,0.1,0.2C259.4,390.5,260.2,390.8,261.1,390.7z"/>
	<path class="st0" d="M350.5,232.5c-0.1,0.1-0.2,0.2-0.4,0.2c0,0,0.6,0.3,1.4,0.7c1.7,0.9,4.1,2.5,4.7,3.3l47.3,24.1
		c0.2-0.1,0.4-0.1,0.6-0.3c0.3-0.1,0.6-0.3,0.9-0.4c0.2-0.1,0.4-0.1,0.5-0.4L350.9,232C350.8,232.3,350.6,232.4,350.5,232.5z"/>
	<path class="st0" d="M264.1,390.3c0.4-0.1,0.7-0.1,1.1-0.3l74.7-61.4l-6.5-83.9c-0.2,0.2-0.4,0.5-0.6,0.7c-0.1,0.2-0.4,0.4-0.4,0.7
		c0,0-0.3-0.1-0.8-0.2c-0.3-0.1-0.5-0.1-0.9-0.3l6.4,82.7l-76.1,62.5c0.1-0.1,0.2,0,0.3-0.1C262.1,390.8,263.1,390.6,264.1,390.3z"
		/>
	<path class="st0" d="M356.2,237.1c0,0,0.1,0.6,0.1,1.2c0,0.2,0,0.4-0.1,0.5l44.6,22.6l0,0c0.2,0,0.5-0.1,0.7-0.1s0.5-0.1,0.8-0.1
		c0.3-0.1,0.6-0.1,0.8-0.3c0.1-0.1,0.2-0.1,0.3-0.1l-47.4-24.1C356.1,237,356.2,237,356.2,237.1z"/>
	<path class="st0" d="M354.8,239.9c-0.6-0.1-1.3-0.4-2.3-1.2c0,0-1.2-1.5-2.8-2.5c-0.7-0.4-1.5-0.8-2.3-0.9c-0.5-0.1-0.9-0.1-1.3,0
		c-0.1,0.1-0.2,0.1-0.3,0.1l51.8,26.3c0.1-0.2,0.3-0.5,0.4-0.7l0.7-0.2c0.2,0.2,0.5,0.4,0.7,0.4c0.3,0.1,0.5,0.1,0.8,0.2
		c0.2,0,0.5,0.1,0.7,0.1l-44.5-22.8c0,0.2-0.1,0.4-0.3,0.6C355.6,239.9,355.4,239.9,354.8,239.9z"/>
	<path class="st0" d="M265.1,390.1c0.5-0.1,1.1-0.3,1.5-0.5c0.9-0.3,1.8-0.7,2.8-1c0.4-0.1,0.8-0.3,1.2-0.4l72-59.2l-6.7-86.4
		c-0.4,0.2-0.7,0.5-0.9,0.8c-0.4,0.4-0.7,0.7-1,0.9c-0.1,0.1-0.3,0.4-0.4,0.5l6.4,83.9L265.1,390.1z"/>
	<path class="st0" d="M274.8,386.3c0.7-0.4,1.5-0.7,2.2-1l68.1-56l-6.8-88.7c-0.2,0.1-0.2,0.2-0.4,0.3c-0.4,0.2-0.7,0.5-1,0.7
		c-0.4,0.2-0.7,0.5-1,0.7c0,0,0,0-0.1,0.1l6.7,86.4l-72,59.2c0.6-0.3,1-0.4,1.6-0.7C273.1,387.1,274,386.7,274.8,386.3z"/>
	<path class="st0" d="M344.4,236.4c-0.1,0.1-0.2,0.1-0.2,0.2c0,0,0,0-0.1,0.1l52.5,26.6l0.1-0.1c0.2-0.3,0.4-0.7,0.7-1
		c0.1-0.1,0.1-0.2,0.2-0.3l-51.9-26.3c-0.2,0.1-0.4,0.1-0.7,0.3C345,235.9,344.7,236.2,344.4,236.4z"/>
	<path class="st0" d="M280,383.9c0.8-0.4,1.7-0.8,2.5-1.2c0.7-0.3,1.2-0.7,1.8-0.9l63.4-52l-7-90.8l-0.1,0.1
		c-0.2,0.2-0.6,0.4-0.9,0.6c-0.4,0.2-0.6,0.4-0.9,0.7c-0.2,0.1-0.4,0.2-0.5,0.4l6.8,88.7l-68.1,56c0.1-0.1,0.3-0.1,0.4-0.1
		C278.3,384.7,279.1,384.3,280,383.9z"/>
	<path class="st0" d="M343,237.3c-0.2,0.1-0.4,0.2-0.4,0.3l45.9,23.3c0.3-0.1,0.5-0.1,0.7-0.1c0.1-0.1,0.1,0.1,0.1,0.1
		c0.1-0.1,0.3-0.1,0.5,0.1c0.1,0.1,0.3,0.1,0.4,0.3c0.1,0.1,0.3,0.1,0.4,0.3c0.1,0.1,0.3,0.1,0.4,0.3c0.1,0.1,0.3,0.1,0.4,0.3
		c0.1,0.1,0.2,0.2,0.4,0.3c0.1,0.1,0.1,0.1,0.4,0.2c0.1,0.1,0.4,0.2,0.5,0.4c0.1,0.1,0.4,0.3,0.5,0.4c0.1,0.1,0.1,0.1,0.2,0.2
		l2.2,1.1c0.1-0.1,0.3-0.4,0.3-0.5c0.2-0.3,0.4-0.6,0.5-0.8l-52.5-26.6C343.9,236.7,343.6,237,343,237.3z"/>
	<path class="st0" d="M394.4,264.2c0.2,0.2,0.4,0.4,0.6,0.5c0.2,0.3,0.4,0.5,0.4,0.5c0.1-0.1,0.1-0.1,0.1-0.1
		c0.1-0.1,0.1-0.2,0.3-0.4l-2.2-1.1c0.1,0.1,0.2,0.2,0.4,0.2C394.1,263.9,394.2,264,394.4,264.2z"/>
	<path class="st0" d="M341.4,238.5c-0.2,0.2-0.5,0.4-0.7,0.5l7,90.7l-63.4,52c0.2-0.1,0.4-0.1,0.7-0.3c0.8-0.4,1.6-0.9,2.3-1.2
		c0.9-0.5,1.6-0.9,2.3-1.2c1.2-0.7,2-1.1,2.2-1.2c0.1-0.1,0.2-0.1,0.2-0.1c0.2-0.1,0.3-0.1,0.4-0.3l57.7-47.4l-7.1-90.3l43.4,22
		c0.2-0.3,0.6-0.4,0.9-0.7c0.3-0.1,0.6-0.1,0.9-0.2c0,0,0,0,0.1-0.1l-45.9-23.3c-0.1,0.1-0.3,0.1-0.4,0.2
		C342,238,341.7,238.2,341.4,238.5z"/>
	<path class="st0" d="M296.3,374.8c0.8-0.4,1.5-0.9,2.3-1.5c0.7-0.5,1.5-0.9,2.1-1.5c0.7-0.5,1.5-0.9,2.1-1.5c0.7-0.5,1.3-1,2.1-1.5
		c0.7-0.5,1.3-1,2-1.5c0.7-0.5,1.3-1,2-1.5c0.7-0.5,1.2-0.9,1.9-1.5l12.2-10c0.1-0.1,0.1-0.1,0.2-0.2c0.6-0.4,1.2-0.9,1.6-1.4
		c0.6-0.4,1-0.9,1.6-1.4c0.6-0.4,1-0.9,1.5-1.4c0.5-0.4,1-0.9,1.5-1.4c0.5-0.4,0.9-0.9,1.5-1.4c0.5-0.4,0.9-0.9,1.4-1.3
		c0.5-0.4,0.9-0.9,1.4-1.3l-0.1,0.1c0.1,0.1,0.5,0.1,0.9,0c0.1-0.1,0.2-0.1,0.3-0.1l17.8-14.7l-6.6-87.3l42.7,21.7
		c-0.1-0.1-0.1-0.1-0.2-0.2c-0.1-0.1-0.4-0.2-0.4-0.3c-0.1-0.1-0.4-0.2-0.4-0.4c-0.1-0.1-0.2-0.3-0.4-0.4c-0.2-0.2-0.3-0.4-0.4-0.5
		c-0.1-0.3-0.1-0.6,0.1-0.7l-43.4-22l7.1,90.3l-57.7,47.3c0.5-0.4,1.1-0.7,1.6-1C294.8,375.9,295.6,375.4,296.3,374.8z"/>
	<path class="st0" d="M390.2,265.3c-0.1-0.1-0.3-0.1-0.4-0.2c-0.1-0.1-0.3-0.1-0.4-0.2c-0.1-0.1-0.3-0.1-0.4-0.2
		c-0.1-0.1-0.4-0.1-0.4-0.2l2,1.1C390.5,265.4,390.4,265.4,390.2,265.3z"/>
	<path class="st0" d="M352.5,330.3L334.7,345c0.2-0.1,0.4-0.2,0.7-0.4c0.3-0.1,0.7-0.3,1-0.4s0.6-0.4,0.9-0.6s0.7-0.4,0.9-0.7
		c0.4-0.2,0.7-0.4,0.9-0.7c0.4-0.2,0.7-0.4,0.9-0.7c0.4-0.2,0.6-0.4,0.9-0.7c0.4-0.2,0.6-0.4,0.9-0.7c0.4-0.2,0.6-0.4,0.9-0.7
		s0.6-0.4,0.9-0.7s0.6-0.4,0.9-0.6c0.4-0.2,0.6-0.4,0.9-0.6c0.4-0.2,0.7-0.5,0.9-0.6c0.2-0.2,0.4-0.2,0.4-0.2s0.1,0.1,0.1,0.1l8-6.5
		l-6.8-85.1l45.2,22.9c-0.1-0.1-0.1-0.1-0.1-0.2c-0.1-0.3-0.3-0.7-0.5-0.9c-0.2-0.2-0.3-0.4-0.5-0.6c-0.1-0.1-0.4-0.3-0.5-0.4
		s-0.4-0.2-0.5-0.4c-0.2-0.2-0.4-0.3-0.7-0.4l0,0l-2-1.1l0,0c-0.1-0.1-0.1-0.1-0.1-0.1l-0.1-0.1l-42.6-21.6L352.5,330.3z"/>
	<path class="st0" d="M312.6,363.1c0.7-0.5,1.2-0.9,1.9-1.5c0.6-0.4,1.2-0.9,1.8-1.4c0.6-0.4,1.2-0.9,1.7-1.5
		c0.6-0.4,1.2-0.9,1.7-1.5c0.6-0.4,1.2-0.9,1.7-1.5c0.5-0.4,0.9-0.8,1.5-1.2l-12.2,10l0.1-0.1C311.3,364.2,312,363.6,312.6,363.1z"
		/>
	<path class="st0" d="M347.1,338.2c0.1,0.1,0.1,0.3,0.1,0.6l6.2-5.1c0.7-1.4,1.4-2.8,2-4.2c0.4-0.9,0.8-1.7,1.2-2.4l-6.1-78.7
		l42.6,21.6l0.1-0.1c0.1-0.4,0.2-0.9,0-1.4l-44.9-22.9l6.6,85.1l-8,6.5c0.1,0.1,0.1,0.1,0.1,0.3C347,337.7,347.1,338,347.1,338.2z"
		/>
	<path class="st0" d="M347.6,339.8c0.1,0.2,0.1,0.5,0.2,0.7l0,0l4.1-3.3c0.4-0.9,0.9-2,1.4-3c0.1-0.1,0.1-0.2,0.1-0.4l-6.2,5.1
		c0.1,0.1,0.1,0.1,0.1,0.1C347.5,339.3,347.5,339.6,347.6,339.8z"/>
	<path class="st0" d="M356.7,327.1c0.3-0.6,0.5-1.2,0.9-1.7c0.3-0.7,0.7-1.4,0.9-2l-5.6-72.1l39.5,20.1c0.1-0.1,0.1-0.2,0.1-0.2
		c0.1-0.1,0.1-0.1,0.1-0.1c0.2-0.3,0.3-0.5,0.5-0.8l-42.7-21.7L356.7,327.1z"/>
	<path class="st0" d="M348.2,341.8c0.1,0.1,0.1,0.1,0.1,0.2l2.2-1.8c0.1-0.2,0.2-0.5,0.3-0.7c0.3-0.7,0.7-1.6,1.2-2.5l-4.1,3.3
		c0.1,0.2,0.1,0.4,0.2,0.7C348.2,341.4,348.2,341.6,348.2,341.8z"/>
	<path class="st0" d="M360.3,319.7l-5.1-65.7l36.7,18.7c0.1-0.2,0.2-0.5,0.4-0.7c0.1-0.2,0.2-0.5,0.3-0.6L353,251.3l5.6,72.1
		c0.3-0.7,0.6-1.4,0.9-1.9C359.9,320.6,360.1,320.1,360.3,319.7z"/>
	<path class="st0" d="M348.4,342.5c0.1,0.4,0.2,0.7,0.2,0.9c0.1,0.1,0.1,0.1,0,0.3l0.5-0.4c0.1-0.1,0.1-0.2,0.1-0.2
		c0.1-0.2,0.1-0.4,0.3-0.6c0.1-0.2,0.1-0.4,0.3-0.6c0.2-0.5,0.4-0.9,0.7-1.5l-2.2,1.8C348.4,342.2,348.4,342.3,348.4,342.5z"/>
	<path class="st0" d="M360.7,319.1c0.1,0.1,0.3,0.1,0.4,0c0.1,0.1,0.2,0,0.3-0.1c0.1-0.1,0.2-0.1,0.4-0.1c0.1-0.1,0.3-0.1,0.4-0.1
		c0,0,0.1-0.1,0.2-0.1l-4.9-62.3l34,17.2c0.2-0.3,0.3-0.6,0.4-0.9c0.1-0.1,0.1-0.2,0.1-0.4l-36.7-18.7l5.1,65.9
		C360.4,319.3,360.6,319.1,360.7,319.1C360.6,319.2,360.7,319.1,360.7,319.1z"/>
	<path class="st0" d="M348.7,344.8L348.7,344.8L348.7,344.8c0.1-0.2,0.1-0.3,0.1-0.5C348.7,344.6,348.7,344.8,348.7,344.8z"/>
	<path class="st0" d="M362.9,318.4c0.1-0.1,0.2-0.2,0.4-0.3c0.2-0.1,0.2-0.2,0.4-0.3c0.2-0.1,0.2-0.2,0.4-0.3l0,0l-4.5-58.5
		l31.2,15.8l0.1-0.1c0.2-0.3,0.3-0.6,0.5-0.9c0,0,0.1-0.1,0.1-0.1l-34-17.2l4.9,62.3c0.1-0.1,0.2-0.1,0.3-0.1
		C362.9,318.5,362.7,318.5,362.9,318.4z"/>
	<path class="st0" d="M348.8,344.3L348.8,344.3L348.8,344.3c0.1-0.2,0.1-0.4,0.2-0.7c0.1-0.1,0.1-0.2,0.1-0.4l-0.5,0.4
		c0.1,0.1,0.1,0.1,0.1,0.1C348.8,344,348.8,344.2,348.8,344.3z"/>
	<path class="st0" d="M364.1,317.5c0.1-0.1,0.2-0.2,0.4-0.2c0.2-0.1,0.2-0.2,0.4-0.3c0.2-0.1,0.2-0.2,0.4-0.4s0.2-0.2,0.4-0.4
		c0.1-0.1,0.2-0.2,0.4-0.2l-0.4-4.7l-0.1,0.1c0,0-0.1,0.1-0.1-0.1c0,0,0.1-0.1,0.1-0.1c0,0,0.1-0.1,0.1-0.1l-3.9-49.6l28.6,14.5
		c0.1-0.1,0.2-0.3,0.3-0.4c0.1-0.2,0.2-0.5,0.4-0.7l-31.4-15.8L364.1,317.5z"/>
	<path class="st0" d="M365.8,310.7c0.1-0.1,0.1-0.1,0.2-0.3c0.1-0.1,0.1-0.1,0.2-0.3c0.1-0.1,0.1-0.1,0.2-0.3
		c0.1-0.1,0.1-0.1,0.2-0.3c0.1-0.1,0.1-0.1,0.2-0.3c0.1-0.1,0.1-0.1,0.2-0.3l-3.6-45.1l26,13.2c0.1-0.2,0.3-0.4,0.4-0.7
		c0.1-0.1,0.1-0.2,0.1-0.4l-28.6-14.5l3.9,49.6c0.1-0.1,0.1-0.1,0.1-0.1C365.7,310.9,365.8,310.8,365.8,310.7z"/>
	<path class="st0" d="M366.2,315.7c0.1-0.1,0.2-0.2,0.3-0.4c0.1-0.1,0.2-0.2,0.3-0.4c0.1-0.1,0.1-0.1,0.2-0.2s0.1-0.1,0.1-0.1
		c0.1-0.1,0.1-0.1,0.1-0.1l0.1-0.1l-0.4-4.1l-1.7,1.1l0.4,4.7c0,0,0,0,0.1-0.1C366,315.9,366.1,315.7,366.2,315.7z"/>
	<path class="st0" d="M367.7,314.2c0.1-0.1,0.1-0.1,0.1-0.1c0.1-0.1,0.1-0.1,0.1-0.1c0.1-0.1,0.1-0.1,0.1-0.1
		c0.1-0.1,0.1-0.1,0.1-0.1c0.1-0.1,0.1-0.1,0.1-0.1c0.1-0.1,0.1-0.1,0.1-0.1c0.1-0.1,0.1-0.1,0.1-0.1c0.1-0.1,0.1-0.1,0.1-0.1
		c0,0,0.1-0.1,0.1-0.1c0,0,0.1-0.1,0.1-0.1c0,0,0.1-0.1,0.1-0.1l0.1-0.1l-0.3-3.8c-0.1,0.1-0.4,0.2-0.5,0.4
		c-0.2,0.2-0.5,0.4-0.7,0.5l-0.5,0.4l0.4,4.1L367.7,314.2C367.7,314.2,367.7,314.2,367.7,314.2z"/>
	<path class="st0" d="M367.1,308.9C367.1,308.9,367.2,308.8,367.1,308.9l0.4-0.2l-0.1-0.1l0.1-0.1l0.1-0.1l0.1-0.1l0.1-0.1
		c0,0,0.1-0.1,0.1-0.1c0,0,0.1-0.1,0.1-0.1c0,0,0.1-0.1,0.1-0.1c0,0,0.1-0.1,0.1-0.1c0,0,0.1-0.1,0.1-0.1c0,0,0.1-0.1,0.1-0.1
		c0,0,0.1-0.1,0.1-0.1c0,0,0.1-0.1,0.1-0.1c0,0,0.1-0.1,0.1-0.1c0,0,0.1-0.1,0.1-0.1c0,0,0.1-0.1,0.1-0.1c0,0,0.1-0.1,0.1-0.1
		c0,0,0.1-0.1,0.1-0.1l0.1-0.1c0,0,0,0,0.1-0.1c0,0,0,0,0.1-0.1c0,0,0,0,0.1-0.1l-3.1-40.2l23.5,11.9c0.1-0.1,0.1-0.1,0.1-0.2
		c0.1-0.2,0.2-0.5,0.4-0.7c0,0,0.1-0.1,0.1-0.1l-26.1-13.1L367.1,308.9z"/>
	<path class="st0" d="M369.3,312.6c0,0,0.1-0.1,0.1-0.1c0,0,0.1-0.1,0.1-0.1c0,0,0.1-0.1,0.1-0.1c0,0,0.1-0.1,0.1-0.1l0.1-0.1
		l0.1-0.1l0.1-0.1l0.1-0.1l0.1-0.1l0.1-0.1l0.1-0.1l0.1-0.1l0.1-0.1l0.1-0.1l0.1-0.1l0.1-0.1c0,0,0,0,0.1-0.1c0,0,0,0,0.1-0.1
		c0,0,0,0,0.1-0.1c0.1-0.1,0.1-0.1,0.1-0.1l-0.3-3.5l0,0c0,0,0,0-0.1,0.1c0,0,0,0-0.1,0.1c0,0,0,0-0.1,0.1c0,0,0,0-0.1,0.1
		c0,0,0,0-0.1,0.1c0,0,0,0-0.1,0.1c0,0,0,0-0.1,0.1l-0.1,0.1l-0.1,0.1l-0.1,0.1l-0.1,0.1l-0.1,0.1l-0.1,0.1l-0.1,0.1l-0.1,0.1
		l-0.1,0.1l-0.1,0.1l-0.1,0.1l-0.1,0.1l-0.1,0.1l-0.1,0.1c0,0,0,0-0.1,0.1l-0.1,0.1l0.3,3.8l0,0
		C369.3,312.6,369.3,312.6,369.3,312.6z"/>
	<path class="st0" d="M368.8,306.7C368.8,306.6,368.8,306.6,368.8,306.7c0.1-0.1,0.1-0.1,0.1-0.1s0,0,0.1-0.1c0,0,0,0,0.1-0.1
		l0.1-0.1c0,0,0.1-0.1,0.1-0.1c0,0,0.1-0.1,0.1-0.1c0,0,0.1-0.1,0.1-0.1c0,0,0.1-0.1,0.1-0.1c0,0,0.1-0.1,0.1-0.1
		c0,0,0.1-0.1,0.1-0.1c0,0,0.1-0.1,0.1-0.1c0,0,0.1-0.1,0.1-0.1c0,0,0.1-0.1,0.1-0.1c0,0,0.1-0.1,0.1-0.1c0,0,0.1-0.1,0.1-0.1
		c0,0,0.1-0.1,0.1-0.1c0,0,0.1-0.1,0.1-0.1l0.1-0.1l0.1-0.1l0.1-0.1l0.1-0.1l0.1-0.1l-2.8-36.2l21,10.6c0.1-0.1,0.1-0.4,0.3-0.5
		c0.1-0.1,0.2-0.3,0.3-0.4l-23.3-11.6L368.8,306.7C368.7,306.7,368.7,306.7,368.8,306.7C368.7,306.7,368.7,306.7,368.8,306.7z"/>
	<path class="st0" d="M372.3,309.4l-0.3-3.3c0,0,0,0-0.1,0.1l-0.1,0.1l-0.1,0.1l-0.1,0.1l-0.1,0.1l-0.1,0.1l-0.1,0.1l-0.1,0.1
		l-0.1,0.1l-0.1,0.1l-0.1,0.1l-0.1,0.1c-0.1,0.1-0.4,0.4-0.7,0.6c0,0,0,0-0.1,0.1l0,0l0.3,3.5C371.4,310.5,371.9,309.8,372.3,309.4z
		"/>
	<path class="st0" d="M370.3,304.4l0.1-0.1l0.1-0.1l0.1,0.1V304c0.1-0.1,0.1-0.1,0.1-0.1c0.1-0.1,0.1-0.1,0.1-0.1
		c0.1-0.1,0.1-0.1,0.1-0.1c0.1-0.1,0.1-0.1,0.1-0.1c0.1-0.1,0.1-0.1,0.1-0.1c0.1-0.1,0.1-0.1,0.1-0.1c0.1-0.1,0.1-0.1,0.1-0.1
		c0.1-0.1,0.1-0.1,0.1-0.1c0.1-0.1,0.1-0.1,0.1-0.1c0,0,0,0,0.1-0.1l-2.5-31.9l18.6,9.4c0.1-0.1,0.1-0.1,0.1-0.2
		c0.1-0.1,0.3-0.4,0.4-0.6l0.1-0.1l-21-10.6l2.6,36.2l0,0C370.3,304.6,370.4,304.5,370.3,304.4z"/>
	<path class="st0" d="M373.8,307.7l-0.1-2.8l-0.1,0.1c0,0,0,0-0.1,0.1c0,0,0,0-0.1,0.1l-0.1,0.1l-0.1,0.1l-0.1,0.1l-0.1,0.1
		l-0.1,0.1l-0.1,0.1l0,0c0,0,0,0-0.1,0.1l-0.1,0.1l-0.1,0.1l-0.1,0.1l-0.1,0.1l-0.1,0.1c-0.1,0.1-0.1,0.1-0.1,0.1l-0.1,0.1l-0.1,0.1
		l0,0l0.3,3.3C372.9,308.7,373.4,308.1,373.8,307.7z"/>
	<path class="st0" d="M371.9,302.3l0.1-0.1l0.1-0.1l0.1-0.1l0.1-0.1l0.1-0.1l0.1-0.1l0,0c0,0,0.1-0.1,0.1-0.1c0,0,0.1-0.1,0.1-0.1
		c0,0,0.1-0.1,0.1-0.1c0,0,0.1-0.1,0.1-0.1c0,0,0.1-0.1,0.1-0.1c0,0,0.1-0.1,0.1-0.1c0,0,0.1-0.1,0.1-0.1c0,0,0.1-0.1,0.1-0.1
		c0,0,0.1-0.1,0.1-0.1c0,0,0.1-0.1,0.1-0.1c0,0,0.1-0.1,0.1-0.1c0,0,0.1-0.1,0.1-0.1l-2.2-27.8l16.2,8.1l0,0
		c0.1-0.1,0.3-0.4,0.3-0.5c0.1-0.1,0.1-0.2,0.2-0.3l-18.6-9.4l2.5,31.9c0,0,0.1-0.1,0.1-0.1C371.9,302.4,371.9,302.3,371.9,302.3z"
		/>
	<path class="st0" d="M375.3,306.1l-0.2-2.3l0,0l-0.1,0.1h-0.1l-0.1,0.1l-0.1,0.1l-0.1,0.1l-0.1,0.1l-0.1,0.1l-0.1,0.1l-0.1,0.1
		c0,0,0,0-0.1,0.1c0,0,0,0-0.1,0.1c0,0,0,0-0.1,0.1c-0.2,0.2-0.4,0.3-0.7,0.4l0.1,2.8c0.7-0.8,1.1-1.3,1.1-1.3
		C375,306.3,375.1,306.3,375.3,306.1z"/>
	<path class="st0" d="M373.2,300.5C373.3,300.4,373.3,300.4,373.2,300.5c0.1-0.1,0.1-0.1,0.1-0.1l0.1-0.1l0.1-0.1l0.1-0.1l0.1-0.1
		l0.1-0.1l0.1-0.1l0.1-0.1c0.1-0.1,0.1-0.1,0.1-0.1c0.1-0.1,0.1-0.1,0.1-0.1c0.1-0.1,0.1-0.1,0.1-0.1c0.1-0.1,0.1-0.1,0.1-0.1
		c0.1-0.1,0.1-0.1,0.1-0.1c0.1-0.1,0.1-0.1,0.1-0.1l0,0l-1.9-23.8l13.8,7c0.1-0.1,0.2-0.3,0.3-0.4c0.1-0.1,0.2-0.3,0.4-0.4
		l-16.2-8.1L373.2,300.5z"/>
	<path class="st0" d="M374.9,298.1c0.1-0.1,0.1-0.1,0.1-0.1c0.1-0.1,0.1-0.1,0.1-0.1c0.1-0.1,0.1-0.1,0.1-0.1
		c0.1-0.1,0.1-0.1,0.1-0.1c0.1-0.1,0.1-0.1,0.1-0.1c0.1-0.1,0.3-0.4,0.4-0.6l-1.5-19.9l11.5,5.8c0.1-0.1,0.2-0.2,0.3-0.4
		c0.1-0.1,0.2-0.3,0.4-0.4l0,0l-13.8-7.2l1.9,23.8c0.1-0.1,0.1-0.1,0.1-0.1C374.9,298.2,374.8,298.2,374.9,298.1z"/>
	<path class="st0" d="M375.8,306.1l0.7-0.9c0.1-0.1,0.1-0.1,0.1-0.1l-0.2-2.4c-0.1,0.1-0.1,0.1-0.1,0.1c-0.1,0.1-0.4,0.2-0.5,0.4
		c-0.1,0.1-0.1,0.1-0.1,0.1l-0.1,0.1l-0.1,0.1l-0.1,0.1l-0.1,0.1l-0.1,0.1l-0.1,0.1l-0.1,0.1c0,0,0,0-0.1,0.1l0.2,2.3
		C375.5,306.2,375.5,306.1,375.8,306.1L375.8,306.1z"/>
	<path class="st0" d="M378.1,303.8l-0.2-2.6l0,0c-0.1,0.1-0.4,0.4-0.5,0.5s-0.3,0.4-0.4,0.5c-0.1,0.1-0.2,0.2-0.3,0.4l0.2,2.4
		C377.2,304.6,377.6,304.3,378.1,303.8z"/>
	<path class="st0" d="M376.1,278.6l9.2,4.6c0.1-0.1,0.1-0.1,0.2-0.1c0.1-0.1,0.1-0.1,0.4-0.2c0.1-0.1,0.2-0.2,0.3-0.4l0,0l-11.5-5.8
		l1.5,19.9c0.4-0.7,0.9-1.3,1.4-1.9L376.1,278.6z"/>
	<path class="st0" d="M378.1,303.7C378.1,303.7,378.3,303.7,378.1,303.7c0.1-0.1,0.1-0.1,0.1-0.1l0.1-0.1l0.1-0.1l0.1-0.1l0.1-0.1
		l0.1-0.1l0.1-0.1l0.1-0.1c0,0,0.1-0.1,0.1-0.1c0,0,0.1-0.1,0.1-0.1c0,0,0.1-0.1,0.1-0.1c0,0,0.1-0.1,0.1-0.1c0,0,0.1-0.1,0.1-0.1
		l0,0l-0.2-2.8l-0.3,0.4c-0.2,0.2-0.4,0.4-0.6,0.7c-0.1,0.1-0.3,0.4-0.5,0.5l0.2,2.6C378.1,303.8,378.1,303.8,378.1,303.7
		L378.1,303.7z"/>
	<path class="st0" d="M377.7,280.4l7.7,3.9l-0.1-0.1c-0.1-0.1-0.2-0.3-0.3-0.4c-0.2-0.2-0.3-0.4-0.3-0.4c0.1-0.1,0.2-0.1,0.3-0.1
		c0.1-0.1,0.1-0.1,0.1-0.1l-9.2-4.6l1.2,16.1c0.4-0.7,0.9-1.3,1.2-1.8L377.7,280.4z"/>
	<path class="st0" d="M378.7,292.8c0.6-0.7,0.9-1.3,1.3-1.7l-0.7-8.9l7.1,3.6l-0.1-0.1c-0.1-0.1-0.2-0.4-0.4-0.5
		c-0.1-0.1-0.1-0.3-0.3-0.4c-0.1-0.1-0.1-0.2-0.3-0.4l-7.7-3.9L378.7,292.8z"/>
	<path class="st0" d="M379.6,302.4c0,0,0.1-0.1,0.1-0.1c0,0,0.1-0.1,0.1-0.1c0.1-0.1,0.1-0.1,0.1-0.1c0.1-0.1,0.1-0.1,0.1-0.1
		c0.1-0.1,0.1-0.1,0.1-0.1c0.1-0.1,0.1-0.1,0.1-0.1c0.1-0.1,0.1-0.1,0.1-0.1c0.1-0.1,0.1-0.1,0.1-0.1c0,0,0.1-0.1,0.1-0.1l-0.2-2.8
		l0,0c-0.1,0.1-0.1,0.1-0.1,0.1c-0.1,0.1-0.1,0.1-0.1,0.1c-0.1,0.1-0.1,0.1-0.1,0.1c-0.1,0.1-0.1,0.1-0.1,0.1
		c-0.1,0.1-0.1,0.1-0.1,0.1c-0.1,0.1-0.1,0.1-0.1,0.1c-0.1,0.1-0.1,0.1-0.1,0.1c0,0-0.1,0.1-0.1,0.1c0,0-0.1,0.1-0.1,0.1
		c0,0-0.1,0.1-0.1,0.1l-0.1-0.1l-0.1,0.1l0.2,2.8l0.1-0.1C379.4,302.4,379.6,302.4,379.6,302.4z"/>
	<path class="st0" d="M380.5,290.7c0.1,0.1,0.1,0.1,0.2,0.2c0.1,0.1,0.1,0.1,0.1,0.1c0.1,0.1,0.1,0.1,0.1,0.1
		c0.1,0.1,0.1,0.1,0.1,0.1c0.1,0.1,0.1,0.1,0.1,0.1c0.1,0.1,0.1,0.1,0.1,0.1l0,0l-0.6-7.7l6.3,3.1c-0.1-0.1-0.1-0.1-0.1-0.1
		c-0.1-0.2-0.2-0.5-0.3-0.7c-0.1-0.1-0.1-0.3-0.2-0.5l-7.1-3.6l0.7,8.9c0.3-0.4,0.4-0.6,0.4-0.6S380.4,290.5,380.5,290.7z"/>
	<path class="st0" d="M380.9,301c0.1-0.1,0.1-0.1,0.1-0.1c0.1-0.1,0.1-0.1,0.1-0.1c0.1-0.1,0.1-0.1,0.1-0.1c0.1-0.1,0.1-0.1,0.1-0.1
		c0.1-0.1,0.1-0.1,0.1-0.1c0.1-0.1,0.1-0.1,0.2-0.2c0,0,0,0,0.1-0.1l-0.2-2.8c-0.1,0.1-0.1,0.1-0.1,0.1c-0.1,0.1-0.1,0.1-0.1,0.1
		c-0.1,0.1-0.1,0.1-0.1,0.1c-0.1,0.1-0.1,0.1-0.1,0.1c-0.1,0.1-0.1,0.1-0.1,0.1c-0.1,0.1-0.1,0.1-0.1,0.1c-0.1,0.1-0.1,0.1-0.1,0.1
		c-0.1,0.1-0.1,0.1-0.1,0.1l0.2,2.8C380.8,301.1,380.8,301.1,380.9,301C380.8,301,380.8,301,380.9,301z"/>
	<path class="st0" d="M381.5,291.9c0.1,0.1,0.1,0.1,0.1,0.1c0.1,0.1,0.1,0.1,0.1,0.1c0.1,0.1,0.1,0.1,0.1,0.1
		c0.1,0.1,0.1,0.1,0.2,0.2c0.1,0.1,0.1,0.1,0.2,0.2c0.1,0.1,0.1,0.1,0.2,0.2c0.1,0.1,0.1,0.1,0.2,0.2c0,0,0,0,0.1,0.1l-0.6-7.4
		l5.2,2.6c-0.1-0.1-0.1-0.4-0.1-0.5c-0.1-0.2-0.2-0.4-0.3-0.7l-6.3-3.1L381.5,291.9C381.5,291.8,381.5,291.8,381.5,291.9
		C381.4,291.7,381.5,291.8,381.5,291.9z"/>
	<path class="st0" d="M382.1,299.5c0.1-0.1,0.1-0.1,0.2-0.3c0.1-0.1,0.1-0.1,0.2-0.3c0.1-0.1,0.1-0.1,0.2-0.3
		c0.1-0.1,0.1-0.1,0.2-0.3c0.1-0.1,0.1-0.1,0.2-0.3c0,0,0,0,0.1-0.1l-0.2-2.7c0,0,0,0-0.1,0.1c-0.1,0.1-0.1,0.1-0.2,0.3
		s-0.1,0.1-0.2,0.3c-0.1,0.1-0.1,0.1-0.2,0.2c-0.1,0.1-0.1,0.1-0.2,0.2c-0.1,0.1-0.1,0.1-0.2,0.2c-0.1,0.1-0.1,0.1-0.1,0.1l0,0
		l0.2,2.8C382,299.7,382.1,299.5,382.1,299.5z"/>
	<path class="st0" d="M383.5,297.6c0.1-0.1,0.1-0.2,0.2-0.3c0.1-0.1,0.1-0.2,0.3-0.4c0.1-0.1,0.2-0.3,0.3-0.4l0,0l-0.7-9.2l4.1,2.1
		c-0.1-0.1-0.1-0.4-0.1-0.5c-0.1-0.1-0.1-0.3-0.1-0.5l-5.2-2.6l0.6,7.4c0.1,0.1,0.1,0.1,0.1,0.1c0.1,0.1,0.1,0.1,0.2,0.2
		c0.1,0.1,0.1,0.1,0.2,0.2c0.1,0.1,0.1,0.1,0.2,0.2c0.1,0.1,0.1,0.1,0.3,0.1c0.1,0.1,0.1,0.1,0.3,0.1v0.2c-0.1,0.1-0.1,0.1-0.2,0.3
		c-0.1,0.1-0.1,0.1-0.2,0.3c-0.1,0.1-0.1,0.1-0.2,0.3c-0.1,0.1-0.1,0.1-0.2,0.3c-0.1,0.1-0.1,0.1-0.1,0.1l0.2,2.7
		c0.1-0.1,0.1-0.1,0.2-0.3C383.4,297.9,383.4,297.7,383.5,297.6z"/>
	<path class="st0" d="M384.2,296.6c0.1-0.1,0.2-0.3,0.3-0.4c0.1-0.1,0.2-0.3,0.3-0.4c0.1-0.1,0.2-0.3,0.3-0.4
		c0.1-0.1,0.2-0.3,0.3-0.5l0,0l-0.5-5.9l2.9,1.5c0-0.3-0.1-0.7-0.1-0.9l-4.1-2.1L384.2,296.6z"/>
	<path class="st0" d="M385.9,293.8c0.1-0.1,0.1-0.1,0.1-0.1c0.1-0.1,0.2-0.1,0.3-0.1c0.1-0.1,0.2-0.1,0.1-0.1l-0.2-2.9l1.5,0.8
		c0.1-0.3,0.1-0.5,0.1-0.8l-2.9-1.5l0.5,5.9c0.1-0.1,0.1-0.4,0.2-0.5C385.7,294.1,385.8,293.9,385.9,293.8z"/>
	<path class="st0" d="M386.4,293.4L386.4,293.4c0.1-0.1,0.3-0.3,0.4-0.3c0.1-0.1,0.2-0.3,0.4-0.4s0.2-0.3,0.3-0.5l-0.1-0.1l0,0
		l0.1-0.1c0.1-0.2,0.1-0.4,0.1-0.7l-1.5-0.8L386.4,293.4z"/>
	<path class="st0" d="M387.4,292L387.4,292C387.4,292,387.4,292,387.4,292L387.4,292z"/>
</g>
</svg>
