<?xml version="1.0" encoding="utf-8"?>
<!-- Generator: Adobe Illustrator 22.0.1, SVG Export Plug-In . SVG Version: 6.00 Build 0)  -->
<svg version="1.1" id="レイヤー_1" xmlns="http://www.w3.org/2000/svg" xmlns:xlink="http://www.w3.org/1999/xlink" x="0px"
	 y="0px" viewBox="0 0 640 640" style="enable-background:new 0 0 640 640;" xml:space="preserve">
<style type="text/css">
	.st0{fill:none;stroke:#FFFFFF;stroke-width:0.2938;stroke-miterlimit:10;}
</style>
<g>
	<path class="st0" d="M23.8,71.2c-0.3-0.2-0.5-0.3-0.6-0.4l2.1,2.7l0.9-1C25.2,72,24.3,71.6,23.8,71.2z"/>
	<path class="st0" d="M28.5,76.3c0,0,0.3,0.9,0.9,1.6c0.2,0.2,0.4,0.4,0.6,0.5l2.7-2.8c-0.8-0.4-1.7-0.8-2.5-1.1
		c-0.2-0.1-0.5-0.2-0.7-0.3l-2.1,2.3C27.8,76.4,28.2,76.4,28.5,76.3z"/>
	<path class="st0" d="M60.1,50.3c-0.3,0.2-0.7,0.4-1.1,0.6c-0.4,0.2-0.7,0.4-1.1,0.6c-0.3,0.2-0.7,0.5-1,0.7c-0.3,0.3-0.7,0.5-1,0.8
		c-0.3,0.3-0.6,0.6-0.9,0.9c-0.3,0.3-0.6,0.7-0.8,1.1c-0.3,0.4-0.5,0.8-0.7,1.3c-0.2,0.5-0.4,1-0.4,1.6c0,0.2,0,0.5,0,0.7l8.2-8.7
		C60.7,50,60.4,50.2,60.1,50.3z"/>
	<path class="st0" d="M31.8,78.4c0,0,0.2,0.2,0.4,0.6c0.2,0.3,0.5,0.6,0.8,0.8l2.7-2.9c-1-0.5-2.1-0.9-3.1-1.4L30,78.4
		C30.4,78.7,31,78.8,31.8,78.4z"/>
	<path class="st0" d="M53.8,62.2l19.5-20.8c-1.1,0-2.1,0.2-3,0.6c-0.5,0.2-1.1,0.5-1.6,0.9c-0.4,0.3-0.8,0.6-1.2,0.9
		c-0.3,0.3-0.7,0.6-1,0.9c-0.3,0.3-0.6,0.6-0.9,0.9c-0.3,0.3-0.5,0.6-0.8,0.9c-0.2,0.3-0.4,0.5-0.6,0.8c-0.2,0.3-0.4,0.6-0.6,0.8
		c-0.3,0.4-0.4,0.7-0.6,0.9c-0.2,0.2-0.2,0.4-0.2,0.4s-0.2,0.1-0.6,0.2c-0.3,0.1-0.7,0.3-1.1,0.4c0,0-0.1,0-0.1,0l-8.2,8.7
		c0,0.5,0,1,0.2,1.5C53.2,60.8,53.4,61.5,53.8,62.2z"/>
	<path class="st0" d="M133.7,192.9c0.5,0.5,1,1,1.5,1.4c0.9,0.8,1.7,1.6,2.6,2.4c0.8,0.8,1.7,1.5,2.5,2.2c0.8,0.7,1.6,1.4,2.4,2.1
		c0.5,0.4,0.9,0.8,1.4,1.2l-4.9-8.9L133.7,192.9z"/>
	<path class="st0" d="M34,80.6c0.8,0.4,1.6,0.5,2.3-0.4c0,0,0.1,0.2,0.2,0.4l2.2-2.3c-0.1-0.1-0.3-0.1-0.4-0.2
		c-0.8-0.4-1.7-0.8-2.6-1.1c0,0,0,0,0,0L33,79.8C33.3,80.1,33.7,80.4,34,80.6z"/>
	<path class="st0" d="M37.1,81.3c0.4,0.5,1,1,1.7,1.3l2.9-3.1c-0.3-0.1-0.6-0.3-0.9-0.4c-0.7-0.3-1.3-0.6-2-0.9l-2.2,2.3
		C36.7,80.8,36.8,81.1,37.1,81.3z"/>
	<path class="st0" d="M55.6,64.7l20.9-22.3c-0.6-0.4-1.2-0.7-1.9-0.8l-1.1-0.2c-0.1,0-0.2,0-0.3,0L53.8,62.2
		C54.2,63,54.8,63.8,55.6,64.7z"/>
	<path class="st0" d="M147.2,204.8c0.7,0.6,1.4,1.1,2.1,1.7c0.7,0.5,1.3,1.1,2,1.6c0.2,0.1,0.3,0.2,0.5,0.4l-10.7-19.3l-12.5-1.2
		c0.3,0.3,0.7,0.7,1,1c0.9,0.9,1.9,1.9,2.9,2.8c0.4,0.4,0.8,0.8,1.2,1.1l5.5,0.5l4.9,8.9c0.3,0.2,0.6,0.5,0.9,0.7
		C145.7,203.6,146.4,204.2,147.2,204.8z"/>
	<path class="st0" d="M111,185.4C111,185.4,111,185.5,111,185.4C111.1,185.5,111.1,185.4,111,185.4c0.1-0.1,0.1-0.3,0-0.4
		C111,185.2,111,185.3,111,185.4z"/>
	<path class="st0" d="M122,183.6c0.9,0.5,1.7,1,2.3,1.2l-0.6-1.7l-2.9-0.3C121.2,183.1,121.6,183.4,122,183.6z"/>
	<path class="st0" d="M42.7,82.1l0.5,0.1l1.3-1.4c-0.4-0.2-0.8-0.4-1.3-0.6c-0.5-0.2-1-0.4-1.5-0.7l-2.9,3.1c0.1,0,0.1,0.1,0.2,0.1
		C40,83,41.2,83,42.7,82.1z"/>
	<path class="st0" d="M78.7,44.3c-0.4-0.4-0.7-0.8-1.1-1.1c-0.4-0.3-0.8-0.6-1.2-0.9L55.6,64.7c0.6,0.7,1.3,1.4,2.1,2.1L78.7,44.3z"
		/>
	<path class="st0" d="M151.7,208.5c0.5,0.4,1,0.8,1.5,1.1c0.6,0.5,1.2,0.9,1.9,1.4c0.6,0.4,1.2,0.9,1.8,1.3c0.6,0.4,1.2,0.8,1.8,1.2
		L142.9,185l-19-1.9c0.9,0.9,1.8,1.8,2.7,2.8c0.7,0.7,1.3,1.3,2,2l12.5,1.2L151.7,208.5z"/>
	<path class="st0" d="M110.2,182.4c0.2,0.5,0.4,1,0.5,1.4c0.2,0.5,0.3,0.9,0.3,1.1c0.1-0.4,0.2-1,0.4-1.7c0.1-0.4,0.3-0.9,0.4-1.3
		l-1.9-0.2C110,182,110.1,182.2,110.2,182.4z"/>
	<path class="st0" d="M46.3,83l2.2-2.4c-0.5-0.3-0.9-0.4-1.2,0c0-0.1,0-0.3,0-0.4l-1.8,1c-0.3-0.1-0.7-0.3-1.1-0.5l-1.3,1.4l0.5,0.1
		L46.3,83z"/>
	<path class="st0" d="M160,214.4c0.3,0.2,0.7,0.4,1,0.7c0.3,0.2,0.7,0.4,1,0.7c0.3,0.2,0.7,0.5,1,0.7c0.2,0.1,0.3,0.2,0.5,0.3
		c0,0,0.2,0.1,0.6,0.4c0.2,0.1,0.4,0.2,0.7,0.4L144.7,181l-30.3-3c0.3,0.2,0.7,0.5,1.1,0.8c0.4,0.3,0.8,0.6,1.2,0.9
		c0.4,0.3,0.8,0.6,1.2,0.9c0.4,0.3,0.9,0.6,1.3,1c0.5,0.3,0.9,0.7,1.4,1c0.1,0.1,0.2,0.1,0.3,0.2l2.9,0.3l-0.2-0.4
		c0.1,0.2,0.3,0.3,0.5,0.5l19,1.9l15.7,28.5c0.1,0.1,0.3,0.2,0.4,0.3C159.4,214,159.7,214.2,160,214.4z"/>
	<path class="st0" d="M112.8,178.9c0.1-0.4,0.2-0.7,0.3-1l-4.8-0.5c0.1,0.4,0.3,0.7,0.4,1c0.2,0.4,0.3,0.9,0.5,1.3
		c0.2,0.5,0.3,0.9,0.5,1.3c0.1,0.3,0.2,0.5,0.3,0.7l1.9,0.2c0.1-0.3,0.2-0.6,0.3-0.9C112.4,180.3,112.6,179.6,112.8,178.9z"/>
	<path class="st0" d="M80.4,46.6c-0.2-0.3-0.3-0.5-0.5-0.7c-0.3-0.5-0.6-0.9-1-1.3c-0.1-0.1-0.2-0.2-0.3-0.3l-21,22.5
		c0.7,0.6,1.4,1.2,2.2,1.8L80.4,46.6z"/>
	<path class="st0" d="M47.4,83.3l-0.2,1.6L47.1,86l0.1,0.1l3.3-3.5c-0.3-0.4-0.7-0.9-1.1-1.3c-0.3-0.3-0.6-0.5-0.8-0.7L46.3,83
		l0.2,0L47.4,83.3z"/>
	<path class="st0" d="M166.4,218.4c0.4,0.2,0.8,0.4,1.2,0.7c0.4,0.2,0.8,0.4,1.2,0.7c0.4,0.2,0.8,0.4,1.3,0.7c0,0,0.1,0,0.1,0.1
		l-23.9-43.3l-39.7-3.9c0.1,0.2,0.2,0.4,0.2,0.6c0.1,0.4,0.3,0.7,0.4,1.1c0.2,0.4,0.3,0.8,0.4,1.2c0.2,0.4,0.3,0.8,0.5,1.2
		c0,0.1,0,0.1,0.1,0.2l4.8,0.5c0.1-0.4,0.2-0.6,0.2-0.6s0.3,0.3,0.8,0.7c0,0,0.1,0,0.1,0.1l30.3,3l20.1,36.4
		c0.1,0.1,0.3,0.2,0.5,0.3C165.6,217.9,166,218.1,166.4,218.4z"/>
	<path class="st0" d="M60,68.6c0,0,0,0.3-0.1,0.7c0,0.5-0.1,1.2-0.1,2.2c0,0.3,0,0.7,0,1l22-23.5c-0.2-0.3-0.3-0.6-0.5-0.9
		c-0.2-0.4-0.4-0.8-0.6-1.1c-0.1-0.2-0.2-0.3-0.3-0.5L59.9,68.5C59.9,68.6,60,68.6,60,68.6z"/>
	<path class="st0" d="M60.1,76.2l23.8-25.4c-0.9-0.2-1.4-0.2-1.4-0.2c0-0.1-0.1-0.1-0.1-0.2c-0.2-0.4-0.3-0.7-0.5-1.1
		c0-0.1-0.1-0.1-0.1-0.2l-22,23.5c0,0.4,0,0.9,0.1,1.4C60,74.6,60,75.4,60.1,76.2z"/>
	<path class="st0" d="M172.9,221.8c0.5,0.2,0.9,0.5,1.4,0.7c0.4,0.2,0.8,0.4,1.1,0.6L148,173.4l-42.9-4.2c0.1,0.2,0.1,0.4,0.2,0.5
		c0.1,0.3,0.3,0.7,0.4,1c0.1,0.3,0.3,0.7,0.4,1c0.1,0.3,0.3,0.7,0.4,1c0.1,0.2,0.1,0.3,0.2,0.5l39.7,3.9l23.9,43.3
		c0.4,0.2,0.8,0.4,1.2,0.6C171.9,221.3,172.4,221.5,172.9,221.8z"/>
	<path class="st0" d="M48,86.9l1.1,1.1l2.8-3c0-0.1,0-0.2,0-0.4c0,0,0-0.1-0.1-0.2c-0.2-0.3-0.6-0.9-1.1-1.6
		c-0.1-0.1-0.1-0.2-0.2-0.3l-3.3,3.5l0.6,0.6L48,86.9z"/>
	<path class="st0" d="M99.4,36.6L99.4,36.6c0.1-0.1,0.1-0.2,0.2-0.3l-3.8-17.6l-0.2,0.1l-0.1-0.1l-1.9-2.3l-1.1-1.3
		c0.2,0.3,0.7,2.1,1.3,4.5c0.8,3.3,1.7,7.8,2.5,11.8c0.1,0.6,0.2,1.1,0.3,1.6c0.1,0.5,0.2,1.1,0.3,1.6c0.1,0.5,0.2,1.1,0.3,1.5
		c0.1,0.5,0.2,1,0.3,1.5c0.1,0.5,0.2,1,0.3,1.4c0,0.1,0,0.2,0.1,0.3l1.4-1.5L99.4,36.6z"/>
	<path class="st0" d="M49.2,88.1l1.2,1.4c0.1,0.2,0.3,0.4,0.5,0.5l1.9-2c-0.2-0.5-0.4-1.1-0.5-1.6C52,85.9,52,85.4,51.9,85
		L49.2,88.1L49.2,88.1z"/>
	<path class="st0" d="M60.6,79.5l26.2-28c-1.2-0.3-2.2-0.5-2.9-0.7L60.1,76.2c0,0.1,0,0.3,0.1,0.4C60.3,77.5,60.4,78.4,60.6,79.5z"
		/>
	<path class="st0" d="M177.3,223.9c0.5,0.2,1,0.5,1.6,0.7c0.5,0.2,1,0.4,1.5,0.6l-30.7-55.6l-46.1-4.6c0,0,0,0,0,0
		c0.1,0.3,0.2,0.6,0.3,0.8c0.1,0.3,0.2,0.6,0.3,0.9c0.1,0.3,0.2,0.6,0.4,0.9c0.1,0.3,0.2,0.6,0.4,0.9c0.1,0.1,0.1,0.3,0.2,0.4
		l42.9,4.2l27.4,49.7c0.1,0.1,0.2,0.1,0.3,0.2C176.3,223.4,176.8,223.7,177.3,223.9z"/>
	<path class="st0" d="M52.4,91.9l1.5-1.6c-0.2-0.2-0.3-0.5-0.4-0.7c-0.3-0.5-0.5-1-0.8-1.6c0,0,0-0.1,0-0.1l-1.9,2
		c0.2,0.2,0.4,0.5,0.7,0.8C51.8,91.1,52.1,91.5,52.4,91.9z"/>
	<path class="st0" d="M99.7,30.7c-0.4-0.5-0.8-0.8-0.8-0.8c0.3-0.1,0.5-0.3,0.7-0.5c0.5-0.7,0.3-1.7-0.2-2.5c-0.5-1-1.2-1.8-1.2-1.8
		c1.1-1.4,0-2.6-0.7-3.2c-0.3-0.3-0.6-0.4-0.6-0.4c0.3-0.6,0.4-1.8,0.4-2.6c0-0.5,0-0.9,0-0.9l-0.1,0l-1.4,0.7l3.8,17.6
		C101.7,34,100.6,31.9,99.7,30.7z"/>
	<path class="st0" d="M61,81.2c0.1,0.4,0.2,0.8,0.3,1.3l28.3-30.2c-1-0.3-1.9-0.6-2.7-0.8l-26.2,28c0,0,0,0.1,0,0.1
		C60.8,80.1,60.9,80.6,61,81.2z"/>
	<path class="st0" d="M182.2,226.1c0.6,0.2,1.2,0.5,1.7,0.7c0.3,0.1,0.6,0.2,0.9,0.3l-33.6-60.9l-49.2-4.9c0.1,0.2,0.2,0.5,0.3,0.8
		c0.1,0.2,0.2,0.5,0.3,0.7c0.1,0.2,0.2,0.5,0.3,0.8c0.1,0.3,0.2,0.5,0.3,0.8c0.1,0.3,0.2,0.5,0.3,0.8l46.1,4.6l30.7,55.6
		c0.1,0,0.1,0.1,0.2,0.1C181,225.6,181.6,225.8,182.2,226.1z"/>
	<path class="st0" d="M98.3,40.8c-0.6-0.1-1.1-0.1-1.3,0c-0.3,0.1-0.4,0.4-0.4,0.8c0.1,0.4,0.3,0.9,0.7,1.4c0.1,0.2,0.3,0.4,0.4,0.6
		l2-2.1l-0.1,0l0-0.6l0-1.4l0-1.4l0,0L98,39.5c0.1,0.5,0.2,0.9,0.2,1.1C98.3,40.8,98.3,40.8,98.3,40.8z"/>
	<path class="st0" d="M98.4,44.4c0.3,0.4,0.6,0.7,0.9,1l3.2-3.4l-0.2-0.3l-2.6-0.3l-2,2.1C97.9,43.9,98.1,44.2,98.4,44.4z"/>
	<path class="st0" d="M61.9,84.7c0,0.2,0.1,0.3,0.1,0.5l30-32.1c-0.3-0.1-0.6-0.2-0.9-0.4c-0.5-0.2-1.1-0.4-1.6-0.6L61.3,82.5
		c0,0.2,0.1,0.4,0.1,0.6C61.5,83.6,61.7,84.1,61.9,84.7z"/>
	<path class="st0" d="M184.8,227.1c0.3,0.1,0.6,0.2,0.9,0.3c0.7,0.2,1.3,0.4,1.9,0.6c0.5,0.1,0.9,0.3,1.3,0.4l-36.2-65.7l-55.5-5.5
		c0.1,0.1,0.1,0.1,0.2,0.2c0.3,0.3,0.6,0.5,0.8,0.7c0.3,0.2,0.6,0.4,0.8,0.6c0.3,0.2,0.6,0.4,0.8,0.5c0.4,0.2,0.7,0.2,0.9,0.2
		c0.1,0,0.2-0.1,0.3-0.1c0,0,0.1,0.4,0.4,1c0.1,0.3,0.3,0.7,0.4,1.1l49.2,4.9L184.8,227.1z"/>
	<path class="st0" d="M53.7,93.3c0.1,0.1,0.3,0.3,0.4,0.4l1.3-1.4c-0.4-0.4-0.7-0.8-1-1.3c-0.2-0.2-0.3-0.5-0.5-0.7l-1.5,1.6
		c0,0.1,0.1,0.1,0.1,0.2C52.9,92.4,53.3,92.9,53.7,93.3z"/>
	<path class="st0" d="M99.9,46.1c0.5,0.2,1,0.4,1.5,0.6l2.4-2.6l-0.8-1.3l-0.1-0.1l-0.4-0.7l-3.2,3.4c0.2,0.2,0.3,0.3,0.4,0.4
		C99.8,46,99.9,46.1,99.9,46.1z"/>
	<path class="st0" d="M191.7,228.8c0.3,0,0.5,0,0.7,0l-38.3-69.4l-60.6-6c0.2,0.2,0.3,0.4,0.5,0.6c0.3,0.3,0.6,0.6,0.9,1
		c0.3,0.3,0.6,0.6,0.9,0.9c0.3,0.3,0.6,0.6,0.8,0.8c0.2,0.2,0.4,0.4,0.6,0.6l55.5,5.5l36.2,65.7c0.2,0.1,0.5,0.1,0.7,0.2
		C190.4,228.7,191.1,228.8,191.7,228.8z"/>
	<path class="st0" d="M55.8,95.4l1.3-1.4c-0.2-0.2-0.4-0.3-0.5-0.5c-0.4-0.4-0.8-0.7-1.1-1.2c0,0,0,0,0,0l-1.3,1.4
		c0.2,0.3,0.5,0.5,0.7,0.8C55.1,94.8,55.4,95.1,55.8,95.4z"/>
	<path class="st0" d="M62.8,87.8l31.5-33.7c-0.8-0.4-1.6-0.7-2.3-1L62,85.2c0.1,0.4,0.2,0.8,0.3,1.2C62.5,86.9,62.6,87.3,62.8,87.8z
		"/>
	<path class="st0" d="M194.3,227.7l0.1-0.2l0.1-0.5c0,0,0.1,0,0.3,0l-39.2-71l-59.4-5.9c0.1,0.1,0.2,0.3,0.3,0.4l-0.2,0.6
		c-0.3-0.2-0.6-0.4-1-0.7c-0.2-0.1-0.3-0.3-0.5-0.4l-4.4-0.4c0.3,0.4,0.6,0.7,0.9,1.1c0.3,0.4,0.6,0.7,0.9,1.1
		c0.3,0.3,0.6,0.7,0.9,1.1c0.1,0.1,0.2,0.3,0.4,0.4l60.6,6l38.3,69.4C193.4,228.7,194.1,228.4,194.3,227.7z"/>
	<path class="st0" d="M63.4,89.5c0.1,0.3,0.2,0.5,0.3,0.8l32.8-35.1c-0.6-0.3-1.2-0.6-1.7-0.8c-0.1-0.1-0.3-0.1-0.4-0.2L62.8,87.8
		c0,0,0,0.1,0,0.1C63,88.5,63.2,89,63.4,89.5z"/>
	<path class="st0" d="M57.1,96.6c0.1,0.1,0.2,0.2,0.4,0.3l1.5-1.6c-0.4-0.3-0.7-0.6-1.1-0.9c-0.2-0.2-0.4-0.4-0.7-0.6l-1.3,1.4
		c0.1,0.1,0.1,0.1,0.2,0.2C56.3,95.9,56.7,96.3,57.1,96.6z"/>
	<path class="st0" d="M103,47.6c0.1,0.1,0.2,0.2,0.4,0.3l1.8-1.9c-0.1-0.1-0.2-0.3-0.3-0.4c-0.5-0.6-0.8-1-0.8-1l-0.3-0.4l0-0.1
		l-2.4,2.6C101.9,46.9,102.5,47.3,103,47.6z"/>
	<path class="st0" d="M59.2,98.4l1.6-1.7c-0.1-0.1-0.3-0.2-0.4-0.2c-0.4-0.3-0.8-0.5-1.3-0.9c0,0-0.1-0.1-0.1-0.1l-1.5,1.6
		c0.3,0.2,0.5,0.5,0.8,0.7C58.5,97.9,58.8,98.1,59.2,98.4z"/>
	<path class="st0" d="M64.5,92.3c0,0.1,0.1,0.2,0.1,0.2l34-36.3c-0.3-0.2-0.7-0.4-1-0.6c-0.3-0.2-0.7-0.4-1-0.5L63.7,90.3
		c0.1,0.2,0.2,0.4,0.2,0.7C64.1,91.4,64.3,91.9,64.5,92.3z"/>
	<path class="st0" d="M93.4,148.8c-0.3-0.3-0.7-0.6-1-1c-0.4-0.4-0.7-0.7-1-1c-0.1-0.1-0.2-0.3-0.4-0.4l-3.7-0.4
		c0.3,0.2,0.6,0.5,0.9,0.7c0,0,0.1,0.1,0.2,0.3c0.2,0.3,0.6,0.7,1,1.3c0.3,0.4,0.6,0.8,1,1.2c0,0,0,0,0,0.1l4.4,0.4
		c-0.2-0.1-0.3-0.3-0.5-0.4C94,149.4,93.7,149.1,93.4,148.8z"/>
	<path class="st0" d="M197.7,226.7L157,153l-63-6.2c0,0,0.1,0.1,0.1,0.1c0.3,0.5,0.6,0.9,0.8,1.3c0.3,0.5,0.6,0.9,0.8,1.2
		c0.2,0.3,0.4,0.6,0.5,0.8l59.4,5.9l39.2,71c0.4,0,1.2,0,2.1-0.2C197.1,226.9,197.4,226.8,197.7,226.7z"/>
	<path class="st0" d="M105,49.4l1.5-1.6c-0.2-0.3-0.4-0.5-0.6-0.8c-0.3-0.4-0.5-0.7-0.8-1l-1.8,1.9c0.5,0.4,1,0.7,1.4,1.2
		C104.8,49.2,104.9,49.3,105,49.4z"/>
	<path class="st0" d="M106.4,51l1.4-1.5c-0.3-0.4-0.6-0.9-0.9-1.3c-0.1-0.2-0.3-0.4-0.4-0.5l-1.5,1.6c0.3,0.3,0.6,0.7,0.9,1
		C106.1,50.6,106.2,50.8,106.4,51z"/>
	<path class="st0" d="M199.7,225.5c0.1-0.1,0.1-0.1,0.2-0.2L158.3,150l-66.5-6.6c0.2,0.3,0.3,0.5,0.5,0.8c0.3,0.5,0.6,0.9,0.9,1.4
		c0.3,0.4,0.5,0.8,0.8,1.2l63,6.2l40.7,73.7C198.3,226.5,199,226.1,199.7,225.5z"/>
	<path class="st0" d="M90.1,145.5c-0.3-0.1-0.6-0.3-0.9-0.5c-0.4-0.3-0.8-0.6-1.2-0.9c-0.4-0.3-0.8-0.7-1.1-1.1c0,0,0,0,0,0
		l-3.1-0.3c0,0,0,0,0.1,0.1c0.4,0.4,0.8,0.9,1.2,1.3c0.4,0.4,0.8,0.8,1.2,1.2c0.4,0.3,0.8,0.7,1.2,1c0,0,0,0,0,0l3.7,0.4
		c-0.3-0.3-0.5-0.5-0.7-0.7C90.2,145.6,90.1,145.5,90.1,145.5z"/>
	<path class="st0" d="M60.6,99.4c0.1,0.1,0.2,0.1,0.3,0.2l4-4.3l-1.4,0.8l-1.7,1c-0.2-0.1-0.6-0.3-1-0.6l-1.6,1.7
		c0.1,0.1,0.2,0.1,0.2,0.2C59.8,98.9,60.2,99.1,60.6,99.4z"/>
	<path class="st0" d="M65,93.7c0.2,0.4,0.3,0.7,0.5,1.1l35-37.4c-0.2-0.1-0.5-0.3-0.7-0.4c-0.4-0.2-0.8-0.5-1.2-0.7l-34,36.3
		C64.7,92.9,64.9,93.3,65,93.7z"/>
	<path class="st0" d="M84.6,140.4c-0.2-0.3-0.5-0.6-0.7-0.8l-2.8-0.3c0.1,0.1,0.2,0.3,0.3,0.4c0.4,0.5,0.8,1,1.2,1.6
		c0.4,0.4,0.7,0.9,1.1,1.4l3.1,0.3c-0.4-0.4-0.7-0.8-1.1-1.2C85.4,141.3,85,140.8,84.6,140.4z"/>
	<path class="st0" d="M107.5,52.7C107.6,52.8,107.6,52.8,107.5,52.7l1.4-1.4c-0.1-0.2-0.2-0.4-0.3-0.5c-0.3-0.4-0.6-0.8-0.8-1.2
		c0,0,0,0,0,0l-1.4,1.5c0.1,0.2,0.3,0.4,0.4,0.6C107.1,52,107.3,52.4,107.5,52.7z"/>
	<path class="st0" d="M64.9,95.3l-4,4.3c0.3,0.2,0.6,0.4,0.9,0.6c0.3,0.2,0.6,0.3,0.9,0.5l39.5-42.2c-0.2-0.1-0.4-0.2-0.5-0.3
		c-0.4-0.3-0.9-0.5-1.3-0.8l-35,37.4c0,0.1,0.1,0.1,0.1,0.2L64.9,95.3z"/>
	<path class="st0" d="M159.6,147l-69.8-6.9c0.2,0.4,0.5,0.8,0.7,1.2c0.3,0.5,0.6,1,0.9,1.5c0.1,0.2,0.3,0.4,0.4,0.6l66.5,6.6
		l41.6,75.3c0.6-0.6,1.1-1.4,1.5-2.5L159.6,147z"/>
	<path class="st0" d="M81.4,136.3l-2.2-0.2c0.2,0.4,0.5,0.8,0.8,1.3c0.3,0.6,0.7,1.2,1.2,1.8l2.8,0.3c-0.2-0.2-0.3-0.4-0.5-0.6
		C82.6,138,82,137.1,81.4,136.3z"/>
	<path class="st0" d="M203.2,221.9c0.1,0,0.3-0.1,0.4-0.1c0,0,0.1,0,0.1,0l-42.8-77.6l-73.1-7.2c0.3,0.4,0.5,0.8,0.8,1.3
		c0.3,0.5,0.6,1,1,1.6c0.1,0.1,0.1,0.2,0.2,0.3l69.8,6.9l41.8,75.8c0.1-0.2,0.1-0.4,0.2-0.6C202.2,222.1,202.7,222,203.2,221.9z"/>
	<path class="st0" d="M108.6,54.7l1.5-1.6c-0.2-0.4-0.4-0.7-0.7-1.1c-0.1-0.2-0.3-0.5-0.4-0.7l-1.4,1.5c0.2,0.3,0.4,0.7,0.6,1
		C108.3,54.2,108.4,54.4,108.6,54.7z"/>
	<path class="st0" d="M64.8,101.4l0.1,0L104,59.6c-0.2-0.1-0.4-0.2-0.5-0.4c-0.4-0.3-0.8-0.5-1.2-0.8l-39.5,42.2
		c0.1,0.1,0.3,0.1,0.4,0.2C63.8,101.1,64.3,101.3,64.8,101.4z"/>
	<path class="st0" d="M109.1,55.9c0.1,0.3,0.2,0.5,0.3,0.8l1.7-1.8c-0.1-0.2-0.2-0.4-0.3-0.6c-0.2-0.4-0.4-0.7-0.6-1.1c0,0,0,0,0,0
		l-1.5,1.6c0,0.1,0.1,0.1,0.1,0.2C108.8,55.3,109,55.6,109.1,55.9z"/>
	<path class="st0" d="M105.9,60.5l-0.9-0.2c-0.3-0.2-0.7-0.5-1-0.7L65,101.3l3.3-0.6L105.9,60.5z"/>
	<path class="st0" d="M81.2,136c-0.6-0.8-1-1.4-1.1-1.6c0,0-0.1-0.1-0.1-0.1c0.4-0.1,0.9-0.5,1.4-1l-4.3-0.4
		c0.3,0.4,0.6,0.8,1.1,1.1c0,0,0,0.1,0.1,0.2c0.1,0.3,0.4,0.8,0.7,1.5c0,0.1,0.1,0.2,0.1,0.3l2.2,0.2
		C81.3,136.2,81.3,136.1,81.2,136z"/>
	<path class="st0" d="M205.8,220.6l-43.7-79.2l-76.2-7.5c0.5,0.8,1.1,1.8,1.7,2.7c0.1,0.1,0.1,0.2,0.2,0.3l73.1,7.2l42.8,77.6
		C204.6,221.5,205.2,221,205.8,220.6z"/>
	<path class="st0" d="M82.7,131.9l2.1,0.2c0.3,0.4,0.6,0.9,0.9,1.5c0,0.1,0.1,0.2,0.2,0.2l76.2,7.5l43.7,79.2
		c0.1-0.1,0.2-0.2,0.3-0.3c0.6-0.5,0.9-1.1,1.2-1.7l-44.1-79.9l-86.5-8.5c-0.1,0.4-0.1,0.8-0.1,1.2c0,0.5,0.1,1,0.3,1.4
		c0,0.1,0.1,0.2,0.1,0.2l4.3,0.4c0.1-0.1,0.1-0.1,0.2-0.2C82,132.8,82.4,132.3,82.7,131.9z"/>
	<path class="st0" d="M68.9,101.7c0.1,0.2,0.2,0.4,0.4,0.7L112,56.8c-0.1-0.1-0.1-0.3-0.2-0.4c-0.2-0.3-0.3-0.7-0.5-1
		c-0.1-0.1-0.2-0.3-0.2-0.4l-1.7,1.8c0,0.1,0,0.1,0.1,0.2c0.1,0.4,0.2,0.7,0.3,0.9c0.2,0.5,0.2,0.8,0.3,0.9c0,0,0,0,0,0l-0.8,0.7
		l-0.8,0.7l-0.8,0.6l-1.7-0.3l-37.7,40.3l0.1,0C68.6,101,68.7,101.4,68.9,101.7z"/>
	<path class="st0" d="M70,103.7c0.1,0.1,0.2,0.3,0.2,0.4l42.5-45.4c0-0.1-0.1-0.2-0.1-0.3c-0.1-0.3-0.2-0.6-0.4-1
		c-0.1-0.2-0.2-0.4-0.3-0.6l-42.7,45.6c0.1,0.1,0.1,0.2,0.2,0.3C69.6,103,69.8,103.3,70,103.7z"/>
	<path class="st0" d="M208,216.2c0.2,0,0.4,0,0.6,0l-44.2-80.1l-86.8-8.6c0,0,0,0,0,0c-0.2,0.4-0.3,0.8-0.5,1.2
		c-0.1,0.4-0.3,0.8-0.3,1.3c0,0,0,0.1,0,0.1l86.5,8.5l44.1,79.9c0.1-0.1,0.1-0.3,0.2-0.4C208,217.1,208,216.2,208,216.2z"/>
	<path class="st0" d="M210.2,214.4l-44.7-80.9L78.9,125c-0.1,0.1-0.1,0.2-0.2,0.3c-0.2,0.3-0.4,0.7-0.6,1.1
		c-0.2,0.4-0.4,0.7-0.5,1.1l86.8,8.6l44.2,80.1c0.1,0,0.2,0,0.3-0.1C209.5,215.9,209.9,215.3,210.2,214.4z"/>
	<path class="st0" d="M70.5,104.6c0.1,0.1,0.1,0.2,0.2,0.4c0,0,0.5-0.5,1.1-1.1c1.4-1.3,3.6-3.4,4.5-3.7l36.9-39.4
		c0-0.2-0.1-0.4-0.1-0.6c-0.1-0.3-0.1-0.6-0.2-0.9c-0.1-0.2-0.1-0.4-0.2-0.6l-42.5,45.4C70.4,104.2,70.4,104.4,70.5,104.6z"/>
	<path class="st0" d="M210.5,211.7c0-0.3,0-0.7,0-1.1l-43.9-79.5l-87.9-8.7c0.2,0.3,0.4,0.5,0.6,0.7c0.2,0.2,0.4,0.4,0.6,0.4
		c0,0-0.2,0.3-0.5,0.7c-0.1,0.2-0.3,0.5-0.5,0.8l86.6,8.6l44.7,80.9c0-0.1,0.1-0.2,0.1-0.3C210.4,213.5,210.5,212.6,210.5,211.7z"/>
	<path class="st0" d="M76.7,100.1c0,0,0.6,0,1.3,0.1c0.2,0,0.4,0.1,0.6,0.2l34.7-37.1c0,0,0,0,0-0.1c0.1-0.2,0.1-0.5,0.1-0.7
		c0-0.2,0-0.5,0-0.8c0-0.3,0-0.5-0.1-0.8c0-0.1,0-0.2,0-0.2l-36.9,39.4C76.5,100.1,76.6,100.1,76.7,100.1z"/>
	<path class="st0" d="M79.2,101.9c-0.2,0.5-0.8,1.1-1.8,1.9c0,0-1.8,0.8-3.3,2.1c-0.6,0.6-1.1,1.2-1.5,1.9c-0.2,0.4-0.3,0.8-0.3,1.2
		c0,0.1,0,0.2,0,0.3l40.3-43c-0.2-0.2-0.4-0.4-0.7-0.6l-0.1-0.7c0.2-0.2,0.5-0.3,0.7-0.6c0.2-0.2,0.3-0.4,0.4-0.6
		c0.1-0.2,0.2-0.4,0.2-0.6l-34.7,37.1c0.2,0.1,0.5,0.2,0.6,0.4C79.4,101,79.5,101.4,79.2,101.9z"/>
	<path class="st0" d="M210.5,210.6c0-0.5-0.1-1-0.1-1.6c-0.1-0.8-0.2-1.7-0.3-2.7c-0.1-0.4-0.1-0.7-0.2-1.1l-42.3-76.6l-90.6-8.9
		c0.2,0.4,0.4,0.7,0.6,1c0.2,0.4,0.5,0.8,0.7,1.1c0.1,0.2,0.3,0.4,0.4,0.5l87.9,8.7L210.5,210.6z"/>
	<path class="st0" d="M209.1,201c-0.2-0.7-0.3-1.5-0.5-2.2l-40-72.4l-92.9-9.2c0.1,0.1,0.1,0.3,0.2,0.4c0.2,0.3,0.3,0.7,0.5,1
		c0.2,0.4,0.4,0.7,0.5,1c0,0,0,0,0,0.1l90.6,8.9l42.3,76.6c-0.1-0.5-0.2-1-0.3-1.6C209.5,202.8,209.3,201.9,209.1,201z"/>
	<path class="st0" d="M73,110.8c0,0.1,0.1,0.1,0.1,0.2c0,0,0,0,0,0.1L114,67.4c0,0-0.1-0.1-0.1-0.1c-0.3-0.3-0.6-0.5-0.9-0.8
		c-0.1-0.1-0.2-0.2-0.3-0.2l-40.3,43c0,0.2,0.1,0.4,0.1,0.6C72.7,110.3,72.8,110.5,73,110.8z"/>
	<path class="st0" d="M208,195.9c-0.2-0.9-0.4-1.7-0.6-2.5c-0.2-0.6-0.3-1.2-0.5-1.8l-37.2-67.4l-95-9.4c0,0,0,0,0,0.1
		c0.1,0.3,0.3,0.6,0.4,0.9c0.1,0.3,0.3,0.6,0.4,0.9c0.1,0.2,0.2,0.4,0.3,0.5l92.9,9.2l40,72.4c0-0.1-0.1-0.2-0.1-0.4
		C208.4,197.6,208.2,196.7,208,195.9z"/>
	<path class="st0" d="M73.6,112.2c0.1,0.1,0.1,0.3,0.2,0.5l35.7-38.2c0-0.3,0.1-0.5,0.1-0.7c0-0.1,0-0.1,0-0.1c0-0.1,0-0.3,0.2-0.5
		c0.1-0.1,0.2-0.3,0.4-0.4c0.1-0.1,0.2-0.2,0.4-0.4c0.1-0.1,0.3-0.2,0.4-0.3c0.1-0.1,0.3-0.2,0.4-0.3c0.1-0.1,0.3-0.2,0.4-0.3
		c0.1-0.1,0.2-0.2,0.3-0.2c0.2-0.1,0.4-0.3,0.5-0.4c0.2-0.1,0.4-0.3,0.6-0.4c0.1-0.1,0.2-0.1,0.3-0.2l1.7-1.8
		c-0.2-0.1-0.3-0.3-0.5-0.4c-0.2-0.2-0.5-0.4-0.7-0.6l-40.9,43.6C73.2,111.3,73.3,111.7,73.6,112.2z"/>
	<path class="st0" d="M114.4,69.7c0.3-0.2,0.5-0.3,0.7-0.4c0.3-0.2,0.6-0.4,0.6-0.4c-0.1,0-0.1-0.1-0.2-0.1
		c-0.1-0.1-0.2-0.2-0.3-0.3l-1.7,1.8c0.1-0.1,0.2-0.1,0.3-0.2C114,70,114.2,69.8,114.4,69.7z"/>
	<path class="st0" d="M74.3,113.9c0.1,0.3,0.2,0.5,0.4,0.8l95,9.4l37.2,67.4c-0.1-0.2-0.1-0.4-0.2-0.6c-0.2-0.9-0.5-1.7-0.7-2.4
		c-0.2-0.9-0.5-1.7-0.7-2.3c-0.3-1.2-0.6-2-0.7-2.3c0-0.1-0.1-0.2-0.1-0.2c-0.1-0.1-0.1-0.3-0.2-0.4l-33.9-61.4L76,112.6l33.9-36.2
		c-0.2-0.2-0.4-0.6-0.4-1c0-0.3,0-0.6,0-0.8c0,0,0,0,0-0.1l-35.7,38.2c0,0.1,0.1,0.2,0.1,0.3C74,113.3,74.2,113.6,74.3,113.9z"/>
	<path class="st0" d="M202.9,179.3c-0.3-0.8-0.6-1.5-0.9-2.3c-0.3-0.7-0.6-1.5-0.9-2.2c-0.3-0.7-0.6-1.5-1-2.2
		c-0.3-0.7-0.7-1.4-1-2.1c-0.3-0.7-0.7-1.4-1-2.1c-0.3-0.7-0.7-1.4-1-2.1c-0.3-0.7-0.7-1.3-1-2l-7.1-12.9c0-0.1-0.1-0.2-0.1-0.3
		c-0.3-0.6-0.7-1.2-1-1.7c-0.3-0.6-0.7-1.1-1-1.7c-0.3-0.6-0.7-1.1-1-1.6c-0.3-0.5-0.7-1.1-1-1.6c-0.3-0.5-0.7-1.1-1-1.6
		c-0.3-0.5-0.7-1-1-1.5c-0.3-0.5-0.7-1-1-1.5l0.1,0.1c0.1-0.2,0.2-0.4,0.2-0.8c0-0.1,0-0.2,0-0.3l-10.5-19l-91.8-9.1L113,75.3
		c-0.1,0.1-0.2,0.1-0.3,0.2c-0.2,0.1-0.3,0.2-0.4,0.3c-0.2,0.1-0.3,0.2-0.5,0.3c-0.2,0.1-0.4,0.2-0.5,0.3c-0.2,0.1-0.5,0.2-0.6,0.2
		c-0.3,0-0.6,0-0.7-0.2L76,112.6l94.6,9.3l33.9,61.4c-0.2-0.6-0.4-1.1-0.6-1.7C203.5,180.8,203.2,180,202.9,179.3z"/>
	<path class="st0" d="M114.4,73.7c-0.1,0.1-0.2,0.2-0.3,0.3c-0.1,0.1-0.2,0.2-0.3,0.4c-0.1,0.1-0.2,0.3-0.3,0.4
		c-0.1,0.2-0.2,0.3-0.3,0.4l1.6-1.7C114.6,73.5,114.5,73.6,114.4,73.7z"/>
	<path class="st0" d="M171.6,119.8l10.5,19c0-0.2-0.1-0.4-0.1-0.7c-0.1-0.3-0.2-0.6-0.3-1c-0.1-0.3-0.2-0.7-0.3-1
		c-0.1-0.3-0.2-0.7-0.4-1c-0.1-0.3-0.3-0.7-0.4-1c-0.1-0.3-0.3-0.7-0.4-1c-0.1-0.3-0.3-0.7-0.4-1c-0.1-0.3-0.3-0.6-0.4-1
		c-0.1-0.3-0.3-0.6-0.4-0.9c-0.1-0.3-0.3-0.6-0.4-0.9c-0.2-0.3-0.3-0.6-0.4-0.9c-0.2-0.3-0.3-0.6-0.4-0.9c-0.2-0.4-0.3-0.7-0.4-0.9
		c-0.1-0.2-0.2-0.3-0.2-0.3s0.1,0,0.1,0l-4.7-8.5l-89-8.8l35.1-37.5c-0.1,0-0.2,0-0.3,0c-0.4,0-0.7,0.2-1.1,0.3
		c-0.2,0.1-0.5,0.2-0.7,0.4c-0.2,0.1-0.4,0.2-0.6,0.4c-0.2,0.1-0.3,0.2-0.5,0.4c-0.2,0.2-0.4,0.3-0.6,0.5c0,0,0,0,0,0l-1.6,1.7
		c0,0,0,0,0,0c0,0.1-0.1,0.1-0.1,0.1c0,0,0,0-0.1,0l-33.2,35.5L171.6,119.8z"/>
	<path class="st0" d="M195,162.2c-0.3-0.7-0.7-1.3-1-2c-0.3-0.6-0.7-1.3-1-1.9c-0.3-0.6-0.7-1.3-1-1.9c-0.3-0.6-0.7-1.2-1-1.8
		c-0.3-0.6-0.7-1.2-1-1.8c-0.3-0.5-0.6-1-0.9-1.5l7.1,12.9c0,0,0,0,0-0.1C195.7,163.6,195.4,162.9,195,162.2z"/>
	<path class="st0" d="M178.3,126.1c0.2,0,0.4,0,0.6-0.1l-3.6-6.6c-1.3-0.8-2.6-1.7-3.8-2.6c-0.7-0.5-1.5-1-2.2-1.5L87,107.3
		l33.2-35.4c0,0-0.1-0.1-0.1-0.1c-0.5-0.2-0.9-0.3-1.4-0.3L83.4,109l89,8.8l4.7,8.5c0.1,0,0.2,0,0.4,0
		C177.7,126.2,178,126.1,178.3,126.1z"/>
	<path class="st0" d="M180,125.9c0.3,0,0.5-0.1,0.8-0.1c0,0,0,0,0,0l-2.4-4.4c-0.9-0.6-1.8-1.2-2.7-1.8c-0.1-0.1-0.2-0.2-0.4-0.2
		l3.6,6.6c0.1,0,0.1,0,0.2,0C179.4,126,179.7,126,180,125.9z"/>
	<path class="st0" d="M169.4,115.4c-0.6-0.4-1.1-0.7-1.6-1.1c-0.6-0.4-1.3-0.9-1.8-1.3l-75.5-7.5l30.8-32.9
		c-0.1-0.1-0.2-0.1-0.2-0.1c-0.1-0.1-0.1-0.1-0.2-0.2c-0.2-0.2-0.5-0.4-0.7-0.6L87,107.3L169.4,115.4z"/>
	<path class="st0" d="M182.3,125.7c0.1,0,0.2,0,0.3,0l-1.3-2.4c-0.2-0.1-0.4-0.3-0.6-0.4c-0.7-0.5-1.5-1-2.3-1.5l2.4,4.4
		c0.2,0,0.5,0,0.7-0.1C181.8,125.8,182,125.7,182.3,125.7z"/>
	<path class="st0" d="M162.6,110.8L93.7,104l28.6-30.5c-0.2-0.2-0.4-0.3-0.6-0.4c-0.2-0.2-0.4-0.3-0.5-0.4l-30.8,32.9l75.5,7.5
		c-0.6-0.4-1.2-0.8-1.7-1.2C163.5,111.4,162.9,111,162.6,110.8z"/>
	<path class="st0" d="M183,125.7c0.4,0,0.7,0,1-0.1c0.1,0,0.2,0,0.3,0l-0.3-0.5c-0.1-0.1-0.2-0.1-0.3-0.2c-0.2-0.1-0.4-0.2-0.6-0.4
		c-0.2-0.1-0.4-0.2-0.6-0.4c-0.4-0.3-0.9-0.5-1.3-0.8l1.3,2.4C182.7,125.7,182.9,125.7,183,125.7z"/>
	<path class="st0" d="M162.1,110.3c0.1-0.1,0.1-0.2,0.2-0.3c0-0.1,0-0.2,0-0.3c0-0.1,0-0.2,0-0.4c0-0.1,0-0.2-0.1-0.4
		c0,0,0-0.1,0-0.1L97,102.4l26.4-28.2c-0.3-0.2-0.5-0.4-0.8-0.5c-0.1-0.1-0.2-0.1-0.3-0.2L93.7,104l68.8,6.8
		C162.3,110.5,162.1,110.4,162.1,110.3C162.1,110.4,162.1,110.3,162.1,110.3z"/>
	<path class="st0" d="M185.5,125.8C185.5,125.8,185.5,125.8,185.5,125.8C185.5,125.7,185.5,125.7,185.5,125.8
		c-0.1-0.1-0.3-0.1-0.5-0.2C185.3,125.8,185.4,125.8,185.5,125.8z"/>
	<path class="st0" d="M162,108.2c-0.1-0.1-0.1-0.3-0.2-0.4c-0.1-0.1-0.1-0.3-0.2-0.4c-0.1-0.1-0.1-0.3-0.2-0.4c0,0,0,0,0,0l-61.2-6
		l24.3-25.9c0,0-0.1-0.1-0.1-0.1c-0.3-0.2-0.5-0.4-0.8-0.6c0,0-0.1,0-0.1-0.1L97,102.4l65.2,6.4c0-0.1,0-0.2-0.1-0.3
		C162.1,108.4,162,108.3,162,108.2z"/>
	<path class="st0" d="M184.9,125.6C185,125.6,185,125.6,184.9,125.6C185,125.6,185,125.6,184.9,125.6c-0.2-0.1-0.4-0.2-0.6-0.4
		c-0.1-0.1-0.2-0.1-0.3-0.2l0.3,0.5c0.1,0,0.1,0,0.2,0C184.7,125.6,184.8,125.6,184.9,125.6z"/>
	<path class="st0" d="M161.4,106.9c-0.1-0.1-0.1-0.2-0.2-0.4c-0.1-0.1-0.1-0.3-0.2-0.4c-0.1-0.1-0.2-0.3-0.2-0.4
		c-0.1-0.1-0.2-0.3-0.2-0.4c-0.1-0.1-0.1-0.2-0.2-0.3l-4.9-0.5l0,0.1c0,0,0,0.1,0,0.1c0,0-0.1-0.1-0.1-0.1c0,0-0.1-0.1-0.1-0.1
		l-52-5.1l22.2-23.7c-0.1-0.1-0.2-0.2-0.4-0.3c-0.2-0.2-0.4-0.3-0.6-0.5l-24.3,25.9L161.4,106.9z"/>
	<path class="st0" d="M154.8,104.1c-0.1-0.1-0.2-0.2-0.2-0.2c-0.1-0.1-0.2-0.2-0.2-0.3c-0.1-0.1-0.2-0.2-0.2-0.3
		c-0.1-0.1-0.2-0.2-0.3-0.3c-0.1-0.1-0.2-0.2-0.3-0.3c-0.1-0.1-0.1-0.1-0.2-0.2l-47.2-4.7l20.2-21.6c-0.2-0.2-0.4-0.3-0.6-0.5
		c-0.1-0.1-0.2-0.2-0.3-0.3l-22.2,23.7l52,5.1c0,0-0.1-0.1-0.1-0.2C154.9,104.3,154.9,104.2,154.8,104.1z"/>
	<path class="st0" d="M160,104.6c-0.1-0.1-0.2-0.2-0.2-0.4c-0.1-0.1-0.2-0.2-0.2-0.4c-0.1-0.1-0.1-0.2-0.2-0.2
		c0-0.1-0.1-0.1-0.1-0.2c0-0.1-0.1-0.1-0.1-0.2c0,0,0-0.1-0.1-0.1l-4.3-0.4l0.7,1.8l4.9,0.5c0,0,0,0,0,0
		C160.1,104.8,160.1,104.7,160,104.6z"/>
	<path class="st0" d="M158.9,102.9c0-0.1-0.1-0.1-0.1-0.2c0-0.1-0.1-0.1-0.1-0.2c0,0-0.1-0.1-0.1-0.1c0,0-0.1-0.1-0.1-0.1
		c0,0-0.1-0.1-0.1-0.1c0,0-0.1-0.1-0.1-0.1c0,0-0.1-0.1-0.1-0.1c0,0-0.1-0.1-0.1-0.1c0,0-0.1-0.1-0.1-0.1c0,0-0.1-0.1-0.1-0.1
		c0,0-0.1-0.1-0.1-0.1c0,0,0-0.1-0.1-0.1l-3.9-0.4c0.1,0.2,0.2,0.3,0.3,0.5c0.1,0.2,0.3,0.5,0.4,0.7l0.2,0.5l4.3,0.4
		c0,0,0,0-0.1-0.1C158.9,103,158.9,103,158.9,102.9z"/>
	<path class="st0" d="M153.3,102.6C153.3,102.6,153.3,102.6,153.3,102.6l-0.2-0.3l-0.1,0.1c0,0-0.1-0.1-0.1-0.1c0,0-0.1-0.1-0.1-0.1
		c0,0-0.1-0.1-0.1-0.1c0,0-0.1-0.1-0.1-0.1c0,0-0.1-0.1-0.1-0.1c0,0-0.1-0.1-0.1-0.1c0,0-0.1-0.1-0.1-0.1c0,0-0.1-0.1-0.1-0.1
		c0,0-0.1-0.1-0.1-0.1c0,0-0.1-0.1-0.1-0.1c0,0-0.1-0.1-0.1-0.1c0,0,0,0-0.1-0.1c0,0,0,0-0.1-0.1c0,0,0,0-0.1-0.1c0,0,0,0-0.1-0.1
		c0,0,0,0-0.1-0.1c0,0,0,0-0.1-0.1c0,0,0,0-0.1-0.1c0,0,0,0-0.1-0.1c0,0,0,0-0.1-0.1c0,0,0,0,0,0L109,96.5l18.2-19.5
		c-0.1-0.1-0.1-0.1-0.2-0.2c-0.2-0.2-0.4-0.3-0.6-0.5c0,0,0,0-0.1-0.1l-20.2,21.6L153.3,102.6z"/>
	<path class="st0" d="M157.6,101.2c0,0-0.1-0.1-0.1-0.1c0,0,0-0.1-0.1-0.1c0,0,0-0.1-0.1-0.1c0,0,0-0.1-0.1-0.1c0,0,0-0.1-0.1-0.1
		c0,0,0-0.1-0.1-0.1c0,0,0-0.1-0.1-0.1c0,0,0-0.1-0.1-0.1c0,0,0-0.1-0.1-0.1c0,0,0-0.1-0.1-0.1c0,0,0,0-0.1-0.1c0,0,0,0-0.1-0.1
		c0,0,0,0-0.1-0.1c0,0,0,0-0.1-0.1c0,0,0,0,0-0.1c0,0,0,0,0-0.1c0,0,0,0,0-0.1c0,0,0,0,0-0.1c0,0,0,0,0-0.1c0,0-0.1-0.1-0.1-0.1
		l-3.7-0.4c0,0,0,0,0,0c0,0,0,0,0,0.1c0,0,0,0,0,0.1c0,0,0,0,0,0.1c0,0,0,0,0,0.1c0,0,0,0,0,0.1c0,0,0,0,0,0.1c0,0,0,0,0,0.1
		c0,0,0,0,0,0.1c0,0,0,0,0,0.1c0,0,0,0,0,0.1c0,0,0,0,0,0.1c0,0,0,0,0,0.1c0,0,0,0.1,0,0.1c0,0,0,0.1,0,0.1c0,0,0,0.1,0.1,0.1
		c0,0,0,0.1,0.1,0.1c0,0,0,0.1,0.1,0.1c0,0,0,0.1,0.1,0.1c0,0,0,0.1,0.1,0.1c0,0,0,0.1,0.1,0.1c0,0,0,0.1,0.1,0.1c0,0,0,0,0,0
		c0,0,0,0.1,0.1,0.1l3.9,0.4c0,0,0,0,0,0C157.7,101.3,157.7,101.3,157.6,101.2z"/>
	<path class="st0" d="M151.4,100.7C151.4,100.7,151.4,100.6,151.4,100.7c-0.1-0.1-0.1-0.1-0.1-0.1c0,0,0,0,0,0c0,0,0,0-0.1-0.1
		c0,0,0,0-0.1-0.1c0,0,0,0-0.1-0.1c0,0,0,0-0.1-0.1c0,0,0,0-0.1-0.1c0,0,0,0-0.1-0.1c0,0,0,0-0.1-0.1c0,0,0,0-0.1-0.1
		c0,0-0.1-0.1-0.1-0.1c0,0-0.1-0.1-0.1-0.1c0,0-0.1-0.1-0.1-0.1c0,0-0.1-0.1-0.1-0.1c0,0-0.1-0.1-0.1-0.1c0,0-0.1-0.1-0.1-0.1
		c0,0-0.1-0.1-0.1-0.1c0,0-0.1-0.1-0.1-0.1c0,0-0.1-0.1-0.1-0.1c0,0-0.1-0.1-0.1-0.1c0,0-0.1-0.1-0.1-0.1c0,0-0.1-0.1-0.1-0.1
		l-37.9-3.7L128,77.8c-0.1-0.1-0.3-0.3-0.5-0.4c-0.1-0.1-0.3-0.2-0.4-0.3L109,96.5L151.4,100.7C151.5,100.7,151.5,100.7,151.4,100.7
		C151.4,100.7,151.4,100.7,151.4,100.7z"/>
	<path class="st0" d="M155.1,97.9l-3.4-0.3c0,0,0,0,0,0.1c0,0,0,0.1,0.1,0.1c0,0,0,0.1,0.1,0.1c0,0,0,0.1,0.1,0.1c0,0,0,0.1,0.1,0.1
		c0,0,0,0.1,0.1,0.1c0,0,0,0.1,0.1,0.1c0,0,0,0.1,0.1,0.1c0,0,0,0.1,0.1,0.1c0,0,0,0,0,0.1c0,0,0,0,0,0.1c0,0,0,0,0,0.1
		c0.1,0.2,0.3,0.4,0.4,0.6c0,0,0,0,0,0c0,0,0,0,0,0l3.7,0.4C155.9,99,155.5,98.4,155.1,97.9z"/>
	<path class="st0" d="M149.5,98.8c0,0-0.1-0.1-0.1-0.1c0,0-0.1-0.1-0.1-0.1l0-0.1l-0.2,0c-0.1-0.1-0.1-0.1-0.2-0.2
		c0,0-0.1-0.1-0.1-0.1c0,0-0.1-0.1-0.1-0.1c0,0-0.1-0.1-0.1-0.1c0,0-0.1-0.1-0.1-0.1c0,0-0.1-0.1-0.1-0.1c0,0-0.1-0.1-0.1-0.1
		c0,0-0.1-0.1-0.1-0.1c0,0-0.1-0.1-0.1-0.1c0,0,0,0,0,0l-33.4-3.3l14.4-15.4c-0.1-0.1-0.1-0.1-0.2-0.2c-0.2-0.1-0.3-0.3-0.5-0.4
		c0,0-0.1-0.1-0.1-0.1l-16.3,17.4l37.9,3.7c0,0,0,0,0,0C149.6,98.9,149.6,98.9,149.5,98.8z"/>
	<path class="st0" d="M153.7,96.2l-2.9-0.3c0,0,0,0.1,0,0.1c0,0,0,0,0,0.1c0,0,0,0,0,0.1c0,0,0,0,0,0.1c0,0,0,0,0,0.1c0,0,0,0,0,0.1
		c0,0,0,0,0,0.1c0,0,0,0.1,0,0.1c0,0,0,0.1,0,0.1c0,0,0,0,0,0c0,0,0,0,0,0.1c0,0,0,0,0.1,0.1c0,0,0,0.1,0.1,0.1c0,0,0,0.1,0.1,0.1
		c0,0,0,0.1,0.1,0.1c0,0,0,0.1,0.1,0.1c0,0,0.1,0.1,0.1,0.1c0,0,0,0.1,0.1,0.1c0,0,0,0.1,0.1,0.1c0,0,0,0,0,0l3.4,0.3
		C154.6,97.3,154.1,96.7,153.7,96.2z"/>
	<path class="st0" d="M147.7,97c0,0-0.1-0.1-0.1-0.1c0,0-0.1-0.1-0.1-0.1c0,0-0.1-0.1-0.1-0.1c0,0-0.1-0.1-0.1-0.1
		c0,0-0.1-0.1-0.1-0.1c0,0-0.1-0.1-0.1-0.1c0,0,0,0,0,0c0,0,0,0-0.1-0.1c0,0,0,0-0.1-0.1c0,0,0,0-0.1-0.1c0,0,0,0-0.1-0.1
		c0,0-0.1,0-0.1-0.1c0,0-0.1-0.1-0.1-0.1c0,0-0.1-0.1-0.1-0.1c0,0-0.1-0.1-0.1-0.1c0,0-0.1-0.1-0.1-0.1c0,0-0.1-0.1-0.1-0.1
		c0,0-0.1-0.1-0.1-0.1c0,0,0,0-0.1-0.1l-29.1-2.9l12.6-13.4c0,0,0,0,0,0c-0.1-0.1-0.3-0.3-0.4-0.4c-0.1-0.1-0.2-0.2-0.3-0.3
		l-14.4,15.4l33.4,3.3c0,0,0,0-0.1-0.1C147.8,97.1,147.7,97,147.7,97z"/>
	<path class="st0" d="M152.5,94.6l-2.4-0.2c0,0,0,0,0,0c0,0,0,0.1,0,0.1c0,0,0,0.1,0,0.1c0,0,0,0.1,0,0.1c0,0,0,0,0,0.1
		c0,0,0,0,0,0.1c0,0,0,0,0,0.1c0,0,0,0,0,0.1c0,0,0,0,0,0.1c0,0,0,0,0,0.1c0,0,0,0,0,0.1c0,0,0,0,0,0.1c0,0,0,0,0,0.1
		c0.1,0.2,0.2,0.5,0.3,0.7l2.9,0.3c-0.6-0.7-1-1.2-1-1.2C152.7,94.9,152.6,94.8,152.5,94.6z"/>
	<path class="st0" d="M146.2,95.5C146.2,95.5,146.1,95.5,146.2,95.5c-0.1-0.1-0.1-0.1-0.1-0.1c0,0-0.1-0.1-0.1-0.1
		c0,0-0.1-0.1-0.1-0.1c0,0-0.1-0.1-0.1-0.1c0,0-0.1-0.1-0.1-0.1c0,0-0.1-0.1-0.1-0.1c0,0-0.1-0.1-0.1-0.1c0,0-0.1-0.1-0.1-0.1
		c0,0-0.1-0.1-0.1-0.1c0,0-0.1-0.1-0.1-0.1c0,0-0.1-0.1-0.1-0.1c0,0-0.1-0.1-0.1-0.1c0,0-0.1-0.1-0.1-0.1c0,0-0.1-0.1-0.1-0.1
		c0,0,0,0,0,0l-24.9-2.5l10.7-11.5c-0.1-0.1-0.2-0.2-0.3-0.3c-0.1-0.1-0.2-0.2-0.4-0.4l-12.6,13.4L146.2,95.5z"/>
	<path class="st0" d="M144.2,93.6c-0.1-0.1-0.1-0.1-0.2-0.2c-0.1-0.1-0.1-0.1-0.2-0.2c-0.1-0.1-0.1-0.1-0.2-0.2
		c-0.1-0.1-0.1-0.1-0.2-0.2c-0.1-0.1-0.1-0.1-0.2-0.2c-0.2-0.2-0.3-0.3-0.5-0.5l-20.8-2.1l8.9-9.5c-0.1-0.1-0.2-0.2-0.3-0.3
		c-0.1-0.1-0.2-0.2-0.3-0.4c0,0,0,0,0,0l-10.7,11.5l24.9,2.5c0,0-0.1-0.1-0.1-0.1C144.3,93.7,144.2,93.6,144.2,93.6z"/>
	<path class="st0" d="M152.6,94.1l-0.8-0.8c0-0.1-0.1-0.1-0.1-0.2l-2.6-0.3c0,0,0.1,0.1,0.1,0.1c0.1,0.2,0.2,0.3,0.3,0.5
		c0,0.1,0.1,0.1,0.1,0.2c0,0,0,0.1,0.1,0.1c0,0,0,0.1,0.1,0.1c0,0,0,0.1,0.1,0.1c0,0,0,0.1,0.1,0.1c0,0,0,0.1,0.1,0.1
		c0,0,0,0.1,0.1,0.1c0,0,0,0.1,0,0.1c0,0,0,0,0,0.1l2.4,0.2c-0.1-0.1-0.1-0.3-0.2-0.4L152.6,94.1z"/>
	<path class="st0" d="M150.9,91.6l-2.7-0.3c0,0,0,0,0,0c0.1,0.2,0.3,0.4,0.4,0.6c0.1,0.2,0.2,0.4,0.4,0.5c0.1,0.1,0.2,0.2,0.2,0.4
		l2.6,0.3C151.5,92.6,151.2,92.1,150.9,91.6z"/>
	<path class="st0" d="M124.4,89l7.1-7.6c0,0,0-0.1-0.1-0.1c-0.1-0.1-0.1-0.2-0.2-0.3c-0.1-0.1-0.2-0.2-0.3-0.3c0,0,0,0,0,0l-8.9,9.5
		l20.8,2.1c-0.6-0.5-1.1-1.1-1.6-1.6L124.4,89z"/>
	<path class="st0" d="M150.8,91.5C150.8,91.5,150.7,91.5,150.8,91.5c-0.1-0.1-0.1-0.1-0.1-0.2c0,0,0-0.1-0.1-0.1c0,0,0-0.1-0.1-0.1
		c0,0,0-0.1-0.1-0.1c0,0,0-0.1-0.1-0.1c0,0,0-0.1-0.1-0.1c0,0,0-0.1-0.1-0.1c0,0,0-0.1-0.1-0.1c0,0,0-0.1-0.1-0.1c0,0,0-0.1-0.1-0.1
		c0,0-0.1-0.1-0.1-0.1c0,0-0.1-0.1-0.1-0.1c0,0-0.1-0.1-0.1-0.1c0,0,0,0,0,0l-2.9-0.3l0.3,0.3c0.2,0.2,0.3,0.4,0.5,0.6
		c0.1,0.2,0.3,0.4,0.4,0.6l2.7,0.3C150.8,91.6,150.8,91.6,150.8,91.5C150.8,91.6,150.8,91.5,150.8,91.5z"/>
	<path class="st0" d="M126.8,87.9l6-6.4c0,0-0.1,0-0.1,0c-0.2,0.1-0.4,0.1-0.5,0.2c-0.3,0.1-0.5,0.2-0.5,0.2c0-0.1-0.1-0.2-0.1-0.3
		c0-0.1-0.1-0.1-0.1-0.2l-7.1,7.6l16.8,1.7c-0.6-0.6-1.1-1.1-1.5-1.5L126.8,87.9z"/>
	<path class="st0" d="M139.7,89.2c-0.6-0.6-1.1-1.1-1.5-1.5l-9.2-0.9l5.5-5.9c0,0-0.1,0-0.1,0c-0.2,0.1-0.4,0.1-0.6,0.2
		c-0.2,0.1-0.4,0.1-0.6,0.2c-0.2,0.1-0.3,0.1-0.4,0.2l-6,6.4L139.7,89.2z"/>
	<path class="st0" d="M149.7,90c0,0-0.1-0.1-0.1-0.1c0,0-0.1-0.1-0.1-0.1c0,0-0.1-0.1-0.1-0.1c0,0-0.1-0.1-0.1-0.1
		c0,0-0.1-0.1-0.1-0.1c0,0-0.1-0.1-0.1-0.1c0-0.1-0.1-0.1-0.1-0.2c0-0.1-0.1-0.1-0.1-0.2c0,0-0.1-0.1-0.1-0.1l-2.9-0.3c0,0,0,0,0,0
		c0,0.1,0.1,0.1,0.1,0.2c0,0,0.1,0.1,0.1,0.1c0,0,0.1,0.1,0.1,0.1c0,0,0.1,0.1,0.1,0.1c0,0,0.1,0.1,0.1,0.1c0,0,0.1,0.1,0.1,0.1
		c0,0,0.1,0.1,0.1,0.1c0,0,0.1,0.1,0.1,0.1c0,0,0.1,0.1,0.1,0.1c0,0,0.1,0.1,0.1,0.1l-0.1,0l0.1,0.1l2.9,0.3c0,0,0-0.1-0.1-0.1
		C149.8,90.1,149.8,90,149.7,90z"/>
	<path class="st0" d="M137.9,87.1c0.1,0,0.1-0.1,0.2-0.1c0.1,0,0.1-0.1,0.2-0.1c0.1,0,0.1-0.1,0.2-0.1c0.1,0,0.1-0.1,0.2-0.1
		c0.1,0,0.1-0.1,0.2-0.1c0.1,0,0.1-0.1,0.2-0.1c0,0,0,0,0,0l-8-0.8l4.9-5.2c-0.1,0-0.1,0-0.2,0c-0.3,0.1-0.5,0.1-0.8,0.2
		c-0.2,0.1-0.4,0.1-0.6,0.2l-5.5,5.9l9.2,0.9c-0.3-0.3-0.5-0.5-0.5-0.5S137.8,87.2,137.9,87.1z"/>
	<path class="st0" d="M148.6,88.5c0-0.1-0.1-0.1-0.1-0.2c0-0.1-0.1-0.1-0.1-0.2c-0.1-0.1-0.1-0.1-0.2-0.2c-0.1-0.1-0.1-0.1-0.2-0.2
		c-0.1-0.1-0.1-0.1-0.2-0.2c-0.1-0.1-0.1-0.1-0.2-0.2c0,0,0,0,0-0.1l-2.9-0.3c0.1,0.1,0.1,0.1,0.2,0.2c0.1,0.1,0.1,0.1,0.2,0.2
		c0.1,0.1,0.1,0.1,0.2,0.2c0,0.1,0.1,0.1,0.1,0.2c0,0.1,0.1,0.1,0.1,0.2c0,0.1,0.1,0.1,0.1,0.2c0,0.1,0.1,0.1,0.1,0.2
		c0,0,0.1,0.1,0.1,0.1l2.9,0.3c0,0,0,0,0-0.1C148.7,88.6,148.7,88.6,148.6,88.5z"/>
	<path class="st0" d="M139.5,86.4c0.1,0,0.1-0.1,0.2-0.1c0.1,0,0.1-0.1,0.2-0.1c0.1,0,0.1-0.1,0.2-0.1c0.1,0,0.2-0.1,0.2-0.1
		c0.1,0,0.2-0.1,0.2-0.1c0.1,0,0.2-0.1,0.2-0.1c0.1-0.1,0.2-0.1,0.2-0.2c0,0,0,0,0.1,0l-7.8-0.8l4.1-4.4c-0.2,0-0.4,0-0.6,0.1
		c-0.2,0-0.5,0.1-0.7,0.1l-4.9,5.2l8,0.8c0,0,0.1,0,0.1-0.1C139.4,86.4,139.5,86.4,139.5,86.4z"/>
	<path class="st0" d="M147.5,87.2c-0.1-0.1-0.1-0.1-0.2-0.2c-0.1-0.1-0.1-0.2-0.2-0.2c-0.1-0.1-0.1-0.2-0.2-0.2
		c-0.1-0.1-0.2-0.2-0.2-0.2c-0.1-0.1-0.2-0.2-0.2-0.2c0,0,0,0,0,0l-2.8-0.3c0,0,0,0,0,0c0.1,0.1,0.1,0.2,0.2,0.2
		c0.1,0.1,0.1,0.1,0.2,0.2c0.1,0.1,0.1,0.1,0.2,0.2c0.1,0.1,0.1,0.1,0.2,0.2c0.1,0.1,0.1,0.1,0.2,0.2c0.1,0.1,0.1,0.1,0.2,0.2
		c0,0,0,0,0,0l2.9,0.3C147.6,87.3,147.6,87.3,147.5,87.2z"/>
	<path class="st0" d="M145.9,85.5c-0.1-0.1-0.2-0.2-0.3-0.3c-0.1-0.1-0.2-0.2-0.3-0.3c-0.1-0.1-0.2-0.2-0.3-0.3c0,0,0,0,0,0l-9.7-1
		l3.2-3.4c-0.2,0-0.4,0-0.6,0c-0.2,0-0.4,0-0.6,0.1l-4.1,4.4l7.8,0.8c0.1,0,0.1-0.1,0.2-0.1c0.1-0.1,0.2-0.1,0.2-0.2
		c0.1-0.1,0.2-0.1,0.2-0.2c0.1-0.1,0.1-0.1,0.2-0.2c0.1-0.1,0.1-0.1,0.2-0.2c0.1-0.1,0.1-0.1,0.2-0.2l0.2,0c0.1,0.1,0.1,0.2,0.2,0.3
		c0.1,0.1,0.2,0.2,0.2,0.3c0.1,0.1,0.1,0.2,0.2,0.3c0.1,0.1,0.1,0.2,0.2,0.3c0.1,0.1,0.1,0.1,0.2,0.2l2.8,0.3
		c-0.1-0.1-0.1-0.1-0.2-0.2C146.1,85.7,146,85.6,145.9,85.5z"/>
	<path class="st0" d="M145,84.7c-0.1-0.1-0.2-0.2-0.3-0.3c-0.1-0.1-0.2-0.2-0.4-0.3c-0.1-0.1-0.3-0.2-0.4-0.3
		c-0.1-0.1-0.3-0.2-0.4-0.3c0,0,0,0,0,0l-6.2-0.6l2.3-2.4c-0.3,0-0.7-0.1-1-0.1l-3.2,3.4L145,84.7z"/>
	<path class="st0" d="M142.6,82.7c-0.1,0-0.1-0.1-0.1-0.1c0-0.1-0.1-0.2-0.1-0.3c0-0.1-0.1-0.1-0.1-0.2l-3-0.3l1.2-1.3
		c-0.3-0.1-0.6-0.2-0.9-0.2l-2.3,2.4l6.2,0.6c-0.2-0.1-0.3-0.2-0.4-0.3C142.8,82.8,142.7,82.7,142.6,82.7z"/>
	<path class="st0" d="M142.3,82.1c0,0,0-0.1-0.1-0.1c-0.1-0.1-0.1-0.2-0.2-0.4c-0.1-0.1-0.2-0.3-0.3-0.4c-0.1-0.1-0.3-0.2-0.5-0.3
		l-0.1,0l0,0c0,0-0.1,0-0.1-0.1c-0.2-0.1-0.4-0.2-0.6-0.3l-1.2,1.3L142.3,82.1z"/>
	<path class="st0" d="M141.1,80.9L141.1,80.9C141.2,80.9,141.2,80.9,141.1,80.9L141.1,80.9z"/>
</g>
</svg>
