<?xml version="1.0" encoding="utf-8"?>
<!-- Generator: Adobe Illustrator 22.0.1, SVG Export Plug-In . SVG Version: 6.00 Build 0)  -->
<svg version="1.1" id="レイヤー_1" xmlns="http://www.w3.org/2000/svg" xmlns:xlink="http://www.w3.org/1999/xlink" x="0px"
	 y="0px" viewBox="0 0 640 640" style="enable-background:new 0 0 640 640;" xml:space="preserve">
<style type="text/css">
	.st0{fill:none;stroke:#FFFFFF;stroke-width:0.1716;stroke-miterlimit:10;}
</style>
<g>
	<path class="st0" d="M350,303.4c0.1-0.1,0.2-0.2,0.4-0.2l-1.9,0.7l0.5,0.6C349.4,304,349.8,303.6,350,303.4z"/>
	<path class="st0" d="M346.2,305.1c0,0-0.6,0-1.1,0.2c-0.1,0-0.3,0.1-0.4,0.2l1.2,1.8c0.4-0.4,0.8-0.8,1.1-1.1
		c0.1-0.1,0.2-0.2,0.3-0.3l-1-1.5C346.3,304.6,346.2,304.9,346.2,305.1z"/>
	<path class="st0" d="M356.6,325.7c0-0.2-0.1-0.4-0.1-0.6c0-0.2-0.2-0.4-0.2-0.6c0-0.2-0.2-0.4-0.3-0.6c-0.1-0.2-0.2-0.4-0.3-0.6
		c-0.1-0.2-0.2-0.4-0.4-0.7c-0.1-0.2-0.3-0.5-0.5-0.6c-0.2-0.2-0.4-0.4-0.7-0.6s-0.6-0.4-0.9-0.4c-0.1-0.1-0.3-0.1-0.4-0.1l3.9,5.6
		C356.6,326.1,356.6,325.9,356.6,325.7z"/>
	<path class="st0" d="M344.4,306.5c0,0-0.2,0-0.4,0.1c-0.2,0.1-0.4,0.2-0.7,0.2l1.3,1.8c0.5-0.5,0.9-0.9,1.4-1.4l-1.2-1.8
		C344.4,305.8,344.4,306,344.4,306.5z"/>
	<path class="st0" d="M350.5,320.6l9.3,13.5c0.2-0.5,0.3-1.1,0.1-1.7c0-0.3-0.1-0.6-0.3-0.9c-0.1-0.3-0.2-0.6-0.4-0.7
		c-0.1-0.2-0.2-0.4-0.4-0.7c-0.1-0.3-0.2-0.4-0.3-0.6c-0.1-0.1-0.2-0.4-0.4-0.5c-0.1-0.1-0.2-0.3-0.3-0.5c-0.2-0.2-0.3-0.3-0.3-0.5
		c-0.2-0.2-0.4-0.3-0.4-0.4c-0.1-0.1-0.2-0.2-0.2-0.2s0-0.1-0.1-0.4c0-0.1-0.1-0.4-0.1-0.7l0-0.1l-3.9-5.6c-0.3-0.1-0.6-0.1-0.9-0.2
		C351.4,320.5,351,320.4,350.5,320.6z"/>
	<path class="st0" d="M258.3,341.9c-0.4,0.2-0.7,0.4-1.1,0.5c-0.6,0.3-1.3,0.6-1.9,1c-0.6,0.3-1.2,0.7-1.8,1c-0.6,0.3-1.1,0.6-1.6,1
		c-0.3,0.2-0.7,0.4-1,0.6l6.1-1.2L258.3,341.9z"/>
	<path class="st0" d="M342.8,307.3c-0.4,0.3-0.6,0.8-0.1,1.3c0,0-0.1,0-0.3,0.1l1,1.5c0.1,0,0.1-0.1,0.2-0.2
		c0.4-0.4,0.8-0.8,1.1-1.2l0,0l-1.3-1.8C343.2,307,342.9,307.2,342.8,307.3z"/>
	<path class="st0" d="M341.8,308.8c-0.3,0.1-0.7,0.4-1,0.7l1.3,2c0.1-0.1,0.2-0.3,0.4-0.4c0.2-0.3,0.6-0.7,0.9-0.9l-1-1.5
		C342.2,308.6,342,308.7,341.8,308.8z"/>
	<path class="st0" d="M348.7,321.1l10,14.4c0.3-0.3,0.6-0.5,0.8-0.8l0.2-0.5c0-0.1,0-0.1,0.1-0.2l-9.3-13.5
		C349.9,320.6,349.4,320.8,348.7,321.1z"/>
	<path class="st0" d="M248.9,347.1c-0.5,0.3-0.9,0.6-1.4,0.8c-0.4,0.3-0.9,0.5-1.3,0.8c-0.1,0-0.2,0.2-0.3,0.2l13.4-2.6l2.8-6.3
		c-0.3,0.1-0.5,0.2-0.8,0.4c-0.7,0.4-1.5,0.7-2.2,1c-0.3,0.1-0.6,0.3-0.9,0.5l-1.2,2.8l-6.1,1.2c-0.2,0.1-0.4,0.2-0.6,0.3
		C249.9,346.6,249.4,346.9,248.9,347.1z"/>
	<path class="st0" d="M266.7,331.3C266.6,331.3,266.6,331.3,266.7,331.3C266.7,331.3,266.8,331.4,266.7,331.3c0.1,0,0.2,0.1,0.2,0.1
		C266.8,331.3,266.8,331.2,266.7,331.3z"/>
	<path class="st0" d="M265.9,337.3c-0.5,0.3-0.9,0.7-1.2,1l1.1-0.1l0.7-1.5C266.4,336.9,266.2,337.1,265.9,337.3z"/>
	<path class="st0" d="M340.4,311.6l-0.2,0.2l0.6,0.9c0.2-0.2,0.4-0.4,0.6-0.6c0.2-0.2,0.4-0.4,0.7-0.8l-1.3-2c0,0.1-0.1,0-0.1,0.1
		C340.3,310,340.1,310.7,340.4,311.6z"/>
	<path class="st0" d="M357.1,336.3c0.3-0.1,0.6-0.3,0.8-0.4c0.3-0.1,0.5-0.3,0.7-0.5l-10-14.4c-0.5,0.2-1,0.4-1.6,0.8L357.1,336.3z"
		/>
	<path class="st0" d="M246,349c-0.3,0.2-0.7,0.4-0.9,0.6c-0.4,0.2-0.7,0.5-1.2,0.7c-0.4,0.2-0.7,0.5-1,0.8c-0.4,0.2-0.7,0.4-1,0.7
		l19.7-3.8l4.3-9.6c-0.8,0.3-1.4,0.6-2.1,1c-0.5,0.2-1.1,0.5-1.5,0.7l-2.8,6.3L246,349z"/>
	<path class="st0" d="M268.6,331.3c-0.4,0.1-0.6,0.1-1,0.1c-0.3,0-0.6,0-0.8,0c0.2,0.1,0.6,0.3,0.9,0.4c0.2,0.1,0.5,0.3,0.8,0.4
		l0.4-0.9C268.9,331.3,268.8,331.3,268.6,331.3z"/>
	<path class="st0" d="M339.2,313.3l1,1.5c0.2-0.2,0.4-0.4,0.3-0.6c0.1,0,0.2,0,0.2,0.1l-0.4-1.1c0.1-0.1,0.3-0.3,0.5-0.5l-0.6-0.9
		L340,312L339.2,313.3z"/>
	<path class="st0" d="M241,352.3c-0.2,0.2-0.3,0.3-0.6,0.4c-0.2,0.2-0.3,0.3-0.6,0.4c-0.2,0.2-0.3,0.3-0.6,0.4
		c-0.1,0-0.2,0.2-0.2,0.2c0,0-0.1,0.1-0.3,0.3c-0.1,0.1-0.2,0.2-0.3,0.3l25.3-4.9l6.9-15.4c-0.2,0.2-0.4,0.3-0.7,0.4
		c-0.3,0.1-0.5,0.3-0.7,0.5c-0.3,0.1-0.5,0.3-0.8,0.5c-0.2,0.2-0.5,0.4-0.8,0.5c-0.2,0.2-0.5,0.4-0.8,0.6c-0.1,0-0.1,0.1-0.1,0.1
		l-0.7,1.5l0.3,0c-0.1,0-0.3,0.1-0.4,0.2l-4.3,9.6l-19.7,3.8c-0.1,0-0.2,0.2-0.2,0.2C241.3,352.1,241.2,352.2,241,352.3z"/>
	<path class="st0" d="M270.3,333.2c0.2,0.1,0.4,0.2,0.6,0.4l1.1-2.5c-0.3,0-0.5,0-0.7,0.1c-0.3,0-0.6,0-0.8,0c-0.3,0-0.6,0-0.9,0
		c-0.2,0-0.4,0.1-0.5,0l-0.4,0.9c0.2,0.1,0.4,0.2,0.4,0.3C269.5,332.7,269.9,333,270.3,333.2z"/>
	<path class="st0" d="M355.4,336.9c0.2,0,0.4-0.1,0.6-0.2c0.4-0.1,0.7-0.2,0.9-0.3c0.1,0,0.1,0,0.3-0.1l-9.9-14.6
		c-0.5,0.3-0.9,0.6-1.5,0.9L355.4,336.9z"/>
	<path class="st0" d="M338.9,313.9l-0.9-0.4l-0.6-0.3l-0.1,0l1.6,2.2c0.3-0.1,0.7-0.2,1-0.3c0.3-0.1,0.4-0.2,0.6-0.3l-1-1.5
		l-0.1,0.1L338.9,313.9z"/>
	<path class="st0" d="M237.5,355.1c-0.2,0.2-0.4,0.3-0.6,0.5c-0.2,0.2-0.4,0.3-0.6,0.5c-0.2,0.2-0.5,0.3-0.6,0.6l-0.1,0l30.1-5.7
		l9-20.1c-0.1,0-0.3,0-0.4,0c-0.3,0-0.5,0-0.8,0.1c-0.3,0-0.5,0-0.8,0.1c-0.3,0-0.5,0-0.8,0.1c-0.1,0-0.1,0-0.1,0l-1.1,2.5
		c0.2,0.1,0.3,0.2,0.3,0.2s-0.2,0.2-0.6,0.3l-0.1,0l-6.9,15.4l-25.3,4.9c-0.1,0-0.1,0.1-0.2,0.2C237.9,354.8,237.8,355,237.5,355.1z
		"/>
	<path class="st0" d="M345.5,322.8c0,0-0.2,0-0.5-0.2c-0.3-0.1-0.7-0.3-1.3-0.4c-0.2,0-0.4-0.1-0.6-0.2l10.5,15.2
		c0.3,0,0.4,0,0.7-0.1c0.3,0,0.6-0.2,0.8-0.2c0.1,0,0.3,0,0.3-0.1l-9.8-14.2C345.6,322.7,345.6,322.7,345.5,322.8z"/>
	<path class="st0" d="M341,321.7l11.3,16.4c0.3-0.5,0.3-0.7,0.3-0.7c0.1,0,0.1,0,0.2,0c0.3,0,0.5-0.1,0.7-0.1c0.1,0,0.1,0,0.1,0
		l-10.4-15.2c-0.2-0.1-0.5-0.1-0.8-0.2C342,321.9,341.5,321.8,341,321.7z"/>
	<path class="st0" d="M234.4,358c-0.2,0.2-0.4,0.4-0.7,0.6c-0.2,0.2-0.4,0.3-0.5,0.5l34.4-6.6l9.8-21.8c-0.1,0-0.3,0-0.4,0.1
		c-0.3,0-0.4,0-0.7,0.1c-0.3,0-0.5,0-0.7,0.1c-0.3,0-0.5,0-0.7,0.1c-0.1,0-0.3,0-0.4,0.1l-9,20.1l-30,5.7c-0.2,0.2-0.4,0.3-0.5,0.5
		C234.9,357.5,234.6,357.8,234.4,358z"/>
	<path class="st0" d="M336.6,313.6l-0.8,0.4l1.3,1.9c0.1,0,0.2,0,0.2,0.1l0.1,0c0.2,0,0.7-0.2,1.2-0.3c0.1,0,0.1,0,0.2,0l-1.6-2.2
		l-0.5,0.2L336.6,313.6z"/>
	<path class="st0" d="M358.2,348.4L358.2,348.4c0,0.1,0.1,0.1,0.1,0.1l11.2,0.7l0-0.1l0.1,0l1.7-0.6l1-0.3c-0.3,0.1-1.4,0.1-2.9,0
		c-2.1-0.2-4.9-0.3-7.5-0.5c-0.4,0-0.7-0.1-1.1-0.1c-0.4,0-0.7-0.1-1-0.1c-0.4,0-0.6-0.1-1-0.1c-0.4,0-0.6-0.1-1-0.1
		c-0.4,0-0.6-0.1-1-0.1c-0.1,0-0.1,0-0.2-0.1l0.6,0.9L358.2,348.4z"/>
	<path class="st0" d="M335.7,314.1l-1,0.4c-0.1,0-0.3,0.1-0.4,0.1l0.9,1.3c0.4-0.1,0.7-0.1,1.1,0c0.3,0,0.6,0,0.8,0.1L335.7,314.1
		L335.7,314.1z"/>
	<path class="st0" d="M338.9,321.4l12.5,18.1c0.4-0.6,0.7-1.1,0.9-1.4L341,321.7c-0.1,0-0.2,0-0.3,0
		C340.1,321.6,339.6,321.5,338.9,321.4z"/>
	<path class="st0" d="M232.5,360c-0.2,0.3-0.5,0.5-0.7,0.8c-0.2,0.2-0.4,0.4-0.6,0.7l38.6-7.4l10.4-23.4l0,0c-0.2,0-0.4,0.1-0.6,0.1
		c-0.2,0-0.4,0.1-0.6,0.1c-0.2,0-0.4,0-0.6,0.1c-0.2,0-0.4,0-0.6,0.1c-0.1,0-0.2,0-0.3,0l-9.8,21.8l-34.4,6.6
		c-0.1,0-0.1,0.1-0.1,0.1C232.9,359.5,232.6,359.7,232.5,360z"/>
	<path class="st0" d="M332.8,315.2l0.7,1c0.2,0,0.4-0.1,0.5-0.1c0.4-0.1,0.7-0.1,1.1-0.1l0.1,0l-0.9-1.3c-0.2,0.1-0.3,0.1-0.6,0.2
		C333.4,314.9,333.1,315,332.8,315.2z"/>
	<path class="st0" d="M361.7,349.5c0.3-0.1,0.6-0.3,0.6-0.3c0,0.2,0.1,0.3,0.2,0.4c0.3,0.4,0.9,0.4,1.5,0.3c0.7-0.1,1.3-0.4,1.3-0.4
		c0.7,0.8,1.6,0.4,2.1,0.1c0.3-0.1,0.4-0.2,0.4-0.2c0.3,0.2,1,0.5,1.5,0.6c0.3,0.1,0.5,0.1,0.5,0.1l-0.1,0l-0.2-0.8l-11.2-0.8
		C359.3,350,360.9,349.8,361.7,349.5z"/>
	<path class="st0" d="M337.8,321.3c-0.2-0.1-0.5,0-0.8-0.1l13.4,19.5c0.4-0.4,0.7-0.9,1-1.3l-12.4-18.2l-0.1,0
		C338.5,321.4,338.2,321.4,337.8,321.3z"/>
	<path class="st0" d="M230.2,362.2c-0.2,0.3-0.5,0.5-0.7,0.8c-0.1,0.1-0.2,0.3-0.4,0.4l42.4-8.1l11.2-25c-0.2,0-0.4,0.1-0.5,0
		c-0.2,0-0.3,0-0.5,0c-0.2,0-0.4,0.1-0.5,0c-0.2,0-0.4,0.1-0.5,0c-0.2,0-0.4,0.1-0.5,0l-10.5,23.5l-38.6,7.4c0,0.1-0.1,0-0.1,0.1
		C230.7,361.6,230.5,361.9,230.2,362.2z"/>
	<path class="st0" d="M355.9,347.2c0.2-0.3,0.2-0.5,0.2-0.7c0-0.2-0.1-0.3-0.4-0.3c-0.3,0-0.6,0-0.9,0.1c-0.1,0-0.3,0.1-0.4,0.1
		l1,1.4l0-0.1l0.3,0.1l0.8,0.2l0.9,0.2l0,0l-0.6-0.9c-0.3,0-0.5,0-0.7-0.1C355.9,347.2,355.9,347.2,355.9,347.2z"/>
	<path class="st0" d="M353.7,346.7c-0.3,0.1-0.6,0.2-0.8,0.3l1.5,2.2l0.3,0l0.6-1.3l-1-1.4C354.1,346.5,353.9,346.6,353.7,346.7z"/>
	<path class="st0" d="M335.6,321.2c-0.1,0-0.2-0.1-0.4,0l14.3,20.7c0.1-0.1,0.2-0.3,0.4-0.4c0.2-0.2,0.5-0.5,0.6-0.7L337,321.3
		c-0.1,0-0.2-0.1-0.4,0C336.3,321.3,335.9,321.3,335.6,321.2z"/>
	<path class="st0" d="M229.2,363.4c-0.1,0.1-0.2,0.3-0.3,0.4c-0.2,0.3-0.4,0.6-0.7,0.9c-0.1,0.2-0.3,0.4-0.4,0.6l45.6-8.7l12.6-28.2
		c-0.1,0-0.1,0-0.2,0.1c-0.2,0.1-0.4,0.2-0.6,0.3c-0.2,0-0.4,0.2-0.5,0.3c-0.2,0.2-0.3,0.2-0.5,0.3c-0.1,0.1-0.2,0.3-0.3,0.5
		c0,0.1,0,0.1,0,0.2c0,0-0.3,0-0.7,0.1c-0.2,0-0.5,0-0.7,0.1l-11.2,25L229.2,363.4z"/>
	<path class="st0" d="M331.8,315.7c-0.1,0-0.2,0.1-0.3,0.1l0.6,0.9c0.3-0.1,0.6-0.2,0.9-0.4c0.2,0,0.3-0.1,0.5-0.1l-0.7-1
		c-0.1,0-0.1,0-0.1,0C332.4,315.3,332.1,315.5,331.8,315.7z"/>
	<path class="st0" d="M352.4,347.2c-0.2,0.2-0.4,0.5-0.6,0.7l1.1,1.7l0.9-0.2l0.1,0l0.5-0.1l-1.5-2.2c-0.1,0-0.3,0.1-0.3,0.1
		C352.5,347.2,352.4,347.2,352.4,347.2z"/>
	<path class="st0" d="M227,366.8c-0.1,0.2-0.1,0.2-0.1,0.4l48.2-9.2l13.9-30.8c-0.1,0-0.3,0.1-0.4,0.2c-0.3,0.1-0.5,0.2-0.8,0.3
		c-0.3,0.1-0.5,0.2-0.6,0.3c-0.3,0.1-0.4,0.2-0.6,0.3c-0.2,0.1-0.3,0.1-0.4,0.2l-12.6,28.2l-45.6,8.7c-0.1,0.1-0.1,0.2-0.2,0.4
		C227.2,366,227.1,366.4,227,366.8z"/>
	<path class="st0" d="M330.2,316.4l0.6,0.9c0.1,0,0.3-0.1,0.4-0.2c0.3-0.1,0.6-0.3,0.9-0.4l0,0l-0.6-0.9c-0.2,0.1-0.4,0.2-0.6,0.3
		C330.7,316.1,330.4,316.3,330.2,316.4z"/>
	<path class="st0" d="M333.5,321.2l15,21.7c0.4-0.3,0.7-0.8,1.1-1.1l-14.3-20.7c-0.2-0.1-0.5,0-0.8,0
		C334.2,321.2,333.8,321.2,333.5,321.2z"/>
	<path class="st0" d="M227.2,368.2l0.1,0.1l0.3,0.1c0,0-0.1,0-0.1,0.2l49.3-9.4l13.5-30.2c-0.1,0-0.2,0-0.3,0.1l-0.3-0.2
		c0.1-0.1,0.4-0.2,0.5-0.4c0.1,0,0.2-0.2,0.3-0.2l1-2.2c-0.3,0.1-0.6,0.2-0.8,0.3c-0.3,0.1-0.6,0.2-0.8,0.3
		c-0.3,0.1-0.6,0.2-0.8,0.3c-0.1,0-0.2,0.1-0.3,0.1L275,358l-48.2,9.2C226.8,367.7,226.9,368,227.2,368.2z"/>
	<path class="st0" d="M332.5,321.3c-0.2,0-0.4,0.1-0.5,0l15.5,22.6c0.2-0.3,0.5-0.5,0.8-0.8c0.1,0,0.1-0.1,0.2-0.2l-15-21.8l-0.1,0
		C333.1,321.3,332.8,321.3,332.5,321.3z"/>
	<path class="st0" d="M329.2,316.9c-0.1,0-0.2,0.1-0.3,0.1l0.7,1c0.3-0.1,0.4-0.3,0.7-0.5c0.1-0.1,0.3-0.2,0.5-0.3l-0.6-0.9
		c-0.1,0-0.1,0-0.1,0.1C329.7,316.6,329.5,316.8,329.2,316.9z"/>
	<path class="st0" d="M350.9,348.5c-0.1,0-0.1,0.1-0.3,0.1l0.8,1.3c0.1,0,0.2,0,0.3-0.1c0.5-0.2,0.7-0.3,0.7-0.3l0.3-0.1l0.1,0
		l-1.1-1.7C351.6,348.1,351.3,348.3,350.9,348.5z"/>
	<path class="st0" d="M327.7,317.7l0.7,1.1c0.1,0,0.1-0.1,0.2-0.2c0.2-0.2,0.5-0.3,0.8-0.6l0.1,0l-0.7-1c-0.2,0.1-0.4,0.2-0.6,0.3
		C328.2,317.4,328,317.5,327.7,317.7z"/>
	<path class="st0" d="M330.6,321.4c-0.1,0-0.1,0-0.2,0l16.1,23.5c0.2-0.2,0.3-0.3,0.5-0.5s0.3-0.3,0.5-0.5L332,321.3
		c-0.1,0-0.3,0-0.4,0C331.1,321.3,330.9,321.4,330.6,321.4z"/>
	<path class="st0" d="M291.7,327.7c0.3-0.1,0.5-0.2,0.7-0.4c0.3-0.1,0.6-0.3,0.8-0.4c0.1,0,0.2-0.1,0.3-0.1l0.8-1.9
		c-0.2,0.1-0.4,0.2-0.6,0.3c0,0-0.1,0-0.3,0.1c-0.2,0.1-0.6,0.2-0.9,0.3c-0.3,0.1-0.6,0.2-0.9,0.3c0,0,0,0-0.1,0l-1,2.2
		c0.1,0,0.3-0.1,0.3-0.2C291.2,328,291.4,327.9,291.7,327.7z"/>
	<path class="st0" d="M227.3,370.2l51.2-9.8l14.3-32c-0.1,0-0.1,0-0.1,0c-0.3,0.1-0.6,0.1-0.9,0.2c-0.3,0.1-0.6,0.1-0.9,0.2
		c-0.3,0-0.4,0.1-0.6,0.1l-13.5,30.2l-49.3,9.4c-0.1,0.2-0.3,0.6-0.3,1.1C227.2,369.8,227.2,370,227.3,370.2z"/>
	<path class="st0" d="M349.6,349.4l0.7,1c0.2,0,0.4-0.1,0.6-0.1c0.3-0.1,0.6-0.2,0.7-0.3l-0.8-1.3c-0.3,0.2-0.7,0.4-0.9,0.6
		C349.7,349.3,349.7,349.3,349.6,349.4z"/>
	<path class="st0" d="M348.3,349.8l0.6,0.9c0.3-0.1,0.6-0.1,0.9-0.2c0.1,0,0.3-0.1,0.4-0.1l-0.7-1c-0.3,0.1-0.5,0.2-0.8,0.3
		C348.7,349.7,348.5,349.8,348.3,349.8z"/>
	<path class="st0" d="M227.7,371.4c0,0.1,0,0.1,0.1,0.1l52.3-10l15.2-33.8c-0.2,0-0.4,0.1-0.6,0.1c-0.4,0.1-0.7,0.2-0.9,0.3
		s-0.6,0.1-0.8,0.2l-14.3,32l-51.2,9.8C227.3,370.6,227.4,371,227.7,371.4z"/>
	<path class="st0" d="M294.3,326.6c0.1-0.1,0.2-0.3,0.5-0.3c0.2-0.2,0.5-0.3,0.7-0.5c0.3-0.1,0.6-0.3,0.8-0.4c0,0,0,0,0.1,0l0.7-1.6
		l-0.1,0c-0.3,0.1-0.7,0.2-1,0.4c-0.3,0.1-0.6,0.3-0.9,0.5c-0.3,0.1-0.6,0.3-0.8,0.5l0,0l-0.8,1.9c0.3-0.1,0.4-0.2,0.6-0.2
		C294.1,326.6,294.3,326.6,294.3,326.6z"/>
	<path class="st0" d="M326.9,318.3c-0.1,0-0.1,0.1-0.2,0.2l1.9,2.8l-0.2-0.9l-0.3-1.1c0.1-0.1,0.2-0.3,0.5-0.5l-0.7-1.1
		c-0.1,0-0.1,0-0.2,0.1C327.4,317.9,327.2,318.1,326.9,318.3z"/>
	<path class="st0" d="M329.7,321.5c-0.3,0-0.5,0.1-0.7,0.1l16.6,24.2c0.1-0.1,0.2-0.2,0.3-0.3c0.2-0.2,0.5-0.3,0.6-0.5l-16.1-23.5
		C330.1,321.5,329.9,321.5,329.7,321.5z"/>
	<path class="st0" d="M298.2,324.5c0.2-0.1,0.4-0.1,0.6-0.2l0.6-1.4c-0.1,0-0.2,0-0.3,0.1c-0.3,0.1-0.8,0.2-1.1,0.4
		c-0.3,0.1-0.7,0.2-1,0.4l-0.7,1.6c0.3-0.1,0.6-0.3,0.9-0.4C297.6,324.7,297.8,324.6,298.2,324.5z"/>
	<path class="st0" d="M347.1,350.2L347.1,350.2l0.6,1c0.1,0,0.3,0,0.4-0.1c0.3-0.1,0.6-0.1,0.9-0.2l0,0l-0.6-0.9
		c-0.1,0-0.3,0.1-0.4,0.1C347.7,350,347.4,350.1,347.1,350.2z"/>
	<path class="st0" d="M328.7,321.2l-1.9-2.8c-0.2,0.2-0.3,0.3-0.5,0.3c-0.2,0.2-0.3,0.3-0.4,0.4l18.7,27.3c0.1-0.1,0.2-0.2,0.3-0.2
		c0.2-0.2,0.5-0.3,0.7-0.6L329,321.5c-0.1,0-0.1,0-0.1,0L328.7,321.2z"/>
	<path class="st0" d="M281.7,362.7l15.9-35.5c-0.3,0.1-0.6,0.2-0.8,0.2c-0.4,0.1-0.7,0.2-1,0.3c-0.1,0-0.3,0.1-0.4,0.1l-15.2,33.8
		l-52.3,10c0.2,0.4,0.7,0.8,1.3,1.2L281.7,362.7z"/>
	<path class="st0" d="M301.3,323.4l0.5-1c-0.3,0-0.6,0.1-1,0.2c-0.4,0-0.8,0.2-1.3,0.3l-0.6,1.4c0.2,0,0.3-0.1,0.5-0.2
		C300,323.8,300.7,323.6,301.3,323.4z"/>
	<path class="st0" d="M229.2,373.8c0,0.1,0,0.1,0,0.2c0,0.1,0,0.1,0,0.1l53.9-10.3l16.6-37.1c-0.3,0.1-0.6,0.1-0.9,0.2
		c-0.4,0.1-0.7,0.2-1.2,0.3c-0.1,0-0.2,0-0.3,0l-15.9,35.5l-52.6,10c0.1,0.1,0.2,0.2,0.3,0.2C229.3,373.3,229.2,373.6,229.2,373.8z"
		/>
	<path class="st0" d="M345.7,350.4l0.7,1c0.3,0,0.6-0.2,0.8-0.2c0.2,0,0.3-0.1,0.5-0.1l-0.6-0.9c-0.3,0-0.5,0.1-0.7,0.2
		C346.1,350.3,346,350.3,345.7,350.4z"/>
	<path class="st0" d="M325,320.2L325,320.2l18.6,27c0.1-0.1,0.2-0.2,0.3-0.2c0.2-0.2,0.5-0.3,0.7-0.5l-18.8-27.3
		c-0.1,0-0.1,0.1-0.2,0.2C325.4,319.7,325.1,319.9,325,320.2z"/>
	<path class="st0" d="M344.9,350.5c-0.2,0-0.4,0.1-0.5,0l0.8,1.1c0.2,0,0.3,0,0.5-0.1c0.3,0,0.6-0.2,0.8-0.2l0,0l-0.7-1
		c-0.1,0-0.1,0-0.1,0C345.4,350.4,345.2,350.4,344.9,350.5z"/>
	<path class="st0" d="M342.7,348.1l0.3-0.5c0.2-0.2,0.3-0.3,0.6-0.4l-18.5-27l-0.2,1.8L342.7,348.1z"/>
	<path class="st0" d="M301.4,323.4c0.6-0.1,1-0.3,1.2-0.3c0.1,0,0.1,0,0.1,0c0,0.2,0.2,0.6,0.3,0.8l1-2.2c-0.3,0.1-0.6,0.1-0.8,0.4
		c0,0-0.1,0-0.1,0c-0.2,0-0.5,0.1-1.1,0.1c-0.1,0-0.1,0-0.2,0l-0.5,1C301.3,323.4,301.4,323.3,301.4,323.4z"/>
	<path class="st0" d="M229.6,375.4l55-10.5l17.3-38.8c-0.6,0.1-1.3,0.3-1.9,0.5c-0.1,0-0.2,0-0.3,0l-16.6,37.1L229.2,374
		C229.3,374.7,229.4,375,229.6,375.4z"/>
	<path class="st0" d="M303.6,324.8l-0.5,1c-0.3,0.1-0.7,0.2-1,0.3c-0.1,0-0.1,0-0.2,0l-17.3,38.8l-55,10.5c0,0.1,0.1,0.1,0.1,0.2
		c0.2,0.4,0.6,0.6,0.8,0.9l55.5-10.6l19.6-44c-0.2-0.1-0.5-0.2-0.7-0.2c-0.3-0.1-0.6,0-0.9,0c-0.1,0-0.1,0-0.2,0l-1,2.2
		c0,0.1,0,0.1,0.1,0.1C303.3,324.2,303.4,324.5,303.6,324.8z"/>
	<path class="st0" d="M324.1,322.3c-0.2,0-0.3,0.1-0.5,0.1l20.3,29.5c0.1,0,0.2,0,0.3,0c0.3,0,0.5-0.1,0.7-0.1c0.1,0,0.2,0,0.3,0
		l-0.8-1.1c-0.1,0-0.1,0-0.1,0c-0.3,0-0.5,0-0.6,0.1c-0.4,0.1-0.5,0-0.6,0l0,0l-0.2-0.5l-0.2-0.5l-0.2-0.5l0.5-0.9l-17.8-26.1l0,0.1
		C324.6,322.2,324.4,322.2,324.1,322.3z"/>
	<path class="st0" d="M322.8,322.6c-0.1,0-0.2,0-0.3,0.1l20.2,29.3c0.1,0,0.1,0,0.2,0.1c0.2,0.1,0.4,0,0.7-0.1c0.1,0,0.3,0,0.4,0
		l-20.3-29.5c-0.1,0-0.1,0-0.3,0C323.2,322.5,323,322.5,322.8,322.6z"/>
	<path class="st0" d="M231.8,377.3c-0.1,0.1-0.1,0.2-0.1,0.3l55.7-10.7l19.7-44.1l0,0c-0.2-0.2-0.4-0.3-0.7-0.4
		c-0.2-0.1-0.4-0.3-0.7-0.4l-0.1,0L286,366l-55.5,10.6c0,0.1,0.1,0.1,0.2,0.2C231.3,377.1,231.8,377.3,231.8,377.3z"/>
	<path class="st0" d="M232.6,378.6l56.2-10.8l19.7-44c0-0.1-0.1-0.1-0.1-0.1c-0.2-0.2-0.4-0.4-0.5-0.5c-0.2-0.2-0.4-0.3-0.6-0.4
		l-19.7,44.1l-55.8,10.6c0,0.1,0,0.1,0,0.1C231.7,378,232.1,378.4,232.6,378.6z"/>
	<path class="st0" d="M322.2,322.7c-0.1,0-0.2,0-0.3,0c0,0,0.2,0.3,0.5,0.7c0.6,0.9,1.4,2.4,1.5,3l17.5,25.5c0.1,0,0.2,0.1,0.4,0
		c0.2,0,0.4,0,0.6,0c0.1,0,0.2,0.1,0.4-0.1l-20.2-29.3C322.4,322.7,322.3,322.7,322.2,322.7z"/>
	<path class="st0" d="M234.2,379.2c0.2,0.1,0.4,0.1,0.6,0.2l55.2-10.6l20-44.6c-0.2,0-0.3,0.1-0.5,0.2c-0.1,0.1-0.3,0.1-0.4,0.2
		c0,0-0.1-0.1-0.4-0.3c-0.1-0.1-0.2-0.2-0.4-0.4l-19.7,44l-56.2,10.8c0.1,0,0.1,0.1,0.2,0C233,378.9,233.6,379.1,234.2,379.2z"/>
	<path class="st0" d="M323.8,326.6c0,0-0.1,0.3-0.3,0.6c-0.1,0.1-0.1,0.2-0.2,0.2l16.5,23.9l0,0c0.1,0.1,0.3,0.1,0.4,0.1
		c0.1,0.1,0.3,0.1,0.4,0.2c0.2,0,0.3,0.1,0.5,0.1c0.1,0,0.1,0,0.2,0l-17.5-25.5C323.8,326.5,323.8,326.6,323.8,326.6z"/>
	<path class="st0" d="M322.3,327.7c-0.3-0.2-0.6-0.6-0.8-1.3c0,0-0.2-1.1-0.7-2.1c-0.2-0.4-0.5-0.8-0.9-1.1
		c-0.2-0.2-0.4-0.3-0.7-0.4c-0.1,0-0.1,0-0.2,0l19.1,27.8c0.1-0.1,0.3-0.2,0.4-0.2l0.4,0.1c0,0.2,0.1,0.3,0.2,0.4
		c0.1,0.1,0.2,0.2,0.4,0.3c0.1,0.1,0.2,0.2,0.3,0.2l-16.4-24c-0.1,0.1-0.2,0.2-0.3,0.2C322.7,327.9,322.6,327.8,322.3,327.7z"/>
	<path class="st0" d="M234.8,379.4c0.3,0.1,0.6,0.2,0.9,0.2c0.5,0.1,1.1,0.1,1.7,0.3c0.2,0.1,0.5,0.1,0.7,0.1l53.2-10.2l20.6-46
		c-0.3,0-0.5,0.1-0.7,0.2c-0.3,0.1-0.6,0.2-0.8,0.2c-0.1,0-0.3,0.1-0.3,0.1l-20.1,44.6L234.8,379.4z"/>
	<path class="st0" d="M240.8,380.2c0.5,0,1,0.1,1.4,0.1l50.3-9.7l21.2-47.2c-0.1,0-0.2,0-0.3,0c-0.3,0-0.5,0.1-0.7,0.1
		c-0.3,0-0.5,0.1-0.7,0.1c0,0,0,0-0.1,0l-20.6,46l-53.2,10.2c0.4,0,0.6,0.1,1,0.1C239.7,380.1,240.3,380.2,240.8,380.2z"/>
	<path class="st0" d="M318,323c-0.1,0-0.1,0-0.2,0c0,0,0,0-0.1,0l19.4,28.2l0.1,0c0.2-0.1,0.4-0.2,0.6-0.3c0.1,0,0.1-0.1,0.2-0.1
		l-19.2-27.9c-0.1,0-0.2-0.1-0.4,0C318.4,322.9,318.2,323,318,323z"/>
	<path class="st0" d="M244.1,380.4c0.5,0,1.1,0.1,1.6,0.1c0.4,0,0.8,0,1.2,0l46.8-8.9l21.7-48.3l-0.1,0c-0.2,0-0.4,0-0.6,0.1
		c-0.3,0-0.4,0-0.7,0.1c-0.1,0-0.3,0-0.4,0.1l-21.2,47.2l-50.3,9.7c0.1,0,0.2,0,0.2,0.1C243,380.3,243.5,380.4,244.1,380.4z"/>
	<path class="st0" d="M317,323.1c-0.1,0-0.3,0-0.3,0l17,24.7c0.2,0,0.3,0.1,0.4,0.1c0.1,0,0,0.1,0,0.1c0.1,0,0.2,0,0.2,0.2
		c0,0.1,0.1,0.1,0.1,0.3c0,0.1,0.1,0.1,0.1,0.3c0,0.1,0.1,0.1,0.1,0.3c0,0.1,0.1,0.1,0.1,0.3c0,0.1,0,0.2,0.1,0.3
		c0,0.1,0,0.1,0.1,0.2c0,0.1,0.1,0.2,0.1,0.3c0,0.1,0.1,0.3,0.1,0.3c0,0.1,0,0.1,0,0.2l0.8,1.2c0.1,0,0.3-0.1,0.3-0.2
		c0.2-0.1,0.4-0.2,0.5-0.3l-19.4-28.2C317.6,323,317.4,323.1,317,323.1z"/>
	<path class="st0" d="M335.8,351.1c0,0.2,0.1,0.3,0.2,0.4c0,0.2,0.1,0.4,0.1,0.4c0.1,0,0.1,0,0.1,0c0.1,0,0.1-0.1,0.3-0.1l-0.8-1.2
		c0,0.1,0,0.2,0.1,0.2C335.7,350.8,335.7,350.9,335.8,351.1z"/>
	<path class="st0" d="M315.9,323.2c-0.2,0-0.4,0.1-0.5,0.1l-21.6,48.3l-46.8,8.9c0.1,0,0.2,0.1,0.4,0c0.5,0,1.1,0,1.5,0
		c0.6,0,1.1,0,1.5,0c0.8,0,1.3,0,1.5,0c0.1,0,0.1,0,0.1,0c0.1,0,0.2,0,0.3,0l42.6-8.2l21.5-48.1l16,23.3c0.2-0.1,0.4,0,0.7-0.1
		c0.2,0,0.3,0.1,0.5,0.1c0,0,0,0,0.1,0l-17-24.7c-0.1,0-0.2,0-0.3,0C316.3,323.1,316.1,323.2,315.9,323.2z"/>
	<path class="st0" d="M254.9,380.3c0.5,0,1,0,1.6-0.1c0.5-0.1,1,0,1.5-0.2c0.5-0.1,1,0,1.5-0.2c0.5-0.1,0.9-0.1,1.5-0.2
		c0.5-0.1,0.9-0.1,1.4-0.2c0.5-0.1,0.9-0.1,1.4-0.2c0.5-0.1,0.9-0.1,1.4-0.2l9-1.7c0.1,0,0.1,0,0.2,0c0.4,0,0.9-0.1,1.2-0.3
		c0.4,0,0.8-0.2,1.2-0.3c0.4,0,0.8-0.2,1.2-0.3c0.4-0.1,0.8-0.2,1.2-0.3c0.4-0.1,0.7-0.2,1.2-0.3c0.4-0.1,0.7-0.2,1.1-0.3
		c0.4-0.1,0.7-0.2,1.1-0.3l-0.1,0c0,0.1,0.2,0.2,0.5,0.3c0.1,0,0.1,0,0.2,0l13.2-2.6l20.9-46.4l15.8,23c0-0.1,0-0.1,0-0.2
		c0-0.1-0.1-0.2-0.1-0.3c0-0.1-0.1-0.2-0.1-0.3c0-0.1,0-0.2-0.1-0.3c0-0.2,0-0.3-0.1-0.4c0-0.2,0.1-0.3,0.2-0.3l-16-23.3l-21.5,48.1
		l-42.6,8.1c0.4-0.1,0.8-0.1,1.1-0.1C253.9,380.4,254.4,380.4,254.9,380.3z"/>
	<path class="st0" d="M333.3,350.5c0-0.1-0.1-0.1-0.1-0.2c0-0.1-0.1-0.1-0.1-0.2s-0.1-0.1-0.1-0.2c0-0.1-0.2-0.2-0.1-0.2l0.7,1.1
		C333.5,350.6,333.4,350.6,333.3,350.5z"/>
	<path class="st0" d="M296,373.2l-13.2,2.6c0.1,0,0.3,0,0.5,0c0.2,0,0.4,0,0.6,0.1c0.2,0,0.4,0,0.6-0.1c0.2,0,0.5,0,0.7-0.1
		c0.3,0,0.5,0,0.7-0.1c0.3,0,0.5,0,0.7-0.1c0.3,0,0.4,0,0.7-0.1c0.3,0,0.4,0,0.7-0.1c0.3,0,0.4,0,0.7-0.1c0.2-0.1,0.4,0,0.7-0.1
		c0.2-0.1,0.4,0,0.6-0.1c0.3,0,0.4,0,0.6-0.1c0.3,0,0.5-0.1,0.6-0.1c0.2,0,0.3,0,0.3,0l0,0.1l5.9-1.1l20.2-45.3l16.7,24.3
		c0-0.1,0-0.1,0-0.1c0-0.2,0-0.4,0-0.6c0-0.2,0-0.3-0.1-0.4c0-0.1-0.1-0.3-0.1-0.3c0-0.1-0.1-0.2-0.1-0.3c0-0.2-0.1-0.3-0.2-0.4l0,0
		l-0.7-1.1l0,0c0-0.1,0-0.1,0-0.1l0-0.1L317,326.3L296,373.2z"/>
	<path class="st0" d="M266.5,378.8c0.5-0.1,0.9-0.1,1.4-0.2c0.4,0,0.9-0.1,1.3-0.2c0.4,0,0.9-0.1,1.3-0.3c0.4,0,0.9-0.1,1.3-0.3
		c0.4,0,0.9-0.1,1.3-0.3c0.4-0.1,0.7-0.2,1.1-0.2l-9,1.7l0.1,0C265.6,379,266.1,378.9,266.5,378.8z"/>
	<path class="st0" d="M291.1,375.7c0,0.1,0,0.2-0.1,0.3l4.6-0.9c0.7-0.5,1.5-1,2.2-1.6c0.5-0.3,0.9-0.6,1.3-0.9l18.8-41.9l15.7,22.9
		l0.1,0c0.2-0.2,0.4-0.4,0.4-0.7l-16.6-24.2l-20.3,45.3l-5.9,1.1c0,0.1,0,0.1,0,0.2C291.2,375.4,291.1,375.6,291.1,375.7z"/>
	<path class="st0" d="M290.9,376.7c0,0.1-0.1,0.3-0.1,0.4l0,0l3-0.5c0.5-0.3,1-0.8,1.5-1.1c0.1,0,0.1-0.1,0.2-0.2l-4.6,0.9
		c0,0.1,0,0.1,0,0.1C291,376.4,290.9,376.5,290.9,376.7z"/>
	<path class="st0" d="M299.1,372.7c0.3-0.2,0.6-0.5,0.9-0.6c0.3-0.3,0.7-0.5,1-0.8l17.2-38.4l14.6,21.2c0.1,0,0.1-0.1,0.1-0.1
		c0.1,0,0.1,0,0.1,0c0.2-0.1,0.3-0.2,0.5-0.3l-15.8-23L299.1,372.7z"/>
	<path class="st0" d="M290.6,377.9c0,0.1,0,0.1,0,0.1l1.6-0.3c0.1-0.1,0.2-0.2,0.3-0.3c0.3-0.3,0.8-0.6,1.3-0.9l-3,0.5
		c0,0.1-0.1,0.2-0.1,0.4C290.7,377.7,290.7,377.8,290.6,377.9z"/>
	<path class="st0" d="M302.9,369.9l15.7-35l13.5,19.8c0.1-0.1,0.2-0.2,0.4-0.2c0.1-0.1,0.2-0.2,0.3-0.2L318.2,333L301,371.4
		c0.3-0.3,0.7-0.5,1-0.7C302.5,370.3,302.7,370.1,302.9,369.9z"/>
	<path class="st0" d="M290.5,378.3c-0.1,0.2-0.1,0.4-0.1,0.5c0,0.1,0,0.1-0.1,0.2l0.4-0.1c0.1,0,0.1-0.1,0.1-0.1
		c0.1-0.1,0.2-0.2,0.3-0.2c0.1-0.1,0.2-0.2,0.3-0.2c0.2-0.2,0.5-0.3,0.8-0.6l-1.6,0.3C290.6,378.1,290.6,378.2,290.5,378.3z"/>
	<path class="st0" d="M303.3,369.7c0,0.1,0.1,0.1,0.2,0.1c0,0.1,0.1,0.1,0.2,0c0.1,0,0.1,0,0.2,0.1c0.1,0,0.2,0,0.2,0.1
		c0,0,0.1,0,0.1,0l14.8-33.2l12.6,18.2c0.2-0.1,0.3-0.2,0.5-0.3c0.1,0,0.1-0.1,0.2-0.2l-13.5-19.8l-15.7,35.1
		C303.1,369.8,303.3,369.7,303.3,369.7C303.2,369.8,303.3,369.7,303.3,369.7z"/>
	<path class="st0" d="M290,379.5L290,379.5L290,379.5c0.1-0.1,0.1-0.1,0.2-0.2C290.1,379.4,290,379.5,290,379.5z"/>
	<path class="st0" d="M304.6,370c0.1,0,0.2,0,0.3,0s0.2,0,0.3,0c0.1,0,0.2,0,0.3,0l0,0l14-31.1l11.5,16.7l0.1,0
		c0.2-0.1,0.3-0.2,0.5-0.3l0.1,0l-12.6-18.2l-14.8,33.2c0.1,0,0.1,0,0.2,0C304.6,370.1,304.5,370,304.6,370z"/>
	<path class="st0" d="M290.2,379.3L290.2,379.3L290.2,379.3c0.1-0.1,0.2-0.2,0.3-0.3c0.1,0,0.1-0.1,0.2-0.2l-0.4,0.1
		c0,0.1,0,0.1,0,0.1C290.3,379.2,290.3,379.3,290.2,379.3z"/>
	<path class="st0" d="M305.5,369.9c0.1,0,0.2,0,0.3,0c0.1,0,0.2,0,0.3,0c0.1,0,0.2,0,0.3-0.1s0.2,0,0.3-0.1c0.1,0,0.2,0,0.3,0
		l1.1-2.5l-0.1,0c0,0-0.1,0,0-0.1l0.1,0l0.1,0l11.8-26.4l10.6,15.4c0.1,0,0.2-0.1,0.3-0.1c0.1-0.1,0.2-0.2,0.4-0.2l-11.6-16.8
		L305.5,369.9z"/>
	<path class="st0" d="M308.3,366.9c0.1,0,0.1,0,0.2-0.1c0.1,0,0.1,0,0.2-0.1c0.1,0,0.1,0,0.2-0.1c0.1,0,0.1,0,0.2-0.1
		c0.1,0,0.1,0,0.2-0.1c0.1,0,0.1,0,0.2-0.1l10.7-24l9.6,14c0.1-0.1,0.3-0.1,0.4-0.2c0.1,0,0.1-0.1,0.2-0.2l-10.6-15.4l-11.8,26.4
		c0.1,0,0.1,0,0.1,0C308.1,366.9,308.2,366.9,308.3,366.9z"/>
	<path class="st0" d="M307.1,369.5c0.1,0,0.2,0,0.3-0.1c0.1,0,0.2,0,0.3-0.1c0.1,0,0.1,0,0.2,0c0.1,0,0.1,0,0.1,0c0.1,0,0.1,0,0.1,0
		l0.1,0l0.9-2.2l-1.2,0.1l-1.1,2.5c0,0,0,0,0.1,0C306.9,369.6,307,369.5,307.1,369.5z"/>
	<path class="st0" d="M308.3,369.2C308.3,369.2,308.3,369.2,308.3,369.2c0.2,0,0.2,0,0.2,0c0.1,0,0.1,0,0.1,0c0.1,0,0.1,0,0.1,0
		c0.1,0,0.1,0,0.1,0c0.1,0,0.1,0,0.1,0c0.1,0,0.1,0,0.1,0c0.1,0,0.1,0,0.1,0l0.1,0l0.1,0l0.1,0l0.1,0l0.9-2c-0.1,0-0.3,0-0.4,0.1
		c-0.2,0-0.4,0.1-0.5,0.1l-0.4,0.1l-0.9,2.2L308.3,369.2L308.3,369.2z"/>
	<path class="st0" d="M309.4,366.3C309.4,366.3,309.5,366.3,309.4,366.3l0.3,0l0-0.1l0.1,0l0.1,0l0.1,0l0.1,0l0.1,0l0.1,0l0.1,0
		l0.1,0l0.1,0l0.1,0l0.1,0l0.1,0l0.1,0l0.1,0l0.1,0l0.1,0l0.1,0l0.1,0c0,0,0,0,0.1,0c0,0,0,0,0.1,0c0,0,0,0,0.1,0l9.6-21.4l8.7,12.6
		c0.1,0,0.1,0,0.1-0.1c0.1-0.1,0.2-0.2,0.4-0.2l0.1,0l-9.7-13.9L309.4,366.3z"/>
	<path class="st0" d="M309.5,368.8L309.5,368.8l0.2,0l0.1,0l0.1,0l0.1,0l0.1,0l0.1,0l0.1,0l0.1,0l0.1,0l0.1,0l0.1,0l0.1,0l0.1,0
		l0.1,0l0.1,0c0,0,0,0,0.1,0c0,0,0,0,0.1,0c0,0,0,0,0.1,0c0.1,0,0.1,0,0.1,0l0.8-1.9l0,0c0,0,0,0-0.1,0c0,0,0,0-0.1,0c0,0,0,0-0.1,0
		c0,0,0,0-0.1,0c0,0,0,0-0.1,0c0,0,0,0-0.1,0c0,0,0,0-0.1,0l-0.1,0l-0.1,0l-0.1,0l-0.1,0l-0.1,0l-0.1,0l-0.1,0l-0.1,0l-0.1,0l-0.1,0
		l-0.1,0l-0.1,0l-0.1,0l-0.1,0c0,0,0,0-0.1,0l-0.1,0l-0.9,2l0,0C309.5,368.8,309.5,368.8,309.5,368.8z"/>
	<path class="st0" d="M310.9,365.7C310.9,365.6,310.9,365.6,310.9,365.7C311,365.6,311,365.6,310.9,365.7c0.1,0,0.1,0,0.2,0
		c0,0,0,0,0.1,0l0.1,0l0.1,0l0.1,0l0.1,0l0.1,0l0.1,0l0.1,0l0.1,0l0.1,0l0.1,0l0.1,0l0.1,0l0.1,0l0.1,0l0.1,0l0.1,0l0.1,0l0.1,0
		l0.1,0l8.6-19.3l7.8,11.3c0.1,0,0.2-0.2,0.3-0.2c0.1,0,0.2-0.1,0.3-0.1l-8.7-12.4L310.9,365.7C310.8,365.6,310.8,365.6,310.9,365.7
		C310.8,365.6,310.8,365.6,310.9,365.7z"/>
	<path class="st0" d="M311.9,368l0.8-1.8c0,0,0,0-0.1,0l-0.1,0l-0.1,0l-0.1,0l-0.1,0l-0.1,0l-0.1,0l-0.1,0l-0.1,0l-0.1,0l-0.1,0
		l-0.1,0c-0.1,0-0.3,0.1-0.5,0.1c0,0,0,0-0.1,0l0,0l-0.8,1.9C311.2,368.3,311.6,368.1,311.9,368z"/>
	<path class="st0" d="M312.3,364.9L312.3,364.9l0.2,0l0,0.1l0.1-0.2c0.1,0,0.1,0,0.1,0c0.1,0,0.1,0,0.1,0c0.1,0,0.1,0,0.1,0
		c0.1,0,0.1,0,0.1,0c0.1,0,0.1,0,0.1,0c0.1,0,0.1,0,0.1,0c0.1,0,0.1,0,0.1,0c0.1,0,0.1,0,0.1,0c0.1,0,0.1,0,0.1,0s0,0,0.1,0l7.6-17
		l6.9,10c0.1,0,0.1,0,0.1-0.1c0.1,0,0.3-0.1,0.4-0.2l0.1,0l-7.8-11.3l-8.7,19.2l0,0C312.2,365,312.3,365,312.3,364.9z"/>
	<path class="st0" d="M313.2,367.6l0.7-1.5l-0.1,0c0,0,0,0-0.1,0c0,0,0,0-0.1,0l-0.1,0l-0.1,0l-0.1,0l-0.1,0l-0.1,0l-0.1,0l0,0
		c0,0,0,0-0.1,0l-0.1,0l-0.1,0l-0.1,0l-0.1,0l-0.1,0c-0.1,0-0.1,0-0.1,0l-0.1,0l-0.1,0l0,0l-0.8,1.8
		C312.4,367.8,312.9,367.7,313.2,367.6z"/>
	<path class="st0" d="M313.7,364.3L313.7,364.3l0.2,0l0.1,0l0.1,0l0.1,0l0.1,0l0,0l0.1,0l0.1,0l0.1,0l0.1,0l0.1,0l0.1,0l0.1,0l0.1,0
		l0.1,0l0.1,0l0.1,0l0.1,0l6.6-14.8l6,8.6l0,0c0.1,0,0.3-0.1,0.3-0.2c0.1,0,0.1-0.1,0.2-0.1l-6.9-10l-7.6,17l0.1,0
		C313.7,364.3,313.7,364.3,313.7,364.3z"/>
	<path class="st0" d="M314.4,367.2l0.5-1.2l0,0l-0.1,0l-0.1,0l-0.1,0l-0.1,0l-0.1,0l-0.1,0l-0.1,0l-0.1,0l-0.1,0c0,0,0,0-0.1,0
		c0,0,0,0-0.1,0c0,0,0,0-0.1,0c-0.2,0-0.3,0-0.5,0l-0.7,1.5c0.6-0.2,0.9-0.4,0.9-0.4C314.2,367.2,314.2,367.2,314.4,367.2z"/>
	<path class="st0" d="M314.9,363.7C314.9,363.7,314.9,363.7,314.9,363.7C314.9,363.7,314.9,363.7,314.9,363.7l0.2,0l0.1,0l0.1,0
		l0.1,0l0.1,0l0.1,0l0.1,0c0.1,0,0.1,0,0.1,0c0.1,0,0.1,0,0.1,0c0.1,0,0.1,0,0.1,0c0.1,0,0.1,0,0.1,0c0.1,0,0.1,0,0.1,0
		c0.1,0,0.1,0,0.1,0l0,0l5.6-12.7l5.1,7.4c0.1,0,0.2-0.1,0.3-0.1c0.1,0,0.2-0.1,0.3-0.1l-6-8.6L314.9,363.7z"/>
	<path class="st0" d="M316.4,363C316.5,362.9,316.5,362.9,316.4,363c0.2,0,0.2,0,0.2,0c0.1,0,0.1,0,0.1,0c0.1,0,0.1,0,0.1,0
		c0.1,0,0.1,0,0.1,0c0.1,0,0.3-0.1,0.4-0.2l4.8-10.6l4.3,6.2c0.1,0,0.2,0,0.3-0.1c0.1,0,0.2-0.1,0.3-0.1l0,0l-5-7.5l-5.6,12.7
		c0.1,0,0.1,0,0.1,0C316.4,363,316.3,363,316.4,363z"/>
	<path class="st0" d="M314.6,367.3l0.6-0.3c0.1,0,0.1,0,0.1,0l0.6-1.3c-0.1,0-0.1,0-0.1,0c-0.1,0-0.3,0-0.4,0.1c-0.1,0-0.1,0-0.1,0
		l-0.1,0l-0.1,0l-0.1,0l-0.1,0l-0.1,0l-0.1,0l-0.1,0c0,0,0,0-0.1,0l-0.5,1.2C314.5,367.3,314.5,367.2,314.6,367.3L314.6,367.3z"/>
	<path class="st0" d="M316.5,366.8l0.6-1.4l0,0c-0.1,0-0.3,0.1-0.4,0.1c-0.1,0-0.3,0.1-0.3,0.1c-0.1,0-0.2,0-0.3,0.1l-0.6,1.3
		C315.8,366.9,316.1,366.9,316.5,366.8z"/>
	<path class="st0" d="M322.4,353.3l3.4,4.9c0.1,0,0.1,0,0.1,0c0.1,0,0.1,0,0.3,0c0.1,0,0.2,0,0.3-0.1l0,0l-4.3-6.2l-4.8,10.6
		c0.4-0.2,0.8-0.4,1.2-0.6L322.4,353.3z"/>
	<path class="st0" d="M316.5,366.7C316.5,366.7,316.6,366.8,316.5,366.7C316.6,366.7,316.6,366.7,316.5,366.7l0.2,0l0.1,0l0.1,0
		l0.1,0l0.1,0l0.1,0l0.1,0l0.1,0l0.1,0l0.1,0l0.1,0l0.1,0l0,0l0.7-1.5l-0.3,0.1c-0.2,0-0.3,0.1-0.5,0.2c-0.1,0-0.3,0.1-0.4,0.1
		L316.5,366.7C316.5,366.8,316.5,366.8,316.5,366.7L316.5,366.7z"/>
	<path class="st0" d="M322.8,354.7l2.8,4.1l0-0.1c0-0.1,0-0.2,0-0.3c0-0.2,0-0.3,0-0.3c0.1,0,0.1,0,0.2,0c0.1,0,0.1,0,0.1,0
		l-3.4-4.9l-3.9,8.6c0.4-0.2,0.8-0.4,1.1-0.6L322.8,354.7z"/>
	<path class="st0" d="M319.8,361.3c0.5-0.2,0.8-0.4,1.1-0.5l2.1-4.7l2.6,3.8l0-0.1c0-0.1,0-0.3-0.1-0.4c0-0.1,0-0.2,0-0.3
		c0-0.1,0-0.1,0-0.3l-2.8-4.1L319.8,361.3z"/>
	<path class="st0" d="M317.6,366.5L317.6,366.5l0.2,0c0.1,0,0.1,0,0.1,0c0.1,0,0.1,0,0.1,0c0.1,0,0.1,0,0.1,0c0.1,0,0.1,0,0.1,0
		c0.1,0,0.1,0,0.1,0c0.1,0,0.1,0,0.1,0l0.1,0l0.7-1.5l0,0c-0.1,0-0.1,0-0.1,0c-0.1,0-0.1,0-0.1,0c-0.1,0-0.1,0-0.1,0
		c-0.1,0-0.1,0-0.1,0c-0.1,0-0.1,0-0.1,0c-0.1,0-0.1,0-0.1,0c-0.1,0-0.1,0-0.1,0l-0.1,0l-0.1,0l-0.1,0l0-0.1l-0.1,0l-0.7,1.5l0.1,0
		L317.6,366.5z"/>
	<path class="st0" d="M321.3,360.7c0,0.1,0,0.1,0,0.2c0,0.1,0,0.1,0,0.1c0,0.1,0,0.1,0,0.1c0,0.1,0,0.1,0,0.1c0,0.1,0,0.1,0,0.1
		c0,0.1,0,0.1,0,0.1l0,0l1.8-4.1l2.4,3.3c0-0.1,0-0.1,0-0.1c0-0.1,0-0.3,0-0.4c0-0.1,0-0.2,0-0.3l-2.6-3.8l-2.1,4.7
		c0.3-0.1,0.4-0.2,0.4-0.2S321.3,360.6,321.3,360.7z"/>
	<path class="st0" d="M318.7,366.1C318.7,366.1,318.7,366.1,318.7,366.1c0.2,0,0.2,0,0.2,0c0.1,0,0.1,0,0.1,0c0.1,0,0.1,0,0.1,0
		c0.1,0,0.1,0,0.1,0c0.1,0,0.1,0,0.2,0c0,0,0,0,0.1,0l0.7-1.5c-0.1,0-0.1,0-0.1,0c-0.1,0-0.1,0-0.1,0c-0.1,0-0.1,0-0.1,0
		c-0.1,0-0.1,0-0.1,0c-0.1,0-0.1,0-0.1,0c-0.1,0-0.1,0-0.1,0c-0.1,0-0.1,0-0.1,0c-0.1,0-0.1,0-0.1,0L318.7,366.1
		C318.6,366.1,318.6,366.1,318.7,366.1C318.6,366.1,318.6,366.1,318.7,366.1z"/>
	<path class="st0" d="M321.5,361.6C321.5,361.7,321.5,361.7,321.5,361.6c0,0.2,0,0.2,0,0.2c0,0.1,0,0.1,0,0.1c0,0.1,0,0.1,0,0.2
		c0,0.1,0,0.1,0,0.2c0,0.1,0,0.1,0,0.2s0,0.1,0,0.2c0,0,0,0,0,0.1l1.8-3.9l1.9,2.8c0-0.1,0.1-0.2,0.1-0.3c0-0.1,0-0.3,0-0.4
		l-2.4-3.3L321.5,361.6C321.5,361.6,321.5,361.6,321.5,361.6C321.5,361.5,321.5,361.6,321.5,361.6z"/>
	<path class="st0" d="M319.7,365.7c0.1,0,0.1,0,0.2-0.1c0.1,0,0.1,0,0.2-0.1c0.1,0,0.1,0,0.2-0.1c0.1,0,0.1,0,0.2-0.1
		c0.1,0,0.1,0,0.2-0.1c0,0,0,0,0.1,0l0.6-1.4c0,0,0,0-0.1,0s-0.1,0-0.2,0.1c-0.1,0.1-0.1,0-0.2,0.1c-0.1,0-0.1,0-0.2,0
		c-0.1,0-0.1,0-0.2,0s-0.1,0-0.2,0c-0.1,0-0.1,0-0.1,0l0,0L319.7,365.7C319.6,365.8,319.7,365.7,319.7,365.7z"/>
	<path class="st0" d="M320.9,365.1c0.1,0,0.1-0.1,0.2-0.1s0.1-0.1,0.3-0.1c0.1,0,0.2-0.1,0.3-0.1l0,0l2.2-4.9l1.5,2.2
		c0-0.1,0.1-0.2,0.1-0.3c0-0.1,0-0.2,0.1-0.3l-1.9-2.8l-1.8,3.9c0,0.1,0,0.1,0,0.1c0,0.1,0,0.1,0,0.2s0,0.1,0,0.2c0,0.1,0,0.1,0,0.2
		c0,0.1,0,0.1,0.1,0.1c0,0.1,0,0.1,0.1,0.1l-0.1,0.1c-0.1,0-0.1,0-0.2,0.1c-0.1,0-0.1,0-0.2,0.1c-0.1,0-0.1,0-0.2,0.1
		c-0.1,0-0.1,0-0.2,0.1c-0.1,0-0.1,0-0.1,0l-0.6,1.4c0.1,0,0.1,0,0.2-0.1C320.8,365.2,320.9,365.1,320.9,365.1z"/>
	<path class="st0" d="M321.6,364.8c0.1,0,0.2-0.1,0.3-0.1c0.1,0,0.2-0.1,0.3-0.1c0.1,0,0.2-0.1,0.3-0.1s0.2-0.1,0.3-0.2l0,0l1.4-3.2
		l1.1,1.6c0.1-0.2,0.1-0.4,0.2-0.5l-1.5-2.2L321.6,364.8z"/>
	<path class="st0" d="M323.2,363.8C323.3,363.8,323.3,363.8,323.2,363.8c0.2,0,0.2,0,0.3,0c0.1,0,0.1,0,0.1,0l0.7-1.5l0.5,0.8
		c0.1-0.1,0.2-0.2,0.3-0.4l-1.1-1.6l-1.4,3.2c0.1,0,0.2-0.2,0.2-0.2C323,363.9,323.1,363.9,323.2,363.8z"/>
	<path class="st0" d="M323.6,363.8L323.6,363.8c0.1,0,0.2-0.1,0.3,0c0.1,0,0.2-0.1,0.3-0.1c0.1,0,0.2-0.1,0.3-0.2l0-0.1l0,0l0.1,0
		c0.1-0.1,0.2-0.2,0.2-0.3l-0.5-0.8L323.6,363.8z"/>
	<path class="st0" d="M324.5,363.3L324.5,363.3L324.5,363.3L324.5,363.3z"/>
</g>
<g>
	<path class="st0" d="M476.6,293.7c0.2-0.1,0.3-0.1,0.5,0l-2-0.2l0.2,0.7C475.8,294,476.3,293.8,476.6,293.7z"/>
	<path class="st0" d="M472.4,293.6c0,0-0.5-0.3-1.1-0.3c-0.1,0-0.3,0-0.5,0l0.3,2.1c0.5-0.2,1-0.4,1.4-0.5c0.1,0,0.2-0.1,0.4-0.1
		l-0.3-1.8C472.7,293.2,472.6,293.4,472.4,293.6z"/>
	<path class="st0" d="M472.7,316.6c0.1-0.2,0.1-0.4,0.1-0.6s0-0.5,0.1-0.6c0.1-0.2,0-0.5,0-0.7c0-0.3,0-0.5,0-0.7c0-0.3,0-0.5,0-0.8
		c0-0.3-0.1-0.6-0.2-0.7c-0.1-0.3-0.2-0.5-0.4-0.8s-0.4-0.6-0.6-0.8c-0.1-0.1-0.2-0.2-0.3-0.3l1,6.8
		C472.6,317,472.7,316.8,472.7,316.6z"/>
	<path class="st0" d="M470.2,294c0,0-0.2,0-0.4-0.1c-0.2,0-0.5,0-0.7-0.1l0.4,2.2c0.6-0.2,1.2-0.4,1.9-0.7l-0.3-2.1
		C470.6,293.4,470.4,293.6,470.2,294z"/>
	<path class="st0" d="M469.5,309.3l2.4,16.2c0.4-0.4,0.7-0.9,0.9-1.5c0.1-0.3,0.1-0.6,0.2-1c0-0.3,0.1-0.6,0-0.8c0-0.3,0-0.5,0-0.8
		c0-0.3,0-0.5-0.1-0.7c-0.1-0.2,0-0.5-0.1-0.6s-0.1-0.4-0.1-0.6c-0.1-0.2-0.1-0.4-0.1-0.6c-0.1-0.2-0.2-0.4-0.2-0.6
		c-0.1-0.2-0.1-0.2-0.1-0.2s0.1-0.1,0.1-0.4c0.1-0.1,0.1-0.4,0.2-0.6l0-0.1l-1-6.8c-0.2-0.2-0.5-0.4-0.7-0.5
		C470.4,309.7,470,309.5,469.5,309.3z"/>
	<path class="st0" d="M377.3,288.1c-0.4,0-0.8,0-1.2,0c-0.7,0-1.4,0-2.1,0.1c-0.7,0-1.4,0.1-2,0.1c-0.6,0-1.3,0-1.9,0.1
		c-0.3,0-0.8,0-1.1,0.1l6,1.6L377.3,288.1z"/>
	<path class="st0" d="M468.4,294.1c-0.5,0.1-0.9,0.5-0.6,1.1c0,0-0.1,0-0.3-0.1l0.2,1.8c0.1,0,0.2-0.1,0.2-0.1
		c0.5-0.2,1-0.4,1.5-0.6l0,0L469,294C468.8,294,468.6,294,468.4,294.1z"/>
	<path class="st0" d="M466.9,294.9c-0.4,0-0.8,0-1.2,0.2l0.3,2.3c0.2-0.1,0.3-0.2,0.5-0.2c0.4-0.2,0.8-0.3,1.2-0.4l-0.2-1.8
		C467.3,295,467.1,295,466.9,294.9z"/>
	<path class="st0" d="M467.6,309l2.6,17.3c0.4-0.1,0.8-0.2,1.1-0.4l0.4-0.4c0-0.1,0-0.1,0.1-0.1l-2.5-16.2
		C468.9,309.2,468.4,309.1,467.6,309z"/>
	<path class="st0" d="M366.6,288.6c-0.5,0-1.1,0.1-1.6,0.1c-0.5,0.1-1,0.1-1.5,0.2c-0.1,0-0.2,0.1-0.3,0l13.2,3.6l5.3-4.4
		c-0.3,0-0.5,0-0.9,0c-0.8,0-1.7,0-2.4-0.1c-0.3-0.1-0.7,0-1,0l-2.3,1.9l-6-1.6c-0.2,0-0.5,0-0.7,0
		C367.6,288.6,367.1,288.6,366.6,288.6z"/>
	<path class="st0" d="M389.5,282.2C389.4,282.2,389.4,282.2,389.5,282.2C389.4,282.2,389.5,282.3,389.5,282.2c0,0,0.1,0.1,0.2,0.2
		C389.6,282.2,389.6,282.2,389.5,282.2z"/>
	<path class="st0" d="M386.2,287.3c-0.6,0.1-1.1,0.3-1.5,0.4l1,0.4l1.3-1C386.7,287.1,386.5,287.2,386.2,287.3z"/>
	<path class="st0" d="M464.4,296.9l-0.3,0.1l0.1,1.1c0.2-0.1,0.5-0.2,0.8-0.2c0.3-0.1,0.6-0.2,0.9-0.4l-0.3-2.3c0,0.1-0.1,0-0.1,0.1
		C464.9,295.4,464.5,295.9,464.4,296.9z"/>
	<path class="st0" d="M468.5,326.4c0.3,0.1,0.6,0,0.9,0c0.3,0,0.6-0.1,0.9-0.1l-2.6-17.3c-0.5,0-1.1-0.1-1.8,0L468.5,326.4z"/>
	<path class="st0" d="M363.1,289c-0.3,0-0.8,0-1.1,0.1c-0.5,0-0.9,0.1-1.4,0.1c-0.5,0-0.9,0.1-1.3,0.2c-0.5,0-0.8,0.1-1.2,0.2
		l19.4,5.2l8.1-6.8c-0.8-0.1-1.5-0.1-2.4,0c-0.5,0-1.2,0-1.7,0l-5.3,4.4L363.1,289z"/>
	<path class="st0" d="M391.2,283.1c-0.4-0.1-0.6-0.2-0.9-0.4c-0.3-0.1-0.5-0.3-0.7-0.3c0.1,0.2,0.4,0.5,0.6,0.8
		c0.1,0.2,0.3,0.5,0.5,0.7l0.8-0.6C391.5,283.2,391.3,283.2,391.2,283.1z"/>
	<path class="st0" d="M462.5,297.9l0.2,1.8c0.3-0.1,0.5-0.2,0.5-0.4c0.1,0,0.1,0.1,0.2,0.2l0.2-1.2c0.2-0.1,0.4-0.1,0.6-0.2L464,297
		l-0.3,0.1L462.5,297.9z"/>
	<path class="st0" d="M357.1,289.8c-0.2,0.1-0.4,0.1-0.7,0.1c-0.2,0.1-0.4,0.1-0.7,0.1c-0.2,0.1-0.4,0.1-0.7,0.1
		c-0.1,0-0.2,0.1-0.3,0.1c0,0-0.1,0-0.4,0.1c-0.1,0.1-0.2,0.1-0.4,0.1l24.9,6.7l13-10.9c-0.2,0.1-0.5,0.1-0.8,0.1
		c-0.3,0-0.6,0.1-0.9,0.1c-0.3,0-0.6,0.1-1,0.1c-0.3,0.1-0.6,0.1-1,0.1c-0.3,0.1-0.6,0.1-0.9,0.2c-0.1,0-0.1,0-0.1,0l-1.3,1l0.3,0.1
		c-0.1,0-0.3,0-0.4,0l-8.1,6.8l-19.4-5.2c-0.1,0-0.2,0.1-0.3,0.1C357.6,289.8,357.3,289.8,357.1,289.8z"/>
	<path class="st0" d="M391.9,285.5c0.1,0.2,0.3,0.4,0.4,0.6l2-1.7c-0.2-0.1-0.4-0.2-0.7-0.2c-0.3-0.1-0.5-0.3-0.7-0.3
		c-0.3-0.1-0.5-0.3-0.8-0.3c-0.1-0.1-0.4-0.1-0.4-0.2l-0.8,0.6c0.1,0.2,0.2,0.3,0.3,0.5C391.4,284.7,391.7,285.1,391.9,285.5z"/>
	<path class="st0" d="M466.7,326.2c0.2,0,0.4,0.1,0.6,0.1c0.4,0.1,0.7,0.1,0.9,0.1c0.1,0,0.1,0,0.3,0l-2.6-17.4
		c-0.5,0-1.1,0.1-1.7,0.1L466.7,326.2z"/>
	<path class="st0" d="M462,298.2l-0.7-0.7l-0.5-0.5l-0.1,0l0.4,2.7c0.3,0.1,0.7,0.1,1,0.1c0.3,0,0.5,0,0.6,0l-0.2-1.8l-0.1,0.1
		L462,298.2z"/>
	<path class="st0" d="M352.8,290.8c-0.2,0.1-0.5,0.1-0.8,0.2c-0.2,0.1-0.5,0.1-0.8,0.2c-0.2,0.1-0.6,0.1-0.8,0.3l-0.1,0l29.5,8
		l16.9-14.2c-0.1-0.1-0.2-0.1-0.4-0.1c-0.2-0.1-0.4-0.2-0.7-0.3c-0.2-0.1-0.5-0.2-0.7-0.3c-0.3-0.1-0.5-0.2-0.7-0.3
		c-0.1,0-0.1,0-0.1-0.1l-2,1.7c0.1,0.2,0.2,0.4,0.2,0.4s-0.2,0.1-0.6,0l-0.1,0l-13,10.9l-24.9-6.7c-0.1,0-0.2,0.1-0.3,0.1
		C353.3,290.7,353.1,290.8,352.8,290.8z"/>
	<path class="st0" d="M464.1,309.2c0,0-0.1-0.1-0.4-0.4c-0.2-0.2-0.5-0.5-1-1c-0.1-0.1-0.3-0.3-0.5-0.4l2.8,18.2
		c0.2,0.1,0.4,0.1,0.6,0.2c0.3,0.1,0.6,0.1,0.8,0.2c0.1,0,0.2,0.1,0.3,0.1l-2.5-17C464.2,309.2,464.2,309.2,464.1,309.2z"/>
	<path class="st0" d="M460.4,306.2l3,19.7c0.4-0.3,0.6-0.5,0.6-0.5c0.1,0,0.1,0.1,0.2,0c0.2,0.1,0.5,0.2,0.7,0.2
		c0.1,0,0.1,0,0.1,0.1l-2.7-18.2c-0.2-0.2-0.4-0.4-0.7-0.5C461.3,306.8,460.9,306.5,460.4,306.2z"/>
	<path class="st0" d="M348.8,292c-0.3,0.1-0.6,0.2-0.9,0.3c-0.2,0.1-0.5,0.1-0.7,0.3l33.8,9.2l18.4-15.3c-0.1-0.1-0.2-0.1-0.4-0.1
		c-0.2-0.1-0.4-0.1-0.6-0.2c-0.2-0.1-0.4-0.2-0.6-0.2c-0.2-0.1-0.4-0.2-0.7-0.2c-0.1-0.1-0.2-0.1-0.4-0.1l-16.9,14.2l-29.5-8.1
		c-0.2,0.1-0.5,0.1-0.7,0.2C349.4,291.8,349.1,291.9,348.8,292z"/>
	<path class="st0" d="M460,297l-0.9,0l0.4,2.3c0.1,0,0.1,0.1,0.2,0.2l0.1,0c0.2,0,0.7,0.2,1.2,0.2c0.1,0,0.1,0,0.2,0l-0.4-2.7
		l-0.5,0L460,297z"/>
	<path class="st0" d="M464.2,337.8L464.2,337.8c0,0.1,0.1,0.2,0.1,0.2l9.7,5.6l0-0.1l0.1,0l1.8,0.2l1,0.1c-0.3,0-1.2-0.5-2.6-1.3
		c-1.8-1.1-4.3-2.4-6.5-3.8c-0.3-0.2-0.6-0.4-1-0.5c-0.3-0.2-0.6-0.4-0.8-0.5c-0.3-0.2-0.5-0.3-0.8-0.5c-0.3-0.2-0.5-0.3-0.8-0.5
		c-0.3-0.2-0.5-0.3-0.8-0.5c-0.1,0-0.1-0.1-0.2-0.2l0.1,1.1L464.2,337.8z"/>
	<path class="st0" d="M459,297l-1.1-0.1c-0.1,0-0.3,0-0.4-0.1l0.3,1.6c0.4,0.1,0.7,0.2,1,0.5c0.2,0.1,0.5,0.3,0.7,0.4L459,297
		L459,297z"/>
	<path class="st0" d="M458.7,305l3.3,21.8c0.6-0.4,1.2-0.7,1.4-0.9l-3-19.7c-0.1-0.1-0.1-0.1-0.2-0.1
		C459.8,305.7,459.3,305.4,458.7,305z"/>
	<path class="st0" d="M346.1,293c-0.3,0.2-0.6,0.2-0.9,0.4c-0.3,0.1-0.6,0.2-0.8,0.3l37.9,10.3l19.7-16.5l0,0
		c-0.2,0-0.4-0.1-0.6-0.2c-0.2,0-0.4-0.1-0.6-0.2c-0.2,0-0.4-0.1-0.6-0.2c-0.2,0-0.4-0.1-0.6-0.2c-0.1-0.1-0.1-0.1-0.3-0.1
		L381,301.8l-33.8-9.2c-0.1,0-0.1,0-0.2,0.1C346.7,292.7,346.4,292.8,346.1,293z"/>
	<path class="st0" d="M456,296.8l0.2,1.2c0.2,0,0.4,0.1,0.5,0.1c0.4,0.1,0.7,0.2,1,0.3l0.1,0l-0.3-1.6c-0.2,0-0.4,0-0.6-0.1
		C456.6,296.8,456.3,296.7,456,296.8z"/>
	<path class="st0" d="M466.9,340.3c0.4,0,0.7,0,0.7,0c0,0.2-0.1,0.3,0,0.5c0.1,0.5,0.7,0.8,1.3,1c0.6,0.2,1.3,0.2,1.3,0.2
		c0.2,1,1.2,1,1.8,1c0.3,0,0.5,0,0.5,0c0.2,0.4,0.7,0.9,1.1,1.2c0.2,0.2,0.4,0.4,0.4,0.4l-0.1-0.1l0.2-0.8l-9.7-5.6
		C464.5,339.7,466,340.1,466.9,340.3z"/>
	<path class="st0" d="M457.8,304.5c-0.2-0.2-0.5-0.2-0.7-0.4l3.5,23.4c0.5-0.2,1-0.5,1.4-0.7l-3.2-21.8l-0.1,0
		C458.4,304.8,458.1,304.7,457.8,304.5z"/>
	<path class="st0" d="M343.2,294c-0.4,0.2-0.7,0.3-1,0.4c-0.2,0.1-0.4,0.2-0.5,0.2l41.6,11.3l21.1-17.5c-0.1-0.1-0.4-0.1-0.5-0.2
		c-0.1-0.1-0.3-0.1-0.4-0.2c-0.1-0.1-0.4-0.1-0.5-0.2c-0.1-0.1-0.4-0.1-0.5-0.2c-0.1-0.1-0.4-0.1-0.5-0.2l-19.8,16.5l-37.9-10.3
		c0,0.1-0.1,0-0.1,0.1C343.8,293.7,343.5,293.8,343.2,294z"/>
	<path class="st0" d="M462.6,335.6c0.3-0.2,0.4-0.4,0.5-0.5c0.1-0.2,0-0.3-0.2-0.4s-0.5-0.3-0.9-0.3c-0.1,0-0.3,0-0.4-0.1l0.3,1.7
		l0-0.1l0.2,0.3l0.7,0.5l0.7,0.6l0,0l-0.1-1.1c-0.2-0.1-0.5-0.2-0.6-0.4C462.7,335.7,462.6,335.6,462.6,335.6z"/>
	<path class="st0" d="M460.9,334.2c-0.3-0.1-0.6-0.1-0.8-0.1l0.4,2.7l0.2,0.1l1.2-0.9l-0.3-1.7C461.4,334.2,461.1,334.2,460.9,334.2
		z"/>
	<path class="st0" d="M455.8,303.4c-0.1-0.1-0.2-0.2-0.3-0.2l3.8,24.9c0.2-0.1,0.4-0.2,0.5-0.2c0.3-0.1,0.6-0.2,0.9-0.4l-3.5-23.4
		c-0.1-0.1-0.2-0.2-0.3-0.2C456.5,303.8,456.1,303.6,455.8,303.4z"/>
	<path class="st0" d="M341.7,294.6c-0.2,0.1-0.4,0.2-0.5,0.3c-0.4,0.2-0.6,0.3-1,0.5c-0.2,0.1-0.5,0.3-0.6,0.4l44.8,12.2l23.7-19.8
		c-0.1,0-0.1,0-0.2,0c-0.2,0-0.5,0-0.6,0c-0.2,0-0.5,0-0.6,0.1c-0.2,0.1-0.4,0.1-0.6,0.1s-0.4,0.2-0.4,0.3c0,0.1,0,0.1,0,0.2
		c0,0-0.2-0.1-0.6-0.2c-0.2,0-0.4-0.2-0.7-0.2L383.2,306L341.7,294.6z"/>
	<path class="st0" d="M454.8,296.7c-0.1,0-0.2,0-0.3-0.1l0.1,1.1c0.3,0.1,0.6,0.1,1,0.1c0.2,0,0.3,0.1,0.5,0.1l-0.2-1.2
		c-0.1,0-0.1,0-0.1,0C455.5,296.7,455.2,296.8,454.8,296.7z"/>
	<path class="st0" d="M459.6,334.1c-0.3,0.1-0.6,0.3-0.8,0.4l0.3,2l0.9,0.2l0.1,0l0.5,0.1l-0.4-2.7c-0.1,0-0.3,0-0.3-0.1
		C459.6,334.1,459.6,334.1,459.6,334.1z"/>
	<path class="st0" d="M338.2,296.7c-0.1,0.1-0.2,0.2-0.3,0.3l47.4,12.9l26-21.6c-0.1,0-0.3-0.1-0.5,0c-0.3,0-0.5,0-0.8-0.1
		c-0.3,0-0.5,0-0.7,0c-0.3,0-0.5,0-0.7,0c-0.2,0-0.3-0.1-0.5,0L384.5,308l-44.8-12.2c-0.1,0.1-0.2,0.1-0.3,0.2
		C338.8,296.1,338.5,296.4,338.2,296.7z"/>
	<path class="st0" d="M453.1,296.7l0.1,1.1c0.1,0,0.3,0,0.4,0c0.3,0.1,0.7,0,1,0l0,0l-0.1-1.1c-0.2,0-0.4,0-0.7,0
		C453.6,296.7,453.3,296.7,453.1,296.7z"/>
	<path class="st0" d="M453.9,302.5l3.9,26.1c0.5-0.1,0.9-0.4,1.4-0.5l-3.8-24.9c-0.2-0.2-0.4-0.2-0.7-0.3
		C454.6,302.8,454.2,302.6,453.9,302.5z"/>
	<path class="st0" d="M337.8,298.1L337.8,298.1l0.3,0.3c0,0-0.1,0-0.1,0.1l48.4,13.2l25.4-21.2c-0.1,0-0.2,0-0.3,0l-0.2-0.3
		c0.2-0.1,0.5,0,0.6-0.1c0.1,0,0.2-0.1,0.3,0l1.9-1.6c-0.3,0-0.6-0.1-0.9-0.1c-0.3,0-0.6-0.1-0.9-0.1c-0.3,0-0.6-0.1-0.8-0.1
		c-0.1,0-0.2,0-0.3-0.1l-26,21.6l-47.4-12.9C337.7,297.4,337.6,297.8,337.8,298.1z"/>
	<path class="st0" d="M453,302.1c-0.1-0.1-0.4-0.1-0.5-0.2l4,27.2c0.3-0.2,0.7-0.2,1.1-0.3c0.1,0,0.2-0.1,0.2-0.1l-3.9-26.1l-0.1,0
		C453.5,302.4,453.3,302.2,453,302.1z"/>
	<path class="st0" d="M452,296.7c-0.1,0-0.2,0-0.3,0l0.2,1.2c0.3,0,0.5-0.1,0.9-0.1c0.1,0,0.3,0,0.5,0l-0.1-1.1c-0.1,0-0.1,0-0.1,0
		C452.6,296.7,452.3,296.7,452,296.7z"/>
	<path class="st0" d="M457.6,334.7c-0.1,0-0.1,0-0.3,0l0.2,1.5c0.1,0,0.2,0,0.3,0c0.5,0,0.8,0.1,0.8,0.1l0.3,0.1l0.1,0l-0.3-2
		C458.4,334.6,458,334.6,457.6,334.7z"/>
	<path class="st0" d="M450.3,296.8l0.2,1.3c0.1,0,0.1,0,0.2-0.1c0.3-0.1,0.6-0.1,0.9-0.2l0.1,0l-0.2-1.2c-0.2,0-0.4,0-0.6,0
		C450.9,296.8,450.7,296.8,450.3,296.8z"/>
	<path class="st0" d="M451.2,301.4c-0.1,0-0.1-0.1-0.1-0.1l4.2,28.2c0.2-0.1,0.4-0.1,0.7-0.2c0.3,0,0.4-0.1,0.7-0.2l-4-27.2
		c-0.1-0.1-0.3-0.1-0.4-0.1C451.8,301.6,451.5,301.5,451.2,301.4z"/>
	<path class="st0" d="M413.5,290c0.3,0,0.5,0,0.8,0c0.3,0.1,0.6,0,0.9,0c0.1,0,0.2,0,0.3,0.1l1.6-1.4c-0.2,0-0.5,0-0.6,0
		c0,0-0.1,0-0.3,0s-0.6-0.1-1-0.2c-0.3,0-0.6-0.1-0.9-0.1c0,0,0,0-0.1,0l-1.9,1.6c0.1,0,0.3,0,0.3,0C412.9,290,413.2,290,413.5,290z
		"/>
	<path class="st0" d="M337,299.9l50.3,13.7l26.9-22.5c-0.1,0-0.1,0-0.1,0c-0.3-0.1-0.6-0.1-0.9-0.2c-0.3-0.1-0.6-0.1-0.9-0.2
		c-0.2-0.1-0.4-0.1-0.6-0.1l-25.4,21.2l-48.4-13.2c-0.2,0.2-0.5,0.4-0.7,0.9C337.1,299.5,337,299.7,337,299.9z"/>
	<path class="st0" d="M456,334.8l0.2,1.2c0.2,0,0.4,0.1,0.6,0.1c0.3,0.1,0.6,0.1,0.8,0.1l-0.2-1.5c-0.3,0-0.8,0-1.1,0.1
		C456.2,334.9,456.1,334.8,456,334.8z"/>
	<path class="st0" d="M454.7,334.7l0.1,1.1c0.3,0.1,0.6,0.1,0.9,0.2c0.1,0,0.3,0,0.4,0.1l-0.2-1.2c-0.3,0-0.5,0-0.8-0.1
		C455.1,334.7,454.9,334.8,454.7,334.7z"/>
	<path class="st0" d="M336.8,301.2c0,0.1,0,0.1,0.1,0.2l51.4,14l28.4-23.7c-0.2,0-0.4-0.1-0.6-0.1c-0.4-0.1-0.7-0.2-1-0.2
		s-0.6-0.1-0.8-0.2l-26.9,22.5L337,299.9C336.9,300.3,336.8,300.7,336.8,301.2z"/>
	<path class="st0" d="M416.3,290.1c0.2-0.1,0.4-0.2,0.6-0.1c0.2-0.1,0.6-0.1,0.9-0.1c0.3,0,0.6,0,0.9,0c0,0,0,0,0.1,0l1.3-1.2
		l-0.1,0c-0.3-0.1-0.7-0.1-1.1-0.1c-0.3-0.1-0.7,0-1,0c-0.3,0-0.6,0-0.9,0.1l0,0l-1.6,1.4c0.3,0,0.5,0,0.6,0.1
		C416.2,290,416.3,290.1,416.3,290.1z"/>
	<path class="st0" d="M449.3,296.9c-0.1,0-0.1,0-0.2,0.1l0.5,3.4l0.2-0.9l0.2-1.1c0.1,0,0.3-0.2,0.7-0.2l-0.2-1.3
		c-0.1,0-0.1,0-0.2,0C449.9,296.9,449.6,296.9,449.3,296.9z"/>
	<path class="st0" d="M450.4,301c-0.2-0.1-0.5-0.2-0.7-0.2l4.4,29c0.1,0,0.3-0.1,0.4-0.1c0.2-0.1,0.6-0.1,0.8-0.2l-4.2-28.2
		C450.8,301.2,450.6,301.2,450.4,301z"/>
	<path class="st0" d="M420.8,289.9c0.2,0,0.4,0.1,0.6,0.1l1.2-1c-0.1,0-0.2,0-0.3-0.1c-0.4,0-0.8-0.2-1.2-0.2
		c-0.3-0.1-0.7-0.1-1.1-0.1l-1.3,1.2c0.3,0.1,0.7,0,1,0C420.1,289.9,420.4,289.9,420.8,289.9z"/>
	<path class="st0" d="M453.5,334.5L453.5,334.5l0.1,1.1c0.1,0,0.2,0.1,0.4,0.1c0.3,0.1,0.6,0.1,0.9,0.2l0,0l-0.1-1.1
		c-0.1,0-0.3,0-0.4-0.1C454.1,334.6,453.7,334.5,453.5,334.5z"/>
	<path class="st0" d="M449.6,300.4l-0.5-3.4c-0.2,0.1-0.4,0.1-0.6,0.1c-0.2,0.1-0.4,0.1-0.6,0.2l4.8,32.8c0.1,0,0.2-0.1,0.4-0.1
		c0.3-0.1,0.6-0.1,0.9-0.2l-4.4-29c-0.1,0-0.1-0.1-0.1-0.1L449.6,300.4z"/>
	<path class="st0" d="M389.2,317l29.9-24.9c-0.3-0.1-0.6-0.1-0.8-0.2c-0.4-0.1-0.7-0.2-1-0.2c-0.1,0-0.3-0.1-0.4-0.1l-28.4,23.7
		l-51.4-14c0,0.5,0.2,1,0.6,1.6L389.2,317z"/>
	<path class="st0" d="M424,290.3l0.9-0.7c-0.3-0.1-0.6-0.1-1-0.2c-0.4-0.1-0.8-0.2-1.3-0.3l-1.2,1c0.2,0,0.3,0.1,0.5,0
		C422.7,290.1,423.5,290.2,424,290.3z"/>
	<path class="st0" d="M337.2,304c0,0.1-0.1,0.1-0.1,0.1c0,0.1,0,0.1,0,0.1l53,14.4l31.2-26c-0.3-0.1-0.6-0.1-0.9-0.2
		c-0.4-0.1-0.7-0.2-1.2-0.2c-0.1,0-0.2,0-0.2-0.1l-29.9,24.9l-51.7-14.1c0.1,0.1,0.1,0.3,0.2,0.4C337.5,303.5,337.3,303.8,337.2,304
		z"/>
	<path class="st0" d="M452.1,334l0.2,1.2c0.2,0.1,0.6,0.1,0.8,0.2c0.2,0,0.3,0.1,0.5,0.1l-0.1-1.1c-0.2-0.1-0.5-0.2-0.7-0.2
		C452.5,334.2,452.4,334.1,452.1,334z"/>
	<path class="st0" d="M446.8,297.8L446.8,297.8l4.9,32.4c0.1,0,0.2-0.1,0.4-0.1c0.3-0.1,0.6-0.1,0.9-0.2l-4.9-32.8
		c-0.1,0-0.2,0.1-0.2,0.1C447.3,297.5,447,297.7,446.8,297.8z"/>
	<path class="st0" d="M451.4,333.8c-0.2,0-0.4-0.1-0.5-0.2l0.3,1.4c0.2,0,0.3,0.1,0.5,0.2c0.2,0.1,0.6,0.1,0.8,0.2l0,0l-0.2-1.2
		c-0.1,0-0.1,0-0.1-0.1C451.8,333.9,451.6,333.9,451.4,333.8z"/>
	<path class="st0" d="M450.4,330.7l0.4-0.3c0.2-0.1,0.4-0.1,0.8-0.1l-4.8-32.4l-0.9,1.5L450.4,330.7z"/>
	<path class="st0" d="M424.2,290.3c0.6,0.1,1.1,0.2,1.2,0.2c0.1,0,0.1,0,0.1,0c-0.1,0.1-0.1,0.6-0.1,0.9l1.8-1.5
		c-0.3-0.1-0.6-0.1-0.9,0c0,0-0.1,0-0.1-0.1c-0.2,0-0.5-0.2-1-0.3c-0.1,0-0.1,0-0.2,0L424.2,290.3
		C424.1,290.4,424.1,290.3,424.2,290.3z"/>
	<path class="st0" d="M336.8,305.6l54,14.7l32.6-27.2c-0.6-0.1-1.3-0.3-1.9-0.4c-0.1,0-0.2,0-0.2-0.1l-31.2,26l-53-14.4
		C336.9,304.8,336.8,305.1,336.8,305.6z"/>
	<path class="st0" d="M425.6,292.6l-0.9,0.7c-0.3-0.1-0.7-0.2-1-0.2c-0.1,0-0.1,0-0.2,0l-32.6,27.2l-54-14.7c0,0.1,0.1,0.2,0,0.3
		c0,0.5,0.2,0.8,0.3,1.2l54.5,14.8l37-30.9c-0.1-0.2-0.4-0.4-0.5-0.5c-0.2-0.2-0.5-0.3-0.8-0.4c-0.1,0-0.1,0-0.2,0l-1.8,1.5
		c0,0.1,0,0.1,0.1,0.2C425.5,291.9,425.5,292.3,425.6,292.6z"/>
	<path class="st0" d="M445,299.3c-0.2,0-0.3-0.1-0.5-0.2l5.3,35.4c0.1,0,0.2,0,0.2,0.1c0.2,0.1,0.5,0.2,0.7,0.2
		c0.1,0.1,0.2,0,0.3,0.1l-0.3-1.4c-0.1,0-0.1,0-0.1-0.1c-0.2-0.1-0.4-0.2-0.6-0.2c-0.4-0.1-0.5-0.2-0.5-0.3l0,0l0-0.6l0-0.6l0-0.6
		l0.8-0.6l-4.6-31.3l0,0.1C445.5,299.5,445.3,299.4,445,299.3z"/>
	<path class="st0" d="M443.7,299c-0.1,0-0.2,0-0.3-0.1l5.3,35.2c0.1,0,0.1,0.1,0.2,0.2c0.2,0.2,0.4,0.1,0.6,0.2
		c0.1,0.1,0.3,0.1,0.4,0.1l-5.3-35.4c-0.1,0-0.1,0-0.2-0.1C444.2,299.1,444,299,443.7,299z"/>
	<path class="st0" d="M338,308.2c-0.1,0.1-0.2,0.2-0.2,0.2l54.7,14.8l37.1-31l0,0c-0.1-0.3-0.3-0.5-0.4-0.7
		c-0.1-0.2-0.3-0.5-0.4-0.6l-0.1,0l-37,30.9L337.2,307c0,0.1,0.1,0.2,0.1,0.3C337.6,307.8,338,308.2,338,308.2z"/>
	<path class="st0" d="M338.1,309.8l55.2,15l37-30.9c0-0.1-0.1-0.2-0.1-0.2c-0.1-0.2-0.2-0.5-0.3-0.7c-0.1-0.2-0.2-0.4-0.3-0.6
		l-37.1,31l-54.8-14.9c0,0.1,0,0.1-0.1,0.1C337.6,308.9,337.7,309.4,338.1,309.8z"/>
	<path class="st0" d="M443.1,298.8c-0.1,0-0.2,0-0.2-0.1c0,0,0.1,0.4,0.1,0.9c0.1,1.1,0.2,2.8,0,3.3l4.5,30.5
		c0.1,0.1,0.2,0.2,0.3,0.2c0.1,0.1,0.3,0.2,0.5,0.3c0.1,0.1,0.2,0.2,0.4,0.1l-5.3-35.2C443.3,298.9,443.2,298.9,443.1,298.8z"/>
	<path class="st0" d="M339.3,311c0.2,0.2,0.3,0.3,0.5,0.4l54.3,14.7l37.6-31.3c-0.2,0-0.4,0-0.5,0c-0.1,0-0.3-0.1-0.5,0
		c0,0-0.1-0.2-0.2-0.4c-0.1-0.2-0.1-0.3-0.2-0.5l-37,30.9l-55.2-15c0.1,0,0.1,0.1,0.1,0.1C338.3,310.3,338.8,310.7,339.3,311z"/>
	<path class="st0" d="M442.9,303.1c0,0-0.3,0.2-0.5,0.5c-0.1,0.1-0.2,0.1-0.3,0.1l4.3,28.7l0,0c0.1,0.1,0.2,0.2,0.3,0.3
		c0.1,0.1,0.2,0.2,0.3,0.3c0.1,0.1,0.2,0.3,0.4,0.3c0.1,0,0.1,0.1,0.1,0.1l-4.5-30.6C442.9,303,442.9,303.1,442.9,303.1z"/>
	<path class="st0" d="M441.1,303.4c-0.2-0.3-0.2-0.8-0.2-1.5c0,0,0.3-1.1,0.2-2.2c0-0.5-0.1-1-0.3-1.4c-0.1-0.3-0.3-0.5-0.4-0.6
		c-0.1,0-0.1-0.1-0.1-0.1l5,33.4c0.1,0,0.3,0,0.5,0l0.3,0.3c0,0.2,0,0.4,0,0.5c0.1,0.2,0.1,0.3,0.2,0.4c0.1,0.1,0.1,0.3,0.2,0.4
		l-4.2-28.8c-0.1,0.1-0.2,0.1-0.4,0.1C441.3,303.8,441.3,303.7,441.1,303.4z"/>
	<path class="st0" d="M339.7,311.5c0.2,0.2,0.5,0.4,0.7,0.5c0.4,0.3,0.9,0.6,1.4,1c0.2,0.2,0.4,0.3,0.6,0.4l52.3,14.2l38.7-32.3
		c-0.2-0.1-0.5-0.2-0.7-0.2c-0.3-0.1-0.6-0.1-0.8-0.2c-0.1,0-0.3,0-0.4,0L394,326.3L339.7,311.5z"/>
	<path class="st0" d="M344.8,314.8c0.4,0.2,0.8,0.5,1.2,0.7l49.5,13.4l39.7-33.1c-0.1-0.1-0.2,0-0.3-0.1c-0.2-0.1-0.5-0.2-0.7-0.2
		c-0.2-0.1-0.5-0.2-0.7-0.2c0,0,0,0-0.1,0l-38.7,32.3l-52.3-14.2c0.3,0.2,0.5,0.3,0.9,0.5C343.8,314.2,344.3,314.5,344.8,314.8z"/>
	<path class="st0" d="M439.2,297.3c-0.1,0-0.1-0.1-0.2,0c0,0,0,0-0.1,0l5.1,33.8l0.1,0c0.2,0,0.5,0,0.7,0c0.1,0,0.1,0,0.2,0l-5-33.5
		c-0.1-0.1-0.2-0.2-0.4-0.2C439.7,297.4,439.4,297.3,439.2,297.3z"/>
	<path class="st0" d="M347.6,316.4c0.5,0.2,1,0.5,1.4,0.8c0.4,0.2,0.7,0.3,1,0.5l46,12.5l40.7-33.9l-0.1,0c-0.2,0-0.4-0.1-0.6-0.2
		c-0.2-0.1-0.4-0.1-0.6-0.2c-0.1-0.1-0.2-0.1-0.4-0.1L395.3,329l-49.5-13.4c0.1,0,0.1,0.1,0.2,0.2
		C346.7,315.9,347.1,316.1,347.6,316.4z"/>
	<path class="st0" d="M438.3,296.9c-0.1-0.1-0.2-0.1-0.3-0.1l4.4,29.6c0.1,0.1,0.2,0.2,0.3,0.3c0.1,0,0,0.1,0,0.1
		c0.1,0,0.1,0.1,0.1,0.3c0,0.1,0.1,0.2,0,0.3c0,0.1,0.1,0.2,0,0.3c0,0.1,0.1,0.2,0,0.3c0,0.1,0.1,0.2,0,0.3c0,0.1,0,0.2,0,0.3
		c0,0.1,0,0.1,0,0.3c0,0.1,0,0.3,0,0.4c0,0.1,0,0.3,0,0.4c0,0.1,0,0.1,0,0.2l0.2,1.4c0.1,0,0.3,0,0.3,0c0.2,0,0.4,0,0.5,0l-5.1-33.8
		C438.9,297.1,438.7,297.1,438.3,296.9z"/>
	<path class="st0" d="M442.9,330.3c0,0.2-0.1,0.3,0,0.5c-0.1,0.2-0.1,0.4-0.1,0.4c0.1,0,0.1,0,0.1,0c0.1,0,0.1,0,0.3,0l-0.2-1.4
		c0,0.1,0,0.2,0,0.3C442.9,330.1,442.9,330.2,442.9,330.3z"/>
	<path class="st0" d="M437.2,296.6c-0.2,0-0.4-0.1-0.5-0.2l-40.6,33.9l-46-12.5c0.1,0.1,0.2,0.2,0.4,0.2c0.5,0.2,1,0.5,1.3,0.7
		c0.5,0.3,1,0.5,1.3,0.7c0.7,0.3,1.2,0.6,1.3,0.6c0.1,0,0.1,0.1,0.1,0.1c0.1,0.1,0.1,0.1,0.3,0.1l41.9,11.4l40.4-33.8l4.2,28
		c0.2,0,0.4,0.1,0.6,0.2c0.1,0.1,0.2,0.3,0.4,0.4c0,0,0,0,0.1,0l-4.4-29.6c-0.1,0-0.1-0.1-0.2-0.1
		C437.7,296.7,437.5,296.6,437.2,296.6z"/>
	<path class="st0" d="M357.4,321.1c0.5,0.2,0.9,0.4,1.5,0.6c0.5,0.2,0.9,0.4,1.4,0.5c0.5,0.2,0.9,0.4,1.4,0.5
		c0.5,0.2,0.9,0.3,1.4,0.5c0.5,0.2,0.9,0.3,1.4,0.4s0.9,0.3,1.4,0.4c0.5,0.2,0.8,0.3,1.4,0.4l8.8,2.4c0.1,0,0.1,0,0.2,0
		c0.4,0.1,0.8,0.3,1.2,0.3c0.4,0.1,0.8,0.2,1.2,0.3c0.4,0.1,0.8,0.2,1.2,0.2c0.4,0.1,0.8,0.2,1.2,0.2c0.4,0.1,0.7,0.1,1.2,0.2
		c0.4,0.1,0.7,0.1,1.1,0.2c0.4,0.1,0.7,0.1,1.1,0.2l-0.1,0c0,0.1,0.1,0.3,0.3,0.4c0.1,0,0.1,0.1,0.1,0.1l13,3.5l39.1-32.5l4.1,27.5
		c0-0.1,0-0.1,0-0.2c0-0.1,0-0.3,0-0.3c0-0.1,0-0.3,0.1-0.3c0-0.1,0.1-0.2,0.1-0.3c0-0.2,0.1-0.3,0.1-0.4c0.1-0.1,0.3-0.2,0.4-0.2
		l-4.2-28L397,331.8l-41.8-11.4c0.4,0.1,0.7,0.3,1,0.4C356.4,320.7,356.9,321,357.4,321.1z"/>
	<path class="st0" d="M441,328.7c0-0.1-0.1-0.2,0-0.3c0-0.1-0.1-0.2,0-0.3c0-0.1-0.1-0.2,0-0.3c0-0.1-0.1-0.2,0-0.3l0.2,1.3
		C441,328.9,441,328.8,441,328.7z"/>
	<path class="st0" d="M397.5,332.7l-13-3.5c0.1,0.1,0.2,0.1,0.4,0.2c0.1,0.1,0.4,0.2,0.5,0.3c0.1,0.1,0.4,0.1,0.6,0.2
		c0.2,0.1,0.4,0.2,0.6,0.2c0.2,0.1,0.4,0.2,0.6,0.2c0.2,0.1,0.4,0.2,0.6,0.2c0.2,0.1,0.4,0.1,0.6,0.2c0.2,0.1,0.4,0.1,0.6,0.2
		c0.2,0.1,0.4,0.1,0.6,0.2s0.4,0.1,0.6,0.2s0.4,0.1,0.6,0.2c0.2,0.1,0.4,0.1,0.6,0.2c0.2,0.1,0.5,0.2,0.6,0.2c0.2,0,0.2,0.1,0.2,0.1
		l0,0.1l5.8,1.6l38-31.9l4.4,29.1c0-0.1,0-0.1,0.1-0.1c0.1-0.1,0.2-0.4,0.3-0.5s0.1-0.3,0.1-0.4c0-0.1,0-0.3,0-0.4
		c0-0.1,0-0.3,0-0.4c0-0.2,0-0.3,0-0.5l0,0l-0.2-1.3l0,0c0-0.1,0-0.1,0-0.1l0-0.1l-4.1-27.5L397.5,332.7z"/>
	<path class="st0" d="M368.5,324.9c0.5,0.2,0.8,0.3,1.4,0.4c0.4,0.1,0.8,0.3,1.3,0.4c0.4,0.1,0.8,0.3,1.3,0.3
		c0.4,0.1,0.8,0.3,1.3,0.3c0.4,0.1,0.8,0.3,1.3,0.3c0.4,0.1,0.7,0.2,1.1,0.3l-8.8-2.4l0.1,0C367.5,324.6,368,324.8,368.5,324.9z"/>
	<path class="st0" d="M391.9,332.8c0,0.1-0.1,0.1-0.3,0.2l4.5,1.2c0.9-0.1,1.8-0.3,2.7-0.5c0.6-0.1,1.1-0.2,1.5-0.2l35.2-29.4
		l4.1,27.5l0.1,0c0.2-0.1,0.5-0.2,0.7-0.5l-4.3-29L398.1,334l-5.8-1.6c0,0.1,0,0.1-0.1,0.1S392,332.8,391.9,332.8z"/>
	<path class="st0" d="M391.3,333.6c-0.1,0.1-0.2,0.2-0.3,0.3l0,0l2.9,0.8c0.6-0.1,1.3-0.2,1.9-0.3c0.1,0,0.1,0,0.2-0.1l-4.5-1.2
		c0,0.1,0,0.1,0,0.1C391.5,333.4,391.4,333.5,391.3,333.6z"/>
	<path class="st0" d="M400.4,333.6c0.4-0.1,0.7-0.2,1.1-0.1c0.4-0.1,0.9-0.1,1.3-0.2l32.3-26.9l3.8,25.5c0.1,0,0.1,0,0.1,0
		c0.1,0,0.1,0,0.1,0c0.2,0,0.3,0,0.5,0l-4.1-27.5L400.4,333.6z"/>
	<path class="st0" d="M390.6,334.6c0,0.1,0,0.1-0.1,0.1l1.6,0.4c0.1,0,0.3-0.1,0.4-0.1c0.4-0.1,1-0.2,1.6-0.3l-2.9-0.8
		c-0.1,0.1-0.2,0.2-0.3,0.3C390.8,334.4,390.7,334.5,390.6,334.6z"/>
	<path class="st0" d="M405.1,332.9l29.4-24.5L438,332c0.1,0,0.3-0.1,0.5,0c0.1,0,0.3-0.1,0.4-0.1l-3.8-25.5l-32.3,26.9
		c0.4-0.1,0.9-0.2,1.2-0.2C404.5,333,404.9,332.9,405.1,332.9z"/>
	<path class="st0" d="M390.3,334.9c-0.2,0.2-0.3,0.3-0.4,0.4c0,0.1,0,0.1-0.1,0.1l0.4,0.1c0.1,0,0.1,0,0.1,0c0.1,0,0.2-0.1,0.4-0.1
		c0.1,0,0.2-0.1,0.4-0.1c0.3-0.1,0.6-0.1,0.9-0.2l-1.6-0.4C390.4,334.8,390.4,334.8,390.3,334.9z"/>
	<path class="st0" d="M405.5,332.8c0,0.1,0.1,0.2,0.1,0.2c0,0.1,0.1,0.1,0.1,0.1c0.1,0,0.1,0.1,0.2,0.2c0.1,0,0.1,0.1,0.2,0.2
		c0,0,0.1,0,0.1,0.1l27.9-23.3l3.3,21.9c0.2,0,0.4-0.1,0.6-0.1c0.1,0,0.1,0,0.2-0.1l-3.5-23.7l-29.5,24.6
		C405.3,332.8,405.5,332.8,405.5,332.8C405.4,332.8,405.5,332.8,405.5,332.8z"/>
	<path class="st0" d="M389.3,335.8L389.3,335.8L389.3,335.8c0.1,0,0.2-0.1,0.3-0.1C389.4,335.7,389.3,335.8,389.3,335.8z"/>
	<path class="st0" d="M406.6,333.7c0.1,0,0.2,0,0.3,0.1c0.1,0.1,0.2,0,0.3,0.1c0.1,0.1,0.2,0,0.3,0.1l0,0l26.2-21.8l3,20.1l0.1,0
		c0.2,0,0.4-0.1,0.6-0.1l0.1,0l-3.3-21.9l-27.9,23.3c0.1,0,0.1,0.1,0.1,0.1C406.6,333.7,406.5,333.6,406.6,333.7z"/>
	<path class="st0" d="M389.6,335.7L389.6,335.7L389.6,335.7c0.1,0,0.2-0.1,0.4-0.1c0.1,0,0.1,0,0.2-0.1l-0.4-0.1c0,0.1,0,0.1,0,0.1
		C389.7,335.6,389.6,335.7,389.6,335.7z"/>
	<path class="st0" d="M407.4,333.9c0.1,0,0.2,0,0.2,0.1c0.1,0.1,0.2,0,0.3,0.1c0.1,0.1,0.2,0,0.3,0.1c0.2,0,0.2,0,0.3,0.1
		c0.1,0,0.2,0,0.2,0.1l2.1-1.8l-0.1,0c0,0-0.1,0,0-0.1l0.1,0l0.1,0l22.2-18.6l2.8,18.4c0.1,0,0.2,0,0.3,0c0.1,0,0.3-0.1,0.5,0
		l-3.1-20.2L407.4,333.9z"/>
	<path class="st0" d="M411.2,332.4c0.1,0,0.1,0,0.2,0c0.1,0,0.1,0,0.2,0c0.1,0,0.1,0,0.2,0c0.1,0,0.1,0,0.2,0c0.1,0,0.1,0,0.2,0
		c0.1,0,0.1,0,0.2,0l20.2-16.9l2.5,16.8c0.1,0,0.3,0,0.5,0c0.1,0,0.1,0,0.2-0.1l-2.8-18.4l-22.2,18.6c0.1,0,0.1,0,0.1,0
		C411.1,332.5,411.2,332.5,411.2,332.4z"/>
	<path class="st0" d="M409,334.3c0.1,0,0.2,0,0.3,0c0.1,0,0.2,0,0.3,0c0.1,0,0.1,0,0.2,0c0.1,0,0.1,0,0.1,0c0.1,0,0.1,0,0.1,0l0.1,0
		l1.8-1.6l-1.1-0.4l-2.1,1.8c0,0,0,0,0.1,0C408.8,334.3,409,334.3,409,334.3z"/>
	<path class="st0" d="M410.2,334.5C410.3,334.5,410.3,334.5,410.2,334.5c0.2,0,0.2,0,0.2,0c0.1,0,0.1,0,0.1,0c0.1,0,0.1,0,0.1,0
		c0.1,0,0.1,0,0.1,0c0.1,0,0.1,0,0.1,0c0.1,0,0.1,0,0.1,0c0.1,0,0.1,0,0.1,0l0.1,0l0.1,0l0.1,0l0.1,0l1.7-1.4
		c-0.1,0-0.2-0.1-0.4-0.1c-0.2,0-0.4-0.1-0.5-0.2l-0.4-0.1l-1.8,1.6L410.2,334.5L410.2,334.5z"/>
	<path class="st0" d="M412.5,332.4C412.5,332.4,412.6,332.5,412.5,332.4l0.2,0.1l0-0.1l0.1,0l0.1,0l0.1,0l0.1,0l0.1,0l0.1,0l0.1,0
		l0.1,0l0.1,0l0.1,0l0.1,0l0.1,0l0.1,0l0.1,0l0.1,0l0.1,0l0.1,0l0.1,0c0,0,0,0,0.1,0c0,0,0,0,0.1,0c0,0,0,0,0.1,0l18-15l2.3,15.1
		c0.1,0,0.1,0,0.1,0c0.1,0,0.3-0.1,0.5,0l0.1,0l-2.6-16.8L412.5,332.4z"/>
	<path class="st0" d="M411.5,334.7L411.5,334.7l0.2,0l0.1,0l0.1,0l0.1,0l0.1,0l0.1,0l0.1,0l0.1,0l0.1,0l0.1,0l0.1,0l0.1,0l0.1,0
		l0.1,0l0.1,0c0,0,0,0,0.1,0c0,0,0,0,0.1,0c0,0,0,0,0.1,0c0.1,0,0.1,0,0.1,0l1.6-1.3l0,0c0,0,0,0-0.1,0c0,0,0,0-0.1,0c0,0,0,0-0.1,0
		c0,0,0,0-0.1,0c0,0,0,0-0.1,0c0,0,0,0-0.1,0c0,0,0,0-0.1,0l-0.1,0l-0.1,0l-0.1,0l-0.1,0l-0.1,0l-0.1,0l-0.1,0l-0.1,0l-0.1,0l-0.1,0
		l-0.1,0l-0.1,0l-0.1,0l-0.1,0c0,0,0,0-0.1,0l-0.1,0l-1.7,1.4l0,0C411.5,334.7,411.5,334.7,411.5,334.7z"/>
	<path class="st0" d="M414.1,332.5C414.2,332.5,414.2,332.5,414.1,332.5C414.2,332.5,414.2,332.5,414.1,332.5c0.1,0,0.1,0,0.2,0
		c0,0,0,0,0.1,0l0.1,0l0.1,0l0.1,0l0.1,0l0.1,0l0.1,0l0.1,0l0.1,0l0.1,0l0.1,0l0.1,0l0.1,0l0.1,0l0.1,0l0.1,0l0.1,0l0.1,0l0.1,0
		l0.1,0l16.2-13.5l2,13.5c0.1,0,0.2-0.1,0.3,0c0.1,0,0.2,0,0.3,0l-2.4-14.9L414.1,332.5C414.1,332.5,414.1,332.5,414.1,332.5
		C414.1,332.5,414.1,332.5,414.1,332.5z"/>
	<path class="st0" d="M414,335.1l1.5-1.3c0,0,0,0-0.1,0l-0.1,0l-0.1,0l-0.1,0l-0.1,0l-0.1,0l-0.1,0l-0.1,0l-0.1,0l-0.1,0l-0.1,0
		l-0.1,0c-0.1,0-0.3-0.1-0.5-0.1c0,0,0,0-0.1,0l0,0l-1.6,1.3C413.2,335,413.7,335,414,335.1z"/>
	<path class="st0" d="M415.7,332.4L415.7,332.4l0.2,0l0,0.1l0.1-0.1c0.1,0,0.1,0,0.1,0c0.1,0,0.1,0,0.1,0c0.1,0,0.1,0,0.1,0
		c0.1,0,0.1,0,0.1,0c0.1,0,0.1,0,0.1,0c0.1,0,0.1,0,0.1,0c0.1,0,0.1,0,0.1,0c0.1,0,0.1,0,0.1,0c0.1,0,0.1,0,0.1,0s0,0,0.1,0
		l14.3-11.9l1.8,12c0.1,0,0.1,0,0.1,0c0.1,0,0.3,0,0.4,0l0.1,0l-2-13.5l-16.3,13.4l0,0C415.6,332.5,415.7,332.5,415.7,332.4z"/>
	<path class="st0" d="M415.3,335.2l1.3-1l-0.1,0c0,0,0,0-0.1,0c0,0,0,0-0.1,0l-0.1,0l-0.1,0l-0.1,0l-0.1,0l-0.1,0l-0.1,0l0,0
		c0,0,0,0-0.1,0l-0.1,0l-0.1,0l-0.1,0l-0.1,0l-0.1,0c-0.1,0-0.1,0-0.1,0l-0.1,0l-0.1,0l0,0l-1.5,1.3
		C414.6,335.1,415,335.2,415.3,335.2z"/>
	<path class="st0" d="M417.3,332.5L417.3,332.5l0.2,0l0.1,0l0.1,0l0.1,0l0.1,0l0,0l0.1,0l0.1,0l0.1,0l0.1,0l0.1,0l0.1,0l0.1,0l0.1,0
		l0.1,0l0.1,0l0.1,0l0.1,0l12.4-10.4l1.6,10.4l0,0c0.1,0,0.3,0,0.3,0c0.1,0,0.1,0,0.2,0l-1.8-12l-14.3,11.9l0.1,0
		C417.2,332.5,417.3,332.5,417.3,332.5z"/>
	<path class="st0" d="M416.6,335.4l1-0.9l0,0l-0.1,0l0,0l-0.1,0l-0.1,0l-0.1,0l-0.1,0l-0.1,0l-0.1,0l-0.1,0c0,0,0,0-0.1,0
		c0,0,0,0-0.1,0c0,0,0,0-0.1,0c-0.2,0-0.3-0.1-0.4-0.2l-1.3,1c0.6,0.1,1,0.1,1,0.1C416.4,335.3,416.4,335.4,416.6,335.4z"/>
	<path class="st0" d="M418.6,332.5C418.6,332.5,418.6,332.5,418.6,332.5C418.6,332.5,418.6,332.5,418.6,332.5l0.2,0l0.1,0l0.1,0
		l0.1,0l0.1,0l0.1,0l0.1,0c0.1,0,0.1,0,0.1,0c0.1,0,0.1,0,0.1,0c0.1,0,0.1,0,0.1,0c0.1,0,0.1,0,0.1,0c0.1,0,0.1,0,0.1,0
		c0.1,0,0.1,0,0.1,0l0,0l10.6-8.9l1.3,8.9c0.1,0,0.2,0,0.3,0c0.1,0,0.2,0,0.3,0.1l-1.6-10.4L418.6,332.5z"/>
	<path class="st0" d="M420.3,332.5C420.3,332.5,420.3,332.5,420.3,332.5c0.2,0,0.2,0,0.2,0c0.1,0,0.1,0,0.1,0c0.1,0,0.1,0,0.1,0
		c0.1,0,0.1,0,0.1,0c0.1,0,0.3,0,0.4,0l8.9-7.4l1.1,7.4c0.1,0,0.2,0,0.3,0c0.1,0,0.2,0,0.3,0.1l0,0l-1.2-9l-10.6,8.9
		c0.1,0,0.1,0,0.1,0C420.2,332.5,420.2,332.5,420.3,332.5z"/>
	<path class="st0" d="M416.8,335.6l0.7,0c0.1,0,0.1,0,0.1,0l1.1-0.9c-0.1,0-0.1,0-0.1,0c-0.1,0-0.2-0.1-0.4-0.1c-0.1,0-0.1,0-0.1,0
		l-0.1,0l-0.1,0l-0.1,0l-0.1,0l-0.1,0l-0.1,0l-0.1,0c0,0,0,0-0.1,0l-1,0.9C416.6,335.5,416.7,335.5,416.8,335.6L416.8,335.6z"/>
	<path class="st0" d="M418.6,335.9l1.2-1l0,0c-0.1,0-0.3-0.1-0.4-0.1c-0.1,0-0.3,0-0.4,0s-0.2,0-0.3,0l-1.1,0.9
		C418,335.8,418.2,335.9,418.6,335.9z"/>
	<path class="st0" d="M429.9,326.5l0.9,5.9c0.1,0,0.1,0,0.1,0.1c0.1,0,0.1,0,0.2,0.1c0.1,0,0.2,0,0.3,0l0,0l-1.1-7.4l-8.9,7.4
		c0.5,0,0.9,0,1.4,0L429.9,326.5z"/>
	<path class="st0" d="M418.7,335.9C418.7,335.9,418.8,336,418.7,335.9C418.8,335.9,418.8,335.9,418.7,335.9l0.2,0l0.1,0l0.1,0l0.1,0
		l0.1,0l0.1,0l0.1,0l0.1,0l0.1,0l0.1,0l0.1,0l0.1,0l0,0l1.3-1l-0.3,0c-0.2,0-0.3-0.1-0.5,0c-0.1,0-0.3,0-0.4-0.1L418.7,335.9
		C418.6,335.9,418.6,335.9,418.7,335.9L418.7,335.9z"/>
	<path class="st0" d="M429.6,327.9l0.7,5l0-0.1c0-0.1,0.1-0.2,0.1-0.3c0-0.2,0.1-0.3,0.1-0.3c0.1,0,0.1,0.1,0.1,0.1
		c0.1,0,0.1,0,0.1,0l-0.9-5.9l-7.2,6c0.5,0,0.9,0,1.3,0L429.6,327.9z"/>
	<path class="st0" d="M424.1,332.5c0.5,0,0.9,0,1.2,0l4-3.3l0.7,4.6l0-0.1c0-0.1,0.1-0.2,0.1-0.4c0-0.1,0.1-0.1,0.1-0.3
		c0-0.1,0.1-0.1,0.1-0.3l-0.7-5L424.1,332.5z"/>
	<path class="st0" d="M419.8,336.2L419.8,336.2l0.2,0c0.1,0,0.1,0,0.1,0c0.1,0,0.1,0,0.1,0c0.1,0,0.1,0,0.1,0c0.1,0,0.1,0,0.1,0
		c0.1,0,0.1,0,0.1,0c0.1,0,0.1,0,0.1,0l0.1,0l1.3-1l0,0c-0.1,0-0.1,0-0.1,0c-0.1,0-0.1,0-0.1,0c-0.1,0-0.1,0-0.1,0
		c-0.1,0-0.1,0-0.1,0c-0.1,0-0.1,0-0.1,0c-0.1,0-0.1,0-0.1,0c-0.1,0-0.1,0-0.1,0l-0.1,0l-0.1,0l-0.1,0l0-0.1l-0.1,0l-1.3,1
		L419.8,336.2L419.8,336.2z"/>
	<path class="st0" d="M425.7,332.7c0,0.1,0,0.1,0,0.2c0,0.1,0,0.1,0,0.1c0,0.1,0,0.1,0,0.1c0,0.1,0,0.1,0,0.1c0,0.1,0,0.1,0,0.1
		c0,0.1,0,0.1,0,0.1l0,0l3.4-2.9l0.7,4c0-0.1,0-0.1,0-0.1c0.1-0.1,0.2-0.3,0.2-0.4c0-0.1,0.1-0.1,0.2-0.3l-0.7-4.6l-4,3.3
		c0.3,0,0.4,0,0.4,0S425.7,332.5,425.7,332.7z"/>
	<path class="st0" d="M420.9,336.3C421,336.3,421,336.3,420.9,336.3c0.2,0,0.2,0,0.2,0c0.1,0,0.1,0,0.1,0c0.1,0,0.1,0,0.1,0
		c0.1,0,0.1,0,0.1,0c0.1,0,0.1,0,0.2,0c0,0,0,0,0.1,0l1.3-1c-0.1,0-0.1,0-0.1,0c-0.1,0-0.1,0-0.1,0c-0.1,0-0.1,0-0.1,0
		c-0.1,0-0.1,0-0.1,0c-0.1,0-0.1,0-0.1,0c-0.1,0-0.1,0-0.1,0c-0.1,0-0.1,0-0.1,0c-0.1,0-0.1,0-0.1,0L420.9,336.3
		C420.8,336.3,420.8,336.3,420.9,336.3C420.9,336.3,420.9,336.3,420.9,336.3z"/>
	<path class="st0" d="M425.4,333.5C425.4,333.6,425.4,333.6,425.4,333.5c0,0.2,0,0.2,0,0.2c0,0.1,0,0.1,0,0.1c0,0.1,0,0.1,0,0.2
		c0,0.1,0,0.1,0,0.2c0,0.1,0,0.1,0,0.2c0,0.1,0,0.1,0,0.2c0,0,0,0,0,0.1l3.3-2.8l0.5,3.3c0-0.1,0.2-0.2,0.2-0.2
		c0.1-0.1,0.1-0.2,0.2-0.4l-0.7-4L425.4,333.5C425.5,333.5,425.5,333.5,425.4,333.5C425.5,333.4,425.5,333.5,425.4,333.5z"/>
	<path class="st0" d="M422,336.4c0.1,0,0.1,0,0.2,0c0.1,0,0.1,0,0.2,0c0.1,0,0.1,0,0.2,0c0.1,0,0.1,0,0.2,0c0.1,0,0.1,0,0.2,0
		c0,0,0,0,0.1,0l1.2-1c0,0,0,0-0.1,0s-0.1,0-0.2,0s-0.1,0-0.2,0c-0.1,0-0.1,0-0.2,0c-0.1,0-0.1,0-0.2,0s-0.1,0-0.2,0
		c-0.1,0-0.1,0-0.1,0l0,0L422,336.4C421.9,336.4,422,336.4,422,336.4z"/>
	<path class="st0" d="M423.4,336.4c0.1,0,0.1,0,0.2,0c0.1,0,0.1,0,0.3,0c0.1,0,0.2,0,0.3,0l0,0l4.1-3.4l0.4,2.7
		c0-0.1,0.2-0.2,0.2-0.2c0-0.1,0.1-0.1,0.2-0.2l-0.5-3.3l-3.3,2.8c0,0.1,0,0.1,0,0.1c0,0.1,0,0.1,0,0.2c0,0.1,0,0.1,0,0.2
		c0,0.1,0,0.1,0,0.2c0,0.1,0,0.1,0.1,0.2c0,0.1,0,0.1,0.1,0.2l-0.1,0.1c-0.1,0-0.1,0-0.2,0c-0.1,0-0.1,0-0.2,0c-0.1,0-0.1,0-0.2,0
		c-0.1,0-0.1,0-0.2,0c-0.1,0-0.1,0-0.1,0l-1.2,1c0.1,0,0.1,0,0.2,0C423.2,336.5,423.3,336.4,423.4,336.4z"/>
	<path class="st0" d="M424.1,336.4c0.1,0,0.2,0,0.3,0c0.1,0,0.2,0,0.3,0c0.1,0,0.2,0,0.3,0c0.1,0,0.2,0,0.3,0l0,0l2.6-2.2l0.3,1.9
		c0.1-0.1,0.3-0.3,0.4-0.4l-0.4-2.7L424.1,336.4z"/>
	<path class="st0" d="M426,336.3C426.1,336.3,426.1,336.3,426,336.3c0.2,0,0.2,0.1,0.2,0.1c0.1,0,0.1,0.1,0.1,0l1.3-1.1l0.1,1
		c0.2-0.1,0.3-0.1,0.4-0.2l-0.3-1.9l-2.6,2.2c0.1,0,0.2-0.1,0.3-0.1C425.8,336.3,425.9,336.3,426,336.3z"/>
	<path class="st0" d="M426.4,336.4L426.4,336.4c0.1,0,0.2,0,0.3,0.1c0.1,0,0.2,0,0.3,0.1c0.1,0.1,0.2,0,0.3,0l0-0.1l0,0l0.1,0
		c0.1,0,0.2-0.1,0.4-0.2l-0.1-1L426.4,336.4z"/>
	<path class="st0" d="M427.4,336.4L427.4,336.4L427.4,336.4L427.4,336.4z"/>
</g>
</svg>
