<?xml version="1.0" encoding="utf-8"?>
<!-- Generator: Adobe Illustrator 22.0.1, SVG Export Plug-In . SVG Version: 6.00 Build 0)  -->
<svg version="1.1" id="レイヤー_1" xmlns="http://www.w3.org/2000/svg" xmlns:xlink="http://www.w3.org/1999/xlink" x="0px"
	 y="0px" viewBox="0 0 640 640" style="enable-background:new 0 0 640 640;" xml:space="preserve">
<style type="text/css">
	.st0{fill:none;stroke:#E50012;stroke-width:8.002388e-02;stroke-miterlimit:10;}
	.st1{fill:none;stroke:#E50012;stroke-width:0.159;stroke-miterlimit:10;}
</style>
<g>
	<path class="st0" d="M324.4,101c0-0.1,0.1-0.2,0.1-0.2l-0.5,0.8l0.3,0.2C324.3,101.4,324.3,101.1,324.4,101z"/>
	<path class="st0" d="M323.4,102.6c0,0-0.2,0.2-0.3,0.4c0,0-0.1,0.1-0.1,0.2l0.9,0.5c0-0.3,0.1-0.5,0.1-0.8c0-0.1,0-0.1,0-0.2
		l-0.7-0.4C323.3,102.4,323.3,102.5,323.4,102.6z"/>
	<path class="st0" d="M332.6,108.9c-0.1-0.1-0.2-0.1-0.2-0.2c-0.1-0.1-0.2-0.1-0.3-0.2c-0.1-0.1-0.2-0.1-0.3-0.2
		c-0.1-0.1-0.2-0.1-0.3-0.2c-0.1-0.1-0.2-0.1-0.3-0.2c-0.1-0.1-0.2-0.1-0.3-0.2c-0.1-0.1-0.3-0.1-0.4-0.1s-0.3,0-0.4,0
		c0,0-0.1,0-0.2,0l2.9,1.5C332.7,109.1,332.6,109,332.6,108.9z"/>
	<path class="st0" d="M323.1,103.6c0,0,0,0-0.1,0.2c-0.1,0.1-0.1,0.2-0.2,0.3l0.9,0.5c0.1-0.3,0.1-0.6,0.2-0.9l-0.9-0.5
		C322.9,103.3,323,103.5,323.1,103.6z"/>
	<path class="st0" d="M329,108.2l6.9,3.5c-0.1-0.3-0.2-0.5-0.4-0.7c-0.1-0.1-0.2-0.2-0.3-0.3c-0.1-0.1-0.2-0.1-0.3-0.2
		c-0.1-0.1-0.2-0.1-0.3-0.2c-0.1-0.1-0.2-0.1-0.3-0.2c-0.1-0.1-0.2-0.1-0.3-0.2c-0.1-0.1-0.2-0.1-0.3-0.1c-0.1-0.1-0.2-0.1-0.3-0.1
		c-0.1-0.1-0.2-0.1-0.3-0.1c-0.1,0-0.1-0.1-0.1-0.1s0,0-0.1-0.1c0,0-0.1-0.1-0.2-0.2c0,0,0,0,0,0l-2.9-1.5c-0.1,0-0.3,0.1-0.4,0.2
		C329.3,107.9,329.1,108,329,108.2z"/>
	<path class="st0" d="M300.7,138.9c-0.1,0.2-0.2,0.3-0.3,0.5c-0.2,0.3-0.3,0.6-0.4,0.9c-0.2,0.3-0.3,0.6-0.4,0.8
		c-0.1,0.3-0.3,0.5-0.4,0.8c-0.1,0.2-0.2,0.3-0.2,0.5l2-2L300.7,138.9z"/>
	<path class="st0" d="M322.7,104.4c-0.1,0.2,0,0.4,0.3,0.6c0,0,0,0-0.1,0.1l0.8,0.4c0,0,0-0.1,0-0.1c0-0.3,0.1-0.5,0.1-0.8l0,0
		l-0.9-0.5C322.8,104.2,322.7,104.2,322.7,104.4z"/>
	<path class="st0" d="M322.7,105.2c-0.1,0.1-0.2,0.3-0.2,0.6l1,0.5c0-0.1,0-0.2,0-0.3c0-0.2,0.1-0.4,0.1-0.6l-0.8-0.4
		C322.8,105.1,322.8,105.1,322.7,105.2z"/>
	<path class="st0" d="M328.5,108.8l7.4,3.8c0.1-0.2,0.1-0.4,0.1-0.5l0-0.3c0,0,0,0,0-0.1l-6.9-3.5
		C328.8,108.3,328.6,108.6,328.5,108.8z"/>
	<path class="st0" d="M298.6,143.3c-0.1,0.2-0.2,0.4-0.3,0.7c-0.1,0.2-0.2,0.4-0.3,0.6c0,0-0.1,0.1-0.1,0.1l4.3-4.3l-0.6-3.4
		c-0.1,0.1-0.1,0.2-0.2,0.3c-0.2,0.3-0.4,0.6-0.5,0.9c-0.1,0.1-0.2,0.3-0.2,0.4l0.3,1.5l-2,2c-0.1,0.1-0.1,0.2-0.1,0.3
		C298.8,142.9,298.7,143.1,298.6,143.3z"/>
	<path class="st0" d="M301,132.4C301,132.4,301,132.4,301,132.4C301,132.4,301,132.4,301,132.4c0,0,0.1,0,0.1,0
		C301.1,132.4,301,132.4,301,132.4z"/>
	<path class="st0" d="M302.2,135.1c-0.1,0.3-0.1,0.5-0.1,0.7l0.4-0.3l-0.1-0.8C302.4,134.9,302.3,135,302.2,135.1z"/>
	<path class="st0" d="M323,106.7l0,0.1l0.5,0.3c0-0.1,0-0.3,0.1-0.4c0-0.1,0-0.3,0.1-0.4l-1-0.5l0,0
		C322.5,106.1,322.6,106.4,323,106.7z"/>
	<path class="st0" d="M335.6,113.3c0.1-0.1,0.2-0.3,0.2-0.3c0.1-0.1,0.1-0.3,0.2-0.3l-7.4-3.8c-0.1,0.2-0.3,0.4-0.4,0.7L335.6,113.3
		z"/>
	<path class="st0" d="M298,144.8c-0.1,0.2-0.1,0.3-0.2,0.5c-0.1,0.2-0.2,0.4-0.2,0.6c-0.1,0.2-0.2,0.4-0.2,0.6
		c-0.1,0.2-0.1,0.3-0.2,0.6l6.3-6.2l-0.9-5.1c-0.2,0.3-0.4,0.6-0.5,0.9c-0.1,0.2-0.3,0.4-0.4,0.7l0.6,3.4L298,144.8z"/>
	<path class="st0" d="M301.7,132c-0.1,0.1-0.2,0.2-0.3,0.2c-0.1,0.1-0.2,0.1-0.3,0.2c0.1,0,0.3,0,0.4,0c0.1,0,0.3,0,0.4,0l-0.1-0.5
		C301.8,131.9,301.8,131.9,301.7,132z"/>
	<path class="st0" d="M323,107.8l0.8,0.4c0.1-0.1,0-0.3-0.1-0.3c0,0,0.1,0,0.1,0l-0.4-0.4c0-0.1,0-0.2,0-0.3l-0.5-0.3l0,0.1
		L323,107.8z"/>
	<path class="st0" d="M297.1,147.4c-0.1,0.1-0.1,0.2-0.1,0.3c-0.1,0.1-0.1,0.2-0.1,0.3c-0.1,0.1-0.1,0.2-0.1,0.3
		c0,0-0.1,0.1-0.1,0.1c0,0,0,0.1-0.1,0.2c0,0,0,0.1-0.1,0.2l8.1-8l-1.5-8.2c-0.1,0.1-0.1,0.2-0.2,0.3c-0.1,0.1-0.1,0.3-0.2,0.4
		c-0.1,0.1-0.1,0.3-0.2,0.4c-0.1,0.1-0.1,0.3-0.2,0.4c-0.1,0.1-0.1,0.3-0.2,0.4c0,0,0,0,0,0.1l0.1,0.8l0.1-0.1c0,0-0.1,0.1-0.1,0.2
		l0.9,5.1l-6.3,6.2c0,0-0.1,0.1-0.1,0.1C297.1,147.2,297.1,147.3,297.1,147.4z"/>
	<path class="st0" d="M302.8,132.4c0.1,0,0.2,0,0.3,0l-0.2-1.3c-0.1,0.1-0.1,0.1-0.2,0.2c-0.1,0.1-0.2,0.2-0.3,0.2
		c-0.1,0.1-0.2,0.2-0.3,0.2c0,0-0.1,0.1-0.2,0.1l0.1,0.5c0.1,0,0.2,0,0.3,0C302.4,132.4,302.6,132.4,302.8,132.4z"/>
	<path class="st0" d="M335.1,114c0,0,0.1-0.1,0.1-0.2c0.1-0.1,0.2-0.3,0.2-0.3c0,0,0,0,0.1-0.1l-7.4-3.8c-0.1,0.2-0.2,0.5-0.3,0.7
		L335.1,114z"/>
	<path class="st0" d="M323,108.1l-0.4,0.1l-0.3,0.1l0,0l1.2,0.6c0.1-0.1,0.2-0.3,0.2-0.4c0.1-0.1,0.1-0.2,0.1-0.3l-0.8-0.4l0,0
		L323,108.1z"/>
	<path class="st0" d="M296.5,149.4c0,0.1-0.1,0.2-0.1,0.4c0,0.1-0.1,0.3-0.1,0.4c0,0.1-0.1,0.3-0.1,0.4c0,0,0,0,0,0l9.5-9.5
		l-1.9-10.7c0,0-0.1,0.1-0.1,0.1c-0.1,0.1-0.2,0.1-0.3,0.2c-0.1,0.1-0.2,0.1-0.3,0.2c-0.1,0.1-0.2,0.1-0.3,0.2l0,0l0.2,1.3
		c0.1,0,0.2,0,0.2,0s-0.1,0.1-0.1,0.3c0,0,0,0,0,0l1.5,8.2l-8.1,8c0,0,0,0.1-0.1,0.1C296.5,149.1,296.5,149.2,296.5,149.4z"/>
	<path class="st0" d="M327.7,110.3c0,0-0.1,0-0.2,0c-0.1,0-0.3,0.1-0.6,0.1c-0.1,0-0.2,0-0.3,0.1l7.8,4c0.1-0.1,0.1-0.1,0.2-0.2
		c0.1-0.1,0.2-0.2,0.2-0.3c0,0,0.1-0.1,0.1-0.1L327.7,110.3C327.8,110.2,327.7,110.3,327.7,110.3z"/>
	<path class="st0" d="M325.8,110.9l8.4,4.3c0-0.3-0.1-0.4-0.1-0.4l0,0c0.1-0.1,0.1-0.1,0.2-0.2l0,0l-7.8-4c-0.1,0-0.2,0.1-0.4,0.1
		C326.2,110.7,326,110.8,325.8,110.9z"/>
	<path class="st0" d="M296.1,151.3c0,0.1-0.1,0.3-0.1,0.4c0,0.1-0.1,0.2-0.1,0.4l11-10.9l-2.1-11.6c0,0-0.1,0.1-0.1,0.1
		c-0.1,0-0.1,0.1-0.2,0.2c-0.1,0-0.1,0.1-0.2,0.2c-0.1,0.1-0.1,0.1-0.2,0.2c0,0-0.1,0-0.1,0.1l1.9,10.7l-9.6,9.5
		c0,0.1-0.1,0.3-0.1,0.4C296.1,151,296.1,151.2,296.1,151.3z"/>
	<path class="st0" d="M322.1,108.5l-0.2,0.4l1,0.5c0,0,0,0,0.1,0c0,0,0,0,0,0c0.1-0.1,0.2-0.2,0.3-0.4c0,0,0,0,0.1-0.1l-1.2-0.6
		L322.1,108.5L322.1,108.5z"/>
	<path class="st0" d="M339.1,118.2L339.1,118.2C339.1,118.2,339.1,118.2,339.1,118.2l4.4-2.3l0,0l0,0l0.5-0.7l0.2-0.4
		c-0.1,0.1-0.5,0.4-1.1,0.7c-0.8,0.4-1.9,1-2.9,1.5c-0.1,0.1-0.3,0.2-0.4,0.2c-0.1,0.1-0.3,0.1-0.4,0.2c-0.1,0.1-0.3,0.1-0.4,0.2
		c-0.1,0.1-0.3,0.1-0.4,0.2c-0.1,0.1-0.3,0.1-0.4,0.2c0,0,0,0-0.1,0l0.5,0.3L339.1,118.2z"/>
	<path class="st0" d="M321.9,108.9l-0.3,0.4c0,0-0.1,0.1-0.1,0.2l0.7,0.4c0.1-0.1,0.2-0.2,0.4-0.2c0.1-0.1,0.2-0.1,0.3-0.2
		L321.9,108.9L321.9,108.9z"/>
	<path class="st0" d="M325,111.2l9.3,4.8c0-0.4,0-0.6,0-0.8l-8.4-4.3c0,0-0.1,0-0.1,0C325.5,111,325.2,111.1,325,111.2z"/>
	<path class="st0" d="M295.9,152.6c0,0.2-0.1,0.3-0.1,0.5c0,0.1,0,0.3-0.1,0.4l12.3-12.2l-2.3-12.4l0,0c0,0-0.1,0.1-0.2,0.2
		c0,0-0.1,0.1-0.2,0.2c0,0-0.1,0.1-0.2,0.2c-0.1,0-0.1,0.1-0.2,0.2c0,0,0,0-0.1,0.1l2.1,11.6l-11,10.9c0,0,0,0,0,0.1
		C295.9,152.3,295.9,152.5,295.9,152.6z"/>
	<path class="st0" d="M321.1,110l0.5,0.3c0,0,0.1-0.1,0.1-0.2c0.1-0.1,0.2-0.2,0.3-0.3l0,0l-0.7-0.4c-0.1,0.1-0.1,0.2-0.2,0.3
		C321.2,109.8,321.2,109.9,321.1,110z"/>
	<path class="st0" d="M340.7,117.8c0.1-0.1,0.2-0.3,0.2-0.3c0,0,0.1,0.1,0.2,0.1c0.2,0.1,0.4-0.1,0.6-0.2c0.2-0.2,0.4-0.5,0.4-0.5
		c0.4,0.2,0.7-0.2,0.8-0.4c0.1-0.1,0.1-0.2,0.1-0.2c0.2,0,0.5-0.1,0.7-0.1c0.1,0,0.2-0.1,0.2-0.1l0,0l-0.3-0.3l-4.3,2.3
		C340,118.6,340.4,118.2,340.7,117.8z"/>
	<path class="st0" d="M324.5,111.5c-0.1,0-0.2,0.1-0.3,0.2l10,5.1c0-0.3,0-0.5,0-0.8l-9.3-4.8c0,0,0,0,0,0
		C324.8,111.3,324.7,111.4,324.5,111.5z"/>
	<path class="st0" d="M295.7,154.1c0,0.2,0,0.4,0,0.5c0,0.1,0,0.2,0,0.3l13.5-13.4l-2.4-13.2c0,0-0.1,0.1-0.2,0.1
		c0,0-0.1,0.1-0.2,0.1c0,0-0.1,0.1-0.2,0.1c0,0-0.1,0.1-0.2,0.1c0,0-0.1,0.1-0.2,0.1l2.3,12.4l-12.3,12.2l0,0
		C295.7,153.7,295.7,153.9,295.7,154.1z"/>
	<path class="st0" d="M337.9,118.2c0-0.2-0.1-0.3-0.1-0.4c0-0.1-0.1-0.1-0.2,0c-0.1,0-0.2,0.2-0.3,0.3c0,0-0.1,0.1-0.1,0.1l0.7,0.4
		l0,0l0.2,0l0.4-0.1l0.4-0.1l0,0l-0.5-0.3C338.1,118.1,338,118.2,337.9,118.2C337.9,118.2,337.9,118.2,337.9,118.2z"/>
	<path class="st0" d="M337,118.5c-0.1,0.1-0.1,0.2-0.2,0.3l1.1,0.6l0.1-0.1l-0.1-0.7l-0.7-0.4C337.1,118.3,337,118.4,337,118.5z"/>
	<path class="st0" d="M323.7,112c0,0-0.1,0-0.1,0.1l10.7,5.5c0-0.1,0-0.2,0-0.3c0-0.2,0-0.3,0-0.4l-10-5.1c0,0-0.1,0-0.1,0.1
		C323.9,111.8,323.8,111.9,323.7,112z"/>
	<path class="st0" d="M295.6,154.8c0,0.1,0,0.2,0,0.3c0,0.2,0,0.4,0,0.5c0,0.1,0,0.3,0,0.4l14.5-14.4l-2.7-15c0,0,0,0-0.1,0.1
		c-0.1,0.1-0.1,0.2-0.1,0.3c-0.1,0.1-0.1,0.2-0.1,0.3s-0.1,0.2-0.1,0.3c0,0.1,0,0.2,0,0.3c0,0,0,0,0,0s-0.1,0.1-0.2,0.2
		c0,0-0.1,0.1-0.2,0.2l2.4,13.2L295.6,154.8z"/>
	<path class="st0" d="M320.8,110.5c0,0-0.1,0.1-0.1,0.1l0.5,0.3c0.1-0.1,0.2-0.3,0.2-0.4c0,0,0.1-0.1,0.1-0.2l-0.5-0.3c0,0,0,0,0,0
		C321,110.2,320.9,110.3,320.8,110.5z"/>
	<path class="st0" d="M336.6,119c0,0.1,0,0.3,0,0.4l0.9,0.5l0.3-0.3l0,0l0.1-0.2l-1.1-0.6C336.7,118.9,336.7,119,336.6,119
		C336.7,119,336.6,119,336.6,119z"/>
	<path class="st0" d="M295.7,156.8c0,0.1,0,0.1,0.1,0.2l15.3-15.3l-3-16.3c0,0-0.1,0.1-0.1,0.2c-0.1,0.1-0.1,0.2-0.2,0.3
		c-0.1,0.1-0.1,0.2-0.2,0.3s-0.1,0.2-0.2,0.3c-0.1,0.1-0.1,0.1-0.1,0.2l2.7,15l-14.5,14.4c0,0,0,0.1,0,0.2
		C295.5,156.4,295.6,156.6,295.7,156.8z"/>
	<path class="st0" d="M320.4,111.2l0.5,0.3c0,0,0.1-0.1,0.1-0.2c0.1-0.1,0.2-0.3,0.2-0.4l0,0l-0.5-0.3c-0.1,0.1-0.1,0.2-0.2,0.3
		C320.5,110.9,320.5,111.1,320.4,111.2z"/>
	<path class="st0" d="M322.9,112.4l11.2,5.7c0-0.2,0.1-0.5,0.1-0.7l-10.7-5.5c-0.1,0-0.2,0.1-0.3,0.2
		C323.2,112.3,323.1,112.4,322.9,112.4z"/>
	<path class="st0" d="M296.1,157.4L296.1,157.4l0.2,0c0,0,0,0,0,0.1l15.7-15.6l-2.9-16c0,0-0.1,0.1-0.1,0.1l-0.2,0
		c0-0.1,0.1-0.2,0.1-0.3c0,0,0.1-0.1,0.1-0.2l-0.2-1.2c-0.1,0.1-0.1,0.2-0.2,0.3c-0.1,0.1-0.1,0.2-0.2,0.3c-0.1,0.1-0.1,0.2-0.2,0.3
		c0,0-0.1,0.1-0.1,0.1l3,16.3L295.6,157C295.8,157.2,295.9,157.3,296.1,157.4z"/>
	<path class="st0" d="M322.6,112.7c0,0-0.1,0.1-0.2,0.1l11.7,6c0-0.2,0.1-0.4,0.1-0.5c0,0,0-0.1,0-0.1l-11.2-5.7c0,0,0,0,0,0
		C322.8,112.6,322.7,112.6,322.6,112.7z"/>
	<path class="st0" d="M320.2,111.6c0,0-0.1,0.1-0.1,0.1l0.5,0.3c0.1-0.1,0.1-0.2,0.2-0.3c0.1-0.1,0.1-0.1,0.1-0.2l-0.5-0.3
		c0,0,0,0-0.1,0.1C320.3,111.4,320.3,111.5,320.2,111.6z"/>
	<path class="st0" d="M336.5,119.9c0,0-0.1,0.1-0.1,0.1l0.6,0.3c0,0,0.1-0.1,0.1-0.1c0.1-0.2,0.2-0.3,0.2-0.3l0.1-0.1l0,0l-0.9-0.5
		C336.6,119.6,336.5,119.8,336.5,119.9z"/>
	<path class="st0" d="M319.9,112.3l0.6,0.3c0,0,0-0.1,0.1-0.1c0.1-0.1,0.1-0.3,0.1-0.4l0,0l-0.5-0.3c-0.1,0.1-0.1,0.2-0.1,0.3
		C320,112.1,320,112.2,319.9,112.3z"/>
	<path class="st0" d="M321.9,113.2L321.9,113.2l12,6.2c0-0.1,0.1-0.2,0.1-0.3c0-0.1,0.1-0.2,0.1-0.3l-11.7-6c0,0-0.1,0.1-0.1,0.1
		C322.1,113.1,322,113.1,321.9,113.2z"/>
	<path class="st0" d="M309.3,125c0.1-0.1,0.1-0.2,0.2-0.3s0.2-0.3,0.2-0.3c0,0,0.1-0.1,0.1-0.1l-0.2-1c-0.1,0.1-0.1,0.2-0.1,0.3
		c0,0,0,0-0.1,0.1c-0.1,0.1-0.1,0.2-0.2,0.3c-0.1,0.1-0.1,0.2-0.2,0.3l0,0l0.2,1.2c0,0,0.1-0.1,0.1-0.2
		C309.1,125.3,309.2,125.1,309.3,125z"/>
	<path class="st0" d="M296.6,158.2l16.3-16.2l-3.1-17c0,0,0,0,0,0c-0.1,0.1-0.2,0.2-0.3,0.3c-0.1,0.1-0.2,0.2-0.3,0.3
		c-0.1,0.1-0.1,0.1-0.2,0.2l2.9,16l-15.7,15.6c0,0.1,0.1,0.3,0.2,0.5C296.6,158.1,296.6,158.1,296.6,158.2z"/>
	<path class="st0" d="M336.2,120.6l0.5,0.3c0.1-0.1,0.1-0.1,0.1-0.2c0.1-0.1,0.1-0.2,0.2-0.3l-0.6-0.3c-0.1,0.2-0.1,0.3-0.2,0.4
		C336.2,120.6,336.2,120.6,336.2,120.6z"/>
	<path class="st0" d="M335.9,121.1l0.5,0.3c0.1-0.1,0.2-0.2,0.2-0.3c0,0,0.1-0.1,0.1-0.1l-0.5-0.3c-0.1,0.1-0.1,0.2-0.2,0.3
		C335.9,121,335.9,121.1,335.9,121.1z"/>
	<path class="st0" d="M297.1,158.6C297.1,158.6,297.2,158.6,297.1,158.6l16.7-16.5l-3.2-17.9c-0.1,0.1-0.1,0.1-0.2,0.2
		c-0.1,0.1-0.2,0.2-0.3,0.3c-0.1,0.1-0.2,0.2-0.2,0.3l3.1,17l-16.3,16.1C296.8,158.3,296.9,158.5,297.1,158.6z"/>
	<path class="st0" d="M309.9,123.9c0-0.1,0-0.2,0.1-0.3c0.1-0.1,0.1-0.3,0.2-0.4c0.1-0.1,0.2-0.3,0.2-0.4l0,0l-0.2-0.9l0,0
		c-0.1,0.1-0.2,0.3-0.3,0.4c-0.1,0.1-0.2,0.3-0.2,0.4c-0.1,0.1-0.1,0.3-0.2,0.4l0,0l0.2,1C309.7,124.1,309.8,124.1,309.9,123.9
		C309.9,124,309.9,123.9,309.9,123.9z"/>
	<path class="st0" d="M319.7,112.8C319.7,112.8,319.7,112.8,319.7,112.8l1.4,0.8l-0.3-0.3l-0.4-0.4c0-0.1,0.1-0.2,0.1-0.3l-0.6-0.3
		c0,0,0,0-0.1,0.1C319.8,112.5,319.8,112.6,319.7,112.8z"/>
	<path class="st0" d="M321.6,113.5c-0.1,0.1-0.1,0.1-0.2,0.2l12.4,6.4c0-0.1,0.1-0.1,0.1-0.2c0.1-0.1,0.1-0.3,0.1-0.4l-12-6.2
		C321.8,113.3,321.7,113.4,321.6,113.5z"/>
	<path class="st0" d="M310.8,122.1c0.1-0.1,0.1-0.2,0.2-0.3l-0.1-0.8c0,0-0.1,0.1-0.1,0.1c-0.1,0.1-0.2,0.3-0.3,0.4
		c-0.1,0.1-0.2,0.3-0.3,0.4l0.2,0.9c0.1-0.1,0.2-0.3,0.2-0.4C310.6,122.4,310.7,122.2,310.8,122.1z"/>
	<path class="st0" d="M335.5,121.5C335.5,121.6,335.5,121.6,335.5,121.5l0.5,0.3c0,0,0.1-0.1,0.1-0.1c0.1-0.1,0.2-0.2,0.2-0.3l0,0
		l-0.5-0.3c0,0-0.1,0.1-0.1,0.1C335.6,121.4,335.6,121.4,335.5,121.5z"/>
	<path class="st0" d="M321.1,113.6l-1.4-0.7c-0.1,0.1-0.1,0.2-0.1,0.3c0,0.1-0.1,0.2-0.1,0.3l14,7.2c0,0,0.1-0.1,0.1-0.2
		c0.1-0.1,0.1-0.3,0.1-0.4l-12.4-6.4l0,0L321.1,113.6z"/>
	<path class="st0" d="M314.7,142.2l-3.4-18.8c-0.1,0.1-0.2,0.2-0.2,0.3c-0.1,0.1-0.2,0.3-0.3,0.3c0,0-0.1,0.1-0.1,0.2l3.2,17.9
		l-16.6,16.5c0.2,0.1,0.5,0.2,0.8,0.2L314.7,142.2z"/>
	<path class="st0" d="M311.6,120.9l-0.1-0.6c-0.1,0.1-0.2,0.2-0.3,0.3c-0.1,0.1-0.2,0.3-0.4,0.5l0.1,0.8c0,0,0.1-0.1,0.1-0.2
		C311.3,121.4,311.5,121.1,311.6,120.9z"/>
	<path class="st0" d="M298.3,159.2C298.3,159.3,298.4,159.3,298.3,159.2c0,0.1,0,0.1,0.1,0.1l17.1-17l-3.6-19.7
		c-0.1,0.1-0.2,0.2-0.3,0.3c-0.1,0.1-0.2,0.3-0.3,0.4c0,0,0,0-0.1,0.1l3.4,18.8L298,158.8c0,0,0.1,0,0.2,0
		C298.2,159,298.3,159.1,298.3,159.2z"/>
	<path class="st0" d="M335.1,122l0.5,0.3c0.1-0.1,0.1-0.2,0.2-0.3c0,0,0.1-0.1,0.1-0.2l-0.5-0.3c-0.1,0.1-0.1,0.2-0.2,0.2
		C335.1,121.9,335.1,121.9,335.1,122z"/>
	<path class="st0" d="M319.5,114L319.5,114l13.8,7.1c0,0,0.1-0.1,0.1-0.2c0.1-0.1,0.1-0.3,0.1-0.4l-14-7.2c0,0,0,0.1,0,0.1
		C319.5,113.7,319.5,113.9,319.5,114z"/>
	<path class="st0" d="M334.8,122.2c0,0-0.1,0.1-0.2,0.1l0.6,0.3c0,0,0.1-0.1,0.1-0.1c0.1-0.1,0.1-0.2,0.2-0.3l0,0l-0.5-0.3l0,0
		C334.9,122.1,334.8,122.2,334.8,122.2z"/>
	<path class="st0" d="M333.3,121.7l0-0.2c0.1-0.1,0.1-0.2,0.1-0.3l-13.8-7.1l0.4,0.8L333.3,121.7z"/>
	<path class="st0" d="M311.7,120.9c0.1-0.2,0.3-0.4,0.3-0.4l0,0c0,0.1,0.2,0.2,0.4,0.3l-0.2-1.1c-0.1,0.1-0.1,0.2-0.2,0.4
		c0,0,0,0,0,0c0,0-0.2,0.2-0.3,0.3l0,0L311.7,120.9C311.7,120.9,311.7,120.9,311.7,120.9z"/>
	<path class="st0" d="M298.9,159.9l17.5-17.4l-3.7-20.5c-0.2,0.2-0.4,0.4-0.6,0.7c0,0,0,0-0.1,0.1l3.6,19.7l-17.1,17
		C298.5,159.6,298.7,159.8,298.9,159.9z"/>
	<path class="st0" d="M312.9,121l0.1,0.6c-0.1,0.1-0.2,0.2-0.3,0.3l0,0l3.7,20.5l-17.5,17.4c0,0,0.1,0.1,0.1,0.1
		c0.2,0.1,0.4,0.2,0.5,0.2l17.6-17.5l-4.2-23.3c-0.1,0-0.2,0-0.3,0.1c-0.1,0-0.2,0.1-0.3,0.2l0,0l0.2,1.1c0,0,0,0,0.1,0.1
		C312.6,120.8,312.7,120.9,312.9,121z"/>
	<path class="st0" d="M319.8,115.1c0,0-0.1,0.1-0.1,0.2l15.1,7.8c0,0,0,0,0.1-0.1c0.1-0.1,0.1-0.1,0.2-0.2c0,0,0,0,0.1-0.1l-0.6-0.3
		l0,0c-0.1,0-0.1,0.1-0.2,0.2c-0.1,0.1-0.2,0.1-0.2,0.1l0,0l-0.2-0.1l-0.3-0.2l-0.2-0.1l-0.1-0.4l-13.4-6.9l0,0
		C319.9,115,319.8,115,319.8,115.1z"/>
	<path class="st0" d="M319.3,115.5C319.3,115.6,319.3,115.6,319.3,115.5l15,7.8c0,0,0,0,0.1,0c0.1,0,0.1-0.1,0.2-0.2
		c0,0,0.1-0.1,0.1-0.1l-15.1-7.8c0,0,0,0-0.1,0.1C319.5,115.4,319.4,115.5,319.3,115.5z"/>
	<path class="st0" d="M300.2,160.1c0,0,0,0.1,0,0.2l17.7-17.6l-4.2-23.4l0,0c-0.1,0-0.2,0-0.4,0s-0.2,0-0.4,0l0,0l4.2,23.3
		l-17.6,17.5c0,0,0.1,0,0.1,0C299.9,160.2,300.2,160.1,300.2,160.1z"/>
	<path class="st0" d="M300.8,160.5l17.9-17.7l-4.2-23.3c0,0,0,0-0.1,0c-0.1,0-0.2-0.1-0.4-0.1c-0.1,0-0.2-0.1-0.4-0.1l4.2,23.4
		l-17.7,17.6l0,0C300.3,160.5,300.5,160.5,300.8,160.5z"/>
	<path class="st0" d="M319.1,115.7C319.1,115.8,319.1,115.8,319.1,115.7c-0.1,0.1,0.1,0.2,0.3,0.3c0.5,0.3,1.2,0.7,1.3,0.9l13.1,6.7
		c0,0,0.1,0,0.1-0.1c0.1,0,0.1-0.1,0.2-0.1c0,0,0.1-0.1,0.1-0.1l-15.1-7.7C319.2,115.7,319.2,115.7,319.1,115.7z"/>
	<path class="st0" d="M301.6,160.4c0.1,0,0.2-0.1,0.3-0.1l17.6-17.5l-4.3-23.7c-0.1,0.1-0.1,0.1-0.1,0.2c-0.1,0.1-0.1,0.1-0.1,0.2
		c0,0-0.1-0.1-0.2-0.1c-0.1,0-0.2-0.1-0.3-0.1l4.2,23.3l-17.9,17.7c0,0,0,0,0.1,0C301.1,160.5,301.3,160.5,301.6,160.4z"/>
	<path class="st0" d="M320.7,117c0,0,0,0.2,0.1,0.4c0,0,0,0.1,0,0.2l12.3,6.3l0,0c0,0,0.1,0,0.2,0c0,0,0.1,0,0.2-0.1
		c0,0,0.1,0,0.2-0.1l0,0l-13.1-6.7C320.7,117,320.7,117,320.7,117z"/>
	<path class="st0" d="M320.5,117.8c-0.1,0-0.3-0.1-0.6-0.3c0,0-0.4-0.4-0.8-0.7c-0.2-0.1-0.4-0.2-0.6-0.2c-0.1,0-0.2,0-0.4,0
		c0,0,0,0-0.1,0l14.3,7.3c0.1-0.1,0.1-0.1,0.1-0.2l0.2-0.1c0,0,0.1,0.1,0.2,0.1c0,0,0.1,0.1,0.2,0.1s0.1,0,0.2,0l-12.3-6.3
		c0,0.1,0,0.1-0.1,0.2C320.7,117.8,320.6,117.9,320.5,117.8z"/>
	<path class="st0" d="M301.8,160.3c0.1,0,0.3-0.1,0.4-0.2c0.2-0.1,0.5-0.2,0.7-0.3c0.1,0,0.2-0.1,0.3-0.1l16.9-16.8l-4.4-24.4
		c-0.1,0.1-0.1,0.2-0.2,0.2c-0.1,0.1-0.2,0.2-0.2,0.3c0,0-0.1,0.1-0.1,0.1l4.3,23.7L301.8,160.3z"/>
	<path class="st0" d="M304.2,159.2c0.2-0.1,0.4-0.2,0.6-0.3l16-15.9l-4.5-25c0,0,0,0-0.1,0.1c-0.1,0.1-0.1,0.1-0.2,0.2
		s-0.1,0.2-0.2,0.2l0,0l4.4,24.4l-16.9,16.9c0.1-0.1,0.3-0.1,0.4-0.2C303.8,159.5,304,159.4,304.2,159.2z"/>
	<path class="st0" d="M317.7,116.8L317.7,116.8L317.7,116.8l14.4,7.5l0,0c0.1-0.1,0.1-0.2,0.2-0.3c0,0,0,0,0.1-0.1l-14.3-7.3
		c0,0-0.1,0-0.1,0.1C317.8,116.7,317.7,116.8,317.7,116.8z"/>
	<path class="st0" d="M305.5,158.6c0.2-0.1,0.4-0.2,0.6-0.4c0.1-0.1,0.3-0.2,0.5-0.3l14.9-14.8l-4.7-25.6l0,0c0,0-0.1,0.1-0.2,0.2
		c0,0-0.1,0.1-0.2,0.2c0,0-0.1,0.1-0.1,0.1l4.5,25l-16,15.9c0,0,0,0,0.1,0C305.1,158.8,305.3,158.7,305.5,158.6z"/>
	<path class="st0" d="M317.4,117.1C317.3,117.1,317.3,117.1,317.4,117.1l12.6,6.6c0.1,0,0.1,0,0.2,0c0,0,0,0,0,0c0,0,0.1,0,0.1,0
		c0,0,0.1,0.1,0.1,0.1c0,0,0.1,0.1,0.1,0.1c0,0,0.1,0.1,0.1,0.1c0,0,0.1,0.1,0.1,0.1s0.1,0.1,0.1,0.1c0,0,0,0,0.1,0.1
		c0,0,0.1,0.1,0.1,0.1c0,0,0.1,0.1,0.1,0.1c0,0,0,0,0.1,0.1l0.6,0.3c0,0,0.1-0.1,0.1-0.2c0.1-0.1,0.1-0.2,0.1-0.2l-14.5-7.4
		C317.6,116.9,317.5,117,317.4,117.1z"/>
	<path class="st0" d="M331.5,124.6c0,0,0.1,0.1,0.2,0.1c0.1,0.1,0.1,0.1,0.1,0.1l0,0c0,0,0.1-0.1,0.1-0.1l-0.6-0.3c0,0,0,0,0.1,0.1
		C331.5,124.5,331.5,124.6,331.5,124.6z"/>
	<path class="st0" d="M317,117.4c0,0-0.1,0.1-0.2,0.2l4.7,25.6L306.6,158c0,0,0.1,0,0.1-0.1c0.2-0.1,0.4-0.2,0.6-0.4
		c0.2-0.1,0.4-0.2,0.6-0.4c0.3-0.2,0.5-0.3,0.6-0.4c0,0,0,0,0,0c0,0,0,0,0.1-0.1l13.6-13.5l-4.6-25.5l12,6.2
		c0.1-0.1,0.1-0.1,0.2-0.2c0.1,0,0.1,0,0.2-0.1l0,0l-12.7-6.5c0,0,0,0-0.1,0.1C317.1,117.3,317,117.3,317,117.4z"/>
	<path class="st0" d="M309.5,156c0.2-0.1,0.3-0.3,0.5-0.4c0.2-0.1,0.3-0.3,0.5-0.4c0.2-0.1,0.3-0.3,0.5-0.4c0.1-0.1,0.3-0.3,0.5-0.4
		c0.1-0.1,0.3-0.3,0.5-0.4s0.3-0.3,0.5-0.4s0.3-0.3,0.4-0.4l2.9-2.8l0,0c0.1-0.1,0.2-0.3,0.4-0.4c0.1-0.1,0.2-0.3,0.4-0.4
		c0.1-0.1,0.2-0.3,0.3-0.4c0.1-0.1,0.2-0.3,0.3-0.4c0.1-0.1,0.2-0.3,0.3-0.4c0.1-0.1,0.2-0.3,0.3-0.4c0.1-0.1,0.2-0.3,0.3-0.4l0,0
		c0,0,0.1,0,0.2,0c0,0,0,0,0,0l4.2-4.2l-4.5-24.7l11.8,6.1c0,0,0,0-0.1-0.1c0,0-0.1-0.1-0.1-0.1c0,0-0.1-0.1-0.1-0.1
		s-0.1-0.1-0.1-0.1c0,0-0.1-0.1-0.1-0.1c0-0.1,0-0.1,0-0.2l-12-6.2l4.6,25.5l-13.6,13.5c0.1-0.1,0.3-0.2,0.4-0.3
		C309.1,156.3,309.3,156.2,309.5,156z"/>
	<path class="st0" d="M330.5,124.9c0,0-0.1-0.1-0.1-0.1c0,0-0.1-0.1-0.1-0.1c0,0-0.1-0.1-0.1-0.1c0,0-0.1-0.1-0.1-0.1L330.5,124.9
		C330.6,125,330.5,124.9,330.5,124.9z"/>
	<path class="st0" d="M322.7,143.3l-4.2,4.2c0,0,0.1,0,0.2-0.1c0.1,0,0.1-0.1,0.2-0.2c0.1,0,0.1-0.1,0.2-0.2c0.1,0,0.1-0.1,0.2-0.2
		c0.1,0,0.1-0.1,0.2-0.2c0.1,0,0.1-0.1,0.2-0.2c0.1,0,0.1-0.1,0.2-0.2c0.1-0.1,0.1-0.1,0.2-0.2c0.1-0.1,0.1-0.1,0.2-0.2
		c0.1-0.1,0.1-0.1,0.2-0.2c0.1-0.1,0.1-0.1,0.2-0.2c0.1-0.1,0.1-0.1,0.2-0.2c0.1-0.1,0.1-0.1,0.2-0.2c0,0,0.1-0.1,0.1-0.1s0,0,0,0
		l1.9-1.9l-4.3-24l12.5,6.4c0,0,0,0,0-0.1c0-0.1-0.1-0.2-0.2-0.3c0,0-0.1-0.1-0.2-0.1c0,0-0.1-0.1-0.1-0.1c0,0-0.1-0.1-0.1-0.1
		c0,0-0.1-0.1-0.2-0.1l0,0l-0.6-0.3l0,0l0,0l0,0l-11.8-6.1L322.7,143.3z"/>
	<path class="st0" d="M313.3,152.7c0.1-0.1,0.3-0.3,0.4-0.4c0.1-0.1,0.3-0.3,0.4-0.4s0.3-0.3,0.4-0.4c0.1-0.1,0.3-0.3,0.4-0.4
		c0.1-0.1,0.2-0.3,0.4-0.4c0.1-0.1,0.2-0.3,0.3-0.3l-2.9,2.8l0,0C313.1,152.9,313.2,152.8,313.3,152.7z"/>
	<path class="st0" d="M321.6,145.6c0,0,0,0.1,0.1,0.2l1.5-1.5c0.1-0.4,0.3-0.8,0.4-1.2c0.1-0.2,0.2-0.5,0.2-0.7l-4.1-22.2l11.8,6.1
		l0,0c0-0.1,0-0.3,0-0.4l-12.5-6.4l4.3,24l-1.9,1.9c0,0,0,0,0,0.1S321.5,145.5,321.6,145.6z"/>
	<path class="st0" d="M321.7,146c0,0,0,0.1,0.1,0.2l0,0l1-1c0.1-0.3,0.2-0.6,0.3-0.8c0,0,0-0.1,0.1-0.1l-1.5,1.5l0,0
		C321.7,145.9,321.7,145.9,321.7,146z"/>
	<path class="st0" d="M323.7,142.4c0.1-0.2,0.1-0.3,0.2-0.5c0.1-0.2,0.1-0.4,0.2-0.6l-3.7-20.4l10.9,5.6c0,0,0,0,0,0s0,0,0,0
		c0.1-0.1,0.1-0.2,0.1-0.2l-11.7-6.1L323.7,142.4z"/>
	<path class="st0" d="M321.9,146.6C321.9,146.6,321.9,146.6,321.9,146.6l0.6-0.4c0-0.1,0.1-0.1,0.1-0.2c0.1-0.2,0.1-0.4,0.2-0.7
		l-1,1c0,0,0,0.1,0.1,0.2C321.9,146.5,321.9,146.5,321.9,146.6z"/>
	<path class="st0" d="M324.4,140.3l-3.4-18.6l10.2,5.2c0-0.1,0.1-0.1,0.1-0.2c0-0.1,0.1-0.1,0.1-0.2l-11-5.6l3.7,20.3
		c0.1-0.2,0.1-0.4,0.2-0.5C324.3,140.6,324.4,140.4,324.4,140.3z"/>
	<path class="st0" d="M322,146.8c0,0.1,0.1,0.2,0.1,0.3c0,0,0,0,0,0l0.1-0.1c0,0,0,0,0-0.1c0,0,0.1-0.1,0.1-0.2s0.1-0.1,0.1-0.2
		c0.1-0.1,0.1-0.3,0.1-0.4l-0.5,0.5C322,146.7,322,146.7,322,146.8z"/>
	<path class="st0" d="M324.5,140.1C324.5,140.1,324.5,140.1,324.5,140.1c0.1,0,0.1,0,0.2,0s0,0,0.1,0c0,0,0,0,0.1,0c0,0,0,0,0,0
		l-3.2-17.6l9.4,4.8c0.1-0.1,0.1-0.2,0.1-0.2c0,0,0,0,0.1-0.1l-10.2-5.2l3.4,18.6C324.4,140.2,324.5,140.1,324.5,140.1L324.5,140.1z
		"/>
	<path class="st0" d="M322.2,147.4L322.2,147.4L322.2,147.4c0,0,0-0.1,0-0.1C322.2,147.4,322.2,147.4,322.2,147.4z"/>
	<path class="st0" d="M325,140C325.1,139.9,325.1,139.9,325,140c0.1-0.1,0.1-0.1,0.2-0.2c0,0,0,0,0.1-0.1l0,0l-3-16.5l8.6,4.4l0,0
		c0.1-0.1,0.1-0.2,0.1-0.3c0,0,0,0,0,0l-9.4-4.8l3.2,17.6l0,0C325,140,325,140,325,140z"/>
	<path class="st0" d="M322.2,147.3L322.2,147.3L322.2,147.3c0,0,0.1-0.1,0.1-0.2c0,0,0,0,0-0.1l-0.1,0.1L322.2,147.3
		C322.2,147.2,322.2,147.2,322.2,147.3z"/>
	<path class="st0" d="M325.3,139.7C325.4,139.7,325.4,139.7,325.3,139.7c0.1-0.1,0.1-0.1,0.2-0.2c0,0,0,0,0.1-0.1c0,0,0,0,0.1-0.1
		c0,0,0,0,0.1-0.1l-0.2-1.3l0,0l0,0c0,0,0,0,0,0c0,0,0,0,0,0l-2.6-14l7.9,4.1c0,0,0.1-0.1,0.1-0.1c0-0.1,0.1-0.1,0.1-0.2l-8.6-4.4
		L325.3,139.7z"/>
	<path class="st0" d="M325.6,137.8C325.6,137.7,325.6,137.7,325.6,137.8c0.1-0.1,0.1-0.1,0.1-0.2c0,0,0,0,0.1-0.1c0,0,0,0,0.1-0.1
		c0,0,0,0,0.1-0.1c0,0,0,0,0.1-0.1l-2.3-12.7l7.1,3.7c0,0,0.1-0.1,0.1-0.2c0,0,0.1-0.1,0.1-0.1l-7.9-4.1l2.6,14
		C325.5,137.9,325.5,137.9,325.6,137.8C325.5,137.8,325.5,137.8,325.6,137.8z"/>
	<path class="st0" d="M325.8,139.2C325.9,139.1,325.9,139.1,325.8,139.2c0.1-0.1,0.1-0.1,0.2-0.2l0,0l0,0l0,0c0,0,0,0,0,0l-0.2-1.2
		l-0.4,0.3l0.2,1.3l0,0C325.8,139.2,325.8,139.2,325.8,139.2z"/>
	<path class="st0" d="M326.2,138.7C326.2,138.7,326.2,138.7,326.2,138.7C326.2,138.7,326.2,138.7,326.2,138.7
		c0.1-0.1,0.1-0.1,0.1-0.1c0,0,0,0,0,0c0,0,0,0,0,0c0,0,0,0,0,0c0,0,0,0,0,0c0,0,0,0,0,0c0,0,0,0,0,0c0,0,0,0,0,0c0,0,0,0,0,0
		c0,0,0,0,0,0l-0.2-1c0,0-0.1,0.1-0.1,0.1c0,0-0.1,0.1-0.1,0.2l-0.1,0.1L326.2,138.7L326.2,138.7
		C326.2,138.8,326.2,138.7,326.2,138.7z"/>
	<path class="st0" d="M325.8,137.3C325.8,137.3,325.9,137.3,325.8,137.3L325.8,137.3L325.8,137.3l0.1-0.1l0,0c0,0,0,0,0,0
		c0,0,0,0,0,0c0,0,0,0,0,0c0,0,0,0,0,0c0,0,0,0,0,0c0,0,0,0,0,0c0,0,0,0,0,0c0,0,0,0,0,0c0,0,0,0,0,0c0,0,0,0,0,0c0,0,0,0,0,0
		c0,0,0,0,0,0c0,0,0,0,0,0c0,0,0,0,0,0l0,0l0,0l0,0l0,0l0,0l-2.1-11.4l6.5,3.3l0,0c0.1-0.1,0.1-0.1,0.1-0.2c0,0,0,0,0,0l-7.1-3.7
		L325.8,137.3z"/>
	<path class="st0" d="M326.5,138.3C326.5,138.3,326.6,138.3,326.5,138.3C326.6,138.2,326.6,138.2,326.5,138.3
		C326.6,138.2,326.6,138.2,326.5,138.3c0.1-0.1,0.1-0.1,0.1-0.1c0,0,0,0,0,0c0,0,0,0,0,0c0,0,0,0,0,0c0,0,0,0,0,0c0,0,0,0,0,0l0,0
		l0,0l0,0l0,0l0,0l0,0l0,0l0,0l0,0l0,0c0,0,0,0,0,0l-0.2-1l0,0l0,0l0,0l0,0l0,0l0,0l0,0l0,0l0,0l0,0l0,0l0,0l0,0l0,0l0,0l0,0l0,0
		l0,0l0,0c0,0,0,0,0,0c0,0,0,0,0,0c0,0,0,0,0,0l0,0c0,0,0,0,0,0L326.5,138.3C326.5,138.3,326.5,138.3,326.5,138.3
		C326.5,138.3,326.5,138.3,326.5,138.3z"/>
	<path class="st0" d="M326.2,136.6L326.2,136.6L326.2,136.6C326.2,136.6,326.3,136.6,326.2,136.6L326.2,136.6L326.2,136.6
		L326.2,136.6C326.3,136.6,326.3,136.6,326.2,136.6c0.1-0.1,0.1-0.1,0.1-0.1c0,0,0,0,0,0c0,0,0,0,0,0c0,0,0,0,0,0c0,0,0,0,0,0
		c0,0,0,0,0,0c0,0,0,0,0,0c0,0,0,0,0,0c0,0,0,0,0,0c0,0,0,0,0,0c0,0,0,0,0,0c0,0,0,0,0,0l0,0l0,0l0,0c0,0,0,0,0,0l-1.8-10.2l5.8,3
		c0,0,0.1-0.1,0.1-0.1c0,0,0.1-0.1,0.1-0.1l-6.5-3.3L326.2,136.6C326.2,136.7,326.2,136.7,326.2,136.6
		C326.2,136.7,326.2,136.6,326.2,136.6z"/>
	<path class="st0" d="M327.2,137.4l-0.2-0.9l0,0c0,0,0,0,0,0c0,0,0,0,0,0c0,0,0,0,0,0c0,0,0,0,0,0l0,0l0,0l0,0l0,0l0,0l0,0l0,0
		c0,0-0.1,0.1-0.1,0.2l0,0l0,0l0.2,1C327,137.7,327.1,137.5,327.2,137.4z"/>
	<path class="st0" d="M326.5,136C326.6,136,326.6,136,326.5,136C326.6,136,326.6,136,326.5,136L326.5,136l0.1-0.1c0,0,0,0,0,0
		c0,0,0,0,0,0c0,0,0,0,0,0c0,0,0,0,0,0l0,0l0,0l0,0l0,0l0,0l0,0l-1.6-9l5.1,2.6c0,0,0,0,0,0c0,0,0.1-0.1,0.1-0.2l0,0l-5.8-3
		L326.5,136C326.5,136.1,326.5,136.1,326.5,136L326.5,136z"/>
	<path class="st0" d="M327.5,136.9l-0.1-0.8c0,0,0,0,0,0l0,0l0,0l0,0l0,0l0,0l0,0l0,0l0,0l0,0l0,0c0,0,0,0,0,0c0,0,0,0,0,0
		c0,0,0,0,0,0c0,0,0,0,0,0c0,0,0,0,0,0c0,0,0,0,0,0c0,0,0,0,0,0c0,0,0,0,0,0l0,0l0.2,0.9C327.3,137.2,327.4,137.1,327.5,136.9z"/>
	<path class="st0" d="M326.9,135.4L326.9,135.4C326.9,135.3,326.9,135.3,326.9,135.4l0.1-0.1l0,0l0,0c0,0,0,0,0,0l0,0c0,0,0,0,0,0
		c0,0,0,0,0,0c0,0,0,0,0,0c0,0,0,0,0,0c0,0,0,0,0,0c0,0,0,0,0,0c0,0,0,0,0,0c0,0,0,0,0,0c0,0,0,0,0,0c0,0,0,0,0,0c0,0,0,0,0,0
		c0,0,0,0,0,0l-1.4-7.8l4.5,2.3l0,0c0,0,0.1-0.1,0.1-0.1c0,0,0,0,0.1-0.1l-5.1-2.6l1.6,9C326.8,135.5,326.9,135.4,326.9,135.4
		C326.9,135.4,326.9,135.4,326.9,135.4z"/>
	<path class="st0" d="M327.9,136.5l-0.1-0.6l0,0l0,0l0,0l0,0l0,0l0,0l0,0l0,0l0,0l0,0l0,0l0,0l0,0c0,0-0.1,0.1-0.1,0.1l0.1,0.8
		C327.9,136.5,328,136.4,327.9,136.5C327.8,136.5,327.8,136.5,327.9,136.5z"/>
	<path class="st0" d="M327.2,134.9L327.2,134.9L327.2,134.9C327.2,134.8,327.2,134.8,327.2,134.9l0.1-0.1l0,0l0,0l0,0l0,0l0,0l0,0
		l0,0l0,0l0,0l0,0c0,0,0,0,0,0l0,0l-1.2-6.7l3.8,2c0,0,0.1-0.1,0.1-0.1c0,0,0.1-0.1,0.1-0.1l-4.5-2.3L327.2,134.9z"/>
	<path class="st0" d="M327.5,134.2C327.5,134.2,327.5,134.2,327.5,134.2C327.6,134.2,327.6,134.1,327.5,134.2
		c0.1-0.1,0.1-0.1,0.1-0.1c0,0,0,0,0,0c0,0,0,0,0,0c0,0,0.1-0.1,0.1-0.2l-1-5.6l3.2,1.6c0,0,0.1-0.1,0.1-0.1c0,0,0.1-0.1,0.1-0.1
		l0,0l-3.8-2l1.2,6.7l0,0C327.5,134.3,327.5,134.2,327.5,134.2z"/>
	<path class="st0" d="M328,136.5l0.2-0.3l0,0l-0.1-0.7c0,0,0,0,0,0c0,0-0.1,0.1-0.1,0.1l0,0c0,0,0,0,0,0c0,0,0,0,0,0c0,0,0,0,0,0
		c0,0,0,0,0,0l0,0l0,0l0,0l0,0L328,136.5C328.1,136.5,328.1,136.5,328,136.5L328,136.5z"/>
	<path class="st0" d="M328.6,135.8l-0.1-0.7l0,0c0,0-0.1,0.1-0.1,0.2c0,0-0.1,0.1-0.1,0.1c0,0,0,0-0.1,0.1l0.1,0.7
		C328.3,136,328.4,135.9,328.6,135.8z"/>
	<path class="st0" d="M327.3,128.7l2.5,1.3c0,0,0,0,0,0c0,0,0,0,0.1-0.1c0,0,0,0,0.1-0.1l0,0l-3.2-1.6l1,5.6
		c0.1-0.2,0.2-0.4,0.3-0.5L327.3,128.7z"/>
	<path class="st0" d="M328.6,135.8C328.6,135.8,328.6,135.7,328.6,135.8C328.6,135.8,328.6,135.8,328.6,135.8
		C328.6,135.8,328.6,135.8,328.6,135.8L328.6,135.8L328.6,135.8C328.6,135.8,328.6,135.8,328.6,135.8c0.1-0.1,0.1-0.1,0.1-0.1
		c0,0,0,0,0,0c0,0,0,0,0,0c0,0,0,0,0,0c0,0,0,0,0,0c0,0,0,0,0,0c0,0,0,0,0,0c0,0,0,0,0,0l0,0l-0.1-0.8l-0.1,0.1c0,0-0.1,0.1-0.1,0.2
		c0,0-0.1,0.1-0.1,0.1L328.6,135.8L328.6,135.8L328.6,135.8z"/>
	<path class="st0" d="M327.7,129.2l2.2,1.1l0,0c0,0,0-0.1-0.1-0.1c0,0-0.1-0.1-0.1-0.1l0,0l0,0l-2.5-1.3l0.8,4.6
		c0.1-0.2,0.2-0.3,0.3-0.5L327.7,129.2z"/>
	<path class="st0" d="M328.4,132.7c0.1-0.2,0.2-0.4,0.3-0.5l-0.5-2.5l1.9,1c0,0,0,0,0,0c0,0-0.1-0.1-0.1-0.1c0,0-0.1-0.1-0.1-0.1
		c0,0,0-0.1-0.1-0.1l-2.2-1.1L328.4,132.7z"/>
	<path class="st0" d="M328.9,135.4L328.9,135.4C328.9,135.3,328.9,135.3,328.9,135.4c0.1-0.1,0.1-0.1,0.1-0.1c0,0,0,0,0,0
		c0,0,0,0,0,0c0,0,0,0,0,0c0,0,0,0,0,0c0,0,0,0,0,0c0,0,0,0,0,0l-0.1-0.8l0,0c0,0,0,0,0,0c0,0,0,0,0,0c0,0,0,0,0,0c0,0,0,0,0,0
		c0,0,0,0,0,0c0,0,0,0,0,0c0,0,0,0,0,0c0,0,0,0,0,0l0,0l0,0l0,0l0,0L328.9,135.4C328.8,135.5,328.8,135.4,328.9,135.4
		C328.8,135.4,328.9,135.4,328.9,135.4z"/>
	<path class="st0" d="M328.8,132.1L328.8,132.1L328.8,132.1l0.1,0.1l0,0l0,0l0,0l0,0l-0.4-2.2l1.7,0.9c0,0,0,0,0,0
		c0,0-0.1-0.1-0.1-0.2s0-0.1-0.1-0.1l-1.9-1l0.5,2.5C328.7,132.1,328.7,132,328.8,132.1C328.7,132,328.7,132.1,328.8,132.1z"/>
	<path class="st0" d="M329.2,135C329.2,135,329.2,134.9,329.2,135C329.2,134.9,329.2,134.9,329.2,135c0.1-0.1,0.1-0.1,0.1-0.1l0,0
		l0,0l0,0l0,0l-0.1-0.8l0,0l0,0c0,0,0,0,0,0c0,0,0,0,0,0c0,0,0,0,0,0c0,0,0,0,0,0c0,0,0,0,0,0c0,0,0,0,0,0l0.1,0.8l0,0
		C329.1,135,329.2,135,329.2,135z"/>
	<path class="st0" d="M329,132.4C329.1,132.4,329.1,132.5,329,132.4C329.1,132.5,329.1,132.5,329,132.4l0.1,0.1l0,0l0,0l0,0l0,0l0,0
		l-0.4-2.1l1.5,0.8c0,0,0-0.1-0.1-0.1c0,0-0.1-0.1-0.1-0.2l-1.7-0.9l0.4,2.2C329,132.4,329,132.4,329,132.4
		C329,132.4,329,132.4,329,132.4z"/>
	<path class="st0" d="M329.4,134.6C329.4,134.6,329.5,134.6,329.4,134.6c0.1-0.1,0.1-0.1,0.1-0.2c0,0,0,0,0.1-0.1c0,0,0,0,0.1-0.1
		c0,0,0,0,0.1-0.1l0,0l-0.1-0.8l0,0c0,0,0,0-0.1,0.1c0,0,0,0-0.1,0.1c0,0,0,0-0.1,0.1l0,0l0,0l0,0l0,0L329.4,134.6
		C329.4,134.6,329.4,134.6,329.4,134.6z"/>
	<path class="st0" d="M329.8,134C329.8,134,329.8,134,329.8,134c0.1-0.1,0.1-0.2,0.1-0.2c0,0,0.1-0.1,0.1-0.1l0,0l-0.5-2.6l1.2,0.6
		c0,0,0-0.1,0-0.1c0,0,0-0.1-0.1-0.1l-1.5-0.8l0.4,2.1l0,0l0,0l0,0c0,0,0,0,0,0c0,0,0,0,0.1,0.1c0,0,0,0,0.1,0l0,0c0,0,0,0-0.1,0.1
		c0,0,0,0-0.1,0.1c0,0,0,0-0.1,0.1c0,0,0,0-0.1,0.1l0,0l0.1,0.8c0,0,0,0,0.1-0.1C329.7,134.1,329.7,134.1,329.8,134z"/>
	<path class="st0" d="M329.9,133.7C329.9,133.7,330,133.7,329.9,133.7c0.1-0.1,0.1-0.2,0.1-0.2c0,0,0.1-0.1,0.1-0.1
		c0,0,0.1-0.1,0.1-0.1l0,0l-0.3-1.7l0.8,0.4c0-0.1,0-0.2-0.1-0.3l-1.2-0.6L329.9,133.7z"/>
	<path class="st0" d="M330.3,133C330.3,132.9,330.3,132.9,330.3,133C330.3,132.9,330.3,132.9,330.3,133l0.1-0.1l-0.2-0.8l0.4,0.2
		c0-0.1,0-0.2,0-0.2l-0.8-0.4l0.3,1.7c0,0,0.1-0.1,0.1-0.1C330.3,133.1,330.3,133,330.3,133z"/>
	<path class="st0" d="M330.4,132.8L330.4,132.8c0,0,0.1-0.1,0.1-0.1c0,0,0.1-0.1,0.1-0.1c0,0,0.1-0.1,0.1-0.1l0,0l0,0c0,0,0,0,0,0
		c0,0,0-0.1,0-0.2l-0.4-0.2L330.4,132.8z"/>
	<path class="st0" d="M330.6,132.5L330.6,132.5L330.6,132.5L330.6,132.5z"/>
</g>
<g>
	<path class="st1" d="M285.5-5.2c-0.1-0.2,0-0.4,0-0.4l-0.3,1.9l0.6,0.1C285.7-4.3,285.6-4.8,285.5-5.2z"/>
	<path class="st1" d="M285.2-1.3c0,0-0.3,0.5-0.3,1c0,0.1,0,0.3,0,0.4l2,0.3c-0.2-0.5-0.2-1-0.4-1.6c-0.1-0.2-0.1-0.3-0.1-0.5
		l-1.5-0.2C284.9-1.6,285-1.4,285.2-1.3z"/>
	<path class="st1" d="M305.6,4.9c-0.2-0.1-0.4-0.2-0.5-0.3c-0.2-0.1-0.4-0.2-0.6-0.3c-0.2-0.1-0.4-0.2-0.6-0.3
		c-0.2,0-0.4-0.2-0.7-0.2c-0.2,0-0.5-0.1-0.7-0.2c-0.3,0-0.4-0.1-0.7-0.1c-0.3,0-0.5,0.1-0.7,0.1c-0.2,0.1-0.5,0.2-0.7,0.3
		c-0.1,0-0.2,0.2-0.3,0.2l6.1,1C306,5.2,305.8,5.1,305.6,4.9z"/>
	<path class="st1" d="M285.4,0.9c0,0,0,0.1,0,0.4c0,0.2,0,0.4-0.1,0.6l2,0.4c-0.1-0.7-0.3-1.3-0.5-2l-2-0.3
		C284.9,0.4,285.1,0.7,285.4,0.9z"/>
	<path class="st1" d="M299,6l14.5,2.2c-0.3-0.5-0.7-1-1.2-1.2c-0.2-0.2-0.5-0.3-0.8-0.4c-0.2-0.1-0.5-0.1-0.8-0.3
		c-0.2,0-0.5-0.1-0.7-0.2c-0.2,0-0.4-0.1-0.6-0.1c-0.2,0-0.4-0.1-0.6-0.1c-0.2,0-0.3,0-0.5,0c-0.2,0-0.3,0-0.5,0c-0.3,0-0.4,0-0.5,0
		c-0.2,0.1-0.3,0-0.3,0s-0.1-0.1-0.3-0.2c-0.1-0.1-0.3-0.2-0.5-0.3c0,0,0,0-0.1-0.1l-6.1-1c-0.2,0.2-0.4,0.3-0.6,0.6
		C299.3,5.2,299.1,5.5,299,6z"/>
	<path class="st1" d="M274.7,87.3c0,0.4,0,0.8,0,1.2c0,0.7-0.1,1.3,0,2c-0.1,0.6,0,1.3-0.1,1.9c0,0.6,0,1.2,0,1.8c0,0.4,0,0.7,0,1.1
		l1.8-5.3L274.7,87.3z"/>
	<path class="st1" d="M285.3,2.8c0.1,0.5,0.3,0.9,0.9,0.9c0,0,0,0.1-0.1,0.2l1.6,0.3c0-0.1-0.1-0.2-0.1-0.3c-0.2-0.5-0.2-1-0.4-1.6
		l0,0l-2-0.4C285.3,2.3,285.3,2.5,285.3,2.8z"/>
	<path class="st1" d="M286,4.4c-0.1,0.3-0.1,0.8,0.1,1.3l2.2,0.3c-0.1-0.2-0.1-0.4-0.2-0.5c-0.1-0.4-0.2-0.8-0.3-1.3l-1.6-0.3
		C286.1,4.1,286,4.2,286,4.4z"/>
	<path class="st1" d="M298.6,7.6l15.5,2.4c0-0.4-0.2-0.8-0.3-1.1l-0.3-0.5c0-0.1,0-0.1-0.1-0.2L298.9,6C298.8,6.4,298.6,7,298.6,7.6
		z"/>
	<path class="st1" d="M274.6,97.6c0,0.5,0,1,0.1,1.6c0,0.5,0.1,1,0.1,1.5c0,0.1,0,0.2,0,0.3l3.9-11.5l-3.7-6.3c0,0.3,0,0.5-0.1,0.8
		c0,0.7-0.1,1.5-0.1,2.2c0,0.3-0.1,0.6,0,0.9l1.6,2.8l-1.8,5.3c0,0.2,0,0.4,0,0.6C274.5,96.5,274.5,97.1,274.6,97.6z"/>
	<path class="st1" d="M270.1,74C270.1,74.1,270.1,74.1,270.1,74C270.1,74.1,270.2,74.1,270.1,74c0.1,0,0.2-0.1,0.2-0.2
		C270.3,74,270.2,74,270.1,74z"/>
	<path class="st1" d="M274.4,78.6c0.1,0.6,0.2,1.1,0.3,1.5l0.5-0.9l-0.8-1.4C274.4,78,274.4,78.3,274.4,78.6z"/>
	<path class="st1" d="M287.6,7.3l0.1,0.3l1,0.2c-0.1-0.3-0.2-0.5-0.2-0.8c-0.1-0.3-0.2-0.6-0.2-0.9l-2.2-0.3l0,0.1
		C286.3,6.4,286.7,6.9,287.6,7.3z"/>
	<path class="st1" d="M314.1,11.7c0.1-0.3,0.1-0.6,0.1-0.8c0-0.3,0-0.6,0-0.8l-15.5-2.4c-0.1,0.5-0.1,1-0.2,1.7L314.1,11.7z"/>
	<path class="st1" d="M274.7,101c0,0.4,0,0.7,0.1,1.1c0.1,0.5,0,0.9,0.1,1.4c0,0.4,0,0.9,0.1,1.3s0.1,0.8,0.1,1.3l5.9-16.9l-5.6-9.5
		c0,0.7-0.1,1.4-0.2,2.2c0,0.5-0.1,1-0.1,1.6l3.7,6.3L274.7,101z"/>
	<path class="st1" d="M271.1,72.7c-0.2,0.3-0.3,0.5-0.4,0.7c-0.1,0.2-0.2,0.4-0.3,0.5c0.2-0.1,0.4-0.2,0.7-0.3
		c0.2-0.1,0.5-0.2,0.7-0.2l-0.6-0.9C271.2,72.5,271.1,72.6,271.1,72.7z"/>
	<path class="st1" d="M288.4,9.4l1.6,0.3c0-0.3-0.2-0.5-0.4-0.6c0.1,0,0.1-0.1,0.1-0.1l-1-0.5c-0.1-0.2-0.1-0.4-0.2-0.6l-1-0.2
		l0.1,0.3L288.4,9.4z"/>
	<path class="st1" d="M275.1,106.9c0,0.2,0.1,0.5,0,0.7c0,0.2,0.1,0.5,0,0.7s0.1,0.5,0,0.7c0,0.1,0,0.2,0,0.3c0,0,0.1,0.2,0,0.4
		c0,0.1,0.1,0.3,0.1,0.5l7.5-21.7L274,73.2c0,0.2,0,0.5,0,0.8s0,0.6,0,0.9s0,0.6,0,0.9c0,0.3,0,0.6,0.1,1c0,0.3,0,0.7,0.1,1
		c0,0.1,0,0.1,0.1,0.2l0.8,1.4l0.1-0.2c0,0.1,0,0.2,0,0.4l5.6,9.5l-5.9,16.9c0,0.1,0,0.2,0,0.3C275.1,106.4,275,106.6,275.1,106.9z"
		/>
	<path class="st1" d="M273.3,72.7c0.2-0.1,0.4-0.1,0.5-0.2l-1.4-2.5c-0.1,0.2-0.1,0.3-0.3,0.5c-0.1,0.2-0.2,0.5-0.3,0.6
		c-0.1,0.2-0.2,0.5-0.4,0.7c0,0.1-0.1,0.2-0.2,0.4l0.6,0.9c0.2-0.1,0.3-0.1,0.5-0.2C272.6,73,272.9,72.9,273.3,72.7z"/>
	<path class="st1" d="M313.8,13.3c0-0.1,0.1-0.3,0.1-0.4c0.1-0.3,0.1-0.6,0.2-0.9c0-0.1,0-0.1,0-0.2l-15.6-2.5c0,0.5,0,1.1,0,1.7
		L313.8,13.3z"/>
	<path class="st1" d="M288.7,10l-0.7,0.4l-0.5,0.4l0,0.1l2.4,0.4c0.1-0.3,0.1-0.6,0.1-0.9c0-0.2,0-0.4,0-0.6l-1.6-0.3l0,0.1
		L288.7,10z"/>
	<path class="st1" d="M275.7,111.2c0.1,0.3,0.1,0.5,0.2,0.8c0.1,0.3,0.1,0.6,0.2,0.8s0.1,0.6,0.2,0.8c0,0,0,0,0,0.1l8.9-25.7
		l-11.6-20c0,0.1-0.1,0.2-0.1,0.3c-0.1,0.2-0.2,0.4-0.3,0.6c-0.1,0.2-0.2,0.4-0.3,0.6c-0.1,0.2-0.2,0.4-0.3,0.6l0,0.1l1.4,2.5
		c0.2-0.1,0.3-0.1,0.3-0.1s0,0.2,0,0.6c0,0,0,0,0,0.1l8.9,15.3l-7.5,21.7c0,0.1,0.1,0.2,0,0.3C275.6,110.6,275.7,110.9,275.7,111.2z
		"/>
	<path class="st1" d="M298.5,11c0,0-0.2,0.1-0.3,0.2c-0.2,0.2-0.5,0.4-0.9,0.7c-0.1,0.1-0.3,0.2-0.4,0.3l16.3,2.6
		c0.1-0.2,0.1-0.3,0.2-0.6c0.1-0.2,0.2-0.5,0.2-0.7c0-0.1,0-0.2,0.1-0.3L298.5,11C298.5,10.9,298.5,11,298.5,11z"/>
	<path class="st1" d="M295.7,13.7l17.7,2.7c-0.3-0.5-0.4-0.8-0.4-0.8l0-0.1c0.1-0.2,0.1-0.3,0.2-0.6l0-0.1l-16.3-2.6
		c-0.1,0.1-0.3,0.3-0.5,0.5C296.2,13,295.9,13.3,295.7,13.7z"/>
	<path class="st1" d="M276.5,115.4c0.1,0.3,0.1,0.6,0.2,0.9c0.1,0.3,0.1,0.5,0.2,0.8l10.2-29.5l-12.6-21.7c0,0.1-0.1,0.2-0.2,0.3
		c-0.1,0.1-0.1,0.3-0.3,0.5c-0.1,0.1-0.1,0.3-0.3,0.5c-0.1,0.2-0.1,0.3-0.2,0.6c0,0.1-0.1,0.1-0.1,0.2l11.6,20l-8.8,25.8
		c0.1,0.3,0.1,0.6,0.2,0.8C276.4,114.8,276.5,115.1,276.5,115.4z"/>
	<path class="st1" d="M287.5,11.5l0,0.9l2.1,0.3c0.1,0,0-0.1,0.1-0.1c0,0,0,0,0-0.1c0-0.2,0.2-0.6,0.3-1c0-0.1,0-0.1,0-0.2l-2.4-0.4
		l0,0.5L287.5,11.5z"/>
	<path class="st1" d="M323.9,19L323.9,19c0.1,0,0.1,0,0.2,0l5.5-7.7l-0.1-0.1l0,0l0.3-1.7l0.1-0.9c0,0.2-0.5,1.1-1.4,2.1
		c-1,1.4-2.4,3.4-3.8,5.1c-0.2,0.3-0.3,0.5-0.6,0.7c-0.2,0.3-0.4,0.4-0.6,0.7c-0.2,0.3-0.4,0.4-0.5,0.7c-0.2,0.3-0.4,0.4-0.5,0.7
		c-0.2,0.3-0.4,0.4-0.5,0.7c-0.1,0,0,0.1-0.1,0.1l1.1,0.2L323.9,19z"/>
	<path class="st1" d="M287.5,12.4l-0.2,1.1c0,0.1,0,0.2,0,0.4l1.4,0.2c0.2-0.3,0.2-0.6,0.4-0.7c0.1-0.2,0.3-0.4,0.4-0.5L287.5,12.4
		L287.5,12.4z"/>
	<path class="st1" d="M294.5,14.9l19.5,3c-0.3-0.7-0.6-1.2-0.7-1.6l-17.7-2.7c-0.1,0-0.1,0.1-0.1,0.1
		C295.2,14.1,294.9,14.5,294.5,14.9z"/>
	<path class="st1" d="M277.1,118.2c0.1,0.4,0.1,0.7,0.2,1c0.1,0.3,0.2,0.5,0.2,0.9l11.4-33l-13.5-23.3l0,0c0,0.1-0.2,0.3-0.2,0.5
		c0,0.1-0.1,0.3-0.2,0.5s-0.1,0.3-0.2,0.5c-0.1,0.1-0.1,0.3-0.3,0.5c0,0.1,0,0.1-0.1,0.2l12.6,21.7l-10.2,29.5c0,0.1,0,0.1,0.1,0.2
		C277,117.5,277.1,117.9,277.1,118.2z"/>
	<path class="st1" d="M287,15.2l1.1,0.2c0-0.1,0.1-0.3,0.1-0.4c0.1-0.3,0.2-0.6,0.3-0.9l0,0l-1.4-0.2c0,0.2,0,0.4-0.1,0.6
		C287.1,14.6,287.1,14.9,287,15.2z"/>
	<path class="st1" d="M326.3,17.1c0.1-0.3,0.1-0.6,0.1-0.6c0.1,0.1,0.3,0.1,0.4,0.2c0.4,0.1,0.7-0.4,0.9-0.9
		c0.2-0.6,0.3-1.2,0.3-1.2c0.9,0.1,1-0.8,1-1.4c0-0.3,0-0.4,0-0.4c0.3-0.1,0.8-0.5,1.2-0.7c0.2-0.2,0.3-0.3,0.3-0.3l0,0l-0.7-0.4
		l-5.5,7.7C325.7,19.2,326.2,18,326.3,17.1z"/>
	<path class="st1" d="M294,15.7c-0.1,0.1-0.2,0.4-0.4,0.5l21,3.2c-0.2-0.5-0.4-1.1-0.6-1.5l-19.5-3c0,0,0,0-0.1,0
		C294.3,15.2,294.2,15.4,294,15.7z"/>
	<path class="st1" d="M278,121.2c0.1,0.4,0.2,0.7,0.4,1.1c0.1,0.2,0.1,0.4,0.2,0.5L291,86.6l-14.4-24.8c0,0.1-0.1,0.2-0.2,0.4
		c0,0.1-0.1,0.2-0.2,0.4c0,0.1-0.1,0.2-0.2,0.4c0,0.1-0.2,0.3-0.2,0.4c0,0.1-0.2,0.3-0.2,0.4L289,87l-11.4,33l0,0.1
		C277.7,120.5,277.8,120.8,278,121.2z"/>
	<path class="st1" d="M321.9,19.8c-0.2-0.3-0.3-0.5-0.5-0.7c-0.1-0.2-0.3-0.1-0.4,0.1c-0.1,0.1-0.2,0.5-0.3,0.8
		c0,0.1-0.1,0.2-0.1,0.3l1.4,0.2l0-0.1l0.3-0.2l0.5-0.5l0.5-0.5l0,0l-1.1-0.2c-0.2,0.3-0.3,0.4-0.4,0.4
		C322,19.8,321.9,19.8,321.9,19.8z"/>
	<path class="st1" d="M320.6,21.1c-0.1,0.3-0.1,0.5-0.1,0.7l2.3,0.3l0-0.2l-0.8-1.4l-1.4-0.2C320.6,20.6,320.6,20.9,320.6,21.1z"/>
	<path class="st1" d="M292.9,17.3c0,0.1-0.1,0.1-0.2,0.3l22.4,3.5c-0.1-0.2-0.1-0.4-0.2-0.5c-0.1-0.4-0.2-0.6-0.3-0.9l-21-3.2
		c0,0.1-0.1,0.1-0.2,0.3C293.2,16.7,293.1,17,292.9,17.3z"/>
	<path class="st1" d="M278.4,122.8c0.1,0.2,0.1,0.4,0.2,0.5c0.1,0.4,0.2,0.7,0.4,1.1c0.1,0.3,0.2,0.5,0.3,0.7l13.5-39l-16.2-28
		c0,0.1,0,0.1,0,0.2c0,0.2,0,0.4,0,0.6c0,0.2,0,0.4,0,0.6c0,0.2,0,0.4,0.1,0.6s0.1,0.4,0.3,0.5c0,0.1,0.1,0.1,0.1,0.1
		s-0.1,0.2-0.3,0.5c0,0.1-0.1,0.3-0.2,0.6l14.4,24.8L278.4,122.8z"/>
	<path class="st1" d="M286.9,16.3c0,0.1,0,0.2-0.1,0.3l1,0.2c0.1-0.3,0.1-0.6,0.1-0.9c0-0.1,0.1-0.3,0.1-0.4l-1.1-0.2
		c0,0,0,0.1,0,0.1C287,15.7,287,16,286.9,16.3z"/>
	<path class="st1" d="M320.4,22.3c0.1,0.3,0.2,0.5,0.3,0.9l1.8,0.3l0.3-0.8l0,0l0.1-0.4l-2.3-0.3C320.5,22.1,320.5,22.2,320.4,22.3
		C320.5,22.3,320.4,22.3,320.4,22.3z"/>
	<path class="st1" d="M280.1,126.7c0.1,0.2,0.2,0.2,0.3,0.3l14.2-41.3l-17.7-30.6c0,0.1-0.1,0.3,0,0.4c0,0.2,0,0.5-0.1,0.7
		c0,0.2,0,0.5,0,0.7c0,0.2,0,0.4,0,0.7c0,0.2,0,0.3,0,0.5l16.2,28l-13.5,39c0,0.1,0.1,0.3,0.1,0.4
		C279.6,126,279.8,126.3,280.1,126.7z"/>
	<path class="st1" d="M286.8,17.9l1,0.2c0-0.1,0-0.3,0-0.4c0-0.3,0.1-0.6,0-0.9l0,0l-1-0.2c0,0.2,0,0.4-0.1,0.6
		C286.8,17.4,286.8,17.7,286.8,17.9z"/>
	<path class="st1" d="M292,18.7l23.5,3.7c-0.1-0.5-0.2-1-0.4-1.4l-22.4-3.5c-0.1,0.1-0.2,0.4-0.3,0.5
		C292.3,18.3,292.2,18.5,292,18.7z"/>
	<path class="st1" d="M281.3,127.5L281.3,127.5l0.3-0.1c0,0,0,0.1,0.1,0.2l14.5-42.2l-17.4-30c0,0.1,0,0.2-0.1,0.2l-0.3,0.1
		c-0.1-0.2,0-0.4,0-0.7c0-0.1,0-0.2,0-0.4l-1.3-2.2c0,0.2-0.1,0.5-0.1,0.8c0,0.2-0.1,0.5-0.1,0.8c0,0.2-0.1,0.5-0.1,0.7
		c0,0.1,0,0.2-0.1,0.3l17.7,30.6L280.2,127C280.6,127.4,280.9,127.6,281.3,127.5z"/>
	<path class="st1" d="M291.6,19.6c0,0.1-0.2,0.3-0.2,0.4l24.5,3.8c-0.1-0.4-0.2-0.8-0.3-1.1c0-0.1-0.1-0.2-0.1-0.3L292,18.7
		c0,0,0,0,0,0.1C291.8,19.1,291.7,19.3,291.6,19.6z"/>
	<path class="st1" d="M286.7,18.9c0,0.1,0,0.2,0,0.3l1.1,0.2c0-0.3,0-0.5,0-0.8c0-0.2,0-0.3,0-0.5l-1-0.2c0,0.1,0,0.1,0,0.2
		C286.7,18.4,286.8,18.7,286.7,18.9z"/>
	<path class="st1" d="M320.9,24.3c0,0.1,0,0.2,0,0.3l1.3,0.2c0-0.1,0-0.2,0.1-0.2c0.1-0.4,0.1-0.7,0.1-0.7l0.1-0.2l0,0l-1.8-0.3
		C320.8,23.6,320.8,24,320.9,24.3z"/>
	<path class="st1" d="M286.7,20.5l1.2,0.2c0-0.1-0.1-0.2,0-0.3c0-0.3-0.1-0.6-0.1-1l0-0.1l-1.1-0.2c0,0.2,0,0.4,0,0.6
		C286.7,20,286.8,20.3,286.7,20.5z"/>
	<path class="st1" d="M290.8,21l0,0.1l25.3,4c-0.1-0.2-0.1-0.5-0.1-0.7c-0.1-0.2-0.1-0.5-0.1-0.7L291.3,20c0,0.1-0.1,0.2-0.1,0.3
		C291,20.6,290.9,20.8,290.8,21z"/>
	<path class="st1" d="M278.5,53.6c0-0.3,0-0.5,0-0.8c0-0.3,0.1-0.6,0.1-0.8c0-0.1,0-0.2,0-0.3l-1.1-1.8c0,0.2,0,0.4,0,0.6
		c0,0,0,0.1,0,0.2c0,0.2-0.1,0.5-0.2,0.9c0,0.2-0.1,0.5-0.2,0.9l0,0l1.3,2.2c0-0.1,0-0.2,0-0.4C278.5,54.1,278.5,53.8,278.5,53.6z"
		/>
	<path class="st1" d="M282.8,128.8L297.9,85l-18.4-31.9c0,0,0,0.1,0,0.1c-0.1,0.3-0.2,0.6-0.3,0.8c-0.1,0.3-0.2,0.6-0.3,0.8
		c0,0.2-0.1,0.3-0.2,0.6l17.4,30l-14.5,42.2c0.1,0.2,0.4,0.6,0.7,1C282.5,128.6,282.7,128.6,282.8,128.8z"/>
	<path class="st1" d="M320.9,25.9l1.1,0.2c0-0.2,0.1-0.3,0.1-0.5c0.1-0.2,0.1-0.5,0.1-0.7l-1.3-0.2c0,0.4,0,0.7,0,1
		C320.9,25.7,320.9,25.8,320.9,25.9z"/>
	<path class="st1" d="M320.7,27l1,0.2c0.1-0.3,0.2-0.6,0.2-0.9c0-0.1,0.1-0.2,0.1-0.3l-1.1-0.2c0,0.2-0.1,0.5-0.1,0.7
		C320.7,26.7,320.7,26.9,320.7,27z"/>
	<path class="st1" d="M284,129.3c0,0,0.1,0,0.1,0.1l15.4-44.8L280.1,51c0,0.2-0.1,0.3-0.2,0.6c-0.1,0.3-0.2,0.6-0.2,0.9
		c-0.1,0.2-0.2,0.6-0.2,0.8l18.4,31.9l-15.2,43.7C283.1,129,283.5,129.1,284,129.3z"/>
	<path class="st1" d="M278.7,50.9c-0.1-0.2-0.1-0.4-0.1-0.6c0-0.3,0-0.6,0-0.9s0.1-0.6,0-0.9l0,0l-0.9-1.6l0,0
		c-0.1,0.3-0.1,0.6-0.1,1c0,0.3-0.1,0.6,0,0.9s0,0.6,0,0.9l0,0l1.1,1.8c0-0.2,0-0.4,0.1-0.5C278.7,51,278.7,50.9,278.7,50.9z"/>
	<path class="st1" d="M286.8,21.6c0,0.1,0.1,0.2,0,0.2l3,0.4l-0.8-0.4l-0.9-0.5c-0.1-0.2,0-0.4-0.1-0.7l-1.2-0.2c0,0.1,0,0.1,0,0.2
		C286.7,21,286.8,21.3,286.8,21.6z"/>
	<path class="st1" d="M290.5,21.7c-0.1,0.2-0.1,0.3-0.2,0.6l26.1,4c-0.1-0.2,0-0.3-0.1-0.5c0-0.3-0.1-0.6-0.2-0.8l-25.3-4
		C290.7,21.4,290.6,21.5,290.5,21.7z"/>
	<path class="st1" d="M278.8,46.5c0-0.2,0-0.4,0.1-0.6l-0.8-1.4c0,0.1,0,0.2-0.1,0.2c-0.1,0.3-0.1,0.7-0.3,1.1
		c-0.1,0.3-0.1,0.6-0.2,1l0.9,1.6c0-0.3,0.1-0.6,0.1-0.9C278.8,47.3,278.8,46.8,278.8,46.5z"/>
	<path class="st1" d="M320.4,28.1C320.4,28.2,320.4,28.2,320.4,28.1l1,0.2c0-0.1,0.1-0.2,0.1-0.3c0.1-0.2,0.2-0.6,0.2-0.8l0,0
		l-1-0.2c0,0.1-0.1,0.2-0.1,0.3C320.5,27.7,320.5,27.9,320.4,28.1z"/>
	<path class="st1" d="M289.8,22.3l-3-0.4c0,0.2,0,0.4,0.1,0.7c0.1,0.2,0,0.4,0.1,0.6l29.4,4.6c0-0.1,0-0.3,0-0.4
		c0-0.3-0.1-0.6-0.1-0.9l-26.1-4l0,0.1L289.8,22.3z"/>
	<path class="st1" d="M301.1,84.2l-20.4-35.2c-0.1,0.2-0.2,0.6-0.2,0.8c-0.1,0.3-0.1,0.6-0.3,0.9c0,0.1-0.1,0.2-0.1,0.4l19.4,33.5
		l-15.4,44.8c0.4,0.1,1,0.1,1.5-0.1L301.1,84.2z"/>
	<path class="st1" d="M279.4,43.7l-0.6-1.1c-0.1,0.2-0.2,0.5-0.3,0.8c-0.1,0.3-0.2,0.8-0.3,1.2L279,46c0-0.1,0.1-0.3,0.1-0.4
		C279.1,44.8,279.3,44.2,279.4,43.7z"/>
	<path class="st1" d="M286.5,129.7c0,0.1,0.1,0.1,0.1,0.2c0,0,0,0,0.1,0.1l15.9-46.1l-21.3-36.9c-0.1,0.2-0.2,0.6-0.3,0.8
		c-0.1,0.3-0.2,0.7-0.3,1c0,0.1,0,0.1,0,0.2l20.4,35.2l-15.5,45c0.1,0,0.2-0.1,0.3-0.1C286.1,129.3,286.3,129.5,286.5,129.7z"/>
	<path class="st1" d="M320,29.4l1.1,0.2c0.1-0.2,0.1-0.4,0.2-0.7c0-0.1,0.1-0.3,0.1-0.4l-1-0.2c-0.1,0.2-0.1,0.4-0.2,0.6
		C320.1,29,320,29.2,320,29.4z"/>
	<path class="st1" d="M287.4,24.2L287.4,24.2l29.1,4.6c0-0.1,0-0.3,0-0.4c0-0.3-0.1-0.6-0.1-0.9L286.9,23c0,0.1,0.1,0.2,0.1,0.3
		C287.2,23.6,287.3,24,287.4,24.2z"/>
	<path class="st1" d="M319.7,30c0,0.1-0.2,0.3-0.2,0.4l1.3,0.2c0-0.1,0.1-0.2,0.1-0.3c0.1-0.2,0.1-0.4,0.2-0.7l0,0l-1.1-0.2l0,0.1
		C319.8,29.6,319.7,29.9,319.7,30z"/>
	<path class="st1" d="M316.9,30l-0.2-0.4c0-0.3-0.1-0.5,0-0.7l-29.1-4.6l1.3,1.4L316.9,30z"/>
	<path class="st1" d="M279.4,43.6c0.1-0.5,0.2-1,0.3-1.1l0,0c0.1,0.2,0.5,0.2,0.9,0.3l-1.2-2.1c-0.1,0.2-0.1,0.5,0,0.9
		c0,0,0,0,0,0.1s-0.2,0.5-0.3,0.8l0,0.1l0.6,1.1C279.4,43.6,279.4,43.6,279.4,43.6z"/>
	<path class="st1" d="M287.9,130.5l16.2-47L281.8,45c-0.2,0.6-0.3,1.1-0.5,1.8c0,0.1,0,0.1-0.1,0.2l21.3,36.9L286.7,130
		C287.1,130.2,287.5,130.5,287.9,130.5z"/>
	<path class="st1" d="M281.5,42.9l0.6,1.1c-0.1,0.2-0.2,0.6-0.3,0.9l0,0.1L304,83.5l-16.2,47c0.1,0,0.2,0,0.2,0c0.4,0.1,0.8,0,1,0
		l16.3-47.5l-25.3-43.7c-0.2,0.1-0.4,0.2-0.5,0.4c-0.2,0.2-0.3,0.4-0.4,0.6l0,0.1l1.2,2.1c0.1,0,0.1,0.1,0.2,0
		C281,42.8,281.2,42.9,281.5,42.9z"/>
	<path class="st1" d="M288.7,26.2c0,0.1-0.1,0.2-0.1,0.4l31.8,5c0-0.1,0-0.1,0.1-0.2c0.1-0.2,0.1-0.3,0.2-0.6c0-0.1,0-0.1,0.1-0.2
		l-1.3-0.2l0,0.1c-0.1,0.1-0.1,0.3-0.3,0.5c-0.2,0.3-0.2,0.4-0.3,0.4l0,0l-0.5-0.1l-0.6-0.1l-0.5-0.1l-0.4-0.9l-28.1-4.4l0,0.1
		C288.8,25.9,288.7,26.1,288.7,26.2z"/>
	<path class="st1" d="M288.3,27.5c0,0.1,0,0.2-0.1,0.2l31.6,5c0.1,0,0-0.1,0.1-0.1c0.1-0.1,0.1-0.3,0.3-0.5c0-0.1,0.1-0.2,0.1-0.3
		l-31.8-5c0,0.1,0,0.1,0,0.2C288.4,27,288.3,27.3,288.3,27.5z"/>
	<path class="st1" d="M290.3,130.1c0,0.1,0.2,0.2,0.2,0.3L307,82.9L281.6,39l0,0c-0.2,0.1-0.4,0.1-0.6,0.2c-0.2,0.1-0.4,0.1-0.6,0.3
		l-0.1,0l25.3,43.7l-16.3,47.5c0.1,0,0.2-0.1,0.2-0.1C289.9,130.4,290.3,130.1,290.3,130.1z"/>
	<path class="st1" d="M291.7,130.5l16.6-48l-25.3-43.8c-0.1,0-0.1,0-0.2,0.1c-0.2,0.1-0.4,0-0.7,0.1c-0.2,0.1-0.4,0-0.7,0.1
		l25.4,43.9l-16.5,47.6l0.1,0.1C290.9,130.8,291.2,130.8,291.7,130.5z"/>
	<path class="st1" d="M288.1,28c0,0.1,0,0.1-0.1,0.2c0,0,0.4,0.1,0.8,0.1c1,0.2,2.5,0.6,3,0.9l27.4,4.3c0-0.1,0.1-0.1,0.2-0.3
		c0.1-0.1,0.2-0.3,0.3-0.4c0-0.1,0.1-0.2,0.2-0.3l-31.6-5C288.1,27.8,288.2,27.9,288.1,28z"/>
	<path class="st1" d="M292.9,129.8c0.1-0.1,0.3-0.3,0.4-0.3l16.3-47.3l-25.7-44.3c0,0.2-0.1,0.3-0.1,0.5c0,0.2,0,0.3,0,0.4
		c0,0-0.2,0-0.4,0c-0.2,0.1-0.3,0-0.5,0.1l25.3,43.8l-16.6,48c0.1,0,0.1,0,0.2-0.1C292.1,130.4,292.5,130.2,292.9,129.8z"/>
	<path class="st1" d="M291.8,29.4c0,0,0.2,0.3,0.4,0.7c0,0.1,0.1,0.2,0.1,0.4l25.8,4l0,0c0.1,0,0.2-0.1,0.3-0.2
		c0.1,0,0.2-0.2,0.3-0.3s0.2-0.2,0.3-0.3l0-0.1l-27.4-4.3C291.8,29.3,291.8,29.4,291.8,29.4z"/>
	<path class="st1" d="M292,31.2c-0.2,0.1-0.7,0-1.3-0.2c0,0-1-0.6-1.9-0.8c-0.4-0.1-0.8-0.1-1.2,0c-0.2,0.1-0.4,0.1-0.6,0.3
		c-0.1,0,0,0.1-0.1,0.1l30,4.7c0-0.2,0-0.3,0-0.5l0.3-0.3c0.1,0.1,0.3,0.1,0.5,0.1c0.1,0.1,0.3,0,0.3,0c0.1,0,0.2-0.1,0.3-0.1
		l-25.8-4c0.1,0.2,0.1,0.3,0,0.4C292.4,30.9,292.3,31.2,292,31.2z"/>
	<path class="st1" d="M293.3,129.4c0.2-0.2,0.4-0.3,0.6-0.6c0.3-0.3,0.6-0.7,1-1c0.1-0.1,0.3-0.3,0.4-0.4l15.7-45.5l-26.5-45.7
		c-0.1,0.2-0.1,0.4-0.2,0.6c-0.1,0.2-0.2,0.5-0.2,0.7c0,0.1-0.1,0.2-0.1,0.3l25.7,44.3L293.3,129.4z"/>
	<path class="st1" d="M296.5,125.6c0.3-0.3,0.5-0.7,0.7-0.9l14.8-43.1l-27.1-46.9c0,0.1,0,0.1-0.1,0.2c-0.1,0.2-0.1,0.3-0.2,0.6
		c-0.1,0.2-0.1,0.4-0.2,0.6l0,0l26.5,45.7l-15.6,45.6c0.2-0.3,0.4-0.4,0.5-0.7C296,126.3,296.3,125.9,296.5,125.6z"/>
	<path class="st1" d="M286.5,31.2l0,0.1l0,0l30.4,4.7l0-0.1c0-0.2,0-0.4,0-0.7c0-0.1,0-0.1,0-0.2l-30-4.7c0,0.1-0.1,0.1-0.2,0.3
		C286.6,30.9,286.5,31,286.5,31.2z"/>
	<path class="st1" d="M298.2,123.3c0.3-0.4,0.5-0.8,0.7-1.1c0.2-0.3,0.4-0.5,0.6-0.9l13.8-40l-27.8-48l0,0c0,0.1-0.1,0.3-0.2,0.5
		c0,0.1-0.1,0.3-0.3,0.5c0,0.1-0.1,0.2-0.1,0.3L312,81.5l-14.8,43.1c0.1,0,0-0.1,0.1-0.1C297.7,124.1,297.9,123.7,298.2,123.3z"/>
	<path class="st1" d="M286.1,32c0,0.1-0.1,0.1-0.1,0.2l26.6,4.1c0.2-0.1,0.2-0.2,0.3-0.2c0.1,0,0.1,0,0.1,0c0.1,0,0.2-0.1,0.2-0.1
		c0.1,0,0.2,0,0.3,0c0.1,0,0.2,0,0.3,0c0.1,0,0.2,0,0.3,0.1c0.1,0.1,0.2,0,0.3,0.1c0.1,0.1,0.2,0,0.2,0.1c0.1,0,0.1,0.1,0.2,0
		c0.1,0.1,0.2,0.1,0.3,0.1c0.1,0.1,0.2,0.1,0.3,0.1c0.1,0,0.1,0.1,0.2,0l1.3,0.2c0-0.1,0-0.2,0-0.4c0-0.2,0-0.4,0-0.5l-30.4-4.7
		C286.4,31.5,286.3,31.7,286.1,32z"/>
	<path class="st1" d="M316.1,37.1c0.1,0.1,0.3,0.1,0.4,0.2c0.2,0.1,0.3,0.2,0.3,0.2l0-0.1c0-0.1,0-0.2,0-0.2l-1.3-0.2
		c0.1,0,0.1,0.1,0.2,0C315.8,36.9,316,37,316.1,37.1z"/>
	<path class="st1" d="M285.7,32.9c0,0.1-0.2,0.3-0.2,0.5l27.8,48l-13.8,40c0-0.1,0.1-0.1,0.2-0.3c0.2-0.4,0.5-0.8,0.7-1.1
		c0.3-0.4,0.5-0.8,0.7-1.1c0.3-0.5,0.6-0.9,0.7-1.1c0.1,0,0-0.1,0-0.1c0-0.1,0-0.1,0.1-0.2L314.4,81l-27.7-47.8l25.2,3.9
		c0-0.2,0.1-0.3,0.3-0.5c0.1-0.1,0.2-0.2,0.3-0.3l0,0l-26.6-4.1c0,0.1,0,0.1-0.1,0.2C285.9,32.5,285.8,32.7,285.7,32.9z"/>
	<path class="st1" d="M302.9,115.4c0.2-0.4,0.3-0.8,0.6-1.2s0.3-0.8,0.6-1.2c0.2-0.4,0.3-0.8,0.6-1.2c0.1-0.3,0.3-0.8,0.5-1.2
		c0.1-0.3,0.3-0.8,0.5-1.2c0.1-0.3,0.3-0.8,0.5-1.2c0.1-0.3,0.3-0.8,0.4-1.1l2.7-7.7l0-0.1c0.1-0.3,0.2-0.7,0.3-1.1
		c0.1-0.3,0.2-0.7,0.4-1c0.1-0.3,0.2-0.7,0.3-1c0.1-0.3,0.2-0.7,0.3-1c0.1-0.3,0.2-0.7,0.3-1c0.1-0.3,0.2-0.7,0.3-1s0.1-0.6,0.3-1
		l0,0.1c0.1,0,0.2-0.1,0.4-0.2c0,0,0.1,0,0-0.1l3.9-11.3l-26.9-46.4l24.7,3.9c-0.1,0-0.1-0.1-0.2,0c-0.1-0.1-0.2,0-0.3-0.1
		c-0.1-0.1-0.2,0-0.3-0.1c-0.1-0.1-0.2-0.1-0.3-0.2c-0.1-0.1-0.2-0.1-0.2-0.2c-0.1-0.2-0.2-0.2-0.1-0.5l-25.2-3.9l27.7,47.8
		l-12.6,36.4c0.2-0.3,0.3-0.6,0.5-0.9C302.6,116.2,302.7,115.8,302.9,115.4z"/>
	<path class="st1" d="M314.5,38.4c-0.1,0-0.2,0-0.3,0c-0.1,0-0.2,0-0.3,0c-0.1,0-0.2,0-0.3,0c-0.1,0-0.2,0-0.3,0l1.2,0.2
		C314.7,38.5,314.6,38.4,314.5,38.4z"/>
	<path class="st1" d="M315.6,80.7L311.7,92c0-0.1,0.1-0.1,0.3-0.3c0.1-0.1,0.2-0.3,0.3-0.5c0.1-0.1,0.1-0.3,0.3-0.5
		c0.1-0.1,0.1-0.3,0.3-0.5c0.1-0.1,0.1-0.3,0.3-0.5c0.1-0.1,0.1-0.3,0.3-0.5c0.1-0.1,0.1-0.3,0.3-0.5c0.1-0.2,0.1-0.3,0.3-0.5
		c0.1-0.2,0.1-0.3,0.3-0.5c0.1-0.2,0.1-0.3,0.2-0.5c0.1-0.2,0.1-0.3,0.2-0.5c0.1-0.2,0.1-0.3,0.2-0.5c0.1-0.2,0.1-0.3,0.2-0.5
		c0-0.1,0.1-0.2,0.1-0.2s0,0,0,0.1l1.7-5.1l-26-45l26.2,4.1c0-0.1,0-0.1-0.1-0.2c-0.1-0.2-0.3-0.3-0.5-0.4c-0.1-0.1-0.2-0.1-0.4-0.2
		c-0.1-0.1-0.2-0.1-0.3-0.2c-0.1-0.1-0.2,0-0.3-0.1c-0.1-0.1-0.3-0.1-0.4-0.2l0,0l-1.2-0.2l0,0l-0.1,0l0,0l-24.9-4L315.6,80.7z"/>
	<path class="st1" d="M306.9,106c0.1-0.3,0.3-0.8,0.4-1.1c0.1-0.3,0.3-0.8,0.4-1.1c0.1-0.3,0.3-0.8,0.4-1.1c0.1-0.3,0.3-0.8,0.3-1.1
		c0.1-0.3,0.2-0.7,0.3-1.1c0.1-0.3,0.2-0.7,0.3-0.9l-2.7,7.7l0,0C306.6,106.8,306.8,106.4,306.9,106z"/>
	<path class="st1" d="M315.4,86.1c0.1,0.1,0.1,0.2,0.3,0.3l1.4-4c-0.1-0.9-0.1-1.8-0.2-2.6c-0.1-0.5-0.1-1.1-0.2-1.6l-24.1-41.6
		l24.7,3.9l0-0.1c-0.1-0.3-0.2-0.5-0.3-0.8l-26.2-4.1l26,45l-1.7,5.1c0,0,0.1,0.1,0.1,0.2C315.1,85.8,315.3,85.9,315.4,86.1z"/>
	<path class="st1" d="M316,86.8c0.1,0.1,0.2,0.2,0.3,0.3l0,0l0.9-2.6c-0.1-0.6-0.1-1.3-0.2-1.9c0-0.1-0.1-0.2,0-0.3l-1.4,4l0,0.1
		C315.8,86.6,315.8,86.6,316,86.8z"/>
	<path class="st1" d="M316.6,78.3c0-0.4-0.1-0.8-0.1-1.2c-0.1-0.5-0.1-0.9-0.1-1.3l-22.1-38.2l22.9,3.6c0-0.1,0-0.1,0-0.1
		s0-0.1,0-0.1c0-0.2,0-0.4,0-0.5l-24.7-4L316.6,78.3z"/>
	<path class="st1" d="M316.8,87.8c0,0.1,0,0.1,0.1,0.2l0.5-1.4c-0.1-0.2,0-0.3-0.1-0.5c-0.1-0.5-0.1-1-0.2-1.6l-0.9,2.6
		c0.1,0.1,0.2,0.2,0.3,0.3C316.7,87.6,316.8,87.6,316.8,87.8z"/>
	<path class="st1" d="M316.2,73.5L296,38.7l21.3,3.3c-0.1-0.2,0-0.3,0-0.4c-0.1-0.2,0-0.3,0-0.4l-23-3.5l22.1,38.1
		c-0.1-0.5-0.1-0.9-0.1-1.2C316.2,74.1,316.2,73.8,316.2,73.5z"/>
	<path class="st1" d="M317.1,88.1c0.1,0.2,0.3,0.3,0.3,0.5c0,0.1,0,0.1,0.1,0.1l0.1-0.3c0-0.1,0-0.1-0.1-0.2s0-0.3,0-0.4
		c0-0.1,0-0.3,0-0.4c0-0.3-0.1-0.6-0.1-0.9l-0.5,1.4C317,88,317.1,88.1,317.1,88.1z"/>
	<path class="st1" d="M316.1,73.1c0.1,0,0.1,0,0.2-0.1c0.1,0,0.1,0,0.2-0.1c0.1,0,0-0.1,0.1-0.1c0.1,0,0-0.1,0.1-0.1c0,0,0,0,0-0.1
		l-19-33l19.7,3.1c0-0.2,0-0.4,0-0.5c0-0.1,0-0.1,0-0.2l-21.3-3.3l20.1,34.8C316.1,73.2,316.1,73.1,316.1,73.1L316.1,73.1z"/>
	<path class="st1" d="M317.9,89.3L317.9,89.3L317.9,89.3c0-0.1-0.1-0.2-0.1-0.3C317.8,89.2,317.8,89.3,317.9,89.3z"/>
	<path class="st1" d="M316.9,72.4c0-0.1,0-0.1,0.1-0.2s0-0.1,0.1-0.2c0-0.1,0-0.1,0.1-0.2l0,0l-17.9-30.9l18,2.8l0-0.1
		c0-0.2,0-0.4,0-0.6c0,0,0,0,0-0.1l-19.7-3.1l19,33l0-0.1C316.8,72.5,316.9,72.4,316.9,72.4z"/>
	<path class="st1" d="M317.7,89L317.7,89L317.7,89c0-0.1,0-0.3,0-0.4c0-0.1,0-0.1-0.1-0.2l-0.1,0.3l0,0.1
		C317.7,88.9,317.7,89,317.7,89z"/>
	<path class="st1" d="M317.2,71.7c0-0.1,0-0.1,0.1-0.2c0-0.1,0-0.1,0.1-0.2s0-0.1,0.1-0.2c0-0.1,0-0.1,0.1-0.2c0-0.1,0-0.1,0.1-0.2
		l-1.4-2.5l0,0l-0.1,0c0,0,0,0,0-0.1c0,0,0,0,0-0.1l-15.2-26.3l16.5,2.6c0-0.1,0-0.2,0-0.3c-0.1-0.2,0-0.3,0-0.4l-18-2.8L317.2,71.7
		z"/>
	<path class="st1" d="M316.1,67.6c0-0.1,0-0.1,0-0.2c0-0.1,0-0.1,0-0.2c0-0.1,0-0.1,0-0.2c0-0.1,0-0.1,0-0.2c0-0.1,0-0.1,0-0.2
		c0-0.1,0-0.1,0-0.2l-13.8-23.8l15,2.4c0-0.1,0-0.3,0-0.4c0-0.1,0-0.2,0-0.3l-16.5-2.6l15.2,26.3c0,0,0-0.1,0-0.1
		C316.1,67.7,316.1,67.7,316.1,67.6z"/>
	<path class="st1" d="M317.7,70.2c0-0.1,0-0.1,0.1-0.2c0-0.1,0-0.1,0.1-0.2l0-0.1l0-0.1l0-0.1c0,0,0,0,0-0.1l-1.3-2.2l-0.5,1
		l1.4,2.5l0,0C317.6,70.3,317.6,70.3,317.7,70.2z"/>
	<path class="st1" d="M317.9,69.1C317.9,69.1,317.9,69,317.9,69.1c0-0.1,0-0.2,0-0.2s0-0.1,0-0.1c0,0,0-0.1,0-0.1c0,0,0-0.1,0-0.1
		c0,0,0-0.1,0-0.1c0,0,0-0.1,0-0.1c0,0,0-0.1,0-0.1c0,0,0-0.1,0-0.1c0,0,0,0,0-0.1c0,0,0,0,0-0.1c0,0,0,0,0-0.1l-1.1-1.9
		c0,0.1-0.1,0.2-0.1,0.3c0,0.1-0.1,0.3-0.1,0.4l-0.2,0.3L317.9,69.1L317.9,69.1C317.9,69.2,317.9,69.1,317.9,69.1z"/>
	<path class="st1" d="M316.2,66.4C316.2,66.4,316.2,66.4,316.2,66.4l0.1-0.2l-0.1,0l0-0.1l0-0.1c0,0,0,0,0-0.1c0,0,0,0,0-0.1
		c0,0,0,0,0-0.1c0,0,0,0,0-0.1c0,0,0,0,0-0.1c0,0,0,0,0-0.1c0,0,0,0,0-0.1c0,0,0,0,0-0.1c0,0,0,0,0-0.1c0,0,0,0,0-0.1c0,0,0,0,0-0.1
		c0,0,0,0,0-0.1c0,0,0,0,0-0.1c0,0,0,0,0-0.1l0,0l0,0l0,0l0,0l0,0l-12.4-21.5l13.5,2.1l0-0.1c0-0.2,0-0.3,0-0.5c0,0,0,0,0-0.1
		l-15-2.4L316.2,66.4z"/>
	<path class="st1" d="M318.1,68C318.1,68,318.2,67.9,318.1,68c0-0.1,0-0.1,0-0.1s0,0,0-0.1c0,0,0,0,0-0.1c0,0,0,0,0-0.1
		c0,0,0,0,0-0.1c0,0,0,0,0-0.1c0,0,0,0,0-0.1c0,0,0,0,0-0.1l0,0l0,0l0,0l0,0l0,0l0,0l0,0l0,0l0,0l0,0c0,0,0-0.1,0-0.1l-1.1-1.8l0,0
		l0,0l0,0l0,0l0,0l0,0l0,0l0,0l0,0l0,0l0,0l0,0l0,0l0,0l0,0l0,0l0,0l0,0l0,0c0,0,0,0,0,0.1c0,0,0,0,0,0.1c0,0,0,0,0,0.1l0,0
		c0,0,0,0,0,0.1L318.1,68C318.2,68.1,318.2,68.1,318.1,68C318.2,68.1,318.2,68.1,318.1,68z"/>
	<path class="st1" d="M316.4,64.8L316.4,64.8L316.4,64.8c0-0.1,0-0.1,0-0.1l0,0l0,0l0,0c0,0,0,0,0-0.1c0,0,0,0,0-0.1c0,0,0,0,0-0.1
		c0,0,0,0,0-0.1c0,0,0,0,0-0.1c0,0,0,0,0-0.1c0,0,0,0,0-0.1c0,0,0,0,0-0.1c0,0,0,0,0-0.1c0,0,0,0,0-0.1c0,0,0,0,0-0.1c0,0,0,0,0-0.1
		c0,0,0,0,0-0.1l0-0.1l0-0.1l0-0.1c0,0,0,0,0-0.1L304.8,44l12.1,1.9c0-0.1,0-0.2,0-0.3c0-0.1,0-0.2,0-0.3l-13.5-2.1L316.4,64.8
		C316.3,64.9,316.3,64.9,316.4,64.8C316.3,64.9,316.3,64.9,316.4,64.8z"/>
	<path class="st1" d="M318.6,65.7l-1-1.7l0,0c0,0,0,0,0,0.1c0,0,0,0,0,0.1c0,0,0,0,0,0.1c0,0,0,0,0,0.1l0,0l0,0l0,0l0,0l0,0l0,0l0,0
		c0,0.1-0.1,0.2-0.1,0.4l0,0l0,0l1.1,1.8C318.5,66.4,318.5,66,318.6,65.7z"/>
	<path class="st1" d="M316.4,63.4C316.5,63.3,316.5,63.3,316.4,63.4c0-0.1,0-0.1,0-0.2l0.1,0l0-0.1c0,0,0-0.1,0-0.1c0,0,0-0.1,0-0.1
		c0,0,0-0.1,0-0.1c0,0,0-0.1,0-0.1l0-0.1l0-0.1l0-0.1l0-0.1l0-0.1l0,0l-9.7-16.9l10.7,1.7c0,0,0-0.1,0-0.1c0-0.1,0-0.3,0-0.4l0-0.1
		l-12.1-1.9L316.4,63.4C316.4,63.5,316.4,63.5,316.4,63.4L316.4,63.4z"/>
	<path class="st1" d="M318.8,64.5l-0.8-1.4c0,0,0,0-0.1,0l0,0l0,0l0,0l0,0l0,0l0,0l0,0l0,0l0,0l0,0c0,0,0,0,0,0.1c0,0,0,0,0,0.1
		c0,0,0,0,0,0.1c0,0,0,0,0,0.1c0,0,0,0,0,0.1c0,0,0,0.1,0,0.1c0,0,0,0,0,0.1c0,0,0,0,0,0.1l0,0l1,1.7
		C318.7,65.2,318.8,64.9,318.8,64.5z"/>
	<path class="st1" d="M316.5,61.9L316.5,61.9c0-0.1,0-0.1,0-0.2l0-0.1l0-0.1l0-0.1c0,0,0,0,0-0.1l0,0c0,0,0,0,0-0.1c0,0,0,0,0-0.1
		c0,0,0,0,0-0.1c0,0,0,0,0-0.1c0,0,0,0,0-0.1c0,0,0,0,0-0.1c0,0,0,0,0-0.1c0,0,0,0,0-0.1c0,0,0,0,0-0.1c0,0,0,0,0-0.1c0,0,0,0,0-0.1
		c0,0,0,0,0-0.1l-8.5-14.7l9.4,1.5l0,0c0-0.1,0-0.2,0-0.3c0-0.1,0-0.1,0-0.2l-10.7-1.7l9.7,16.9C316.5,62.1,316.5,62,316.5,61.9
		C316.5,62,316.5,62,316.5,61.9z"/>
	<path class="st1" d="M319,63.4l-0.7-1.2l0,0l0,0l0,0l0,0l0,0l0,0l0,0l0,0l0,0l0,0l0,0l0,0l0,0c0,0.1-0.1,0.2-0.1,0.3L319,64
		c0.1-0.5,0.2-0.9,0.2-0.9C319,63.6,319,63.5,319,63.4z"/>
	<path class="st1" d="M316.6,60.6L316.6,60.6L316.6,60.6c0-0.1,0-0.1,0-0.2l0-0.1l0-0.1l0-0.1l0-0.1l0-0.1l0-0.1l0-0.1l0-0.1l0-0.1
		l0-0.1l0-0.1c0,0,0-0.1,0-0.1l0,0l-7.3-12.6l8,1.2c0-0.1,0-0.2,0-0.3c0-0.1,0-0.2,0-0.3l-9.4-1.5L316.6,60.6z"/>
	<path class="st1" d="M316.7,59.1c0,0,0-0.1,0-0.1c0,0,0-0.1,0-0.1c0,0,0-0.1,0-0.1c0,0,0-0.1,0-0.1c0,0,0-0.1,0-0.1
		c0-0.1,0-0.3,0-0.4l-6-10.5l6.7,1.1c0-0.1,0-0.2,0-0.2c0-0.1,0-0.2,0-0.3l0,0l-8-1.2l7.3,12.6l0-0.1
		C316.7,59.2,316.7,59.1,316.7,59.1z"/>
	<path class="st1" d="M319.3,63.3l0.1-0.6l0-0.1l-0.7-1.3c0,0,0,0.1,0,0.1c0,0.1,0,0.2-0.1,0.3l0,0.1c0,0,0,0,0,0.1c0,0,0,0,0,0.1
		c0,0,0,0,0,0.1c0,0,0,0,0,0.1l0,0l0,0l0,0l0,0L319.3,63.3c0.1,0,0.1,0,0.1-0.1L319.3,63.3z"/>
	<path class="st1" d="M319.7,61.6l-0.8-1.4l0,0c0,0.1-0.1,0.2,0,0.4c0,0.1-0.1,0.2-0.1,0.3c0,0.1,0,0.1-0.1,0.2l0.7,1.3
		C319.5,62.2,319.5,61.9,319.7,61.6z"/>
	<path class="st1" d="M311.9,48.2l5.3,0.8c0,0,0,0,0-0.1c0-0.1,0-0.1,0-0.2c0-0.1,0-0.1,0-0.2l0,0l-6.7-1.1l6,10.5
		c0-0.4,0-0.9,0.1-1.2L311.9,48.2z"/>
	<path class="st1" d="M319.7,61.6C319.7,61.6,319.6,61.5,319.7,61.6C319.7,61.4,319.7,61.4,319.7,61.6c0-0.1,0-0.1,0-0.1l0,0l0,0
		c0,0,0,0,0-0.1c0,0,0,0,0-0.1c0,0,0,0,0-0.1c0,0,0,0,0-0.1c0,0,0,0,0-0.1c0,0,0,0,0-0.1c0,0,0,0,0-0.1c0,0,0,0,0-0.1c0,0,0,0,0-0.1
		l0,0l-0.8-1.4l0,0.2c0,0.1-0.1,0.3-0.1,0.4c0,0.1-0.1,0.2-0.1,0.3L319.7,61.6L319.7,61.6L319.7,61.6z"/>
	<path class="st1" d="M313.1,48.9l4.5,0.7l0,0c-0.1-0.1-0.1-0.2-0.2-0.1c-0.1-0.1-0.2-0.1-0.2-0.1l0-0.1l0-0.1l-5.3-0.8l4.9,8.5
		c0-0.4,0.1-0.8,0-1.2L313.1,48.9z"/>
	<path class="st1" d="M316.9,55.5c0-0.5,0-0.9,0-1.2l-2.7-4.6l4.1,0.7c0,0,0,0,0-0.1c-0.1-0.1-0.2-0.1-0.2-0.2
		c-0.1-0.1-0.2-0.1-0.2-0.2c-0.1-0.1-0.1-0.2-0.2-0.1l-4.5-0.7L316.9,55.5z"/>
	<path class="st1" d="M319.9,60.5L319.9,60.5c0-0.1,0-0.1,0-0.2c0,0,0-0.1,0-0.1c0,0,0-0.1,0-0.1c0,0,0-0.1,0-0.1c0,0,0-0.1,0-0.1
		c0,0,0-0.1,0-0.1c0,0,0-0.1,0-0.1c0,0,0,0,0-0.1l-0.8-1.5l0,0c0,0,0,0.1,0,0.1c0,0,0,0.1,0,0.1c0,0,0,0.1,0,0.1c0,0,0,0.1,0,0.1
		c0,0,0,0.1,0,0.1c0,0,0,0.1,0,0.1c0,0,0,0.1,0,0.1c0,0,0,0.1,0,0.1l0,0.1l0,0.1l0-0.1l0,0.1L319.9,60.5
		C319.9,60.7,319.9,60.6,319.9,60.5C319.9,60.6,319.9,60.6,319.9,60.5z"/>
	<path class="st1" d="M317.1,53.9l0.1,0.1l0.1,0.1l0.1,0.1l0.1,0.1l0.1,0.1l0.1,0.1l0,0l-2.3-4.1l3.6,0.5c0,0,0-0.1-0.1-0.1
		c-0.1-0.1-0.2-0.2-0.4-0.3c-0.1-0.1-0.1-0.2-0.2-0.2l-4.1-0.7l2.7,4.6C317,54.1,317,53.9,317.1,53.9C317,53.9,317.1,54,317.1,53.9z
		"/>
	<path class="st1" d="M320.1,59.5c0,0,0-0.1,0-0.1c0,0,0-0.1,0-0.1c0,0,0-0.1,0-0.1l0-0.1l0-0.1l0-0.1l0,0l-0.8-1.4l0,0.1l0,0.1
		c0,0,0,0.1,0,0.1c0,0,0,0.1,0,0.1c0,0,0,0.1,0,0.1c0,0,0,0.1,0,0.1c0,0,0,0.1,0,0.1c0,0,0,0.1,0,0.1l0.8,1.5l0,0
		C320.1,59.6,320.2,59.6,320.1,59.5z"/>
	<path class="st1" d="M317.9,54.5C318,54.5,318,54.6,317.9,54.5c0.1,0.1,0.1,0.1,0.2,0.1l0.1,0.1l0.1,0.1l0.1,0.1l0.1,0.1l0.1,0.1
		l0,0l-2.3-4l3.1,0.5c-0.1-0.1-0.1-0.2-0.2-0.2c-0.1-0.1-0.2-0.2-0.3-0.3l-3.6-0.5l2.3,4.1C317.8,54.4,317.8,54.4,317.9,54.5
		C317.9,54.4,317.9,54.5,317.9,54.5z"/>
	<path class="st1" d="M320.2,58.6c0-0.1,0-0.1,0-0.2c0-0.1,0-0.1,0-0.2c0-0.1,0-0.1,0-0.2c0-0.1,0-0.1,0-0.2c0-0.1,0-0.1,0-0.2l0,0
		l-0.8-1.4l0,0c0,0.1,0,0.1,0,0.2c0,0.1,0,0.1,0,0.2c0,0.1,0,0.1,0,0.2l0,0.1l0,0.1l0,0.1l0,0l0.8,1.4
		C320.3,58.7,320.2,58.6,320.2,58.6z"/>
	<path class="st1" d="M320.4,57.2c0-0.1,0-0.1,0-0.2c0-0.1,0-0.2,0-0.2c0-0.1,0-0.2,0-0.2l0,0l-2.9-4.9L320,52
		c0-0.1-0.1-0.2-0.2-0.2c0-0.1-0.1-0.2-0.2-0.2l-3.1-0.5l2.3,4l0.1,0.1l0.1,0.1l0.1,0.1c0.1,0,0.1,0.1,0.1,0.1c0.1,0,0.1,0,0.2,0
		c0.1,0,0.1,0,0.2-0.1l0,0.1c0,0,0,0.1,0,0.2s0,0.1,0,0.2c0,0.1,0,0.1,0,0.2c0,0.1,0,0.1,0,0.2l0,0.1l0.8,1.4c0-0.1,0-0.1,0-0.2
		C320.4,57.4,320.4,57.3,320.4,57.2z"/>
	<path class="st1" d="M320.4,56.5c0-0.1,0-0.2,0-0.2c0-0.1,0-0.2,0-0.3c0-0.1,0-0.2,0-0.3c0-0.1,0-0.2,0-0.3l0,0l-1.8-3.1l1.7,0.3
		c-0.1-0.2-0.2-0.3-0.3-0.5l-2.4-0.3L320.4,56.5z"/>
	<path class="st1" d="M320.4,54.7C320.3,54.6,320.3,54.6,320.4,54.7c0-0.1,0-0.1,0-0.2l0-0.1l-0.9-1.5l0.9,0.1
		c-0.1-0.2-0.1-0.4-0.2-0.4l-1.7-0.3l1.8,3.1c0-0.1,0-0.2,0-0.3C320.4,54.9,320.4,54.8,320.4,54.7z"/>
	<path class="st1" d="M320.5,54.4L320.5,54.4c0-0.1,0.1-0.2,0.1-0.3c0-0.1,0-0.2,0.1-0.3c0-0.1,0-0.2,0-0.3l0,0l0,0c0,0,0,0,0-0.1
		c0-0.1-0.1-0.3-0.1-0.4l-0.9-0.1L320.5,54.4z"/>
	<path class="st1" d="M320.6,53.4L320.6,53.4L320.6,53.4L320.6,53.4z"/>
</g>
</svg>
