<?xml version="1.0" encoding="utf-8"?>
<!-- Generator: Adobe Illustrator 22.0.1, SVG Export Plug-In . SVG Version: 6.00 Build 0)  -->
<svg version="1.1" id="レイヤー_1" xmlns="http://www.w3.org/2000/svg" xmlns:xlink="http://www.w3.org/1999/xlink" x="0px"
	 y="0px" viewBox="0 0 640 640" style="enable-background:new 0 0 640 640;" xml:space="preserve">
<style type="text/css">
	.st0{fill:none;stroke:#E50012;stroke-width:0.1802;stroke-miterlimit:10;}
</style>
<g>
	<path class="st0" d="M164.3,440.9c0.1-0.2,0.2-0.3,0.3-0.3l-1.8,1.1l0.5,0.6C163.7,441.6,164.1,441.1,164.3,440.9z"/>
	<path class="st0" d="M160.9,443.3c0,0-0.6,0.1-1,0.4c-0.1,0.1-0.2,0.2-0.3,0.3l1.5,1.8c0.3-0.5,0.6-1,0.9-1.4
		c0.1-0.1,0.2-0.3,0.2-0.4l-1.2-1.5C160.9,442.9,160.8,443.1,160.9,443.3z"/>
	<path class="st0" d="M174.1,464.6c-0.1-0.2-0.2-0.5-0.3-0.7c-0.1-0.2-0.2-0.5-0.3-0.7c-0.1-0.2-0.2-0.5-0.3-0.7
		c-0.1-0.2-0.3-0.5-0.4-0.7c-0.1-0.2-0.3-0.4-0.5-0.6c-0.2-0.2-0.4-0.4-0.6-0.6c-0.2-0.2-0.5-0.4-0.7-0.5c-0.3-0.2-0.6-0.3-0.9-0.4
		c-0.1,0-0.3-0.1-0.4-0.1l4.7,5.7C174.3,465,174.2,464.8,174.1,464.6z"/>
	<path class="st0" d="M159.3,445.1c0,0-0.2,0.1-0.4,0.2c-0.2,0.1-0.4,0.3-0.6,0.4l1.5,1.9c0.4-0.6,0.7-1.2,1.1-1.8l-1.5-1.8
		C159.3,444.3,159.1,444.7,159.3,445.1z"/>
	<path class="st0" d="M167.4,459.8l11.1,13.5c0.1-0.6,0.1-1.3-0.1-1.9c-0.1-0.3-0.2-0.7-0.4-1c-0.1-0.3-0.3-0.5-0.4-0.8
		c-0.1-0.2-0.3-0.5-0.5-0.7c-0.2-0.2-0.3-0.4-0.5-0.6c-0.2-0.2-0.3-0.4-0.5-0.5c-0.1-0.2-0.3-0.3-0.4-0.4c-0.2-0.2-0.3-0.3-0.5-0.4
		c-0.2-0.2-0.4-0.3-0.5-0.4c-0.1-0.1-0.2-0.2-0.2-0.2s0-0.2-0.1-0.4c0-0.2-0.1-0.4-0.2-0.7c0,0,0,0,0-0.1l-4.7-5.7
		c-0.3,0-0.6-0.1-0.9,0C168.3,459.6,167.9,459.7,167.4,459.8z"/>
	<path class="st0" d="M81.6,498c-0.3,0.3-0.7,0.5-1,0.8c-0.6,0.5-1.1,0.9-1.7,1.4c-0.5,0.4-1,0.9-1.6,1.3c-0.5,0.4-1,0.9-1.5,1.3
		c-0.3,0.3-0.6,0.5-0.9,0.8l5.8-2.3L81.6,498z"/>
	<path class="st0" d="M157.8,446.3c-0.3,0.4-0.4,0.9,0,1.4c0,0-0.1,0-0.3,0.1l1.2,1.5c0.1-0.1,0.1-0.2,0.2-0.3
		c0.3-0.5,0.6-1,0.9-1.5c0,0,0,0,0,0l-1.5-1.9C158.2,445.9,158,446.1,157.8,446.3z"/>
	<path class="st0" d="M157.1,448.1c-0.3,0.2-0.7,0.5-0.9,0.9l1.6,2c0.1-0.2,0.2-0.3,0.3-0.5c0.2-0.4,0.5-0.8,0.7-1.2l-1.2-1.5
		C157.5,447.9,157.3,448,157.1,448.1z"/>
	<path class="st0" d="M165.8,460.7l11.9,14.5c0.3-0.3,0.5-0.7,0.7-1.1l0.2-0.6c0-0.1,0-0.1,0-0.2l-11.1-13.5
		C166.9,460,166.4,460.3,165.8,460.7z"/>
	<path class="st0" d="M73.2,505.3c-0.4,0.4-0.8,0.8-1.2,1.1c-0.4,0.4-0.8,0.7-1.1,1.1c-0.1,0.1-0.2,0.2-0.3,0.3l12.6-4.9l1.7-7.5
		c-0.2,0.2-0.5,0.3-0.7,0.5c-0.6,0.5-1.3,1-1.9,1.5c-0.3,0.2-0.5,0.4-0.8,0.6l-0.8,3.3l-5.8,2.3c-0.2,0.2-0.3,0.3-0.5,0.5
		C74.1,504.5,73.6,504.9,73.2,505.3z"/>
	<path class="st0" d="M87.9,484.8C87.9,484.8,87.9,484.8,87.9,484.8C87.9,484.9,87.9,484.9,87.9,484.8c0.1,0.1,0.2,0.1,0.3,0
		C88,484.8,88,484.8,87.9,484.8z"/>
	<path class="st0" d="M88.1,491.6c-0.4,0.5-0.7,0.9-0.9,1.3l1.1-0.2l0.4-1.7C88.5,491.2,88.3,491.4,88.1,491.6z"/>
	<path class="st0" d="M156.2,451.5l-0.1,0.3l0.8,0.9c0.1-0.2,0.3-0.5,0.4-0.7c0.2-0.3,0.3-0.6,0.5-0.9l-1.6-2c0,0,0,0.1-0.1,0.1
		C155.8,449.7,155.8,450.5,156.2,451.5z"/>
	<path class="st0" d="M176.3,476.4c0.3-0.2,0.5-0.4,0.7-0.6c0.2-0.2,0.4-0.4,0.6-0.6l-11.9-14.5c-0.5,0.3-0.9,0.7-1.4,1.1
		L176.3,476.4z"/>
	<path class="st0" d="M70.6,507.8c-0.3,0.3-0.5,0.5-0.8,0.8c-0.3,0.3-0.7,0.7-1,1c-0.3,0.3-0.6,0.7-0.9,1c-0.3,0.3-0.6,0.6-0.9,1
		l18.6-7.3l2.6-11.4c-0.6,0.5-1.3,0.9-1.9,1.4c-0.5,0.3-0.9,0.7-1.4,1.1l-1.7,7.5L70.6,507.8z"/>
	<path class="st0" d="M89.8,484.6c-0.3,0.1-0.6,0.1-0.9,0.2c-0.3,0.1-0.6,0.1-0.7,0.1c0.2,0.1,0.6,0.2,1,0.4
		c0.2,0.1,0.5,0.2,0.8,0.4l0.3-1.1C90.1,484.5,89.9,484.5,89.8,484.6z"/>
	<path class="st0" d="M155.4,453.6l1.3,1.5c0.2-0.3,0.3-0.5,0.1-0.7c0.1,0,0.2,0,0.3,0l-0.5-1.2c0.1-0.2,0.2-0.4,0.4-0.6l-0.8-0.9
		l-0.1,0.3L155.4,453.6z"/>
	<path class="st0" d="M66.3,512.3c-0.2,0.2-0.3,0.4-0.5,0.5c-0.2,0.2-0.3,0.4-0.5,0.6c-0.2,0.2-0.3,0.4-0.5,0.6
		c-0.1,0.1-0.1,0.2-0.2,0.3c0,0-0.1,0.1-0.3,0.4c-0.1,0.1-0.2,0.2-0.3,0.4l23.8-9.3l4.2-18.2c-0.2,0.2-0.4,0.4-0.6,0.6
		c-0.2,0.2-0.4,0.4-0.7,0.7c-0.2,0.2-0.4,0.4-0.7,0.7c-0.2,0.2-0.5,0.5-0.7,0.7c-0.2,0.3-0.5,0.5-0.7,0.8c0,0-0.1,0.1-0.1,0.1
		l-0.4,1.7l0.3-0.1c-0.1,0.1-0.2,0.2-0.3,0.2l-2.6,11.4L67,511.6c-0.1,0.1-0.1,0.2-0.2,0.2C66.6,512,66.5,512.1,66.3,512.3z"/>
	<path class="st0" d="M91.7,486.4c0.2,0.1,0.4,0.2,0.6,0.3l0.7-2.9c-0.2,0.1-0.4,0.1-0.7,0.2c-0.3,0.1-0.5,0.1-0.8,0.2
		c-0.3,0.1-0.6,0.1-0.8,0.2c-0.2,0-0.3,0.1-0.5,0.1l-0.3,1.1c0.2,0.1,0.3,0.2,0.5,0.2C90.9,486.1,91.3,486.3,91.7,486.4z"/>
	<path class="st0" d="M174.8,477.3c0.2-0.1,0.3-0.2,0.5-0.2c0.3-0.2,0.6-0.3,0.8-0.5c0.1,0,0.1-0.1,0.2-0.1l-12-14.6
		c-0.4,0.4-0.8,0.8-1.3,1.2L174.8,477.3z"/>
	<path class="st0" d="M155.1,454.3l-1-0.2l-0.7-0.2l-0.1,0.1l1.9,2.3c0.3-0.2,0.6-0.4,0.9-0.5c0.2-0.2,0.4-0.3,0.5-0.5l-1.3-1.5
		l0,0.1L155.1,454.3z"/>
	<path class="st0" d="M63.4,515.9c-0.2,0.2-0.3,0.4-0.5,0.7c-0.2,0.2-0.3,0.5-0.5,0.7c-0.2,0.2-0.3,0.5-0.5,0.7c0,0,0,0,0,0.1
		L90.1,507l5.5-23.8c-0.1,0-0.2,0.1-0.4,0.1c-0.2,0.1-0.5,0.1-0.7,0.2c-0.2,0.1-0.5,0.1-0.7,0.2c-0.3,0.1-0.5,0.1-0.8,0.2
		c0,0-0.1,0-0.1,0l-0.7,2.9c0.2,0.1,0.4,0.2,0.4,0.2s-0.2,0.2-0.5,0.5c0,0,0,0-0.1,0l-4.2,18.2L64.1,515c-0.1,0.1-0.1,0.2-0.2,0.3
		C63.8,515.4,63.6,515.7,63.4,515.9z"/>
	<path class="st0" d="M163,463.1c0,0-0.2,0-0.4-0.1c-0.3-0.1-0.7-0.1-1.3-0.2c-0.2,0-0.4,0-0.6-0.1l12.5,15.2
		c0.2-0.1,0.4-0.1,0.6-0.2c0.3-0.1,0.5-0.2,0.7-0.3c0.1,0,0.2-0.1,0.3-0.1L163,463.1C163.1,463,163,463.1,163,463.1z"/>
	<path class="st0" d="M158.4,462.6l13.6,16.5c0.2-0.6,0.2-0.9,0.2-0.9c0.1,0,0.1,0,0.1,0c0.2-0.1,0.5-0.1,0.7-0.2c0,0,0.1,0,0.1,0
		l-12.5-15.2c-0.3,0-0.5,0-0.8-0.1C159.4,462.6,158.9,462.6,158.4,462.6z"/>
	<path class="st0" d="M60.9,519.6c-0.2,0.3-0.4,0.5-0.5,0.8c-0.1,0.2-0.3,0.4-0.4,0.7l32.4-12.7l6-25.8c-0.1,0-0.2,0.1-0.3,0.1
		c-0.2,0.1-0.4,0.1-0.6,0.2c-0.2,0.1-0.4,0.1-0.6,0.2c-0.2,0.1-0.4,0.1-0.7,0.2c-0.1,0-0.2,0.1-0.3,0.1L90.1,507l-28.2,11.1
		c-0.2,0.2-0.3,0.5-0.5,0.7C61.2,519,61,519.3,60.9,519.6z"/>
	<path class="st0" d="M152.9,454.3l-0.8,0.6l1.6,2c0.1,0,0.1,0,0.2,0c0,0,0,0,0.1-0.1c0.2-0.1,0.6-0.3,1-0.5c0.1,0,0.1-0.1,0.2-0.1
		l-1.9-2.3l-0.4,0.3L152.9,454.3z"/>
	<path class="st0" d="M179.4,489.6L179.4,489.6c0.1,0.1,0.1,0.1,0.1,0.2l11-0.9l0-0.1l0,0l1.6-1l0.9-0.5c-0.2,0.1-1.3,0.3-2.9,0.4
		c-2,0.2-4.9,0.4-7.4,0.6c-0.3,0-0.7,0-1,0.1c-0.3,0-0.7,0-1,0.1c-0.3,0-0.7,0-1,0.1c-0.3,0-0.6,0-0.9,0.1c-0.3,0-0.6,0-0.9,0.1
		c-0.1,0-0.1,0-0.2,0l0.8,1L179.4,489.6z"/>
	<path class="st0" d="M152.1,454.9l-0.9,0.6c-0.1,0.1-0.2,0.1-0.4,0.2l1.1,1.3c0.3-0.1,0.7-0.2,1-0.2c0.3,0,0.6,0,0.8,0L152.1,454.9
		L152.1,454.9z"/>
	<path class="st0" d="M156.4,462.6l15,18.2c0.3-0.7,0.5-1.3,0.6-1.7l-13.6-16.5c-0.1,0-0.2,0-0.3,0
		C157.6,462.6,157,462.6,156.4,462.6z"/>
	<path class="st0" d="M59.2,522.1c-0.2,0.3-0.4,0.6-0.6,0.9c-0.2,0.3-0.3,0.6-0.5,0.8l36.2-14.2l6.4-27.7c0,0,0,0,0,0
		c-0.2,0-0.4,0.1-0.5,0.1c-0.2,0-0.4,0.1-0.6,0.1c-0.2,0-0.4,0.1-0.6,0.1c-0.2,0-0.4,0.1-0.6,0.1c-0.1,0-0.2,0-0.3,0.1l-6,25.8
		L59.9,521c0,0.1-0.1,0.1-0.1,0.2C59.6,521.5,59.4,521.8,59.2,522.1z"/>
	<path class="st0" d="M149.5,456.6l0.8,1c0.2-0.1,0.3-0.1,0.5-0.2c0.3-0.1,0.7-0.2,1-0.3c0,0,0,0,0.1,0l-1.1-1.3
		c-0.2,0.1-0.3,0.2-0.5,0.3C150,456.3,149.7,456.5,149.5,456.6z"/>
	<path class="st0" d="M182.9,490.3c0.3-0.2,0.5-0.4,0.5-0.4c0.1,0.2,0.2,0.3,0.3,0.4c0.4,0.4,1,0.3,1.6,0.1c0.6-0.2,1.2-0.6,1.2-0.6
		c0.7,0.8,1.6,0.2,2-0.2c0.2-0.2,0.3-0.3,0.3-0.3c0.4,0.2,1,0.4,1.5,0.4c0.3,0,0.6,0.1,0.6,0.1l0,0l-0.3-0.9l-11,0.9
		C180.8,491.2,182.1,490.7,182.9,490.3z"/>
	<path class="st0" d="M155.3,462.7c-0.3,0-0.5,0-0.8,0.1l16.1,19.6c0.3-0.6,0.5-1.1,0.7-1.6l-15-18.2c0,0,0,0-0.1,0
		C156,462.6,155.6,462.7,155.3,462.7z"/>
	<path class="st0" d="M57.5,524.9c-0.2,0.3-0.4,0.7-0.6,1c-0.1,0.2-0.2,0.4-0.3,0.5l39.8-15.6l6.9-29.6c-0.2,0-0.3,0.1-0.5,0.1
		c-0.2,0-0.3,0.1-0.5,0.1c-0.2,0-0.3,0.1-0.5,0.1c-0.2,0-0.3,0.1-0.5,0.1c-0.2,0-0.3,0.1-0.5,0.1l-6.4,27.7l-36.2,14.2
		c0,0,0,0.1-0.1,0.1C57.9,524.2,57.7,524.6,57.5,524.9z"/>
	<path class="st0" d="M176.9,488.6c0.1-0.4,0.1-0.6,0.1-0.8c-0.1-0.2-0.2-0.3-0.4-0.3c-0.2,0-0.6,0.1-0.9,0.3
		c-0.1,0.1-0.2,0.1-0.4,0.2l1.1,1.4l0-0.1l0.4,0l0.8,0.1l0.9,0.1l0,0l-0.8-1c-0.3,0-0.5,0-0.7,0
		C176.9,488.6,176.9,488.6,176.9,488.6z"/>
	<path class="st0" d="M174.7,488.4c-0.3,0.2-0.5,0.3-0.7,0.5l1.8,2.2l0.2-0.1l0.4-1.5l-1.1-1.4C175.1,488.1,174.9,488.2,174.7,488.4
		z"/>
	<path class="st0" d="M153.1,462.9c-0.1,0-0.2,0-0.3,0l17.1,20.8c0.1-0.2,0.2-0.4,0.3-0.5c0.2-0.3,0.3-0.6,0.5-0.9l-16.1-19.6
		c-0.1,0-0.2,0-0.3,0C153.8,462.8,153.4,462.9,153.1,462.9z"/>
	<path class="st0" d="M56.6,526.4c-0.1,0.2-0.2,0.4-0.3,0.5c-0.2,0.4-0.4,0.7-0.5,1.1c-0.1,0.3-0.2,0.5-0.3,0.8L98.4,512l7.7-33.3
		c0,0-0.1,0.1-0.1,0.1c-0.2,0.2-0.3,0.3-0.5,0.4c-0.2,0.2-0.3,0.3-0.4,0.5c-0.1,0.2-0.3,0.3-0.4,0.5c-0.1,0.2-0.2,0.4-0.2,0.6
		c0,0.1,0,0.1,0.1,0.2c0,0-0.2,0.1-0.6,0.2c-0.2,0-0.4,0.1-0.7,0.2l-6.9,29.6L56.6,526.4z"/>
	<path class="st0" d="M148.5,457.3c-0.1,0.1-0.2,0.1-0.3,0.2l0.8,0.9c0.3-0.2,0.6-0.4,0.8-0.5c0.1-0.1,0.3-0.2,0.5-0.2l-0.8-1
		c0,0-0.1,0-0.1,0.1C149.1,456.9,148.8,457.1,148.5,457.3z"/>
	<path class="st0" d="M173.5,489.2c-0.1,0.3-0.3,0.6-0.5,0.8l1.4,1.7l0.9-0.4l0.1,0l0.4-0.2l-1.8-2.2c-0.1,0.1-0.2,0.2-0.3,0.2
		C173.6,489.1,173.5,489.2,173.5,489.2z"/>
	<path class="st0" d="M55,530.5c0,0.2,0,0.3,0,0.5l45.3-17.8l8.5-36.4c-0.1,0.1-0.3,0.2-0.4,0.3c-0.2,0.2-0.4,0.3-0.6,0.5
		c-0.2,0.1-0.4,0.3-0.6,0.4c-0.2,0.1-0.4,0.3-0.6,0.4c-0.1,0.1-0.3,0.2-0.4,0.3L98.4,512l-42.8,16.8c-0.1,0.1-0.1,0.3-0.1,0.4
		C55.2,529.7,55.1,530.1,55,530.5z"/>
	<path class="st0" d="M147.1,458.4l0.8,0.9c0.1-0.1,0.2-0.2,0.3-0.3c0.3-0.2,0.5-0.4,0.8-0.6c0,0,0,0,0,0l-0.8-0.9
		c-0.2,0.1-0.3,0.3-0.5,0.4C147.5,458.1,147.3,458.2,147.1,458.4z"/>
	<path class="st0" d="M151.1,463.3l18,21.9c0.3-0.5,0.6-0.9,0.8-1.3L152.8,463c-0.2,0-0.5,0.1-0.7,0.1
		C151.7,463.2,151.4,463.2,151.1,463.3z"/>
	<path class="st0" d="M55.5,532.1l0.1,0l0.3,0.1c0,0,0,0.1,0,0.2l46.3-18.2l8.3-35.6c-0.1,0-0.2,0.1-0.2,0.1l-0.3-0.2
		c0.1-0.2,0.3-0.3,0.5-0.5c0.1-0.1,0.2-0.2,0.3-0.3l0.6-2.6c-0.2,0.1-0.5,0.3-0.7,0.5c-0.2,0.2-0.5,0.3-0.7,0.5
		c-0.2,0.2-0.5,0.3-0.7,0.5c-0.1,0.1-0.2,0.1-0.3,0.2l-8.5,36.4L55,530.9C55,531.5,55.1,531.9,55.5,532.1z"/>
	<path class="st0" d="M150.1,463.5c-0.2,0-0.3,0.1-0.5,0.1l18.7,22.8c0.2-0.3,0.4-0.7,0.7-1c0.1-0.1,0.1-0.2,0.2-0.3l-18-21.9
		c0,0-0.1,0-0.1,0C150.7,463.3,150.4,463.4,150.1,463.5z"/>
	<path class="st0" d="M146.2,459.1c-0.1,0.1-0.1,0.1-0.2,0.2l0.8,1c0.2-0.2,0.4-0.4,0.6-0.6c0.1-0.1,0.3-0.2,0.4-0.4l-0.8-0.9
		c0,0-0.1,0.1-0.1,0.1C146.7,458.7,146.5,458.9,146.2,459.1z"/>
	<path class="st0" d="M172.4,490.9c-0.1,0.1-0.1,0.1-0.2,0.2l1,1.3c0.1-0.1,0.2-0.1,0.2-0.1c0.4-0.3,0.7-0.4,0.7-0.4l0.3-0.1l0,0
		l-1.4-1.7C172.9,490.3,172.6,490.6,172.4,490.9z"/>
	<path class="st0" d="M145,460.2l0.9,1.1c0.1-0.1,0.1-0.1,0.2-0.2c0.2-0.2,0.4-0.5,0.6-0.7c0,0,0.1-0.1,0.1-0.1l-0.8-1
		c-0.2,0.1-0.3,0.3-0.5,0.4C145.3,459.9,145.2,460,145,460.2z"/>
	<path class="st0" d="M148.2,463.9c-0.1,0-0.1,0-0.2,0l19.4,23.6c0.1-0.2,0.3-0.4,0.4-0.6c0.1-0.2,0.3-0.4,0.4-0.6l-18.7-22.8
		c-0.1,0-0.3,0.1-0.4,0.1C148.8,463.8,148.5,463.8,148.2,463.9z"/>
	<path class="st0" d="M111.6,477c0.2-0.2,0.4-0.4,0.7-0.5c0.2-0.2,0.5-0.4,0.7-0.5c0.1-0.1,0.2-0.1,0.3-0.2l0.5-2.2
		c-0.2,0.2-0.3,0.3-0.5,0.5c0,0-0.1,0-0.2,0.1c-0.2,0.1-0.5,0.3-0.9,0.5c-0.2,0.1-0.5,0.3-0.8,0.5c0,0,0,0,0,0l-0.6,2.6
		c0.1-0.1,0.2-0.2,0.3-0.3C111.1,477.4,111.3,477.2,111.6,477z"/>
	<path class="st0" d="M55.9,534.3l48.1-18.9l8.8-37.8c0,0-0.1,0-0.1,0c-0.3,0.1-0.6,0.3-0.9,0.4c-0.3,0.1-0.6,0.3-0.8,0.4
		c-0.2,0.1-0.4,0.2-0.5,0.3l-8.3,35.6l-46.3,18.2c-0.1,0.2-0.1,0.7-0.1,1.3C55.8,533.9,55.8,534.1,55.9,534.3z"/>
	<path class="st0" d="M171.1,492l0.9,1c0.2-0.1,0.4-0.2,0.5-0.3c0.3-0.1,0.5-0.3,0.7-0.4l-1-1.3c-0.3,0.3-0.5,0.5-0.8,0.8
		C171.3,491.9,171.2,492,171.1,492z"/>
	<path class="st0" d="M170,492.7l0.8,1c0.3-0.1,0.6-0.3,0.8-0.4c0.1-0.1,0.2-0.1,0.4-0.2l-0.9-1c-0.2,0.2-0.4,0.3-0.7,0.5
		C170.3,492.6,170.2,492.6,170,492.7z"/>
	<path class="st0" d="M56.5,535.6c0,0,0.1,0.1,0.1,0.1l49.1-19.3l9.3-39.9c-0.2,0.1-0.4,0.2-0.5,0.2c-0.3,0.1-0.6,0.3-0.9,0.4
		c-0.3,0.1-0.5,0.2-0.8,0.4l-8.8,37.8l-48.1,18.9C56,534.7,56.1,535.1,56.5,535.6z"/>
	<path class="st0" d="M113.8,475.3c0.1-0.2,0.2-0.3,0.4-0.5c0.2-0.2,0.4-0.4,0.7-0.6c0.2-0.2,0.5-0.4,0.8-0.6c0,0,0,0,0,0l0.4-1.9
		c0,0,0,0,0,0c-0.3,0.2-0.6,0.4-0.9,0.6c-0.3,0.2-0.5,0.4-0.8,0.6c-0.2,0.2-0.5,0.4-0.7,0.6c0,0,0,0,0,0l-0.5,2.2
		c0.2-0.1,0.4-0.3,0.5-0.4C113.8,475.3,113.8,475.3,113.8,475.3z"/>
	<path class="st0" d="M144.2,461c-0.1,0.1-0.1,0.1-0.2,0.2l2.3,2.8L146,463l-0.5-1.1c0.1-0.1,0.2-0.3,0.4-0.6l-0.9-1.1
		c0,0-0.1,0.1-0.1,0.1C144.6,460.6,144.4,460.8,144.2,461z"/>
	<path class="st0" d="M147.4,464.1c-0.2,0.1-0.5,0.1-0.7,0.2l20,24.3c0.1-0.1,0.2-0.3,0.3-0.4c0.2-0.2,0.4-0.5,0.5-0.7L148.1,464
		C147.8,464,147.6,464.1,147.4,464.1z"/>
	<path class="st0" d="M117.4,472.3c0.2-0.1,0.4-0.2,0.6-0.3l0.4-1.7c-0.1,0-0.2,0.1-0.3,0.1c-0.3,0.2-0.7,0.4-1.1,0.6
		c-0.3,0.2-0.6,0.4-0.9,0.6l-0.4,1.9c0.3-0.2,0.5-0.4,0.8-0.6C116.8,472.7,117.1,472.5,117.4,472.3z"/>
	<path class="st0" d="M168.9,493.3C168.9,493.3,168.9,493.3,168.9,493.3l0.7,1c0.1-0.1,0.2-0.1,0.3-0.2c0.3-0.1,0.6-0.3,0.8-0.4
		c0,0,0,0,0,0l-0.8-1c-0.1,0.1-0.2,0.1-0.4,0.2C169.4,493.1,169.1,493.2,168.9,493.3z"/>
	<path class="st0" d="M146.4,464l-2.3-2.8c-0.1,0.2-0.3,0.3-0.4,0.5c-0.1,0.2-0.3,0.4-0.4,0.5l22.5,27.4c0.1-0.1,0.2-0.2,0.3-0.3
		c0.2-0.2,0.4-0.5,0.6-0.7l-20-24.3c0,0-0.1,0-0.1,0L146.4,464z"/>
	<path class="st0" d="M107.4,517.5l9.8-41.9c-0.3,0.1-0.5,0.2-0.8,0.4c-0.3,0.1-0.6,0.3-1,0.4c-0.1,0.1-0.3,0.1-0.4,0.2l-9.3,39.9
		l-49.1,19.3c0.3,0.4,0.8,0.8,1.4,1.1L107.4,517.5z"/>
	<path class="st0" d="M120.1,470.7l0.3-1.3c-0.3,0.1-0.6,0.2-0.9,0.4c-0.4,0.2-0.8,0.4-1.2,0.6L118,472c0.1-0.1,0.3-0.2,0.4-0.3
		C119,471.3,119.6,471,120.1,470.7z"/>
	<path class="st0" d="M58.4,538c0,0.1,0,0.2,0,0.2c0,0,0,0.1,0,0.1l50.6-19.9l10.2-43.9c-0.3,0.1-0.6,0.3-0.8,0.4
		c-0.3,0.2-0.7,0.3-1,0.5c-0.1,0-0.1,0.1-0.2,0.1l-9.8,41.9L58,536.9c0.1,0.1,0.2,0.1,0.4,0.2C58.3,537.4,58.3,537.7,58.4,538z"/>
	<path class="st0" d="M167.6,493.8l0.9,1c0.2-0.1,0.5-0.2,0.7-0.3c0.2-0.1,0.3-0.1,0.4-0.2l-0.8-1c-0.2,0.1-0.4,0.2-0.7,0.3
		C168,493.6,167.8,493.7,167.6,493.8z"/>
	<path class="st0" d="M142.7,463.4L142.7,463.4l22.3,27.2c0.1-0.1,0.2-0.2,0.3-0.3c0.2-0.2,0.4-0.4,0.6-0.7l-22.5-27.4
		c-0.1,0.1-0.1,0.2-0.2,0.2C142.9,462.8,142.8,463.1,142.7,463.4z"/>
	<path class="st0" d="M166.8,494c-0.2,0-0.3,0.1-0.5,0.1l1,1.2c0.1-0.1,0.3-0.1,0.4-0.2c0.2-0.1,0.5-0.2,0.7-0.3c0,0,0,0,0,0l-0.9-1
		c0,0-0.1,0-0.1,0C167.3,493.9,167,493.9,166.8,494z"/>
	<path class="st0" d="M164.3,491.7l0.2-0.5c0.2-0.2,0.3-0.4,0.5-0.6l-22.3-27.1l0.1,2L164.3,491.7z"/>
	<path class="st0" d="M120.3,470.6c0.5-0.3,0.9-0.5,1.1-0.6c0,0,0.1,0,0.1,0c0,0.2,0.2,0.6,0.5,0.9l0.6-2.6
		c-0.3,0.1-0.5,0.3-0.8,0.6c0,0-0.1,0-0.1,0c-0.2,0-0.5,0.2-1,0.3c-0.1,0-0.1,0-0.2,0.1l-0.3,1.3
		C120.2,470.7,120.3,470.6,120.3,470.6z"/>
	<path class="st0" d="M59,539.7l51.7-20.3l10.6-45.8c-0.5,0.2-1.2,0.5-1.8,0.8c-0.1,0-0.2,0.1-0.2,0.1L109,518.4l-50.6,19.9
		C58.5,538.9,58.7,539.3,59,539.7z"/>
	<path class="st0" d="M122.7,471.9l-0.3,1.3c-0.3,0.1-0.6,0.3-1,0.4c-0.1,0-0.1,0-0.2,0.1l-10.6,45.8L59,539.7
		c0.1,0.1,0.1,0.2,0.2,0.2c0.3,0.4,0.6,0.7,0.9,0.9l52.1-20.5l12.1-51.9c-0.2-0.1-0.5-0.1-0.7-0.2c-0.3,0-0.6,0-0.9,0.1
		c-0.1,0-0.1,0-0.2,0.1l-0.6,2.6c0,0,0.1,0.1,0.1,0.1C122.2,471.3,122.5,471.6,122.7,471.9z"/>
	<path class="st0" d="M142.2,465.9c-0.1,0.1-0.3,0.1-0.4,0.2l24.4,29.6c0.1,0,0.2,0,0.2-0.1c0.2-0.1,0.4-0.1,0.7-0.2
		c0.1,0,0.2-0.1,0.3-0.1l-1-1.2c0,0-0.1,0-0.1,0c-0.2,0-0.4,0.1-0.6,0.1c-0.3,0.1-0.5,0.1-0.6,0.1c0,0,0,0,0,0l-0.3-0.5l-0.3-0.6
		l-0.3-0.5l0.3-1l-21.5-26.1l0,0.1C142.6,465.7,142.4,465.8,142.2,465.9z"/>
	<path class="st0" d="M140.9,466.4c-0.1,0-0.2,0.1-0.3,0.1l24.2,29.5c0.1,0,0.1,0,0.2,0c0.2,0,0.4-0.1,0.6-0.2
		c0.1,0,0.3-0.1,0.4-0.1l-24.4-29.6c-0.1,0-0.1,0.1-0.2,0.1C141.3,466.2,141.1,466.3,140.9,466.4z"/>
	<path class="st0" d="M61.4,541.4c0,0.1-0.1,0.3-0.1,0.4l52.3-20.5l12.1-52.1c0,0,0,0,0,0c-0.2-0.1-0.5-0.3-0.7-0.4
		c-0.2-0.1-0.5-0.2-0.7-0.3c0,0-0.1,0-0.1,0l-12.1,51.9l-52.1,20.5c0.1,0,0.1,0.1,0.2,0.1C60.9,541.3,61.4,541.4,61.4,541.4z"/>
	<path class="st0" d="M62.3,542.9l52.8-20.7l12.1-52c-0.1,0-0.1-0.1-0.2-0.1c-0.2-0.1-0.4-0.3-0.6-0.5c-0.2-0.1-0.4-0.3-0.6-0.4
		l-12.1,52.1l-52.3,20.5c0,0.1,0,0.1,0,0.2C61.5,542.3,61.8,542.6,62.3,542.9z"/>
	<path class="st0" d="M140.3,466.6c-0.1,0-0.2,0.1-0.2,0.1c0,0,0.3,0.3,0.6,0.8c0.7,0.9,1.8,2.5,1.9,3.1l21,25.6c0.1,0,0.2,0,0.4,0
		c0.2,0,0.4,0,0.6-0.1c0.1,0,0.2,0,0.4-0.1l-24.2-29.5C140.5,466.6,140.4,466.6,140.3,466.6z"/>
	<path class="st0" d="M64,543.3c0.2,0,0.4,0.1,0.7,0.1l51.9-20.4l12.3-52.8c-0.2,0.1-0.3,0.2-0.4,0.3c-0.1,0.1-0.2,0.2-0.3,0.3
		c0,0-0.1-0.1-0.4-0.3c-0.1-0.1-0.3-0.2-0.5-0.4l-12.1,52l-52.8,20.7c0.1,0,0.1,0,0.2,0.1C62.9,543.1,63.4,543.2,64,543.3z"/>
	<path class="st0" d="M142.5,470.8c0,0,0,0.4-0.2,0.8c0,0.1-0.1,0.2-0.1,0.3l19.8,24.1c0,0,0,0,0,0c0.1,0.1,0.3,0.1,0.4,0.1
		c0.1,0,0.3,0.1,0.5,0.1c0.2,0,0.3,0,0.5,0c0.1,0,0.1,0,0.2,0l-21-25.6C142.5,470.6,142.5,470.7,142.5,470.8z"/>
	<path class="st0" d="M141.2,472.1c-0.3-0.2-0.6-0.6-1-1.2c0,0-0.4-1.2-1-2.2c-0.3-0.4-0.6-0.8-1.1-1c-0.2-0.1-0.5-0.2-0.7-0.3
		c-0.1,0-0.1,0-0.2,0l23,27.9c0.1-0.1,0.3-0.2,0.4-0.4l0.4,0c0.1,0.2,0.2,0.3,0.3,0.4c0.1,0.1,0.2,0.2,0.3,0.3
		c0.1,0.1,0.2,0.1,0.4,0.2l-19.8-24.1c-0.1,0.1-0.2,0.3-0.3,0.3C141.8,472.3,141.5,472.3,141.2,472.1z"/>
	<path class="st0" d="M64.7,543.4c0.3,0,0.6,0,1,0.1c0.5,0,1.1,0,1.7,0c0.2,0,0.5,0,0.7,0l49.9-19.6l12.7-54.4
		c-0.2,0.1-0.5,0.2-0.7,0.3c-0.3,0.1-0.5,0.2-0.7,0.3c-0.1,0.1-0.2,0.1-0.3,0.2L116.5,523L64.7,543.4z"/>
	<path class="st0" d="M70.6,543.3c0.5,0,0.9-0.1,1.4-0.1l47.3-18.6l13-55.8c-0.1,0-0.2,0.1-0.3,0.1c-0.2,0.1-0.4,0.1-0.7,0.2
		c-0.2,0.1-0.5,0.2-0.7,0.3c0,0,0,0,0,0l-12.7,54.4L68,543.4c0.3,0,0.6,0,1,0C69.5,543.4,70,543.3,70.6,543.3z"/>
	<path class="st0" d="M136.3,467.6c0,0-0.1,0-0.1,0.1c0,0,0,0-0.1,0l23.3,28.3c0,0,0,0,0.1-0.1c0.2-0.2,0.4-0.3,0.5-0.5
		c0.1,0,0.1-0.1,0.2-0.1l-23-27.9c-0.1,0-0.3,0-0.4,0C136.7,467.5,136.5,467.5,136.3,467.6z"/>
	<path class="st0" d="M73.8,543c0.5-0.1,1.1-0.1,1.6-0.2c0.4,0,0.8-0.1,1.2-0.1l44-17.3l13.3-57.1c0,0,0,0,0,0
		c-0.2,0.1-0.4,0.1-0.6,0.2c-0.2,0.1-0.4,0.1-0.6,0.2c-0.1,0-0.2,0.1-0.3,0.1l-13,55.8L72,543.2c0.1,0,0.2,0,0.2,0
		C72.7,543.1,73.3,543.1,73.8,543z"/>
	<path class="st0" d="M135.4,467.9c-0.1,0-0.2,0.1-0.3,0.1l20.4,24.8c0.2,0,0.3,0.1,0.4,0.1c0.1,0,0.1,0,0.1,0c0.1,0,0.2,0,0.3,0.1
		c0.1,0.1,0.1,0.1,0.2,0.2c0.1,0.1,0.1,0.2,0.2,0.3c0.1,0.1,0.1,0.2,0.2,0.3c0.1,0.1,0.1,0.2,0.2,0.3c0,0.1,0.1,0.2,0.1,0.3
		c0,0.1,0.1,0.1,0.1,0.2c0.1,0.1,0.1,0.2,0.2,0.4c0.1,0.1,0.1,0.3,0.2,0.4c0,0.1,0.1,0.1,0.1,0.2l1,1.2c0.1-0.1,0.2-0.2,0.3-0.2
		c0.2-0.1,0.3-0.3,0.5-0.4l-23.3-28.3C136,467.7,135.8,467.8,135.4,467.9z"/>
	<path class="st0" d="M158,496.1c0.1,0.2,0.2,0.3,0.2,0.4c0.1,0.2,0.2,0.4,0.2,0.4c0,0,0.1-0.1,0.1-0.1c0.1-0.1,0.1-0.1,0.2-0.2
		l-1-1.2c0,0.1,0.1,0.1,0.1,0.2C157.9,495.8,158,496,158,496.1z"/>
	<path class="st0" d="M134.3,468.2c-0.2,0-0.3,0.1-0.5,0.2l-13.3,57.1l-44,17.3c0.1,0,0.3,0,0.4,0c0.5-0.1,1-0.1,1.5-0.2
		c0.6-0.1,1.1-0.2,1.5-0.2c0.7-0.1,1.2-0.2,1.4-0.2c0.1,0,0.1,0,0.1,0c0.1,0,0.2,0,0.3-0.1l40-15.7l13.2-56.8l19.3,23.5
		c0.1-0.1,0.4-0.2,0.6-0.2c0.2,0,0.3,0,0.5,0.1c0,0,0,0,0,0L135.1,468c-0.1,0-0.1,0-0.2,0.1C134.7,468.1,134.5,468.1,134.3,468.2z"
		/>
	<path class="st0" d="M84.3,541.2c0.5-0.1,1-0.3,1.5-0.4c0.5-0.1,1-0.3,1.4-0.4c0.5-0.1,0.9-0.3,1.4-0.4c0.5-0.1,0.9-0.3,1.4-0.4
		c0.5-0.1,0.9-0.3,1.4-0.4c0.4-0.1,0.9-0.3,1.3-0.5c0.4-0.1,0.9-0.3,1.3-0.4l8.4-3.3c0.1,0,0.1,0,0.2-0.1c0.4-0.2,0.8-0.3,1.1-0.5
		c0.4-0.2,0.7-0.3,1.1-0.5c0.4-0.2,0.7-0.3,1.1-0.5c0.4-0.2,0.7-0.3,1.1-0.5c0.3-0.2,0.7-0.3,1-0.5c0.3-0.2,0.7-0.3,1-0.5
		c0.3-0.2,0.7-0.3,1-0.5l-0.1,0.1c0.1,0.1,0.3,0.1,0.5,0.2c0,0,0.1,0,0.2,0l12.4-4.9l12.8-55.1l18.9,23c0-0.1-0.1-0.1-0.1-0.2
		c-0.1-0.1-0.1-0.2-0.2-0.3c-0.1-0.1-0.1-0.2-0.1-0.3c-0.1-0.1-0.1-0.2-0.1-0.3c0-0.2-0.1-0.3-0.1-0.4c0-0.2,0.1-0.3,0.2-0.4
		L135,469.3l-13.2,56.8l-40,15.7c0.4-0.1,0.7-0.2,1.1-0.3C83.3,541.5,83.8,541.4,84.3,541.2z"/>
	<path class="st0" d="M155.6,495.8c-0.1-0.1-0.1-0.2-0.2-0.2c-0.1-0.1-0.1-0.2-0.2-0.2c-0.1-0.1-0.1-0.2-0.2-0.2
		c-0.1-0.1-0.2-0.2-0.2-0.2l0.9,1.1C155.7,496,155.7,495.9,155.6,495.8z"/>
	<path class="st0" d="M123,526.9l-12.4,4.9c0.1,0,0.3,0,0.4,0c0.2,0,0.4,0,0.6-0.1c0.2,0,0.4-0.1,0.6-0.1c0.2,0,0.4-0.1,0.7-0.1
		c0.2-0.1,0.4-0.1,0.6-0.2c0.2-0.1,0.4-0.1,0.6-0.2c0.2-0.1,0.4-0.1,0.6-0.2c0.2-0.1,0.4-0.1,0.6-0.2c0.2-0.1,0.4-0.1,0.6-0.2
		c0.2-0.1,0.4-0.1,0.6-0.2c0.2-0.1,0.4-0.1,0.6-0.2c0.2-0.1,0.4-0.1,0.6-0.2c0.2-0.1,0.4-0.1,0.6-0.2c0.1,0,0.2-0.1,0.2-0.1
		s0,0,0,0.1l5.5-2.2l12.4-53.5l20,24.4c0-0.1,0-0.1,0-0.2c0-0.2,0-0.5-0.1-0.7c0-0.2-0.1-0.3-0.2-0.5c-0.1-0.1-0.1-0.3-0.2-0.4
		c-0.1-0.1-0.1-0.2-0.2-0.3c-0.1-0.1-0.2-0.3-0.3-0.4c0,0,0,0,0,0l-0.9-1.1c0,0,0,0,0,0c0,0-0.1-0.1-0.1-0.1c0,0,0,0,0,0l-18.9-23
		L123,526.9z"/>
	<path class="st0" d="M95.3,537.8c0.4-0.2,0.8-0.3,1.3-0.5c0.4-0.2,0.8-0.3,1.2-0.5c0.4-0.2,0.8-0.3,1.2-0.5
		c0.4-0.2,0.8-0.3,1.2-0.5c0.4-0.2,0.8-0.3,1.2-0.5c0.3-0.1,0.7-0.3,1-0.4l-8.4,3.3c0,0,0,0,0,0C94.4,538.1,94.9,538,95.3,537.8z"/>
	<path class="st0" d="M118.6,530.5c0,0.1,0,0.3,0,0.4l4.3-1.7c0.6-0.7,1.2-1.4,1.9-2.1c0.4-0.4,0.7-0.8,1.1-1.2l11.5-49.5l18.9,23
		c0,0,0-0.1,0.1-0.1c0.2-0.3,0.3-0.5,0.3-0.8l-20-24.4l-12.4,53.5l-5.5,2.2c0,0.1,0,0.1,0,0.2C118.6,530.1,118.6,530.3,118.6,530.5z
		"/>
	<path class="st0" d="M118.6,531.5c0,0.2,0,0.3,0,0.5c0,0,0,0,0,0l2.9-1.1c0.4-0.5,0.8-1,1.3-1.5c0.1-0.1,0.1-0.1,0.2-0.2l-4.3,1.7
		c0,0,0,0.1,0,0.1C118.6,531.2,118.6,531.3,118.6,531.5z"/>
	<path class="st0" d="M125.9,525.9c0.3-0.3,0.5-0.6,0.8-0.9c0.3-0.4,0.6-0.7,0.9-1l10.5-45.3l17.6,21.4c0.1-0.1,0.1-0.1,0.1-0.1
		c0,0,0.1-0.1,0.1-0.1c0.2-0.1,0.3-0.3,0.4-0.4l-18.9-23L125.9,525.9z"/>
	<path class="st0" d="M118.5,532.9c0,0.1,0,0.1,0,0.2l1.5-0.6c0.1-0.1,0.2-0.2,0.3-0.4c0.3-0.4,0.7-0.8,1.1-1.3l-2.9,1.1
		c0,0.1,0,0.3,0,0.4C118.6,532.6,118.5,532.8,118.5,532.9z"/>
	<path class="st0" d="M129.2,522.1l9.6-41.3l16.3,19.8c0.1-0.1,0.2-0.2,0.3-0.3c0.1-0.1,0.2-0.2,0.3-0.3l-17.6-21.4L127.6,524
		c0.3-0.3,0.6-0.7,0.8-0.9C128.8,522.7,129,522.4,129.2,522.1z"/>
	<path class="st0" d="M118.5,533.4c0,0.2,0,0.4-0.1,0.6c0,0.1,0,0.1,0,0.2l0.4-0.1c0-0.1,0.1-0.1,0.1-0.2c0.1-0.1,0.2-0.2,0.3-0.3
		c0.1-0.1,0.2-0.2,0.3-0.3c0.2-0.2,0.4-0.5,0.6-0.7l-1.5,0.6C118.5,533.2,118.5,533.3,118.5,533.4z"/>
	<path class="st0" d="M129.5,521.9c0,0,0.1,0.1,0.2,0.1c0.1,0,0.1,0,0.2,0.1c0.1,0,0.1,0,0.2,0c0.1,0,0.2,0,0.2,0c0,0,0.1,0,0.1,0
		l9.1-39.2l15.1,18.3c0.1-0.1,0.3-0.3,0.4-0.4c0.1-0.1,0.1-0.1,0.2-0.2l-16.3-19.8l-9.6,41.3C129.4,522,129.5,521.9,129.5,521.9
		C129.5,521.9,129.5,521.9,129.5,521.9z"/>
	<path class="st0" d="M118.2,534.9C118.2,534.9,118.2,534.9,118.2,534.9C118.3,534.9,118.3,534.9,118.2,534.9
		c0.1-0.1,0.1-0.2,0.1-0.3C118.3,534.8,118.2,534.9,118.2,534.9z"/>
	<path class="st0" d="M130.8,522c0.1,0,0.2,0,0.3-0.1c0.1,0,0.2-0.1,0.3-0.1c0.1,0,0.2-0.1,0.3-0.1c0,0,0,0,0,0l8.6-36.8l13.8,16.8
		c0,0,0.1-0.1,0.1-0.1c0.1-0.2,0.3-0.3,0.4-0.4c0,0,0,0,0,0l-15.1-18.3l-9.1,39.2c0.1,0,0.1,0,0.2,0C130.7,522,130.7,522,130.8,522z
		"/>
	<path class="st0" d="M118.4,534.6C118.4,534.6,118.4,534.6,118.4,534.6C118.4,534.6,118.4,534.6,118.4,534.6
		c0.1-0.1,0.2-0.2,0.3-0.3c0-0.1,0.1-0.1,0.1-0.2l-0.4,0.1c0,0,0,0.1,0,0.1C118.4,534.4,118.4,534.5,118.4,534.6z"/>
	<path class="st0" d="M131.7,521.7c0.1,0,0.2-0.1,0.2-0.1c0.1,0,0.2-0.1,0.3-0.1c0.1,0,0.2-0.1,0.3-0.1c0.1,0,0.2-0.1,0.3-0.1
		c0.1,0,0.1-0.1,0.2-0.1l0.7-2.9l0,0c0,0-0.1,0-0.1,0c0,0,0,0,0.1,0c0,0,0,0,0.1,0l7.3-31.2l12.7,15.4c0.1-0.1,0.1-0.1,0.2-0.2
		c0.1-0.1,0.2-0.2,0.3-0.3l-13.8-16.8L131.7,521.7z"/>
	<path class="st0" d="M133.9,517.9c0.1,0,0.1-0.1,0.2-0.1c0.1,0,0.1-0.1,0.2-0.1c0.1,0,0.1-0.1,0.2-0.1c0.1,0,0.1-0.1,0.2-0.1
		c0.1,0,0.1-0.1,0.2-0.1c0,0,0.1-0.1,0.1-0.1l6.6-28.4l11.5,14c0.1-0.1,0.2-0.2,0.3-0.3c0.1-0.1,0.1-0.1,0.2-0.2l-12.7-15.4
		l-7.3,31.2c0,0,0.1,0,0.1-0.1C133.8,518,133.8,518,133.9,517.9z"/>
	<path class="st0" d="M133.2,521.1c0.1,0,0.2-0.1,0.2-0.1c0.1,0,0.2-0.1,0.2-0.1c0.1,0,0.1-0.1,0.2-0.1c0,0,0.1,0,0.1-0.1
		c0,0,0.1,0,0.1-0.1c0,0,0,0,0.1,0l0.6-2.6l-1.1,0.3l-0.7,2.9c0,0,0,0,0,0C133,521.1,133.1,521.1,133.2,521.1z"/>
	<path class="st0" d="M134.3,520.5c0,0,0.1,0,0.1-0.1c0,0,0.1,0,0.1-0.1c0,0,0.1,0,0.1-0.1c0,0,0.1,0,0.1-0.1c0,0,0.1,0,0.1,0
		c0,0,0.1,0,0.1,0c0,0,0.1,0,0.1,0c0,0,0.1,0,0.1,0c0,0,0.1,0,0.1,0c0,0,0.1,0,0.1,0c0,0,0.1,0,0.1,0c0,0,0,0,0.1,0l0.5-2.4
		c-0.1,0-0.2,0.1-0.3,0.1c-0.2,0.1-0.3,0.1-0.5,0.2l-0.3,0.1l-0.6,2.6c0,0,0,0,0,0C134.2,520.5,134.2,520.5,134.3,520.5z"/>
	<path class="st0" d="M134.9,517.2C134.9,517.2,134.9,517.1,134.9,517.2l0.2-0.1l0-0.1c0,0,0,0,0.1-0.1c0,0,0,0,0.1-0.1
		c0,0,0,0,0.1-0.1c0,0,0,0,0.1,0c0,0,0,0,0.1,0c0,0,0,0,0.1,0c0,0,0,0,0.1,0c0,0,0,0,0.1,0c0,0,0,0,0.1,0c0,0,0,0,0.1,0
		c0,0,0,0,0.1,0c0,0,0,0,0.1,0c0,0,0,0,0,0c0,0,0,0,0,0c0,0,0,0,0,0c0,0,0,0,0,0c0,0,0,0,0,0c0,0,0,0,0,0c0,0,0,0,0,0c0,0,0,0,0,0
		c0,0,0,0,0,0l5.9-25.5l10.4,12.6c0,0,0.1-0.1,0.1-0.1c0.1-0.1,0.2-0.2,0.4-0.3c0,0,0,0,0,0l-11.5-14L134.9,517.2z"/>
	<path class="st0" d="M135.4,519.9C135.4,519.9,135.4,519.9,135.4,519.9c0.1-0.1,0.1-0.1,0.1-0.1c0,0,0,0,0.1,0c0,0,0,0,0.1,0
		c0,0,0,0,0.1,0c0,0,0,0,0.1,0c0,0,0,0,0.1,0c0,0,0,0,0.1,0c0,0,0,0,0.1,0c0,0,0,0,0.1,0c0,0,0,0,0,0c0,0,0,0,0,0c0,0,0,0,0,0
		c0,0,0,0,0,0c0,0,0,0,0,0c0,0,0,0,0,0c0,0,0,0,0,0c0,0,0,0,0,0c0,0,0,0,0,0c0,0,0.1,0,0.1-0.1l0.5-2.2c0,0,0,0,0,0c0,0,0,0,0,0
		c0,0,0,0,0,0c0,0,0,0,0,0c0,0,0,0,0,0c0,0,0,0,0,0c0,0,0,0,0,0c0,0,0,0,0,0c0,0,0,0,0,0c0,0,0,0,0,0c0,0,0,0,0,0c0,0,0,0,0,0
		c0,0,0,0,0,0c0,0,0,0-0.1,0c0,0,0,0-0.1,0c0,0,0,0-0.1,0c0,0,0,0-0.1,0c0,0,0,0-0.1,0c0,0,0,0-0.1,0c0,0,0,0-0.1,0c0,0,0,0-0.1,0
		c0,0,0,0-0.1,0c0,0,0,0,0,0c0,0-0.1,0-0.1,0L135.4,519.9C135.3,519.9,135.3,519.9,135.4,519.9C135.4,519.9,135.4,519.9,135.4,519.9
		z"/>
	<path class="st0" d="M136.2,516.2C136.2,516.1,136.3,516.1,136.2,516.2C136.3,516.1,136.3,516.1,136.2,516.2
		c0.1-0.1,0.1-0.1,0.1-0.1c0,0,0,0,0,0c0,0,0,0,0,0c0,0,0,0,0,0c0,0,0,0,0,0c0,0,0,0,0,0c0,0,0,0,0,0c0,0,0,0,0,0c0,0,0,0,0.1,0
		c0,0,0,0,0.1,0c0,0,0,0,0.1,0c0,0,0,0,0.1,0c0,0,0,0,0.1,0c0,0,0,0,0.1,0c0,0,0,0,0.1,0c0,0,0,0,0.1,0c0,0,0,0,0.1,0
		c0,0,0,0,0.1-0.1c0,0,0,0,0.1-0.1c0,0,0,0,0.1-0.1c0,0,0,0,0.1,0l5.3-22.8l9.3,11.3c0.1-0.1,0.2-0.2,0.3-0.2
		c0.1-0.1,0.2-0.1,0.2-0.2l-10.4-12.6L136.2,516.2C136.2,516.2,136.2,516.2,136.2,516.2C136.2,516.2,136.2,516.2,136.2,516.2z"/>
	<path class="st0" d="M137.6,518.6l0.5-2.1c0,0,0,0,0,0c0,0,0,0-0.1,0c0,0,0,0-0.1,0c0,0,0,0-0.1,0c0,0,0,0-0.1,0c0,0,0,0-0.1,0
		c0,0,0,0-0.1,0c0,0,0,0-0.1,0c0,0,0,0-0.1,0c0,0,0,0,0,0c0,0,0,0,0,0c0,0,0,0,0,0c-0.1,0.1-0.3,0.1-0.4,0.2c0,0,0,0,0,0
		c0,0,0,0,0,0l-0.5,2.2C136.9,519,137.3,518.8,137.6,518.6z"/>
	<path class="st0" d="M137.5,515.2C137.5,515.1,137.6,515.1,137.5,515.2c0.1-0.1,0.1-0.1,0.2-0.1l0.1,0l0-0.1c0,0,0.1-0.1,0.1-0.1
		c0,0,0.1-0.1,0.1-0.1c0,0,0.1-0.1,0.1-0.1c0,0,0.1,0,0.1-0.1c0,0,0.1,0,0.1-0.1c0,0,0.1,0,0.1-0.1c0,0,0.1,0,0.1-0.1
		c0,0,0.1,0,0.1-0.1c0,0,0.1,0,0.1-0.1c0,0,0,0,0,0l4.7-20.1l8.2,10c0,0,0.1-0.1,0.1-0.1c0.1-0.1,0.2-0.2,0.3-0.3c0,0,0,0,0.1-0.1
		l-9.3-11.3L137.5,515.2C137.4,515.2,137.4,515.2,137.5,515.2C137.5,515.2,137.5,515.2,137.5,515.2z"/>
	<path class="st0" d="M138.8,517.9l0.4-1.7c0,0-0.1,0-0.1,0c0,0,0,0,0,0c0,0,0,0,0,0c0,0,0,0,0,0c0,0,0,0,0,0c0,0,0,0,0,0
		c0,0,0,0,0,0c0,0,0,0,0,0c0,0,0,0,0,0c0,0,0,0,0,0c0,0,0,0,0,0c0,0,0,0-0.1,0c0,0,0,0-0.1,0c0,0,0,0-0.1,0c0,0,0,0-0.1,0
		c0,0,0,0-0.1,0c0,0-0.1,0-0.1,0c0,0,0,0-0.1,0c0,0,0,0-0.1,0c0,0,0,0,0,0l-0.5,2.1C138.1,518.3,138.4,518.1,138.8,517.9z"/>
	<path class="st0" d="M138.8,514.2C138.8,514.2,138.8,514.2,138.8,514.2c0.1-0.1,0.1-0.1,0.1-0.1c0,0,0,0,0.1-0.1c0,0,0,0,0.1-0.1
		c0,0,0,0,0.1-0.1c0,0,0,0,0.1,0c0,0,0,0,0,0c0,0,0,0,0,0c0,0,0,0,0,0c0,0,0,0,0,0c0,0,0,0,0,0c0,0,0,0,0.1,0c0,0,0,0,0.1,0
		c0,0,0,0,0.1,0c0,0,0,0,0.1,0c0,0,0,0,0.1,0c0,0,0,0,0.1,0c0,0,0,0,0.1,0c0,0,0,0,0,0l4.1-17.5l7.2,8.7c0,0,0,0,0,0
		c0.1-0.1,0.2-0.2,0.3-0.2c0.1-0.1,0.1-0.1,0.2-0.2l-8.2-10l-4.7,20.1C138.7,514.3,138.7,514.3,138.8,514.2
		C138.7,514.2,138.7,514.2,138.8,514.2z"/>
	<path class="st0" d="M139.8,517.3l0.3-1.5c0,0,0,0,0,0c0,0,0,0-0.1,0c0,0,0,0-0.1,0c0,0,0,0,0,0c0,0,0,0,0,0c0,0,0,0,0,0
		c0,0,0,0,0,0c0,0,0,0,0,0c0,0,0,0,0,0c0,0,0,0,0,0c0,0,0,0,0,0s0,0,0,0c0,0,0,0,0,0c-0.2,0-0.3,0.1-0.4,0.1l-0.4,1.7
		c0.5-0.3,0.8-0.5,0.8-0.5C139.6,517.4,139.7,517.4,139.8,517.3z"/>
	<path class="st0" d="M139.8,513.4C139.8,513.4,139.8,513.4,139.8,513.4C139.8,513.3,139.9,513.3,139.8,513.4
		c0.1-0.1,0.1-0.1,0.1-0.1c0,0,0,0,0.1-0.1c0,0,0,0,0.1-0.1c0,0,0,0,0.1-0.1c0,0,0.1,0,0.1-0.1c0,0,0.1,0,0.1-0.1c0,0,0.1,0,0.1-0.1
		c0,0,0.1,0,0.1-0.1c0,0,0.1,0,0.1-0.1c0,0,0.1,0,0.1-0.1c0,0,0.1,0,0.1-0.1c0,0,0.1,0,0.1-0.1c0,0,0.1-0.1,0.1-0.1c0,0,0,0,0,0
		l3.5-14.9l6.1,7.4c0.1-0.1,0.2-0.1,0.2-0.2c0.1-0.1,0.2-0.1,0.3-0.2l-7.2-8.7L139.8,513.4z"/>
	<path class="st0" d="M141.1,512.3c0,0,0.1-0.1,0.1-0.1c0,0,0.1-0.1,0.1-0.1c0,0,0.1-0.1,0.1-0.1c0,0,0.1-0.1,0.1-0.1
		c0,0,0.1-0.1,0.1-0.1c0.1-0.1,0.2-0.2,0.3-0.3l2.9-12.5l5.1,6.2c0.1,0,0.1-0.1,0.2-0.1c0.1-0.1,0.2-0.1,0.2-0.2c0,0,0,0,0,0
		l-6.1-7.4l-3.5,14.9c0,0,0.1,0,0.1-0.1C141.1,512.4,141.1,512.4,141.1,512.3z"/>
	<path class="st0" d="M140.2,517.4l0.5-0.4c0,0,0.1,0,0.1-0.1l0.4-1.5c0,0-0.1,0-0.1,0c-0.1,0.1-0.2,0.1-0.3,0.1c0,0-0.1,0-0.1,0.1
		c0,0,0,0-0.1,0c0,0,0,0-0.1,0c0,0,0,0-0.1,0c0,0,0,0-0.1,0c0,0,0,0-0.1,0c0,0,0,0-0.1,0c0,0,0,0-0.1,0c0,0,0,0,0,0l-0.3,1.5
		c0.1,0,0.2-0.1,0.3-0.1L140.2,517.4z"/>
	<path class="st0" d="M141.8,516.5l0.4-1.6c0,0,0,0,0,0c-0.1,0.1-0.3,0.1-0.4,0.2c-0.1,0.1-0.2,0.1-0.4,0.2c-0.1,0-0.2,0.1-0.2,0.1
		l-0.4,1.5C141.1,516.8,141.5,516.7,141.8,516.5z"/>
	<path class="st0" d="M145.5,500.7l4.1,4.9c0,0,0.1,0,0.1,0c0.1,0,0.1-0.1,0.2-0.1c0.1,0,0.1-0.1,0.2-0.1c0,0,0,0,0,0l-5.1-6.2
		l-2.9,12.5c0.4-0.3,0.7-0.6,1.1-0.8L145.5,500.7z"/>
	<path class="st0" d="M141.9,516.5C141.9,516.5,141.9,516.5,141.9,516.5c0.1,0,0.1,0,0.1,0c0,0,0,0,0.1,0c0,0,0,0,0.1,0
		c0,0,0,0,0.1,0c0,0,0,0,0.1,0c0,0,0,0,0.1,0c0,0,0,0,0.1,0c0,0,0,0,0.1,0c0,0,0,0,0.1,0c0,0,0,0,0.1,0c0,0,0,0,0.1,0c0,0,0,0,0.1,0
		c0,0,0.1,0,0.1,0c0,0,0,0,0,0l0.4-1.8l-0.2,0.1c-0.1,0.1-0.3,0.2-0.4,0.2c-0.1,0.1-0.2,0.1-0.4,0.2L141.9,516.5
		C141.8,516.5,141.8,516.5,141.9,516.5C141.8,516.5,141.8,516.5,141.9,516.5z"/>
	<path class="st0" d="M146,502.2l3.4,4.2c0,0,0,0,0-0.1c0-0.1-0.1-0.2-0.1-0.3c0-0.2-0.1-0.3-0.1-0.3c0.1,0,0.1,0,0.2,0
		c0,0,0.1,0,0.1,0l-4.1-4.9l-2.4,10.1c0.4-0.3,0.7-0.6,1-0.8L146,502.2z"/>
	<path class="st0" d="M144.2,510c0.4-0.3,0.8-0.6,1-0.8l1.3-5.5l3.1,3.8c0,0,0,0,0-0.1c0-0.1,0-0.3-0.1-0.4c0-0.1,0-0.3-0.1-0.4
		c0-0.1,0-0.2-0.1-0.3l-3.4-4.2L144.2,510z"/>
	<path class="st0" d="M142.9,516C142.9,516,142.9,516,142.9,516c0.1-0.1,0.1-0.1,0.2-0.1c0,0,0.1,0,0.1,0c0,0,0.1,0,0.1-0.1
		c0,0,0.1,0,0.1-0.1c0,0,0.1,0,0.1-0.1c0,0,0.1,0,0.1-0.1c0,0,0.1,0,0.1-0.1c0,0,0,0,0.1,0l0.4-1.8c0,0,0,0,0,0c0,0-0.1,0-0.1,0.1
		c0,0-0.1,0-0.1,0.1c0,0-0.1,0-0.1,0.1c0,0-0.1,0-0.1,0.1c0,0-0.1,0-0.1,0.1c0,0-0.1,0-0.1,0.1c0,0-0.1,0-0.1,0.1c0,0-0.1,0-0.1,0
		c0,0-0.1,0-0.1,0c0,0-0.1,0-0.1,0l0-0.1l-0.1,0.1l-0.4,1.8C142.8,516.1,142.8,516,142.9,516C142.8,516,142.8,516,142.9,516z"/>
	<path class="st0" d="M145.5,509c0,0,0,0.1,0,0.1c0,0,0,0.1,0,0.1c0,0,0,0.1,0,0.1c0,0,0,0.1,0,0.1c0,0,0,0.1,0,0.1c0,0,0,0.1,0,0.1
		c0,0,0,0,0,0l1.1-4.8l2.8,3.4c0,0,0-0.1,0-0.1c0-0.2,0-0.3,0-0.5c0-0.1,0-0.2,0-0.4l-3.1-3.8l-1.3,5.5c0.2-0.2,0.3-0.3,0.3-0.3
		S145.5,508.9,145.5,509z"/>
	<path class="st0" d="M143.8,515.4c0,0,0.1,0,0.1-0.1c0,0,0.1-0.1,0.1-0.1c0,0,0.1-0.1,0.1-0.1c0,0,0.1-0.1,0.1-0.1
		c0,0,0.1-0.1,0.1-0.1c0,0,0.1-0.1,0.1-0.1c0,0,0,0,0,0l0.4-1.8c0,0-0.1,0.1-0.1,0.1c0,0-0.1,0.1-0.1,0.1c0,0-0.1,0.1-0.1,0.1
		c0,0-0.1,0-0.1,0.1c0,0-0.1,0-0.1,0.1c0,0-0.1,0-0.1,0.1c0,0-0.1,0-0.1,0.1c0,0-0.1,0-0.1,0.1l-0.4,1.8c0,0,0,0,0,0
		C143.8,515.5,143.8,515.5,143.8,515.4z"/>
	<path class="st0" d="M145.9,510.1c0,0,0,0.1,0,0.1c0,0,0,0.1,0,0.1c0,0,0,0.1,0.1,0.1c0,0.1,0,0.1,0.1,0.2c0,0.1,0,0.1,0.1,0.2
		c0,0.1,0,0.1,0.1,0.2c0,0.1,0,0.1,0.1,0.2c0,0,0,0,0,0l1.1-4.7l2.3,2.8c0-0.1,0-0.2,0-0.4c0-0.2,0-0.3,0-0.5l-2.8-3.4l-1.1,4.8
		c0,0,0,0.1,0,0.1C145.9,510,145.9,510,145.9,510.1z"/>
	<path class="st0" d="M144.7,514.9c0,0,0.1-0.1,0.1-0.1c0.1,0,0.1-0.1,0.2-0.1c0.1,0,0.1-0.1,0.2-0.1c0.1,0,0.1-0.1,0.2-0.1
		c0.1,0,0.1-0.1,0.2-0.1c0,0,0,0,0,0l0.4-1.7c0,0,0,0,0,0c-0.1,0-0.1,0.1-0.2,0.1c-0.1,0-0.1,0.1-0.2,0.1c0,0-0.1,0.1-0.1,0.1
		c0,0-0.1,0.1-0.1,0.1c0,0-0.1,0.1-0.1,0.1c0,0-0.1,0.1-0.1,0.1c0,0,0,0,0,0l-0.4,1.8C144.7,514.9,144.7,514.9,144.7,514.9z"/>
	<path class="st0" d="M145.9,514c0.1-0.1,0.1-0.1,0.2-0.1c0.1-0.1,0.1-0.1,0.2-0.2c0.1-0.1,0.1-0.1,0.2-0.2c0,0,0,0,0,0l1.4-5.8
		l1.8,2.2c0-0.1,0-0.2,0-0.4c0-0.1,0-0.2,0-0.4l-2.3-2.8l-1.1,4.7c0,0,0,0.1,0.1,0.1c0,0.1,0.1,0.1,0.1,0.2c0,0.1,0.1,0.1,0.1,0.2
		c0,0.1,0.1,0.1,0.1,0.1c0,0,0.1,0.1,0.1,0.1c0,0,0.1,0.1,0.1,0.1l0,0.1c0,0-0.1,0.1-0.2,0.1c-0.1,0-0.1,0.1-0.2,0.1
		c-0.1,0-0.1,0.1-0.2,0.1c-0.1,0-0.1,0.1-0.2,0.1c0,0-0.1,0.1-0.1,0.1l-0.4,1.7c0,0,0.1-0.1,0.1-0.1
		C145.8,514.1,145.8,514.1,145.9,514z"/>
	<path class="st0" d="M146.5,513.5c0.1-0.1,0.1-0.1,0.2-0.2c0.1-0.1,0.1-0.1,0.2-0.2c0.1-0.1,0.2-0.1,0.2-0.2
		c0.1-0.1,0.2-0.2,0.2-0.2c0,0,0,0,0,0l0.9-3.7l1.3,1.6c0.1-0.2,0.1-0.4,0.1-0.6l-1.8-2.2L146.5,513.5z"/>
	<path class="st0" d="M147.9,512.2C147.9,512.2,148,512.1,147.9,512.2c0.1-0.1,0.2-0.1,0.2-0.1c0,0,0.1,0,0.1,0l0.4-1.8l0.7,0.8
		c0.1-0.2,0.1-0.3,0.2-0.5l-1.3-1.6l-0.9,3.7c0.1-0.1,0.2-0.2,0.2-0.2C147.8,512.4,147.9,512.3,147.9,512.2z"/>
	<path class="st0" d="M148.3,512.1C148.3,512.1,148.3,512.1,148.3,512.1c0.2-0.1,0.2-0.1,0.3-0.1c0.1-0.1,0.2-0.1,0.3-0.2
		c0.1-0.1,0.2-0.2,0.2-0.2l0,0l0,0c0,0,0,0,0-0.1c0.1-0.1,0.1-0.2,0.2-0.3l-0.7-0.8L148.3,512.1z"/>
	<path class="st0" d="M149.1,511.5L149.1,511.5C149.1,511.5,149.1,511.5,149.1,511.5L149.1,511.5z"/>
</g>
</svg>
