<?xml version="1.0" encoding="utf-8"?>
<!-- Generator: Adobe Illustrator 22.0.1, SVG Export Plug-In . SVG Version: 6.00 Build 0)  -->
<svg version="1.1" id="レイヤー_1" xmlns="http://www.w3.org/2000/svg" xmlns:xlink="http://www.w3.org/1999/xlink" x="0px"
	 y="0px" viewBox="0 0 640 640" style="enable-background:new 0 0 640 640;" xml:space="preserve">
<style type="text/css">
	.st0{fill:none;stroke:#E50012;stroke-width:0.2448;stroke-miterlimit:10;}
	.st1{fill:none;stroke:#E50012;stroke-width:0.1577;stroke-miterlimit:10;}
</style>
<g>
	<path class="st0" d="M234.2,257c-0.2-0.2-0.3-0.5-0.3-0.5l0.9,2.7l0.9-0.5C235,258.1,234.5,257.4,234.2,257z"/>
	<path class="st0" d="M236.4,262.3c0,0,0,0.9,0.3,1.5c0,0.2,0.2,0.4,0.2,0.6l2.9-1.5c-0.6-0.5-1-1.1-1.7-1.6
		c-0.2-0.2-0.3-0.3-0.5-0.4l-2.2,1.1C235.8,262.1,236,262.3,236.4,262.3z"/>
	<path class="st0" d="M268.6,251.3c-0.4,0-0.7,0.1-1,0.1c-0.4,0-0.7,0.1-1,0.2c-0.4,0-0.7,0.1-1,0.2c-0.3,0.1-0.7,0.1-1,0.4
		c-0.3,0.1-0.8,0.3-1,0.4c-0.4,0.2-0.6,0.3-1,0.6c-0.4,0.2-0.6,0.5-0.9,0.8s-0.6,0.7-0.8,1.1c-0.1,0.1-0.2,0.4-0.2,0.5l8.9-4.4
		C269.3,251.4,269,251.3,268.6,251.3z"/>
	<path class="st0" d="M238.3,264.9c0,0,0,0.2,0.2,0.6c0.1,0.3,0.2,0.6,0.4,0.8l3-1.4c-0.6-0.7-1.4-1.3-2-2.1l-2.9,1.5
		C237.2,264.7,237.7,265,238.3,264.9z"/>
	<path class="st0" d="M260.3,258.7l21.3-10.6c-0.8-0.3-1.7-0.5-2.5-0.4c-0.5-0.1-1,0.1-1.4,0.2c-0.4,0-0.8,0.3-1.2,0.4
		c-0.3,0.1-0.8,0.3-1,0.4c-0.3,0.1-0.6,0.3-0.9,0.5c-0.3,0.1-0.6,0.2-0.9,0.5c-0.3,0.1-0.5,0.3-0.7,0.4c-0.3,0.1-0.5,0.3-0.7,0.4
		c-0.4,0.2-0.5,0.4-0.7,0.4c-0.2,0.2-0.4,0.2-0.4,0.2s-0.2,0-0.6,0c-0.2,0-0.6,0-1,0.1c0,0,0,0-0.2,0l-8.9,4.4
		c-0.2,0.4-0.3,0.8-0.4,1.3C260.1,257.5,260.2,258.1,260.3,258.7z"/>
	<path class="st0" d="M284.2,384.3c0.2,0.6,0.6,1,0.8,1.6c0.5,0.9,0.8,1.8,1.4,2.6c0.4,0.8,0.9,1.7,1.3,2.5c0.4,0.7,0.8,1.6,1.2,2.3
		c0.3,0.5,0.5,0.9,0.8,1.4l-1.2-8.4L284.2,384.3z"/>
	<path class="st0" d="M239.4,267.3c0.4,0.5,1,0.9,1.9,0.3c0,0,0,0.2,0,0.4l2.4-1.2c-0.1-0.1-0.2-0.2-0.3-0.3c-0.6-0.5-1-1.1-1.7-1.6
		l0,0l-3,1.4C239.1,266.7,239.2,267,239.4,267.3z"/>
	<path class="st0" d="M241.6,268.8c0.1,0.5,0.5,1.1,1,1.6l3.1-1.6c-0.2-0.2-0.4-0.4-0.6-0.5c-0.4-0.4-0.8-0.9-1.4-1.3l-2.4,1.2
		C241.5,268.2,241.5,268.5,241.6,268.8z"/>
	<path class="st0" d="M260.9,261.2l22.8-11.3c-0.3-0.5-0.8-0.9-1.2-1.2l-0.7-0.4c-0.1-0.1-0.1-0.1-0.3-0.1l-21.3,10.6
		C260.4,259.5,260.6,260.4,260.9,261.2z"/>
	<path class="st0" d="M291.2,397.6c0.3,0.6,0.7,1.3,1.2,1.9c0.3,0.6,0.8,1.2,1.1,1.8c0.1,0.1,0.1,0.3,0.2,0.4l-2.7-18.2l-9.4-4.6
		c0.2,0.4,0.3,0.6,0.5,1.1c0.5,0.9,0.9,2,1.4,3c0.2,0.4,0.4,0.8,0.6,1.2l4.1,2.1l1.2,8.4c0.1,0.3,0.2,0.6,0.4,0.7
		C290.4,396.2,290.8,396.8,291.2,397.6z"/>
	<path class="st0" d="M268.6,371.7C268.7,371.8,268.7,371.8,268.6,371.7C268.7,371.8,268.8,371.7,268.6,371.7
		c0.1-0.1,0.2-0.2,0.2-0.4C268.8,371.5,268.7,371.6,268.6,371.7z"/>
	<path class="st0" d="M277.7,373.6c0.5,0.6,1.1,1.3,1.5,1.6l0.1-1.5l-2.1-1.1C277.3,372.9,277.5,373.2,277.7,373.6z"/>
	<path class="st0" d="M245.8,271l0.3,0.3l1.5-0.7c-0.3-0.3-0.6-0.5-0.8-0.9c-0.3-0.3-0.7-0.6-0.9-1l-3.1,1.6l0.1,0.1
		C243.3,271,244.3,271.3,245.8,271z"/>
	<path class="st0" d="M285,252.1c-0.1-0.5-0.4-0.8-0.5-1.1c-0.2-0.4-0.4-0.7-0.6-1l-22.8,11.3c0.3,0.8,0.6,1.4,0.9,2.2L285,252.1z"
		/>
	<path class="st0" d="M293.8,401.7c0.3,0.5,0.5,0.8,0.9,1.3c0.4,0.5,0.7,1.1,1.1,1.6c0.3,0.5,0.7,1.1,1,1.6s0.7,0.9,1.1,1.5
		l-3.9-26.9l-14.2-7c0.5,0.9,0.8,2,1.3,2.9c0.3,0.6,0.6,1.4,1,2.1l9.4,4.6L293.8,401.7z"/>
	<path class="st0" d="M269,369.2c-0.1,0.5,0,0.9,0,1.3c0,0.4,0,0.7-0.1,1c0.2-0.2,0.4-0.7,0.8-1.1c0.3-0.3,0.5-0.6,0.8-0.9l-1.4-0.7
		C269,368.8,269,369,269,369.2z"/>
	<path class="st0" d="M248.3,272.8l2.4-1.2c-0.2-0.4-0.6-0.5-0.9-0.4c0.1-0.1,0.1-0.3,0.1-0.3l-1.7,0.3c-0.2-0.2-0.4-0.4-0.7-0.6
		l-1.5,0.7l0.3,0.3L248.3,272.8z"/>
	<path class="st0" d="M298.5,408.8c0.1,0.3,0.4,0.5,0.5,0.8c0.1,0.3,0.4,0.5,0.5,0.8c0.1,0.3,0.4,0.5,0.5,0.8
		c0.1,0.1,0.1,0.3,0.2,0.4c0,0,0.2,0.2,0.3,0.5c0.1,0.1,0.3,0.3,0.4,0.5l-4.9-34.4L273.4,367c0.1,0.3,0.3,0.6,0.6,1
		c0.2,0.4,0.4,0.7,0.7,1.1c0.2,0.4,0.4,0.7,0.7,1.1c0.2,0.4,0.4,0.7,0.8,1.2c0.2,0.4,0.5,0.8,0.8,1.2c0.1,0.1,0.1,0.1,0.2,0.2
		l2.1,1.1l0-0.4c0,0.2,0.1,0.3,0.2,0.6l14.2,7l3.9,26.9c0.1,0.1,0.1,0.3,0.2,0.4C298,408.2,298.1,408.5,298.5,408.8z"/>
	<path class="st0" d="M272,367.1c0.3-0.3,0.4-0.5,0.5-0.6l-3.6-1.8c0,0.4,0,0.6,0,0.9c0,0.4,0.1,0.8,0,1.1c0,0.4,0.1,0.8,0,1.3
		c0,0.2,0,0.4,0,0.7l1.4,0.7c0.2-0.2,0.4-0.4,0.5-0.6C271.3,368.1,271.7,367.7,272,367.1z"/>
	<path class="st0" d="M285.6,254.4c0-0.2-0.1-0.5-0.1-0.7c-0.1-0.5-0.3-0.9-0.4-1.2c-0.1-0.1,0-0.2-0.1-0.3l-23,11.3
		c0.3,0.6,0.8,1.4,1.2,2.1L285.6,254.4z"/>
	<path class="st0" d="M249.2,273.3l-0.7,1.2l-0.4,0.9l0.1,0.1l3.6-1.7c-0.1-0.5-0.3-0.9-0.5-1.3c-0.1-0.3-0.2-0.6-0.4-0.7l-2.4,1.2
		l0.1,0.1L249.2,273.3z"/>
	<path class="st0" d="M302.2,413.8c0.3,0.3,0.4,0.5,0.7,0.8c0.3,0.3,0.5,0.6,0.8,0.9s0.5,0.6,0.8,0.9c0,0,0,0,0.1,0.1l-5.9-40.8
		L269,361c0,0.2,0,0.4,0,0.6c0,0.4,0,0.7,0,1.1c0,0.4,0,0.7,0,1.1c0,0.4,0,0.7,0,1.1l0,0.2l3.6,1.8c0.3-0.3,0.4-0.4,0.4-0.4
		s0.1,0.3,0.4,0.7c0,0,0,0,0.1,0.1l22.8,11.2l4.9,34.4c0.1,0.1,0.2,0.2,0.2,0.4C301.7,413.1,302,413.4,302.2,413.8z"/>
	<path class="st0" d="M263.2,265.6c0,0-0.2,0.2-0.2,0.5c-0.2,0.4-0.4,0.9-0.7,1.7c-0.1,0.3-0.2,0.5-0.3,0.8l24-11.8
		c0-0.4,0-0.6-0.2-0.9c0-0.4-0.1-0.8-0.2-1c0-0.2-0.1-0.3-0.1-0.5L263.2,265.6C263.2,265.5,263.2,265.6,263.2,265.6z"/>
	<path class="st0" d="M261.2,271.6l26-12.9c-0.7-0.4-1.1-0.6-1.1-0.6l0-0.2c0-0.4,0-0.6-0.1-1l0-0.2l-24,11.8
		c-0.1,0.3-0.2,0.7-0.4,1.1C261.4,270.2,261.2,270.9,261.2,271.6z"/>
	<path class="st0" d="M306.2,418.3c0.3,0.3,0.5,0.6,0.9,1c0.3,0.3,0.4,0.5,0.7,0.8l-6.8-46.9l-32.3-15.9c0,0.2,0,0.4-0.1,0.5
		c-0.1,0.3,0,0.6,0,0.9c-0.1,0.3,0,0.6,0,0.9c0,0.4,0,0.6,0.1,1c0,0.2-0.1,0.3,0,0.4l29.8,14.7l6,40.9c0.3,0.3,0.5,0.6,0.7,0.8
		C305.7,417.6,306,417.9,306.2,418.3z"/>
	<path class="st0" d="M248.5,276.4l0.6,1.2l3.1-1.5c0.1-0.1,0-0.2,0.1-0.3c0,0,0,0,0-0.2c-0.1-0.3-0.2-0.9-0.3-1.5
		c-0.1-0.1,0-0.2-0.1-0.3l-3.6,1.7l0.3,0.6L248.5,276.4z"/>
	<path class="st0" d="M303.4,252.2L303.4,252.2c0.1-0.1,0.1-0.1,0.3-0.1l2.1-14.8l-0.2,0l0,0l-0.8-2.4l-0.5-1.3c0.1,0.3,0,1.8-0.4,4
		c-0.4,2.7-0.9,6.5-1.5,10c-0.1,0.5-0.1,1-0.3,1.4c-0.1,0.5-0.2,0.9-0.3,1.4s-0.2,0.9-0.2,1.3c-0.1,0.5-0.2,0.9-0.2,1.3
		c-0.1,0.5-0.2,0.9-0.2,1.3c-0.1,0.1,0,0.2-0.1,0.3l1.6-0.8L303.4,252.2z"/>
	<path class="st0" d="M249.1,277.6l0.5,1.5c0,0.2,0.1,0.3,0.2,0.6l2.1-1c0.1-0.5-0.1-1,0.1-1.4c0-0.4,0.1-0.8,0.2-1.1L249.1,277.6
		L249.1,277.6z"/>
	<path class="st0" d="M260.5,274.2l28.7-14.1c-0.9-0.6-1.6-1-2-1.4l-26,12.9c-0.1,0.1-0.1,0.3-0.1,0.3
		C260.9,272.6,260.7,273.4,260.5,274.2z"/>
	<path class="st0" d="M309.1,421.2c0.4,0.4,0.6,0.7,1,1.1c0.3,0.3,0.6,0.5,0.9,1l-7.6-52.4l-34.7-17.1l0,0c0,0.2-0.1,0.5,0.1,0.8
		c0,0.2,0,0.6,0.1,0.8c0,0.2,0,0.6,0.1,0.8c-0.1,0.3,0,0.6,0,0.9c0,0.2,0,0.2,0,0.4l32.3,15.9l6.8,46.9c0.1,0.1,0.1,0.1,0.2,0.2
		C308.4,420.5,308.8,420.9,309.1,421.2z"/>
	<path class="st0" d="M250.5,281.6l1.6-0.8c0-0.2-0.1-0.5-0.1-0.7c-0.1-0.5-0.1-1-0.2-1.4l0,0l-2.1,1c0.1,0.3,0.2,0.6,0.4,0.8
		C250.1,280.8,250.4,281.1,250.5,281.6z"/>
	<path class="st0" d="M305.3,247.7c-0.1-0.5-0.4-0.8-0.4-0.8c0.2,0,0.5-0.1,0.7-0.1c0.6-0.3,0.7-1.2,0.6-2c-0.2-0.9-0.4-1.8-0.4-1.8
		c1.3-0.7,0.8-2,0.4-2.7c-0.2-0.4-0.3-0.5-0.3-0.5c0.4-0.4,0.8-1.3,1.1-1.9c0.2-0.4,0.2-0.7,0.2-0.7l0,0l-1.2,0.2l-2.1,14.8
		C306,250.9,305.7,248.9,305.3,247.7z"/>
	<path class="st0" d="M260.3,275.7c-0.1,0.3,0,0.7-0.2,1.1l30.9-15.3c-0.6-0.5-1.2-1.1-1.8-1.4l-28.7,14.1c0,0,0,0-0.1,0.1
		C260.5,274.7,260.4,275.2,260.3,275.7z"/>
	<path class="st0" d="M312.3,424.3c0.4,0.4,0.8,0.7,1.2,1.1c0.2,0.2,0.4,0.4,0.6,0.5l-8.3-57.5l-36.9-18.3c0,0.2,0,0.4,0,0.7
		c0,0.2,0,0.4,0,0.7c0,0.2,0,0.4,0,0.7c0,0.2-0.1,0.5,0,0.7c0,0.2-0.1,0.5,0,0.7l34.7,17.1l7.6,52.4l0.1,0.1
		C311.5,423.6,311.9,424,312.3,424.3z"/>
	<path class="st0" d="M301.2,255.2c-0.5-0.2-0.8-0.3-1.1-0.4c-0.3-0.1-0.5,0.1-0.4,0.5c-0.1,0.3,0.1,0.8,0.1,1.3
		c0,0.2,0,0.4,0.1,0.5l2.1-1l-0.1-0.1l0.2-0.5l0.4-1.1l0.4-1.1l0,0l-1.6,0.8c-0.1,0.5-0.1,0.8-0.2,0.9
		C301.3,255.1,301.2,255.2,301.2,255.2z"/>
	<path class="st0" d="M300.3,258c0.1,0.5,0.3,0.8,0.4,1l3.4-1.7L304,257l-2-1l-2.1,1C300,257.4,300.2,257.7,300.3,258z"/>
	<path class="st0" d="M259.9,278.7c0,0.2-0.1,0.3-0.1,0.5l32.9-16.2c-0.2-0.2-0.4-0.4-0.6-0.5c-0.4-0.4-0.7-0.6-1-0.9l-30.9,15.3
		c0,0.2-0.1,0.3-0.1,0.5C260,277.8,260,278.2,259.9,278.7z"/>
	<path class="st0" d="M314,425.9c0.2,0.2,0.4,0.4,0.6,0.5c0.4,0.4,0.8,0.7,1.2,1.1c0.3,0.3,0.6,0.5,0.9,0.6l-9-61.9l-41.7-20.6
		c0.1,0.1,0,0.2,0.1,0.3c0.1,0.3,0.2,0.6,0.4,0.7c0.1,0.3,0.3,0.5,0.4,0.7c0.1,0.3,0.3,0.5,0.5,0.6c0.2,0.2,0.4,0.4,0.7,0.4
		c0.1,0.1,0.2,0,0.2,0s0,0.4,0,0.9c0,0.2,0,0.6,0.1,1l36.9,18.3L314,425.9z"/>
	<path class="st0" d="M251.1,283c0,0.2,0.1,0.3,0.1,0.5l1.5-0.7c-0.1-0.5-0.4-0.8-0.5-1.3c0-0.2-0.1-0.5-0.1-0.7l-1.6,0.8
		c0,0,0.1,0.1,0,0.2C250.7,282.2,251,282.5,251.1,283z"/>
	<path class="st0" d="M300.9,259.8c0.3,0.3,0.6,0.5,1,0.9l2.7-1.3l-0.2-1.2l0,0l-0.1-0.7l-3.4,1.7c0,0.2,0.1,0.3,0.1,0.5
		C301,259.7,300.9,259.8,300.9,259.8z"/>
	<path class="st0" d="M319,429.3c0.3,0.1,0.4,0.2,0.6,0.1L310,364l-45.5-22.4c0,0.2,0.1,0.5,0.2,0.6c0.1,0.3,0.3,0.6,0.4,1
		c0.1,0.3,0.3,0.6,0.5,0.9s0.2,0.6,0.5,0.9c0.1,0.3,0.2,0.4,0.3,0.6l41.7,20.6l9,61.9c0.1,0.1,0.3,0.3,0.4,0.4
		C317.9,428.9,318.4,429.1,319,429.3z"/>
	<path class="st0" d="M252,285.2l1.5-0.7c0-0.2-0.2-0.4-0.2-0.6c-0.2-0.4-0.4-0.8-0.6-1.2l0,0l-1.5,0.7c0.1,0.3,0.2,0.6,0.4,0.8
		C251.7,284.6,251.9,285,252,285.2z"/>
	<path class="st0" d="M259.7,281.4l34.5-17c-0.5-0.4-1-1.1-1.5-1.4l-32.9,16.2c-0.1,0.3,0,0.7-0.1,1
		C259.8,280.6,259.8,281,259.7,281.4z"/>
	<path class="st0" d="M321.2,429.2l0.1-0.1l0.3-0.3c0,0,0.1,0.1,0.2,0.2l-9.7-66.9l-44.6-22c0,0.2,0.1,0.3,0,0.4l-0.4,0.4
		c-0.2-0.2-0.3-0.5-0.5-0.8c-0.1-0.1-0.1-0.3-0.3-0.5l-3.3-1.6c0.1,0.3,0.3,0.8,0.5,1.1c0.1,0.3,0.3,0.8,0.5,1.1
		c0.1,0.3,0.3,0.8,0.4,1c0,0.2,0.1,0.3,0.1,0.5l45.5,22.4l9.5,65.4C320.3,429.7,320.8,429.6,321.2,429.2z"/>
	<path class="st0" d="M259.7,282.9c0,0.2-0.1,0.5,0,0.7l36-17.7c-0.4-0.4-0.7-0.8-1.2-1.2c-0.1-0.1-0.2-0.2-0.3-0.3l-34.5,17
		c0,0,0,0,0,0.2C259.8,282,259.8,282.4,259.7,282.9z"/>
	<path class="st0" d="M252.7,286.5c0.1,0.1,0.1,0.3,0.2,0.4l1.6-0.8c-0.2-0.4-0.3-0.6-0.6-1c-0.1-0.3-0.2-0.4-0.3-0.6l-1.5,0.7
		c0.1,0.1,0.1,0.1,0.1,0.3C252.4,285.9,252.6,286.2,252.7,286.5z"/>
	<path class="st0" d="M302.9,261.8c0.1,0.1,0.1,0.3,0.2,0.4l1.9-1c0-0.2-0.1-0.3,0-0.4c-0.1-0.7-0.4-1-0.4-1l0-0.4l0,0l-2.7,1.3
		C302.3,261,302.7,261.5,302.9,261.8z"/>
	<path class="st0" d="M253.8,288.6l1.8-0.8c-0.1-0.1-0.2-0.2-0.2-0.4c-0.2-0.4-0.5-0.6-0.9-1.1l-0.1-0.1l-1.6,0.8
		c0.1,0.3,0.2,0.6,0.4,0.7C253.5,287.9,253.7,288.3,253.8,288.6z"/>
	<path class="st0" d="M259.8,285.4l0,0.2l37.2-18.3c-0.2-0.2-0.4-0.5-0.6-0.7c-0.2-0.2-0.4-0.5-0.6-0.7l-36,17.7c0,0.2,0,0.4,0,0.6
		C259.7,284.6,259.7,285,259.8,285.4z"/>
	<path class="st0" d="M265.8,338c-0.2-0.4-0.3-0.6-0.6-1c-0.2-0.4-0.4-0.8-0.5-1.1c-0.1-0.1-0.1-0.3-0.2-0.4l-2.8-1.3
		c0.1,0.3,0.2,0.6,0.4,0.7c0,0,0.1,0.1,0.1,0.3c0.1,0.3,0.3,0.8,0.4,1.2c0.1,0.3,0.3,0.8,0.4,1.2l0,0l3.3,1.6
		c-0.1-0.1-0.1-0.3-0.3-0.5C266.1,338.7,265.9,338.3,265.8,338z"/>
	<path class="st0" d="M324.2,429.5l-10-69.5l-47.3-23.4c0,0,0.1,0.1,0,0.2c0.1,0.5,0.2,0.9,0.2,1.2c0.1,0.5,0.2,0.9,0.2,1.2
		c0.1,0.3,0,0.6,0.2,0.9l44.6,22l9.7,66.9c0.3,0.1,0.9,0.4,1.7,0.5C323.7,429.4,323.9,429.4,324.2,429.5z"/>
	<path class="st0" d="M304,263.9l1.6-0.8c-0.1-0.3-0.1-0.5-0.3-0.8c0-0.4-0.3-0.8-0.4-1l-1.9,1c0.3,0.5,0.5,0.8,0.7,1.3
		C303.9,263.6,304,263.7,304,263.9z"/>
	<path class="st0" d="M304.6,265.4l1.5-0.7c-0.1-0.5-0.2-0.9-0.4-1.2c0-0.2,0-0.4-0.1-0.5l-1.6,0.8c0.1,0.3,0.3,0.8,0.4,1
		C304.4,265.1,304.5,265.4,304.6,265.4z"/>
	<path class="st0" d="M326.2,429c0,0,0.1-0.1,0.2,0L316,358l-49.9-24.7c0.1,0.3,0.1,0.5,0.2,0.9c0.1,0.5,0.2,0.9,0.3,1.3
		c0,0.4,0.2,0.9,0.3,1.1l47.3,23.4l9.9,69.4C324.8,429.4,325.4,429.3,326.2,429z"/>
	<path class="st0" d="M264.1,334.5c-0.2-0.2-0.4-0.4-0.5-0.6c-0.2-0.4-0.4-0.7-0.7-1.1c-0.2-0.4-0.4-0.8-0.6-1.2l0,0l-2.4-1.2l0,0
		c0.1,0.5,0.4,0.8,0.6,1.4c0.2,0.4,0.4,0.8,0.6,1.2s0.4,0.7,0.6,1.2l0,0l2.8,1.3c-0.1-0.3-0.2-0.6-0.3-0.8
		C264.2,334.6,264.1,334.5,264.1,334.5z"/>
	<path class="st0" d="M254.7,289.8c0.1,0.1,0.2,0.2,0.1,0.3l4.4-2.2l-1.4,0.2l-1.6,0.2c-0.2-0.2-0.3-0.5-0.6-0.7l-1.8,0.8
		c0.1,0.1,0.1,0.1,0.1,0.3C254.2,289.2,254.5,289.5,254.7,289.8z"/>
	<path class="st0" d="M259.8,286.6c0,0.4,0,0.6,0.1,1l38.3-18.9c-0.2-0.2-0.2-0.4-0.4-0.5c-0.2-0.4-0.5-0.6-0.8-0.9l-37.2,18.3
		C259.8,286,259.7,286.3,259.8,286.6z"/>
	<path class="st0" d="M261.3,328.8c-0.1-0.3-0.2-0.6-0.4-0.8l-2.1-1.1c0,0.2,0.1,0.3,0,0.4c0.1,0.5,0.4,1,0.4,1.6
		c0.1,0.5,0.3,0.9,0.4,1.4l2.4,1.2c-0.2-0.4-0.4-0.8-0.5-1.3C261.7,329.8,261.5,329.2,261.3,328.8z"/>
	<path class="st0" d="M305,267.2C305.1,267.2,305.1,267.2,305,267.2l1.5-0.7c0-0.2,0-0.4-0.1-0.5c0-0.4-0.2-0.9-0.3-1.1l0,0
		l-1.5,0.7c0,0.2,0,0.4,0.1,0.5C304.8,266.5,304.9,266.8,305,267.2z"/>
	<path class="st0" d="M259.2,287.9l-4.4,2.2c0.1,0.3,0.3,0.5,0.6,0.7c0.2,0.2,0.3,0.5,0.5,0.6l43.2-21.4c-0.1-0.1-0.2-0.4-0.3-0.5
		c-0.2-0.4-0.5-0.6-0.8-1l-38.3,18.9l0,0.2L259.2,287.9z"/>
	<path class="st0" d="M317.9,356l-52.4-25.9c0,0.4,0.2,0.9,0.3,1.1c0.1,0.5,0.3,0.9,0.2,1.4c0,0.2,0,0.4,0.1,0.7L316,358l10.4,71
		c0.6-0.3,1.4-0.8,2-1.5L317.9,356z"/>
	<path class="st0" d="M260,324.7l-1.6-0.8c0,0.4,0.1,0.8,0.2,1.2c0,0.6,0.3,1.1,0.4,1.8l2.1,1.1c0-0.2-0.1-0.5-0.1-0.7
		C260.5,326.4,260.2,325.4,260,324.7z"/>
	<path class="st0" d="M329.9,427.2c0.1,0.1,0.2,0,0.3,0.1c0,0,0,0,0.2,0l-10.6-73.2l-54.9-27.2c0,0.4,0.2,0.9,0.2,1.2
		c0.1,0.5,0.2,1,0.3,1.5c0.1,0.1,0,0.2,0.1,0.3l52.4,25.9l10.4,71.4c0.1-0.1,0.3-0.3,0.4-0.4C329,427.1,329.5,427.2,329.9,427.2z"/>
	<path class="st0" d="M305.3,269.1l1.6-0.8c0-0.4-0.1-0.7-0.2-1c0-0.2-0.1-0.5-0.1-0.7l-1.5,0.7c0,0.4,0.1,0.7,0.1,1
		C305.2,268.6,305.2,268.8,305.3,269.1z"/>
	<path class="st0" d="M257.3,292.6L257.3,292.6l42.8-21c-0.1-0.1-0.2-0.4-0.3-0.5c-0.2-0.4-0.5-0.6-0.8-1l-43.2,21.4
		c0.1,0.1,0.2,0.2,0.3,0.3C256.6,292,257,292.4,257.3,292.6z"/>
	<path class="st0" d="M305.3,270.1c0,0.2-0.1,0.5,0,0.7l1.9-0.9c0-0.2,0-0.4,0-0.6c0-0.4-0.1-0.7-0.2-1l0,0l-1.6,0.8l0,0.2
		C305.2,269.5,305.3,269.9,305.3,270.1z"/>
	<path class="st0" d="M301.4,272.7l-0.6-0.3c-0.2-0.4-0.4-0.5-0.5-0.8l-42.8,21l2.7,0.6L301.4,272.7z"/>
	<path class="st0" d="M260,324.5c-0.3-0.8-0.4-1.4-0.4-1.6l0,0c0.3,0.1,0.9-0.2,1.4-0.4l-3.1-1.6c0,0.4,0.3,0.8,0.6,1.2
		c0,0,0,0,0,0.2c0,0.2,0.1,0.8,0.1,1.3l0,0.2l1.6,0.8C260.1,324.6,260,324.5,260,324.5z"/>
	<path class="st0" d="M332.4,427l-10.8-74.6l-57.3-28.3c0.2,0.9,0.3,1.7,0.6,2.7c0.1,0.1,0,0.2,0,0.4l54.9,27.2l10.6,73.2
		C331.1,427.3,331.8,427.2,332.4,427z"/>
	<path class="st0" d="M262.3,321.7l1.6,0.8c0,0.4,0.2,0.9,0.2,1.4l0,0.2l57.3,28.3l10.8,74.6c0.1-0.1,0.3-0.1,0.3-0.1
		c0.6-0.2,1.1-0.7,1.4-1l-11-75.3l-65-32c-0.3,0.3-0.3,0.6-0.4,0.9c-0.2,0.4-0.1,0.8-0.1,1.2l0,0.2l3.1,1.6c0.1-0.1,0.2,0,0.3-0.1
		C261.5,322.1,262,321.9,262.3,321.7z"/>
	<path class="st0" d="M260.4,294c0,0.2,0,0.4,0.1,0.7l46.7-23c0-0.2,0-0.2,0-0.4c0-0.4,0-0.6-0.1-1c0-0.2,0-0.2,0-0.4l-1.9,0.9
		l0,0.2c-0.1,0.3,0,0.6,0,0.9c-0.1,0.5,0,0.7-0.1,0.8l0,0l-0.8,0.3l-0.8,0.4l-0.8,0.3l-1.2-0.7l-41.3,20.3l0.1,0.1
		C260.4,293.4,260.4,293.8,260.4,294z"/>
	<path class="st0" d="M260.8,295.9c0,0.2,0.1,0.3,0,0.4l46.5-22.9c0.1-0.1,0-0.2,0.1-0.3c0.1-0.3,0-0.6,0-0.9c0-0.2,0-0.4,0-0.6
		l-46.7,23c0.1,0.1,0,0.2,0.1,0.3C260.6,295.2,260.7,295.6,260.8,295.9z"/>
	<path class="st0" d="M335.4,424.2c0.1,0.1,0.4,0.2,0.5,0.2L325,348.9l-65.2-32.2l0,0c-0.3,0.3-0.4,0.5-0.7,0.8
		c-0.3,0.3-0.4,0.5-0.6,0.9l-0.1,0.1l65,32l11,75.3c0.1-0.1,0.2-0.2,0.3-0.3C335,424.9,335.4,424.2,335.4,424.2z"/>
	<path class="st0" d="M337.5,423.5l-11.1-76.2l-65.1-32.1c-0.1,0.1-0.1,0.1-0.2,0.2c-0.2,0.2-0.5,0.4-0.8,0.7
		c-0.2,0.2-0.5,0.4-0.8,0.7l65.2,32.2l10.9,75.6l0.2,0C336.6,424.5,337.1,424.2,337.5,423.5z"/>
	<path class="st0" d="M260.9,296.8c0,0.2,0,0.2,0,0.4c0,0,0.6-0.2,1.2-0.6c1.5-0.7,3.8-1.6,4.7-1.5l40.3-19.9c0-0.2,0.1-0.3,0.1-0.5
		c0.1-0.3,0.1-0.5,0.1-0.8c0-0.2,0-0.4,0.1-0.5L261,296.3C260.8,296.5,260.9,296.6,260.9,296.8z"/>
	<path class="st0" d="M338.7,421.5c0.1-0.3,0.1-0.6,0.3-0.8l-10.9-75l-66-32.5c0.1,0.3,0.1,0.5,0.3,0.8c0.1,0.3,0.2,0.4,0.3,0.5
		c0,0-0.3,0.1-0.5,0.4c-0.2,0.2-0.5,0.3-0.6,0.5l65.1,32.1l11.1,76.2c0.1-0.1,0.1-0.1,0.2-0.2C338,422.9,338.4,422.3,338.7,421.5z"
		/>
	<path class="st0" d="M267,295.1c0,0,0.5,0.2,1,0.5c0.1,0.1,0.2,0.2,0.4,0.4l37.9-18.7l0,0c0.1-0.1,0.3-0.3,0.2-0.5
		c0.1-0.1,0.2-0.4,0.1-0.6c0-0.2,0.2-0.4,0.1-0.6l0-0.2l-40.3,19.9C266.9,295,267,295.1,267,295.1z"/>
	<path class="st0" d="M268.4,297.2c-0.3,0.3-0.9,0.7-1.9,1c0,0-1.7,0.1-3.1,0.7c-0.6,0.3-1.2,0.6-1.6,1.1c-0.3,0.3-0.4,0.5-0.6,0.9
		c-0.1,0.1,0,0.2-0.1,0.3l44.1-21.7c-0.1-0.3-0.2-0.4-0.3-0.6l0.1-0.6c0.2,0,0.5-0.1,0.8-0.3c0.2,0,0.4-0.2,0.5-0.3
		c0.1-0.1,0.3-0.3,0.4-0.4l-37.9,18.7c0.2,0.2,0.3,0.3,0.3,0.5C268.8,296.5,268.9,296.9,268.4,297.2z"/>
	<path class="st0" d="M338.9,420.6c0.2-0.4,0.3-0.8,0.4-1.3c0.2-0.7,0.4-1.5,0.6-2.2c0.1-0.3,0.1-0.6,0.2-0.9l-10.4-72.1l-68-33.5
		c0,0.4,0.1,0.7,0.1,1c0,0.4,0.1,0.8,0.2,1c0,0.2,0,0.4,0.1,0.5l66,32.5L338.9,420.6z"/>
	<path class="st0" d="M340.6,412.7c0.1-0.6,0.2-1.3,0.3-1.9l-9.9-68.3l-69.7-34.5c0,0.2,0,0.2,0,0.4c0,0.4,0,0.6,0.1,1
		c0,0.4,0.1,0.7,0.1,1l0,0l68,33.5l10.7,72.3c0.1-0.5,0.2-0.9,0.2-1.3C340.4,414.2,340.6,413.4,340.6,412.7z"/>
	<path class="st0" d="M261,302.3l0,0.2l0,0l44.7-22.1l-0.1-0.1c-0.1-0.3-0.2-0.6-0.5-0.9c-0.1-0.1,0-0.2-0.1-0.3L261,300.9
		c0,0.2-0.1,0.3-0.1,0.5C260.9,301.9,260.9,302.1,261,302.3z"/>
	<path class="st0" d="M341.3,408.3c0.1-0.8,0.2-1.5,0.2-2.1c0.1-0.5,0.2-1.1,0.2-1.7l-9.2-63.5l-71.4-35.2l0,0c0,0.2,0,0.6,0.1,0.8
		s0,0.6,0,0.9c0,0.2,0,0.4,0,0.6l69.7,34.5l9.9,68.3c0.1-0.1,0-0.2,0.1-0.3C341.1,409.8,341.2,409.1,341.3,408.3z"/>
	<path class="st0" d="M261,303.6c0,0.2-0.1,0.3,0,0.4l39.1-19.3c0.2-0.2,0.2-0.4,0.2-0.5c0.1-0.1,0.1-0.1,0.1-0.1
		c0.1-0.1,0.2-0.2,0.3-0.3c0.1-0.1,0.3-0.1,0.4-0.2c0.1-0.1,0.3-0.1,0.4-0.2c0.1-0.1,0.3-0.1,0.5-0.1c0.2,0,0.3-0.1,0.5-0.1
		c0.2,0,0.3-0.1,0.4,0c0.1-0.1,0.2,0,0.3-0.1c0.2,0,0.4,0,0.5-0.1c0.2,0,0.4,0,0.5-0.1c0.1-0.1,0.2,0,0.3-0.1l1.9-0.9
		c-0.1-0.1-0.1-0.3-0.3-0.5c-0.1-0.3-0.2-0.6-0.3-0.6l-44.7,22.1C261,302.7,261.1,303.1,261,303.6z"/>
	<path class="st0" d="M305.3,282.5c0.2,0,0.5-0.1,0.7-0.1c0.4,0,0.6,0,0.6,0l-0.1-0.1c-0.1-0.1-0.1-0.3-0.1-0.3l-1.9,0.9
		c0.1-0.1,0.2,0,0.3-0.1C304.9,282.5,305.1,282.5,305.3,282.5z"/>
	<path class="st0" d="M261.1,305.1c0,0.2-0.1,0.5,0.1,0.8l71.4,35.2l9.2,63.5c0-0.2,0.1-0.3,0.1-0.5c0-0.7,0.2-1.5,0.1-2
		c0.1-0.8,0.2-1.5,0.1-2c0.1-1,0.2-1.7,0.1-2c0.1-0.1,0-0.2,0-0.2c0-0.2,0-0.2,0-0.4l-8.3-57.8l-71.1-35.1l37-18.3
		c-0.1-0.3,0-0.6,0-0.9c0.1-0.3,0.2-0.4,0.2-0.7l0,0L260.8,304c0,0.2,0,0.2,0,0.4C261.1,304.6,261,304.9,261.1,305.1z"/>
	<path class="st0" d="M342.2,393.9c0-0.7-0.1-1.3-0.1-2c0-0.7-0.1-1.3-0.1-2c0-0.7-0.1-1.3-0.1-2c0-0.6-0.1-1.3-0.2-1.9
		c0-0.6-0.1-1.3-0.2-1.9s-0.1-1.3-0.2-1.9s-0.2-1.2-0.2-1.8l-1.7-12.2l0-0.2c0-0.6-0.2-1-0.3-1.7c0-0.6-0.2-1-0.2-1.6
		c-0.1-0.5-0.2-1-0.3-1.5c-0.1-0.5-0.2-1-0.3-1.5c-0.1-0.5-0.2-1-0.3-1.5c-0.1-0.5-0.2-1-0.3-1.5c-0.1-0.5-0.3-0.9-0.3-1.5l0.1,0.1
		c0.1-0.1,0.3-0.3,0.3-0.6c0,0,0.1-0.1,0-0.2l-2.6-17.9l-69-34l36.4-17.9c-0.1,0.1-0.2,0-0.3,0.1c-0.2,0-0.3,0.1-0.5,0.1
		c-0.2,0-0.3,0.1-0.5,0.1c-0.2,0-0.4,0-0.6,0c-0.2,0-0.4,0-0.5-0.1c-0.3-0.1-0.4-0.2-0.5-0.4l-37,18.3l71.1,35.1l8.3,57.8
		c0.1-0.5,0-1.1,0.1-1.5C342.3,395.3,342.2,394.7,342.2,393.9z"/>
	<path class="st0" d="M304.2,285.6c-0.1,0.1-0.3,0.1-0.4,0.2c-0.1,0.1-0.3,0.1-0.4,0.2c-0.1,0.1-0.3,0.1-0.4,0.2
		c-0.1,0.1-0.3,0.1-0.4,0.2l1.8-0.8C304.5,285.5,304.3,285.5,304.2,285.6z"/>
	<path class="st0" d="M335.2,338.3l2.6,17.9c0-0.2,0.1-0.3,0.1-0.6c0.1-0.3,0.1-0.5,0-0.9c0.1-0.3,0-0.6,0-0.9c0.1-0.3,0-0.6,0-0.9
		s0-0.6,0-0.9c0.1-0.3,0-0.6,0-0.9c0.1-0.3,0-0.6,0-0.9c0-0.4,0-0.6,0-0.9c0-0.4,0-0.6,0-0.9c0-0.4,0-0.6-0.1-0.8
		c0-0.4,0-0.6-0.1-0.8c0-0.4,0-0.6-0.1-0.8c0-0.4,0-0.6-0.1-0.8c0-0.2,0-0.4,0-0.4s0,0,0.1,0.1l-1.2-8l-66.8-33.1l38.5-19
		c-0.1-0.1-0.1-0.1-0.3-0.1c-0.3-0.1-0.6-0.1-1-0.1c-0.2,0-0.4,0-0.7,0.1c-0.2,0-0.4,0-0.6,0c-0.2,0-0.3,0.1-0.5,0.1
		c-0.2,0-0.5,0.1-0.7,0.1l0,0l-1.8,0.8l0,0l-0.1,0.1l0,0l-36.7,17.8L335.2,338.3z"/>
	<path class="st0" d="M341,378.3c0-0.6-0.2-1.2-0.2-1.8s-0.2-1.2-0.2-1.8c0-0.6-0.2-1.2-0.2-1.8s-0.2-1.2-0.3-1.7
		c0-0.6-0.2-1-0.3-1.7c-0.1-0.5-0.2-1-0.2-1.4l1.7,12.2l0,0C341.2,379.5,341.2,379,341,378.3z"/>
	<path class="st0" d="M338.7,345.2c0.2,0,0.3,0.1,0.6,0.1l-0.9-6.3c-0.8-1-1.4-2.1-2.2-3.1c-0.4-0.5-0.9-1.3-1.3-1.8l-62-30.5
		l36.4-17.9l-0.1-0.1c-0.3-0.3-0.6-0.5-1-0.7l-38.5,19l66.8,33.1l1.2,8c0,0,0.2,0,0.3,0.1C338.1,345.1,338.4,345.2,338.7,345.2z"/>
	<path class="st0" d="M340,345.6c0.2,0,0.4,0.2,0.6,0.1l0,0l-0.6-4.1c-0.5-0.6-1.1-1.5-1.5-2.2c-0.1-0.1-0.2-0.2-0.2-0.4l0.9,6.3
		l0.1,0.1C339.6,345.5,339.7,345.5,340,345.6z"/>
	<path class="st0" d="M334.9,334.3c-0.3-0.5-0.7-0.9-1-1.4c-0.4-0.5-0.8-1-1.1-1.5L276,303.4l33.8-16.6c-0.1-0.1-0.1-0.1-0.1-0.1
		s-0.1-0.1,0-0.2c-0.1-0.3-0.3-0.5-0.3-0.6L273,303.6L334.9,334.3z"/>
	<path class="st0" d="M341.9,346.1c0.1,0.1,0.1,0.1,0.3,0.1l-0.3-2.2c-0.2-0.2-0.2-0.4-0.4-0.5c-0.4-0.5-0.9-1.1-1.3-1.8l0.6,4.1
		c0.2,0,0.4,0.2,0.6,0.1C341.5,346,341.7,346,341.9,346.1z"/>
	<path class="st0" d="M330.9,328.6L279.2,303l31.2-15.5c-0.2-0.2-0.2-0.4-0.3-0.5c-0.2-0.2-0.2-0.4-0.3-0.5L276,303.4l56.7,28
		c-0.4-0.5-0.8-1-1-1.4C331.4,329.3,331.2,329,330.9,328.6z"/>
	<path class="st0" d="M342.5,346.3c0.3,0.1,0.6,0.1,0.8,0.3c0.1,0.1,0.1,0.1,0.2,0l0-0.6c-0.1-0.1-0.1-0.1-0.2-0.2
		c-0.1-0.1-0.2-0.4-0.3-0.5c-0.1-0.1-0.2-0.4-0.3-0.5c-0.2-0.4-0.5-0.6-0.8-1l0.3,2.2C342.2,346.2,342.4,346.2,342.5,346.3z"/>
	<path class="st0" d="M330.6,328.1c0.1-0.1,0.1-0.1,0.2-0.2c0.1-0.1,0.1-0.1,0.2-0.2s0-0.2,0.1-0.3s0-0.2,0.1-0.3c0,0,0,0,0-0.2
		l-49-24.3l28.9-14.2c-0.1-0.3-0.3-0.5-0.3-0.6c-0.1-0.1-0.1-0.1-0.1-0.3L279.4,303l51.8,25.6C330.6,328.3,330.6,328.1,330.6,328.1
		L330.6,328.1z"/>
	<path class="st0" d="M344.3,347L344.3,347L344.3,347c-0.1-0.1-0.2-0.2-0.3-0.3C344.2,347,344.3,347.1,344.3,347z"/>
	<path class="st0" d="M331.1,326.5c0-0.2,0-0.2,0-0.4c0-0.2,0-0.2,0-0.4s0-0.2,0-0.4l0,0l-45.9-22.8l26.5-13.1l-0.1-0.1
		c-0.1-0.3-0.3-0.5-0.4-0.7c0,0,0,0-0.1-0.1L282,302.8l49,24.3l0-0.2C331.2,326.7,331.1,326.5,331.1,326.5z"/>
	<path class="st0" d="M343.9,346.8L343.9,346.8L343.9,346.8c-0.1-0.1-0.2-0.4-0.3-0.5c-0.1-0.1-0.1-0.1-0.2-0.2l0,0.6l0.1,0.1
		C343.7,346.7,343.8,346.8,343.9,346.8z"/>
	<path class="st0" d="M331.1,325.3c0-0.2,0-0.2,0-0.4c0-0.2,0-0.2,0-0.4c0-0.2,0-0.2,0-0.4c0-0.2,0-0.2,0-0.4c-0.1-0.1,0-0.2,0-0.4
		l-3.6-1.8l0,0l-0.1,0.1c0,0,0,0-0.1-0.1c0,0,0,0-0.1-0.1l-39.1-19.3l24.3-12c-0.1-0.1-0.1-0.3-0.2-0.4c-0.2-0.2-0.2-0.4-0.3-0.5
		l-26.5,13.1L331.1,325.3z"/>
	<path class="st0" d="M326.8,321.1c-0.1-0.1,0-0.2-0.1-0.3c-0.1-0.1,0-0.2-0.1-0.3s0-0.2-0.1-0.3c-0.1-0.1,0-0.2-0.1-0.3
		c-0.1-0.1,0-0.2-0.1-0.3s0-0.2-0.1-0.3l-35.4-17.5l22.1-10.8c-0.1-0.1-0.2-0.4-0.3-0.5c-0.1-0.1-0.1-0.3-0.2-0.4l-24.3,12
		l39.1,19.3c0,0-0.1-0.1,0-0.2C326.8,321.3,326.8,321.3,326.8,321.1z"/>
	<path class="st0" d="M330.7,323c0-0.2,0-0.2,0-0.4c0-0.2,0-0.2,0-0.4l0-0.2l0-0.2l0-0.2c0,0,0,0-0.1-0.1l-3.3-1.6l0,1.6l3.6,1.8
		l0,0C330.7,323.2,330.7,323.2,330.7,323z"/>
	<path class="st0" d="M330.3,321.4C330.3,321.4,330.2,321.3,330.3,321.4c0-0.2-0.1-0.3-0.1-0.3s-0.1-0.1,0-0.2c0,0-0.1-0.1,0-0.2
		c0,0-0.1-0.1,0-0.2c0,0-0.1-0.1,0-0.2c0,0-0.1-0.1,0-0.2c0,0-0.1-0.1,0-0.2c0,0-0.1-0.1,0-0.2c0,0,0,0-0.1-0.1c0,0,0,0-0.1-0.1
		c0,0,0,0-0.1-0.1l-2.9-1.4c0,0.2,0,0.4,0.1,0.5c0,0.2,0.1,0.5,0.1,0.7l-0.1,0.5l3.3,1.6l0,0C330.4,321.5,330.3,321.4,330.3,321.4z"
		/>
	<path class="st0" d="M326,319.6C326,319.6,326.1,319.4,326,319.6l0-0.4l-0.1,0.1l-0.1-0.1l-0.1-0.1c0,0,0,0-0.1-0.1
		c0,0,0,0-0.1-0.1c0,0,0,0-0.1-0.1c0,0,0,0-0.1-0.1c0,0,0,0-0.1-0.1c0,0,0,0-0.1-0.1c0,0,0,0-0.1-0.1c0,0,0,0-0.1-0.1
		c0,0,0,0-0.1-0.1c0,0,0,0-0.1-0.1c0,0,0,0-0.1-0.1c0,0,0,0-0.1-0.1c0,0,0,0-0.1-0.1c0,0,0,0-0.1-0.1l0,0l0,0l0,0l0,0l0,0
		l-31.9-15.8l19.9-9.8l-0.1-0.1c-0.1-0.3-0.2-0.4-0.3-0.6c0,0,0,0-0.1-0.1l-22.1,10.8L326,319.6z"/>
	<path class="st0" d="M329.7,319.7C329.7,319.7,329.8,319.6,329.7,319.7c0-0.2,0-0.2,0-0.2s0,0-0.1-0.1c0,0,0,0-0.1-0.1
		c0,0,0,0-0.1-0.1c0,0,0,0-0.1-0.1c0,0,0,0-0.1-0.1c0,0,0,0-0.1-0.1c0,0,0,0-0.1-0.1l0,0l0,0l0,0l0,0l0,0l0,0l0,0l0,0l0,0l0,0
		c0,0-0.1-0.1,0-0.2l-2.8-1.3l0,0l0,0l0,0l0,0l0,0l0,0l0,0l0,0l0,0l0,0l0,0l0,0l0,0l0,0l0,0l0,0l0,0l0,0l0,0c0,0,0,0,0.1,0.1
		c0,0,0,0,0.1,0.1c0,0,0,0,0.1,0.1l0,0c0,0,0,0,0,0.2L329.7,319.7C329.9,319.8,329.9,319.8,329.7,319.7
		C329.9,319.8,329.9,319.8,329.7,319.7z"/>
	<path class="st0" d="M325.1,317.4L325.1,317.4L325.1,317.4c-0.1-0.1,0-0.2,0-0.2l0,0l0,0l0,0c0,0,0,0-0.1-0.1c0,0,0,0-0.1-0.1
		c0,0,0,0-0.1-0.1c0,0,0,0-0.1-0.1c0,0,0,0-0.1-0.1c0,0,0,0-0.1-0.1c0,0,0,0-0.1-0.1c0,0,0,0-0.1-0.1c0,0,0,0-0.1-0.1
		c0,0,0,0-0.1-0.1c0,0,0,0-0.1-0.1c0,0,0,0-0.1-0.1c0,0,0,0-0.1-0.1l-0.1-0.1l-0.1-0.1l-0.1-0.1c0,0,0,0-0.1-0.1l-28.5-14.1
		l17.8-8.7c-0.1-0.1-0.1-0.3-0.2-0.4c-0.1-0.1-0.1-0.3-0.2-0.4l-19.9,9.8L325.1,317.4C325.1,317.6,325.1,317.6,325.1,317.4
		C325.1,317.6,325,317.5,325.1,317.4z"/>
	<path class="st0" d="M328.8,316.4l-2.5-1.2l0,0c0,0,0,0,0.1,0.1c0,0,0,0,0.1,0.1c0,0,0,0,0.1,0.1c0,0,0,0,0.1,0.1l0,0l0,0l0,0l0,0
		l0,0l0,0l0,0c0,0.2,0,0.4,0.1,0.7l0,0l0,0l2.8,1.3C329.2,317.5,328.9,316.9,328.8,316.4z"/>
	<path class="st0" d="M324.2,315.5C324.2,315.4,324.2,315.4,324.2,315.5c0-0.2,0-0.2-0.1-0.3l0.1-0.1l-0.1-0.1c0,0-0.1-0.1,0-0.2
		c0,0-0.1-0.1,0-0.2c0,0-0.1-0.1,0-0.2c0,0-0.1-0.1,0-0.2l-0.1-0.1l-0.1-0.1l-0.1-0.1l-0.1-0.1l-0.1-0.1l0,0l-25.1-12.5l15.8-7.8
		c0,0-0.1-0.1,0-0.2c0-0.2-0.2-0.4-0.3-0.5l-0.1-0.1l-17.8,8.7L324.2,315.5C324.3,315.6,324.3,315.6,324.2,315.5L324.2,315.5z"/>
	<path class="st0" d="M328.3,314.7l-2.1-1.1c0,0,0,0-0.1,0.1l0,0l0,0l0,0l0,0l0,0l0,0l0,0l0,0l0,0l0,0c0,0,0,0,0.1,0.1
		c0,0,0,0,0.1,0.1c0,0,0,0,0.1,0.1c0,0,0,0,0.1,0.1c0,0,0,0,0.1,0.1c0,0,0.1,0.1,0,0.2c0,0,0,0,0.1,0.1c0,0,0,0,0.1,0.1l0,0l2.5,1.2
		C328.6,315.7,328.4,315.2,328.3,314.7z"/>
	<path class="st0" d="M323.3,313.5L323.3,313.5c0-0.2,0-0.2-0.1-0.3l-0.1-0.1L323,313l-0.1-0.1c0,0,0,0-0.1-0.1l0,0c0,0,0,0-0.1-0.1
		c0,0,0,0-0.1-0.1c0,0,0,0-0.1-0.1c0,0,0,0-0.1-0.1c0,0,0,0-0.1-0.1c0,0,0,0-0.1-0.1c0,0,0,0-0.1-0.1c0,0,0,0-0.1-0.1
		c0,0,0,0-0.1-0.1c0,0,0,0-0.1-0.1c0,0,0,0-0.1-0.1c0,0,0,0-0.1-0.1L299.6,301l13.8-6.8l0,0c-0.1-0.1-0.1-0.3-0.2-0.4
		c-0.1-0.1,0-0.2-0.1-0.3l-15.8,7.8l25.1,12.5C323.4,313.8,323.4,313.6,323.3,313.5C323.4,313.6,323.4,313.6,323.3,313.5z"/>
	<path class="st0" d="M327.8,313l-1.8-0.8l0,0l0,0l0,0l0,0l0,0l0,0l0,0l0,0l0,0l0,0l0,0l0,0l0,0c0,0.2,0,0.4,0,0.6l2.1,1.1
		c-0.3-0.8-0.4-1.2-0.4-1.2C327.9,313.3,327.8,313.2,327.8,313z"/>
	<path class="st0" d="M322.6,311.8L322.6,311.8L322.6,311.8c0-0.2,0-0.2-0.1-0.3l-0.1-0.1l-0.1-0.1l-0.1-0.1l-0.1-0.1l-0.1-0.1
		l-0.1-0.1l-0.1-0.1l-0.1-0.1l-0.1-0.1l-0.1-0.1l-0.1-0.1c0,0-0.1-0.1,0-0.2l0,0l-18.8-9.2l11.8-5.8c-0.1-0.1-0.1-0.3-0.2-0.4
		s-0.1-0.3-0.2-0.4l-13.8,6.8L322.6,311.8z"/>
	<path class="st0" d="M321.6,309.8c0,0-0.1-0.1,0-0.2c0,0-0.1-0.1,0-0.2c0,0-0.1-0.1,0-0.2c0,0-0.1-0.1,0-0.2c0,0-0.1-0.1,0-0.2
		c0-0.2-0.2-0.4-0.2-0.6l-15.6-7.7l9.8-4.8c-0.1-0.1-0.1-0.3-0.1-0.3c-0.1-0.1-0.1-0.3-0.2-0.4l0,0l-11.8,5.8l18.8,9.2l-0.1-0.1
		C321.6,310,321.5,309.9,321.6,309.8z"/>
	<path class="st0" d="M328,312.7l-0.4-0.8l0-0.2l-1.9-0.9c0,0,0.1,0.1,0,0.2c0,0.2,0.1,0.3,0.1,0.5l0,0.2c0,0,0,0,0.1,0.1
		c0,0,0,0,0.1,0.1c0,0,0,0,0.1,0.1c0,0,0,0,0.1,0.1l0,0l0,0l0,0l0,0l1.8,0.8c0-0.2,0-0.2,0-0.4L328,312.7z"/>
	<path class="st0" d="M327.4,310.2l-2-1l0,0c0,0.2,0,0.4,0.2,0.6c0,0.2,0,0.4,0.1,0.5c0,0.2,0,0.2,0,0.4l1.9,0.9
		C327.5,311.2,327.4,310.8,327.4,310.2z"/>
	<path class="st0" d="M307.5,300.4l7.8-3.9c0,0,0,0,0-0.2c-0.1-0.1,0-0.2-0.1-0.3c-0.1-0.1,0-0.2-0.1-0.3l0,0l-9.8,4.8l15.6,7.7
		c-0.2-0.6-0.6-1.2-0.7-1.7L307.5,300.4z"/>
	<path class="st0" d="M327.4,310.2C327.4,310.2,327.2,310.1,327.4,310.2C327.3,310,327.3,310,327.4,310.2c0-0.2,0-0.2,0-0.2l0,0l0,0
		c0,0,0,0-0.1-0.1c0,0,0,0-0.1-0.1c0,0,0,0-0.1-0.1c0,0,0,0-0.1-0.1c0,0,0,0-0.1-0.1c0,0,0,0-0.1-0.1c0,0,0,0-0.1-0.1
		c0,0,0,0-0.1-0.1c0,0,0,0-0.1-0.1l0,0l-2.1-1.1l0.1,0.3c0,0.2,0.1,0.5,0.1,0.7c0,0.2,0,0.4,0.1,0.5L327.4,310.2L327.4,310.2
		L327.4,310.2z"/>
	<path class="st0" d="M309.6,300.2l6.6-3.3l0,0c-0.2,0-0.3-0.1-0.4,0c-0.2,0-0.4,0-0.4,0l0-0.2l0-0.2l-7.8,3.9l12.6,6.3
		c-0.2-0.6-0.5-1.1-0.8-1.6L309.6,300.2z"/>
	<path class="st0" d="M319.4,305c-0.3-0.6-0.6-1.2-0.8-1.6l-6.9-3.4l6-2.9c0,0,0,0-0.1-0.1c-0.2,0-0.4,0-0.5-0.1
		c-0.2,0-0.4,0-0.5-0.1c-0.2,0-0.3-0.1-0.4,0l-6.6,3.3L319.4,305z"/>
	<path class="st0" d="M326.9,308.6L326.9,308.6c0-0.2,0-0.2-0.1-0.3c0,0-0.1-0.1,0-0.2c0,0-0.1-0.1,0-0.2c0,0-0.1-0.1,0-0.2
		c0,0-0.1-0.1,0-0.2c0,0-0.1-0.1,0-0.2c0,0-0.1-0.1,0-0.2c0,0,0,0-0.1-0.1l-2.2-1.2l0,0c0,0,0.1,0.1,0,0.2c0,0,0.1,0.1,0,0.2
		c0,0,0.1,0.1,0,0.2c0,0,0.1,0.1,0,0.2c0,0,0.1,0.1,0,0.2c0,0,0.1,0.1,0,0.2c0,0,0.1,0.1,0,0.2c0,0,0.1,0.1,0,0.2l0.1,0.1l0.1,0.1
		l-0.1-0.1l0.1,0.1l2.1,1.1C327.1,308.9,327,308.8,326.9,308.6C327,308.8,327,308.7,326.9,308.6z"/>
	<path class="st0" d="M318.6,302.9l0.2,0l0.2,0l0.2,0l0.2,0l0.2,0l0.2,0l0,0l-6-3l5.3-2.6c0,0-0.1-0.1-0.2,0c-0.2,0-0.5-0.1-0.7,0
		c-0.2,0-0.3-0.1-0.5-0.1l-6,2.9l6.9,3.4C318.5,303.2,318.4,302.9,318.6,302.9C318.4,302.9,318.5,303,318.6,302.9z"/>
	<path class="st0" d="M326.5,307.2c0,0-0.1-0.1,0-0.2c0,0-0.1-0.1,0-0.2c0,0-0.1-0.1,0-0.2l0-0.2l0-0.2l0-0.2l0,0l-2.1-1.1l0,0.2
		l0,0.2c0,0,0.1,0.1,0,0.2c0,0,0.1,0.1,0,0.2c0,0,0.1,0.1,0,0.2c0,0,0.1,0.1,0,0.2c0,0,0.1,0.1,0,0.2c0,0,0.1,0.1,0,0.2l2.2,1.2l0,0
		C326.5,307.4,326.6,307.3,326.5,307.2z"/>
	<path class="st0" d="M320,302.9C320.1,302.8,320.2,302.9,320,302.9c0.2,0,0.2,0,0.4,0l0.2,0l0.2,0l0.2,0l0.2,0l0.2,0l0,0l-5.9-2.9
		l4.5-2.2c-0.2,0-0.3-0.1-0.5-0.1c-0.2,0-0.5-0.1-0.6-0.1l-5.3,2.6l6,3C319.8,302.9,319.8,302.9,320,302.9
		C319.9,302.8,320,302.9,320,302.9z"/>
	<path class="st0" d="M326,305.9c-0.1-0.1,0-0.2-0.1-0.3c-0.1-0.1,0-0.2-0.1-0.3s0-0.2-0.1-0.3c-0.1-0.1,0-0.2-0.1-0.3
		c-0.1-0.1,0-0.2-0.1-0.3l0,0l-2.1-1.1l0,0c0.1,0.1,0,0.2,0.1,0.3s0,0.2,0.1,0.3c0.1,0.1,0,0.2,0.1,0.3l0,0.2l0,0.2l0,0.2l0,0
		l2.1,1.1C326.1,305.9,326,305.9,326,305.9z"/>
	<path class="st0" d="M325.3,304c-0.1-0.1,0-0.2-0.1-0.3c-0.1-0.1-0.1-0.3-0.1-0.3c-0.1-0.1-0.1-0.3-0.1-0.3l0,0l-7.3-3.6l3.5-1.8
		c-0.1-0.1-0.3-0.1-0.4-0.2s-0.3-0.1-0.5-0.1l-4.5,2.2l5.9,2.9l0.2,0l0.2,0l0.2,0c0.1-0.1,0.2,0,0.2,0c0.1-0.1,0.1-0.1,0.3-0.1
		c0.1-0.1,0.1-0.1,0.2-0.2l0.1,0.1c0,0,0,0.2,0.1,0.3c0.1,0.1,0,0.2,0.1,0.3c0.1,0.1,0,0.2,0.1,0.3c0.1,0.1,0,0.2,0.1,0.3l0,0.2
		l2.1,1.1c-0.1-0.1,0-0.2-0.1-0.3C325.4,304.3,325.3,304.2,325.3,304z"/>
	<path class="st0" d="M324.9,303.1c-0.1-0.1-0.1-0.3-0.1-0.3c-0.1-0.1-0.1-0.3-0.2-0.4c-0.1-0.1-0.1-0.3-0.2-0.4
		c-0.1-0.1-0.1-0.3-0.2-0.4l0,0l-4.6-2.3l2.5-1.3c-0.2-0.2-0.5-0.2-0.8-0.3l-3.5,1.8L324.9,303.1z"/>
	<path class="st0" d="M323.5,300.9C323.4,300.8,323.4,300.8,323.5,300.9c0-0.2,0-0.2-0.1-0.3l0-0.2l-2.3-1.1l1.3-0.7
		c-0.2-0.2-0.4-0.4-0.6-0.3l-2.5,1.3l4.6,2.3c-0.1-0.1-0.1-0.3-0.2-0.4C323.7,301,323.6,300.9,323.5,300.9z"/>
	<path class="st0" d="M323.5,300.3L323.5,300.3c0-0.2,0-0.4-0.1-0.5c0-0.2-0.1-0.3-0.1-0.5c-0.1-0.1-0.1-0.3-0.2-0.4l0,0l0,0
		c0,0,0,0-0.1-0.1c-0.1-0.1-0.3-0.3-0.4-0.4l-1.3,0.7L323.5,300.3z"/>
	<path class="st0" d="M322.9,299.1L322.9,299.1L322.9,299.1L322.9,299.1z"/>
</g>
<g>
	<path class="st1" d="M309.7,116c-0.1-0.2,0-0.4,0-0.4l-0.4,1.8l0.7,0.1C309.8,116.9,309.7,116.4,309.7,116z"/>
	<path class="st1" d="M309.1,119.7c0,0-0.3,0.5-0.3,0.9c-0.1,0.1,0,0.3-0.1,0.4l2.1,0.2c-0.2-0.5-0.2-0.9-0.4-1.4
		c-0.1-0.2-0.1-0.2-0.1-0.4l-1.6-0.1C308.8,119.4,308.9,119.6,309.1,119.7z"/>
	<path class="st1" d="M330.4,124.6c-0.2-0.1-0.4-0.1-0.6-0.3c-0.2-0.1-0.4-0.1-0.6-0.3c-0.2-0.1-0.4-0.1-0.6-0.3
		c-0.2,0-0.4-0.1-0.7-0.1c-0.2,0-0.5-0.1-0.7-0.1c-0.3,0-0.5,0-0.7,0c-0.3,0-0.5,0.1-0.8,0.2c-0.2,0.1-0.6,0.2-0.8,0.4
		c-0.1,0-0.2,0.2-0.3,0.2l6.4,0.6C330.8,124.9,330.7,124.7,330.4,124.6z"/>
	<path class="st1" d="M309.2,121.8c0,0-0.1,0.1-0.1,0.4c0,0.2-0.1,0.4-0.1,0.6l2.1,0.2c-0.1-0.6-0.3-1.2-0.4-1.8l-2.1-0.2
		C308.7,121.3,308.9,121.6,309.2,121.8z"/>
	<path class="st1" d="M323.4,125.9l15.3,1.4c-0.3-0.4-0.7-0.9-1.3-1.1c-0.2-0.2-0.6-0.3-0.9-0.4c-0.2-0.1-0.5-0.1-0.8-0.2
		c-0.2,0-0.5-0.1-0.7-0.1s-0.5,0-0.7-0.1c-0.2,0-0.4-0.1-0.7-0.1c-0.2,0-0.4,0-0.6,0c-0.2,0-0.4,0-0.6,0c-0.3,0-0.4,0.1-0.6,0
		c-0.2,0.1-0.3,0-0.3,0s-0.1-0.1-0.3-0.2c-0.1-0.1-0.3-0.2-0.6-0.3c0,0,0,0-0.1-0.1l-6.4-0.6c-0.2,0.2-0.4,0.3-0.6,0.6
		C323.7,125.1,323.5,125.4,323.4,125.9z"/>
	<path class="st1" d="M294,202.7c-0.1,0.4,0,0.7-0.1,1.1c-0.1,0.7-0.2,1.2-0.1,1.9c-0.1,0.6-0.1,1.2-0.2,1.8c0,0.6-0.1,1.1-0.1,1.7
		c0,0.4-0.1,0.7,0,1l2.2-5L294,202.7z"/>
	<path class="st1" d="M309,123.5c0.1,0.4,0.3,0.8,0.9,0.8c0,0-0.1,0.1-0.1,0.2l1.7,0.2c0-0.1-0.1-0.2-0.1-0.2
		c-0.2-0.5-0.2-0.9-0.4-1.4l0,0l-2.1-0.2C309.1,123,309,123.2,309,123.5z"/>
	<path class="st1" d="M309.7,125c-0.1,0.3-0.1,0.8,0,1.2l2.3,0.2c-0.1-0.2-0.1-0.3-0.2-0.5c-0.1-0.3-0.2-0.8-0.3-1.2l-1.7-0.2
		C309.9,124.7,309.7,124.8,309.7,125z"/>
	<path class="st1" d="M322.9,127.4l16.3,1.5c0-0.4-0.2-0.8-0.2-1l-0.2-0.5c0-0.1,0-0.1-0.1-0.1l-15.3-1.4
		C323.2,126.3,323,126.8,322.9,127.4z"/>
	<path class="st1" d="M293.4,212.4c0,0.5-0.1,0.9,0,1.5c0,0.5,0,0.9,0,1.4c0,0.1,0,0.2,0,0.3l4.7-10.9l-3.6-5.7c0,0.3,0,0.5-0.1,0.8
		c-0.1,0.7-0.2,1.4-0.2,2.1c0,0.3-0.1,0.6-0.1,0.9l1.6,2.5l-2.2,5c0,0.2-0.1,0.4,0,0.6C293.4,211.4,293.4,211.9,293.4,212.4z"/>
	<path class="st1" d="M289.7,190.6C289.8,190.7,289.8,190.7,289.7,190.6C289.8,190.7,289.9,190.6,289.7,190.6c0.1,0,0.2-0.1,0.2-0.2
		C289.9,190.5,289.8,190.6,289.7,190.6z"/>
	<path class="st1" d="M294.1,194.7c0.1,0.5,0.2,1.1,0.3,1.4l0.6-0.8l-0.8-1.3C294.1,194.1,294.1,194.4,294.1,194.7z"/>
	<path class="st1" d="M311.3,127.6l0.1,0.2l1.1,0.1c-0.1-0.2-0.2-0.5-0.2-0.8c-0.1-0.2-0.2-0.6-0.2-0.9l-2.3-0.2l0,0.1
		C309.9,126.8,310.4,127.3,311.3,127.6z"/>
	<path class="st1" d="M339.2,130.5c0.1-0.3,0.1-0.6,0.1-0.8c0-0.3,0-0.6,0-0.7l-16.3-1.5c-0.1,0.5-0.1,1-0.2,1.5L339.2,130.5z"/>
	<path class="st1" d="M293.4,215.5c0,0.4,0,0.6,0,1c0.1,0.4,0,0.8,0,1.3c0,0.4,0,0.8,0,1.2c0,0.4,0,0.7,0.1,1.2l7-16l-5.4-8.6
		c-0.1,0.7-0.2,1.4-0.3,2c0,0.5-0.1,1-0.2,1.5l3.6,5.7L293.4,215.5z"/>
	<path class="st1" d="M290.8,189.3c-0.2,0.2-0.3,0.5-0.4,0.7s-0.3,0.4-0.4,0.5c0.2-0.1,0.5-0.2,0.8-0.4c0.2-0.1,0.5-0.2,0.7-0.2
		l-0.5-0.8C290.9,189.1,290.9,189.2,290.8,189.3z"/>
	<path class="st1" d="M312.1,129.5l1.7,0.2c0-0.3-0.2-0.5-0.4-0.5c0.1,0,0.1-0.1,0.1-0.1l-1-0.4c-0.1-0.2-0.1-0.3-0.2-0.6l-1.1-0.1
		l0.1,0.2L312.1,129.5z"/>
	<path class="st1" d="M293.6,221c0,0.2,0.1,0.4,0,0.6c0,0.2,0.1,0.4,0,0.6c0,0.2,0.1,0.4,0,0.6c0,0.1,0,0.2,0,0.3c0,0,0.1,0.2,0,0.4
		c0,0.1,0.1,0.2,0.1,0.4l8.9-20.5l-8.7-13.8c0,0.2,0,0.5,0,0.7c0,0.3,0,0.6,0,0.8c0,0.3,0,0.6,0,0.8c0,0.3,0,0.6,0,0.9
		c0,0.3,0,0.6,0,0.9c0,0.1,0,0.1,0.1,0.2l0.8,1.3l0.1-0.2c-0.1,0.1,0,0.2-0.1,0.4l5.4,8.6l-7,16c0,0.1,0,0.2,0,0.3
		C293.5,220.5,293.5,220.7,293.6,221z"/>
	<path class="st1" d="M293.2,189.2c0.2-0.1,0.4-0.1,0.5-0.2l-1.4-2.2c-0.1,0.2-0.2,0.3-0.3,0.5c-0.1,0.2-0.2,0.4-0.4,0.6
		c-0.1,0.2-0.2,0.4-0.4,0.7c-0.1,0.1-0.1,0.2-0.3,0.4l0.5,0.8c0.2-0.1,0.3-0.1,0.5-0.2C292.4,189.5,292.8,189.4,293.2,189.2z"/>
	<path class="st1" d="M338.7,132c0.1-0.1,0.1-0.3,0.1-0.4c0.1-0.3,0.2-0.6,0.2-0.8c0-0.1,0.1-0.1,0-0.2l-16.4-1.6c0,0.5,0,1,0,1.6
		L338.7,132z"/>
	<path class="st1" d="M312.3,130.1l-0.8,0.4l-0.5,0.4l0,0.1l2.6,0.3c0.1-0.3,0.2-0.6,0.2-0.9c0-0.2,0.1-0.4,0-0.6l-1.7-0.2l0,0.1
		L312.3,130.1z"/>
	<path class="st1" d="M293.9,225c0.1,0.2,0.1,0.4,0.1,0.7c0.1,0.2,0.1,0.5,0.2,0.8c0.1,0.2,0.1,0.5,0.2,0.8c0,0,0,0,0,0.1L305,203
		l-11.4-18.1c-0.1,0.1-0.1,0.2-0.2,0.3c-0.1,0.2-0.3,0.4-0.4,0.6c-0.1,0.2-0.3,0.4-0.4,0.6c-0.1,0.2-0.3,0.4-0.4,0.6l-0.1,0.1
		l1.4,2.2c0.2-0.1,0.3-0.1,0.3-0.1s0,0.2,0,0.6c0,0,0,0,0,0.1l8.7,13.8l-8.9,20.5c0,0.1,0.1,0.2,0,0.3
		C293.9,224.5,293.9,224.7,293.9,225z"/>
	<path class="st1" d="M322.6,130.6c0,0-0.2,0.1-0.3,0.2c-0.2,0.2-0.5,0.4-1,0.7c-0.1,0.1-0.3,0.2-0.4,0.3l17.2,1.6
		c0.1-0.2,0.2-0.3,0.2-0.5c0.1-0.2,0.2-0.4,0.3-0.6c0.1-0.1,0-0.2,0.1-0.3L322.6,130.6C322.7,130.5,322.6,130.6,322.6,130.6z"/>
	<path class="st1" d="M319.5,133.2l18.6,1.7c-0.2-0.5-0.4-0.7-0.4-0.7l0.1-0.1c0.1-0.2,0.2-0.3,0.3-0.6l0.1-0.1l-17.2-1.6
		c-0.1,0.1-0.4,0.3-0.6,0.5C320.1,132.5,319.8,132.8,319.5,133.2z"/>
	<path class="st1" d="M294.6,228.8c0.1,0.2,0.1,0.5,0.2,0.9c0.1,0.2,0.1,0.4,0.1,0.7l12.1-28l-12.3-19.7c-0.1,0.1-0.1,0.2-0.2,0.2
		c-0.1,0.1-0.2,0.3-0.3,0.5c-0.1,0.1-0.2,0.3-0.3,0.5c-0.1,0.2-0.2,0.3-0.3,0.6c-0.1,0.1-0.1,0.1-0.1,0.2l11.4,18.1l-10.5,24.4
		c0.1,0.2,0.1,0.5,0.1,0.7C294.5,228.3,294.6,228.6,294.6,228.8z"/>
	<path class="st1" d="M311,131.5l-0.1,0.9l2.2,0.2c0.1,0,0.1-0.1,0.1-0.1c0,0,0,0,0.1-0.1c0-0.2,0.2-0.5,0.3-0.9
		c0-0.1,0.1-0.1,0-0.2l-2.6-0.3l0,0.5L311,131.5z"/>
	<path class="st1" d="M349.2,136.9L349.2,136.9c0.1,0,0.1,0,0.2,0l6.2-7.4l-0.1-0.1l0,0l0.4-1.6l0.2-0.9c0,0.2-0.6,1-1.5,2.1
		c-1.1,1.4-2.7,3.3-4.2,4.9c-0.2,0.2-0.4,0.5-0.6,0.7c-0.2,0.2-0.4,0.4-0.6,0.7c-0.2,0.2-0.4,0.4-0.5,0.6c-0.2,0.2-0.4,0.4-0.5,0.6
		c-0.2,0.2-0.4,0.4-0.5,0.6c-0.1,0-0.1,0.1-0.1,0.1l1.1,0.1L349.2,136.9z"/>
	<path class="st1" d="M310.9,132.4l-0.2,1c-0.1,0.1,0,0.2-0.1,0.4l1.5,0.2c0.2-0.2,0.3-0.6,0.5-0.7c0.1-0.2,0.3-0.4,0.5-0.5
		L310.9,132.4L310.9,132.4z"/>
	<path class="st1" d="M318.3,134.4l20.5,1.9c-0.3-0.6-0.5-1.1-0.6-1.4l-18.6-1.7c-0.1,0-0.1,0.1-0.1,0.1
		C319,133.6,318.7,134,318.3,134.4z"/>
	<path class="st1" d="M295.2,231.4c0.1,0.3,0.1,0.6,0.2,0.9c0.1,0.2,0.2,0.5,0.2,0.9l13.5-31.3l-13.2-21.1l0,0
		c-0.1,0.1-0.2,0.2-0.2,0.4c-0.1,0.1-0.2,0.3-0.2,0.4c-0.1,0.1-0.2,0.3-0.2,0.4c-0.1,0.1-0.2,0.3-0.3,0.5c-0.1,0.1-0.1,0.1-0.1,0.2
		l12.3,19.7l-12.1,28c0,0.1,0,0.1,0.1,0.2C295.1,230.8,295.1,231.2,295.2,231.4z"/>
	<path class="st1" d="M310.3,135.1l1.1,0.1c0.1-0.1,0.1-0.3,0.1-0.4c0.1-0.3,0.3-0.6,0.4-0.9l0,0l-1.5-0.2c0,0.2-0.1,0.4-0.1,0.6
		C310.4,134.5,310.4,134.8,310.3,135.1z"/>
	<path class="st1" d="M351.8,135c0.1-0.3,0.1-0.6,0.1-0.6c0.1,0.1,0.3,0.1,0.4,0.1c0.5,0,0.8-0.4,1-0.9c0.2-0.5,0.4-1.1,0.4-1.1
		c0.9,0.1,1.1-0.8,1.1-1.4c0-0.3,0-0.4,0-0.4c0.3-0.1,0.9-0.5,1.3-0.7c0.2-0.2,0.4-0.3,0.4-0.3l0,0l-0.7-0.3l-6.2,7.4
		C351.1,137,351.6,135.8,351.8,135z"/>
	<path class="st1" d="M317.7,135.2c-0.1,0.1-0.3,0.4-0.5,0.5l22.1,2.1c-0.2-0.5-0.3-1-0.5-1.4l-20.5-1.9c0,0,0,0-0.1,0
		C318.1,134.7,317.9,134.9,317.7,135.2z"/>
	<path class="st1" d="M295.9,234.2c0.1,0.3,0.2,0.7,0.3,1c0.1,0.2,0.1,0.3,0.2,0.5l14.9-34.3l-14.1-22.5c-0.1,0.1-0.1,0.2-0.3,0.4
		c-0.1,0.1-0.1,0.2-0.3,0.4c-0.1,0.1-0.1,0.2-0.3,0.4c-0.1,0.1-0.2,0.2-0.3,0.4c-0.1,0.1-0.2,0.2-0.3,0.4l13.2,21.1l-13.5,31.3
		l0,0.1C295.7,233.5,295.8,233.9,295.9,234.2z"/>
	<path class="st1" d="M347,137.7c-0.2-0.3-0.3-0.4-0.5-0.6c-0.1-0.1-0.3-0.1-0.4,0.1c-0.1,0.1-0.2,0.4-0.4,0.8
		c-0.1,0.1-0.1,0.2-0.1,0.3l1.5,0.2l0-0.1l0.3-0.2l0.6-0.5l0.6-0.5l0,0l-1.1-0.1c-0.2,0.2-0.3,0.4-0.4,0.4
		C347.1,137.7,347,137.7,347,137.7z"/>
	<path class="st1" d="M345.6,138.9c-0.1,0.3-0.1,0.5-0.1,0.7l2.5,0.2l0-0.2l-0.8-1.2l-1.5-0.2C345.6,138.6,345.6,138.8,345.6,138.9z
		"/>
	<path class="st1" d="M316.4,136.7c-0.1,0.1-0.1,0.1-0.2,0.2l23.5,2.3c-0.1-0.2-0.1-0.3-0.2-0.5c-0.1-0.3-0.2-0.6-0.3-0.8l-22.1-2.1
		c-0.1,0.1-0.1,0.1-0.2,0.2C316.8,136.2,316.6,136.4,316.4,136.7z"/>
	<path class="st1" d="M296.3,235.7c0.1,0.2,0.1,0.3,0.2,0.5c0.1,0.3,0.2,0.7,0.3,1c0.1,0.2,0.2,0.5,0.3,0.6l16-37l-15.9-25.4
		c0,0.1-0.1,0.1,0,0.2c0,0.2-0.1,0.4,0,0.6c0,0.2,0,0.4,0,0.6c0,0.2,0,0.4,0.1,0.5c0.1,0.2,0.1,0.3,0.2,0.5c0,0.1,0.1,0.1,0.1,0.1
		s-0.1,0.2-0.3,0.5c-0.1,0.1-0.2,0.3-0.3,0.6l14.1,22.5L296.3,235.7z"/>
	<path class="st1" d="M310.1,136c-0.1,0.1,0,0.2-0.1,0.3l1.1,0.1c0.1-0.3,0.1-0.6,0.2-0.9c0.1-0.1,0.1-0.3,0.1-0.4l-1.1-0.1
		c0,0,0,0.1-0.1,0.1C310.2,135.4,310.2,135.7,310.1,136z"/>
	<path class="st1" d="M345.3,140.1c0.1,0.2,0.2,0.5,0.3,0.8l1.9,0.2l0.3-0.7l0,0l0.1-0.4l-2.5-0.2
		C345.4,139.9,345.4,140,345.3,140.1C345.4,140.1,345.3,140.1,345.3,140.1z"/>
	<path class="st1" d="M297.9,239.2c0.1,0.1,0.2,0.2,0.3,0.3l16.9-39.1l-17.4-27.7c-0.1,0.1-0.1,0.3-0.1,0.4c0,0.2,0,0.5-0.1,0.7
		c0,0.2,0,0.5-0.1,0.7c0,0.2-0.1,0.4-0.1,0.7c0,0.2,0,0.3,0,0.5l15.9,25.4l-16,37c0,0.1,0.1,0.2,0.1,0.3
		C297.4,238.6,297.6,238.9,297.9,239.2z"/>
	<path class="st1" d="M309.9,137.6l1.1,0.1c0.1-0.1,0-0.3,0.1-0.4c0-0.3,0.1-0.6,0.1-0.9l0,0l-1.1-0.1c0,0.2-0.1,0.4-0.1,0.6
		C309.9,137.1,309.9,137.4,309.9,137.6z"/>
	<path class="st1" d="M315.4,138.1l24.7,2.3c-0.1-0.4-0.2-0.9-0.3-1.3l-23.5-2.3c-0.1,0.1-0.3,0.4-0.4,0.5
		C315.7,137.6,315.6,137.8,315.4,138.1z"/>
	<path class="st1" d="M299.1,239.9L299.1,239.9l0.3-0.1c0,0,0,0.1,0.1,0.2l17.3-40l-17-27.2c-0.1,0.1,0,0.2-0.1,0.2l-0.3,0.1
		c-0.1-0.2,0-0.4,0-0.6c0-0.1,0-0.2,0-0.4l-1.3-2c0,0.2-0.1,0.5-0.1,0.8c0,0.2-0.1,0.5-0.1,0.8c0,0.2-0.1,0.5-0.1,0.7
		c-0.1,0.1,0,0.2-0.1,0.3l17.4,27.7L298,239.5C298.4,239.8,298.8,240,299.1,239.9z"/>
	<path class="st1" d="M314.9,138.9c-0.1,0.1-0.2,0.2-0.3,0.4l25.7,2.5c-0.1-0.3-0.1-0.7-0.2-1c0-0.1-0.1-0.2-0.1-0.2l-24.7-2.3
		c0,0,0,0-0.1,0.1C315.2,138.4,315.1,138.6,314.9,138.9z"/>
	<path class="st1" d="M309.8,138.5c0,0.1,0,0.2,0,0.3l1.1,0.1c0-0.3,0-0.5,0-0.7c0-0.2,0-0.3,0-0.5l-1.1-0.1c0,0.1,0,0.1,0,0.2
		C309.9,138,309.9,138.3,309.8,138.5z"/>
	<path class="st1" d="M345.7,141.9c0,0.1,0,0.2,0,0.3l1.4,0.1c0.1-0.1,0-0.2,0.1-0.2c0.1-0.4,0.1-0.7,0.1-0.7l0.1-0.2l0,0l-1.9-0.2
		C345.7,141.3,345.7,141.7,345.7,141.9z"/>
	<path class="st1" d="M309.8,140l1.2,0.2c0-0.1-0.1-0.2,0-0.3c0-0.3-0.1-0.5-0.1-0.9l0-0.1l-1.1-0.1c0,0.2-0.1,0.4,0,0.6
		C309.8,139.5,309.8,139.8,309.8,140z"/>
	<path class="st1" d="M314.1,140.3l-0.1,0.1l26.6,2.6c-0.1-0.2-0.1-0.4-0.1-0.6c-0.1-0.2-0.1-0.4-0.1-0.6l-25.7-2.5
		c-0.1,0.1-0.1,0.2-0.2,0.3C314.3,139.8,314.2,140,314.1,140.3z"/>
	<path class="st1" d="M299.6,171.1c0-0.3,0-0.5,0-0.7c0-0.3,0.1-0.6,0.1-0.8c0-0.1,0-0.2,0-0.3l-1.1-1.7c0,0.2-0.1,0.4,0,0.6
		c0,0,0,0.1,0,0.2c0,0.2-0.1,0.5-0.2,0.8c0,0.2-0.1,0.5-0.2,0.8l0,0l1.3,2c0-0.1,0-0.2,0-0.4C299.5,171.6,299.5,171.3,299.6,171.1z"
		/>
	<path class="st1" d="M300.7,241l18-41.5l-18-28.9c0,0,0,0.1-0.1,0.1c-0.1,0.3-0.2,0.5-0.3,0.7c-0.1,0.3-0.2,0.5-0.3,0.7
		c0,0.2-0.2,0.3-0.2,0.5l17,27.2l-17.3,40c0.1,0.1,0.4,0.5,0.7,0.9C300.4,240.8,300.5,240.9,300.7,241z"/>
	<path class="st1" d="M345.6,143.4l1.1,0.1c0-0.2,0.1-0.3,0.1-0.5c0.1-0.2,0.1-0.5,0.1-0.7l-1.4-0.1c0,0.4,0,0.6-0.1,0.9
		C345.6,143.2,345.7,143.3,345.6,143.4z"/>
	<path class="st1" d="M345.4,144.5l1.1,0.1c0.1-0.3,0.2-0.5,0.2-0.8c0.1-0.1,0.1-0.2,0.1-0.3l-1.1-0.1c0,0.2-0.1,0.5-0.1,0.7
		C345.4,144.2,345.4,144.4,345.4,144.5z"/>
	<path class="st1" d="M301.9,241.5c0,0,0.1,0,0.1,0.1l18.3-42.4l-19-30.4c0,0.2-0.1,0.3-0.2,0.5c-0.1,0.3-0.2,0.5-0.3,0.8
		c-0.1,0.2-0.2,0.5-0.2,0.7l18,28.9l-18,41.4C301,241.2,301.4,241.4,301.9,241.5z"/>
	<path class="st1" d="M299.9,168.7c-0.1-0.2-0.1-0.3-0.1-0.5c0-0.3,0-0.6,0-0.8c0-0.3,0.1-0.6,0.1-0.9l0,0L299,165l0,0
		c-0.1,0.3-0.1,0.6-0.1,1c0,0.3-0.1,0.6-0.1,0.9c0,0.3,0,0.6-0.1,0.9l0,0l1.1,1.7c0-0.2,0.1-0.4,0.1-0.5
		C299.9,168.7,299.9,168.7,299.9,168.7z"/>
	<path class="st1" d="M309.8,141c0,0.1,0.1,0.2,0,0.2l3.1,0.3l-0.9-0.4l-1-0.4c-0.1-0.2,0-0.4-0.1-0.6l-1.2-0.2c0,0.1,0,0.1,0,0.2
		C309.7,140.5,309.8,140.7,309.8,141z"/>
	<path class="st1" d="M313.6,141c-0.1,0.2-0.2,0.3-0.3,0.6l27.4,2.6c-0.1-0.2,0-0.3-0.1-0.4c0-0.3-0.1-0.5-0.2-0.8l-26.6-2.6
		C313.9,140.6,313.8,140.7,313.6,141z"/>
	<path class="st1" d="M300.2,164.6c0-0.2,0.1-0.4,0.1-0.6l-0.8-1.3c-0.1,0.1,0,0.2-0.1,0.2c-0.1,0.3-0.1,0.7-0.3,1
		c-0.1,0.3-0.2,0.6-0.3,0.9l0.9,1.4c0-0.3,0.1-0.6,0.2-0.9C300.2,165.3,300.2,164.9,300.2,164.6z"/>
	<path class="st1" d="M345,145.6C345,145.6,345,145.6,345,145.6l1.1,0.1c0.1-0.1,0.1-0.2,0.1-0.3c0.1-0.2,0.2-0.5,0.2-0.7l0,0
		l-1.1-0.1c-0.1,0.1-0.1,0.2-0.1,0.3C345.2,145.1,345.1,145.3,345,145.6z"/>
	<path class="st1" d="M312.9,141.5l-3.1-0.3c0,0.2,0,0.4,0.1,0.6c0.1,0.2,0,0.4,0.1,0.5l30.9,2.9c0-0.1,0-0.3,0-0.4
		c0-0.3-0.1-0.5-0.1-0.8l-27.4-2.6l-0.1,0.1L312.9,141.5z"/>
	<path class="st1" d="M322,198.7l-19.9-31.9c-0.1,0.2-0.2,0.5-0.2,0.7c-0.1,0.3-0.2,0.6-0.4,0.9c-0.1,0.1-0.1,0.2-0.1,0.4l19,30.4
		L302,241.5c0.5,0,1,0,1.6-0.2L322,198.7z"/>
	<path class="st1" d="M300.9,161.9l-0.6-1c-0.1,0.2-0.2,0.4-0.3,0.7c-0.2,0.3-0.2,0.7-0.4,1.1l0.8,1.3c0.1-0.1,0.1-0.3,0.1-0.4
		C300.6,163,300.8,162.4,300.9,161.9z"/>
	<path class="st1" d="M304.6,241.7c0,0.1,0.1,0.1,0.1,0.1c0,0,0,0,0.1,0.1l18.9-43.7l-20.9-33.4c-0.1,0.2-0.2,0.5-0.3,0.7
		c-0.1,0.3-0.3,0.6-0.3,0.9c0,0.1-0.1,0.1,0,0.2l19.9,31.9l-18.4,42.6c0.1,0,0.2-0.1,0.3-0.1C304.1,241.4,304.3,241.6,304.6,241.7z"
		/>
	<path class="st1" d="M344.6,146.7l1.1,0.1c0.1-0.2,0.1-0.4,0.3-0.6c0.1-0.1,0.1-0.3,0.1-0.4l-1.1-0.1c-0.1,0.2-0.1,0.4-0.3,0.6
		C344.6,146.4,344.6,146.5,344.6,146.7z"/>
	<path class="st1" d="M310.3,143.4L310.3,143.4l30.6,2.9c0-0.1,0-0.3,0-0.4c0-0.3-0.1-0.5-0.1-0.8l-30.9-2.9c0,0.1,0.1,0.2,0.1,0.2
		C310.1,142.8,310.2,143.2,310.3,143.4z"/>
	<path class="st1" d="M344.2,147.3c-0.1,0.1-0.2,0.2-0.3,0.4l1.3,0.1c0.1-0.1,0.1-0.2,0.2-0.3c0.1-0.2,0.1-0.4,0.3-0.6l0,0l-1.1-0.1
		l-0.1,0.1C344.4,147,344.3,147.2,344.2,147.3z"/>
	<path class="st1" d="M341.2,147.4L341,147c0-0.3-0.1-0.4,0-0.6l-30.6-2.9l1.3,1.2L341.2,147.4z"/>
	<path class="st1" d="M301,161.8c0.1-0.5,0.3-0.9,0.3-1l0,0c0.1,0.1,0.5,0.2,0.9,0.3l-1.2-1.9c-0.1,0.2-0.1,0.5-0.1,0.9
		c0,0,0,0-0.1,0.1c-0.1,0.1-0.2,0.4-0.4,0.8l-0.1,0.1l0.6,1C301,161.9,301,161.8,301,161.8z"/>
	<path class="st1" d="M306,242.5l19.3-44.6L303.5,163c-0.2,0.5-0.4,1-0.6,1.7c0,0.1-0.1,0.1-0.1,0.2l20.9,33.4L304.8,242
		C305.2,242.2,305.6,242.4,306,242.5z"/>
	<path class="st1" d="M303.2,161.1l0.6,1c-0.1,0.2-0.2,0.5-0.4,0.9l-0.1,0.1l21.8,34.9l-19.3,44.6c0.1,0,0.2,0,0.2,0
		c0.4,0.1,0.8,0,1.1-0.1l19.4-45l-24.8-39.5c-0.2,0.1-0.4,0.2-0.5,0.4c-0.2,0.2-0.3,0.4-0.4,0.6l-0.1,0.1l1.2,1.9
		c0.1,0,0.1,0.1,0.2,0C302.6,161,302.9,161.1,303.2,161.1z"/>
	<path class="st1" d="M311.5,145.2c-0.1,0.1-0.1,0.2-0.1,0.4l33.4,3.2c0.1-0.1,0.1-0.1,0.1-0.2c0.1-0.2,0.2-0.3,0.3-0.6
		c0.1-0.1,0.1-0.1,0.1-0.2l-1.3-0.1l-0.1,0.1c-0.1,0.1-0.2,0.3-0.3,0.5c-0.2,0.2-0.3,0.4-0.3,0.4l0,0l-0.5-0.1l-0.6-0.1l-0.5-0.1
		l-0.4-0.8l-29.5-2.8l0,0.1C311.7,144.9,311.6,145.1,311.5,145.2z"/>
	<path class="st1" d="M311.1,146.4c-0.1,0.1,0,0.2-0.1,0.2l33.2,3.2c0.1,0,0.1-0.1,0.1-0.1c0.1-0.1,0.2-0.3,0.3-0.5
		c0.1-0.1,0.1-0.2,0.2-0.3l-33.4-3.2c0,0.1-0.1,0.1,0,0.2C311.2,146,311.1,146.2,311.1,146.4z"/>
	<path class="st1" d="M308.6,242c0,0.1,0.2,0.2,0.2,0.3l19.6-45.1l-24.8-39.7l0,0c-0.2,0.1-0.4,0.1-0.7,0.2
		c-0.2,0.1-0.4,0.1-0.6,0.3l-0.1,0l24.8,39.5l-19.4,45c0.1,0,0.2-0.1,0.2-0.1C308.1,242.2,308.6,242,308.6,242z"/>
	<path class="st1" d="M310,242.3l19.7-45.5l-24.8-39.6c-0.1,0-0.1,0-0.2,0.1c-0.2,0.1-0.4,0.1-0.7,0.1c-0.2,0.1-0.4,0.1-0.7,0.1
		l24.8,39.7l-19.6,45.1l0.1,0.1C309.2,242.5,309.5,242.5,310,242.3z"/>
	<path class="st1" d="M310.9,146.9c-0.1,0.1-0.1,0.1-0.1,0.2c0,0,0.4,0.1,0.9,0.1c1.1,0.1,2.6,0.4,3.1,0.8l28.8,2.7
		c0.1-0.1,0.1-0.1,0.2-0.2c0.1-0.1,0.2-0.2,0.3-0.4c0.1-0.1,0.1-0.2,0.2-0.2l-33.2-3.2C310.9,146.7,310.9,146.8,310.9,146.9z"/>
	<path class="st1" d="M311.3,241.6c0.1-0.1,0.3-0.3,0.4-0.3l19.4-44.8L306,156.3c0,0.2-0.1,0.3-0.1,0.5c0,0.2,0,0.3,0,0.4
		c0,0-0.2,0-0.4,0.1c-0.2,0.1-0.4,0-0.5,0.1l24.8,39.6L310,242.4c0.1,0,0.1,0,0.2-0.1C310.5,242.1,310.9,241.9,311.3,241.6z"/>
	<path class="st1" d="M314.7,148.1c0,0,0.2,0.3,0.4,0.6c0,0.1,0.1,0.2,0.1,0.3l27.1,2.6l0,0c0.1,0,0.2-0.1,0.3-0.2
		c0.1,0,0.2-0.2,0.3-0.3c0.1-0.1,0.2-0.2,0.3-0.3l0.1-0.1l-28.8-2.7C314.7,148,314.7,148.1,314.7,148.1z"/>
	<path class="st1" d="M314.8,149.7c-0.2,0.1-0.7,0-1.4-0.1c0,0-1-0.5-2-0.7c-0.5,0-0.9-0.1-1.3,0c-0.2,0.1-0.4,0.1-0.6,0.3
		c-0.1,0-0.1,0.1-0.1,0.1l31.5,3c0-0.2,0-0.3,0-0.5l0.3-0.3c0.1,0.1,0.3,0.1,0.5,0.1c0.1,0.1,0.3,0,0.4,0c0.1,0,0.2-0.1,0.3-0.1
		l-27.1-2.6c0.1,0.2,0.1,0.2,0,0.4C315.3,149.4,315.2,149.7,314.8,149.7z"/>
	<path class="st1" d="M311.7,241.2c0.2-0.2,0.4-0.3,0.6-0.6c0.4-0.3,0.7-0.7,1.1-1c0.1-0.1,0.3-0.3,0.4-0.4l18.7-43.1l-25.9-41.4
		c-0.1,0.2-0.1,0.4-0.3,0.6c-0.1,0.2-0.2,0.4-0.3,0.6c-0.1,0.1-0.1,0.2-0.1,0.3l25.2,40.2L311.7,241.2z"/>
	<path class="st1" d="M315.3,237.4c0.3-0.3,0.5-0.6,0.8-0.9l17.6-40.8l-26.6-42.5c-0.1,0.1-0.1,0.1-0.1,0.2
		c-0.1,0.2-0.2,0.3-0.3,0.6c-0.1,0.2-0.1,0.4-0.3,0.6l0,0l25.9,41.4l-18.6,43.2c0.2-0.2,0.4-0.4,0.5-0.6
		C314.7,238.2,315.1,237.8,315.3,237.4z"/>
	<path class="st1" d="M309,150l-0.1,0.1l0,0l32,3l0-0.1c0-0.2,0.1-0.4,0.1-0.7c0-0.1,0.1-0.1,0-0.2l-31.5-3
		c-0.1,0.1-0.1,0.1-0.2,0.2C309.1,149.7,309.1,149.8,309,150z"/>
	<path class="st1" d="M317.2,235.3c0.3-0.4,0.6-0.7,0.8-1.1c0.2-0.2,0.5-0.5,0.6-0.9l16.5-37.9l-27.2-43.4l0,0
		c-0.1,0.1-0.2,0.3-0.2,0.4c-0.1,0.1-0.2,0.3-0.3,0.5c-0.1,0.1-0.1,0.2-0.2,0.3l26.6,42.5l-17.6,40.8c0.1,0,0.1-0.1,0.1-0.1
		C316.6,236,316.9,235.6,317.2,235.3z"/>
	<path class="st1" d="M308.6,150.7c-0.1,0.1-0.1,0.1-0.1,0.2l28,2.7c0.2-0.1,0.2-0.2,0.3-0.2c0.1,0,0.1,0,0.1,0
		c0.1,0,0.2-0.1,0.2-0.1s0.2,0,0.3,0c0.1,0,0.2,0,0.3,0c0.1,0,0.2,0,0.3,0.1c0.1,0.1,0.2,0,0.3,0.1s0.2,0,0.2,0.1
		c0.1,0,0.1,0.1,0.2,0c0.1,0.1,0.2,0.1,0.3,0.1c0.1,0.1,0.2,0.1,0.3,0.1c0.1,0,0.1,0.1,0.2,0l1.3,0.1c0-0.1,0-0.2,0-0.4
		c0-0.2,0.1-0.4,0-0.5l-32-3C308.9,150.2,308.8,150.4,308.6,150.7z"/>
	<path class="st1" d="M340,154.1c0.1,0.1,0.3,0.1,0.4,0.1c0.2,0.1,0.3,0.2,0.3,0.2l0-0.1c0-0.1,0-0.2,0-0.2l-1.3-0.1
		c0.1,0,0.1,0.1,0.2,0C339.8,153.9,339.9,154,340,154.1z"/>
	<path class="st1" d="M308.1,151.6c-0.1,0.1-0.2,0.2-0.2,0.4l27.2,43.4l-16.5,37.9c0.1-0.1,0.1-0.1,0.2-0.2c0.3-0.4,0.6-0.7,0.8-1.1
		c0.3-0.4,0.6-0.7,0.8-1.1c0.4-0.5,0.6-0.9,0.8-1.1c0.1,0,0.1-0.1,0.1-0.1c0.1-0.1,0.1-0.1,0.1-0.2l15-34.5l-27.1-43.3l26.5,2.5
		c0-0.2,0.2-0.3,0.3-0.5c0.1-0.1,0.2-0.2,0.4-0.3l0,0l-28-2.7c-0.1,0.1-0.1,0.1-0.1,0.2C308.3,151.2,308.2,151.4,308.1,151.6z"/>
	<path class="st1" d="M322.6,227.6c0.3-0.4,0.4-0.8,0.6-1.1c0.3-0.4,0.4-0.8,0.6-1.1s0.4-0.8,0.6-1.1c0.2-0.3,0.4-0.8,0.6-1.1
		c0.2-0.3,0.4-0.8,0.6-1.1c0.2-0.3,0.4-0.8,0.6-1.1c0.2-0.3,0.3-0.7,0.5-1.1l3.2-7.3l0.1-0.1c0.2-0.3,0.3-0.6,0.4-1
		c0.2-0.3,0.3-0.6,0.4-1c0.1-0.3,0.3-0.6,0.3-0.9s0.3-0.6,0.3-0.9s0.3-0.6,0.3-0.9c0.1-0.3,0.3-0.6,0.3-0.9s0.2-0.6,0.3-0.9l0,0.1
		c0.1,0,0.2-0.1,0.4-0.2c0,0,0.1,0,0.1-0.1l4.6-10.7l-26.3-42l26,2.5c-0.1,0-0.1-0.1-0.2,0c-0.1-0.1-0.2,0-0.3-0.1
		c-0.1-0.1-0.2,0-0.3-0.1c-0.1-0.1-0.2-0.1-0.3-0.2c-0.1-0.1-0.2-0.1-0.2-0.2c-0.1-0.1-0.2-0.2-0.1-0.4l-26.5-2.5l27.1,43.3
		l-15,34.5c0.2-0.2,0.4-0.6,0.6-0.8C322.2,228.4,322.3,228.1,322.6,227.6z"/>
	<path class="st1" d="M338.4,155.4c-0.1,0-0.2,0-0.3,0c-0.1,0-0.2,0-0.3,0c-0.1,0-0.2,0-0.3,0s-0.2,0-0.3,0l1.2,0.2
		C338.6,155.5,338.4,155.4,338.4,155.4z"/>
	<path class="st1" d="M337.5,194.8l-4.6,10.7c0.1-0.1,0.1-0.1,0.3-0.3c0.1-0.1,0.2-0.2,0.3-0.5c0.1-0.1,0.2-0.3,0.3-0.5
		c0.1-0.1,0.2-0.3,0.3-0.5c0.1-0.1,0.2-0.3,0.3-0.5s0.2-0.3,0.3-0.5c0.1-0.1,0.2-0.3,0.3-0.5c0.1-0.2,0.2-0.3,0.3-0.5
		c0.1-0.2,0.2-0.3,0.3-0.5c0.1-0.2,0.2-0.3,0.2-0.4c0.1-0.2,0.2-0.3,0.2-0.4c0.1-0.2,0.2-0.3,0.2-0.4c0.1-0.2,0.2-0.3,0.2-0.4
		s0.1-0.2,0.1-0.2s0,0,0,0.1l2-4.8L313.3,154l27.5,2.6c0-0.1,0-0.1-0.1-0.1c-0.1-0.1-0.3-0.3-0.5-0.4c-0.1-0.1-0.2-0.1-0.4-0.1
		c-0.1-0.1-0.2-0.1-0.3-0.2c-0.1-0.1-0.2,0-0.3-0.1s-0.3-0.1-0.4-0.1l0,0l-1.2-0.2l0,0l-0.1,0l0,0l-26.1-2.6L337.5,194.8z"/>
	<path class="st1" d="M327.2,218.7c0.2-0.3,0.3-0.7,0.5-1.1c0.2-0.3,0.3-0.7,0.5-1.1c0.2-0.3,0.3-0.7,0.5-1.1s0.3-0.7,0.4-1
		c0.2-0.3,0.3-0.6,0.4-1c0.1-0.3,0.3-0.6,0.4-0.9l-3.2,7.3l0,0C326.9,219.4,327.1,219.1,327.2,218.7z"/>
	<path class="st1" d="M337.1,199.8c0.1,0.1,0.1,0.1,0.3,0.3l1.6-3.7c-0.1-0.8-0.1-1.6-0.1-2.4c-0.1-0.4,0-1-0.1-1.4l-23.6-37.7
		l26,2.5l0-0.1c-0.1-0.2-0.2-0.5-0.3-0.7l-27.5-2.6l25.4,40.7l-2,4.8c0,0,0.1,0.1,0.1,0.1C336.8,199.5,337,199.6,337.1,199.8z"/>
	<path class="st1" d="M337.7,200.4c0.1,0.1,0.2,0.2,0.3,0.3l0,0l1-2.5c-0.1-0.5-0.1-1.2-0.1-1.7c0-0.1-0.1-0.2,0-0.3l-1.6,3.7l0,0.1
		C337.5,200.2,337.6,200.3,337.7,200.4z"/>
	<path class="st1" d="M338.7,192.5c0-0.4,0-0.7-0.1-1.1c-0.1-0.4-0.1-0.8-0.1-1.2l-21.6-34.6L341,158c0-0.1,0-0.1,0-0.1
		s0-0.1,0.1-0.1c0-0.2,0-0.4,0-0.5l-25.9-2.6L338.7,192.5z"/>
	<path class="st1" d="M338.5,201.3c0,0.1,0,0.1,0.1,0.1l0.6-1.3c-0.1-0.2,0-0.3-0.1-0.4c-0.1-0.4-0.1-0.9-0.1-1.4l-1,2.5
		c0.1,0.1,0.2,0.2,0.3,0.3C338.4,201.1,338.5,201.2,338.5,201.3z"/>
	<path class="st1" d="M338.5,188l-19.7-31.5l22.4,2.1c-0.1-0.2,0-0.3,0-0.4c-0.1-0.2,0-0.3,0-0.4l-24.2-2.2l21.6,34.5
		c-0.1-0.4-0.1-0.8-0.1-1.1C338.5,188.6,338.5,188.3,338.5,188z"/>
	<path class="st1" d="M338.8,201.6c0.1,0.1,0.3,0.3,0.3,0.4c0,0.1,0,0.1,0.1,0.1l0.2-0.3c0-0.1,0-0.1-0.1-0.2c0-0.1,0-0.3,0-0.4
		s0-0.3,0-0.4c0-0.3-0.1-0.5-0.1-0.8l-0.6,1.3C338.7,201.5,338.8,201.5,338.8,201.6z"/>
	<path class="st1" d="M338.5,187.7c0.1,0,0.1,0,0.2-0.1c0.1,0,0.1,0,0.2-0.1c0.1,0,0.1-0.1,0.1-0.1c0.1,0,0.1-0.1,0.1-0.1
		c0,0,0,0,0.1-0.1l-18.6-29.9l20.7,2c0-0.2,0-0.4,0-0.5c0-0.1,0-0.1,0-0.2l-22.4-2.1l19.7,31.5C338.4,187.8,338.5,187.7,338.5,187.7
		L338.5,187.7z"/>
	<path class="st1" d="M339.6,202.7L339.6,202.7L339.6,202.7c0-0.1-0.1-0.2-0.1-0.2C339.5,202.6,339.5,202.7,339.6,202.7z"/>
	<path class="st1" d="M339.3,186.9c0.1-0.1,0.1-0.1,0.1-0.2s0.1-0.1,0.1-0.2c0.1-0.1,0.1-0.1,0.1-0.2l0,0l-17.5-28l19,1.8l0-0.1
		c0-0.2,0-0.4,0-0.6c0,0,0,0,0-0.1l-20.7-2l18.6,29.9l0.1-0.1C339.3,187,339.3,186.9,339.3,186.9z"/>
	<path class="st1" d="M339.4,202.4L339.4,202.4L339.4,202.4c0-0.1,0-0.3,0-0.4c0-0.1,0-0.1-0.1-0.2l-0.2,0.3l0,0.1
		C339.4,202.3,339.4,202.3,339.4,202.4z"/>
	<path class="st1" d="M339.7,186.3c0.1-0.1,0.1-0.1,0.1-0.2s0.1-0.1,0.1-0.2c0.1-0.1,0.1-0.1,0.1-0.2c0.1-0.1,0.1-0.1,0.1-0.2
		c0-0.1,0.1-0.1,0.1-0.2l-1.4-2.2l0,0l-0.1,0c0,0,0,0,0-0.1c0,0,0,0,0-0.1L323.8,159l17.4,1.7c0-0.1,0-0.2,0-0.3
		c-0.1-0.2,0-0.3,0-0.4l-19-1.8L339.7,186.3z"/>
	<path class="st1" d="M338.7,182.5c0-0.1,0.1-0.1,0-0.2c0-0.1,0.1-0.1,0-0.2c0-0.1,0.1-0.1,0-0.2c0-0.1,0.1-0.1,0-0.2
		c0-0.1,0.1-0.1,0-0.2c0-0.1,0.1-0.1,0-0.2l-13.5-21.6l15.8,1.5c0-0.1,0-0.3,0-0.4c0-0.1,0-0.2,0-0.3l-17.4-1.7l14.9,23.8
		c0,0,0-0.1,0.1-0.1C338.7,182.6,338.7,182.6,338.7,182.5z"/>
	<path class="st1" d="M340.2,184.9c0.1-0.1,0.1-0.1,0.1-0.2c0.1-0.1,0.1-0.1,0.1-0.2l0.1-0.1l0.1-0.1l0.1-0.1c0,0,0,0,0-0.1l-1.3-2
		l-0.5,0.9l1.4,2.2l0,0C340.2,185,340.2,185,340.2,184.9z"/>
	<path class="st1" d="M340.5,183.9C340.5,183.9,340.5,183.8,340.5,183.9c0.1-0.1,0-0.2,0-0.2s0-0.1,0.1-0.1c0,0,0-0.1,0.1-0.1
		c0,0,0-0.1,0.1-0.1c0,0,0-0.1,0.1-0.1c0,0,0-0.1,0.1-0.1c0,0,0-0.1,0.1-0.1c0,0,0-0.1,0.1-0.1c0,0,0,0,0-0.1c0,0,0,0,0-0.1
		c0,0,0,0,0-0.1l-1.1-1.8c-0.1,0.1-0.1,0.2-0.1,0.3c-0.1,0.1-0.1,0.3-0.1,0.4l-0.2,0.2L340.5,183.9L340.5,183.9
		C340.6,184,340.5,183.9,340.5,183.9z"/>
	<path class="st1" d="M338.8,181.4C338.8,181.4,338.9,181.4,338.8,181.4l0.1-0.2l-0.1,0l0-0.1l0-0.1c0,0,0,0,0-0.1c0,0,0,0,0-0.1
		c0,0,0,0,0-0.1c0,0,0,0,0-0.1c0,0,0,0,0-0.1c0,0,0,0,0-0.1c0,0,0,0,0-0.1c0,0,0,0,0-0.1c0,0,0,0,0-0.1c0,0,0,0,0-0.1c0,0,0,0,0-0.1
		c0,0,0,0,0-0.1c0,0,0,0,0-0.1c0,0,0,0,0-0.1l0,0l0,0l0,0l0,0l0,0l-12.2-19.4l14.2,1.4l0-0.1c0-0.2,0-0.3,0-0.5c0,0,0,0,0-0.1
		l-15.8-1.5L338.8,181.4z"/>
	<path class="st1" d="M340.8,182.8C340.8,182.8,340.9,182.7,340.8,182.8c0.1-0.1,0.1-0.1,0.1-0.1s0,0,0-0.1c0,0,0,0,0-0.1
		c0,0,0,0,0-0.1c0,0,0,0,0-0.1c0,0,0,0,0-0.1c0,0,0,0,0-0.1c0,0,0,0,0-0.1l0,0l0,0l0,0l0,0l0,0l0,0l0,0l0,0l0,0l0,0
		c0,0,0-0.1,0.1-0.1l-1.1-1.7l0,0l0,0l0,0l0,0l0,0l0,0l0,0l0,0l0,0l0,0l0,0l0,0l0,0l0,0l0,0l0,0l0,0l0,0l0,0c0,0,0,0,0,0.1
		c0,0,0,0,0,0.1c0,0,0,0,0,0.1l0,0c0,0,0,0-0.1,0.1L340.8,182.8C340.9,182.9,340.9,182.9,340.8,182.8
		C340.9,182.9,340.9,182.9,340.8,182.8z"/>
	<path class="st1" d="M339.1,179.9L339.1,179.9L339.1,179.9c0-0.1,0.1-0.1,0.1-0.1l0,0l0,0l0,0c0,0,0,0,0-0.1c0,0,0,0,0-0.1
		c0,0,0,0,0-0.1c0,0,0,0,0-0.1c0,0,0,0,0-0.1c0,0,0,0,0-0.1c0,0,0,0,0-0.1c0,0,0,0,0-0.1c0,0,0,0,0-0.1c0,0,0,0,0-0.1c0,0,0,0,0-0.1
		c0,0,0,0,0-0.1c0,0,0,0,0-0.1l0-0.1l0-0.1l0-0.1c0,0,0,0,0-0.1L327.8,161l12.7,1.2c0-0.1,0-0.2,0-0.3c0-0.1,0-0.2,0-0.3l-14.2-1.4
		L339.1,179.9C339,180,339,180,339.1,179.9C339,180,339,180,339.1,179.9z"/>
	<path class="st1" d="M341.4,180.6l-1-1.5l0,0c0,0,0,0,0,0.1c0,0,0,0,0,0.1c0,0,0,0,0,0.1c0,0,0,0,0,0.1l0,0l0,0l0,0l0,0l0,0l0,0
		l0,0c-0.1,0.1-0.1,0.2-0.1,0.4l0,0l0,0l1.1,1.7C341.3,181.3,341.3,180.9,341.4,180.6z"/>
	<path class="st1" d="M339.2,178.6C339.3,178.5,339.3,178.5,339.2,178.6c0.1-0.1,0.1-0.1,0-0.2l0.1,0l0-0.1c0,0,0-0.1,0.1-0.1
		c0,0,0-0.1,0.1-0.1c0,0,0-0.1,0.1-0.1c0,0,0-0.1,0.1-0.1l0-0.1l0-0.1l0-0.1l0-0.1l0-0.1l0,0l-9.5-15.3l11.3,1.1c0,0,0-0.1,0.1-0.1
		c0.1-0.1,0-0.3,0-0.4l0-0.1l-12.7-1.2L339.2,178.6C339.2,178.7,339.2,178.7,339.2,178.6L339.2,178.6z"/>
	<path class="st1" d="M341.7,179.5l-0.8-1.3c0,0,0,0-0.1,0l0,0l0,0l0,0l0,0l0,0l0,0l0,0l0,0l0,0l0,0c0,0,0,0,0,0.1c0,0,0,0,0,0.1
		c0,0,0,0,0,0.1c0,0,0,0,0,0.1c0,0,0,0,0,0.1c0,0,0,0.1-0.1,0.1c0,0,0,0,0,0.1c0,0,0,0,0,0.1l0,0l1,1.5
		C341.5,180.1,341.6,179.8,341.7,179.5z"/>
	<path class="st1" d="M339.4,177.2L339.4,177.2c0.1-0.1,0.1-0.1,0-0.2l0-0.1l0-0.1l0-0.1c0,0,0,0,0-0.1l0,0c0,0,0,0,0-0.1
		c0,0,0,0,0-0.1c0,0,0,0,0-0.1c0,0,0,0,0-0.1c0,0,0,0,0-0.1c0,0,0,0,0-0.1c0,0,0,0,0-0.1c0,0,0,0,0-0.1c0,0,0,0,0-0.1c0,0,0,0,0-0.1
		c0,0,0,0,0-0.1c0,0,0,0,0-0.1l-8.3-13.3l9.9,1l0,0c0-0.1,0-0.2,0-0.3c0-0.1,0.1-0.1,0-0.2l-11.3-1.1l9.5,15.3
		C339.4,177.4,339.4,177.2,339.4,177.2C339.4,177.2,339.4,177.2,339.4,177.2z"/>
	<path class="st1" d="M342,178.4l-0.7-1.1l0,0l0,0l0,0l0,0l0,0l0,0l0,0l0,0l0,0l0,0l0,0l0,0l0,0c-0.1,0.1-0.1,0.2-0.2,0.3l0.8,1.3
		c0.1-0.5,0.2-0.8,0.2-0.8C342,178.6,341.9,178.5,342,178.4z"/>
	<path class="st1" d="M339.6,176L339.6,176L339.6,176c0.1-0.1,0.1-0.1,0-0.2l0-0.1l0-0.1l0-0.1l0-0.1l0-0.1l0-0.1l0-0.1l0-0.1l0-0.1
		l0-0.1l0-0.1c0,0,0-0.1,0.1-0.1l0,0l-7.2-11.4l8.4,0.8c0-0.1,0-0.2,0-0.3c0-0.1,0-0.2,0-0.3l-9.9-1L339.6,176z"/>
	<path class="st1" d="M339.7,174.6c0,0,0-0.1,0.1-0.1c0,0,0-0.1,0.1-0.1c0,0,0-0.1,0.1-0.1c0,0,0-0.1,0.1-0.1c0,0,0-0.1,0.1-0.1
		c0.1-0.1,0-0.3,0.1-0.4l-5.9-9.5l7,0.7c0-0.1,0-0.2,0-0.2c0-0.1,0-0.2,0-0.3l0,0l-8.4-0.8L340,175l0-0.1
		C339.7,174.7,339.7,174.6,339.7,174.6z"/>
	<path class="st1" d="M342.3,178.4l0.1-0.6l0.1-0.1l-0.7-1.1c0,0,0,0.1-0.1,0.1c-0.1,0.1,0,0.2-0.1,0.3l-0.1,0.1c0,0,0,0,0,0.1
		c0,0,0,0,0,0.1c0,0,0,0,0,0.1c0,0,0,0,0,0.1l0,0l0,0l0,0l0,0L342.3,178.4c0.1,0,0.1,0,0.1-0.1L342.3,178.4z"/>
	<path class="st1" d="M342.7,176.7l-0.8-1.2l0,0c-0.1,0.1-0.1,0.2-0.1,0.4c-0.1,0.1-0.1,0.2-0.1,0.3c-0.1,0.1-0.1,0.1-0.1,0.2
		l0.7,1.1C342.5,177.4,342.6,177.1,342.7,176.7z"/>
	<path class="st1" d="M335.2,164.6l5.6,0.5c0,0,0,0,0.1-0.1c0-0.1,0.1-0.1,0-0.2s0.1-0.1,0-0.2l0,0l-7-0.7l5.9,9.5
		c0.1-0.4,0.1-0.9,0.2-1.2L335.2,164.6z"/>
	<path class="st1" d="M342.7,176.7C342.7,176.7,342.7,176.6,342.7,176.7C342.8,176.6,342.8,176.6,342.7,176.7
		c0.1-0.1,0.1-0.1,0.1-0.1l0,0l0,0c0,0,0,0,0-0.1c0,0,0,0,0-0.1c0,0,0,0,0-0.1c0,0,0,0,0-0.1c0,0,0,0,0-0.1c0,0,0,0,0-0.1
		c0,0,0,0,0-0.1c0,0,0,0,0-0.1c0,0,0,0,0-0.1l0,0l-0.8-1.3l0,0.2c-0.1,0.1-0.1,0.3-0.1,0.4c-0.1,0.1-0.1,0.2-0.1,0.3L342.7,176.7
		L342.7,176.7L342.7,176.7z"/>
	<path class="st1" d="M336.4,165.3l4.7,0.4l0,0c-0.1-0.1-0.1-0.1-0.2-0.1c-0.1-0.1-0.2-0.1-0.2-0.1l0.1-0.1l0.1-0.1l-5.6-0.5
		l4.8,7.7c0.1-0.4,0.1-0.8,0.1-1.1L336.4,165.3z"/>
	<path class="st1" d="M340.1,171.2c0-0.5,0.1-0.9,0.1-1.1l-2.6-4.2l4.3,0.5c0,0,0,0,0-0.1c-0.1-0.1-0.2-0.1-0.2-0.2
		c-0.1-0.1-0.2-0.1-0.2-0.2c-0.1-0.1-0.1-0.1-0.2-0.1l-4.7-0.4L340.1,171.2z"/>
	<path class="st1" d="M343.1,175.7L343.1,175.7c0.1-0.1,0.1-0.1,0-0.2c0,0,0-0.1,0.1-0.1c0,0,0-0.1,0.1-0.1c0,0,0-0.1,0.1-0.1
		c0,0,0-0.1,0.1-0.1c0,0,0-0.1,0.1-0.1c0,0,0-0.1,0.1-0.1c0,0,0,0,0-0.1l-0.8-1.4l0,0c0,0,0,0.1-0.1,0.1c0,0,0,0.1-0.1,0.1
		c0,0,0,0.1-0.1,0.1c0,0,0,0.1-0.1,0.1c0,0,0,0.1-0.1,0.1c0,0,0,0.1-0.1,0.1c0,0,0,0.1-0.1,0.1c0,0,0,0.1-0.1,0.1l0,0.1l0,0.1l0-0.1
		l0,0.1L343.1,175.7C343,175.9,343,175.8,343.1,175.7C343,175.8,343.1,175.8,343.1,175.7z"/>
	<path class="st1" d="M340.4,169.8l0.1,0.1l0.1,0.1l0.1,0.1l0.1,0.1l0.1,0.1l0.1,0.1l0,0l-2.3-3.7l3.8,0.3c0,0,0-0.1-0.1-0.1
		c-0.1-0.1-0.2-0.2-0.4-0.3c-0.1-0.1-0.1-0.1-0.2-0.2l-4.3-0.5l2.6,4.2C340.3,169.9,340.3,169.7,340.4,169.8
		C340.3,169.7,340.3,169.8,340.4,169.8z"/>
	<path class="st1" d="M343.3,174.8c0,0,0-0.1,0.1-0.1c0,0,0-0.1,0.1-0.1c0,0,0-0.1,0.1-0.1l0.1-0.1l0.1-0.1l0.1-0.1l0,0l-0.8-1.3
		l-0.1,0.1l-0.1,0.1c0,0,0,0.1-0.1,0.1c0,0,0,0.1-0.1,0.1c0,0,0,0.1-0.1,0.1c0,0,0,0.1-0.1,0.1c0,0,0,0.1-0.1,0.1c0,0,0,0.1-0.1,0.1
		l0.8,1.4l0,0C343.3,174.9,343.3,174.9,343.3,174.8z"/>
	<path class="st1" d="M341.2,170.2C341.3,170.2,341.3,170.3,341.2,170.2c0.1,0.1,0.1,0.1,0.2,0.1l0.1,0.1l0.1,0.1l0.1,0.1l0.1,0.1
		l0.1,0.1l0,0l-2.3-3.6l3.2,0.3c-0.1-0.1-0.1-0.1-0.2-0.2c-0.1-0.1-0.2-0.2-0.3-0.3l-3.8-0.3l2.3,3.7
		C341.1,170.2,341.1,170.2,341.2,170.2C341.2,170.2,341.2,170.2,341.2,170.2z"/>
	<path class="st1" d="M343.5,173.9c0-0.1,0.1-0.1,0-0.2s0.1-0.1,0-0.2s0.1-0.1,0-0.2s0.1-0.1,0-0.2s0.1-0.1,0-0.2l0,0l-0.8-1.3l0,0
		c0,0.1-0.1,0.1,0,0.2c0,0.1-0.1,0.1,0,0.2s-0.1,0.1,0,0.2l-0.1,0.1l-0.1,0.1l-0.1,0.1l0,0l0.8,1.3
		C343.5,174,343.5,173.9,343.5,173.9z"/>
	<path class="st1" d="M343.7,172.6c0-0.1,0.1-0.1,0-0.2s0-0.2,0-0.2c0-0.1,0-0.2,0-0.2l0,0l-2.8-4.4l2.5,0.2c0-0.1-0.1-0.1-0.2-0.2
		c0-0.1-0.1-0.1-0.2-0.2l-3.2-0.3l2.3,3.6l0.1,0.1l0.1,0.1l0.1,0.1c0.1,0,0.1,0.1,0.1,0.1c0.1,0,0.1,0,0.2,0c0.1,0,0.1,0,0.2-0.1
		l0,0.1c0,0-0.1,0.1,0,0.2s-0.1,0.1,0,0.2s-0.1,0.1,0,0.2s-0.1,0.1,0,0.2l-0.1,0.1l0.8,1.3c0-0.1,0.1-0.1,0-0.2
		C343.7,172.8,343.7,172.8,343.7,172.6z"/>
	<path class="st1" d="M343.8,172c0-0.1,0-0.2,0-0.2c0-0.1,0-0.2,0-0.3c0-0.1,0-0.2,0-0.3c0-0.1,0-0.2,0-0.3l0,0l-1.7-2.8l1.8,0.2
		c-0.1-0.2-0.2-0.3-0.3-0.4l-2.5-0.2L343.8,172z"/>
	<path class="st1" d="M343.8,170.3C343.8,170.2,343.8,170.2,343.8,170.3c0.1-0.1,0.1-0.1,0-0.2l0.1-0.1l-0.9-1.4l0.9,0.1
		c-0.1-0.2-0.1-0.3-0.2-0.4l-1.8-0.2l1.7,2.8c0-0.1,0-0.2,0-0.3C343.9,170.5,343.8,170.4,343.8,170.3z"/>
	<path class="st1" d="M344,170L344,170c0.1-0.1,0.1-0.2,0.1-0.3c0.1-0.1,0-0.2,0.1-0.3c0-0.1,0-0.2,0-0.3l0,0l0,0c0,0,0,0,0-0.1
		s-0.1-0.2-0.1-0.3l-0.9-0.1L344,170z"/>
	<path class="st1" d="M344.1,169.1L344.1,169.1L344.1,169.1L344.1,169.1z"/>
</g>
</svg>
