<?xml version="1.0" encoding="utf-8"?>
<!-- Generator: Adobe Illustrator 22.0.1, SVG Export Plug-In . SVG Version: 6.00 Build 0)  -->
<svg version="1.1" id="レイヤー_1" xmlns="http://www.w3.org/2000/svg" xmlns:xlink="http://www.w3.org/1999/xlink" x="0px"
	 y="0px" viewBox="0 0 640 640" style="enable-background:new 0 0 640 640;" xml:space="preserve">
<style type="text/css">
	.st0{fill:none;stroke:#FFFFFF;stroke-width:0.2734;stroke-miterlimit:10;}
</style>
<g>
	<path class="st0" d="M162,253.4c-0.3-0.2-0.4-0.3-0.5-0.4l1.9,2.5l0.9-0.9C163.2,254.2,162.4,253.7,162,253.4z"/>
	<path class="st0" d="M166.2,258.3c0,0,0.2,0.9,0.8,1.5c0.1,0.2,0.3,0.3,0.5,0.5l2.6-2.5c-0.8-0.4-1.5-0.8-2.3-1.2
		c-0.2-0.1-0.4-0.2-0.6-0.3l-2,2C165.5,258.3,165.9,258.4,166.2,258.3z"/>
	<path class="st0" d="M196.5,235.4c-0.3,0.1-0.7,0.3-1,0.5c-0.3,0.2-0.7,0.3-1,0.5c-0.3,0.2-0.7,0.4-1,0.6c-0.3,0.2-0.7,0.5-1,0.7
		c-0.3,0.3-0.6,0.5-0.9,0.8c-0.3,0.3-0.6,0.6-0.8,1c-0.3,0.4-0.5,0.8-0.7,1.2c-0.2,0.5-0.4,1-0.5,1.5c0,0.2-0.1,0.4-0.1,0.6l7.9-7.8
		C197.1,235.1,196.8,235.2,196.5,235.4z"/>
	<path class="st0" d="M169.1,260.4c0,0,0.1,0.2,0.4,0.5c0.2,0.2,0.4,0.5,0.7,0.8l2.6-2.6c-0.9-0.5-1.9-0.9-2.8-1.4l-2.6,2.5
		C167.9,260.6,168.4,260.7,169.1,260.4z"/>
	<path class="st0" d="M190.2,246.1l18.9-18.6c-1-0.1-1.9,0.1-2.8,0.4c-0.5,0.2-1,0.4-1.5,0.7c-0.4,0.2-0.8,0.5-1.1,0.8
		c-0.3,0.3-0.7,0.5-1,0.8c-0.3,0.3-0.6,0.5-0.8,0.8c-0.3,0.3-0.5,0.5-0.7,0.8c-0.2,0.2-0.4,0.5-0.6,0.7c-0.2,0.3-0.4,0.5-0.6,0.7
		c-0.2,0.3-0.4,0.6-0.6,0.8c-0.2,0.2-0.2,0.3-0.2,0.3s-0.2,0.1-0.6,0.2c-0.3,0.1-0.6,0.2-1,0.4c0,0-0.1,0-0.1,0l-7.9,7.8
		c0,0.5,0,0.9,0.1,1.4C189.7,244.8,189.9,245.5,190.2,246.1z"/>
	<path class="st0" d="M259.5,370.7c0.5,0.5,0.9,0.9,1.4,1.4c0.8,0.8,1.5,1.6,2.3,2.3c0.7,0.7,1.5,1.5,2.2,2.2c0.7,0.7,1.4,1.4,2.1,2
		c0.4,0.4,0.9,0.8,1.3,1.2l-4.2-8.4L259.5,370.7z"/>
	<path class="st0" d="M171.1,262.5c0.7,0.4,1.5,0.5,2.1-0.2c0,0,0.1,0.2,0.2,0.4l2.1-2.1c-0.1-0.1-0.3-0.1-0.4-0.2
		c-0.8-0.4-1.5-0.8-2.3-1.2c0,0,0,0,0,0l-2.6,2.6C170.5,262,170.8,262.3,171.1,262.5z"/>
	<path class="st0" d="M173.9,263.3c0.4,0.5,0.9,0.9,1.6,1.3l2.8-2.7c-0.3-0.1-0.5-0.3-0.8-0.4c-0.6-0.3-1.2-0.6-1.9-0.9l-2.1,2.1
		C173.6,262.8,173.7,263,173.9,263.3z"/>
	<path class="st0" d="M191.8,248.5l20.3-20c-0.6-0.4-1.1-0.7-1.7-0.9l-1-0.2c-0.1,0-0.2,0-0.2,0l-18.9,18.6
		C190.6,246.9,191.1,247.7,191.8,248.5z"/>
	<path class="st0" d="M271.6,382.4c0.6,0.6,1.3,1.1,1.9,1.7c0.6,0.5,1.2,1,1.8,1.5c0.1,0.1,0.3,0.2,0.4,0.3l-9.2-18.4l-11.6-1.6
		c0.3,0.3,0.6,0.6,0.9,1c0.8,0.9,1.7,1.8,2.5,2.7c0.4,0.4,0.7,0.7,1.1,1.1l5.1,0.7l4.2,8.4c0.3,0.2,0.5,0.5,0.8,0.7
		C270.3,381.2,270.9,381.8,271.6,382.4z"/>
	<path class="st0" d="M238.7,362.9C238.7,363,238.7,363,238.7,362.9C238.8,363,238.8,362.9,238.7,362.9c0.1-0.1,0.1-0.3,0-0.4
		C238.7,362.7,238.7,362.8,238.7,362.9z"/>
	<path class="st0" d="M249,361.7c0.8,0.5,1.5,1,2.1,1.2l-0.5-1.6l-2.7-0.4C248.2,361.2,248.6,361.5,249,361.7z"/>
	<path class="st0" d="M179.1,264.2l0.5,0.1l1.3-1.3c-0.4-0.2-0.8-0.4-1.2-0.6c-0.4-0.2-0.9-0.4-1.4-0.7l-2.8,2.7
		c0.1,0,0.1,0.1,0.2,0.1C176.5,265,177.7,265,179.1,264.2z"/>
	<path class="st0" d="M214,230.4c-0.3-0.4-0.6-0.7-0.9-1c-0.3-0.3-0.7-0.6-1-0.8l-20.3,20c0.5,0.6,1.1,1.3,1.9,2L214,230.4z"/>
	<path class="st0" d="M275.7,385.9c0.4,0.4,0.9,0.7,1.3,1.1c0.6,0.5,1.1,0.9,1.7,1.4c0.5,0.4,1.1,0.9,1.6,1.3
		c0.5,0.4,1.1,0.8,1.6,1.2l-13.5-27.1l-17.6-2.5c0.8,0.9,1.6,1.8,2.4,2.7c0.6,0.6,1.2,1.3,1.8,1.9l11.6,1.6L275.7,385.9z"/>
	<path class="st0" d="M238.1,360.1c0.2,0.5,0.3,0.9,0.4,1.3c0.1,0.5,0.2,0.8,0.3,1.1c0.1-0.4,0.2-0.9,0.4-1.5
		c0.1-0.4,0.3-0.8,0.4-1.2l-1.7-0.2C237.9,359.7,238,359.9,238.1,360.1z"/>
	<path class="st0" d="M182.5,265.2l2.1-2.1c-0.4-0.3-0.8-0.4-1.1,0c0-0.1,0-0.3,0-0.4l-1.7,0.9c-0.3-0.1-0.6-0.3-1-0.5l-1.3,1.3
		l0.5,0.1L182.5,265.2z"/>
	<path class="st0" d="M283.1,391.8c0.3,0.2,0.6,0.4,0.9,0.6c0.3,0.2,0.6,0.4,0.9,0.7c0.3,0.2,0.6,0.4,0.9,0.7
		c0.1,0.1,0.3,0.2,0.4,0.3c0,0,0.2,0.1,0.6,0.4c0.2,0.1,0.4,0.2,0.6,0.4l-17.3-34.7l-28.1-4c0.3,0.2,0.6,0.5,0.9,0.8
		c0.3,0.3,0.7,0.6,1.1,0.9c0.4,0.3,0.7,0.6,1.1,0.9c0.4,0.3,0.8,0.6,1.2,0.9c0.4,0.3,0.8,0.6,1.2,1c0.1,0.1,0.2,0.1,0.2,0.2l2.7,0.4
		l-0.1-0.4c0.1,0.2,0.3,0.3,0.4,0.5l17.6,2.5l13.5,27.1c0.1,0.1,0.3,0.2,0.4,0.3C282.6,391.4,282.8,391.6,283.1,391.8z"/>
	<path class="st0" d="M240.6,357c0.1-0.4,0.3-0.7,0.4-0.9l-4.5-0.6c0.1,0.3,0.2,0.7,0.3,1c0.1,0.4,0.3,0.8,0.4,1.2
		c0.1,0.4,0.3,0.8,0.4,1.2c0.1,0.2,0.1,0.5,0.2,0.7l1.7,0.2c0.1-0.3,0.2-0.5,0.3-0.8C240.1,358.2,240.4,357.5,240.6,357z"/>
	<path class="st0" d="M215.6,232.7c-0.1-0.2-0.3-0.5-0.4-0.7c-0.3-0.4-0.6-0.8-0.9-1.2c-0.1-0.1-0.2-0.2-0.2-0.3l-20.4,20.1
		c0.6,0.6,1.3,1.1,2,1.7L215.6,232.7z"/>
	<path class="st0" d="M183.4,265.5l-0.2,1.5l-0.2,1l0.1,0.1l3.2-3.1c-0.3-0.4-0.6-0.8-0.9-1.2c-0.3-0.3-0.5-0.5-0.8-0.7l-2.1,2.1
		l0.2,0L183.4,265.5z"/>
	<path class="st0" d="M288.9,395.7c0.3,0.2,0.7,0.4,1.1,0.7c0.4,0.2,0.7,0.4,1.1,0.7c0.4,0.2,0.8,0.4,1.2,0.7c0,0,0.1,0,0.1,0.1
		l-20.6-41.2l-36.7-5.2c0.1,0.2,0.1,0.4,0.2,0.5c0.1,0.4,0.2,0.7,0.4,1.1c0.1,0.4,0.2,0.7,0.4,1.1c0.1,0.4,0.3,0.8,0.4,1.1
		c0,0.1,0,0.1,0.1,0.2l4.5,0.6c0.1-0.4,0.2-0.6,0.2-0.6s0.3,0.3,0.8,0.7c0,0,0.1,0,0.1,0.1l28.1,4l17.3,34.7
		c0.1,0.1,0.3,0.2,0.4,0.3C288.2,395.3,288.6,395.5,288.9,395.7z"/>
	<path class="st0" d="M195.7,252.4c0,0,0,0.2-0.1,0.7c-0.1,0.5-0.1,1.1-0.2,2c0,0.3,0,0.6,0,1l21.3-21c-0.1-0.3-0.3-0.6-0.4-0.9
		c-0.2-0.4-0.4-0.7-0.6-1.1c-0.1-0.1-0.2-0.3-0.2-0.4l-19.9,19.6C195.7,252.3,195.7,252.3,195.7,252.4z"/>
	<path class="st0" d="M195.6,259.4l23.1-22.7c-0.9-0.2-1.3-0.2-1.3-0.2c0-0.1-0.1-0.1-0.1-0.2c-0.1-0.4-0.3-0.7-0.4-1
		c0-0.1,0-0.1-0.1-0.2l-21.3,21c0,0.4,0,0.8,0,1.3C195.5,258,195.5,258.7,195.6,259.4z"/>
	<path class="st0" d="M294.8,399.1c0.4,0.2,0.9,0.5,1.3,0.7c0.3,0.2,0.7,0.4,1,0.6l-23.6-47.2l-39.8-5.6c0.1,0.2,0.1,0.3,0.2,0.5
		c0.1,0.3,0.2,0.6,0.3,0.9c0.1,0.3,0.2,0.6,0.3,1c0.1,0.3,0.2,0.7,0.3,1c0.1,0.2,0.1,0.3,0.2,0.5l36.7,5.2l20.6,41.2
		c0.4,0.2,0.7,0.4,1.1,0.6C294,398.6,294.4,398.9,294.8,399.1z"/>
	<path class="st0" d="M183.9,268.9l1,1.1l2.7-2.7c0-0.1,0-0.2,0-0.3c0,0,0-0.1-0.1-0.2c-0.2-0.3-0.5-0.9-0.9-1.5
		c-0.1-0.1-0.1-0.2-0.2-0.2l-3.2,3.1l0.5,0.6L183.9,268.9z"/>
	<path class="st0" d="M233.6,224.1L233.6,224.1c0.1-0.1,0.1-0.2,0.2-0.2l-2.9-16.5l-0.1,0.1l0-0.1l-1.6-2.2l-0.9-1.3
		c0.2,0.3,0.6,2,1,4.3c0.6,3.1,1.3,7.3,1.9,11c0.1,0.5,0.2,1,0.2,1.5c0.1,0.5,0.2,1,0.2,1.5c0.1,0.5,0.2,1,0.2,1.4
		c0.1,0.5,0.1,1,0.2,1.4c0.1,0.5,0.1,1,0.2,1.4c0,0.1,0,0.2,0,0.3l1.4-1.3L233.6,224.1z"/>
	<path class="st0" d="M184.9,270l1,1.3c0.1,0.2,0.3,0.3,0.4,0.5l1.8-1.8c-0.2-0.5-0.3-1-0.4-1.5c-0.1-0.4-0.1-0.8-0.2-1.3L184.9,270
		L184.9,270z"/>
	<path class="st0" d="M195.9,262.5l25.5-25.1c-1.1-0.4-2-0.6-2.7-0.7l-23.1,22.7c0,0.1,0,0.3,0,0.4
		C195.7,260.6,195.8,261.5,195.9,262.5z"/>
	<path class="st0" d="M298.8,401.3c0.5,0.2,1,0.5,1.4,0.7c0.4,0.2,0.9,0.4,1.3,0.7l-26.4-52.8l-42.7-6c0,0,0,0,0,0
		c0.1,0.3,0.2,0.5,0.3,0.8c0.1,0.3,0.2,0.5,0.3,0.8c0.1,0.3,0.2,0.6,0.3,0.8c0.1,0.3,0.2,0.6,0.3,0.9c0,0.1,0.1,0.3,0.1,0.4
		l39.8,5.6l23.6,47.2c0.1,0.1,0.2,0.1,0.3,0.2C297.9,400.8,298.4,401,298.8,401.3z"/>
	<path class="st0" d="M187.8,273.7l1.4-1.4c-0.1-0.2-0.3-0.4-0.4-0.7c-0.2-0.5-0.5-1-0.7-1.5c0,0,0-0.1,0-0.1l-1.8,1.8
		c0.2,0.2,0.4,0.5,0.6,0.8C187.2,273,187.5,273.3,187.8,273.7z"/>
	<path class="st0" d="M234.1,218.7c-0.4-0.5-0.7-0.8-0.7-0.8c0.3-0.1,0.5-0.3,0.6-0.5c0.5-0.6,0.3-1.6-0.1-2.4
		c-0.4-0.9-1.1-1.7-1.1-1.7c1.1-1.2,0.1-2.4-0.6-3c-0.3-0.3-0.6-0.4-0.6-0.4c0.3-0.6,0.4-1.6,0.5-2.4c0-0.5,0-0.8,0-0.8l-0.1,0
		l-1.3,0.6l2.9,16.5C235.9,221.8,234.9,219.7,234.1,218.7z"/>
	<path class="st0" d="M196.2,264.1c0.1,0.4,0.1,0.8,0.2,1.2l27.5-27c-0.9-0.4-1.7-0.6-2.5-0.9l-25.5,25.1c0,0,0,0.1,0,0.1
		C196,263.1,196.1,263.6,196.2,264.1z"/>
	<path class="st0" d="M303.3,403.5c0.5,0.3,1.1,0.5,1.6,0.7c0.3,0.1,0.6,0.2,0.8,0.4l-28.9-58l-45.6-6.4c0.1,0.2,0.2,0.5,0.3,0.7
		c0.1,0.2,0.2,0.5,0.2,0.7c0.1,0.2,0.2,0.5,0.3,0.7c0.1,0.2,0.2,0.5,0.3,0.7c0.1,0.2,0.2,0.5,0.3,0.7l42.7,6l26.4,52.8
		c0.1,0,0.1,0.1,0.2,0.1C302.3,403,302.8,403.2,303.3,403.5z"/>
	<path class="st0" d="M232.4,228c-0.6-0.1-1-0.1-1.2,0c-0.3,0.1-0.4,0.4-0.4,0.7c0,0.4,0.3,0.8,0.6,1.3c0.1,0.2,0.2,0.4,0.4,0.5
		l1.9-1.9l-0.1,0l0-0.6l0-1.3l0-1.3l0,0l-1.4,1.3c0.1,0.5,0.1,0.8,0.2,1C232.4,227.9,232.4,228,232.4,228z"/>
	<path class="st0" d="M232.3,231.4c0.3,0.4,0.6,0.7,0.8,1l3.1-3l-0.2-0.3l-2.4-0.4l-1.9,1.9C231.9,230.8,232.1,231.1,232.3,231.4z"
		/>
	<path class="st0" d="M196.9,267.4c0,0.2,0.1,0.3,0.1,0.5l29.1-28.7c-0.3-0.1-0.6-0.2-0.8-0.4c-0.5-0.2-1-0.4-1.4-0.6l-27.5,27
		c0,0.2,0.1,0.3,0.1,0.5C196.6,266.3,196.7,266.9,196.9,267.4z"/>
	<path class="st0" d="M305.7,404.5c0.3,0.1,0.6,0.2,0.8,0.3c0.6,0.2,1.2,0.4,1.7,0.6c0.4,0.1,0.8,0.3,1.2,0.4l-31.2-62.5l-51.4-7.2
		c0.1,0.1,0.1,0.1,0.2,0.2c0.3,0.2,0.5,0.5,0.7,0.7c0.3,0.2,0.5,0.4,0.7,0.6c0.3,0.2,0.5,0.4,0.8,0.5c0.3,0.2,0.6,0.2,0.9,0.2
		c0.1,0,0.2-0.1,0.3-0.1c0,0,0.1,0.3,0.3,0.9c0.1,0.3,0.2,0.6,0.4,1l45.6,6.4L305.7,404.5z"/>
	<path class="st0" d="M188.9,275.1c0.1,0.1,0.2,0.3,0.3,0.4l1.3-1.3c-0.3-0.4-0.6-0.8-0.9-1.2c-0.1-0.2-0.3-0.4-0.4-0.7l-1.4,1.4
		c0,0.1,0.1,0.1,0.1,0.2C188.3,274.3,188.6,274.6,188.9,275.1z"/>
	<path class="st0" d="M233.7,233c0.5,0.2,0.9,0.4,1.3,0.6l2.3-2.3l-0.7-1.2l0-0.1l-0.4-0.6l-3.1,3c0.1,0.2,0.3,0.3,0.4,0.4
		C233.6,232.9,233.7,233,233.7,233z"/>
	<path class="st0" d="M312.1,406.4c0.2,0,0.5,0,0.7,0l-33-66l-56.1-7.9c0.2,0.2,0.3,0.4,0.5,0.6c0.3,0.3,0.5,0.6,0.8,0.9
		c0.3,0.3,0.5,0.6,0.8,0.9c0.3,0.3,0.5,0.6,0.7,0.8c0.2,0.2,0.4,0.4,0.5,0.6l51.4,7.2l31.2,62.5c0.2,0.1,0.4,0.1,0.6,0.2
		C310.9,406.3,311.5,406.4,312.1,406.4z"/>
	<path class="st0" d="M190.8,277.1l1.3-1.3c-0.2-0.2-0.3-0.3-0.5-0.5c-0.3-0.4-0.7-0.7-1-1.1c0,0,0,0,0,0l-1.3,1.3
		c0.2,0.2,0.4,0.5,0.7,0.7C190.2,276.5,190.5,276.8,190.8,277.1z"/>
	<path class="st0" d="M197.6,270.3l30.6-30.1c-0.7-0.4-1.4-0.7-2.1-1L197,267.9c0.1,0.4,0.2,0.7,0.3,1.1
		C197.4,269.4,197.5,269.9,197.6,270.3z"/>
	<path class="st0" d="M314.5,405.5l0.1-0.2l0.1-0.4c0,0,0.1,0,0.2,0l-33.7-67.5l-55-7.7c0.1,0.1,0.2,0.3,0.2,0.4l-0.2,0.5
		c-0.3-0.2-0.5-0.4-0.9-0.7c-0.1-0.1-0.3-0.3-0.4-0.4l-4.1-0.6c0.3,0.3,0.5,0.7,0.8,1.1c0.3,0.3,0.5,0.7,0.8,1.1
		c0.3,0.3,0.5,0.7,0.8,1c0.1,0.1,0.2,0.3,0.3,0.4l56.1,7.9l33,66C313.7,406.4,314.3,406.1,314.5,405.5z"/>
	<path class="st0" d="M198.1,271.9c0.1,0.2,0.2,0.5,0.2,0.7l31.9-31.4c-0.5-0.3-1.1-0.6-1.6-0.9c-0.1-0.1-0.3-0.1-0.4-0.2
		l-30.6,30.1c0,0,0,0.1,0,0.1C197.8,270.9,197.9,271.4,198.1,271.9z"/>
	<path class="st0" d="M192,278.3c0.1,0.1,0.2,0.2,0.3,0.3l1.4-1.4c-0.3-0.3-0.7-0.5-1-0.9c-0.2-0.2-0.4-0.4-0.6-0.6l-1.3,1.3
		c0.1,0.1,0.1,0.1,0.2,0.2C191.3,277.6,191.6,278,192,278.3z"/>
	<path class="st0" d="M236.5,234.5c0.1,0.1,0.2,0.2,0.3,0.3l1.8-1.7c-0.1-0.1-0.2-0.2-0.3-0.4c-0.4-0.6-0.7-1-0.7-1l-0.2-0.4l0-0.1
		l-2.3,2.3C235.5,233.8,236,234.1,236.5,234.5z"/>
	<path class="st0" d="M193.8,280l1.6-1.6c-0.1-0.1-0.2-0.2-0.4-0.2c-0.4-0.2-0.8-0.5-1.2-0.9c0,0-0.1-0.1-0.1-0.1l-1.4,1.4
		c0.2,0.2,0.5,0.5,0.7,0.7C193.3,279.5,193.5,279.8,193.8,280z"/>
	<path class="st0" d="M199,274.6c0,0.1,0.1,0.2,0.1,0.2l33-32.5c-0.3-0.2-0.6-0.4-0.9-0.6c-0.3-0.2-0.6-0.4-0.9-0.5l-31.9,31.4
		c0.1,0.2,0.1,0.4,0.2,0.6C198.7,273.7,198.8,274.1,199,274.6z"/>
	<path class="st0" d="M223.7,328.2c-0.3-0.3-0.6-0.6-0.9-0.9c-0.3-0.3-0.6-0.7-0.9-1c-0.1-0.1-0.2-0.2-0.3-0.4l-3.5-0.5
		c0.3,0.2,0.5,0.5,0.8,0.7c0,0,0.1,0.1,0.2,0.3c0.2,0.3,0.5,0.7,0.9,1.2c0.3,0.3,0.5,0.7,0.9,1.2c0,0,0,0,0,0.1l4.1,0.6
		c-0.1-0.1-0.3-0.3-0.4-0.4C224.3,328.8,224,328.5,223.7,328.2z"/>
	<path class="st0" d="M317.7,404.7l-35-70.1l-58.3-8.2c0,0,0.1,0.1,0.1,0.1c0.3,0.4,0.5,0.8,0.7,1.2c0.3,0.4,0.5,0.8,0.7,1.2
		c0.2,0.3,0.3,0.5,0.5,0.8l55,7.7l33.7,67.5c0.4,0,1.1,0.1,2-0.1C317.2,404.8,317.4,404.8,317.7,404.7z"/>
	<path class="st0" d="M238.3,236.2l1.5-1.4c-0.2-0.3-0.3-0.5-0.5-0.8c-0.2-0.4-0.5-0.7-0.7-1l-1.8,1.7c0.4,0.4,0.9,0.7,1.2,1.1
		C238.2,236,238.3,236.1,238.3,236.2z"/>
	<path class="st0" d="M239.6,237.8l1.3-1.3c-0.3-0.4-0.5-0.8-0.8-1.2c-0.1-0.2-0.2-0.4-0.3-0.5l-1.5,1.4c0.3,0.3,0.5,0.6,0.8,1
		C239.3,237.4,239.4,237.6,239.6,237.8z"/>
	<path class="st0" d="M319.6,403.6c0.1-0.1,0.1-0.1,0.2-0.2L284,331.8l-61.5-8.7c0.1,0.3,0.3,0.5,0.4,0.8c0.3,0.5,0.5,0.9,0.8,1.3
		c0.2,0.4,0.4,0.8,0.7,1.1l58.3,8.2l35,70.1C318.3,404.5,319,404.1,319.6,403.6z"/>
	<path class="st0" d="M220.8,325c-0.3-0.1-0.5-0.3-0.8-0.5c-0.3-0.2-0.7-0.6-1-0.9c-0.3-0.3-0.7-0.7-1-1.1c0,0,0,0,0,0l-2.9-0.4
		c0,0,0,0,0,0.1c0.3,0.4,0.7,0.8,1.1,1.2c0.3,0.4,0.7,0.7,1.1,1.1c0.3,0.3,0.7,0.7,1.1,1c0,0,0,0,0,0l3.5,0.5
		c-0.2-0.3-0.5-0.5-0.6-0.7C220.9,325.1,220.8,325,220.8,325z"/>
	<path class="st0" d="M195.1,281c0.1,0.1,0.2,0.1,0.3,0.2l3.9-3.8l-1.4,0.7l-1.6,0.9c-0.2-0.1-0.5-0.3-0.9-0.6l-1.6,1.6
		c0.1,0.1,0.1,0.1,0.2,0.2C194.4,280.5,194.7,280.8,195.1,281z"/>
	<path class="st0" d="M199.4,275.9c0.1,0.3,0.3,0.7,0.4,1l34-33.4c-0.2-0.1-0.4-0.3-0.6-0.4c-0.4-0.2-0.8-0.5-1.1-0.7l-33,32.5
		C199.2,275.2,199.3,275.5,199.4,275.9z"/>
	<path class="st0" d="M215.8,320c-0.2-0.3-0.4-0.5-0.6-0.8l-2.6-0.4c0.1,0.1,0.2,0.2,0.2,0.4c0.3,0.5,0.7,1,1,1.5
		c0.3,0.4,0.6,0.9,1,1.3l2.9,0.4c-0.3-0.4-0.7-0.8-1-1.2C216.5,320.9,216.2,320.5,215.8,320z"/>
	<path class="st0" d="M240.6,239.4C240.6,239.5,240.6,239.5,240.6,239.4l1.4-1.2c-0.1-0.2-0.2-0.3-0.3-0.5c-0.2-0.4-0.5-0.8-0.7-1.2
		c0,0,0,0,0,0l-1.3,1.3c0.1,0.2,0.2,0.4,0.3,0.5C240.1,238.7,240.4,239.1,240.6,239.4z"/>
	<path class="st0" d="M199.3,277.4l-3.9,3.8c0.3,0.2,0.6,0.4,0.8,0.6c0.3,0.2,0.6,0.3,0.9,0.5l38.4-37.7c-0.2-0.1-0.3-0.2-0.5-0.3
		c-0.4-0.3-0.8-0.5-1.2-0.8l-34,33.4c0,0.1,0.1,0.1,0.1,0.2L199.3,277.4z"/>
	<path class="st0" d="M285.4,329.1l-64.7-9.1c0.2,0.4,0.4,0.8,0.6,1.1c0.3,0.5,0.5,0.9,0.8,1.4c0.1,0.2,0.2,0.4,0.3,0.6l61.5,8.7
		l35.8,71.6c0.6-0.6,1.1-1.3,1.5-2.3L285.4,329.1z"/>
	<path class="st0" d="M213,316.1l-2-0.3c0.2,0.4,0.4,0.8,0.6,1.3c0.3,0.5,0.6,1.1,1,1.8l2.6,0.4c-0.1-0.2-0.3-0.4-0.4-0.6
		C214.1,317.7,213.5,316.8,213,316.1z"/>
	<path class="st0" d="M323,400.4c0.1,0,0.2,0,0.4-0.1c0,0,0.1,0,0.1,0l-36.8-73.8L219,317c0.2,0.4,0.5,0.8,0.7,1.2
		c0.3,0.5,0.6,1,0.9,1.5c0.1,0.1,0.1,0.2,0.2,0.3l64.7,9.1l36,72.1c0.1-0.2,0.2-0.4,0.2-0.6C322.1,400.5,322.6,400.5,323,400.4z"/>
	<path class="st0" d="M241.5,241.3l1.4-1.4c-0.2-0.4-0.4-0.7-0.6-1.1c-0.1-0.2-0.3-0.4-0.4-0.6l-1.3,1.3c0.2,0.3,0.3,0.7,0.5,1
		C241.2,240.8,241.3,241,241.5,241.3z"/>
	<path class="st0" d="M199,283l0.1,0l37.9-37.3c-0.2-0.1-0.3-0.2-0.5-0.4c-0.4-0.3-0.7-0.5-1.1-0.8l-38.4,37.7
		c0.1,0.1,0.3,0.1,0.4,0.2C198,282.7,198.5,282.9,199,283z"/>
	<path class="st0" d="M241.9,242.5c0.1,0.3,0.2,0.5,0.3,0.8l1.6-1.6c-0.1-0.2-0.2-0.4-0.3-0.6c-0.2-0.4-0.4-0.7-0.5-1.1c0,0,0,0,0,0
		l-1.4,1.4c0,0.1,0.1,0.1,0.1,0.2C241.7,241.8,241.8,242.1,241.9,242.5z"/>
	<path class="st0" d="M238.8,246.6l-0.8-0.2c-0.3-0.2-0.6-0.5-0.9-0.7L199.1,283l3.1-0.5L238.8,246.6z"/>
	<path class="st0" d="M212.9,315.9c-0.5-0.8-0.9-1.3-1-1.5c0,0,0-0.1,0-0.1c0.4-0.1,0.8-0.4,1.3-0.9l-3.9-0.6c0.2,0.4,0.5,0.8,1,1.1
		c0,0,0,0.1,0.1,0.2c0.1,0.2,0.3,0.8,0.6,1.5c0,0.1,0.1,0.2,0.1,0.2l2,0.3C213,316,212.9,315.9,212.9,315.9z"/>
	<path class="st0" d="M325.5,399.3l-37.6-75.3l-70.6-9.9c0.4,0.8,0.9,1.7,1.5,2.6c0.1,0.1,0.1,0.2,0.2,0.3l67.7,9.5l36.8,73.8
		C324.3,400,325,399.7,325.5,399.3z"/>
	<path class="st0" d="M214.4,312.1l2,0.3c0.2,0.4,0.5,0.9,0.8,1.4c0,0.1,0.1,0.2,0.1,0.2l70.6,9.9l37.6,75.3
		c0.1-0.1,0.2-0.2,0.3-0.3c0.5-0.5,0.9-1,1.2-1.6l-37.9-76L209,310.2c-0.1,0.4-0.1,0.8-0.1,1.1c0,0.5,0.1,0.9,0.2,1.3
		c0,0.1,0.1,0.2,0.1,0.2l3.9,0.6c0.1-0.1,0.1-0.1,0.2-0.2C213.7,312.9,214.1,312.5,214.4,312.1z"/>
	<path class="st0" d="M202.8,283.5c0.1,0.2,0.2,0.4,0.3,0.6l41.5-40.8c0-0.1-0.1-0.2-0.1-0.4c-0.1-0.3-0.3-0.7-0.4-1
		c-0.1-0.1-0.1-0.3-0.2-0.4l-1.6,1.6c0,0.1,0,0.1,0.1,0.2c0.1,0.3,0.2,0.6,0.3,0.9c0.1,0.5,0.2,0.8,0.2,0.9c0,0,0,0,0,0l-0.8,0.6
		l-0.8,0.6l-0.8,0.6l-1.6-0.3l-36.6,36l0.1,0C202.5,282.8,202.6,283.2,202.8,283.5z"/>
	<path class="st0" d="M203.7,285.3c0.1,0.1,0.1,0.3,0.2,0.4l41.3-40.6c0-0.1-0.1-0.2-0.1-0.3c-0.1-0.3-0.2-0.6-0.3-0.9
		c-0.1-0.2-0.2-0.4-0.2-0.6l-41.5,40.8c0.1,0.1,0.1,0.2,0.2,0.3C203.4,284.7,203.6,285,203.7,285.3z"/>
	<path class="st0" d="M327.7,395.3c0.2,0,0.4,0.1,0.6,0l-38.1-76.2l-80.4-11.3c0,0,0,0,0,0c-0.2,0.4-0.3,0.7-0.5,1.1
		c-0.1,0.4-0.3,0.8-0.4,1.2c0,0,0,0.1,0,0.1l80.1,11.3l37.9,76c0.1-0.1,0.1-0.2,0.2-0.4C327.7,396.1,327.7,395.3,327.7,395.3z"/>
	<path class="st0" d="M329.8,393.7l-38.4-77l-80.2-11.3c-0.1,0.1-0.1,0.2-0.2,0.2c-0.2,0.3-0.4,0.7-0.6,1c-0.2,0.3-0.4,0.7-0.5,1
		l80.4,11.3l38.1,76.2c0.1,0,0.2,0,0.2,0C329.1,395.1,329.5,394.6,329.8,393.7z"/>
	<path class="st0" d="M204.2,286.2c0.1,0.1,0.1,0.2,0.2,0.3c0,0,0.4-0.4,1.1-1c1.3-1.2,3.5-3,4.4-3.2l35.8-35.2c0-0.2,0-0.4-0.1-0.6
		c-0.1-0.3-0.1-0.5-0.2-0.8c0-0.2-0.1-0.4-0.2-0.5l-41.3,40.6C204,285.9,204.1,286,204.2,286.2z"/>
	<path class="st0" d="M330.2,391.2c0-0.3,0-0.7,0-1l-37.8-75.6l-81.4-11.4c0.2,0.2,0.3,0.5,0.5,0.6c0.2,0.2,0.3,0.3,0.5,0.4
		c0,0-0.2,0.2-0.5,0.6c-0.1,0.2-0.3,0.5-0.5,0.7l80.2,11.3l38.4,77c0-0.1,0.1-0.2,0.1-0.3C330.1,392.8,330.2,392.1,330.2,391.2z"/>
	<path class="st0" d="M210.1,282.3c0,0,0.6,0,1.2,0.2c0.2,0,0.3,0.1,0.5,0.2l33.7-33.2c0,0,0,0,0,0c0.1-0.2,0.1-0.4,0.1-0.7
		c0-0.2,0-0.5,0-0.7c0-0.2,0-0.5,0-0.7c0-0.1,0-0.2,0-0.2l-35.8,35.2C209.9,282.3,210,282.3,210.1,282.3z"/>
	<path class="st0" d="M212.3,284c-0.2,0.4-0.8,1-1.7,1.7c0,0-1.7,0.7-3.1,1.9c-0.6,0.5-1.1,1.1-1.4,1.7c-0.2,0.4-0.3,0.7-0.3,1.1
		c0,0.1,0,0.2,0,0.3l39.1-38.5c-0.2-0.2-0.4-0.4-0.6-0.5l-0.1-0.6c0.2-0.1,0.5-0.3,0.6-0.5c0.2-0.2,0.3-0.4,0.4-0.6
		c0.1-0.2,0.2-0.4,0.2-0.6l-33.7,33.2c0.2,0.1,0.4,0.2,0.5,0.4C212.5,283.2,212.6,283.6,212.3,284z"/>
	<path class="st0" d="M330.2,390.2c0-0.5,0-0.9,0-1.5c0-0.8-0.1-1.6-0.2-2.5c0-0.3-0.1-0.7-0.1-1l-36.4-72.8l-83.9-11.8
		c0.2,0.3,0.3,0.7,0.5,1c0.2,0.4,0.4,0.7,0.6,1.1c0.1,0.2,0.2,0.3,0.3,0.5l81.4,11.4L330.2,390.2z"/>
	<path class="st0" d="M329.4,381.2c-0.1-0.7-0.2-1.4-0.4-2.1l-34.4-68.9l-86-12.1c0.1,0.1,0.1,0.3,0.2,0.4c0.1,0.3,0.3,0.6,0.4,1
		c0.2,0.3,0.3,0.7,0.5,1c0,0,0,0,0,0.1l83.9,11.8l36.4,72.8c-0.1-0.5-0.1-1-0.2-1.5C329.6,382.9,329.5,382.1,329.4,381.2z"/>
	<path class="st0" d="M206.2,292.1c0,0.1,0.1,0.1,0.1,0.2c0,0,0,0,0,0.1l39.7-39c0,0-0.1-0.1-0.1-0.1c-0.3-0.3-0.5-0.5-0.8-0.7
		c-0.1-0.1-0.2-0.2-0.2-0.2l-39.1,38.5c0,0.2,0,0.4,0.1,0.6C205.9,291.6,206,291.8,206.2,292.1z"/>
	<path class="st0" d="M328.5,376.4c-0.2-0.8-0.3-1.6-0.5-2.4c-0.1-0.6-0.3-1.2-0.4-1.7l-32-64.1l-88-12.4c0,0,0,0,0,0.1
		c0.1,0.3,0.2,0.6,0.3,0.9c0.1,0.3,0.2,0.6,0.4,0.9c0.1,0.2,0.1,0.3,0.2,0.5l86,12.1l34.4,68.9c0-0.1,0-0.2-0.1-0.3
		C328.8,378,328.6,377.2,328.5,376.4z"/>
	<path class="st0" d="M206.7,293.4c0.1,0.1,0.1,0.3,0.2,0.5l34.7-34.1c0-0.3,0.1-0.5,0.1-0.6c0-0.1,0-0.1,0-0.1c0-0.1,0-0.3,0.2-0.4
		c0.1-0.1,0.2-0.2,0.3-0.4c0.1-0.1,0.2-0.2,0.4-0.3c0.1-0.1,0.2-0.2,0.4-0.3c0.1-0.1,0.2-0.2,0.4-0.3c0.1-0.1,0.2-0.2,0.4-0.3
		c0.1-0.1,0.2-0.1,0.3-0.2c0.2-0.1,0.3-0.2,0.5-0.3c0.2-0.1,0.4-0.2,0.5-0.3c0.1-0.1,0.2-0.1,0.3-0.2l1.7-1.7
		c-0.1-0.1-0.3-0.3-0.4-0.4c-0.2-0.2-0.4-0.4-0.6-0.6l-39.7,39C206.4,292.5,206.5,292.9,206.7,293.4z"/>
	<path class="st0" d="M246.3,255.5c0.2-0.1,0.5-0.3,0.6-0.4c0.3-0.2,0.5-0.3,0.5-0.3c0,0-0.1-0.1-0.1-0.1c-0.1-0.1-0.2-0.2-0.3-0.3
		l-1.7,1.7c0.1-0.1,0.2-0.1,0.3-0.2C245.9,255.7,246.1,255.6,246.3,255.5z"/>
	<path class="st0" d="M207.3,295c0.1,0.2,0.2,0.5,0.3,0.8l88,12.4l32,64.1c0-0.2-0.1-0.4-0.1-0.6c-0.2-0.8-0.4-1.6-0.5-2.3
		c-0.2-0.8-0.4-1.6-0.5-2.2c-0.3-1.1-0.5-1.8-0.5-2.2c0-0.1,0-0.2,0-0.2c0-0.1-0.1-0.3-0.1-0.4l-29.1-58.4l-87.6-12.3l32.9-32.4
		c-0.2-0.2-0.3-0.6-0.3-0.9c0-0.3,0-0.5,0-0.8c0,0,0,0,0,0l-34.7,34.1c0,0.1,0.1,0.2,0.1,0.3C207.1,294.5,207.2,294.7,207.3,295z"/>
	<path class="st0" d="M324.4,360.7c-0.3-0.7-0.5-1.4-0.8-2.1c-0.3-0.7-0.5-1.4-0.8-2.1c-0.3-0.7-0.5-1.4-0.8-2.1
		c-0.3-0.7-0.6-1.4-0.8-2c-0.3-0.7-0.6-1.3-0.9-2c-0.3-0.7-0.6-1.3-0.9-2c-0.3-0.6-0.6-1.2-0.8-1.9l-6.1-12.3c0-0.1-0.1-0.2-0.1-0.2
		c-0.3-0.5-0.6-1.1-0.9-1.6c-0.3-0.5-0.6-1.1-0.9-1.6c-0.3-0.5-0.6-1.1-0.9-1.6c-0.3-0.5-0.6-1-0.9-1.5c-0.3-0.5-0.6-1-0.9-1.5
		c-0.3-0.5-0.6-1-0.9-1.5c-0.3-0.5-0.6-1-0.9-1.4l0.1,0.1c0.1-0.2,0.2-0.4,0.2-0.8c0-0.1,0-0.2,0-0.2l-9-18.1l-85-12l32.2-31.7
		c-0.1,0.1-0.2,0.1-0.2,0.2c-0.1,0.1-0.3,0.2-0.4,0.3c-0.2,0.1-0.3,0.2-0.5,0.3c-0.2,0.1-0.4,0.2-0.5,0.2c-0.2,0.1-0.4,0.1-0.6,0.2
		c-0.3,0-0.5-0.1-0.7-0.2l-32.9,32.4l87.6,12.3l29.1,58.4c-0.2-0.5-0.4-1.1-0.5-1.6C324.9,362.2,324.7,361.5,324.4,360.7z"/>
	<path class="st0" d="M246.2,259.2c-0.1,0.1-0.2,0.2-0.3,0.3c-0.1,0.1-0.2,0.2-0.3,0.3c-0.1,0.1-0.2,0.2-0.3,0.3
		c-0.1,0.1-0.2,0.3-0.3,0.3l1.6-1.6C246.4,259,246.3,259.1,246.2,259.2z"/>
	<path class="st0" d="M297.5,304.3l9,18.1c0-0.2,0-0.4-0.1-0.7c0-0.3-0.1-0.6-0.2-0.9c-0.1-0.3-0.2-0.6-0.3-1
		c-0.1-0.3-0.2-0.6-0.3-1c-0.1-0.3-0.2-0.6-0.3-1c-0.1-0.3-0.2-0.6-0.3-0.9c-0.1-0.3-0.2-0.6-0.4-0.9c-0.1-0.3-0.2-0.6-0.4-0.9
		c-0.1-0.3-0.2-0.6-0.4-0.9c-0.1-0.3-0.2-0.6-0.4-0.9c-0.1-0.3-0.3-0.6-0.4-0.9c-0.1-0.3-0.3-0.6-0.4-0.8c-0.2-0.3-0.3-0.6-0.4-0.8
		c-0.1-0.2-0.1-0.3-0.1-0.3s0,0,0.1,0l-4-8.1L216,290.8l34.1-33.6c-0.1,0-0.2,0-0.3,0c-0.3,0-0.7,0.1-1,0.2
		c-0.2,0.1-0.5,0.2-0.7,0.3c-0.2,0.1-0.4,0.2-0.5,0.3c-0.2,0.1-0.3,0.2-0.5,0.3c-0.2,0.2-0.4,0.3-0.6,0.5c0,0,0,0,0,0l-1.6,1.6
		c0,0,0,0,0,0c0,0.1-0.1,0.1-0.1,0.1c0,0,0,0-0.1,0l-32.2,31.7L297.5,304.3z"/>
	<path class="st0" d="M317.7,344.6c-0.3-0.6-0.6-1.2-0.9-1.9c-0.3-0.6-0.6-1.2-0.9-1.8c-0.3-0.6-0.6-1.2-0.9-1.8
		c-0.3-0.6-0.6-1.2-0.9-1.7c-0.3-0.6-0.6-1.1-0.9-1.7c-0.3-0.5-0.5-1-0.8-1.4l6.1,12.3c0,0,0,0,0-0.1
		C318.3,345.9,318,345.2,317.7,344.6z"/>
	<path class="st0" d="M303.6,310.4c0.2,0,0.4,0,0.6,0l-3.1-6.3c-1.1-0.8-2.3-1.7-3.4-2.5c-0.7-0.5-1.3-1-2-1.5l-76.3-10.7l32.2-31.7
		c0,0-0.1-0.1-0.1-0.1c-0.4-0.2-0.9-0.3-1.3-0.3L216,290.8l82.4,11.6l4,8.1c0.1,0,0.2,0,0.3,0C303,310.4,303.3,310.4,303.6,310.4z"
		/>
	<path class="st0" d="M305.1,310.3c0.2,0,0.5,0,0.7,0c0,0,0,0,0,0l-2.1-4.2c-0.8-0.6-1.6-1.1-2.4-1.8c-0.1-0.1-0.2-0.2-0.3-0.2
		l3.1,6.3c0.1,0,0.1,0,0.2,0C304.6,310.3,304.8,310.3,305.1,310.3z"/>
	<path class="st0" d="M295.6,300.1c-0.5-0.4-1-0.7-1.5-1.1c-0.6-0.4-1.1-0.8-1.7-1.2l-69.9-9.8l29.9-29.4c-0.1-0.1-0.2-0.1-0.2-0.1
		c0-0.1-0.1-0.1-0.1-0.1c-0.2-0.2-0.4-0.4-0.7-0.6l-32.2,31.7L295.6,300.1z"/>
	<path class="st0" d="M307.3,310.2c0.1,0,0.2,0,0.3,0l-1.1-2.2c-0.2-0.1-0.4-0.3-0.6-0.4c-0.6-0.5-1.3-0.9-2-1.5l2.1,4.2
		c0.2,0,0.5,0,0.7,0C306.8,310.2,307,310.2,307.3,310.2z"/>
	<path class="st0" d="M289.5,295.5l-63.8-9l27.7-27.3c-0.2-0.1-0.4-0.3-0.5-0.4c-0.2-0.2-0.4-0.3-0.5-0.4l-29.9,29.4l69.9,9.8
		c-0.6-0.4-1.1-0.8-1.5-1.1C290.3,296.1,289.8,295.7,289.5,295.5z"/>
	<path class="st0" d="M308,310.1c0.3,0,0.7,0,1,0c0.1,0,0.2,0,0.2,0l-0.3-0.5c-0.1-0.1-0.2-0.1-0.3-0.2c-0.2-0.1-0.3-0.2-0.5-0.4
		c-0.2-0.1-0.3-0.2-0.5-0.4c-0.4-0.3-0.8-0.5-1.2-0.8l1.1,2.2C307.7,310.1,307.8,310.1,308,310.1z"/>
	<path class="st0" d="M289.1,295.1c0.1-0.1,0.1-0.2,0.2-0.3c0-0.1,0.1-0.2,0.1-0.3c0-0.1,0-0.2,0-0.3c0-0.1,0-0.2-0.1-0.4
		c0,0,0-0.1,0-0.1l-60.4-8.5l25.6-25.2c-0.2-0.2-0.5-0.4-0.7-0.5c-0.1-0.1-0.2-0.1-0.3-0.2l-27.7,27.3l63.8,9
		C289.2,295.3,289,295.1,289.1,295.1C289.1,295.1,289.1,295.1,289.1,295.1z"/>
	<path class="st0" d="M310.2,310.3C310.2,310.3,310.2,310.3,310.2,310.3C310.3,310.3,310.2,310.3,310.2,310.3
		c-0.1-0.1-0.2-0.1-0.4-0.2C310,310.3,310.2,310.4,310.2,310.3z"/>
	<path class="st0" d="M289,293.1c0-0.1-0.1-0.3-0.1-0.4c-0.1-0.1-0.1-0.3-0.2-0.4c-0.1-0.1-0.1-0.3-0.2-0.4c0,0,0,0,0,0l-56.7-8
		l23.6-23.2c0,0-0.1-0.1-0.1-0.1c-0.2-0.2-0.5-0.4-0.7-0.6c0,0,0,0-0.1-0.1l-25.6,25.2l60.4,8.5c0-0.1,0-0.2-0.1-0.2
		C289.1,293.3,289.1,293.2,289,293.1z"/>
	<path class="st0" d="M309.7,310.2C309.8,310.2,309.8,310.2,309.7,310.2C309.8,310.2,309.8,310.1,309.7,310.2
		c-0.2-0.1-0.3-0.2-0.6-0.4c-0.1-0.1-0.2-0.1-0.3-0.2l0.3,0.5c0.1,0,0.1,0,0.2,0C309.5,310.1,309.6,310.2,309.7,310.2z"/>
	<path class="st0" d="M288.5,291.9c-0.1-0.1-0.1-0.2-0.2-0.3c-0.1-0.1-0.1-0.3-0.2-0.4c-0.1-0.1-0.1-0.3-0.2-0.4
		c-0.1-0.1-0.1-0.2-0.2-0.4c-0.1-0.1-0.1-0.2-0.2-0.3l-4.5-0.6l0,0.1c0,0,0,0.1,0,0.1c0,0-0.1-0.1-0.1-0.1c0,0,0-0.1-0.1-0.1
		l-48.2-6.8l21.6-21.2c-0.1-0.1-0.2-0.2-0.3-0.3c-0.2-0.2-0.4-0.3-0.5-0.4l-23.6,23.2L288.5,291.9z"/>
	<path class="st0" d="M282.5,289c-0.1-0.1-0.1-0.2-0.2-0.2c-0.1-0.1-0.1-0.2-0.2-0.2c-0.1-0.1-0.1-0.2-0.2-0.2
		c-0.1-0.1-0.1-0.2-0.2-0.3c-0.1-0.1-0.2-0.2-0.2-0.3c-0.1-0.1-0.1-0.1-0.2-0.2l-43.7-6.1l19.6-19.3c-0.2-0.2-0.4-0.3-0.5-0.5
		c-0.1-0.1-0.2-0.2-0.3-0.3l-21.6,21.2l48.2,6.8c0,0-0.1-0.1-0.1-0.2C282.7,289.2,282.6,289.1,282.5,289z"/>
	<path class="st0" d="M287.3,289.6c-0.1-0.1-0.1-0.2-0.2-0.4c-0.1-0.1-0.1-0.2-0.2-0.3c0-0.1-0.1-0.1-0.1-0.2c0-0.1-0.1-0.1-0.1-0.2
		c0-0.1-0.1-0.1-0.1-0.2c0,0,0-0.1-0.1-0.1l-4-0.6l0.5,1.7l4.5,0.6c0,0,0,0,0,0C287.5,289.9,287.4,289.8,287.3,289.6z"/>
	<path class="st0" d="M286.4,288.1c0-0.1-0.1-0.1-0.1-0.2c0,0-0.1-0.1-0.1-0.1c0,0-0.1-0.1-0.1-0.1c0,0-0.1-0.1-0.1-0.1
		c0,0-0.1-0.1-0.1-0.1c0,0-0.1-0.1-0.1-0.1c0,0-0.1-0.1-0.1-0.1c0,0-0.1-0.1-0.1-0.1c0,0-0.1-0.1-0.1-0.1c0,0,0-0.1-0.1-0.1
		c0,0,0-0.1-0.1-0.1c0,0,0-0.1-0.1-0.1l-3.6-0.5c0.1,0.2,0.2,0.3,0.3,0.5c0.1,0.2,0.2,0.5,0.3,0.7l0.2,0.5l4,0.6c0,0,0,0,0-0.1
		C286.4,288.2,286.4,288.1,286.4,288.1z"/>
	<path class="st0" d="M281.2,287.5C281.2,287.5,281.2,287.5,281.2,287.5l-0.1-0.3l-0.1,0.1c0,0-0.1-0.1-0.1-0.1c0,0-0.1-0.1-0.1-0.1
		c0,0-0.1-0.1-0.1-0.1c0,0-0.1-0.1-0.1-0.1c0,0-0.1-0.1-0.1-0.1c0,0-0.1-0.1-0.1-0.1c0,0-0.1-0.1-0.1-0.1c0,0,0-0.1-0.1-0.1
		c0,0,0-0.1-0.1-0.1c0,0,0,0-0.1-0.1c0,0,0,0-0.1-0.1c0,0,0,0-0.1-0.1c0,0,0,0-0.1-0.1c0,0,0,0-0.1-0.1c0,0,0,0-0.1-0.1
		c0,0,0,0-0.1-0.1c0,0,0,0-0.1-0.1c0,0,0,0-0.1-0.1c0,0,0,0-0.1-0.1c0,0,0,0-0.1-0.1c0,0,0,0,0,0l-39.4-5.5l17.7-17.4
		c-0.1-0.1-0.1-0.1-0.2-0.2c-0.2-0.2-0.4-0.3-0.6-0.5c0,0,0,0-0.1-0.1l-19.6,19.3L281.2,287.5z"/>
	<path class="st0" d="M285.3,286.4C285.3,286.4,285.2,286.4,285.3,286.4c-0.1-0.1-0.1-0.2-0.1-0.2c0,0,0-0.1-0.1-0.1
		c0,0,0-0.1-0.1-0.1c0,0,0-0.1-0.1-0.1c0,0,0-0.1-0.1-0.1c0,0,0-0.1-0.1-0.1c0,0,0-0.1-0.1-0.1c0,0,0-0.1-0.1-0.1c0,0,0,0-0.1-0.1
		c0,0,0,0,0-0.1c0,0,0,0,0-0.1c0,0,0,0,0-0.1c0,0,0,0,0-0.1c0,0,0,0,0-0.1c0,0,0,0,0-0.1c0,0,0,0,0-0.1c0,0,0,0,0-0.1c0,0,0,0,0-0.1
		c0,0-0.1-0.1-0.1-0.1l-3.4-0.5c0,0,0,0,0,0c0,0,0,0,0,0.1c0,0,0,0,0,0.1c0,0,0,0,0,0.1c0,0,0,0,0,0.1c0,0,0,0,0,0.1c0,0,0,0,0,0.1
		c0,0,0,0,0,0.1c0,0,0,0,0,0.1c0,0,0,0,0,0.1c0,0,0,0,0,0.1c0,0,0,0,0,0.1c0,0,0,0,0,0.1c0,0,0,0,0,0.1c0,0,0,0.1,0,0.1
		c0,0,0,0.1,0,0.1c0,0,0,0.1,0,0.1c0,0,0,0.1,0,0.1c0,0,0,0.1,0,0.1c0,0,0,0.1,0,0.1c0,0,0,0.1,0,0.1c0,0,0,0.1,0.1,0.1c0,0,0,0,0,0
		c0,0,0,0.1,0.1,0.1l3.6,0.5c0,0,0,0,0,0C285.3,286.5,285.3,286.5,285.3,286.4z"/>
	<path class="st0" d="M279.5,285.7C279.5,285.7,279.5,285.6,279.5,285.7C279.4,285.6,279.4,285.6,279.5,285.7
		c-0.1-0.1-0.1-0.1-0.1-0.1c0,0,0,0,0-0.1c0,0,0,0-0.1-0.1c0,0,0,0-0.1-0.1c0,0,0,0-0.1-0.1c0,0,0,0-0.1-0.1c0,0,0,0-0.1-0.1
		c0,0,0,0-0.1-0.1c0,0,0,0-0.1-0.1c0,0,0,0-0.1-0.1c0,0,0-0.1-0.1-0.1c0,0,0-0.1-0.1-0.1c0,0,0-0.1-0.1-0.1c0,0-0.1-0.1-0.1-0.1
		c0,0-0.1-0.1-0.1-0.1c0,0-0.1-0.1-0.1-0.1c0,0-0.1-0.1-0.1-0.1c0,0-0.1-0.1-0.1-0.1c0,0-0.1-0.1-0.1-0.1c0,0-0.1-0.1-0.1-0.1
		c0,0-0.1-0.1-0.1-0.1l-35.1-4.9l15.8-15.6c-0.1-0.1-0.3-0.2-0.4-0.4c-0.1-0.1-0.2-0.2-0.4-0.3l-17.7,17.4L279.5,285.7
		C279.6,285.7,279.6,285.7,279.5,285.7C279.5,285.7,279.5,285.7,279.5,285.7z"/>
	<path class="st0" d="M283,283.2l-3.2-0.4c0,0,0,0,0,0.1c0,0,0,0.1,0.1,0.1c0,0,0,0.1,0.1,0.1c0,0,0,0.1,0.1,0.1c0,0,0,0.1,0,0.1
		c0,0,0,0.1,0,0.1c0,0,0,0.1,0,0.1c0,0,0,0,0,0.1c0,0,0,0,0,0.1c0,0,0,0,0,0.1c0,0,0,0,0,0.1c0,0,0,0,0,0.1c0.1,0.2,0.2,0.4,0.4,0.6
		c0,0,0,0,0,0c0,0,0,0,0,0l3.4,0.5C283.8,284.3,283.4,283.7,283,283.2z"/>
	<path class="st0" d="M277.8,283.9c0,0-0.1-0.1-0.1-0.1c0,0-0.1-0.1-0.1-0.1l0-0.1l-0.2,0c0,0-0.1-0.1-0.1-0.1c0,0-0.1-0.1-0.1-0.1
		c0,0-0.1-0.1-0.1-0.1c0,0-0.1-0.1-0.1-0.1c0,0-0.1-0.1-0.1-0.1c0,0-0.1-0.1-0.1-0.1c0,0-0.1-0.1-0.1-0.1c0,0-0.1-0.1-0.1-0.1
		c0,0-0.1-0.1-0.1-0.1c0,0,0,0,0,0l-31-4.4l14-13.8c-0.1-0.1-0.1-0.1-0.2-0.2c-0.2-0.1-0.3-0.3-0.5-0.4c0,0-0.1-0.1-0.1-0.1
		l-15.8,15.6l35.1,4.9c0,0,0,0,0,0C277.9,284,277.9,283.9,277.8,283.9z"/>
	<path class="st0" d="M281.8,281.6l-2.7-0.4c0,0,0,0.1,0,0.1c0,0,0,0,0,0.1c0,0,0,0,0,0.1c0,0,0,0,0,0.1c0,0,0,0,0,0.1
		c0,0,0,0,0,0.1c0,0,0,0,0,0.1c0,0,0,0,0,0.1c0,0,0,0,0,0.1c0,0,0,0,0,0c0,0,0,0,0,0c0,0,0,0,0.1,0.1c0,0,0,0.1,0.1,0.1
		c0,0,0,0.1,0.1,0.1c0,0,0,0.1,0.1,0.1c0,0,0,0.1,0.1,0.1c0,0,0.1,0.1,0.1,0.1c0,0,0,0.1,0.1,0.1c0,0,0,0.1,0.1,0.1c0,0,0,0,0,0
		l3.2,0.4C282.6,282.6,282.2,282.1,281.8,281.6z"/>
	<path class="st0" d="M276.2,282.1c0,0-0.1-0.1-0.1-0.1c0,0-0.1-0.1-0.1-0.1c0,0-0.1-0.1-0.1-0.1c0,0-0.1-0.1-0.1-0.1
		c0,0-0.1-0.1-0.1-0.1c0,0-0.1-0.1-0.1-0.1c0,0,0,0,0,0c0,0,0,0-0.1-0.1c0,0,0,0-0.1-0.1c0,0,0,0-0.1-0.1c0,0,0,0-0.1-0.1
		c0,0,0,0-0.1-0.1c0,0,0,0-0.1-0.1c0,0,0-0.1-0.1-0.1c0,0,0-0.1-0.1-0.1c0,0-0.1-0.1-0.1-0.1c0,0-0.1-0.1-0.1-0.1
		c0,0-0.1-0.1-0.1-0.1c0,0,0,0-0.1-0.1l-26.9-3.8l12.2-12c0,0,0,0,0,0c-0.1-0.1-0.3-0.3-0.4-0.4c-0.1-0.1-0.2-0.2-0.3-0.3l-14,13.8
		l31,4.4c0,0,0,0-0.1-0.1C276.3,282.2,276.2,282.2,276.2,282.1z"/>
	<path class="st0" d="M280.8,280.1l-2.2-0.3c0,0,0,0,0,0c0,0,0,0.1,0,0.1c0,0,0,0.1,0,0.1c0,0,0,0,0,0.1c0,0,0,0,0,0.1
		c0,0,0,0,0,0.1c0,0,0,0,0,0.1c0,0,0,0,0,0.1c0,0,0,0,0,0.1c0,0,0,0,0,0.1c0,0,0,0,0,0.1c0,0,0,0,0,0.1c0,0,0,0,0,0.1
		c0.1,0.2,0.2,0.4,0.2,0.7l2.7,0.4c-0.5-0.7-0.9-1.1-0.9-1.1C280.9,280.4,280.9,280.2,280.8,280.1z"/>
	<path class="st0" d="M274.8,280.7C274.8,280.6,274.8,280.6,274.8,280.7c0,0-0.1-0.1-0.1-0.1c0,0-0.1-0.1-0.1-0.1
		c0,0-0.1-0.1-0.1-0.1c0,0-0.1-0.1-0.1-0.1c0,0-0.1-0.1-0.1-0.1c0,0-0.1-0.1-0.1-0.1c0,0-0.1-0.1-0.1-0.1c0,0-0.1-0.1-0.1-0.1
		c0,0-0.1-0.1-0.1-0.1c0,0-0.1-0.1-0.1-0.1c0,0-0.1-0.1-0.1-0.1c0,0-0.1-0.1-0.1-0.1c0,0-0.1-0.1-0.1-0.1c0,0-0.1-0.1-0.1-0.1
		c0,0,0,0,0,0l-23-3.2l10.4-10.3c-0.1-0.1-0.2-0.2-0.3-0.3c-0.1-0.1-0.2-0.2-0.3-0.4l-12.2,12L274.8,280.7z"/>
	<path class="st0" d="M273.1,278.8c0,0-0.1-0.1-0.1-0.1c0-0.1-0.1-0.1-0.1-0.2c0-0.1-0.1-0.1-0.1-0.2c-0.1-0.1-0.1-0.1-0.2-0.2
		c-0.1-0.1-0.1-0.1-0.2-0.2c-0.2-0.2-0.3-0.3-0.5-0.5l-19.3-2.7l8.7-8.5c-0.1-0.1-0.2-0.2-0.3-0.3c-0.1-0.1-0.2-0.2-0.3-0.4
		c0,0,0,0,0,0l-10.4,10.3l23,3.2c0,0-0.1-0.1-0.1-0.1C273.2,278.9,273.1,278.8,273.1,278.8z"/>
	<path class="st0" d="M280.9,279.6l-0.7-0.7c0-0.1-0.1-0.1-0.1-0.2l-2.4-0.3c0,0,0.1,0.1,0.1,0.1c0.1,0.2,0.2,0.3,0.3,0.5
		c0,0.1,0.1,0.1,0.1,0.2c0,0,0,0.1,0.1,0.1s0,0.1,0.1,0.1c0,0,0,0.1,0,0.1c0,0,0,0.1,0,0.1c0,0,0,0.1,0,0.1c0,0,0,0.1,0,0.1
		c0,0,0,0.1,0,0.1c0,0,0,0,0,0.1l2.2,0.3c-0.1-0.1-0.1-0.3-0.2-0.4L280.9,279.6z"/>
	<path class="st0" d="M279.3,277.2l-2.5-0.4c0,0,0,0,0,0c0.1,0.2,0.2,0.4,0.4,0.5c0.1,0.2,0.2,0.3,0.3,0.5c0.1,0.1,0.1,0.2,0.2,0.3
		l2.4,0.3C279.9,278.2,279.6,277.7,279.3,277.2z"/>
	<path class="st0" d="M254.9,273.8l6.9-6.8c0,0,0-0.1-0.1-0.1c-0.1-0.1-0.1-0.2-0.2-0.3c-0.1-0.1-0.1-0.2-0.2-0.3c0,0,0,0,0,0
		l-8.7,8.5l19.3,2.7c-0.5-0.5-1-1-1.4-1.5L254.9,273.8z"/>
	<path class="st0" d="M279.3,277.1C279.3,277.1,279.3,277.1,279.3,277.1c-0.1-0.1-0.1-0.1-0.1-0.1c0,0,0-0.1,0-0.1c0,0,0-0.1,0-0.1
		c0,0,0-0.1,0-0.1c0,0,0-0.1,0-0.1c0,0,0-0.1-0.1-0.1c0,0,0-0.1-0.1-0.1c0,0,0-0.1-0.1-0.1c0,0,0-0.1-0.1-0.1c0,0,0-0.1-0.1-0.1
		c0,0,0-0.1-0.1-0.1c0,0,0-0.1-0.1-0.1c0,0,0-0.1-0.1-0.1c0,0,0,0,0,0l-2.7-0.4l0.3,0.3c0.1,0.2,0.3,0.4,0.4,0.6
		c0.1,0.2,0.2,0.4,0.4,0.5l2.5,0.4C279.3,277.2,279.3,277.2,279.3,277.1C279.3,277.2,279.3,277.2,279.3,277.1z"/>
	<path class="st0" d="M257.1,272.9l5.8-5.7c0,0-0.1,0-0.1,0c-0.2,0.1-0.3,0.1-0.5,0.2c-0.3,0.1-0.4,0.2-0.4,0.2
		c0-0.1-0.1-0.2-0.1-0.3c0,0,0-0.1-0.1-0.2l-6.9,6.8l15.6,2.2c-0.5-0.5-1-1-1.4-1.5L257.1,272.9z"/>
	<path class="st0" d="M269.1,274.5c-0.6-0.6-1-1.1-1.3-1.4l-8.5-1.2l5.4-5.3c0,0-0.1,0-0.1,0c-0.2,0-0.4,0.1-0.6,0.2
		c-0.2,0.1-0.4,0.1-0.5,0.2c-0.2,0-0.3,0.1-0.4,0.1l-5.8,5.7L269.1,274.5z"/>
	<path class="st0" d="M278.4,275.7c0,0-0.1-0.1-0.1-0.1c0,0-0.1-0.1-0.1-0.1c0,0-0.1-0.1-0.1-0.1c0,0-0.1-0.1-0.1-0.1
		c0,0-0.1-0.1-0.1-0.1c0,0-0.1-0.1-0.1-0.1c0,0-0.1-0.1-0.1-0.1c0,0-0.1-0.1-0.1-0.1c0,0,0-0.1-0.1-0.1l-2.7-0.4c0,0,0,0,0,0
		c0,0,0.1,0.1,0.1,0.1c0,0,0.1,0.1,0.1,0.1c0,0,0.1,0.1,0.1,0.1c0,0,0.1,0.1,0.1,0.1c0,0,0.1,0.1,0.1,0.1c0,0,0.1,0.1,0.1,0.1
		c0,0,0.1,0.1,0.1,0.1c0,0,0.1,0.1,0.1,0.1c0,0,0.1,0.1,0.1,0.1c0,0,0.1,0.1,0.1,0.1l-0.1,0l0.1,0.1l2.7,0.4c0,0,0-0.1,0-0.1
		C278.4,275.7,278.4,275.7,278.4,275.7z"/>
	<path class="st0" d="M267.5,272.6c0.1,0,0.1-0.1,0.2-0.1c0.1,0,0.1-0.1,0.2-0.1c0.1,0,0.1-0.1,0.2-0.1c0.1,0,0.1-0.1,0.2-0.1
		c0.1,0,0.1-0.1,0.2-0.1c0.1,0,0.1-0.1,0.2-0.1c0,0,0,0,0,0l-7.4-1l4.7-4.6c-0.1,0-0.1,0-0.2,0c-0.2,0-0.5,0.1-0.7,0.1
		c-0.2,0-0.4,0.1-0.5,0.1l-5.4,5.3l8.5,1.2c-0.3-0.3-0.4-0.5-0.4-0.5S267.4,272.6,267.5,272.6z"/>
	<path class="st0" d="M277.4,274.3c0-0.1-0.1-0.1-0.1-0.2c0-0.1-0.1-0.1-0.1-0.2c0-0.1-0.1-0.1-0.1-0.2c0-0.1-0.1-0.1-0.1-0.2
		c0-0.1-0.1-0.1-0.1-0.2c-0.1-0.1-0.1-0.1-0.2-0.2c0,0,0,0,0,0l-2.7-0.4c0,0.1,0.1,0.1,0.1,0.2c0,0.1,0.1,0.1,0.1,0.2
		c0,0.1,0.1,0.1,0.1,0.2c0,0.1,0.1,0.1,0.1,0.2c0,0.1,0.1,0.1,0.1,0.2c0,0.1,0.1,0.1,0.1,0.2c0,0.1,0.1,0.1,0.1,0.2
		c0,0,0.1,0.1,0.1,0.1l2.7,0.4c0,0,0,0,0-0.1C277.5,274.4,277.4,274.3,277.4,274.3z"/>
	<path class="st0" d="M269,271.9c0.1,0,0.1,0,0.2-0.1c0.1,0,0.1,0,0.2-0.1c0.1,0,0.1-0.1,0.2-0.1c0.1,0,0.2-0.1,0.2-0.1
		c0.1,0,0.2-0.1,0.2-0.1c0.1,0,0.2-0.1,0.2-0.1c0.1,0,0.2-0.1,0.2-0.1c0,0,0,0,0.1,0l-7.2-1l4-3.9c-0.2,0-0.4,0-0.6,0
		c-0.2,0-0.5,0.1-0.7,0.1l-4.7,4.6l7.4,1c0,0,0.1,0,0.1-0.1C268.9,272,268.9,272,269,271.9z"/>
	<path class="st0" d="M276.4,273c-0.1-0.1-0.1-0.1-0.2-0.2c-0.1-0.1-0.1-0.1-0.2-0.2c-0.1-0.1-0.1-0.2-0.2-0.2
		c-0.1-0.1-0.1-0.2-0.2-0.2c-0.1-0.1-0.1-0.2-0.2-0.2c0,0,0,0,0,0l-2.6-0.4c0,0,0,0,0,0c0.1,0.1,0.1,0.1,0.2,0.2
		c0.1,0.1,0.1,0.1,0.2,0.2c0.1,0.1,0.1,0.1,0.2,0.2c0.1,0.1,0.1,0.1,0.2,0.2c0.1,0.1,0.1,0.1,0.2,0.2c0,0.1,0.1,0.1,0.2,0.2
		c0,0,0,0,0,0l2.7,0.4C276.5,273.1,276.4,273.1,276.4,273z"/>
	<path class="st0" d="M275,271.4c-0.1-0.1-0.2-0.2-0.3-0.3c-0.1-0.1-0.2-0.2-0.3-0.3c-0.1-0.1-0.2-0.2-0.3-0.3c0,0,0,0,0,0l-9-1.3
		l3.1-3.1c-0.2,0-0.4,0-0.5,0c-0.2,0-0.4,0-0.6,0l-4,3.9l7.2,1c0.1,0,0.1-0.1,0.2-0.1c0.1,0,0.2-0.1,0.2-0.1
		c0.1-0.1,0.2-0.1,0.2-0.2c0.1-0.1,0.1-0.1,0.2-0.2c0.1-0.1,0.1-0.1,0.2-0.2c0.1-0.1,0.1-0.1,0.2-0.2l0.2,0c0.1,0.1,0.1,0.2,0.2,0.3
		c0.1,0.1,0.1,0.2,0.2,0.3c0.1,0.1,0.1,0.2,0.2,0.2c0.1,0.1,0.1,0.2,0.2,0.2c0.1,0.1,0.1,0.1,0.2,0.2l2.6,0.4
		c-0.1-0.1-0.1-0.1-0.2-0.2C275.2,271.6,275.1,271.5,275,271.4z"/>
	<path class="st0" d="M274.2,270.6c-0.1-0.1-0.2-0.2-0.3-0.3c-0.1-0.1-0.2-0.2-0.3-0.3c-0.1-0.1-0.2-0.2-0.3-0.3
		c-0.1-0.1-0.3-0.2-0.4-0.3c0,0,0,0,0,0l-5.7-0.8l2.2-2.2c-0.3-0.1-0.6-0.1-0.9-0.1l-3.1,3.1L274.2,270.6z"/>
	<path class="st0" d="M272,268.6C271.9,268.5,271.9,268.5,272,268.6c-0.1-0.2-0.1-0.2-0.2-0.3c0-0.1-0.1-0.1-0.1-0.2l-2.8-0.4
		l1.1-1.1c-0.2-0.1-0.5-0.2-0.8-0.2l-2.2,2.2l5.7,0.8c-0.1-0.1-0.3-0.2-0.4-0.3C272.2,268.8,272.1,268.7,272,268.6z"/>
	<path class="st0" d="M271.7,268.1c0,0,0-0.1,0-0.1c-0.1-0.1-0.1-0.2-0.2-0.3c-0.1-0.1-0.2-0.3-0.3-0.4c-0.1-0.1-0.3-0.2-0.4-0.3
		l-0.1,0l0,0c0,0-0.1,0-0.1-0.1c-0.2-0.1-0.4-0.2-0.6-0.3l-1.1,1.1L271.7,268.1z"/>
	<path class="st0" d="M270.7,266.9L270.7,266.9C270.8,266.9,270.7,266.9,270.7,266.9L270.7,266.9z"/>
</g>
</svg>
