<?xml version="1.0" encoding="utf-8"?>
<!-- Generator: Adobe Illustrator 22.0.1, SVG Export Plug-In . SVG Version: 6.00 Build 0)  -->
<svg version="1.1" id="レイヤー_1" xmlns="http://www.w3.org/2000/svg" xmlns:xlink="http://www.w3.org/1999/xlink" x="0px"
	 y="0px" viewBox="0 0 640 640" style="enable-background:new 0 0 640 640;" xml:space="preserve">
<style type="text/css">
	.st0{fill:none;stroke:#E50012;stroke-width:0.1519;stroke-miterlimit:10;}
</style>
<g>
	<path class="st0" d="M498.2,128c0.1-0.2,0.1-0.3,0.1-0.3l-1.1,1.4l0.6,0.3C498,128.8,498.1,128.3,498.2,128z"/>
	<path class="st0" d="M496.2,131c0,0-0.4,0.2-0.7,0.6c-0.1,0.1-0.1,0.2-0.2,0.3l1.7,1c0.1-0.5,0.2-0.9,0.3-1.4
		c0-0.1,0.1-0.3,0.1-0.4l-1.4-0.8C496.1,130.6,496.1,130.8,496.2,131z"/>
	<path class="st0" d="M512.8,144c-0.1-0.2-0.3-0.3-0.4-0.5c-0.1-0.2-0.3-0.3-0.4-0.5c-0.1-0.2-0.3-0.3-0.5-0.4
		c-0.2-0.1-0.3-0.3-0.5-0.4c-0.2-0.1-0.4-0.3-0.6-0.4c-0.2-0.1-0.4-0.2-0.6-0.3c-0.2-0.1-0.5-0.2-0.7-0.2c-0.3-0.1-0.6-0.1-0.9,0
		c-0.1,0-0.2,0-0.4,0.1l5.3,3.2C513,144.3,512.9,144.2,512.8,144z"/>
	<path class="st0" d="M495.5,132.9c0,0-0.1,0.1-0.2,0.3c-0.1,0.1-0.2,0.3-0.3,0.5l1.8,1c0.1-0.6,0.2-1.2,0.4-1.7l-1.7-1
		C495.2,132.2,495.2,132.5,495.5,132.9z"/>
	<path class="st0" d="M506.1,142.2l12.7,7.5c-0.1-0.5-0.3-1-0.6-1.5c-0.2-0.2-0.4-0.5-0.6-0.7c-0.2-0.2-0.4-0.3-0.6-0.5
		c-0.2-0.1-0.4-0.3-0.6-0.4c-0.2-0.1-0.4-0.2-0.5-0.3c-0.2-0.1-0.4-0.2-0.5-0.3c-0.2-0.1-0.3-0.2-0.4-0.2c-0.2-0.1-0.3-0.2-0.5-0.2
		c-0.2-0.1-0.4-0.2-0.5-0.2c-0.1-0.1-0.2-0.1-0.2-0.1s-0.1-0.1-0.2-0.3c-0.1-0.1-0.2-0.3-0.3-0.5c0,0,0,0,0-0.1l-5.3-3.2
		c-0.3,0-0.5,0.1-0.8,0.2C506.8,141.7,506.5,141.9,506.1,142.2z"/>
	<path class="st0" d="M449,197c-0.2,0.3-0.4,0.6-0.6,0.9c-0.3,0.5-0.6,1.1-0.9,1.6c-0.3,0.5-0.6,1-0.9,1.5c-0.3,0.5-0.5,1-0.8,1.4
		c-0.2,0.3-0.3,0.6-0.5,0.9l3.9-3.5L449,197z"/>
	<path class="st0" d="M494.6,134.2c-0.1,0.4-0.1,0.9,0.4,1.1c0,0-0.1,0.1-0.2,0.2l1.4,0.8c0-0.1,0-0.2,0-0.2
		c0.1-0.5,0.2-0.9,0.3-1.4c0,0,0,0,0,0l-1.8-1C494.8,133.8,494.7,134,494.6,134.2z"/>
	<path class="st0" d="M494.6,135.9c-0.2,0.3-0.4,0.6-0.5,1l1.9,1.1c0-0.2,0.1-0.3,0.1-0.5c0.1-0.4,0.1-0.7,0.2-1.1l-1.4-0.8
		C494.8,135.6,494.7,135.7,494.6,135.9z"/>
	<path class="st0" d="M505.1,143.4l13.6,8.1c0.1-0.4,0.2-0.7,0.2-1l0-0.6c0,0,0-0.1,0-0.1l-12.7-7.5
		C505.8,142.5,505.4,142.9,505.1,143.4z"/>
	<path class="st0" d="M444.4,205.2c-0.2,0.4-0.4,0.8-0.6,1.2c-0.2,0.4-0.4,0.8-0.6,1.2c0,0.1-0.1,0.2-0.1,0.3l8.6-7.5l-0.8-6.4
		c-0.1,0.2-0.3,0.4-0.4,0.6c-0.4,0.6-0.7,1.2-1.1,1.8c-0.1,0.2-0.3,0.5-0.4,0.7l0.3,2.9l-3.9,3.5c-0.1,0.2-0.2,0.3-0.3,0.5
		C444.9,204.3,444.7,204.7,444.4,205.2z"/>
	<path class="st0" d="M450.2,184.8C450.2,184.8,450.2,184.8,450.2,184.8C450.2,184.8,450.2,184.8,450.2,184.8c0.1,0,0.1,0,0.2,0
		C450.4,184.7,450.3,184.7,450.2,184.8z"/>
	<path class="st0" d="M452.3,190.1c-0.2,0.5-0.3,0.9-0.4,1.3l0.8-0.5l-0.2-1.5C452.5,189.6,452.4,189.9,452.3,190.1z"/>
	<path class="st0" d="M494.8,138.8l0,0.3l0.9,0.5c0-0.2,0.1-0.5,0.1-0.7c0.1-0.3,0.1-0.6,0.2-0.9l-1.9-1.1c0,0,0,0.1,0,0.1
		C494.1,137.5,494.2,138.1,494.8,138.8z"/>
	<path class="st0" d="M517.9,152.8c0.2-0.2,0.3-0.4,0.4-0.7c0.1-0.2,0.2-0.5,0.3-0.7l-13.6-8.1c-0.3,0.4-0.5,0.8-0.8,1.3
		L517.9,152.8z"/>
	<path class="st0" d="M443.1,207.9c-0.1,0.3-0.3,0.6-0.4,0.9c-0.2,0.4-0.3,0.7-0.5,1.1c-0.2,0.3-0.3,0.7-0.5,1
		c-0.1,0.3-0.3,0.7-0.4,1l12.6-11.1l-1.2-9.8c-0.4,0.5-0.7,1.1-1.1,1.7c-0.3,0.4-0.5,0.8-0.8,1.2l0.8,6.4L443.1,207.9z"/>
	<path class="st0" d="M451.7,184c-0.2,0.2-0.5,0.3-0.7,0.4c-0.2,0.1-0.4,0.2-0.5,0.3c0.2,0,0.5,0,0.9,0c0.2,0,0.5,0,0.7,0.1l-0.1-1
		C451.8,183.9,451.7,183.9,451.7,184z"/>
	<path class="st0" d="M494.8,140.7l1.4,0.9c0.1-0.3,0.1-0.5-0.1-0.6c0.1,0,0.1,0,0.2-0.1l-0.7-0.8c0-0.2,0.1-0.4,0.1-0.6l-0.9-0.5
		l0,0.3L494.8,140.7z"/>
	<path class="st0" d="M441,212.7c-0.1,0.2-0.1,0.4-0.2,0.6c-0.1,0.2-0.2,0.4-0.2,0.6c-0.1,0.2-0.2,0.4-0.2,0.6
		c0,0.1-0.1,0.2-0.1,0.3c0,0,0,0.1-0.1,0.4c0,0.1-0.1,0.2-0.1,0.4l16.2-14.2l-1.9-15.7c-0.1,0.2-0.2,0.4-0.3,0.6
		c-0.1,0.2-0.2,0.5-0.3,0.7c-0.1,0.2-0.2,0.5-0.3,0.7c-0.1,0.3-0.2,0.5-0.3,0.8c-0.1,0.3-0.2,0.5-0.3,0.8c0,0.1,0,0.1-0.1,0.2
		l0.2,1.5l0.2-0.1c-0.1,0.1-0.1,0.2-0.2,0.3l1.2,9.8l-12.6,11.1c0,0.1-0.1,0.2-0.1,0.3C441.1,212.3,441.1,212.5,441,212.7z"/>
	<path class="st0" d="M453.7,184.9c0.2,0,0.4,0,0.5,0.1l-0.3-2.5c-0.2,0.1-0.3,0.2-0.5,0.3c-0.2,0.1-0.4,0.3-0.6,0.4
		c-0.2,0.1-0.4,0.3-0.6,0.4c-0.1,0.1-0.2,0.1-0.3,0.2l0.1,1c0.2,0,0.3,0,0.5,0C452.9,184.9,453.4,184.9,453.7,184.9z"/>
	<path class="st0" d="M517,153.9c0.1-0.1,0.2-0.2,0.3-0.3c0.2-0.2,0.4-0.4,0.5-0.6c0-0.1,0.1-0.1,0.1-0.2l-13.7-8.1
		c-0.2,0.4-0.4,0.8-0.7,1.3L517,153.9z"/>
	<path class="st0" d="M494.8,141.3l-0.8,0.1l-0.6,0.1l0,0.1l2.1,1.3c0.2-0.2,0.4-0.5,0.5-0.7c0.1-0.2,0.2-0.4,0.3-0.5l-1.4-0.9
		l0,0.1L494.8,141.3z"/>
	<path class="st0" d="M439.7,216.4c-0.1,0.2-0.1,0.4-0.2,0.7c-0.1,0.2-0.1,0.5-0.2,0.7c-0.1,0.2-0.1,0.5-0.2,0.7c0,0,0,0,0,0.1
		l19.2-16.9l-2.4-20.5c-0.1,0.1-0.2,0.1-0.3,0.2c-0.2,0.1-0.3,0.2-0.5,0.3c-0.2,0.1-0.4,0.2-0.5,0.4c-0.2,0.1-0.4,0.2-0.5,0.4
		c0,0-0.1,0-0.1,0.1l0.3,2.5c0.2,0,0.3,0,0.3,0s-0.1,0.2-0.3,0.5c0,0,0,0,0,0.1l1.9,15.7L440,215.5c0,0.1-0.1,0.2-0.1,0.3
		C439.9,215.9,439.8,216.1,439.7,216.4z"/>
	<path class="st0" d="M503.6,146c0,0-0.1,0-0.4,0c-0.3,0-0.6,0.1-1.1,0.2c-0.2,0-0.3,0.1-0.5,0.1l14.3,8.5c0.1-0.1,0.3-0.2,0.4-0.3
		c0.2-0.2,0.4-0.3,0.5-0.5c0.1-0.1,0.1-0.1,0.2-0.2L503.6,146C503.6,146,503.6,146,503.6,146z"/>
	<path class="st0" d="M499.8,146.9l15.5,9.2c0-0.5-0.1-0.7-0.1-0.7c0,0,0.1-0.1,0.1-0.1c0.2-0.1,0.3-0.2,0.5-0.4c0,0,0,0,0.1-0.1
		l-14.3-8.5c-0.2,0.1-0.4,0.1-0.7,0.2C500.5,146.7,500.1,146.8,499.8,146.9z"/>
	<path class="st0" d="M438.7,220c-0.1,0.3-0.1,0.5-0.2,0.8c-0.1,0.2-0.1,0.4-0.2,0.6l22-19.3l-2.6-22.2c-0.1,0.1-0.2,0.1-0.3,0.2
		c-0.2,0.1-0.3,0.2-0.5,0.3c-0.2,0.1-0.3,0.2-0.5,0.3c-0.2,0.1-0.3,0.2-0.5,0.3c-0.1,0.1-0.2,0.1-0.2,0.2l2.4,20.5l-19.2,16.9
		c-0.1,0.2-0.1,0.5-0.2,0.7C438.9,219.5,438.8,219.8,438.7,220z"/>
	<path class="st0" d="M493,142l-0.4,0.7l1.8,1.1c0.1,0,0.1,0,0.2-0.1c0,0,0,0,0.1-0.1c0.1-0.1,0.4-0.4,0.7-0.7c0,0,0.1-0.1,0.1-0.1
		l-2.1-1.3L493,142L493,142z"/>
	<path class="st0" d="M524.1,162.4L524.1,162.4c0.1,0,0.1,0.1,0.2,0.1l8.4-3.9l-0.1-0.1l0,0l1-1.2l0.5-0.7c-0.1,0.2-1,0.6-2.2,1.2
		c-1.6,0.7-3.7,1.7-5.7,2.6c-0.3,0.1-0.5,0.2-0.8,0.3c-0.3,0.1-0.5,0.2-0.8,0.3c-0.3,0.1-0.5,0.2-0.7,0.3c-0.3,0.1-0.5,0.2-0.7,0.3
		c-0.3,0.1-0.5,0.2-0.7,0.3c-0.1,0-0.1,0-0.2,0.1l0.9,0.5L524.1,162.4z"/>
	<path class="st0" d="M492.5,142.7l-0.6,0.7c-0.1,0.1-0.1,0.2-0.2,0.3l1.2,0.7c0.2-0.2,0.5-0.3,0.8-0.5c0.2-0.1,0.4-0.2,0.6-0.3
		L492.5,142.7L492.5,142.7z"/>
	<path class="st0" d="M498.2,147.6l17.1,10.1c0-0.7,0-1.2,0-1.6l-15.5-9.2c-0.1,0-0.1,0-0.2,0.1
		C499.1,147.2,498.6,147.4,498.2,147.6z"/>
	<path class="st0" d="M438.1,222.5c-0.1,0.3-0.1,0.6-0.2,0.9c-0.1,0.3-0.1,0.5-0.2,0.8l24.7-21.7l-2.8-23.8c0,0,0,0,0,0
		c-0.1,0.1-0.3,0.2-0.4,0.3c-0.1,0.1-0.3,0.2-0.4,0.3c-0.1,0.1-0.3,0.2-0.4,0.3c-0.1,0.1-0.3,0.2-0.4,0.3c-0.1,0-0.1,0.1-0.2,0.1
		l2.6,22.2l-22,19.3c0,0.1,0,0.1,0,0.2C438.3,221.9,438.2,222.2,438.1,222.5z"/>
	<path class="st0" d="M491,144.8l1,0.6c0.1-0.1,0.2-0.2,0.3-0.3c0.2-0.2,0.5-0.4,0.7-0.6c0,0,0,0,0,0l-1.2-0.7
		c-0.1,0.1-0.2,0.3-0.3,0.4C491.3,144.4,491.1,144.6,491,144.8z"/>
	<path class="st0" d="M527.1,161.9c0.2-0.3,0.3-0.5,0.3-0.5c0.1,0.1,0.2,0.2,0.3,0.3c0.4,0.2,0.9-0.1,1.3-0.4
		c0.4-0.4,0.7-0.8,0.7-0.8c0.8,0.4,1.3-0.3,1.5-0.7c0.1-0.2,0.2-0.4,0.2-0.4c0.4,0.1,0.9,0,1.3-0.1c0.3-0.1,0.5-0.1,0.5-0.1l0,0
		l-0.5-0.6l-8.4,3.9C525.7,163.3,526.6,162.5,527.1,161.9z"/>
	<path class="st0" d="M497.3,147.9c-0.2,0.1-0.4,0.2-0.6,0.3l18.4,10.9c0.1-0.5,0.1-1,0.1-1.4l-17.1-10.1c0,0,0,0-0.1,0
		C497.9,147.7,497.6,147.8,497.3,147.9z"/>
	<path class="st0" d="M437.6,225.2c-0.1,0.3-0.1,0.6-0.2,1c0,0.2-0.1,0.3-0.1,0.5l27.1-23.7l-3-25.4c-0.1,0.1-0.2,0.2-0.4,0.2
		c-0.1,0.1-0.2,0.2-0.3,0.2c-0.1,0.1-0.2,0.2-0.4,0.2c-0.1,0.1-0.2,0.2-0.4,0.2c-0.1,0.1-0.2,0.2-0.4,0.2l2.8,23.8l-24.7,21.7
		c0,0,0,0.1,0,0.1C437.7,224.6,437.6,224.9,437.6,225.2z"/>
	<path class="st0" d="M521.8,162.3c0-0.3-0.1-0.5-0.2-0.7c-0.1-0.1-0.3-0.2-0.4-0.1c-0.2,0.1-0.4,0.3-0.6,0.5
		c-0.1,0.1-0.2,0.2-0.2,0.3l1.3,0.8l0-0.1l0.3-0.1l0.7-0.2l0.7-0.2l0,0l-0.9-0.5c-0.2,0.1-0.4,0.2-0.5,0.2
		C521.9,162.3,521.8,162.3,521.8,162.3z"/>
	<path class="st0" d="M520,162.7c-0.2,0.2-0.3,0.4-0.4,0.6l2.1,1.2l0.1-0.1l-0.1-1.3l-1.3-0.8C520.3,162.4,520.1,162.6,520,162.7z"
		/>
	<path class="st0" d="M495.6,148.8c-0.1,0-0.2,0.1-0.2,0.1l19.5,11.6c0-0.2,0.1-0.3,0.1-0.5c0-0.3,0.1-0.6,0.1-0.9l-18.4-10.9
		c-0.1,0-0.2,0.1-0.3,0.1C496.2,148.5,495.9,148.6,495.6,148.8z"/>
	<path class="st0" d="M437.3,226.7c0,0.2,0,0.3-0.1,0.5c0,0.4-0.1,0.7-0.1,1c0,0.2,0,0.5,0,0.7l29.2-25.6l-3.4-28.6
		c0,0-0.1,0.1-0.1,0.1c-0.1,0.2-0.2,0.3-0.3,0.5c-0.1,0.2-0.2,0.3-0.2,0.5c-0.1,0.2-0.1,0.3-0.1,0.5c0,0.2,0,0.4,0,0.5
		c0,0,0.1,0.1,0.1,0.1c0,0-0.2,0.1-0.4,0.3c-0.1,0.1-0.3,0.2-0.5,0.3l3,25.4L437.3,226.7z"/>
	<path class="st0" d="M490.4,145.6c-0.1,0.1-0.1,0.2-0.2,0.2l0.9,0.5c0.2-0.2,0.3-0.4,0.5-0.7c0.1-0.1,0.2-0.2,0.3-0.3l-1-0.6
		c0,0,0,0.1-0.1,0.1C490.7,145.1,490.6,145.3,490.4,145.6z"/>
	<path class="st0" d="M519.4,163.7c0,0.3-0.1,0.5-0.1,0.8l1.6,0.9l0.6-0.6l0,0l0.3-0.3l-2.1-1.2c-0.1,0.1-0.1,0.2-0.2,0.3
		C519.4,163.6,519.4,163.7,519.4,163.7z"/>
	<path class="st0" d="M437.2,230.3c0,0.1,0.1,0.3,0.1,0.4l30.8-27l-3.7-31.3c-0.1,0.1-0.2,0.2-0.2,0.3c-0.1,0.2-0.3,0.4-0.4,0.5
		c-0.1,0.2-0.2,0.4-0.4,0.5c-0.1,0.2-0.2,0.3-0.3,0.5c-0.1,0.1-0.1,0.2-0.2,0.4l3.4,28.6l-29.2,25.6c0,0.1,0,0.2,0,0.4
		C437.2,229.7,437.2,230,437.2,230.3z"/>
	<path class="st0" d="M489.6,146.9l0.9,0.5c0.1-0.1,0.1-0.2,0.2-0.3c0.1-0.2,0.3-0.5,0.5-0.7c0,0,0,0,0,0l-0.9-0.5
		c-0.1,0.2-0.2,0.3-0.3,0.5C489.8,146.5,489.7,146.7,489.6,146.9z"/>
	<path class="st0" d="M494.2,149.6l20.5,12.2c0.1-0.4,0.2-0.9,0.2-1.3l-19.5-11.6c-0.2,0.1-0.4,0.2-0.5,0.3
		C494.6,149.3,494.4,149.5,494.2,149.6z"/>
	<path class="st0" d="M438.1,231.5L438.1,231.5l0.3,0c0,0,0,0.1,0,0.1L470,204l-3.6-30.6c-0.1,0.1-0.1,0.1-0.2,0.2l-0.3,0
		c0.1-0.2,0.1-0.3,0.2-0.6c0-0.1,0.1-0.2,0.1-0.3l-0.3-2.3c-0.1,0.2-0.3,0.4-0.5,0.6c-0.1,0.2-0.3,0.4-0.5,0.6
		c-0.1,0.2-0.3,0.4-0.4,0.6c-0.1,0.1-0.1,0.2-0.2,0.2l3.7,31.3l-30.8,27C437.5,231.2,437.7,231.5,438.1,231.5z"/>
	<path class="st0" d="M493.4,150.1c-0.1,0.1-0.2,0.2-0.4,0.2l21.4,12.7c0.1-0.3,0.2-0.7,0.2-1c0-0.1,0-0.2,0.1-0.2l-20.5-12.2
		c0,0,0,0-0.1,0C493.9,149.8,493.6,149.9,493.4,150.1z"/>
	<path class="st0" d="M489.1,147.7c0,0.1-0.1,0.1-0.1,0.2l0.9,0.6c0.1-0.2,0.2-0.4,0.3-0.7c0.1-0.1,0.1-0.3,0.2-0.4l-0.9-0.5
		c0,0-0.1,0.1-0.1,0.1C489.4,147.2,489.2,147.4,489.1,147.7z"/>
	<path class="st0" d="M518.9,165.4c0,0.1-0.1,0.1-0.1,0.2l1.2,0.7c0.1-0.1,0.1-0.1,0.2-0.2c0.3-0.3,0.4-0.5,0.4-0.5l0.2-0.2l0,0
		l-1.6-0.9C519.2,164.8,519.1,165.1,518.9,165.4z"/>
	<path class="st0" d="M488.4,148.9l1.1,0.6c0-0.1,0.1-0.1,0.1-0.2c0.1-0.2,0.2-0.5,0.3-0.8c0,0,0-0.1,0-0.1l-0.9-0.6
		c-0.1,0.2-0.2,0.3-0.3,0.5C488.6,148.5,488.5,148.7,488.4,148.9z"/>
	<path class="st0" d="M492.1,150.9c0,0-0.1,0.1-0.1,0.1l22.1,13.1c0.1-0.2,0.1-0.4,0.2-0.6c0.1-0.2,0.1-0.4,0.2-0.6L493,150.3
		c-0.1,0.1-0.2,0.1-0.3,0.2C492.5,150.6,492.3,150.8,492.1,150.9z"/>
	<path class="st0" d="M466.7,171.8c0.1-0.2,0.3-0.4,0.4-0.6c0.1-0.2,0.3-0.4,0.4-0.6c0.1-0.1,0.1-0.2,0.1-0.2l-0.2-1.9
		c-0.1,0.2-0.2,0.3-0.3,0.5c0,0,0,0.1-0.1,0.2c-0.1,0.1-0.3,0.4-0.5,0.6c-0.2,0.2-0.3,0.4-0.5,0.6c0,0,0,0,0,0l0.3,2.3
		c0-0.1,0.1-0.2,0.2-0.3C466.5,172.2,466.6,172,466.7,171.8z"/>
	<path class="st0" d="M439,233.1l32.7-28.7l-3.8-32.5c0,0,0,0-0.1,0.1c-0.2,0.2-0.4,0.4-0.6,0.6c-0.2,0.2-0.4,0.4-0.5,0.5
		c-0.1,0.1-0.2,0.3-0.4,0.4L470,204l-31.5,27.7c0,0.2,0.1,0.6,0.3,1C438.8,232.8,438.9,233,439,233.1z"/>
	<path class="st0" d="M518.3,166.6l1,0.6c0.1-0.1,0.2-0.3,0.3-0.4c0.2-0.2,0.3-0.4,0.4-0.5l-1.2-0.7c-0.1,0.3-0.3,0.6-0.4,0.8
		C518.4,166.5,518.3,166.6,518.3,166.6z"/>
	<path class="st0" d="M517.6,167.5l0.9,0.5c0.2-0.2,0.4-0.4,0.5-0.6c0.1-0.1,0.2-0.2,0.2-0.3l-1-0.6c-0.1,0.2-0.3,0.4-0.4,0.6
		C517.8,167.3,517.7,167.4,517.6,167.5z"/>
	<path class="st0" d="M439.8,234c0,0,0.1,0,0.1,0.1l33.4-29.3l-4.1-34.3c-0.1,0.1-0.2,0.2-0.4,0.3c-0.2,0.2-0.4,0.4-0.6,0.6
		c-0.2,0.2-0.4,0.3-0.5,0.5l3.8,32.5L439,233.1C439.2,233.4,439.4,233.7,439.8,234z"/>
	<path class="st0" d="M468.1,169.8c0-0.2,0.1-0.3,0.2-0.5c0.1-0.2,0.2-0.4,0.3-0.7c0.1-0.2,0.3-0.5,0.4-0.7c0,0,0,0,0,0l-0.2-1.6
		c0,0,0,0,0,0c-0.2,0.2-0.3,0.5-0.5,0.7c-0.2,0.2-0.3,0.5-0.5,0.7c-0.1,0.2-0.3,0.5-0.4,0.7c0,0,0,0,0,0l0.2,1.9
		c0.1-0.2,0.2-0.3,0.3-0.4C468,169.8,468.1,169.8,468.1,169.8z"/>
	<path class="st0" d="M488.1,149.8c0,0.1,0,0.1-0.1,0.2l2.6,1.6l-0.6-0.6l-0.7-0.8c0-0.1,0.1-0.3,0.2-0.6l-1.1-0.6
		c0,0,0,0.1-0.1,0.1C488.3,149.3,488.2,149.5,488.1,149.8z"/>
	<path class="st0" d="M491.5,151.3c-0.2,0.1-0.3,0.2-0.5,0.4l22.8,13.5c0-0.1,0.1-0.3,0.1-0.4c0.1-0.2,0.1-0.5,0.2-0.7L492,151
		C491.8,151.1,491.6,151.2,491.5,151.3z"/>
	<path class="st0" d="M470.1,166.4c0.1-0.1,0.2-0.3,0.3-0.4l-0.2-1.4c-0.1,0.1-0.1,0.1-0.2,0.2c-0.2,0.2-0.4,0.5-0.7,0.8
		c-0.2,0.2-0.4,0.5-0.6,0.7l0.2,1.6c0.2-0.2,0.3-0.5,0.5-0.7C469.7,166.9,469.9,166.7,470.1,166.4z"/>
	<path class="st0" d="M516.9,168.3C516.8,168.3,516.8,168.3,516.9,168.3l0.9,0.6c0.1-0.1,0.2-0.2,0.2-0.2c0.2-0.2,0.4-0.4,0.5-0.6
		c0,0,0,0,0,0l-0.9-0.5c-0.1,0.1-0.2,0.2-0.2,0.3C517.2,168,517,168.1,516.9,168.3z"/>
	<path class="st0" d="M490.6,151.5l-2.6-1.6c-0.1,0.2-0.1,0.4-0.2,0.5c-0.1,0.2-0.1,0.4-0.1,0.5l25.7,15.3c0-0.1,0.1-0.2,0.1-0.3
		c0.1-0.2,0.2-0.5,0.2-0.7L491,151.7c0,0-0.1,0-0.1,0.1L490.6,151.5z"/>
	<path class="st0" d="M475,205l-4.3-36c-0.2,0.2-0.3,0.3-0.5,0.5c-0.2,0.2-0.4,0.4-0.6,0.6c-0.1,0.1-0.2,0.2-0.3,0.3l4.1,34.3
		l-33.4,29.3c0.4,0.2,0.8,0.4,1.4,0.5L475,205z"/>
	<path class="st0" d="M471.8,164.3l-0.1-1.1c-0.2,0.2-0.4,0.3-0.6,0.5c-0.2,0.2-0.5,0.5-0.8,0.8l0.2,1.4c0.1-0.1,0.2-0.2,0.3-0.3
		C471.1,165.2,471.4,164.7,471.8,164.3z"/>
	<path class="st0" d="M442,235.3c0,0.1,0.1,0.1,0.1,0.2c0,0,0,0,0,0.1l34.4-30.2l-4.5-37.7c-0.2,0.2-0.4,0.4-0.6,0.5
		c-0.2,0.2-0.5,0.4-0.7,0.7c0,0-0.1,0.1-0.1,0.1l4.3,36l-33.6,29.5c0.1,0,0.2,0,0.3,0C441.8,234.9,441.9,235.1,442,235.3z"/>
	<path class="st0" d="M516,169l1,0.6c0.2-0.2,0.3-0.3,0.5-0.5c0.1-0.1,0.2-0.2,0.3-0.3l-0.9-0.5c-0.2,0.1-0.3,0.3-0.5,0.4
		C516.2,168.8,516.1,168.9,516,169z"/>
	<path class="st0" d="M487.6,152.1L487.6,152.1l25.4,15.2c0-0.1,0.1-0.2,0.1-0.3c0.1-0.2,0.2-0.5,0.3-0.7L487.7,151
		c0,0.1,0,0.2-0.1,0.2C487.6,151.5,487.5,151.8,487.6,152.1z"/>
	<path class="st0" d="M515.4,169.4c-0.1,0.1-0.3,0.2-0.4,0.2l1.1,0.6c0.1-0.1,0.2-0.2,0.3-0.2c0.2-0.1,0.3-0.3,0.5-0.4c0,0,0,0,0,0
		l-1-0.6c0,0-0.1,0-0.1,0.1C515.7,169.2,515.6,169.3,515.4,169.4z"/>
	<path class="st0" d="M512.8,168.3l0-0.5c0.1-0.2,0.2-0.4,0.2-0.6l-25.4-15.1l0.7,1.6L512.8,168.3z"/>
	<path class="st0" d="M471.9,164.2c0.3-0.4,0.6-0.7,0.7-0.8c0,0,0,0,0,0c0.1,0.2,0.3,0.4,0.6,0.6l-0.3-2.2c-0.2,0.2-0.3,0.4-0.4,0.7
		c0,0,0,0-0.1,0.1c-0.1,0.1-0.4,0.3-0.7,0.5c0,0-0.1,0.1-0.1,0.1l0.1,1.1C471.8,164.3,471.8,164.3,471.9,164.2z"/>
	<path class="st0" d="M443,236.5l35.2-30.9l-4.6-39.3c-0.4,0.3-0.8,0.7-1.2,1.2c0,0-0.1,0.1-0.1,0.1l4.5,37.7l-34.4,30.2
		C442.4,236,442.7,236.3,443,236.5z"/>
	<path class="st0" d="M474.1,164.5l0.1,1.1c-0.2,0.2-0.4,0.4-0.6,0.6c0,0-0.1,0.1-0.1,0.1l4.6,39.3L443,236.5c0.1,0,0.1,0.1,0.2,0.1
		c0.3,0.2,0.7,0.3,1,0.4l35.5-31.1l-5.3-44.6c-0.2,0-0.4,0-0.6,0.1c-0.3,0.1-0.5,0.2-0.7,0.3c0,0-0.1,0.1-0.1,0.1l0.3,2.2
		c0,0,0.1,0.1,0.1,0.1C473.6,164.2,473.9,164.4,474.1,164.5z"/>
	<path class="st0" d="M487.8,154.2c-0.1,0.1-0.2,0.2-0.3,0.3l27.8,16.5c0.1,0,0.1-0.1,0.2-0.1c0.2-0.1,0.3-0.2,0.5-0.4
		c0.1-0.1,0.1-0.1,0.2-0.2l-1.1-0.6c0,0-0.1,0-0.1,0.1c-0.2,0.1-0.3,0.2-0.4,0.3c-0.2,0.1-0.4,0.2-0.4,0.2c0,0,0,0,0,0l-0.4-0.3
		l-0.4-0.3l-0.4-0.3l0-0.9l-24.5-14.6l0,0.1C488.1,154,488,154.1,487.8,154.2z"/>
	<path class="st0" d="M487,155c-0.1,0.1-0.1,0.1-0.2,0.2l27.6,16.4c0.1,0,0.1-0.1,0.2-0.1c0.1-0.1,0.3-0.2,0.4-0.3
		c0.1-0.1,0.2-0.1,0.3-0.2l-27.8-16.5c0,0-0.1,0.1-0.1,0.1C487.3,154.7,487.1,154.9,487,155z"/>
	<path class="st0" d="M445.4,237.2c0,0.1,0,0.2,0.1,0.3l35.6-31.2l-5.3-44.8c0,0,0,0,0,0c-0.2,0-0.4-0.1-0.7-0.1c-0.2,0-0.5,0-0.7,0
		c0,0,0,0-0.1,0l5.3,44.6l-35.5,31.1c0.1,0,0.1,0,0.2,0C445,237.2,445.4,237.2,445.4,237.2z"/>
	<path class="st0" d="M446.6,238.1l35.9-31.5l-5.3-44.7c-0.1,0-0.1,0-0.2-0.1c-0.2-0.1-0.4-0.1-0.6-0.2c-0.2-0.1-0.4-0.1-0.6-0.1
		l5.3,44.8l-35.6,31.2c0,0,0,0.1,0.1,0.1C445.7,237.9,446.1,238,446.6,238.1z"/>
	<path class="st0" d="M486.6,155.4c-0.1,0-0.1,0.1-0.2,0.1c0,0,0.3,0.2,0.7,0.4c0.8,0.5,2.1,1.4,2.4,1.9l24,14.3
		c0.1,0,0.2-0.1,0.3-0.1c0.1-0.1,0.3-0.1,0.4-0.2c0.1-0.1,0.2-0.1,0.3-0.2l-27.6-16.4C486.7,155.2,486.6,155.3,486.6,155.4z"/>
	<path class="st0" d="M448,237.9c0.2,0,0.4-0.1,0.5-0.1l35.3-31l-5.4-45.3c-0.1,0.1-0.2,0.2-0.3,0.4c-0.1,0.1-0.1,0.2-0.2,0.3
		c0,0-0.1-0.1-0.4-0.2c-0.1,0-0.3-0.1-0.5-0.2l5.3,44.7l-35.9,31.5c0,0,0.1,0,0.1,0C447.1,238.1,447.5,238,448,237.9z"/>
	<path class="st0" d="M489.5,158c0,0,0.1,0.3,0.1,0.7c0,0.1,0,0.2,0,0.3l22.6,13.4c0,0,0,0,0,0c0.1,0,0.2,0,0.4,0
		c0.1,0,0.3,0,0.4-0.1c0.1,0,0.3-0.1,0.4-0.1c0,0,0.1,0,0.1-0.1l-24-14.3C489.5,157.9,489.5,157.9,489.5,158z"/>
	<path class="st0" d="M488.9,159.4c-0.3-0.1-0.6-0.3-1.2-0.7c0,0-0.6-0.8-1.4-1.4c-0.4-0.2-0.7-0.4-1.1-0.5c-0.2,0-0.4,0-0.6,0
		c-0.1,0-0.1,0-0.2,0l26.2,15.6c0.1-0.1,0.1-0.3,0.2-0.4l0.3-0.1c0.1,0.1,0.2,0.2,0.4,0.3c0.1,0.1,0.2,0.1,0.4,0.1
		c0.1,0,0.2,0,0.3,0l-22.6-13.4c0,0.1-0.1,0.3-0.1,0.3C489.3,159.4,489.2,159.5,488.9,159.4z"/>
	<path class="st0" d="M448.6,237.8c0.2-0.1,0.5-0.1,0.8-0.2c0.4-0.1,0.9-0.3,1.3-0.5c0.2-0.1,0.4-0.1,0.5-0.2l34-29.8l-5.5-46.7
		c-0.2,0.1-0.3,0.3-0.5,0.4c-0.2,0.2-0.3,0.3-0.5,0.5c-0.1,0.1-0.2,0.2-0.2,0.2l5.4,45.3L448.6,237.8z"/>
	<path class="st0" d="M453.2,236.1c0.4-0.2,0.7-0.3,1.1-0.5l32.2-28.2l-5.7-47.9c-0.1,0.1-0.1,0.1-0.2,0.2c-0.2,0.1-0.3,0.2-0.5,0.4
		c-0.2,0.1-0.3,0.3-0.5,0.4c0,0,0,0,0,0l5.5,46.7l-34,29.8c0.2-0.1,0.5-0.2,0.8-0.3C452.4,236.4,452.8,236.2,453.2,236.1z"/>
	<path class="st0" d="M483.7,157.3C483.7,157.3,483.6,157.3,483.7,157.3c-0.1,0.1-0.1,0.1-0.1,0.1l26.6,15.8c0,0,0,0,0-0.1
		c0.1-0.2,0.2-0.3,0.3-0.5c0-0.1,0.1-0.1,0.1-0.2l-26.2-15.6c-0.1,0-0.2,0.1-0.3,0.1C483.9,157.1,483.8,157.1,483.7,157.3z"/>
	<path class="st0" d="M455.7,234.9c0.4-0.2,0.8-0.4,1.2-0.6c0.3-0.2,0.6-0.3,0.9-0.4l29.9-26.3l-5.8-49c0,0,0,0,0,0
		c-0.1,0.1-0.3,0.2-0.4,0.3c-0.1,0.1-0.3,0.2-0.4,0.3c-0.1,0.1-0.2,0.1-0.2,0.2l5.7,47.9l-32.2,28.2c0.1,0,0.1-0.1,0.2-0.1
		C454.9,235.3,455.3,235.1,455.7,234.9z"/>
	<path class="st0" d="M483,157.7c-0.1,0-0.1,0.1-0.2,0.2l23.2,13.8c0.1,0,0.3,0,0.3,0c0,0,0.1,0,0.1,0c0.1,0,0.1,0,0.2,0
		c0.1,0,0.2,0.1,0.2,0.1c0.1,0,0.1,0.1,0.2,0.2c0.1,0,0.1,0.1,0.2,0.2c0.1,0.1,0.1,0.1,0.2,0.2c0.1,0.1,0.1,0.1,0.2,0.2
		c0.1,0,0.1,0.1,0.2,0.1c0.1,0.1,0.2,0.2,0.3,0.2c0.1,0.1,0.2,0.2,0.3,0.2c0,0,0.1,0.1,0.1,0.1l1.1,0.7c0.1-0.1,0.1-0.2,0.2-0.3
		c0.1-0.1,0.2-0.3,0.2-0.4l-26.6-15.8C483.5,157.4,483.3,157.5,483,157.7z"/>
	<path class="st0" d="M509,173.6c0.1,0.1,0.2,0.2,0.3,0.3c0.1,0.2,0.2,0.2,0.2,0.2c0,0,0-0.1,0.1-0.1c0-0.1,0.1-0.1,0.1-0.2
		l-1.1-0.7c0,0,0.1,0.1,0.1,0.1C508.9,173.4,508.9,173.5,509,173.6z"/>
	<path class="st0" d="M482.3,158.3c-0.1,0.1-0.2,0.2-0.4,0.3l5.8,49l-29.9,26.3c0.1,0,0.2-0.1,0.3-0.1c0.4-0.2,0.8-0.4,1.1-0.6
		c0.4-0.2,0.8-0.4,1.1-0.6c0.5-0.3,0.9-0.5,1.1-0.6c0,0,0.1,0,0.1,0c0.1,0,0.1-0.1,0.2-0.1l27.2-23.9l-5.8-48.8l22,13.1
		c0.1-0.1,0.3-0.2,0.4-0.3c0.1,0,0.3-0.1,0.4-0.1c0,0,0,0,0,0l-23.2-13.8c-0.1,0-0.1,0.1-0.2,0.1
		C482.5,158.1,482.4,158.2,482.3,158.3z"/>
	<path class="st0" d="M463.5,230.5c0.3-0.2,0.7-0.5,1-0.7c0.3-0.2,0.7-0.5,1-0.7c0.3-0.2,0.7-0.5,1-0.7c0.3-0.2,0.7-0.5,1-0.7
		c0.3-0.2,0.6-0.5,1-0.7c0.3-0.2,0.6-0.5,0.9-0.7c0.3-0.2,0.6-0.5,0.9-0.7l5.7-5c0,0,0.1-0.1,0.1-0.1c0.3-0.2,0.5-0.5,0.8-0.7
		c0.2-0.2,0.5-0.5,0.7-0.7c0.2-0.2,0.5-0.5,0.7-0.7c0.2-0.2,0.5-0.5,0.7-0.7c0.2-0.2,0.5-0.5,0.7-0.7c0.2-0.2,0.4-0.4,0.7-0.7
		c0.2-0.2,0.4-0.4,0.7-0.7l0,0.1c0.1,0,0.2,0,0.4,0c0,0,0.1,0,0.1,0l8.4-7.4l-5.6-47.4l21.6,12.8c0,0-0.1-0.1-0.1-0.1
		c-0.1-0.1-0.1-0.1-0.2-0.2c-0.1-0.1-0.1-0.1-0.2-0.2c-0.1-0.1-0.1-0.2-0.2-0.2c-0.1-0.1-0.1-0.2-0.2-0.3c-0.1-0.2,0-0.3,0-0.4
		l-22-13.1l5.8,48.8l-27.2,23.9c0.3-0.2,0.5-0.3,0.8-0.5C462.8,231,463.2,230.7,463.5,230.5z"/>
	<path class="st0" d="M507,174.1c-0.1,0-0.1-0.1-0.2-0.1c-0.1,0-0.1-0.1-0.2-0.1c-0.1,0-0.2-0.1-0.2-0.1c-0.1-0.1-0.2-0.1-0.2-0.1
		l1.1,0.6C507.2,174.2,507.1,174.1,507,174.1z"/>
	<path class="st0" d="M490.1,208.1l-8.4,7.4c0.1,0,0.2-0.1,0.3-0.1c0.1-0.1,0.3-0.1,0.5-0.2c0.2-0.1,0.3-0.2,0.5-0.3
		c0.2-0.1,0.3-0.2,0.5-0.3c0.2-0.1,0.3-0.2,0.5-0.3c0.2-0.1,0.3-0.2,0.5-0.3c0.2-0.1,0.3-0.2,0.4-0.3c0.1-0.1,0.3-0.2,0.4-0.3
		c0.1-0.1,0.3-0.2,0.4-0.3c0.1-0.1,0.3-0.2,0.4-0.3c0.1-0.1,0.3-0.2,0.4-0.3c0.1-0.1,0.3-0.2,0.4-0.3c0.2-0.1,0.3-0.2,0.4-0.3
		c0.1-0.1,0.2-0.1,0.2-0.1s0,0,0,0.1l3.8-3.3l-5.4-45.9l22.9,13.6c0,0,0-0.1,0-0.1c-0.1-0.2-0.2-0.4-0.3-0.5
		c-0.1-0.1-0.2-0.2-0.3-0.3c-0.1-0.1-0.2-0.2-0.2-0.2c-0.1-0.1-0.2-0.1-0.2-0.2c-0.1-0.1-0.2-0.2-0.3-0.3c0,0,0,0,0,0l-1.1-0.6
		c0,0,0,0,0,0c0,0-0.1,0-0.1,0c0,0,0,0,0,0l-21.6-12.8L490.1,208.1z"/>
	<path class="st0" d="M471.3,224.6c0.3-0.2,0.6-0.5,0.9-0.7c0.3-0.2,0.6-0.5,0.9-0.7c0.3-0.2,0.6-0.5,0.8-0.7
		c0.3-0.2,0.5-0.5,0.8-0.7c0.3-0.2,0.5-0.5,0.8-0.7c0.2-0.2,0.4-0.4,0.7-0.6l-5.7,5c0,0,0,0,0,0C470.7,225.1,471,224.9,471.3,224.6z
		"/>
	<path class="st0" d="M487.7,212.2c0,0.1,0.1,0.2,0.1,0.3l2.9-2.6c0.3-0.7,0.6-1.5,0.9-2.2c0.2-0.4,0.3-0.9,0.5-1.3l-5-42.5
		l21.6,12.8c0,0,0-0.1,0-0.1c0.1-0.3,0.1-0.5,0-0.8l-22.9-13.6l5.4,45.9l-3.8,3.3c0,0,0,0.1,0.1,0.2
		C487.5,211.9,487.6,212,487.7,212.2z"/>
	<path class="st0" d="M487.9,213c0,0.1,0.1,0.3,0.1,0.4c0,0,0,0,0,0l2-1.7c0.2-0.5,0.4-1,0.6-1.5c0-0.1,0.1-0.1,0.1-0.2l-2.9,2.6
		c0,0,0,0.1,0,0.1C487.8,212.7,487.9,212.8,487.9,213z"/>
	<path class="st0" d="M492.1,206.5c0.1-0.3,0.3-0.6,0.4-0.9c0.2-0.4,0.3-0.7,0.4-1.1l-4.6-39l20,11.9c0-0.1,0-0.1,0-0.1
		c0,0,0-0.1,0.1-0.1c0.1-0.1,0.2-0.3,0.2-0.4L487,163.9L492.1,206.5z"/>
	<path class="st0" d="M488.3,214.1c0,0,0,0.1,0,0.1l1-0.9c0-0.1,0.1-0.2,0.1-0.4c0.2-0.4,0.3-0.8,0.5-1.3l-2,1.7
		c0,0.1,0.1,0.2,0.1,0.4C488.2,213.9,488.2,214,488.3,214.1z"/>
	<path class="st0" d="M493.7,202.5l-4.2-35.5l18.6,11c0.1-0.1,0.1-0.2,0.1-0.3c0.1-0.1,0.1-0.2,0.1-0.3l-20-11.9l4.6,39
		c0.1-0.4,0.3-0.7,0.4-1C493.4,203.1,493.6,202.7,493.7,202.5z"/>
	<path class="st0" d="M488.4,214.5c0.1,0.2,0.1,0.4,0.1,0.5c0,0,0,0.1,0,0.1l0.2-0.2c0-0.1,0-0.1,0.1-0.2c0-0.1,0.1-0.2,0.1-0.3
		c0-0.1,0.1-0.2,0.1-0.3c0.1-0.2,0.2-0.5,0.3-0.8l-1,0.9C488.3,214.4,488.4,214.4,488.4,214.5z"/>
	<path class="st0" d="M493.8,202.3c0,0,0.1,0,0.2,0c0.1,0,0.1,0,0.2,0c0.1,0,0.1,0,0.2-0.1c0.1,0,0.1-0.1,0.2-0.1c0,0,0,0,0.1,0
		l-4-33.7l17.2,10.2c0.1-0.2,0.1-0.3,0.2-0.4c0-0.1,0.1-0.1,0.1-0.2l-18.6-11l4.2,35.5C493.7,202.3,493.8,202.2,493.8,202.3
		C493.8,202.2,493.8,202.2,493.8,202.3z"/>
	<path class="st0" d="M488.6,215.8C488.6,215.8,488.6,215.8,488.6,215.8C488.6,215.8,488.6,215.7,488.6,215.8c0.1-0.1,0-0.2,0-0.3
		C488.6,215.6,488.6,215.7,488.6,215.8z"/>
	<path class="st0" d="M494.9,201.9c0.1,0,0.1-0.1,0.2-0.1c0.1,0,0.1-0.1,0.2-0.1c0.1,0,0.1-0.1,0.2-0.2c0,0,0,0,0,0l-3.7-31.6
		l15.8,9.4c0,0,0-0.1,0-0.1c0.1-0.2,0.1-0.3,0.2-0.5c0,0,0,0,0,0l-17.2-10.2l4,33.7c0,0,0.1,0,0.1-0.1
		C494.8,202,494.8,202,494.9,201.9z"/>
	<path class="st0" d="M488.6,215.5C488.6,215.5,488.6,215.5,488.6,215.5C488.6,215.5,488.6,215.5,488.6,215.5c0-0.1,0.1-0.2,0.1-0.4
		c0-0.1,0-0.1,0.1-0.2l-0.2,0.2c0,0,0,0.1,0,0.1C488.6,215.3,488.6,215.4,488.6,215.5z"/>
	<path class="st0" d="M495.5,201.5c0.1,0,0.1-0.1,0.2-0.1c0.1-0.1,0.1-0.1,0.2-0.2c0.1-0.1,0.1-0.1,0.2-0.2c0.1-0.1,0.1-0.1,0.2-0.2
		c0,0,0.1-0.1,0.1-0.1l-0.3-2.5l0,0c0,0,0,0-0.1,0c0,0,0,0,0-0.1c0,0,0,0,0-0.1l-3.2-26.8l14.4,8.6c0-0.1,0.1-0.1,0.1-0.2
		c0.1-0.1,0.1-0.2,0.2-0.4l-15.8-9.4L495.5,201.5z"/>
	<path class="st0" d="M496.2,197.8c0,0,0.1-0.1,0.1-0.1c0,0,0.1-0.1,0.1-0.2c0,0,0.1-0.1,0.1-0.2c0-0.1,0.1-0.1,0.1-0.2
		c0-0.1,0.1-0.1,0.1-0.2c0,0,0.1-0.1,0.1-0.1l-2.9-24.4l13.1,7.8c0.1-0.1,0.1-0.2,0.2-0.4c0-0.1,0.1-0.1,0.1-0.2l-14.4-8.6l3.2,26.8
		c0,0,0-0.1,0.1-0.1C496.1,197.9,496.1,197.9,496.2,197.8z"/>
	<path class="st0" d="M496.5,200.5c0.1-0.1,0.1-0.1,0.2-0.2c0.1-0.1,0.1-0.1,0.2-0.2c0,0,0.1-0.1,0.1-0.1c0,0,0.1-0.1,0.1-0.1
		c0,0,0-0.1,0.1-0.1c0,0,0,0,0,0l-0.3-2.2l-0.8,0.5l0.3,2.5c0,0,0,0,0,0C496.4,200.6,496.4,200.6,496.5,200.5z"/>
	<path class="st0" d="M497.2,199.8C497.2,199.7,497.2,199.7,497.2,199.8c0.1-0.1,0.1-0.1,0.1-0.1c0,0,0,0,0.1-0.1c0,0,0,0,0.1-0.1
		c0,0,0,0,0.1-0.1c0,0,0,0,0.1-0.1c0,0,0,0,0.1-0.1c0,0,0,0,0.1-0.1c0,0,0,0,0.1-0.1c0,0,0,0,0-0.1c0,0,0,0,0-0.1c0,0,0,0,0,0
		l-0.2-2c-0.1,0.1-0.2,0.1-0.2,0.2c-0.1,0.1-0.2,0.2-0.3,0.3l-0.2,0.2l0.3,2.2C497.1,199.9,497.1,199.9,497.2,199.8
		C497.1,199.8,497.2,199.8,497.2,199.8z"/>
	<path class="st0" d="M496.7,196.9C496.8,196.9,496.8,196.9,496.7,196.9l0.1-0.1l0,0c0,0,0,0,0-0.1c0,0,0,0,0-0.1c0,0,0,0,0-0.1
		c0,0,0,0,0-0.1c0,0,0,0,0-0.1c0,0,0,0,0-0.1c0,0,0,0,0-0.1c0,0,0,0,0-0.1c0,0,0,0,0,0c0,0,0,0,0,0c0,0,0,0,0,0c0,0,0,0,0,0
		c0,0,0,0,0,0c0,0,0,0,0,0c0,0,0,0,0,0c0,0,0,0,0,0c0,0,0,0,0,0c0,0,0,0,0,0c0,0,0,0,0,0c0,0,0,0,0,0c0,0,0,0,0,0l-2.6-21.9l11.8,7
		c0,0,0-0.1,0.1-0.1c0.1-0.1,0.1-0.2,0.2-0.4c0,0,0,0,0,0l-13.1-7.8L496.7,196.9z"/>
	<path class="st0" d="M497.9,199C497.9,199,497.9,198.9,497.9,199C498,198.9,498,198.9,497.9,199c0.1-0.1,0.1-0.1,0.1-0.1
		c0,0,0,0,0,0c0,0,0,0,0,0c0,0,0,0,0,0c0,0,0,0,0,0c0,0,0,0,0,0c0,0,0,0,0,0c0,0,0,0,0,0c0,0,0,0,0,0c0,0,0,0,0,0c0,0,0,0,0,0
		c0,0,0,0,0,0c0,0,0,0,0,0c0,0,0,0,0,0c0,0,0,0,0,0c0,0,0,0,0,0c0,0,0,0,0,0c0,0,0,0,0.1-0.1l-0.2-1.9c0,0,0,0,0,0c0,0,0,0,0,0
		c0,0,0,0,0,0c0,0,0,0,0,0c0,0,0,0,0,0c0,0,0,0,0,0c0,0,0,0,0,0c0,0,0,0,0,0c0,0,0,0,0,0c0,0,0,0,0,0c0,0,0,0,0,0c0,0,0,0,0,0
		c0,0,0,0,0,0c0,0,0,0,0,0c0,0,0,0,0,0c0,0,0,0,0,0c0,0,0,0,0,0c0,0,0,0,0,0c0,0,0,0,0,0c0,0,0,0,0,0c0,0,0,0,0,0c0,0,0,0,0,0
		c0,0,0,0,0,0c0,0,0,0-0.1,0L497.9,199C497.9,199,497.9,199,497.9,199C497.9,199,497.9,199,497.9,199z"/>
	<path class="st0" d="M497.5,195.8C497.5,195.7,497.5,195.7,497.5,195.8C497.5,195.7,497.5,195.7,497.5,195.8
		C497.6,195.7,497.6,195.7,497.5,195.8c0.1-0.1,0.1-0.1,0.1-0.1c0,0,0,0,0,0c0,0,0,0,0,0c0,0,0,0,0,0c0,0,0,0,0,0c0,0,0,0,0,0
		c0,0,0,0,0,0c0,0,0,0,0,0c0,0,0,0,0,0c0,0,0,0,0,0c0,0,0,0,0,0c0,0,0,0,0-0.1c0,0,0,0,0-0.1c0,0,0,0,0-0.1c0,0,0,0,0-0.1
		c0,0,0,0,0-0.1c0,0,0,0,0-0.1c0,0,0,0,0-0.1c0,0,0,0,0-0.1c0,0,0,0,0-0.1l-2.3-19.6l10.6,6.3c0-0.1,0.1-0.2,0.1-0.3
		c0-0.1,0.1-0.2,0.1-0.2l-11.8-7L497.5,195.8C497.5,195.8,497.5,195.8,497.5,195.8C497.5,195.8,497.5,195.8,497.5,195.8z"/>
	<path class="st0" d="M499.3,197.3l-0.2-1.8c0,0,0,0,0,0c0,0,0,0,0,0c0,0,0,0,0,0c0,0,0,0,0,0c0,0,0,0,0,0c0,0,0,0,0,0c0,0,0,0,0,0
		c0,0,0,0,0,0c0,0,0,0,0,0c0,0,0,0,0,0c0,0,0,0,0,0c0,0,0,0,0,0c-0.1,0.1-0.2,0.2-0.3,0.3c0,0,0,0,0,0c0,0,0,0,0,0l0.2,1.9
		C498.9,197.9,499.1,197.6,499.3,197.3z"/>
	<path class="st0" d="M498.2,194.6C498.3,194.6,498.3,194.6,498.2,194.6c0.1-0.1,0.1-0.1,0.1-0.1l0.1,0l0-0.1c0,0,0-0.1,0.1-0.1
		c0,0,0-0.1,0.1-0.1c0,0,0-0.1,0.1-0.1c0,0,0-0.1,0.1-0.1c0,0,0-0.1,0.1-0.1c0,0,0-0.1,0.1-0.1c0,0,0-0.1,0-0.1c0,0,0-0.1,0-0.1
		c0,0,0,0,0-0.1c0,0,0,0,0,0l-2-17.3l9.4,5.6c0,0,0-0.1,0.1-0.1c0.1-0.1,0.1-0.2,0.2-0.3c0,0,0,0,0-0.1l-10.6-6.3L498.2,194.6
		C498.2,194.7,498.2,194.7,498.2,194.6C498.2,194.7,498.2,194.6,498.2,194.6z"/>
	<path class="st0" d="M500,196.4l-0.2-1.5c0,0,0,0-0.1,0c0,0,0,0,0,0c0,0,0,0,0,0c0,0,0,0,0,0c0,0,0,0,0,0c0,0,0,0,0,0c0,0,0,0,0,0
		c0,0,0,0,0,0c0,0,0,0,0,0c0,0,0,0,0,0c0,0,0,0,0,0c0,0,0,0,0,0c0,0,0,0,0,0c0,0,0,0,0,0c0,0,0,0,0,0c0,0,0,0,0,0c0,0,0,0-0.1,0.1
		c0,0,0,0,0,0c0,0,0,0,0,0c0,0,0,0,0,0l0.2,1.8C499.6,197,499.8,196.7,500,196.4z"/>
	<path class="st0" d="M499,193.5C499,193.5,499,193.4,499,193.5c0.1-0.1,0.1-0.1,0.1-0.1c0,0,0,0,0-0.1c0,0,0,0,0-0.1c0,0,0,0,0-0.1
		c0,0,0,0,0-0.1c0,0,0,0,0,0c0,0,0,0,0,0c0,0,0,0,0,0c0,0,0,0,0,0c0,0,0,0,0,0c0,0,0,0,0,0c0,0,0,0,0,0c0,0,0,0,0,0c0,0,0,0,0-0.1
		c0,0,0,0,0-0.1c0,0,0,0,0-0.1c0,0,0,0,0-0.1c0,0,0,0,0,0l-1.8-15l8.2,4.9c0,0,0,0,0,0c0.1-0.1,0.1-0.2,0.2-0.3
		c0-0.1,0.1-0.1,0.1-0.2l-9.4-5.6l2,17.3C498.9,193.6,498.9,193.6,499,193.5C498.9,193.5,498.9,193.5,499,193.5z"/>
	<path class="st0" d="M500.7,195.7l-0.1-1.2c0,0,0,0,0,0c0,0,0,0,0,0c0,0,0,0,0,0c0,0,0,0,0,0c0,0,0,0,0,0c0,0,0,0,0,0c0,0,0,0,0,0
		c0,0,0,0,0,0c0,0,0,0,0,0c0,0,0,0,0,0c0,0,0,0,0,0c0,0,0,0,0,0c0,0,0,0,0,0c-0.1,0.1-0.2,0.2-0.3,0.2l0.2,1.5
		c0.3-0.4,0.5-0.6,0.5-0.6C500.6,195.8,500.6,195.7,500.7,195.7z"/>
	<path class="st0" d="M499.5,192.5C499.5,192.5,499.6,192.5,499.5,192.5C499.6,192.5,499.6,192.5,499.5,192.5
		c0.1-0.1,0.1-0.1,0.1-0.1c0,0,0,0,0-0.1c0,0,0,0,0-0.1c0,0,0,0,0-0.1c0,0,0,0,0-0.1c0,0,0,0,0-0.1c0,0,0,0,0-0.1c0,0,0,0,0-0.1
		c0,0,0-0.1,0-0.1c0,0,0-0.1,0.1-0.1c0,0,0-0.1,0.1-0.1c0,0,0-0.1,0.1-0.1c0,0,0-0.1,0.1-0.1c0,0,0,0,0,0l-1.5-12.8l7,4.2
		c0-0.1,0.1-0.1,0.1-0.2c0-0.1,0.1-0.2,0.1-0.2l-8.2-4.9L499.5,192.5z"/>
	<path class="st0" d="M500.3,191.3C500.3,191.3,500.3,191.3,500.3,191.3c0.1-0.1,0.1-0.2,0.1-0.2c0,0,0-0.1,0.1-0.1
		c0,0,0-0.1,0.1-0.1c0,0,0-0.1,0.1-0.1c0.1-0.1,0.1-0.2,0.2-0.3l-1.3-10.7l5.8,3.5c0-0.1,0.1-0.1,0.1-0.2c0-0.1,0.1-0.1,0.1-0.2
		c0,0,0,0,0,0l-7-4.2l1.5,12.8C500.2,191.5,500.2,191.4,500.3,191.3C500.3,191.4,500.3,191.4,500.3,191.3z"/>
	<path class="st0" d="M501,195.6l0.3-0.5c0,0,0.1-0.1,0.1-0.1l-0.2-1.3c0,0,0,0-0.1,0.1c-0.1,0.1-0.1,0.1-0.2,0.2
		c0,0-0.1,0.1-0.1,0.1c0,0,0,0,0,0c0,0,0,0,0,0c0,0,0,0,0,0c0,0,0,0,0,0c0,0,0,0,0,0c0,0,0,0,0,0c0,0,0,0,0,0c0,0,0,0,0,0l0.1,1.2
		c0.1,0,0.1-0.1,0.2-0.1L501,195.6z"/>
	<path class="st0" d="M502,194.5l-0.2-1.4c0,0,0,0,0,0c-0.1,0.1-0.2,0.2-0.2,0.3c-0.1,0.1-0.2,0.2-0.2,0.2c-0.1,0.1-0.1,0.1-0.2,0.2
		l0.2,1.3C501.6,194.9,501.8,194.7,502,194.5z"/>
	<path class="st0" d="M500.4,180.8l4.6,2.7c0,0,0,0,0.1-0.1c0,0,0.1-0.1,0.1-0.1c0-0.1,0.1-0.1,0.1-0.2c0,0,0,0,0,0l-5.8-3.5
		l1.3,10.7c0.2-0.3,0.4-0.7,0.6-1L500.4,180.8z"/>
	<path class="st0" d="M502.1,194.4C502.1,194.4,502.1,194.4,502.1,194.4C502.1,194.4,502.1,194.4,502.1,194.4
		c0.1-0.1,0.1-0.1,0.1-0.1c0,0,0,0,0,0c0,0,0,0,0,0c0,0,0,0,0,0c0,0,0,0,0,0c0,0,0,0,0,0c0,0,0,0,0,0c0,0,0,0,0,0c0,0,0,0,0,0
		c0,0,0,0,0,0c0,0,0,0,0-0.1c0,0,0,0,0-0.1c0,0,0,0,0,0l-0.2-1.5l-0.1,0.2c-0.1,0.1-0.2,0.2-0.3,0.3c-0.1,0.1-0.2,0.2-0.2,0.3
		L502.1,194.4C502,194.5,502,194.5,502.1,194.4C502,194.4,502.1,194.4,502.1,194.4z"/>
	<path class="st0" d="M501.2,181.9l3.9,2.3c0,0,0,0,0,0c-0.1-0.1-0.1-0.2-0.1-0.2c-0.1-0.1-0.1-0.2-0.1-0.2c0,0,0.1-0.1,0.1-0.1
		c0,0,0,0,0.1-0.1l-4.6-2.7l1,8.7c0.2-0.3,0.4-0.7,0.6-0.9L501.2,181.9z"/>
	<path class="st0" d="M502,188.6c0.2-0.4,0.4-0.7,0.6-0.9l-0.6-4.8l3.6,2.1c0,0,0,0,0-0.1c-0.1-0.1-0.1-0.2-0.2-0.3
		c-0.1-0.1-0.1-0.2-0.2-0.3c0-0.1-0.1-0.1-0.1-0.2l-3.9-2.3L502,188.6z"/>
	<path class="st0" d="M502.7,193.7C502.7,193.7,502.8,193.7,502.7,193.7c0.1-0.1,0.1-0.1,0.1-0.1c0,0,0,0,0.1-0.1c0,0,0,0,0.1-0.1
		c0,0,0,0,0.1-0.1c0,0,0,0,0.1-0.1c0,0,0-0.1,0.1-0.1c0,0,0-0.1,0.1-0.1c0,0,0,0,0-0.1l-0.2-1.5c0,0,0,0,0,0c0,0,0,0.1-0.1,0.1
		c0,0,0,0.1-0.1,0.1c0,0,0,0-0.1,0.1c0,0,0,0-0.1,0.1c0,0,0,0-0.1,0.1c0,0,0,0-0.1,0.1c0,0,0,0-0.1,0.1c0,0,0,0-0.1,0.1
		c0,0,0,0,0,0.1c0,0,0,0,0,0.1l0,0l0,0.1L502.7,193.7C502.7,193.8,502.7,193.8,502.7,193.7C502.7,193.8,502.7,193.7,502.7,193.7z"/>
	<path class="st0" d="M502.9,187.4c0,0,0,0.1,0.1,0.1c0,0,0,0.1,0.1,0.1c0,0,0,0.1,0.1,0.1c0,0,0,0.1,0.1,0.1c0,0,0,0.1,0.1,0.1
		c0,0,0,0.1,0.1,0.1c0,0,0,0,0,0l-0.5-4.1l3.2,1.9c0,0,0-0.1,0-0.1c-0.1-0.1-0.1-0.3-0.2-0.4c0-0.1-0.1-0.2-0.1-0.3l-3.6-2.1
		l0.6,4.8C502.7,187.5,502.8,187.4,502.9,187.4C502.8,187.4,502.8,187.4,502.9,187.4z"/>
	<path class="st0" d="M503.3,193C503.4,193,503.4,193,503.3,193c0.1-0.1,0.1-0.2,0.1-0.2c0,0,0.1-0.1,0.1-0.1c0,0,0.1-0.1,0.1-0.1
		c0,0,0.1-0.1,0.1-0.1c0,0,0.1-0.1,0.1-0.1c0,0,0,0,0,0l-0.2-1.5c0,0-0.1,0.1-0.1,0.1c0,0-0.1,0.1-0.1,0.1c0,0-0.1,0.1-0.1,0.1
		c0,0,0,0.1-0.1,0.1c0,0,0,0.1-0.1,0.1c0,0,0,0.1-0.1,0.1c0,0,0,0.1-0.1,0.1c0,0,0,0.1-0.1,0.1l0.2,1.5
		C503.2,193.1,503.3,193.1,503.3,193C503.3,193.1,503.3,193,503.3,193z"/>
	<path class="st0" d="M503.4,188.2C503.4,188.2,503.5,188.2,503.4,188.2c0.1,0.1,0.1,0.1,0.1,0.1c0,0,0.1,0.1,0.1,0.1
		c0,0,0.1,0.1,0.1,0.1c0,0,0.1,0.1,0.1,0.1c0,0,0.1,0.1,0.1,0.1c0,0,0.1,0.1,0.1,0.1c0,0,0,0,0,0l-0.5-4l2.7,1.6
		c0-0.1-0.1-0.2-0.1-0.3c0-0.1-0.1-0.2-0.2-0.4l-3.2-1.9l0.5,4.1C503.3,188,503.3,188.1,503.4,188.2
		C503.4,188.1,503.4,188.1,503.4,188.2z"/>
	<path class="st0" d="M503.9,192.3c0,0,0.1-0.1,0.1-0.1c0,0,0.1-0.1,0.1-0.1c0,0,0.1-0.1,0.1-0.1c0,0,0.1-0.1,0.1-0.1
		c0,0,0.1-0.1,0.1-0.1c0,0,0,0,0,0l-0.2-1.5c0,0,0,0,0,0c0,0-0.1,0.1-0.1,0.1c0,0-0.1,0.1-0.1,0.1c0,0-0.1,0.1-0.1,0.1
		c0,0-0.1,0.1-0.1,0.1c0,0-0.1,0.1-0.1,0.1c0,0-0.1,0.1-0.1,0.1c0,0,0,0,0,0L503.9,192.3C503.8,192.4,503.9,192.3,503.9,192.3z"/>
	<path class="st0" d="M504.5,191.3c0-0.1,0.1-0.1,0.1-0.2c0-0.1,0.1-0.1,0.1-0.2c0-0.1,0.1-0.1,0.1-0.2c0,0,0,0,0,0l-0.6-5l2.1,1.2
		c0-0.1,0-0.2-0.1-0.3c0-0.1-0.1-0.2-0.1-0.3l-2.7-1.6l0.5,4c0,0,0.1,0.1,0.1,0.1c0,0,0.1,0.1,0.1,0.1c0,0,0.1,0.1,0.1,0.1
		c0,0,0.1,0.1,0.1,0.1c0,0,0.1,0.1,0.1,0.1c0,0,0.1,0,0.1,0.1l0,0.1c0,0-0.1,0.1-0.1,0.2c0,0-0.1,0.1-0.1,0.1c0,0-0.1,0.1-0.1,0.1
		c0,0-0.1,0.1-0.1,0.1c0,0-0.1,0.1-0.1,0.1l0.2,1.5c0,0,0.1-0.1,0.1-0.1C504.5,191.4,504.5,191.4,504.5,191.3z"/>
	<path class="st0" d="M504.9,190.8c0-0.1,0.1-0.1,0.1-0.2c0-0.1,0.1-0.1,0.1-0.2c0-0.1,0.1-0.2,0.1-0.2c0-0.1,0.1-0.2,0.1-0.2
		c0,0,0,0,0,0l-0.4-3.2l1.5,0.9c0-0.2,0-0.3-0.1-0.5l-2.1-1.2L504.9,190.8z"/>
	<path class="st0" d="M505.6,189.3C505.6,189.3,505.7,189.2,505.6,189.3c0.1-0.1,0.1-0.1,0.1-0.1c0,0,0.1,0,0.1-0.1l-0.2-1.6
		l0.8,0.5c0-0.1,0-0.3,0-0.5l-1.5-0.9l0.4,3.2c0-0.1,0.1-0.2,0.1-0.2C505.6,189.5,505.6,189.4,505.6,189.3z"/>
	<path class="st0" d="M505.9,189.1C505.9,189.1,505.9,189.1,505.9,189.1c0.1-0.1,0.2-0.1,0.2-0.2c0.1-0.1,0.1-0.1,0.2-0.2
		c0.1-0.1,0.1-0.2,0.1-0.3l0,0l0,0c0,0,0,0,0-0.1c0-0.1,0.1-0.2,0.1-0.3l-0.8-0.5L505.9,189.1z"/>
	<path class="st0" d="M506.4,188.4L506.4,188.4C506.4,188.4,506.4,188.4,506.4,188.4L506.4,188.4z"/>
</g>
</svg>
