<?xml version="1.0" encoding="utf-8"?>
<!-- Generator: Adobe Illustrator 22.0.1, SVG Export Plug-In . SVG Version: 6.00 Build 0)  -->
<svg version="1.1" id="レイヤー_1" xmlns="http://www.w3.org/2000/svg" xmlns:xlink="http://www.w3.org/1999/xlink" x="0px"
	 y="0px" viewBox="0 0 640 640" style="enable-background:new 0 0 640 640;" xml:space="preserve">
<style type="text/css">
	.st0{fill:none;stroke:#E50012;stroke-width:0.1802;stroke-miterlimit:10;}
	.st1{fill:none;stroke:#E50012;stroke-width:0.2113;stroke-miterlimit:10;}
</style>
<g>
	<path class="st0" d="M250.9,497c-0.2-0.1-0.2-0.3-0.2-0.3l0.7,2l0.7-0.3C251.6,497.8,251.2,497.4,250.9,497z"/>
	<path class="st0" d="M252.6,501c0,0,0,0.6,0.2,1.1c0,0.1,0.2,0.3,0.2,0.4l2.1-1.1c-0.5-0.4-0.8-0.8-1.2-1.2
		c-0.2-0.1-0.2-0.2-0.4-0.3l-1.6,0.8C252.2,500.8,252.3,501,252.6,501z"/>
	<path class="st0" d="M276.3,492.9c-0.3,0-0.5,0.1-0.7,0.1c-0.3,0-0.5,0.1-0.8,0.1s-0.5,0.1-0.8,0.1c-0.2,0.1-0.5,0.1-0.8,0.3
		c-0.2,0.1-0.6,0.2-0.8,0.3c-0.3,0.2-0.5,0.3-0.7,0.4c-0.3,0.2-0.5,0.4-0.7,0.6c-0.2,0.2-0.5,0.5-0.6,0.8c-0.1,0.1-0.1,0.3-0.2,0.4
		l6.6-3.2C276.8,492.9,276.6,492.9,276.3,492.9z"/>
	<path class="st0" d="M253.9,502.9c0,0,0,0.1,0.2,0.4c0.1,0.2,0.2,0.4,0.3,0.6l2.2-1c-0.5-0.5-1-1-1.5-1.5l-2.1,1.1
		C253.2,502.8,253.5,502.9,253.9,502.9z"/>
	<path class="st0" d="M270.2,498.3l15.7-7.8c-0.6-0.2-1.2-0.4-1.9-0.3c-0.4,0-0.7,0.1-1.1,0.2c-0.3,0-0.6,0.2-0.9,0.3
		c-0.2,0.1-0.6,0.2-0.8,0.3c-0.2,0.1-0.5,0.3-0.7,0.3c-0.2,0.1-0.4,0.2-0.7,0.3c-0.2,0.1-0.3,0.2-0.5,0.3c-0.2,0.1-0.3,0.2-0.5,0.3
		c-0.3,0.2-0.4,0.3-0.5,0.3c-0.1,0.2-0.3,0.2-0.3,0.2s-0.1,0-0.4,0c-0.1,0-0.4,0-0.7,0.1c0,0,0,0-0.1,0l-6.6,3.2
		c-0.1,0.3-0.2,0.6-0.3,0.9C270,497.4,270.1,497.9,270.2,498.3z"/>
	<path class="st0" d="M287.7,590.7c0.2,0.4,0.4,0.7,0.6,1.2c0.3,0.7,0.6,1.3,1,1.9c0.3,0.6,0.7,1.2,0.9,1.8c0.3,0.5,0.6,1.2,0.9,1.7
		c0.2,0.3,0.3,0.7,0.6,1l-0.9-6.2L287.7,590.7z"/>
	<path class="st0" d="M254.8,504.7c0.3,0.4,0.8,0.6,1.4,0.2c0,0,0,0.1,0,0.3l1.8-0.9c-0.1-0.1-0.2-0.1-0.2-0.2
		c-0.5-0.4-0.8-0.8-1.2-1.2l0,0l-2.2,1C254.5,504.2,254.6,504.4,254.8,504.7z"/>
	<path class="st0" d="M256.4,505.8c0.1,0.3,0.3,0.8,0.7,1.1l2.3-1.2c-0.2-0.1-0.3-0.3-0.5-0.4c-0.3-0.3-0.6-0.7-1-1l-1.8,0.9
		C256.3,505.3,256.3,505.6,256.4,505.8z"/>
	<path class="st0" d="M270.6,500.2l16.8-8.3c-0.2-0.3-0.6-0.7-0.8-0.9l-0.5-0.3c-0.1-0.1-0.1-0.1-0.2-0.1l-15.7,7.8
		C270.2,498.9,270.3,499.5,270.6,500.2z"/>
	<path class="st0" d="M292.9,600.5c0.3,0.5,0.5,1,0.9,1.4c0.3,0.5,0.6,0.9,0.8,1.4c0.1,0.1,0.1,0.2,0.2,0.3l-2-13.4l-6.9-3.4
		c0.2,0.3,0.3,0.5,0.3,0.8c0.3,0.7,0.7,1.5,1,2.2c0.2,0.3,0.3,0.6,0.4,0.9l3,1.5l0.9,6.2c0.1,0.2,0.2,0.4,0.3,0.5
		C292.3,599.5,292.6,600,292.9,600.5z"/>
	<path class="st0" d="M276.3,581.5C276.4,581.6,276.4,581.6,276.3,581.5C276.4,581.6,276.4,581.5,276.3,581.5
		c0.1-0.1,0.1-0.2,0.1-0.3C276.4,581.3,276.4,581.4,276.3,581.5z"/>
	<path class="st0" d="M283,582.9c0.4,0.5,0.8,0.9,1.1,1.2l0.1-1.1l-1.6-0.8C282.7,582.3,282.8,582.6,283,582.9z"/>
	<path class="st0" d="M259.5,507.4l0.2,0.2l1.1-0.5c-0.2-0.2-0.5-0.4-0.6-0.7c-0.2-0.2-0.5-0.5-0.7-0.7l-2.3,1.2l0.1,0.1
		C257.6,507.4,258.4,507.6,259.5,507.4z"/>
	<path class="st0" d="M288.3,493.4c-0.1-0.3-0.3-0.6-0.3-0.8c-0.2-0.3-0.3-0.5-0.4-0.7l-16.8,8.3c0.2,0.6,0.4,1,0.7,1.6L288.3,493.4
		z"/>
	<path class="st0" d="M294.8,603.6c0.2,0.3,0.4,0.6,0.6,0.9c0.3,0.4,0.5,0.8,0.8,1.2c0.2,0.3,0.5,0.8,0.7,1.1
		c0.2,0.3,0.5,0.7,0.8,1.1l-2.8-19.8l-10.5-5.1c0.3,0.7,0.6,1.4,0.9,2.1c0.3,0.5,0.4,1,0.8,1.6l6.9,3.4L294.8,603.6z"/>
	<path class="st0" d="M276.6,579.6c0,0.4,0,0.6,0,0.9c0,0.3,0,0.5-0.1,0.7c0.1-0.2,0.3-0.5,0.6-0.8c0.2-0.2,0.4-0.5,0.6-0.7l-1-0.5
		C276.5,579.3,276.6,579.5,276.6,579.6z"/>
	<path class="st0" d="M261.4,508.7l1.8-0.9c-0.2-0.3-0.5-0.4-0.7-0.3c0.1-0.1,0.1-0.2,0.1-0.2l-1.3,0.2c-0.2-0.1-0.3-0.3-0.5-0.5
		l-1.1,0.5l0.2,0.2L261.4,508.7z"/>
	<path class="st0" d="M298.2,608.8c0.1,0.2,0.3,0.4,0.4,0.6c0.1,0.2,0.3,0.4,0.4,0.6s0.3,0.4,0.4,0.6c0.1,0.1,0.1,0.2,0.2,0.3
		c0,0,0.2,0.1,0.2,0.3c0.1,0.1,0.2,0.2,0.3,0.4l-3.6-25.3l-16.8-8.2c0.1,0.2,0.3,0.5,0.4,0.7c0.2,0.3,0.3,0.5,0.5,0.8
		c0.2,0.3,0.3,0.5,0.5,0.8c0.2,0.3,0.3,0.5,0.6,0.9c0.2,0.3,0.4,0.6,0.6,0.9c0.1,0.1,0.1,0.1,0.2,0.1l1.6,0.8l0-0.3
		c0,0.1,0.1,0.2,0.2,0.4l10.5,5.1l2.8,19.8c0.1,0.1,0.1,0.2,0.2,0.3C297.9,608.4,298,608.6,298.2,608.8z"/>
	<path class="st0" d="M278.8,578.1c0.2-0.2,0.3-0.4,0.4-0.5l-2.7-1.3c0,0.3,0,0.4,0,0.6c0,0.3,0,0.6,0,0.8c0,0.3,0,0.6,0,0.9
		c0,0.1,0,0.3,0,0.5l1,0.5c0.1-0.2,0.3-0.3,0.4-0.5C278.3,578.9,278.5,578.6,278.8,578.1z"/>
	<path class="st0" d="M288.8,495.2c0-0.1-0.1-0.3-0.1-0.5c-0.1-0.3-0.2-0.7-0.3-0.9c-0.1-0.1,0-0.1-0.1-0.2l-16.9,8.3
		c0.3,0.5,0.6,1,0.9,1.6L288.8,495.2z"/>
	<path class="st0" d="M262,509.1l-0.5,0.9l-0.3,0.7l0.1,0.1l2.7-1.3c-0.1-0.3-0.2-0.7-0.4-1c-0.1-0.2-0.2-0.4-0.3-0.5l-1.8,0.9
		l0.1,0.1L262,509.1z"/>
	<path class="st0" d="M301,612.4c0.2,0.2,0.3,0.4,0.5,0.6c0.2,0.2,0.4,0.5,0.6,0.7c0.2,0.2,0.4,0.5,0.6,0.7c0,0,0,0,0.1,0.1l-4.4-30
		l-21.9-10.8c0,0.1,0,0.3,0,0.4c0,0.3,0,0.5,0,0.8c0,0.3,0,0.5,0,0.8s0,0.5,0,0.8l0,0.1l2.7,1.3c0.2-0.2,0.3-0.3,0.3-0.3
		s0.1,0.2,0.3,0.5c0,0,0,0,0.1,0.1l16.8,8.2l3.6,25.3c0.1,0.1,0.2,0.1,0.2,0.3C300.6,612,300.9,612.2,301,612.4z"/>
	<path class="st0" d="M272.3,503.4c0,0-0.1,0.2-0.2,0.4c-0.1,0.3-0.3,0.7-0.5,1.2c-0.1,0.2-0.2,0.4-0.2,0.6l17.7-8.7
		c0-0.3,0-0.4-0.1-0.6c0-0.3,0-0.6-0.1-0.8c0-0.1-0.1-0.2-0.1-0.3L272.3,503.4C272.3,503.3,272.3,503.4,272.3,503.4z"/>
	<path class="st0" d="M270.8,507.8l19.1-9.5c-0.5-0.3-0.8-0.4-0.8-0.4l0-0.1c0-0.3,0-0.4-0.1-0.7l0-0.1l-17.7,8.7
		c-0.1,0.2-0.2,0.5-0.3,0.8C271,506.8,270.8,507.3,270.8,507.8z"/>
	<path class="st0" d="M304,615.8c0.2,0.2,0.4,0.5,0.7,0.7c0.2,0.2,0.3,0.4,0.5,0.6l-5-34.5l-23.8-11.7c0,0.1,0,0.3,0,0.4
		c-0.1,0.2,0,0.4,0,0.6c-0.1,0.2,0,0.4,0,0.6c0,0.3,0,0.4,0.1,0.7c0,0.1-0.1,0.2,0,0.3l21.9,10.8l4.4,30.1c0.2,0.2,0.4,0.5,0.5,0.6
		C303.6,615.3,303.8,615.5,304,615.8z"/>
	<path class="st0" d="M261.5,511.3l0.4,0.9l2.3-1.1c0.1-0.1,0-0.1,0.1-0.2c0,0,0,0,0-0.1c-0.1-0.2-0.1-0.6-0.2-1.1
		c-0.1-0.1,0-0.1-0.1-0.2l-2.7,1.3l0.3,0.5L261.5,511.3z"/>
	<path class="st0" d="M301.9,493.6L301.9,493.6c0.1-0.1,0.1-0.1,0.2-0.1l1.5-10.9l-0.1,0l0,0l-0.6-1.8l-0.4-1c0.1,0.2,0,1.3-0.3,2.9
		c-0.3,2-0.7,4.8-1.1,7.3c0,0.4-0.1,0.7-0.2,1c0,0.4-0.2,0.7-0.2,1c0,0.4-0.2,0.7-0.1,0.9c0,0.4-0.2,0.7-0.1,0.9
		c0,0.4-0.2,0.7-0.1,0.9c-0.1,0.1,0,0.1-0.1,0.2l1.2-0.6L301.9,493.6z"/>
	<path class="st0" d="M261.9,512.2l0.4,1.1c0,0.1,0.1,0.2,0.2,0.4l1.6-0.8c0-0.4-0.1-0.7,0.1-1c0-0.3,0.1-0.6,0.1-0.8L261.9,512.2
		L261.9,512.2z"/>
	<path class="st0" d="M270.3,509.8l21.1-10.4c-0.7-0.4-1.2-0.8-1.5-1l-19.1,9.5c-0.1,0.1-0.1,0.2-0.1,0.2
		C270.6,508.5,270.5,509.1,270.3,509.8z"/>
	<path class="st0" d="M306.1,617.9c0.3,0.3,0.5,0.5,0.8,0.8c0.2,0.2,0.5,0.4,0.7,0.7l-5.6-38.6l-25.5-12.6l0,0c0,0.1,0,0.4,0,0.6
		c0,0.1,0,0.4,0,0.6c0,0.1,0,0.4,0,0.6c-0.1,0.2,0,0.4,0,0.6c0,0.1,0,0.1,0,0.3l23.8,11.7l5,34.5c0.1,0.1,0.1,0.1,0.2,0.1
		C305.6,617.4,305.8,617.7,306.1,617.9z"/>
	<path class="st0" d="M262.9,515.2l1.2-0.6c0-0.1-0.1-0.3-0.1-0.5c-0.1-0.3-0.1-0.7-0.2-1.1l0,0l-1.6,0.8c0.1,0.2,0.2,0.4,0.3,0.6
		C262.7,514.6,262.8,514.8,262.9,515.2z"/>
	<path class="st0" d="M303.3,490.2c-0.1-0.3-0.3-0.6-0.3-0.6c0.1,0,0.3-0.1,0.5-0.1c0.5-0.3,0.5-0.9,0.5-1.5
		c-0.1-0.6-0.3-1.3-0.3-1.3c1-0.5,0.6-1.5,0.3-2c-0.2-0.3-0.2-0.3-0.2-0.3c0.3-0.3,0.6-1,0.8-1.4c0.1-0.3,0.2-0.5,0.2-0.5l0,0
		l-0.9,0.1l-1.5,10.9C303.8,492.6,303.6,491.1,303.3,490.2z"/>
	<path class="st0" d="M270.2,510.8c-0.1,0.2,0,0.5-0.1,0.8l22.7-11.2c-0.5-0.4-0.9-0.8-1.4-1l-21.1,10.4c0,0,0,0-0.1,0.1
		C270.3,510.1,270.2,510.5,270.2,510.8z"/>
	<path class="st0" d="M308.4,620.2c0.3,0.3,0.6,0.5,0.9,0.8c0.2,0.1,0.3,0.3,0.5,0.4l-6.1-42.3l-27.2-13.4c0,0.1,0,0.3,0,0.5
		c0,0.1,0,0.3,0,0.5c0,0.1,0,0.3,0,0.5c0,0.1,0,0.4,0,0.5c0,0.1,0,0.4,0,0.5l25.5,12.6l5.6,38.6l0.1,0.1
		C307.8,619.7,308.1,620,308.4,620.2z"/>
	<path class="st0" d="M300.3,495.7c-0.4-0.2-0.6-0.2-0.8-0.3c-0.2-0.1-0.3,0.1-0.3,0.4c-0.1,0.2,0,0.6,0.1,1c0,0.1,0,0.3,0.1,0.3
		l1.6-0.8l-0.1-0.1l0.2-0.4l0.3-0.8l0.3-0.8l0,0l-1.2,0.6c0,0.4-0.1,0.6-0.2,0.7C300.3,495.7,300.3,495.7,300.3,495.7z"/>
	<path class="st0" d="M299.6,497.8c0.1,0.3,0.2,0.6,0.3,0.8l2.5-1.3l-0.1-0.2l-1.5-0.7l-1.6,0.8
		C299.4,497.4,299.5,497.6,299.6,497.8z"/>
	<path class="st0" d="M269.9,513.1c0,0.1-0.1,0.2,0,0.4l24.2-11.9c-0.2-0.1-0.3-0.3-0.5-0.4c-0.3-0.3-0.5-0.5-0.8-0.6l-22.7,11.2
		c0,0.1-0.1,0.2,0,0.4C269.9,512.3,269.9,512.7,269.9,513.1z"/>
	<path class="st0" d="M309.7,621.4c0.2,0.1,0.3,0.3,0.5,0.4c0.3,0.3,0.6,0.5,0.9,0.8c0.2,0.2,0.5,0.4,0.7,0.4l-6.6-45.6l-30.7-15.2
		c0.1,0.1,0,0.1,0.1,0.2c0.1,0.2,0.2,0.4,0.3,0.5c0.1,0.2,0.2,0.3,0.3,0.5s0.2,0.3,0.4,0.5c0.2,0.1,0.3,0.3,0.5,0.3
		c0.1,0.1,0.1,0,0.1,0s0,0.3,0,0.6c0,0.1,0,0.4,0.1,0.7l27.2,13.4L309.7,621.4z"/>
	<path class="st0" d="M263.4,516.2c0,0.1,0.1,0.2,0.1,0.3l1.1-0.5c-0.1-0.3-0.3-0.6-0.4-1c0-0.1-0.1-0.3-0.1-0.5l-1.2,0.6
		c0,0,0.1,0.1,0,0.1C263.1,515.6,263.3,515.9,263.4,516.2z"/>
	<path class="st0" d="M300,499.1c0.2,0.2,0.5,0.4,0.8,0.6l2-0.9l-0.1-0.9l0,0l-0.1-0.5l-2.5,1.3C300,498.8,300.1,498.9,300,499.1
		C300.1,499,300,499.1,300,499.1z"/>
	<path class="st0" d="M313.3,623.9c0.2,0.1,0.3,0.1,0.4,0.1l-7-48.2l-33.5-16.5c0,0.1,0.1,0.3,0.2,0.4c0.1,0.2,0.3,0.5,0.3,0.8
		c0.1,0.2,0.3,0.5,0.3,0.7c0.1,0.2,0.2,0.4,0.3,0.7c0.1,0.2,0.2,0.3,0.3,0.5l30.7,15.2l6.6,45.6c0.1,0.1,0.2,0.2,0.3,0.3
		C312.5,623.6,312.9,623.8,313.3,623.9z"/>
	<path class="st0" d="M264.1,517.8l1.1-0.5c0-0.1-0.2-0.3-0.2-0.4c-0.2-0.3-0.3-0.6-0.4-0.9l0,0l-1.1,0.5c0.1,0.2,0.2,0.4,0.3,0.6
		S264,517.6,264.1,517.8z"/>
	<path class="st0" d="M269.7,515.1l25.4-12.5c-0.4-0.3-0.8-0.8-1.1-1l-24.2,11.9c-0.1,0.2,0,0.5-0.1,0.7
		C269.8,514.4,269.8,514.7,269.7,515.1z"/>
	<path class="st0" d="M315,623.8L315,623.8l0.3-0.3c0,0,0.1,0.1,0.2,0.1l-7.2-49.2l-32.8-16.2c0,0.1,0.1,0.2,0,0.3l-0.3,0.3
		c-0.2-0.1-0.2-0.3-0.4-0.6c-0.1-0.1-0.1-0.2-0.2-0.3l-2.4-1.2c0.1,0.2,0.2,0.6,0.3,0.8c0.1,0.2,0.2,0.6,0.3,0.8
		c0.1,0.2,0.2,0.6,0.3,0.8c0,0.1,0.1,0.2,0.1,0.3l33.5,16.5l7,48.2C314.3,624.2,314.7,624.1,315,623.8z"/>
	<path class="st0" d="M269.7,516.1c0,0.1,0,0.4,0,0.5l26.5-13c-0.3-0.3-0.5-0.6-0.8-0.9c-0.1-0.1-0.2-0.1-0.2-0.2l-25.4,12.5
		c0,0,0,0,0,0.1C269.8,515.5,269.8,515.8,269.7,516.1z"/>
	<path class="st0" d="M264.6,518.8c0.1,0.1,0.1,0.2,0.2,0.3l1.2-0.6c-0.2-0.3-0.3-0.5-0.4-0.7c-0.1-0.2-0.2-0.3-0.3-0.5l-1.1,0.5
		c0.1,0.1,0.1,0.1,0.1,0.2C264.3,518.3,264.5,518.6,264.6,518.8z"/>
	<path class="st0" d="M301.5,500.6c0.1,0.1,0.1,0.2,0.2,0.3l1.4-0.8c0-0.1-0.1-0.2,0-0.3c-0.1-0.5-0.3-0.8-0.3-0.8l0-0.3l0,0l-2,0.9
		C301.1,500,301.3,500.3,301.5,500.6z"/>
	<path class="st0" d="M265.4,520.3l1.3-0.6c-0.1-0.1-0.2-0.1-0.2-0.3c-0.2-0.3-0.4-0.5-0.6-0.8l-0.1-0.1l-1.2,0.6
		c0.1,0.2,0.2,0.4,0.3,0.5C265.1,519.8,265.3,520.1,265.4,520.3z"/>
	<path class="st0" d="M269.8,518l0,0.1l27.4-13.5c-0.2-0.1-0.3-0.4-0.5-0.5c-0.2-0.1-0.3-0.4-0.5-0.5l-26.5,13c0,0.1,0,0.3,0,0.4
		C269.7,517.4,269.7,517.7,269.8,518z"/>
	<path class="st0" d="M274.2,556.7c-0.2-0.3-0.3-0.5-0.4-0.7s-0.3-0.6-0.3-0.8c-0.1-0.1-0.1-0.2-0.2-0.3l-2.1-1
		c0.1,0.2,0.2,0.4,0.3,0.5c0,0,0.1,0.1,0.1,0.2c0.1,0.2,0.2,0.6,0.3,0.9c0.1,0.2,0.2,0.6,0.3,0.9l0,0l2.4,1.2
		c-0.1-0.1-0.1-0.2-0.2-0.3C274.4,557.2,274.3,556.9,274.2,556.7z"/>
	<path class="st0" d="M317.2,624l-7.4-51.1l-34.8-17.2c0,0,0.1,0.1,0,0.1c0.1,0.3,0.1,0.6,0.1,0.9c0.1,0.3,0.1,0.6,0.1,0.9
		c0.1,0.2,0,0.4,0.1,0.6l32.8,16.2l7.2,49.2c0.2,0.1,0.7,0.3,1.2,0.4C316.8,624,317,623.9,317.2,624z"/>
	<path class="st0" d="M302.3,502.1l1.2-0.6c-0.1-0.2-0.1-0.3-0.2-0.6c0-0.3-0.2-0.6-0.3-0.8l-1.4,0.8c0.2,0.3,0.4,0.6,0.5,1
		C302.2,501.9,302.3,502,302.3,502.1z"/>
	<path class="st0" d="M302.8,503.3l1.1-0.5c-0.1-0.3-0.1-0.6-0.3-0.9c0-0.1,0-0.3-0.1-0.3l-1.2,0.6c0.1,0.2,0.2,0.6,0.3,0.8
		C302.6,503,302.7,503.2,302.8,503.3z"/>
	<path class="st0" d="M318.6,623.7c0,0,0.1-0.1,0.1,0l-7.6-52.2l-36.7-18.2c0.1,0.2,0.1,0.3,0.1,0.6c0.1,0.3,0.1,0.6,0.2,1
		c0,0.3,0.1,0.6,0.2,0.8l34.8,17.2l7.3,51.1C317.6,624,318.1,623.9,318.6,623.7z"/>
	<path class="st0" d="M273,554.1c-0.2-0.1-0.3-0.3-0.4-0.5c-0.2-0.3-0.3-0.5-0.5-0.8s-0.3-0.6-0.4-0.9l0,0l-1.8-0.9l0,0
		c0.1,0.3,0.3,0.6,0.4,1c0.2,0.3,0.3,0.6,0.4,0.9c0.2,0.3,0.3,0.5,0.4,0.9l0,0l2.1,1c-0.1-0.2-0.2-0.4-0.2-0.6
		C273.1,554.2,273,554.1,273,554.1z"/>
	<path class="st0" d="M266,521.2c0.1,0.1,0.2,0.1,0.1,0.2l3.2-1.6l-1.1,0.2l-1.2,0.2c-0.2-0.1-0.2-0.3-0.5-0.5l-1.3,0.6
		c0.1,0.1,0.1,0.1,0.1,0.2C265.6,520.8,265.9,521,266,521.2z"/>
	<path class="st0" d="M269.8,518.9c0,0.3,0,0.4,0.1,0.7l28.2-13.9c-0.2-0.1-0.2-0.3-0.3-0.4c-0.2-0.3-0.4-0.5-0.6-0.7L269.7,518
		C269.8,518.4,269.7,518.6,269.8,518.9z"/>
	<path class="st0" d="M270.9,549.9c-0.1-0.2-0.2-0.4-0.3-0.6l-1.6-0.8c0,0.1,0.1,0.2,0,0.3c0.1,0.3,0.3,0.8,0.3,1.2
		c0.1,0.3,0.2,0.7,0.3,1l1.8,0.9c-0.2-0.3-0.3-0.6-0.4-1C271.2,550.6,271,550.2,270.9,549.9z"/>
	<path class="st0" d="M303,504.5C303.1,504.6,303.1,504.6,303,504.5l1.1-0.5c0-0.1,0-0.3-0.1-0.3c0-0.3-0.1-0.6-0.2-0.8l0,0
		l-1.1,0.5c0,0.1,0,0.3,0.1,0.3C302.9,504.1,303,504.3,303,504.5z"/>
	<path class="st0" d="M269.3,519.8l-3.2,1.6c0.1,0.2,0.2,0.3,0.5,0.5c0.2,0.1,0.2,0.3,0.4,0.5l31.8-15.7c-0.1-0.1-0.2-0.3-0.2-0.3
		c-0.2-0.3-0.4-0.5-0.6-0.7l-28.2,13.9l0,0.1L269.3,519.8z"/>
	<path class="st0" d="M312.5,570L274,550.9c0,0.3,0.1,0.6,0.2,0.8c0.1,0.3,0.2,0.7,0.2,1.1c0,0.1,0,0.3,0.1,0.5l36.7,18.2l7.6,52.2
		c0.5-0.3,1-0.6,1.5-1.1L312.5,570z"/>
	<path class="st0" d="M269.9,546.9l-1.2-0.6c0,0.3,0,0.6,0.1,0.9c0,0.4,0.2,0.8,0.3,1.3l1.6,0.8c0-0.1-0.1-0.3-0.1-0.5
		C270.3,548.1,270.1,547.4,269.9,546.9z"/>
	<path class="st0" d="M321.4,622.3c0.1,0.1,0.1,0,0.2,0.1c0,0,0,0,0.1,0l-7.8-53.9l-40.4-20c0,0.3,0.1,0.6,0.1,0.9
		c0.1,0.3,0.1,0.8,0.2,1.1c0.1,0.1,0,0.1,0.1,0.2l38.5,19.1l7.6,52.5c0.1-0.1,0.2-0.2,0.3-0.3C320.7,622.3,321.1,622.3,321.4,622.3z
		"/>
	<path class="st0" d="M303.3,505.9l1.2-0.6c0-0.3-0.1-0.5-0.1-0.8c0-0.1-0.1-0.3-0.1-0.5l-1.1,0.5c0,0.3,0.1,0.5,0.1,0.7
		C303.2,505.6,303.2,505.7,303.3,505.9z"/>
	<path class="st0" d="M268,523.3L268,523.3l31.5-15.5c-0.1-0.1-0.2-0.3-0.2-0.3c-0.2-0.3-0.4-0.5-0.6-0.7l-31.8,15.7
		c0.1,0.1,0.2,0.1,0.2,0.2C267.4,522.8,267.7,523.1,268,523.3z"/>
	<path class="st0" d="M303.3,506.7c0,0.1,0,0.4,0,0.5l1.4-0.7c0-0.1,0-0.3,0-0.4c0-0.3-0.1-0.5-0.1-0.8l0,0l-1.2,0.6l0,0.1
		C303.2,506.3,303.3,506.6,303.3,506.7z"/>
	<path class="st0" d="M300.4,508.6l-0.4-0.2c-0.2-0.3-0.3-0.4-0.4-0.6l-31.5,15.5l2,0.4L300.4,508.6z"/>
	<path class="st0" d="M269.9,546.7c-0.2-0.6-0.3-1-0.3-1.2l0,0c0.2,0.1,0.6-0.1,1-0.3l-2.3-1.2c0,0.3,0.2,0.6,0.4,0.9c0,0,0,0,0,0.1
		c0,0.1,0,0.6,0.1,1l0,0.1l1.2,0.6C270,546.8,269.9,546.7,269.9,546.7z"/>
	<path class="st0" d="M323.2,622.2l-8-54.9l-42.2-20.8c0.1,0.6,0.2,1.3,0.4,2c0.1,0.1,0,0.1,0,0.3l40.4,20l7.8,53.9
		C322.2,622.4,322.8,622.4,323.2,622.2z"/>
	<path class="st0" d="M271.7,544.7l1.2,0.6c0,0.3,0.1,0.6,0.2,1.1l0,0.1l42.2,20.8l8,54.9c0.1-0.1,0.2-0.1,0.2-0.1
		c0.4-0.2,0.8-0.5,1-0.7l-8.1-55.4l-47.8-23.6c-0.2,0.2-0.2,0.4-0.3,0.7c-0.1,0.3-0.1,0.6-0.1,0.9l0,0.1l2.3,1.2
		c0.1-0.1,0.1,0,0.2-0.1C271,545,271.4,544.9,271.7,544.7z"/>
	<path class="st0" d="M270.3,524.3c0,0.1,0,0.3,0.1,0.5l34.4-16.9c0-0.1,0-0.1,0-0.3c0-0.3,0-0.4-0.1-0.7c0-0.1,0-0.1,0-0.3
		l-1.4,0.7l0,0.1c-0.1,0.2,0,0.4,0,0.6c0,0.4,0,0.5-0.1,0.6l0,0l-0.6,0.2l-0.6,0.3l-0.6,0.2l-0.9-0.5l-30.4,15l0.1,0.1
		C270.2,523.9,270.2,524.2,270.3,524.3z"/>
	<path class="st0" d="M270.5,525.7c0,0.1,0.1,0.2,0,0.3l34.2-16.8c0.1-0.1,0-0.1,0.1-0.2c0.1-0.2,0-0.4,0-0.6c0-0.1,0-0.3,0-0.4
		l-34.4,16.9c0.1,0.1,0,0.1,0.1,0.2C270.4,525.2,270.4,525.5,270.5,525.7z"/>
	<path class="st0" d="M325.5,620.2c0.1,0.1,0.3,0.1,0.4,0.2l-8-55.6l-48-23.7l0,0c-0.2,0.2-0.3,0.4-0.5,0.6
		c-0.2,0.2-0.3,0.4-0.4,0.7l-0.1,0.1l47.8,23.6l8.1,55.4c0.1-0.1,0.1-0.2,0.2-0.2C325.1,620.7,325.5,620.2,325.5,620.2z"/>
	<path class="st0" d="M327,619.6l-8.1-56.1l-47.9-23.6c-0.1,0.1-0.1,0.1-0.1,0.2c-0.1,0.2-0.4,0.3-0.6,0.5c-0.1,0.2-0.4,0.3-0.6,0.5
		l48,23.7l8,55.6l0.1,0C326.3,620.4,326.7,620.1,327,619.6z"/>
	<path class="st0" d="M270.6,526.3c0,0.1,0,0.1,0,0.3c0,0,0.4-0.2,0.9-0.4c1.1-0.5,2.8-1.1,3.5-1.1l29.7-14.6c0-0.1,0.1-0.2,0-0.4
		c0.1-0.2,0-0.4,0.1-0.6c0-0.1,0-0.3,0-0.4L270.7,526C270.5,526.1,270.6,526.2,270.6,526.3z"/>
	<path class="st0" d="M327.9,618.1c0.1-0.2,0.1-0.4,0.2-0.6l-8-55.2l-48.6-24c0.1,0.2,0.1,0.3,0.2,0.6c0.1,0.2,0.2,0.3,0.2,0.3
		c0,0-0.2,0.1-0.4,0.3c-0.1,0.2-0.3,0.2-0.5,0.4l47.9,23.6l8.1,56.1c0.1-0.1,0.1-0.1,0.1-0.2C327.4,619.2,327.6,618.7,327.9,618.1z"
		/>
	<path class="st0" d="M275.1,525.1c0,0,0.4,0.2,0.7,0.4c0.1,0.1,0.2,0.1,0.3,0.3L304,512l0,0c0.1-0.1,0.2-0.2,0.2-0.4
		c0.1-0.1,0.1-0.3,0.1-0.4c0-0.1,0.1-0.3,0.1-0.4l0-0.1l-29.7,14.6C275,525.1,275.1,525.1,275.1,525.1z"/>
	<path class="st0" d="M276.1,526.7c-0.2,0.2-0.7,0.5-1.4,0.8c0,0-1.3,0.1-2.3,0.5c-0.5,0.3-0.9,0.4-1.2,0.8
		c-0.2,0.2-0.3,0.4-0.4,0.7c-0.1,0.1,0,0.1-0.1,0.2l32.4-16c-0.1-0.2-0.2-0.3-0.3-0.5l0.1-0.4c0.1,0,0.3-0.1,0.6-0.2
		c0.1,0,0.3-0.2,0.3-0.2c0.1-0.1,0.2-0.2,0.3-0.3l-27.9,13.8c0.2,0.1,0.2,0.2,0.2,0.3C276.4,526.2,276.5,526.4,276.1,526.7z"/>
	<path class="st0" d="M328,617.5c0.1-0.3,0.2-0.6,0.3-0.9c0.2-0.5,0.3-1.1,0.4-1.6c0.1-0.2,0.1-0.4,0.2-0.7l-7.7-53.1l-50.1-24.7
		c0,0.3,0.1,0.5,0.1,0.7c0,0.3,0,0.6,0.1,0.8c0,0.1,0,0.3,0.1,0.3l48.6,24L328,617.5z"/>
	<path class="st0" d="M329.3,611.7c0.1-0.4,0.1-0.9,0.2-1.4l-7.3-50.3l-51.3-25.4c0,0.1,0,0.1,0,0.3c0,0.3,0,0.4,0.1,0.7
		c0,0.3,0.1,0.5,0.1,0.7l0,0l50.1,24.7l7.8,53.2c0-0.4,0.2-0.7,0.1-0.9C329.1,612.8,329.2,612.2,329.3,611.7z"/>
	<path class="st0" d="M270.7,530.4l0,0.1l0,0l32.9-16.2l-0.1-0.1c-0.1-0.2-0.2-0.4-0.3-0.7c-0.1-0.1,0-0.1-0.1-0.2l-32.4,16
		c0,0.1-0.1,0.2,0,0.4C270.6,530.1,270.6,530.2,270.7,530.4z"/>
	<path class="st0" d="M329.8,608.5c0.1-0.6,0.1-1.1,0.2-1.6c0-0.4,0.1-0.8,0.1-1.2l-6.8-46.8L270.7,533l0,0c0,0.1,0,0.4,0,0.6
		c0,0.1,0,0.4,0,0.6c0,0.1,0,0.3,0,0.4l51.3,25.4l7.3,50.3c0.1-0.1,0-0.1,0.1-0.2C329.7,609.5,329.7,609,329.8,608.5z"/>
	<path class="st0" d="M270.7,531.4c0,0.1-0.1,0.2,0,0.3l28.8-14.2c0.1-0.2,0.1-0.3,0.2-0.4c0.1-0.1,0.1-0.1,0.1-0.1
		c0.1-0.1,0.1-0.2,0.2-0.2c0.1-0.1,0.2-0.1,0.3-0.2c0.1-0.1,0.2-0.1,0.3-0.2c0.1-0.1,0.2-0.1,0.3-0.1s0.2-0.1,0.3-0.1
		c0.1,0,0.2-0.1,0.3,0c0.1-0.1,0.1,0,0.2-0.1c0.1,0,0.3,0,0.3-0.1c0.1,0,0.3,0,0.3-0.1c0.1-0.1,0.1,0,0.2-0.1l1.4-0.7
		c-0.1-0.1-0.1-0.2-0.2-0.3c-0.1-0.2-0.2-0.4-0.3-0.5l-32.9,16.2C270.7,530.7,270.7,531,270.7,531.4z"/>
	<path class="st0" d="M303.3,515.8c0.1,0,0.3-0.1,0.5-0.1c0.3,0,0.4,0,0.4,0l-0.1-0.1c-0.1-0.1-0.1-0.2-0.1-0.2l-1.4,0.7
		c0.1-0.1,0.1,0,0.2-0.1C303,515.8,303.1,515.8,303.3,515.8z"/>
	<path class="st0" d="M270.8,532.5c0,0.1,0,0.4,0,0.6l52.6,25.9l6.8,46.8c0-0.1,0.1-0.2,0-0.4c0-0.5,0.1-1.1,0.1-1.5
		c0.1-0.6,0.1-1.1,0.1-1.5c0.1-0.7,0.1-1.2,0.1-1.5c0.1-0.1,0-0.1,0-0.1c0-0.1,0-0.1,0-0.3l-6.1-42.6L271.9,532l27.2-13.4
		c-0.1-0.2,0-0.4,0-0.6c0.1-0.2,0.1-0.3,0.2-0.5l0,0l-28.8,14.2c0,0.1,0,0.1,0,0.3C270.7,532.1,270.7,532.3,270.8,532.5z"/>
	<path class="st0" d="M330.4,597.8c0-0.5-0.1-1,0-1.5s-0.1-1,0-1.5c0-0.5-0.1-1,0-1.5c0-0.4-0.1-1-0.1-1.4s-0.1-1-0.1-1.4
		c0-0.4-0.1-1-0.1-1.4c0-0.4-0.1-0.9-0.2-1.3l-1.3-9l0-0.1c0-0.4-0.1-0.8-0.2-1.3c0-0.4-0.1-0.8-0.2-1.2c-0.1-0.3-0.1-0.8-0.2-1.1
		s-0.1-0.8-0.2-1.1c-0.1-0.3-0.1-0.8-0.2-1.1c-0.1-0.3-0.1-0.8-0.2-1.1c-0.1-0.3-0.2-0.7-0.2-1.1l0.1,0.1c0.1-0.1,0.2-0.2,0.2-0.4
		c0,0,0.1-0.1,0-0.1l-1.9-13.2l-50.8-25.1l26.8-13.2c-0.1,0.1-0.1,0-0.2,0.1c-0.1,0-0.2,0.1-0.3,0.1c-0.1,0-0.2,0.1-0.3,0.1
		c-0.1,0-0.3,0-0.4,0c-0.1,0-0.3,0-0.4,0c-0.2-0.1-0.3-0.1-0.4-0.3L272,532.1l52.3,25.9l6.1,42.6c0-0.4,0-0.8,0.1-1.1
		C330.5,598.8,330.5,598.4,330.4,597.8z"/>
	<path class="st0" d="M302.5,518.1c-0.1,0.1-0.2,0.1-0.3,0.2c-0.1,0.1-0.2,0.1-0.3,0.2c-0.1,0.1-0.2,0.1-0.3,0.2
		c-0.1,0.1-0.2,0.1-0.3,0.2l1.3-0.6C302.7,518,302.5,518.1,302.5,518.1z"/>
	<path class="st0" d="M325.3,556.9l1.9,13.2c0-0.1,0.1-0.2,0.1-0.4c0.1-0.2,0-0.4,0-0.6c0.1-0.2,0-0.4,0-0.6c0.1-0.2,0-0.4,0-0.6
		c0.1-0.2,0-0.4,0-0.6c0.1-0.2,0-0.4,0-0.6c0.1-0.2,0-0.4,0-0.6c0-0.3,0-0.4,0-0.6c0-0.3,0-0.4,0-0.6c0-0.3,0-0.4,0-0.6
		c0-0.3,0-0.4,0-0.6c0-0.3,0-0.4,0-0.6c0-0.3,0-0.4,0-0.6c0-0.1,0-0.3,0-0.3s0,0,0.1,0.1l-0.9-5.9l-49.2-24.3l28.3-14
		c-0.1-0.1-0.1-0.1-0.2-0.1c-0.2-0.1-0.4-0.1-0.7-0.1c-0.1,0-0.3,0-0.5,0.1c-0.1,0-0.3,0-0.4,0c-0.1,0-0.2,0.1-0.3,0.1
		c-0.1,0-0.3,0.1-0.5,0.1l0,0l-1.3,0.6l0,0l-0.1,0.1l0,0l-27,13.1L325.3,556.9z"/>
	<path class="st0" d="M329.6,586.3c0-0.4-0.1-0.9-0.2-1.3c0-0.4-0.1-0.9-0.2-1.3s-0.1-0.9-0.2-1.3c0-0.4-0.1-0.9-0.2-1.3
		c0-0.4-0.1-0.8-0.2-1.3c-0.1-0.3-0.1-0.8-0.2-1.1l1.3,9l0,0C329.7,587.3,329.7,586.8,329.6,586.3z"/>
	<path class="st0" d="M327.9,562c0.1,0,0.2,0.1,0.4,0.1l-0.7-4.6c-0.6-0.7-1-1.5-1.6-2.3c-0.3-0.4-0.6-0.9-1-1.3l-45.6-22.5
		l26.8-13.2l-0.1-0.1c-0.2-0.2-0.5-0.4-0.7-0.5l-28.3,14l49.2,24.3l0.9,5.9c0,0,0.1,0,0.2,0.1S327.7,562,327.9,562z"/>
	<path class="st0" d="M328.8,562.3c0.1,0,0.3,0.1,0.4,0.1l0,0l-0.5-3c-0.4-0.5-0.8-1.1-1.1-1.6c-0.1-0.1-0.2-0.1-0.2-0.3l0.7,4.6
		l0.1,0.1C328.5,562.2,328.6,562.2,328.8,562.3z"/>
	<path class="st0" d="M325,553.9c-0.2-0.3-0.5-0.7-0.7-1c-0.3-0.4-0.6-0.7-0.8-1.1l-41.8-20.7l24.9-12.2c-0.1-0.1-0.1-0.1-0.1-0.1
		s-0.1-0.1,0-0.1c-0.1-0.2-0.2-0.3-0.3-0.5l-26.8,13L325,553.9z"/>
	<path class="st0" d="M330.2,562.7c0.1,0.1,0.1,0.1,0.2,0.1l-0.2-1.6c-0.2-0.1-0.2-0.3-0.3-0.4c-0.3-0.4-0.6-0.8-1-1.3l0.5,3
		c0.1,0,0.3,0.1,0.4,0.1C329.9,562.6,330,562.5,330.2,562.7z"/>
	<path class="st0" d="M322.1,549.8L284,530.9l23-11.4c-0.2-0.1-0.2-0.3-0.2-0.3c-0.2-0.1-0.2-0.3-0.2-0.3l-24.8,12.3l41.7,20.6
		c-0.3-0.4-0.6-0.7-0.7-1C322.5,550.3,322.3,550,322.1,549.8z"/>
	<path class="st0" d="M330.6,562.8c0.2,0.1,0.4,0.1,0.6,0.2c0.1,0.1,0.1,0.1,0.1,0l0-0.4c-0.1-0.1-0.1-0.1-0.2-0.1
		c-0.1-0.1-0.2-0.3-0.2-0.3c-0.1-0.1-0.2-0.3-0.2-0.3c-0.2-0.3-0.4-0.5-0.6-0.7l0.2,1.6C330.4,562.7,330.5,562.7,330.6,562.8z"/>
	<path class="st0" d="M321.9,549.4c0.1-0.1,0.1-0.1,0.1-0.2c0.1-0.1,0.1-0.1,0.1-0.2c0.1-0.1,0-0.1,0.1-0.2c0.1-0.1,0-0.1,0.1-0.2
		c0,0,0,0,0-0.1l-36-17.9l21.3-10.5c-0.1-0.2-0.2-0.3-0.3-0.5c-0.1-0.1-0.1-0.1-0.1-0.2l-23,11.4l38.1,18.8
		C321.9,549.6,321.9,549.4,321.9,549.4L321.9,549.4z"/>
	<path class="st0" d="M332,563.3L332,563.3L332,563.3c-0.1-0.1-0.2-0.1-0.2-0.2C331.9,563.3,331.9,563.4,332,563.3z"/>
	<path class="st0" d="M322.3,548.2c0-0.1,0-0.1,0-0.3c0-0.1,0-0.1,0-0.3c0-0.1,0-0.1,0-0.3l0,0l-33.8-16.8l19.5-9.6l-0.1-0.1
		c-0.1-0.2-0.2-0.3-0.3-0.5c0,0,0,0-0.1-0.1l-21.3,10.5l36,17.9l0-0.1C322.3,548.3,322.3,548.2,322.3,548.2z"/>
	<path class="st0" d="M331.7,563.2L331.7,563.2L331.7,563.2c-0.1-0.1-0.2-0.3-0.2-0.3c-0.1-0.1-0.1-0.1-0.2-0.1l0,0.4l0.1,0.1
		C331.6,563.1,331.6,563.1,331.7,563.2z"/>
	<path class="st0" d="M322.2,547.3c0-0.1,0-0.1,0-0.3c0-0.1,0-0.1,0-0.3s0-0.1,0-0.3c0-0.1,0-0.1,0-0.3c-0.1-0.1,0-0.1,0-0.3
		l-2.7-1.3l0,0l-0.1,0.1c0,0,0,0-0.1-0.1c0,0,0,0-0.1-0.1l-28.8-14.2l17.9-8.8c-0.1-0.1-0.1-0.2-0.2-0.3c-0.2-0.1-0.2-0.3-0.2-0.3
		l-19.5,9.6L322.2,547.3z"/>
	<path class="st0" d="M319.1,544.3c-0.1-0.1,0-0.1-0.1-0.2c-0.1-0.1,0-0.1-0.1-0.2c-0.1-0.1,0-0.1-0.1-0.2s0-0.1-0.1-0.2
		c-0.1-0.1,0-0.1-0.1-0.2c-0.1-0.1,0-0.1-0.1-0.2l-26.1-12.9l16.3-8c-0.1-0.1-0.2-0.3-0.2-0.3c-0.1-0.1-0.1-0.2-0.2-0.3l-17.9,8.8
		l28.8,14.2c0,0-0.1-0.1,0-0.1C319.1,544.4,319.1,544.4,319.1,544.3z"/>
	<path class="st0" d="M322,545.7c0-0.1,0-0.1,0-0.3c0-0.1,0-0.1,0-0.3l0-0.1l0-0.1l0-0.1c0,0,0,0-0.1-0.1l-2.4-1.2l0,1.2l2.7,1.3
		l0,0C322,545.8,322,545.8,322,545.7z"/>
	<path class="st0" d="M321.7,544.5C321.7,544.5,321.6,544.4,321.7,544.5c0-0.1-0.1-0.2-0.1-0.2s-0.1-0.1,0-0.1c0,0-0.1-0.1,0-0.1
		c0,0-0.1-0.1,0-0.1c0,0-0.1-0.1,0-0.1c0,0-0.1-0.1,0-0.1c0,0-0.1-0.1,0-0.1c0,0-0.1-0.1,0-0.1c0,0,0,0-0.1-0.1c0,0,0,0-0.1-0.1
		c0,0,0,0-0.1-0.1l-2.1-1c0,0.1,0,0.3,0.1,0.3c0,0.1,0.1,0.3,0.1,0.5l0,0.4L321.7,544.5L321.7,544.5
		C321.7,544.6,321.7,544.5,321.7,544.5z"/>
	<path class="st0" d="M318.5,543.1C318.5,543.1,318.6,543,318.5,543.1l0-0.3l-0.1,0.1l-0.1-0.1l-0.1-0.1c0,0,0,0-0.1-0.1
		c0,0,0,0-0.1-0.1c0,0,0,0-0.1-0.1c0,0,0,0-0.1-0.1c0,0,0,0-0.1-0.1c0,0,0,0-0.1-0.1c0,0,0,0-0.1-0.1c0,0,0,0-0.1-0.1
		c0,0,0,0-0.1-0.1c0,0,0,0-0.1-0.1c0,0,0,0-0.1-0.1c0,0,0,0-0.1-0.1c0,0,0,0-0.1-0.1c0,0,0,0-0.1-0.1l0,0l0,0l0,0l0,0l0,0
		l-23.5-11.6l14.7-7.2l-0.1-0.1c-0.1-0.2-0.2-0.3-0.3-0.5c0,0,0,0-0.1-0.1l-16.3,8L318.5,543.1z"/>
	<path class="st0" d="M321.3,543.2C321.3,543.2,321.3,543.2,321.3,543.2c0-0.1,0-0.1,0-0.1s0,0-0.1-0.1c0,0,0,0-0.1-0.1
		c0,0,0,0-0.1-0.1c0,0,0,0-0.1-0.1c0,0,0,0-0.1-0.1c0,0,0,0-0.1-0.1c0,0,0,0-0.1-0.1l0,0l0,0l0,0l0,0l0,0l0,0l0,0l0,0l0,0l0,0
		c0,0-0.1-0.1,0-0.1l-2.1-1l0,0l0,0l0,0l0,0l0,0l0,0l0,0l0,0l0,0l0,0l0,0l0,0l0,0l0,0l0,0l0,0l0,0l0,0l0,0c0,0,0,0,0.1,0.1
		c0,0,0,0,0.1,0.1c0,0,0,0,0.1,0.1l0,0c0,0,0,0,0,0.1L321.3,543.2C321.3,543.3,321.3,543.3,321.3,543.2
		C321.3,543.3,321.3,543.3,321.3,543.2z"/>
	<path class="st0" d="M317.9,541.5L317.9,541.5L317.9,541.5c-0.1-0.1,0-0.1,0-0.1l0,0l0,0l0,0c0,0,0,0-0.1-0.1c0,0,0,0-0.1-0.1
		c0,0,0,0-0.1-0.1c0,0,0,0-0.1-0.1c0,0,0,0-0.1-0.1c0,0,0,0-0.1-0.1c0,0,0,0-0.1-0.1c0,0,0,0-0.1-0.1c0,0,0,0-0.1-0.1
		c0,0,0,0-0.1-0.1c0,0,0,0-0.1-0.1c0,0,0,0-0.1-0.1c0,0,0,0-0.1-0.1l-0.1-0.1l-0.1-0.1l-0.1-0.1c0,0,0,0-0.1-0.1l-21-10.4l13.1-6.4
		c-0.1-0.1-0.1-0.2-0.2-0.3c-0.1-0.1-0.1-0.2-0.2-0.3l-14.7,7.2L317.9,541.5C317.9,541.7,317.9,541.7,317.9,541.5
		C317.9,541.7,317.8,541.6,317.9,541.5z"/>
	<path class="st0" d="M320.6,540.8l-1.8-0.9l0,0c0,0,0,0,0.1,0.1c0,0,0,0,0.1,0.1c0,0,0,0,0.1,0.1c0,0,0,0,0.1,0.1l0,0l0,0l0,0l0,0
		l0,0l0,0l0,0c0,0.1,0,0.3,0.1,0.5l0,0l0,0l2.1,1C320.9,541.6,320.7,541.2,320.6,540.8z"/>
	<path class="st0" d="M317.2,540.2C317.2,540,317.2,540,317.2,540.2c0-0.1,0-0.1-0.1-0.2l0.1-0.1l-0.1-0.1c0,0-0.1-0.1,0-0.1
		c0,0-0.1-0.1,0-0.1c0,0-0.1-0.1,0-0.1c0,0-0.1-0.1,0-0.1l-0.1-0.1l-0.1-0.1l-0.1-0.1l-0.1-0.1l-0.1-0.1l0,0l-18.5-9.2l11.6-5.7
		c0,0-0.1-0.1,0-0.1c0-0.1-0.2-0.3-0.2-0.3l-0.1-0.1l-13.1,6.4L317.2,540.2C317.3,540.2,317.3,540.2,317.2,540.2L317.2,540.2z"/>
	<path class="st0" d="M320.2,539.6l-1.6-0.8c0,0,0,0-0.1,0.1l0,0l0,0l0,0l0,0l0,0l0,0l0,0l0,0l0,0l0,0c0,0,0,0,0.1,0.1
		c0,0,0,0,0.1,0.1c0,0,0,0,0.1,0.1c0,0,0,0,0.1,0.1c0,0,0,0,0.1,0.1c0,0,0.1,0.1,0,0.1c0,0,0,0,0.1,0.1c0,0,0,0,0.1,0.1l0,0l1.8,0.9
		C320.4,540.3,320.3,539.9,320.2,539.6z"/>
	<path class="st0" d="M316.5,538.7L316.5,538.7c0-0.1,0-0.1-0.1-0.2l-0.1-0.1l-0.1-0.1l-0.1-0.1c0,0,0,0-0.1-0.1l0,0
		c0,0,0,0-0.1-0.1c0,0,0,0-0.1-0.1c0,0,0,0-0.1-0.1c0,0,0,0-0.1-0.1c0,0,0,0-0.1-0.1c0,0,0,0-0.1-0.1c0,0,0,0-0.1-0.1
		c0,0,0,0-0.1-0.1c0,0,0,0-0.1-0.1c0,0,0,0-0.1-0.1c0,0,0,0-0.1-0.1c0,0,0,0-0.1-0.1l-16.1-7.9l10.2-5l0,0c-0.1-0.1-0.1-0.2-0.2-0.3
		c-0.1-0.1,0-0.1-0.1-0.2l-11.6,5.7l18.5,9.2C316.6,538.9,316.6,538.7,316.5,538.7C316.6,538.7,316.6,538.7,316.5,538.7z"/>
	<path class="st0" d="M319.8,538.3l-1.3-0.6l0,0l0,0l0,0l0,0l0,0l0,0l0,0l0,0l0,0l0,0l0,0l0,0l0,0c0,0.1,0,0.3,0,0.4l1.6,0.8
		c-0.2-0.6-0.3-0.9-0.3-0.9C319.9,538.5,319.8,538.5,319.8,538.3z"/>
	<path class="st0" d="M316,537.4L316,537.4L316,537.4c0-0.1,0-0.1-0.1-0.2l-0.1-0.1l-0.1-0.1l-0.1-0.1l-0.1-0.1l-0.1-0.1l-0.1-0.1
		l-0.1-0.1l-0.1-0.1l-0.1-0.1l-0.1-0.1l-0.1-0.1c0,0-0.1-0.1,0-0.1l0,0l-13.8-6.8l8.7-4.3c-0.1-0.1-0.1-0.2-0.2-0.3
		c-0.1-0.1-0.1-0.2-0.2-0.3l-10.2,5L316,537.4z"/>
	<path class="st0" d="M315.3,535.9c0,0-0.1-0.1,0-0.1c0,0-0.1-0.1,0-0.1c0,0-0.1-0.1,0-0.1c0,0-0.1-0.1,0-0.1c0,0-0.1-0.1,0-0.1
		c0-0.1-0.2-0.3-0.2-0.4l-11.4-5.7l7.2-3.6c-0.1-0.1-0.1-0.2-0.1-0.2c-0.1-0.1-0.1-0.2-0.2-0.3l0,0l-8.7,4.3l13.8,6.8l-0.1-0.1
		C315.3,536.1,315.2,536,315.3,535.9z"/>
	<path class="st0" d="M320,538.1l-0.3-0.6l0-0.1l-1.4-0.7c0,0,0.1,0.1,0,0.1c0,0.1,0.1,0.2,0.1,0.3l0,0.1c0,0,0,0,0.1,0.1
		c0,0,0,0,0.1,0.1c0,0,0,0,0.1,0.1c0,0,0,0,0.1,0.1l0,0l0,0l0,0l0,0L320,538.1c0.1-0.1,0.1-0.1,0.1-0.2L320,538.1z"/>
	<path class="st0" d="M319.5,536.2l-1.5-0.7l0,0c0,0.1,0,0.3,0.2,0.4c0,0.1,0,0.3,0.1,0.3c0,0.1,0,0.1,0,0.3l1.4,0.7
		C319.6,537,319.5,536.6,319.5,536.2z"/>
	<path class="st0" d="M304.9,529l5.7-2.9c0,0,0,0,0-0.1c-0.1-0.1,0-0.1-0.1-0.2s0-0.1-0.1-0.2l0,0l-7.2,3.6l11.4,5.7
		c-0.2-0.4-0.4-0.9-0.5-1.2L304.9,529z"/>
	<path class="st0" d="M319.5,536.2C319.5,536.2,319.4,536.2,319.5,536.2C319.5,536.1,319.5,536.1,319.5,536.2c0-0.1,0-0.1,0-0.1l0,0
		l0,0c0,0,0,0-0.1-0.1c0,0,0,0-0.1-0.1c0,0,0,0-0.1-0.1c0,0,0,0-0.1-0.1c0,0,0,0-0.1-0.1c0,0,0,0-0.1-0.1c0,0,0,0-0.1-0.1
		c0,0,0,0-0.1-0.1c0,0,0,0-0.1-0.1l0,0l-1.6-0.8l0.1,0.2c0,0.1,0.1,0.3,0.1,0.5s0,0.3,0.1,0.3L319.5,536.2L319.5,536.2L319.5,536.2z
		"/>
	<path class="st0" d="M306.4,528.9l4.8-2.4l0,0c-0.1,0-0.2-0.1-0.3,0c-0.1,0-0.3,0-0.3,0l0-0.1l0-0.1l-5.7,2.9l9.3,4.7
		c-0.2-0.4-0.3-0.8-0.6-1.2L306.4,528.9z"/>
	<path class="st0" d="M313.7,532.4c-0.3-0.5-0.4-0.9-0.6-1.2l-5.1-2.5l4.4-2.1c0,0,0,0-0.1-0.1c-0.1,0-0.3,0-0.4,0
		c-0.1,0-0.3,0-0.4,0c-0.1,0-0.2-0.1-0.3,0l-4.8,2.4L313.7,532.4z"/>
	<path class="st0" d="M319.2,535L319.2,535c0-0.1,0-0.1-0.1-0.2c0,0-0.1-0.1,0-0.1c0,0-0.1-0.1,0-0.1c0,0-0.1-0.1,0-0.1
		c0,0-0.1-0.1,0-0.1c0,0-0.1-0.1,0-0.1c0,0-0.1-0.1,0-0.1c0,0,0,0-0.1-0.1l-1.6-0.9l0,0c0,0,0.1,0.1,0,0.1c0,0,0.1,0.1,0,0.1
		c0,0,0.1,0.1,0,0.1c0,0,0.1,0.1,0,0.1c0,0,0.1,0.1,0,0.1c0,0,0.1,0.1,0,0.1c0,0,0.1,0.1,0,0.1c0,0,0.1,0.1,0,0.1l0.1,0.1l0.1,0.1
		l-0.1-0.1l0.1,0.1L319.2,535C319.3,535.2,319.2,535.2,319.2,535C319.2,535.2,319.3,535.1,319.2,535z"/>
	<path class="st0" d="M313.1,530.8l0.1,0l0.1,0l0.1,0l0.1,0l0.1,0l0.1,0l0,0l-4.4-2.2l3.9-1.9c0,0-0.1-0.1-0.1,0c-0.1,0-0.4,0-0.5,0
		c-0.1,0-0.2-0.1-0.4,0l-4.4,2.1l5.1,2.5C313,531.1,312.9,530.9,313.1,530.8C312.9,530.9,313,530.9,313.1,530.8z"/>
	<path class="st0" d="M318.9,534c0,0-0.1-0.1,0-0.1c0,0-0.1-0.1,0-0.1c0,0-0.1-0.1,0-0.1l0-0.1l0-0.1l0-0.1l0,0l-1.6-0.8l0,0.1
		l0,0.1c0,0,0.1,0.1,0,0.1c0,0,0.1,0.1,0,0.1c0,0,0.1,0.1,0,0.1c0,0,0.1,0.1,0,0.1c0,0,0.1,0.1,0,0.1c0,0,0.1,0.1,0,0.1l1.6,0.9l0,0
		C318.9,534.1,319,534.1,318.9,534z"/>
	<path class="st0" d="M314.1,530.8C314.2,530.8,314.3,530.8,314.1,530.8c0.1,0,0.1,0,0.3,0l0.1,0l0.1,0l0.1,0l0.1,0l0.1,0l0,0
		l-4.4-2.1l3.3-1.6c-0.1,0-0.2-0.1-0.4,0c-0.1,0-0.4,0-0.4-0.1l-3.9,1.9l4.4,2.2C314,530.8,314,530.8,314.1,530.8
		C314,530.8,314.1,530.8,314.1,530.8z"/>
	<path class="st0" d="M318.5,533c-0.1-0.1,0-0.1-0.1-0.2c-0.1-0.1,0-0.1-0.1-0.2s0-0.1-0.1-0.2c-0.1-0.1,0-0.1-0.1-0.2
		c-0.1-0.1,0-0.1-0.1-0.2l0,0l-1.6-0.8l0,0c0.1,0.1,0,0.1,0.1,0.2c0.1,0.1,0,0.1,0.1,0.2c0.1,0.1,0,0.1,0.1,0.2l0,0.1l0,0.1l0,0.1
		l0,0l1.6,0.8C318.6,533.1,318.5,533,318.5,533z"/>
	<path class="st0" d="M318,531.7c-0.1-0.1,0-0.1-0.1-0.2c-0.1-0.1-0.1-0.2-0.1-0.2c-0.1-0.1-0.1-0.2-0.1-0.2l0,0l-5.4-2.6l2.6-1.3
		c-0.1-0.1-0.2-0.1-0.3-0.1c-0.1-0.1-0.2-0.1-0.4,0l-3.3,1.6l4.4,2.1l0.1,0l0.1,0l0.1,0c0.1-0.1,0.1,0,0.1,0
		c0.1-0.1,0.1-0.1,0.2-0.1c0.1-0.1,0.1-0.1,0.1-0.2l0.1,0.1c0,0,0,0.1,0.1,0.2c0.1,0.1,0,0.1,0.1,0.2c0.1,0.1,0,0.1,0.1,0.2
		c0.1,0.1,0,0.1,0.1,0.2l0,0.1l1.6,0.8c-0.1-0.1,0-0.1-0.1-0.2C318.1,531.9,318,531.8,318,531.7z"/>
	<path class="st0" d="M317.7,531c-0.1-0.1-0.1-0.2-0.1-0.2c-0.1-0.1-0.1-0.2-0.2-0.3c-0.1-0.1-0.1-0.2-0.2-0.3
		c-0.1-0.1-0.1-0.2-0.2-0.3l0,0l-3.4-1.7l1.8-0.9c-0.2-0.1-0.4-0.2-0.6-0.2l-2.6,1.3L317.7,531z"/>
	<path class="st0" d="M316.7,529.3C316.6,529.3,316.6,529.3,316.7,529.3c0-0.1,0-0.1-0.1-0.2l0-0.1l-1.7-0.8l1-0.5
		c-0.2-0.1-0.3-0.3-0.4-0.2l-1.8,0.9l3.4,1.7c-0.1-0.1-0.1-0.2-0.2-0.3C316.8,529.5,316.8,529.4,316.7,529.3z"/>
	<path class="st0" d="M316.7,528.9L316.7,528.9c0-0.1,0-0.3-0.1-0.3c0-0.1-0.1-0.2-0.1-0.3c-0.1-0.1-0.1-0.2-0.2-0.3l0,0l0,0
		c0,0,0,0-0.1-0.1c-0.1-0.1-0.2-0.2-0.3-0.3l-1,0.5L316.7,528.9z"/>
	<path class="st0" d="M316.2,528L316.2,528L316.2,528L316.2,528z"/>
</g>
<g>
	<path class="st1" d="M333.5,337.5c-0.1-0.2,0-0.5,0-0.5l-0.6,2.4l0.9,0.1C333.6,338.6,333.5,337.9,333.5,337.5z"/>
	<path class="st1" d="M332.7,342.4c0,0-0.4,0.6-0.5,1.3c-0.1,0.1,0,0.4-0.1,0.5l2.8,0.2c-0.2-0.7-0.3-1.3-0.5-1.9
		c-0.1-0.2-0.1-0.3-0.2-0.6l-2.1-0.2C332.4,342,332.4,342.2,332.7,342.4z"/>
	<path class="st1" d="M361.3,348.9c-0.3-0.2-0.6-0.2-0.7-0.4c-0.3-0.2-0.6-0.2-0.8-0.3s-0.6-0.2-0.8-0.3c-0.3,0-0.6-0.2-0.9-0.2
		c-0.3,0-0.7-0.2-0.9-0.2c-0.4,0-0.6,0-1,0c-0.4,0-0.7,0.1-1,0.2c-0.3,0.1-0.8,0.3-1.1,0.5c-0.1,0-0.3,0.2-0.4,0.3l8.5,0.8
		C361.8,349.3,361.6,349.1,361.3,348.9z"/>
	<path class="st1" d="M332.9,345.2c0,0-0.1,0.1-0.1,0.5c0,0.3-0.1,0.5-0.1,0.8l2.8,0.3c-0.1-0.8-0.4-1.6-0.5-2.4l-2.8-0.2
		C332.2,344.5,332.5,344.9,332.9,345.2z"/>
	<path class="st1" d="M351.9,350.6l20.5,1.9c-0.4-0.6-1-1.2-1.7-1.4c-0.3-0.3-0.7-0.4-1.1-0.5c-0.3-0.2-0.7-0.2-1.1-0.3
		c-0.3,0-0.7-0.2-0.9-0.2c-0.3,0-0.6,0-0.9-0.1c-0.3,0-0.5-0.1-0.9-0.1c-0.3,0-0.5,0-0.7,0c-0.3,0-0.5,0-0.7,0c-0.4,0-0.6,0.1-0.7,0
		c-0.2,0.1-0.4,0-0.4,0s-0.1-0.1-0.4-0.2c-0.1-0.1-0.4-0.2-0.7-0.4c0,0,0,0-0.1-0.1l-8.5-0.8c-0.3,0.2-0.6,0.4-0.9,0.8
		C352.3,349.6,352.1,350.1,351.9,350.6z"/>
	<path class="st1" d="M312.5,453.6c-0.1,0.5,0,1-0.1,1.5c-0.1,0.9-0.2,1.7-0.2,2.5c-0.1,0.8-0.1,1.6-0.2,2.4c0,0.7-0.1,1.5-0.1,2.3
		c0,0.5-0.1,0.9-0.1,1.4l2.9-6.7L312.5,453.6z"/>
	<path class="st1" d="M332.7,347.5c0.1,0.6,0.4,1.1,1.2,1.1c0,0-0.1,0.1-0.2,0.3l2.3,0.2c0-0.1-0.1-0.2-0.1-0.3
		c-0.2-0.7-0.3-1.3-0.5-1.9l0,0l-2.8-0.3C332.7,346.8,332.7,347.1,332.7,347.5z"/>
	<path class="st1" d="M333.6,349.5c-0.1,0.4-0.2,1,0,1.6l3,0.3c-0.1-0.2-0.1-0.4-0.2-0.7c-0.1-0.4-0.2-1-0.4-1.6l-2.3-0.2
		C333.8,349.1,333.6,349.3,333.6,349.5z"/>
	<path class="st1" d="M351.2,352.7l21.9,2.1c0-0.5-0.2-1-0.3-1.4l-0.3-0.6c0-0.1,0-0.1-0.2-0.2l-20.5-1.9
		C351.6,351.2,351.3,351.9,351.2,352.7z"/>
	<path class="st1" d="M311.7,466.6c0,0.6-0.1,1.3,0,2c0,0.6,0,1.2,0,1.9c0,0.1,0,0.3,0,0.4l6.3-14.6l-4.8-7.7c0,0.4,0,0.6-0.2,1
		c-0.1,0.9-0.2,1.9-0.3,2.8c0,0.4-0.1,0.8-0.1,1.1l2.1,3.4l-2.9,6.7c0,0.3-0.1,0.5,0,0.7C311.7,465.2,311.7,465.8,311.7,466.6z"/>
	<path class="st1" d="M306.8,437.4C306.8,437.5,306.8,437.5,306.8,437.4C306.8,437.5,307,437.4,306.8,437.4c0.1,0,0.2-0.1,0.3-0.2
		C307,437.3,306.9,437.3,306.8,437.4z"/>
	<path class="st1" d="M312.6,442.9c0.1,0.7,0.2,1.4,0.4,1.9l0.8-1.1l-1.1-1.8C312.7,442.1,312.6,442.5,312.6,442.9z"/>
	<path class="st1" d="M335.7,353l0.1,0.3l1.4,0.2c-0.1-0.3-0.2-0.7-0.2-1c-0.1-0.3-0.3-0.8-0.2-1.2l-3-0.3l0,0.1
		C333.8,351.9,334.4,352.6,335.7,353z"/>
	<path class="st1" d="M373,356.9c0.1-0.4,0.1-0.8,0.2-1c0-0.4,0-0.7,0-1l-21.9-2.1c-0.2,0.7-0.2,1.3-0.3,2.1L373,356.9z"/>
	<path class="st1" d="M311.7,470.8c0,0.5,0,0.9,0.1,1.3c0.1,0.6,0,1.1,0.1,1.7c0,0.5,0,1.1,0,1.6s0.1,1,0.1,1.6l9.3-21.5l-7.3-11.6
		c-0.1,0.9-0.3,1.8-0.4,2.7c0,0.6-0.2,1.3-0.2,2l4.8,7.7L311.7,470.8z"/>
	<path class="st1" d="M308.2,435.7c-0.3,0.3-0.4,0.6-0.6,0.9c-0.2,0.3-0.3,0.5-0.5,0.7c0.2-0.1,0.6-0.3,1.1-0.5
		c0.3-0.1,0.7-0.2,1-0.3l-0.7-1.1C308.4,435.4,308.3,435.5,308.2,435.7z"/>
	<path class="st1" d="M336.7,355.5l2.3,0.2c0-0.4-0.2-0.7-0.5-0.7c0.1,0,0.2-0.2,0.2-0.2l-1.4-0.5c-0.1-0.2-0.1-0.4-0.3-0.8
		l-1.4-0.2l0.1,0.3L336.7,355.5z"/>
	<path class="st1" d="M311.9,478.1c0,0.3,0.1,0.6,0,0.9c0,0.3,0.1,0.6,0,0.9c0,0.3,0.1,0.6,0,0.9c0,0.1,0,0.3,0,0.4
		c0,0,0.1,0.2,0,0.5c0,0.1,0.1,0.3,0.1,0.6l12-27.5L312.4,436c0,0.3,0,0.6,0,1s0,0.7,0,1.1c0,0.4,0,0.7,0,1.1s0,0.7,0,1.2
		c0,0.4,0,0.9,0,1.2c0,0.1,0,0.1,0.1,0.2l1.1,1.8l0.2-0.3c-0.1,0.1,0,0.3-0.1,0.5l7.3,11.6l-9.3,21.5c0,0.1,0,0.3,0,0.4
		C311.9,477.5,311.8,477.8,311.9,478.1z"/>
	<path class="st1" d="M311.4,435.5c0.3-0.1,0.6-0.2,0.7-0.2l-1.8-3c-0.2,0.3-0.2,0.4-0.4,0.6c-0.2,0.3-0.3,0.6-0.5,0.8
		c-0.2,0.3-0.3,0.6-0.6,0.9c-0.1,0.1-0.2,0.3-0.3,0.5l0.7,1.1c0.2-0.1,0.4-0.1,0.7-0.2C310.4,435.9,310.9,435.8,311.4,435.5z"/>
	<path class="st1" d="M372.4,358.9c0.1-0.1,0.1-0.4,0.2-0.6c0.1-0.4,0.2-0.8,0.3-1.1c0-0.1,0.1-0.1,0-0.3l-22-2.1
		c0,0.6-0.1,1.4-0.1,2.1L372.4,358.9z"/>
	<path class="st1" d="M337.1,356.3l-1,0.6l-0.7,0.5l0,0.1l3.4,0.4c0.1-0.4,0.2-0.8,0.2-1.2c0-0.3,0.1-0.5,0-0.7l-2.3-0.2l0,0.1
		L337.1,356.3z"/>
	<path class="st1" d="M312.4,483.5c0.1,0.3,0.1,0.6,0.2,0.9c0.1,0.3,0.1,0.7,0.2,1c0.1,0.3,0.1,0.7,0.2,1c0,0,0,0,0,0.1l14.1-32.6
		L312,429.7c-0.1,0.1-0.2,0.3-0.2,0.4c-0.2,0.3-0.3,0.5-0.5,0.8c-0.2,0.3-0.3,0.5-0.5,0.8c-0.2,0.3-0.3,0.5-0.5,0.8l-0.1,0.1l1.8,3
		c0.3-0.1,0.4-0.1,0.4-0.1s0,0.3,0,0.7c0,0,0,0,0,0.1l11.6,18.5l-12,27.5c0,0.1,0.1,0.2,0,0.4C312.3,482.8,312.4,483.1,312.4,483.5z
		"/>
	<path class="st1" d="M350.9,357c0,0-0.2,0.1-0.4,0.3c-0.3,0.2-0.7,0.5-1.3,0.9c-0.2,0.2-0.4,0.3-0.6,0.4l23,2.2
		c0.2-0.3,0.2-0.4,0.3-0.7c0.2-0.3,0.3-0.6,0.3-0.8c0.1-0.1,0-0.3,0.1-0.4L350.9,357C351,356.8,350.9,357,350.9,357z"/>
	<path class="st1" d="M346.7,360.4l24.9,2.3c-0.3-0.6-0.5-0.9-0.5-0.9l0.1-0.1c0.2-0.3,0.2-0.4,0.4-0.7l0.1-0.1l-23-2.2
		c-0.2,0.2-0.5,0.4-0.8,0.6C347.5,359.5,347,360,346.7,360.4z"/>
	<path class="st1" d="M313.3,488.6c0.1,0.3,0.1,0.7,0.2,1.2c0.1,0.3,0.1,0.6,0.2,0.9l16.2-37.5l-16.5-26.3c-0.1,0.1-0.2,0.3-0.3,0.3
		c-0.2,0.2-0.2,0.4-0.4,0.6c-0.2,0.2-0.2,0.4-0.4,0.6c-0.2,0.3-0.2,0.4-0.4,0.7c-0.1,0.1-0.2,0.2-0.2,0.3l15.2,24.3L313,486.5
		c0.1,0.3,0.1,0.7,0.2,0.9C313.2,487.9,313.3,488.2,313.3,488.6z"/>
	<path class="st1" d="M335.3,358.2l-0.1,1.1l2.9,0.3c0.1,0,0.1-0.1,0.2-0.2c0,0,0,0,0.1-0.1c0-0.3,0.3-0.7,0.5-1.3
		c0-0.1,0.1-0.1,0-0.3l-3.4-0.4l0,0.6L335.3,358.2z"/>
	<path class="st1" d="M386.5,365.4L386.5,365.4c0.1,0,0.1,0,0.3,0l8.3-9.9l-0.1-0.1l0,0l0.5-2.1l0.2-1.2c0,0.3-0.8,1.4-2.1,2.8
		c-1.5,1.8-3.6,4.4-5.6,6.6c-0.3,0.3-0.5,0.7-0.8,0.9c-0.3,0.3-0.6,0.6-0.8,0.9s-0.6,0.6-0.7,0.8c-0.3,0.3-0.6,0.6-0.7,0.8
		c-0.3,0.3-0.6,0.6-0.7,0.8c-0.1,0-0.1,0.1-0.2,0.2l1.5,0.1L386.5,365.4z"/>
	<path class="st1" d="M335.1,359.4l-0.3,1.3c-0.1,0.1,0,0.3-0.1,0.5l2,0.2c0.3-0.3,0.4-0.7,0.7-1c0.2-0.3,0.5-0.5,0.6-0.7
		L335.1,359.4L335.1,359.4z"/>
	<path class="st1" d="M345,362.1l27.5,2.6c-0.4-0.9-0.7-1.5-0.9-1.9l-24.9-2.3c-0.1,0-0.2,0.2-0.2,0.2
		C346,361,345.6,361.5,345,362.1z"/>
	<path class="st1" d="M314.1,492.1c0.1,0.4,0.1,0.8,0.3,1.3c0.1,0.3,0.2,0.7,0.2,1.2l18.1-41.9L315,424.2l0,0
		c-0.1,0.1-0.3,0.3-0.3,0.6c-0.1,0.1-0.2,0.4-0.3,0.6c-0.1,0.1-0.2,0.4-0.3,0.6c-0.2,0.2-0.2,0.4-0.4,0.6c-0.1,0.1-0.1,0.1-0.2,0.3
		l16.5,26.3l-16.2,37.5c0,0.1,0,0.1,0.1,0.2C313.9,491.2,314,491.7,314.1,492.1z"/>
	<path class="st1" d="M334.3,362.9l1.5,0.1c0.1-0.1,0.1-0.4,0.2-0.6c0.1-0.4,0.4-0.7,0.5-1.1l0,0l-2-0.2c0,0.3-0.1,0.5-0.1,0.8
		C334.4,362.2,334.4,362.5,334.3,362.9z"/>
	<path class="st1" d="M390,362.9c0.1-0.4,0.1-0.8,0.1-0.8c0.1,0.1,0.4,0.1,0.6,0.2c0.6,0,1-0.6,1.3-1.2c0.3-0.7,0.5-1.5,0.5-1.5
		c1.3,0.1,1.5-1.1,1.5-1.8c0-0.4,0-0.5,0-0.5c0.4-0.1,1.2-0.6,1.7-0.9c0.3-0.2,0.5-0.4,0.5-0.4l0,0l-1-0.4l-8.3,9.9
		C389,365.5,389.7,363.9,390,362.9z"/>
	<path class="st1" d="M344.2,363.1c-0.2,0.2-0.3,0.5-0.6,0.7l29.6,2.8c-0.2-0.7-0.4-1.3-0.7-1.9l-27.5-2.6c0,0,0,0-0.1,0
		C344.7,362.4,344.5,362.7,344.2,363.1z"/>
	<path class="st1" d="M315,495.8c0.1,0.4,0.3,0.9,0.4,1.3c0.1,0.2,0.1,0.4,0.2,0.7l19.9-46l-18.8-30.2c-0.1,0.1-0.2,0.3-0.3,0.5
		c-0.1,0.1-0.2,0.3-0.3,0.5c-0.1,0.1-0.2,0.3-0.3,0.5c-0.1,0.1-0.3,0.3-0.3,0.5c-0.1,0.1-0.3,0.3-0.3,0.5l17.7,28.3l-18.1,41.9
		l0,0.1C314.8,494.9,314.9,495.4,315,495.8z"/>
	<path class="st1" d="M383.5,366.5c-0.3-0.4-0.4-0.6-0.6-0.8c-0.2-0.2-0.4-0.1-0.6,0.2c-0.2,0.2-0.3,0.6-0.5,1
		c-0.1,0.1-0.2,0.3-0.1,0.4l2,0.2l0-0.1l0.4-0.3l0.8-0.6l0.8-0.6l0,0l-1.5-0.1c-0.3,0.3-0.5,0.5-0.6,0.6
		C383.6,366.5,383.5,366.5,383.5,366.5z"/>
	<path class="st1" d="M381.6,368.2c-0.1,0.4-0.2,0.7-0.2,0.9l3.3,0.3l0-0.3l-1-1.6l-2-0.2C381.7,367.6,381.6,367.9,381.6,368.2z"/>
	<path class="st1" d="M342.5,365.1c-0.1,0.1-0.2,0.2-0.3,0.3l31.5,3c-0.1-0.2-0.1-0.4-0.2-0.7c-0.1-0.4-0.3-0.8-0.4-1.1l-29.6-2.8
		c-0.1,0.1-0.2,0.2-0.3,0.3C343.1,364.4,342.8,364.8,342.5,365.1z"/>
	<path class="st1" d="M315.5,497.7c0.1,0.2,0.1,0.4,0.2,0.7c0.1,0.4,0.3,0.9,0.4,1.3c0.1,0.3,0.2,0.7,0.4,0.9l21.5-49.6l-21.3-34
		c0,0.1-0.1,0.1,0,0.3c0,0.3-0.1,0.5,0,0.7c0,0.3,0,0.5,0,0.7c0,0.3,0,0.5,0.1,0.7c0.1,0.2,0.1,0.4,0.3,0.6c0,0.1,0.1,0.1,0.1,0.1
		s-0.2,0.3-0.4,0.6c-0.1,0.1-0.2,0.4-0.4,0.7l18.8,30.2L315.5,497.7z"/>
	<path class="st1" d="M334.1,364.2c-0.1,0.1,0,0.3-0.1,0.4l1.4,0.2c0.1-0.4,0.1-0.8,0.2-1.2c0.1-0.1,0.1-0.4,0.2-0.6l-1.5-0.1
		c0,0,0,0.1-0.1,0.1C334.2,363.5,334.2,363.8,334.1,364.2z"/>
	<path class="st1" d="M381.2,369.7c0.1,0.3,0.2,0.7,0.4,1.1l2.6,0.3l0.4-1l0,0l0.2-0.6l-3.3-0.3c-0.1,0.1,0,0.3-0.1,0.4
		C381.3,369.7,381.2,369.7,381.2,369.7z"/>
	<path class="st1" d="M317.7,502.5c0.2,0.2,0.2,0.3,0.4,0.4l22.7-52.4l-23.3-37.1c-0.1,0.1-0.1,0.4-0.1,0.5c0,0.3,0,0.6-0.2,0.9
		c0,0.3,0,0.6-0.1,0.9c0,0.3-0.1,0.5-0.1,0.9c0,0.3,0,0.4,0,0.6l21.3,34l-21.5,49.6c0,0.1,0.1,0.3,0.1,0.4
		C317.1,501.7,317.3,502.1,317.7,502.5z"/>
	<path class="st1" d="M333.8,366.3l1.4,0.2c0.1-0.1,0-0.4,0.1-0.5c0-0.4,0.1-0.8,0.1-1.1l0,0l-1.4-0.2c0,0.3-0.1,0.5-0.1,0.8
		C333.8,365.7,333.8,366.1,333.8,366.3z"/>
	<path class="st1" d="M341.2,367l33,3.1c-0.2-0.6-0.3-1.3-0.4-1.7l-31.5-3c-0.2,0.2-0.3,0.5-0.5,0.7
		C341.6,366.4,341.4,366.7,341.2,367z"/>
	<path class="st1" d="M319.3,503.4l0.1,0l0.3-0.1c0,0,0,0.1,0.1,0.2L343,450l-22.8-36.4c-0.1,0.1,0,0.3-0.2,0.3l-0.4,0.1
		c-0.1-0.2,0-0.5,0-0.9c0-0.1,0-0.3,0-0.5l-1.7-2.6c0,0.3-0.2,0.7-0.2,1c0,0.3-0.2,0.7-0.2,1c0,0.3-0.2,0.7-0.2,0.9
		c-0.1,0.1,0,0.3-0.1,0.4l23.3,37.1l-22.7,52.4C318.5,503.3,318.9,503.6,319.3,503.4z"/>
	<path class="st1" d="M340.5,368.1c-0.1,0.1-0.3,0.3-0.3,0.5l34.5,3.3c-0.1-0.4-0.2-0.9-0.3-1.4c0-0.1-0.1-0.2-0.1-0.3l-33-3.1
		c0,0,0,0-0.1,0.1C340.9,367.5,340.8,367.8,340.5,368.1z"/>
	<path class="st1" d="M333.7,367.6c0,0.1,0,0.3,0,0.4l1.5,0.1c0-0.4,0-0.6,0-1c0-0.3,0-0.4,0-0.6l-1.4-0.2c0,0.1,0,0.1,0,0.3
		C333.8,366.9,333.8,367.3,333.7,367.6z"/>
	<path class="st1" d="M381.8,372.2c0,0.1,0,0.3,0,0.4l1.9,0.1c0.1-0.1,0-0.3,0.2-0.3c0.2-0.6,0.2-0.9,0.2-0.9l0.2-0.3l0,0l-2.6-0.3
		C381.7,371.3,381.8,371.8,381.8,372.2z"/>
	<path class="st1" d="M333.6,369.6l1.7,0.2c0-0.1-0.1-0.2,0-0.4c0-0.4-0.1-0.7-0.1-1.2l0-0.1l-1.5-0.1c0,0.3-0.1,0.5,0,0.7
		C333.7,368.9,333.7,369.3,333.6,369.6z"/>
	<path class="st1" d="M339.4,369.9l-0.1,0.1l35.6,3.4c-0.1-0.2-0.1-0.6-0.1-0.8c-0.1-0.2-0.1-0.6-0.1-0.8l-34.5-3.3
		c-0.1,0.1-0.2,0.3-0.2,0.4C339.7,369.3,339.6,369.6,339.4,369.9z"/>
	<path class="st1" d="M320,411.3c0-0.4,0-0.6,0-1s0.1-0.8,0.2-1c0-0.1,0-0.3,0-0.4l-1.5-2.2c0,0.3-0.1,0.5,0,0.7c0,0,0,0.1,0,0.3
		c0,0.3-0.2,0.7-0.3,1.1c0,0.3-0.2,0.7-0.3,1.1l0,0l1.7,2.6c0-0.1,0-0.3,0-0.5C319.9,411.9,319.9,411.6,320,411.3z"/>
	<path class="st1" d="M321.4,505l24.1-55.6l-24.2-38.7c0,0,0,0.1-0.1,0.1c-0.1,0.4-0.3,0.7-0.4,1c-0.1,0.4-0.3,0.7-0.4,1
		c0,0.3-0.2,0.4-0.3,0.7L343,450l-23.2,53.5c0.2,0.2,0.5,0.7,1,1.2C321.1,504.7,321.3,504.8,321.4,505z"/>
	<path class="st1" d="M381.7,374.2l1.5,0.1c0-0.3,0.1-0.4,0.2-0.7c0.2-0.3,0.2-0.7,0.2-0.9l-1.9-0.1c0,0.5,0,0.9-0.1,1.3
		C381.7,373.9,381.7,374,381.7,374.2z"/>
	<path class="st1" d="M381.4,375.6l1.4,0.2c0.1-0.4,0.3-0.7,0.3-1.1c0.1-0.1,0.2-0.3,0.1-0.4l-1.5-0.1c0,0.3-0.2,0.7-0.2,0.9
		C381.4,375.2,381.4,375.5,381.4,375.6z"/>
	<path class="st1" d="M323.1,505.5c0,0,0.1,0,0.1,0.1l24.6-56.8l-25.4-40.7c0,0.3-0.1,0.4-0.3,0.7c-0.1,0.4-0.3,0.7-0.4,1.1
		c-0.2,0.3-0.3,0.7-0.3,1l24.2,38.7L321.4,505C321.9,505.2,322.4,505.4,323.1,505.5z"/>
	<path class="st1" d="M320.4,408c-0.1-0.2-0.1-0.4-0.1-0.7c0-0.4,0-0.7,0-1.1s0.1-0.8,0.1-1.1l0,0l-1.2-1.9l0,0
		c-0.1,0.4-0.1,0.8-0.2,1.3c0,0.4-0.1,0.8-0.1,1.1s0,0.7-0.1,1.1l0,0l1.5,2.2c0-0.3,0.1-0.5,0.2-0.7
		C320.4,408.1,320.4,408,320.4,408z"/>
	<path class="st1" d="M333.7,370.9c0,0.1,0.1,0.2,0,0.3l4.2,0.4l-1.1-0.5l-1.3-0.6c-0.1-0.2,0-0.5-0.1-0.8l-1.7-0.2
		c0,0.1,0,0.1,0,0.3C333.6,370.2,333.7,370.5,333.7,370.9z"/>
	<path class="st1" d="M338.8,370.8c-0.2,0.3-0.2,0.4-0.4,0.7l36.7,3.4c-0.1-0.2,0-0.4-0.1-0.6c0-0.4-0.1-0.7-0.2-1l-35.6-3.4
		C339.2,370.4,339,370.6,338.8,370.8z"/>
	<path class="st1" d="M320.8,402.5c0-0.3,0.1-0.5,0.1-0.8l-1.1-1.8c-0.1,0.1,0,0.3-0.2,0.3c-0.1,0.4-0.2,0.9-0.4,1.4
		c-0.1,0.4-0.2,0.8-0.3,1.2l1.2,1.9c0-0.4,0.1-0.8,0.2-1.2C320.8,403.4,320.8,402.9,320.8,402.5z"/>
	<path class="st1" d="M380.9,377C380.9,377.1,380.9,377.1,380.9,377l1.4,0.2c0.1-0.1,0.2-0.3,0.1-0.4c0.2-0.3,0.3-0.7,0.3-1l0,0
		l-1.4-0.2c-0.1,0.1-0.2,0.3-0.1,0.4C381.1,376.5,381,376.7,380.9,377z"/>
	<path class="st1" d="M337.8,371.5l-4.2-0.4c0,0.3,0,0.5,0.1,0.8c0.1,0.2,0,0.5,0.1,0.7l41.4,3.9c0-0.1,0-0.4,0-0.5
		c0-0.4-0.1-0.7-0.1-1.1l-36.7-3.4l-0.1,0.1L337.8,371.5z"/>
	<path class="st1" d="M350.1,448.2l-26.7-42.8c-0.2,0.3-0.3,0.7-0.3,1c-0.1,0.4-0.2,0.8-0.5,1.1c-0.1,0.1-0.2,0.3-0.2,0.6l25.4,40.7
		l-24.6,56.8c0.6,0,1.4,0.1,2.2-0.2L350.1,448.2z"/>
	<path class="st1" d="M321.8,398.9l-0.8-1.3c-0.2,0.3-0.3,0.6-0.4,1c-0.2,0.4-0.3,1-0.5,1.5l1.1,1.8c0.1-0.1,0.1-0.4,0.2-0.6
		C321.4,400.4,321.6,399.6,321.8,398.9z"/>
	<path class="st1" d="M326.7,505.9c0,0.1,0.1,0.1,0.2,0.2c0,0,0,0,0.1,0.1l25.4-58.6l-28-44.8c-0.2,0.3-0.3,0.7-0.4,1
		c-0.1,0.4-0.3,0.8-0.5,1.3c0,0.1-0.1,0.1,0,0.3l26.7,42.8l-24.7,57.1c0.1,0,0.3-0.1,0.4-0.1C326,505.4,326.4,505.7,326.7,505.9z"/>
	<path class="st1" d="M380.3,378.6l1.5,0.1c0.2-0.3,0.2-0.6,0.3-0.8c0.1-0.1,0.1-0.4,0.2-0.6l-1.4-0.2c-0.2,0.3-0.2,0.6-0.4,0.7
		C380.4,378.2,380.3,378.3,380.3,378.6z"/>
	<path class="st1" d="M334.4,374.1L334.4,374.1l40.9,3.9c0-0.1,0-0.4,0-0.5c0-0.4-0.1-0.7-0.1-1.1l-41.4-3.9c0,0.1,0.1,0.2,0.1,0.3
		C334.1,373.4,334.2,373.8,334.4,374.1z"/>
	<path class="st1" d="M379.8,379.3c-0.1,0.1-0.3,0.3-0.3,0.5l1.8,0.2c0.1-0.1,0.2-0.3,0.2-0.4c0.2-0.3,0.2-0.6,0.3-0.8l0,0l-1.5-0.1
		l-0.1,0.1C380,378.9,379.8,379.2,379.8,379.3z"/>
	<path class="st1" d="M375.8,379.5l-0.3-0.5c0-0.4-0.1-0.6,0-0.9l-40.9-3.9l1.8,1.6L375.8,379.5z"/>
	<path class="st1" d="M321.8,398.8c0.2-0.7,0.3-1.2,0.4-1.4l0,0c0.2,0.2,0.7,0.3,1.2,0.3l-1.6-2.6c-0.2,0.3-0.2,0.7-0.1,1.1
		c0,0,0,0-0.1,0.1c-0.1,0.1-0.3,0.6-0.5,1l-0.1,0.1l0.8,1.3C321.9,398.9,321.8,398.8,321.8,398.8z"/>
	<path class="st1" d="M328.6,506.8l25.8-59.7l-29.2-46.8c-0.3,0.7-0.5,1.4-0.8,2.2c0,0.1-0.1,0.1-0.2,0.3l28,44.8l-25.4,58.6
		C327.5,506.5,328.1,506.8,328.6,506.8z"/>
	<path class="st1" d="M324.8,397.8l0.8,1.3c-0.2,0.3-0.3,0.7-0.5,1.1l-0.1,0.1l29.2,46.8l-25.8,59.7c0.1,0,0.3,0,0.3,0
		c0.5,0.1,1.1,0,1.4-0.1l26-60.3l-33.2-53c-0.3,0.1-0.5,0.3-0.7,0.5c-0.3,0.2-0.5,0.5-0.6,0.8l-0.1,0.1l1.6,2.6c0.1,0,0.1,0.1,0.3,0
		C324.1,397.7,324.5,397.8,324.8,397.8z"/>
	<path class="st1" d="M336,376.6c-0.1,0.1-0.2,0.3-0.2,0.6l44.8,4.3c0.1-0.1,0.1-0.1,0.2-0.3c0.2-0.3,0.2-0.4,0.4-0.7
		c0.1-0.1,0.1-0.1,0.2-0.3l-1.8-0.2l-0.1,0.1c-0.2,0.2-0.2,0.4-0.4,0.6c-0.3,0.3-0.3,0.5-0.5,0.5l0,0l-0.7-0.2l-0.8-0.1l-0.7-0.2
		l-0.6-1l-39.5-3.8l0,0.1C336.2,376.1,336.1,376.4,336,376.6z"/>
	<path class="st1" d="M335.4,378.1c-0.1,0.1,0,0.3-0.2,0.3l44.5,4.3c0.1,0,0.1-0.1,0.2-0.2c0.2-0.2,0.2-0.4,0.4-0.6
		c0.1-0.1,0.2-0.3,0.2-0.4l-44.8-4.3c0,0.1-0.1,0.1,0,0.3C335.6,377.6,335.4,377.9,335.4,378.1z"/>
	<path class="st1" d="M332.1,506.2c0,0.1,0.2,0.3,0.3,0.4l26.2-60.4L325.3,393l0,0c-0.3,0.1-0.6,0.2-0.9,0.3
		c-0.3,0.1-0.6,0.2-0.9,0.4l-0.1,0l33.2,53l-26,60.3c0.1,0,0.2-0.1,0.3-0.1C331.4,506.5,332.1,506.2,332.1,506.2z"/>
	<path class="st1" d="M333.9,506.6l26.4-61l-33.3-53.1c-0.1,0-0.1,0-0.2,0.1c-0.2,0.1-0.6,0.1-0.9,0.2c-0.2,0.1-0.6,0.1-0.9,0.2
		l33.3,53.2l-26.2,60.4l0.1,0.1C332.8,507,333.3,506.9,333.9,506.6z"/>
	<path class="st1" d="M335.1,378.8c-0.1,0.1-0.1,0.1-0.2,0.3c0,0,0.5,0.1,1.1,0.1c1.4,0.2,3.5,0.6,4.1,1l38.6,3.7
		c0.1-0.1,0.2-0.2,0.3-0.3c0.2-0.2,0.3-0.3,0.5-0.5c0.1-0.1,0.2-0.3,0.3-0.3l-44.5-4.3C335.2,378.6,335.2,378.7,335.1,378.8z"/>
	<path class="st1" d="M335.7,505.7c0.2-0.2,0.4-0.4,0.6-0.4l26-60l-33.7-53.8c0,0.3-0.1,0.4-0.2,0.7c0,0.3,0,0.4,0,0.5
		c0,0-0.3,0-0.6,0.1c-0.2,0.1-0.5,0-0.7,0.1l33.3,53.1l-26.4,61c0.1,0,0.1,0,0.2-0.1C334.6,506.4,335.1,506.1,335.7,505.7z"/>
	<path class="st1" d="M340.3,380.4c0,0,0.3,0.4,0.5,0.8c0,0.1,0.1,0.2,0.1,0.4l36.3,3.4l0,0c0.1,0,0.3-0.1,0.4-0.3
		c0.1,0,0.3-0.2,0.4-0.4c0.1-0.1,0.3-0.2,0.4-0.4l0.1-0.1l-38.6-3.7C340.3,380.2,340.3,380.4,340.3,380.4z"/>
	<path class="st1" d="M340.4,382.5c-0.3,0.1-1,0.1-1.9-0.1c0,0-1.3-0.7-2.6-0.9c-0.6,0-1.1-0.1-1.7,0.1c-0.3,0.1-0.6,0.2-0.9,0.4
		c-0.1,0-0.1,0.1-0.2,0.2l42.2,4c0-0.3,0-0.4,0-0.6l0.4-0.4c0.1,0.1,0.4,0.1,0.7,0.2c0.1,0.1,0.4,0,0.5,0c0.1,0,0.3-0.1,0.4-0.1
		l-36.3-3.4c0.1,0.2,0.1,0.3,0,0.5C341,382.2,340.9,382.5,340.4,382.5z"/>
	<path class="st1" d="M336.3,505.1c0.3-0.2,0.6-0.4,0.9-0.8c0.5-0.4,0.9-0.9,1.4-1.3c0.2-0.2,0.4-0.4,0.6-0.6l25-57.7l-34.8-55.5
		c-0.2,0.3-0.2,0.6-0.4,0.7c-0.2,0.3-0.3,0.6-0.3,0.8c-0.1,0.1-0.2,0.3-0.1,0.4l33.7,53.8L336.3,505.1z"/>
	<path class="st1" d="M341.1,500.1c0.4-0.4,0.7-0.8,1.1-1.2l23.6-54.7l-35.6-56.9c-0.1,0.1-0.1,0.1-0.2,0.3
		c-0.2,0.3-0.2,0.4-0.4,0.7c-0.2,0.3-0.2,0.6-0.4,0.7l0,0l34.8,55.5l-24.9,57.9c0.3-0.3,0.6-0.6,0.7-0.8
		C340.3,501.1,340.7,500.6,341.1,500.1z"/>
	<path class="st1" d="M332.6,382.9l-0.1,0.1l0,0l42.8,4.1l0-0.1c0-0.3,0.1-0.5,0.1-0.9c0-0.1,0.1-0.1,0-0.3l-42.2-4
		c-0.1,0.1-0.2,0.2-0.3,0.3C332.8,382.5,332.7,382.7,332.6,382.9z"/>
	<path class="st1" d="M343.6,497.2c0.5-0.5,0.8-1,1.1-1.5c0.3-0.3,0.6-0.7,0.9-1.1l22.1-50.8l-36.5-58.2l0,0
		c-0.1,0.1-0.2,0.4-0.3,0.6c-0.1,0.1-0.2,0.4-0.4,0.6c-0.1,0.1-0.2,0.3-0.2,0.4l35.6,56.9l-23.6,54.7c0.1,0,0.1-0.1,0.2-0.2
		C342.8,498.2,343.1,497.7,343.6,497.2z"/>
	<path class="st1" d="M332.1,383.9c-0.1,0.1-0.2,0.2-0.2,0.3l37.5,3.6c0.2-0.1,0.3-0.2,0.4-0.3c0.1,0,0.1,0,0.1,0
		c0.1,0,0.2-0.1,0.3-0.1c0.1,0,0.3,0,0.4,0s0.3,0,0.4,0s0.3,0,0.4,0.1c0.1,0.1,0.3,0,0.4,0.1c0.1,0.1,0.3,0,0.3,0.2
		c0.1,0,0.1,0.1,0.3,0c0.1,0.1,0.3,0.2,0.4,0.1c0.1,0.1,0.3,0.2,0.4,0.1c0.1,0,0.1,0.1,0.3,0l1.8,0.2c0-0.1,0-0.3,0-0.5
		c0-0.3,0.1-0.5,0-0.6l-42.8-4.1C332.5,383.2,332.3,383.5,332.1,383.9z"/>
	<path class="st1" d="M374.2,388.4c0.1,0.1,0.4,0.1,0.6,0.2c0.3,0.2,0.4,0.2,0.4,0.2l0-0.1c0-0.1,0-0.3,0-0.3l-1.8-0.2
		c0.1,0,0.1,0.1,0.3,0C373.9,388.3,374,388.3,374.2,388.4z"/>
	<path class="st1" d="M331.5,385.1c-0.1,0.1-0.3,0.3-0.3,0.6l36.5,58.2l-22.1,50.8c0.1-0.1,0.2-0.2,0.3-0.3c0.3-0.5,0.8-1,1-1.4
		c0.5-0.5,0.8-1,1-1.4c0.5-0.7,0.9-1.1,1-1.4c0.1,0,0.1-0.1,0.1-0.1c0.1-0.1,0.1-0.1,0.2-0.3l20.1-46.3l-36.3-58l35.5,3.4
		c0-0.3,0.2-0.4,0.4-0.6c0.2-0.2,0.3-0.2,0.5-0.4l0,0l-37.5-3.6c-0.1,0.1-0.1,0.1-0.2,0.3C331.7,384.6,331.5,384.8,331.5,385.1z"/>
	<path class="st1" d="M350.8,487c0.3-0.5,0.5-1,0.9-1.5c0.3-0.5,0.5-1,0.9-1.5c0.3-0.5,0.5-1,0.9-1.5c0.2-0.4,0.5-1,0.8-1.5
		c0.2-0.4,0.5-1,0.8-1.5c0.2-0.4,0.5-1,0.8-1.5c0.2-0.4,0.4-1,0.6-1.4l4.3-9.7l0.1-0.1c0.2-0.4,0.3-0.8,0.5-1.4
		c0.2-0.4,0.3-0.8,0.6-1.3c0.1-0.4,0.3-0.8,0.5-1.3c0.1-0.4,0.3-0.8,0.5-1.3c0.1-0.4,0.3-0.8,0.5-1.3c0.1-0.4,0.3-0.8,0.5-1.3
		c0.1-0.4,0.2-0.8,0.5-1.3l0,0.1c0.1,0,0.3-0.1,0.5-0.3c0,0,0.1,0,0.1-0.1l6.2-14.3l-35.3-56.3l34.8,3.3c-0.1,0-0.1-0.1-0.3,0
		c-0.1-0.1-0.3,0-0.4-0.1c-0.1-0.1-0.3,0-0.4-0.1c-0.1-0.1-0.3-0.2-0.4-0.2c-0.1-0.1-0.3-0.2-0.3-0.3c-0.2-0.2-0.2-0.3-0.2-0.6
		l-35.5-3.4l36.3,58l-20.1,46.3c0.3-0.3,0.5-0.8,0.8-1.1C350.2,488,350.5,487.6,350.8,487z"/>
	<path class="st1" d="M371.9,390.2c-0.1,0-0.3,0-0.4,0c-0.1,0-0.3,0-0.4,0c-0.1,0-0.3,0-0.4,0c-0.1,0-0.3,0-0.4,0l1.7,0.2
		C372.2,390.3,372.1,390.2,371.9,390.2z"/>
	<path class="st1" d="M370.8,443l-6.2,14.3c0.1-0.1,0.2-0.2,0.4-0.4c0.2-0.2,0.3-0.3,0.4-0.6c0.2-0.2,0.2-0.4,0.4-0.6
		s0.2-0.4,0.4-0.6s0.2-0.4,0.4-0.6c0.2-0.2,0.2-0.4,0.4-0.6c0.2-0.2,0.2-0.4,0.4-0.6c0.2-0.3,0.2-0.4,0.4-0.6
		c0.2-0.3,0.2-0.4,0.4-0.6c0.2-0.3,0.2-0.4,0.3-0.6c0.2-0.3,0.2-0.4,0.3-0.6c0.2-0.3,0.2-0.4,0.3-0.6c0.2-0.3,0.2-0.4,0.3-0.6
		c0.1-0.1,0.2-0.3,0.2-0.3s0,0,0,0.1l2.7-6.4l-34.1-54.6l36.9,3.5c0-0.1,0-0.1-0.2-0.2c-0.2-0.2-0.4-0.4-0.7-0.5
		c-0.1-0.1-0.3-0.2-0.6-0.2c-0.1-0.1-0.3-0.2-0.4-0.2c-0.1-0.1-0.3,0-0.4-0.1c-0.1-0.1-0.4-0.1-0.6-0.2l0,0l-1.7-0.2l0,0l-0.1,0l0,0
		l-35-3.5L370.8,443z"/>
	<path class="st1" d="M357,475c0.2-0.4,0.4-1,0.6-1.4c0.2-0.4,0.4-1,0.6-1.4c0.2-0.4,0.4-1,0.6-1.4c0.2-0.4,0.4-1,0.5-1.4
		c0.2-0.4,0.3-0.8,0.5-1.4c0.1-0.4,0.3-0.8,0.5-1.1l-4.3,9.7l0,0C356.6,476,356.8,475.6,357,475z"/>
	<path class="st1" d="M370.3,449.7c0.1,0.1,0.2,0.2,0.4,0.4l2.2-5c-0.1-1.1-0.1-2.2-0.2-3.3c-0.1-0.6-0.1-1.3-0.1-1.9l-31.7-50.5
		l34.8,3.3l0-0.1c-0.1-0.3-0.2-0.7-0.4-1l-36.9-3.5l34.1,54.6l-2.7,6.4c0,0,0.1,0.1,0.2,0.2C369.9,449.3,370.1,449.5,370.3,449.7z"
		/>
	<path class="st1" d="M371.1,450.5c0.1,0.1,0.2,0.3,0.4,0.4l0,0l1.4-3.3c-0.1-0.7-0.1-1.6-0.1-2.3c0-0.1-0.1-0.2,0-0.4l-2.2,5l0,0.1
		C370.8,450.2,370.9,450.3,371.1,450.5z"/>
	<path class="st1" d="M372.4,439.9c0-0.5-0.1-1-0.1-1.4c-0.1-0.6-0.1-1.1-0.1-1.6l-29-46.3l32.3,3.1c0-0.1,0-0.1,0-0.1
		s0-0.1,0.1-0.1c0-0.3,0-0.5,0-0.6l-34.8-3.5L372.4,439.9z"/>
	<path class="st1" d="M372.2,451.8c0,0.1,0,0.1,0.2,0.2l0.8-1.7c-0.1-0.2,0-0.4-0.1-0.6c-0.1-0.6-0.1-1.2-0.1-1.9l-1.4,3.3
		c0.1,0.1,0.2,0.3,0.4,0.4C372,451.5,372.1,451.5,372.2,451.8z"/>
	<path class="st1" d="M372.1,433.9l-26.4-42.2l30,2.8c-0.1-0.2,0-0.4,0-0.5c-0.1-0.2,0-0.4,0-0.5l-32.4-3l28.9,46.2
		c-0.1-0.6-0.1-1.1-0.1-1.4C372.1,434.7,372.1,434.3,372.1,433.9z"/>
	<path class="st1" d="M372.6,452.1c0.2,0.2,0.4,0.4,0.4,0.6c0,0.1,0,0.1,0.1,0.1l0.2-0.4c0-0.1,0-0.1-0.1-0.2s0-0.4,0-0.5
		c0-0.1,0-0.4,0-0.5c0-0.4-0.1-0.7-0.1-1.1l-0.8,1.7C372.4,451.9,372.5,452,372.6,452.1z"/>
	<path class="st1" d="M372.1,433.4c0.1,0,0.1,0,0.2-0.1c0.1,0,0.1,0,0.2-0.1c0.1,0,0.1-0.1,0.2-0.2c0.1,0,0.1-0.1,0.2-0.2
		c0,0,0,0,0.1-0.1l-25-40l27.7,2.6c0-0.3,0-0.5,0-0.6c0-0.1,0-0.1,0-0.3l-30-2.8l26.4,42.2C372,433.6,372.1,433.4,372.1,433.4
		L372.1,433.4z"/>
	<path class="st1" d="M373.6,453.5L373.6,453.5L373.6,453.5c0-0.1-0.1-0.2-0.1-0.3C373.5,453.4,373.5,453.6,373.6,453.5z"/>
	<path class="st1" d="M373.2,432.5c0.1-0.1,0.1-0.1,0.2-0.3c0.1-0.1,0.1-0.1,0.2-0.3c0.1-0.1,0.1-0.1,0.2-0.3l0,0L350.3,394
		l25.4,2.4l0-0.1c0-0.3,0-0.5,0-0.7c0,0,0,0,0-0.1l-27.7-2.6l25,40l0.1-0.1C373.2,432.6,373.2,432.5,373.2,432.5z"/>
	<path class="st1" d="M373.4,453.2L373.4,453.2L373.4,453.2c0-0.1,0-0.4,0-0.5c0-0.1,0-0.1-0.1-0.2l-0.2,0.4l0,0.1
		C373.3,453,373.4,453.1,373.4,453.2z"/>
	<path class="st1" d="M373.7,431.6c0.1-0.1,0.1-0.1,0.2-0.3c0.1-0.1,0.1-0.1,0.2-0.3c0.1-0.1,0.1-0.1,0.2-0.3
		c0.1-0.1,0.1-0.1,0.2-0.3c0-0.1,0.1-0.1,0.2-0.3l-1.8-3l0,0l-0.1,0c0,0,0,0,0-0.1c0,0,0,0,0-0.1l-20-31.9l23.3,2.2
		c0-0.1,0-0.3,0-0.4c-0.1-0.2,0-0.4,0-0.5l-25.4-2.4L373.7,431.6z"/>
	<path class="st1" d="M372.4,426.5c0-0.1,0.1-0.1,0-0.3c0-0.1,0.1-0.1,0-0.3c0-0.1,0.1-0.1,0-0.3c0-0.1,0.1-0.1,0-0.3
		c0-0.1,0.1-0.1,0-0.3s0.1-0.1,0-0.3l-18.1-28.9l21.1,2.1c0-0.1,0-0.4,0-0.5s0-0.3,0-0.4l-23.3-2.2l20,31.9c0,0,0-0.1,0.1-0.1
		C372.4,426.7,372.4,426.7,372.4,426.5z"/>
	<path class="st1" d="M374.4,429.7c0.1-0.1,0.1-0.1,0.2-0.3c0.1-0.1,0.1-0.1,0.2-0.3l0.1-0.1l0.1-0.1l0.1-0.1c0,0,0,0,0-0.1
		l-1.7-2.6l-0.7,1.2l1.8,3l0,0C374.4,429.9,374.4,429.9,374.4,429.7z"/>
	<path class="st1" d="M374.9,428.4C374.9,428.4,374.8,428.2,374.9,428.4c0.1-0.1,0-0.3,0-0.3s0-0.1,0.1-0.1c0,0,0-0.1,0.1-0.1
		c0,0,0-0.1,0.1-0.1c0,0,0-0.1,0.1-0.1c0,0,0-0.1,0.1-0.1c0,0,0-0.1,0.1-0.1c0,0,0-0.1,0.1-0.1c0,0,0,0,0-0.1c0,0,0,0,0-0.1
		c0,0,0,0,0-0.1l-1.5-2.4c-0.1,0.1-0.2,0.3-0.1,0.4c-0.1,0.1-0.1,0.4-0.2,0.6l-0.3,0.3l1.7,2.6l0,0
		C374.9,428.5,374.9,428.4,374.9,428.4z"/>
	<path class="st1" d="M372.6,425C372.6,425,372.7,425,372.6,425l0.2-0.3l-0.1,0l0-0.1l0-0.1c0,0,0,0,0-0.1c0,0,0,0,0-0.1
		c0,0,0,0,0-0.1c0,0,0,0,0-0.1c0,0,0,0,0-0.1c0,0,0,0,0-0.1c0,0,0,0,0-0.1c0,0,0,0,0-0.1c0,0,0,0,0-0.1c0,0,0,0,0-0.1c0,0,0,0,0-0.1
		c0,0,0,0,0-0.1c0,0,0,0,0-0.1c0,0,0,0,0-0.1l0,0l0,0l0,0l0,0l0,0l-16.3-26l19.1,1.9l0-0.1c0-0.3,0-0.4,0-0.6c0,0,0,0,0-0.1
		l-21.1-2.1L372.6,425z"/>
	<path class="st1" d="M375.3,426.9C375.3,426.9,375.4,426.8,375.3,426.9c0.1-0.1,0.1-0.1,0.1-0.1s0,0,0-0.1c0,0,0,0,0-0.1
		c0,0,0,0,0-0.1c0,0,0,0,0-0.1c0,0,0,0,0-0.1c0,0,0,0,0-0.1c0,0,0,0,0-0.1l0,0l0,0l0,0l0,0l0,0l0,0l0,0l0,0l0,0l0,0
		c0,0,0-0.1,0.1-0.1l-1.5-2.2l0,0l0,0l0,0l0,0l0,0l0,0l0,0l0,0l0,0l0,0l0,0l0,0l0,0l0,0l0,0l0,0l0,0l0,0l0,0c0,0,0,0,0,0.1
		c0,0,0,0,0,0.1c0,0,0,0,0,0.1l0,0c0,0,0,0-0.1,0.1L375.3,426.9C375.3,427,375.3,427,375.3,426.9C375.3,427,375.3,427,375.3,426.9z"
		/>
	<path class="st1" d="M372.9,423.1L372.9,423.1L372.9,423.1c0-0.1,0.1-0.1,0.1-0.1l0,0l0,0l0,0c0,0,0,0,0-0.1c0,0,0,0,0-0.1
		c0,0,0,0,0-0.1c0,0,0,0,0-0.1c0,0,0,0,0-0.1c0,0,0,0,0-0.1c0,0,0,0,0-0.1c0,0,0,0,0-0.1c0,0,0,0,0-0.1c0,0,0,0,0-0.1c0,0,0,0,0-0.1
		c0,0,0,0,0-0.1c0,0,0,0,0-0.1l0-0.1l0-0.1l0-0.1c0,0,0,0,0-0.1l-14.5-23.3l17,1.7c0-0.1,0-0.3,0-0.4c0-0.1,0-0.3,0-0.4l-19.1-1.9
		L372.9,423.1C372.8,423.2,372.8,423.2,372.9,423.1C372.8,423.2,372.8,423.1,372.9,423.1z"/>
	<path class="st1" d="M376.1,424l-1.3-2.1l0,0c0,0,0,0,0,0.1c0,0,0,0,0,0.1c0,0,0,0,0,0.1c0,0,0,0,0,0.1l0,0l0,0l0,0l0,0l0,0l0,0
		l0,0c-0.1,0.1-0.2,0.3-0.2,0.6l0,0l0,0l1.5,2.2C375.9,425,375.9,424.4,376.1,424z"/>
	<path class="st1" d="M373.1,421.3C373.2,421.1,373.2,421.1,373.1,421.3c0.1-0.1,0.1-0.1,0-0.3l0.1,0l0-0.1c0,0,0-0.1,0.1-0.1
		c0,0,0-0.1,0.1-0.1c0,0,0-0.1,0.1-0.1c0,0,0-0.1,0.1-0.1l0-0.1l0-0.1l0-0.1l0-0.1l0-0.1l0,0l-12.8-20.5l15.1,1.4c0,0,0-0.1,0.1-0.1
		c0.1-0.1,0-0.4,0-0.5l0-0.1l-17-1.7L373.1,421.3C373.1,421.4,373.1,421.4,373.1,421.3L373.1,421.3z"/>
	<path class="st1" d="M376.4,422.5l-1.1-1.8c0,0,0,0-0.1,0l0,0l0,0l0,0l0,0l0,0l0,0l0,0l0,0l0,0l0,0c0,0,0,0,0,0.1c0,0,0,0,0,0.1
		c0,0,0,0,0,0.1c0,0,0,0,0,0.1c0,0,0,0,0,0.1c0,0,0,0.1-0.1,0.1c0,0,0,0,0,0.1c0,0,0,0,0,0.1l0,0l1.3,2.1
		C376.2,423.4,376.3,423,376.4,422.5z"/>
	<path class="st1" d="M373.3,419.4L373.3,419.4c0.1-0.1,0.1-0.1,0-0.3l0-0.1l0-0.1l0-0.1c0,0,0,0,0-0.1l0,0c0,0,0,0,0-0.1
		c0,0,0,0,0-0.1c0,0,0,0,0-0.1c0,0,0,0,0-0.1c0,0,0,0,0-0.1c0,0,0,0,0-0.1c0,0,0,0,0-0.1c0,0,0,0,0-0.1c0,0,0,0,0-0.1c0,0,0,0,0-0.1
		c0,0,0,0,0-0.1c0,0,0,0,0-0.1l-11.2-17.8l13.2,1.3l0,0c0-0.1,0-0.3,0-0.4c0-0.1,0.1-0.1,0-0.3l-15.1-1.4l12.8,20.5
		C373.3,419.6,373.4,419.5,373.3,419.4C373.4,419.5,373.4,419.5,373.3,419.4z"/>
	<path class="st1" d="M376.8,421.1l-1-1.4l0,0l0,0l0,0l0,0l0,0l0,0l0,0l0,0l0,0l0,0l0,0l0,0l0,0c-0.1,0.1-0.2,0.3-0.2,0.4l1.1,1.8
		c0.2-0.7,0.3-1.1,0.3-1.1C376.8,421.3,376.8,421.2,376.8,421.1z"/>
	<path class="st1" d="M373.6,417.8L373.6,417.8L373.6,417.8c0.1-0.1,0.1-0.1,0-0.3l0-0.1l0-0.1l0-0.1l0-0.1l0-0.1l0-0.1l0-0.1l0-0.1
		l0-0.1l0-0.1l0-0.1c0,0,0-0.1,0.1-0.1l0,0l-9.6-15.3l11.3,1c0-0.1,0-0.3,0-0.4c0-0.1,0-0.3,0-0.4l-13.2-1.3L373.6,417.8z"/>
	<path class="st1" d="M373.8,415.9c0,0,0-0.1,0.1-0.1c0,0,0-0.1,0.1-0.1c0,0,0-0.1,0.1-0.1c0,0,0-0.1,0.1-0.1c0,0,0-0.1,0.1-0.1
		c0.1-0.1,0-0.4,0.1-0.5l-7.9-12.7l9.4,0.9c0-0.1,0-0.3,0-0.3c0-0.1,0-0.3,0-0.4l0,0l-11.3-1l9.6,15.3l0-0.1
		C373.7,416,373.7,415.9,373.8,415.9z"/>
	<path class="st1" d="M377.2,421l0.1-0.8l0.1-0.1l-1-1.5c0,0,0,0.1-0.1,0.1c-0.1,0.1,0,0.3-0.1,0.4l-0.1,0.1c0,0,0,0,0,0.1
		c0,0,0,0,0,0.1c0,0,0,0,0,0.1c0,0,0,0,0,0.1l0,0l0,0l0,0l0,0l1,1.4c0.1-0.1,0.1-0.1,0.2-0.3L377.2,421z"/>
	<path class="st1" d="M377.8,418.8l-1-1.6l0,0c-0.1,0.1-0.2,0.3-0.1,0.5c-0.1,0.1-0.2,0.3-0.1,0.4c-0.1,0.1-0.1,0.1-0.2,0.3l1,1.5
		C377.5,419.6,377.6,419.2,377.8,418.8z"/>
	<path class="st1" d="M367.7,402.6l7.5,0.7c0,0,0,0,0.1-0.1c0-0.1,0.1-0.1,0-0.3c0-0.1,0.1-0.1,0-0.3l0,0l-9.4-0.9l7.9,12.7
		c0.1-0.5,0.1-1.1,0.2-1.6L367.7,402.6z"/>
	<path class="st1" d="M377.8,418.8C377.8,418.8,377.8,418.7,377.8,418.8C377.9,418.6,377.9,418.6,377.8,418.8
		c0.1-0.1,0.1-0.1,0.1-0.1l0,0l0,0c0,0,0,0,0-0.1c0,0,0,0,0-0.1c0,0,0,0,0-0.1c0,0,0,0,0-0.1c0,0,0,0,0-0.1c0,0,0,0,0-0.1
		c0,0,0,0,0-0.1c0,0,0,0,0-0.1c0,0,0,0,0-0.1l0,0l-1.1-1.8l0,0.3c-0.1,0.1-0.1,0.4-0.2,0.6c-0.1,0.1-0.2,0.3-0.1,0.4L377.8,418.8
		L377.8,418.8L377.8,418.8z"/>
	<path class="st1" d="M369.3,403.4l6.3,0.5l0,0c-0.1-0.1-0.2-0.2-0.3-0.2c-0.1-0.1-0.3-0.2-0.3-0.2l0.1-0.1l0.1-0.1l-7.5-0.7
		l6.4,10.4c0.1-0.5,0.2-1,0.1-1.5L369.3,403.4z"/>
	<path class="st1" d="M374.3,411.4c0-0.6,0.1-1.1,0.1-1.5l-3.5-5.6l5.7,0.6c0,0,0,0,0-0.1c-0.1-0.1-0.3-0.2-0.3-0.3
		c-0.1-0.1-0.3-0.2-0.3-0.3c-0.1-0.1-0.2-0.2-0.3-0.2l-6.3-0.5L374.3,411.4z"/>
	<path class="st1" d="M378.2,417.4L378.2,417.4c0.1-0.1,0.1-0.1,0-0.3c0,0,0-0.1,0.1-0.1c0,0,0-0.1,0.1-0.1c0,0,0-0.1,0.1-0.1
		c0,0,0-0.1,0.1-0.1c0,0,0-0.1,0.1-0.1c0,0,0-0.1,0.1-0.1c0,0,0,0,0-0.1l-1.1-1.9l0,0c0,0,0,0.1-0.1,0.1c0,0,0,0.1-0.1,0.1
		c0,0,0,0.1-0.1,0.1c0,0,0,0.1-0.1,0.1c0,0,0,0.1-0.1,0.1c0,0,0,0.1-0.1,0.1c0,0,0,0.1-0.1,0.1c0,0,0,0.1-0.1,0.1l0,0.1l0,0.1l0-0.1
		l0,0.1l1.1,1.8C378.2,417.7,378.2,417.6,378.2,417.4C378.2,417.6,378.3,417.5,378.2,417.4z"/>
	<path class="st1" d="M374.7,409.4l0.1,0.1l0.1,0.1l0.1,0.1l0.1,0.1l0.1,0.1l0.1,0.1l0,0l-3.1-4.9l5.1,0.5c0,0,0-0.1-0.1-0.1
		c-0.1-0.1-0.3-0.3-0.5-0.3c-0.1-0.1-0.2-0.2-0.3-0.3l-5.7-0.6l3.5,5.6C374.5,409.6,374.5,409.4,374.7,409.4
		C374.5,409.4,374.6,409.5,374.7,409.4z"/>
	<path class="st1" d="M378.6,416.2c0,0,0-0.1,0.1-0.1c0,0,0-0.1,0.1-0.1c0,0,0-0.1,0.1-0.1l0.1-0.1l0.1-0.1l0.1-0.1l0,0l-1.1-1.8
		l-0.1,0.1l-0.1,0.1c0,0,0,0.1-0.1,0.1c0,0,0,0.1-0.1,0.1c0,0,0,0.1-0.1,0.1c0,0,0,0.1-0.1,0.1c0,0,0,0.1-0.1,0.1c0,0,0,0.1-0.1,0.1
		l1.1,1.9l0,0C378.5,416.3,378.6,416.3,378.6,416.2z"/>
	<path class="st1" d="M375.8,410.1C375.9,410,375.9,410.2,375.8,410.1c0.1,0.1,0.1,0.1,0.3,0.2l0.1,0.1l0.1,0.1l0.1,0.1l0.1,0.1
		l0.1,0.1l0,0l-3-4.8l4.3,0.5c-0.1-0.1-0.2-0.2-0.3-0.3c-0.1-0.1-0.3-0.3-0.4-0.4l-5.1-0.5l3.1,4.9C375.6,410,375.6,410,375.8,410.1
		C375.7,410,375.8,410.1,375.8,410.1z"/>
	<path class="st1" d="M378.8,415c0-0.1,0.1-0.1,0-0.3s0.1-0.1,0-0.3c0-0.1,0.1-0.1,0-0.3c0-0.1,0.1-0.1,0-0.3s0.1-0.1,0-0.3l0,0
		L378,412l0,0c0,0.1-0.1,0.1,0,0.3c0,0.1-0.1,0.1,0,0.3c0,0.1-0.1,0.1,0,0.3l-0.1,0.1l-0.1,0.1l-0.1,0.1l0,0l1.1,1.8
		C378.9,415.1,378.8,415,378.8,415z"/>
	<path class="st1" d="M379.1,413.3c0-0.1,0.1-0.1,0-0.3c0-0.1,0-0.3,0-0.3c0-0.1,0-0.3,0-0.3l0,0l-3.8-5.9l3.4,0.3
		c0-0.1-0.2-0.2-0.2-0.3c0-0.1-0.2-0.2-0.3-0.3l-4.3-0.5l3,4.8l0.1,0.1l0.1,0.1l0.1,0.1c0.1,0,0.1,0.1,0.1,0.1c0.1,0,0.1,0,0.3,0
		c0.1,0,0.1,0,0.2-0.1l0,0.1c0,0-0.1,0.1,0,0.3c0,0.1-0.1,0.1,0,0.3c0,0.1-0.1,0.1,0,0.3c0,0.1-0.1,0.1,0,0.3l-0.1,0.1l1.1,1.8
		c0-0.1,0.1-0.1,0-0.3C379.1,413.6,379.1,413.4,379.1,413.3z"/>
	<path class="st1" d="M379.2,412.4c0-0.1,0-0.3,0-0.3c0-0.1,0-0.3,0-0.4c0-0.1,0-0.3,0-0.4c0-0.1,0-0.3,0-0.4l0,0l-2.3-3.8l2.4,0.2
		c-0.1-0.2-0.3-0.4-0.4-0.6l-3.4-0.3L379.2,412.4z"/>
	<path class="st1" d="M379.2,410.2C379.2,410.1,379.2,410.1,379.2,410.2c0.1-0.1,0.1-0.1,0-0.3l0.1-0.1l-1.2-1.8l1.3,0.1
		c-0.1-0.2-0.1-0.4-0.3-0.5l-2.4-0.2l2.3,3.8c0-0.1,0-0.3,0-0.4C379.3,410.4,379.3,410.3,379.2,410.2z"/>
	<path class="st1" d="M379.5,409.7L379.5,409.7c0.1-0.1,0.2-0.3,0.1-0.4c0.1-0.1,0-0.3,0.1-0.4c0-0.1,0-0.3,0-0.4l0,0l0,0
		c0,0,0,0,0-0.1c0-0.1-0.1-0.3-0.1-0.4l-1.3-0.1L379.5,409.7z"/>
	<path class="st1" d="M379.6,408.6L379.6,408.6L379.6,408.6L379.6,408.6z"/>
</g>
</svg>
