<?xml version="1.0" encoding="utf-8"?>
<!-- Generator: Adobe Illustrator 22.0.1, SVG Export Plug-In . SVG Version: 6.00 Build 0)  -->
<svg version="1.1" id="レイヤー_1" xmlns="http://www.w3.org/2000/svg" xmlns:xlink="http://www.w3.org/1999/xlink" x="0px"
	 y="0px" viewBox="0 0 640 640" style="enable-background:new 0 0 640 640;" xml:space="preserve">
<style type="text/css">
	.st0{fill:none;stroke:#FFFFFF;stroke-width:0.1716;stroke-miterlimit:10;}
</style>
<g>
	<path class="st0" d="M234.8,266.4c0.1-0.1,0.2-0.2,0.4-0.3l-1.9,0.8l0.5,0.6C234.1,267,234.5,266.6,234.8,266.4z"/>
	<path class="st0" d="M231,268.3c0,0-0.6,0-1.1,0.3c-0.1,0-0.3,0.1-0.4,0.3l1.3,1.7c0.3-0.4,0.7-0.8,1-1.1c0.1-0.1,0.2-0.2,0.3-0.3
		l-1.1-1.4C231.1,267.8,231.1,268.1,231,268.3z"/>
	<path class="st0" d="M242.4,288.3c0-0.2-0.1-0.4-0.2-0.6c-0.1-0.2-0.2-0.4-0.2-0.6c0-0.2-0.2-0.4-0.3-0.6c-0.2-0.2-0.3-0.4-0.3-0.6
		c-0.2-0.2-0.3-0.4-0.4-0.6c-0.2-0.2-0.4-0.4-0.5-0.6c-0.2-0.2-0.4-0.4-0.7-0.5s-0.6-0.4-0.9-0.4c-0.1-0.1-0.3-0.1-0.4-0.1l4.2,5.4
		C242.4,288.7,242.4,288.5,242.4,288.3z"/>
	<path class="st0" d="M229.3,269.7c0,0-0.2,0.1-0.4,0.1c-0.2,0.1-0.4,0.2-0.6,0.3l1.4,1.8c0.4-0.5,0.8-0.9,1.3-1.5l-1.3-1.7
		C229.3,269,229.2,269.3,229.3,269.7z"/>
	<path class="st0" d="M236,283.5l9.9,13c0.2-0.5,0.2-1.1,0.1-1.7c-0.1-0.3-0.2-0.6-0.3-0.9c-0.1-0.3-0.2-0.5-0.4-0.7
		c-0.2-0.2-0.3-0.4-0.4-0.6s-0.3-0.4-0.4-0.6c-0.1-0.1-0.3-0.4-0.4-0.5s-0.2-0.3-0.4-0.4c-0.2-0.2-0.3-0.3-0.4-0.4
		c-0.2-0.2-0.4-0.3-0.4-0.4c-0.1-0.1-0.2-0.2-0.2-0.2s0-0.1-0.1-0.4c0-0.1-0.1-0.4-0.1-0.6l0-0.1l-4.2-5.4c-0.3-0.1-0.6-0.1-0.9-0.1
		C236.9,283.4,236.6,283.4,236,283.5z"/>
	<path class="st0" d="M145,309.3c-0.4,0.2-0.7,0.4-1.1,0.6c-0.6,0.3-1.2,0.7-1.8,1.1c-0.6,0.3-1.1,0.7-1.7,1c-0.5,0.3-1.1,0.6-1.6,1
		c-0.3,0.2-0.6,0.4-1,0.6l6.1-1.5L145,309.3z"/>
	<path class="st0" d="M227.7,270.6c-0.4,0.3-0.5,0.8,0,1.3c0,0-0.1,0-0.3,0.1l1.1,1.5c0.1,0,0.1-0.1,0.2-0.2c0.3-0.4,0.7-0.8,1-1.2
		l0,0l-1.4-1.8C228.1,270.4,227.8,270.5,227.7,270.6z"/>
	<path class="st0" d="M226.8,272.1c-0.3,0.2-0.7,0.4-1,0.7l1.4,1.9c0.1-0.1,0.2-0.3,0.3-0.4c0.2-0.3,0.6-0.7,0.8-0.9l-1.1-1.5
		C227.2,272,227,272.1,226.8,272.1z"/>
	<path class="st0" d="M234.3,284.1l10.6,13.9c0.3-0.3,0.6-0.6,0.8-0.8l0.2-0.5c0-0.1,0-0.1,0.1-0.2l-10-13
		C235.5,283.6,234.9,283.8,234.3,284.1z"/>
	<path class="st0" d="M135.9,315c-0.5,0.3-0.9,0.6-1.3,0.9c-0.4,0.3-0.9,0.6-1.3,0.9c-0.1,0-0.2,0.2-0.3,0.2l13.2-3.2l2.5-6.5
		c-0.3,0.1-0.5,0.2-0.8,0.4c-0.7,0.4-1.5,0.8-2.1,1.1c-0.3,0.1-0.6,0.3-0.9,0.5l-1.1,2.8l-6.1,1.5c-0.2,0.1-0.4,0.3-0.6,0.3
		C136.8,314.4,136.3,314.7,135.9,315z"/>
	<path class="st0" d="M152.9,298.3C152.8,298.3,152.8,298.3,152.9,298.3C152.8,298.3,152.9,298.4,152.9,298.3c0.1,0,0.2,0.1,0.2,0
		C153,298.2,152.9,298.2,152.9,298.3z"/>
	<path class="st0" d="M152.4,304.3c-0.4,0.4-0.8,0.8-1.1,1.1l1.1-0.1l0.7-1.5C152.8,303.9,152.6,304.1,152.4,304.3z"/>
	<path class="st0" d="M225.5,275.1l-0.2,0.2l0.7,0.9c0.2-0.2,0.3-0.4,0.5-0.6c0.2-0.2,0.4-0.4,0.6-0.8l-1.4-1.9c0,0.1-0.1,0-0.1,0.1
		C225.3,273.5,225.2,274.1,225.5,275.1z"/>
	<path class="st0" d="M243.4,298.9c0.3-0.1,0.5-0.3,0.8-0.5s0.5-0.3,0.7-0.5l-10.6-13.9c-0.5,0.2-1,0.5-1.5,0.9L243.4,298.9z"/>
	<path class="st0" d="M133,316.9c-0.3,0.2-0.6,0.4-0.9,0.7c-0.4,0.3-0.7,0.6-1.2,0.8c-0.4,0.3-0.7,0.5-1,0.8c-0.4,0.3-0.7,0.5-1,0.7
		l19.5-4.8l3.8-9.8c-0.7,0.3-1.4,0.7-2.1,1.1c-0.5,0.2-1,0.5-1.5,0.8l-2.5,6.5L133,316.9z"/>
	<path class="st0" d="M154.8,298.2c-0.4,0.1-0.6,0.1-1,0.1c-0.3,0.1-0.6,0-0.8,0.1c0.2,0.1,0.6,0.2,0.9,0.4c0.2,0.1,0.5,0.3,0.8,0.4
		l0.4-0.9C155.1,298.2,154.9,298.2,154.8,298.2z"/>
	<path class="st0" d="M224.4,276.9l1.1,1.5c0.2-0.2,0.3-0.4,0.2-0.6c0.1,0,0.2,0,0.2,0l-0.4-1.1c0.1-0.1,0.3-0.3,0.4-0.5l-0.7-0.9
		l-0.2,0.2L224.4,276.9z"/>
	<path class="st0" d="M128.2,320.5c-0.2,0.2-0.3,0.3-0.5,0.4c-0.2,0.2-0.3,0.3-0.5,0.4c-0.2,0.2-0.3,0.3-0.5,0.4
		c-0.1,0-0.2,0.2-0.2,0.2c0,0-0.1,0.1-0.3,0.3c-0.1,0.1-0.2,0.2-0.3,0.3l25-6.1l6.1-15.8c-0.2,0.2-0.4,0.3-0.7,0.5
		c-0.3,0.1-0.5,0.3-0.7,0.5c-0.3,0.1-0.5,0.3-0.8,0.6c-0.2,0.2-0.5,0.4-0.8,0.6c-0.2,0.2-0.5,0.4-0.7,0.6c-0.1,0-0.1,0.1-0.1,0.1
		l-0.7,1.5l0.3-0.1c-0.1,0-0.3,0.1-0.4,0.2l-3.8,9.8l-19.5,4.8c-0.1,0-0.2,0.2-0.2,0.2C128.5,320.3,128.4,320.4,128.2,320.5z"/>
	<path class="st0" d="M156.6,300c0.2,0.1,0.4,0.2,0.6,0.4l1-2.5c-0.3,0-0.5,0-0.7,0.1c-0.3,0.1-0.6,0-0.8,0.1
		c-0.3,0.1-0.6,0-0.9,0.1c-0.2,0-0.4,0.1-0.5,0l-0.4,0.9c0.2,0.1,0.4,0.2,0.4,0.3C155.8,299.5,156.2,299.8,156.6,300z"/>
	<path class="st0" d="M241.7,299.6c0.2-0.1,0.4-0.1,0.5-0.2c0.4-0.1,0.6-0.3,0.9-0.3c0.1,0,0.1,0,0.3-0.1l-10.6-14.1
		c-0.5,0.3-0.9,0.6-1.4,0.9L241.7,299.6z"/>
	<path class="st0" d="M224.2,277.4l-0.9-0.3l-0.7-0.3l-0.1,0l1.7,2.2c0.3-0.1,0.6-0.3,1-0.4c0.3-0.1,0.4-0.3,0.5-0.3l-1.1-1.5
		l-0.1,0.1L224.2,277.4z"/>
	<path class="st0" d="M124.9,323.5c-0.2,0.2-0.4,0.3-0.6,0.6c-0.2,0.2-0.4,0.3-0.6,0.6c-0.2,0.2-0.4,0.4-0.6,0.6l-0.1,0l29.8-7.2
		l8-20.5c-0.1,0-0.3,0-0.4,0.1c-0.3,0-0.5,0-0.8,0.1c-0.3,0-0.5,0-0.8,0.1c-0.3,0.1-0.5,0-0.8,0.1c-0.1,0-0.1,0-0.1,0l-1,2.5
		c0.2,0.1,0.3,0.2,0.3,0.2s-0.2,0.2-0.5,0.3l-0.1,0l-6.1,15.8l-25,6.1c-0.1,0-0.1,0.1-0.2,0.2C125.3,323.1,125.1,323.3,124.9,323.5z
		"/>
	<path class="st0" d="M231.2,286c0,0-0.2,0-0.5-0.2c-0.3-0.1-0.7-0.2-1.3-0.4c-0.2,0-0.4-0.1-0.7-0.1L240,300c0.3,0,0.4-0.1,0.6-0.1
		c0.3-0.1,0.5-0.2,0.8-0.2c0.1,0,0.3,0,0.3-0.1l-10.4-13.7C231.3,285.9,231.3,285.9,231.2,286z"/>
	<path class="st0" d="M226.6,285.1l12.1,15.9c0.2-0.5,0.3-0.8,0.3-0.8c0.1,0,0.1,0,0.2-0.1c0.3,0,0.5-0.1,0.7-0.1c0.1,0,0.1,0,0.1,0
		l-11.1-14.7c-0.2,0-0.5-0.1-0.8-0.1C227.6,285.2,227.1,285.1,226.6,285.1z"/>
	<path class="st0" d="M121.9,326.5c-0.2,0.2-0.4,0.4-0.6,0.7c-0.2,0.2-0.4,0.3-0.5,0.6l34.1-8.3l8.7-22.3c-0.1,0-0.3,0-0.4,0.1
		c-0.3,0-0.4,0.1-0.6,0.1c-0.3,0-0.5,0-0.6,0.1c-0.3,0-0.5,0-0.7,0.1c-0.1,0-0.3,0-0.4,0.1l-8,20.5l-29.7,7.1
		c-0.2,0.2-0.4,0.3-0.5,0.5C122.3,326,122.1,326.3,121.9,326.5z"/>
	<path class="st0" d="M221.8,277.3l-0.8,0.5l1.4,1.9c0.1,0,0.2,0,0.2,0l0.1,0c0.2-0.1,0.7-0.2,1.2-0.4c0.1,0,0.1,0,0.2-0.1l-1.7-2.2
		l-0.5,0.2L221.8,277.3z"/>
	<path class="st0" d="M245.1,311L245.1,311c0,0.1,0.1,0.1,0.1,0.1l11.2,0.2l0-0.1l0.1,0l1.6-0.7l1-0.4c-0.3,0.1-1.4,0.1-2.9,0.1
		c-2.1,0-4.9-0.1-7.5-0.2c-0.4,0-0.7,0-1.1,0c-0.4,0-0.7,0-1,0c-0.4,0-0.6,0-1,0c-0.4,0-0.6,0-1,0c-0.4,0-0.6,0-1,0
		c-0.1,0-0.1,0-0.2,0l0.7,0.9L245.1,311z"/>
	<path class="st0" d="M220.9,277.8l-1,0.5c-0.1,0-0.3,0.1-0.4,0.1l1,1.3c0.4-0.1,0.7-0.1,1.1-0.1c0.3,0,0.6,0,0.8,0.1L220.9,277.8
		L220.9,277.8z"/>
	<path class="st0" d="M224.5,284.9l13.4,17.5c0.4-0.6,0.7-1.2,0.8-1.5l-12.1-15.9c-0.1,0-0.2,0-0.3,0
		C225.8,285,225.2,285,224.5,284.9z"/>
	<path class="st0" d="M120,328.6c-0.2,0.3-0.4,0.5-0.6,0.8c-0.2,0.2-0.4,0.4-0.6,0.7l38.2-9.2l9.3-23.9l0,0
		c-0.2,0.1-0.4,0.1-0.6,0.1c-0.2,0.1-0.4,0.1-0.6,0.1c-0.2,0.1-0.4,0.1-0.6,0.1c-0.2,0.1-0.4,0.1-0.6,0.1c-0.1,0-0.2,0-0.3,0.1
		l-8.7,22.3l-34.1,8.3c-0.1,0-0.1,0.1-0.1,0.1C120.4,328,120.2,328.3,120,328.6z"/>
	<path class="st0" d="M218.1,279l0.8,1c0.2-0.1,0.4-0.1,0.5-0.1c0.4-0.1,0.7-0.1,1.1-0.2l0.1,0l-1-1.3c-0.2,0.1-0.3,0.2-0.6,0.2
		C218.7,278.7,218.4,278.8,218.1,279z"/>
	<path class="st0" d="M248.7,311.9c0.3-0.2,0.6-0.3,0.6-0.3c0.1,0.2,0.1,0.3,0.3,0.4c0.3,0.4,1,0.4,1.6,0.2c0.6-0.1,1.2-0.4,1.2-0.4
		c0.7,0.8,1.6,0.3,2.1,0c0.3-0.1,0.4-0.3,0.4-0.3c0.3,0.2,1,0.4,1.5,0.6c0.3,0.1,0.5,0.1,0.5,0.1l-0.1,0l-0.2-0.8l-11.2-0.2
		C246.3,312.5,247.8,312.2,248.7,311.9z"/>
	<path class="st0" d="M223.4,284.9c-0.2,0-0.5,0-0.8,0l14.3,18.9c0.3-0.4,0.7-0.9,0.9-1.3l-13.3-17.5l-0.1,0
		C224.1,284.9,223.8,284.9,223.4,284.9z"/>
	<path class="st0" d="M117.9,330.9c-0.2,0.3-0.5,0.6-0.7,0.8c-0.1,0.1-0.2,0.3-0.3,0.4l41.9-10.2l10-25.5c-0.2,0-0.4,0.1-0.5,0
		c-0.2,0-0.3,0.1-0.5,0c-0.2,0-0.4,0.1-0.5,0c-0.2,0-0.4,0.1-0.5,0c-0.2,0-0.4,0.1-0.5,0l-9.4,23.9l-38.2,9.2c0,0.1-0.1,0-0.1,0.1
		C118.4,330.3,118.2,330.6,117.9,330.9z"/>
	<path class="st0" d="M242.7,309.8c0.2-0.3,0.2-0.5,0.2-0.7c0-0.2-0.1-0.3-0.4-0.3c-0.3,0-0.6,0-0.9,0.2c-0.1,0-0.3,0.1-0.4,0.1
		l1,1.3l0-0.1l0.3,0.1l0.8,0.1l0.9,0.2l0,0l-0.7-0.9c-0.3,0-0.5,0-0.7,0C242.7,309.9,242.7,309.8,242.7,309.8z"/>
	<path class="st0" d="M240.5,309.4c-0.3,0.1-0.6,0.2-0.7,0.3l1.6,2.1l0.3,0l0.6-1.3l-1-1.3C240.9,309.2,240.7,309.3,240.5,309.4z"/>
	<path class="st0" d="M221.2,284.9c-0.1,0-0.2,0-0.4,0l15.3,20c0.1-0.1,0.2-0.3,0.3-0.4c0.2-0.2,0.4-0.5,0.6-0.8l-14.3-18.8
		c-0.1,0-0.2,0-0.4,0C221.9,284.9,221.5,285,221.2,284.9z"/>
	<path class="st0" d="M116.9,332.2c-0.1,0.1-0.2,0.3-0.3,0.4c-0.2,0.3-0.4,0.6-0.7,0.9c-0.1,0.2-0.3,0.4-0.4,0.7l45.2-10.8
		l11.2-28.7c-0.1,0-0.1,0-0.2,0.1c-0.2,0.1-0.4,0.3-0.5,0.3c-0.2,0.1-0.4,0.3-0.5,0.3c-0.2,0.2-0.3,0.2-0.4,0.4
		c-0.1,0.1-0.2,0.3-0.2,0.5c0,0.1,0,0.1,0.1,0.2c0,0-0.3,0-0.6,0.1c-0.2,0.1-0.5,0-0.7,0.1l-10,25.5L116.9,332.2z"/>
	<path class="st0" d="M217.1,279.5c-0.1,0-0.2,0.1-0.3,0.1l0.7,0.9c0.3-0.1,0.6-0.2,0.9-0.4c0.2-0.1,0.3-0.1,0.5-0.1l-0.8-1
		c-0.1,0-0.1,0-0.1,0C217.7,279.2,217.4,279.4,217.1,279.5z"/>
	<path class="st0" d="M239.3,310c-0.2,0.2-0.3,0.6-0.5,0.7l1.2,1.6l0.9-0.3l0.1,0l0.5-0.1l-1.6-2.1c-0.1,0-0.3,0.1-0.3,0.1
		C239.3,310,239.3,310,239.3,310z"/>
	<path class="st0" d="M114.9,335.6c-0.1,0.2,0,0.2-0.1,0.4l47.7-11.5l12.3-31.4c-0.1,0-0.3,0.1-0.4,0.2c-0.3,0.1-0.5,0.2-0.7,0.3
		s-0.5,0.2-0.6,0.3c-0.3,0.1-0.4,0.3-0.6,0.3c-0.2,0.1-0.3,0.1-0.4,0.3l-11.2,28.7l-45.2,10.8c-0.1,0.1-0.1,0.2-0.2,0.4
		C115.1,334.9,115,335.2,114.9,335.6z"/>
	<path class="st0" d="M215.6,280.3l0.7,0.9c0.1,0,0.3-0.1,0.4-0.2c0.3-0.1,0.6-0.3,0.9-0.5l0,0l-0.7-0.9c-0.2,0.1-0.4,0.2-0.6,0.3
		C216,280,215.8,280.2,215.6,280.3z"/>
	<path class="st0" d="M219.1,285l16,21c0.4-0.3,0.6-0.8,1-1.1l-15.3-20c-0.2,0-0.5,0-0.8,0.1C219.8,285,219.4,285,219.1,285z"/>
	<path class="st0" d="M115.2,337.1l0.1,0.1l0.3,0.1c0,0-0.1,0-0.1,0.2l48.8-11.8l12-30.8c-0.1,0-0.2,0.1-0.3,0.1l-0.3-0.2
		c0.1-0.1,0.4-0.3,0.5-0.4c0.1,0,0.2-0.2,0.3-0.2l0.9-2.3c-0.3,0.1-0.5,0.2-0.8,0.4c-0.3,0.1-0.6,0.2-0.8,0.4
		c-0.3,0.1-0.6,0.2-0.7,0.3c-0.1,0-0.2,0.1-0.3,0.1l-12.3,31.4L114.7,336C114.8,336.5,114.9,336.9,115.2,337.1z"/>
	<path class="st0" d="M218.1,285.2c-0.2,0-0.4,0.1-0.5,0l16.6,21.9c0.2-0.3,0.5-0.5,0.8-0.8c0.1,0,0.1-0.1,0.2-0.2l-16-21l-0.1,0
		C218.7,285.1,218.4,285.1,218.1,285.2z"/>
	<path class="st0" d="M214.6,280.9c-0.1,0-0.2,0.1-0.3,0.1l0.8,1c0.3-0.1,0.4-0.3,0.7-0.5c0.1-0.1,0.3-0.2,0.5-0.3l-0.7-0.9
		c-0.1,0-0.1,0-0.1,0.1C215.1,280.6,214.9,280.7,214.6,280.9z"/>
	<path class="st0" d="M237.8,311.4c-0.1,0-0.1,0.1-0.3,0.1l0.9,1.2c0.1,0,0.2-0.1,0.3-0.1c0.5-0.2,0.7-0.3,0.7-0.3l0.3-0.1l0.1,0
		l-1.2-1.6C238.5,311,238.2,311.2,237.8,311.4z"/>
	<path class="st0" d="M213.2,281.8l0.8,1.1c0.1,0,0.1-0.1,0.2-0.2c0.2-0.2,0.4-0.4,0.7-0.6l0.1,0l-0.8-1c-0.2,0.1-0.4,0.2-0.5,0.3
		C213.7,281.5,213.5,281.6,213.2,281.8z"/>
	<path class="st0" d="M216.2,285.3c-0.1,0-0.1,0-0.2,0l17.3,22.7c0.2-0.2,0.3-0.3,0.5-0.5c0.2-0.2,0.3-0.3,0.5-0.5l-16.6-21.9
		c-0.1,0-0.3,0.1-0.4,0.1C216.7,285.2,216.5,285.3,216.2,285.3z"/>
	<path class="st0" d="M177.7,293.5c0.3-0.1,0.5-0.2,0.7-0.4c0.3-0.1,0.5-0.3,0.8-0.4c0.1,0,0.2-0.1,0.3-0.1l0.8-2
		c-0.2,0.1-0.4,0.3-0.5,0.3c0,0-0.1,0-0.3,0.1c-0.2,0.1-0.5,0.2-0.9,0.3c-0.3,0.1-0.6,0.2-0.9,0.3c0,0,0,0-0.1,0l-0.9,2.3
		c0.1,0,0.3-0.1,0.3-0.2C177.2,293.8,177.4,293.7,177.7,293.5z"/>
	<path class="st0" d="M115.4,339l50.7-12.2l12.7-32.6c-0.1,0-0.1,0-0.1,0c-0.3,0.1-0.6,0.2-0.9,0.3c-0.3,0.1-0.6,0.2-0.9,0.2
		c-0.3,0-0.4,0.1-0.6,0.2l-12,30.8l-48.8,11.8c0,0.2-0.2,0.6-0.2,1.1C115.3,338.7,115.3,338.9,115.4,339z"/>
	<path class="st0" d="M236.5,312.3l0.8,1c0.2-0.1,0.4-0.1,0.6-0.2c0.3-0.1,0.5-0.2,0.7-0.3l-0.9-1.2c-0.3,0.2-0.6,0.4-0.9,0.6
		C236.7,312.3,236.6,312.3,236.5,312.3z"/>
	<path class="st0" d="M235.3,312.9l0.7,0.9c0.3-0.1,0.6-0.2,0.9-0.3c0.1,0,0.3-0.1,0.4-0.1l-0.8-1c-0.3,0.1-0.5,0.2-0.7,0.3
		C235.6,312.7,235.5,312.8,235.3,312.9z"/>
	<path class="st0" d="M115.8,340.3c0,0.1,0,0.1,0.1,0.1l51.8-12.5l13.5-34.5c-0.2,0.1-0.4,0.1-0.6,0.2c-0.4,0.1-0.7,0.2-0.9,0.3
		s-0.6,0.2-0.8,0.2l-12.7,32.6l-50.7,12.2C115.4,339.4,115.6,339.8,115.8,340.3z"/>
	<path class="st0" d="M180.2,292.2c0.1-0.1,0.2-0.3,0.4-0.4c0.2-0.2,0.5-0.3,0.7-0.5c0.3-0.1,0.5-0.3,0.8-0.5c0,0,0,0,0.1,0l0.6-1.6
		l-0.1,0c-0.3,0.1-0.6,0.3-1,0.4c-0.3,0.1-0.6,0.3-0.9,0.5c-0.3,0.1-0.5,0.3-0.8,0.5l0,0l-0.8,2c0.3-0.1,0.4-0.2,0.6-0.2
		C180,292.2,180.2,292.2,180.2,292.2z"/>
	<path class="st0" d="M212.4,282.3c-0.1,0-0.1,0.1-0.2,0.2l2,2.7l-0.3-0.9l-0.3-1.1c0.1-0.1,0.2-0.3,0.5-0.5l-0.8-1.1
		c-0.1,0-0.1,0-0.2,0.1C212.9,282,212.6,282.2,212.4,282.3z"/>
	<path class="st0" d="M215.3,285.4c-0.3,0-0.5,0.1-0.7,0.1l17.8,23.3c0.1-0.1,0.2-0.2,0.3-0.3c0.2-0.2,0.4-0.4,0.6-0.6L216,285.3
		C215.8,285.4,215.5,285.5,215.3,285.4z"/>
	<path class="st0" d="M184,290c0.2-0.1,0.4-0.1,0.6-0.2l0.6-1.4c-0.1,0-0.2,0.1-0.3,0.1c-0.3,0.2-0.8,0.2-1.1,0.4
		c-0.3,0.1-0.6,0.3-1,0.5l-0.6,1.6c0.3-0.1,0.6-0.3,0.9-0.5C183.4,290.2,183.7,290.1,184,290z"/>
	<path class="st0" d="M234.1,313.3L234.1,313.3l0.6,1c0.1,0,0.3,0,0.4-0.1c0.3-0.1,0.6-0.2,0.9-0.3l0,0l-0.7-0.9
		c-0.1,0-0.3,0.1-0.4,0.1C234.7,313,234.4,313.2,234.1,313.3z"/>
	<path class="st0" d="M214.3,285.2l-2-2.7c-0.2,0.2-0.3,0.3-0.4,0.4c-0.2,0.2-0.3,0.3-0.4,0.4l20,26.4c0.1-0.1,0.2-0.2,0.3-0.2
		c0.2-0.2,0.4-0.4,0.7-0.6l-17.8-23.3c-0.1,0-0.1,0-0.1,0L214.3,285.2z"/>
	<path class="st0" d="M169.4,328.9l14.2-36.2c-0.3,0.1-0.5,0.2-0.8,0.2c-0.4,0.1-0.7,0.2-1,0.3c-0.1,0-0.3,0.1-0.4,0.1l-13.5,34.5
		L116,340.3c0.3,0.4,0.7,0.8,1.3,1.2L169.4,328.9z"/>
	<path class="st0" d="M187,288.7l0.5-1.1c-0.3,0.1-0.6,0.2-1,0.2c-0.4,0.1-0.8,0.2-1.3,0.4l-0.6,1.4c0.2-0.1,0.3-0.1,0.5-0.2
		C185.8,289.2,186.5,288.9,187,288.7z"/>
	<path class="st0" d="M117.5,342.6c0,0.1,0,0.1,0,0.2c0,0.1,0,0.1,0,0.1l53.4-12.9l14.8-37.8c-0.3,0.1-0.6,0.2-0.9,0.2
		c-0.4,0.1-0.7,0.2-1.1,0.4c-0.1,0-0.2,0.1-0.3,0l-14.2,36.2l-52,12.6c0.1,0.1,0.2,0.2,0.3,0.2C117.5,342,117.5,342.3,117.5,342.6z"
		/>
	<path class="st0" d="M232.7,313.5l0.8,1c0.3,0,0.5-0.2,0.8-0.2c0.2-0.1,0.3-0.1,0.5-0.1l-0.7-0.9c-0.3,0-0.5,0.1-0.7,0.2
		C233.1,313.4,233,313.5,232.7,313.5z"/>
	<path class="st0" d="M210.6,284.4L210.6,284.4l19.9,26.1c0.1-0.1,0.2-0.2,0.3-0.2c0.2-0.2,0.4-0.4,0.7-0.6l-20.1-26.4
		c-0.1,0-0.1,0.1-0.2,0.2C210.9,283.8,210.7,284.1,210.6,284.4z"/>
	<path class="st0" d="M231.9,313.7c-0.2,0.1-0.4,0.1-0.5,0l0.9,1.1c0.2-0.1,0.3-0.1,0.5-0.1c0.3,0,0.5-0.2,0.8-0.2l0,0l-0.8-1
		c-0.1,0-0.1,0-0.1,0C232.4,313.6,232.2,313.6,231.9,313.7z"/>
	<path class="st0" d="M229.6,311.4l0.2-0.5c0.2-0.2,0.3-0.3,0.6-0.5l-19.8-26.1l-0.1,1.8L229.6,311.4z"/>
	<path class="st0" d="M187.2,288.7c0.6-0.2,1-0.4,1.2-0.4c0.1,0,0.1,0,0.1,0c0,0.2,0.2,0.5,0.4,0.8l0.9-2.2
		c-0.3,0.1-0.6,0.2-0.8,0.5c0,0-0.1,0-0.1,0c-0.2,0.1-0.5,0.1-1.1,0.2c-0.1,0-0.1,0-0.2,0.1l-0.5,1.1
		C187.1,288.8,187.1,288.7,187.2,288.7z"/>
	<path class="st0" d="M117.9,344.1l54.4-13.2l15.4-39.5c-0.6,0.2-1.3,0.4-1.9,0.6c-0.1,0-0.2,0.1-0.3,0l-14.8,37.8l-53.4,12.9
		C117.6,343.4,117.7,343.8,117.9,344.1z"/>
	<path class="st0" d="M189.5,290l-0.5,1.1c-0.3,0.1-0.7,0.2-1,0.3c-0.1,0-0.1,0-0.2,0.1L172.4,331L118,344.1c0,0.1,0.1,0.1,0.2,0.2
		c0.3,0.4,0.6,0.6,0.9,0.9l54.9-13.2l17.5-44.9c-0.2-0.1-0.5-0.2-0.7-0.2c-0.3-0.1-0.6,0-0.9,0c-0.1,0-0.1,0-0.2,0.1l-0.9,2.2
		c0,0.1,0,0.1,0.1,0.1C189.1,289.5,189.2,289.8,189.5,290z"/>
	<path class="st0" d="M209.8,286.5c-0.2,0.1-0.3,0.1-0.5,0.1l21.7,28.5c0.1,0,0.2-0.1,0.3,0c0.3,0,0.5-0.1,0.7-0.1
		c0.1,0,0.2-0.1,0.3-0.1l-0.9-1.1c-0.1,0-0.1,0-0.1,0c-0.3,0-0.5,0-0.6,0.1c-0.4,0.1-0.5,0-0.6,0l0,0l-0.3-0.5l-0.3-0.5l-0.3-0.5
		l0.4-0.9l-19.1-25.2l0,0.1C210.3,286.4,210,286.4,209.8,286.5z"/>
	<path class="st0" d="M208.4,286.9c-0.1,0-0.2,0.1-0.3,0.1l21.6,28.3c0.1,0,0.1,0,0.2,0c0.2,0,0.4-0.1,0.6-0.1
		c0.1,0,0.3-0.1,0.4-0.1l-21.7-28.5c-0.1,0-0.1,0-0.3,0C208.9,286.7,208.7,286.8,208.4,286.9z"/>
	<path class="st0" d="M120.3,345.9c-0.1,0.1,0,0.2-0.1,0.3l55.1-13.3l17.6-45l0,0c-0.2-0.2-0.4-0.3-0.7-0.4
		c-0.2-0.1-0.4-0.3-0.7-0.3l-0.1,0L173.9,332L119,345.2c0,0.1,0.1,0.1,0.2,0.2C119.7,345.7,120.3,345.9,120.3,345.9z"/>
	<path class="st0" d="M121,347.2l55.6-13.5l17.6-44.9c0-0.1-0.1-0.1-0.1-0.1c-0.2-0.2-0.4-0.3-0.6-0.5c-0.2-0.2-0.4-0.3-0.6-0.4
		l-17.6,45l-55.3,13.3c0,0.1,0,0.1,0,0.1C120.2,346.7,120.6,347,121,347.2z"/>
	<path class="st0" d="M207.9,287c-0.1,0-0.2,0.1-0.3,0c0,0,0.2,0.3,0.6,0.7c0.7,0.9,1.5,2.3,1.6,2.9l18.7,24.6c0.1,0,0.2,0,0.4,0
		c0.2,0,0.4,0,0.6,0c0.1,0,0.2,0,0.4-0.1l-21.6-28.3C208.1,287,208,287,207.9,287z"/>
	<path class="st0" d="M122.7,347.7c0.2,0,0.4,0.1,0.7,0.1l54.6-13.2l17.8-45.6c-0.2,0.1-0.3,0.2-0.5,0.2c-0.1,0.1-0.3,0.1-0.4,0.3
		c0,0-0.1-0.1-0.4-0.3c-0.1-0.1-0.2-0.2-0.4-0.4l-17.6,44.9L121,347.2c0.1,0,0.1,0.1,0.2,0C121.5,347.5,122.1,347.6,122.7,347.7z"/>
	<path class="st0" d="M209.7,290.9c0,0-0.1,0.3-0.3,0.7c-0.1,0.1-0.1,0.2-0.2,0.2l17.6,23.1l0,0c0.1,0.1,0.3,0.1,0.4,0.1
		c0.1,0.1,0.3,0.1,0.4,0.2c0.2,0,0.3,0.1,0.5,0c0.1,0,0.1,0,0.2,0l-18.7-24.6C209.7,290.8,209.7,290.8,209.7,290.9z"/>
	<path class="st0" d="M208.3,292c-0.3-0.2-0.6-0.5-0.9-1.2c0,0-0.2-1.1-0.8-2c-0.3-0.4-0.6-0.8-1-1.1c-0.2-0.2-0.4-0.3-0.7-0.3
		c-0.1,0-0.1,0-0.2,0l20.5,26.9c0.1-0.1,0.3-0.2,0.4-0.3l0.4,0.1c0.1,0.2,0.2,0.3,0.3,0.4c0.1,0.1,0.2,0.2,0.4,0.3
		c0.1,0.1,0.2,0.2,0.3,0.2l-17.5-23.2c-0.1,0.1-0.2,0.2-0.3,0.2C208.7,292.2,208.6,292.1,208.3,292z"/>
	<path class="st0" d="M123.3,347.9c0.3,0.1,0.7,0.1,0.9,0.1c0.5,0.1,1.1,0.1,1.7,0.2c0.2,0,0.5,0,0.7,0.1l52.7-12.8l18.4-46.9
		c-0.3,0-0.5,0.1-0.7,0.2c-0.3,0.1-0.5,0.2-0.8,0.2c-0.1,0-0.3,0.1-0.3,0.2L178,334.7L123.3,347.9z"/>
	<path class="st0" d="M129.3,348.4c0.5,0,1,0,1.4,0l49.8-12.1l18.9-48.1c-0.1,0-0.2,0.1-0.3,0.1c-0.3,0-0.5,0.1-0.7,0.1
		c-0.3,0-0.5,0.1-0.7,0.1c0,0,0,0-0.1,0l-18.4,46.9l-52.7,12.8c0.4,0,0.6,0,1,0C128.2,348.3,128.8,348.4,129.3,348.4z"/>
	<path class="st0" d="M203.7,287.5c-0.1,0-0.1,0-0.2,0.1c0,0,0,0-0.1,0l20.7,27.2l0.1,0c0.2-0.1,0.4-0.3,0.6-0.3
		c0.1,0,0.1-0.1,0.2-0.1l-20.5-26.9c-0.1,0-0.2,0-0.4,0C204.1,287.4,203.9,287.5,203.7,287.5z"/>
	<path class="st0" d="M132.7,348.4c0.5,0,1.1,0,1.6,0c0.4,0,0.8-0.1,1.2,0l46.3-11.2l19.3-49.3l-0.1,0c-0.2,0.1-0.4,0.1-0.6,0.1
		c-0.3,0-0.4,0.1-0.6,0.1c-0.1,0-0.3,0-0.4,0.1l-18.9,48.1l-49.8,12.1c0.1,0,0.2,0,0.2,0C131.6,348.4,132.1,348.4,132.7,348.4z"/>
	<path class="st0" d="M202.7,287.6c-0.1,0-0.3,0-0.3,0.1l18.1,23.8c0.2,0,0.3,0.1,0.4,0.1c0.1,0,0,0.1,0,0.1c0.1,0,0.2,0,0.2,0.2
		c0,0.1,0.1,0.1,0.1,0.3c0,0.1,0.1,0.1,0.1,0.3c0,0.1,0.1,0.1,0.1,0.3c0,0.1,0.1,0.1,0.1,0.3c0,0.1,0.1,0.2,0.1,0.3
		c0,0.1,0,0.1,0.2,0.2c0,0.1,0.2,0.2,0.2,0.3c0,0.1,0.1,0.3,0.2,0.3c0,0.1,0,0.1,0.1,0.2l0.9,1.1c0.1,0,0.3-0.1,0.3-0.2
		c0.2-0.1,0.4-0.2,0.5-0.3l-20.7-27.2C203.4,287.5,203.1,287.6,202.7,287.6z"/>
	<path class="st0" d="M222.8,314.7c0.1,0.2,0.1,0.3,0.2,0.4c0,0.2,0.1,0.4,0.1,0.4c0.1,0,0.1,0,0.1,0c0.1,0,0.1-0.1,0.3-0.1
		l-0.9-1.1c0,0.1,0.1,0.2,0.2,0.2C222.8,314.5,222.8,314.6,222.8,314.7z"/>
	<path class="st0" d="M201.6,287.8c-0.2,0.1-0.4,0.1-0.5,0.1l-19.3,49.2l-46.3,11.2c0.1,0,0.2,0,0.4,0c0.5,0,1.1-0.1,1.5,0
		c0.6,0,1.1-0.1,1.5,0c0.8-0.1,1.3-0.1,1.5-0.1c0.1,0,0.1,0,0.1,0c0.1,0,0.2,0,0.3-0.1l42.2-10.2l19.1-49.1l17.1,22.5
		c0.2-0.1,0.4-0.1,0.6-0.1c0.2,0,0.3,0.1,0.5,0.1c0,0,0,0,0.1,0l-18.1-23.8c-0.1,0-0.2,0-0.3,0C202,287.7,201.8,287.8,201.6,287.8z"
		/>
	<path class="st0" d="M143.5,347.8c0.5,0,1-0.1,1.6-0.2c0.5-0.1,1-0.1,1.5-0.3c0.5-0.1,1-0.1,1.5-0.3c0.5-0.1,0.9-0.2,1.5-0.3
		c0.5-0.1,0.9-0.2,1.4-0.3c0.5-0.1,0.9-0.2,1.4-0.3c0.5-0.1,0.9-0.2,1.4-0.3l8.9-2.1c0.1,0,0.1,0,0.2-0.1c0.4-0.1,0.9-0.2,1.2-0.3
		c0.4-0.1,0.8-0.2,1.2-0.3c0.4-0.1,0.8-0.2,1.1-0.4c0.4-0.1,0.8-0.2,1.1-0.4c0.4-0.1,0.7-0.2,1.1-0.4c0.4-0.1,0.7-0.2,1.1-0.3
		c0.4-0.1,0.7-0.2,1.1-0.3l-0.1,0c0,0.1,0.2,0.2,0.5,0.2c0.1,0,0.1,0,0.2,0l13-3.2l18.6-47.4l16.9,22.2c0-0.1,0-0.1-0.1-0.2
		c0-0.1-0.2-0.2-0.1-0.3c0-0.1-0.2-0.2-0.1-0.3c0-0.1,0-0.2-0.1-0.3c-0.1-0.2-0.1-0.3-0.1-0.4c0-0.2,0.1-0.3,0.2-0.3L202.4,289
		l-19.1,49.1l-42.2,10.2c0.4-0.1,0.8-0.1,1.1-0.1C142.4,348,143,347.9,143.5,347.8z"/>
	<path class="st0" d="M220.4,314.2c0-0.1-0.1-0.1-0.2-0.2c0-0.1-0.1-0.1-0.2-0.2c0-0.1-0.1-0.1-0.2-0.2c0-0.1-0.2-0.2-0.2-0.2
		l0.8,1.1C220.5,314.4,220.4,314.3,220.4,314.2z"/>
	<path class="st0" d="M184.2,338.7l-13,3.2c0.1,0,0.3,0,0.5,0c0.2,0,0.4,0,0.6,0s0.4-0.1,0.6-0.1c0.2,0,0.5,0,0.6-0.1
		c0.3,0,0.5,0,0.6-0.1c0.3,0,0.5,0,0.6-0.1c0.3,0,0.4-0.1,0.6-0.1c0.3,0,0.4-0.1,0.6-0.1c0.3,0,0.4-0.1,0.6-0.1s0.4-0.1,0.6-0.1
		c0.2-0.1,0.4-0.1,0.6-0.1c0.3,0,0.4-0.1,0.6-0.1c0.3,0,0.5-0.1,0.6-0.1c0.2-0.1,0.3,0,0.3,0l0,0.1l5.8-1.4l18-46.3l17.9,23.4
		c0-0.1,0-0.1,0-0.1c0-0.2,0-0.4,0-0.6c-0.1-0.2-0.1-0.3-0.1-0.4c0-0.1-0.1-0.3-0.2-0.3c0-0.1-0.2-0.2-0.2-0.3
		c-0.1-0.2-0.1-0.3-0.3-0.4l0,0l-0.8-1.1l0,0c0-0.1,0-0.1,0-0.1l0-0.1l-16.8-22.1L184.2,338.7z"/>
	<path class="st0" d="M155,345.8c0.5-0.1,0.9-0.2,1.4-0.3c0.4-0.1,0.9-0.2,1.3-0.3c0.4-0.1,0.9-0.2,1.3-0.4c0.4-0.1,0.9-0.2,1.3-0.4
		c0.4-0.1,0.9-0.2,1.3-0.4c0.4-0.1,0.7-0.2,1.1-0.2l-8.9,2.1l0.1,0C154,346,154.5,345.9,155,345.8z"/>
	<path class="st0" d="M179.3,341.5c0,0.1,0,0.2-0.1,0.3l4.5-1.1c0.7-0.6,1.4-1.1,2.1-1.7c0.4-0.4,0.8-0.7,1.2-1l16.7-42.7l16.8,22.1
		l0.1,0c0.2-0.2,0.3-0.4,0.4-0.7l-17.7-23.3l-18.1,46.2l-5.8,1.4c0,0.1,0,0.1,0,0.2C179.4,341.2,179.4,341.4,179.3,341.5z"/>
	<path class="st0" d="M179.2,342.4c0,0.1-0.1,0.3-0.1,0.4l0,0l3-0.7c0.4-0.4,1-0.8,1.5-1.2c0.1,0,0.1-0.1,0.2-0.2l-4.5,1.1
		c0,0.1,0,0.1,0,0.1C179.3,342.2,179.2,342.3,179.2,342.4z"/>
	<path class="st0" d="M187.2,338.1c0.3-0.2,0.6-0.5,0.9-0.7c0.3-0.3,0.7-0.6,1-0.8l15.3-39.2L220,318c0.1,0,0.1-0.1,0.1-0.1
		c0.1,0,0.1,0,0.1,0c0.2-0.1,0.3-0.2,0.5-0.3l-16.9-22.2L187.2,338.1z"/>
	<path class="st0" d="M179,343.6c0,0.1,0,0.1,0,0.1l1.6-0.4c0.1-0.1,0.2-0.2,0.3-0.3c0.3-0.3,0.8-0.7,1.3-1l-3,0.7
		c0,0.1,0,0.2-0.1,0.4C179.1,343.4,179.1,343.5,179,343.6z"/>
	<path class="st0" d="M190.9,335.1l14-35.7l14.5,19.1c0.1-0.1,0.2-0.2,0.4-0.3c0.1-0.1,0.2-0.2,0.3-0.2l-15.6-20.5l-15.3,39.2
		c0.3-0.3,0.7-0.6,1-0.8C190.5,335.5,190.7,335.3,190.9,335.1z"/>
	<path class="st0" d="M178.9,344.1c0,0.2-0.1,0.4-0.1,0.5c0,0.1,0,0.1-0.1,0.2l0.4-0.1c0.1,0,0.1-0.1,0.1-0.1
		c0.1-0.1,0.2-0.2,0.3-0.2c0.1-0.1,0.2-0.2,0.3-0.2c0.2-0.2,0.4-0.4,0.7-0.6l-1.6,0.4C179,343.9,179,343.9,178.9,344.1z"/>
	<path class="st0" d="M191.3,334.9c0,0.1,0.1,0.1,0.2,0.1c0,0.1,0.1,0.1,0.2,0c0.1,0,0.1,0,0.2,0c0.1,0,0.2,0,0.2,0c0,0,0.1,0,0.1,0
		l13.2-33.8l13.4,17.6c0.2-0.1,0.3-0.2,0.4-0.4c0.1,0,0.1-0.1,0.2-0.2L205,299.3l-14,35.8C191.1,334.9,191.2,334.9,191.3,334.9
		C191.2,334.9,191.3,334.9,191.3,334.9z"/>
	<path class="st0" d="M178.5,345.3L178.5,345.3L178.5,345.3c0.1-0.1,0.1-0.1,0.2-0.2C178.6,345.2,178.5,345.3,178.5,345.3z"/>
	<path class="st0" d="M192.6,335.1c0.1,0,0.2-0.1,0.3-0.1c0.1,0,0.2-0.1,0.3-0.1c0.1,0,0.2-0.1,0.3-0.1l0,0l12.4-31.8l12.3,16.2
		l0.1,0c0.2-0.1,0.3-0.2,0.5-0.3l0.1,0l-13.4-17.6l-13.2,33.8c0.1,0,0.1,0,0.2,0C192.6,335.2,192.5,335.1,192.6,335.1z"/>
	<path class="st0" d="M178.7,345.1L178.7,345.1L178.7,345.1c0.1-0.1,0.2-0.2,0.3-0.3c0.1,0,0.1-0.1,0.2-0.2l-0.4,0.1
		c0,0.1,0,0.1,0,0.1C178.8,344.9,178.7,345,178.7,345.1z"/>
	<path class="st0" d="M193.5,334.9c0.1,0,0.2-0.1,0.3,0c0.1,0,0.2-0.1,0.3-0.1c0.1,0,0.2-0.1,0.3-0.1c0.2-0.1,0.2-0.1,0.3-0.1
		c0.1,0,0.2-0.1,0.3,0l1-2.6l-0.1,0c0,0-0.1,0,0-0.1l0.1,0l0.1,0l10.5-26.9l11.3,14.8c0.1,0,0.2-0.1,0.3-0.1
		c0.1-0.1,0.2-0.2,0.4-0.3L206,303.3L193.5,334.9z"/>
	<path class="st0" d="M196.1,331.8c0.1,0,0.1,0,0.2-0.1c0.1,0,0.1,0,0.2-0.1c0.1,0,0.1,0,0.2-0.1c0.1,0,0.1,0,0.2-0.1
		c0.1,0,0.1,0,0.2-0.1c0.1,0,0.1,0,0.2-0.1l9.5-24.5l10.3,13.5c0.1-0.1,0.3-0.1,0.4-0.3c0.1,0,0.1-0.1,0.2-0.2l-11.3-14.8
		l-10.5,26.9c0.1,0,0.1,0,0.1,0C196,331.9,196.1,331.9,196.1,331.8z"/>
	<path class="st0" d="M195,334.5c0.1,0,0.2-0.1,0.3-0.1c0.1,0,0.2-0.1,0.3-0.1c0.1,0,0.1,0,0.2-0.1s0.1,0,0.1,0c0.1,0,0.1,0,0.1,0
		l0.1,0l0.8-2.2l-1.2,0.1l-1,2.6c0,0,0,0,0.1,0C194.9,334.6,195,334.5,195,334.5z"/>
	<path class="st0" d="M196.2,334.1C196.3,334.1,196.3,334.1,196.2,334.1c0.2-0.1,0.2-0.1,0.2-0.1c0.1,0,0.1,0,0.1,0
		c0.1,0,0.1,0,0.1,0c0.1,0,0.1,0,0.1,0c0.1,0,0.1,0,0.1,0c0.1,0,0.1,0,0.1,0c0.1,0,0.1,0,0.1,0l0.1,0l0.1,0l0.1,0l0.1,0l0.8-2.1
		c-0.1,0-0.3,0-0.4,0.1c-0.2,0.1-0.4,0.1-0.5,0.1l-0.4,0.1l-0.8,2.2L196.2,334.1L196.2,334.1z"/>
	<path class="st0" d="M197.2,331.2C197.2,331.2,197.3,331.2,197.2,331.2l0.3,0l0-0.1l0.1,0l0.1,0l0.1,0l0.1,0l0.1,0l0.1,0l0.1,0
		l0.1,0l0.1,0l0.1,0l0.1,0l0.1,0l0.1,0l0.1,0l0.1,0l0.1,0l0.1,0l0.1,0c0,0,0,0,0.1,0c0,0,0,0,0.1,0c0,0,0,0,0.1,0l8.6-21.8l9.3,12.2
		c0.1,0,0.1,0,0.1-0.1c0.1-0.1,0.2-0.2,0.4-0.3l0.1,0l-10.3-13.5L197.2,331.2z"/>
	<path class="st0" d="M197.4,333.7L197.4,333.7l0.2-0.1l0.1,0l0.1,0l0.1,0l0.1,0l0.1,0l0.1,0l0.1,0l0.1,0l0.1,0l0.1,0l0.1,0l0.1,0
		l0.1,0l0.1,0c0,0,0,0,0.1,0c0,0,0,0,0.1,0c0,0,0,0,0.1,0s0.1,0,0.1,0l0.7-1.9l0,0c0,0,0,0-0.1,0c0,0,0,0-0.1,0c0,0,0,0-0.1,0
		c0,0,0,0-0.1,0c0,0,0,0-0.1,0c0,0,0,0-0.1,0c0,0,0,0-0.1,0l-0.1,0l-0.1,0l-0.1,0l-0.1,0l-0.1,0l-0.1,0l-0.1,0l-0.1,0l-0.1,0l-0.1,0
		l-0.1,0l-0.1,0l-0.1,0l-0.1,0c0,0,0,0-0.1,0l-0.1,0l-0.8,2.1l0,0C197.4,333.7,197.4,333.7,197.4,333.7z"/>
	<path class="st0" d="M198.7,330.5C198.7,330.4,198.7,330.4,198.7,330.5C198.8,330.5,198.8,330.5,198.7,330.5c0.1,0,0.1,0,0.2-0.1
		c0,0,0,0,0.1,0l0.1,0l0.1,0l0.1,0l0.1,0l0.1,0l0.1,0l0.1,0l0.1,0l0.1,0l0.1,0l0.1,0l0.1,0l0.1,0l0.1,0l0.1,0l0.1,0l0.1,0l0.1,0
		l0.1,0l7.7-19.7l8.3,10.9c0.1,0,0.2-0.2,0.3-0.2c0.1,0,0.2-0.1,0.3-0.1l-9.3-12L198.7,330.5C198.6,330.5,198.6,330.5,198.7,330.5
		C198.6,330.5,198.6,330.5,198.7,330.5z"/>
	<path class="st0" d="M199.8,332.8l0.7-1.8c0,0,0,0-0.1,0l-0.1,0l-0.1,0l-0.1,0l-0.1,0l-0.1,0l-0.1,0l-0.1,0l-0.1,0l-0.1,0l-0.1,0
		l-0.1,0c-0.1,0-0.3,0.1-0.5,0.1c0,0,0,0-0.1,0l0,0l-0.7,1.9C199.1,333.1,199.5,332.9,199.8,332.8z"/>
	<path class="st0" d="M200,329.7L200,329.7l0.2-0.1l0,0.1l0.1-0.2c0.1,0,0.1,0,0.1,0c0.1,0,0.1,0,0.1,0c0.1,0,0.1,0,0.1,0
		c0.1,0,0.1,0,0.1,0c0.1,0,0.1,0,0.1,0c0.1,0,0.1,0,0.1,0c0.1,0,0.1,0,0.1,0c0.1,0,0.1,0,0.1,0c0.1,0,0.1,0,0.1,0s0,0,0.1,0
		l6.8-17.3l7.4,9.6c0.1,0,0.1,0,0.1-0.1c0.1,0,0.3-0.1,0.4-0.2l0.1,0l-8.3-10.9l-7.8,19.6l0,0C200,329.8,200.1,329.7,200,329.7z"/>
	<path class="st0" d="M201,332.3l0.7-1.5l-0.1,0c0,0,0,0-0.1,0c0,0,0,0-0.1,0l-0.1,0l-0.1,0l-0.1,0l-0.1,0l-0.1,0l-0.1,0l0,0
		c0,0,0,0-0.1,0l-0.1,0l-0.1,0l-0.1,0l-0.1,0l-0.1,0c-0.1,0-0.1,0-0.1,0l-0.1,0l-0.1,0l0,0l-0.7,1.8
		C200.3,332.6,200.7,332.4,201,332.3z"/>
	<path class="st0" d="M201.4,329L201.4,329l0.2-0.1l0.1,0l0.1,0l0.1,0l0.1,0l0,0l0.1,0l0.1,0l0.1,0l0.1,0l0.1,0l0.1,0l0.1,0l0.1,0
		l0.1,0l0.1,0l0.1,0l0.1,0l5.9-15.1l6.4,8.3l0,0c0.1,0,0.3-0.1,0.3-0.2c0.1,0,0.1-0.1,0.2-0.1l-7.4-9.6l-6.8,17.3l0.1,0
		C201.4,329,201.4,329,201.4,329z"/>
	<path class="st0" d="M202.2,331.8l0.5-1.3l0,0l-0.1,0l-0.1,0l-0.1,0l-0.1,0l-0.1,0l-0.1,0l-0.1,0l-0.1,0l-0.1,0c0,0,0,0-0.1,0
		c0,0,0,0-0.1,0c0,0,0,0-0.1,0c-0.2,0.1-0.3,0.1-0.5,0l-0.7,1.5c0.6-0.2,0.9-0.4,0.9-0.4C202,331.8,202.1,331.9,202.2,331.8z"/>
	<path class="st0" d="M202.5,328.3C202.6,328.3,202.6,328.3,202.5,328.3C202.6,328.3,202.6,328.3,202.5,328.3l0.2-0.1l0.1,0l0.1,0
		l0.1,0l0.1,0l0.1,0l0.1,0c0.1,0,0.1,0,0.1,0c0.1,0,0.1,0,0.1,0c0.1,0,0.1,0,0.1,0c0.1,0,0.1,0,0.1,0c0.1,0,0.1,0,0.1,0
		c0.1,0,0.1,0,0.1,0l0,0l5-12.9l5.5,7.2c0.1,0,0.2-0.1,0.3-0.1c0.1,0,0.2-0.1,0.3-0.1l-6.4-8.3L202.5,328.3z"/>
	<path class="st0" d="M204,327.5C204.1,327.5,204.1,327.5,204,327.5c0.2-0.1,0.2-0.1,0.2-0.1c0.1,0,0.1,0,0.1,0c0.1,0,0.1,0,0.1,0
		c0.1,0,0.1,0,0.1,0c0.1,0,0.3-0.1,0.4-0.2l4.3-10.8l4.6,5.9c0.1,0,0.2-0.1,0.3-0.1c0.1,0,0.2-0.1,0.3-0.1l0,0l-5.4-7.3l-5,12.9
		c0.1,0,0.1,0,0.1,0C204,327.6,204,327.5,204,327.5z"/>
	<path class="st0" d="M202.5,331.9l0.6-0.3c0.1,0,0.1,0,0.1,0l0.5-1.3c-0.1,0-0.1,0-0.1,0c-0.1,0-0.3,0-0.4,0.1c-0.1,0-0.1,0-0.1,0
		l-0.1,0l-0.1,0l-0.1,0l-0.1,0l-0.1,0l-0.1,0l-0.1,0c0,0,0,0-0.1,0l-0.5,1.3C202.3,331.9,202.3,331.9,202.5,331.9L202.5,331.9z"/>
	<path class="st0" d="M204.3,331.3l0.6-1.4l0,0c-0.1,0-0.3,0.1-0.4,0.1s-0.3,0.1-0.3,0.2s-0.2,0.1-0.3,0.1l-0.5,1.3
		C203.6,331.5,203.9,331.4,204.3,331.3z"/>
	<path class="st0" d="M209.6,317.6l3.7,4.7c0.1,0,0.1,0,0.1,0c0.1,0,0.1,0,0.3,0c0.1,0,0.2-0.1,0.3-0.1l0,0l-4.6-5.9l-4.3,10.8
		c0.4-0.3,0.8-0.5,1.2-0.6L209.6,317.6z"/>
	<path class="st0" d="M204.3,331.3C204.3,331.3,204.4,331.3,204.3,331.3C204.4,331.2,204.4,331.2,204.3,331.3l0.2-0.1l0.1,0l0.1,0
		l0.1,0l0.1,0l0.1,0l0.1,0l0.1,0l0.1,0l0.1,0l0.1,0l0.1,0l0,0l0.6-1.5l-0.3,0.1c-0.2,0.1-0.3,0.1-0.5,0.2c-0.1,0-0.3,0.1-0.4,0.1
		L204.3,331.3C204.3,331.3,204.3,331.3,204.3,331.3L204.3,331.3z"/>
	<path class="st0" d="M210,319l3,4l0-0.1c0-0.1,0-0.2-0.1-0.3c-0.1-0.2-0.1-0.3-0.1-0.3c0.1,0,0.1,0,0.2,0c0.1,0,0.1,0,0.1,0
		l-3.7-4.7l-3.4,8.7c0.4-0.3,0.8-0.5,1.1-0.6L210,319z"/>
	<path class="st0" d="M207.4,325.7c0.5-0.2,0.8-0.5,1.1-0.6l1.9-4.8l2.8,3.7l0-0.1c0-0.1,0-0.3-0.1-0.4c0-0.1,0-0.2-0.1-0.3
		c0-0.1,0-0.1-0.1-0.3l-3-4L207.4,325.7z"/>
	<path class="st0" d="M205.4,331L205.4,331l0.2-0.1c0.1,0,0.1,0,0.1,0c0.1,0,0.1,0,0.1,0c0.1,0,0.1,0,0.1,0c0.1,0,0.1,0,0.1,0
		c0.1,0,0.1,0,0.1,0c0.1,0,0.1,0,0.1,0l0.1,0l0.6-1.5l0,0c-0.1,0-0.1,0-0.1,0c-0.1,0-0.1,0-0.1,0c-0.1,0-0.1,0-0.1,0
		c-0.1,0-0.1,0-0.1,0c-0.1,0-0.1,0-0.1,0c-0.1,0-0.1,0-0.1,0c-0.1,0-0.1,0-0.1,0l-0.1,0l-0.1,0l-0.1,0l0-0.1l-0.1,0l-0.6,1.5l0.1,0
		L205.4,331z"/>
	<path class="st0" d="M208.9,325.1c0,0.1,0,0.1,0.1,0.2c0,0.1,0,0.1,0,0.1c0,0.1,0,0.1,0,0.1c0,0.1,0,0.1,0,0.1c0,0.1,0,0.1,0,0.1
		c0,0.1,0,0.1,0,0.1l0,0l1.6-4.2l2.5,3.2c0-0.1,0-0.1,0-0.1c0-0.1,0-0.3,0-0.4c0-0.1,0-0.2,0-0.3l-2.8-3.7l-1.9,4.8
		c0.3-0.1,0.4-0.2,0.4-0.2S208.8,324.9,208.9,325.1z"/>
	<path class="st0" d="M206.5,330.6C206.5,330.5,206.5,330.5,206.5,330.6c0.2-0.1,0.2-0.1,0.2-0.1c0.1,0,0.1,0,0.1,0
		c0.1,0,0.1,0,0.1,0c0.1,0,0.1,0,0.1,0c0.1,0,0.1,0,0.2-0.1c0,0,0,0,0.1,0l0.6-1.5c-0.1,0-0.1,0-0.1,0c-0.1,0-0.1,0-0.1,0
		c-0.1,0-0.1,0-0.1,0c-0.1,0-0.1,0-0.1,0c-0.1,0-0.1,0-0.1,0c-0.1,0-0.1,0-0.1,0c-0.1,0-0.1,0-0.1,0c-0.1,0-0.1,0-0.1,0L206.5,330.6
		C206.4,330.6,206.4,330.6,206.5,330.6C206.4,330.5,206.4,330.5,206.5,330.6z"/>
	<path class="st0" d="M209.1,325.9C209.1,326,209.1,326,209.1,325.9c0.1,0.2,0.1,0.2,0.1,0.2c0,0.1,0,0.1,0,0.1c0,0.1,0,0.1,0.1,0.2
		c0,0.1,0,0.1,0.1,0.2c0,0.1,0,0.1,0.1,0.2c0,0.1,0,0.1,0.1,0.2c0,0,0,0,0,0.1l1.6-4l2.1,2.7c0-0.1,0-0.2,0.1-0.3c0-0.1,0-0.3,0-0.4
		l-2.5-3.2L209.1,325.9C209.1,325.9,209.1,325.9,209.1,325.9C209.1,325.8,209.1,325.9,209.1,325.9z"/>
	<path class="st0" d="M207.5,330.1c0.1,0,0.1,0,0.2-0.1c0.1,0,0.1,0,0.2-0.1c0.1,0,0.1,0,0.2-0.1c0.1,0,0.1,0,0.2-0.1
		c0.1,0,0.1,0,0.2-0.1c0,0,0,0,0.1,0l0.6-1.5c0,0,0,0-0.1,0s-0.1,0-0.2,0.1s-0.1,0-0.2,0.1c-0.1,0-0.1,0-0.2,0.1s-0.1,0-0.2,0.1
		s-0.1,0-0.2,0.1s-0.1,0-0.1,0l0,0L207.5,330.1C207.4,330.2,207.5,330.1,207.5,330.1z"/>
	<path class="st0" d="M208.7,329.4c0.1,0,0.1-0.1,0.2-0.1s0.1-0.1,0.3-0.1c0.1,0,0.2-0.1,0.3-0.1l0,0l2-5l1.6,2.1
		c0-0.1,0-0.2,0.1-0.3c0-0.1,0-0.2,0.1-0.3L211,323l-1.6,4c0,0.1,0,0.1,0,0.1c0,0.1,0,0.1,0.1,0.2c0,0.1,0,0.1,0.1,0.2
		c0,0.1,0,0.1,0.1,0.2s0,0.1,0.1,0.1c0,0.1,0,0.1,0.1,0.1l-0.1,0.1c-0.1,0-0.1,0-0.2,0.1c-0.1,0-0.1,0-0.2,0.1c-0.1,0-0.1,0-0.2,0.1
		c-0.1,0-0.1,0-0.2,0.1c-0.1,0-0.1,0-0.1,0l-0.6,1.5c0.1,0,0.1,0,0.2-0.1C208.5,329.6,208.6,329.5,208.7,329.4z"/>
	<path class="st0" d="M209.3,329.1c0.1,0,0.2-0.1,0.3-0.1c0.1,0,0.2-0.1,0.3-0.1c0.1,0,0.2-0.1,0.3-0.1c0.1,0,0.2-0.1,0.3-0.2l0,0
		l1.2-3.2l1.1,1.5c0.1-0.2,0.1-0.4,0.2-0.5l-1.6-2.1L209.3,329.1z"/>
	<path class="st0" d="M210.9,328.1C211,328,211,328,210.9,328.1c0.2-0.1,0.2,0,0.3,0c0.1,0,0.1,0,0.1,0l0.6-1.6l0.6,0.8
		c0.1-0.1,0.2-0.2,0.3-0.4l-1.1-1.5l-1.2,3.2c0.1,0,0.2-0.2,0.2-0.2C210.7,328.2,210.8,328.1,210.9,328.1z"/>
	<path class="st0" d="M211.3,328L211.3,328c0.1,0,0.2-0.1,0.3-0.1c0.1,0,0.2-0.1,0.3-0.1c0.1,0,0.2-0.1,0.3-0.2l0-0.1l0,0l0.1,0
		c0.1-0.1,0.2-0.2,0.2-0.3l-0.6-0.8L211.3,328z"/>
	<path class="st0" d="M212.1,327.5L212.1,327.5L212.1,327.5L212.1,327.5z"/>
</g>
<g>
	<path class="st0" d="M527.7,335.7c0.2-0.1,0.3-0.1,0.5,0l-2-0.2l0.2,0.7C526.8,336,527.3,335.8,527.7,335.7z"/>
	<path class="st0" d="M523.5,335.6c0,0-0.5-0.3-1.1-0.3c-0.1,0-0.3,0-0.5,0l0.3,2.1c0.5-0.2,1-0.4,1.4-0.5c0.1,0,0.2-0.1,0.4-0.1
		l-0.3-1.8C523.8,335.2,523.6,335.4,523.5,335.6z"/>
	<path class="st0" d="M523.8,358.6c0.1-0.2,0.1-0.4,0.1-0.6s0-0.5,0.1-0.6c0.1-0.2,0-0.5,0-0.7c0-0.3,0-0.5,0-0.7c0-0.3,0-0.5,0-0.8
		c0-0.3-0.1-0.6-0.2-0.7c-0.1-0.3-0.2-0.5-0.4-0.8s-0.4-0.6-0.6-0.8c-0.1-0.1-0.2-0.2-0.3-0.3l1,6.8
		C523.6,359,523.7,358.8,523.8,358.6z"/>
	<path class="st0" d="M521.3,336c0,0-0.2,0-0.4-0.1c-0.2,0-0.5,0-0.7-0.1l0.4,2.2c0.6-0.2,1.2-0.4,1.9-0.7l-0.3-2.1
		C521.6,335.4,521.4,335.6,521.3,336z"/>
	<path class="st0" d="M520.5,351.3l2.4,16.2c0.4-0.4,0.7-0.9,0.9-1.5c0.1-0.3,0.1-0.6,0.2-1c0-0.3,0.1-0.6,0-0.8c0-0.3,0-0.5,0-0.8
		c0-0.3,0-0.5-0.1-0.7c-0.1-0.2,0-0.5-0.1-0.6s-0.1-0.4-0.1-0.6c-0.1-0.2-0.1-0.4-0.1-0.6c-0.1-0.2-0.2-0.4-0.2-0.6
		c-0.1-0.2-0.1-0.2-0.1-0.2s0.1-0.1,0.1-0.4c0.1-0.1,0.1-0.4,0.2-0.6l0-0.1l-1-6.8c-0.2-0.2-0.5-0.4-0.7-0.5
		C521.4,351.6,521.1,351.5,520.5,351.3z"/>
	<path class="st0" d="M428.4,330.1c-0.4,0-0.8,0-1.2,0c-0.7,0-1.4,0-2.1,0.1c-0.7,0-1.4,0.1-2,0.1c-0.6,0-1.3,0-1.9,0.1
		c-0.3,0-0.8,0-1.1,0.1l6,1.6L428.4,330.1z"/>
	<path class="st0" d="M519.5,336.1c-0.5,0.1-0.9,0.5-0.6,1.1c0,0-0.1,0-0.3-0.1l0.2,1.8c0.1,0,0.2-0.1,0.2-0.1
		c0.5-0.2,1-0.4,1.5-0.6l0,0l-0.4-2.2C519.9,336,519.6,336,519.5,336.1z"/>
	<path class="st0" d="M517.9,336.9c-0.4,0-0.8,0-1.2,0.2l0.3,2.3c0.2-0.1,0.3-0.2,0.5-0.2c0.4-0.2,0.8-0.3,1.2-0.4l-0.2-1.8
		C518.3,336.9,518.1,337,517.9,336.9z"/>
	<path class="st0" d="M518.7,351l2.6,17.3c0.4-0.1,0.8-0.2,1.1-0.4l0.4-0.4c0-0.1,0-0.1,0.1-0.1l-2.5-16.2
		C520,351.2,519.4,351.1,518.7,351z"/>
	<path class="st0" d="M417.6,330.6c-0.5,0-1.1,0.1-1.6,0.1c-0.5,0.1-1,0.1-1.5,0.2c-0.1,0-0.2,0.1-0.3,0l13.2,3.6l5.3-4.4
		c-0.3,0-0.5,0-0.9,0c-0.8,0-1.7,0-2.4-0.1c-0.3-0.1-0.7,0-1,0L426,332l-6-1.6c-0.2,0-0.5,0-0.7,0
		C418.7,330.6,418.2,330.6,417.6,330.6z"/>
	<path class="st0" d="M440.6,324.2C440.5,324.2,440.5,324.2,440.6,324.2C440.5,324.2,440.6,324.3,440.6,324.2c0,0,0.1,0.1,0.2,0.2
		C440.7,324.2,440.6,324.2,440.6,324.2z"/>
	<path class="st0" d="M437.2,329.2c-0.6,0.1-1.1,0.3-1.5,0.4l1,0.4l1.3-1C437.8,329.1,437.5,329.2,437.2,329.2z"/>
	<path class="st0" d="M515.4,338.9l-0.3,0.1l0.1,1.1c0.2-0.1,0.5-0.2,0.8-0.2c0.3-0.1,0.6-0.2,0.9-0.4l-0.3-2.3c0,0.1-0.1,0-0.1,0.1
		C516,337.4,515.6,337.9,515.4,338.9z"/>
	<path class="st0" d="M519.5,368.4c0.3,0.1,0.6,0,0.9,0s0.6-0.1,0.9-0.1l-2.6-17.3c-0.5,0-1.1-0.1-1.8,0L519.5,368.4z"/>
	<path class="st0" d="M414.2,331c-0.3,0-0.8,0-1.1,0.1c-0.5,0-0.9,0.1-1.4,0.1c-0.5,0-0.9,0.1-1.3,0.2c-0.5,0-0.8,0.1-1.2,0.2
		l19.4,5.2l8.1-6.8c-0.8-0.1-1.5-0.1-2.4,0c-0.5,0-1.2,0-1.7,0l-5.3,4.4L414.2,331z"/>
	<path class="st0" d="M442.3,325.1c-0.4-0.1-0.6-0.2-0.9-0.4c-0.3-0.1-0.5-0.3-0.7-0.3c0.1,0.2,0.4,0.5,0.6,0.8
		c0.1,0.2,0.3,0.5,0.5,0.7l0.8-0.6C442.5,325.2,442.4,325.1,442.3,325.1z"/>
	<path class="st0" d="M513.6,339.9l0.2,1.8c0.3-0.1,0.5-0.2,0.5-0.4c0.1,0,0.1,0.1,0.2,0.2l0.2-1.2c0.2-0.1,0.4-0.1,0.6-0.2
		l-0.1-1.1l-0.3,0.1L513.6,339.9z"/>
	<path class="st0" d="M408.2,331.8c-0.2,0.1-0.4,0.1-0.7,0.1c-0.2,0.1-0.4,0.1-0.7,0.1c-0.2,0.1-0.4,0.1-0.7,0.1
		c-0.1,0-0.2,0.1-0.3,0.1c0,0-0.1,0-0.4,0.1c-0.1,0.1-0.2,0.1-0.4,0.1l24.9,6.7l13-10.9c-0.2,0.1-0.5,0.1-0.8,0.1
		c-0.3,0-0.6,0.1-0.9,0.1c-0.3,0-0.6,0.1-1,0.1c-0.3,0.1-0.6,0.1-1,0.1c-0.3,0.1-0.6,0.1-0.9,0.2c-0.1,0-0.1,0-0.1,0l-1.3,1l0.3,0.1
		c-0.1,0-0.3,0-0.4,0l-8.1,6.8l-19.4-5.2c-0.1,0-0.2,0.1-0.3,0.1C408.6,331.7,408.4,331.8,408.2,331.8z"/>
	<path class="st0" d="M442.9,327.5c0.1,0.2,0.3,0.4,0.4,0.6l2-1.7c-0.2-0.1-0.4-0.2-0.7-0.2c-0.3-0.1-0.5-0.3-0.7-0.3
		c-0.3-0.1-0.5-0.3-0.8-0.3c-0.1-0.1-0.4-0.1-0.4-0.2l-0.8,0.6c0.1,0.2,0.2,0.3,0.3,0.5C442.5,326.7,442.7,327.1,442.9,327.5z"/>
	<path class="st0" d="M517.7,368.2c0.2,0,0.4,0.1,0.6,0.1c0.4,0.1,0.7,0.1,0.9,0.1c0.1,0,0.1,0,0.3,0l-2.6-17.4
		c-0.5,0-1.1,0.1-1.7,0.1L517.7,368.2z"/>
	<path class="st0" d="M513.1,340.2l-0.7-0.7L512,339l-0.1,0l0.4,2.7c0.3,0.1,0.7,0.1,1,0.1c0.3,0,0.5,0,0.6,0l-0.2-1.8l-0.1,0.1
		L513.1,340.2z"/>
	<path class="st0" d="M403.9,332.8c-0.2,0.1-0.5,0.1-0.8,0.2c-0.2,0.1-0.5,0.1-0.8,0.2c-0.2,0.1-0.6,0.1-0.8,0.3l-0.1,0l29.5,8
		l16.9-14.2c-0.1-0.1-0.2-0.1-0.4-0.1c-0.2-0.1-0.4-0.2-0.7-0.3c-0.2-0.1-0.5-0.2-0.7-0.3c-0.3-0.1-0.5-0.2-0.7-0.3
		c-0.1,0-0.1,0-0.1-0.1l-2,1.7c0.1,0.2,0.2,0.4,0.2,0.4s-0.2,0.1-0.6,0l-0.1,0l-13,10.9l-24.9-6.7c-0.1,0-0.2,0.1-0.3,0.1
		C404.4,332.7,404.1,332.8,403.9,332.8z"/>
	<path class="st0" d="M515.1,351.2c0,0-0.1-0.1-0.4-0.4c-0.2-0.2-0.5-0.5-1-1c-0.1-0.1-0.3-0.3-0.5-0.4l2.8,18.2
		c0.2,0.1,0.4,0.1,0.6,0.2c0.3,0.1,0.6,0.1,0.8,0.2c0.1,0,0.2,0.1,0.3,0.1l-2.5-17C515.2,351.1,515.2,351.1,515.1,351.2z"/>
	<path class="st0" d="M511.5,348.2l3,19.7c0.4-0.3,0.6-0.5,0.6-0.5c0.1,0,0.1,0.1,0.2,0c0.2,0.1,0.5,0.2,0.7,0.2
		c0.1,0,0.1,0,0.1,0.1l-2.7-18.2c-0.2-0.2-0.4-0.4-0.7-0.5C512.3,348.8,511.9,348.5,511.5,348.2z"/>
	<path class="st0" d="M399.8,334c-0.3,0.1-0.6,0.2-0.9,0.3c-0.2,0.1-0.5,0.1-0.7,0.3l33.8,9.2l18.4-15.3c-0.1-0.1-0.2-0.1-0.4-0.1
		c-0.2-0.1-0.4-0.1-0.6-0.2c-0.2-0.1-0.4-0.2-0.6-0.2c-0.2-0.1-0.4-0.2-0.7-0.2c-0.1-0.1-0.2-0.1-0.4-0.1l-16.9,14.2l-29.5-8.1
		c-0.2,0.1-0.5,0.1-0.7,0.2C400.4,333.8,400.1,333.9,399.8,334z"/>
	<path class="st0" d="M511.1,339l-0.9,0l0.4,2.3c0.1,0,0.1,0.1,0.2,0.2l0.1,0c0.2,0,0.7,0.2,1.2,0.2c0.1,0,0.1,0,0.2,0l-0.4-2.7
		l-0.5,0L511.1,339z"/>
	<path class="st0" d="M515.3,379.8L515.3,379.8c0,0.1,0.1,0.2,0.1,0.2l9.7,5.6l0-0.1l0.1,0l1.8,0.2l1,0.1c-0.3,0-1.2-0.5-2.6-1.3
		c-1.8-1.1-4.3-2.4-6.5-3.8c-0.3-0.2-0.6-0.4-1-0.5c-0.3-0.2-0.6-0.4-0.8-0.5c-0.3-0.2-0.5-0.3-0.8-0.5c-0.3-0.2-0.5-0.3-0.8-0.5
		c-0.3-0.2-0.5-0.3-0.8-0.5c-0.1,0-0.1-0.1-0.2-0.2l0.1,1.1L515.3,379.8z"/>
	<path class="st0" d="M510.1,339L509,339c-0.1,0-0.3,0-0.4-0.1l0.3,1.6c0.4,0.1,0.7,0.2,1,0.5c0.2,0.1,0.5,0.3,0.7,0.4L510.1,339
		L510.1,339z"/>
	<path class="st0" d="M509.8,347l3.3,21.8c0.6-0.4,1.2-0.7,1.4-0.9l-3-19.7c-0.1-0.1-0.1-0.1-0.2-0.1
		C510.8,347.7,510.3,347.4,509.8,347z"/>
	<path class="st0" d="M397.2,334.9c-0.3,0.2-0.6,0.2-0.9,0.4c-0.3,0.1-0.6,0.2-0.8,0.3l37.9,10.3l19.7-16.5l0,0
		c-0.2,0-0.4-0.1-0.6-0.2c-0.2,0-0.4-0.1-0.6-0.2c-0.2,0-0.4-0.1-0.6-0.2c-0.2,0-0.4-0.1-0.6-0.2c-0.1-0.1-0.1-0.1-0.3-0.1
		L432,343.8l-33.8-9.2c-0.1,0-0.1,0-0.2,0.1C397.8,334.7,397.4,334.8,397.2,334.9z"/>
	<path class="st0" d="M507,338.8l0.2,1.2c0.2,0,0.4,0.1,0.5,0.1c0.4,0.1,0.7,0.2,1,0.3l0.1,0l-0.3-1.6c-0.2,0-0.4,0-0.6-0.1
		C507.6,338.8,507.4,338.7,507,338.8z"/>
	<path class="st0" d="M517.9,382.3c0.4,0,0.7,0,0.7,0c0,0.2-0.1,0.3,0,0.5c0.1,0.5,0.7,0.8,1.3,1c0.6,0.2,1.3,0.2,1.3,0.2
		c0.2,1,1.2,1,1.8,1c0.3,0,0.5,0,0.5,0c0.2,0.4,0.7,0.9,1.1,1.2c0.2,0.2,0.4,0.4,0.4,0.4l-0.1-0.1l0.2-0.8l-9.7-5.6
		C515.6,381.7,517,382.1,517.9,382.3z"/>
	<path class="st0" d="M508.8,346.5c-0.2-0.2-0.5-0.2-0.7-0.4l3.5,23.4c0.5-0.2,1-0.5,1.4-0.7l-3.2-21.8l-0.1,0
		C509.4,346.8,509.2,346.7,508.8,346.5z"/>
	<path class="st0" d="M394.2,336c-0.4,0.2-0.7,0.3-1,0.4c-0.2,0.1-0.4,0.2-0.5,0.2l41.6,11.3l21.1-17.5c-0.1-0.1-0.4-0.1-0.5-0.2
		c-0.1-0.1-0.3-0.1-0.4-0.2s-0.4-0.1-0.5-0.2c-0.1-0.1-0.4-0.1-0.5-0.2c-0.1-0.1-0.4-0.1-0.5-0.2l-19.8,16.5l-37.9-10.3
		c0,0.1-0.1,0-0.1,0.1C394.9,335.7,394.6,335.8,394.2,336z"/>
	<path class="st0" d="M513.7,377.6c0.3-0.2,0.4-0.4,0.5-0.5c0.1-0.2,0-0.3-0.2-0.4s-0.5-0.3-0.9-0.3c-0.1,0-0.3,0-0.4-0.1l0.3,1.7
		l0-0.1l0.2,0.3l0.7,0.5l0.7,0.6l0,0l-0.1-1.1c-0.2-0.1-0.5-0.2-0.6-0.4C513.7,377.7,513.7,377.6,513.7,377.6z"/>
	<path class="st0" d="M512,376.2c-0.3-0.1-0.6-0.1-0.8-0.1l0.4,2.7l0.2,0.1l1.2-0.9l-0.3-1.7C512.4,376.2,512.2,376.2,512,376.2z"/>
	<path class="st0" d="M506.8,345.4c-0.1-0.1-0.2-0.2-0.3-0.2l3.8,24.9c0.2-0.1,0.4-0.2,0.5-0.2c0.3-0.1,0.6-0.2,0.9-0.4l-3.5-23.4
		c-0.1-0.1-0.2-0.2-0.3-0.2C507.5,345.8,507.1,345.6,506.8,345.4z"/>
	<path class="st0" d="M392.7,336.6c-0.2,0.1-0.4,0.2-0.5,0.3c-0.4,0.2-0.6,0.3-1,0.5c-0.2,0.1-0.5,0.3-0.6,0.4l44.8,12.2l23.7-19.8
		c-0.1,0-0.1,0-0.2,0c-0.2,0-0.5,0-0.6,0c-0.2,0-0.5,0-0.6,0.1c-0.2,0.1-0.4,0.1-0.6,0.1s-0.4,0.2-0.4,0.3c0,0.1,0,0.1,0,0.2
		c0,0-0.2-0.1-0.6-0.2c-0.2,0-0.4-0.2-0.7-0.2L434.3,348L392.7,336.6z"/>
	<path class="st0" d="M505.9,338.7c-0.1,0-0.2,0-0.3-0.1l0.1,1.1c0.3,0.1,0.6,0.1,1,0.1c0.2,0,0.3,0.1,0.5,0.1l-0.2-1.2
		c-0.1,0-0.1,0-0.1,0C506.6,338.7,506.2,338.7,505.9,338.7z"/>
	<path class="st0" d="M510.6,376.1c-0.3,0.1-0.6,0.3-0.8,0.4l0.3,2l0.9,0.2l0.1,0l0.5,0.1l-0.4-2.7c-0.1,0-0.3,0-0.3-0.1
		C510.6,376.1,510.6,376.1,510.6,376.1z"/>
	<path class="st0" d="M389.3,338.6c-0.1,0.1-0.2,0.2-0.3,0.3l47.4,12.9l26-21.6c-0.1,0-0.3-0.1-0.5,0c-0.3,0-0.5,0-0.8-0.1
		c-0.3,0-0.5,0-0.7,0c-0.3,0-0.5,0-0.7,0c-0.2,0-0.3-0.1-0.5,0L435.5,350l-44.8-12.2c-0.1,0.1-0.2,0.1-0.3,0.2
		C389.8,338.1,389.6,338.4,389.3,338.6z"/>
	<path class="st0" d="M504.1,338.7l0.1,1.1c0.1,0,0.3,0,0.4,0c0.3,0.1,0.7,0,1,0l0,0l-0.1-1.1c-0.2,0-0.4,0-0.7,0
		C504.7,338.6,504.4,338.7,504.1,338.7z"/>
	<path class="st0" d="M505,344.5l3.9,26.1c0.5-0.1,0.9-0.4,1.4-0.5l-3.8-24.9c-0.2-0.2-0.4-0.2-0.7-0.3
		C505.6,344.8,505.3,344.6,505,344.5z"/>
	<path class="st0" d="M388.9,340.1L388.9,340.1l0.3,0.3c0,0-0.1,0-0.1,0.1l48.4,13.2l25.4-21.2c-0.1,0-0.2,0-0.3,0l-0.2-0.3
		c0.2-0.1,0.5,0,0.6-0.1c0.1,0,0.2-0.1,0.3,0l1.9-1.6c-0.3,0-0.6-0.1-0.9-0.1c-0.3,0-0.6-0.1-0.9-0.1c-0.3,0-0.6-0.1-0.8-0.1
		c-0.1,0-0.2,0-0.3-0.1l-26,21.6l-47.4-12.9C388.7,339.4,388.6,339.7,388.9,340.1z"/>
	<path class="st0" d="M504,344.1c-0.1-0.1-0.4-0.1-0.5-0.2l4,27.2c0.3-0.2,0.7-0.2,1.1-0.3c0.1,0,0.2-0.1,0.2-0.1l-3.9-26.1l-0.1,0
		C504.6,344.3,504.4,344.2,504,344.1z"/>
	<path class="st0" d="M503,338.7c-0.1,0-0.2,0-0.3,0l0.2,1.2c0.3,0,0.5-0.1,0.9-0.1c0.1,0,0.3,0,0.5,0l-0.1-1.1c-0.1,0-0.1,0-0.1,0
		C503.6,338.7,503.4,338.7,503,338.7z"/>
	<path class="st0" d="M508.7,376.7c-0.1,0-0.1,0-0.3,0l0.2,1.5c0.1,0,0.2,0,0.3,0c0.5,0,0.8,0.1,0.8,0.1l0.3,0.1l0.1,0l-0.3-2
		C509.4,376.6,509.1,376.6,508.7,376.7z"/>
	<path class="st0" d="M501.4,338.8l0.2,1.3c0.1,0,0.1,0,0.2-0.1c0.3-0.1,0.6-0.1,0.9-0.2l0.1,0l-0.2-1.2c-0.2,0-0.4,0-0.6,0
		C501.9,338.8,501.7,338.8,501.4,338.8z"/>
	<path class="st0" d="M502.3,343.4c-0.1,0-0.1-0.1-0.1-0.1l4.2,28.2c0.2-0.1,0.4-0.1,0.7-0.2c0.3,0,0.4-0.1,0.7-0.2l-4-27.2
		c-0.1-0.1-0.3-0.1-0.4-0.1C502.8,343.5,502.6,343.5,502.3,343.4z"/>
	<path class="st0" d="M464.6,332c0.3,0,0.5,0,0.8,0c0.3,0.1,0.6,0,0.9,0c0.1,0,0.2,0,0.3,0.1l1.6-1.4c-0.2,0-0.5,0-0.6,0
		c0,0-0.1,0-0.3,0c-0.2,0-0.6-0.1-1-0.2c-0.3,0-0.6-0.1-0.9-0.1c0,0,0,0-0.1,0l-1.9,1.6c0.1,0,0.3,0,0.3,0
		C464,332,464.3,332,464.6,332z"/>
	<path class="st0" d="M388.1,341.9l50.3,13.7l26.9-22.5c-0.1,0-0.1,0-0.1,0c-0.3-0.1-0.6-0.1-0.9-0.2c-0.3-0.1-0.6-0.1-0.9-0.2
		c-0.2-0.1-0.4-0.1-0.6-0.1l-25.4,21.2L389,340.5c-0.2,0.2-0.5,0.4-0.7,0.9C388.2,341.5,388.1,341.7,388.1,341.9z"/>
	<path class="st0" d="M507.1,376.8l0.2,1.2c0.2,0,0.4,0.1,0.6,0.1c0.3,0.1,0.6,0.1,0.8,0.1l-0.2-1.5c-0.3,0-0.8,0-1.1,0.1
		C507.2,376.8,507.2,376.8,507.1,376.8z"/>
	<path class="st0" d="M505.8,376.7l0.1,1.1c0.3,0.1,0.6,0.1,0.9,0.2c0.1,0,0.3,0,0.4,0.1l-0.2-1.2c-0.3,0-0.5,0-0.8-0.1
		C506.1,376.7,506,376.8,505.8,376.7z"/>
	<path class="st0" d="M387.8,343.2c0,0.1,0,0.1,0.1,0.2l51.4,14l28.4-23.7c-0.2,0-0.4-0.1-0.6-0.1c-0.4-0.1-0.7-0.2-1-0.2
		c-0.3,0-0.6-0.1-0.8-0.2l-26.9,22.5l-50.3-13.7C387.9,342.2,387.8,342.7,387.8,343.2z"/>
	<path class="st0" d="M467.4,332c0.2-0.1,0.4-0.2,0.6-0.1c0.2-0.1,0.6-0.1,0.9-0.1c0.3,0,0.6,0,0.9,0c0,0,0,0,0.1,0l1.3-1.2l-0.1,0
		c-0.3-0.1-0.7-0.1-1.1-0.1c-0.3-0.1-0.7,0-1,0c-0.3,0-0.6,0-0.9,0.1l0,0l-1.6,1.4c0.3,0,0.5,0,0.6,0.1
		C467.3,332,467.4,332,467.4,332z"/>
	<path class="st0" d="M500.4,338.9c-0.1,0-0.1,0-0.2,0.1l0.5,3.4l0.2-0.9l0.2-1.1c0.1,0,0.3-0.2,0.7-0.2l-0.2-1.3
		c-0.1,0-0.1,0-0.2,0C501,338.9,500.7,338.9,500.4,338.9z"/>
	<path class="st0" d="M501.4,343c-0.2-0.1-0.5-0.2-0.7-0.2l4.4,29c0.1,0,0.3-0.1,0.4-0.1c0.2-0.1,0.6-0.1,0.8-0.2l-4.2-28.2
		C501.9,343.2,501.6,343.2,501.4,343z"/>
	<path class="st0" d="M471.9,331.9c0.2,0,0.4,0.1,0.6,0.1l1.2-1c-0.1,0-0.2,0-0.3-0.1c-0.4,0-0.8-0.2-1.2-0.2
		c-0.3-0.1-0.7-0.1-1.1-0.1l-1.3,1.2c0.3,0.1,0.7,0,1,0C471.2,331.9,471.5,331.9,471.9,331.9z"/>
	<path class="st0" d="M504.5,376.5L504.5,376.5l0.1,1.1c0.1,0,0.2,0.1,0.4,0.1c0.3,0.1,0.6,0.1,0.9,0.2l0,0l-0.1-1.1
		c-0.1,0-0.3,0-0.4-0.1C505.2,376.5,504.8,376.5,504.5,376.5z"/>
	<path class="st0" d="M500.7,342.3l-0.5-3.4c-0.2,0.1-0.4,0.1-0.6,0.1c-0.2,0.1-0.4,0.1-0.6,0.2l4.8,32.8c0.1,0,0.2-0.1,0.4-0.1
		c0.3-0.1,0.6-0.1,0.9-0.2l-4.4-29c-0.1,0-0.1-0.1-0.1-0.1L500.7,342.3z"/>
	<path class="st0" d="M440.2,359l29.9-24.9c-0.3-0.1-0.6-0.1-0.8-0.2c-0.4-0.1-0.7-0.2-1-0.2c-0.1,0-0.3-0.1-0.4-0.1l-28.4,23.7
		l-51.4-14c0,0.5,0.2,1,0.6,1.6L440.2,359z"/>
	<path class="st0" d="M475.1,332.3l0.9-0.7c-0.3-0.1-0.6-0.1-1-0.2c-0.4-0.1-0.8-0.2-1.3-0.3l-1.2,1c0.2,0,0.3,0.1,0.5,0
		C473.8,332.1,474.5,332.2,475.1,332.3z"/>
	<path class="st0" d="M388.2,346c0,0.1-0.1,0.1-0.1,0.1c0,0.1,0,0.1,0,0.1l53,14.4l31.2-26c-0.3-0.1-0.6-0.1-0.9-0.2
		c-0.4-0.1-0.7-0.2-1.2-0.2c-0.1,0-0.2,0-0.2-0.1l-29.9,24.9l-51.7-14.1c0.1,0.1,0.1,0.3,0.2,0.4C388.5,345.5,388.3,345.7,388.2,346
		z"/>
	<path class="st0" d="M503.2,376l0.2,1.2c0.2,0.1,0.6,0.1,0.8,0.2c0.2,0,0.3,0.1,0.5,0.1l-0.1-1.1c-0.2-0.1-0.5-0.2-0.7-0.2
		C503.6,376.2,503.4,376.1,503.2,376z"/>
	<path class="st0" d="M497.8,339.8L497.8,339.8l4.9,32.4c0.1,0,0.2-0.1,0.4-0.1c0.3-0.1,0.6-0.1,0.9-0.2l-4.9-32.8
		c-0.1,0-0.2,0.1-0.2,0.1C498.4,339.5,498,339.6,497.8,339.8z"/>
	<path class="st0" d="M502.4,375.8c-0.2,0-0.4-0.1-0.5-0.2l0.3,1.4c0.2,0,0.3,0.1,0.5,0.2c0.2,0.1,0.6,0.1,0.8,0.2l0,0l-0.2-1.2
		c-0.1,0-0.1,0-0.1-0.1C502.8,375.9,502.7,375.9,502.4,375.8z"/>
	<path class="st0" d="M501.5,372.7l0.4-0.3c0.2-0.1,0.4-0.1,0.8-0.1l-4.8-32.4l-0.9,1.5L501.5,372.7z"/>
	<path class="st0" d="M475.2,332.3c0.6,0.1,1.1,0.2,1.2,0.2c0.1,0,0.1,0,0.1,0c-0.1,0.1-0.1,0.6-0.1,0.9l1.8-1.5
		c-0.3-0.1-0.6-0.1-0.9,0c0,0-0.1,0-0.1-0.1c-0.2,0-0.5-0.2-1-0.3c-0.1,0-0.1,0-0.2,0L475.2,332.3
		C475.1,332.3,475.2,332.3,475.2,332.3z"/>
	<path class="st0" d="M387.8,347.6l54,14.7l32.6-27.2c-0.6-0.1-1.3-0.3-1.9-0.4c-0.1,0-0.2,0-0.2-0.1l-31.2,26l-53-14.4
		C387.9,346.8,387.8,347.1,387.8,347.6z"/>
	<path class="st0" d="M476.6,334.6l-0.9,0.7c-0.3-0.1-0.7-0.2-1-0.2c-0.1,0-0.1,0-0.2,0l-32.6,27.2l-54-14.7c0,0.1,0.1,0.2,0,0.3
		c0,0.5,0.2,0.8,0.3,1.2l54.5,14.8l37-30.9c-0.1-0.2-0.4-0.4-0.5-0.5c-0.2-0.2-0.5-0.3-0.8-0.4c-0.1,0-0.1,0-0.2,0l-1.8,1.5
		c0,0.1,0,0.1,0.1,0.2C476.5,333.9,476.5,334.3,476.6,334.6z"/>
	<path class="st0" d="M496.1,341.3c-0.2,0-0.3-0.1-0.5-0.2l5.3,35.4c0.1,0,0.2,0,0.2,0.1c0.2,0.1,0.5,0.2,0.7,0.2
		c0.1,0.1,0.2,0,0.3,0.1l-0.3-1.4c-0.1,0-0.1,0-0.1-0.1c-0.2-0.1-0.4-0.2-0.6-0.2c-0.4-0.1-0.5-0.2-0.5-0.3l0,0l0-0.6l0-0.6l0-0.6
		l0.8-0.6l-4.6-31.3l0,0.1C496.6,341.5,496.3,341.4,496.1,341.3z"/>
	<path class="st0" d="M494.7,341c-0.1,0-0.2,0-0.3-0.1l5.3,35.2c0.1,0,0.1,0.1,0.2,0.2c0.2,0.2,0.4,0.1,0.6,0.2
		c0.1,0.1,0.3,0.1,0.4,0.1l-5.3-35.4c-0.1,0-0.1,0-0.2-0.1C495.2,341.1,495,341,494.7,341z"/>
	<path class="st0" d="M389,350.2c-0.1,0.1-0.2,0.2-0.2,0.2l54.7,14.8l37.1-31l0,0c-0.1-0.3-0.3-0.5-0.4-0.7
		c-0.1-0.2-0.3-0.5-0.4-0.6l-0.1,0l-37,30.9L388.2,349c0,0.1,0.1,0.2,0.1,0.3C388.6,349.8,389,350.2,389,350.2z"/>
	<path class="st0" d="M389.1,351.7l55.2,15l37-30.9c0-0.1-0.1-0.2-0.1-0.2c-0.1-0.2-0.2-0.5-0.3-0.7c-0.1-0.2-0.2-0.4-0.3-0.6
		l-37.1,31l-54.8-14.9c0,0.1,0,0.1-0.1,0.1C388.6,350.9,388.8,351.4,389.1,351.7z"/>
	<path class="st0" d="M494.2,340.8c-0.1,0-0.2,0-0.2-0.1c0,0,0.1,0.4,0.1,0.9c0.1,1.1,0.2,2.8,0,3.3l4.5,30.5
		c0.1,0.1,0.2,0.2,0.3,0.2c0.1,0.1,0.3,0.2,0.5,0.3c0.1,0.1,0.2,0.2,0.4,0.1l-5.3-35.2C494.4,340.9,494.3,340.8,494.2,340.8z"/>
	<path class="st0" d="M390.3,353c0.2,0.2,0.3,0.3,0.5,0.4l54.3,14.7l37.6-31.3c-0.2,0-0.4,0-0.5,0c-0.1,0-0.3-0.1-0.5,0
		c0,0-0.1-0.2-0.2-0.4c-0.1-0.2-0.1-0.3-0.2-0.5l-37,30.9l-55.2-15c0.1,0,0.1,0.1,0.1,0.1C389.4,352.3,389.8,352.7,390.3,353z"/>
	<path class="st0" d="M493.9,345.1c0,0-0.3,0.2-0.5,0.5c-0.1,0.1-0.2,0.1-0.3,0.1l4.3,28.7l0,0c0.1,0.1,0.2,0.2,0.3,0.3
		c0.1,0.1,0.2,0.2,0.3,0.3c0.1,0.1,0.2,0.3,0.4,0.3c0.1,0,0.1,0.1,0.1,0.1l-4.5-30.6C493.9,345,494,345,493.9,345.1z"/>
	<path class="st0" d="M492.1,345.4c-0.2-0.3-0.2-0.8-0.2-1.5c0,0,0.3-1.1,0.2-2.2c0-0.5-0.1-1-0.3-1.4c-0.1-0.3-0.3-0.5-0.4-0.6
		c-0.1,0-0.1-0.1-0.1-0.1l5,33.4c0.1,0,0.3,0,0.5,0l0.3,0.3c0,0.2,0,0.4,0,0.5c0.1,0.2,0.1,0.3,0.2,0.4c0.1,0.1,0.1,0.3,0.2,0.4
		l-4.2-28.8c-0.1,0.1-0.2,0.1-0.4,0.1C492.4,345.7,492.3,345.6,492.1,345.4z"/>
	<path class="st0" d="M390.7,353.4c0.2,0.2,0.5,0.4,0.7,0.5c0.4,0.3,0.9,0.6,1.4,1c0.2,0.2,0.4,0.3,0.6,0.4l52.3,14.2l38.7-32.3
		c-0.2-0.1-0.5-0.2-0.7-0.2c-0.3-0.1-0.6-0.1-0.8-0.2c-0.1,0-0.3,0-0.4,0l-37.6,31.3L390.7,353.4z"/>
	<path class="st0" d="M395.8,356.8c0.4,0.2,0.8,0.5,1.2,0.7l49.5,13.4l39.7-33.1c-0.1-0.1-0.2,0-0.3-0.1c-0.2-0.1-0.5-0.2-0.7-0.2
		c-0.2-0.1-0.5-0.2-0.7-0.2c0,0,0,0-0.1,0l-38.7,32.3l-52.3-14.2c0.3,0.2,0.5,0.3,0.9,0.5C394.8,356.2,395.3,356.5,395.8,356.8z"/>
	<path class="st0" d="M490.3,339.3c-0.1,0-0.1-0.1-0.2,0c0,0,0,0-0.1,0l5.1,33.8l0.1,0c0.2,0,0.5,0,0.7,0c0.1,0,0.1,0,0.2,0l-5-33.5
		c-0.1-0.1-0.2-0.2-0.4-0.2C490.7,339.4,490.5,339.3,490.3,339.3z"/>
	<path class="st0" d="M398.7,358.4c0.5,0.2,1,0.5,1.4,0.8c0.4,0.2,0.7,0.3,1,0.5l46,12.5l40.7-33.9l-0.1,0c-0.2,0-0.4-0.1-0.6-0.2
		c-0.2-0.1-0.4-0.1-0.6-0.2c-0.1-0.1-0.2-0.1-0.4-0.1l-39.7,33.1l-49.5-13.4c0.1,0,0.1,0.1,0.2,0.2
		C397.7,357.9,398.2,358.1,398.7,358.4z"/>
	<path class="st0" d="M489.4,338.9c-0.1-0.1-0.2-0.1-0.3-0.1l4.4,29.6c0.1,0.1,0.2,0.2,0.3,0.3c0.1,0,0,0.1,0,0.1
		c0.1,0,0.1,0.1,0.1,0.3c0,0.1,0.1,0.2,0,0.3c0,0.1,0.1,0.2,0,0.3c0,0.1,0.1,0.2,0,0.3c0,0.1,0.1,0.2,0,0.3c0,0.1,0,0.2,0,0.3
		c0,0.1,0,0.1,0,0.3c0,0.1,0,0.3,0,0.4c0,0.1,0,0.3,0,0.4c0,0.1,0,0.1,0,0.2l0.2,1.4c0.1,0,0.3,0,0.3,0c0.2,0,0.4,0,0.5,0l-5.1-33.8
		C490,339.1,489.7,339.1,489.4,338.9z"/>
	<path class="st0" d="M493.9,372.3c0,0.2-0.1,0.3,0,0.5c-0.1,0.2-0.1,0.4-0.1,0.4c0.1,0,0.1,0,0.1,0c0.1,0,0.1,0,0.3,0l-0.2-1.4
		c0,0.1,0,0.2,0,0.3C494,372.1,494,372.1,493.9,372.3z"/>
	<path class="st0" d="M488.3,338.5c-0.2,0-0.4-0.1-0.5-0.2l-40.6,33.9l-46-12.5c0.1,0.1,0.2,0.2,0.4,0.2c0.5,0.2,1,0.5,1.3,0.7
		c0.5,0.3,1,0.5,1.3,0.7c0.7,0.3,1.2,0.6,1.3,0.6c0.1,0,0.1,0.1,0.1,0.1c0.1,0.1,0.1,0.1,0.3,0.1l41.9,11.4l40.4-33.8l4.2,28
		c0.2,0,0.4,0.1,0.6,0.2c0.1,0.1,0.2,0.3,0.4,0.4c0,0,0,0,0.1,0l-4.4-29.6c-0.1,0-0.1-0.1-0.2-0.1
		C488.7,338.7,488.5,338.6,488.3,338.5z"/>
	<path class="st0" d="M408.5,363.1c0.5,0.2,0.9,0.4,1.5,0.6c0.5,0.2,0.9,0.4,1.4,0.5c0.5,0.2,0.9,0.4,1.4,0.5
		c0.5,0.2,0.9,0.3,1.4,0.5c0.5,0.2,0.9,0.3,1.4,0.4c0.5,0.2,0.9,0.3,1.4,0.4c0.5,0.2,0.8,0.3,1.4,0.4l8.8,2.4c0.1,0,0.1,0,0.2,0
		c0.4,0.1,0.8,0.3,1.2,0.3c0.4,0.1,0.8,0.2,1.2,0.3c0.4,0.1,0.8,0.2,1.2,0.2c0.4,0.1,0.8,0.2,1.2,0.2c0.4,0.1,0.7,0.1,1.2,0.2
		c0.4,0.1,0.7,0.1,1.1,0.2c0.4,0.1,0.7,0.1,1.1,0.2l-0.1,0c0,0.1,0.1,0.3,0.3,0.4c0.1,0,0.1,0.1,0.1,0.1l13,3.5l39.1-32.5l4.1,27.5
		c0-0.1,0-0.1,0-0.2c0-0.1,0-0.3,0-0.3c0-0.1,0-0.3,0.1-0.3c0-0.1,0.1-0.2,0.1-0.3c0-0.2,0.1-0.3,0.1-0.4c0.1-0.1,0.3-0.2,0.4-0.2
		l-4.2-28L448,373.8l-41.8-11.4c0.4,0.1,0.7,0.3,1,0.4C407.5,362.7,408,362.9,408.5,363.1z"/>
	<path class="st0" d="M492,370.7c0-0.1-0.1-0.2,0-0.3c0-0.1-0.1-0.2,0-0.3c0-0.1-0.1-0.2,0-0.3c0-0.1-0.1-0.2,0-0.3l0.2,1.3
		C492.1,370.9,492,370.8,492,370.7z"/>
	<path class="st0" d="M448.5,374.7l-13-3.5c0.1,0.1,0.2,0.1,0.4,0.2c0.1,0.1,0.4,0.2,0.5,0.3c0.1,0.1,0.4,0.1,0.6,0.2
		s0.4,0.2,0.6,0.2c0.2,0.1,0.4,0.2,0.6,0.2c0.2,0.1,0.4,0.2,0.6,0.2c0.2,0.1,0.4,0.1,0.6,0.2c0.2,0.1,0.4,0.1,0.6,0.2
		c0.2,0.1,0.4,0.1,0.6,0.2s0.4,0.1,0.6,0.2c0.2,0,0.4,0.1,0.6,0.2c0.2,0.1,0.4,0.1,0.6,0.2c0.2,0.1,0.5,0.2,0.6,0.2
		c0.2,0,0.2,0.1,0.2,0.1l0,0.1l5.8,1.6l38-31.9l4.4,29.1c0-0.1,0-0.1,0.1-0.1c0.1-0.1,0.2-0.4,0.3-0.5c0-0.2,0.1-0.3,0.1-0.4
		c0-0.1,0-0.3,0-0.4c0-0.1,0-0.3,0-0.4c0-0.2,0-0.3,0-0.5l0,0l-0.2-1.3l0,0c0-0.1,0-0.1,0-0.1l0-0.1l-4.1-27.5L448.5,374.7z"/>
	<path class="st0" d="M419.5,366.9c0.5,0.2,0.8,0.3,1.4,0.4c0.4,0.1,0.8,0.3,1.3,0.4c0.4,0.1,0.8,0.3,1.3,0.3
		c0.4,0.1,0.8,0.3,1.3,0.3c0.4,0.1,0.8,0.3,1.3,0.3c0.4,0.1,0.7,0.2,1.1,0.3l-8.8-2.4l0.1,0C418.6,366.6,419.1,366.7,419.5,366.9z"
		/>
	<path class="st0" d="M442.9,374.8c0,0.1-0.1,0.1-0.3,0.2l4.5,1.2c0.9-0.1,1.8-0.3,2.7-0.5c0.6-0.1,1.1-0.2,1.5-0.2l35.2-29.4
		l4.1,27.5l0.1,0c0.2-0.1,0.5-0.2,0.7-0.5l-4.3-29L449.1,376l-5.8-1.6c0,0.1,0,0.1-0.1,0.1C443.1,374.6,443,374.8,442.9,374.8z"/>
	<path class="st0" d="M442.4,375.6c-0.1,0.1-0.2,0.2-0.3,0.3l0,0l2.9,0.8c0.6-0.1,1.3-0.2,1.9-0.3c0.1,0,0.1,0,0.2-0.1l-4.5-1.2
		c0,0.1,0,0.1,0,0.1C442.6,375.4,442.4,375.5,442.4,375.6z"/>
	<path class="st0" d="M451.4,375.6c0.4-0.1,0.7-0.2,1.1-0.1c0.4-0.1,0.9-0.1,1.3-0.2l32.3-26.9l3.8,25.5c0.1,0,0.1,0,0.1,0
		c0.1,0,0.1,0,0.1,0c0.2,0,0.3,0,0.5,0l-4.1-27.5L451.4,375.6z"/>
	<path class="st0" d="M441.6,376.6c0,0.1,0,0.1-0.1,0.1l1.6,0.4c0.1,0,0.3-0.1,0.4-0.1c0.4-0.1,1-0.2,1.6-0.3l-2.9-0.8
		c-0.1,0.1-0.2,0.2-0.3,0.3C441.8,376.4,441.7,376.5,441.6,376.6z"/>
	<path class="st0" d="M456.2,374.8l29.4-24.5l3.5,23.7c0.1,0,0.3-0.1,0.5,0c0.1,0,0.3-0.1,0.4-0.1l-3.8-25.5l-32.3,26.9
		c0.4-0.1,0.9-0.2,1.2-0.2C455.6,375,455.9,374.9,456.2,374.8z"/>
	<path class="st0" d="M441.3,376.9c-0.2,0.2-0.3,0.3-0.4,0.4c0,0.1,0,0.1-0.1,0.1l0.4,0.1c0.1,0,0.1,0,0.1,0c0.1,0,0.2-0.1,0.4-0.1
		c0.1,0,0.2-0.1,0.4-0.1c0.3-0.1,0.6-0.1,0.9-0.2l-1.6-0.4C441.5,376.8,441.4,376.8,441.3,376.9z"/>
	<path class="st0" d="M456.6,374.8c0,0.1,0.1,0.2,0.1,0.2c0,0.1,0.1,0.1,0.1,0.1c0.1,0,0.1,0.1,0.2,0.2c0.1,0,0.1,0.1,0.2,0.2
		c0,0,0.1,0,0.1,0.1l27.9-23.3l3.3,21.9c0.2,0,0.4-0.1,0.6-0.1c0.1,0,0.1,0,0.2-0.1l-3.5-23.7l-29.5,24.6
		C456.4,374.8,456.5,374.8,456.6,374.8C456.5,374.8,456.6,374.8,456.6,374.8z"/>
	<path class="st0" d="M440.4,377.8L440.4,377.8L440.4,377.8c0.1,0,0.2-0.1,0.3-0.1C440.5,377.7,440.4,377.8,440.4,377.8z"/>
	<path class="st0" d="M457.7,375.6c0.1,0,0.2,0,0.3,0.1c0.1,0.1,0.2,0,0.3,0.1s0.2,0,0.3,0.1l0,0l26.2-21.8l3,20.1l0.1,0
		c0.2,0,0.4-0.1,0.6-0.1l0.1,0l-3.3-21.9l-27.9,23.3c0.1,0,0.1,0.1,0.1,0.1C457.6,375.7,457.5,375.6,457.7,375.6z"/>
	<path class="st0" d="M440.6,377.7L440.6,377.7L440.6,377.7c0.1,0,0.2-0.1,0.4-0.1c0.1,0,0.1,0,0.2-0.1l-0.4-0.1c0,0.1,0,0.1,0,0.1
		C440.8,377.6,440.7,377.6,440.6,377.7z"/>
	<path class="st0" d="M458.5,375.9c0.1,0,0.2,0,0.2,0.1c0.1,0.1,0.2,0,0.3,0.1s0.2,0,0.3,0.1c0.2,0,0.2,0,0.3,0.1
		c0.1,0,0.2,0,0.2,0.1l2.1-1.8l-0.1,0c0,0-0.1,0,0-0.1l0.1,0l0.1,0l22.2-18.6l2.8,18.4c0.1,0,0.2,0,0.3,0c0.1,0,0.3-0.1,0.5,0
		l-3.1-20.2L458.5,375.9z"/>
	<path class="st0" d="M462.3,374.4c0.1,0,0.1,0,0.2,0c0.1,0,0.1,0,0.2,0c0.1,0,0.1,0,0.2,0c0.1,0,0.1,0,0.2,0c0.1,0,0.1,0,0.2,0
		c0.1,0,0.1,0,0.2,0l20.2-16.9l2.5,16.8c0.1,0,0.3,0,0.5,0c0.1,0,0.1,0,0.2-0.1l-2.8-18.4l-22.2,18.6c0.1,0,0.1,0,0.1,0
		C462.1,374.4,462.2,374.5,462.3,374.4z"/>
	<path class="st0" d="M460,376.3c0.1,0,0.2,0,0.3,0c0.1,0,0.2,0,0.3,0c0.1,0,0.1,0,0.2,0c0.1,0,0.1,0,0.1,0c0.1,0,0.1,0,0.1,0l0.1,0
		l1.8-1.6l-1.1-0.4l-2.1,1.8c0,0,0,0,0.1,0C459.9,376.3,460,376.2,460,376.3z"/>
	<path class="st0" d="M461.3,376.5C461.3,376.5,461.3,376.5,461.3,376.5c0.2,0,0.2,0,0.2,0c0.1,0,0.1,0,0.1,0c0.1,0,0.1,0,0.1,0
		c0.1,0,0.1,0,0.1,0c0.1,0,0.1,0,0.1,0c0.1,0,0.1,0,0.1,0c0.1,0,0.1,0,0.1,0l0.1,0l0.1,0l0.1,0l0.1,0l1.7-1.4
		c-0.1,0-0.2-0.1-0.4-0.1c-0.2,0-0.4-0.1-0.5-0.2l-0.4-0.1l-1.8,1.6L461.3,376.5L461.3,376.5z"/>
	<path class="st0" d="M463.6,374.4C463.6,374.4,463.6,374.4,463.6,374.4l0.2,0.1l0-0.1l0.1,0l0.1,0l0.1,0l0.1,0l0.1,0l0.1,0l0.1,0
		l0.1,0l0.1,0l0.1,0l0.1,0l0.1,0l0.1,0l0.1,0l0.1,0l0.1,0l0.1,0l0.1,0c0,0,0,0,0.1,0c0,0,0,0,0.1,0c0,0,0,0,0.1,0l18-15l2.3,15.1
		c0.1,0,0.1,0,0.1,0c0.1,0,0.3-0.1,0.5,0l0.1,0l-2.6-16.8L463.6,374.4z"/>
	<path class="st0" d="M462.6,376.7L462.6,376.7l0.2,0l0.1,0l0.1,0l0.1,0l0.1,0l0.1,0l0.1,0l0.1,0l0.1,0l0.1,0l0.1,0l0.1,0l0.1,0
		l0.1,0l0.1,0c0,0,0,0,0.1,0c0,0,0,0,0.1,0c0,0,0,0,0.1,0c0.1,0,0.1,0,0.1,0l1.6-1.3l0,0c0,0,0,0-0.1,0c0,0,0,0-0.1,0c0,0,0,0-0.1,0
		c0,0,0,0-0.1,0c0,0,0,0-0.1,0c0,0,0,0-0.1,0c0,0,0,0-0.1,0l-0.1,0l-0.1,0l-0.1,0l-0.1,0l-0.1,0l-0.1,0l-0.1,0l-0.1,0l-0.1,0l-0.1,0
		l-0.1,0l-0.1,0l-0.1,0l-0.1,0c0,0,0,0-0.1,0l-0.1,0l-1.7,1.4l0,0C462.6,376.7,462.6,376.7,462.6,376.7z"/>
	<path class="st0" d="M465.2,374.5C465.2,374.5,465.2,374.5,465.2,374.5C465.3,374.5,465.3,374.5,465.2,374.5c0.1,0,0.1,0,0.2,0
		c0,0,0,0,0.1,0l0.1,0l0.1,0l0.1,0l0.1,0l0.1,0l0.1,0l0.1,0l0.1,0l0.1,0l0.1,0l0.1,0l0.1,0l0.1,0l0.1,0l0.1,0l0.1,0l0.1,0l0.1,0
		l0.1,0l16.2-13.5l2,13.5c0.1,0,0.2-0.1,0.3,0c0.1,0,0.2,0,0.3,0l-2.4-14.9L465.2,374.5C465.1,374.4,465.1,374.4,465.2,374.5
		C465.1,374.4,465.1,374.4,465.2,374.5z"/>
	<path class="st0" d="M465.1,377.1l1.5-1.3c0,0,0,0-0.1,0l-0.1,0l-0.1,0l-0.1,0l-0.1,0l-0.1,0l-0.1,0l-0.1,0l-0.1,0l-0.1,0l-0.1,0
		l-0.1,0c-0.1,0-0.3-0.1-0.5-0.1c0,0,0,0-0.1,0l0,0l-1.6,1.3C464.3,377,464.8,377,465.1,377.1z"/>
	<path class="st0" d="M466.8,374.4L466.8,374.4l0.2,0l0,0.1l0.1-0.1c0.1,0,0.1,0,0.1,0c0.1,0,0.1,0,0.1,0c0.1,0,0.1,0,0.1,0
		c0.1,0,0.1,0,0.1,0c0.1,0,0.1,0,0.1,0c0.1,0,0.1,0,0.1,0c0.1,0,0.1,0,0.1,0c0.1,0,0.1,0,0.1,0c0.1,0,0.1,0,0.1,0s0,0,0.1,0
		l14.3-11.9l1.8,12c0.1,0,0.1,0,0.1,0c0.1,0,0.3,0,0.4,0l0.1,0l-2-13.5l-16.3,13.4l0,0C466.7,374.5,466.8,374.5,466.8,374.4z"/>
	<path class="st0" d="M466.4,377.2l1.3-1l-0.1,0c0,0,0,0-0.1,0c0,0,0,0-0.1,0l-0.1,0l-0.1,0l-0.1,0l-0.1,0l-0.1,0l-0.1,0l0,0
		c0,0,0,0-0.1,0l-0.1,0l-0.1,0l-0.1,0l-0.1,0l-0.1,0c-0.1,0-0.1,0-0.1,0l-0.1,0l-0.1,0l0,0l-1.5,1.3
		C465.6,377.1,466.1,377.1,466.4,377.2z"/>
	<path class="st0" d="M468.3,374.5L468.3,374.5l0.2,0l0.1,0l0.1,0l0.1,0l0.1,0l0,0l0.1,0l0.1,0l0.1,0l0.1,0l0.1,0l0.1,0l0.1,0l0.1,0
		l0.1,0l0.1,0l0.1,0l0.1,0l12.4-10.4l1.6,10.4l0,0c0.1,0,0.3,0,0.3,0c0.1,0,0.1,0,0.2,0l-1.8-12l-14.3,11.9l0.1,0
		C468.3,374.5,468.3,374.5,468.3,374.5z"/>
	<path class="st0" d="M467.7,377.4l1-0.9l0,0l-0.1,0l0,0l-0.1,0l-0.1,0l-0.1,0l-0.1,0l-0.1,0l-0.1,0l-0.1,0c0,0,0,0-0.1,0
		c0,0,0,0-0.1,0c0,0,0,0-0.1,0c-0.2,0-0.3-0.1-0.4-0.2l-1.3,1c0.6,0.1,1,0.1,1,0.1C467.5,377.3,467.5,377.3,467.7,377.4z"/>
	<path class="st0" d="M469.6,374.5C469.7,374.5,469.7,374.5,469.6,374.5C469.7,374.5,469.7,374.5,469.6,374.5l0.2,0l0.1,0l0.1,0
		l0.1,0l0.1,0l0.1,0l0.1,0c0.1,0,0.1,0,0.1,0c0.1,0,0.1,0,0.1,0c0.1,0,0.1,0,0.1,0c0.1,0,0.1,0,0.1,0c0.1,0,0.1,0,0.1,0
		c0.1,0,0.1,0,0.1,0l0,0l10.6-8.9l1.3,8.9c0.1,0,0.2,0,0.3,0c0.1,0,0.2,0,0.3,0.1l-1.6-10.4L469.6,374.5z"/>
	<path class="st0" d="M471.3,374.5C471.4,374.5,471.4,374.5,471.3,374.5c0.2,0,0.2,0,0.2,0c0.1,0,0.1,0,0.1,0c0.1,0,0.1,0,0.1,0
		c0.1,0,0.1,0,0.1,0c0.1,0,0.3,0,0.4,0l8.9-7.4l1.1,7.4c0.1,0,0.2,0,0.3,0c0.1,0,0.2,0,0.3,0.1l0,0l-1.2-9l-10.6,8.9
		c0.1,0,0.1,0,0.1,0C471.3,374.5,471.2,374.5,471.3,374.5z"/>
	<path class="st0" d="M467.8,377.6l0.7,0c0.1,0,0.1,0,0.1,0l1.1-0.9c-0.1,0-0.1,0-0.1,0c-0.1,0-0.2-0.1-0.4-0.1c-0.1,0-0.1,0-0.1,0
		l-0.1,0l-0.1,0l-0.1,0l-0.1,0l-0.1,0l-0.1,0l-0.1,0c0,0,0,0-0.1,0l-1,0.9C467.7,377.5,467.7,377.5,467.8,377.6L467.8,377.6z"/>
	<path class="st0" d="M469.7,377.9l1.2-1l0,0c-0.1,0-0.3-0.1-0.4-0.1c-0.1,0-0.3,0-0.4,0c-0.1,0-0.2,0-0.3,0l-1.1,0.9
		C469,377.8,469.3,377.9,469.7,377.9z"/>
	<path class="st0" d="M481,368.5l0.9,5.9c0.1,0,0.1,0,0.1,0.1c0.1,0,0.1,0,0.2,0.1c0.1,0,0.2,0,0.3,0l0,0l-1.1-7.4l-8.9,7.4
		c0.5,0,0.9,0,1.4,0L481,368.5z"/>
	<path class="st0" d="M469.7,377.9C469.7,377.9,469.8,378,469.7,377.9C469.8,377.9,469.8,377.9,469.7,377.9l0.2,0l0.1,0l0.1,0l0.1,0
		l0.1,0l0.1,0l0.1,0l0.1,0l0.1,0l0.1,0l0.1,0l0.1,0l0,0l1.3-1l-0.3,0c-0.2,0-0.3-0.1-0.5,0c-0.1,0-0.3,0-0.4-0.1L469.7,377.9
		C469.7,377.9,469.7,377.9,469.7,377.9L469.7,377.9z"/>
	<path class="st0" d="M480.6,369.9l0.7,5l0-0.1c0-0.1,0.1-0.2,0.1-0.3c0-0.2,0.1-0.3,0.1-0.3c0.1,0,0.1,0.1,0.1,0.1
		c0.1,0,0.1,0,0.1,0l-0.9-5.9l-7.2,6c0.5,0,0.9,0,1.3,0L480.6,369.9z"/>
	<path class="st0" d="M475.1,374.5c0.5,0,0.9,0,1.2,0l4-3.3l0.7,4.6l0-0.1c0-0.1,0.1-0.2,0.1-0.4c0-0.1,0.1-0.1,0.1-0.3
		c0-0.1,0.1-0.1,0.1-0.3l-0.7-5L475.1,374.5z"/>
	<path class="st0" d="M470.9,378.2L470.9,378.2l0.2,0c0.1,0,0.1,0,0.1,0c0.1,0,0.1,0,0.1,0c0.1,0,0.1,0,0.1,0c0.1,0,0.1,0,0.1,0
		c0.1,0,0.1,0,0.1,0c0.1,0,0.1,0,0.1,0l0.1,0l1.3-1l0,0c-0.1,0-0.1,0-0.1,0c-0.1,0-0.1,0-0.1,0c-0.1,0-0.1,0-0.1,0
		c-0.1,0-0.1,0-0.1,0c-0.1,0-0.1,0-0.1,0c-0.1,0-0.1,0-0.1,0c-0.1,0-0.1,0-0.1,0l-0.1,0l-0.1,0l-0.1,0l0-0.1l-0.1,0l-1.3,1
		L470.9,378.2L470.9,378.2z"/>
	<path class="st0" d="M476.7,374.6c0,0.1,0,0.1,0,0.2c0,0.1,0,0.1,0,0.1c0,0.1,0,0.1,0,0.1c0,0.1,0,0.1,0,0.1c0,0.1,0,0.1,0,0.1
		c0,0.1,0,0.1,0,0.1l0,0l3.4-2.9l0.7,4c0-0.1,0-0.1,0-0.1c0.1-0.1,0.2-0.3,0.2-0.4c0-0.1,0.1-0.1,0.2-0.3l-0.7-4.6l-4,3.3
		c0.3,0,0.4,0,0.4,0S476.8,374.5,476.7,374.6z"/>
	<path class="st0" d="M472,378.3C472,378.3,472,378.3,472,378.3c0.2,0,0.2,0,0.2,0c0.1,0,0.1,0,0.1,0c0.1,0,0.1,0,0.1,0
		c0.1,0,0.1,0,0.1,0c0.1,0,0.1,0,0.2,0c0,0,0,0,0.1,0l1.3-1c-0.1,0-0.1,0-0.1,0c-0.1,0-0.1,0-0.1,0c-0.1,0-0.1,0-0.1,0
		c-0.1,0-0.1,0-0.1,0c-0.1,0-0.1,0-0.1,0c-0.1,0-0.1,0-0.1,0c-0.1,0-0.1,0-0.1,0c-0.1,0-0.1,0-0.1,0L472,378.3
		C471.9,378.3,471.9,378.3,472,378.3C471.9,378.3,471.9,378.3,472,378.3z"/>
	<path class="st0" d="M476.5,375.5C476.5,375.6,476.5,375.6,476.5,375.5c0,0.2,0,0.2,0,0.2c0,0.1,0,0.1,0,0.1c0,0.1,0,0.1,0,0.2
		c0,0.1,0,0.1,0,0.2c0,0.1,0,0.1,0,0.2c0,0.1,0,0.1,0,0.2c0,0,0,0,0,0.1l3.3-2.8l0.5,3.3c0-0.1,0.2-0.2,0.2-0.2
		c0.1-0.1,0.1-0.2,0.2-0.4l-0.7-4L476.5,375.5C476.5,375.5,476.5,375.5,476.5,375.5C476.5,375.4,476.5,375.5,476.5,375.5z"/>
	<path class="st0" d="M473.1,378.4c0.1,0,0.1,0,0.2,0c0.1,0,0.1,0,0.2,0c0.1,0,0.1,0,0.2,0c0.1,0,0.1,0,0.2,0c0.1,0,0.1,0,0.2,0
		c0,0,0,0,0.1,0l1.2-1c0,0,0,0-0.1,0s-0.1,0-0.2,0s-0.1,0-0.2,0c-0.1,0-0.1,0-0.2,0s-0.1,0-0.2,0c-0.1,0-0.1,0-0.2,0
		c-0.1,0-0.1,0-0.1,0l0,0L473.1,378.4C472.9,378.4,473.1,378.4,473.1,378.4z"/>
	<path class="st0" d="M474.4,378.4c0.1,0,0.1,0,0.2,0c0.1,0,0.1,0,0.3,0c0.1,0,0.2,0,0.3,0l0,0l4.1-3.4l0.4,2.7
		c0-0.1,0.2-0.2,0.2-0.2c0-0.1,0.1-0.1,0.2-0.2l-0.5-3.3l-3.3,2.8c0,0.1,0,0.1,0,0.1c0,0.1,0,0.1,0,0.2c0,0.1,0,0.1,0,0.2
		c0,0.1,0,0.1,0,0.2c0,0.1,0,0.1,0.1,0.2c0,0.1,0,0.1,0.1,0.2l-0.1,0.1c-0.1,0-0.1,0-0.2,0c-0.1,0-0.1,0-0.2,0c-0.1,0-0.1,0-0.2,0
		c-0.1,0-0.1,0-0.2,0c-0.1,0-0.1,0-0.1,0l-1.2,1c0.1,0,0.1,0,0.2,0C474.3,378.4,474.4,378.4,474.4,378.4z"/>
	<path class="st0" d="M475.2,378.4c0.1,0,0.2,0,0.3,0c0.1,0,0.2,0,0.3,0c0.1,0,0.2,0,0.3,0c0.1,0,0.2,0,0.3,0l0,0l2.6-2.2l0.3,1.9
		c0.1-0.1,0.3-0.3,0.4-0.4l-0.4-2.7L475.2,378.4z"/>
	<path class="st0" d="M477.1,378.3C477.1,378.3,477.1,378.3,477.1,378.3c0.2,0,0.2,0.1,0.2,0.1c0.1,0,0.1,0.1,0.1,0l1.3-1.1l0.1,1
		c0.2-0.1,0.3-0.1,0.4-0.2l-0.3-1.9l-2.6,2.2c0.1,0,0.2-0.1,0.3-0.1C476.8,378.3,477,378.2,477.1,378.3z"/>
	<path class="st0" d="M477.4,378.4L477.4,378.4c0.1,0,0.2,0,0.3,0.1c0.1,0,0.2,0,0.3,0.1c0.1,0.1,0.2,0,0.3,0l0-0.1l0,0l0.1,0
		c0.1,0,0.2-0.1,0.4-0.2l-0.1-1L477.4,378.4z"/>
	<path class="st0" d="M478.4,378.4L478.4,378.4L478.4,378.4L478.4,378.4z"/>
</g>
</svg>
