<?xml version="1.0" encoding="utf-8"?>
<!-- Generator: Adobe Illustrator 22.0.1, SVG Export Plug-In . SVG Version: 6.00 Build 0)  -->
<svg version="1.1" id="レイヤー_1" xmlns="http://www.w3.org/2000/svg" xmlns:xlink="http://www.w3.org/1999/xlink" x="0px"
	 y="0px" width="640px" height="640px" viewBox="0 0 640 640" style="enable-background:new 0 0 640 640;" xml:space="preserve">
<style type="text/css">
	.st0{fill:none;stroke:#5B0073;stroke-miterlimit:10;}
</style>
<g>
	<g>
		<path class="st0" d="M319.5,636c-84.3,0-163.6-32.8-223.1-92.4C36.8,484.1,4,404.8,4,320.5S36.8,156.9,96.4,97.4
			C155.9,37.8,235.2,5,319.5,5s163.6,32.8,223.1,92.4c59.6,59.6,92.4,138.8,92.4,223.1s-32.8,163.6-92.4,223.1S403.8,636,319.5,636z
			 M319.5,6C235.4,6,156.4,38.7,97.1,98.1S5,236.4,5,320.5c0,84.1,32.7,163.1,92.1,222.4S235.4,635,319.5,635
			c84.1,0,163.1-32.7,222.4-92.1S634,404.6,634,320.5c0-84.1-32.7-163.1-92.1-222.4S403.6,6,319.5,6z"/>
		<path class="st0" d="M319.5,625.8c-81.6,0-158.3-31.7-216-89.4s-89.4-134.3-89.4-216s31.7-158.3,89.4-216s134.3-89.4,216-89.4
			s158.3,31.7,216,89.4s89.4,134.3,89.4,216s-31.7,158.3-89.4,216S401.1,625.8,319.5,625.8z M319.5,16.2
			c-81.4,0-157.8,31.6-215.3,89.1c-57.4,57.4-89.1,133.9-89.1,215.3s31.6,157.8,89.1,215.3c57.4,57.4,133.9,89.1,215.3,89.1
			c81.4,0,157.8-31.6,215.3-89.1c57.4-57.4,89.1-133.9,89.1-215.3s-31.6-157.8-89.1-215.3S400.9,16.2,319.5,16.2z"/>
		<path class="st0" d="M319.5,615.7c-78.9,0-153.1-30.7-208.8-86.4S24.3,399.4,24.3,320.5S55,167.4,110.7,111.7
			C166.4,56,240.6,25.3,319.5,25.3c78.9,0,153.1,30.7,208.8,86.4s86.4,129.9,86.4,208.8S584,473.6,528.3,529.3
			S398.4,615.7,319.5,615.7z M319.5,26.3c-78.6,0-152.5,30.6-208.1,86.1S25.3,241.9,25.3,320.5S55.9,473,111.4,528.6
			c55.5,55.5,129.4,86.1,208.1,86.1s152.5-30.6,208.1-86.1s86.1-129.4,86.1-208.1S583.1,168,527.6,112.4
			C472,56.9,398.1,26.3,319.5,26.3z"/>
		<path class="st0" d="M319.5,605.5c-76.2,0-147.8-29.6-201.6-83.4c-53.8-53.8-83.4-125.4-83.4-201.6s29.6-147.8,83.4-201.6
			c53.8-53.8,125.4-83.4,201.6-83.4s147.8,29.6,201.6,83.4c53.8,53.8,83.4,125.4,83.4,201.6s-29.6,147.8-83.4,201.6
			S395.7,605.5,319.5,605.5z M319.5,36.5c-75.9,0-147.3,29.5-200.9,83.1c-53.6,53.6-83.1,125-83.1,200.9S65,467.8,118.6,521.4
			c53.6,53.6,125,83.1,200.9,83.1s147.3-29.5,200.9-83.1c53.6-53.6,83.1-125,83.1-200.9S574,173.2,520.4,119.6
			C466.8,66,395.4,36.5,319.5,36.5z"/>
		<path class="st0" d="M319.5,595.4c-73.5,0-142.5-28.6-194.4-80.5C73.2,463,44.6,394,44.6,320.5S73.2,178,125.1,126.1
			C177,74.2,246,45.6,319.5,45.6S462,74.2,513.9,126.1c51.9,51.9,80.5,120.9,80.5,194.4c0,73.5-28.6,142.5-80.5,194.4
			C462,566.8,393,595.4,319.5,595.4z M319.5,46.6c-73.2,0-142,28.5-193.7,80.2c-51.7,51.7-80.2,120.5-80.2,193.7
			s28.5,142,80.2,193.7c51.7,51.7,120.5,80.2,193.7,80.2s142-28.5,193.7-80.2s80.2-120.5,80.2-193.7s-28.5-142-80.2-193.7
			C461.5,75.1,392.7,46.6,319.5,46.6z"/>
		<path class="st0" d="M319.5,585.2c-70.8,0-137.2-27.5-187.2-77.5S54.8,391.3,54.8,320.5s27.5-137.2,77.5-187.2
			s116.5-77.5,187.2-77.5s137.2,27.5,187.2,77.5c50,50,77.5,116.5,77.5,187.2s-27.5,137.2-77.5,187.2
			C456.7,557.7,390.3,585.2,319.5,585.2z M319.5,56.8C249,56.8,182.8,84.2,133,134S55.8,250,55.8,320.5S83.2,457.2,133,507
			s116,77.2,186.5,77.2S456.2,556.8,506,507s77.2-116,77.2-186.5S555.8,183.8,506,134S390,56.8,319.5,56.8z"/>
		<path class="st0" d="M319.5,575c-68,0-132-26.5-180-74.5c-48-48-74.5-112-74.5-180s26.5-132,74.5-180s112-74.5,180-74.5
			s132,26.5,180,74.5c48,48,74.5,112,74.5,180s-26.5,132-74.5,180S387.5,575,319.5,575z M319.5,67c-67.8,0-131.5,26.4-179.3,74.2
			S66,252.7,66,320.5S92.3,452,140.2,499.8S251.7,574,319.5,574s131.5-26.4,179.3-74.2S573,388.3,573,320.5S546.7,189,498.8,141.2
			C451,93.3,387.3,67,319.5,67z"/>
		<path class="st0" d="M319.5,564.9c-65.3,0-126.7-25.4-172.8-71.5c-46.1-46.1-71.5-107.5-71.5-172.8s25.4-126.7,71.5-172.8
			c46.1-46.1,107.5-71.5,172.8-71.5c65.3,0,126.7,25.4,172.8,71.5c46.1,46.1,71.5,107.5,71.5,172.8c0,65.3-25.4,126.7-71.5,172.8
			C446.2,539.5,384.8,564.9,319.5,564.9z M319.5,77.1c-65.1,0-126.2,25.3-172.1,71.2c-45.9,45.9-71.2,107.1-71.2,172.1
			s25.3,126.2,71.2,172.1c45.9,45.9,107.1,71.2,172.1,71.2s126.2-25.3,172.1-71.2c45.9-45.9,71.2-107.1,71.2-172.1
			s-25.3-126.2-71.2-172.1C445.7,102.4,384.6,77.1,319.5,77.1z"/>
		<path class="st0" d="M319.5,554.7c-62.6,0-121.4-24.3-165.6-68.6c-44.2-44.2-68.6-103-68.6-165.7s24.3-121.4,68.6-165.6
			s103-68.6,165.6-68.6s121.4,24.3,165.7,68.6c44.2,44.2,68.6,103,68.6,165.6s-24.3,121.4-68.6,165.7
			C440.9,530.4,382.1,554.7,319.5,554.7z M319.5,87.3c-62.3,0-120.9,24.2-164.9,68.3S86.3,258.2,86.3,320.5
			c0,62.3,24.2,120.9,68.3,164.9c44,44,102.6,68.3,164.9,68.3c62.3,0,120.9-24.2,164.9-68.3c44-44,68.3-102.6,68.3-164.9
			s-24.2-120.9-68.3-164.9C440.4,111.5,381.8,87.3,319.5,87.3z"/>
		<path class="st0" d="M319.5,544.5c-59.9,0-116.2-23.3-158.5-65.6s-65.6-98.6-65.6-158.5S118.7,204.3,161,162s98.6-65.6,158.5-65.6
			S435.7,119.7,478,162s65.6,98.6,65.6,158.5S520.3,436.7,478,479S379.4,544.5,319.5,544.5z M319.5,97.5
			c-59.6,0-115.7,23.2-157.8,65.3s-65.3,98.1-65.3,157.8s23.2,115.7,65.3,157.8s98.1,65.3,157.8,65.3s115.7-23.2,157.8-65.3
			s65.3-98.1,65.3-157.8s-23.2-115.7-65.3-157.8S379.1,97.5,319.5,97.5z"/>
		<path class="st0" d="M319.5,534.4c-57.2,0-110.9-22.2-151.3-62.6c-40.4-40.4-62.6-94.1-62.6-151.3s22.2-110.9,62.6-151.3
			s94.1-62.6,151.3-62.6s110.9,22.2,151.3,62.6c40.4,40.4,62.6,94.1,62.6,151.3s-22.2,110.9-62.6,151.3
			C430.4,512.2,376.7,534.4,319.5,534.4z M319.5,107.6c-56.9,0-110.4,22.1-150.6,62.3s-62.3,93.7-62.3,150.6
			c0,56.9,22.1,110.4,62.3,150.6c40.2,40.2,93.7,62.3,150.6,62.3c56.9,0,110.4-22.1,150.6-62.3c40.2-40.2,62.3-93.7,62.3-150.6
			c0-56.9-22.1-110.4-62.3-150.6C429.9,129.7,376.4,107.6,319.5,107.6z"/>
		<path class="st0" d="M319.5,524.2c-54.5,0-105.6-21.2-144.1-59.6c-38.5-38.5-59.6-89.6-59.6-144.1s21.2-105.6,59.6-144.1
			s89.6-59.6,144.1-59.6s105.6,21.2,144.1,59.6c38.5,38.5,59.6,89.6,59.6,144.1S502,426.1,463.6,464.6
			C425.1,503,374,524.2,319.5,524.2z M319.5,117.8c-54.2,0-105.1,21.1-143.4,59.3s-59.3,89.2-59.3,143.4s21.1,105.1,59.3,143.4
			s89.2,59.3,143.4,59.3s105.1-21.1,143.4-59.3s59.3-89.2,59.3-143.4s-21.1-105.1-59.3-143.4S373.7,117.8,319.5,117.8z"/>
		<path class="st0" d="M319.5,514.1c-51.7,0-100.4-20.1-136.9-56.7s-56.7-85.2-56.7-136.9s20.1-100.4,56.7-136.9
			s85.2-56.7,136.9-56.7s100.4,20.1,136.9,56.7s56.7,85.2,56.7,136.9s-20.1,100.4-56.7,136.9S371.2,514.1,319.5,514.1z M319.5,127.9
			c-51.5,0-99.8,20-136.2,56.4s-56.4,84.7-56.4,136.2s20,99.8,56.4,136.2s84.7,56.4,136.2,56.4c51.5,0,99.8-20,136.2-56.4
			s56.4-84.7,56.4-136.2s-20-99.8-56.4-136.2S371,127.9,319.5,127.9z"/>
		<path class="st0" d="M319.5,503.9c-49,0-95.1-19.1-129.7-53.7c-34.6-34.6-53.7-80.7-53.7-129.7s19.1-95.1,53.7-129.7
			c34.6-34.6,80.7-53.7,129.7-53.7s95.1,19.1,129.7,53.7c34.6,34.6,53.7,80.7,53.7,129.7s-19.1,95.1-53.7,129.7
			S368.5,503.9,319.5,503.9z M319.5,138.1c-48.8,0-94.6,19-129,53.4s-53.4,80.2-53.4,129c0,48.8,19,94.6,53.4,129
			s80.2,53.4,129,53.4c48.8,0,94.6-19,129-53.4s53.4-80.2,53.4-129c0-48.8-19-94.6-53.4-129S368.3,138.1,319.5,138.1z"/>
		<path class="st0" d="M319.5,493.7c-46.3,0-89.8-18-122.5-50.7c-32.7-32.7-50.7-76.2-50.7-122.5s18-89.8,50.7-122.5
			c32.7-32.7,76.2-50.7,122.5-50.7s89.8,18,122.5,50.7c32.7,32.7,50.7,76.2,50.7,122.5s-18,89.8-50.7,122.5
			C409.3,475.7,365.8,493.7,319.5,493.7z M319.5,148.3c-46,0-89.3,17.9-121.8,50.4c-32.5,32.5-50.4,75.8-50.4,121.8
			s17.9,89.3,50.4,121.8c32.5,32.5,75.8,50.4,121.8,50.4s89.3-17.9,121.8-50.4c32.5-32.5,50.4-75.8,50.4-121.8
			s-17.9-89.3-50.4-121.8C408.8,166.2,365.5,148.3,319.5,148.3z"/>
		<path class="st0" d="M319.5,483.6c-43.6,0-84.6-17-115.3-47.7s-47.7-71.7-47.7-115.3s17-84.6,47.7-115.3s71.7-47.7,115.3-47.7
			s84.6,17,115.3,47.7s47.7,71.7,47.7,115.3s-17,84.6-47.7,115.3S363.1,483.6,319.5,483.6z M319.5,158.4c-43.3,0-84,16.9-114.6,47.4
			s-47.4,71.3-47.4,114.6s16.9,84,47.4,114.6c30.6,30.6,71.3,47.4,114.6,47.4s84-16.9,114.6-47.4c30.6-30.6,47.4-71.3,47.4-114.6
			s-16.9-84-47.4-114.6S362.8,158.4,319.5,158.4z"/>
		<path class="st0" d="M319.5,473.4c-40.9,0-79.3-15.9-108.2-44.8c-28.9-28.9-44.8-67.3-44.8-108.2s15.9-79.3,44.8-108.2
			s67.3-44.8,108.2-44.8s79.3,15.9,108.2,44.8c28.9,28.9,44.8,67.3,44.8,108.2s-15.9,79.3-44.8,108.2
			C398.8,457.5,360.4,473.4,319.5,473.4z M319.5,168.6c-40.6,0-78.8,15.8-107.4,44.5s-44.5,66.8-44.5,107.4s15.8,78.8,44.5,107.4
			c28.7,28.7,66.8,44.5,107.4,44.5s78.8-15.8,107.4-44.5c28.7-28.7,44.5-66.8,44.5-107.4s-15.8-78.8-44.5-107.4
			C398.3,184.4,360.1,168.6,319.5,168.6z"/>
		<path class="st0" d="M319.5,463.3c-38.2,0-74-14.8-101-41.8c-26.9-26.9-41.8-62.8-41.8-101s14.8-74,41.8-101s62.8-41.8,101-41.8
			s74,14.8,101,41.8s41.8,62.8,41.8,101s-14.8,74-41.8,101S357.7,463.3,319.5,463.3z M319.5,178.7c-37.9,0-73.5,14.7-100.3,41.5
			s-41.5,62.4-41.5,100.3s14.7,73.5,41.5,100.3s62.4,41.5,100.3,41.5s73.5-14.7,100.3-41.5s41.5-62.4,41.5-100.3
			s-14.7-73.5-41.5-100.3S357.4,178.7,319.5,178.7z"/>
		<path class="st0" d="M319.5,453.1c-73.1,0-132.6-59.5-132.6-132.6s59.5-132.6,132.6-132.6s132.6,59.5,132.6,132.6
			S392.6,453.1,319.5,453.1z M319.5,188.9c-72.6,0-131.6,59-131.6,131.6s59,131.6,131.6,131.6s131.6-59,131.6-131.6
			S392.1,188.9,319.5,188.9z"/>
		<path class="st0" d="M319.5,442.9c-67.5,0-122.4-54.9-122.4-122.4S252,198.1,319.5,198.1c67.5,0,122.4,54.9,122.4,122.4
			C441.9,388,387,442.9,319.5,442.9z M319.5,199.1c-67,0-121.4,54.5-121.4,121.4s54.5,121.4,121.4,121.4s121.4-54.5,121.4-121.4
			S386.5,199.1,319.5,199.1z"/>
		<path class="st0" d="M319.5,432.8c-61.9,0-112.3-50.4-112.3-112.3s50.4-112.3,112.3-112.3s112.3,50.4,112.3,112.3
			S381.4,432.8,319.5,432.8z M319.5,209.2c-61.4,0-111.3,49.9-111.3,111.3c0,61.4,49.9,111.3,111.3,111.3
			c61.4,0,111.3-49.9,111.3-111.3C430.8,259.1,380.9,209.2,319.5,209.2z"/>
		<path class="st0" d="M319.5,422.6c-56.3,0-102.1-45.8-102.1-102.1s45.8-102.1,102.1-102.1c56.3,0,102.1,45.8,102.1,102.1
			C421.6,376.8,375.8,422.6,319.5,422.6z M319.5,219.4c-55.8,0-101.1,45.4-101.1,101.1s45.4,101.1,101.1,101.1
			s101.1-45.4,101.1-101.1S375.3,219.4,319.5,219.4z"/>
		<path class="st0" d="M319.5,412.5c-50.7,0-92-41.2-92-92s41.2-92,92-92s92,41.2,92,92S370.2,412.5,319.5,412.5z M319.5,229.5
			c-50.2,0-91,40.8-91,91c0,50.1,40.8,91,91,91c50.1,0,91-40.8,91-91C410.5,270.3,369.6,229.5,319.5,229.5z"/>
		<path class="st0" d="M319.5,402.3c-45.1,0-81.8-36.7-81.8-81.8s36.7-81.8,81.8-81.8s81.8,36.7,81.8,81.8S364.6,402.3,319.5,402.3z
			 M319.5,239.7c-44.5,0-80.8,36.2-80.8,80.8s36.2,80.8,80.8,80.8s80.8-36.2,80.8-80.8S364,239.7,319.5,239.7z"/>
		<path class="st0" d="M319.5,392.1c-39.5,0-71.6-32.1-71.6-71.6s32.1-71.6,71.6-71.6s71.6,32.1,71.6,71.6S359,392.1,319.5,392.1z
			 M319.5,249.9c-38.9,0-70.6,31.7-70.6,70.6s31.7,70.6,70.6,70.6s70.6-31.7,70.6-70.6S358.4,249.9,319.5,249.9z"/>
		<path class="st0" d="M319.5,382c-33.9,0-61.5-27.6-61.5-61.5s27.6-61.5,61.5-61.5s61.5,27.6,61.5,61.5S353.4,382,319.5,382z
			 M319.5,260c-33.3,0-60.5,27.1-60.5,60.5c0,33.3,27.1,60.5,60.5,60.5c33.3,0,60.5-27.1,60.5-60.5S352.8,260,319.5,260z"/>
		<path class="st0" d="M319.5,371.8c-28.3,0-51.3-23-51.3-51.3s23-51.3,51.3-51.3s51.3,23,51.3,51.3
			C370.8,348.8,347.8,371.8,319.5,371.8z M319.5,270.2c-27.7,0-50.3,22.6-50.3,50.3s22.6,50.3,50.3,50.3s50.3-22.6,50.3-50.3
			S347.2,270.2,319.5,270.2z"/>
		<path class="st0" d="M319.5,361.6c-22.7,0-41.1-18.5-41.1-41.1s18.5-41.1,41.1-41.1s41.1,18.5,41.1,41.1S342.2,361.6,319.5,361.6z
			 M319.5,280.4c-22.1,0-40.1,18-40.1,40.1c0,22.1,18,40.1,40.1,40.1c22.1,0,40.1-18,40.1-40.1C359.6,298.4,341.6,280.4,319.5,280.4
			z"/>
		<path class="st0" d="M319.5,351.5c-17.1,0-31-13.9-31-31c0-17.1,13.9-31,31-31c17.1,0,31,13.9,31,31
			C350.5,337.6,336.6,351.5,319.5,351.5z M319.5,290.5c-16.5,0-30,13.5-30,30s13.5,30,30,30s30-13.5,30-30S336,290.5,319.5,290.5z"
			/>
		<path class="st0" d="M319.5,341.3c-11.5,0-20.8-9.3-20.8-20.8c0-11.5,9.3-20.8,20.8-20.8c11.5,0,20.8,9.3,20.8,20.8
			C340.3,332,331,341.3,319.5,341.3z M319.5,300.7c-10.9,0-19.8,8.9-19.8,19.8s8.9,19.8,19.8,19.8s19.8-8.9,19.8-19.8
			C339.3,309.6,330.4,300.7,319.5,300.7z"/>
		<path class="st0" d="M319.5,331.2c-5.9,0-10.7-4.8-10.7-10.7c0-5.9,4.8-10.7,10.7-10.7c5.9,0,10.7,4.8,10.7,10.7
			C330.2,326.4,325.4,331.2,319.5,331.2z M319.5,310.8c-5.3,0-9.7,4.3-9.7,9.7s4.3,9.7,9.7,9.7s9.7-4.3,9.7-9.7
			S324.8,310.8,319.5,310.8z"/>
	</g>
</g>
</svg>
