<?xml version="1.0" encoding="utf-8"?>
<!-- Generator: Adobe Illustrator 22.0.1, SVG Export Plug-In . SVG Version: 6.00 Build 0)  -->
<svg version="1.1" id="レイヤー_1" xmlns="http://www.w3.org/2000/svg" xmlns:xlink="http://www.w3.org/1999/xlink" x="0px"
	 y="0px" width="640px" height="640px" viewBox="0 0 640 640" style="enable-background:new 0 0 640 640;" xml:space="preserve">
<style type="text/css">
	.st0{fill:none;stroke:#3D00C2;stroke-miterlimit:10;}
	.st1{fill:none;stroke:#000000;stroke-miterlimit:10;}
	.st2{fill:none;stroke:#5900E7;stroke-miterlimit:10;}
</style>
<path class="st0" d="M100.5,288.5"/>
<path class="st0" d="M147.5,159.5"/>
<path class="st0" d="M72.5,79.5"/>
<line class="st1" x1="1181.3" y1="227.2" x2="1181.3" y2="329.2"/>
<line class="st1" x1="1619.7" y1="219.5" x2="1619.7" y2="321.5"/>
<line class="st1" x1="2058.1" y1="211.9" x2="2058.1" y2="313.9"/>
<line class="st1" x1="2496.4" y1="204.2" x2="2496.4" y2="306.2"/>
<line class="st1" x1="2934.8" y1="196.6" x2="2934.8" y2="298.6"/>
<line class="st1" x1="3373.2" y1="188.9" x2="3373.2" y2="290.9"/>
<line class="st1" x1="3811.6" y1="181.3" x2="3811.6" y2="283.3"/>
<line class="st1" x1="4250" y1="173.6" x2="4250" y2="275.6"/>
<line class="st1" x1="4688.4" y1="166" x2="4688.4" y2="268"/>
<line class="st1" x1="5126.8" y1="158.3" x2="5126.8" y2="260.3"/>
<line class="st1" x1="5565.2" y1="150.7" x2="5565.2" y2="252.7"/>
<line class="st1" x1="6003.6" y1="143" x2="6003.6" y2="245"/>
<line class="st1" x1="6487.4" y1="163.2" x2="6396.5" y2="209.5"/>
<line class="st1" x1="1181.3" y1="227.2" x2="1181.3" y2="329.2"/>
<line class="st1" x1="1619.7" y1="219.5" x2="1619.7" y2="321.5"/>
<line class="st1" x1="2058.1" y1="211.9" x2="2058.1" y2="313.9"/>
<line class="st1" x1="2496.4" y1="204.2" x2="2496.4" y2="306.2"/>
<line class="st1" x1="2934.8" y1="196.6" x2="2934.8" y2="298.6"/>
<line class="st1" x1="3373.2" y1="188.9" x2="3373.2" y2="290.9"/>
<line class="st1" x1="3811.6" y1="181.3" x2="3811.6" y2="283.3"/>
<line class="st1" x1="4250" y1="173.6" x2="4250" y2="275.6"/>
<line class="st1" x1="4688.4" y1="166" x2="4688.4" y2="268"/>
<polygon class="st2" points="319.8,320.2 329.5,-149 319.8,320.2 348.9,-148.2 319.8,320.2 368.2,-146.6 319.8,320.2 387.5,-144.2 
	319.8,320.2 406.6,-141 319.8,320.2 425.6,-137 319.8,320.2 444.4,-132.3 319.8,320.2 463,-126.7 319.8,320.2 481.3,-120.4 
	319.8,320.2 499.4,-113.4 319.8,320.2 517.2,-105.6 319.8,320.2 534.6,-97.1 319.8,320.2 551.7,-87.8 319.8,320.2 568.3,-77.9 
	319.8,320.2 584.6,-67.3 319.8,320.2 600.3,-56 319.8,320.2 615.6,-44.1 319.8,320.2 630.5,-31.6 319.8,320.2 644.7,-18.4 
	319.8,320.2 658.4,-4.7 319.8,320.2 671.6,9.5 319.8,320.2 684.1,24.4 319.8,320.2 696,39.7 319.8,320.2 707.3,55.4 319.8,320.2 
	717.9,71.7 319.8,320.2 727.8,88.3 319.8,320.2 737.1,105.4 319.8,320.2 745.6,122.8 319.8,320.2 753.4,140.6 319.8,320.2 
	760.4,158.7 319.8,320.2 766.7,177 319.8,320.2 772.3,195.6 319.8,320.2 777,214.4 319.8,320.2 781,233.4 319.8,320.2 784.2,252.5 
	319.8,320.2 786.6,271.8 319.8,320.2 788.2,291.1 319.8,320.2 789,310.5 319.8,320.2 789,329.9 319.8,320.2 788.2,349.3 
	319.8,320.2 786.6,368.6 319.8,320.2 784.2,387.8 319.8,320.2 781,407 319.8,320.2 777,426 319.8,320.2 772.3,444.8 319.8,320.2 
	766.7,463.4 319.8,320.2 760.4,481.7 319.8,320.2 753.4,499.8 319.8,320.2 745.6,517.5 319.8,320.2 737.1,535 319.8,320.2 
	727.8,552 319.8,320.2 717.9,568.7 319.8,320.2 707.3,584.9 319.8,320.2 696,600.7 319.8,320.2 684.1,616 319.8,320.2 671.6,630.8 
	319.8,320.2 658.4,645.1 319.8,320.2 644.7,658.8 319.8,320.2 630.5,671.9 319.8,320.2 615.6,684.5 319.8,320.2 600.3,696.4 
	319.8,320.2 584.6,707.7 319.8,320.2 568.3,718.3 319.8,320.2 551.7,728.2 319.8,320.2 534.6,737.4 319.8,320.2 517.2,746 
	319.8,320.2 499.4,753.7 319.8,320.2 481.3,760.8 319.8,320.2 463,767.1 319.8,320.2 444.4,772.6 319.8,320.2 425.6,777.4 
	319.8,320.2 406.6,781.4 319.8,320.2 387.5,784.6 319.8,320.2 368.2,787 319.8,320.2 348.9,788.6 319.8,320.2 329.5,789.4 
	319.8,320.2 310.1,789.4 319.8,320.2 290.7,788.6 319.8,320.2 271.4,787 319.8,320.2 252.2,784.6 319.8,320.2 233,781.4 
	319.8,320.2 214,777.4 319.8,320.2 195.2,772.6 319.8,320.2 176.6,767.1 319.8,320.2 158.3,760.8 319.8,320.2 140.2,753.7 
	319.8,320.2 122.5,746 319.8,320.2 105,737.4 319.8,320.2 88,728.2 319.8,320.2 71.3,718.3 319.8,320.2 55.1,707.7 319.8,320.2 
	39.3,696.4 319.8,320.2 24,684.5 319.8,320.2 9.2,671.9 319.8,320.2 -5.1,658.8 319.8,320.2 -18.8,645.1 319.8,320.2 -31.9,630.8 
	319.8,320.2 -44.5,616 319.8,320.2 -56.4,600.7 319.8,320.2 -67.7,584.9 319.8,320.2 -78.3,568.7 319.8,320.2 -88.2,552 
	319.8,320.2 -97.4,535 319.8,320.2 -105.9,517.5 319.8,320.2 -113.7,499.8 319.8,320.2 -120.8,481.7 319.8,320.2 -127.1,463.4 
	319.8,320.2 -132.6,444.8 319.8,320.2 -137.4,426 319.8,320.2 -141.4,407 319.8,320.2 -144.6,387.8 319.8,320.2 -147,368.6 
	319.8,320.2 -148.6,349.3 319.8,320.2 -149.4,329.9 319.8,320.2 -149.4,310.5 319.8,320.2 -148.6,291.1 319.8,320.2 -147,271.8 
	319.8,320.2 -144.6,252.5 319.8,320.2 -141.4,233.4 319.8,320.2 -137.4,214.4 319.8,320.2 -132.6,195.6 319.8,320.2 -127.1,177 
	319.8,320.2 -120.8,158.7 319.8,320.2 -113.7,140.6 319.8,320.2 -105.9,122.8 319.8,320.2 -97.4,105.4 319.8,320.2 -88.2,88.3 
	319.8,320.2 -78.3,71.7 319.8,320.2 -67.7,55.4 319.8,320.2 -56.4,39.7 319.8,320.2 -44.5,24.4 319.8,320.2 -31.9,9.5 319.8,320.2 
	-18.8,-4.7 319.8,320.2 -5.1,-18.4 319.8,320.2 9.2,-31.6 319.8,320.2 24,-44.1 319.8,320.2 39.3,-56 319.8,320.2 55.1,-67.3 
	319.8,320.2 71.3,-77.9 319.8,320.2 88,-87.8 319.8,320.2 105,-97.1 319.8,320.2 122.5,-105.6 319.8,320.2 140.2,-113.4 
	319.8,320.2 158.3,-120.4 319.8,320.2 176.6,-126.7 319.8,320.2 195.2,-132.3 319.8,320.2 214,-137 319.8,320.2 233,-141 
	319.8,320.2 252.2,-144.2 319.8,320.2 271.4,-146.6 319.8,320.2 290.7,-148.2 319.8,320.2 310.1,-149 "/>
</svg>
