<?xml version="1.0" encoding="utf-8"?>
<!-- Generator: Adobe Illustrator 22.0.1, SVG Export Plug-In . SVG Version: 6.00 Build 0)  -->
<svg version="1.1" id="レイヤー_1" xmlns="http://www.w3.org/2000/svg" xmlns:xlink="http://www.w3.org/1999/xlink" x="0px"
	 y="0px" width="640px" height="640px" viewBox="0 0 640 640" style="enable-background:new 0 0 640 640;" xml:space="preserve">
<style type="text/css">
	.st0{fill:none;stroke:#AE17FF;stroke-miterlimit:10;}
</style>
<path class="st0" d="M-87.8-60c136,78.3,209.3,47.7,234.4,22.1S217.7-111,297.3-77s125.6,81.7,186.3,34s117.2-81.7,194.6-52.8"/>
<path class="st0" d="M-87.8-56.6c136,78.3,209.3,47.7,234.4,22.1s71.2-73.2,150.7-39.1s125.6,81.7,186.3,34s117.2-81.7,194.6-52.8"
	/>
<path class="st0" d="M-87.8-53.2C48.2,25.1,121.5-5.5,146.6-31s71.2-73.2,150.7-39.1s125.6,81.7,186.3,34s117.2-81.7,194.6-52.8"/>
<path class="st0" d="M-87.8-49.7c136,78.3,209.3,47.7,234.4,22.1s71.2-73.2,150.7-39.1s125.6,81.7,186.3,34s117.2-81.7,194.6-52.8"
	/>
<path class="st0" d="M-87.8-46.3C48.2,32,121.5,1.3,146.6-24.2s71.2-73.2,150.7-39.1s125.6,81.7,186.3,34S600.7-111,678.1-82.1"/>
<path class="st0" d="M-87.8-42.9c136,78.3,209.3,47.7,234.4,22.1S217.7-94,297.3-60s125.6,81.7,186.3,34s117.2-81.7,194.6-52.8"/>
<path class="st0" d="M-87.8-39.5c136,78.3,209.3,47.7,234.4,22.1s71.2-73.2,150.7-39.1s125.6,81.7,186.3,34s117.2-81.7,194.6-52.8"
	/>
<path class="st0" d="M-87.8-36.1C48.2,42.2,121.5,11.5,146.6-14s71.2-73.2,150.7-39.1s125.6,81.7,186.3,34s117.2-81.7,194.6-52.8"/>
<path class="st0" d="M-87.8-32.7c136,78.3,209.3,47.7,234.4,22.1s71.2-73.2,150.7-39.1s125.6,81.7,186.3,34s117.2-81.7,194.6-52.8"
	/>
<path class="st0" d="M-87.8-29.3C48.2,49,121.5,18.3,146.6-7.2s71.2-73.2,150.7-39.1s125.6,81.7,186.3,34S600.7-94,678.1-65.1"/>
<path class="st0" d="M-87.8-25.9c136,78.3,209.3,47.7,234.4,22.1S217.7-77,297.3-42.9s125.6,81.7,186.3,34s117.2-81.7,194.6-52.8"/>
<path class="st0" d="M-87.8-22.5c136,78.3,209.3,47.7,234.4,22.1s71.2-73.2,150.7-39.1s125.6,81.7,186.3,34s117.2-81.7,194.6-52.8"
	/>
<path class="st0" d="M-87.8-19.1C48.2,59.2,121.5,28.5,146.6,3s71.2-73.2,150.7-39.1s125.6,81.7,186.3,34s117.2-81.7,194.6-52.8"/>
<path class="st0" d="M-87.8-15.7C48.2,62.6,121.5,32,146.6,6.4s71.2-73.2,150.7-39.1S422.8,49,483.5,1.3s117.2-81.7,194.6-52.8"/>
<path class="st0" d="M-87.8-12.3C48.2,66,121.5,35.4,146.6,9.8s71.2-73.2,150.7-39.1s125.6,81.7,186.3,34S600.7-77,678.1-48"/>
<path class="st0" d="M-87.8-8.9c136,78.3,209.3,47.7,234.4,22.1S217.7-60,297.3-25.9s125.6,81.7,186.3,34s117.2-81.7,194.6-52.8"/>
<path class="st0" d="M-87.8-5.5c136,78.3,209.3,47.7,234.4,22.1s71.2-73.2,150.7-39.1s125.6,81.7,186.3,34s117.2-81.7,194.6-52.8"/>
<path class="st0" d="M-87.8-2.1C48.2,76.2,121.5,45.6,146.6,20s71.2-73.2,150.7-39.1s125.6,81.7,186.3,34s117.2-81.7,194.6-52.8"/>
<path class="st0" d="M-87.8,1.3C48.2,79.6,121.5,49,146.6,23.4s71.2-73.2,150.7-39.1s125.6,81.7,186.3,34s117.2-81.7,194.6-52.8"/>
<path class="st0" d="M-87.8,4.7C48.2,83,121.5,52.4,146.6,26.8s71.2-73.2,150.7-39.1s125.6,81.7,186.3,34S600.7-60,678.1-31"/>
<path class="st0" d="M-87.8,8.1c136,78.3,209.3,47.7,234.4,22.1s71.2-73.2,150.7-39.1s125.6,81.7,186.3,34s117.2-81.7,194.6-52.8"/>
<path class="st0" d="M-87.8,11.5c136,78.3,209.3,47.7,234.4,22.1s71.2-73.2,150.7-39.1s125.6,81.7,186.3,34s117.2-81.7,194.6-52.8"
	/>
<path class="st0" d="M-87.8,14.9c136,78.3,209.3,47.7,234.4,22.1s71.2-73.2,150.7-39.1s125.6,81.7,186.3,34s117.2-81.7,194.6-52.8"
	/>
<path class="st0" d="M-87.8,18.3C48.2,96.6,121.5,66,146.6,40.5s71.2-73.2,150.7-39.1s125.6,81.7,186.3,34s117.2-81.7,194.6-52.8"/>
<path class="st0" d="M-87.8,21.7c136,78.3,209.3,47.7,234.4,22.1s71.2-73.2,150.7-39.1s125.6,81.7,186.3,34S600.7-42.9,678.1-14"/>
<path class="st0" d="M-87.8,25.1c136,78.3,209.3,47.7,234.4,22.1s71.2-73.2,150.7-39.1s125.6,81.7,186.3,34s117.2-81.7,194.6-52.8"
	/>
<path class="st0" d="M-87.8,28.5c136,78.3,209.3,47.7,234.4,22.1s71.2-73.2,150.7-39.1s125.6,81.7,186.3,34S600.7-36.1,678.1-7.2"/>
<path class="st0" d="M-87.8,32c136,78.3,209.3,47.7,234.4,22.1s71.2-73.2,150.7-39.1s125.6,81.7,186.3,34S600.7-32.7,678.1-3.8"/>
<path class="st0" d="M-87.8,35.4c136,78.3,209.3,47.7,234.4,22.1s71.2-73.2,150.7-39.1s125.6,81.7,186.3,34S600.7-29.3,678.1-0.4"/>
<path class="st0" d="M-87.8,38.8c136,78.3,209.3,47.7,234.4,22.1s71.2-73.2,150.7-39.1s125.6,81.7,186.3,34S600.7-25.9,678.1,3"/>
<path class="st0" d="M-87.8,42.2c136,78.3,209.3,47.7,234.4,22.1s71.2-73.2,150.7-39.1s125.6,81.7,186.3,34S600.7-22.5,678.1,6.4"/>
<path class="st0" d="M-87.8,45.6c136,78.3,209.3,47.7,234.4,22.1s71.2-73.2,150.7-39.1s125.6,81.7,186.3,34S600.7-19.1,678.1,9.8"/>
<path class="st0" d="M-87.8,49c136,78.3,209.3,47.7,234.4,22.1S217.7-2.1,297.3,32s125.6,81.7,186.3,34s117.2-81.7,194.6-52.8"/>
<path class="st0" d="M-87.8,52.4c136,78.3,209.3,47.7,234.4,22.1s71.2-73.2,150.7-39.1s125.6,81.7,186.3,34s117.2-81.7,194.6-52.8"
	/>
<path class="st0" d="M-87.8,55.8c136,78.3,209.3,47.7,234.4,22.1s71.2-73.2,150.7-39.1s125.6,81.7,186.3,34S600.7-8.9,678.1,20"/>
<path class="st0" d="M-87.8,59.2c136,78.3,209.3,47.7,234.4,22.1s71.2-73.2,150.7-39.1s125.6,81.7,186.3,34S600.7-5.5,678.1,23.4"/>
<path class="st0" d="M-87.8,62.6c136,78.3,209.3,47.7,234.4,22.1s71.2-73.2,150.7-39.1s125.6,81.7,186.3,34S600.7-2.1,678.1,26.8"/>
<path class="st0" d="M-87.8,66c136,78.3,209.3,47.7,234.4,22.1S217.7,14.9,297.3,49s125.6,81.7,186.3,34S600.7,1.3,678.1,30.2"/>
<path class="st0" d="M-87.8,69.4c136,78.3,209.3,47.7,234.4,22.1s71.2-73.2,150.7-39.1s125.6,81.7,186.3,34S600.7,4.7,678.1,33.7"/>
<path class="st0" d="M-87.8,72.8c136,78.3,209.3,47.7,234.4,22.1s71.2-73.2,150.7-39.1s125.6,81.7,186.3,34S600.7,8.1,678.1,37.1"/>
<path class="st0" d="M-87.8,76.2c136,78.3,209.3,47.7,234.4,22.1s71.2-73.2,150.7-39.1s125.6,81.7,186.3,34s117.2-81.7,194.6-52.8"
	/>
<path class="st0" d="M-87.8,79.6c136,78.3,209.3,47.7,234.4,22.1s71.2-73.2,150.7-39.1s125.6,81.7,186.3,34s117.2-81.7,194.6-52.8"
	/>
<path class="st0" d="M-87.8,83c136,78.3,209.3,47.7,234.4,22.1S217.7,32,297.3,66s125.6,81.7,186.3,34s117.2-81.7,194.6-52.8"/>
<path class="st0" d="M-87.8,86.4c136,78.3,209.3,47.7,234.4,22.1s71.2-73.2,150.7-39.1s125.6,81.7,186.3,34s117.2-81.7,194.6-52.8"
	/>
<path class="st0" d="M-87.8,89.8c136,78.3,209.3,47.7,234.4,22.1s71.2-73.2,150.7-39.1s125.6,81.7,186.3,34s117.2-81.7,194.6-52.8"
	/>
<path class="st0" d="M-87.8,93.2c136,78.3,209.3,47.7,234.4,22.1s71.2-73.2,150.7-39.1s125.6,81.7,186.3,34s117.2-81.7,194.6-52.8"
	/>
<path class="st0" d="M-87.8,96.6c136,78.3,209.3,47.7,234.4,22.1s71.2-73.2,150.7-39.1s125.6,81.7,186.3,34S600.7,32,678.1,60.9"/>
<path class="st0" d="M-87.8,100c136,78.3,209.3,47.7,234.4,22.1S217.7,49,297.3,83s125.6,81.7,186.3,34s117.2-81.7,194.6-52.8"/>
<path class="st0" d="M-87.8,103.4c136,78.3,209.3,47.7,234.4,22.1s71.2-73.2,150.7-39.1s125.6,81.7,186.3,34s117.2-81.7,194.6-52.8"
	/>
<path class="st0" d="M-87.8,106.8c136,78.3,209.3,47.7,234.4,22.1s71.2-73.2,150.7-39.1s125.6,81.7,186.3,34s117.2-81.7,194.6-52.8"
	/>
<path class="st0" d="M-87.8,110.2c136,78.3,209.3,47.7,234.4,22.1s71.2-73.2,150.7-39.1s125.6,81.7,186.3,34s117.2-81.7,194.6-52.8"
	/>
<path class="st0" d="M-87.8,113.7c136,78.3,209.3,47.7,234.4,22.1s71.2-73.2,150.7-39.1s125.6,81.7,186.3,34S600.7,49,678.1,77.9"/>
<path class="st0" d="M-87.8,117.1c136,78.3,209.3,47.7,234.4,22.1S217.7,66,297.3,100s125.6,81.7,186.3,34s117.2-81.7,194.6-52.8"/>
<path class="st0" d="M-87.8,120.5c136,78.3,209.3,47.7,234.4,22.1s71.2-73.2,150.7-39.1s125.6,81.7,186.3,34s117.2-81.7,194.6-52.8"
	/>
<path class="st0" d="M-87.8,123.9c136,78.3,209.3,47.7,234.4,22.1s71.2-73.2,150.7-39.1s125.6,81.7,186.3,34s117.2-81.7,194.6-52.8"
	/>
<path class="st0" d="M-87.8,127.3c136,78.3,209.3,47.7,234.4,22.1s71.2-73.2,150.7-39.1s125.6,81.7,186.3,34s117.2-81.7,194.6-52.8"
	/>
<path class="st0" d="M-87.8,130.7c136,78.3,209.3,47.7,234.4,22.1s71.2-73.2,150.7-39.1s125.6,81.7,186.3,34S600.7,66,678.1,94.9"/>
<path class="st0" d="M-87.8,134.1c136,78.3,209.3,47.7,234.4,22.1s71.2-73.2,150.7-39.1s125.6,81.7,186.3,34s117.2-81.7,194.6-52.8"
	/>
<path class="st0" d="M-87.8,137.5c136,78.3,209.3,47.7,234.4,22.1s71.2-73.2,150.7-39.1s125.6,81.7,186.3,34s117.2-81.7,194.6-52.8"
	/>
<path class="st0" d="M-87.8,140.9c136,78.3,209.3,47.7,234.4,22.1s71.2-73.2,150.7-39.1s125.6,81.7,186.3,34s117.2-81.7,194.6-52.8"
	/>
<path class="st0" d="M-87.8,144.3c136,78.3,209.3,47.7,234.4,22.1s71.2-73.2,150.7-39.1s125.6,81.7,186.3,34s117.2-81.7,194.6-52.8"
	/>
<path class="st0" d="M-87.8,147.7c136,78.3,209.3,47.7,234.4,22.1s71.2-73.2,150.7-39.1s125.6,81.7,186.3,34S600.7,83,678.1,111.9"
	/>
<path class="st0" d="M-87.8,151.1c136,78.3,209.3,47.7,234.4,22.1s71.2-73.2,150.7-39.1s125.6,81.7,186.3,34s117.2-81.7,194.6-52.8"
	/>
<path class="st0" d="M-87.8,154.5c136,78.3,209.3,47.7,234.4,22.1s71.2-73.2,150.7-39.1s125.6,81.7,186.3,34s117.2-81.7,194.6-52.8"
	/>
<path class="st0" d="M-87.8,157.9c136,78.3,209.3,47.7,234.4,22.1s71.2-73.2,150.7-39.1s125.6,81.7,186.3,34s117.2-81.7,194.6-52.8"
	/>
<path class="st0" d="M-87.8,161.3c136,78.3,209.3,47.7,234.4,22.1s71.2-73.2,150.7-39.1s125.6,81.7,186.3,34s117.2-81.7,194.6-52.8"
	/>
<path class="st0" d="M-87.8,164.7c136,78.3,209.3,47.7,234.4,22.1s71.2-73.2,150.7-39.1s125.6,81.7,186.3,34S600.7,100,678.1,129"/>
<path class="st0" d="M-87.8,168.1c136,78.3,209.3,47.7,234.4,22.1s71.2-73.2,150.7-39.1s125.6,81.7,186.3,34s117.2-81.7,194.6-52.8"
	/>
<path class="st0" d="M-87.8,171.5c136,78.3,209.3,47.7,234.4,22.1s71.2-73.2,150.7-39.1s125.6,81.7,186.3,34s117.2-81.7,194.6-52.8"
	/>
<path class="st0" d="M-87.8,174.9c136,78.3,209.3,47.7,234.4,22.1s71.2-73.2,150.7-39.1s125.6,81.7,186.3,34s117.2-81.7,194.6-52.8"
	/>
<path class="st0" d="M-87.8,178.3c136,78.3,209.3,47.7,234.4,22.1s71.2-73.2,150.7-39.1s125.6,81.7,186.3,34s117.2-81.7,194.6-52.8"
	/>
<path class="st0" d="M-87.8,181.7c136,78.3,209.3,47.7,234.4,22.1s71.2-73.2,150.7-39.1s125.6,81.7,186.3,34s117.2-81.7,194.6-52.8"
	/>
<path class="st0" d="M-87.8,185.1c136,78.3,209.3,47.7,234.4,22.1s71.2-73.2,150.7-39.1s125.6,81.7,186.3,34s117.2-81.7,194.6-52.8"
	/>
<path class="st0" d="M-87.8,188.5c136,78.3,209.3,47.7,234.4,22.1s71.2-73.2,150.7-39.1s125.6,81.7,186.3,34s117.2-81.7,194.6-52.8"
	/>
<path class="st0" d="M-87.8,191.9c136,78.3,209.3,47.7,234.4,22.1s71.2-73.2,150.7-39.1s125.6,81.7,186.3,34s117.2-81.7,194.6-52.8"
	/>
<path class="st0" d="M-87.8,195.3c136,78.3,209.3,47.7,234.4,22.1s71.2-73.2,150.7-39.1s125.6,81.7,186.3,34s117.2-81.7,194.6-52.8"
	/>
<path class="st0" d="M-87.8,198.8c136,78.3,209.3,47.7,234.4,22.1s71.2-73.2,150.7-39.1s125.6,81.7,186.3,34s117.2-81.7,194.6-52.8"
	/>
<path class="st0" d="M-87.8,202.2c136,78.3,209.3,47.7,234.4,22.1s71.2-73.2,150.7-39.1s125.6,81.7,186.3,34s117.2-81.7,194.6-52.8"
	/>
<path class="st0" d="M-87.8,205.6c136,78.3,209.3,47.7,234.4,22.1s71.2-73.2,150.7-39.1s125.6,81.7,186.3,34s117.2-81.7,194.6-52.8"
	/>
<path class="st0" d="M-87.8,209c136,78.3,209.3,47.7,234.4,22.1s71.2-73.2,150.7-39.1s125.6,81.7,186.3,34s117.2-81.7,194.6-52.8"/>
<path class="st0" d="M-87.8,212.4c136,78.3,209.3,47.7,234.4,22.1s71.2-73.2,150.7-39.1s125.6,81.7,186.3,34s117.2-81.7,194.6-52.8"
	/>
<path class="st0" d="M-87.8,215.8c136,78.3,209.3,47.7,234.4,22.1s71.2-73.2,150.7-39.1s125.6,81.7,186.3,34s117.2-81.7,194.6-52.8"
	/>
<path class="st0" d="M-87.8,219.2c136,78.3,209.3,47.7,234.4,22.1s71.2-73.2,150.7-39.1s125.6,81.7,186.3,34s117.2-81.7,194.6-52.8"
	/>
<path class="st0" d="M-87.8,222.6c136,78.3,209.3,47.7,234.4,22.1s71.2-73.2,150.7-39.1s125.6,81.7,186.3,34s117.2-81.7,194.6-52.8"
	/>
<path class="st0" d="M-87.8,226c136,78.3,209.3,47.7,234.4,22.1s71.2-73.2,150.7-39.1s125.6,81.7,186.3,34s117.2-81.7,194.6-52.8"/>
<path class="st0" d="M-87.8,229.4c136,78.3,209.3,47.7,234.4,22.1s71.2-73.2,150.7-39.1s125.6,81.7,186.3,34s117.2-81.7,194.6-52.8"
	/>
<path class="st0" d="M-87.8,232.8c136,78.3,209.3,47.7,234.4,22.1s71.2-73.2,150.7-39.1s125.6,81.7,186.3,34s117.2-81.7,194.6-52.8"
	/>
<path class="st0" d="M-87.8,236.2c136,78.3,209.3,47.7,234.4,22.1s71.2-73.2,150.7-39.1s125.6,81.7,186.3,34s117.2-81.7,194.6-52.8"
	/>
<path class="st0" d="M-87.8,239.6c136,78.3,209.3,47.7,234.4,22.1s71.2-73.2,150.7-39.1s125.6,81.7,186.3,34s117.2-81.7,194.6-52.8"
	/>
<path class="st0" d="M-87.8,243c136,78.3,209.3,47.7,234.4,22.1s71.2-73.2,150.7-39.1s125.6,81.7,186.3,34s117.2-81.7,194.6-52.8"/>
<path class="st0" d="M-87.8,246.4c136,78.3,209.3,47.7,234.4,22.1s71.2-73.2,150.7-39.1s125.6,81.7,186.3,34s117.2-81.7,194.6-52.8"
	/>
<path class="st0" d="M-87.8,249.8c136,78.3,209.3,47.7,234.4,22.1s71.2-73.2,150.7-39.1s125.6,81.7,186.3,34s117.2-81.7,194.6-52.8"
	/>
<path class="st0" d="M-87.8,253.2c136,78.3,209.3,47.7,234.4,22.1s71.2-73.2,150.7-39.1s125.6,81.7,186.3,34s117.2-81.7,194.6-52.8"
	/>
<path class="st0" d="M-87.8,256.6c136,78.3,209.3,47.7,234.4,22.1s71.2-73.2,150.7-39.1s125.6,81.7,186.3,34s117.2-81.7,194.6-52.8"
	/>
<path class="st0" d="M-87.8,260c136,78.3,209.3,47.7,234.4,22.1S217.7,209,297.3,243s125.6,81.7,186.3,34s117.2-81.7,194.6-52.8"/>
<path class="st0" d="M-87.8,263.4c136,78.3,209.3,47.7,234.4,22.1s71.2-73.2,150.7-39.1s125.6,81.7,186.3,34s117.2-81.7,194.6-52.8"
	/>
<path class="st0" d="M-87.8,266.8c136,78.3,209.3,47.7,234.4,22.1s71.2-73.2,150.7-39.1s125.6,81.7,186.3,34s117.2-81.7,194.6-52.8"
	/>
<path class="st0" d="M-87.8,270.2c136,78.3,209.3,47.7,234.4,22.1s71.2-73.2,150.7-39.1s125.6,81.7,186.3,34s117.2-81.7,194.6-52.8"
	/>
<path class="st0" d="M-87.8,273.6c136,78.3,209.3,47.7,234.4,22.1s71.2-73.2,150.7-39.1s125.6,81.7,186.3,34s117.2-81.7,194.6-52.8"
	/>
<path class="st0" d="M-87.8,277c136,78.3,209.3,47.7,234.4,22.1S217.7,226,297.3,260s125.6,81.7,186.3,34s117.2-81.7,194.6-52.8"/>
<path class="st0" d="M-87.8,280.5c136,78.3,209.3,47.7,234.4,22.1s71.2-73.2,150.7-39.1s125.6,81.7,186.3,34s117.2-81.7,194.6-52.8"
	/>
<path class="st0" d="M-87.8,283.9c136,78.3,209.3,47.7,234.4,22.1s71.2-73.2,150.7-39.1s125.6,81.7,186.3,34s117.2-81.7,194.6-52.8"
	/>
<path class="st0" d="M-87.8,287.3c136,78.3,209.3,47.7,234.4,22.1s71.2-73.2,150.7-39.1s125.6,81.7,186.3,34s117.2-81.7,194.6-52.8"
	/>
<path class="st0" d="M-87.8,290.7c136,78.3,209.3,47.7,234.4,22.1s71.2-73.2,150.7-39.1s125.6,81.7,186.3,34s117.2-81.7,194.6-52.8"
	/>
<path class="st0" d="M-87.8,294.1c136,78.3,209.3,47.7,234.4,22.1S217.7,243,297.3,277s125.6,81.7,186.3,34s117.2-81.7,194.6-52.8"
	/>
<path class="st0" d="M-87.8,297.5c136,78.3,209.3,47.7,234.4,22.1s71.2-73.2,150.7-39.1s125.6,81.7,186.3,34s117.2-81.7,194.6-52.8"
	/>
<path class="st0" d="M-87.8,300.9c136,78.3,209.3,47.7,234.4,22.1s71.2-73.2,150.7-39.1s125.6,81.7,186.3,34s117.2-81.7,194.6-52.8"
	/>
<path class="st0" d="M-87.8,304.3c136,78.3,209.3,47.7,234.4,22.1s71.2-73.2,150.7-39.1s125.6,81.7,186.3,34s117.2-81.7,194.6-52.8"
	/>
<path class="st0" d="M-87.8,307.7c136,78.3,209.3,47.7,234.4,22.1s71.2-73.2,150.7-39.1s125.6,81.7,186.3,34s117.2-81.7,194.6-52.8"
	/>
<path class="st0" d="M-87.8,311.1c136,78.3,209.3,47.7,234.4,22.1s71.2-73.2,150.7-39.1s125.6,81.7,186.3,34s117.2-81.7,194.6-52.8"
	/>
<path class="st0" d="M-87.8,314.5c136,78.3,209.3,47.7,234.4,22.1s71.2-73.2,150.7-39.1s125.6,81.7,186.3,34s117.2-81.7,194.6-52.8"
	/>
<path class="st0" d="M-87.8,317.9c136,78.3,209.3,47.7,234.4,22.1s71.2-73.2,150.7-39.1s125.6,81.7,186.3,34s117.2-81.7,194.6-52.8"
	/>
<path class="st0" d="M-87.8,321.3c136,78.3,209.3,47.7,234.4,22.1s71.2-73.2,150.7-39.1s125.6,81.7,186.3,34s117.2-81.7,194.6-52.8"
	/>
<path class="st0" d="M-87.8,324.7c136,78.3,209.3,47.7,234.4,22.1s71.2-73.2,150.7-39.1s125.6,81.7,186.3,34S600.7,260,678.1,289"/>
<path class="st0" d="M-87.8,328.1c136,78.3,209.3,47.7,234.4,22.1s71.2-73.2,150.7-39.1s125.6,81.7,186.3,34s117.2-81.7,194.6-52.8"
	/>
<path class="st0" d="M-87.8,331.5c136,78.3,209.3,47.7,234.4,22.1s71.2-73.2,150.7-39.1s125.6,81.7,186.3,34s117.2-81.7,194.6-52.8"
	/>
<path class="st0" d="M-87.8,334.9c136,78.3,209.3,47.7,234.4,22.1s71.2-73.2,150.7-39.1s125.6,81.7,186.3,34s117.2-81.7,194.6-52.8"
	/>
<path class="st0" d="M-87.8,338.3c136,78.3,209.3,47.7,234.4,22.1s71.2-73.2,150.7-39.1s125.6,81.7,186.3,34s117.2-81.7,194.6-52.8"
	/>
<path class="st0" d="M-87.8,341.7c136,78.3,209.3,47.7,234.4,22.1s71.2-73.2,150.7-39.1s125.6,81.7,186.3,34S600.7,277,678.1,306"/>
<path class="st0" d="M-87.8,345.1c136,78.3,209.3,47.7,234.4,22.1s71.2-73.2,150.7-39.1s125.6,81.7,186.3,34s117.2-81.7,194.6-52.8"
	/>
<path class="st0" d="M-87.8,348.5c136,78.3,209.3,47.7,234.4,22.1s71.2-73.2,150.7-39.1s125.6,81.7,186.3,34s117.2-81.7,194.6-52.8"
	/>
<path class="st0" d="M-87.8,351.9c136,78.3,209.3,47.7,234.4,22.1s71.2-73.2,150.7-39.1s125.6,81.7,186.3,34s117.2-81.7,194.6-52.8"
	/>
<path class="st0" d="M-87.8,355.3c136,78.3,209.3,47.7,234.4,22.1s71.2-73.2,150.7-39.1s125.6,81.7,186.3,34s117.2-81.7,194.6-52.8"
	/>
<path class="st0" d="M-87.8,358.7c136,78.3,209.3,47.7,234.4,22.1s71.2-73.2,150.7-39.1s125.6,81.7,186.3,34s117.2-81.7,194.6-52.8"
	/>
<path class="st0" d="M-87.8,362.1c136,78.3,209.3,47.7,234.4,22.1s71.2-73.2,150.7-39.1s125.6,81.7,186.3,34s117.2-81.7,194.6-52.8"
	/>
<path class="st0" d="M-87.8,365.6c136,78.3,209.3,47.7,234.4,22.1s71.2-73.2,150.7-39.1s125.6,81.7,186.3,34s117.2-81.7,194.6-52.8"
	/>
<path class="st0" d="M-87.8,369c136,78.3,209.3,47.7,234.4,22.1s71.2-73.2,150.7-39.1s125.6,81.7,186.3,34s117.2-81.7,194.6-52.8"/>
<path class="st0" d="M-87.8,372.4c136,78.3,209.3,47.7,234.4,22.1s71.2-73.2,150.7-39.1s125.6,81.7,186.3,34s117.2-81.7,194.6-52.8"
	/>
<path class="st0" d="M-87.8,375.8c136,78.3,209.3,47.7,234.4,22.1s71.2-73.2,150.7-39.1s125.6,81.7,186.3,34s117.2-81.7,194.6-52.8"
	/>
<path class="st0" d="M-87.8,379.2c136,78.3,209.3,47.7,234.4,22.1s71.2-73.2,150.7-39.1s125.6,81.7,186.3,34s117.2-81.7,194.6-52.8"
	/>
<path class="st0" d="M-87.8,382.6c136,78.3,209.3,47.7,234.4,22.1s71.2-73.2,150.7-39.1s125.6,81.7,186.3,34s117.2-81.7,194.6-52.8"
	/>
<path class="st0" d="M-87.8,386c136,78.3,209.3,47.7,234.4,22.1s71.2-73.2,150.7-39.1s125.6,81.7,186.3,34s117.2-81.7,194.6-52.8"/>
<path class="st0" d="M-87.8,389.4c136,78.3,209.3,47.7,234.4,22.1s71.2-73.2,150.7-39.1s125.6,81.7,186.3,34s117.2-81.7,194.6-52.8"
	/>
<path class="st0" d="M-87.8,392.8c136,78.3,209.3,47.7,234.4,22.1s71.2-73.2,150.7-39.1s125.6,81.7,186.3,34s117.2-81.7,194.6-52.8"
	/>
<path class="st0" d="M-87.8,396.2c136,78.3,209.3,47.7,234.4,22.1s71.2-73.2,150.7-39.1s125.6,81.7,186.3,34s117.2-81.7,194.6-52.8"
	/>
<path class="st0" d="M-87.8,399.6c136,78.3,209.3,47.7,234.4,22.1s71.2-73.2,150.7-39.1s125.6,81.7,186.3,34s117.2-81.7,194.6-52.8"
	/>
<path class="st0" d="M-87.8,403c136,78.3,209.3,47.7,234.4,22.1s71.2-73.2,150.7-39.1s125.6,81.7,186.3,34s117.2-81.7,194.6-52.8"/>
<path class="st0" d="M-87.8,406.4c136,78.3,209.3,47.7,234.4,22.1s71.2-73.2,150.7-39.1s125.6,81.7,186.3,34s117.2-81.7,194.6-52.8"
	/>
<path class="st0" d="M-87.8,409.8c136,78.3,209.3,47.7,234.4,22.1s71.2-73.2,150.7-39.1s125.6,81.7,186.3,34s117.2-81.7,194.6-52.8"
	/>
<path class="st0" d="M-87.8,413.2c136,78.3,209.3,47.7,234.4,22.1s71.2-73.2,150.7-39.1s125.6,81.7,186.3,34s117.2-81.7,194.6-52.8"
	/>
<path class="st0" d="M-87.8,416.6c136,78.3,209.3,47.7,234.4,22.1s71.2-73.2,150.7-39.1s125.6,81.7,186.3,34s117.2-81.7,194.6-52.8"
	/>
<path class="st0" d="M-87.8,420c136,78.3,209.3,47.7,234.4,22.1S217.7,369,297.3,403s125.6,81.7,186.3,34s117.2-81.7,194.6-52.8"/>
<path class="st0" d="M-87.8,423.4c136,78.3,209.3,47.7,234.4,22.1s71.2-73.2,150.7-39.1s125.6,81.7,186.3,34s117.2-81.7,194.6-52.8"
	/>
<path class="st0" d="M-87.8,426.8c136,78.3,209.3,47.7,234.4,22.1s71.2-73.2,150.7-39.1s125.6,81.7,186.3,34s117.2-81.7,194.6-52.8"
	/>
<path class="st0" d="M-87.8,430.2c136,78.3,209.3,47.7,234.4,22.1s71.2-73.2,150.7-39.1s125.6,81.7,186.3,34s117.2-81.7,194.6-52.8"
	/>
<path class="st0" d="M-87.8,433.6c136,78.3,209.3,47.7,234.4,22.1s71.2-73.2,150.7-39.1s125.6,81.7,186.3,34s117.2-81.7,194.6-52.8"
	/>
<path class="st0" d="M-87.8,437c136,78.3,209.3,47.7,234.4,22.1S217.7,386,297.3,420s125.6,81.7,186.3,34s117.2-81.7,194.6-52.8"/>
<path class="st0" d="M-87.8,440.4c136,78.3,209.3,47.7,234.4,22.1s71.2-73.2,150.7-39.1s125.6,81.7,186.3,34s117.2-81.7,194.6-52.8"
	/>
<path class="st0" d="M-87.8,443.8c136,78.3,209.3,47.7,234.4,22.1s71.2-73.2,150.7-39.1s125.6,81.7,186.3,34s117.2-81.7,194.6-52.8"
	/>
<path class="st0" d="M-87.8,447.2c136,78.3,209.3,47.7,234.4,22.1s71.2-73.2,150.7-39.1s125.6,81.7,186.3,34s117.2-81.7,194.6-52.8"
	/>
<path class="st0" d="M-87.8,450.7c136,78.3,209.3,47.7,234.4,22.1s71.2-73.2,150.7-39.1s125.6,81.7,186.3,34s117.2-81.7,194.6-52.8"
	/>
<path class="st0" d="M-87.8,454.1c136,78.3,209.3,47.7,234.4,22.1S217.7,403,297.3,437s125.6,81.7,186.3,34s117.2-81.7,194.6-52.8"
	/>
<path class="st0" d="M-87.8,457.5c136,78.3,209.3,47.7,234.4,22.1s71.2-73.2,150.7-39.1s125.6,81.7,186.3,34s117.2-81.7,194.6-52.8"
	/>
<path class="st0" d="M-87.8,460.9c136,78.3,209.3,47.7,234.4,22.1s71.2-73.2,150.7-39.1s125.6,81.7,186.3,34s117.2-81.7,194.6-52.8"
	/>
<path class="st0" d="M-87.8,464.3c136,78.3,209.3,47.7,234.4,22.1s71.2-73.2,150.7-39.1s125.6,81.7,186.3,34s117.2-81.7,194.6-52.8"
	/>
<path class="st0" d="M-87.8,467.7c136,78.3,209.3,47.7,234.4,22.1c25.1-25.5,71.2-73.2,150.7-39.1s125.6,81.7,186.3,34
	s117.2-81.7,194.6-52.8"/>
<path class="st0" d="M-87.8,471.1c136,78.3,209.3,47.7,234.4,22.1s71.2-73.2,150.7-39.1s125.6,81.7,186.3,34
	c60.7-47.7,117.2-81.7,194.6-52.8"/>
<path class="st0" d="M-87.8,474.5c136,78.3,209.3,47.7,234.4,22.1s71.2-73.2,150.7-39.1s125.6,81.7,186.3,34s117.2-81.7,194.6-52.8"
	/>
<path class="st0" d="M-87.8,477.9c136,78.3,209.3,47.7,234.4,22.1c25.1-25.5,71.2-73.2,150.7-39.1s125.6,81.7,186.3,34
	s117.2-81.7,194.6-52.8"/>
<path class="st0" d="M-87.8,481.3c136,78.3,209.3,47.7,234.4,22.1s71.2-73.2,150.7-39.1s125.6,81.7,186.3,34
	c60.7-47.7,117.2-81.7,194.6-52.8"/>
<path class="st0" d="M-87.8,484.7c136,78.3,209.3,47.7,234.4,22.1s71.2-73.2,150.7-39.1s125.6,81.7,186.3,34S600.7,420,678.1,449"/>
<path class="st0" d="M-87.8,488.1c136,78.3,209.3,47.7,234.4,22.1s71.2-73.2,150.7-39.1s125.6,81.7,186.3,34s117.2-81.7,194.6-52.8"
	/>
<path class="st0" d="M-87.8,491.5c136,78.3,209.3,47.7,234.4,22.1s71.2-73.2,150.7-39.1s125.6,81.7,186.3,34
	c60.7-47.7,117.2-81.7,194.6-52.8"/>
<path class="st0" d="M-87.8,494.9c136,78.3,209.3,47.7,234.4,22.1s71.2-73.2,150.7-39.1s125.6,81.7,186.3,34s117.2-81.7,194.6-52.8"
	/>
<path class="st0" d="M-87.8,498.3c136,78.3,209.3,47.7,234.4,22.1s71.2-73.2,150.7-39.1s125.6,81.7,186.3,34
	c60.7-47.7,117.2-81.7,194.6-52.8"/>
<path class="st0" d="M-87.8,501.7c136,78.3,209.3,47.7,234.4,22.1s71.2-73.2,150.7-39.1s125.6,81.7,186.3,34
	c60.7-47.7,117.2-81.7,194.6-52.8"/>
<path class="st0" d="M-87.8,505.1c136,78.3,209.3,47.7,234.4,22.1s71.2-73.2,150.7-39.1s125.6,81.7,186.3,34s117.2-81.7,194.6-52.8"
	/>
<path class="st0" d="M-87.8,508.5c136,78.3,209.3,47.7,234.4,22.1s71.2-73.2,150.7-39.1s125.6,81.7,186.3,34
	c60.7-47.7,117.2-81.7,194.6-52.8"/>
<path class="st0" d="M-87.8,511.9c136,78.3,209.3,47.7,234.4,22.1s71.2-73.2,150.7-39.1s125.6,81.7,186.3,34
	c60.7-47.7,117.2-81.7,194.6-52.8"/>
<path class="st0" d="M-87.8,515.3c136,78.3,209.3,47.7,234.4,22.1c25.1-25.5,71.2-73.2,150.7-39.1s125.6,81.7,186.3,34
	s117.2-81.7,194.6-52.8"/>
<path class="st0" d="M-87.8,518.7c136,78.3,209.3,47.7,234.4,22.1s71.2-73.2,150.7-39.1s125.6,81.7,186.3,34
	c60.7-47.7,117.2-81.7,194.6-52.8"/>
<path class="st0" d="M-87.8,522.1c136,78.3,209.3,47.7,234.4,22.1s71.2-73.2,150.7-39.1s125.6,81.7,186.3,34
	c60.7-47.7,117.2-81.7,194.6-52.8"/>
<path class="st0" d="M-87.8,525.5c136,78.3,209.3,47.7,234.4,22.1c25.1-25.5,71.2-73.2,150.7-39.1s125.6,81.7,186.3,34
	s117.2-81.7,194.6-52.8"/>
<path class="st0" d="M-87.8,528.9c136,78.3,209.3,47.7,234.4,22.1s71.2-73.2,150.7-39.1s125.6,81.7,186.3,34
	c60.7-47.7,117.2-81.7,194.6-52.8"/>
<path class="st0" d="M-87.8,532.4c136,78.3,209.3,47.7,234.4,22.1s71.2-73.2,150.7-39.1c79.5,34,125.6,81.7,186.3,34
	c60.7-47.7,117.2-81.7,194.6-52.8"/>
<path class="st0" d="M-87.8,535.8c136,78.3,209.3,47.7,234.4,22.1s71.2-73.2,150.7-39.1s125.6,81.7,186.3,34s117.2-81.7,194.6-52.8"
	/>
<path class="st0" d="M-87.8,539.2c136,78.3,209.3,47.7,234.4,22.1s71.2-73.2,150.7-39.1s125.6,81.7,186.3,34
	c60.7-47.7,117.2-81.7,194.6-52.8"/>
<path class="st0" d="M-87.8,542.6c136,78.3,209.3,47.7,234.4,22.1s71.2-73.2,150.7-39.1c79.5,34,125.6,81.7,186.3,34
	c60.7-47.7,117.2-81.7,194.6-52.8"/>
<path class="st0" d="M-87.8,546c136,78.3,209.3,47.7,234.4,22.1s71.2-73.2,150.7-39.1s125.6,81.7,186.3,34s117.2-81.7,194.6-52.8"/>
<path class="st0" d="M-87.8,549.4c136,78.3,209.3,47.7,234.4,22.1s71.2-73.2,150.7-39.1s125.6,81.7,186.3,34
	c60.7-47.7,117.2-81.7,194.6-52.8"/>
<path class="st0" d="M-87.8,552.8c136,78.3,209.3,47.7,234.4,22.1s71.2-73.2,150.7-39.1c79.5,34,125.6,81.7,186.3,34
	c60.7-47.7,117.2-81.7,194.6-52.8"/>
<path class="st0" d="M-87.8,556.2c136,78.3,209.3,47.7,234.4,22.1s71.2-73.2,150.7-39.1s125.6,81.7,186.3,34s117.2-81.7,194.6-52.8"
	/>
<path class="st0" d="M-87.8,559.6c136,78.3,209.3,47.7,234.4,22.1s71.2-73.2,150.7-39.1s125.6,81.7,186.3,34
	c60.7-47.7,117.2-81.7,194.6-52.8"/>
<path class="st0" d="M-87.8,563c136,78.3,209.3,47.7,234.4,22.1s71.2-73.2,150.7-39.1c79.5,34,125.6,81.7,186.3,34
	c60.7-47.7,117.2-81.7,194.6-52.8"/>
<path class="st0" d="M-87.8,566.4c136,78.3,209.3,47.7,234.4,22.1s71.2-73.2,150.7-39.1c79.5,34,125.6,81.7,186.3,34
	s117.2-81.7,194.6-52.8"/>
<path class="st0" d="M-87.8,569.8c136,78.3,209.3,47.7,234.4,22.1s71.2-73.2,150.7-39.1s125.6,81.7,186.3,34
	c60.7-47.7,117.2-81.7,194.6-52.8"/>
<path class="st0" d="M-87.8,573.2c136,78.3,209.3,47.7,234.4,22.1s71.2-73.2,150.7-39.1c79.5,34,125.6,81.7,186.3,34
	c60.7-47.7,117.2-81.7,194.6-52.8"/>
<path class="st0" d="M-87.8,576.6c136,78.3,209.3,47.7,234.4,22.1s71.2-73.2,150.7-39.1c79.5,34,125.6,81.7,186.3,34
	c60.7-47.7,117.2-81.7,194.6-52.8"/>
<path class="st0" d="M-87.8,580c136,78.3,209.3,47.7,234.4,22.1s71.2-73.2,150.7-39.1s125.6,81.7,186.3,34
	c60.7-47.7,117.2-81.7,194.6-52.8"/>
<path class="st0" d="M-87.8,583.4c136,78.3,209.3,47.7,234.4,22.1s71.2-73.2,150.7-39.1c79.5,34,125.6,81.7,186.3,34
	c60.7-47.7,117.2-81.7,194.6-52.8"/>
<path class="st0" d="M-87.8,586.8c136,78.3,209.3,47.7,234.4,22.1s71.2-73.2,150.7-39.1c79.5,34,125.6,81.7,186.3,34
	c60.7-47.7,117.2-81.7,194.6-52.8"/>
<path class="st0" d="M-87.8,590.2c136,78.3,209.3,47.7,234.4,22.1s71.2-73.2,150.7-39.1s125.6,81.7,186.3,34
	c60.7-47.7,117.2-81.7,194.6-52.8"/>
<path class="st0" d="M-87.8,593.6c136,78.3,209.3,47.7,234.4,22.1s71.2-73.2,150.7-39.1c79.5,34,125.6,81.7,186.3,34
	c60.7-47.7,117.2-81.7,194.6-52.8"/>
<path class="st0" d="M-87.8,597c136,78.3,209.3,47.7,234.4,22.1S217.7,546,297.3,580c79.5,34,125.6,81.7,186.3,34
	c60.7-47.7,117.2-81.7,194.6-52.8"/>
<path class="st0" d="M-87.8,600.4c136,78.3,209.3,47.7,234.4,22.1s71.2-73.2,150.7-39.1s125.6,81.7,186.3,34
	c60.7-47.7,117.2-81.7,194.6-52.8"/>
<path class="st0" d="M-87.8,603.8c136,78.3,209.3,47.7,234.4,22.1s71.2-73.2,150.7-39.1c79.5,34,125.6,81.7,186.3,34
	c60.7-47.7,117.2-81.7,194.6-52.8"/>
<path class="st0" d="M-87.8,607.2c136,78.3,209.3,47.7,234.4,22.1s71.2-73.2,150.7-39.1c79.5,34,125.6,81.7,186.3,34
	c60.7-47.7,117.2-81.7,194.6-52.8"/>
<path class="st0" d="M-87.8,610.6c136,78.3,209.3,47.7,234.4,22.1s71.2-73.2,150.7-39.1s125.6,81.7,186.3,34
	c60.7-47.7,117.2-81.7,194.6-52.8"/>
<path class="st0" d="M-87.8,614c136,78.3,209.3,47.7,234.4,22.1S217.7,563,297.3,597c79.5,34,125.6,81.7,186.3,34
	c60.7-47.7,117.2-81.7,194.6-52.8"/>
<path class="st0" d="M-87.8,617.5c136,78.3,209.3,47.7,234.4,22.1s71.2-73.2,150.7-39.1c79.5,34,125.6,81.7,186.3,34
	c60.7-47.7,117.2-81.7,194.6-52.8"/>
<path class="st0" d="M-87.8,620.9c136,78.3,209.3,47.7,234.4,22.1s71.2-73.2,150.7-39.1s125.6,81.7,186.3,34
	c60.7-47.7,117.2-81.7,194.6-52.8"/>
<path class="st0" d="M-87.8,624.3c136,78.3,209.3,47.7,234.4,22.1s71.2-73.2,150.7-39.1s125.6,81.7,186.3,34
	c60.7-47.7,117.2-81.7,194.6-52.8"/>
<path class="st0" d="M-87.8,627.7c136,78.3,209.3,47.7,234.4,22.1s71.2-73.2,150.7-39.1c79.5,34,125.6,81.7,186.3,34
	c60.7-47.7,117.2-81.7,194.6-52.8"/>
<path class="st0" d="M-87.8,631.1c136,78.3,209.3,47.7,234.4,22.1S217.7,580,297.3,614s125.6,81.7,186.3,34
	c60.7-47.7,117.2-81.7,194.6-52.8"/>
<path class="st0" d="M-87.8,634.5c136,78.3,209.3,47.7,234.4,22.1s71.2-73.2,150.7-39.1s125.6,81.7,186.3,34
	c60.7-47.7,117.2-81.7,194.6-52.8"/>
<path class="st0" d="M-87.8,637.9c136,78.3,209.3,47.7,234.4,22.1s71.2-73.2,150.7-39.1c79.5,34,125.6,81.7,186.3,34
	c60.7-47.7,117.2-81.7,194.6-52.8"/>
<path class="st0" d="M-87.8,641.3c136,78.3,209.3,47.7,234.4,22.1c25.1-25.5,71.2-73.2,150.7-39.1s125.6,81.7,186.3,34
	c60.7-47.7,117.2-81.7,194.6-52.8"/>
<path class="st0" d="M-87.8,644.7c136,78.3,209.3,47.7,234.4,22.1s71.2-73.2,150.7-39.1s125.6,81.7,186.3,34
	c60.7-47.7,117.2-81.7,194.6-52.8"/>
<path class="st0" d="M-87.8,648.1c136,78.3,209.3,47.7,234.4,22.1s71.2-73.2,150.7-39.1c79.5,34,125.6,81.7,186.3,34
	c60.7-47.7,117.2-81.7,194.6-52.8"/>
<path class="st0" d="M-87.8,651.5c136,78.3,209.3,47.7,234.4,22.1c25.1-25.5,71.2-73.2,150.7-39.1s125.6,81.7,186.3,34
	c60.7-47.7,117.2-81.7,194.6-52.8"/>
<path class="st0" d="M-87.8,654.9c136,78.3,209.3,47.7,234.4,22.1s71.2-73.2,150.7-39.1s125.6,81.7,186.3,34
	c60.7-47.7,117.2-81.7,194.6-52.8"/>
<path class="st0" d="M-87.8,658.3c136,78.3,209.3,47.7,234.4,22.1s71.2-73.2,150.7-39.1c79.5,34,125.6,81.7,186.3,34
	c60.7-47.7,117.2-81.7,194.6-52.8"/>
<path class="st0" d="M-87.8,661.7c136,78.3,209.3,47.7,234.4,22.1c25.1-25.5,71.2-73.2,150.7-39.1s125.6,81.7,186.3,34
	c60.7-47.7,117.2-81.7,194.6-52.8"/>
<path class="st0" d="M-87.8,665.1c136,78.3,209.3,47.7,234.4,22.1s71.2-73.2,150.7-39.1s125.6,81.7,186.3,34
	c60.7-47.7,117.2-81.7,194.6-52.8"/>
<path class="st0" d="M-87.8,668.5c136,78.3,209.3,47.7,234.4,22.1s71.2-73.2,150.7-39.1c79.5,34,125.6,81.7,186.3,34
	c60.7-47.7,117.2-81.7,194.6-52.8"/>
<path class="st0" d="M-87.8,671.9c136,78.3,209.3,47.7,234.4,22.1c25.1-25.5,71.2-73.2,150.7-39.1s125.6,81.7,186.3,34
	s117.2-81.7,194.6-52.8"/>
<path class="st0" d="M-87.8,675.3c136,78.3,209.3,47.7,234.4,22.1s71.2-73.2,150.7-39.1s125.6,81.7,186.3,34
	c60.7-47.7,117.2-81.7,194.6-52.8"/>
<path class="st0" d="M-87.8,678.7c136,78.3,209.3,47.7,234.4,22.1s71.2-73.2,150.7-39.1c79.5,34,125.6,81.7,186.3,34
	c60.7-47.7,117.2-81.7,194.6-52.8"/>
<path class="st0" d="M-87.8,682.1c136,78.3,209.3,47.7,234.4,22.1c25.1-25.5,71.2-73.2,150.7-39.1s125.6,81.7,186.3,34
	s117.2-81.7,194.6-52.8"/>
<path class="st0" d="M-87.8,685.5c136,78.3,209.3,47.7,234.4,22.1s71.2-73.2,150.7-39.1s125.6,81.7,186.3,34
	c60.7-47.7,117.2-81.7,194.6-52.8"/>
<path class="st0" d="M-87.8,688.9c136,78.3,209.3,47.7,234.4,22.1s71.2-73.2,150.7-39.1c79.5,34,125.6,81.7,186.3,34
	c60.7-47.7,117.2-81.7,194.6-52.8"/>
</svg>
