<?xml version="1.0" encoding="utf-8"?>
<!-- Generator: Adobe Illustrator 22.0.1, SVG Export Plug-In . SVG Version: 6.00 Build 0)  -->
<svg version="1.1" id="レイヤー_1" xmlns="http://www.w3.org/2000/svg" xmlns:xlink="http://www.w3.org/1999/xlink" x="0px"
	 y="0px" width="640px" height="640px" viewBox="0 0 640 640" style="enable-background:new 0 0 640 640;" xml:space="preserve">
<style type="text/css">
	.st0{fill:#45003F;}
</style>
<circle class="st0" cx="-197.4" cy="541.2" r="19.6"/>
<circle class="st0" cx="-120.2" cy="469.3" r="18.8"/>
<ellipse transform="matrix(3.132317e-02 -0.9995 0.9995 3.132317e-02 -594.7114 618.3191)" class="st0" cx="21.6" cy="616" rx="18.8" ry="18.8"/>
<ellipse transform="matrix(2.172215e-02 -0.9998 0.9998 2.172215e-02 -522.3521 697.6829)" class="st0" cx="95.3" cy="615.8" rx="18.8" ry="18.8"/>
<circle class="st0" cx="169" cy="615.4" r="18.8"/>
<circle class="st0" cx="242.7" cy="615.2" r="18.8"/>
<circle class="st0" cx="316.3" cy="614.9" r="18.8"/>
<circle class="st0" cx="390" cy="614.7" r="18.8"/>
<circle class="st0" cx="463.7" cy="614.4" r="18.8"/>
<circle class="st0" cx="537.4" cy="614.1" r="18.8"/>
<circle class="st0" cx="611" cy="613.9" r="18.8"/>
<circle class="st0" cx="684.7" cy="613.6" r="18.8"/>
<circle class="st0" cx="758.4" cy="613.4" r="18.8"/>
<ellipse transform="matrix(0.9971 -7.669509e-02 7.669509e-02 0.9971 -41.7665 -2.3134)" class="st0" cx="-51" cy="542.6" rx="18.8" ry="18.8"/>
<circle class="st0" cx="22.7" cy="542.3" r="18.8"/>
<ellipse transform="matrix(2.172212e-02 -0.9998 0.9998 2.172212e-02 -447.7093 626.6602)" class="st0" cx="96.4" cy="542.1" rx="18.8" ry="18.8"/>
<circle class="st0" cx="170" cy="541.8" r="18.8"/>
<circle class="st0" cx="243.7" cy="541.5" r="18.8"/>
<circle class="st0" cx="317.4" cy="541.3" r="18.8"/>
<circle class="st0" cx="391" cy="541" r="18.8"/>
<circle class="st0" cx="464.7" cy="540.7" r="18.8"/>
<circle class="st0" cx="538.4" cy="540.5" r="18.8"/>
<circle class="st0" cx="612.1" cy="540.2" r="18.8"/>
<circle class="st0" cx="685.7" cy="540" r="18.8"/>
<circle class="st0" cx="759.4" cy="539.7" r="18.8"/>
<ellipse transform="matrix(0.9971 -7.669509e-02 7.669509e-02 0.9971 -36.1109 -2.4537)" class="st0" cx="-50" cy="468.9" rx="18.8" ry="18.8"/>
<circle class="st0" cx="23.7" cy="468.6" r="18.8"/>
<ellipse class="st0" cx="97.4" cy="468.4" rx="18.8" ry="18.8"/>
<circle class="st0" cx="171" cy="468.1" r="18.8"/>
<circle class="st0" cx="244.7" cy="467.9" r="18.8"/>
<circle class="st0" cx="318.4" cy="467.6" r="18.8"/>
<circle class="st0" cx="392.1" cy="467.3" r="18.8"/>
<circle class="st0" cx="465.7" cy="467.1" r="18.8"/>
<ellipse class="st0" cx="539.4" cy="466.8" rx="18.8" ry="18.8"/>
<circle class="st0" cx="613.1" cy="466.6" r="18.8"/>
<circle class="st0" cx="686.8" cy="466.3" r="18.8"/>
<circle class="st0" cx="760.4" cy="466" r="18.8"/>
<ellipse transform="matrix(0.9971 -7.669509e-02 7.669509e-02 0.9971 -30.4553 -2.5941)" class="st0" cx="-49" cy="395.2" rx="18.8" ry="18.8"/>
<ellipse transform="matrix(2.172220e-02 -0.9998 0.9998 2.172220e-02 -370.6101 411.1661)" class="st0" cx="24.8" cy="395" rx="18.8" ry="18.8"/>
<circle class="st0" cx="98.4" cy="394.7" r="18.8"/>
<circle class="st0" cx="172.1" cy="394.4" r="18.8"/>
<circle class="st0" cx="245.7" cy="394.2" r="18.8"/>
<circle class="st0" cx="319.4" cy="393.9" r="18.8"/>
<circle class="st0" cx="393.1" cy="393.7" r="18.8"/>
<circle class="st0" cx="466.8" cy="393.4" r="18.8"/>
<ellipse class="st0" cx="540.4" cy="393.2" rx="18.8" ry="18.8"/>
<circle class="st0" cx="614.1" cy="392.9" r="18.8"/>
<circle class="st0" cx="687.8" cy="392.6" r="18.8"/>
<circle class="st0" cx="761.5" cy="392.4" r="18.8"/>
<ellipse transform="matrix(9.053447e-02 -0.9959 0.9959 9.053447e-02 -363.836 244.7907)" class="st0" cx="-47.9" cy="321.6" rx="18.8" ry="18.8"/>
<ellipse transform="matrix(2.172220e-02 -0.9998 0.9998 2.172220e-02 -296.0649 340.0434)" class="st0" cx="25.7" cy="321.3" rx="18.8" ry="18.8"/>
<circle class="st0" cx="99.4" cy="321" r="18.8"/>
<circle class="st0" cx="173.1" cy="320.8" r="18.8"/>
<circle class="st0" cx="246.8" cy="320.5" r="18.8"/>
<circle class="st0" cx="320.4" cy="320.3" r="18.8"/>
<circle class="st0" cx="394.1" cy="320" r="18.8"/>
<circle class="st0" cx="467.8" cy="319.7" r="18.8"/>
<ellipse class="st0" cx="541.5" cy="319.4" rx="18.8" ry="18.8"/>
<circle class="st0" cx="615.1" cy="319.2" r="18.8"/>
<circle class="st0" cx="688.8" cy="319" r="18.8"/>
<circle class="st0" cx="762.5" cy="318.7" r="18.8"/>
<circle class="st0" cx="-46.9" cy="247.9" r="18.8"/>
<circle class="st0" cx="26.8" cy="247.6" r="18.8"/>
<circle class="st0" cx="100.4" cy="247.4" r="18.8"/>
<circle class="st0" cx="174.1" cy="247.1" r="18.8"/>
<circle class="st0" cx="247.8" cy="246.9" r="18.8"/>
<circle class="st0" cx="321.5" cy="246.6" r="18.8"/>
<circle class="st0" cx="395.1" cy="246.3" r="18.8"/>
<circle class="st0" cx="468.8" cy="246.1" r="18.8"/>
<ellipse transform="matrix(0.3827 -0.9239 0.9239 0.3827 107.8264 652.9419)" class="st0" cx="542.5" cy="245.8" rx="18.8" ry="18.8"/>
<circle class="st0" cx="616.2" cy="245.6" r="18.8"/>
<circle class="st0" cx="689.8" cy="245.3" r="18.8"/>
<circle class="st0" cx="763.5" cy="245" r="18.8"/>
<circle class="st0" cx="837.2" cy="244.8" r="18.8"/>
<circle class="st0" cx="-45.9" cy="174.2" r="18.8"/>
<circle class="st0" cx="27.8" cy="174" r="18.8"/>
<circle class="st0" cx="101.5" cy="173.7" r="18.8"/>
<circle class="st0" cx="175.1" cy="173.4" r="18.8"/>
<circle class="st0" cx="248.8" cy="173.2" r="18.8"/>
<circle class="st0" cx="322.5" cy="172.9" r="18.8"/>
<circle class="st0" cx="396.2" cy="172.7" r="18.8"/>
<circle class="st0" cx="469.8" cy="172.4" r="18.8"/>
<ellipse transform="matrix(0.3827 -0.9239 0.9239 0.3827 176.4908 608.329)" class="st0" cx="543.5" cy="172.1" rx="18.8" ry="18.8"/>
<circle class="st0" cx="617.2" cy="171.9" r="18.8"/>
<circle class="st0" cx="690.9" cy="171.6" r="18.8"/>
<circle class="st0" cx="764.5" cy="171.4" r="18.8"/>
<circle class="st0" cx="838.2" cy="171.1" r="18.8"/>
<circle class="st0" cx="-44.8" cy="100.6" r="18.8"/>
<circle class="st0" cx="28.8" cy="100.3" r="18.8"/>
<circle class="st0" cx="102.5" cy="100" r="18.8"/>
<circle class="st0" cx="176.2" cy="99.8" r="18.8"/>
<circle class="st0" cx="249.8" cy="99.5" r="18.8"/>
<circle class="st0" cx="323.5" cy="99.3" r="18.8"/>
<circle class="st0" cx="397.2" cy="99" r="18.8"/>
<circle class="st0" cx="470.9" cy="98.7" r="18.8"/>
<ellipse transform="matrix(0.2425 -0.9701 0.9701 0.2425 316.7809 602.8944)" class="st0" cx="544.5" cy="98.6" rx="18.8" ry="18.8"/>
<circle class="st0" cx="618.2" cy="98.2" r="18.8"/>
<circle class="st0" cx="691.9" cy="98" r="18.8"/>
<circle class="st0" cx="765.6" cy="97.7" r="18.8"/>
<circle class="st0" cx="-43.8" cy="26.9" r="18.8"/>
<circle class="st0" cx="29.9" cy="26.6" r="18.8"/>
<circle class="st0" cx="103.5" cy="26.4" r="18.8"/>
<circle class="st0" cx="177.2" cy="26.1" r="18.8"/>
<circle class="st0" cx="250.9" cy="25.9" r="18.8"/>
<circle class="st0" cx="324.5" cy="25.6" r="18.8"/>
<circle class="st0" cx="398.2" cy="25.3" r="18.8"/>
<circle class="st0" cx="471.9" cy="25.1" r="18.8"/>
<ellipse transform="matrix(0.2944 -0.9557 0.9557 0.2944 361.2549 538.8947)" class="st0" cx="545.6" cy="24.8" rx="18.8" ry="18.8"/>
<circle class="st0" cx="619.2" cy="24.6" r="18.8"/>
<circle class="st0" cx="692.9" cy="24.3" r="18.8"/>
<circle class="st0" cx="766.6" cy="24" r="18.8"/>
<circle class="st0" cx="-42.8" cy="-46.8" r="18.8"/>
<circle class="st0" cx="30.9" cy="-47" r="18.8"/>
<circle class="st0" cx="104.6" cy="-47.3" r="18.8"/>
<circle class="st0" cx="178.2" cy="-47.6" r="18.8"/>
<ellipse transform="matrix(0.4473 -0.8944 0.8944 0.4473 181.9852 198.8973)" class="st0" cx="251.9" cy="-47.8" rx="18.8" ry="18.8"/>
<circle class="st0" cx="325.6" cy="-48.1" r="18.8"/>
<circle class="st0" cx="399.2" cy="-48.3" r="18.8"/>
<circle class="st0" cx="472.9" cy="-48.6" r="18.8"/>
<ellipse transform="matrix(0.3092 -0.951 0.951 0.3092 423.9908 485.9714)" class="st0" cx="546.5" cy="-48.9" rx="18.8" ry="18.8"/>
<circle class="st0" cx="620.3" cy="-49.1" r="18.8"/>
<circle class="st0" cx="693.9" cy="-49.4" r="18.8"/>
<circle class="st0" cx="767.6" cy="-49.6" r="18.8"/>
<ellipse transform="matrix(3.701216e-02 -0.9993 0.9993 3.701216e-02 -669.3095 684.6431)" class="st0" cx="20.6" cy="689.6" rx="18.8" ry="18.8"/>
<circle class="st0" cx="94.3" cy="689.4" r="18.8"/>
<circle class="st0" cx="168" cy="689.1" r="18.8"/>
<circle class="st0" cx="241.6" cy="688.9" r="18.8"/>
<circle class="st0" cx="315.3" cy="688.6" r="18.8"/>
<circle class="st0" cx="389" cy="688.3" r="18.8"/>
<circle class="st0" cx="462.7" cy="688.1" r="18.8"/>
<ellipse class="st0" cx="536.3" cy="687.8" rx="18.8" ry="18.8"/>
<circle class="st0" cx="610" cy="687.6" r="18.8"/>
<circle class="st0" cx="683.7" cy="687.3" r="18.8"/>
</svg>
