<?xml version="1.0" encoding="utf-8"?>
<!-- Generator: Adobe Illustrator 22.0.1, SVG Export Plug-In . SVG Version: 6.00 Build 0)  -->
<svg version="1.1" id="レイヤー_1" xmlns="http://www.w3.org/2000/svg" xmlns:xlink="http://www.w3.org/1999/xlink" x="0px"
	 y="0px" width="640px" height="640px" viewBox="0 0 640 640" style="enable-background:new 0 0 640 640;" xml:space="preserve">
<style type="text/css">
	.st0{fill:#990099;}
	.st1{fill:#4E00A6;}
</style>
<circle class="st0" cx="318.6" cy="350" r="8.6"/>
<circle class="st0" cx="323" cy="551.5" r="8.6"/>
<circle class="st1" cx="322.2" cy="517.7" r="8.6"/>
<circle class="st0" cx="321.4" cy="483.9" r="8.6"/>
<circle class="st1" cx="320.5" cy="450.1" r="8.6"/>
<circle class="st0" cx="319.7" cy="416.3" r="8.6"/>
<circle class="st1" cx="318.9" cy="382.4" r="8.6"/>
<circle class="st1" cx="317.3" cy="314.8" r="8.6"/>
<circle class="st0" cx="318.6" cy="282.4" r="8.6"/>
<circle class="st0" cx="289.2" cy="551.8" r="8.6"/>
<circle class="st1" cx="288.3" cy="517.9" r="8.6"/>
<ellipse class="st0" cx="287.5" cy="484.1" rx="8.6" ry="8.6"/>
<circle class="st1" cx="286.7" cy="450.3" r="8.6"/>
<circle class="st0" cx="285.9" cy="416.5" r="8.6"/>
<circle class="st1" cx="285.1" cy="382.7" r="8.6"/>
<circle class="st0" cx="284.3" cy="348.8" r="8.6"/>
<circle class="st1" cx="283.4" cy="315" r="8.6"/>
<ellipse transform="matrix(0.9231 -0.3846 0.3846 0.9231 -192.6705 140.664)" class="st0" cx="255.3" cy="552" rx="8.6" ry="8.6"/>
<circle class="st1" cx="254.5" cy="518.2" r="8.6"/>
<ellipse transform="matrix(0.6 -0.8 0.8 0.6 -285.9562 396.7059)" class="st0" cx="253.7" cy="484.3" rx="8.6" ry="8.6"/>
<circle class="st1" cx="252.9" cy="450.5" r="8.6"/>
<circle class="st0" cx="252.1" cy="416.7" r="8.6"/>
<ellipse transform="matrix(0.6 -0.8 0.8 0.6 -205.7947 354.2214)" class="st1" cx="251.3" cy="382.9" rx="8.6" ry="8.6"/>
<circle class="st0" cx="250.4" cy="349.1" r="8.6"/>
<circle class="st1" cx="249.6" cy="315.3" r="8.6"/>
<circle class="st0" cx="221.5" cy="552.2" r="8.6"/>
<circle class="st1" cx="220.7" cy="518.4" r="8.6"/>
<circle class="st0" cx="219.9" cy="484.6" r="8.6"/>
<circle class="st1" cx="219.1" cy="450.8" r="8.6"/>
<circle class="st0" cx="218.2" cy="416.9" r="8.6"/>
<circle class="st1" cx="217.4" cy="383.1" r="8.6"/>
<circle class="st0" cx="216.6" cy="349.3" r="8.6"/>
<circle class="st1" cx="215.8" cy="315.5" r="8.6"/>
<circle class="st0" cx="187.7" cy="552.4" r="8.6"/>
<circle class="st1" cx="186.9" cy="518.6" r="8.6"/>
<circle class="st0" cx="186" cy="484.8" r="8.6"/>
<circle class="st1" cx="185.2" cy="451" r="8.6"/>
<circle class="st0" cx="184.4" cy="417.2" r="8.6"/>
<circle class="st1" cx="183.6" cy="383.3" r="8.6"/>
<circle class="st0" cx="182.8" cy="349.5" r="8.6"/>
<circle class="st1" cx="182" cy="315.7" r="8.6"/>
<circle class="st0" cx="153.8" cy="552.7" r="8.6"/>
<circle class="st1" cx="153" cy="518.8" r="8.6"/>
<circle class="st0" cx="152.2" cy="485" r="8.6"/>
<circle class="st1" cx="151.4" cy="451.2" r="8.6"/>
<circle class="st0" cx="150.6" cy="417.4" r="8.6"/>
<circle class="st1" cx="149.8" cy="383.6" r="8.6"/>
<circle class="st0" cx="149" cy="349.7" r="8.6"/>
<circle class="st1" cx="148.1" cy="315.9" r="8.6"/>
<ellipse transform="matrix(0.1327 -0.9912 0.9912 0.1327 -443.9046 598.4023)" class="st0" cx="120" cy="552.9" rx="8.6" ry="8.6"/>
<circle class="st1" cx="119.2" cy="519.1" r="8.6"/>
<circle class="st0" cx="118.4" cy="485.2" r="8.6"/>
<circle class="st1" cx="117.6" cy="451.4" r="8.6"/>
<circle class="st0" cx="116.8" cy="417.6" r="8.6"/>
<circle class="st1" cx="115.9" cy="383.8" r="8.6"/>
<circle class="st0" cx="115.1" cy="350" r="8.6"/>
<circle class="st1" cx="114.3" cy="316.1" r="8.6"/>
<circle class="st0" cx="86.2" cy="553.1" r="8.6"/>
<circle class="st1" cx="85.4" cy="519.3" r="8.6"/>
<circle class="st0" cx="84.6" cy="485.5" r="8.6"/>
<circle class="st1" cx="83.7" cy="451.6" r="8.6"/>
<circle class="st0" cx="82.9" cy="417.8" r="8.6"/>
<circle class="st1" cx="82.1" cy="384" r="8.6"/>
<circle class="st0" cx="81.3" cy="350.2" r="8.6"/>
<circle class="st1" cx="80.5" cy="316.4" r="8.6"/>
<circle class="st0" cx="52.4" cy="553.3" r="8.6"/>
<circle class="st1" cx="51.5" cy="519.5" r="8.6"/>
<circle class="st0" cx="50.7" cy="485.7" r="8.6"/>
<circle class="st1" cx="49.9" cy="451.9" r="8.6"/>
<circle class="st0" cx="49.1" cy="418.1" r="8.6"/>
<circle class="st1" cx="48.3" cy="384.2" r="8.6"/>
<circle class="st0" cx="47.5" cy="350.4" r="8.6"/>
<circle class="st1" cx="46.7" cy="316.6" r="8.6"/>
<circle class="st1" cx="320" cy="249.2" r="8.6"/>
<circle class="st0" cx="319.3" cy="215.4" r="8.6"/>
<circle class="st1" cx="318.5" cy="181.6" r="8.6"/>
<circle class="st0" cx="317.8" cy="147.7" r="8.6"/>
<circle class="st1" cx="317.1" cy="113.9" r="8.6"/>
<circle class="st0" cx="316.4" cy="80.1" r="8.6"/>
<circle class="st1" cx="315.6" cy="46.3" r="8.6"/>
<circle class="st0" cx="286.9" cy="283.2" r="8.6"/>
<circle class="st1" cx="286.2" cy="249.3" r="8.6"/>
<ellipse class="st0" cx="285.4" cy="215.5" rx="8.6" ry="8.6"/>
<circle class="st1" cx="284.7" cy="181.7" r="8.6"/>
<circle class="st0" cx="284" cy="147.9" r="8.6"/>
<circle class="st1" cx="283.3" cy="114.1" r="8.6"/>
<circle class="st0" cx="282.5" cy="80.2" r="8.6"/>
<circle class="st1" cx="281.8" cy="46.4" r="8.6"/>
<circle class="st0" cx="253.1" cy="283.3" r="8.6"/>
<ellipse transform="matrix(0.6 -0.8 0.8 0.6 -98.6725 301.6554)" class="st1" cx="252.3" cy="249.5" rx="8.6" ry="8.6"/>
<circle class="st0" cx="251.6" cy="215.7" r="8.6"/>
<circle class="st1" cx="250.9" cy="181.8" r="8.6"/>
<circle class="st0" cx="250.1" cy="148" r="8.6"/>
<circle class="st1" cx="249.4" cy="114.2" r="8.6"/>
<circle class="st0" cx="248.7" cy="80.4" r="8.6"/>
<circle class="st1" cx="248" cy="46.6" r="8.6"/>
<circle class="st0" cx="219.2" cy="283.4" r="8.6"/>
<circle class="st1" cx="218.5" cy="249.6" r="8.6"/>
<circle class="st0" cx="217.8" cy="215.8" r="8.6"/>
<circle class="st1" cx="217" cy="182" r="8.6"/>
<circle class="st0" cx="216.3" cy="148.2" r="8.6"/>
<circle class="st1" cx="215.6" cy="114.3" r="8.6"/>
<circle class="st0" cx="214.9" cy="80.5" r="8.6"/>
<circle class="st1" cx="214.1" cy="46.7" r="8.6"/>
<circle class="st0" cx="185.4" cy="283.6" r="8.6"/>
<ellipse transform="matrix(0.9867 -0.1625 0.1625 0.9867 -38.1376 33.334)" class="st1" cx="184.7" cy="249.8" rx="8.6" ry="8.6"/>
<circle class="st0" cx="183.9" cy="215.9" r="8.6"/>
<circle class="st1" cx="183.2" cy="182.1" r="8.6"/>
<circle class="st0" cx="182.5" cy="148.3" r="8.6"/>
<circle class="st1" cx="181.8" cy="114.5" r="8.6"/>
<circle class="st0" cx="181" cy="80.6" r="8.6"/>
<circle class="st1" cx="180.3" cy="46.8" r="8.6"/>
<circle class="st0" cx="151.6" cy="283.7" r="8.6"/>
<circle class="st1" cx="150.8" cy="249.9" r="8.6"/>
<circle class="st0" cx="150.1" cy="216.1" r="8.6"/>
<circle class="st1" cx="149.4" cy="182.2" r="8.6"/>
<circle class="st0" cx="148.7" cy="148.4" r="8.6"/>
<circle class="st1" cx="147.9" cy="114.6" r="8.6"/>
<circle class="st0" cx="147.2" cy="80.8" r="8.6"/>
<circle class="st1" cx="146.5" cy="47" r="8.6"/>
<circle class="st0" cx="117.7" cy="283.8" r="8.6"/>
<circle class="st1" cx="117" cy="250" r="8.6"/>
<circle class="st0" cx="116.3" cy="216.2" r="8.6"/>
<circle class="st1" cx="115.6" cy="182.4" r="8.6"/>
<circle class="st0" cx="114.8" cy="148.6" r="8.6"/>
<circle class="st1" cx="114.1" cy="114.7" r="8.6"/>
<circle class="st0" cx="113.4" cy="80.9" r="8.6"/>
<circle class="st1" cx="112.7" cy="47.1" r="8.6"/>
<ellipse class="st0" cx="83.9" cy="284" rx="8.6" ry="8.6"/>
<circle class="st1" cx="83.2" cy="250.2" r="8.6"/>
<circle class="st0" cx="82.5" cy="216.3" r="8.6"/>
<circle class="st1" cx="81.7" cy="182.5" r="8.6"/>
<circle class="st0" cx="81" cy="148.7" r="8.6"/>
<circle class="st1" cx="80.3" cy="114.9" r="8.6"/>
<circle class="st0" cx="79.6" cy="81.1" r="8.6"/>
<circle class="st1" cx="78.8" cy="47.2" r="8.6"/>
<circle class="st0" cx="50.1" cy="284.1" r="8.6"/>
<circle class="st1" cx="49.4" cy="250.3" r="8.6"/>
<circle class="st0" cx="48.6" cy="216.5" r="8.6"/>
<circle class="st1" cx="47.9" cy="182.7" r="8.6"/>
<circle class="st0" cx="47.2" cy="148.8" r="8.6"/>
<circle class="st1" cx="46.5" cy="115" r="8.6"/>
<circle class="st0" cx="45.7" cy="81.2" r="8.6"/>
<circle class="st1" cx="45" cy="47.4" r="8.6"/>
<circle class="st0" cx="556.3" cy="554.1" r="8.6"/>
<circle class="st1" cx="555.5" cy="520.3" r="8.6"/>
<circle class="st0" cx="554.7" cy="486.5" r="8.6"/>
<circle class="st1" cx="553.9" cy="452.7" r="8.6"/>
<circle class="st0" cx="553.1" cy="418.8" r="8.6"/>
<circle class="st1" cx="552.3" cy="385" r="8.6"/>
<circle class="st0" cx="551.4" cy="351.2" r="8.6"/>
<ellipse transform="matrix(0.9867 -0.1625 0.1625 0.9867 -44.2592 93.6912)" class="st1" cx="550.6" cy="317.4" rx="8.6" ry="8.6"/>
<circle class="st0" cx="549.8" cy="283.6" r="8.6"/>
<circle class="st0" cx="522.5" cy="554.3" r="8.6"/>
<circle class="st1" cx="521.7" cy="520.5" r="8.6"/>
<circle class="st0" cx="520.9" cy="486.7" r="8.6"/>
<ellipse transform="matrix(0.6 -0.8 0.8 0.6 -154.2635 597.2689)" class="st1" cx="520.1" cy="452.9" rx="8.6" ry="8.6"/>
<ellipse transform="matrix(0.6 -0.8 0.8 0.6 -127.5831 583.0273)" class="st0" cx="519.2" cy="419.1" rx="8.6" ry="8.6"/>
<ellipse transform="matrix(0.6 -0.8 0.8 0.6 -100.7826 568.8257)" class="st1" cx="518.4" cy="385.2" rx="8.6" ry="8.6"/>
<ellipse transform="matrix(0.6 -0.8 0.8 0.6 -74.0621 554.6642)" class="st0" cx="517.6" cy="351.4" rx="8.6" ry="8.6"/>
<ellipse transform="matrix(0.6 -0.8 0.8 0.6 -47.3416 540.5027)" class="st1" cx="516.8" cy="317.6" rx="8.6" ry="8.6"/>
<ellipse transform="matrix(0.6 -0.8 0.8 0.6 -20.621 526.3409)" class="st0" cx="516" cy="283.8" rx="8.6" ry="8.6"/>
<circle class="st0" cx="488.7" cy="554.6" r="8.6"/>
<circle class="st1" cx="487.9" cy="520.7" r="8.6"/>
<circle class="st0" cx="487.1" cy="486.9" r="8.6"/>
<circle class="st1" cx="486.2" cy="453.1" r="8.6"/>
<circle class="st0" cx="485.4" cy="419.3" r="8.6"/>
<circle class="st1" cx="484.6" cy="385.5" r="8.6"/>
<circle class="st0" cx="483.8" cy="351.7" r="8.6"/>
<circle class="st1" cx="483" cy="317.8" r="8.6"/>
<circle class="st0" cx="482.2" cy="284" r="8.6"/>
<circle class="st0" cx="454.9" cy="554.8" r="8.6"/>
<circle class="st1" cx="454" cy="521" r="8.6"/>
<circle class="st0" cx="453.2" cy="487.2" r="8.6"/>
<circle class="st1" cx="452.4" cy="453.3" r="8.6"/>
<circle class="st0" cx="451.6" cy="419.5" r="8.6"/>
<circle class="st1" cx="450.8" cy="385.7" r="8.6"/>
<ellipse class="st0" cx="450" cy="351.9" rx="8.6" ry="8.6"/>
<circle class="st1" cx="449.1" cy="318.1" r="8.6"/>
<circle class="st0" cx="448.3" cy="284.2" r="8.6"/>
<circle class="st0" cx="421" cy="555" r="8.6"/>
<circle class="st1" cx="420.2" cy="521.2" r="8.6"/>
<circle class="st0" cx="419.4" cy="487.4" r="8.6"/>
<circle class="st1" cx="418.6" cy="453.6" r="8.6"/>
<circle class="st0" cx="417.8" cy="419.7" r="8.6"/>
<circle class="st1" cx="417" cy="385.9" r="8.6"/>
<circle class="st0" cx="416.1" cy="352.1" r="8.6"/>
<circle class="st1" cx="415.3" cy="318.3" r="8.6"/>
<circle class="st0" cx="414.5" cy="284.5" r="8.6"/>
<circle class="st0" cx="387.2" cy="555.2" r="8.6"/>
<circle class="st1" cx="386.4" cy="521.4" r="8.6"/>
<circle class="st0" cx="385.6" cy="487.6" r="8.6"/>
<circle class="st1" cx="384.8" cy="453.8" r="8.6"/>
<circle class="st0" cx="383.9" cy="420" r="8.6"/>
<circle class="st1" cx="383.1" cy="386.1" r="8.6"/>
<circle class="st0" cx="382.3" cy="352.3" r="8.6"/>
<circle class="st1" cx="381.5" cy="318.5" r="8.6"/>
<circle class="st0" cx="380.7" cy="284.7" r="8.6"/>
<circle class="st0" cx="353.4" cy="555.5" r="8.6"/>
<circle class="st1" cx="352.6" cy="521.6" r="8.6"/>
<circle class="st0" cx="351.7" cy="487.8" r="8.6"/>
<circle class="st1" cx="350.9" cy="454" r="8.6"/>
<circle class="st0" cx="350.1" cy="420.2" r="8.6"/>
<ellipse class="st1" cx="349.3" cy="386.4" rx="8.6" ry="8.6"/>
<circle class="st0" cx="348.5" cy="352.6" r="8.6"/>
<circle class="st1" cx="347.7" cy="318.7" r="8.6"/>
<circle class="st0" cx="346.9" cy="284.9" r="8.6"/>
<circle class="st1" cx="553.3" cy="251.6" r="8.6"/>
<circle class="st0" cx="552.5" cy="217.8" r="8.6"/>
<circle class="st1" cx="551.8" cy="184" r="8.6"/>
<circle class="st0" cx="551.1" cy="150.2" r="8.6"/>
<circle class="st1" cx="550.3" cy="116.3" r="8.6"/>
<circle class="st0" cx="549.6" cy="82.5" r="8.6"/>
<circle class="st1" cx="548.9" cy="48.7" r="8.6"/>
<ellipse transform="matrix(0.9231 -0.3846 0.3846 0.9231 -56.8883 219.1273)" class="st1" cx="519.4" cy="251.8" rx="8.6" ry="8.6"/>
<ellipse transform="matrix(0.6 -0.8 0.8 0.6 33.1801 502.1381)" class="st0" cx="518.7" cy="217.9" rx="8.6" ry="8.6"/>
<ellipse transform="matrix(0.6 -0.8 0.8 0.6 59.9407 488.0566)" class="st1" cx="518" cy="184.1" rx="8.6" ry="8.6"/>
<ellipse transform="matrix(0.6 -0.8 0.8 0.6 86.6612 473.8951)" class="st0" cx="517.2" cy="150.3" rx="8.6" ry="8.6"/>
<ellipse transform="matrix(0.8 -0.5999 0.5999 0.8 33.3708 333.1443)" class="st1" cx="516.5" cy="116.5" rx="8.6" ry="8.6"/>
<ellipse transform="matrix(0.8 -0.5999 0.5999 0.8 53.5678 325.9469)" class="st0" cx="515.8" cy="82.6" rx="8.6" ry="8.6"/>
<ellipse transform="matrix(0.6897 -0.7241 0.7241 0.6897 124.5199 388.1815)" class="st1" cx="515.2" cy="48.8" rx="8.6" ry="8.6"/>
<circle class="st1" cx="485.6" cy="251.9" r="8.6"/>
<circle class="st0" cx="484.9" cy="218.1" r="8.6"/>
<circle class="st1" cx="484.1" cy="184.2" r="8.6"/>
<circle class="st0" cx="483.4" cy="150.4" r="8.6"/>
<circle class="st1" cx="482.7" cy="116.6" r="8.6"/>
<circle class="st0" cx="482" cy="82.8" r="8.6"/>
<circle class="st1" cx="481.2" cy="49" r="8.6"/>
<circle class="st1" cx="451.8" cy="252" r="8.6"/>
<circle class="st0" cx="451" cy="218.2" r="8.6"/>
<circle class="st1" cx="450.3" cy="184.4" r="8.6"/>
<circle class="st0" cx="449.6" cy="150.6" r="8.6"/>
<circle class="st1" cx="448.9" cy="116.7" r="8.6"/>
<circle class="st0" cx="448.1" cy="82.9" r="8.6"/>
<circle class="st1" cx="447.4" cy="49.1" r="8.6"/>
<circle class="st1" cx="417.9" cy="252.2" r="8.6"/>
<circle class="st0" cx="417.2" cy="218.3" r="8.6"/>
<circle class="st1" cx="416.5" cy="184.5" r="8.6"/>
<circle class="st0" cx="415.8" cy="150.7" r="8.6"/>
<circle class="st1" cx="415" cy="116.9" r="8.6"/>
<circle class="st0" cx="414.3" cy="83.1" r="8.6"/>
<circle class="st1" cx="413.6" cy="49.2" r="8.6"/>
<circle class="st1" cx="384.1" cy="252.3" r="8.6"/>
<circle class="st0" cx="383.4" cy="218.5" r="8.6"/>
<circle class="st1" cx="382.7" cy="184.7" r="8.6"/>
<circle class="st0" cx="381.9" cy="150.8" r="8.6"/>
<circle class="st1" cx="381.2" cy="117" r="8.6"/>
<circle class="st0" cx="380.5" cy="83.2" r="8.6"/>
<circle class="st1" cx="379.8" cy="49.4" r="8.6"/>
<circle class="st1" cx="350.3" cy="252.4" r="8.6"/>
<circle class="st0" cx="349.6" cy="218.6" r="8.6"/>
<circle class="st1" cx="348.8" cy="184.8" r="8.6"/>
<circle class="st0" cx="348.1" cy="151" r="8.6"/>
<circle class="st1" cx="347.4" cy="117.1" r="8.6"/>
<circle class="st0" cx="346.6" cy="83.3" r="8.6"/>
<circle class="st1" cx="345.9" cy="49.5" r="8.6"/>
<circle class="st0" cx="316.9" cy="15.4" r="8.6"/>
<circle class="st0" cx="283.1" cy="15.6" r="8.6"/>
<circle class="st0" cx="249.3" cy="15.8" r="8.6"/>
<circle class="st0" cx="215.5" cy="16" r="8.6"/>
<circle class="st0" cx="181.6" cy="16.3" r="8.6"/>
<circle class="st0" cx="147.8" cy="16.5" r="8.6"/>
<circle class="st0" cx="114" cy="16.7" r="8.6"/>
<circle class="st0" cx="80.2" cy="16.9" r="8.6"/>
<circle class="st0" cx="46.3" cy="17.2" r="8.6"/>
<circle class="st1" cx="11.2" cy="47.5" r="8.6"/>
<circle class="st0" cx="10.4" cy="13.7" r="8.6"/>
<circle class="st0" cx="550.3" cy="17.9" r="8.6"/>
<circle class="st0" cx="18.1" cy="553.2" r="8.6"/>
<circle class="st1" cx="17.2" cy="519.4" r="8.6"/>
<circle class="st0" cx="16.4" cy="485.6" r="8.6"/>
<circle class="st1" cx="15.6" cy="451.7" r="8.6"/>
<circle class="st0" cx="14.8" cy="417.9" r="8.6"/>
<circle class="st1" cx="14" cy="384.1" r="8.6"/>
<ellipse class="st0" cx="13.2" cy="350.3" rx="8.6" ry="8.6"/>
<circle class="st1" cx="12.4" cy="316.5" r="8.6"/>
<ellipse transform="matrix(0.7423 -0.6701 0.6701 0.7423 120.9292 350.7909)" class="st0" cx="516.5" cy="18.2" rx="8.6" ry="8.6"/>
<circle class="st0" cx="482.6" cy="18.4" r="8.6"/>
<circle class="st0" cx="448.8" cy="18.6" r="8.6"/>
<circle class="st0" cx="415" cy="18.8" r="8.6"/>
<circle class="st0" cx="381.2" cy="19.1" r="8.6"/>
<circle class="st0" cx="347.3" cy="19.3" r="8.6"/>
<circle class="st0" cx="15.8" cy="284.5" r="8.6"/>
<circle class="st1" cx="15.1" cy="250.7" r="8.6"/>
<circle class="st0" cx="14.3" cy="216.9" r="8.6"/>
<circle class="st1" cx="13.6" cy="183.1" r="8.6"/>
<circle class="st0" cx="12.9" cy="149.2" r="8.6"/>
<circle class="st1" cx="12.2" cy="115.4" r="8.6"/>
<circle class="st0" cx="11.4" cy="81.6" r="8.6"/>
<circle class="st0" cx="619" cy="490.2" r="8.6"/>
<circle class="st1" cx="618.2" cy="456.4" r="8.6"/>
<circle class="st0" cx="617.3" cy="422.5" r="8.6"/>
<circle class="st1" cx="616.5" cy="388.7" r="8.6"/>
<circle class="st0" cx="615.7" cy="354.9" r="8.6"/>
<circle class="st1" cx="614.9" cy="321.1" r="8.6"/>
<circle class="st0" cx="614.1" cy="287.3" r="8.6"/>
<circle class="st1" cx="613.3" cy="253.5" r="8.6"/>
<circle class="st0" cx="321.4" cy="613.5" r="8.6"/>
<circle class="st0" cx="287.6" cy="613.6" r="8.6"/>
<ellipse transform="matrix(0.9231 -0.3846 0.3846 0.9231 -216.5557 144.8418)" class="st0" cx="253.8" cy="613.8" rx="8.6" ry="8.6"/>
<circle class="st0" cx="220" cy="613.9" r="8.6"/>
<circle class="st0" cx="186.1" cy="614.1" r="8.6"/>
<circle class="st0" cx="152.3" cy="614.2" r="8.6"/>
<circle class="st0" cx="622.6" cy="622.8" r="8.6"/>
<circle class="st1" cx="621.9" cy="588.9" r="8.6"/>
<circle class="st0" cx="621.2" cy="555.1" r="8.6"/>
<circle class="st1" cx="620.5" cy="521.3" r="8.6"/>
<circle class="st0" cx="118.5" cy="614.3" r="8.6"/>
<circle class="st0" cx="588.8" cy="622.9" r="8.6"/>
<circle class="st1" cx="588.1" cy="589.1" r="8.6"/>
<circle class="st0" cx="587.4" cy="555.3" r="8.6"/>
<circle class="st1" cx="586.6" cy="521.4" r="8.6"/>
<circle class="st0" cx="84.6" cy="614.5" r="8.6"/>
<circle class="st0" cx="616.7" cy="221" r="8.6"/>
<circle class="st1" cx="616" cy="187.2" r="8.6"/>
<circle class="st0" cx="615.2" cy="153.3" r="8.6"/>
<circle class="st1" cx="614.5" cy="119.5" r="8.6"/>
<circle class="st0" cx="613.8" cy="85.7" r="8.6"/>
<circle class="st1" cx="613.1" cy="51.9" r="8.6"/>
<circle class="st0" cx="612.3" cy="18" r="8.6"/>
<circle class="st0" cx="50.8" cy="614.6" r="8.6"/>
<circle class="st0" cx="554.7" cy="615.9" r="8.6"/>
<circle class="st0" cx="520.9" cy="616.1" r="8.6"/>
<circle class="st0" cx="487.1" cy="616.2" r="8.6"/>
<circle class="st0" cx="453.2" cy="616.3" r="8.6"/>
<circle class="st0" cx="419.4" cy="616.5" r="8.6"/>
<circle class="st0" cx="385.6" cy="616.6" r="8.6"/>
<circle class="st0" cx="351.7" cy="616.7" r="8.6"/>
<circle class="st1" cx="322.8" cy="582.6" r="8.6"/>
<circle class="st1" cx="288.9" cy="582.8" r="8.6"/>
<circle class="st1" cx="255.1" cy="583" r="8.6"/>
<circle class="st1" cx="221.3" cy="583.3" r="8.6"/>
<circle class="st1" cx="187.5" cy="583.5" r="8.6"/>
<circle class="st1" cx="153.6" cy="583.7" r="8.6"/>
<ellipse transform="matrix(0.1327 -0.9912 0.9912 0.1327 -474.8016 625.0871)" class="st1" cx="119.8" cy="583.9" rx="8.6" ry="8.6"/>
<circle class="st1" cx="86" cy="584.2" r="8.6"/>
<circle class="st1" cx="52.1" cy="584.4" r="8.6"/>
<circle class="st0" cx="17" cy="614.8" r="8.6"/>
<circle class="st1" cx="16.3" cy="581" r="8.6"/>
<circle class="st1" cx="556.1" cy="585.2" r="8.6"/>
<circle class="st0" cx="584.7" cy="490" r="8.6"/>
<circle class="st1" cx="583.9" cy="456.2" r="8.6"/>
<circle class="st0" cx="583" cy="422.4" r="8.6"/>
<circle class="st1" cx="582.2" cy="388.6" r="8.6"/>
<circle class="st0" cx="581.4" cy="354.8" r="8.6"/>
<circle class="st1" cx="580.6" cy="321" r="8.6"/>
<ellipse transform="matrix(0.9867 -0.1625 0.1625 0.9867 -38.9473 98.0335)" class="st0" cx="579.8" cy="287.1" rx="8.6" ry="8.6"/>
<circle class="st1" cx="579" cy="253.3" r="8.6"/>
<circle class="st1" cx="522.3" cy="585.4" r="8.6"/>
<circle class="st1" cx="488.5" cy="585.6" r="8.6"/>
<circle class="st1" cx="454.6" cy="585.8" r="8.6"/>
<circle class="st1" cx="420.8" cy="586.1" r="8.6"/>
<circle class="st1" cx="387" cy="586.3" r="8.6"/>
<circle class="st1" cx="353.2" cy="586.5" r="8.6"/>
<circle class="st0" cx="582.4" cy="221.4" r="8.6"/>
<circle class="st1" cx="581.7" cy="187.5" r="8.6"/>
<circle class="st0" cx="581" cy="153.7" r="8.6"/>
<circle class="st1" cx="580.2" cy="119.9" r="8.6"/>
<circle class="st0" cx="579.5" cy="86.1" r="8.6"/>
<circle class="st0" cx="578.8" cy="52.3" r="8.6"/>
<circle class="st0" cx="578" cy="18.4" r="8.6"/>
</svg>
