<svg xmlns="http://www.w3.org/2000/svg" viewBox="0 0 512.15 488.72"><defs><style>.cls-1{fill:none;stroke:#fff;stroke-miterlimit:10;stroke-width:4px;}</style></defs><title>アセット 15</title><g id="レイヤー_2" data-name="レイヤー 2"><g id="レイヤー_2-2" data-name="レイヤー 2"><ellipse class="cls-1" cx="256.08" cy="244.36" rx="254.08" ry="242.36"/><ellipse class="cls-1" cx="256.08" cy="244.36" rx="247.88" ry="236.45"/><ellipse class="cls-1" cx="256.08" cy="244.36" rx="241.68" ry="230.54"/><ellipse class="cls-1" cx="256.08" cy="244.36" rx="235.48" ry="224.63"/><ellipse class="cls-1" cx="256.08" cy="244.36" rx="229.29" ry="218.72"/><ellipse class="cls-1" cx="256.08" cy="244.36" rx="223.09" ry="212.8"/><ellipse class="cls-1" cx="256.08" cy="244.36" rx="216.89" ry="206.89"/><ellipse class="cls-1" cx="256.08" cy="244.36" rx="210.7" ry="200.98"/><ellipse class="cls-1" cx="256.08" cy="244.36" rx="204.5" ry="195.07"/><ellipse class="cls-1" cx="256.08" cy="244.36" rx="198.3" ry="189.16"/><ellipse class="cls-1" cx="256.08" cy="244.36" rx="192.11" ry="183.25"/><ellipse class="cls-1" cx="256.08" cy="244.36" rx="185.91" ry="177.34"/><ellipse class="cls-1" cx="256.08" cy="244.36" rx="179.71" ry="171.43"/><ellipse class="cls-1" cx="256.08" cy="244.36" rx="173.52" ry="165.51"/><ellipse class="cls-1" cx="256.08" cy="244.36" rx="167.32" ry="159.6"/><ellipse class="cls-1" cx="256.08" cy="244.36" rx="161.12" ry="153.69"/><ellipse class="cls-1" cx="256.08" cy="244.36" rx="154.92" ry="147.78"/><ellipse class="cls-1" cx="256.08" cy="244.36" rx="148.73" ry="141.87"/><ellipse class="cls-1" cx="256.08" cy="244.36" rx="142.53" ry="135.96"/><ellipse class="cls-1" cx="256.08" cy="244.36" rx="136.33" ry="130.05"/><ellipse class="cls-1" cx="256.08" cy="244.36" rx="130.14" ry="124.14"/><ellipse class="cls-1" cx="256.08" cy="244.36" rx="123.94" ry="118.22"/><ellipse class="cls-1" cx="256.08" cy="244.36" rx="117.74" ry="112.31"/><ellipse class="cls-1" cx="256.08" cy="244.36" rx="111.55" ry="106.4"/><ellipse class="cls-1" cx="256.08" cy="244.36" rx="105.35" ry="100.49"/><ellipse class="cls-1" cx="256.08" cy="244.36" rx="99.15" ry="94.58"/><ellipse class="cls-1" cx="256.08" cy="244.36" rx="92.95" ry="88.67"/><ellipse class="cls-1" cx="256.08" cy="244.36" rx="86.76" ry="82.76"/><ellipse class="cls-1" cx="256.08" cy="244.36" rx="80.56" ry="76.85"/><ellipse class="cls-1" cx="256.08" cy="244.36" rx="74.36" ry="70.93"/><ellipse class="cls-1" cx="256.08" cy="244.36" rx="68.17" ry="65.02"/><ellipse class="cls-1" cx="256.08" cy="244.36" rx="61.97" ry="59.11"/><ellipse class="cls-1" cx="256.08" cy="244.36" rx="55.77" ry="53.2"/><ellipse class="cls-1" cx="256.08" cy="244.36" rx="49.58" ry="47.29"/><ellipse class="cls-1" cx="256.08" cy="244.36" rx="43.38" ry="41.38"/><ellipse class="cls-1" cx="256.08" cy="244.36" rx="37.18" ry="35.47"/><ellipse class="cls-1" cx="256.08" cy="244.36" rx="30.98" ry="29.56"/><ellipse class="cls-1" cx="256.08" cy="244.36" rx="24.79" ry="23.64"/><ellipse class="cls-1" cx="256.08" cy="244.36" rx="18.59" ry="17.73"/><ellipse class="cls-1" cx="256.08" cy="244.36" rx="12.39" ry="11.82"/><ellipse class="cls-1" cx="256.08" cy="244.36" rx="6.2" ry="5.91"/></g></g></svg>