<svg xmlns="http://www.w3.org/2000/svg" xmlns:xlink="http://www.w3.org/1999/xlink" viewBox="0 0 1308 711"><defs><style>.cls-1{fill:none;}.cls-2{fill:#231815;}.cls-3{fill:url(#_6_dpi_90_);}</style><pattern id="_6_dpi_90_" data-name="6 dpi 90%" width="48" height="48" patternTransform="matrix(1, 0, 0, -1, 28, 796)" patternUnits="userSpaceOnUse" viewBox="0 0 48 48"><rect class="cls-1" width="48" height="48"/><path class="cls-2" d="M24,58.8A10.8,10.8,0,1,0,13.2,48,10.81,10.81,0,0,0,24,58.8Z"/><circle class="cls-2" cx="48" cy="48" r="10.8"/><path class="cls-2" d="M24,34.8A10.8,10.8,0,1,0,13.2,24,10.81,10.81,0,0,0,24,34.8Z"/><circle class="cls-2" cx="48" cy="24" r="10.8"/><path class="cls-2" d="M36,46.8A10.8,10.8,0,1,0,25.2,36,10.81,10.81,0,0,0,36,46.8Z"/><path class="cls-2" d="M12,46.8A10.8,10.8,0,1,0,1.2,36,10.81,10.81,0,0,0,12,46.8Z"/><path class="cls-2" d="M36,22.8A10.8,10.8,0,1,0,25.2,12,10.81,10.81,0,0,0,36,22.8Z"/><path class="cls-2" d="M12,22.8A10.8,10.8,0,1,0,1.2,12,10.81,10.81,0,0,0,12,22.8Z"/><circle class="cls-2" cy="48" r="10.8"/><circle class="cls-2" cy="24" r="10.8"/><path class="cls-2" d="M24,10.8A10.81,10.81,0,0,0,34.8,0,10.8,10.8,0,1,0,13.2,0,10.81,10.81,0,0,0,24,10.8Z"/><circle class="cls-2" cx="48" r="10.8"/><circle class="cls-2" r="10.8"/></pattern></defs><title>100</title><g id="レイヤー_2" data-name="レイヤー 2"><g id="レイヤー_1-2" data-name="レイヤー 1"><g id="レイヤー_2-2" data-name="レイヤー 2"><g id="レイヤー_5" data-name="レイヤー 5"><rect class="cls-3" width="1308" height="711"/></g></g></g></g></svg>