<?xml version="1.0" encoding="utf-8"?>
<!-- Generator: Adobe Illustrator 22.1.0, SVG Export Plug-In . SVG Version: 6.00 Build 0)  -->
<svg version="1.1" id="レイヤー_1" xmlns="http://www.w3.org/2000/svg" xmlns:xlink="http://www.w3.org/1999/xlink" x="0px"
	 y="0px" viewBox="0 0 1309 712" style="enable-background:new 0 0 1309 712;" xml:space="preserve">
<style type="text/css">
	.st0{fill:none;}
	.st1{fill:#231815;}
	.st2{fill:url(#_x36__dpi_40_x25_);}
</style>
<pattern  y="712" width="48" height="48" patternUnits="userSpaceOnUse" id="_x36__dpi_40_x25_" viewBox="4.8 -52.8 48 48" style="overflow:visible;">
	<g>
		<rect x="4.8" y="-52.8" class="st0" width="48" height="48"/>
		<g>
			<path class="st1" d="M28.8,0c2.7,0,4.8-2.1,4.8-4.8c0-2.7-2.1-4.8-4.8-4.8c-2.7,0-4.8,2.2-4.8,4.8C24-2.1,26.1,0,28.8,0z"/>
			<path class="st1" d="M52.8,0c2.7,0,4.8-2.1,4.8-4.8c0-2.7-2.1-4.8-4.8-4.8c-2.7,0-4.8,2.2-4.8,4.8C48-2.1,50.1,0,52.8,0z"/>
			<path class="st1" d="M28.8-24c2.7,0,4.8-2.1,4.8-4.8c0-2.7-2.1-4.8-4.8-4.8c-2.7,0-4.8,2.1-4.8,4.8C24-26.1,26.1-24,28.8-24z"/>
			<path class="st1" d="M52.8-24c2.7,0,4.8-2.1,4.8-4.8c0-2.7-2.1-4.8-4.8-4.8c-2.7,0-4.8,2.1-4.8,4.8C48-26.1,50.1-24,52.8-24z"/>
			<path class="st1" d="M40.8-12c2.7,0,4.8-2.1,4.8-4.8c0-2.7-2.1-4.8-4.8-4.8c-2.7,0-4.8,2.2-4.8,4.8C36-14.1,38.1-12,40.8-12z"/>
			<path class="st1" d="M16.8-12c2.7,0,4.8-2.1,4.8-4.8c0-2.7-2.1-4.8-4.8-4.8c-2.7,0-4.8,2.2-4.8,4.8C12-14.1,14.1-12,16.8-12z"/>
			<path class="st1" d="M40.8-36c2.7,0,4.8-2.1,4.8-4.8c0-2.7-2.1-4.8-4.8-4.8c-2.7,0-4.8,2.1-4.8,4.8C36-38.1,38.1-36,40.8-36z"/>
			<path class="st1" d="M16.8-36c2.7,0,4.8-2.1,4.8-4.8c0-2.7-2.1-4.8-4.8-4.8c-2.7,0-4.8,2.1-4.8,4.8C12-38.1,14.1-36,16.8-36z"/>
		</g>
		<g>
			<path class="st1" d="M4.8,0c2.7,0,4.8-2.1,4.8-4.8c0-2.7-2.1-4.8-4.8-4.8C2.1-9.6,0-7.5,0-4.8C0-2.1,2.1,0,4.8,0z"/>
			<path class="st1" d="M4.8-24c2.7,0,4.8-2.1,4.8-4.8c0-2.7-2.1-4.8-4.8-4.8c-2.7,0-4.8,2.1-4.8,4.8C0-26.1,2.1-24,4.8-24z"/>
		</g>
		<g>
			<path class="st1" d="M28.8-48c2.7,0,4.8-2.1,4.8-4.8c0-2.7-2.1-4.8-4.8-4.8c-2.7,0-4.8,2.2-4.8,4.8C24-50.1,26.1-48,28.8-48z"/>
			<path class="st1" d="M52.8-48c2.7,0,4.8-2.1,4.8-4.8c0-2.7-2.1-4.8-4.8-4.8c-2.7,0-4.8,2.2-4.8,4.8C48-50.1,50.1-48,52.8-48z"/>
		</g>
		<g>
			<path class="st1" d="M4.8-48c2.7,0,4.8-2.1,4.8-4.8c0-2.7-2.1-4.8-4.8-4.8c-2.7,0-4.8,2.2-4.8,4.8C0-50.1,2.1-48,4.8-48z"/>
		</g>
	</g>
</pattern>
<title>アセット 16</title>
<g id="レイヤー_2_1_">
	<g id="レイヤー_5">
		<rect x="0.5" y="0.5" class="st2" width="1308" height="711"/>
	</g>
</g>
</svg>
