<svg xmlns="http://www.w3.org/2000/svg" xmlns:xlink="http://www.w3.org/1999/xlink" viewBox="0 0 374 374"><defs><style>.cls-1,.cls-2{fill:none;}.cls-2{stroke:#231815;stroke-linecap:square;stroke-width:0.3px;}.cls-3{fill:url(#USGS_8_下水処理);}</style><pattern id="USGS_8_下水処理" data-name="USGS 8 下水処理" width="72" height="74.8" patternUnits="userSpaceOnUse" viewBox="0 0 72 74.8"><rect class="cls-1" width="72" height="74.8"/><line class="cls-2" x1="72" y1="73.95" x2="144" y2="73.95"/><line class="cls-2" x1="72" y1="72.25" x2="144" y2="72.25"/><line class="cls-2" x1="72" y1="70.55" x2="144" y2="70.55"/><line class="cls-2" x1="72" y1="68.85" x2="144" y2="68.85"/><line class="cls-2" x1="72" y1="67.15" x2="144" y2="67.15"/><line class="cls-2" x1="72" y1="65.45" x2="144" y2="65.45"/><line class="cls-2" x1="72" y1="63.75" x2="144" y2="63.75"/><line class="cls-2" x1="72" y1="62.05" x2="144" y2="62.05"/><line class="cls-2" x1="72" y1="60.35" x2="144" y2="60.35"/><line class="cls-2" x1="72" y1="58.65" x2="144" y2="58.65"/><line class="cls-2" x1="72" y1="56.95" x2="144" y2="56.95"/><line class="cls-2" x1="72" y1="55.25" x2="144" y2="55.25"/><line class="cls-2" x1="72" y1="53.55" x2="144" y2="53.55"/><line class="cls-2" x1="72" y1="51.85" x2="144" y2="51.85"/><line class="cls-2" x1="72" y1="50.15" x2="144" y2="50.15"/><line class="cls-2" x1="72" y1="48.45" x2="144" y2="48.45"/><line class="cls-2" x1="72" y1="46.75" x2="144" y2="46.75"/><line class="cls-2" x1="72" y1="45.05" x2="144" y2="45.05"/><line class="cls-2" x1="72" y1="43.35" x2="144" y2="43.35"/><line class="cls-2" x1="72" y1="41.65" x2="144" y2="41.65"/><line class="cls-2" x1="72" y1="39.95" x2="144" y2="39.95"/><line class="cls-2" x1="72" y1="38.25" x2="144" y2="38.25"/><line class="cls-2" x1="72" y1="36.55" x2="144" y2="36.55"/><line class="cls-2" x1="72" y1="34.85" x2="144" y2="34.85"/><line class="cls-2" x1="72" y1="33.15" x2="144" y2="33.15"/><line class="cls-2" x1="72" y1="31.45" x2="144" y2="31.45"/><line class="cls-2" x1="72" y1="29.75" x2="144" y2="29.75"/><line class="cls-2" x1="72" y1="28.05" x2="144" y2="28.05"/><line class="cls-2" x1="72" y1="26.35" x2="144" y2="26.35"/><line class="cls-2" x1="72" y1="24.65" x2="144" y2="24.65"/><line class="cls-2" x1="72" y1="22.95" x2="144" y2="22.95"/><line class="cls-2" x1="72" y1="21.25" x2="144" y2="21.25"/><line class="cls-2" x1="72" y1="19.55" x2="144" y2="19.55"/><line class="cls-2" x1="72" y1="17.85" x2="144" y2="17.85"/><line class="cls-2" x1="72" y1="16.15" x2="144" y2="16.15"/><line class="cls-2" x1="72" y1="14.45" x2="144" y2="14.45"/><line class="cls-2" x1="72" y1="12.75" x2="144" y2="12.75"/><line class="cls-2" x1="72" y1="11.05" x2="144" y2="11.05"/><line class="cls-2" x1="72" y1="9.35" x2="144" y2="9.35"/><line class="cls-2" x1="72" y1="7.65" x2="144" y2="7.65"/><line class="cls-2" x1="72" y1="5.95" x2="144" y2="5.95"/><line class="cls-2" x1="72" y1="4.25" x2="144" y2="4.25"/><line class="cls-2" x1="72" y1="2.55" x2="144" y2="2.55"/><line class="cls-2" x1="72" y1="0.85" x2="144" y2="0.85"/><line class="cls-2" y1="73.95" x2="72" y2="73.95"/><line class="cls-2" y1="72.25" x2="72" y2="72.25"/><line class="cls-2" y1="70.55" x2="72" y2="70.55"/><line class="cls-2" y1="68.85" x2="72" y2="68.85"/><line class="cls-2" y1="67.15" x2="72" y2="67.15"/><line class="cls-2" y1="65.45" x2="72" y2="65.45"/><line class="cls-2" y1="63.75" x2="72" y2="63.75"/><line class="cls-2" y1="62.05" x2="72" y2="62.05"/><line class="cls-2" y1="60.35" x2="72" y2="60.35"/><line class="cls-2" y1="58.65" x2="72" y2="58.65"/><line class="cls-2" y1="56.95" x2="72" y2="56.95"/><line class="cls-2" y1="55.25" x2="72" y2="55.25"/><line class="cls-2" y1="53.55" x2="72" y2="53.55"/><line class="cls-2" y1="51.85" x2="72" y2="51.85"/><line class="cls-2" y1="50.15" x2="72" y2="50.15"/><line class="cls-2" y1="48.45" x2="72" y2="48.45"/><line class="cls-2" y1="46.75" x2="72" y2="46.75"/><line class="cls-2" y1="45.05" x2="72" y2="45.05"/><line class="cls-2" y1="43.35" x2="72" y2="43.35"/><line class="cls-2" y1="41.65" x2="72" y2="41.65"/><line class="cls-2" y1="39.95" x2="72" y2="39.95"/><line class="cls-2" y1="38.25" x2="72" y2="38.25"/><line class="cls-2" y1="36.55" x2="72" y2="36.55"/><line class="cls-2" y1="34.85" x2="72" y2="34.85"/><line class="cls-2" y1="33.15" x2="72" y2="33.15"/><line class="cls-2" y1="31.45" x2="72" y2="31.45"/><line class="cls-2" y1="29.75" x2="72" y2="29.75"/><line class="cls-2" y1="28.05" x2="72" y2="28.05"/><line class="cls-2" y1="26.35" x2="72" y2="26.35"/><line class="cls-2" y1="24.65" x2="72" y2="24.65"/><line class="cls-2" y1="22.95" x2="72" y2="22.95"/><line class="cls-2" y1="21.25" x2="72" y2="21.25"/><line class="cls-2" y1="19.55" x2="72" y2="19.55"/><line class="cls-2" y1="17.85" x2="72" y2="17.85"/><line class="cls-2" y1="16.15" x2="72" y2="16.15"/><line class="cls-2" y1="14.45" x2="72" y2="14.45"/><line class="cls-2" y1="12.75" x2="72" y2="12.75"/><line class="cls-2" y1="11.05" x2="72" y2="11.05"/><line class="cls-2" y1="9.35" x2="72" y2="9.35"/><line class="cls-2" y1="7.65" x2="72" y2="7.65"/><line class="cls-2" y1="5.95" x2="72" y2="5.95"/><line class="cls-2" y1="4.25" x2="72" y2="4.25"/><line class="cls-2" y1="2.55" x2="72" y2="2.55"/><line class="cls-2" y1="0.85" x2="72" y2="0.85"/><line class="cls-2" x1="-72" y1="73.95" y2="73.95"/><line class="cls-2" x1="-72" y1="72.25" y2="72.25"/><line class="cls-2" x1="-72" y1="70.55" y2="70.55"/><line class="cls-2" x1="-72" y1="68.85" y2="68.85"/><line class="cls-2" x1="-72" y1="67.15" y2="67.15"/><line class="cls-2" x1="-72" y1="65.45" y2="65.45"/><line class="cls-2" x1="-72" y1="63.75" y2="63.75"/><line class="cls-2" x1="-72" y1="62.05" y2="62.05"/><line class="cls-2" x1="-72" y1="60.35" y2="60.35"/><line class="cls-2" x1="-72" y1="58.65" y2="58.65"/><line class="cls-2" x1="-72" y1="56.95" y2="56.95"/><line class="cls-2" x1="-72" y1="55.25" y2="55.25"/><line class="cls-2" x1="-72" y1="53.55" y2="53.55"/><line class="cls-2" x1="-72" y1="51.85" y2="51.85"/><line class="cls-2" x1="-72" y1="50.15" y2="50.15"/><line class="cls-2" x1="-72" y1="48.45" y2="48.45"/><line class="cls-2" x1="-72" y1="46.75" y2="46.75"/><line class="cls-2" x1="-72" y1="45.05" y2="45.05"/><line class="cls-2" x1="-72" y1="43.35" y2="43.35"/><line class="cls-2" x1="-72" y1="41.65" y2="41.65"/><line class="cls-2" x1="-72" y1="39.95" y2="39.95"/><line class="cls-2" x1="-72" y1="38.25" y2="38.25"/><line class="cls-2" x1="-72" y1="36.55" y2="36.55"/><line class="cls-2" x1="-72" y1="34.85" y2="34.85"/><line class="cls-2" x1="-72" y1="33.15" y2="33.15"/><line class="cls-2" x1="-72" y1="31.45" y2="31.45"/><line class="cls-2" x1="-72" y1="29.75" y2="29.75"/><line class="cls-2" x1="-72" y1="28.05" y2="28.05"/><line class="cls-2" x1="-72" y1="26.35" y2="26.35"/><line class="cls-2" x1="-72" y1="24.65" y2="24.65"/><line class="cls-2" x1="-72" y1="22.95" y2="22.95"/><line class="cls-2" x1="-72" y1="21.25" y2="21.25"/><line class="cls-2" x1="-72" y1="19.55" y2="19.55"/><line class="cls-2" x1="-72" y1="17.85" y2="17.85"/><line class="cls-2" x1="-72" y1="16.15" y2="16.15"/><line class="cls-2" x1="-72" y1="14.45" y2="14.45"/><line class="cls-2" x1="-72" y1="12.75" y2="12.75"/><line class="cls-2" x1="-72" y1="11.05" y2="11.05"/><line class="cls-2" x1="-72" y1="9.35" y2="9.35"/><line class="cls-2" x1="-72" y1="7.65" y2="7.65"/><line class="cls-2" x1="-72" y1="5.95" y2="5.95"/><line class="cls-2" x1="-72" y1="4.25" y2="4.25"/><line class="cls-2" x1="-72" y1="2.55" y2="2.55"/><line class="cls-2" x1="-72" y1="0.85" y2="0.85"/></pattern></defs><title>アセット 17</title><g id="レイヤー_2" data-name="レイヤー 2"><g id="レイヤー_1-2" data-name="レイヤー 1"><circle class="cls-3" cx="187" cy="187" r="187"/></g></g></svg>