<svg xmlns="http://www.w3.org/2000/svg" xmlns:xlink="http://www.w3.org/1999/xlink" viewBox="0 0 603 603"><defs><style>.cls-1{fill:none;}.cls-2{fill:#231815;}.cls-3,.cls-4,.cls-5,.cls-6,.cls-7,.cls-8{stroke-miterlimit:10;stroke-width:13px;fill:url(#USGS_17A_飛砂);}.cls-3{stroke:url(#ラン_15);}.cls-4{stroke:url(#ラン_15-2);}.cls-5{stroke:url(#ラン_15-3);}.cls-6{stroke:url(#ラン_15-4);}.cls-7{stroke:url(#ラン_15-5);}.cls-8{stroke:url(#ラン_15-6);}</style><pattern id="USGS_17A_飛砂" data-name="USGS 17A 飛砂" width="72" height="72" patternUnits="userSpaceOnUse" viewBox="0 0 72 72"><rect class="cls-1" width="72" height="72"/><path class="cls-2" d="M66.5,72.12a.36.36,0,0,1-.27-.12.32.32,0,0,1-.1-.25.39.39,0,0,1,.11-.27.41.41,0,0,1,.53,0,.39.39,0,0,1,.11.27.31.31,0,0,1-.12.26A.35.35,0,0,1,66.5,72.12Z"/><path class="cls-2" d="M4,26.38a.36.36,0,0,1-.27-.12.4.4,0,0,1-.1-.26.38.38,0,1,1,.75,0,.36.36,0,0,1-.11.26A.36.36,0,0,1,4,26.38Z"/><path class="cls-2" d="M7,26.38a.36.36,0,0,1-.27-.12.4.4,0,0,1-.1-.26.39.39,0,0,1,.11-.27.41.41,0,0,1,.53,0,.39.39,0,0,1,.11.27.36.36,0,0,1-.11.26A.36.36,0,0,1,7,26.38Z"/><path class="cls-2" d="M10,26.88a.36.36,0,0,1-.27-.12.41.41,0,0,1-.1-.27.38.38,0,0,1,.11-.26.41.41,0,0,1,.53,0,.38.38,0,0,1,.11.26.37.37,0,0,1-.11.27A.36.36,0,0,1,10,26.88Z"/><path class="cls-2" d="M11.5,24.38a.36.36,0,0,1-.27-.12.4.4,0,0,1-.1-.26.39.39,0,0,1,.11-.27.41.41,0,0,1,.53,0,.37.37,0,0,1,.11.27.33.33,0,0,1-.11.26A.36.36,0,0,1,11.5,24.38Z"/><path class="cls-2" d="M8.5,24.38a.36.36,0,0,1-.27-.12.36.36,0,0,1-.1-.26.39.39,0,0,1,.11-.27.41.41,0,0,1,.53,0,.39.39,0,0,1,.11.27.33.33,0,0,1-.11.26A.36.36,0,0,1,8.5,24.38Z"/><path class="cls-2" d="M5.5,23.88a.36.36,0,0,1-.27-.12.4.4,0,0,1-.1-.26.39.39,0,0,1,.11-.27.41.41,0,0,1,.53,0,.39.39,0,0,1,.11.27.36.36,0,0,1-.11.26A.36.36,0,0,1,5.5,23.88Z"/><path class="cls-2" d="M6.5,21.38a.34.34,0,0,1-.26-.12A.32.32,0,0,1,6.13,21a.36.36,0,0,1,.11-.26.39.39,0,0,1,.53,0,.36.36,0,0,1,.11.26.3.3,0,0,1-.12.27A.32.32,0,0,1,6.5,21.38Z"/><path class="cls-2" d="M8.5,22.38a.36.36,0,0,1-.27-.12.4.4,0,0,1-.1-.26.39.39,0,0,1,.11-.27.41.41,0,0,1,.53,0,.39.39,0,0,1,.11.27.36.36,0,0,1-.11.26A.36.36,0,0,1,8.5,22.38Z"/><path class="cls-2" d="M12.5,20.88a.36.36,0,0,1-.27-.12.4.4,0,0,1-.1-.26.35.35,0,0,1,.11-.27.41.41,0,0,1,.53,0,.35.35,0,0,1,.11.27.36.36,0,0,1-.11.26A.36.36,0,0,1,12.5,20.88Z"/><path class="cls-2" d="M54.5,65.38a.4.4,0,0,1-.27-.12.35.35,0,0,1-.1-.26.39.39,0,0,1,.11-.28.42.42,0,0,1,.53,0,.37.37,0,0,1,.11.27.31.31,0,0,1-.12.26A.36.36,0,0,1,54.5,65.38Z"/><path class="cls-2" d="M51,65.38a.37.37,0,0,1-.26-.12.33.33,0,0,1-.11-.26.37.37,0,0,1,.11-.27.39.39,0,0,1,.53,0,.37.37,0,0,1,.11.27.36.36,0,0,1-.11.26A.4.4,0,0,1,51,65.38Z"/><path class="cls-2" d="M47.5,55.38a.34.34,0,0,1-.26-.12.32.32,0,0,1-.11-.26.39.39,0,0,1,.11-.28.42.42,0,0,1,.53,0,.37.37,0,0,1,.11.27.3.3,0,0,1-.12.26A.32.32,0,0,1,47.5,55.38Z"/><path class="cls-2" d="M9.5,14.88a.36.36,0,0,1-.27-.12.4.4,0,0,1-.1-.26.38.38,0,1,1,.75,0,.36.36,0,0,1-.11.26A.36.36,0,0,1,9.5,14.88Z"/><path class="cls-2" d="M12.5,16.88a.36.36,0,0,1-.27-.12.4.4,0,0,1-.1-.26.39.39,0,0,1,.11-.27.41.41,0,0,1,.53,0,.39.39,0,0,1,.11.27.36.36,0,0,1-.11.26A.36.36,0,0,1,12.5,16.88Z"/><path class="cls-2" d="M14.5,16.88a.36.36,0,0,1-.27-.12.37.37,0,0,1-.1-.27.38.38,0,0,1,.11-.26.39.39,0,0,1,.53,0,.38.38,0,0,1,.11.26.32.32,0,0,1-.12.27A.32.32,0,0,1,14.5,16.88Z"/><path class="cls-2" d="M15.5,19.88a.36.36,0,0,1-.27-.12.37.37,0,0,1-.1-.27.36.36,0,0,1,.11-.26.41.41,0,0,1,.53,0,.38.38,0,0,1,.11.26.32.32,0,0,1-.12.27A.32.32,0,0,1,15.5,19.88Z"/><path class="cls-2" d="M18,13.88a.34.34,0,0,1-.27-.13.31.31,0,0,1-.1-.25.38.38,0,1,1,.75,0,.3.3,0,0,1-.12.26A.32.32,0,0,1,18,13.88Z"/><path class="cls-2" d="M15.5,14.38a.36.36,0,0,1-.27-.12.4.4,0,0,1-.1-.26.39.39,0,0,1,.11-.27.41.41,0,0,1,.53,0,.39.39,0,0,1,.11.27.36.36,0,0,1-.11.26A.36.36,0,0,1,15.5,14.38Z"/><path class="cls-2" d="M12,14.88a.36.36,0,0,1-.27-.12.36.36,0,0,1-.1-.26.39.39,0,0,1,.11-.27.41.41,0,0,1,.53,0,.39.39,0,0,1,.11.27.33.33,0,0,1-.11.26A.36.36,0,0,1,12,14.88Z"/><path class="cls-2" d="M10,12.38a.36.36,0,0,1-.27-.12.41.41,0,0,1-.1-.27.38.38,0,0,1,.11-.26.41.41,0,0,1,.53,0,.38.38,0,0,1,.11.26.37.37,0,0,1-.11.27A.36.36,0,0,1,10,12.38Z"/><path class="cls-2" d="M9.5,9.88a.36.36,0,0,1-.27-.12.4.4,0,0,1-.1-.26.39.39,0,0,1,.11-.27.41.41,0,0,1,.53,0,.39.39,0,0,1,.11.27.36.36,0,0,1-.11.26A.36.36,0,0,1,9.5,9.88Z"/><path class="cls-2" d="M11,10.38a.36.36,0,0,1-.27-.12.4.4,0,0,1-.1-.26.35.35,0,0,1,.11-.27.41.41,0,0,1,.53,0,.35.35,0,0,1,.11.27.36.36,0,0,1-.11.26A.36.36,0,0,1,11,10.38Z"/><path class="cls-2" d="M13.5,11.88a.36.36,0,0,1-.27-.12.37.37,0,0,1-.1-.27.36.36,0,0,1,.11-.26.41.41,0,0,1,.53,0,.36.36,0,0,1,.11.26.32.32,0,0,1-.12.27A.32.32,0,0,1,13.5,11.88Z"/><path class="cls-2" d="M14,8.88a.36.36,0,0,1-.27-.12.4.4,0,0,1-.1-.26.35.35,0,0,1,.11-.27.41.41,0,0,1,.53,0,.35.35,0,0,1,.11.27.36.36,0,0,1-.11.26A.36.36,0,0,1,14,8.88Z"/><path class="cls-2" d="M16.5,9.88a.36.36,0,0,1-.27-.12.4.4,0,0,1-.1-.26.39.39,0,0,1,.11-.27.41.41,0,0,1,.53,0,.39.39,0,0,1,.11.27.33.33,0,0,1-.11.26A.36.36,0,0,1,16.5,9.88Z"/><path class="cls-2" d="M19,10.88a.36.36,0,0,1-.27-.12.4.4,0,0,1-.1-.26.37.37,0,0,1,.11-.27.41.41,0,0,1,.53,0,.37.37,0,0,1,.11.27.36.36,0,0,1-.11.26A.36.36,0,0,1,19,10.88Z"/><path class="cls-2" d="M18.5,6.88a.36.36,0,0,1-.27-.12.4.4,0,0,1-.1-.26.37.37,0,0,1,.11-.27.41.41,0,0,1,.53,0,.37.37,0,0,1,.11.27.36.36,0,0,1-.11.26A.36.36,0,0,1,18.5,6.88Z"/><path class="cls-2" d="M16,7.38a.36.36,0,0,1-.27-.12.4.4,0,0,1-.1-.26.39.39,0,0,1,.11-.27.41.41,0,0,1,.53,0,.39.39,0,0,1,.11.27.36.36,0,0,1-.11.26A.36.36,0,0,1,16,7.38Z"/><path class="cls-2" d="M13.5,7.38a.36.36,0,0,1-.27-.12.36.36,0,0,1-.1-.26.37.37,0,0,1,.11-.27.41.41,0,0,1,.53,0,.37.37,0,0,1,.11.27.33.33,0,0,1-.11.26A.36.36,0,0,1,13.5,7.38Z"/><path class="cls-2" d="M13,3.88a.36.36,0,0,1-.27-.12.4.4,0,0,1-.1-.26.39.39,0,0,1,.11-.27.41.41,0,0,1,.53,0,.37.37,0,0,1,.11.27.33.33,0,0,1-.11.26A.36.36,0,0,1,13,3.88Z"/><path class="cls-2" d="M16,4.88a.36.36,0,0,1-.27-.12.4.4,0,0,1-.1-.26.39.39,0,0,1,.11-.27.41.41,0,0,1,.53,0,.39.39,0,0,1,.11.27.36.36,0,0,1-.11.26A.36.36,0,0,1,16,4.88Z"/><path class="cls-2" d="M20,4.88a.36.36,0,0,1-.27-.12.41.41,0,0,1-.1-.27.36.36,0,0,1,.11-.26.41.41,0,0,1,.53,0,.36.36,0,0,1,.11.26.37.37,0,0,1-.11.27A.36.36,0,0,1,20,4.88Z"/><path class="cls-2" d="M22,7.88a.36.36,0,0,1-.27-.12.36.36,0,0,1-.1-.26.37.37,0,0,1,.11-.27.41.41,0,0,1,.53,0,.39.39,0,0,1,.11.27.36.36,0,0,1-.11.26A.36.36,0,0,1,22,7.88Z"/><path class="cls-2" d="M20,3.38a.36.36,0,0,1-.27-.12.36.36,0,0,1-.1-.26.37.37,0,0,1,.11-.27.41.41,0,0,1,.53,0,.37.37,0,0,1,.11.27.33.33,0,0,1-.11.26A.36.36,0,0,1,20,3.38Z"/><path class="cls-2" d="M22,2.38a.36.36,0,0,1-.27-.12.36.36,0,0,1-.1-.26.35.35,0,0,1,.11-.27.41.41,0,0,1,.53,0,.37.37,0,0,1,.11.27.36.36,0,0,1-.11.26A.36.36,0,0,1,22,2.38Z"/><path class="cls-2" d="M23,5.38a.36.36,0,0,1-.27-.12.37.37,0,0,1-.1-.27.36.36,0,0,1,.11-.26.41.41,0,0,1,.53,0,.38.38,0,0,1,.11.26.37.37,0,0,1-.11.27A.36.36,0,0,1,23,5.38Z"/><path class="cls-2" d="M24.5,8.88a.34.34,0,0,1-.26-.12.36.36,0,0,1-.11-.26.35.35,0,0,1,.11-.27.41.41,0,0,1,.53,0,.35.35,0,0,1,.11.27.36.36,0,0,1-.11.26A.37.37,0,0,1,24.5,8.88Z"/><path class="cls-2" d="M26,6.88a.36.36,0,0,1-.27-.12.36.36,0,0,1-.1-.26.35.35,0,0,1,.11-.27.41.41,0,0,1,.53,0,.37.37,0,0,1,.11.27.33.33,0,0,1-.11.26A.36.36,0,0,1,26,6.88Z"/><path class="cls-2" d="M25,10.38a.34.34,0,0,1-.26-.12.33.33,0,0,1-.11-.26.35.35,0,0,1,.11-.27.39.39,0,0,1,.53,0,.37.37,0,0,1,.11.27.33.33,0,0,1-.11.26A.36.36,0,0,1,25,10.38Z"/><path class="cls-2" d="M27,9.38a.36.36,0,0,1-.27-.12.37.37,0,0,1-.1-.27.36.36,0,0,1,.11-.26.41.41,0,0,1,.53,0,.36.36,0,0,1,.11.26.37.37,0,0,1-.11.27A.36.36,0,0,1,27,9.38Z"/><path class="cls-2" d="M26.5,12.38a.38.38,0,0,1-.37-.39.36.36,0,0,1,.11-.26.41.41,0,0,1,.53,0,.38.38,0,0,1,.11.26.32.32,0,0,1-.12.27A.32.32,0,0,1,26.5,12.38Z"/><path class="cls-2" d="M28.5,10.88a.34.34,0,0,1-.26-.12.33.33,0,0,1-.11-.26.37.37,0,0,1,.11-.27.38.38,0,0,1,.64.27.36.36,0,0,1-.11.26A.36.36,0,0,1,28.5,10.88Z"/><path class="cls-2" d="M27.5,13.88a.39.39,0,0,1-.37-.39.36.36,0,0,1,.11-.26.39.39,0,0,1,.53,0,.36.36,0,0,1,.11.26.37.37,0,0,1-.11.27A.36.36,0,0,1,27.5,13.88Z"/><path class="cls-2" d="M26.5,15.38a.36.36,0,0,1-.27-.12.35.35,0,0,1-.1-.26.37.37,0,0,1,.11-.27.38.38,0,0,1,.64.27.3.3,0,0,1-.12.26A.32.32,0,0,1,26.5,15.38Z"/><path class="cls-2" d="M25.5,18.38a.36.36,0,0,1-.27-.12.41.41,0,0,1-.1-.27.38.38,0,0,1,.11-.26.39.39,0,0,1,.53,0,.38.38,0,0,1,.11.26.37.37,0,0,1-.11.27A.36.36,0,0,1,25.5,18.38Z"/><path class="cls-2" d="M28,17.88a.36.36,0,0,1-.27-.12.4.4,0,0,1-.1-.26.39.39,0,0,1,.11-.27.41.41,0,0,1,.53,0,.37.37,0,0,1,.11.27.36.36,0,0,1-.11.26A.36.36,0,0,1,28,17.88Z"/><path class="cls-2" d="M24.5,20.88a.36.36,0,0,1-.27-.12.37.37,0,0,1-.1-.27.36.36,0,0,1,.11-.26.41.41,0,0,1,.53,0,.36.36,0,0,1,.11.26.37.37,0,0,1-.11.27A.36.36,0,0,1,24.5,20.88Z"/><path class="cls-2" d="M25.5,18.38a.36.36,0,0,1-.27-.12.41.41,0,0,1-.1-.27.38.38,0,0,1,.11-.26.39.39,0,0,1,.53,0,.38.38,0,0,1,.11.26.37.37,0,0,1-.11.27A.36.36,0,0,1,25.5,18.38Z"/><path class="cls-2" d="M26,21.38a.36.36,0,0,1-.27-.12.4.4,0,0,1-.1-.26.37.37,0,0,1,.11-.27.41.41,0,0,1,.53,0,.39.39,0,0,1,.11.27.36.36,0,0,1-.11.26A.36.36,0,0,1,26,21.38Z"/><path class="cls-2" d="M23,21.88a.36.36,0,0,1-.27-.12.36.36,0,0,1-.1-.26.37.37,0,0,1,.11-.27.38.38,0,0,1,.64.27.36.36,0,0,1-.11.26A.36.36,0,0,1,23,21.88Z"/><path class="cls-2" d="M24.5,23.88a.36.36,0,0,1-.27-.12.36.36,0,0,1-.1-.26.35.35,0,0,1,.11-.27.41.41,0,0,1,.53,0,.37.37,0,0,1,.11.27.33.33,0,0,1-.11.26A.36.36,0,0,1,24.5,23.88Z"/><path class="cls-2" d="M21,23.38a.36.36,0,0,1-.27-.12.41.41,0,0,1-.1-.27.36.36,0,0,1,.11-.26.41.41,0,0,1,.53,0,.36.36,0,0,1,.11.26.37.37,0,0,1-.11.27A.36.36,0,0,1,21,23.38Z"/><path class="cls-2" d="M22,25.88a.36.36,0,0,1-.27-.12.4.4,0,0,1-.1-.26.37.37,0,0,1,.11-.27.41.41,0,0,1,.53,0,.39.39,0,0,1,.11.27.36.36,0,0,1-.11.26A.36.36,0,0,1,22,25.88Z"/><path class="cls-2" d="M19.5,25.88a.34.34,0,0,1-.27-.13.31.31,0,0,1-.1-.25.39.39,0,0,1,.11-.27.41.41,0,0,1,.53,0,.37.37,0,0,1,.11.27.41.41,0,0,1-.38.38Z"/><path class="cls-2" d="M17.5,28.38a.36.36,0,0,1-.27-.12.36.36,0,0,1-.1-.26.37.37,0,0,1,.11-.27.41.41,0,0,1,.53,0,.37.37,0,0,1,.11.27.33.33,0,0,1-.11.26A.36.36,0,0,1,17.5,28.38Z"/><path class="cls-2" d="M29.5,25.88a.34.34,0,0,1-.26-.12.33.33,0,0,1-.11-.26.35.35,0,0,1,.11-.27.39.39,0,0,1,.53,0,.37.37,0,0,1,.11.27.36.36,0,0,1-.11.26A.36.36,0,0,1,29.5,25.88Z"/><path class="cls-2" d="M31.5,26.38a.34.34,0,0,1-.26-.12.32.32,0,0,1-.11-.26.35.35,0,0,1,.11-.27.39.39,0,0,1,.53,0,.37.37,0,0,1,.11.27.3.3,0,0,1-.12.26A.32.32,0,0,1,31.5,26.38Z"/><path class="cls-2" d="M30,24.38a.34.34,0,0,1-.26-.12.33.33,0,0,1-.11-.26.35.35,0,0,1,.11-.27.39.39,0,0,1,.53,0,.37.37,0,0,1,.11.27.33.33,0,0,1-.11.26A.36.36,0,0,1,30,24.38Z"/><path class="cls-2" d="M33,24.38a.34.34,0,0,1-.26-.12.33.33,0,0,1-.11-.26.37.37,0,0,1,.11-.27.38.38,0,0,1,.64.27.36.36,0,0,1-.11.26A.36.36,0,0,1,33,24.38Z"/><path class="cls-2" d="M31,21.38a.36.36,0,0,1-.27-.12.35.35,0,0,1-.1-.26.35.35,0,0,1,.11-.27.41.41,0,0,1,.53,0,.35.35,0,0,1,.11.27.36.36,0,0,1-.12.28A.38.38,0,0,1,31,21.38Z"/><path class="cls-2" d="M33.5,22.38a.34.34,0,0,1-.26-.12.37.37,0,0,1-.11-.27.36.36,0,0,1,.11-.26.39.39,0,0,1,.53,0,.38.38,0,0,1,.11.26.37.37,0,0,1-.11.27A.36.36,0,0,1,33.5,22.38Z"/><path class="cls-2" d="M36.5,21.88a.34.34,0,0,1-.26-.12.37.37,0,0,1-.11-.27.36.36,0,0,1,.11-.26.39.39,0,0,1,.53,0,.38.38,0,0,1,.11.26.37.37,0,0,1-.11.27A.36.36,0,0,1,36.5,21.88Z"/><path class="cls-2" d="M37.5,25.38a.34.34,0,0,1-.26-.12.33.33,0,0,1-.11-.26.37.37,0,0,1,.11-.27.38.38,0,0,1,.64.27.36.36,0,0,1-.11.26A.36.36,0,0,1,37.5,25.38Z"/><path class="cls-2" d="M39,21.88a.39.39,0,0,1-.37-.39.36.36,0,0,1,.11-.26.39.39,0,0,1,.53,0,.38.38,0,0,1,.11.26.37.37,0,0,1-.11.27A.36.36,0,0,1,39,21.88Z"/><path class="cls-2" d="M36,20.38a.34.34,0,0,1-.26-.12.33.33,0,0,1-.11-.26.37.37,0,0,1,.11-.27.38.38,0,0,1,.64.27.36.36,0,0,1-.11.26A.36.36,0,0,1,36,20.38Z"/><path class="cls-2" d="M34,17.88a.39.39,0,0,1-.37-.39.36.36,0,0,1,.11-.26.39.39,0,0,1,.53,0,.36.36,0,0,1,.11.26.37.37,0,0,1-.11.27A.36.36,0,0,1,34,17.88Z"/><path class="cls-2" d="M38,17.38a.34.34,0,0,1-.26-.12.33.33,0,0,1-.11-.26.37.37,0,0,1,.11-.27.38.38,0,0,1,.64.27.36.36,0,0,1-.11.26A.36.36,0,0,1,38,17.38Z"/><path class="cls-2" d="M35.5,15.88a.36.36,0,0,1-.27-.12.36.36,0,0,1-.1-.26.37.37,0,0,1,.11-.27.41.41,0,0,1,.53,0,.37.37,0,0,1,.11.27.33.33,0,0,1-.11.26A.36.36,0,0,1,35.5,15.88Z"/><path class="cls-2" d="M39,14.38a.34.34,0,0,1-.26-.12.32.32,0,0,1-.11-.26.35.35,0,0,1,.11-.27.39.39,0,0,1,.53,0,.37.37,0,0,1,.11.27.3.3,0,0,1-.12.26A.32.32,0,0,1,39,14.38Z"/><path class="cls-2" d="M40,12.38a.34.34,0,0,1-.26-.12.33.33,0,0,1-.11-.26.38.38,0,1,1,.75,0,.36.36,0,0,1-.11.26A.36.36,0,0,1,40,12.38Z"/><path class="cls-2" d="M39.5,9.88a.34.34,0,0,1-.26-.12.37.37,0,0,1-.11-.27.36.36,0,0,1,.11-.26.39.39,0,0,1,.53,0,.38.38,0,0,1,.11.26.37.37,0,0,1-.11.27A.36.36,0,0,1,39.5,9.88Z"/><path class="cls-2" d="M41.5,9.88a.34.34,0,0,1-.26-.12.33.33,0,0,1-.11-.26.37.37,0,0,1,.11-.27.38.38,0,0,1,.64.27.36.36,0,0,1-.11.26A.36.36,0,0,1,41.5,9.88Z"/><path class="cls-2" d="M43.5,7.88a.34.34,0,0,1-.26-.12.33.33,0,0,1-.11-.26.38.38,0,1,1,.75,0,.36.36,0,0,1-.11.26A.36.36,0,0,1,43.5,7.88Z"/><path class="cls-2" d="M41,6.88a.34.34,0,0,1-.26-.12.33.33,0,0,1-.11-.26.38.38,0,1,1,.75,0,.36.36,0,0,1-.11.26A.36.36,0,0,1,41,6.88Z"/><path class="cls-2" d="M42,3.88a.34.34,0,0,1-.26-.12.33.33,0,0,1-.11-.26.37.37,0,0,1,.11-.27.39.39,0,0,1,.53,0,.37.37,0,0,1,.11.27.33.33,0,0,1-.11.26A.36.36,0,0,1,42,3.88Z"/><path class="cls-2" d="M46.5,6.38a.34.34,0,0,1-.26-.12A.33.33,0,0,1,46.13,6a.39.39,0,0,1,.11-.27.41.41,0,0,1,.53,0,.39.39,0,0,1,.11.27.36.36,0,0,1-.11.26A.37.37,0,0,1,46.5,6.38Z"/><path class="cls-2" d="M47.5,3.88a.39.39,0,0,1-.37-.39.36.36,0,0,1,.11-.26.39.39,0,0,1,.53,0,.38.38,0,0,1,.11.26.37.37,0,0,1-.11.27A.36.36,0,0,1,47.5,3.88Z"/><path class="cls-2" d="M45,2.38a.34.34,0,0,1-.26-.12A.33.33,0,0,1,44.63,2a.37.37,0,0,1,.11-.27.38.38,0,0,1,.64.27.36.36,0,0,1-.11.26A.36.36,0,0,1,45,2.38Z"/><path class="cls-2" d="M48,9.38A.39.39,0,0,1,47.63,9a.36.36,0,0,1,.11-.26.39.39,0,0,1,.53,0,.36.36,0,0,1,.11.26.37.37,0,0,1-.11.27A.36.36,0,0,1,48,9.38Z"/><path class="cls-2" d="M49.5,6.38a.35.35,0,0,1-.26-.12A.33.33,0,0,1,49.13,6a.37.37,0,0,1,.11-.27.38.38,0,0,1,.64.27.36.36,0,0,1-.11.26A.37.37,0,0,1,49.5,6.38Z"/><path class="cls-2" d="M52,9.38a.34.34,0,0,1-.26-.12A.35.35,0,0,1,51.63,9a.42.42,0,0,1,.1-.26.4.4,0,0,1,.54,0,.38.38,0,0,1,.11.26.37.37,0,0,1-.11.27A.36.36,0,0,1,52,9.38Z"/><path class="cls-2" d="M49,11.38a.34.34,0,0,1-.26-.12.36.36,0,0,1-.11-.26.38.38,0,0,1,.64-.27.37.37,0,0,1,.11.27.31.31,0,0,1-.12.26A.32.32,0,0,1,49,11.38Z"/><path class="cls-2" d="M51.5,12.88a.34.34,0,0,1-.26-.12.33.33,0,0,1-.11-.26.37.37,0,0,1,.11-.27.38.38,0,0,1,.64.27.36.36,0,0,1-.11.26A.36.36,0,0,1,51.5,12.88Z"/><path class="cls-2" d="M47.5,12.88a.34.34,0,0,1-.26-.12.32.32,0,0,1-.11-.26.39.39,0,0,1,.11-.28.42.42,0,0,1,.53,0,.37.37,0,0,1,.11.27.3.3,0,0,1-.12.26A.32.32,0,0,1,47.5,12.88Z"/><path class="cls-2" d="M50,14.38a.34.34,0,0,1-.26-.12.36.36,0,0,1-.11-.26.39.39,0,0,1,.11-.27.41.41,0,0,1,.53,0,.39.39,0,0,1,.11.27.36.36,0,0,1-.11.26A.37.37,0,0,1,50,14.38Z"/><path class="cls-2" d="M10.5,69.38a.38.38,0,0,1-.37-.38.39.39,0,0,1,.11-.27.41.41,0,0,1,.53,0,.39.39,0,0,1,.11.27.36.36,0,0,1-.11.26A.4.4,0,0,1,10.5,69.38Z"/><path class="cls-2" d="M11.5,66.38a.4.4,0,0,1-.27-.12.37.37,0,0,1-.1-.27.36.36,0,0,1,.11-.26.41.41,0,0,1,.53,0,.36.36,0,0,1,.11.26.3.3,0,0,1-.12.27A.36.36,0,0,1,11.5,66.38Z"/><path class="cls-2" d="M46.5,20.38a.36.36,0,0,1-.27-.12.4.4,0,0,1-.1-.26.39.39,0,0,1,.11-.27.41.41,0,0,1,.53,0,.39.39,0,0,1,.11.27.36.36,0,0,1-.11.26A.36.36,0,0,1,46.5,20.38Z"/><path class="cls-2" d="M44.5,18.88a.34.34,0,0,1-.26-.12.33.33,0,0,1-.11-.26.37.37,0,0,1,.11-.27.38.38,0,0,1,.64.27.36.36,0,0,1-.11.26A.36.36,0,0,1,44.5,18.88Z"/><path class="cls-2" d="M44.5,21.38a.34.34,0,0,1-.26-.12.33.33,0,0,1-.11-.26.38.38,0,1,1,.75,0,.36.36,0,0,1-.11.26A.36.36,0,0,1,44.5,21.38Z"/><path class="cls-2" d="M53.5,22.88a.36.36,0,0,1-.27-.12.35.35,0,0,1-.1-.26.35.35,0,0,1,.11-.27.41.41,0,0,1,.53,0,.35.35,0,0,1,.11.27.3.3,0,0,1-.12.26A.32.32,0,0,1,53.5,22.88Z"/><path class="cls-2" d="M45,23.88a.34.34,0,0,1-.26-.12.32.32,0,0,1-.11-.26.35.35,0,0,1,.11-.27.39.39,0,0,1,.53,0,.37.37,0,0,1,.11.27.3.3,0,0,1-.12.26A.32.32,0,0,1,45,23.88Z"/><path class="cls-2" d="M48,25.88a.34.34,0,0,1-.26-.12.33.33,0,0,1-.11-.26.37.37,0,0,1,.11-.27.39.39,0,0,1,.53,0,.37.37,0,0,1,.11.27.33.33,0,0,1-.11.26A.36.36,0,0,1,48,25.88Z"/><path class="cls-2" d="M56,21.38a.34.34,0,0,1-.27-.13.31.31,0,0,1-.1-.25.37.37,0,0,1,.11-.27.41.41,0,0,1,.53,0,.37.37,0,0,1,.11.27.3.3,0,0,1-.12.26A.32.32,0,0,1,56,21.38Z"/><path class="cls-2" d="M53.5,19.38a.34.34,0,0,1-.27-.13.32.32,0,0,1-.1-.25.39.39,0,0,1,.11-.27.41.41,0,0,1,.53,0,.39.39,0,0,1,.11.27.31.31,0,0,1-.12.26A.32.32,0,0,1,53.5,19.38Z"/><path class="cls-2" d="M54,16.38a.34.34,0,0,1-.27-.13.31.31,0,0,1-.1-.25.37.37,0,0,1,.11-.27.41.41,0,0,1,.53,0,.37.37,0,0,1,.11.27.3.3,0,0,1-.12.26A.34.34,0,0,1,54,16.38Z"/><path class="cls-2" d="M57.5,17.38a.34.34,0,0,1-.26-.12.32.32,0,0,1-.11-.26.38.38,0,1,1,.75,0,.3.3,0,0,1-.12.26A.32.32,0,0,1,57.5,17.38Z"/><path class="cls-2" d="M57,14.38a.34.34,0,0,1-.26-.12.32.32,0,0,1-.11-.26.39.39,0,0,1,.11-.28.42.42,0,0,1,.53,0,.35.35,0,0,1,.11.27.31.31,0,0,1-.12.26A.32.32,0,0,1,57,14.38Z"/><path class="cls-2" d="M14.5,67.88a.4.4,0,0,1-.27-.12.37.37,0,0,1-.1-.27.36.36,0,0,1,.11-.26.39.39,0,0,1,.53,0,.36.36,0,0,1,.11.26.32.32,0,0,1-.12.27A.36.36,0,0,1,14.5,67.88Z"/><path class="cls-2" d="M14,69.88a.38.38,0,0,1-.37-.38.39.39,0,0,1,.11-.27.41.41,0,0,1,.53,0,.37.37,0,0,1,.11.27.33.33,0,0,1-.11.26A.4.4,0,0,1,14,69.88Z"/><path class="cls-2" d="M60.5,7.88a.34.34,0,0,1-.26-.12.36.36,0,0,1-.11-.26.43.43,0,0,1,.1-.27.4.4,0,0,1,.54,0,.37.37,0,0,1,.11.27.36.36,0,0,1-.11.26A.36.36,0,0,1,60.5,7.88Z"/><path class="cls-2" d="M57,4.88a.35.35,0,0,1-.26-.12.33.33,0,0,1-.11-.26.37.37,0,0,1,.11-.27.38.38,0,0,1,.64.27.33.33,0,0,1-.11.26A.37.37,0,0,1,57,4.88Z"/><path class="cls-2" d="M61,3.88a.34.34,0,0,1-.26-.12.35.35,0,0,1-.11-.27.42.42,0,0,1,.1-.26.39.39,0,0,1,.53,0,.36.36,0,0,1,0,.53A.36.36,0,0,1,61,3.88Z"/><path class="cls-2" d="M57,1.88a.34.34,0,0,1-.26-.12.33.33,0,0,1-.11-.26.37.37,0,0,1,.11-.27.39.39,0,0,1,.53,0,.37.37,0,0,1,.11.27.33.33,0,0,1-.11.26A.36.36,0,0,1,57,1.88Z"/><path class="cls-2" d="M65,8.38a.36.36,0,0,1-.27-.12.41.41,0,0,1-.1-.27.35.35,0,0,1,.11-.26.41.41,0,0,1,.53,0,.35.35,0,0,1,.11.26.37.37,0,0,1-.11.27A.36.36,0,0,1,65,8.38Z"/><path class="cls-2" d="M68,8.88a.34.34,0,0,1-.27-.13.31.31,0,0,1-.1-.25.39.39,0,0,1,.11-.27.41.41,0,0,1,.53,0,.39.39,0,0,1,.11.27.3.3,0,0,1-.12.26A.32.32,0,0,1,68,8.88Z"/><path class="cls-2" d="M68,4.88a.36.36,0,0,1-.27-.12.35.35,0,0,1-.1-.26.37.37,0,0,1,.11-.27.41.41,0,0,1,.53,0,.37.37,0,0,1,.11.27.3.3,0,0,1-.12.26A.32.32,0,0,1,68,4.88Z"/><path class="cls-2" d="M66.5,12.88a.36.36,0,0,1-.27-.12.4.4,0,0,1-.1-.26.37.37,0,0,1,.11-.27.41.41,0,0,1,.53,0,.37.37,0,0,1,.11.27.36.36,0,0,1-.11.26A.36.36,0,0,1,66.5,12.88Z"/><path class="cls-2" d="M67,15.88a.36.36,0,0,1-.27-.12.4.4,0,0,1-.1-.26.37.37,0,0,1,.11-.27.41.41,0,0,1,.53,0,.37.37,0,0,1,.11.27.36.36,0,0,1-.11.26A.36.36,0,0,1,67,15.88Z"/><path class="cls-2" d="M65,18.88a.36.36,0,0,1-.27-.12.4.4,0,0,1-.1-.26.39.39,0,0,1,.11-.27.41.41,0,0,1,.53,0,.39.39,0,0,1,.11.27.36.36,0,0,1-.11.26A.36.36,0,0,1,65,18.88Z"/><path class="cls-2" d="M68.5,21.88a.36.36,0,0,1-.27-.12.37.37,0,0,1-.1-.27.36.36,0,0,1,.11-.26.39.39,0,0,1,.53,0,.38.38,0,0,1,.11.26.37.37,0,0,1-.11.27A.34.34,0,0,1,68.5,21.88Z"/><path class="cls-2" d="M65,23.38a.36.36,0,0,1-.27-.12.4.4,0,0,1-.1-.26.39.39,0,0,1,.11-.27.41.41,0,0,1,.53,0,.39.39,0,0,1,.11.27.36.36,0,0,1-.11.26A.36.36,0,0,1,65,23.38Z"/><path class="cls-2" d="M67,24.88a.36.36,0,0,1-.27-.12.41.41,0,0,1-.1-.27.35.35,0,0,1,.11-.26.41.41,0,0,1,.53,0,.36.36,0,0,1,.11.26.37.37,0,0,1-.11.27A.36.36,0,0,1,67,24.88Z"/><path class="cls-2" d="M61.5,13.38a.34.34,0,0,1-.26-.12.37.37,0,0,1-.11-.27.38.38,0,0,1,.11-.26.39.39,0,0,1,.53,0,.35.35,0,0,1,.11.26.34.34,0,0,1-.11.27A.36.36,0,0,1,61.5,13.38Z"/><path class="cls-2" d="M57,14.38a.34.34,0,0,1-.26-.12.32.32,0,0,1-.11-.26.39.39,0,0,1,.11-.28.42.42,0,0,1,.53,0,.35.35,0,0,1,.11.27.31.31,0,0,1-.12.26A.32.32,0,0,1,57,14.38Z"/><path class="cls-2" d="M29.75,14.88a.36.36,0,0,1-.27-.12.35.35,0,0,1-.1-.26.37.37,0,0,1,.11-.27.39.39,0,0,1,.53,0,.37.37,0,0,1,.11.27.3.3,0,0,1-.12.26A.32.32,0,0,1,29.75,14.88Z"/><path class="cls-2" d="M30.5,2.38a.34.34,0,0,1-.26-.12A.32.32,0,0,1,30.13,2a.36.36,0,0,1,.11-.26.39.39,0,0,1,.53,0,.38.38,0,0,1,.11.26.32.32,0,0,1-.12.27A.32.32,0,0,1,30.5,2.38Z"/><path class="cls-2" d="M34.5,2.88a.34.34,0,0,1-.26-.12.33.33,0,0,1-.11-.26.37.37,0,0,1,.11-.27.38.38,0,0,1,.64.27.36.36,0,0,1-.11.26A.36.36,0,0,1,34.5,2.88Z"/><path class="cls-2" d="M32,3.88a.34.34,0,0,1-.26-.12.33.33,0,0,1-.11-.26.37.37,0,0,1,.11-.27.38.38,0,0,1,.64.27.36.36,0,0,1-.11.26A.36.36,0,0,1,32,3.88Z"/><path class="cls-2" d="M30,4.88a.39.39,0,0,1-.37-.39.36.36,0,0,1,.11-.26.39.39,0,0,1,.53,0,.36.36,0,0,1,.11.26.37.37,0,0,1-.11.27A.36.36,0,0,1,30,4.88Z"/><path class="cls-2" d="M34.5,4.88a.34.34,0,0,1-.26-.12.32.32,0,0,1-.11-.26.35.35,0,0,1,.11-.27.39.39,0,0,1,.53,0,.37.37,0,0,1,.11.27.3.3,0,0,1-.12.26A.32.32,0,0,1,34.5,4.88Z"/><path class="cls-2" d="M37,4.38a.34.34,0,0,1-.26-.12A.33.33,0,0,1,36.63,4a.37.37,0,0,1,.11-.27.39.39,0,0,1,.53,0,.37.37,0,0,1,.11.27.33.33,0,0,1-.11.26A.36.36,0,0,1,37,4.38Z"/><path class="cls-2" d="M35.5,7.38a.36.36,0,0,1-.27-.12.36.36,0,0,1-.1-.26.39.39,0,0,1,.11-.28.42.42,0,0,1,.53,0,.35.35,0,0,1,.11.27.36.36,0,0,1-.11.26A.36.36,0,0,1,35.5,7.38Z"/><path class="cls-2" d="M33,7.88a.34.34,0,0,1-.26-.12.33.33,0,0,1-.11-.26.37.37,0,0,1,.11-.27.38.38,0,0,1,.64.27.36.36,0,0,1-.11.26A.36.36,0,0,1,33,7.88Z"/><path class="cls-2" d="M33.5,10.88a.34.34,0,0,1-.26-.12.33.33,0,0,1-.11-.26.37.37,0,0,1,.11-.27.38.38,0,0,1,.64.27.36.36,0,0,1-.11.26A.36.36,0,0,1,33.5,10.88Z"/><path class="cls-2" d="M32,12.88a.39.39,0,0,1-.37-.39.36.36,0,0,1,.11-.26.39.39,0,0,1,.53,0,.38.38,0,0,1,.11.26.37.37,0,0,1-.11.27A.36.36,0,0,1,32,12.88Z"/><path class="cls-2" d="M3,3.38a.36.36,0,0,1-.27-.12A.4.4,0,0,1,2.63,3a.39.39,0,0,1,.11-.27.41.41,0,0,1,.53,0A.39.39,0,0,1,3.38,3a.36.36,0,0,1-.11.26A.36.36,0,0,1,3,3.38Z"/><path class="cls-2" d="M6.5,1.88a.34.34,0,0,1-.26-.12.33.33,0,0,1-.11-.26.37.37,0,0,1,.11-.27.39.39,0,0,1,.53,0,.37.37,0,0,1,.11.27.33.33,0,0,1-.11.26A.36.36,0,0,1,6.5,1.88Z"/><path class="cls-2" d="M9,3.38a.34.34,0,0,1-.27-.13A.36.36,0,0,1,8.63,3a.37.37,0,0,1,.11-.27.41.41,0,0,1,.53,0A.37.37,0,0,1,9.38,3a.36.36,0,0,1-.11.26A.36.36,0,0,1,9,3.38Z"/><path class="cls-2" d="M4.5,4.88a.36.36,0,0,1-.27-.12.41.41,0,0,1-.1-.27.38.38,0,0,1,.11-.26.41.41,0,0,1,.53,0,.38.38,0,0,1,.11.26.37.37,0,0,1-.11.27A.36.36,0,0,1,4.5,4.88Z"/><path class="cls-2" d="M3,9.38a.36.36,0,0,1-.27-.12A.4.4,0,0,1,2.63,9a.39.39,0,0,1,.11-.27.41.41,0,0,1,.53,0A.39.39,0,0,1,3.38,9a.36.36,0,0,1-.11.26A.36.36,0,0,1,3,9.38Z"/><path class="cls-2" d="M5.5,9.88a.36.36,0,0,1-.27-.12.4.4,0,0,1-.1-.26.39.39,0,0,1,.11-.27.41.41,0,0,1,.53,0,.39.39,0,0,1,.11.27.36.36,0,0,1-.11.26A.36.36,0,0,1,5.5,9.88Z"/><path class="cls-2" d="M7,6.38a.36.36,0,0,1-.27-.12A.36.36,0,0,1,6.63,6a.39.39,0,0,1,.11-.27.41.41,0,0,1,.53,0A.39.39,0,0,1,7.38,6a.33.33,0,0,1-.11.26A.36.36,0,0,1,7,6.38Z"/><path class="cls-2" d="M2,11.88a.34.34,0,0,1-.26-.12.36.36,0,0,1-.11-.26.43.43,0,0,1,.1-.27.4.4,0,0,1,.54,0,.39.39,0,0,1,.11.27.33.33,0,0,1-.11.26A.36.36,0,0,1,2,11.88Z"/><path class="cls-2" d="M4.5,12.88a.36.36,0,0,1-.27-.12.37.37,0,0,1-.1-.27.38.38,0,0,1,.11-.26.41.41,0,0,1,.53,0,.38.38,0,0,1,.11.26.32.32,0,0,1-.12.27A.32.32,0,0,1,4.5,12.88Z"/><path class="cls-2" d="M1.5,13.88a.34.34,0,0,1-.27-.13.36.36,0,0,1-.1-.25.39.39,0,0,1,.11-.27.41.41,0,0,1,.53,0,.39.39,0,0,1,.11.27.36.36,0,0,1-.11.26A.36.36,0,0,1,1.5,13.88Z"/><path class="cls-2" d="M4,15.88a.36.36,0,0,1-.27-.12.4.4,0,0,1-.1-.26.35.35,0,0,1,.11-.27.41.41,0,0,1,.53,0,.35.35,0,0,1,.11.27.36.36,0,0,1-.11.26A.36.36,0,0,1,4,15.88Z"/><path class="cls-2" d="M1.5,18.38a.36.36,0,0,1-.27-.12.41.41,0,0,1-.1-.27.38.38,0,0,1,.11-.26.41.41,0,0,1,.53,0,.36.36,0,0,1,.11.26.37.37,0,0,1-.11.27A.36.36,0,0,1,1.5,18.38Z"/><path class="cls-2" d="M4,17.38a.36.36,0,0,1-.27-.12.4.4,0,0,1-.1-.26.35.35,0,0,1,.11-.27.41.41,0,0,1,.53,0,.35.35,0,0,1,.11.27.36.36,0,0,1-.11.26A.36.36,0,0,1,4,17.38Z"/><path class="cls-2" d="M1,20.88a.34.34,0,0,1-.26-.12.37.37,0,0,1-.11-.27.36.36,0,0,1,.11-.26.39.39,0,0,1,.53,0,.38.38,0,0,1,.11.26.37.37,0,0,1-.11.27A.34.34,0,0,1,1,20.88Z"/><path class="cls-2" d="M29.5,7.88a.34.34,0,0,1-.26-.12.32.32,0,0,1-.11-.26.39.39,0,0,1,.11-.27.37.37,0,0,1,.52,0,.36.36,0,0,1,.12.27.3.3,0,0,1-.12.26A.32.32,0,0,1,29.5,7.88Z"/><path class="cls-2" d="M67.5,19.38a.34.34,0,0,1-.27-.13.31.31,0,0,1-.1-.25.39.39,0,0,1,.11-.27.41.41,0,0,1,.53,0,.39.39,0,0,1,.11.27.3.3,0,0,1-.12.26A.32.32,0,0,1,67.5,19.38Z"/><path class="cls-2" d="M67.25,2.88A.34.34,0,0,1,67,2.76a.36.36,0,0,1-.11-.26A.39.39,0,0,1,67,2.23a.41.41,0,0,1,.53,0,.39.39,0,0,1,.11.27.36.36,0,0,1-.11.26A.37.37,0,0,1,67.25,2.88Z"/><path class="cls-2" d="M64,25.12a.35.35,0,0,1-.27-.11.36.36,0,0,1-.1-.26.35.35,0,0,1,.11-.27.41.41,0,0,1,.53,0,.35.35,0,0,1,.11.27.31.31,0,0,1-.12.26A.31.31,0,0,1,64,25.12Z"/><path class="cls-2" d="M24.25,16.38a.36.36,0,0,1-.27-.12.41.41,0,0,1-.1-.27.36.36,0,0,1,.11-.26.41.41,0,0,1,.53,0,.38.38,0,0,1,.11.26.37.37,0,0,1-.11.27A.36.36,0,0,1,24.25,16.38Z"/><path class="cls-2" d="M48.25,1.88a.42.42,0,0,1-.26-.1.41.41,0,0,1-.11-.28A.37.37,0,0,1,48,1.23a.38.38,0,0,1,.64.27.36.36,0,0,1-.11.26A.37.37,0,0,1,48.25,1.88Z"/><path class="cls-2" d="M1,16.12A.33.33,0,0,1,.74,16a.33.33,0,0,1-.11-.26.37.37,0,0,1,.11-.27.39.39,0,0,1,.53,0,.39.39,0,0,1,.11.27.36.36,0,0,1-.11.26A.33.33,0,0,1,1,16.12Z"/><path class="cls-2" d="M4.25,1.62A.35.35,0,0,1,4,1.51a.4.4,0,0,1-.1-.26A.39.39,0,0,1,4,1a.41.41,0,0,1,.53,0,.39.39,0,0,1,.11.27.36.36,0,0,1-.11.26A.35.35,0,0,1,4.25,1.62Z"/><path class="cls-2" d="M20,1.38a.34.34,0,0,1-.27-.13.31.31,0,0,1-.1-.25.39.39,0,0,1,.11-.27.39.39,0,0,1,.53,0,.39.39,0,0,1,.11.27.3.3,0,0,1-.12.26A.32.32,0,0,1,20,1.38Z"/><path class="cls-2" d="M61.5,24.12a.33.33,0,0,1-.26-.11.37.37,0,0,1-.11-.27.38.38,0,0,1,.11-.26.39.39,0,0,1,.53,0,.35.35,0,0,1,.11.26.34.34,0,0,1-.11.27A.35.35,0,0,1,61.5,24.12Z"/><path class="cls-2" d="M55.25,12.12A.35.35,0,0,1,55,12a.4.4,0,0,1-.1-.26.39.39,0,0,1,.11-.27.41.41,0,0,1,.53,0,.39.39,0,0,1,.11.27.36.36,0,0,1-.11.26A.35.35,0,0,1,55.25,12.12Z"/><path class="cls-2" d="M41.5,16.12a.33.33,0,0,1-.26-.11.32.32,0,0,1-.11-.26.35.35,0,0,1,.11-.27.39.39,0,0,1,.53,0,.37.37,0,0,1,.11.27.3.3,0,0,1-.12.26A.31.31,0,0,1,41.5,16.12Z"/><path class="cls-2" d="M42.5,14.12a.33.33,0,0,1-.26-.11.33.33,0,0,1-.11-.26.37.37,0,0,1,.11-.27.38.38,0,0,1,.64.27.36.36,0,0,1-.11.26A.35.35,0,0,1,42.5,14.12Z"/><path class="cls-2" d="M42,11.62a.33.33,0,0,1-.26-.11.33.33,0,0,1-.11-.26.37.37,0,0,1,.11-.27.39.39,0,0,1,.53,0,.37.37,0,0,1,.11.27.33.33,0,0,1-.11.26A.35.35,0,0,1,42,11.62Z"/><path class="cls-2" d="M44,11.62a.33.33,0,0,1-.26-.11.36.36,0,0,1-.11-.26.37.37,0,0,1,.11-.27.38.38,0,0,1,.64.27.36.36,0,0,1-.11.26A.35.35,0,0,1,44,11.62Z"/><path class="cls-2" d="M33.75,1.38a.34.34,0,0,1-.26-.12A.34.34,0,0,1,33.38,1a.36.36,0,0,1,.11-.26.39.39,0,0,1,.53,0,.38.38,0,0,1,.11.26.37.37,0,0,1-.11.27A.36.36,0,0,1,33.75,1.38Z"/><path class="cls-2" d="M36.75,1.88a.34.34,0,0,1-.26-.12.33.33,0,0,1-.11-.26.37.37,0,0,1,.11-.27.38.38,0,0,1,.64.27.36.36,0,0,1-.11.26A.36.36,0,0,1,36.75,1.88Z"/><path class="cls-2" d="M70.5,22.88a.36.36,0,0,1-.27-.12.4.4,0,0,1-.1-.26.38.38,0,1,1,.75,0,.36.36,0,0,1-.11.26A.36.36,0,0,1,70.5,22.88Z"/><path class="cls-2" d="M70.5,25.38a.36.36,0,0,1-.27-.12.41.41,0,0,1-.1-.27.35.35,0,0,1,.11-.26.41.41,0,0,1,.53,0,.38.38,0,0,1,.11.26.37.37,0,0,1-.11.27A.36.36,0,0,1,70.5,25.38Z"/><path class="cls-2" d="M70.5,13.12a.35.35,0,0,1-.27-.11.36.36,0,0,1-.1-.26.38.38,0,1,1,.75,0,.31.31,0,0,1-.12.26A.31.31,0,0,1,70.5,13.12Z"/><path class="cls-2" d="M70.5,18.12a.35.35,0,0,1-.27-.11.4.4,0,0,1-.1-.26.37.37,0,0,1,.11-.27.41.41,0,0,1,.53,0,.37.37,0,0,1,.11.27.36.36,0,0,1-.11.26A.35.35,0,0,1,70.5,18.12Z"/><path class="cls-2" d="M69,1.12A.33.33,0,0,1,68.73,1a.31.31,0,0,1-.1-.25.37.37,0,0,1,.11-.27.41.41,0,0,1,.53,0,.39.39,0,0,1,.11.27.3.3,0,0,1-.12.26A.31.31,0,0,1,69,1.12Z"/><path class="cls-2" d="M46.5.88a.36.36,0,0,1-.27-.12.41.41,0,0,1-.1-.27.36.36,0,0,1,.11-.26.38.38,0,0,1,.52,0,.39.39,0,0,1,.12.27.37.37,0,0,1-.11.27A.37.37,0,0,1,46.5.88Z"/><path class="cls-2" d="M51,1.38a.34.34,0,0,1-.26-.12A.37.37,0,0,1,50.63,1a.35.35,0,0,1,.11-.26.39.39,0,0,1,.53,0,.35.35,0,0,1,.11.26.37.37,0,0,1-.11.27A.36.36,0,0,1,51,1.38Z"/><path class="cls-2" d="M62,.88a.34.34,0,0,1-.26-.12.37.37,0,0,1-.11-.27.38.38,0,0,1,.11-.26.39.39,0,0,1,.53,0,.35.35,0,0,1,.11.26.34.34,0,0,1-.11.27A.36.36,0,0,1,62,.88Z"/><path class="cls-2" d="M60,1.88a.34.34,0,0,1-.26-.12.36.36,0,0,1-.11-.26.38.38,0,1,1,.75,0,.36.36,0,0,1-.11.26A.37.37,0,0,1,60,1.88Z"/><path class="cls-2" d="M64.5,2.38a.36.36,0,0,1-.27-.12.41.41,0,0,1-.1-.27.35.35,0,0,1,.11-.26.41.41,0,0,1,.53,0,.35.35,0,0,1,.11.26.37.37,0,0,1-.11.27A.36.36,0,0,1,64.5,2.38Z"/><path class="cls-2" d="M48.5,27.88a.34.34,0,0,1-.26-.12.36.36,0,0,1-.11-.26.37.37,0,0,1,.11-.27.39.39,0,0,1,.53,0,.37.37,0,0,1,.11.27.3.3,0,0,1-.12.26A.32.32,0,0,1,48.5,27.88Z"/><path class="cls-2" d="M45.5,27.88a.39.39,0,0,1-.37-.39.36.36,0,0,1,.11-.26.39.39,0,0,1,.53,0,.38.38,0,0,1,.11.26.37.37,0,0,1-.11.27A.36.36,0,0,1,45.5,27.88Z"/><path class="cls-2" d="M42.5,27.38a.39.39,0,0,1-.37-.39.36.36,0,0,1,.11-.26.39.39,0,0,1,.53,0,.38.38,0,0,1,.11.26.37.37,0,0,1-.11.27A.36.36,0,0,1,42.5,27.38Z"/><path class="cls-2" d="M41,29.88a.39.39,0,0,1-.37-.39.36.36,0,0,1,.11-.26.39.39,0,0,1,.53,0,.38.38,0,0,1,.11.26.37.37,0,0,1-.11.27A.36.36,0,0,1,41,29.88Z"/><path class="cls-2" d="M44,29.88a.34.34,0,0,1-.26-.12.32.32,0,0,1-.11-.26.35.35,0,0,1,.11-.27.39.39,0,0,1,.53,0,.37.37,0,0,1,.11.27.3.3,0,0,1-.12.26A.32.32,0,0,1,44,29.88Z"/><path class="cls-2" d="M47,30.38a.34.34,0,0,1-.26-.12.32.32,0,0,1-.11-.26.35.35,0,0,1,.11-.27.39.39,0,0,1,.53,0,.37.37,0,0,1,.11.27.3.3,0,0,1-.12.26A.32.32,0,0,1,47,30.38Z"/><path class="cls-2" d="M46,32.88a.34.34,0,0,1-.26-.12.32.32,0,0,1-.11-.26.39.39,0,0,1,.11-.28.42.42,0,0,1,.53,0,.37.37,0,0,1,.11.27.3.3,0,0,1-.12.26A.32.32,0,0,1,46,32.88Z"/><path class="cls-2" d="M44,31.88a.34.34,0,0,1-.26-.12.33.33,0,0,1-.11-.26.37.37,0,0,1,.11-.27.38.38,0,0,1,.64.27.36.36,0,0,1-.11.26A.36.36,0,0,1,44,31.88Z"/><path class="cls-2" d="M40,33.38a.34.34,0,0,1-.26-.12.32.32,0,0,1-.11-.26.35.35,0,0,1,.11-.27.39.39,0,0,1,.53,0,.37.37,0,0,1,.11.27.3.3,0,0,1-.12.26A.32.32,0,0,1,40,33.38Z"/><path class="cls-2" d="M42,33.88a.34.34,0,0,1-.26-.12.32.32,0,0,1-.11-.26.35.35,0,0,1,.11-.27.39.39,0,0,1,.53,0,.35.35,0,0,1,.11.27.3.3,0,0,1-.12.26A.32.32,0,0,1,42,33.88Z"/><path class="cls-2" d="M43.5,36.38a.39.39,0,0,1-.37-.39.36.36,0,0,1,.11-.26.39.39,0,0,1,.53,0,.38.38,0,0,1,.11.26.37.37,0,0,1-.11.27A.36.36,0,0,1,43.5,36.38Z"/><path class="cls-2" d="M45,37.38a.39.39,0,0,1-.37-.39.36.36,0,0,1,.11-.26.39.39,0,0,1,.53,0,.38.38,0,0,1,.11.26.37.37,0,0,1-.11.27A.36.36,0,0,1,45,37.38Z"/><path class="cls-2" d="M43,39.38a.34.34,0,0,1-.26-.12.33.33,0,0,1-.11-.26.37.37,0,0,1,.11-.27.38.38,0,0,1,.64.27.36.36,0,0,1-.11.26A.36.36,0,0,1,43,39.38Z"/><path class="cls-2" d="M40,37.38a.39.39,0,0,1-.37-.39.36.36,0,0,1,.11-.26.39.39,0,0,1,.53,0,.38.38,0,0,1,.11.26.37.37,0,0,1-.11.27A.36.36,0,0,1,40,37.38Z"/><path class="cls-2" d="M38,37.38a.39.39,0,0,1-.37-.39.36.36,0,0,1,.11-.26.39.39,0,0,1,.53,0,.36.36,0,0,1,.11.26.37.37,0,0,1-.11.27A.36.36,0,0,1,38,37.38Z"/><path class="cls-2" d="M37,34.38a.39.39,0,0,1-.37-.39.36.36,0,0,1,.11-.26.39.39,0,0,1,.53,0,.36.36,0,0,1,.11.26.34.34,0,0,1-.11.27A.36.36,0,0,1,37,34.38Z"/><path class="cls-2" d="M34.5,40.38a.39.39,0,0,1-.37-.39.36.36,0,0,1,.11-.26.39.39,0,0,1,.53,0,.38.38,0,0,1,.11.26.37.37,0,0,1-.11.27A.36.36,0,0,1,34.5,40.38Z"/><path class="cls-2" d="M37,39.88a.34.34,0,0,1-.26-.12.33.33,0,0,1-.11-.26.35.35,0,0,1,.11-.27.39.39,0,0,1,.53,0,.35.35,0,0,1,.11.27.33.33,0,0,1-.11.26A.36.36,0,0,1,37,39.88Z"/><path class="cls-2" d="M40.5,39.38a.34.34,0,0,1-.26-.12.33.33,0,0,1-.11-.26.37.37,0,0,1,.11-.27.38.38,0,0,1,.64.27.36.36,0,0,1-.11.26A.36.36,0,0,1,40.5,39.38Z"/><path class="cls-2" d="M42.5,41.88a.35.35,0,0,1-.26-.12.33.33,0,0,1-.11-.26.38.38,0,1,1,.75,0,.36.36,0,0,1-.11.26A.37.37,0,0,1,42.5,41.88Z"/><path class="cls-2" d="M43,44.38a.35.35,0,0,1-.26-.12.33.33,0,0,1-.11-.26.37.37,0,0,1,.11-.27.39.39,0,0,1,.53,0,.4.4,0,0,1,.11.27.36.36,0,0,1-.11.26A.37.37,0,0,1,43,44.38Z"/><path class="cls-2" d="M41.5,43.88a.35.35,0,0,1-.26-.12.33.33,0,0,1-.11-.26.38.38,0,1,1,.75,0,.36.36,0,0,1-.11.26A.37.37,0,0,1,41.5,43.88Z"/><path class="cls-2" d="M39,42.38a.34.34,0,0,1-.26-.12.32.32,0,0,1-.11-.27.36.36,0,0,1,.11-.26.39.39,0,0,1,.53,0,.38.38,0,0,1,.11.26.32.32,0,0,1-.12.27A.32.32,0,0,1,39,42.38Z"/><path class="cls-2" d="M38.5,45.38a.42.42,0,0,1-.26-.1.45.45,0,0,1-.11-.28.35.35,0,0,1,.11-.27.39.39,0,0,1,.53,0,.37.37,0,0,1,.11.27.36.36,0,0,1-.11.26A.37.37,0,0,1,38.5,45.38Z"/><path class="cls-2" d="M36,44.38a.39.39,0,0,1-.37-.39.36.36,0,0,1,.11-.26.39.39,0,0,1,.53,0,.38.38,0,0,1,.11.26.37.37,0,0,1-.11.27A.36.36,0,0,1,36,44.38Z"/><path class="cls-2" d="M33.5,43.38a.34.34,0,0,1-.26-.12.33.33,0,0,1-.11-.26.37.37,0,0,1,.11-.27.38.38,0,0,1,.64.27.36.36,0,0,1-.11.26A.36.36,0,0,1,33.5,43.38Z"/><path class="cls-2" d="M34,47.38a.34.34,0,0,1-.26-.12.32.32,0,0,1-.11-.26.35.35,0,0,1,.11-.27.39.39,0,0,1,.53,0,.37.37,0,0,1,.11.27.3.3,0,0,1-.12.26A.32.32,0,0,1,34,47.38Z"/><path class="cls-2" d="M36.5,46.88a.34.34,0,0,1-.26-.12.33.33,0,0,1-.11-.26.37.37,0,0,1,.11-.27.38.38,0,0,1,.64.27.36.36,0,0,1-.11.26A.36.36,0,0,1,36.5,46.88Z"/><path class="cls-2" d="M39,46.88a.39.39,0,0,1-.37-.39.36.36,0,0,1,.11-.26.39.39,0,0,1,.53,0,.38.38,0,0,1,.11.26.37.37,0,0,1-.11.27A.36.36,0,0,1,39,46.88Z"/><path class="cls-2" d="M48.5,66.88a.37.37,0,0,1-.26-.12.37.37,0,0,1-.11-.27.42.42,0,0,1,.1-.26.38.38,0,0,1,.65.26.37.37,0,0,1-.11.27A.4.4,0,0,1,48.5,66.88Z"/><path class="cls-2" d="M36.5,49.38a.39.39,0,0,1-.37-.39.36.36,0,0,1,.11-.26.39.39,0,0,1,.53,0,.38.38,0,0,1,.11.26.37.37,0,0,1-.11.27A.36.36,0,0,1,36.5,49.38Z"/><path class="cls-2" d="M32.5,49.38a.44.44,0,0,1-.26-.1.45.45,0,0,1-.11-.28.35.35,0,0,1,.11-.27.39.39,0,0,1,.53,0,.37.37,0,0,1,.11.27.36.36,0,0,1-.11.26A.37.37,0,0,1,32.5,49.38Z"/><path class="cls-2" d="M30.5,46.38a.34.34,0,0,1-.26-.12.32.32,0,0,1-.11-.27.36.36,0,0,1,.11-.26.39.39,0,0,1,.53,0,.38.38,0,0,1,.11.26.3.3,0,0,1-.12.27A.32.32,0,0,1,30.5,46.38Z"/><path class="cls-2" d="M32.5,50.88a.34.34,0,0,1-.26-.12.33.33,0,0,1-.11-.26.37.37,0,0,1,.11-.27.38.38,0,0,1,.64.27.36.36,0,0,1-.11.26A.36.36,0,0,1,32.5,50.88Z"/><path class="cls-2" d="M30.5,51.88a.34.34,0,0,1-.26-.12.33.33,0,0,1-.11-.26.37.37,0,0,1,.11-.27.38.38,0,0,1,.64.27.36.36,0,0,1-.11.26A.36.36,0,0,1,30.5,51.88Z"/><path class="cls-2" d="M29.5,48.88a.34.34,0,0,1-.26-.12.32.32,0,0,1-.11-.26.38.38,0,0,1,.63-.28.39.39,0,0,1,.12.28.3.3,0,0,1-.12.26A.32.32,0,0,1,29.5,48.88Z"/><path class="cls-2" d="M28,45.38a.36.36,0,0,1-.27-.12.4.4,0,0,1-.1-.26.37.37,0,0,1,.11-.27.41.41,0,0,1,.53,0,.35.35,0,0,1,.11.27.33.33,0,0,1-.11.26A.36.36,0,0,1,28,45.38Z"/><path class="cls-2" d="M26.5,47.38a.36.36,0,0,1-.27-.12.35.35,0,0,1-.1-.26.37.37,0,0,1,.11-.27.38.38,0,0,1,.64.27.3.3,0,0,1-.12.26A.32.32,0,0,1,26.5,47.38Z"/><path class="cls-2" d="M27.5,43.88a.34.34,0,0,1-.26-.12.33.33,0,0,1-.11-.26.37.37,0,0,1,.11-.27.38.38,0,0,1,.64.27.36.36,0,0,1-.11.26A.36.36,0,0,1,27.5,43.88Z"/><path class="cls-2" d="M25.5,44.88a.36.36,0,0,1-.27-.12.4.4,0,0,1-.1-.26.39.39,0,0,1,.11-.27.41.41,0,0,1,.53,0,.39.39,0,0,1,.11.27.36.36,0,0,1-.11.26A.36.36,0,0,1,25.5,44.88Z"/><path class="cls-2" d="M26,41.88a.36.36,0,0,1-.27-.12.36.36,0,0,1-.1-.26.35.35,0,0,1,.11-.27.41.41,0,0,1,.53,0,.37.37,0,0,1,.11.27.36.36,0,0,1-.11.26A.36.36,0,0,1,26,41.88Z"/><path class="cls-2" d="M24,43.38a.34.34,0,0,1-.26-.12.33.33,0,0,1-.11-.26.35.35,0,0,1,.11-.27.39.39,0,0,1,.53,0,.37.37,0,0,1,.11.27.36.36,0,0,1-.11.26A.36.36,0,0,1,24,43.38Z"/><path class="cls-2" d="M25,40.38a.34.34,0,0,1-.26-.12.33.33,0,0,1-.11-.26.37.37,0,0,1,.11-.27.38.38,0,0,1,.64.27.36.36,0,0,1-.11.26A.36.36,0,0,1,25,40.38Z"/><path class="cls-2" d="M26,38.88a.34.34,0,0,1-.26-.12.36.36,0,0,1-.11-.26.35.35,0,0,1,.11-.27.41.41,0,0,1,.53,0,.37.37,0,0,1,.11.27.36.36,0,0,1-.11.26A.37.37,0,0,1,26,38.88Z"/><path class="cls-2" d="M27,35.88a.36.36,0,0,1-.27-.12.4.4,0,0,1-.1-.26.35.35,0,0,1,.11-.27.41.41,0,0,1,.53,0,.37.37,0,0,1,.11.27.36.36,0,0,1-.11.26A.36.36,0,0,1,27,35.88Z"/><path class="cls-2" d="M24.5,36.38a.36.36,0,0,1-.27-.12.4.4,0,0,1-.1-.26.35.35,0,0,1,.11-.27.41.41,0,0,1,.53,0,.37.37,0,0,1,.11.27.36.36,0,0,1-.11.26A.36.36,0,0,1,24.5,36.38Z"/><path class="cls-2" d="M28,33.38a.36.36,0,0,1-.27-.12.36.36,0,0,1-.1-.26.39.39,0,0,1,.11-.27.41.41,0,0,1,.53,0,.37.37,0,0,1,.11.27.3.3,0,0,1-.12.26A.32.32,0,0,1,28,33.38Z"/><path class="cls-2" d="M27,35.88a.36.36,0,0,1-.27-.12.4.4,0,0,1-.1-.26.35.35,0,0,1,.11-.27.41.41,0,0,1,.53,0,.37.37,0,0,1,.11.27.36.36,0,0,1-.11.26A.36.36,0,0,1,27,35.88Z"/><path class="cls-2" d="M26.5,32.88a.36.36,0,0,1-.27-.12.35.35,0,0,1-.1-.26.38.38,0,1,1,.75,0,.3.3,0,0,1-.12.26A.32.32,0,0,1,26.5,32.88Z"/><path class="cls-2" d="M29.5,32.38a.34.34,0,0,1-.26-.12.33.33,0,0,1-.11-.26.37.37,0,0,1,.11-.27.38.38,0,0,1,.64.27.36.36,0,0,1-.11.26A.36.36,0,0,1,29.5,32.38Z"/><path class="cls-2" d="M28,30.38a.36.36,0,0,1-.27-.12.4.4,0,0,1-.1-.26.37.37,0,0,1,.11-.27.41.41,0,0,1,.53,0,.35.35,0,0,1,.11.27.33.33,0,0,1-.11.26A.36.36,0,0,1,28,30.38Z"/><path class="cls-2" d="M31.5,30.88a.34.34,0,0,1-.26-.12.32.32,0,0,1-.11-.27.36.36,0,0,1,.11-.26.39.39,0,0,1,.53,0,.38.38,0,0,1,.11.26.3.3,0,0,1-.12.27A.32.32,0,0,1,31.5,30.88Z"/><path class="cls-2" d="M30.5,28.38a.39.39,0,0,1-.37-.39.36.36,0,0,1,.11-.26.39.39,0,0,1,.53,0,.38.38,0,0,1,.11.26.37.37,0,0,1-.11.27A.36.36,0,0,1,30.5,28.38Z"/><path class="cls-2" d="M33,28.38a.34.34,0,0,1-.26-.12.32.32,0,0,1-.11-.27.36.36,0,0,1,.11-.26.39.39,0,0,1,.53,0,.38.38,0,0,1,.11.26.32.32,0,0,1-.12.27A.32.32,0,0,1,33,28.38Z"/><path class="cls-2" d="M35,28.38a.34.34,0,0,1-.26-.12.32.32,0,0,1-.11-.26.35.35,0,0,1,.11-.27.39.39,0,0,1,.53,0,.37.37,0,0,1,.11.27.3.3,0,0,1-.12.26A.32.32,0,0,1,35,28.38Z"/><path class="cls-2" d="M23,28.38a.36.36,0,0,1-.27-.12.36.36,0,0,1-.1-.26.35.35,0,0,1,.11-.27.41.41,0,0,1,.53,0,.37.37,0,0,1,.11.27.36.36,0,0,1-.11.26A.36.36,0,0,1,23,28.38Z"/><path class="cls-2" d="M21,27.88a.36.36,0,0,1-.27-.12.36.36,0,0,1-.1-.26.37.37,0,0,1,.11-.27.41.41,0,0,1,.53,0,.37.37,0,0,1,.11.27.33.33,0,0,1-.11.26A.36.36,0,0,1,21,27.88Z"/><path class="cls-2" d="M22.5,29.88a.36.36,0,0,1-.27-.12.36.36,0,0,1-.1-.26.37.37,0,0,1,.11-.27.41.41,0,0,1,.53,0,.39.39,0,0,1,.11.27.36.36,0,0,1-.11.26A.36.36,0,0,1,22.5,29.88Z"/><path class="cls-2" d="M19.5,29.88a.36.36,0,0,1-.27-.12.4.4,0,0,1-.1-.26.39.39,0,0,1,.11-.27.41.41,0,0,1,.53,0,.37.37,0,0,1,.11.27.36.36,0,0,1-.11.26A.36.36,0,0,1,19.5,29.88Z"/><path class="cls-2" d="M21.5,32.88a.36.36,0,0,1-.27-.12.4.4,0,0,1-.1-.26.35.35,0,0,1,.11-.27.41.41,0,0,1,.53,0,.35.35,0,0,1,.11.27.33.33,0,0,1-.11.26A.36.36,0,0,1,21.5,32.88Z"/><path class="cls-2" d="M19,31.88a.36.36,0,0,1-.27-.12.37.37,0,0,1-.1-.27.36.36,0,0,1,.11-.26.41.41,0,0,1,.53,0,.36.36,0,0,1,.11.26.32.32,0,0,1-.12.27A.32.32,0,0,1,19,31.88Z"/><path class="cls-2" d="M16,32.38a.36.36,0,0,1-.27-.12.4.4,0,0,1-.1-.26.37.37,0,0,1,.11-.27.41.41,0,0,1,.53,0,.37.37,0,0,1,.11.27.36.36,0,0,1-.11.26A.36.36,0,0,1,16,32.38Z"/><path class="cls-2" d="M15,28.88a.36.36,0,0,1-.27-.12.4.4,0,0,1-.1-.26.37.37,0,0,1,.11-.27.41.41,0,0,1,.53,0,.37.37,0,0,1,.11.27.36.36,0,0,1-.11.26A.36.36,0,0,1,15,28.88Z"/><path class="cls-2" d="M13.5,32.38a.36.36,0,0,1-.27-.12.4.4,0,0,1-.1-.26.38.38,0,1,1,.75,0,.36.36,0,0,1-.11.26A.36.36,0,0,1,13.5,32.38Z"/><path class="cls-2" d="M16.5,33.88a.36.36,0,0,1-.27-.12.4.4,0,0,1-.1-.26.39.39,0,0,1,.11-.27.41.41,0,0,1,.53,0,.37.37,0,0,1,.11.27.33.33,0,0,1-.11.26A.36.36,0,0,1,16.5,33.88Z"/><path class="cls-2" d="M18.5,36.38a.36.36,0,0,1-.27-.12.36.36,0,0,1-.1-.26.37.37,0,0,1,.11-.27.41.41,0,0,1,.53,0,.37.37,0,0,1,.11.27.33.33,0,0,1-.11.26A.36.36,0,0,1,18.5,36.38Z"/><path class="cls-2" d="M14.5,36.88a.38.38,0,0,1-.37-.39.38.38,0,0,1,.11-.26.41.41,0,0,1,.53,0,.38.38,0,0,1,.11.26.3.3,0,0,1-.12.27A.32.32,0,0,1,14.5,36.88Z"/><path class="cls-2" d="M17,38.38a.36.36,0,0,1-.27-.12.37.37,0,0,1-.1-.27.38.38,0,0,1,.11-.26.41.41,0,0,1,.53,0,.38.38,0,0,1,.11.26.32.32,0,0,1-.12.27A.32.32,0,0,1,17,38.38Z"/><path class="cls-2" d="M13.5,39.88a.36.36,0,0,1-.27-.12.4.4,0,0,1-.1-.26.35.35,0,0,1,.11-.27.41.41,0,0,1,.53,0,.35.35,0,0,1,.11.27.36.36,0,0,1-.11.26A.36.36,0,0,1,13.5,39.88Z"/><path class="cls-2" d="M12.5,41.88a.36.36,0,0,1-.27-.12.37.37,0,0,1-.1-.27.36.36,0,0,1,.11-.26.41.41,0,0,1,.53,0,.36.36,0,0,1,.11.26.32.32,0,0,1-.12.27A.32.32,0,0,1,12.5,41.88Z"/><path class="cls-2" d="M13,44.38a.36.36,0,0,1-.27-.12.4.4,0,0,1-.1-.26.38.38,0,0,1,.64-.27.37.37,0,0,1,.11.27.33.33,0,0,1-.11.26A.36.36,0,0,1,13,44.38Z"/><path class="cls-2" d="M11,44.38a.36.36,0,0,1-.27-.12.4.4,0,0,1-.1-.26.39.39,0,0,1,.11-.27.41.41,0,0,1,.53,0,.39.39,0,0,1,.11.27.36.36,0,0,1-.11.26A.36.36,0,0,1,11,44.38Z"/><path class="cls-2" d="M9,46.38a.34.34,0,0,1-.27-.13.36.36,0,0,1-.1-.25.39.39,0,0,1,.11-.27.41.41,0,0,1,.53,0,.39.39,0,0,1,.11.27.36.36,0,0,1-.11.26A.36.36,0,0,1,9,46.38Z"/><path class="cls-2" d="M11.5,47.38a.36.36,0,0,1-.27-.12.4.4,0,0,1-.1-.26.39.39,0,0,1,.11-.27.41.41,0,0,1,.53,0,.37.37,0,0,1,.11.27.33.33,0,0,1-.11.26A.36.36,0,0,1,11.5,47.38Z"/><path class="cls-2" d="M10.5,50.38a.36.36,0,0,1-.27-.12.36.36,0,0,1-.1-.26.37.37,0,0,1,.11-.27.41.41,0,0,1,.53,0,.37.37,0,0,1,.11.27.33.33,0,0,1-.11.26A.36.36,0,0,1,10.5,50.38Z"/><path class="cls-2" d="M6,47.88a.36.36,0,0,1-.27-.12.4.4,0,0,1-.1-.26.39.39,0,0,1,.11-.27.41.41,0,0,1,.53,0,.39.39,0,0,1,.11.27.36.36,0,0,1-.11.26A.36.36,0,0,1,6,47.88Z"/><path class="cls-2" d="M5,50.38a.36.36,0,0,1-.27-.12.4.4,0,0,1-.1-.26.37.37,0,0,1,.11-.27.41.41,0,0,1,.53,0,.37.37,0,0,1,.11.27.36.36,0,0,1-.11.26A.36.36,0,0,1,5,50.38Z"/><path class="cls-2" d="M7.5,51.88a.36.36,0,0,1-.27-.12.4.4,0,0,1-.1-.26.39.39,0,0,1,.11-.27.41.41,0,0,1,.53,0,.39.39,0,0,1,.11.27.36.36,0,0,1-.11.26A.36.36,0,0,1,7.5,51.88Z"/><path class="cls-2" d="M4.5,44.88a.36.36,0,0,1-.27-.12.4.4,0,0,1-.1-.26.39.39,0,0,1,.11-.27.41.41,0,0,1,.53,0,.39.39,0,0,1,.11.27.36.36,0,0,1-.11.26A.36.36,0,0,1,4.5,44.88Z"/><path class="cls-2" d="M3,47.88a.36.36,0,0,1-.27-.12.4.4,0,0,1-.1-.26.39.39,0,0,1,.11-.27.41.41,0,0,1,.53,0,.39.39,0,0,1,.11.27.36.36,0,0,1-.11.26A.36.36,0,0,1,3,47.88Z"/><path class="cls-2" d="M.5,44.88a.34.34,0,0,1-.27-.13.36.36,0,0,1-.1-.25.39.39,0,0,1,.11-.27.41.41,0,0,1,.53,0,.39.39,0,0,1,.11.27.36.36,0,0,1-.11.26A.36.36,0,0,1,.5,44.88Z"/><path class="cls-2" d="M3.5,42.88a.36.36,0,0,1-.27-.12.41.41,0,0,1-.1-.27.38.38,0,0,1,.11-.26.41.41,0,0,1,.53,0,.38.38,0,0,1,.11.26.37.37,0,0,1-.11.27A.36.36,0,0,1,3.5,42.88Z"/><path class="cls-2" d="M1,41.38a.34.34,0,0,1-.26-.12A.32.32,0,0,1,.63,41a.36.36,0,0,1,.11-.26.39.39,0,0,1,.53,0,.38.38,0,0,1,.11.26.3.3,0,0,1-.12.27A.32.32,0,0,1,1,41.38Z"/><path class="cls-2" d="M5,41.38a.36.36,0,0,1-.27-.12.37.37,0,0,1-.1-.27.36.36,0,0,1,.11-.26.41.41,0,0,1,.53,0,.36.36,0,0,1,.11.26.32.32,0,0,1-.12.27A.32.32,0,0,1,5,41.38Z"/><path class="cls-2" d="M2.5,39.88a.36.36,0,0,1-.27-.12.4.4,0,0,1-.1-.26.39.39,0,0,1,.11-.27.41.41,0,0,1,.53,0,.39.39,0,0,1,.11.27.36.36,0,0,1-.11.26A.36.36,0,0,1,2.5,39.88Z"/><path class="cls-2" d="M6,37.88a.38.38,0,0,1-.37-.39.38.38,0,0,1,.11-.26.41.41,0,0,1,.53,0,.38.38,0,0,1,.11.26.3.3,0,0,1-.12.27A.32.32,0,0,1,6,37.88Z"/><path class="cls-2" d="M2.5,36.88a.36.36,0,0,1-.27-.12.36.36,0,0,1-.1-.26.39.39,0,0,1,.11-.27.41.41,0,0,1,.53,0,.39.39,0,0,1,.11.27.33.33,0,0,1-.11.26A.36.36,0,0,1,2.5,36.88Z"/><path class="cls-2" d="M6,33.88a.36.36,0,0,1-.27-.12.4.4,0,0,1-.1-.26.39.39,0,0,1,.11-.27.41.41,0,0,1,.53,0,.39.39,0,0,1,.11.27.36.36,0,0,1-.11.26A.36.36,0,0,1,6,33.88Z"/><path class="cls-2" d="M8,35.38a.36.36,0,0,1-.27-.12.4.4,0,0,1-.1-.26.39.39,0,0,1,.11-.27.41.41,0,0,1,.53,0,.39.39,0,0,1,.11.27.36.36,0,0,1-.11.26A.36.36,0,0,1,8,35.38Z"/><path class="cls-2" d="M8,32.88a.36.36,0,0,1-.27-.12.41.41,0,0,1-.1-.27.38.38,0,0,1,.11-.26.41.41,0,0,1,.53,0,.38.38,0,0,1,.11.26.37.37,0,0,1-.11.27A.36.36,0,0,1,8,32.88Z"/><path class="cls-2" d="M3.5,32.38a.36.36,0,0,1-.27-.12.4.4,0,0,1-.1-.26.39.39,0,0,1,.11-.27.41.41,0,0,1,.53,0,.39.39,0,0,1,.11.27.36.36,0,0,1-.11.26A.36.36,0,0,1,3.5,32.38Z"/><path class="cls-2" d="M7.5,30.38a.36.36,0,0,1-.27-.12.4.4,0,0,1-.1-.26.39.39,0,0,1,.11-.27.41.41,0,0,1,.53,0,.39.39,0,0,1,.11.27.36.36,0,0,1-.11.26A.36.36,0,0,1,7.5,30.38Z"/><path class="cls-2" d="M4.5,28.38a.36.36,0,0,1-.27-.12.4.4,0,0,1-.1-.26.37.37,0,0,1,.11-.27.41.41,0,0,1,.53,0,.37.37,0,0,1,.11.27.36.36,0,0,1-.11.26A.36.36,0,0,1,4.5,28.38Z"/><path class="cls-2" d="M.5,30.38a.34.34,0,0,1-.27-.13A.36.36,0,0,1,.13,30a.39.39,0,0,1,.11-.27.41.41,0,0,1,.53,0A.39.39,0,0,1,.88,30a.36.36,0,0,1-.11.26A.36.36,0,0,1,.5,30.38Z"/><path class="cls-2" d="M67.5,63.88a.38.38,0,0,1-.37-.38.37.37,0,0,1,.11-.27.38.38,0,0,1,.64.27.36.36,0,0,1-.11.26A.4.4,0,0,1,67.5,63.88Z"/><path class="cls-2" d="M63.5,64.88a.37.37,0,0,1-.26-.12.36.36,0,0,1-.11-.26.38.38,0,0,1,.1-.27.39.39,0,0,1,.54,0,.37.37,0,0,1,.11.27.33.33,0,0,1-.11.26A.4.4,0,0,1,63.5,64.88Z"/><path class="cls-2" d="M67.5,66.88a.38.38,0,0,1-.37-.38.38.38,0,1,1,.75,0,.36.36,0,0,1-.11.26A.4.4,0,0,1,67.5,66.88Z"/><path class="cls-2" d="M60,45.62a.35.35,0,0,1-.27-.11.4.4,0,0,1-.1-.26.39.39,0,0,1,.11-.27.41.41,0,0,1,.53,0,.39.39,0,0,1,.11.27.36.36,0,0,1-.11.26A.35.35,0,0,1,60,45.62Z"/><path class="cls-2" d="M64,45.38a.36.36,0,0,1-.27-.12.36.36,0,0,1-.1-.26.38.38,0,0,1,.64-.27.37.37,0,0,1,.11.27.31.31,0,0,1-.12.26A.32.32,0,0,1,64,45.38Z"/><path class="cls-2" d="M57,49.12a.33.33,0,0,1-.26-.11.34.34,0,0,1-.11-.27.36.36,0,0,1,.11-.26.39.39,0,0,1,.53,0,.36.36,0,0,1,.11.26.34.34,0,0,1-.11.27A.35.35,0,0,1,57,49.12Z"/><path class="cls-2" d="M65.5,41.38a.36.36,0,0,1-.27-.12.41.41,0,0,1-.1-.27.36.36,0,0,1,.11-.26.41.41,0,0,1,.53,0,.36.36,0,0,1,.11.26.37.37,0,0,1-.11.27A.37.37,0,0,1,65.5,41.38Z"/><path class="cls-2" d="M65,38.38a.36.36,0,0,1-.27-.12.36.36,0,0,1-.1-.26.39.39,0,0,1,.11-.27.41.41,0,0,1,.53,0,.39.39,0,0,1,.11.27.31.31,0,0,1-.12.26A.32.32,0,0,1,65,38.38Z"/><path class="cls-2" d="M63.5,32.38a.34.34,0,0,1-.26-.12.36.36,0,0,1-.11-.26.39.39,0,0,1,.1-.27.4.4,0,0,1,.54,0,.39.39,0,0,1,.11.27.31.31,0,0,1-.12.26A.32.32,0,0,1,63.5,32.38Z"/><path class="cls-2" d="M65,29.38a.36.36,0,0,1-.27-.12.36.36,0,0,1-.1-.26.39.39,0,0,1,.11-.27.41.41,0,0,1,.53,0,.39.39,0,0,1,.11.27.31.31,0,0,1-.12.26A.32.32,0,0,1,65,29.38Z"/><path class="cls-2" d="M22.75,39.38a.34.34,0,0,1-.26-.12.33.33,0,0,1-.11-.26.35.35,0,0,1,.11-.27.39.39,0,0,1,.53,0,.37.37,0,0,1,.11.27.36.36,0,0,1-.11.26A.36.36,0,0,1,22.75,39.38Z"/><path class="cls-2" d="M22,51.88a.36.36,0,0,1-.27-.12.36.36,0,0,1-.1-.26.38.38,0,1,1,.75,0,.33.33,0,0,1-.11.26A.36.36,0,0,1,22,51.88Z"/><path class="cls-2" d="M18,51.38a.36.36,0,0,1-.27-.12.4.4,0,0,1-.1-.26.39.39,0,0,1,.11-.27.41.41,0,0,1,.53,0,.39.39,0,0,1,.11.27.36.36,0,0,1-.11.26A.36.36,0,0,1,18,51.38Z"/><path class="cls-2" d="M20.5,50.38a.36.36,0,0,1-.27-.12.4.4,0,0,1-.1-.26.39.39,0,0,1,.11-.27.41.41,0,0,1,.53,0,.37.37,0,0,1,.11.27.33.33,0,0,1-.11.26A.36.36,0,0,1,20.5,50.38Z"/><path class="cls-2" d="M22.5,49.38a.36.36,0,0,1-.27-.12.36.36,0,0,1-.1-.26.39.39,0,0,1,.11-.27.41.41,0,0,1,.53,0,.39.39,0,0,1,.11.27.36.36,0,0,1-.11.26A.36.36,0,0,1,22.5,49.38Z"/><path class="cls-2" d="M18,49.38a.36.36,0,0,1-.27-.12.4.4,0,0,1-.1-.26.38.38,0,1,1,.75,0,.36.36,0,0,1-.11.26A.36.36,0,0,1,18,49.38Z"/><path class="cls-2" d="M15.5,49.88a.36.36,0,0,1-.27-.12.37.37,0,0,1-.1-.27.36.36,0,0,1,.11-.26.41.41,0,0,1,.53,0,.38.38,0,0,1,.11.26.32.32,0,0,1-.12.27A.32.32,0,0,1,15.5,49.88Z"/><path class="cls-2" d="M17,46.88a.36.36,0,0,1-.27-.12.4.4,0,0,1-.1-.26.39.39,0,0,1,.11-.27.41.41,0,0,1,.53,0,.39.39,0,0,1,.11.27.36.36,0,0,1-.11.26A.36.36,0,0,1,17,46.88Z"/><path class="cls-2" d="M19.5,46.38a.36.36,0,0,1-.27-.12.4.4,0,0,1-.1-.26.39.39,0,0,1,.11-.27.41.41,0,0,1,.53,0,.39.39,0,0,1,.11.27.33.33,0,0,1-.11.26A.36.36,0,0,1,19.5,46.38Z"/><path class="cls-2" d="M19,43.38a.38.38,0,0,1-.37-.39.36.36,0,0,1,.11-.26.41.41,0,0,1,.53,0,.36.36,0,0,1,.11.26.3.3,0,0,1-.12.27A.32.32,0,0,1,19,43.38Z"/><path class="cls-2" d="M20.5,41.38a.36.36,0,0,1-.27-.12.4.4,0,0,1-.1-.26.37.37,0,0,1,.11-.27.41.41,0,0,1,.53,0,.35.35,0,0,1,.11.27.33.33,0,0,1-.11.26A.36.36,0,0,1,20.5,41.38Z"/><path class="cls-2" d="M49.5,50.88a.34.34,0,0,1-.26-.12.33.33,0,0,1-.11-.26.37.37,0,0,1,.11-.27.38.38,0,0,1,.64.27.31.31,0,0,1-.12.26A.32.32,0,0,1,49.5,50.88Z"/><path class="cls-2" d="M46,52.38a.34.34,0,0,1-.26-.12.33.33,0,0,1-.11-.26.37.37,0,0,1,.11-.27.38.38,0,0,1,.64.27.36.36,0,0,1-.11.26A.36.36,0,0,1,46,52.38Z"/><path class="cls-2" d="M43.5,50.88a.34.34,0,0,1-.26-.12.33.33,0,0,1-.11-.26.37.37,0,0,1,.11-.27.38.38,0,0,1,.64.27.36.36,0,0,1-.11.26A.36.36,0,0,1,43.5,50.88Z"/><path class="cls-2" d="M48,49.38a.34.34,0,0,1-.26-.12.32.32,0,0,1-.11-.26.35.35,0,0,1,.11-.27.39.39,0,0,1,.53,0,.35.35,0,0,1,.11.27.3.3,0,0,1-.12.26A.32.32,0,0,1,48,49.38Z"/><path class="cls-2" d="M49.5,44.88a.34.34,0,0,1-.26-.12.32.32,0,0,1-.11-.26.35.35,0,0,1,.11-.27.39.39,0,0,1,.53,0,.37.37,0,0,1,.11.27.3.3,0,0,1-.12.26A.32.32,0,0,1,49.5,44.88Z"/><path class="cls-2" d="M47,44.38a.34.34,0,0,1-.26-.12.32.32,0,0,1-.11-.27.36.36,0,0,1,.11-.26.39.39,0,0,1,.53,0,.36.36,0,0,1,.11.26.32.32,0,0,1-.12.27A.32.32,0,0,1,47,44.38Z"/><path class="cls-2" d="M45.5,47.88a.34.34,0,0,1-.26-.12.33.33,0,0,1-.11-.26.37.37,0,0,1,.11-.27.38.38,0,0,1,.64.27.36.36,0,0,1-.11.26A.36.36,0,0,1,45.5,47.88Z"/><path class="cls-2" d="M50.5,42.38a.34.34,0,0,1-.26-.12.36.36,0,0,1-.11-.26.39.39,0,0,1,.1-.27.4.4,0,0,1,.54,0,.39.39,0,0,1,.11.27.36.36,0,0,1-.11.26A.36.36,0,0,1,50.5,42.38Z"/><path class="cls-2" d="M48,41.38a.34.34,0,0,1-.26-.12.33.33,0,0,1-.11-.26.37.37,0,0,1,.11-.27.39.39,0,0,1,.53,0,.37.37,0,0,1,.11.27.33.33,0,0,1-.11.26A.36.36,0,0,1,48,41.38Z"/><path class="cls-2" d="M51,40.38a.34.34,0,0,1-.26-.12.32.32,0,0,1-.11-.26.35.35,0,0,1,.11-.27.39.39,0,0,1,.53,0,.35.35,0,0,1,.11.27.3.3,0,0,1-.12.26A.32.32,0,0,1,51,40.38Z"/><path class="cls-2" d="M48.5,38.38a.34.34,0,0,1-.26-.12.37.37,0,0,1-.11-.27.42.42,0,0,1,.1-.26.39.39,0,0,1,.53,0,.35.35,0,0,1,.12.26.37.37,0,0,1-.11.27A.36.36,0,0,1,48.5,38.38Z"/><path class="cls-2" d="M51,35.88a.34.34,0,0,1-.26-.12.33.33,0,0,1-.11-.26.37.37,0,0,1,.11-.27.38.38,0,0,1,.64.27.33.33,0,0,1-.11.26A.36.36,0,0,1,51,35.88Z"/><path class="cls-2" d="M48.5,36.88a.34.34,0,0,1-.26-.12.37.37,0,0,1-.11-.27.42.42,0,0,1,.1-.26.4.4,0,0,1,.54,0,.38.38,0,0,1,.11.26.37.37,0,0,1-.11.27A.36.36,0,0,1,48.5,36.88Z"/><path class="cls-2" d="M51.5,33.38a.39.39,0,0,1-.37-.39.36.36,0,0,1,.11-.26.39.39,0,0,1,.53,0,.36.36,0,0,1,.11.26.37.37,0,0,1-.11.27A.36.36,0,0,1,51.5,33.38Z"/><path class="cls-2" d="M54,31.38a.34.34,0,0,1-.26-.12.36.36,0,0,1-.11-.26.39.39,0,0,1,.11-.27.41.41,0,0,1,.53,0,.39.39,0,0,1,.11.27.36.36,0,0,1-.11.26A.37.37,0,0,1,54,31.38Z"/><path class="cls-2" d="M54,28.88a.36.36,0,0,1-.27-.12.4.4,0,0,1-.1-.26.39.39,0,0,1,.11-.27.41.41,0,0,1,.53,0,.39.39,0,0,1,.11.27.36.36,0,0,1-.11.26A.37.37,0,0,1,54,28.88Z"/><path class="cls-2" d="M23,46.38a.36.36,0,0,1-.27-.12.36.36,0,0,1-.1-.26.35.35,0,0,1,.11-.27.41.41,0,0,1,.53,0,.37.37,0,0,1,.11.27.36.36,0,0,1-.11.26A.36.36,0,0,1,23,46.38Z"/><path class="cls-2" d="M64.5,34.88a.34.34,0,0,1-.26-.12.36.36,0,0,1-.11-.26.38.38,0,1,1,.75,0,.36.36,0,0,1-.11.26A.37.37,0,0,1,64.5,34.88Z"/><path class="cls-2" d="M57.75,51.12a.33.33,0,0,1-.26-.11.35.35,0,0,1-.11-.27.42.42,0,0,1,.1-.26.39.39,0,0,1,.53,0,.35.35,0,0,1,.12.26A.37.37,0,0,1,58,51,.35.35,0,0,1,57.75,51.12Z"/><path class="cls-2" d="M28.25,37.88a.36.36,0,0,1-.27-.12.41.41,0,0,1-.1-.27.38.38,0,0,1,.11-.26.41.41,0,0,1,.53,0,.36.36,0,0,1,.11.26.34.34,0,0,1-.11.27A.36.36,0,0,1,28.25,37.88Z"/><path class="cls-2" d="M4.25,52.38A.36.36,0,0,1,4,52.26a.37.37,0,0,1-.1-.27A.38.38,0,0,1,4,51.73a.41.41,0,0,1,.53,0,.38.38,0,0,1,.11.26.32.32,0,0,1-.12.27A.32.32,0,0,1,4.25,52.38Z"/><path class="cls-2" d="M51.5,38.12a.33.33,0,0,1-.26-.11.37.37,0,0,1-.11-.27.36.36,0,0,1,.11-.26.39.39,0,0,1,.53,0,.38.38,0,0,1,.11.26.37.37,0,0,1-.11.27A.35.35,0,0,1,51.5,38.12Z"/><path class="cls-2" d="M54,41.12a.35.35,0,0,1-.27-.11.4.4,0,0,1-.1-.26.37.37,0,0,1,.11-.27.41.41,0,0,1,.53,0,.37.37,0,0,1,.11.27.38.38,0,0,1-.38.37Z"/><path class="cls-2" d="M54,36.12a.35.35,0,0,1-.27-.11.4.4,0,0,1-.1-.26.39.39,0,0,1,.11-.27.41.41,0,0,1,.53,0,.39.39,0,0,1,.11.27.38.38,0,0,1-.38.37Z"/><path class="cls-2" d="M48.25,52.62a.34.34,0,0,1-.26-.11.33.33,0,0,1-.11-.26A.37.37,0,0,1,48,52a.38.38,0,0,1,.64.27.38.38,0,0,1-.38.37Z"/><path class="cls-2" d="M44.25,54.88a.34.34,0,0,1-.26-.12.32.32,0,0,1-.11-.26.35.35,0,0,1,.11-.27.39.39,0,0,1,.53,0,.37.37,0,0,1,.11.27.3.3,0,0,1-.12.26A.32.32,0,0,1,44.25,54.88Z"/><path class="cls-2" d="M32.5,52.88a.34.34,0,0,1-.26-.12.33.33,0,0,1-.11-.26.37.37,0,0,1,.11-.27.38.38,0,0,1,.64.27.36.36,0,0,1-.11.26A.36.36,0,0,1,32.5,52.88Z"/><path class="cls-2" d="M11,38.12a.35.35,0,0,1-.27-.11.4.4,0,0,1-.1-.26.39.39,0,0,1,.11-.27.41.41,0,0,1,.53,0,.39.39,0,0,1,.11.27.36.36,0,0,1-.11.26A.35.35,0,0,1,11,38.12Z"/><path class="cls-2" d="M10,40.12A.35.35,0,0,1,9.73,40a.36.36,0,0,1-.1-.26.39.39,0,0,1,.11-.27.41.41,0,0,1,.53,0,.39.39,0,0,1,.11.27.33.33,0,0,1-.11.26A.35.35,0,0,1,10,40.12Z"/><path class="cls-2" d="M10.5,42.62a.35.35,0,0,1-.27-.11.4.4,0,0,1-.1-.26.35.35,0,0,1,.11-.27.41.41,0,0,1,.53,0,.35.35,0,0,1,.11.27.36.36,0,0,1-.11.26A.35.35,0,0,1,10.5,42.62Z"/><path class="cls-2" d="M8.5,42.62a.35.35,0,0,1-.27-.11.4.4,0,0,1-.1-.26A.35.35,0,0,1,8.24,42a.41.41,0,0,1,.53,0,.35.35,0,0,1,.11.27.36.36,0,0,1-.11.26A.35.35,0,0,1,8.5,42.62Z"/><path class="cls-2" d="M18.75,52.88a.34.34,0,0,1-.26-.12.33.33,0,0,1-.11-.26.35.35,0,0,1,.11-.27.39.39,0,0,1,.53,0,.37.37,0,0,1,.11.27.36.36,0,0,1-.11.26A.36.36,0,0,1,18.75,52.88Z"/><path class="cls-2" d="M15.75,52.38a.36.36,0,0,1-.27-.12.41.41,0,0,1-.1-.27.38.38,0,0,1,.11-.26.41.41,0,0,1,.53,0,.38.38,0,0,1,.11.26.37.37,0,0,1-.11.27A.36.36,0,0,1,15.75,52.38Z"/><path class="cls-2" d="M14.25,54.88a.36.36,0,0,1-.27-.12.4.4,0,0,1-.1-.26.37.37,0,0,1,.11-.27.41.41,0,0,1,.53,0,.37.37,0,0,1,.11.27.36.36,0,0,1-.11.26A.36.36,0,0,1,14.25,54.88Z"/><path class="cls-2" d="M17.25,54.88a.36.36,0,0,1-.27-.12.35.35,0,0,1-.1-.26.39.39,0,0,1,.11-.27.41.41,0,0,1,.53,0,.39.39,0,0,1,.11.27.3.3,0,0,1-.12.26A.32.32,0,0,1,17.25,54.88Z"/><path class="cls-2" d="M20.25,55.38a.36.36,0,0,1-.27-.12.4.4,0,0,1-.1-.26.37.37,0,0,1,.11-.27.41.41,0,0,1,.53,0,.37.37,0,0,1,.11.27.36.36,0,0,1-.11.26A.36.36,0,0,1,20.25,55.38Z"/><path class="cls-2" d="M34.5,58.38a.39.39,0,0,1-.37-.39.36.36,0,0,1,.11-.26.39.39,0,0,1,.53,0,.38.38,0,0,1,.11.26.37.37,0,0,1-.11.27A.36.36,0,0,1,34.5,58.38Z"/><path class="cls-2" d="M30,54.38a.34.34,0,0,1-.26-.12.33.33,0,0,1-.11-.26.37.37,0,0,1,.11-.27.38.38,0,0,1,.64.27.36.36,0,0,1-.11.26A.36.36,0,0,1,30,54.38Z"/><path class="cls-2" d="M33,54.88a.34.34,0,0,1-.26-.12.32.32,0,0,1-.11-.26.35.35,0,0,1,.11-.27.39.39,0,0,1,.53,0,.37.37,0,0,1,.11.27.3.3,0,0,1-.12.26A.32.32,0,0,1,33,54.88Z"/><path class="cls-2" d="M58,42.38a.34.34,0,0,1-.27-.13.31.31,0,0,1-.1-.25.35.35,0,0,1,.11-.27.41.41,0,0,1,.53,0,.35.35,0,0,1,.11.27.3.3,0,0,1-.12.26A.32.32,0,0,1,58,42.38Z"/><path class="cls-2" d="M58.5,40.38a.34.34,0,0,1-.27-.13.31.31,0,0,1-.1-.25.39.39,0,0,1,.11-.27.41.41,0,0,1,.53,0,.39.39,0,0,1,.11.27.31.31,0,0,1-.12.26A.32.32,0,0,1,58.5,40.38Z"/><path class="cls-2" d="M58.5,35.88a.36.36,0,0,1-.27-.12.36.36,0,0,1-.1-.26.39.39,0,0,1,.11-.27.41.41,0,0,1,.53,0,.39.39,0,0,1,.11.27.36.36,0,0,1-.11.26A.36.36,0,0,1,58.5,35.88Z"/><path class="cls-2" d="M59,33.38a.34.34,0,0,1-.26-.12.36.36,0,0,1-.11-.26.45.45,0,0,1,.1-.27.4.4,0,0,1,.54,0,.37.37,0,0,1,.11.27.31.31,0,0,1-.12.26A.32.32,0,0,1,59,33.38Z"/><path class="cls-2" d="M61.5,31.38a.34.34,0,0,1-.26-.12.34.34,0,0,1-.11-.26.39.39,0,0,1,.1-.27.4.4,0,0,1,.54,0,.39.39,0,0,1,.11.27.36.36,0,0,1-.11.26A.36.36,0,0,1,61.5,31.38Z"/><path class="cls-2" d="M61.5,28.88a.34.34,0,0,1-.26-.12.38.38,0,0,1-.11-.26.38.38,0,0,1,.64-.27.35.35,0,0,1,.11.27.36.36,0,0,1-.11.26A.36.36,0,0,1,61.5,28.88Z"/><path class="cls-2" d="M59,38.12a.33.33,0,0,1-.26-.11.36.36,0,0,1-.11-.26.38.38,0,0,1,.64-.27.37.37,0,0,1,.11.27.3.3,0,0,1-.12.26A.31.31,0,0,1,59,38.12Z"/><path class="cls-2" d="M61.5,41.12a.33.33,0,0,1-.26-.11.35.35,0,0,1-.11-.27.38.38,0,0,1,.11-.26.39.39,0,0,1,.53,0,.35.35,0,0,1,.11.26.37.37,0,0,1-.11.27A.35.35,0,0,1,61.5,41.12Z"/><path class="cls-2" d="M61.5,36.12a.33.33,0,0,1-.26-.11.35.35,0,0,1-.11-.27.42.42,0,0,1,.1-.26.39.39,0,0,1,.53,0,.36.36,0,0,1,0,.53A.35.35,0,0,1,61.5,36.12Z"/><path class="cls-2" d="M55,54.62a.33.33,0,0,1-.26-.11.34.34,0,0,1-.11-.27.36.36,0,0,1,.11-.26.39.39,0,0,1,.53,0,.36.36,0,0,1,.11.26.34.34,0,0,1-.11.27A.35.35,0,0,1,55,54.62Z"/><path class="cls-2" d="M56,52.88a.36.36,0,0,1-.27-.12.4.4,0,0,1-.1-.26.38.38,0,1,1,.75,0,.36.36,0,0,1-.11.26A.36.36,0,0,1,56,52.88Z"/><path class="cls-2" d="M58.5,53.88a.36.36,0,0,1-.27-.12.35.35,0,0,1-.1-.26.39.39,0,0,1,.11-.27.41.41,0,0,1,.53,0,.39.39,0,0,1,.11.27.31.31,0,0,1-.12.26A.32.32,0,0,1,58.5,53.88Z"/><path class="cls-2" d="M4,54.38A.38.38,0,0,1,3.63,54a.38.38,0,0,1,.11-.26.41.41,0,0,1,.53,0,.38.38,0,0,1,.11.26.3.3,0,0,1-.12.27A.32.32,0,0,1,4,54.38Z"/><path class="cls-2" d="M6,55.88a.38.38,0,0,1-.37-.39.38.38,0,0,1,.11-.26.41.41,0,0,1,.53,0,.38.38,0,0,1,.11.26.3.3,0,0,1-.12.27A.32.32,0,0,1,6,55.88Z"/><path class="cls-2" d="M6,53.38a.36.36,0,0,1-.27-.12.4.4,0,0,1-.1-.26.39.39,0,0,1,.11-.27.41.41,0,0,1,.53,0,.39.39,0,0,1,.11.27.36.36,0,0,1-.11.26A.36.36,0,0,1,6,53.38Z"/><path class="cls-2" d="M1.5,52.88a.34.34,0,0,1-.27-.13.36.36,0,0,1-.1-.25.39.39,0,0,1,.11-.27.41.41,0,0,1,.53,0,.39.39,0,0,1,.11.27.36.36,0,0,1-.11.26A.36.36,0,0,1,1.5,52.88Z"/><path class="cls-2" d="M62.5,67.88a.4.4,0,0,1-.27-.12.41.41,0,0,1-.1-.27.35.35,0,0,1,.11-.26.41.41,0,0,1,.53,0,.35.35,0,0,1,.11.26.37.37,0,0,1-.11.27A.4.4,0,0,1,62.5,67.88Z"/><path class="cls-2" d="M64.5,69.38a.4.4,0,0,1-.27-.12.41.41,0,0,1-.1-.27.36.36,0,0,1,.11-.26.41.41,0,0,1,.53,0,.36.36,0,0,1,.11.26.37.37,0,0,1-.11.27A.4.4,0,0,1,64.5,69.38Z"/><path class="cls-2" d="M64.5,66.88a.38.38,0,0,1-.37-.38.38.38,0,1,1,.75,0,.36.36,0,0,1-.11.26A.4.4,0,0,1,64.5,66.88Z"/><path class="cls-2" d="M60.5,51.62a.33.33,0,0,1-.26-.11.36.36,0,0,1-.11-.26.43.43,0,0,1,.1-.27.4.4,0,0,1,.54,0,.37.37,0,0,1,.11.27.33.33,0,0,1-.11.26A.35.35,0,0,1,60.5,51.62Z"/><path class="cls-2" d="M3,64.38A.38.38,0,0,1,2.63,64a.39.39,0,0,1,.11-.27.41.41,0,0,1,.53,0,.39.39,0,0,1,.11.27.36.36,0,0,1-.11.26A.4.4,0,0,1,3,64.38Z"/><path class="cls-2" d="M60,20.88a.34.34,0,0,1-.26-.12.36.36,0,0,1-.11-.26.38.38,0,1,1,.75,0,.36.36,0,0,1-.11.26A.37.37,0,0,1,60,20.88Z"/><path class="cls-2" d="M62,22.38a.34.34,0,0,1-.26-.12.33.33,0,0,1-.11-.26.43.43,0,0,1,.1-.27.4.4,0,0,1,.54,0,.37.37,0,0,1,.11.27.3.3,0,0,1-.12.26A.32.32,0,0,1,62,22.38Z"/><path class="cls-2" d="M62,19.88a.34.34,0,0,1-.26-.12.37.37,0,0,1-.11-.27.42.42,0,0,1,.1-.26.39.39,0,0,1,.53,0,.36.36,0,0,1,0,.53A.36.36,0,0,1,62,19.88Z"/><path class="cls-2" d="M61.5,17.38a.34.34,0,0,1-.26-.12.34.34,0,0,1-.11-.26.43.43,0,0,1,.1-.27.4.4,0,0,1,.54,0,.37.37,0,0,1,.11.27.36.36,0,0,1-.11.26A.36.36,0,0,1,61.5,17.38Z"/><path class="cls-2" d="M71,34.88a.36.36,0,0,1-.27-.12.41.41,0,0,1-.1-.27.36.36,0,0,1,.11-.26.41.41,0,0,1,.53,0,.36.36,0,0,1,.11.26.34.34,0,0,1-.11.27A.36.36,0,0,1,71,34.88Z"/><path class="cls-2" d="M70.5,37.88a.32.32,0,0,1-.26-.12.36.36,0,0,1-.11-.26.38.38,0,1,1,.75,0,.36.36,0,0,1-.11.26A.37.37,0,0,1,70.5,37.88Z"/><path class="cls-2" d="M67,36.88a.36.36,0,0,1-.27-.12.41.41,0,0,1-.1-.27.35.35,0,0,1,.11-.26.41.41,0,0,1,.53,0,.36.36,0,0,1,.11.26.37.37,0,0,1-.11.27A.36.36,0,0,1,67,36.88Z"/><path class="cls-2" d="M67.5,39.88a.34.34,0,0,1-.27-.13.32.32,0,0,1-.1-.25.37.37,0,0,1,.11-.27.41.41,0,0,1,.53,0,.39.39,0,0,1,.11.27.31.31,0,0,1-.12.26A.32.32,0,0,1,67.5,39.88Z"/><path class="cls-2" d="M66.5,43.38a.36.36,0,0,1-.27-.12.41.41,0,0,1-.1-.27.35.35,0,0,1,.11-.26.41.41,0,0,1,.53,0,.35.35,0,0,1,.11.26.37.37,0,0,1-.11.27A.36.36,0,0,1,66.5,43.38Z"/><path class="cls-2" d="M67.5,45.88a.34.34,0,0,1-.27-.13.31.31,0,0,1-.1-.25.39.39,0,0,1,.11-.27.41.41,0,0,1,.53,0,.39.39,0,0,1,.11.27.3.3,0,0,1-.12.26A.32.32,0,0,1,67.5,45.88Z"/><path class="cls-2" d="M67.5,49.38a.36.36,0,0,1-.27-.12.35.35,0,0,1-.1-.26.39.39,0,0,1,.11-.27.41.41,0,0,1,.53,0,.39.39,0,0,1,.11.27.3.3,0,0,1-.12.26A.32.32,0,0,1,67.5,49.38Z"/><path class="cls-2" d="M69.25,51.88a.34.34,0,0,1-.27-.13.31.31,0,0,1-.1-.25.37.37,0,0,1,.11-.27.41.41,0,0,1,.53,0,.39.39,0,0,1,.11.27.4.4,0,0,1-.12.28A.38.38,0,0,1,69.25,51.88Z"/><path class="cls-2" d="M67.5,39.88a.34.34,0,0,1-.27-.13.32.32,0,0,1-.1-.25.37.37,0,0,1,.11-.27.41.41,0,0,1,.53,0,.39.39,0,0,1,.11.27.31.31,0,0,1-.12.26A.32.32,0,0,1,67.5,39.88Z"/><path class="cls-2" d="M69.25,42.12A.33.33,0,0,1,69,42a.31.31,0,0,1-.1-.25.37.37,0,0,1,.11-.27.41.41,0,0,1,.53,0,.37.37,0,0,1,.11.27.4.4,0,0,1-.12.28A.37.37,0,0,1,69.25,42.12Z"/><path class="cls-2" d="M2,65.88a.36.36,0,0,1-.26-.12.36.36,0,0,1-.11-.26.43.43,0,0,1,.1-.27.4.4,0,0,1,.54,0,.37.37,0,0,1,.11.27.36.36,0,0,1-.11.26A.4.4,0,0,1,2,65.88Z"/><path class="cls-2" d="M63,58.38a.36.36,0,0,1-.27-.12.41.41,0,0,1-.1-.27.38.38,0,0,1,.11-.26.37.37,0,0,1,.52,0,.35.35,0,0,1,.12.26.37.37,0,0,1-.11.27A.36.36,0,0,1,63,58.38Z"/><path class="cls-2" d="M64.5,54.88a.36.36,0,0,1-.27-.12.41.41,0,0,1-.1-.27.35.35,0,0,1,.11-.26.41.41,0,0,1,.53,0,.35.35,0,0,1,.11.26.37.37,0,0,1-.11.27A.36.36,0,0,1,64.5,54.88Z"/><path class="cls-2" d="M64.5,52.38a.36.36,0,0,1-.27-.12.41.41,0,0,1-.1-.27.38.38,0,0,1,.11-.26.37.37,0,0,1,.52,0,.35.35,0,0,1,.12.26.37.37,0,0,1-.11.27A.36.36,0,0,1,64.5,52.38Z"/><path class="cls-2" d="M7,64.12A.39.39,0,0,1,6.73,64a.4.4,0,0,1-.1-.26.39.39,0,0,1,.11-.27.41.41,0,0,1,.53,0,.39.39,0,0,1,.11.27.36.36,0,0,1-.11.26A.39.39,0,0,1,7,64.12Z"/><path class="cls-2" d="M6.5,61.62a.31.31,0,0,1-.26-.11.33.33,0,0,1-.11-.26A.35.35,0,0,1,6.24,61a.4.4,0,0,1,.53,0,.32.32,0,0,1,.11.26.33.33,0,0,1-.11.26A.35.35,0,0,1,6.5,61.62Z"/><path class="cls-2" d="M8,62.12A.35.35,0,0,1,7.73,62a.4.4,0,0,1-.1-.26.39.39,0,0,1,.11-.27.41.41,0,0,1,.53,0,.39.39,0,0,1,.11.27.36.36,0,0,1-.11.26A.35.35,0,0,1,8,62.12Z"/><path class="cls-2" d="M10.5,63.62a.39.39,0,0,1-.27-.11.36.36,0,0,1-.1-.26.37.37,0,0,1,.11-.27.41.41,0,0,1,.53,0,.37.37,0,0,1,.11.27.33.33,0,0,1-.11.26A.39.39,0,0,1,10.5,63.62Z"/><path class="cls-2" d="M11,60.62a.35.35,0,0,1-.27-.11.37.37,0,0,1-.1-.27.36.36,0,0,1,.11-.26.41.41,0,0,1,.53,0,.36.36,0,0,1,.11.26.39.39,0,0,1-.38.38Z"/><path class="cls-2" d="M13.5,61.62a.35.35,0,0,1-.27-.11.4.4,0,0,1-.1-.26.35.35,0,0,1,.11-.27.41.41,0,0,1,.53,0,.35.35,0,0,1,.11.27.36.36,0,0,1-.11.26A.35.35,0,0,1,13.5,61.62Z"/><path class="cls-2" d="M16,62.62a.39.39,0,0,1-.27-.11.36.36,0,0,1-.1-.26.38.38,0,1,1,.75,0,.33.33,0,0,1-.11.26A.39.39,0,0,1,16,62.62Z"/><path class="cls-2" d="M15.5,58.62a.35.35,0,0,1-.27-.11.37.37,0,0,1-.1-.27.38.38,0,0,1,.11-.26.41.41,0,0,1,.53,0,.38.38,0,0,1,.11.26.39.39,0,0,1-.38.38Z"/><path class="cls-2" d="M13,59.12a.35.35,0,0,1-.27-.11.37.37,0,0,1-.1-.27.36.36,0,0,1,.11-.26.41.41,0,0,1,.53,0,.36.36,0,0,1,.11.26.3.3,0,0,1-.12.27A.31.31,0,0,1,13,59.12Z"/><path class="cls-2" d="M10.5,59.12a.35.35,0,0,1-.27-.11.4.4,0,0,1-.1-.26.39.39,0,0,1,.11-.27.41.41,0,0,1,.53,0,.39.39,0,0,1,.11.27.36.36,0,0,1-.11.26A.35.35,0,0,1,10.5,59.12Z"/><path class="cls-2" d="M13,56.62a.35.35,0,0,1-.27-.11.36.36,0,0,1-.1-.26.39.39,0,0,1,.11-.27.41.41,0,0,1,.53,0,.39.39,0,0,1,.11.27.33.33,0,0,1-.11.26A.35.35,0,0,1,13,56.62Z"/><path class="cls-2" d="M17,56.62a.35.35,0,0,1-.27-.11.4.4,0,0,1-.1-.26.39.39,0,0,1,.11-.27.41.41,0,0,1,.53,0,.39.39,0,0,1,.11.27.36.36,0,0,1-.11.26A.35.35,0,0,1,17,56.62Z"/><path class="cls-2" d="M19,59.62a.35.35,0,0,1-.27-.11.4.4,0,0,1-.1-.26.39.39,0,0,1,.11-.27.41.41,0,0,1,.53,0,.39.39,0,0,1,.11.27.36.36,0,0,1-.11.26A.35.35,0,0,1,19,59.62Z"/><path class="cls-2" d="M20,57.12a.35.35,0,0,1-.27-.11.4.4,0,0,1-.1-.26.38.38,0,1,1,.75,0,.36.36,0,0,1-.11.26A.35.35,0,0,1,20,57.12Z"/><path class="cls-2" d="M21.5,60.62a.33.33,0,0,1-.27-.12.31.31,0,0,1-.1-.25.38.38,0,1,1,.75,0,.3.3,0,0,1-.12.26A.31.31,0,0,1,21.5,60.62Z"/><path class="cls-2" d="M23,58.62a.35.35,0,0,1-.27-.11.37.37,0,0,1-.1-.27.36.36,0,0,1,.11-.26.41.41,0,0,1,.53,0,.38.38,0,0,1,.11.26.37.37,0,0,1-.11.27A.35.35,0,0,1,23,58.62Z"/><path class="cls-2" d="M22,62.12a.35.35,0,0,1-.27-.11.36.36,0,0,1-.1-.26.37.37,0,0,1,.11-.27.41.41,0,0,1,.53,0,.39.39,0,0,1,.11.27.36.36,0,0,1-.11.26A.35.35,0,0,1,22,62.12Z"/><path class="cls-2" d="M24,61.12a.33.33,0,0,1-.26-.11.33.33,0,0,1-.11-.26.37.37,0,0,1,.11-.27.38.38,0,0,1,.64.27.36.36,0,0,1-.11.26A.35.35,0,0,1,24,61.12Z"/><path class="cls-2" d="M23.5,64.12a.39.39,0,0,1-.27-.11.41.41,0,0,1-.1-.27.38.38,0,0,1,.11-.26.41.41,0,0,1,.53,0,.38.38,0,0,1,.11.26.37.37,0,0,1-.11.27A.39.39,0,0,1,23.5,64.12Z"/><path class="cls-2" d="M25.5,62.62a.39.39,0,0,1-.27-.11.4.4,0,0,1-.1-.26.37.37,0,0,1,.11-.27.41.41,0,0,1,.53,0,.37.37,0,0,1,.11.27.36.36,0,0,1-.11.26A.39.39,0,0,1,25.5,62.62Z"/><path class="cls-2" d="M37,64.12a.36.36,0,0,1-.26-.11.33.33,0,0,1-.11-.26.37.37,0,0,1,.11-.27.39.39,0,0,1,.53,0,.37.37,0,0,1,.11.27.33.33,0,0,1-.11.26A.39.39,0,0,1,37,64.12Z"/><path class="cls-2" d="M52,68.38a.37.37,0,0,1-.26-.12.36.36,0,0,1-.11-.26.39.39,0,0,1,.1-.27.38.38,0,0,1,.65.27.36.36,0,0,1-.11.26A.4.4,0,0,1,52,68.38Z"/><path class="cls-2" d="M38.5,61.62a.33.33,0,0,1-.26-.11.33.33,0,0,1-.11-.26.37.37,0,0,1,.11-.27.38.38,0,0,1,.64.27.36.36,0,0,1-.11.26A.35.35,0,0,1,38.5,61.62Z"/><path class="cls-2" d="M40.5,59.62a.34.34,0,0,1-.37-.37.35.35,0,0,1,.11-.27.39.39,0,0,1,.53,0,.37.37,0,0,1,.11.27.38.38,0,0,1-.38.37Z"/><path class="cls-2" d="M38,58.62a.33.33,0,0,1-.26-.11.33.33,0,0,1-.11-.26.37.37,0,0,1,.11-.27.38.38,0,0,1,.64.27.36.36,0,0,1-.11.26A.35.35,0,0,1,38,58.62Z"/><path class="cls-2" d="M43.5,58.12a.33.33,0,0,1-.26-.11.37.37,0,0,1-.11-.27.36.36,0,0,1,.11-.26.39.39,0,0,1,.53,0,.38.38,0,0,1,.11.26.37.37,0,0,1-.11.27A.35.35,0,0,1,43.5,58.12Z"/><path class="cls-2" d="M45,61.12a.33.33,0,0,1-.26-.11.37.37,0,0,1-.11-.27.36.36,0,0,1,.11-.26.38.38,0,0,1,.52,0,.39.39,0,0,1,.12.27.37.37,0,0,1-.11.27A.35.35,0,0,1,45,61.12Z"/><path class="cls-2" d="M46.5,58.12a.33.33,0,0,1-.27-.12.31.31,0,0,1-.1-.25.39.39,0,0,1,.11-.28.42.42,0,0,1,.53,0,.37.37,0,0,1,.11.27.3.3,0,0,1-.12.26A.33.33,0,0,1,46.5,58.12Z"/><path class="cls-2" d="M49,61.12a.33.33,0,0,1-.26-.11.36.36,0,0,1-.11-.26.39.39,0,0,1,.1-.27.4.4,0,0,1,.54,0,.39.39,0,0,1,.11.27.36.36,0,0,1-.11.26A.35.35,0,0,1,49,61.12Z"/><path class="cls-2" d="M46,63.12a.36.36,0,0,1-.26-.11.32.32,0,0,1-.11-.26.39.39,0,0,1,.11-.28.42.42,0,0,1,.53,0,.37.37,0,0,1,.11.27.3.3,0,0,1-.12.26A.35.35,0,0,1,46,63.12Z"/><path class="cls-2" d="M55,62.62a.36.36,0,0,1-.26-.11.34.34,0,0,1-.11-.27.39.39,0,0,1,.11-.27.42.42,0,0,1,.53,0,.35.35,0,0,1,.11.26.34.34,0,0,1-.11.27A.39.39,0,0,1,55,62.62Z"/><path class="cls-2" d="M54,60.12a.35.35,0,0,1-.27-.11.4.4,0,0,1-.1-.26.39.39,0,0,1,.11-.27.41.41,0,0,1,.53,0,.39.39,0,0,1,.11.27.36.36,0,0,1-.11.26A.35.35,0,0,1,54,60.12Z"/><path class="cls-2" d="M57.5,59.62a.33.33,0,0,1-.26-.11.33.33,0,0,1-.11-.26.37.37,0,0,1,.11-.27.39.39,0,0,1,.53,0,.37.37,0,0,1,.11.27.33.33,0,0,1-.11.26A.35.35,0,0,1,57.5,59.62Z"/><path class="cls-2" d="M54,56.62a.35.35,0,0,1-.27-.11.41.41,0,0,1-.1-.27.38.38,0,0,1,.11-.26.41.41,0,0,1,.52,0,.39.39,0,0,1,.12.27.37.37,0,0,1-.11.27A.36.36,0,0,1,54,56.62Z"/><path class="cls-2" d="M62,60.12a.33.33,0,0,1-.26-.11.37.37,0,0,1-.11-.27.42.42,0,0,1,.1-.26.39.39,0,0,1,.53,0,.36.36,0,0,1,0,.53A.35.35,0,0,1,62,60.12Z"/><path class="cls-2" d="M65,60.62a.35.35,0,0,1-.27-.11.36.36,0,0,1-.1-.26.39.39,0,0,1,.11-.27.41.41,0,0,1,.53,0,.39.39,0,0,1,.11.27.31.31,0,0,1-.12.26A.31.31,0,0,1,65,60.62Z"/><path class="cls-2" d="M65,56.62a.35.35,0,0,1-.27-.11.4.4,0,0,1-.1-.26.39.39,0,0,1,.11-.27.41.41,0,0,1,.53,0,.39.39,0,0,1,.11.27.36.36,0,0,1-.11.26A.35.35,0,0,1,65,56.62Z"/><path class="cls-2" d="M33.5,60.88a.34.34,0,0,1-.26-.12.33.33,0,0,1-.11-.26.37.37,0,0,1,.11-.27.38.38,0,0,1,.64.27.36.36,0,0,1-.11.26A.36.36,0,0,1,33.5,60.88Z"/><path class="cls-2" d="M31.5,56.62a.33.33,0,0,1-.26-.11.33.33,0,0,1-.11-.26.37.37,0,0,1,.11-.27.38.38,0,0,1,.64.27.36.36,0,0,1-.11.26A.35.35,0,0,1,31.5,56.62Z"/><path class="cls-2" d="M31.5,67.88a.37.37,0,0,1-.26-.12.33.33,0,0,1-.11-.26.37.37,0,0,1,.11-.27.38.38,0,0,1,.64.27.36.36,0,0,1-.11.26A.4.4,0,0,1,31.5,67.88Z"/><path class="cls-2" d="M28.5,68.62a.36.36,0,0,1-.26-.11.32.32,0,0,1-.11-.26.39.39,0,0,1,.11-.27.37.37,0,0,1,.52,0,.39.39,0,0,1,.12.28.3.3,0,0,1-.12.26A.35.35,0,0,1,28.5,68.62Z"/><path class="cls-2" d="M28,65.88a.38.38,0,0,1-.37-.38.39.39,0,0,1,.11-.27.41.41,0,0,1,.53,0,.39.39,0,0,1,.11.27.33.33,0,0,1-.11.26A.4.4,0,0,1,28,65.88Z"/><path class="cls-2" d="M1.5,56.62a.33.33,0,0,1-.27-.12.33.33,0,0,1-.1-.26A.38.38,0,0,1,1.24,56a.41.41,0,0,1,.53,0,.38.38,0,0,1,.11.26.32.32,0,0,1-.12.27A.31.31,0,0,1,1.5,56.62Z"/><path class="cls-2" d="M2.5,61.62a.35.35,0,0,1-.27-.11.4.4,0,0,1-.1-.26A.39.39,0,0,1,2.24,61a.41.41,0,0,1,.53,0,.39.39,0,0,1,.11.27.36.36,0,0,1-.11.26A.35.35,0,0,1,2.5,61.62Z"/><path class="cls-2" d="M4,58.12A.35.35,0,0,1,3.73,58a.37.37,0,0,1-.1-.27.38.38,0,0,1,.11-.26.39.39,0,0,1,.53,0,.38.38,0,0,1,.11.26.32.32,0,0,1-.12.27A.31.31,0,0,1,4,58.12Z"/><path class="cls-2" d="M25.5,66.38a.38.38,0,0,1-.37-.38.38.38,0,1,1,.75,0,.36.36,0,0,1-.11.26A.4.4,0,0,1,25.5,66.38Z"/><path class="cls-2" d="M8.25,71.38A.37.37,0,0,1,8,71.26.32.32,0,0,1,7.88,71,.36.36,0,0,1,8,70.73a.39.39,0,0,1,.53,0,.38.38,0,0,1,.11.26.3.3,0,0,1-.12.27A.36.36,0,0,1,8.25,71.38Z"/><path class="cls-2" d="M52.25,63.88a.37.37,0,0,1-.26-.12.36.36,0,0,1-.11-.26.43.43,0,0,1,.1-.27.4.4,0,0,1,.54,0,.39.39,0,0,1,.11.27.36.36,0,0,1-.11.26A.4.4,0,0,1,52.25,63.88Z"/><path class="cls-2" d="M39,63.38a.37.37,0,0,1-.26-.12.32.32,0,0,1-.11-.26.35.35,0,0,1,.11-.27.39.39,0,0,1,.53,0,.37.37,0,0,1,.11.27.3.3,0,0,1-.12.26A.36.36,0,0,1,39,63.38Z"/><path class="cls-2" d="M41,63.38a.37.37,0,0,1-.26-.12.33.33,0,0,1-.11-.26.37.37,0,0,1,.11-.27.38.38,0,0,1,.64.27.36.36,0,0,1-.11.26A.4.4,0,0,1,41,63.38Z"/><path class="cls-2" d="M38.25,71.38a.37.37,0,0,1-.26-.12.32.32,0,0,1-.11-.26.35.35,0,0,1,.11-.27.39.39,0,0,1,.53,0,.37.37,0,0,1,.11.27.3.3,0,0,1-.12.26A.36.36,0,0,1,38.25,71.38Z"/><path class="cls-2" d="M35.25,71.38a.4.4,0,0,1-.27-.12.37.37,0,0,1-.1-.27.36.36,0,0,1,.11-.26.41.41,0,0,1,.53,0,.36.36,0,0,1,.11.26.34.34,0,0,1-.11.27A.4.4,0,0,1,35.25,71.38Z"/><path class="cls-2" d="M32.25,70.88a.38.38,0,0,1-.37-.38.37.37,0,0,1,.11-.27.41.41,0,0,1,.53,0,.37.37,0,0,1,.11.27.36.36,0,0,1-.11.26A.4.4,0,0,1,32.25,70.88Z"/><path class="cls-2" d="M25.5,71.88a.4.4,0,0,1-.27-.12.41.41,0,0,1-.1-.27.38.38,0,0,1,.11-.26.41.41,0,0,1,.53,0,.38.38,0,0,1,.11.26.37.37,0,0,1-.11.27A.4.4,0,0,1,25.5,71.88Z"/><path class="cls-2" d="M22.5,71.88a.4.4,0,0,1-.27-.12.36.36,0,0,1-.1-.26.35.35,0,0,1,.11-.27.41.41,0,0,1,.53,0,.37.37,0,0,1,.11.27.36.36,0,0,1-.11.26A.4.4,0,0,1,22.5,71.88Z"/><path class="cls-2" d="M19.5,71.38a.4.4,0,0,1-.27-.12.37.37,0,0,1-.1-.27.38.38,0,0,1,.11-.26.41.41,0,0,1,.53,0,.38.38,0,0,1,.11.26.3.3,0,0,1-.12.27A.36.36,0,0,1,19.5,71.38Z"/><path class="cls-2" d="M71,63.62a.39.39,0,0,1-.27-.11.4.4,0,0,1-.1-.26.38.38,0,1,1,.75,0,.36.36,0,0,1-.11.26A.39.39,0,0,1,71,63.62Z"/><path class="cls-2" d="M70,71.38a.37.37,0,0,1-.26-.12.33.33,0,0,1-.11-.26.37.37,0,0,1,.11-.27.39.39,0,0,1,.53,0,.37.37,0,0,1,.11.27.31.31,0,0,1-.12.26A.36.36,0,0,1,70,71.38Z"/><path class="cls-2" d="M66.5,72.12a.39.39,0,0,1-.27-.11.36.36,0,0,1-.1-.26.39.39,0,0,1,.11-.27.41.41,0,0,1,.53,0,.39.39,0,0,1,.11.27.31.31,0,0,1-.12.26A.35.35,0,0,1,66.5,72.12Z"/><path class="cls-2" d="M48.5,71.88a.37.37,0,0,1-.26-.12.37.37,0,0,1-.11-.27.36.36,0,0,1,.11-.26.39.39,0,0,1,.53,0,.36.36,0,0,1,.11.26.37.37,0,0,1-.11.27A.4.4,0,0,1,48.5,71.88Z"/><path class="cls-2" d="M46.5,70.38a.38.38,0,0,1-.37-.38.39.39,0,0,1,.11-.27.41.41,0,0,1,.53,0,.39.39,0,0,1,.11.27.36.36,0,0,1-.11.26A.42.42,0,0,1,46.5,70.38Z"/><path class="cls-2" d="M60,71.38a.38.38,0,0,1-.37-.38.38.38,0,1,1,.75,0,.36.36,0,0,1-.11.26A.4.4,0,0,1,60,71.38Z"/><path class="cls-2" d="M22.25,70.12A.39.39,0,0,1,22,70a.4.4,0,0,1-.1-.26.39.39,0,0,1,.11-.27.41.41,0,0,1,.53,0,.39.39,0,0,1,.11.27.36.36,0,0,1-.11.26A.39.39,0,0,1,22.25,70.12Z"/><path class="cls-2" d="M2.25,69.88A.37.37,0,0,1,2,69.76a.33.33,0,0,1-.11-.26A.35.35,0,0,1,2,69.23a.38.38,0,0,1,.64.27.36.36,0,0,1-.11.26A.4.4,0,0,1,2.25,69.88Z"/><path class="cls-2" d="M42.75,70.88a.37.37,0,0,1-.26-.12.32.32,0,0,1-.11-.26.35.35,0,0,1,.11-.27.39.39,0,0,1,.53,0,.37.37,0,0,1,.11.27.3.3,0,0,1-.12.26A.36.36,0,0,1,42.75,70.88Z"/><path class="cls-2" d="M45.5,68.12a.36.36,0,0,1-.26-.11.33.33,0,0,1-.11-.26.37.37,0,0,1,.11-.27.38.38,0,0,1,.64.27.36.36,0,0,1-.11.26A.39.39,0,0,1,45.5,68.12Z"/><path class="cls-2" d="M55.75,70.62a.38.38,0,0,1-.37-.37.45.45,0,0,1,.1-.27A.4.4,0,0,1,56,70a.37.37,0,0,1,.11.27.3.3,0,0,1-.12.26A.35.35,0,0,1,55.75,70.62Z"/><path class="cls-2" d="M68,68.88a.38.38,0,0,1-.37-.38.39.39,0,0,1,.11-.27.41.41,0,0,1,.53,0,.39.39,0,0,1,.11.27.36.36,0,0,1-.11.26A.4.4,0,0,1,68,68.88Z"/><path class="cls-2" d="M29.25,70.88a.37.37,0,0,1-.26-.12.34.34,0,0,1-.11-.27.36.36,0,0,1,.11-.26.39.39,0,0,1,.53,0,.36.36,0,0,1,.11.26.37.37,0,0,1-.11.27A.4.4,0,0,1,29.25,70.88Z"/><path class="cls-2" d="M16,70.38a.4.4,0,0,1-.27-.12.41.41,0,0,1-.1-.27.38.38,0,0,1,.11-.26.41.41,0,0,1,.53,0,.38.38,0,0,1,.11.26.37.37,0,0,1-.11.27A.4.4,0,0,1,16,70.38Z"/><path class="cls-2" d="M11.5,71.62a.39.39,0,0,1-.27-.11.4.4,0,0,1-.1-.26.38.38,0,0,1,.64-.27.37.37,0,0,1,.11.27.33.33,0,0,1-.11.26A.39.39,0,0,1,11.5,71.62Z"/><path class="cls-2" d="M3.75,70.88a.4.4,0,0,1-.27-.12.37.37,0,0,1-.1-.27.38.38,0,0,1,.11-.26.41.41,0,0,1,.53,0,.38.38,0,0,1,.11.26.32.32,0,0,1-.12.27A.36.36,0,0,1,3.75,70.88Z"/><path class="cls-2" d="M.75,6.62a.35.35,0,0,1-.27-.11.41.41,0,0,1-.1-.27A.38.38,0,0,1,.49,6,.41.41,0,0,1,1,6a.36.36,0,0,1,.11.26A.32.32,0,0,1,1,6.51.31.31,0,0,1,.75,6.62Z"/><path class="cls-2" d="M69.75,8.38a.36.36,0,0,1-.27-.12.37.37,0,0,1-.1-.27.39.39,0,0,1,.11-.27.42.42,0,0,1,.53,0,.35.35,0,0,1,.11.26.34.34,0,0,1-.11.27A.36.36,0,0,1,69.75,8.38Z"/><path class="cls-2" d="M69.75,31.38a.36.36,0,0,1-.27-.12.37.37,0,0,1-.1-.27.39.39,0,0,1,.11-.27.42.42,0,0,1,.53,0,.35.35,0,0,1,.11.26.34.34,0,0,1-.11.27A.36.36,0,0,1,69.75,31.38Z"/><path class="cls-2" d="M1.25,50.38A.36.36,0,0,1,1,50.26.41.41,0,0,1,.88,50,.38.38,0,0,1,1,49.73a.39.39,0,0,1,.53,0,.38.38,0,0,1,.11.26.32.32,0,0,1-.12.27A.32.32,0,0,1,1.25,50.38Z"/><path class="cls-2" d="M70,2.62a.35.35,0,0,1-.27-.11.36.36,0,0,1-.1-.26A.37.37,0,0,1,69.74,2a.41.41,0,0,1,.53,0,.37.37,0,0,1,.11.27.33.33,0,0,1-.11.26A.35.35,0,0,1,70,2.62Z"/><path class="cls-2" d="M.75,2.38a.36.36,0,0,1-.27-.12A.4.4,0,0,1,.38,2a.39.39,0,0,1,.11-.27.41.41,0,0,1,.53,0A.39.39,0,0,1,1.13,2,.36.36,0,0,1,1,2.26.36.36,0,0,1,.75,2.38Z"/><path class="cls-2" d="M69,28.62a.33.33,0,0,1-.27-.12.31.31,0,0,1-.1-.25.37.37,0,0,1,.11-.27.41.41,0,0,1,.53,0,.39.39,0,0,1,.11.27.3.3,0,0,1-.12.26A.31.31,0,0,1,69,28.62Z"/><path class="cls-2" d="M66.5.12A.33.33,0,0,1,66.23,0a.32.32,0,0,1-.1-.25.39.39,0,0,1,.11-.27.41.41,0,0,1,.53,0,.39.39,0,0,1,.11.27.31.31,0,0,1-.12.26A.31.31,0,0,1,66.5.12Z"/><path class="cls-2" d="M66.5.12A.35.35,0,0,1,66.23,0a.36.36,0,0,1-.1-.26.39.39,0,0,1,.11-.27.41.41,0,0,1,.53,0,.39.39,0,0,1,.11.27.31.31,0,0,1-.12.26A.31.31,0,0,1,66.5.12Z"/></pattern><linearGradient id="ラン_15" y1="301.5" x2="603" y2="301.5" gradientUnits="userSpaceOnUse"><stop offset="0" stop-color="#7df5ab"/><stop offset="0.19" stop-color="#7df5ab" stop-opacity="0.79"/><stop offset="0.59" stop-color="#7df5ab" stop-opacity="0.37"/><stop offset="0.87" stop-color="#7df5ab" stop-opacity="0.1"/><stop offset="1" stop-color="#7df5ab" stop-opacity="0"/></linearGradient><linearGradient id="ラン_15-2" x1="49.17" x2="553.83" xlink:href="#ラン_15"/><linearGradient id="ラン_15-3" x1="98.33" x2="504.67" xlink:href="#ラン_15"/><linearGradient id="ラン_15-4" x1="147.5" x2="455.5" xlink:href="#ラン_15"/><linearGradient id="ラン_15-5" x1="196.67" x2="406.33" xlink:href="#ラン_15"/><linearGradient id="ラン_15-6" x1="245.83" x2="357.17" xlink:href="#ラン_15"/></defs><title>アセット 23</title><g id="レイヤー_2" data-name="レイヤー 2"><g id="レイヤー_2-2" data-name="レイヤー 2"><circle class="cls-3" cx="301.5" cy="301.5" r="295"/><circle class="cls-4" cx="301.5" cy="301.5" r="245.83"/><circle class="cls-5" cx="301.5" cy="301.5" r="196.67"/><circle class="cls-6" cx="301.5" cy="301.5" r="147.5"/><circle class="cls-7" cx="301.5" cy="301.5" r="98.33"/><circle class="cls-8" cx="301.5" cy="301.5" r="49.17"/></g></g></svg>