<svg xmlns="http://www.w3.org/2000/svg" viewBox="0 0 697.95 666"><defs><style>.cls-1{fill:none;stroke:#fffffe;stroke-miterlimit:10;stroke-width:5px;}</style></defs><title>アセット 1</title><g id="レイヤー_2" data-name="レイヤー 2"><g id="レイヤー_2-2" data-name="レイヤー 2"><ellipse class="cls-1" cx="348.98" cy="333" rx="346.48" ry="330.5"/><ellipse class="cls-1" cx="348.98" cy="333" rx="338.03" ry="322.44"/><ellipse class="cls-1" cx="348.98" cy="333" rx="329.57" ry="314.38"/><ellipse class="cls-1" cx="348.98" cy="333" rx="321.12" ry="306.32"/><ellipse class="cls-1" cx="348.98" cy="333" rx="312.67" ry="298.26"/><ellipse class="cls-1" cx="348.98" cy="333" rx="304.22" ry="290.2"/><ellipse class="cls-1" cx="348.98" cy="333" rx="295.77" ry="282.13"/><ellipse class="cls-1" cx="348.98" cy="333" rx="287.32" ry="274.07"/><ellipse class="cls-1" cx="348.98" cy="333" rx="278.87" ry="266.01"/><ellipse class="cls-1" cx="348.98" cy="333" rx="270.42" ry="257.95"/><ellipse class="cls-1" cx="348.98" cy="333" rx="261.97" ry="249.89"/><ellipse class="cls-1" cx="348.98" cy="333" rx="253.52" ry="241.83"/><ellipse class="cls-1" cx="348.98" cy="333" rx="245.07" ry="233.77"/><ellipse class="cls-1" cx="348.98" cy="333" rx="236.62" ry="225.71"/><ellipse class="cls-1" cx="348.98" cy="333" rx="228.17" ry="217.65"/><ellipse class="cls-1" cx="348.98" cy="333" rx="219.72" ry="209.59"/><ellipse class="cls-1" cx="348.98" cy="333" rx="211.27" ry="201.52"/><ellipse class="cls-1" cx="348.98" cy="333" rx="202.82" ry="193.46"/><ellipse class="cls-1" cx="348.98" cy="333" rx="194.36" ry="185.4"/><ellipse class="cls-1" cx="348.98" cy="333" rx="185.91" ry="177.34"/><ellipse class="cls-1" cx="348.98" cy="333" rx="177.46" ry="169.28"/><ellipse class="cls-1" cx="348.98" cy="333" rx="169.01" ry="161.22"/><ellipse class="cls-1" cx="348.98" cy="333" rx="160.56" ry="153.16"/><ellipse class="cls-1" cx="348.98" cy="333" rx="152.11" ry="145.1"/><ellipse class="cls-1" cx="348.98" cy="333" rx="143.66" ry="137.04"/><ellipse class="cls-1" cx="348.98" cy="333" rx="135.21" ry="128.98"/><ellipse class="cls-1" cx="348.98" cy="333" rx="126.76" ry="120.91"/><ellipse class="cls-1" cx="348.98" cy="333" rx="118.31" ry="112.85"/><ellipse class="cls-1" cx="348.98" cy="333" rx="109.86" ry="104.79"/><ellipse class="cls-1" cx="348.98" cy="333" rx="101.41" ry="96.73"/><ellipse class="cls-1" cx="348.98" cy="333" rx="92.96" ry="88.67"/><ellipse class="cls-1" cx="348.98" cy="333" rx="84.51" ry="80.61"/><ellipse class="cls-1" cx="348.98" cy="333" rx="76.06" ry="72.55"/><ellipse class="cls-1" cx="348.98" cy="333" rx="67.61" ry="64.49"/><ellipse class="cls-1" cx="348.98" cy="333" rx="59.15" ry="56.43"/><ellipse class="cls-1" cx="348.98" cy="333" rx="50.7" ry="48.37"/><ellipse class="cls-1" cx="348.98" cy="333" rx="42.25" ry="40.3"/><ellipse class="cls-1" cx="348.98" cy="333" rx="33.8" ry="32.24"/><ellipse class="cls-1" cx="348.98" cy="333" rx="25.35" ry="24.18"/><ellipse class="cls-1" cx="348.98" cy="333" rx="16.9" ry="16.12"/><ellipse class="cls-1" cx="348.98" cy="333" rx="8.45" ry="8.06"/></g></g></svg>