<svg xmlns="http://www.w3.org/2000/svg" xmlns:xlink="http://www.w3.org/1999/xlink" viewBox="0 0 530 444.8"><defs><style>.cls-1{fill:none;}.cls-2{fill:#030303;}.cls-3{fill:url(#USGS_22_砂浜_3);}</style><pattern id="USGS_22_砂浜_3" data-name="USGS 22 砂浜 3" width="72" height="72" patternTransform="translate(114)" patternUnits="userSpaceOnUse" viewBox="0 0 72 72"><rect class="cls-1" width="72" height="72"/><rect class="cls-1" width="72" height="72"/><rect class="cls-1" width="72" height="72"/><path class="cls-2" d="M21,3.1a.39.39,0,0,1-.25-.1.37.37,0,0,1,0-.5.36.36,0,0,1,.6.25A.34.34,0,0,1,21,3.1Z"/><path class="cls-2" d="M20,8.35A.34.34,0,0,1,19.65,8h0a.33.33,0,0,1,.11-.25.38.38,0,0,1,.49,0,.35.35,0,0,1,0,.49.36.36,0,0,1-.26.11Z"/><path class="cls-2" d="M20.25,10.6A.35.35,0,0,1,20,10a.37.37,0,0,1,.5,0,.36.36,0,0,1-.25.6Z"/><path class="cls-2" d="M15.25,10.6a.34.34,0,0,1-.35-.33h0A.38.38,0,0,1,15,10a.37.37,0,0,1,.5,0,.36.36,0,0,1-.25.6Z"/><path class="cls-2" d="M22.75,20.1a.34.34,0,1,1,0-.68.35.35,0,0,1,.33.33.34.34,0,0,1-.33.35h0Z"/><path class="cls-2" d="M15.25,23.1a.34.34,0,0,1-.35-.33h0a.35.35,0,0,1,.1-.25.38.38,0,0,1,.49,0,.39.39,0,0,1,.1.25.34.34,0,0,1-.33.35h0Z"/><path class="cls-2" d="M14,24.1a.34.34,0,0,1,0-.68.35.35,0,0,1,.33.33.34.34,0,0,1-.33.35Z"/><path class="cls-2" d="M24,27.1a.34.34,0,0,1-.35-.33h0a.33.33,0,0,1,.11-.25.38.38,0,0,1,.49,0,.39.39,0,0,1,.1.25.35.35,0,0,1-.1.24A.38.38,0,0,1,24,27.1Z"/><path class="cls-2" d="M30.75,25.85a.34.34,0,1,1,0-.68.35.35,0,0,1,.33.33.34.34,0,0,1-.33.35h0Z"/><path class="cls-2" d="M31.25,23.35A.34.34,0,0,1,30.9,23h0a.33.33,0,0,1,.11-.25.36.36,0,0,1,.49,0,.37.37,0,0,1,.1.24.34.34,0,0,1-.33.35h0Z"/><path class="cls-2" d="M29.25,18.35a.34.34,0,1,1,0-.68.35.35,0,0,1,.33.33.34.34,0,0,1-.33.35h0Z"/><path class="cls-2" d="M34,19.85a.34.34,0,1,1,0-.68.35.35,0,0,1,.33.33.34.34,0,0,1-.33.35h0Z"/><path class="cls-2" d="M31.5,14.85a.34.34,0,0,1,0-.68.35.35,0,0,1,.33.33.34.34,0,0,1-.33.35h0Z"/><path class="cls-2" d="M31.75,11.85a.35.35,0,0,1-.25-.6.37.37,0,0,1,.5,0,.36.36,0,0,1-.25.6Z"/><path class="cls-2" d="M32.25,7.1a.34.34,0,0,1,0-.68.35.35,0,0,1,.33.33.34.34,0,0,1-.33.35h0Z"/><path class="cls-2" d="M32,3.1a.34.34,0,0,1-.35-.33v0a.33.33,0,0,1,.11-.25.36.36,0,0,1,.49,0,.37.37,0,0,1,.1.24A.34.34,0,0,1,32,3.1Z"/><path class="cls-2" d="M34,1.35a.36.36,0,0,1-.25-.11.35.35,0,0,1-.1-.24.33.33,0,0,1,.11-.25.36.36,0,0,1,.49,0,.39.39,0,0,1,.1.25.33.33,0,0,1-.11.25A.35.35,0,0,1,34,1.35Z"/><path class="cls-2" d="M41.5,7.1a.39.39,0,0,1-.25-.1.35.35,0,0,1-.1-.25.39.39,0,0,1,.1-.25.36.36,0,0,1,.6.25.34.34,0,0,1-.33.35h0Z"/><path class="cls-2" d="M45.5,6.85a.39.39,0,0,1-.25-.1.37.37,0,0,1,0-.5.36.36,0,0,1,.6.25.34.34,0,0,1-.33.35h0Z"/><path class="cls-2" d="M42.5,13.6a.34.34,0,0,1-.35-.33h0a.33.33,0,0,1,.11-.25.36.36,0,0,1,.49,0,.37.37,0,0,1,.1.24.34.34,0,0,1-.33.35h0Z"/><path class="cls-2" d="M47,14.35a.34.34,0,0,1-.35-.33h0a.33.33,0,0,1,.11-.25.36.36,0,0,1,.49,0,.39.39,0,0,1,.1.25.35.35,0,0,1-.1.24A.38.38,0,0,1,47,14.35Z"/><path class="cls-2" d="M47,16.35a.34.34,0,0,1-.35-.33h0a.33.33,0,0,1,.11-.25.36.36,0,0,1,.49,0,.39.39,0,0,1,.1.25.37.37,0,0,1-.1.24A.38.38,0,0,1,47,16.35Z"/><path class="cls-2" d="M39,20.85a.35.35,0,0,1-.25-.6.36.36,0,0,1,.49,0,.33.33,0,0,1,.11.25.34.34,0,0,1-.33.35h0Z"/><path class="cls-2" d="M50.25,13.6a.39.39,0,0,1-.25-.1.35.35,0,0,1,.5-.5.36.36,0,0,1-.25.6Z"/><path class="cls-2" d="M52.25,12.1A.39.39,0,0,1,52,12a.35.35,0,0,1-.1-.24.32.32,0,0,1,.1-.26.38.38,0,0,1,.49,0,.39.39,0,0,1,.1.25.34.34,0,0,1-.33.35h0Z"/><path class="cls-2" d="M54.75,11.1a.39.39,0,0,1-.25-.1.35.35,0,0,1-.1-.24.33.33,0,0,1,.11-.25.36.36,0,0,1,.49,0,.37.37,0,0,1,.1.24.34.34,0,0,1-.33.35h0Z"/><path class="cls-2" d="M56.5.85a.36.36,0,0,1-.36-.34.36.36,0,0,1,.11-.26.37.37,0,0,1,.5,0,.35.35,0,0,1,.1.24.39.39,0,0,1-.1.25A.47.47,0,0,1,56.5.85Z"/><path class="cls-2" d="M68,3.1a.34.34,0,0,1-.35-.33v0a.33.33,0,0,1,.11-.25.38.38,0,0,1,.49,0,.35.35,0,0,1,0,.49A.36.36,0,0,1,68,3.1Z"/><path class="cls-2" d="M68,10.35a.36.36,0,0,1-.25-.11.35.35,0,0,1-.1-.24.39.39,0,0,1,.1-.25.37.37,0,0,1,.5,0,.39.39,0,0,1,.1.25.33.33,0,0,1-.11.25A.35.35,0,0,1,68,10.35Z"/><path class="cls-2" d="M64.25,12.35a.34.34,0,0,1,0-.68.35.35,0,0,1,.33.33.34.34,0,0,1-.33.35h0Z"/><path class="cls-2" d="M65.25,15.85a.34.34,0,0,1-.35-.33h0a.39.39,0,0,1,.1-.25.37.37,0,0,1,.5,0,.36.36,0,0,1,0,.49A.38.38,0,0,1,65.25,15.85Z"/><path class="cls-2" d="M64,19.85a.36.36,0,0,1-.25-.11.35.35,0,0,1-.1-.24.39.39,0,0,1,.1-.25.37.37,0,0,1,.5,0,.39.39,0,0,1,.1.25.33.33,0,0,1-.11.25A.35.35,0,0,1,64,19.85Z"/><path class="cls-2" d="M66.25,19.85a.34.34,0,0,1-.35-.33h0a.33.33,0,0,1,.11-.25.38.38,0,0,1,.49,0,.39.39,0,0,1,.1.25.34.34,0,0,1-.33.35h0Z"/><path class="cls-2" d="M68,21.35a.35.35,0,0,1-.25-.6.37.37,0,0,1,.5,0,.36.36,0,0,1-.25.6Z"/><path class="cls-2" d="M7,52.35a.35.35,0,0,1-.25-.6.37.37,0,0,1,.5,0,.36.36,0,0,1-.25.6Z"/><path class="cls-2" d="M7.25,54.6A.35.35,0,0,1,7,54a.37.37,0,0,1,.5,0,.36.36,0,0,1-.25.6Z"/><path class="cls-2" d="M2.25,54.6A.39.39,0,0,1,2,54.5a.35.35,0,0,1,.5-.5.37.37,0,0,1,0,.5A.39.39,0,0,1,2.25,54.6Z"/><path class="cls-2" d="M9.75,64.1a.34.34,0,1,1,0-.68.35.35,0,0,1,.33.33.34.34,0,0,1-.33.35h0Z"/><path class="cls-2" d="M1,68.1A.39.39,0,0,1,.75,68a.37.37,0,0,1,0-.5.37.37,0,0,1,.5,0,.37.37,0,0,1,0,.5A.39.39,0,0,1,1,68.1Z"/><path class="cls-2" d="M11,71.1a.35.35,0,0,1-.25-.6.37.37,0,0,1,.5,0,.36.36,0,0,1-.25.6Z"/><path class="cls-2" d="M18.25,67.35A.34.34,0,0,1,17.9,67v0h0a.39.39,0,0,1,.1-.25.38.38,0,0,1,.49,0,.36.36,0,0,1,.11.25.34.34,0,0,1-.33.35h0Z"/><path class="cls-2" d="M16.25,62.35a.35.35,0,0,1-.25-.6.37.37,0,0,1,.5,0,.36.36,0,0,1-.25.6Z"/><path class="cls-2" d="M19.5,57.85a.34.34,0,0,1-.35-.33h0a.33.33,0,0,1,.11-.25.38.38,0,0,1,.49,0,.39.39,0,0,1,.1.25.34.34,0,0,1-.33.35h0Z"/><path class="cls-2" d="M18.75,55.85a.34.34,0,0,1-.35-.33h0a.33.33,0,0,1,.11-.25.38.38,0,0,1,.49,0,.39.39,0,0,1,.1.25.34.34,0,0,1-.33.35h0Z"/><path class="cls-2" d="M16.25,54.85a.34.34,0,0,1-.35-.33h0a.33.33,0,0,1,.11-.25.38.38,0,0,1,.49,0,.39.39,0,0,1,.1.25.34.34,0,0,1-.33.35h0Z"/><path class="cls-2" d="M19.25,51.1a.34.34,0,0,1-.35-.33h0a.35.35,0,0,1,.1-.25.38.38,0,0,1,.49,0,.39.39,0,0,1,.1.25.34.34,0,0,1-.33.35h0Z"/><path class="cls-2" d="M19,47.1a.35.35,0,0,1-.25-.6.37.37,0,0,1,.5,0,.36.36,0,0,1-.25.6Z"/><path class="cls-2" d="M16.25,47.35a.35.35,0,0,1-.25-.6.37.37,0,0,1,.5,0,.36.36,0,0,1-.25.6Z"/><path class="cls-2" d="M32.5,50.85a.34.34,0,0,1-.35-.33h0a.33.33,0,0,1,.11-.25.36.36,0,0,1,.49,0,.37.37,0,0,1,.1.24.34.34,0,0,1-.33.35h0Z"/><path class="cls-2" d="M27.25,54.35a.35.35,0,0,1-.25-.6.37.37,0,0,1,.5,0,.36.36,0,0,1-.25.6Z"/><path class="cls-2" d="M32,55.85a.35.35,0,0,1-.25-.6.37.37,0,0,1,.5,0,.36.36,0,0,1-.25.6Z"/><path class="cls-2" d="M32,57.6a.35.35,0,0,1-.35-.35.4.4,0,0,1,.1-.24h0a.37.37,0,0,1,.5,0,.39.39,0,0,1,.1.25.34.34,0,0,1-.34.34Z"/><path class="cls-2" d="M34,58.35a.35.35,0,0,1-.25-.6.37.37,0,0,1,.5,0,.36.36,0,0,1-.25.6Z"/><path class="cls-2" d="M26,64.85a.34.34,0,0,1,0-.68.35.35,0,0,1,.33.33.34.34,0,0,1-.33.35Z"/><path class="cls-2" d="M36,56.35a.34.34,0,1,1,0-.68.35.35,0,0,1,.33.33.34.34,0,0,1-.33.35h0Z"/><path class="cls-2" d="M39.25,56.1A.35.35,0,0,1,39,56a.36.36,0,0,1-.11-.25.39.39,0,0,1,.1-.25.37.37,0,0,1,.5,0,.36.36,0,0,1,0,.49.36.36,0,0,1-.26.11Z"/><path class="cls-2" d="M41.75,50.85a.35.35,0,0,1-.25-.6.37.37,0,0,1,.5,0,.36.36,0,0,1-.25.6Z"/><path class="cls-2" d="M43.5,44.85a.36.36,0,0,1-.25-.11.35.35,0,0,1-.1-.24.39.39,0,0,1,.1-.25.37.37,0,0,1,.5,0,.36.36,0,0,1-.25.6Z"/><path class="cls-2" d="M51,50.6a.35.35,0,0,1-.25-.6.37.37,0,0,1,.5,0,.36.36,0,0,1-.25.6Z"/><path class="cls-2" d="M52,46.6a.36.36,0,0,1-.25-.11.35.35,0,0,1-.1-.24.33.33,0,0,1,.11-.25.38.38,0,0,1,.49,0,.39.39,0,0,1,.1.25.34.34,0,0,1-.33.35Z"/><path class="cls-2" d="M55,47.1a.33.33,0,0,1-.25-.11.35.35,0,0,1-.1-.24.39.39,0,0,1,.1-.25.36.36,0,0,1,.49,0,.33.33,0,0,1,.11.25.34.34,0,0,1-.33.35Z"/><path class="cls-2" d="M55,54.35a.33.33,0,0,1-.25-.11.35.35,0,0,1-.1-.24.33.33,0,0,1,.11-.25.38.38,0,0,1,.49,0,.39.39,0,0,1,.1.25.34.34,0,0,1-.33.35h0Z"/><path class="cls-2" d="M51.25,56.35a.35.35,0,0,1-.25-.6.37.37,0,0,1,.5,0,.35.35,0,0,1,.1.25.34.34,0,0,1-.33.35Z"/><path class="cls-2" d="M51,63.85a.34.34,0,0,1-.35-.33h0a.31.31,0,0,1,.1-.24.34.34,0,0,1,.48,0h0a.36.36,0,0,1,.11.25.39.39,0,0,1-.1.25A.4.4,0,0,1,51,63.85Z"/><path class="cls-2" d="M53.25,63.85a.34.34,0,0,1-.35-.33h0a.33.33,0,0,1,.11-.25.36.36,0,0,1,.49,0,.31.31,0,0,1,.1.24.34.34,0,0,1-.33.35h0Z"/><path class="cls-2" d="M56,63.1a.34.34,0,1,1,0-.68.35.35,0,0,1,.33.33.34.34,0,0,1-.33.35Z"/><path class="cls-2" d="M58.25,61.6a.36.36,0,0,1-.25-.11.35.35,0,0,1-.1-.24A.39.39,0,0,1,58,61a.37.37,0,0,1,.5,0,.39.39,0,0,1,.1.25.34.34,0,0,1-.33.35h0Z"/><path class="cls-2" d="M21,27.1a.34.34,0,1,1,0-.68.35.35,0,0,1,.33.33.34.34,0,0,1-.33.35Z"/><path class="cls-2" d="M22.75,24.1a.35.35,0,0,1-.25-.6.37.37,0,0,1,.5,0A.35.35,0,0,1,23,24h0A.39.39,0,0,1,22.75,24.1Z"/><path class="cls-2" d="M39,24.85a.35.35,0,0,1-.25-.6.37.37,0,0,1,.5,0,.36.36,0,0,1-.25.6Z"/><path class="cls-2" d="M46.25,29.1A.39.39,0,0,1,46,29a.36.36,0,0,1,0-.49.34.34,0,0,1,.48,0h0a.36.36,0,0,1,.11.25.34.34,0,0,1-.33.35h0Z"/><path class="cls-2" d="M55.25,28.1a.35.35,0,0,1-.25-.6.37.37,0,0,1,.5,0,.36.36,0,0,1-.25.6Z"/><path class="cls-2" d="M51.25,25.35a.35.35,0,0,1-.25-.6.37.37,0,0,1,.5,0,.35.35,0,0,1,.1.25.34.34,0,0,1-.33.35h0Z"/><path class="cls-2" d="M52,29.6a.39.39,0,0,1-.25-.1.37.37,0,0,1,0-.5.36.36,0,0,1,.6.25.34.34,0,0,1-.33.35Z"/><path class="cls-2" d="M62.5,35.6a.34.34,0,0,1-.35-.33h0a.33.33,0,0,1,.11-.25.36.36,0,0,1,.49,0,.31.31,0,0,1,.1.24.34.34,0,0,1-.33.35h0Z"/><path class="cls-2" d="M56.75,39.1a.34.34,0,1,1,0-.68.35.35,0,0,1,.33.33.34.34,0,0,1-.33.35h0Z"/><path class="cls-2" d="M48.25,37.35a.35.35,0,0,1-.24-.1A.36.36,0,0,1,47.9,37a.39.39,0,0,1,.1-.25.37.37,0,0,1,.5,0,.35.35,0,0,1,.1.24.34.34,0,0,1-.33.35h0Z"/><path class="cls-2" d="M48,41.35a.33.33,0,0,1-.25-.11.35.35,0,0,1-.1-.24.39.39,0,0,1,.1-.25.37.37,0,0,1,.5,0,.36.36,0,0,1-.25.6Z"/><path class="cls-2" d="M53.5,45.1a.33.33,0,0,1-.25-.11.31.31,0,0,1-.1-.24.33.33,0,0,1,.11-.25.38.38,0,0,1,.49,0,.36.36,0,0,1-.25.6Z"/><path class="cls-2" d="M62.25,48.1a.34.34,0,0,1-.35-.33h0a.35.35,0,0,1,.1-.25.36.36,0,0,1,.49,0,.31.31,0,0,1,.1.24.34.34,0,0,1-.33.35h0Z"/><path class="cls-2" d="M65,51.85a.34.34,0,0,1-.35-.33h0a.33.33,0,0,1,.11-.25.38.38,0,0,1,.49,0,.39.39,0,0,1,.1.25.34.34,0,0,1-.33.35h0Z"/><path class="cls-2" d="M69.5,45.1a.35.35,0,0,1-.25-.6.37.37,0,0,1,.5,0,.36.36,0,0,1-.25.6Z"/><path class="cls-2" d="M60,39.1a.33.33,0,0,1-.25-.11.35.35,0,0,1-.1-.24.33.33,0,0,1,.11-.25.36.36,0,0,1,.49,0,.37.37,0,0,1,0,.5A.39.39,0,0,1,60,39.1Z"/><path class="cls-2" d="M32.5,47.1a.34.34,0,1,1,0-.68.35.35,0,0,1,.33.33.34.34,0,0,1-.33.35h0Z"/><path class="cls-2" d="M26.25,37.85a.34.34,0,1,1,0-.68.35.35,0,0,1,.33.33.34.34,0,0,1-.33.35h0Z"/><path class="cls-2" d="M29.75,35.6a.35.35,0,0,1-.24-.1.36.36,0,0,1-.11-.25.33.33,0,0,1,.11-.25A.38.38,0,0,1,30,35a.39.39,0,0,1,.1.25.34.34,0,0,1-.33.35h0Z"/><path class="cls-2" d="M10.5,29.6a.35.35,0,0,1-.25-.6.38.38,0,0,1,.49,0,.33.33,0,0,1,.11.25.34.34,0,0,1-.33.35h0Z"/><path class="cls-2" d="M6,31.6a.35.35,0,0,1-.25-.6.36.36,0,0,1,.49,0,.33.33,0,0,1,.11.25A.34.34,0,0,1,6,31.6Z"/><path class="cls-2" d="M2.5,35.35a.39.39,0,0,1-.25-.1.35.35,0,0,1,.5-.5.36.36,0,0,1-.25.6Z"/><path class="cls-2" d="M17,42.1a.34.34,0,0,1-.35-.33h0a.33.33,0,0,1,.11-.25.36.36,0,0,1,.49,0,.37.37,0,0,1,.1.24.34.34,0,0,1-.34.34Z"/><path class="cls-2" d="M12.75,36.1a.34.34,0,0,1-.35-.33h0a.33.33,0,0,1,.11-.25.38.38,0,0,1,.49,0A.35.35,0,0,1,13,36a.36.36,0,0,1-.26.11Z"/><path class="cls-2" d="M26.5,30.35a.35.35,0,0,1-.25-.6.37.37,0,0,1,.5,0,.36.36,0,0,1-.25.6Z"/><path class="cls-2" d="M39.25,30.85a.35.35,0,0,1-.25-.6.35.35,0,0,1,.5.5A.39.39,0,0,1,39.25,30.85Z"/><path class="cls-2" d="M38.25,32.85a.35.35,0,0,1-.25-.6.37.37,0,0,1,.5,0,.36.36,0,0,1-.25.6Z"/><path class="cls-2" d="M28,42.1a.35.35,0,0,1-.25-.6.37.37,0,0,1,.5,0,.36.36,0,0,1-.25.6Z"/><path class="cls-2" d="M6.5,20.6a.35.35,0,0,1-.25-.6.37.37,0,0,1,.5,0,.36.36,0,0,1-.25.6Z"/><path class="cls-2" d="M9.75,18.85a.34.34,0,0,1,0-.68.35.35,0,0,1,.33.33.34.34,0,0,1-.33.35h0Z"/><path class="cls-2" d="M11.75,23.6a.34.34,0,0,1-.35-.33h0a.33.33,0,0,1,.11-.25A.38.38,0,0,1,12,23a.35.35,0,0,1,0,.49A.36.36,0,0,1,11.75,23.6Z"/><path class="cls-2" d="M3,25.85a.39.39,0,0,1-.25-.1.35.35,0,0,1,.5-.5.37.37,0,0,1,0,.5A.39.39,0,0,1,3,25.85Z"/><path class="cls-2" d="M64.25,29.6a.35.35,0,0,1-.24-.1.36.36,0,0,1-.11-.25A.39.39,0,0,1,64,29a.36.36,0,0,1,.6.25.34.34,0,0,1-.33.35h0Z"/><path class="cls-2" d="M69.5,29.85a.34.34,0,0,1-.35-.33h0a.33.33,0,0,1,.11-.25.38.38,0,0,1,.49,0,.35.35,0,0,1,0,.49.36.36,0,0,1-.26.11Z"/><path class="cls-2" d="M1.5,9.1A.39.39,0,0,1,1.25,9a.37.37,0,0,1,0-.5.37.37,0,0,1,.5,0,.37.37,0,0,1,0,.5A.39.39,0,0,1,1.5,9.1Z"/><path class="cls-2" d="M16.5,6.1a.34.34,0,0,1-.35-.33h0a.39.39,0,0,1,.1-.25.37.37,0,0,1,.5,0,.36.36,0,0,1,0,.49A.38.38,0,0,1,16.5,6.1Z"/><path class="cls-2" d="M3.75,6.1a.34.34,0,1,1,0-.68.35.35,0,0,1,.33.33.34.34,0,0,1-.33.35h0Z"/><path class="cls-2" d="M12.75,14.35a.34.34,0,0,1,0-.68.35.35,0,0,1,.33.33.34.34,0,0,1-.33.35h0Z"/><path class="cls-2" d="M18.5,19.35a.34.34,0,0,1-.35-.33h0a.39.39,0,0,1,.1-.25.36.36,0,0,1,.6.25.34.34,0,0,1-.33.35h0Z"/><path class="cls-2" d="M21.25,37.1a.34.34,0,0,1-.35-.33h0a.39.39,0,0,1,.1-.25.38.38,0,0,1,.49,0,.36.36,0,0,1,.11.25.34.34,0,0,1-.33.35h0Z"/><path class="cls-2" d="M.75,44.35a.39.39,0,0,1-.25-.1A.39.39,0,0,1,.4,44a.33.33,0,0,1,.11-.25.38.38,0,0,1,.49,0,.37.37,0,0,1,0,.5A.39.39,0,0,1,.75,44.35Z"/><path class="cls-2" d="M68,66.1a.34.34,0,0,1-.35-.33h0a.33.33,0,0,1,.11-.25.38.38,0,0,1,.49,0,.39.39,0,0,1,.1.25.34.34,0,0,1-.35.33Z"/><path class="cls-2" d="M59.75,69.85a.39.39,0,0,1-.25-.1.35.35,0,0,1-.1-.25.39.39,0,0,1,.1-.25.37.37,0,0,1,.5,0,.35.35,0,0,1-.25.6Z"/><path class="cls-2" d="M40.5,68.1a.35.35,0,0,1-.25-.6.35.35,0,0,1,.5.5A.39.39,0,0,1,40.5,68.1Z"/><path class="cls-2" d="M4.5,60.1a.34.34,0,0,1,0-.68.35.35,0,0,1,.33.33.34.34,0,0,1-.33.35h0Z"/><path class="cls-2" d="M26.5,59.6a.34.34,0,1,1,0-.68.35.35,0,0,1,.33.33.34.34,0,0,1-.33.35h0Z"/><path class="cls-2" d="M37.25,48.6a.34.34,0,0,1-.35-.33h0A.38.38,0,0,1,37,48a.35.35,0,0,1,.5.5A.39.39,0,0,1,37.25,48.6Z"/><path class="cls-2" d="M8.75,40.35a.34.34,0,0,1,0-.68A.35.35,0,0,1,9.1,40a.34.34,0,0,1-.33.35h0Z"/><path class="cls-2" d="M52.25,38.1A.39.39,0,0,1,52,38a.35.35,0,0,1-.1-.24.32.32,0,0,1,.1-.26.38.38,0,0,1,.49,0,.39.39,0,0,1,.1.25.34.34,0,0,1-.33.35h0Z"/><path class="cls-2" d="M60.75,46.1a.34.34,0,0,1-.35-.33h0a.33.33,0,0,1,.11-.25.38.38,0,0,1,.49,0,.39.39,0,0,1,.1.25.34.34,0,0,1-.33.35h0Z"/><path class="cls-2" d="M51.25,66.35a.35.35,0,0,1-.25-.6.37.37,0,0,1,.5,0,.39.39,0,0,1,.1.25.35.35,0,0,1-.1.25A.39.39,0,0,1,51.25,66.35Z"/><path class="cls-2" d="M40,37.85a.34.34,0,1,1,0-.68.35.35,0,0,1,.33.33.34.34,0,0,1-.33.35h0Z"/><path class="cls-2" d="M27.5,13.6a.34.34,0,0,1,0-.68.35.35,0,0,1,.33.33.34.34,0,0,1-.33.35h0Z"/><path class="cls-2" d="M19.75,26.6a.34.34,0,0,1-.35-.33h0a.39.39,0,0,1,.1-.25.37.37,0,0,1,.5,0,.36.36,0,0,1,.11.25.34.34,0,0,1-.33.35h0Z"/><path class="cls-2" d="M11.75,1.85a.36.36,0,0,1-.36-.34.36.36,0,0,1,.11-.26.37.37,0,0,1,.5,0,.35.35,0,0,1,0,.49A.36.36,0,0,1,11.75,1.85Z"/><path class="cls-2" d="M55.25,3.85a.34.34,0,0,1-.35-.33h0a.35.35,0,0,1,.1-.25.38.38,0,0,1,.49,0,.39.39,0,0,1,.1.25.34.34,0,0,1-.33.35h0Z"/><path class="cls-2" d="M47.25,69.85a.35.35,0,0,1-.25-.6.36.36,0,0,1,.6.25.34.34,0,0,1-.33.35h0Z"/><path class="cls-2" d="M4.75,40.35A.34.34,0,0,1,4.4,40v0h0a.33.33,0,0,1,.11-.25.38.38,0,0,1,.49,0,.39.39,0,0,1,.1.25.34.34,0,0,1-.33.35h0Z"/><path class="cls-2" d="M68.75,13.35a.35.35,0,0,1-.25-.6.35.35,0,0,1,.5.5A.39.39,0,0,1,68.75,13.35Z"/><path class="cls-2" d="M23.25,14.1a.34.34,0,0,1,0-.68.35.35,0,0,1,.33.33.34.34,0,0,1-.33.35h0Z"/><path class="cls-2" d="M20.5,17.35a.35.35,0,0,1-.25-.6.37.37,0,0,1,.5,0,.36.36,0,0,1-.25.6Z"/><path class="cls-2" d="M14.75,17.35A.34.34,0,0,1,14.4,17h0a.33.33,0,0,1,.11-.25.38.38,0,0,1,.49,0,.39.39,0,0,1,.1.25.34.34,0,0,1-.33.35h0Z"/><path class="cls-2" d="M6,11.85a.35.35,0,0,1-.25-.6.36.36,0,0,1,.49,0,.33.33,0,0,1,.11.25.34.34,0,0,1-.33.35Z"/><path class="cls-2" d="M7,2.85a.37.37,0,0,1-.24-.1.36.36,0,0,1-.11-.25.39.39,0,0,1,.1-.25.36.36,0,0,1,.6.25A.34.34,0,0,1,7,2.85Z"/><path class="cls-2" d="M10,8.35a.34.34,0,0,1,0-.68.35.35,0,0,1,.33.33.34.34,0,0,1-.33.35h0Z"/><path class="cls-2" d="M14.25,8.35A.34.34,0,0,1,13.9,8h0a.35.35,0,0,1,.1-.25.38.38,0,0,1,.49,0,.39.39,0,0,1,.1.25.34.34,0,0,1-.33.35h0Z"/><path class="cls-2" d="M25.75,7.1a.34.34,0,1,1,0-.68.35.35,0,0,1,.33.33.34.34,0,0,1-.33.35h0Z"/><path class="cls-2" d="M37,7.6a.35.35,0,0,1-.25-.6.37.37,0,0,1,.5,0,.36.36,0,0,1-.25.6Z"/><path class="cls-2" d="M37.5,4.35A.34.34,0,0,1,37.15,4h0a.33.33,0,0,1,.11-.25.36.36,0,0,1,.49,0,.37.37,0,0,1,.1.24.34.34,0,0,1-.33.35h0Z"/><path class="cls-2" d="M43.25,2.35A.36.36,0,0,1,42.89,2,.36.36,0,0,1,43,1.75a.37.37,0,0,1,.5,0,.35.35,0,0,1,0,.49A.36.36,0,0,1,43.25,2.35Z"/><path class="cls-2" d="M49.5,8.35a.39.39,0,0,1-.25-.1.35.35,0,0,1,.5-.5.36.36,0,0,1-.25.6Z"/><path class="cls-2" d="M46,9.35a.35.35,0,0,1-.25-.6.35.35,0,0,1,.5.5A.39.39,0,0,1,46,9.35Z"/><path class="cls-2" d="M35.75,11.1a.34.34,0,0,1-.35-.33h0a.39.39,0,0,1,.1-.25.36.36,0,0,1,.6.25.34.34,0,0,1-.33.35h0Z"/><path class="cls-2" d="M39.25,15.1a.34.34,0,0,1,0-.68.35.35,0,0,1,.33.33.34.34,0,0,1-.33.35h0Z"/><path class="cls-2" d="M24.75,18.1a.34.34,0,1,1,0-.68.35.35,0,0,1,.33.33.34.34,0,0,1-.33.35h0Z"/><path class="cls-2" d="M8.25,27.35a.34.34,0,0,1,0-.68A.35.35,0,0,1,8.6,27a.34.34,0,0,1-.33.35h0Z"/><path class="cls-2" d="M16,31.85a.35.35,0,0,1-.25-.6.37.37,0,0,1,.5,0,.36.36,0,0,1-.25.6Z"/><path class="cls-2" d="M10.5,33.6a.34.34,0,0,1-.35-.33h0a.33.33,0,0,1,.11-.25.38.38,0,0,1,.49,0,.35.35,0,0,1,0,.49.36.36,0,0,1-.26.11Z"/><path class="cls-2" d="M5.25,37.1A.35.35,0,0,1,5,36.5a.37.37,0,0,1,.5,0,.39.39,0,0,1,.1.25.34.34,0,0,1-.33.35h0Z"/><path class="cls-2" d="M3.25,20.6A.35.35,0,0,1,3,20a.37.37,0,0,1,.5,0,.36.36,0,0,1-.25.6Z"/><path class="cls-2" d="M20.5,30.85a.34.34,0,0,1-.35-.33h0a.33.33,0,0,1,.11-.25.36.36,0,0,1,.49,0,.37.37,0,0,1,.1.24.34.34,0,0,1-.33.35h0Z"/><path class="cls-2" d="M17.5,35.6a.35.35,0,0,1-.25-.6.37.37,0,0,1,.5,0,.36.36,0,0,1-.25.6Z"/><path class="cls-2" d="M16,39.1a.34.34,0,0,1-.35-.33h0a.33.33,0,0,1,.11-.25.38.38,0,0,1,.49,0,.35.35,0,0,1,0,.49.36.36,0,0,1-.26.11Z"/><path class="cls-2" d="M12.75,41.35A.34.34,0,0,1,12.4,41h0a.33.33,0,0,1,.11-.25.38.38,0,0,1,.49,0,.39.39,0,0,1,.1.25.34.34,0,0,1-.33.35h0Z"/><path class="cls-2" d="M12.75,46.6a.34.34,0,0,1-.35-.33h0a.33.33,0,0,1,.11-.25A.38.38,0,0,1,13,46a.39.39,0,0,1,.1.25.34.34,0,0,1-.33.35h0Z"/><path class="cls-2" d="M5.75,48.6A.35.35,0,0,1,5.5,48,.37.37,0,0,1,6,48a.36.36,0,0,1-.25.6Z"/><path class="cls-2" d="M11,54.6a.35.35,0,0,1-.25-.6.37.37,0,0,1,.5,0,.36.36,0,0,1-.25.6Z"/><path class="cls-2" d="M15.5,58.6a.35.35,0,0,1-.25-.6.37.37,0,0,1,.5,0,.36.36,0,0,1-.25.6Z"/><path class="cls-2" d="M6,63.6a.35.35,0,0,1-.25-.6.37.37,0,0,1,.5,0,.39.39,0,0,1,.1.25A.34.34,0,0,1,6,63.6Z"/><path class="cls-2" d="M2.25,62.1A.39.39,0,0,1,2,62a.37.37,0,0,1,0-.5.38.38,0,0,1,.49,0,.33.33,0,0,1,.11.25.39.39,0,0,1-.1.25A.39.39,0,0,1,2.25,62.1Z"/><path class="cls-2" d="M9,68.1a.34.34,0,1,1,0-.68.35.35,0,0,1,.33.33A.34.34,0,0,1,9,68.1Z"/><path class="cls-2" d="M13.5,69.6a.35.35,0,0,1-.25-.6.37.37,0,0,1,.5,0,.36.36,0,0,1-.25.6Z"/><path class="cls-2" d="M21.5,68.6a.34.34,0,0,1-.35-.33h0a.33.33,0,0,1,.11-.25.36.36,0,0,1,.49,0,.37.37,0,0,1,.1.24.34.34,0,0,1-.33.35h0Z"/><path class="cls-2" d="M23,65.85a.35.35,0,0,1-.25-.6.35.35,0,0,1,.5.5A.39.39,0,0,1,23,65.85Z"/><path class="cls-2" d="M22.25,60.1a.35.35,0,0,1-.25-.6.35.35,0,0,1,.5.5A.39.39,0,0,1,22.25,60.1Z"/><path class="cls-2" d="M24.25,57.6a.34.34,0,0,1-.35-.33h0A.38.38,0,0,1,24,57a.37.37,0,0,1,.5,0,.35.35,0,0,1,0,.49A.36.36,0,0,1,24.25,57.6Z"/><path class="cls-2" d="M26.25,47.85a.35.35,0,0,1-.25-.6.37.37,0,0,1,.5,0,.36.36,0,0,1-.25.6Z"/><path class="cls-2" d="M25.75,43.6a.35.35,0,0,1-.25-.6.37.37,0,0,1,.5,0,.36.36,0,0,1-.25.6Z"/><path class="cls-2" d="M32.25,31.1a.34.34,0,0,1-.35-.33h0a.34.34,0,0,1,.33-.35.36.36,0,0,1,.26.11.37.37,0,0,1,.1.24.34.34,0,0,1-.33.35h0Z"/><path class="cls-2" d="M34.25,27.85a.34.34,0,0,1-.35-.33h0a.35.35,0,1,1,.6.25A.44.44,0,0,1,34.25,27.85Z"/><path class="cls-2" d="M41.75,25.85a.35.35,0,0,1-.25-.6.37.37,0,0,1,.5,0,.36.36,0,0,1-.25.6Z"/><path class="cls-2" d="M43,20.85a.36.36,0,0,1-.25-.11.35.35,0,0,1-.1-.24.39.39,0,0,1,.1-.25.37.37,0,0,1,.5,0,.39.39,0,0,1,.1.25.33.33,0,0,1-.11.25A.35.35,0,0,1,43,20.85Z"/><path class="cls-2" d="M36.5,19.35a.34.34,0,0,1-.35-.33v0a.31.31,0,0,1,.1-.24.36.36,0,0,1,.49,0h0a.36.36,0,0,1,0,.49.36.36,0,0,1-.26.11Z"/><path class="cls-2" d="M27.75,22.35a.35.35,0,0,1-.25-.6.37.37,0,0,1,.5,0,.36.36,0,0,1-.25.6Z"/><path class="cls-2" d="M52,22.1a.33.33,0,0,1-.25-.11.35.35,0,0,1-.1-.24.39.39,0,0,1,.1-.25.36.36,0,0,1,.6.25.34.34,0,0,1-.33.35Z"/><path class="cls-2" d="M43.25,17.85a.39.39,0,0,1-.25-.1.35.35,0,0,1,.5-.5.36.36,0,0,1-.25.6Z"/><path class="cls-2" d="M50.5,18.1a.39.39,0,0,1-.25-.1.37.37,0,0,1,0-.5.36.36,0,0,1,.6.25.34.34,0,0,1-.33.35h0Z"/><path class="cls-2" d="M59.5,17.35a.34.34,0,0,1-.35-.33h0a.33.33,0,0,1,.11-.25.38.38,0,0,1,.49,0,.39.39,0,0,1,.1.25.34.34,0,0,1-.33.35h0Z"/><path class="cls-2" d="M58.25,14.1A.39.39,0,0,1,58,14a.37.37,0,0,1,0-.5.36.36,0,0,1,.6.25.34.34,0,0,1-.33.35h0Z"/><path class="cls-2" d="M61.5,11.1a.34.34,0,0,1-.35-.33h0a.33.33,0,0,1,.11-.25.36.36,0,0,1,.49,0,.31.31,0,0,1,.1.24.34.34,0,0,1-.33.35h0Z"/><path class="cls-2" d="M58.75,7.6a.39.39,0,0,1-.25-.1.35.35,0,0,1-.1-.25A.3.3,0,0,1,58.5,7,.35.35,0,0,1,59,7h0a.36.36,0,0,1,.11.25.34.34,0,0,1-.33.35h0Z"/><path class="cls-2" d="M60,4.85a.33.33,0,0,1-.25-.11.35.35,0,0,1-.1-.24.33.33,0,0,1,.11-.25.38.38,0,0,1,.49,0,.39.39,0,0,1,.1.25.34.34,0,0,1-.33.35h0Z"/><path class="cls-2" d="M67.5,6.1a.35.35,0,0,1-.25-.6.37.37,0,0,1,.5,0,.36.36,0,0,1-.25.6Z"/><path class="cls-2" d="M70.75,8.6A.35.35,0,0,1,70.5,8,.37.37,0,0,1,71,8a.36.36,0,0,1,.11.25.34.34,0,0,1-.33.35h0Z"/><path class="cls-2" d="M65.75,9.85a.34.34,0,0,1-.35-.33h0a.39.39,0,0,1,.1-.25.37.37,0,0,1,.5,0,.36.36,0,0,1,0,.49A.38.38,0,0,1,65.75,9.85Z"/><path class="cls-2" d="M60.25,23.85a.35.35,0,0,1-.25-.6.37.37,0,0,1,.5,0,.36.36,0,0,1-.25.6Z"/><path class="cls-2" d="M55.5,23.85a.35.35,0,0,1-.25-.6.37.37,0,0,1,.5,0,.36.36,0,0,1-.25.6Z"/><path class="cls-2" d="M55.5,18.85a.33.33,0,0,1-.25-.11.35.35,0,0,1-.1-.24.33.33,0,0,1,.11-.25.38.38,0,0,1,.49,0,.39.39,0,0,1,.1.25.34.34,0,0,1-.33.35h0Z"/><path class="cls-2" d="M65,25.85a.34.34,0,0,1-.35-.33h0a.33.33,0,0,1,.11-.25.38.38,0,0,1,.49,0,.39.39,0,0,1,.1.25.34.34,0,0,1-.33.35h0Z"/><path class="cls-2" d="M57.75,30.85a.33.33,0,0,1-.25-.11.35.35,0,0,1-.1-.24.33.33,0,0,1,.11-.25.38.38,0,0,1,.49,0,.39.39,0,0,1,.1.25.34.34,0,0,1-.33.35h0Z"/><path class="cls-2" d="M52.75,32.85a.36.36,0,0,1-.25-.11.35.35,0,0,1-.1-.24.33.33,0,0,1,.11-.25.38.38,0,0,1,.49,0,.39.39,0,0,1,.1.25.34.34,0,0,1-.33.35h0Z"/><path class="cls-2" d="M47.5,33.85a.36.36,0,0,1-.25-.11.35.35,0,0,1-.1-.24.33.33,0,0,1,.11-.25.38.38,0,0,1,.49,0,.39.39,0,0,1,.1.25.34.34,0,0,1-.33.35h0Z"/><path class="cls-2" d="M44.25,39.35a.36.36,0,0,1-.25-.11.35.35,0,0,1-.1-.24.39.39,0,0,1,.1-.25.37.37,0,0,1,.5,0,.39.39,0,0,1,.1.25.33.33,0,0,1-.11.25A.35.35,0,0,1,44.25,39.35Z"/><path class="cls-2" d="M34,41.6a.35.35,0,0,1-.25-.6.37.37,0,0,1,.5,0,.36.36,0,0,1-.25.6Z"/><path class="cls-2" d="M40.75,48.1a.35.35,0,0,1-.25-.6.36.36,0,0,1,.49,0,.33.33,0,0,1,.11.25.34.34,0,0,1-.33.35h0Z"/><path class="cls-2" d="M45.75,52.35A.34.34,0,0,1,45.4,52h0a.33.33,0,0,1,.11-.25.36.36,0,0,1,.49,0,.37.37,0,0,1,.1.24.34.34,0,0,1-.33.35h0Z"/><path class="cls-2" d="M46.5,56.85a.34.34,0,1,1,.35-.35.34.34,0,0,1-.33.35h0Z"/><path class="cls-2" d="M42,59.6a.35.35,0,0,1-.24-.1.36.36,0,0,1-.11-.25.39.39,0,0,1,.1-.25.37.37,0,0,1,.5,0,.36.36,0,0,1-.25.6Z"/><path class="cls-2" d="M40,62.85a.35.35,0,0,1-.25-.6.35.35,0,0,1,.5.5A.39.39,0,0,1,40,62.85Z"/><path class="cls-2" d="M36,62.85a.34.34,0,0,1-.35-.33h0a.33.33,0,0,1,.11-.25.36.36,0,0,1,.49,0,.37.37,0,0,1,.1.24.34.34,0,0,1-.34.34Z"/><path class="cls-2" d="M36.5,52.85a.39.39,0,0,1-.25-.1.35.35,0,0,1-.1-.25.39.39,0,0,1,.1-.25.37.37,0,0,1,.5,0,.31.31,0,0,1,.1.24.34.34,0,0,1-.33.35h0Z"/><path class="cls-2" d="M30,63.6a.35.35,0,0,1-.24-.1.36.36,0,0,1-.11-.25.33.33,0,0,1,.11-.25.38.38,0,0,1,.49,0,.39.39,0,0,1,.1.25.34.34,0,0,1-.33.35Z"/><path class="cls-2" d="M31.5,68.6a.35.35,0,0,1-.25-.6.37.37,0,0,1,.5,0,.36.36,0,0,1-.25.6Z"/><path class="cls-2" d="M37,71.1a.34.34,0,0,1-.35-.35.33.33,0,0,1,.11-.25.38.38,0,0,1,.49,0,.35.35,0,0,1-.25.6Z"/><path class="cls-2" d="M63,57.1a.34.34,0,0,1-.35-.33h0a.33.33,0,0,1,.11-.25.38.38,0,0,1,.49,0,.39.39,0,0,1,.1.25.34.34,0,0,1-.35.33Z"/><path class="cls-2" d="M60,50.85a.33.33,0,0,1-.25-.11.35.35,0,0,1-.1-.24.35.35,0,0,1,.35-.35.43.43,0,0,1,.24.1.36.36,0,0,1,.11.25.34.34,0,0,1-.33.35Z"/><path class="cls-2" d="M54.5,50.6a.34.34,0,0,1-.35-.33v0a.35.35,0,0,1,.7,0,.35.35,0,0,1-.1.24A.33.33,0,0,1,54.5,50.6Z"/><path class="cls-2" d="M54.75,41.85a.36.36,0,0,1-.25-.11.35.35,0,0,1-.1-.24.39.39,0,0,1,.1-.25.37.37,0,0,1,.5,0,.39.39,0,0,1,.1.25.33.33,0,0,1-.11.25A.35.35,0,0,1,54.75,41.85Z"/><path class="cls-2" d="M62.5,42.35a.35.35,0,0,1-.25-.6.37.37,0,0,1,.5,0,.36.36,0,0,1-.25.6Z"/><path class="cls-2" d="M67,47.6a.35.35,0,0,1-.24-.1.36.36,0,0,1-.11-.25.39.39,0,0,1,.1-.25.36.36,0,0,1,.49,0,.33.33,0,0,1,.11.25.34.34,0,0,1-.33.35Z"/><path class="cls-2" d="M69.5,54.35a.35.35,0,0,1-.24-.1.36.36,0,0,1-.11-.25.39.39,0,0,1,.1-.25.36.36,0,0,1,.6.25.34.34,0,0,1-.33.35h0Z"/><path class="cls-2" d="M63.5,61.85a.35.35,0,0,1-.24-.1.36.36,0,0,1-.11-.25.39.39,0,0,1,.1-.25.36.36,0,0,1,.49,0,.33.33,0,0,1,.11.25.34.34,0,0,1-.33.35h0Z"/><path class="cls-2" d="M70.25,61.1a.34.34,0,0,1-.35-.33h0a.35.35,0,0,1,.1-.25.38.38,0,0,1,.49,0,.39.39,0,0,1,.1.25.34.34,0,0,1-.33.35h0Z"/><path class="cls-2" d="M64.75,65.6a.35.35,0,0,1-.25-.6.37.37,0,0,1,.5,0,.35.35,0,0,1,.1.24.34.34,0,0,1-.33.35h0Z"/><path class="cls-2" d="M65.75,68.35a.35.35,0,0,1-.25-.6.37.37,0,0,1,.5,0,.36.36,0,0,1-.25.6Z"/><path class="cls-2" d="M62.5,70.35a.34.34,0,0,1-.35-.33h0v0a.33.33,0,0,1,.11-.25.36.36,0,0,1,.49,0,.31.31,0,0,1,.1.24.34.34,0,0,1-.33.35h0Z"/><path class="cls-2" d="M52.75,69.85a.39.39,0,0,1-.25-.1.37.37,0,0,1,0-.5.36.36,0,0,1,.6.25.34.34,0,0,1-.35.35Z"/><path class="cls-2" d="M44.75,66.6a.33.33,0,0,1-.25-.11.35.35,0,0,1-.1-.24.33.33,0,0,1,.11-.25A.38.38,0,0,1,45,66a.39.39,0,0,1,.1.25.34.34,0,0,1-.33.35h0Z"/><path class="cls-2" d="M28.5,71.35a.34.34,0,0,1-.35-.35.33.33,0,0,1,.11-.25.36.36,0,0,1,.49,0,.37.37,0,0,1,.1.24.33.33,0,0,1-.11.25A.32.32,0,0,1,28.5,71.35Z"/><path class="cls-2" d="M3,29.6a.39.39,0,0,1-.25-.1.35.35,0,0,1,.5-.5.37.37,0,0,1,0,.5A.39.39,0,0,1,3,29.6Z"/><path class="cls-2" d="M13.25,5.1A.39.39,0,0,1,13,5a.31.31,0,0,1-.1-.24A.35.35,0,0,1,13,4.5a.36.36,0,0,1,.6.25.33.33,0,0,1-.11.25A.35.35,0,0,1,13.25,5.1Z"/><path class="cls-2" d="M70.25,34.6a.34.34,0,0,1-.35-.33h0A.34.34,0,0,1,70,34a.38.38,0,0,1,.49,0,.39.39,0,0,1,.1.25.34.34,0,0,1-.33.35h0Z"/><path class="cls-2" d="M71.25,41.35a.35.35,0,0,1-.25-.6.37.37,0,0,1,.5,0,.36.36,0,0,1-.25.6Z"/><path class="cls-2" d="M1,51.85a.39.39,0,0,1-.25-.1.39.39,0,0,1-.1-.25.33.33,0,0,1,.11-.25.38.38,0,0,1,.49,0,.37.37,0,0,1,0,.5A.39.39,0,0,1,1,51.85Z"/><path class="cls-2" d="M72,23.6a.35.35,0,0,1-.25-.6.37.37,0,0,1,.5,0,.36.36,0,0,1-.25.6Z"/><path class="cls-2" d="M69,26.6a.35.35,0,0,1-.25-.6.37.37,0,0,1,.5,0,.39.39,0,0,1,.1.25.35.35,0,0,1-.1.25A.39.39,0,0,1,69,26.6Z"/><path class="cls-2" d="M68.5,60.35a.34.34,0,0,1-.35-.33h0a.39.39,0,0,1,.1-.25.37.37,0,0,1,.5,0,.36.36,0,0,1,0,.49A.38.38,0,0,1,68.5,60.35Z"/><path class="cls-2" d="M71.5,68.35a.35.35,0,0,1-.25-.6.37.37,0,0,1,.5,0,.39.39,0,0,1,.1.25.35.35,0,0,1-.1.25A.39.39,0,0,1,71.5,68.35Z"/><path class="cls-2" d="M.5,57.85a.39.39,0,0,1-.25-.1.37.37,0,0,1,0-.5.37.37,0,0,1,.5,0,.37.37,0,0,1,0,.5A.39.39,0,0,1,.5,57.85Z"/><path class="cls-2" d="M2.75,71.35a.39.39,0,0,1-.25-.1.37.37,0,0,1,0-.5.36.36,0,0,1,.6.25.39.39,0,0,1-.1.25A.39.39,0,0,1,2.75,71.35Z"/><path class="cls-2" d="M70.25,24.1a.34.34,0,0,1-.35-.33h0a.35.35,0,0,1,.1-.25.38.38,0,0,1,.49,0,.39.39,0,0,1,.1.25.34.34,0,0,1-.33.35h0Z"/><path class="cls-2" d="M1.25,16.85a.39.39,0,0,1-.25-.1.37.37,0,0,1,0-.5.37.37,0,0,1,.5,0,.37.37,0,0,1,0,.5A.39.39,0,0,1,1.25,16.85Z"/><path class="cls-2" d="M18,13.15a.65.65,0,0,1-.65-.65h0a.66.66,0,0,1,.19-.46.68.68,0,0,1,.92,0A.65.65,0,0,1,18,13.15Z"/><path class="cls-2" d="M29.25,11.15a.65.65,0,0,1-.7-.6A.7.7,0,0,1,29.71,10a.66.66,0,0,1,.19.46.65.65,0,0,1-.61.69Z"/><path class="cls-2" d="M29.25,3.65A.65.65,0,0,1,28.6,3h0a.66.66,0,0,1,.19-.46.68.68,0,0,1,.92,0,.66.66,0,0,1,0,.92h0A.66.66,0,0,1,29.25,3.65Z"/><path class="cls-2" d="M40.25,10.65A.65.65,0,0,1,39.6,10h0a.66.66,0,0,1,.19-.46.68.68,0,0,1,.92,0,.65.65,0,0,1-.46,1.11Z"/><path class="cls-2" d="M45,12.15a.63.63,0,0,1-.46-.2.64.64,0,0,1-.19-.45.66.66,0,0,1,.19-.46.68.68,0,0,1,.92,0,.66.66,0,0,1,.19.46.63.63,0,0,1-.2.46A.64.64,0,0,1,45,12.15Z"/><path class="cls-2" d="M47.25,23.15a.65.65,0,0,1-.7-.6h0a.7.7,0,0,1,.68-.72.64.64,0,1,1,0,1.28Z"/><path class="cls-2" d="M54.75,7.15A.64.64,0,0,1,54.29,7a.66.66,0,0,1,0-.92h0a.68.68,0,0,1,.92,0,.66.66,0,0,1,0,.92h0A.64.64,0,0,1,54.75,7.15Z"/><path class="cls-2" d="M64,6.9a.65.65,0,0,1-.65-.65h0a.66.66,0,0,1,.19-.46.68.68,0,0,1,.92,0A.65.65,0,0,1,64,6.9Z"/><path class="cls-2" d="M65,2.9a.65.65,0,0,1-.65-.65.66.66,0,0,1,.19-.46.68.68,0,0,1,.92,0,.66.66,0,0,1,.19.46.63.63,0,0,1-.18.45A.63.63,0,0,1,65,2.9Z"/><path class="cls-2" d="M69.5,18.4a.65.65,0,0,1-.69-.61h0a.66.66,0,0,1,.19-.5.68.68,0,0,1,.92,0,.65.65,0,0,1-.46,1.11Z"/><path class="cls-2" d="M8,47.4a.65.65,0,0,1-.65-.65.66.66,0,0,1,.19-.46.68.68,0,0,1,.92,0A.65.65,0,0,1,8,47.4Z"/><path class="cls-2" d="M5,57.15A.64.64,0,0,1,4.54,57a.66.66,0,0,1,0-.92h0a.68.68,0,0,1,.92,0,.66.66,0,0,1,0,.92h0A.64.64,0,0,1,5,57.15Z"/><path class="cls-2" d="M2.25,67.4a.65.65,0,0,1-.65-.65.66.66,0,0,1,.19-.46.68.68,0,0,1,.92,0,.65.65,0,0,1-.46,1.11Z"/><path class="cls-2" d="M17.75,70.15a.65.65,0,0,1-.7-.6A.7.7,0,0,1,18.21,69a.65.65,0,0,1-.46,1.11Z"/><path class="cls-2" d="M19.25,62.65A.65.65,0,0,1,18.6,62h0a.66.66,0,0,1,.19-.46.68.68,0,0,1,.92,0,.65.65,0,0,1-.46,1.11Z"/><path class="cls-2" d="M21,45.65a.65.65,0,0,1-.65-.65h0a.66.66,0,0,1,.19-.46.68.68,0,0,1,.92,0A.65.65,0,0,1,21,45.65Z"/><path class="cls-2" d="M28.5,51.4a.65.65,0,0,1-.69-.61h0a.66.66,0,0,1,.19-.5.68.68,0,0,1,.92,0,.65.65,0,0,1-.42,1.11Z"/><path class="cls-2" d="M34,60.65a.65.65,0,0,1-.65-.65h0a.66.66,0,0,1,.19-.46.68.68,0,0,1,.92,0A.65.65,0,0,1,34,60.65Z"/><path class="cls-2" d="M34.25,67.15a.65.65,0,0,1-.7-.6.67.67,0,0,1,.24-.55h0a.68.68,0,0,1,.92,0,.66.66,0,0,1,0,.92h0A.64.64,0,0,1,34.25,67.15Z"/><path class="cls-2" d="M41.75,55.4a.65.65,0,0,1-.65-.65h0a.66.66,0,0,1,.19-.46.68.68,0,0,1,.92,0,.65.65,0,0,1-.46,1.11Z"/><path class="cls-2" d="M52.25,60.15a.65.65,0,0,1-.7-.6h0a.7.7,0,0,1,.68-.72.64.64,0,1,1,0,1.28Z"/><path class="cls-2" d="M55,65.65a.65.65,0,0,1-.65-.65.66.66,0,0,1,.19-.46.68.68,0,0,1,.92,0A.65.65,0,0,1,55,65.65Z"/><path class="cls-2" d="M25.25,24.9a.65.65,0,0,1-.65-.65.66.66,0,0,1,.19-.46.68.68,0,0,1,.92,0,.65.65,0,0,1-.46,1.11Z"/><path class="cls-2" d="M35.25,23.65A.65.65,0,0,1,34.6,23a.66.66,0,0,1,.19-.46h0a.68.68,0,0,1,.92,0,.65.65,0,0,1-.46,1.11Z"/><path class="cls-2" d="M45,29.9a.65.65,0,0,1-.65-.65h0a.66.66,0,0,1,.19-.46.68.68,0,0,1,.92,0,.66.66,0,0,1,.19.46.63.63,0,0,1-.2.46A.64.64,0,0,1,45,29.9Z"/><path class="cls-2" d="M52,43.4a.65.65,0,0,1-.65-.65h0a.66.66,0,0,1,.19-.46.68.68,0,0,1,.92,0,.66.66,0,0,1,.19.46A.65.65,0,0,1,52,43.4Z"/><path class="cls-2" d="M67,52.15a.65.65,0,0,1-.65-.65h0a.63.63,0,0,1,.2-.46.69.69,0,0,1,.91,0A.65.65,0,0,1,67,52.15Z"/><path class="cls-2" d="M47.25,48.15a.65.65,0,0,1-.7-.6h0a.7.7,0,0,1,.68-.72.64.64,0,1,1,0,1.28Z"/><path class="cls-2" d="M37,44.9a.65.65,0,0,1-.65-.65.66.66,0,0,1,.19-.46.68.68,0,0,1,.92,0A.65.65,0,0,1,37,44.9Z"/><path class="cls-2" d="M17,28.9a.65.65,0,0,1-.65-.65h0a.66.66,0,0,1,.19-.46.68.68,0,0,1,.92,0,.66.66,0,0,1,0,.92h0A.66.66,0,0,1,17,28.9Z"/><path class="cls-2" d="M11.25,37.15a.65.65,0,0,1-.65-.65h0a.66.66,0,0,1,.19-.46.68.68,0,0,1,.92,0,.65.65,0,0,1-.46,1.11Z"/><path class="cls-2" d="M67.5,31.15A.65.65,0,0,1,67,31a.66.66,0,0,1-.19-.46A.67.67,0,0,1,67,30a.68.68,0,0,1,1,0l0,0h0a.66.66,0,0,1,.19.46.65.65,0,0,1-.65.65h0Z"/><path class="cls-2" d="M7.25,16.15a.63.63,0,0,1-.46-.2.64.64,0,0,1-.19-.45.66.66,0,0,1,.19-.5.68.68,0,0,1,.92,0,.66.66,0,0,1,0,.92h0A.63.63,0,0,1,7.25,16.15Z"/><path class="cls-2" d="M8.5,5.65A.66.66,0,0,1,8,5.46a.78.78,0,0,1,0-.92.68.68,0,0,1,.92,0A.63.63,0,0,1,9.15,5a.65.65,0,0,1-.65.65Z"/><path class="cls-2" d="M3.5,2.9a.65.65,0,0,1-.69-.61A.67.67,0,0,1,3,1.79a.68.68,0,0,1,.92,0,.66.66,0,0,1,.19.46A.69.69,0,0,1,4,2.71.66.66,0,0,1,3.5,2.9Z"/><path class="cls-2" d="M66.5,37.65a.65.65,0,0,1-.69-.61h0a.66.66,0,0,1,.19-.5.68.68,0,0,1,.92,0,.65.65,0,0,1-.42,1.11Z"/><path class="cls-2" d="M44,63.4a.65.65,0,0,1-.65-.65.66.66,0,0,1,.19-.46.68.68,0,0,1,.92,0A.65.65,0,0,1,44,63.4Z"/><path class="cls-2" d="M25.75,70.4a.65.65,0,0,1-.65-.65.66.66,0,0,1,.19-.46.68.68,0,0,1,.92,0,.65.65,0,0,1-.46,1.11Z"/><path class="cls-2" d="M22,42.15a.65.65,0,0,1-.7-.6.67.67,0,0,1,.24-.55h0a.68.68,0,0,1,.92,0,.64.64,0,0,1,.09.91A.63.63,0,0,1,22,42.15Z"/><path class="cls-2" d="M24,29.4a.65.65,0,0,1-.65-.65.66.66,0,0,1,.19-.46.68.68,0,0,1,.92,0,.66.66,0,0,1,.19.46.65.65,0,0,1-.65.65Z"/><path class="cls-2" d="M41.5,34.9a.65.65,0,0,1-.69-.61h0a.66.66,0,0,1,.19-.5.68.68,0,0,1,.92,0,.65.65,0,0,1-.42,1.11Z"/><path class="cls-2" d="M67.5,44.15A.65.65,0,0,1,67,44a.66.66,0,0,1-.19-.46A.67.67,0,0,1,67,43a.68.68,0,0,1,1,0l0,0h0a.66.66,0,0,1,.19.46.65.65,0,0,1-.65.65h0Z"/><path class="cls-2" d="M53.25,15.4a.65.65,0,0,1-.65-.65h0a.66.66,0,0,1,.19-.46.68.68,0,0,1,.92,0,.65.65,0,0,1-.46,1.11Z"/><path class="cls-2" d="M34,16.4a.65.65,0,0,1-.65-.65.66.66,0,0,1,.19-.46.68.68,0,0,1,.92,0,.66.66,0,0,1,.19.46A.65.65,0,0,1,34,16.4Z"/><path class="cls-2" d="M12.75,19.65A.65.65,0,0,1,12.1,19h0a.66.66,0,0,1,.19-.46.68.68,0,0,1,.92,0,.65.65,0,0,1-.46,1.11Z"/><path class="cls-2" d="M49.5,4.9a.65.65,0,0,1-.69-.61h0a.66.66,0,0,1,.19-.5.68.68,0,0,1,.92,0A.65.65,0,0,1,49.5,4.9Z"/><path class="cls-2" d="M59,21.15a.65.65,0,0,1-.7-.6h0a.7.7,0,0,1,.68-.72.62.62,0,0,1,.67.63.65.65,0,0,1-.65.65h0Z"/><path class="cls-2" d="M67.5,57.65a.65.65,0,0,1-.69-.61.67.67,0,0,1,.19-.5.68.68,0,0,1,.92,0,.66.66,0,0,1,.19.46.65.65,0,0,1-.65.65h0Z"/><path class="cls-2" d="M5.25,70.15A.64.64,0,0,1,4.79,70a.66.66,0,0,1,0-.92h0a.68.68,0,0,1,.92,0,.66.66,0,0,1,0,.92h0A.64.64,0,0,1,5.25,70.15Z"/><path class="cls-2" d="M2.75,13.65a.63.63,0,0,1-.46-.2A.64.64,0,0,1,2.1,13a.66.66,0,0,1,.19-.46.68.68,0,0,1,.92,0,.66.66,0,0,1,0,.92h0A.66.66,0,0,1,2.75,13.65Z"/><path class="cls-2" d="M16.5,3.65A.65.65,0,0,1,15.81,3h0a.66.66,0,0,1,.19-.5.68.68,0,0,1,.92,0,.65.65,0,0,1-.46,1.11Z"/><path class="cls-2" d="M40.5,4.9a.65.65,0,0,1-.69-.61h0a.66.66,0,0,1,.19-.5.68.68,0,0,1,.92,0,.66.66,0,0,1,.19.46.65.65,0,0,1-.65.65h0Z"/><path class="cls-2" d="M2.75,32.4a.65.65,0,0,1-.65-.65.66.66,0,0,1,.19-.46h0a.68.68,0,0,1,.92,0,.65.65,0,0,1-.46,1.11Z"/><path class="cls-2" d="M7.5,25.4a.65.65,0,0,1-.69-.61.67.67,0,0,1,.19-.5H7a.68.68,0,0,1,.92,0A.65.65,0,0,1,7.5,25.4Z"/><path class="cls-2" d="M4,47.15A.64.64,0,0,1,3.54,47a.66.66,0,0,1-.19-.46.65.65,0,0,1,.56-.73.63.63,0,0,1,.55.19.66.66,0,0,1,0,.92h0A.63.63,0,0,1,4,47.15Z"/><path class="cls-2" d="M11,50.9a.65.65,0,0,1-.65-.65.66.66,0,0,1,.19-.46.68.68,0,0,1,.92,0A.65.65,0,0,1,11,50.9Z"/><path class="cls-2" d="M10,60.15A.64.64,0,0,1,9.54,60a.66.66,0,0,1,0-.92h0a.68.68,0,0,1,.92,0,.66.66,0,0,1,0,.92h0A.64.64,0,0,1,10,60.15Z"/><path class="cls-2" d="M13.5,66.15A.65.65,0,0,1,13,66a.66.66,0,0,1-.19-.46A.64.64,0,0,1,13,65,.68.68,0,0,1,14,65H14a.66.66,0,0,1,.19.46A.67.67,0,0,1,14,66,.65.65,0,0,1,13.5,66.15Z"/><path class="cls-2" d="M22,53.65a.65.65,0,0,1-.65-.65.63.63,0,0,1,.2-.46.66.66,0,0,1,.92,0h0a.66.66,0,0,1,0,.92A.67.67,0,0,1,22,53.65Z"/><path class="cls-2" d="M31.25,37.9a.65.65,0,0,1-.65-.65.66.66,0,0,1,.19-.46.68.68,0,0,1,.92,0,.65.65,0,0,1-.46,1.11Z"/><path class="cls-2" d="M26,34.4a.65.65,0,0,1-.65-.65h0a.66.66,0,0,1,.19-.46.68.68,0,0,1,.92,0A.65.65,0,0,1,26,34.4Z"/><path class="cls-2" d="M37.25,28.9a.65.65,0,0,1-.65-.65.66.66,0,0,1,.19-.46.68.68,0,0,1,.92,0,.65.65,0,0,1-.46,1.11Z"/><path class="cls-2" d="M61.75,16.9a.65.65,0,0,1-.65-.65.66.66,0,0,1,.19-.46.68.68,0,0,1,.92,0,.66.66,0,0,1,.19.46.65.65,0,0,1-.65.65Z"/><path class="cls-2" d="M61.25,27.4a.65.65,0,0,1-.65-.65.66.66,0,0,1,.19-.46.68.68,0,0,1,.92,0,.66.66,0,0,1,0,.92h0A.66.66,0,0,1,61.25,27.4Z"/><path class="cls-2" d="M58.75,57.4a.65.65,0,0,1-.65-.65.66.66,0,0,1,.19-.46.68.68,0,0,1,.92,0,.65.65,0,0,1-.46,1.11Z"/><path class="cls-2" d="M59.25,44.65A.65.65,0,0,1,58.6,44a.66.66,0,0,1,.19-.46h0a.68.68,0,0,1,.92,0,.66.66,0,0,1,0,.92h0A.66.66,0,0,1,59.25,44.65Z"/><path class="cls-2" d="M55.75,35.9a.65.65,0,0,1-.65-.65.66.66,0,0,1,.19-.46.68.68,0,0,1,.92,0,.65.65,0,0,1-.46,1.11Z"/><path class="cls-2" d="M69.25,70.9a.65.65,0,0,1-.65-.65.66.66,0,0,1,.19-.46h0a.7.7,0,0,1,.92,0,.65.65,0,0,1-.46,1.11Z"/><path class="cls-2" d="M60.75,66.15a.65.65,0,0,1-.7-.6h0a.7.7,0,0,1,.68-.72.62.62,0,0,1,.67.63.65.65,0,0,1-.65.65h0Z"/><path class="cls-2" d="M44.5,71.65a.65.65,0,0,1-.69-.61h0a.66.66,0,0,1,.19-.5.68.68,0,0,1,.92,0,.65.65,0,0,1-.46,1.11Z"/><path class="cls-2" d="M24.5,1.4a.65.65,0,0,1-.65-.65h0A.64.64,0,0,1,24,.29a.68.68,0,0,1,.92,0A.65.65,0,0,1,24.5,1.4Z"/><path class="cls-2" d="M0,23.6a.39.39,0,0,1-.25-.1.37.37,0,0,1,0-.5.37.37,0,0,1,.5,0,.39.39,0,0,1,.1.25.39.39,0,0,1-.1.25A.39.39,0,0,1,0,23.6Z"/></pattern></defs><title>アセット 1</title><g id="レイヤー_2" data-name="レイヤー 2"><g id="レイヤー_1-2" data-name="レイヤー 1"><g id="レイヤー_2-2" data-name="レイヤー 2"><g id="レイヤー_1-2-2" data-name="レイヤー 1-2"><g id="レイヤー_2-2-2" data-name="レイヤー 2-2"><g id="レイヤー_5" data-name="レイヤー 5"><rect class="cls-3" width="530" height="444.8"/></g></g></g></g></g></g></svg>