<svg xmlns="http://www.w3.org/2000/svg" xmlns:xlink="http://www.w3.org/1999/xlink" viewBox="0 0 1308 711"><defs><style>.cls-1{fill:none;}.cls-2{fill:#fff;}.cls-3{fill:url(#_6_dpi_60_2);}</style><pattern id="_6_dpi_60_2" data-name="6 dpi 60% 2" width="48" height="48" patternUnits="userSpaceOnUse" viewBox="0 0 48 48"><rect class="cls-1" width="48" height="48"/><path class="cls-2" d="M24,55.2A7.2,7.2,0,1,0,16.8,48,7.2,7.2,0,0,0,24,55.2Z"/><path class="cls-2" d="M48,55.2A7.2,7.2,0,1,0,40.8,48,7.2,7.2,0,0,0,48,55.2Z"/><path class="cls-2" d="M24,31.2A7.2,7.2,0,1,0,16.8,24,7.2,7.2,0,0,0,24,31.2Z"/><path class="cls-2" d="M48,31.2A7.2,7.2,0,1,0,40.8,24,7.2,7.2,0,0,0,48,31.2Z"/><path class="cls-2" d="M36,43.2A7.2,7.2,0,1,0,28.8,36,7.2,7.2,0,0,0,36,43.2Z"/><path class="cls-2" d="M12,43.2A7.2,7.2,0,1,0,4.8,36,7.2,7.2,0,0,0,12,43.2Z"/><path class="cls-2" d="M36,19.2A7.2,7.2,0,1,0,28.8,12,7.2,7.2,0,0,0,36,19.2Z"/><path class="cls-2" d="M12,19.2A7.2,7.2,0,1,0,4.8,12,7.2,7.2,0,0,0,12,19.2Z"/><path class="cls-2" d="M0,55.2A7.2,7.2,0,0,0,0,40.8,7.2,7.2,0,0,0-7.2,48,7.2,7.2,0,0,0,0,55.2Z"/><path class="cls-2" d="M0,31.2A7.2,7.2,0,0,0,0,16.8,7.2,7.2,0,0,0-7.2,24,7.2,7.2,0,0,0,0,31.2Z"/><path class="cls-2" d="M24,7.2A7.2,7.2,0,0,0,31.2,0,7.2,7.2,0,0,0,24-7.2,7.2,7.2,0,0,0,16.8,0,7.2,7.2,0,0,0,24,7.2Z"/><path class="cls-2" d="M48,7.2A7.2,7.2,0,0,0,55.2,0,7.2,7.2,0,0,0,48-7.2,7.2,7.2,0,0,0,40.8,0,7.2,7.2,0,0,0,48,7.2Z"/><path class="cls-2" d="M0,7.2A7.2,7.2,0,0,0,7.2,0,7.2,7.2,0,0,0,0-7.2,7.2,7.2,0,0,0-7.2,0,7.2,7.2,0,0,0,0,7.2Z"/></pattern></defs><title>91</title><g id="レイヤー_2" data-name="レイヤー 2"><g id="レイヤー_5" data-name="レイヤー 5"><rect class="cls-3" width="1308" height="711"/></g></g></svg>