<?xml version="1.0" encoding="utf-8"?>
<!-- Generator: Adobe Illustrator 22.0.1, SVG Export Plug-In . SVG Version: 6.00 Build 0)  -->
<svg version="1.1" id="レイヤー_1" xmlns="http://www.w3.org/2000/svg" xmlns:xlink="http://www.w3.org/1999/xlink" x="0px"
	 y="0px" width="640px" height="640px" viewBox="0 0 640 640" style="enable-background:new 0 0 640 640;" xml:space="preserve">
<style type="text/css">
	.st0{fill:none;}
	.st1{fill:#040093;}
	.st2{fill:#1D2C6F;}
	.st3{fill:url(#新規パターンスウォッチ_4);}
</style>
<pattern  width="14" height="17" patternUnits="userSpaceOnUse" id="新規パターンスウォッチ_4" viewBox="0.5 -17.5 14 17" style="overflow:visible;">
	<g>
		<rect x="0.5" y="-17.5" class="st0" width="14" height="17"/>
		<g>
			<rect x="1" y="-17" class="st1" width="1" height="16"/>
			<path class="st2" d="M1.5-16.5v15V-16.5 M2.5-17.5v17h-2v-17H2.5L2.5-17.5z"/>
		</g>
		<g>
			<rect x="5" y="-17" class="st1" width="1" height="16"/>
			<path class="st2" d="M5.5-16.5v15V-16.5 M6.5-17.5v17h-2v-17H6.5L6.5-17.5z"/>
		</g>
		<g>
			<rect x="9" y="-17" class="st1" width="1" height="16"/>
			<path class="st2" d="M9.5-16.5v15V-16.5 M10.5-17.5v17h-2v-17H10.5L10.5-17.5z"/>
		</g>
		<g>
			<rect x="13" y="-17" class="st1" width="1" height="16"/>
			<path class="st2" d="M13.5-16.5v15V-16.5 M14.5-17.5v17h-2v-17H14.5L14.5-17.5z"/>
		</g>
	</g>
</pattern>
<g>
	<rect x="23" y="26" class="st3" width="593" height="593"/>
	<path class="st2" d="M615,27v591H24V27H615 M616,26H23v593h593V26L616,26z"/>
</g>
</svg>
