<?xml version="1.0" encoding="utf-8"?>
<!-- Generator: Adobe Illustrator 22.0.1, SVG Export Plug-In . SVG Version: 6.00 Build 0)  -->
<svg version="1.1" id="レイヤー_1" xmlns="http://www.w3.org/2000/svg" xmlns:xlink="http://www.w3.org/1999/xlink" x="0px"
	 y="0px" width="640px" height="640px" viewBox="0 0 640 640" style="enable-background:new 0 0 640 640;" xml:space="preserve">
<style type="text/css">
	.st0{fill:url(#SVGID_1_);}
	.st1{fill:none;stroke:#000000;stroke-width:3;stroke-linecap:round;stroke-linejoin:round;}
</style>
<g>
	<g>
		<linearGradient id="SVGID_1_" gradientUnits="userSpaceOnUse" x1="57" y1="303.2861" x2="565" y2="303.2861">
			<stop  offset="0" style="stop-color:#CCE0F4"/>
			<stop  offset="0.0641" style="stop-color:#C3DCF2"/>
			<stop  offset="0.1706" style="stop-color:#A9D2EE"/>
			<stop  offset="0.3066" style="stop-color:#80C2E7"/>
			<stop  offset="0.4649" style="stop-color:#47ACDE"/>
			<stop  offset="0.5674" style="stop-color:#1E9CD7"/>
			<stop  offset="0.8652" style="stop-color:#0075BE"/>
			<stop  offset="0.9944" style="stop-color:#005B97"/>
		</linearGradient>
		<path class="st0" d="M530.603,572.944c-4.703,2.715-5.037,2.629-5.663,2.469c-0.391-0.1-0.756-0.374-0.958-0.724
			c-0.77-1.334-0.833-1.443,19.401-27.622c6.757-8.742,14.756-19.091,18.62-24.477c-7.457,4.03-24.253,14.286-39.434,23.56
			c-39.551,24.158-48.534,29.264-50.58,28.744c-0.441-0.113-0.806-0.386-1.028-0.77c-1.259-2.18,0.704-4.804,52.967-49.648
			c15.411-13.223,32.457-27.851,39.455-34.526c-12.668,6.183-49.159,28.486-79.333,46.929c-53.37,32.62-68.183,41.363-70.72,40.716
			c-0.446-0.113-0.814-0.389-1.038-0.776c-1.431-2.478,1.107-5.277,71.638-57.402c30.365-22.44,67.126-49.606,77.895-59.472
			c-12.367,6.308-47.86,28.013-82.354,49.104c-79.103,48.369-112.913,68.398-117.522,67.225c-0.517-0.131-0.941-0.444-1.192-0.878
			c-1.638-2.837,2.019-6.504,94.807-70.535c43.606-30.091,96.926-66.886,107.633-77.213c-14.492,6.163-75.344,43.307-125.085,73.671
			c-30.962,18.9-62.978,38.443-87.233,52.741c-40.967,24.142-43.299,23.554-44.692,23.199c-0.506-0.129-0.92-0.435-1.166-0.861
			c-1.129-1.955-2.195-3.802,43.764-35.378c26.701-18.344,62.418-41.978,96.958-64.835c49.502-32.757,105.008-69.486,116.52-79.535
			c-16.506,6.333-92.324,52.821-154.166,90.742c-101.899,62.482-150.549,91.756-156.422,90.266c-0.544-0.138-0.988-0.464-1.25-0.917
			c-1.139-1.972-2.214-3.835,43.939-34.457c27.145-18.01,63.265-41.082,101.504-65.508
			c68.686-43.875,153.459-98.025,162.335-108.809c-13.899,3.473-104.02,58.94-177.028,103.875
			c-108.636,66.862-175.135,107.324-182.602,105.435c-0.764-0.193-1.162-0.645-1.361-0.99c-1.014-1.756-0.604-4.122,14.738-15.353
			c9.312-6.816,22.996-16.073,41.837-28.3c34.95-22.681,82.714-52.349,128.905-81.04c76.649-47.611,171.433-106.486,179.383-117.126
			c-4.74,0.739-22.811,9.186-78.199,41.784c-43.918,25.841-99.978,60.138-154.194,93.305
			c-125.171,76.575-180.656,109.977-186.679,108.444c-0.529-0.135-0.96-0.451-1.216-0.894c-1.226-2.123-2.383-4.128,63.125-46.189
			c38.641-24.81,91.653-57.838,142.921-89.778c93.287-58.119,198.494-123.664,209.948-135.556
			c-5.423,1.183-24.258,10.222-78.813,42.414c-44.858,26.473-103.492,62.426-160.196,97.196
			c-53.629,32.884-109.084,66.888-150.663,91.479c-61.338,36.275-72.726,40.376-75.778,39.602c-0.772-0.196-1.173-0.651-1.373-0.999
			c-0.921-1.596,0.285-3.403,4.781-7.163c3.223-2.695,8.236-6.412,14.899-11.047c12.238-8.514,30.121-20.211,54.67-35.762
			c45.538-28.846,107.411-66.732,167.247-103.37c102.464-62.74,218.121-133.557,228.785-145.56
			c-2.415,0.434-9.157,2.76-27.883,12.67c-15.723,8.321-37.255,20.533-65.826,37.335c-52.874,31.093-120.575,72.464-186.048,112.472
			C133.41,525.402,62.826,567.866,55.778,566.072c-0.552-0.14-1.001-0.47-1.265-0.927c-1.146-1.985-0.342-4.848,21.202-19.841
			c13.288-9.248,32.737-21.893,59.458-38.658c49.561-31.095,116.901-71.78,182.023-111.126
			c60.71-36.681,123.488-74.61,169.813-103.556c57.725-36.069,74.624-48.724,77.743-52.643c-5.101,0.698-25.467,10.22-89.269,47.791
			c-50.448,29.706-115.85,69.695-179.1,108.368c-59.159,36.173-115.038,70.339-158.417,95.992
			c-63.792,37.725-75.413,42.042-78.366,41.29c-0.742-0.188-1.13-0.63-1.325-0.966c-1.214-2.103-0.585-5.205,20.168-19.871
			c12.823-9.062,31.679-21.353,57.646-37.576c48.199-30.112,114.239-69.561,178.104-107.71
			c62.079-37.083,126.272-75.428,173.758-105.01c25.544-15.914,44.363-28.099,57.531-37.254
			c15.737-10.941,20.208-15.405,21.44-17.16c-14.665,3.333-128.75,73.14-229.781,134.957
			C173.32,442.412,65.109,507.904,54.031,505.086c-0.879-0.223-1.33-0.732-1.554-1.119c-1.381-2.392-3.271-5.666,77.124-56.05
			c47.536-29.79,112.717-69.109,175.752-107.132C367.42,303.345,431.6,264.63,479.313,234.79
			c60.366-37.754,77.355-50.753,80.125-54.685c-2.052,0.281-8.245,2.262-26.809,12.093c-14.976,7.931-35.506,19.592-62.758,35.646
			c-50.522,29.763-116,69.856-179.322,108.629c-59.092,36.184-114.908,70.361-158.252,96.011
			c-63.74,37.717-75.41,42.02-78.423,41.255c-0.754-0.192-1.147-0.638-1.344-0.979c-1.301-2.253-2.646-4.583,70.601-50.455
			c43.539-27.267,101.689-62.56,163.253-99.925c66.067-40.098,134.382-81.561,186.294-114.164
			c65.686-41.253,84.521-55.509,87.764-59.815c-5.085,0.914-24.905,10.371-86.229,46.468
			c-48.845,28.754-112.558,67.602-174.173,105.172C142.685,395.987,67.704,440.973,59.968,438.999
			c-0.733-0.187-1.116-0.623-1.308-0.956c-1.285-2.225-2.741-4.747,67.399-48.565c41.753-26.084,97.936-59.997,157.419-95.902
			c66.787-40.315,135.85-82.002,188.6-115.124c28.5-17.895,49.554-31.597,64.366-41.89c18.859-13.106,23.468-17.917,24.544-19.61
			c-4.788,0.527-25.305,10.085-91.955,49.256c-51.713,30.388-118.156,70.86-182.41,109.999
			c-57.046,34.748-110.929,67.569-152.315,92.028c-60.559,35.791-71.423,40.08-74.145,39.385c-0.539-0.138-0.978-0.46-1.237-0.909
			c-1.328-2.301-2.834-4.909,74.303-53.34c45.698-28.692,108.776-67.019,169.778-104.084
			c63.053-38.312,128.254-77.929,177.169-108.638c61.748-38.765,79.488-52.1,82.593-56.099c-2.178,0.278-8.766,2.357-28.565,12.807
			c-15.945,8.416-37.766,20.779-66.709,37.795c-53.525,31.469-121.676,73.148-187.582,113.455
			C132.557,338.725,67.264,378.038,60.439,376.301c-0.545-0.139-0.989-0.464-1.251-0.917c-1.063-1.841-0.412-4.263,18.001-17.025
			c11.308-7.837,27.945-18.607,50.863-32.926c42.684-26.669,99.845-61.089,160.362-97.53
			c65.601-39.502,133.436-80.349,184.908-112.634c27.786-17.428,48.293-30.779,62.695-40.815
			c18.498-12.891,22.835-17.568,23.799-19.183c-1.905,0.205-8.061,2.076-27.804,12.54c-15.403,8.163-36.494,20.133-64.48,36.587
			c-51.799,30.46-118.199,71.015-182.414,110.235c-146.61,89.544-216.442,131.536-223.4,129.763
			c-0.549-0.14-0.996-0.467-1.259-0.923c-1.394-2.414-3.302-5.72,81.308-59.19c49.698-31.407,116.236-71.935,180.583-111.129
			c98.952-60.271,210.53-128.233,222.724-140.719c-5.506,1.447-23.906,10.487-75.935,41.252
			c-43.558,25.753-101.489,61.246-157.512,95.569C161.596,261.177,69.805,316.812,60.171,314.365
			c-0.824-0.21-1.25-0.691-1.462-1.058c-0.877-1.519,0.249-3.222,4.459-6.749c2.983-2.498,7.616-5.949,13.771-10.259
			c11.303-7.913,27.812-18.801,50.472-33.284c42.032-26.865,99.129-62.176,154.345-96.325
			c91.79-56.767,195.067-120.639,210.031-134.423C473.51,39.416,377.011,98,291.211,150.089
			c-55.424,33.648-112.735,68.441-156.891,94.37c-65.719,38.592-77.614,43.017-80.583,42.257c-0.735-0.188-1.118-0.625-1.31-0.958
			c-1.181-2.046-2.297-3.979,57.406-42.718c35.163-22.816,83.436-53.176,130.12-82.536
			c79.515-50.008,177.354-111.54,190.813-124.314c-17.32,5.956-114.453,65.021-193.391,113.022
			c-44.049,26.785-85.656,52.085-117.985,71.148c-49.955,29.454-56.343,31.358-58.412,30.828c-0.509-0.13-0.926-0.438-1.174-0.867
			c-1.219-2.112-2.601-4.505,52.562-41.018c32.256-21.351,75.831-49.054,117.97-75.845c66.42-42.228,141.166-89.75,152.028-100.511
			c-14.87,4.846-94.687,53.949-159.562,93.859C115.046,193.095,63.562,224.145,57,222.484c-0.737-0.186-1.123-0.625-1.316-0.96
			c-1.047-1.814-1.739-3.012,36.217-28.77c22.305-15.137,52.321-34.88,84.098-55.783c61.155-40.226,136.337-89.679,147.365-100.996
			c-14.244,5.094-84.875,48.262-142.366,83.399c-31.184,19.059-60.639,37.061-83.43,50.542
			c-38.241,22.623-40.272,22.105-41.615,21.763c-0.488-0.124-0.889-0.421-1.129-0.837c-0.997-1.727-1.717-2.974,30.853-26.016
			c18.981-13.428,44.215-30.658,70.93-48.899c45.116-30.806,100.275-68.469,111.385-79.021
			c-13.637,5.87-66.915,38.366-110.533,64.969c-72.394,44.153-95.453,57.769-98.699,56.939c-0.463-0.118-0.845-0.402-1.075-0.801
			c-1.296-2.245-1.644-2.848,71.45-56.284c32.754-23.945,76.156-55.674,87.44-66.116c-12.087,5.932-48.202,27.996-78.032,46.22
			c-59.053,36.079-77.915,47.192-80.885,46.435c-0.461-0.118-0.842-0.401-1.072-0.799c-1.218-2.11,0.303-4.01,51.333-45.716
			c20.966-17.135,46.212-37.769,54.849-46.123c-9.593,4.972-32.754,19.238-52.053,31.125c-42.169,25.97-54.81,33.427-57.325,32.791
			c-0.458-0.116-0.836-0.397-1.064-0.793c-0.952-1.65-1.208-2.093,29.922-34.434c9.741-10.12,21.292-22.121,26.673-28.315
			c-5.877,3.306-16.282,9.684-25.128,15.107c-25.642,15.72-28.355,17.126-29.736,16.777c-0.392-0.1-0.784-0.391-0.986-0.741
			c-0.468-0.81-0.517-0.895,4.067-18.655c1.395-5.406,3.034-11.755,3.878-15.381c-0.168,0.098-0.333,0.194-0.49,0.286
			c-3.516,2.054-3.516,2.056-4.143,1.89l0.384-1.45l1.299-0.75l-1.299,0.75l-0.654-1.348c0.211-0.112,1.703-0.982,2.899-1.682
			c3.806-2.223,3.804-2.224,4.436-2.057c0.386,0.102,0.715,0.354,0.915,0.7c0.472,0.817,0.544,0.943-4.32,19.791
			c-1.357,5.257-2.958,11.462-3.729,14.795c4.751-2.512,16.305-9.593,25.911-15.483c26.721-16.383,29.994-18.072,31.43-17.708
			c0.392,0.1,0.793,0.397,0.996,0.748c0.964,1.669,1.223,2.118-30.242,34.807C74.396,76.803,62.447,89.217,57.425,95.097
			c9.067-4.626,32.367-18.977,51.718-30.896C152,37.808,164.851,30.231,167.432,30.883c0.461,0.116,0.841,0.4,1.07,0.797
			c1.322,2.29-1.011,5.263-58.684,52.398c-18.458,15.086-38.893,31.786-46.999,39.276c12.234-6.247,44.834-26.163,74.161-44.08
			c61.228-37.407,80.794-48.924,83.947-48.121c0.469,0.119,0.855,0.406,1.087,0.808c0.961,1.664,1.72,2.979-28.581,25.989
			c-17.364,13.185-40.323,29.969-62.526,46.201c-26.093,19.076-55.011,40.216-66.02,49.289
			c14.852-7.676,54.939-32.126,91.012-54.127c75.251-45.896,111.188-67.396,115.612-66.267c0.499,0.127,0.908,0.429,1.151,0.851
			c1.067,1.849,1.989,3.445-35.362,29.972c-21.638,15.368-50.799,35.279-78.999,54.534c-40.648,27.755-86.064,58.766-97.895,68.932
			c15.423-7.199,70.123-40.632,119.029-70.523c95.483-58.359,141.085-85.693,146.738-84.253c0.537,0.137,0.975,0.459,1.234,0.906
			c1.136,1.968,2.311,4.003-46.831,37.58c-28.52,19.486-66.346,44.367-102.928,68.429c-49.935,32.846-105.948,69.69-117.283,79.501
			c16.569-5.958,96.078-54.871,160.867-94.728C327.749,58.721,378.638,28.028,385.06,29.653c0.73,0.185,1.112,0.62,1.304,0.953
			c1.162,2.012,2.259,3.913-46.781,36.262c-28.855,19.034-67.122,43.364-107.637,69.122
			c-70.161,44.607-156.483,99.489-168.143,111.698c15.59-5.923,98.408-56.281,172.013-101.038
			c46.232-28.112,94.037-57.181,130.732-78.75c54.468-32.023,64.475-35.797,67.167-35.108c0.549,0.141,0.997,0.47,1.26,0.925
			c1.233,2.136,2.398,4.154-59.541,44.379c-36.405,23.643-85.961,54.809-133.885,84.949
			c-81.094,51.001-172.391,108.418-185.007,120.4c18.772-5.797,137.108-77.638,233.112-135.92
			c51.542-31.291,100.226-60.847,137.871-83.04c62.87-37.066,65.927-36.284,67.568-35.864c0.516,0.133,0.939,0.444,1.189,0.878
			c1.237,2.142,2.516,4.358-65.048,47.484c-39.905,25.472-94.806,59.425-147.899,92.26
			c-93.963,58.111-210.056,129.909-221.11,142.149c5.308-1.052,24.55-10.235,81.7-43.957
			c46.45-27.407,107.295-64.685,166.136-100.735c56.194-34.428,114.3-70.028,157.928-95.816
			c64.378-38.054,76.284-42.357,79.448-41.554c0.78,0.198,1.185,0.658,1.387,1.008c1.291,2.235,2.625,4.547-67.952,48.94
			c-41.905,26.358-97.793,60.399-156.962,96.439c-62.788,38.244-127.713,77.79-176.972,108.849
			c-60.489,38.141-79.102,52.081-82.965,56.644c15.954-4.77,123.883-70.688,219.58-129.138
			C444.381,113.847,550.594,49.666,561.246,52.381c0.854,0.217,1.294,0.713,1.512,1.091c1.247,2.16,0.495,5.422-22.1,21.392
			c-13.953,9.861-34.367,23.225-62.408,40.855c-51.883,32.62-121.227,74.376-188.287,114.756
			c-101.058,60.853-215.01,129.47-227.059,142.571c16.193-5.141,117.408-67.042,215.444-126.997
			C443.783,144.873,553.072,78.769,564.411,81.656c0.889,0.226,1.345,0.74,1.571,1.131c0.958,1.658-0.388,3.655-5.142,7.629
			c-3.492,2.919-8.927,6.937-16.152,11.942c-13.271,9.192-32.659,21.8-59.273,38.544c-49.351,31.05-116.2,71.669-180.851,110.951
			C197.487,316.914,76.807,390.241,62.91,404.254c17.707-6.076,126.013-72.048,222.151-130.608
			c64.286-39.158,130.762-79.65,182.503-110.054c77.128-45.317,91.285-50.467,94.966-49.527c0.82,0.209,1.243,0.688,1.453,1.052
			c1.239,2.146,0.427,5.429-22.815,21.802c-14.351,10.109-35.311,23.823-64.075,41.924
			c-53.18,33.467-123.785,76.086-192.066,117.301C186.156,355.826,74.681,423.115,62.43,435.819
			c17.367-5,133.266-75.669,236.049-138.34c157.786-96.211,254.279-154.455,263.778-152.031c0.796,0.203,1.208,0.671,1.414,1.027
			c1.007,1.744-0.417,3.864-5.441,8.101c-3.724,3.14-9.523,7.451-17.236,12.812c-14.143,9.829-34.772,23.263-63.064,41.07
			c-52.363,32.957-122.328,75.421-189.988,116.486C185.201,387.3,69.373,457.601,56.384,470.576
			c17.379-4.877,131.438-74.719,232.599-136.661C446.44,237.5,550.44,174.505,561.029,177.196c0.862,0.219,1.305,0.72,1.525,1.101
			c1.14,1.975,0.386,4.793-20.477,19.342c-12.864,8.971-31.72,21.232-57.645,37.485c-48.122,30.168-113.909,69.852-177.53,108.23
			c-61.478,37.084-125.049,75.431-172.178,104.895c-59.595,37.258-76.381,50.073-79.131,53.944
			c2.074-0.249,8.474-2.241,28.099-12.617c15.665-8.282,37.127-20.459,65.618-37.225c52.759-31.049,120.629-72.577,186.264-112.738
			c58.545-35.822,113.843-69.657,156.447-94.885c62.354-36.92,73.723-41.302,76.726-40.538c0.732,0.185,1.114,0.621,1.306,0.953
			c1.204,2.085,0.578,5.16-20.021,19.706c-12.726,8.987-31.445,21.182-57.224,37.284c-47.861,29.893-113.551,69.133-177.078,107.08
			c-62.425,37.289-126.975,75.849-174.798,105.649c-25.732,16.034-44.687,28.315-57.95,37.543
			c-16.044,11.163-20.452,15.64-21.623,17.363c14.529-2.987,130.648-73.986,233.457-136.848
			c63.201-38.643,128.554-78.603,179.003-108.312c74.987-44.155,88.937-49.141,92.688-48.186c0.845,0.215,1.279,0.706,1.496,1.081
			c1.108,1.919,0.344,4.502-19.923,18.531c-12.471,8.632-30.757,20.484-55.901,36.233
			c-46.729,29.267-111.141,68.184-173.432,105.819c-63.551,38.397-129.266,78.101-178.405,108.859
			c-60.275,37.729-78.65,51.476-82.372,55.966c15.824-4.596,125.142-71.398,222.052-130.619
			c163.966-100.195,272.265-165.664,283.239-162.871c0.869,0.222,1.315,0.726,1.537,1.109c0.883,1.53-0.266,3.246-4.555,6.798
			c-3.046,2.522-7.78,6.011-14.071,10.368c-11.571,8.016-28.507,19.067-51.775,33.785c-43.238,27.35-102.735,63.782-160.273,99.013
			C232.193,482.908,106.258,560.02,94.516,573.203c5.137-1.296,22.589-9.835,72.502-39.366
			c41.502-24.553,96.756-58.434,150.19-91.199c144.739-88.752,233.306-142.467,242.788-140.06c0.825,0.21,1.25,0.691,1.462,1.058
			c1.276,2.211,2.482,4.299-65.295,47.85c-39.902,25.64-94.215,59.477-146.74,92.201C260.986,498.786,161.517,560.755,146.4,574.341
			c17.48-6.862,104.397-60.038,181.72-107.341c136.283-83.375,226.313-137.843,235.715-135.453c0.821,0.209,1.245,0.689,1.456,1.055
			c1.251,2.168,2.809,4.865-54.98,42.332c-34.006,22.048-80.79,51.107-126.032,79.209c-44.871,27.872-91.27,56.692-125.865,79.072
			c-43.553,28.174-55.306,37.806-57.882,41.04c13.536-3.083,105.016-59.385,179.074-104.966
			c42.394-26.092,86.23-53.072,119.434-72.722c49.062-29.031,58.436-32.378,61.254-31.664c0.757,0.191,1.152,0.64,1.35,0.982
			c0.962,1.666,0.595,3.767-13.287,14.15c-8.338,6.236-20.557,14.709-37.353,25.902c-31.099,20.722-72.997,47.487-113.516,73.369
			c-62.017,39.614-131.743,84.154-142.869,94.904c15.071-5.463,90.507-51.721,151.914-89.374
			c103.683-63.577,153.193-93.36,159.254-91.822c0.551,0.141,1.001,0.47,1.265,0.927c1.033,1.789,1.779,3.082-36.177,29.026
			c-22.254,15.212-51.99,34.889-83.473,55.721c-56.495,37.385-125.749,83.211-137.863,94.816
			c14.458-6.038,76.408-43.852,127.014-74.744c93.717-57.206,125.648-76.052,130.079-74.923c0.501,0.128,0.912,0.432,1.157,0.855
			c1.057,1.83,1.969,3.411-34.292,29.45c-20.959,15.05-49.054,34.439-76.225,53.189c-38.031,26.245-80.551,55.587-91.304,64.952
			c14.83-6.411,70.307-40.333,111.942-65.791c66.073-40.399,85.723-52.035,88.63-51.296c0.453,0.115,0.828,0.395,1.054,0.786
			c0.921,1.596,1.649,2.857-25.368,23.626c-15.5,11.916-36.348,27.323-56.509,42.223c-26.223,19.379-55.285,40.857-66.262,50.17
			c11.719-6.323,38.672-22.79,63.033-37.681c61.336-37.487,82.315-49.817,85.685-48.959c0.479,0.122,0.873,0.414,1.109,0.823
			c1.065,1.845,1.287,2.228-43.397,40.569c-18.474,15.851-40.635,34.867-48.918,43.085c8.802-4.72,27.97-16.431,44.042-26.247
			c36.495-22.296,43.226-26.134,45.015-25.679c0.392,0.101,0.799,0.402,1.002,0.752c0.781,1.353,0.901,1.56-21.265,30.238
			c-5.714,7.394-12.406,16.052-16.154,21.157c4.032-2.344,9.999-5.972,15.166-9.113c20.818-12.654,21.096-12.583,22.135-12.316
			c0.391,0.1,0.759,0.376,0.961,0.725c0.414,0.717,0.168,1.635-0.549,2.049c-0.228,0.132-0.477,0.196-0.723,0.201
			c-1.927,0.758-12.07,6.922-20.266,11.906C538.456,568.294,533.626,571.198,530.603,572.944z M565.392,551.038
			C565.393,551.039,565.393,551.039,565.392,551.038C565.393,551.039,565.393,551.039,565.392,551.038z M565.384,551.028
			c0.001,0.002,0.003,0.004,0.004,0.005C565.387,551.032,565.385,551.03,565.384,551.028z M565.286,550.887
			c0.031,0.05,0.064,0.096,0.098,0.141C565.349,550.983,565.316,550.936,565.286,550.887z M565.282,550.88
			c0.001,0.003,0.003,0.005,0.004,0.008C565.284,550.885,565.283,550.882,565.282,550.88z M565.277,550.872
			c0.001,0.002,0.002,0.004,0.003,0.006C565.28,550.876,565.278,550.874,565.277,550.872z M565.272,550.864
			c0.001,0.003,0.002,0.004,0.003,0.006C565.275,550.868,565.274,550.866,565.272,550.864z M565.266,550.854
			c0.001,0.003,0.003,0.005,0.005,0.008C565.269,550.859,565.268,550.856,565.266,550.854z M55.855,66.326L55.855,66.326
			L55.855,66.326z"/>
		<path class="st1" d="M59.574,32.97c0.018,0.032,1.556-0.946,1.576-0.91c0.565,0.979,51.86-0.079,52.429,0.907
			c0.022,0.038,1.559-0.952,1.582-0.913c0.531,0.919,50.77,0.265,51.463,1.465c0.025,0.044,4.89-2.872,4.911-2.836
			c0.537,0.93,49.058,1.689,49.562,2.562c0.026,0.044,2.413-1.438,2.432-1.404c0.775,1.343,51.585-0.414,52.368,0.942
			c0.02,0.035,0.938-0.593,0.961-0.555c0.753,1.305,50.941,0.345,51.556,1.411c0.021,0.036,0.904-0.584,0.931-0.537
			c0.663,1.148,53.007-1.213,53.781,0.127c0.019,0.034,1.542-0.942,1.565-0.903c0.6,1.039,52.273-0.501,52.922,0.622
			c0.024,0.041,1.592-0.973,1.615-0.933c0.636,1.102,51.851-0.005,52.39,0.929c0.022,0.038,1.596-0.979,1.621-0.936
			c0.774,1.341,51.611-0.407,52.385,0.933c0.025,0.044,1.604-0.977,1.626-0.939c0.335,0.58,16.371,20.846,16.752,21.505
			c0.014,0.024,0.929-0.562,0.94-0.543c0.432,0.749-1.35,31.001-0.937,31.718c0.013,0.023,0.927-0.565,0.94-0.543
			c0.476,0.824-1.412,30.893-0.937,31.718c0.011,0.019,0.928-0.564,0.94-0.543c0.343,0.594-1.281,31.121-0.937,31.718
			c0.013,0.023,0.927-0.565,0.94-0.543c0.358,0.62,2.092,29.274,2.393,29.795c0.015,0.027,0.338-0.232,0.354-0.205
			c0.474,0.821-7.186,34.339-6.758,35.079c0.013,0.023,0.294-0.204,0.308-0.178c0.419,0.726,2.38,28.895,2.773,29.576
			c0.015,0.027,0.928-0.564,0.94-0.543c0.346,0.599-3.165,32.015-2.737,32.757c0.012,0.02,2.059-1.214,2.07-1.195
			c0.401,0.695,1.963,29.293,2.288,29.856c0.012,0.02,1.146-0.694,1.16-0.67c0.413,0.716-2.255,31.648-1.895,32.271
			c0.016,0.027,1.888-1.121,1.901-1.098c0.338,0.586-4.098,32.653-3.713,33.321c0.015,0.025,0.924-0.57,0.94-0.543
			c0.448,0.776-2.036,31.394-1.621,32.113c0.014,0.024,4.194-2.456,4.209-2.43c0.383,0.664-3.968,32.436-3.521,33.21
			c0.013,0.023,0.928-0.563,0.94-0.543c0.431,0.746-5.448,33.197-4.961,34.041c0.012,0.021,8.664-5.031,8.676-5.009
			c0.456,0.79-7.99,34.929-7.618,35.575c0.016,0.027,2.354-1.389,2.367-1.366c0.405,0.701,0.256,30.222,0.606,30.827
			c0.013,0.023,0.924-0.57,0.94-0.543c0.342,0.592-4.748,32.784-4.257,33.635c0.012,0.021,2.455-1.448,2.468-1.425"/>
		<path class="st1" d="M56.296,33.367c0.019,0.032,6.277-3.672,6.298-3.636c0.466,0.806-9.123,35.453-8.694,36.196
			c0.014,0.024,4.345-2.543,4.36-2.517c0.51,0.884-5.607,33.253-5.105,34.124c0.015,0.026,4.937-2.886,4.953-2.859
			c0.461,0.799-1.076,30.911-0.692,31.576c0.012,0.021,0.188-0.139,0.201-0.116c0.455,0.787-0.884,30.933-0.558,31.499
			c0.011,0.019,0.88-0.539,0.894-0.516c0.451,0.781-1.279,31.026-0.894,31.693c0.011,0.02,0.883-0.542,0.897-0.518
			c0.443,0.767-1.774,31.441-1.445,32.011c0.015,0.026,3.436-2.017,3.45-1.992c0.406,0.704-3.368,32.047-2.903,32.853
			c0.011,0.019,0.892-0.544,0.904-0.522c0.377,0.652-5.07,33.27-4.709,33.896c0.013,0.022,8.61-4.995,8.621-4.977
			c0.345,0.597-2.704,31.891-2.337,32.526c0.014,0.025,0.865-0.53,0.878-0.507c0.346,0.6-3.783,32.378-3.357,33.115
			c0.011,0.019,0.9-0.553,0.914-0.528c0.476,0.824-1.29,31.055-0.914,31.705c0.011,0.019,0.902-0.557,0.918-0.53
			c0.377,0.652-1.261,31.112-0.918,31.707c0.011,0.018,0.907-0.556,0.921-0.532c0.463,0.803-1.267,31.11-0.921,31.709
			c0.012,0.021,0.911-0.557,0.925-0.534c0.431,0.747-4.971,33.25-4.626,33.848c0.013,0.022,1.391-0.838,1.406-0.812
			c0.414,0.718-1.868,31.312-1.46,32.02c0.016,0.027,8.948-5.194,8.96-5.173c0.493,0.853-3.658,32.142-3.162,33.002
			c0.012,0.021,1.1-0.669,1.115-0.644c0.408,0.707-5.315,33.233-4.877,33.993c0.011,0.02,1.659-0.993,1.674-0.966
			c0.382,0.662,32.744,11.332,33.151,12.037c0.023,0.041,1.599-0.983,1.625-0.938c0.519,0.899,48.657,1.931,49.157,2.796
			c0.02,0.035,4.326-2.561,4.354-2.514c0.765,1.325,52.096-0.727,52.887,0.643c0.026,0.045,1.588-0.976,1.614-0.932
			c0.743,1.287,49.163,1.337,49.794,2.429c0.025,0.043,5.447-3.203,5.472-3.159c0.534,0.925,48.462,1.66,49.128,2.813
			c0.023,0.04,5.59-3.28,5.613-3.241c0.731,1.266,49.535,1.208,50.128,2.236c0.027,0.047,3.661-2.157,3.68-2.125
			c0.706,1.224,47.271,2.525,47.86,3.545c0.021,0.036,7.805-4.568,7.832-4.522c0.562,0.974,50.104,0.544,50.842,1.823
			c0.024,0.042,0.884-0.558,0.904-0.522c0.592,1.026,51.599,0.177,52.122,1.084c0.021,0.036,2.703-1.611,2.725-1.573"/>
	</g>
</g>
</svg>
