<?xml version="1.0" encoding="utf-8"?>
<!-- Generator: Adobe Illustrator 22.0.1, SVG Export Plug-In . SVG Version: 6.00 Build 0)  -->
<svg version="1.1" id="レイヤー_2" xmlns="http://www.w3.org/2000/svg" xmlns:xlink="http://www.w3.org/1999/xlink" x="0px"
	 y="0px" width="640px" height="640px" viewBox="0 0 640 640" style="enable-background:new 0 0 640 640;" xml:space="preserve">
<style type="text/css">
	.st0{fill:none;}
	.st1{fill:#00208B;stroke:#000000;stroke-miterlimit:10;}
	.st2{fill:url(#新規パターンスウォッチ_3);}
</style>
<pattern  width="12.202" height="11.988" patternUnits="userSpaceOnUse" id="新規パターンスウォッチ_3" viewBox="0 -11.988 12.202 11.988" style="overflow:visible;">
	<g>
		<rect x="0" y="-11.988" class="st0" width="12.202" height="11.988"/>
		<polygon class="st1" points="4.481,-1.06 3.197,-1.661 1.975,-0.944 2.149,-2.35 1.09,-3.292 2.481,-3.56 3.049,-4.859 
			3.734,-3.618 5.145,-3.48 4.177,-2.445 		"/>
		<polygon class="st1" points="6.481,-7.06 5.197,-7.661 3.975,-6.944 4.149,-8.35 3.09,-9.292 4.481,-9.56 5.049,-10.859 
			5.734,-9.618 7.145,-9.48 6.177,-8.445 		"/>
		<polygon class="st1" points="10.481,-2.06 9.197,-2.661 7.975,-1.944 8.149,-3.35 7.09,-4.292 8.481,-4.56 9.049,-5.859 
			9.734,-4.618 11.145,-4.48 10.177,-3.445 		"/>
	</g>
</pattern>
<g>
	<path class="st2" d="M545.5,507.5h-513c-6.6,0-12-5.4-12-12v-468c0-6.6,5.4-12,12-12h513c6.6,0,12,5.4,12,12v468
		C557.5,502.1,552.1,507.5,545.5,507.5z"/>
	<path d="M545.5,508h-513c-6.893,0-12.5-5.607-12.5-12.5v-468C20,20.607,25.607,15,32.5,15h513c6.893,0,12.5,5.607,12.5,12.5v468
		C558,502.393,552.393,508,545.5,508z M32.5,16C26.159,16,21,21.159,21,27.5v468c0,6.341,5.159,11.5,11.5,11.5h513
		c6.341,0,11.5-5.159,11.5-11.5v-468c0-6.341-5.159-11.5-11.5-11.5H32.5z"/>
</g>
</svg>
