<?xml version="1.0" encoding="utf-8"?>
<!-- Generator: Adobe Illustrator 22.0.1, SVG Export Plug-In . SVG Version: 6.00 Build 0)  -->
<svg version="1.1" id="レイヤー_1" xmlns="http://www.w3.org/2000/svg" xmlns:xlink="http://www.w3.org/1999/xlink" x="0px"
	 y="0px" width="640px" height="640px" viewBox="0 0 640 640" style="enable-background:new 0 0 640 640;" xml:space="preserve">
<style type="text/css">
	.st0{fill:#00278B;}
</style>
<g>
	<ellipse class="st0" cx="379.5" cy="348" rx="208.5" ry="194"/>
	<path d="M379.5,155c28.021,0,55.204,5.106,80.791,15.176c24.711,9.725,46.903,23.646,65.959,41.377
		c19.051,17.726,34.008,38.366,44.454,61.347C581.517,296.687,587,321.954,587,348s-5.483,51.313-16.295,75.1
		c-10.446,22.981-25.403,43.621-44.454,61.347c-19.056,17.731-41.248,31.652-65.959,41.377C434.704,535.894,407.521,541,379.5,541
		s-55.204-5.106-80.791-15.176c-24.711-9.725-46.903-23.646-65.959-41.377c-19.051-17.726-34.008-38.366-44.454-61.347
		C177.483,399.313,172,374.046,172,348s5.483-51.313,16.295-75.1c10.446-22.981,25.403-43.621,44.454-61.347
		c19.056-17.731,41.248-31.652,65.959-41.377C324.296,160.106,351.479,155,379.5,155 M379.5,154C264.349,154,171,240.857,171,348
		s93.349,194,208.5,194S588,455.143,588,348S494.651,154,379.5,154L379.5,154z"/>
</g>
</svg>
