<?xml version="1.0" encoding="utf-8"?>
<!-- Generator: Adobe Illustrator 22.0.1, SVG Export Plug-In . SVG Version: 6.00 Build 0)  -->
<svg version="1.1" id="レイヤー_1" xmlns="http://www.w3.org/2000/svg" xmlns:xlink="http://www.w3.org/1999/xlink" x="0px"
	 y="0px" width="1280px" height="1024px" viewBox="0 0 1280 1024" style="enable-background:new 0 0 1280 1024;"
	 xml:space="preserve">
<style type="text/css">
	.st0{fill:none;}
	.st1{font-family:'OCRAStd';}
	.st2{font-size:12px;}
	.st3{fill:url(#SVGID_1_);}
</style>
<polygon class="st0" points="853.737,562.267 683.183,622.175 635.845,796.637 526.164,652.943 345.613,661.832 448.381,513.116 
	384.133,344.149 557.328,395.932 698.171,282.615 702.443,463.334 "/>
<text transform="matrix(1 0 0 1 669.4854 313.6587)"><tspan x="0" y="0" class="st1 st2">444</tspan><tspan x="-26.101" y="21" class="st1 st2">444444</tspan><tspan x="-52.202" y="42" class="st1 st2">444444444</tspan><tspan x="-272.993" y="63" class="st1 st2">44444444</tspan><tspan x="-78.304" y="63" class="st1 st2">444444444444</tspan><tspan x="-265.007" y="84" class="st1 st2">444444444444444</tspan><tspan x="-104.403" y="84" class="st1 st2">444444444444444</tspan><tspan x="-257.023" y="105" class="st1 st2">444444444444444444444444444444444</tspan><tspan x="-249.038" y="126" class="st1 st2">44444444444444444444444444444444</tspan><tspan x="-241.053" y="147" class="st1 st2">4444444444444444444444444444444</tspan><tspan x="-233.068" y="168" class="st1 st2">44444444444444444444444444444444</tspan><tspan x="-225.082" y="189" class="st1 st2">44444444444444444444444444444444444</tspan><tspan x="-222.886" y="210" class="st1 st2">44444444444444444444444444444444444444</tspan><tspan x="-237.398" y="231" class="st1 st2">44444444444444444444444444444444444444444444</tspan><tspan x="-251.909" y="252" class="st1 st2">4444444444444444444444444444444444444444444444444</tspan><tspan x="-266.42" y="273" class="st1 st2">44444444444444444444444444444444444444444444</tspan><tspan x="-280.932" y="294" class="st1 st2">44444444444444444444444444444444444444</tspan><tspan x="-295.443" y="315" class="st1 st2">44444444444444444444444444444444444</tspan><tspan x="-309.957" y="336" class="st1 st2">444444444444444444444444444444444444</tspan><tspan x="-129.803" y="357" class="st1 st2">444444444444444</tspan><tspan x="-113.773" y="378" class="st1 st2">444444444444</tspan><tspan x="-97.746" y="399" class="st1 st2">4444444444</tspan><tspan x="-81.715" y="420" class="st1 st2">4444444</tspan><tspan x="-65.685" y="441" class="st1 st2">44444</tspan><tspan x="-49.658" y="462" class="st1 st2">44</tspan></text>
<polygon class="st0" points="868.737,570.267 698.183,630.175 650.845,804.637 541.164,660.943 360.613,669.832 463.381,521.116 
	399.133,352.149 572.328,403.932 713.171,290.615 717.443,471.334 "/>
<text transform="matrix(1 0 0 1 684.4854 321.6587)"><tspan x="0" y="0" class="st1 st2">444</tspan><tspan x="-26.101" y="21" class="st1 st2">444444</tspan><tspan x="-52.202" y="42" class="st1 st2">444444444</tspan><tspan x="-272.993" y="63" class="st1 st2">44444444</tspan><tspan x="-78.304" y="63" class="st1 st2">444444444444</tspan><tspan x="-265.007" y="84" class="st1 st2">444444444444444</tspan><tspan x="-104.403" y="84" class="st1 st2">444444444444444</tspan><tspan x="-257.023" y="105" class="st1 st2">444444444444444444444444444444444</tspan><tspan x="-249.038" y="126" class="st1 st2">44444444444444444444444444444444</tspan><tspan x="-241.053" y="147" class="st1 st2">4444444444444444444444444444444</tspan><tspan x="-233.068" y="168" class="st1 st2">44444444444444444444444444444444</tspan><tspan x="-225.082" y="189" class="st1 st2">44444444444444444444444444444444444</tspan><tspan x="-222.886" y="210" class="st1 st2">44444444444444444444444444444444444444</tspan><tspan x="-237.398" y="231" class="st1 st2">44444444444444444444444444444444444444444444</tspan><tspan x="-251.909" y="252" class="st1 st2">4444444444444444444444444444444444444444444444444</tspan><tspan x="-266.42" y="273" class="st1 st2">44444444444444444444444444444444444444444444</tspan><tspan x="-280.932" y="294" class="st1 st2">44444444444444444444444444444444444444</tspan><tspan x="-295.443" y="315" class="st1 st2">44444444444444444444444444444444444</tspan><tspan x="-309.957" y="336" class="st1 st2">444444444444444444444444444444444444</tspan><tspan x="-129.803" y="357" class="st1 st2">444444444444444</tspan><tspan x="-113.773" y="378" class="st1 st2">444444444444</tspan><tspan x="-97.746" y="399" class="st1 st2">4444444444</tspan><tspan x="-81.715" y="420" class="st1 st2">4444444</tspan><tspan x="-65.685" y="441" class="st1 st2">44444</tspan><tspan x="-49.658" y="462" class="st1 st2">44</tspan></text>
<polygon class="st0" points="860.737,558.267 690.183,618.175 642.845,792.637 533.164,648.943 352.613,657.832 455.381,509.116 
	391.133,340.149 564.328,391.932 705.171,278.615 709.443,459.334 "/>
<text transform="matrix(1 0 0 1 676.4854 309.6587)"><tspan x="0" y="0" class="st1 st2">444</tspan><tspan x="-26.101" y="21" class="st1 st2">444444</tspan><tspan x="-52.202" y="42" class="st1 st2">444444444</tspan><tspan x="-272.993" y="63" class="st1 st2">44444444</tspan><tspan x="-78.304" y="63" class="st1 st2">444444444444</tspan><tspan x="-265.007" y="84" class="st1 st2">444444444444444</tspan><tspan x="-104.403" y="84" class="st1 st2">444444444444444</tspan><tspan x="-257.023" y="105" class="st1 st2">444444444444444444444444444444444</tspan><tspan x="-249.038" y="126" class="st1 st2">44444444444444444444444444444444</tspan><tspan x="-241.053" y="147" class="st1 st2">4444444444444444444444444444444</tspan><tspan x="-233.068" y="168" class="st1 st2">44444444444444444444444444444444</tspan><tspan x="-225.082" y="189" class="st1 st2">44444444444444444444444444444444444</tspan><tspan x="-222.886" y="210" class="st1 st2">44444444444444444444444444444444444444</tspan><tspan x="-237.398" y="231" class="st1 st2">44444444444444444444444444444444444444444444</tspan><tspan x="-251.909" y="252" class="st1 st2">4444444444444444444444444444444444444444444444444</tspan><tspan x="-266.42" y="273" class="st1 st2">44444444444444444444444444444444444444444444</tspan><tspan x="-280.932" y="294" class="st1 st2">44444444444444444444444444444444444444</tspan><tspan x="-295.443" y="315" class="st1 st2">44444444444444444444444444444444444</tspan><tspan x="-309.957" y="336" class="st1 st2">444444444444444444444444444444444444</tspan><tspan x="-129.803" y="357" class="st1 st2">444444444444444</tspan><tspan x="-113.773" y="378" class="st1 st2">444444444444</tspan><tspan x="-97.746" y="399" class="st1 st2">4444444444</tspan><tspan x="-81.715" y="420" class="st1 st2">4444444</tspan><tspan x="-65.685" y="441" class="st1 st2">44444</tspan><tspan x="-49.658" y="462" class="st1 st2">44</tspan></text>
<polygon class="st0" points="875.737,566.267 705.183,626.175 657.845,800.637 548.164,656.943 367.613,665.832 470.381,517.116 
	406.133,348.149 579.328,399.932 720.171,286.615 724.443,467.334 "/>
<text transform="matrix(1 0 0 1 691.4854 317.6587)"><tspan x="0" y="0" class="st1 st2">444</tspan><tspan x="-26.101" y="21" class="st1 st2">444444</tspan><tspan x="-52.202" y="42" class="st1 st2">444444444</tspan><tspan x="-272.993" y="63" class="st1 st2">44444444</tspan><tspan x="-78.304" y="63" class="st1 st2">444444444444</tspan><tspan x="-265.007" y="84" class="st1 st2">444444444444444</tspan><tspan x="-104.403" y="84" class="st1 st2">444444444444444</tspan><tspan x="-257.023" y="105" class="st1 st2">444444444444444444444444444444444</tspan><tspan x="-249.038" y="126" class="st1 st2">44444444444444444444444444444444</tspan><tspan x="-241.053" y="147" class="st1 st2">4444444444444444444444444444444</tspan><tspan x="-233.068" y="168" class="st1 st2">44444444444444444444444444444444</tspan><tspan x="-225.082" y="189" class="st1 st2">44444444444444444444444444444444444</tspan><tspan x="-222.886" y="210" class="st1 st2">44444444444444444444444444444444444444</tspan><tspan x="-237.398" y="231" class="st1 st2">44444444444444444444444444444444444444444444</tspan><tspan x="-251.909" y="252" class="st1 st2">4444444444444444444444444444444444444444444444444</tspan><tspan x="-266.42" y="273" class="st1 st2">44444444444444444444444444444444444444444444</tspan><tspan x="-280.932" y="294" class="st1 st2">44444444444444444444444444444444444444</tspan><tspan x="-295.443" y="315" class="st1 st2">44444444444444444444444444444444444</tspan><tspan x="-309.957" y="336" class="st1 st2">444444444444444444444444444444444444</tspan><tspan x="-129.803" y="357" class="st1 st2">444444444444444</tspan><tspan x="-113.773" y="378" class="st1 st2">444444444444</tspan><tspan x="-97.746" y="399" class="st1 st2">4444444444</tspan><tspan x="-81.715" y="420" class="st1 st2">4444444</tspan><tspan x="-65.685" y="441" class="st1 st2">44444</tspan><tspan x="-49.658" y="462" class="st1 st2">44</tspan></text>
<radialGradient id="SVGID_1_" cx="442.9165" cy="384.1812" r="43.7321" gradientTransform="matrix(0.8639 0.5036 -0.5036 0.8639 406.952 -35.1477)" gradientUnits="userSpaceOnUse">
	<stop  offset="0" style="stop-color:#FFFFFF"/>
	<stop  offset="1" style="stop-color:#000000"/>
</radialGradient>
<polygon class="st3" points="606.547,568.505 587.066,544.475 556.227,546.901 573.06,520.947 561.224,492.367 591.109,500.357 
	614.633,480.268 616.269,511.159 642.644,527.323 613.771,538.425 "/>
</svg>
