<?xml version="1.0" encoding="utf-8"?>
<!-- Generator: Adobe Illustrator 22.0.1, SVG Export Plug-In . SVG Version: 6.00 Build 0)  -->
<svg version="1.1" id="レイヤー_1" xmlns="http://www.w3.org/2000/svg" xmlns:xlink="http://www.w3.org/1999/xlink" x="0px"
	 y="0px" width="1280px" height="1024px" viewBox="0 0 1280 1024" style="enable-background:new 0 0 1280 1024;"
	 xml:space="preserve">
<style type="text/css">
	.st0{fill:none;}
	.st1{font-family:'KozGoPr6N-Regular-83pv-RKSJ-H';}
	.st2{font-size:12px;}
</style>
<path class="st0" d="M995,533c0,191.091-146.851,346-328,346S339,724.091,339,533c0-156.899,99.001-289.407,234.702-331.802
	C603.273,191.959,634.588,187,667,187C848.149,187,995,341.909,995,533z"/>
<text transform="matrix(1 0 0 1 632.2759 197.5601)"><tspan x="0" y="0" class="st1 st2">おおおおお</tspan><tspan x="-82.908" y="21" class="st1 st2">おおおおおおおおおおおおおおおおおおお</tspan><tspan x="-125.324" y="42" class="st1 st2">おおおおおおおおおおおおおおおおおおおおおおおおおお</tspan><tspan x="-156.582" y="63" class="st1 st2">おおおおおおおおおおおおおおおおおおおおおおおおおおおおおおお</tspan><tspan x="-181.604" y="84" class="st1 st2">おおおおおおおおおおおおおおおおおおおおおおおおおおおおおおおおおおおお</tspan><tspan x="-202.375" y="105" class="st1 st2">おおおおおおおおおおおおおおおおおおおおおおおおおおおおおおおおおおおおおおお</tspan><tspan x="-219.933" y="126" class="st1 st2">おおおおおおおおおおおおおおおおおおおおおおおおおおおおおおおおおおおおおおおおおお</tspan><tspan x="-234.901" y="147" class="st1 st2">おおおおおおおおおおおおおおおおおおおおおおおおおおおおおおおおおおおおおおおおおおおお</tspan><tspan x="-247.684" y="168" class="st1 st2">おおおおおおおおおおおおおおおおおおおおおおおおおおおおおおおおおおおおおおおおおおおおおおお</tspan><tspan x="-258.562" y="189" class="st1 st2">おおおおおおおおおおおおおおおおおおおおおおおおおおおおおおおおおおおおおおおおおおおおおおおお</tspan><tspan x="-267.737" y="210" class="st1 st2">おおおおおおおおおおおおおおおおおおおおおおおおおおおおおおおおおおおおおおおおおおおおおおおおおお</tspan><tspan x="-275.357" y="231" class="st1 st2">おおおおおおおおおおおおおおおおおおおおおおおおおおおおおおおおおおおおおおおおおおおおおおおおおおお</tspan><tspan x="-281.532" y="252" class="st1 st2">おおおおおおおおおおおおおおおおおおおおおおおおおおおおおおおおおおおおおおおおおおおおおおおおおおおお</tspan><tspan x="-286.346" y="273" class="st1 st2">おおおおおおおおおおおおおおおおおおおおおおおおおおおおおおおおおおおおおおおおおおおおおおおおおおおおお</tspan><tspan x="-289.865" y="294" class="st1 st2">おおおおおおおおおおおおおおおおおおおおおおおおおおおおおおおおおおおおおおおおおおおおおおおおおおおおおお</tspan><tspan x="-292.134" y="315" class="st1 st2">おおおおおおおおおおおおおおおおおおおおおおおおおおおおおおおおおおおおおおおおおおおおおおおおおおおおおお</tspan><tspan x="-293.188" y="336" class="st1 st2">おおおおおおおおおおおおおおおおおおおおおおおおおおおおおおおおおおおおおおおおおおおおおおおおおおおおおお</tspan><tspan x="-292.649" y="357" class="st1 st2">おおおおおおおおおおおおおおおおおおおおおおおおおおおおおおおおおおおおおおおおおおおおおおおおおおおおおお</tspan><tspan x="-290.819" y="378" class="st1 st2">おおおおおおおおおおおおおおおおおおおおおおおおおおおおおおおおおおおおおおおおおおおおおおおおおおおおおお</tspan><tspan x="-287.754" y="399" class="st1 st2">おおおおおおおおおおおおおおおおおおおおおおおおおおおおおおおおおおおおおおおおおおおおおおおおおおおおお</tspan><tspan x="-283.412" y="420" class="st1 st2">おおおおおおおおおおおおおおおおおおおおおおおおおおおおおおおおおおおおおおおおおおおおおおおおおおおおお</tspan><tspan x="-277.732" y="441" class="st1 st2">おおおおおおおおおおおおおおおおおおおおおおおおおおおおおおおおおおおおおおおおおおおおおおおおおおおお</tspan><tspan x="-270.642" y="462" class="st1 st2">おおおおおおおおおおおおおおおおおおおおおおおおおおおおおおおおおおおおおおおおおおおおおおおおおお</tspan><tspan x="-262.039" y="483" class="st1 st2">おおおおおおおおおおおおおおおおおおおおおおおおおおおおおおおおおおおおおおおおおおおおおおおおお</tspan><tspan x="-251.791" y="504" class="st1 st2">おおおおおおおおおおおおおおおおおおおおおおおおおおおおおおおおおおおおおおおおおおおおおおお</tspan><tspan x="-239.718" y="525" class="st1 st2">おおおおおおおおおおおおおおおおおおおおおおおおおおおおおおおおおおおおおおおおおおおおお</tspan><tspan x="-225.571" y="546" class="st1 st2">おおおおおおおおおおおおおおおおおおおおおおおおおおおおおおおおおおおおおおおおおおお</tspan><tspan x="-209" y="567" class="st1 st2">おおおおおおおおおおおおおおおおおおおおおおおおおおおおおおおおおおおおおおおお</tspan><tspan x="-189.472" y="588" class="st1 st2">おおおおおおおおおおおおおおおおおおおおおおおおおおおおおおおおおおおおお</tspan><tspan x="-166.136" y="609" class="st1 st2">おおおおおおおおおおおおおおおおおおおおおおおおおおおおおおおおお</tspan><tspan x="-137.448" y="630" class="st1 st2">おおおおおおおおおおおおおおおおおおおおおおおおおおおお</tspan><tspan x="-100.005" y="651" class="st1 st2">おおおおおおおおおおおおおおおおおおおおおお</tspan><tspan x="-41.713" y="672" class="st1 st2">おおおおおおおおおおおお</tspan></text>
<path class="st0" d="M995,544c0,191.091-146.851,346-328,346S339,735.091,339,544c0-156.899,99.001-289.407,234.702-331.802
	C603.273,202.959,634.588,198,667,198C848.149,198,995,352.909,995,544z"/>
<text transform="matrix(1 0 0 1 632.2759 208.5601)"><tspan x="0" y="0" class="st1 st2">おおおおお</tspan><tspan x="-82.908" y="21" class="st1 st2">おおおおおおおおおおおおおおおおおおお</tspan><tspan x="-125.324" y="42" class="st1 st2">おおおおおおおおおおおおおおおおおおおおおおおおおお</tspan><tspan x="-156.582" y="63" class="st1 st2">おおおおおおおおおおおおおおおおおおおおおおおおおおおおおおお</tspan><tspan x="-181.604" y="84" class="st1 st2">おおおおおおおおおおおおおおおおおおおおおおおおおおおおおおおおおおおお</tspan><tspan x="-202.375" y="105" class="st1 st2">おおおおおおおおおおおおおおおおおおおおおおおおおおおおおおおおおおおおおおお</tspan><tspan x="-219.933" y="126" class="st1 st2">おおおおおおおおおおおおおおおおおおおおおおおおおおおおおおおおおおおおおおおおおお</tspan><tspan x="-234.901" y="147" class="st1 st2">おおおおおおおおおおおおおおおおおおおおおおおおおおおおおおおおおおおおおおおおおおおお</tspan><tspan x="-247.684" y="168" class="st1 st2">おおおおおおおおおおおおおおおおおおおおおおおおおおおおおおおおおおおおおおおおおおおおおおお</tspan><tspan x="-258.562" y="189" class="st1 st2">おおおおおおおおおおおおおおおおおおおおおおおおおおおおおおおおおおおおおおおおおおおおおおおお</tspan><tspan x="-267.737" y="210" class="st1 st2">おおおおおおおおおおおおおおおおおおおおおおおおおおおおおおおおおおおおおおおおおおおおおおおおおお</tspan><tspan x="-275.357" y="231" class="st1 st2">おおおおおおおおおおおおおおおおおおおおおおおおおおおおおおおおおおおおおおおおおおおおおおおおおおお</tspan><tspan x="-281.532" y="252" class="st1 st2">おおおおおおおおおおおおおおおおおおおおおおおおおおおおおおおおおおおおおおおおおおおおおおおおおおおお</tspan><tspan x="-286.346" y="273" class="st1 st2">おおおおおおおおおおおおおおおおおおおおおおおおおおおおおおおおおおおおおおおおおおおおおおおおおおおおお</tspan><tspan x="-289.865" y="294" class="st1 st2">おおおおおおおおおおおおおおおおおおおおおおおおおおおおおおおおおおおおおおおおおおおおおおおおおおおおおお</tspan><tspan x="-292.134" y="315" class="st1 st2">おおおおおおおおおおおおおおおおおおおおおおおおおおおおおおおおおおおおおおおおおおおおおおおおおおおおおお</tspan><tspan x="-293.188" y="336" class="st1 st2">おおおおおおおおおおおおおおおおおおおおおおおおおおおおおおおおおおおおおおおおおおおおおおおおおおおおおお</tspan><tspan x="-292.649" y="357" class="st1 st2">おおおおおおおおおおおおおおおおおおおおおおおおおおおおおおおおおおおおおおおおおおおおおおおおおおおおおお</tspan><tspan x="-290.819" y="378" class="st1 st2">おおおおおおおおおおおおおおおおおおおおおおおおおおおおおおおおおおおおおおおおおおおおおおおおおおおおおお</tspan><tspan x="-287.754" y="399" class="st1 st2">おおおおおおおおおおおおおおおおおおおおおおおおおおおおおおおおおおおおおおおおおおおおおおおおおおおおお</tspan><tspan x="-283.412" y="420" class="st1 st2">おおおおおおおおおおおおおおおおおおおおおおおおおおおおおおおおおおおおおおおおおおおおおおおおおおおおお</tspan><tspan x="-277.732" y="441" class="st1 st2">おおおおおおおおおおおおおおおおおおおおおおおおおおおおおおおおおおおおおおおおおおおおおおおおおおおお</tspan><tspan x="-270.642" y="462" class="st1 st2">おおおおおおおおおおおおおおおおおおおおおおおおおおおおおおおおおおおおおおおおおおおおおおおおおお</tspan><tspan x="-262.039" y="483" class="st1 st2">おおおおおおおおおおおおおおおおおおおおおおおおおおおおおおおおおおおおおおおおおおおおおおおおお</tspan><tspan x="-251.791" y="504" class="st1 st2">おおおおおおおおおおおおおおおおおおおおおおおおおおおおおおおおおおおおおおおおおおおおおおお</tspan><tspan x="-239.718" y="525" class="st1 st2">おおおおおおおおおおおおおおおおおおおおおおおおおおおおおおおおおおおおおおおおおおおおお</tspan><tspan x="-225.571" y="546" class="st1 st2">おおおおおおおおおおおおおおおおおおおおおおおおおおおおおおおおおおおおおおおおおおお</tspan><tspan x="-209" y="567" class="st1 st2">おおおおおおおおおおおおおおおおおおおおおおおおおおおおおおおおおおおおおおおお</tspan><tspan x="-189.472" y="588" class="st1 st2">おおおおおおおおおおおおおおおおおおおおおおおおおおおおおおおおおおおおお</tspan><tspan x="-166.136" y="609" class="st1 st2">おおおおおおおおおおおおおおおおおおおおおおおおおおおおおおおおお</tspan><tspan x="-137.448" y="630" class="st1 st2">おおおおおおおおおおおおおおおおおおおおおおおおおおおお</tspan><tspan x="-100.005" y="651" class="st1 st2">おおおおおおおおおおおおおおおおおおおおおお</tspan><tspan x="-41.713" y="672" class="st1 st2">おおおおおおおおおおおお</tspan></text>
<path class="st0" d="M1145,544c0,191.091-146.851,346-328,346S489,735.091,489,544c0-156.899,99.001-289.407,234.702-331.802
	C753.273,202.959,784.588,198,817,198C998.149,198,1145,352.909,1145,544z"/>
<text transform="matrix(1 0 0 1 782.2759 208.5601)"><tspan x="0" y="0" class="st1 st2">おおおおお</tspan><tspan x="-82.908" y="21" class="st1 st2">おおおおおおおおおおおおおおおおおおお</tspan><tspan x="-125.324" y="42" class="st1 st2">おおおおおおおおおおおおおおおおおおおおおおおおおお</tspan><tspan x="-156.582" y="63" class="st1 st2">おおおおおおおおおおおおおおおおおおおおおおおおおおおおおおお</tspan><tspan x="-181.604" y="84" class="st1 st2">おおおおおおおおおおおおおおおおおおおおおおおおおおおおおおおおおおおお</tspan><tspan x="-202.375" y="105" class="st1 st2">おおおおおおおおおおおおおおおおおおおおおおおおおおおおおおおおおおおおおおお</tspan><tspan x="-219.933" y="126" class="st1 st2">おおおおおおおおおおおおおおおおおおおおおおおおおおおおおおおおおおおおおおおおおお</tspan><tspan x="-234.901" y="147" class="st1 st2">おおおおおおおおおおおおおおおおおおおおおおおおおおおおおおおおおおおおおおおおおおおお</tspan><tspan x="-247.684" y="168" class="st1 st2">おおおおおおおおおおおおおおおおおおおおおおおおおおおおおおおおおおおおおおおおおおおおおおお</tspan><tspan x="-258.562" y="189" class="st1 st2">おおおおおおおおおおおおおおおおおおおおおおおおおおおおおおおおおおおおおおおおおおおおおおおお</tspan><tspan x="-267.737" y="210" class="st1 st2">おおおおおおおおおおおおおおおおおおおおおおおおおおおおおおおおおおおおおおおおおおおおおおおおおお</tspan><tspan x="-275.357" y="231" class="st1 st2">おおおおおおおおおおおおおおおおおおおおおおおおおおおおおおおおおおおおおおおおおおおおおおおおおおお</tspan><tspan x="-281.532" y="252" class="st1 st2">おおおおおおおおおおおおおおおおおおおおおおおおおおおおおおおおおおおおおおおおおおおおおおおおおおおお</tspan><tspan x="-286.346" y="273" class="st1 st2">おおおおおおおおおおおおおおおおおおおおおおおおおおおおおおおおおおおおおおおおおおおおおおおおおおおおお</tspan><tspan x="-289.865" y="294" class="st1 st2">おおおおおおおおおおおおおおおおおおおおおおおおおおおおおおおおおおおおおおおおおおおおおおおおおおおおおお</tspan><tspan x="-292.134" y="315" class="st1 st2">おおおおおおおおおおおおおおおおおおおおおおおおおおおおおおおおおおおおおおおおおおおおおおおおおおおおおお</tspan><tspan x="-293.188" y="336" class="st1 st2">おおおおおおおおおおおおおおおおおおおおおおおおおおおおおおおおおおおおおおおおおおおおおおおおおおおおおお</tspan><tspan x="-292.649" y="357" class="st1 st2">おおおおおおおおおおおおおおおおおおおおおおおおおおおおおおおおおおおおおおおおおおおおおおおおおおおおおお</tspan><tspan x="-290.819" y="378" class="st1 st2">おおおおおおおおおおおおおおおおおおおおおおおおおおおおおおおおおおおおおおおおおおおおおおおおおおおおおお</tspan><tspan x="-287.754" y="399" class="st1 st2">おおおおおおおおおおおおおおおおおおおおおおおおおおおおおおおおおおおおおおおおおおおおおおおおおおおおお</tspan><tspan x="-283.412" y="420" class="st1 st2">おおおおおおおおおおおおおおおおおおおおおおおおおおおおおおおおおおおおおおおおおおおおおおおおおおおおお</tspan><tspan x="-277.732" y="441" class="st1 st2">おおおおおおおおおおおおおおおおおおおおおおおおおおおおおおおおおおおおおおおおおおおおおおおおおおおお</tspan><tspan x="-270.642" y="462" class="st1 st2">おおおおおおおおおおおおおおおおおおおおおおおおおおおおおおおおおおおおおおおおおおおおおおおおおお</tspan><tspan x="-262.039" y="483" class="st1 st2">おおおおおおおおおおおおおおおおおおおおおおおおおおおおおおおおおおおおおおおおおおおおおおおおお</tspan><tspan x="-251.791" y="504" class="st1 st2">おおおおおおおおおおおおおおおおおおおおおおおおおおおおおおおおおおおおおおおおおおおおおおお</tspan><tspan x="-239.718" y="525" class="st1 st2">おおおおおおおおおおおおおおおおおおおおおおおおおおおおおおおおおおおおおおおおおおおおお</tspan><tspan x="-225.571" y="546" class="st1 st2">おおおおおおおおおおおおおおおおおおおおおおおおおおおおおおおおおおおおおおおおおおお</tspan><tspan x="-209" y="567" class="st1 st2">おおおおおおおおおおおおおおおおおおおおおおおおおおおおおおおおおおおおおおおお</tspan><tspan x="-189.472" y="588" class="st1 st2">おおおおおおおおおおおおおおおおおおおおおおおおおおおおおおおおおおおおお</tspan><tspan x="-166.136" y="609" class="st1 st2">おおおおおおおおおおおおおおおおおおおおおおおおおおおおおおおおお</tspan><tspan x="-137.448" y="630" class="st1 st2">おおおおおおおおおおおおおおおおおおおおおおおおおおおお</tspan><tspan x="-100.005" y="651" class="st1 st2">おおおおおおおおおおおおおおおおおおおおおお</tspan><tspan x="-41.713" y="672" class="st1 st2">おおおおおおおおおおおお</tspan></text>
</svg>
