<?xml version="1.0" encoding="utf-8"?>
<!-- Generator: Adobe Illustrator 22.0.1, SVG Export Plug-In . SVG Version: 6.00 Build 0)  -->
<svg version="1.1" id="レイヤー_1" xmlns="http://www.w3.org/2000/svg" xmlns:xlink="http://www.w3.org/1999/xlink" x="0px"
	 y="0px" width="1280px" height="1024px" viewBox="0 0 1280 1024" style="enable-background:new 0 0 1280 1024;"
	 xml:space="preserve">
<style type="text/css">
	.st0{fill:none;}
	.st1{font-family:'Webdings';}
	.st2{font-size:36px;}
</style>
<rect x="230.368" y="216.759" class="st0" width="593.151" height="523.714"/>
<text transform="matrix(1 0 0 1 230.3687 247.251)"><tspan x="0" y="0" class="st1 st2">cgcgcgcgcgcgcgcc</tspan><tspan x="0" y="63" class="st1 st2">gcgcgcgcgcgcgcgg</tspan><tspan x="0" y="126" class="st1 st2">cgcgcgcgcgcgcgcc</tspan><tspan x="0" y="189" class="st1 st2">gcgcgcgcgcgcgcgg</tspan><tspan x="0" y="252" class="st1 st2">cgcgcgcgcgcgcgcc</tspan><tspan x="0" y="315" class="st1 st2">gcgcgcgcgcgcgcgg</tspan><tspan x="0" y="378" class="st1 st2">cgcgcgcgcgcgcgcc</tspan><tspan x="0" y="441" class="st1 st2">gcgcgcgcgcgcgcg</tspan></text>
<rect x="398.368" y="192.759" class="st0" width="593.151" height="523.714"/>
<text transform="matrix(1 0 0 1 398.3687 223.251)"><tspan x="0" y="0" class="st1 st2">gcgcgcgcgcgcgcgc</tspan><tspan x="0" y="63" class="st1 st2">cgcgcgcgcgcgcgcg</tspan><tspan x="0" y="126" class="st1 st2">gcgcgcgcgcgcgcgc</tspan><tspan x="0" y="189" class="st1 st2">cgcgcgcgcgcgcgcg</tspan><tspan x="0" y="252" class="st1 st2">gcgcgcgcgcgcgcgc</tspan><tspan x="0" y="315" class="st1 st2">cgcgcgcgcgcgcgcg</tspan><tspan x="0" y="378" class="st1 st2">gcgcgcgcgcgcgcgc</tspan><tspan x="0" y="441" class="st1 st2">cgcgcgcgcgcgcgcg</tspan></text>
<text transform="matrix(1 0 0 1 238.3833 248.0215)" class="st1 st2">m</text>
<text transform="matrix(1 0 0 1 238.3833 499.0215)" class="st1 st2">m</text>
<text transform="matrix(1 0 0 1 346.3833 690.0215)" class="st1 st2">m</text>
<text transform="matrix(1 0 0 1 945.3833 602.0215)" class="st1 st2">m</text>
<text transform="matrix(1 0 0 1 309.3833 627.0215)" class="st1 st2">m</text>
<text transform="matrix(1 0 0 1 238.3833 627.0215)" class="st1 st2">m</text>
<text transform="matrix(1 0 0 1 346.3833 564.0215)" class="st1 st2">m</text>
<text transform="matrix(1 0 0 1 273.3833 564.0215)" class="st1 st2">m</text>
<text transform="matrix(1 0 0 1 309.3833 499.0215)" class="st1 st2">m</text>
<text transform="matrix(1 0 0 1 346.3833 438.0215)" class="st1 st2">m</text>
<text transform="matrix(1 0 0 1 273.3833 438.0215)" class="st1 st2">m</text>
<text transform="matrix(1 0 0 1 309.3833 374.0215)" class="st1 st2">m</text>
<text transform="matrix(1 0 0 1 238.3833 374.0215)" class="st1 st2">m</text>
<text transform="matrix(1 0 0 1 346.3833 311.0215)" class="st1 st2">m</text>
<text transform="matrix(1 0 0 1 273.3833 311.0215)" class="st1 st2">m</text>
<text transform="matrix(1 0 0 1 380.3833 248.0215)" class="st1 st2">m</text>
<text transform="matrix(1 0 0 1 309.3833 248.0215)" class="st1 st2">m</text>
<text transform="matrix(1 0 0 1 873.3833 602.0215)" class="st1 st2">m</text>
<text transform="matrix(1 0 0 1 837.3833 664.0215)" class="st1 st2">m</text>
<text transform="matrix(1 0 0 1 912.3833 664.0215)" class="st1 st2">m</text>
<text transform="matrix(1 0 0 1 837.3833 539.0215)" class="st1 st2">m</text>
<text transform="matrix(1 0 0 1 907.3833 539.0215)" class="st1 st2">m</text>
<text transform="matrix(1 0 0 1 873.3833 479.0215)" class="st1 st2">m</text>
<text transform="matrix(1 0 0 1 945.3833 479.0215)" class="st1 st2">m</text>
<text transform="matrix(1 0 0 1 837.3833 413.0215)" class="st1 st2">m</text>
<text transform="matrix(1 0 0 1 912.3833 413.0215)" class="st1 st2">m</text>
<text transform="matrix(1 0 0 1 873.3833 352.0215)" class="st1 st2">m</text>
<text transform="matrix(1 0 0 1 945.3833 352.0215)" class="st1 st2">m</text>
<text transform="matrix(1 0 0 1 837.3833 288.0215)" class="st1 st2">m</text>
<text transform="matrix(1 0 0 1 873.3833 224.0215)" class="st1 st2">m</text>
<text transform="matrix(1 0 0 1 273.3833 687.0215)" class="st1 st2">m</text>
<text transform="matrix(1 0 0 1 945.3833 224.0215)" class="st1 st2">m</text>
<text transform="matrix(1 0 0 1 912.3833 288.0215)" class="st1 st2">m</text>
</svg>
