<?xml version="1.0" encoding="utf-8"?>
<!-- Generator: Adobe Illustrator 22.0.1, SVG Export Plug-In . SVG Version: 6.00 Build 0)  -->
<svg version="1.1" xmlns="http://www.w3.org/2000/svg" xmlns:xlink="http://www.w3.org/1999/xlink" x="0px" y="0px"
	 width="511.92px" height="511.92px" viewBox="0 0 511.92 511.92" style="enable-background:new 0 0 511.92 511.92;"
	 xml:space="preserve">
<style type="text/css">
	.st0{fill:none;stroke:#E348FF;stroke-miterlimit:10;}
</style>
<g id="レイヤー_2">
</g>
<g id="ぱ">
	<path class="st0" d="M84.96,187.96c-6.585,39.996-23.623,51.424-17,63c11.167,19.52,66.131-1.574,73,13
		c8.522,18.081-67.252,69.28-62,77c1.181,1.737,6.213,0.907,16-3c47.256-18.865,61.283-51.953,77-48
		c17.793,4.475,18.053,51.471,28,51c4.062-0.192,6.913-8.164,9-14c7.01-19.6-0.327-28.993,5-37c10.703-16.089,60.344-8.262,63,5
		c0.593,2.962-1.359,5.186-9,14c-28.001,32.3-31.77,37.023-31,38c1.373,1.743,17.873-7.573,34-20c24.996-19.262,24.789-27.27,34-28
		c25.466-2.018,44.615,57.805,63.284,52.679c4.368-1.199,6.556-5.362,6.716-5.679c8.33-16.425-36.598-39.698-33-64
		c3.052-20.613,37.423-17.711,66-51c23.25-27.084,29.169-62.402,23-66c-10.514-6.132-49.711,83.614-106,82
		c-26.665-0.765-28.48-21.209-68-27c-40.438-5.925-67.662,11.212-78-3c-5.847-8.038-5.129-24.506-4.401-41.219
		c0.47-10.771,1.852-16.594-0.599-17.781c-5.726-2.776-17.471,26.968-44,33c-2.606,0.593-16.034,3.646-22-3
		c-4.627-5.154-0.643-11.55-4-24c-2.658-9.857-9.162-20.709-13-20C86.176,144.844,89.063,163.04,84.96,187.96z"/>
	<path class="st0" d="M86.524,222.506c1.797-7.977,5.306-21.538,8.865-21.446c3.301,0.085,5.346,11.89,6.402,20.062"/>
	<path class="st0" d="M135.958,221.416c0.088-1.47,1.247-19.632,5.089-19.992c2.716-0.254,6.261,8.436,9.087,20.719"/>
	<path class="st0" d="M107.606,235.592c1.685-3.852,14.15-4.673,16.721,0.727c1.715,3.602-1.079,9.749-5.089,10.905
		C113.304,248.933,105.962,239.351,107.606,235.592z"/>
	<path class="st0" d="M115.785,225.344c-0.769-1.084-5.255,0.113-5.352,1.338c-0.067,0.841,1.879,2.401,3.679,1.672
		C115.545,227.775,116.252,226.002,115.785,225.344z"/>
</g>
</svg>
