<?xml version="1.0" encoding="utf-8"?>
<!-- Generator: Adobe Illustrator 22.0.1, SVG Export Plug-In . SVG Version: 6.00 Build 0)  -->
<svg version="1.1" id="レイヤー_1" xmlns="http://www.w3.org/2000/svg" xmlns:xlink="http://www.w3.org/1999/xlink" x="0px"
	 y="0px" width="800px" height="600px" viewBox="0 0 800 600" style="enable-background:new 0 0 800 600;" xml:space="preserve">
<style type="text/css">
	.st0{clip-path:url(#SVGID_2_);}
	.st1{fill:#939AE5;}
	.st2{clip-path:url(#SVGID_4_);}
	.st3{fill:#D0BDF4;}
	.st4{fill:#583E89;}
	.st5{fill:#FCE6ED;}
</style>
<g>
	<g>
		<defs>
			<path id="SVGID_1_" d="M518.5,94.7h-237L163,300l118.5,205.3h237L637,300L518.5,94.7z M399.1,430.9
				c-72.3,0-130.9-58.6-130.9-130.9s58.6-130.9,130.9-130.9s131,58.6,131,130.9S471.5,430.9,399.1,430.9z"/>
		</defs>
		<use xlink:href="#SVGID_1_"  style="overflow:visible;fill:#939AE5;"/>
		<clipPath id="SVGID_2_">
			<use xlink:href="#SVGID_1_"  style="overflow:visible;"/>
		</clipPath>
		<g class="st0">
			<circle class="st1" cx="177.7" cy="738.7" r="14.7"/>
			<circle class="st1" cx="258.5" cy="738.7" r="14.7"/>
			<circle class="st1" cx="339.4" cy="738.7" r="14.7"/>
			<circle class="st1" cx="420.2" cy="738.7" r="14.7"/>
			
				<ellipse transform="matrix(0.1602 -0.9871 0.9871 0.1602 -308.3289 1115.0028)" class="st1" cx="501.1" cy="738.7" rx="14.7" ry="14.7"/>
			<circle class="st1" cx="581.9" cy="738.7" r="14.7"/>
			<circle class="st1" cx="218.1" cy="709.4" r="14.7"/>
			<circle class="st1" cx="298.9" cy="709.4" r="14.7"/>
			<circle class="st1" cx="379.8" cy="709.4" r="14.7"/>
			<circle class="st1" cx="460.6" cy="709.4" r="14.7"/>
			<circle class="st1" cx="541.5" cy="709.4" r="14.7"/>
			<circle class="st1" cx="622.3" cy="709.4" r="14.7"/>
			<circle class="st1" cx="177.7" cy="678.3" r="14.7"/>
			<circle class="st1" cx="258.5" cy="678.3" r="14.7"/>
			<circle class="st1" cx="339.4" cy="678.3" r="14.7"/>
			<circle class="st1" cx="420.2" cy="678.3" r="14.7"/>
			
				<ellipse transform="matrix(0.1602 -0.9871 0.9871 0.1602 -248.7088 1064.2778)" class="st1" cx="501.1" cy="678.3" rx="14.7" ry="14.7"/>
			<circle class="st1" cx="581.9" cy="678.3" r="14.7"/>
			<circle class="st1" cx="218.1" cy="649" r="14.7"/>
			<circle class="st1" cx="298.9" cy="649" r="14.7"/>
			<circle class="st1" cx="379.8" cy="649" r="14.7"/>
			<circle class="st1" cx="460.6" cy="649" r="14.7"/>
			<circle class="st1" cx="541.5" cy="649" r="14.7"/>
			<circle class="st1" cx="622.3" cy="649" r="14.7"/>
			<circle class="st1" cx="177.7" cy="617.9" r="14.7"/>
			<circle class="st1" cx="258.5" cy="617.9" r="14.7"/>
			<circle class="st1" cx="339.4" cy="617.9" r="14.7"/>
			<circle class="st1" cx="420.2" cy="617.9" r="14.7"/>
			
				<ellipse transform="matrix(0.1602 -0.9871 0.9871 0.1602 -189.0887 1013.5529)" class="st1" cx="501.1" cy="617.9" rx="14.7" ry="14.7"/>
			<circle class="st1" cx="581.9" cy="617.9" r="14.7"/>
			<circle class="st1" cx="218.1" cy="588.6" r="14.7"/>
			<circle class="st1" cx="298.9" cy="588.6" r="14.7"/>
			<circle class="st1" cx="379.8" cy="588.6" r="14.7"/>
			<circle class="st1" cx="460.6" cy="588.6" r="14.7"/>
			<circle class="st1" cx="541.5" cy="588.6" r="14.7"/>
			<circle class="st1" cx="622.3" cy="588.6" r="14.7"/>
			<circle class="st1" cx="177.7" cy="557.5" r="14.7"/>
			<circle class="st1" cx="258.5" cy="557.5" r="14.7"/>
			<circle class="st1" cx="339.4" cy="557.5" r="14.7"/>
			<circle class="st1" cx="420.2" cy="557.5" r="14.7"/>
			
				<ellipse transform="matrix(0.1602 -0.9871 0.9871 0.1602 -129.4686 962.8279)" class="st1" cx="501.1" cy="557.5" rx="14.7" ry="14.7"/>
			<circle class="st1" cx="581.9" cy="557.5" r="14.7"/>
			<circle class="st1" cx="218.1" cy="528.2" r="14.7"/>
			<circle class="st1" cx="298.9" cy="528.2" r="14.7"/>
			<circle class="st1" cx="379.8" cy="528.2" r="14.7"/>
			<circle class="st1" cx="460.6" cy="528.2" r="14.7"/>
			<circle class="st1" cx="541.5" cy="528.2" r="14.7"/>
			<circle class="st1" cx="622.3" cy="528.2" r="14.7"/>
			<circle class="st1" cx="177.7" cy="497.1" r="14.7"/>
			<circle class="st1" cx="258.5" cy="497.1" r="14.7"/>
			<circle class="st1" cx="339.4" cy="497.1" r="14.7"/>
			<circle class="st1" cx="420.2" cy="497.1" r="14.7"/>
			
				<ellipse transform="matrix(0.1602 -0.9871 0.9871 0.1602 -69.8485 912.1029)" class="st1" cx="501.1" cy="497.1" rx="14.7" ry="14.7"/>
			<circle class="st1" cx="581.9" cy="497.1" r="14.7"/>
			<circle class="st1" cx="218.1" cy="467.8" r="14.7"/>
			<circle class="st1" cx="298.9" cy="467.8" r="14.7"/>
			<circle class="st1" cx="379.8" cy="467.8" r="14.7"/>
			<circle class="st1" cx="460.6" cy="467.8" r="14.7"/>
			<circle class="st1" cx="541.5" cy="467.8" r="14.7"/>
			<circle class="st1" cx="622.3" cy="467.8" r="14.7"/>
			<circle class="st1" cx="177.7" cy="436.7" r="14.7"/>
			<circle class="st1" cx="258.5" cy="436.7" r="14.7"/>
			<circle class="st1" cx="339.4" cy="436.7" r="14.7"/>
			<circle class="st1" cx="420.2" cy="436.7" r="14.7"/>
			
				<ellipse transform="matrix(0.1602 -0.9871 0.9871 0.1602 -10.2285 861.3779)" class="st1" cx="501.1" cy="436.7" rx="14.7" ry="14.7"/>
			<circle class="st1" cx="581.9" cy="436.7" r="14.7"/>
			<circle class="st1" cx="218.1" cy="407.4" r="14.7"/>
			<circle class="st1" cx="298.9" cy="407.4" r="14.7"/>
			<circle class="st1" cx="379.8" cy="407.4" r="14.7"/>
			<circle class="st1" cx="460.6" cy="407.4" r="14.7"/>
			<circle class="st1" cx="541.5" cy="407.4" r="14.7"/>
			<circle class="st1" cx="622.3" cy="407.4" r="14.7"/>
			<circle class="st1" cx="177.7" cy="376.3" r="14.7"/>
			<circle class="st1" cx="258.5" cy="376.3" r="14.7"/>
			<circle class="st1" cx="339.4" cy="376.3" r="14.7"/>
			<circle class="st1" cx="420.2" cy="376.3" r="14.7"/>
			
				<ellipse transform="matrix(0.1602 -0.9871 0.9871 0.1602 49.3916 810.6529)" class="st1" cx="501.1" cy="376.3" rx="14.7" ry="14.7"/>
			<circle class="st1" cx="581.9" cy="376.3" r="14.7"/>
			<circle class="st1" cx="218.1" cy="347" r="14.7"/>
			<circle class="st1" cx="298.9" cy="347" r="14.7"/>
			<circle class="st1" cx="379.8" cy="347" r="14.7"/>
			<circle class="st1" cx="460.6" cy="347" r="14.7"/>
			<circle class="st1" cx="541.5" cy="347" r="14.7"/>
			<circle class="st1" cx="622.3" cy="347" r="14.7"/>
			<circle class="st1" cx="177.7" cy="315.9" r="14.7"/>
			<circle class="st1" cx="258.5" cy="315.9" r="14.7"/>
			<circle class="st1" cx="339.4" cy="315.9" r="14.7"/>
			<circle class="st1" cx="420.2" cy="315.9" r="14.7"/>
			
				<ellipse transform="matrix(0.1602 -0.9871 0.9871 0.1602 109.0117 759.9279)" class="st1" cx="501.1" cy="315.9" rx="14.7" ry="14.7"/>
			<circle class="st1" cx="581.9" cy="315.9" r="14.7"/>
			<circle class="st1" cx="218.1" cy="286.6" r="14.7"/>
			<circle class="st1" cx="298.9" cy="286.6" r="14.7"/>
			<circle class="st1" cx="379.8" cy="286.6" r="14.7"/>
			<circle class="st1" cx="460.6" cy="286.6" r="14.7"/>
			<circle class="st1" cx="541.5" cy="286.6" r="14.7"/>
			<circle class="st1" cx="622.3" cy="286.6" r="14.7"/>
			<circle class="st1" cx="177.7" cy="255.5" r="14.7"/>
			<circle class="st1" cx="258.5" cy="255.5" r="14.7"/>
			<circle class="st1" cx="339.4" cy="255.5" r="14.7"/>
			<circle class="st1" cx="420.2" cy="255.5" r="14.7"/>
			
				<ellipse transform="matrix(0.1891 -0.982 0.982 0.1891 155.4483 699.2413)" class="st1" cx="501.1" cy="255.5" rx="14.7" ry="14.7"/>
			<circle class="st1" cx="581.9" cy="255.5" r="14.7"/>
			<circle class="st1" cx="218.1" cy="226.2" r="14.7"/>
			<circle class="st1" cx="298.9" cy="226.2" r="14.7"/>
			<circle class="st1" cx="379.8" cy="226.2" r="14.7"/>
			<circle class="st1" cx="460.6" cy="226.2" r="14.7"/>
			<circle class="st1" cx="541.5" cy="226.2" r="14.7"/>
			<circle class="st1" cx="622.3" cy="226.2" r="14.7"/>
			<circle class="st1" cx="177.7" cy="195.1" r="14.7"/>
			
				<ellipse transform="matrix(0.1602 -0.9871 0.9871 0.1602 24.5121 419.0106)" class="st1" cx="258.5" cy="195.1" rx="14.7" ry="14.7"/>
			<circle class="st1" cx="339.4" cy="195.1" r="14.7"/>
			<circle class="st1" cx="420.2" cy="195.1" r="14.7"/>
			
				<ellipse transform="matrix(0.3827 -0.9239 0.9239 0.3827 129.0885 583.3945)" class="st1" cx="501.1" cy="195.1" rx="14.7" ry="14.7"/>
			<circle class="st1" cx="581.9" cy="195.1" r="14.7"/>
			<circle class="st1" cx="218.1" cy="165.8" r="14.7"/>
			<circle class="st1" cx="298.9" cy="165.8" r="14.7"/>
			<circle class="st1" cx="379.8" cy="165.8" r="14.7"/>
			<circle class="st1" cx="460.6" cy="165.8" r="14.7"/>
			<circle class="st1" cx="541.5" cy="165.8" r="14.7"/>
			<circle class="st1" cx="622.3" cy="165.8" r="14.7"/>
			<circle class="st1" cx="177.7" cy="134.7" r="14.7"/>
			
				<ellipse transform="matrix(0.1602 -0.9871 0.9871 0.1602 84.1322 368.2856)" class="st1" cx="258.5" cy="134.7" rx="14.7" ry="14.7"/>
			<circle class="st1" cx="339.4" cy="134.7" r="14.7"/>
			<circle class="st1" cx="420.2" cy="134.7" r="14.7"/>
			
				<ellipse transform="matrix(0.3827 -0.9239 0.9239 0.3827 184.8908 546.1086)" class="st1" cx="501.1" cy="134.7" rx="14.7" ry="14.7"/>
			<circle class="st1" cx="581.9" cy="134.7" r="14.7"/>
			<circle class="st1" cx="218.1" cy="105.4" r="14.7"/>
			<circle class="st1" cx="298.9" cy="105.4" r="14.7"/>
			<circle class="st1" cx="379.8" cy="105.4" r="14.7"/>
			<circle class="st1" cx="460.6" cy="105.4" r="14.7"/>
			<circle class="st1" cx="541.5" cy="105.4" r="14.7"/>
			<circle class="st1" cx="622.3" cy="105.4" r="14.7"/>
			<circle class="st1" cx="177.7" cy="74.3" r="14.7"/>
			
				<ellipse transform="matrix(0.1735 -0.9848 0.9848 0.1735 140.4764 315.9882)" class="st1" cx="258.5" cy="74.3" rx="14.7" ry="14.7"/>
			<circle class="st1" cx="339.4" cy="74.3" r="14.7"/>
			<circle class="st1" cx="420.2" cy="74.3" r="14.7"/>
			
				<ellipse transform="matrix(0.3554 -0.9347 0.9347 0.3554 253.569 516.2843)" class="st1" cx="501.1" cy="74.3" rx="14.7" ry="14.7"/>
			<circle class="st1" cx="581.9" cy="74.3" r="14.7"/>
			<circle class="st1" cx="218.1" cy="45" r="14.7"/>
			<circle class="st1" cx="298.9" cy="45" r="14.7"/>
			<circle class="st1" cx="379.8" cy="45" r="14.7"/>
			<circle class="st1" cx="460.6" cy="45" r="14.7"/>
			<circle class="st1" cx="541.5" cy="45" r="14.7"/>
			<circle class="st1" cx="622.3" cy="45" r="14.7"/>
			<circle class="st1" cx="177.7" cy="13.9" r="14.7"/>
			
				<ellipse transform="matrix(0.1934 -0.9811 0.9811 0.1934 194.8605 264.8292)" class="st1" cx="258.5" cy="13.9" rx="14.7" ry="14.7"/>
			<circle class="st1" cx="339.4" cy="13.9" r="14.7"/>
			<circle class="st1" cx="420.2" cy="13.9" r="14.7"/>
			
				<ellipse transform="matrix(0.3253 -0.9456 0.9456 0.3253 324.9314 483.2177)" class="st1" cx="501.1" cy="13.9" rx="14.7" ry="14.7"/>
			<circle class="st1" cx="581.9" cy="13.9" r="14.7"/>
			<circle class="st1" cx="218.1" cy="-15.4" r="14.7"/>
			<circle class="st1" cx="298.9" cy="-15.4" r="14.7"/>
			<circle class="st1" cx="379.8" cy="-15.4" r="14.7"/>
			<circle class="st1" cx="460.6" cy="-15.4" r="14.7"/>
			<circle class="st1" cx="541.5" cy="-15.4" r="14.7"/>
			<circle class="st1" cx="622.3" cy="-15.4" r="14.7"/>
			<circle class="st1" cx="177.7" cy="-46.5" r="14.7"/>
			
				<ellipse transform="matrix(0.2298 -0.9732 0.9732 0.2298 244.3649 215.7684)" class="st1" cx="258.5" cy="-46.5" rx="14.7" ry="14.7"/>
			<circle class="st1" cx="339.4" cy="-46.5" r="14.7"/>
			<circle class="st1" cx="420.2" cy="-46.5" r="14.7"/>
			
				<ellipse transform="matrix(0.2898 -0.9571 0.9571 0.2898 400.394 446.5738)" class="st1" cx="501.1" cy="-46.5" rx="14.7" ry="14.7"/>
			<circle class="st1" cx="581.9" cy="-46.5" r="14.7"/>
			<circle class="st1" cx="218.1" cy="-75.8" r="14.7"/>
			<circle class="st1" cx="298.9" cy="-75.8" r="14.7"/>
			<circle class="st1" cx="379.8" cy="-75.8" r="14.7"/>
			<circle class="st1" cx="460.6" cy="-75.8" r="14.7"/>
			<circle class="st1" cx="541.5" cy="-75.8" r="14.7"/>
			<circle class="st1" cx="622.3" cy="-75.8" r="14.7"/>
			<circle class="st1" cx="177.7" cy="-106.9" r="14.7"/>
			
				<ellipse transform="matrix(0.1602 -0.9871 0.9871 0.1602 322.6125 165.3856)" class="st1" cx="258.5" cy="-106.9" rx="14.7" ry="14.7"/>
			<circle class="st1" cx="339.4" cy="-106.9" r="14.7"/>
			<circle class="st1" cx="420.2" cy="-106.9" r="14.7"/>
			
				<ellipse transform="matrix(0.3827 -0.9239 0.9239 0.3827 408.1001 396.9649)" class="st1" cx="501.1" cy="-106.9" rx="14.7" ry="14.7"/>
			<circle class="st1" cx="581.9" cy="-106.9" r="14.7"/>
			<circle class="st1" cx="218.1" cy="-136.2" r="14.7"/>
			<circle class="st1" cx="298.9" cy="-136.2" r="14.7"/>
			<circle class="st1" cx="379.8" cy="-136.2" r="14.7"/>
			<circle class="st1" cx="460.6" cy="-136.2" r="14.7"/>
			<circle class="st1" cx="541.5" cy="-136.2" r="14.7"/>
			<circle class="st1" cx="622.3" cy="-136.2" r="14.7"/>
			<circle class="st1" cx="177.7" cy="-167.3" r="14.7"/>
			
				<ellipse transform="matrix(0.1602 -0.9871 0.9871 0.1602 382.2326 114.6606)" class="st1" cx="258.5" cy="-167.3" rx="14.7" ry="14.7"/>
			<circle class="st1" cx="339.4" cy="-167.3" r="14.7"/>
			<circle class="st1" cx="420.2" cy="-167.3" r="14.7"/>
			
				<ellipse transform="matrix(0.3827 -0.9239 0.9239 0.3827 463.9024 359.679)" class="st1" cx="501.1" cy="-167.3" rx="14.7" ry="14.7"/>
			<circle class="st1" cx="581.9" cy="-167.3" r="14.7"/>
			<circle class="st1" cx="218.1" cy="-196.6" r="14.7"/>
			<circle class="st1" cx="298.9" cy="-196.6" r="14.7"/>
			<circle class="st1" cx="379.8" cy="-196.6" r="14.7"/>
			<circle class="st1" cx="460.6" cy="-196.6" r="14.7"/>
			<circle class="st1" cx="541.5" cy="-196.6" r="14.7"/>
			<circle class="st1" cx="622.3" cy="-196.6" r="14.7"/>
		</g>
	</g>
</g>
<g>
	<g>
		<defs>
			<path id="SVGID_3_" d="M230.8,679.4h-237l-118.5,205.3L-6.2,1090h237l118.5-205.3L230.8,679.4z M111.4,1015.6
				c-72.3,0-130.9-58.6-130.9-130.9s58.6-130.9,130.9-130.9s131,58.6,131,130.9S183.8,1015.6,111.4,1015.6z"/>
		</defs>
		<clipPath id="SVGID_4_">
			<use xlink:href="#SVGID_3_"  style="overflow:visible;"/>
		</clipPath>
		<g class="st2">
			<circle class="st3" cx="-110" cy="1323.4" r="14.7"/>
			
				<ellipse transform="matrix(2.463028e-03 -1 1 2.463028e-03 -1352.4243 1291.0405)" class="st1" cx="-29.1" cy="1323.4" rx="14.7" ry="14.7"/>
			<circle class="st4" cx="51.7" cy="1323.4" r="14.7"/>
			<circle class="st1" cx="132.6" cy="1323.4" r="14.7"/>
			<circle class="st3" cx="213.4" cy="1323.4" r="14.7"/>
			<circle class="st5" cx="294.3" cy="1323.4" r="14.7"/>
			
				<ellipse transform="matrix(9.802492e-03 -1 1 9.802492e-03 -1362.9556 1211.8179)" class="st5" cx="-69.6" cy="1294.1" rx="14.7" ry="14.7"/>
			<circle class="st3" cx="11.3" cy="1294.1" r="14.7"/>
			<circle class="st1" cx="92.1" cy="1294.1" r="14.7"/>
			<circle class="st4" cx="173" cy="1294.1" r="14.7"/>
			<circle class="st1" cx="253.8" cy="1294.1" r="14.7"/>
			<circle class="st3" cx="334.7" cy="1294.1" r="14.7"/>
			<circle class="st3" cx="-110" cy="1263" r="14.7"/>
			
				<ellipse transform="matrix(2.463028e-03 -1 1 2.463028e-03 -1292.0245 1230.7893)" class="st1" cx="-29.1" cy="1263" rx="14.7" ry="14.7"/>
			<circle class="st4" cx="51.7" cy="1263" r="14.7"/>
			<circle class="st1" cx="132.6" cy="1263" r="14.7"/>
			<circle class="st3" cx="213.4" cy="1263" r="14.7"/>
			<circle class="st5" cx="294.3" cy="1263" r="14.7"/>
			
				<ellipse transform="matrix(9.802492e-03 -1 1 9.802492e-03 -1302.5585 1152.01)" class="st5" cx="-69.6" cy="1233.7" rx="14.7" ry="14.7"/>
			<circle class="st3" cx="11.3" cy="1233.7" r="14.7"/>
			<circle class="st1" cx="92.1" cy="1233.7" r="14.7"/>
			<circle class="st4" cx="173" cy="1233.7" r="14.7"/>
			<circle class="st1" cx="253.8" cy="1233.7" r="14.7"/>
			<circle class="st3" cx="334.7" cy="1233.7" r="14.7"/>
			<circle class="st3" cx="-110" cy="1202.6" r="14.7"/>
			
				<ellipse transform="matrix(2.463028e-03 -1 1 2.463028e-03 -1231.6246 1170.538)" class="st1" cx="-29.1" cy="1202.6" rx="14.7" ry="14.7"/>
			<circle class="st4" cx="51.7" cy="1202.6" r="14.7"/>
			<circle class="st1" cx="132.6" cy="1202.6" r="14.7"/>
			<circle class="st3" cx="213.4" cy="1202.6" r="14.7"/>
			<circle class="st5" cx="294.3" cy="1202.6" r="14.7"/>
			
				<ellipse transform="matrix(9.802492e-03 -1 1 9.802492e-03 -1242.1614 1092.2021)" class="st5" cx="-69.6" cy="1173.3" rx="14.7" ry="14.7"/>
			<circle class="st3" cx="11.3" cy="1173.3" r="14.7"/>
			<circle class="st1" cx="92.1" cy="1173.3" r="14.7"/>
			<circle class="st4" cx="173" cy="1173.3" r="14.7"/>
			<circle class="st1" cx="253.8" cy="1173.3" r="14.7"/>
			<circle class="st3" cx="334.7" cy="1173.3" r="14.7"/>
			<circle class="st3" cx="-110" cy="1142.2" r="14.7"/>
			
				<ellipse transform="matrix(2.463028e-03 -1 1 2.463028e-03 -1171.2249 1110.2867)" class="st1" cx="-29.1" cy="1142.2" rx="14.7" ry="14.7"/>
			<circle class="st4" cx="51.7" cy="1142.2" r="14.7"/>
			<circle class="st1" cx="132.6" cy="1142.2" r="14.7"/>
			<circle class="st3" cx="213.4" cy="1142.2" r="14.7"/>
			<circle class="st5" cx="294.3" cy="1142.2" r="14.7"/>
			
				<ellipse transform="matrix(9.802492e-03 -1 1 9.802492e-03 -1181.7643 1032.3942)" class="st5" cx="-69.6" cy="1112.9" rx="14.7" ry="14.7"/>
			<circle class="st3" cx="11.3" cy="1112.9" r="14.7"/>
			<circle class="st1" cx="92.1" cy="1112.9" r="14.7"/>
			<circle class="st4" cx="173" cy="1112.9" r="14.7"/>
			<circle class="st1" cx="253.8" cy="1112.9" r="14.7"/>
			<circle class="st3" cx="334.7" cy="1112.9" r="14.7"/>
			<circle class="st3" cx="-110" cy="1081.8" r="14.7"/>
			
				<ellipse transform="matrix(2.463028e-03 -1 1 2.463028e-03 -1110.8251 1050.0356)" class="st1" cx="-29.1" cy="1081.8" rx="14.7" ry="14.7"/>
			<circle class="st4" cx="51.7" cy="1081.8" r="14.7"/>
			<circle class="st1" cx="132.6" cy="1081.8" r="14.7"/>
			<circle class="st3" cx="213.4" cy="1081.8" r="14.7"/>
			<circle class="st5" cx="294.3" cy="1081.8" r="14.7"/>
			
				<ellipse transform="matrix(9.802492e-03 -1 1 9.802492e-03 -1121.3672 972.5862)" class="st5" cx="-69.6" cy="1052.5" rx="14.7" ry="14.7"/>
			<circle class="st3" cx="11.3" cy="1052.5" r="14.7"/>
			<circle class="st1" cx="92.1" cy="1052.5" r="14.7"/>
			<circle class="st4" cx="173" cy="1052.5" r="14.7"/>
			<circle class="st1" cx="253.8" cy="1052.5" r="14.7"/>
			<circle class="st3" cx="334.7" cy="1052.5" r="14.7"/>
			<circle class="st3" cx="-110" cy="1021.4" r="14.7"/>
			
				<ellipse transform="matrix(3.597040e-03 -1 1 3.597040e-03 -1050.3887 988.6262)" class="st1" cx="-29.1" cy="1021.4" rx="14.7" ry="14.7"/>
			<circle class="st4" cx="51.7" cy="1021.4" r="14.7"/>
			<circle class="st1" cx="132.6" cy="1021.4" r="14.7"/>
			<circle class="st3" cx="213.4" cy="1021.4" r="14.7"/>
			<circle class="st5" cx="294.3" cy="1021.4" r="14.7"/>
			
				<ellipse transform="matrix(0.9993 -3.837654e-02 3.837654e-02 0.9993 -38.1246 -1.9402)" class="st5" cx="-69.6" cy="992.1" rx="14.7" ry="14.7"/>
			<circle class="st3" cx="11.3" cy="992.1" r="14.7"/>
			<circle class="st1" cx="92.1" cy="992.1" r="14.7"/>
			<circle class="st4" cx="173" cy="992.1" r="14.7"/>
			<circle class="st1" cx="253.8" cy="992.1" r="14.7"/>
			<circle class="st3" cx="334.7" cy="992.1" r="14.7"/>
			<circle class="st3" cx="-110" cy="961" r="14.7"/>
			
				<ellipse transform="matrix(1 -9.432707e-03 9.432707e-03 1 -9.0661 -0.2317)" class="st1" cx="-29.1" cy="961" rx="14.7" ry="14.7"/>
			<circle class="st4" cx="51.7" cy="961" r="14.7"/>
			<circle class="st1" cx="132.6" cy="961" r="14.7"/>
			<circle class="st3" cx="213.4" cy="961" r="14.7"/>
			<circle class="st5" cx="294.3" cy="961" r="14.7"/>
			
				<ellipse transform="matrix(0.9993 -3.837654e-02 3.837654e-02 0.9993 -35.8067 -1.9847)" class="st5" cx="-69.6" cy="931.7" rx="14.7" ry="14.7"/>
			<circle class="st3" cx="11.3" cy="931.7" r="14.7"/>
			<circle class="st1" cx="92.1" cy="931.7" r="14.7"/>
			<circle class="st4" cx="173" cy="931.7" r="14.7"/>
			<circle class="st1" cx="253.8" cy="931.7" r="14.7"/>
			<circle class="st3" cx="334.7" cy="931.7" r="14.7"/>
			<circle class="st3" cx="-110" cy="900.6" r="14.7"/>
			
				<ellipse transform="matrix(1 -9.432707e-03 9.432707e-03 1 -8.4964 -0.2344)" class="st1" cx="-29.1" cy="900.6" rx="14.7" ry="14.7"/>
			<circle class="st4" cx="51.7" cy="900.6" r="14.7"/>
			<circle class="st1" cx="132.6" cy="900.6" r="14.7"/>
			<circle class="st3" cx="213.4" cy="900.6" r="14.7"/>
			<circle class="st5" cx="294.3" cy="900.6" r="14.7"/>
			
				<ellipse transform="matrix(0.9993 -3.837654e-02 3.837654e-02 0.9993 -33.4887 -2.0292)" class="st5" cx="-69.6" cy="871.3" rx="14.7" ry="14.7"/>
			<circle class="st3" cx="11.3" cy="871.3" r="14.7"/>
			<circle class="st1" cx="92.1" cy="871.3" r="14.7"/>
			<circle class="st4" cx="173" cy="871.3" r="14.7"/>
			<circle class="st1" cx="253.8" cy="871.3" r="14.7"/>
			<circle class="st3" cx="334.7" cy="871.3" r="14.7"/>
			<circle class="st3" cx="-110" cy="840.2" r="14.7"/>
			
				<ellipse transform="matrix(1 -9.432707e-03 9.432707e-03 1 -7.9267 -0.2371)" class="st1" cx="-29.1" cy="840.2" rx="14.7" ry="14.7"/>
			<circle class="st4" cx="51.7" cy="840.2" r="14.7"/>
			<circle class="st1" cx="132.6" cy="840.2" r="14.7"/>
			<circle class="st3" cx="213.4" cy="840.2" r="14.7"/>
			<circle class="st5" cx="294.3" cy="840.2" r="14.7"/>
			
				<ellipse transform="matrix(0.9993 -3.837654e-02 3.837654e-02 0.9993 -31.1708 -2.0737)" class="st5" cx="-69.6" cy="810.9" rx="14.7" ry="14.7"/>
			<circle class="st3" cx="11.3" cy="810.9" r="14.7"/>
			<circle class="st1" cx="92.1" cy="810.9" r="14.7"/>
			<circle class="st4" cx="173" cy="810.9" r="14.7"/>
			<circle class="st1" cx="253.8" cy="810.9" r="14.7"/>
			<circle class="st3" cx="334.7" cy="810.9" r="14.7"/>
			<circle class="st3" cx="-110" cy="779.8" r="14.7"/>
			
				<ellipse transform="matrix(1 -9.432707e-03 9.432707e-03 1 -7.3569 -0.2398)" class="st1" cx="-29.1" cy="779.8" rx="14.7" ry="14.7"/>
			<circle class="st4" cx="51.7" cy="779.8" r="14.7"/>
			<circle class="st1" cx="132.6" cy="779.8" r="14.7"/>
			<circle class="st3" cx="213.4" cy="779.8" r="14.7"/>
			<circle class="st5" cx="294.3" cy="779.8" r="14.7"/>
			
				<ellipse transform="matrix(0.9993 -3.837654e-02 3.837654e-02 0.9993 -28.8529 -2.1182)" class="st5" cx="-69.6" cy="750.5" rx="14.7" ry="14.7"/>
			<circle class="st3" cx="11.3" cy="750.5" r="14.7"/>
			<circle class="st1" cx="92.1" cy="750.5" r="14.7"/>
			<circle class="st4" cx="173" cy="750.5" r="14.7"/>
			<circle class="st1" cx="253.8" cy="750.5" r="14.7"/>
			<circle class="st3" cx="334.7" cy="750.5" r="14.7"/>
			<circle class="st3" cx="-110" cy="719.4" r="14.7"/>
			
				<ellipse transform="matrix(1 -9.432707e-03 9.432707e-03 1 -6.7872 -0.2425)" class="st1" cx="-29.1" cy="719.4" rx="14.7" ry="14.7"/>
			<circle class="st4" cx="51.7" cy="719.4" r="14.7"/>
			<circle class="st1" cx="132.6" cy="719.4" r="14.7"/>
			<circle class="st3" cx="213.4" cy="719.4" r="14.7"/>
			<circle class="st5" cx="294.3" cy="719.4" r="14.7"/>
			
				<ellipse transform="matrix(0.9993 -3.837654e-02 3.837654e-02 0.9993 -26.5349 -2.1626)" class="st5" cx="-69.6" cy="690.1" rx="14.7" ry="14.7"/>
			<circle class="st3" cx="11.3" cy="690.1" r="14.7"/>
			<circle class="st1" cx="92.1" cy="690.1" r="14.7"/>
			<circle class="st4" cx="173" cy="690.1" r="14.7"/>
			<circle class="st1" cx="253.8" cy="690.1" r="14.7"/>
			<circle class="st3" cx="334.7" cy="690.1" r="14.7"/>
			<circle class="st3" cx="-110" cy="659" r="14.7"/>
			
				<ellipse transform="matrix(1 -9.432707e-03 9.432707e-03 1 -6.2174 -0.2452)" class="st1" cx="-29.1" cy="659" rx="14.7" ry="14.7"/>
			<circle class="st4" cx="51.7" cy="659" r="14.7"/>
			<circle class="st1" cx="132.6" cy="659" r="14.7"/>
			<circle class="st3" cx="213.4" cy="659" r="14.7"/>
			<circle class="st5" cx="294.3" cy="659" r="14.7"/>
			
				<ellipse transform="matrix(0.9993 -3.837654e-02 3.837654e-02 0.9993 -24.217 -2.2071)" class="st5" cx="-69.6" cy="629.7" rx="14.7" ry="14.7"/>
			<circle class="st3" cx="11.3" cy="629.7" r="14.7"/>
			<circle class="st1" cx="92.1" cy="629.7" r="14.7"/>
			<circle class="st4" cx="173" cy="629.7" r="14.7"/>
			<circle class="st1" cx="253.8" cy="629.7" r="14.7"/>
			<circle class="st3" cx="334.7" cy="629.7" r="14.7"/>
			<circle class="st3" cx="-110" cy="598.6" r="14.7"/>
			
				<ellipse transform="matrix(1 -9.432707e-03 9.432707e-03 1 -5.6477 -0.2479)" class="st1" cx="-29.1" cy="598.6" rx="14.7" ry="14.7"/>
			<circle class="st4" cx="51.7" cy="598.6" r="14.7"/>
			<circle class="st1" cx="132.6" cy="598.6" r="14.7"/>
			<circle class="st3" cx="213.4" cy="598.6" r="14.7"/>
			<circle class="st5" cx="294.3" cy="598.6" r="14.7"/>
			
				<ellipse transform="matrix(0.9993 -3.837654e-02 3.837654e-02 0.9993 -21.899 -2.2516)" class="st5" cx="-69.6" cy="569.3" rx="14.7" ry="14.7"/>
			<circle class="st3" cx="11.3" cy="569.3" r="14.7"/>
			<circle class="st1" cx="92.1" cy="569.3" r="14.7"/>
			<circle class="st4" cx="173" cy="569.3" r="14.7"/>
			<circle class="st1" cx="253.8" cy="569.3" r="14.7"/>
			<circle class="st3" cx="334.7" cy="569.3" r="14.7"/>
			<circle class="st3" cx="-110" cy="538.2" r="14.7"/>
			
				<ellipse transform="matrix(1 -9.432707e-03 9.432707e-03 1 -5.078 -0.2505)" class="st1" cx="-29.1" cy="538.2" rx="14.7" ry="14.7"/>
			<circle class="st4" cx="51.7" cy="538.2" r="14.7"/>
			<circle class="st1" cx="132.6" cy="538.2" r="14.7"/>
			<circle class="st3" cx="213.4" cy="538.2" r="14.7"/>
			<circle class="st5" cx="294.3" cy="538.2" r="14.7"/>
			
				<ellipse transform="matrix(4.531435e-02 -0.999 0.999 4.531435e-02 -574.8234 416.311)" class="st5" cx="-69.6" cy="508.9" rx="14.7" ry="14.7"/>
			<circle class="st3" cx="11.3" cy="508.9" r="14.7"/>
			<circle class="st1" cx="92.1" cy="508.9" r="14.7"/>
			<circle class="st4" cx="173" cy="508.9" r="14.7"/>
			<circle class="st1" cx="253.8" cy="508.9" r="14.7"/>
			<circle class="st3" cx="334.7" cy="508.9" r="14.7"/>
			<circle class="st3" cx="-110" cy="477.8" r="14.7"/>
			
				<ellipse transform="matrix(1 -9.432707e-03 9.432707e-03 1 -4.5082 -0.2532)" class="st1" cx="-29.1" cy="477.8" rx="14.7" ry="14.7"/>
			<circle class="st4" cx="51.7" cy="477.8" r="14.7"/>
			<circle class="st1" cx="132.6" cy="477.8" r="14.7"/>
			<circle class="st3" cx="213.4" cy="477.8" r="14.7"/>
			<circle class="st5" cx="294.3" cy="477.8" r="14.7"/>
			
				<ellipse transform="matrix(0.9993 -3.837654e-02 3.837654e-02 0.9993 -17.2631 -2.3406)" class="st5" cx="-69.6" cy="448.5" rx="14.7" ry="14.7"/>
			<circle class="st3" cx="11.3" cy="448.5" r="14.7"/>
			<circle class="st1" cx="92.1" cy="448.5" r="14.7"/>
			<circle class="st4" cx="173" cy="448.5" r="14.7"/>
			<circle class="st1" cx="253.8" cy="448.5" r="14.7"/>
			<circle class="st3" cx="334.7" cy="448.5" r="14.7"/>
			<circle class="st3" cx="-110" cy="417.4" r="14.7"/>
			
				<ellipse transform="matrix(1 -9.432707e-03 9.432707e-03 1 -3.9385 -0.2559)" class="st1" cx="-29.1" cy="417.4" rx="14.7" ry="14.7"/>
			<circle class="st4" cx="51.7" cy="417.4" r="14.7"/>
			<circle class="st1" cx="132.6" cy="417.4" r="14.7"/>
			<circle class="st3" cx="213.4" cy="417.4" r="14.7"/>
			<circle class="st5" cx="294.3" cy="417.4" r="14.7"/>
			
				<ellipse transform="matrix(0.9993 -3.837654e-02 3.837654e-02 0.9993 -14.9452 -2.3851)" class="st5" cx="-69.6" cy="388.1" rx="14.7" ry="14.7"/>
			<circle class="st3" cx="11.3" cy="388.1" r="14.7"/>
			<circle class="st1" cx="92.1" cy="388.1" r="14.7"/>
			<circle class="st4" cx="173" cy="388.1" r="14.7"/>
			<circle class="st1" cx="253.8" cy="388.1" r="14.7"/>
			<circle class="st3" cx="334.7" cy="388.1" r="14.7"/>
		</g>
	</g>
</g>
<path class="st4" d="M-129.5-556.3h-237L-485-351l118.5,205.3h237L-11-351L-129.5-556.3z M-248.9-220.1
	c-72.3,0-130.9-58.6-130.9-130.9s58.6-130.9,130.9-130.9s131,58.6,131,130.9S-176.5-220.1-248.9-220.1z"/>
<path class="st5" d="M399.2,341.1c-22.6,0-41.1-18.4-41.1-41.1s18.4-41.1,41.1-41.1s41.1,18.4,41.1,41.1
	C440.3,322.7,421.8,341.1,399.2,341.1z"/>
<path class="st4" d="M400,216.3c-46.2,0-83.7,37.5-83.7,83.7s37.5,83.7,83.7,83.7s83.7-37.5,83.7-83.7S446.2,216.3,400,216.3z
	 M400,376.3c-42.1,0-76.3-34.1-76.3-76.3s34.1-76.3,76.3-76.3s76.3,34.1,76.3,76.3S442.1,376.3,400,376.3z"/>
<path class="st4" d="M400,235.4c-35.6,0-64.6,28.9-64.6,64.6s28.9,64.6,64.6,64.6s64.6-28.9,64.6-64.6S435.6,235.4,400,235.4z
	 M400,358c-32,0-58-26-58-58s26-58,58-58s58,26,58,58S432,358,400,358z"/>
<path class="st4" d="M400,246c-29.9,0-54,24.2-54,54c0,29.9,24.2,54,54,54s54-24.2,54-54C454,270.1,429.9,246,400,246z M400,350.7
	c-27.9,0-50.7-22.6-50.7-50.7s22.6-50.7,50.7-50.7s50.7,22.6,50.7,50.7S427.9,350.7,400,350.7z"/>
<circle class="st1" cx="249.5" cy="24.5" r="18.5"/>
<circle class="st3" cx="547.6" cy="24.5" r="18.5"/>
<circle class="st3" cx="249.5" cy="575.5" r="18.5"/>
<circle class="st1" cx="547.6" cy="575.5" r="18.5"/>
<circle class="st4" cx="715.1" cy="300" r="18.5"/>
<circle class="st4" cx="83.1" cy="300" r="18.5"/>
<rect x="975.4" y="258.5" class="st4" width="51" height="84"/>
<rect x="950.9" y="342.5" class="st1" width="57.5" height="57.5"/>
<rect x="941.2" y="400" class="st3" width="38.5" height="65.9"/>
<rect x="931.7" y="479.5" class="st5" width="38.5" height="38.5"/>
<path class="st1" d="M400,180.5c-66,0-119.5,53.5-119.5,119.5S334,419.5,400,419.5S519.5,366,519.5,300S466,180.5,400,180.5z
	 M400,396.6c-53.4,0-96.6-43.3-96.6-96.6s43.3-96.6,96.6-96.6s96.6,43.3,96.6,96.6S453.4,396.6,400,396.6z"/>
</svg>
