<?xml version="1.0" encoding="utf-8"?>
<!-- Generator: Adobe Illustrator 22.0.1, SVG Export Plug-In . SVG Version: 6.00 Build 0)  -->
<svg version="1.1" id="レイヤー_1" xmlns="http://www.w3.org/2000/svg" xmlns:xlink="http://www.w3.org/1999/xlink" x="0px"
	 y="0px" width="800px" height="600px" viewBox="0 0 800 600" style="enable-background:new 0 0 800 600;" xml:space="preserve">
<style type="text/css">
	.st0{clip-path:url(#SVGID_2_);fill:#FFFFFF;}
	.st1{clip-path:url(#SVGID_4_);fill:#FFFFFF;}
	.st2{clip-path:url(#SVGID_6_);fill:#FFFFFF;}
	.st3{clip-path:url(#SVGID_8_);fill:#FFFFFF;}
	.st4{clip-path:url(#SVGID_10_);fill:#FFFFFF;}
	.st5{clip-path:url(#SVGID_12_);fill:#FFFFFF;}
	.st6{clip-path:url(#SVGID_14_);fill:#FFFFFF;}
	.st7{clip-path:url(#SVGID_16_);fill:#FFFFFF;}
	.st8{clip-path:url(#SVGID_18_);fill:#FFFFFF;}
	.st9{clip-path:url(#SVGID_20_);fill:#FFFFFF;}
	.st10{clip-path:url(#SVGID_22_);fill:#FFFFFF;}
	.st11{clip-path:url(#SVGID_24_);fill:#FFFFFF;}
	.st12{clip-path:url(#SVGID_26_);fill:#FFFFFF;}
	.st13{clip-path:url(#SVGID_28_);fill:#FFFFFF;}
	.st14{clip-path:url(#SVGID_30_);fill:#FFFFFF;}
	.st15{clip-path:url(#SVGID_32_);fill:#FFFFFF;}
	.st16{clip-path:url(#SVGID_34_);fill:#FFFFFF;}
	.st17{clip-path:url(#SVGID_36_);fill:#FFFFFF;}
	.st18{clip-path:url(#SVGID_38_);fill:#FFFFFF;}
	.st19{clip-path:url(#SVGID_40_);fill:#FFFFFF;}
	.st20{clip-path:url(#SVGID_42_);fill:#FFFFFF;}
	.st21{clip-path:url(#SVGID_44_);fill:#FFFFFF;}
	.st22{clip-path:url(#SVGID_46_);fill:#FFFFFF;}
	.st23{clip-path:url(#SVGID_48_);fill:#FFFFFF;}
	.st24{clip-path:url(#SVGID_50_);fill:#FFFFFF;}
	.st25{clip-path:url(#SVGID_52_);fill:#FFFFFF;}
	.st26{clip-path:url(#SVGID_54_);fill:#FFFFFF;}
	.st27{clip-path:url(#SVGID_56_);fill:#FFFFFF;}
	.st28{clip-path:url(#SVGID_58_);fill:#FFFFFF;}
	.st29{clip-path:url(#SVGID_60_);fill:#FFFFFF;}
	.st30{clip-path:url(#SVGID_62_);fill:#FFFFFF;}
	.st31{clip-path:url(#SVGID_64_);fill:#FFFFFF;}
	.st32{clip-path:url(#SVGID_66_);fill:#FFFFFF;}
	.st33{clip-path:url(#SVGID_68_);fill:#FFFFFF;}
	.st34{clip-path:url(#SVGID_70_);fill:#FFFFFF;}
	.st35{clip-path:url(#SVGID_72_);fill:#FFFFFF;}
	.st36{clip-path:url(#SVGID_74_);fill:#FFFFFF;}
	.st37{clip-path:url(#SVGID_76_);fill:#FFFFFF;}
	.st38{clip-path:url(#SVGID_78_);fill:#FFFFFF;}
	.st39{clip-path:url(#SVGID_80_);fill:#FFFFFF;}
	.st40{clip-path:url(#SVGID_82_);fill:#FFFFFF;}
	.st41{clip-path:url(#SVGID_84_);fill:#FFFFFF;}
	.st42{clip-path:url(#SVGID_86_);fill:#FFFFFF;}
	.st43{clip-path:url(#SVGID_88_);fill:#FFFFFF;}
	.st44{clip-path:url(#SVGID_90_);fill:#FFFFFF;}
	.st45{clip-path:url(#SVGID_92_);fill:#FFFFFF;}
	.st46{clip-path:url(#SVGID_94_);fill:#FFFFFF;}
	.st47{clip-path:url(#SVGID_96_);fill:#FFFFFF;}
	.st48{clip-path:url(#SVGID_98_);fill:#FFFFFF;}
	.st49{clip-path:url(#SVGID_100_);fill:#FFFFFF;}
	.st50{clip-path:url(#SVGID_102_);fill:#FFFFFF;}
	.st51{clip-path:url(#SVGID_104_);fill:#FFFFFF;}
	.st52{clip-path:url(#SVGID_106_);fill:#FFFFFF;}
	.st53{clip-path:url(#SVGID_108_);fill:#FFFFFF;}
	.st54{clip-path:url(#SVGID_110_);fill:#FFFFFF;}
	.st55{clip-path:url(#SVGID_112_);fill:#FFFFFF;}
	.st56{clip-path:url(#SVGID_114_);fill:#FFFFFF;}
	.st57{clip-path:url(#SVGID_116_);fill:#FFFFFF;}
	.st58{clip-path:url(#SVGID_118_);fill:#FFFFFF;}
	.st59{clip-path:url(#SVGID_120_);fill:#FFFFFF;}
	.st60{clip-path:url(#SVGID_122_);fill:#FFFFFF;}
	.st61{clip-path:url(#SVGID_124_);fill:#FFFFFF;}
	.st62{clip-path:url(#SVGID_126_);fill:#FFFFFF;}
	.st63{clip-path:url(#SVGID_128_);fill:#FFFFFF;}
	.st64{clip-path:url(#SVGID_130_);fill:#FFFFFF;}
	.st65{clip-path:url(#SVGID_132_);fill:#FFFFFF;}
	.st66{clip-path:url(#SVGID_134_);fill:#FFFFFF;}
	.st67{clip-path:url(#SVGID_136_);fill:#FFFFFF;}
	.st68{clip-path:url(#SVGID_138_);fill:#FFFFFF;}
	.st69{clip-path:url(#SVGID_140_);fill:#FFFFFF;}
	.st70{clip-path:url(#SVGID_142_);fill:#FFFFFF;}
	.st71{clip-path:url(#SVGID_144_);fill:#FFFFFF;}
	.st72{clip-path:url(#SVGID_146_);fill:#FFFFFF;}
	.st73{clip-path:url(#SVGID_148_);fill:#FFFFFF;}
	.st74{clip-path:url(#SVGID_150_);fill:#FFFFFF;}
	.st75{clip-path:url(#SVGID_152_);fill:#FFFFFF;}
	.st76{clip-path:url(#SVGID_154_);fill:#FFFFFF;}
	.st77{clip-path:url(#SVGID_156_);fill:#FFFFFF;}
	.st78{clip-path:url(#SVGID_158_);fill:#FFFFFF;}
	.st79{clip-path:url(#SVGID_160_);fill:#FFFFFF;}
	.st80{clip-path:url(#SVGID_162_);fill:#FFFFFF;}
	.st81{clip-path:url(#SVGID_164_);fill:#FFFFFF;}
	.st82{clip-path:url(#SVGID_166_);fill:#FFFFFF;}
	.st83{clip-path:url(#SVGID_168_);fill:#FFFFFF;}
	.st84{clip-path:url(#SVGID_170_);fill:#FFFFFF;}
	.st85{clip-path:url(#SVGID_172_);fill:#FFFFFF;}
	.st86{clip-path:url(#SVGID_174_);fill:#FFFFFF;}
	.st87{clip-path:url(#SVGID_176_);fill:#FFFFFF;}
	.st88{clip-path:url(#SVGID_178_);fill:#FFFFFF;}
	.st89{clip-path:url(#SVGID_180_);fill:#FFFFFF;}
	.st90{clip-path:url(#SVGID_182_);fill:#FFFFFF;}
	.st91{clip-path:url(#SVGID_184_);fill:#FFFFFF;}
	.st92{clip-path:url(#SVGID_186_);fill:#FFFFFF;}
	.st93{clip-path:url(#SVGID_188_);fill:#FFFFFF;}
	.st94{clip-path:url(#SVGID_190_);fill:#FFFFFF;}
	.st95{clip-path:url(#SVGID_192_);fill:#FFFFFF;}
	.st96{clip-path:url(#SVGID_194_);fill:#FFFFFF;}
	.st97{clip-path:url(#SVGID_196_);fill:#FFFFFF;}
	.st98{clip-path:url(#SVGID_198_);fill:#FFFFFF;}
	.st99{clip-path:url(#SVGID_200_);fill:#FFFFFF;}
	.st100{fill:#FCE6ED;}
	.st101{fill:#583E89;}
	.st102{fill:#939AE5;}
	.st103{fill:#D0BDF4;}
</style>
<g>
	<g>
		<defs>
			<path id="SVGID_1_" d="M668.9,300c0-148.5-120.4-268.9-268.9-268.9S131.1,151.5,131.1,300S251.5,568.9,400,568.9
				S668.9,448.5,668.9,300z M312.7,300c0-48.2,39.1-87.3,87.3-87.3s87.3,39.1,87.3,87.3s-39.1,87.3-87.3,87.3S312.7,348.2,312.7,300
				z"/>
		</defs>
		<clipPath id="SVGID_2_">
			<use xlink:href="#SVGID_1_"  style="overflow:visible;"/>
		</clipPath>
		<rect x="682" y="-61.5" class="st0" width="2" height="800"/>
	</g>
	<g>
		<defs>
			<path id="SVGID_3_" d="M668.9,300c0-148.5-120.4-268.9-268.9-268.9S131.1,151.5,131.1,300S251.5,568.9,400,568.9
				S668.9,448.5,668.9,300z M312.7,300c0-48.2,39.1-87.3,87.3-87.3s87.3,39.1,87.3,87.3s-39.1,87.3-87.3,87.3S312.7,348.2,312.7,300
				z"/>
		</defs>
		<clipPath id="SVGID_4_">
			<use xlink:href="#SVGID_3_"  style="overflow:visible;"/>
		</clipPath>
		<rect x="676" y="-61.5" class="st1" width="2" height="800"/>
	</g>
	<g>
		<defs>
			<path id="SVGID_5_" d="M668.9,300c0-148.5-120.4-268.9-268.9-268.9S131.1,151.5,131.1,300S251.5,568.9,400,568.9
				S668.9,448.5,668.9,300z M312.7,300c0-48.2,39.1-87.3,87.3-87.3s87.3,39.1,87.3,87.3s-39.1,87.3-87.3,87.3S312.7,348.2,312.7,300
				z"/>
		</defs>
		<clipPath id="SVGID_6_">
			<use xlink:href="#SVGID_5_"  style="overflow:visible;"/>
		</clipPath>
		<rect x="670" y="-61.5" class="st2" width="2" height="800"/>
	</g>
	<g>
		<defs>
			<path id="SVGID_7_" d="M668.9,300c0-148.5-120.4-268.9-268.9-268.9S131.1,151.5,131.1,300S251.5,568.9,400,568.9
				S668.9,448.5,668.9,300z M312.7,300c0-48.2,39.1-87.3,87.3-87.3s87.3,39.1,87.3,87.3s-39.1,87.3-87.3,87.3S312.7,348.2,312.7,300
				z"/>
		</defs>
		<clipPath id="SVGID_8_">
			<use xlink:href="#SVGID_7_"  style="overflow:visible;"/>
		</clipPath>
		<rect x="664" y="-61.5" class="st3" width="2" height="800"/>
	</g>
	<g>
		<defs>
			<path id="SVGID_9_" d="M668.9,300c0-148.5-120.4-268.9-268.9-268.9S131.1,151.5,131.1,300S251.5,568.9,400,568.9
				S668.9,448.5,668.9,300z M312.7,300c0-48.2,39.1-87.3,87.3-87.3s87.3,39.1,87.3,87.3s-39.1,87.3-87.3,87.3S312.7,348.2,312.7,300
				z"/>
		</defs>
		<clipPath id="SVGID_10_">
			<use xlink:href="#SVGID_9_"  style="overflow:visible;"/>
		</clipPath>
		<rect x="658" y="-61.5" class="st4" width="2" height="800"/>
	</g>
	<g>
		<defs>
			<path id="SVGID_11_" d="M668.9,300c0-148.5-120.4-268.9-268.9-268.9S131.1,151.5,131.1,300S251.5,568.9,400,568.9
				S668.9,448.5,668.9,300z M312.7,300c0-48.2,39.1-87.3,87.3-87.3s87.3,39.1,87.3,87.3s-39.1,87.3-87.3,87.3S312.7,348.2,312.7,300
				z"/>
		</defs>
		<clipPath id="SVGID_12_">
			<use xlink:href="#SVGID_11_"  style="overflow:visible;"/>
		</clipPath>
		<rect x="652" y="-61.5" class="st5" width="2" height="800"/>
	</g>
	<g>
		<defs>
			<path id="SVGID_13_" d="M668.9,300c0-148.5-120.4-268.9-268.9-268.9S131.1,151.5,131.1,300S251.5,568.9,400,568.9
				S668.9,448.5,668.9,300z M312.7,300c0-48.2,39.1-87.3,87.3-87.3s87.3,39.1,87.3,87.3s-39.1,87.3-87.3,87.3S312.7,348.2,312.7,300
				z"/>
		</defs>
		<clipPath id="SVGID_14_">
			<use xlink:href="#SVGID_13_"  style="overflow:visible;"/>
		</clipPath>
		<rect x="646" y="-61.5" class="st6" width="2" height="800"/>
	</g>
	<g>
		<defs>
			<path id="SVGID_15_" d="M668.9,300c0-148.5-120.4-268.9-268.9-268.9S131.1,151.5,131.1,300S251.5,568.9,400,568.9
				S668.9,448.5,668.9,300z M312.7,300c0-48.2,39.1-87.3,87.3-87.3s87.3,39.1,87.3,87.3s-39.1,87.3-87.3,87.3S312.7,348.2,312.7,300
				z"/>
		</defs>
		<clipPath id="SVGID_16_">
			<use xlink:href="#SVGID_15_"  style="overflow:visible;"/>
		</clipPath>
		<rect x="640" y="-61.5" class="st7" width="2" height="800"/>
	</g>
	<g>
		<defs>
			<path id="SVGID_17_" d="M668.9,300c0-148.5-120.4-268.9-268.9-268.9S131.1,151.5,131.1,300S251.5,568.9,400,568.9
				S668.9,448.5,668.9,300z M312.7,300c0-48.2,39.1-87.3,87.3-87.3s87.3,39.1,87.3,87.3s-39.1,87.3-87.3,87.3S312.7,348.2,312.7,300
				z"/>
		</defs>
		<clipPath id="SVGID_18_">
			<use xlink:href="#SVGID_17_"  style="overflow:visible;"/>
		</clipPath>
		<rect x="634" y="-61.5" class="st8" width="2" height="800"/>
	</g>
	<g>
		<defs>
			<path id="SVGID_19_" d="M668.9,300c0-148.5-120.4-268.9-268.9-268.9S131.1,151.5,131.1,300S251.5,568.9,400,568.9
				S668.9,448.5,668.9,300z M312.7,300c0-48.2,39.1-87.3,87.3-87.3s87.3,39.1,87.3,87.3s-39.1,87.3-87.3,87.3S312.7,348.2,312.7,300
				z"/>
		</defs>
		<clipPath id="SVGID_20_">
			<use xlink:href="#SVGID_19_"  style="overflow:visible;"/>
		</clipPath>
		<rect x="628" y="-61.5" class="st9" width="2" height="800"/>
	</g>
	<g>
		<defs>
			<path id="SVGID_21_" d="M668.9,300c0-148.5-120.4-268.9-268.9-268.9S131.1,151.5,131.1,300S251.5,568.9,400,568.9
				S668.9,448.5,668.9,300z M312.7,300c0-48.2,39.1-87.3,87.3-87.3s87.3,39.1,87.3,87.3s-39.1,87.3-87.3,87.3S312.7,348.2,312.7,300
				z"/>
		</defs>
		<clipPath id="SVGID_22_">
			<use xlink:href="#SVGID_21_"  style="overflow:visible;"/>
		</clipPath>
		<rect x="622" y="-61.5" class="st10" width="2" height="800"/>
	</g>
	<g>
		<defs>
			<path id="SVGID_23_" d="M668.9,300c0-148.5-120.4-268.9-268.9-268.9S131.1,151.5,131.1,300S251.5,568.9,400,568.9
				S668.9,448.5,668.9,300z M312.7,300c0-48.2,39.1-87.3,87.3-87.3s87.3,39.1,87.3,87.3s-39.1,87.3-87.3,87.3S312.7,348.2,312.7,300
				z"/>
		</defs>
		<clipPath id="SVGID_24_">
			<use xlink:href="#SVGID_23_"  style="overflow:visible;"/>
		</clipPath>
		<rect x="616" y="-61.5" class="st11" width="2" height="800"/>
	</g>
	<g>
		<defs>
			<path id="SVGID_25_" d="M668.9,300c0-148.5-120.4-268.9-268.9-268.9S131.1,151.5,131.1,300S251.5,568.9,400,568.9
				S668.9,448.5,668.9,300z M312.7,300c0-48.2,39.1-87.3,87.3-87.3s87.3,39.1,87.3,87.3s-39.1,87.3-87.3,87.3S312.7,348.2,312.7,300
				z"/>
		</defs>
		<clipPath id="SVGID_26_">
			<use xlink:href="#SVGID_25_"  style="overflow:visible;"/>
		</clipPath>
		<rect x="610" y="-61.5" class="st12" width="2" height="800"/>
	</g>
	<g>
		<defs>
			<path id="SVGID_27_" d="M668.9,300c0-148.5-120.4-268.9-268.9-268.9S131.1,151.5,131.1,300S251.5,568.9,400,568.9
				S668.9,448.5,668.9,300z M312.7,300c0-48.2,39.1-87.3,87.3-87.3s87.3,39.1,87.3,87.3s-39.1,87.3-87.3,87.3S312.7,348.2,312.7,300
				z"/>
		</defs>
		<clipPath id="SVGID_28_">
			<use xlink:href="#SVGID_27_"  style="overflow:visible;"/>
		</clipPath>
		<rect x="604" y="-61.5" class="st13" width="2" height="800"/>
	</g>
	<g>
		<defs>
			<path id="SVGID_29_" d="M668.9,300c0-148.5-120.4-268.9-268.9-268.9S131.1,151.5,131.1,300S251.5,568.9,400,568.9
				S668.9,448.5,668.9,300z M312.7,300c0-48.2,39.1-87.3,87.3-87.3s87.3,39.1,87.3,87.3s-39.1,87.3-87.3,87.3S312.7,348.2,312.7,300
				z"/>
		</defs>
		<clipPath id="SVGID_30_">
			<use xlink:href="#SVGID_29_"  style="overflow:visible;"/>
		</clipPath>
		<rect x="598" y="-61.5" class="st14" width="2" height="800"/>
	</g>
	<g>
		<defs>
			<path id="SVGID_31_" d="M668.9,300c0-148.5-120.4-268.9-268.9-268.9S131.1,151.5,131.1,300S251.5,568.9,400,568.9
				S668.9,448.5,668.9,300z M312.7,300c0-48.2,39.1-87.3,87.3-87.3s87.3,39.1,87.3,87.3s-39.1,87.3-87.3,87.3S312.7,348.2,312.7,300
				z"/>
		</defs>
		<clipPath id="SVGID_32_">
			<use xlink:href="#SVGID_31_"  style="overflow:visible;"/>
		</clipPath>
		<rect x="592" y="-61.5" class="st15" width="2" height="800"/>
	</g>
	<g>
		<defs>
			<path id="SVGID_33_" d="M668.9,300c0-148.5-120.4-268.9-268.9-268.9S131.1,151.5,131.1,300S251.5,568.9,400,568.9
				S668.9,448.5,668.9,300z M312.7,300c0-48.2,39.1-87.3,87.3-87.3s87.3,39.1,87.3,87.3s-39.1,87.3-87.3,87.3S312.7,348.2,312.7,300
				z"/>
		</defs>
		<clipPath id="SVGID_34_">
			<use xlink:href="#SVGID_33_"  style="overflow:visible;"/>
		</clipPath>
		<rect x="586" y="-61.5" class="st16" width="2" height="800"/>
	</g>
	<g>
		<defs>
			<path id="SVGID_35_" d="M668.9,300c0-148.5-120.4-268.9-268.9-268.9S131.1,151.5,131.1,300S251.5,568.9,400,568.9
				S668.9,448.5,668.9,300z M312.7,300c0-48.2,39.1-87.3,87.3-87.3s87.3,39.1,87.3,87.3s-39.1,87.3-87.3,87.3S312.7,348.2,312.7,300
				z"/>
		</defs>
		<clipPath id="SVGID_36_">
			<use xlink:href="#SVGID_35_"  style="overflow:visible;"/>
		</clipPath>
		<rect x="580" y="-61.5" class="st17" width="2" height="800"/>
	</g>
	<g>
		<defs>
			<path id="SVGID_37_" d="M668.9,300c0-148.5-120.4-268.9-268.9-268.9S131.1,151.5,131.1,300S251.5,568.9,400,568.9
				S668.9,448.5,668.9,300z M312.7,300c0-48.2,39.1-87.3,87.3-87.3s87.3,39.1,87.3,87.3s-39.1,87.3-87.3,87.3S312.7,348.2,312.7,300
				z"/>
		</defs>
		<clipPath id="SVGID_38_">
			<use xlink:href="#SVGID_37_"  style="overflow:visible;"/>
		</clipPath>
		<rect x="574" y="-61.5" class="st18" width="2" height="800"/>
	</g>
	<g>
		<defs>
			<path id="SVGID_39_" d="M668.9,300c0-148.5-120.4-268.9-268.9-268.9S131.1,151.5,131.1,300S251.5,568.9,400,568.9
				S668.9,448.5,668.9,300z M312.7,300c0-48.2,39.1-87.3,87.3-87.3s87.3,39.1,87.3,87.3s-39.1,87.3-87.3,87.3S312.7,348.2,312.7,300
				z"/>
		</defs>
		<clipPath id="SVGID_40_">
			<use xlink:href="#SVGID_39_"  style="overflow:visible;"/>
		</clipPath>
		<rect x="568" y="-61.5" class="st19" width="2" height="800"/>
	</g>
	<g>
		<defs>
			<path id="SVGID_41_" d="M668.9,300c0-148.5-120.4-268.9-268.9-268.9S131.1,151.5,131.1,300S251.5,568.9,400,568.9
				S668.9,448.5,668.9,300z M312.7,300c0-48.2,39.1-87.3,87.3-87.3s87.3,39.1,87.3,87.3s-39.1,87.3-87.3,87.3S312.7,348.2,312.7,300
				z"/>
		</defs>
		<clipPath id="SVGID_42_">
			<use xlink:href="#SVGID_41_"  style="overflow:visible;"/>
		</clipPath>
		<rect x="562" y="-61.5" class="st20" width="2" height="800"/>
	</g>
	<g>
		<defs>
			<path id="SVGID_43_" d="M668.9,300c0-148.5-120.4-268.9-268.9-268.9S131.1,151.5,131.1,300S251.5,568.9,400,568.9
				S668.9,448.5,668.9,300z M312.7,300c0-48.2,39.1-87.3,87.3-87.3s87.3,39.1,87.3,87.3s-39.1,87.3-87.3,87.3S312.7,348.2,312.7,300
				z"/>
		</defs>
		<clipPath id="SVGID_44_">
			<use xlink:href="#SVGID_43_"  style="overflow:visible;"/>
		</clipPath>
		<rect x="556" y="-61.5" class="st21" width="2" height="800"/>
	</g>
	<g>
		<defs>
			<path id="SVGID_45_" d="M668.9,300c0-148.5-120.4-268.9-268.9-268.9S131.1,151.5,131.1,300S251.5,568.9,400,568.9
				S668.9,448.5,668.9,300z M312.7,300c0-48.2,39.1-87.3,87.3-87.3s87.3,39.1,87.3,87.3s-39.1,87.3-87.3,87.3S312.7,348.2,312.7,300
				z"/>
		</defs>
		<clipPath id="SVGID_46_">
			<use xlink:href="#SVGID_45_"  style="overflow:visible;"/>
		</clipPath>
		<rect x="550" y="-61.5" class="st22" width="2" height="800"/>
	</g>
	<g>
		<defs>
			<path id="SVGID_47_" d="M668.9,300c0-148.5-120.4-268.9-268.9-268.9S131.1,151.5,131.1,300S251.5,568.9,400,568.9
				S668.9,448.5,668.9,300z M312.7,300c0-48.2,39.1-87.3,87.3-87.3s87.3,39.1,87.3,87.3s-39.1,87.3-87.3,87.3S312.7,348.2,312.7,300
				z"/>
		</defs>
		<clipPath id="SVGID_48_">
			<use xlink:href="#SVGID_47_"  style="overflow:visible;"/>
		</clipPath>
		<rect x="544" y="-61.5" class="st23" width="2" height="800"/>
	</g>
	<g>
		<defs>
			<path id="SVGID_49_" d="M668.9,300c0-148.5-120.4-268.9-268.9-268.9S131.1,151.5,131.1,300S251.5,568.9,400,568.9
				S668.9,448.5,668.9,300z M312.7,300c0-48.2,39.1-87.3,87.3-87.3s87.3,39.1,87.3,87.3s-39.1,87.3-87.3,87.3S312.7,348.2,312.7,300
				z"/>
		</defs>
		<clipPath id="SVGID_50_">
			<use xlink:href="#SVGID_49_"  style="overflow:visible;"/>
		</clipPath>
		<rect x="538" y="-61.5" class="st24" width="2" height="800"/>
	</g>
	<g>
		<defs>
			<path id="SVGID_51_" d="M668.9,300c0-148.5-120.4-268.9-268.9-268.9S131.1,151.5,131.1,300S251.5,568.9,400,568.9
				S668.9,448.5,668.9,300z M312.7,300c0-48.2,39.1-87.3,87.3-87.3s87.3,39.1,87.3,87.3s-39.1,87.3-87.3,87.3S312.7,348.2,312.7,300
				z"/>
		</defs>
		<clipPath id="SVGID_52_">
			<use xlink:href="#SVGID_51_"  style="overflow:visible;"/>
		</clipPath>
		<rect x="532" y="-61.5" class="st25" width="2" height="800"/>
	</g>
	<g>
		<defs>
			<path id="SVGID_53_" d="M668.9,300c0-148.5-120.4-268.9-268.9-268.9S131.1,151.5,131.1,300S251.5,568.9,400,568.9
				S668.9,448.5,668.9,300z M312.7,300c0-48.2,39.1-87.3,87.3-87.3s87.3,39.1,87.3,87.3s-39.1,87.3-87.3,87.3S312.7,348.2,312.7,300
				z"/>
		</defs>
		<clipPath id="SVGID_54_">
			<use xlink:href="#SVGID_53_"  style="overflow:visible;"/>
		</clipPath>
		<rect x="526" y="-61.5" class="st26" width="2" height="800"/>
	</g>
	<g>
		<defs>
			<path id="SVGID_55_" d="M668.9,300c0-148.5-120.4-268.9-268.9-268.9S131.1,151.5,131.1,300S251.5,568.9,400,568.9
				S668.9,448.5,668.9,300z M312.7,300c0-48.2,39.1-87.3,87.3-87.3s87.3,39.1,87.3,87.3s-39.1,87.3-87.3,87.3S312.7,348.2,312.7,300
				z"/>
		</defs>
		<clipPath id="SVGID_56_">
			<use xlink:href="#SVGID_55_"  style="overflow:visible;"/>
		</clipPath>
		<rect x="520" y="-61.5" class="st27" width="2" height="800"/>
	</g>
	<g>
		<defs>
			<path id="SVGID_57_" d="M668.9,300c0-148.5-120.4-268.9-268.9-268.9S131.1,151.5,131.1,300S251.5,568.9,400,568.9
				S668.9,448.5,668.9,300z M312.7,300c0-48.2,39.1-87.3,87.3-87.3s87.3,39.1,87.3,87.3s-39.1,87.3-87.3,87.3S312.7,348.2,312.7,300
				z"/>
		</defs>
		<clipPath id="SVGID_58_">
			<use xlink:href="#SVGID_57_"  style="overflow:visible;"/>
		</clipPath>
		<rect x="514" y="-61.5" class="st28" width="2" height="800"/>
	</g>
	<g>
		<defs>
			<path id="SVGID_59_" d="M668.9,300c0-148.5-120.4-268.9-268.9-268.9S131.1,151.5,131.1,300S251.5,568.9,400,568.9
				S668.9,448.5,668.9,300z M312.7,300c0-48.2,39.1-87.3,87.3-87.3s87.3,39.1,87.3,87.3s-39.1,87.3-87.3,87.3S312.7,348.2,312.7,300
				z"/>
		</defs>
		<clipPath id="SVGID_60_">
			<use xlink:href="#SVGID_59_"  style="overflow:visible;"/>
		</clipPath>
		<rect x="508" y="-61.5" class="st29" width="2" height="800"/>
	</g>
	<g>
		<defs>
			<path id="SVGID_61_" d="M668.9,300c0-148.5-120.4-268.9-268.9-268.9S131.1,151.5,131.1,300S251.5,568.9,400,568.9
				S668.9,448.5,668.9,300z M312.7,300c0-48.2,39.1-87.3,87.3-87.3s87.3,39.1,87.3,87.3s-39.1,87.3-87.3,87.3S312.7,348.2,312.7,300
				z"/>
		</defs>
		<clipPath id="SVGID_62_">
			<use xlink:href="#SVGID_61_"  style="overflow:visible;"/>
		</clipPath>
		<rect x="502" y="-61.5" class="st30" width="2" height="800"/>
	</g>
	<g>
		<defs>
			<path id="SVGID_63_" d="M668.9,300c0-148.5-120.4-268.9-268.9-268.9S131.1,151.5,131.1,300S251.5,568.9,400,568.9
				S668.9,448.5,668.9,300z M312.7,300c0-48.2,39.1-87.3,87.3-87.3s87.3,39.1,87.3,87.3s-39.1,87.3-87.3,87.3S312.7,348.2,312.7,300
				z"/>
		</defs>
		<clipPath id="SVGID_64_">
			<use xlink:href="#SVGID_63_"  style="overflow:visible;"/>
		</clipPath>
		<rect x="496" y="-61.5" class="st31" width="2" height="800"/>
	</g>
	<g>
		<defs>
			<path id="SVGID_65_" d="M668.9,300c0-148.5-120.4-268.9-268.9-268.9S131.1,151.5,131.1,300S251.5,568.9,400,568.9
				S668.9,448.5,668.9,300z M312.7,300c0-48.2,39.1-87.3,87.3-87.3s87.3,39.1,87.3,87.3s-39.1,87.3-87.3,87.3S312.7,348.2,312.7,300
				z"/>
		</defs>
		<clipPath id="SVGID_66_">
			<use xlink:href="#SVGID_65_"  style="overflow:visible;"/>
		</clipPath>
		<rect x="490" y="-61.5" class="st32" width="2" height="800"/>
	</g>
	<g>
		<defs>
			<path id="SVGID_67_" d="M668.9,300c0-148.5-120.4-268.9-268.9-268.9S131.1,151.5,131.1,300S251.5,568.9,400,568.9
				S668.9,448.5,668.9,300z M312.7,300c0-48.2,39.1-87.3,87.3-87.3s87.3,39.1,87.3,87.3s-39.1,87.3-87.3,87.3S312.7,348.2,312.7,300
				z"/>
		</defs>
		<clipPath id="SVGID_68_">
			<use xlink:href="#SVGID_67_"  style="overflow:visible;"/>
		</clipPath>
		<rect x="484" y="-61.5" class="st33" width="2" height="800"/>
	</g>
	<g>
		<defs>
			<path id="SVGID_69_" d="M668.9,300c0-148.5-120.4-268.9-268.9-268.9S131.1,151.5,131.1,300S251.5,568.9,400,568.9
				S668.9,448.5,668.9,300z M312.7,300c0-48.2,39.1-87.3,87.3-87.3s87.3,39.1,87.3,87.3s-39.1,87.3-87.3,87.3S312.7,348.2,312.7,300
				z"/>
		</defs>
		<clipPath id="SVGID_70_">
			<use xlink:href="#SVGID_69_"  style="overflow:visible;"/>
		</clipPath>
		<rect x="478" y="-61.5" class="st34" width="2" height="800"/>
	</g>
	<g>
		<defs>
			<path id="SVGID_71_" d="M668.9,300c0-148.5-120.4-268.9-268.9-268.9S131.1,151.5,131.1,300S251.5,568.9,400,568.9
				S668.9,448.5,668.9,300z M312.7,300c0-48.2,39.1-87.3,87.3-87.3s87.3,39.1,87.3,87.3s-39.1,87.3-87.3,87.3S312.7,348.2,312.7,300
				z"/>
		</defs>
		<clipPath id="SVGID_72_">
			<use xlink:href="#SVGID_71_"  style="overflow:visible;"/>
		</clipPath>
		<rect x="472" y="-61.5" class="st35" width="2" height="800"/>
	</g>
	<g>
		<defs>
			<path id="SVGID_73_" d="M668.9,300c0-148.5-120.4-268.9-268.9-268.9S131.1,151.5,131.1,300S251.5,568.9,400,568.9
				S668.9,448.5,668.9,300z M312.7,300c0-48.2,39.1-87.3,87.3-87.3s87.3,39.1,87.3,87.3s-39.1,87.3-87.3,87.3S312.7,348.2,312.7,300
				z"/>
		</defs>
		<clipPath id="SVGID_74_">
			<use xlink:href="#SVGID_73_"  style="overflow:visible;"/>
		</clipPath>
		<rect x="466" y="-61.5" class="st36" width="2" height="800"/>
	</g>
	<g>
		<defs>
			<path id="SVGID_75_" d="M668.9,300c0-148.5-120.4-268.9-268.9-268.9S131.1,151.5,131.1,300S251.5,568.9,400,568.9
				S668.9,448.5,668.9,300z M312.7,300c0-48.2,39.1-87.3,87.3-87.3s87.3,39.1,87.3,87.3s-39.1,87.3-87.3,87.3S312.7,348.2,312.7,300
				z"/>
		</defs>
		<clipPath id="SVGID_76_">
			<use xlink:href="#SVGID_75_"  style="overflow:visible;"/>
		</clipPath>
		<rect x="460" y="-61.5" class="st37" width="2" height="800"/>
	</g>
	<g>
		<defs>
			<path id="SVGID_77_" d="M668.9,300c0-148.5-120.4-268.9-268.9-268.9S131.1,151.5,131.1,300S251.5,568.9,400,568.9
				S668.9,448.5,668.9,300z M312.7,300c0-48.2,39.1-87.3,87.3-87.3s87.3,39.1,87.3,87.3s-39.1,87.3-87.3,87.3S312.7,348.2,312.7,300
				z"/>
		</defs>
		<clipPath id="SVGID_78_">
			<use xlink:href="#SVGID_77_"  style="overflow:visible;"/>
		</clipPath>
		<rect x="454" y="-61.5" class="st38" width="2" height="800"/>
	</g>
	<g>
		<defs>
			<path id="SVGID_79_" d="M668.9,300c0-148.5-120.4-268.9-268.9-268.9S131.1,151.5,131.1,300S251.5,568.9,400,568.9
				S668.9,448.5,668.9,300z M312.7,300c0-48.2,39.1-87.3,87.3-87.3s87.3,39.1,87.3,87.3s-39.1,87.3-87.3,87.3S312.7,348.2,312.7,300
				z"/>
		</defs>
		<clipPath id="SVGID_80_">
			<use xlink:href="#SVGID_79_"  style="overflow:visible;"/>
		</clipPath>
		<rect x="448" y="-61.5" class="st39" width="2" height="800"/>
	</g>
	<g>
		<defs>
			<path id="SVGID_81_" d="M668.9,300c0-148.5-120.4-268.9-268.9-268.9S131.1,151.5,131.1,300S251.5,568.9,400,568.9
				S668.9,448.5,668.9,300z M312.7,300c0-48.2,39.1-87.3,87.3-87.3s87.3,39.1,87.3,87.3s-39.1,87.3-87.3,87.3S312.7,348.2,312.7,300
				z"/>
		</defs>
		<clipPath id="SVGID_82_">
			<use xlink:href="#SVGID_81_"  style="overflow:visible;"/>
		</clipPath>
		<rect x="442" y="-61.5" class="st40" width="2" height="800"/>
	</g>
	<g>
		<defs>
			<path id="SVGID_83_" d="M668.9,300c0-148.5-120.4-268.9-268.9-268.9S131.1,151.5,131.1,300S251.5,568.9,400,568.9
				S668.9,448.5,668.9,300z M312.7,300c0-48.2,39.1-87.3,87.3-87.3s87.3,39.1,87.3,87.3s-39.1,87.3-87.3,87.3S312.7,348.2,312.7,300
				z"/>
		</defs>
		<clipPath id="SVGID_84_">
			<use xlink:href="#SVGID_83_"  style="overflow:visible;"/>
		</clipPath>
		<rect x="436" y="-61.5" class="st41" width="2" height="800"/>
	</g>
	<g>
		<defs>
			<path id="SVGID_85_" d="M668.9,300c0-148.5-120.4-268.9-268.9-268.9S131.1,151.5,131.1,300S251.5,568.9,400,568.9
				S668.9,448.5,668.9,300z M312.7,300c0-48.2,39.1-87.3,87.3-87.3s87.3,39.1,87.3,87.3s-39.1,87.3-87.3,87.3S312.7,348.2,312.7,300
				z"/>
		</defs>
		<clipPath id="SVGID_86_">
			<use xlink:href="#SVGID_85_"  style="overflow:visible;"/>
		</clipPath>
		<rect x="430" y="-61.5" class="st42" width="2" height="800"/>
	</g>
	<g>
		<defs>
			<path id="SVGID_87_" d="M668.9,300c0-148.5-120.4-268.9-268.9-268.9S131.1,151.5,131.1,300S251.5,568.9,400,568.9
				S668.9,448.5,668.9,300z M312.7,300c0-48.2,39.1-87.3,87.3-87.3s87.3,39.1,87.3,87.3s-39.1,87.3-87.3,87.3S312.7,348.2,312.7,300
				z"/>
		</defs>
		<clipPath id="SVGID_88_">
			<use xlink:href="#SVGID_87_"  style="overflow:visible;"/>
		</clipPath>
		<rect x="424" y="-61.5" class="st43" width="2" height="800"/>
	</g>
	<g>
		<defs>
			<path id="SVGID_89_" d="M668.9,300c0-148.5-120.4-268.9-268.9-268.9S131.1,151.5,131.1,300S251.5,568.9,400,568.9
				S668.9,448.5,668.9,300z M312.7,300c0-48.2,39.1-87.3,87.3-87.3s87.3,39.1,87.3,87.3s-39.1,87.3-87.3,87.3S312.7,348.2,312.7,300
				z"/>
		</defs>
		<clipPath id="SVGID_90_">
			<use xlink:href="#SVGID_89_"  style="overflow:visible;"/>
		</clipPath>
		<rect x="418" y="-61.5" class="st44" width="2" height="800"/>
	</g>
	<g>
		<defs>
			<path id="SVGID_91_" d="M668.9,300c0-148.5-120.4-268.9-268.9-268.9S131.1,151.5,131.1,300S251.5,568.9,400,568.9
				S668.9,448.5,668.9,300z M312.7,300c0-48.2,39.1-87.3,87.3-87.3s87.3,39.1,87.3,87.3s-39.1,87.3-87.3,87.3S312.7,348.2,312.7,300
				z"/>
		</defs>
		<clipPath id="SVGID_92_">
			<use xlink:href="#SVGID_91_"  style="overflow:visible;"/>
		</clipPath>
		<rect x="412" y="-61.5" class="st45" width="2" height="800"/>
	</g>
	<g>
		<defs>
			<path id="SVGID_93_" d="M668.9,300c0-148.5-120.4-268.9-268.9-268.9S131.1,151.5,131.1,300S251.5,568.9,400,568.9
				S668.9,448.5,668.9,300z M312.7,300c0-48.2,39.1-87.3,87.3-87.3s87.3,39.1,87.3,87.3s-39.1,87.3-87.3,87.3S312.7,348.2,312.7,300
				z"/>
		</defs>
		<clipPath id="SVGID_94_">
			<use xlink:href="#SVGID_93_"  style="overflow:visible;"/>
		</clipPath>
		<rect x="406" y="-61.5" class="st46" width="2" height="800"/>
	</g>
	<g>
		<defs>
			<path id="SVGID_95_" d="M668.9,300c0-148.5-120.4-268.9-268.9-268.9S131.1,151.5,131.1,300S251.5,568.9,400,568.9
				S668.9,448.5,668.9,300z M312.7,300c0-48.2,39.1-87.3,87.3-87.3s87.3,39.1,87.3,87.3s-39.1,87.3-87.3,87.3S312.7,348.2,312.7,300
				z"/>
		</defs>
		<clipPath id="SVGID_96_">
			<use xlink:href="#SVGID_95_"  style="overflow:visible;"/>
		</clipPath>
		<rect x="400" y="-61.5" class="st47" width="2" height="800"/>
	</g>
	<g>
		<defs>
			<path id="SVGID_97_" d="M668.9,300c0-148.5-120.4-268.9-268.9-268.9S131.1,151.5,131.1,300S251.5,568.9,400,568.9
				S668.9,448.5,668.9,300z M312.7,300c0-48.2,39.1-87.3,87.3-87.3s87.3,39.1,87.3,87.3s-39.1,87.3-87.3,87.3S312.7,348.2,312.7,300
				z"/>
		</defs>
		<clipPath id="SVGID_98_">
			<use xlink:href="#SVGID_97_"  style="overflow:visible;"/>
		</clipPath>
		<rect x="394" y="-61.5" class="st48" width="2" height="800"/>
	</g>
	<g>
		<defs>
			<path id="SVGID_99_" d="M668.9,300c0-148.5-120.4-268.9-268.9-268.9S131.1,151.5,131.1,300S251.5,568.9,400,568.9
				S668.9,448.5,668.9,300z M312.7,300c0-48.2,39.1-87.3,87.3-87.3s87.3,39.1,87.3,87.3s-39.1,87.3-87.3,87.3S312.7,348.2,312.7,300
				z"/>
		</defs>
		<clipPath id="SVGID_100_">
			<use xlink:href="#SVGID_99_"  style="overflow:visible;"/>
		</clipPath>
		<rect x="388" y="-61.5" class="st49" width="2" height="800"/>
	</g>
	<g>
		<defs>
			<path id="SVGID_101_" d="M668.9,300c0-148.5-120.4-268.9-268.9-268.9S131.1,151.5,131.1,300S251.5,568.9,400,568.9
				S668.9,448.5,668.9,300z M312.7,300c0-48.2,39.1-87.3,87.3-87.3s87.3,39.1,87.3,87.3s-39.1,87.3-87.3,87.3S312.7,348.2,312.7,300
				z"/>
		</defs>
		<clipPath id="SVGID_102_">
			<use xlink:href="#SVGID_101_"  style="overflow:visible;"/>
		</clipPath>
		<rect x="382" y="-61.5" class="st50" width="2" height="800"/>
	</g>
	<g>
		<defs>
			<path id="SVGID_103_" d="M668.9,300c0-148.5-120.4-268.9-268.9-268.9S131.1,151.5,131.1,300S251.5,568.9,400,568.9
				S668.9,448.5,668.9,300z M312.7,300c0-48.2,39.1-87.3,87.3-87.3s87.3,39.1,87.3,87.3s-39.1,87.3-87.3,87.3S312.7,348.2,312.7,300
				z"/>
		</defs>
		<clipPath id="SVGID_104_">
			<use xlink:href="#SVGID_103_"  style="overflow:visible;"/>
		</clipPath>
		<rect x="376" y="-61.5" class="st51" width="2" height="800"/>
	</g>
	<g>
		<defs>
			<path id="SVGID_105_" d="M668.9,300c0-148.5-120.4-268.9-268.9-268.9S131.1,151.5,131.1,300S251.5,568.9,400,568.9
				S668.9,448.5,668.9,300z M312.7,300c0-48.2,39.1-87.3,87.3-87.3s87.3,39.1,87.3,87.3s-39.1,87.3-87.3,87.3S312.7,348.2,312.7,300
				z"/>
		</defs>
		<clipPath id="SVGID_106_">
			<use xlink:href="#SVGID_105_"  style="overflow:visible;"/>
		</clipPath>
		<rect x="370" y="-61.5" class="st52" width="2" height="800"/>
	</g>
	<g>
		<defs>
			<path id="SVGID_107_" d="M668.9,300c0-148.5-120.4-268.9-268.9-268.9S131.1,151.5,131.1,300S251.5,568.9,400,568.9
				S668.9,448.5,668.9,300z M312.7,300c0-48.2,39.1-87.3,87.3-87.3s87.3,39.1,87.3,87.3s-39.1,87.3-87.3,87.3S312.7,348.2,312.7,300
				z"/>
		</defs>
		<clipPath id="SVGID_108_">
			<use xlink:href="#SVGID_107_"  style="overflow:visible;"/>
		</clipPath>
		<rect x="364" y="-61.5" class="st53" width="2" height="800"/>
	</g>
	<g>
		<defs>
			<path id="SVGID_109_" d="M668.9,300c0-148.5-120.4-268.9-268.9-268.9S131.1,151.5,131.1,300S251.5,568.9,400,568.9
				S668.9,448.5,668.9,300z M312.7,300c0-48.2,39.1-87.3,87.3-87.3s87.3,39.1,87.3,87.3s-39.1,87.3-87.3,87.3S312.7,348.2,312.7,300
				z"/>
		</defs>
		<clipPath id="SVGID_110_">
			<use xlink:href="#SVGID_109_"  style="overflow:visible;"/>
		</clipPath>
		<rect x="358" y="-61.5" class="st54" width="2" height="800"/>
	</g>
	<g>
		<defs>
			<path id="SVGID_111_" d="M668.9,300c0-148.5-120.4-268.9-268.9-268.9S131.1,151.5,131.1,300S251.5,568.9,400,568.9
				S668.9,448.5,668.9,300z M312.7,300c0-48.2,39.1-87.3,87.3-87.3s87.3,39.1,87.3,87.3s-39.1,87.3-87.3,87.3S312.7,348.2,312.7,300
				z"/>
		</defs>
		<clipPath id="SVGID_112_">
			<use xlink:href="#SVGID_111_"  style="overflow:visible;"/>
		</clipPath>
		<rect x="352" y="-61.5" class="st55" width="2" height="800"/>
	</g>
	<g>
		<defs>
			<path id="SVGID_113_" d="M668.9,300c0-148.5-120.4-268.9-268.9-268.9S131.1,151.5,131.1,300S251.5,568.9,400,568.9
				S668.9,448.5,668.9,300z M312.7,300c0-48.2,39.1-87.3,87.3-87.3s87.3,39.1,87.3,87.3s-39.1,87.3-87.3,87.3S312.7,348.2,312.7,300
				z"/>
		</defs>
		<clipPath id="SVGID_114_">
			<use xlink:href="#SVGID_113_"  style="overflow:visible;"/>
		</clipPath>
		<rect x="346" y="-61.5" class="st56" width="2" height="800"/>
	</g>
	<g>
		<defs>
			<path id="SVGID_115_" d="M668.9,300c0-148.5-120.4-268.9-268.9-268.9S131.1,151.5,131.1,300S251.5,568.9,400,568.9
				S668.9,448.5,668.9,300z M312.7,300c0-48.2,39.1-87.3,87.3-87.3s87.3,39.1,87.3,87.3s-39.1,87.3-87.3,87.3S312.7,348.2,312.7,300
				z"/>
		</defs>
		<clipPath id="SVGID_116_">
			<use xlink:href="#SVGID_115_"  style="overflow:visible;"/>
		</clipPath>
		<rect x="340" y="-61.5" class="st57" width="2" height="800"/>
	</g>
	<g>
		<defs>
			<path id="SVGID_117_" d="M668.9,300c0-148.5-120.4-268.9-268.9-268.9S131.1,151.5,131.1,300S251.5,568.9,400,568.9
				S668.9,448.5,668.9,300z M312.7,300c0-48.2,39.1-87.3,87.3-87.3s87.3,39.1,87.3,87.3s-39.1,87.3-87.3,87.3S312.7,348.2,312.7,300
				z"/>
		</defs>
		<clipPath id="SVGID_118_">
			<use xlink:href="#SVGID_117_"  style="overflow:visible;"/>
		</clipPath>
		<rect x="334" y="-61.5" class="st58" width="2" height="800"/>
	</g>
	<g>
		<defs>
			<path id="SVGID_119_" d="M668.9,300c0-148.5-120.4-268.9-268.9-268.9S131.1,151.5,131.1,300S251.5,568.9,400,568.9
				S668.9,448.5,668.9,300z M312.7,300c0-48.2,39.1-87.3,87.3-87.3s87.3,39.1,87.3,87.3s-39.1,87.3-87.3,87.3S312.7,348.2,312.7,300
				z"/>
		</defs>
		<clipPath id="SVGID_120_">
			<use xlink:href="#SVGID_119_"  style="overflow:visible;"/>
		</clipPath>
		<rect x="328" y="-61.5" class="st59" width="2" height="800"/>
	</g>
	<g>
		<defs>
			<path id="SVGID_121_" d="M668.9,300c0-148.5-120.4-268.9-268.9-268.9S131.1,151.5,131.1,300S251.5,568.9,400,568.9
				S668.9,448.5,668.9,300z M312.7,300c0-48.2,39.1-87.3,87.3-87.3s87.3,39.1,87.3,87.3s-39.1,87.3-87.3,87.3S312.7,348.2,312.7,300
				z"/>
		</defs>
		<clipPath id="SVGID_122_">
			<use xlink:href="#SVGID_121_"  style="overflow:visible;"/>
		</clipPath>
		<rect x="322" y="-61.5" class="st60" width="2" height="800"/>
	</g>
	<g>
		<defs>
			<path id="SVGID_123_" d="M668.9,300c0-148.5-120.4-268.9-268.9-268.9S131.1,151.5,131.1,300S251.5,568.9,400,568.9
				S668.9,448.5,668.9,300z M312.7,300c0-48.2,39.1-87.3,87.3-87.3s87.3,39.1,87.3,87.3s-39.1,87.3-87.3,87.3S312.7,348.2,312.7,300
				z"/>
		</defs>
		<clipPath id="SVGID_124_">
			<use xlink:href="#SVGID_123_"  style="overflow:visible;"/>
		</clipPath>
		<rect x="316" y="-61.5" class="st61" width="2" height="800"/>
	</g>
	<g>
		<defs>
			<path id="SVGID_125_" d="M668.9,300c0-148.5-120.4-268.9-268.9-268.9S131.1,151.5,131.1,300S251.5,568.9,400,568.9
				S668.9,448.5,668.9,300z M312.7,300c0-48.2,39.1-87.3,87.3-87.3s87.3,39.1,87.3,87.3s-39.1,87.3-87.3,87.3S312.7,348.2,312.7,300
				z"/>
		</defs>
		<clipPath id="SVGID_126_">
			<use xlink:href="#SVGID_125_"  style="overflow:visible;"/>
		</clipPath>
		<rect x="310" y="-61.5" class="st62" width="2" height="800"/>
	</g>
	<g>
		<defs>
			<path id="SVGID_127_" d="M668.9,300c0-148.5-120.4-268.9-268.9-268.9S131.1,151.5,131.1,300S251.5,568.9,400,568.9
				S668.9,448.5,668.9,300z M312.7,300c0-48.2,39.1-87.3,87.3-87.3s87.3,39.1,87.3,87.3s-39.1,87.3-87.3,87.3S312.7,348.2,312.7,300
				z"/>
		</defs>
		<clipPath id="SVGID_128_">
			<use xlink:href="#SVGID_127_"  style="overflow:visible;"/>
		</clipPath>
		<rect x="304" y="-61.5" class="st63" width="2" height="800"/>
	</g>
	<g>
		<defs>
			<path id="SVGID_129_" d="M668.9,300c0-148.5-120.4-268.9-268.9-268.9S131.1,151.5,131.1,300S251.5,568.9,400,568.9
				S668.9,448.5,668.9,300z M312.7,300c0-48.2,39.1-87.3,87.3-87.3s87.3,39.1,87.3,87.3s-39.1,87.3-87.3,87.3S312.7,348.2,312.7,300
				z"/>
		</defs>
		<clipPath id="SVGID_130_">
			<use xlink:href="#SVGID_129_"  style="overflow:visible;"/>
		</clipPath>
		<rect x="298" y="-61.5" class="st64" width="2" height="800"/>
	</g>
	<g>
		<defs>
			<path id="SVGID_131_" d="M668.9,300c0-148.5-120.4-268.9-268.9-268.9S131.1,151.5,131.1,300S251.5,568.9,400,568.9
				S668.9,448.5,668.9,300z M312.7,300c0-48.2,39.1-87.3,87.3-87.3s87.3,39.1,87.3,87.3s-39.1,87.3-87.3,87.3S312.7,348.2,312.7,300
				z"/>
		</defs>
		<clipPath id="SVGID_132_">
			<use xlink:href="#SVGID_131_"  style="overflow:visible;"/>
		</clipPath>
		<rect x="292" y="-61.5" class="st65" width="2" height="800"/>
	</g>
	<g>
		<defs>
			<path id="SVGID_133_" d="M668.9,300c0-148.5-120.4-268.9-268.9-268.9S131.1,151.5,131.1,300S251.5,568.9,400,568.9
				S668.9,448.5,668.9,300z M312.7,300c0-48.2,39.1-87.3,87.3-87.3s87.3,39.1,87.3,87.3s-39.1,87.3-87.3,87.3S312.7,348.2,312.7,300
				z"/>
		</defs>
		<clipPath id="SVGID_134_">
			<use xlink:href="#SVGID_133_"  style="overflow:visible;"/>
		</clipPath>
		<rect x="286" y="-61.5" class="st66" width="2" height="800"/>
	</g>
	<g>
		<defs>
			<path id="SVGID_135_" d="M668.9,300c0-148.5-120.4-268.9-268.9-268.9S131.1,151.5,131.1,300S251.5,568.9,400,568.9
				S668.9,448.5,668.9,300z M312.7,300c0-48.2,39.1-87.3,87.3-87.3s87.3,39.1,87.3,87.3s-39.1,87.3-87.3,87.3S312.7,348.2,312.7,300
				z"/>
		</defs>
		<clipPath id="SVGID_136_">
			<use xlink:href="#SVGID_135_"  style="overflow:visible;"/>
		</clipPath>
		<rect x="280" y="-61.5" class="st67" width="2" height="800"/>
	</g>
	<g>
		<defs>
			<path id="SVGID_137_" d="M668.9,300c0-148.5-120.4-268.9-268.9-268.9S131.1,151.5,131.1,300S251.5,568.9,400,568.9
				S668.9,448.5,668.9,300z M312.7,300c0-48.2,39.1-87.3,87.3-87.3s87.3,39.1,87.3,87.3s-39.1,87.3-87.3,87.3S312.7,348.2,312.7,300
				z"/>
		</defs>
		<clipPath id="SVGID_138_">
			<use xlink:href="#SVGID_137_"  style="overflow:visible;"/>
		</clipPath>
		<rect x="274" y="-61.5" class="st68" width="2" height="800"/>
	</g>
	<g>
		<defs>
			<path id="SVGID_139_" d="M668.9,300c0-148.5-120.4-268.9-268.9-268.9S131.1,151.5,131.1,300S251.5,568.9,400,568.9
				S668.9,448.5,668.9,300z M312.7,300c0-48.2,39.1-87.3,87.3-87.3s87.3,39.1,87.3,87.3s-39.1,87.3-87.3,87.3S312.7,348.2,312.7,300
				z"/>
		</defs>
		<clipPath id="SVGID_140_">
			<use xlink:href="#SVGID_139_"  style="overflow:visible;"/>
		</clipPath>
		<rect x="268" y="-61.5" class="st69" width="2" height="800"/>
	</g>
	<g>
		<defs>
			<path id="SVGID_141_" d="M668.9,300c0-148.5-120.4-268.9-268.9-268.9S131.1,151.5,131.1,300S251.5,568.9,400,568.9
				S668.9,448.5,668.9,300z M312.7,300c0-48.2,39.1-87.3,87.3-87.3s87.3,39.1,87.3,87.3s-39.1,87.3-87.3,87.3S312.7,348.2,312.7,300
				z"/>
		</defs>
		<clipPath id="SVGID_142_">
			<use xlink:href="#SVGID_141_"  style="overflow:visible;"/>
		</clipPath>
		<rect x="262" y="-61.5" class="st70" width="2" height="800"/>
	</g>
	<g>
		<defs>
			<path id="SVGID_143_" d="M668.9,300c0-148.5-120.4-268.9-268.9-268.9S131.1,151.5,131.1,300S251.5,568.9,400,568.9
				S668.9,448.5,668.9,300z M312.7,300c0-48.2,39.1-87.3,87.3-87.3s87.3,39.1,87.3,87.3s-39.1,87.3-87.3,87.3S312.7,348.2,312.7,300
				z"/>
		</defs>
		<clipPath id="SVGID_144_">
			<use xlink:href="#SVGID_143_"  style="overflow:visible;"/>
		</clipPath>
		<rect x="256" y="-61.5" class="st71" width="2" height="800"/>
	</g>
	<g>
		<defs>
			<path id="SVGID_145_" d="M668.9,300c0-148.5-120.4-268.9-268.9-268.9S131.1,151.5,131.1,300S251.5,568.9,400,568.9
				S668.9,448.5,668.9,300z M312.7,300c0-48.2,39.1-87.3,87.3-87.3s87.3,39.1,87.3,87.3s-39.1,87.3-87.3,87.3S312.7,348.2,312.7,300
				z"/>
		</defs>
		<clipPath id="SVGID_146_">
			<use xlink:href="#SVGID_145_"  style="overflow:visible;"/>
		</clipPath>
		<rect x="250" y="-61.5" class="st72" width="2" height="800"/>
	</g>
	<g>
		<defs>
			<path id="SVGID_147_" d="M668.9,300c0-148.5-120.4-268.9-268.9-268.9S131.1,151.5,131.1,300S251.5,568.9,400,568.9
				S668.9,448.5,668.9,300z M312.7,300c0-48.2,39.1-87.3,87.3-87.3s87.3,39.1,87.3,87.3s-39.1,87.3-87.3,87.3S312.7,348.2,312.7,300
				z"/>
		</defs>
		<clipPath id="SVGID_148_">
			<use xlink:href="#SVGID_147_"  style="overflow:visible;"/>
		</clipPath>
		<rect x="244" y="-61.5" class="st73" width="2" height="800"/>
	</g>
	<g>
		<defs>
			<path id="SVGID_149_" d="M668.9,300c0-148.5-120.4-268.9-268.9-268.9S131.1,151.5,131.1,300S251.5,568.9,400,568.9
				S668.9,448.5,668.9,300z M312.7,300c0-48.2,39.1-87.3,87.3-87.3s87.3,39.1,87.3,87.3s-39.1,87.3-87.3,87.3S312.7,348.2,312.7,300
				z"/>
		</defs>
		<clipPath id="SVGID_150_">
			<use xlink:href="#SVGID_149_"  style="overflow:visible;"/>
		</clipPath>
		<rect x="238" y="-61.5" class="st74" width="2" height="800"/>
	</g>
	<g>
		<defs>
			<path id="SVGID_151_" d="M668.9,300c0-148.5-120.4-268.9-268.9-268.9S131.1,151.5,131.1,300S251.5,568.9,400,568.9
				S668.9,448.5,668.9,300z M312.7,300c0-48.2,39.1-87.3,87.3-87.3s87.3,39.1,87.3,87.3s-39.1,87.3-87.3,87.3S312.7,348.2,312.7,300
				z"/>
		</defs>
		<clipPath id="SVGID_152_">
			<use xlink:href="#SVGID_151_"  style="overflow:visible;"/>
		</clipPath>
		<rect x="232" y="-61.5" class="st75" width="2" height="800"/>
	</g>
	<g>
		<defs>
			<path id="SVGID_153_" d="M668.9,300c0-148.5-120.4-268.9-268.9-268.9S131.1,151.5,131.1,300S251.5,568.9,400,568.9
				S668.9,448.5,668.9,300z M312.7,300c0-48.2,39.1-87.3,87.3-87.3s87.3,39.1,87.3,87.3s-39.1,87.3-87.3,87.3S312.7,348.2,312.7,300
				z"/>
		</defs>
		<clipPath id="SVGID_154_">
			<use xlink:href="#SVGID_153_"  style="overflow:visible;"/>
		</clipPath>
		<rect x="226" y="-61.5" class="st76" width="2" height="800"/>
	</g>
	<g>
		<defs>
			<path id="SVGID_155_" d="M668.9,300c0-148.5-120.4-268.9-268.9-268.9S131.1,151.5,131.1,300S251.5,568.9,400,568.9
				S668.9,448.5,668.9,300z M312.7,300c0-48.2,39.1-87.3,87.3-87.3s87.3,39.1,87.3,87.3s-39.1,87.3-87.3,87.3S312.7,348.2,312.7,300
				z"/>
		</defs>
		<clipPath id="SVGID_156_">
			<use xlink:href="#SVGID_155_"  style="overflow:visible;"/>
		</clipPath>
		<rect x="220" y="-61.5" class="st77" width="2" height="800"/>
	</g>
	<g>
		<defs>
			<path id="SVGID_157_" d="M668.9,300c0-148.5-120.4-268.9-268.9-268.9S131.1,151.5,131.1,300S251.5,568.9,400,568.9
				S668.9,448.5,668.9,300z M312.7,300c0-48.2,39.1-87.3,87.3-87.3s87.3,39.1,87.3,87.3s-39.1,87.3-87.3,87.3S312.7,348.2,312.7,300
				z"/>
		</defs>
		<clipPath id="SVGID_158_">
			<use xlink:href="#SVGID_157_"  style="overflow:visible;"/>
		</clipPath>
		<rect x="214" y="-61.5" class="st78" width="2" height="800"/>
	</g>
	<g>
		<defs>
			<path id="SVGID_159_" d="M668.9,300c0-148.5-120.4-268.9-268.9-268.9S131.1,151.5,131.1,300S251.5,568.9,400,568.9
				S668.9,448.5,668.9,300z M312.7,300c0-48.2,39.1-87.3,87.3-87.3s87.3,39.1,87.3,87.3s-39.1,87.3-87.3,87.3S312.7,348.2,312.7,300
				z"/>
		</defs>
		<clipPath id="SVGID_160_">
			<use xlink:href="#SVGID_159_"  style="overflow:visible;"/>
		</clipPath>
		<rect x="208" y="-61.5" class="st79" width="2" height="800"/>
	</g>
	<g>
		<defs>
			<path id="SVGID_161_" d="M668.9,300c0-148.5-120.4-268.9-268.9-268.9S131.1,151.5,131.1,300S251.5,568.9,400,568.9
				S668.9,448.5,668.9,300z M312.7,300c0-48.2,39.1-87.3,87.3-87.3s87.3,39.1,87.3,87.3s-39.1,87.3-87.3,87.3S312.7,348.2,312.7,300
				z"/>
		</defs>
		<clipPath id="SVGID_162_">
			<use xlink:href="#SVGID_161_"  style="overflow:visible;"/>
		</clipPath>
		<rect x="202" y="-61.5" class="st80" width="2" height="800"/>
	</g>
	<g>
		<defs>
			<path id="SVGID_163_" d="M668.9,300c0-148.5-120.4-268.9-268.9-268.9S131.1,151.5,131.1,300S251.5,568.9,400,568.9
				S668.9,448.5,668.9,300z M312.7,300c0-48.2,39.1-87.3,87.3-87.3s87.3,39.1,87.3,87.3s-39.1,87.3-87.3,87.3S312.7,348.2,312.7,300
				z"/>
		</defs>
		<clipPath id="SVGID_164_">
			<use xlink:href="#SVGID_163_"  style="overflow:visible;"/>
		</clipPath>
		<rect x="196" y="-61.5" class="st81" width="2" height="800"/>
	</g>
	<g>
		<defs>
			<path id="SVGID_165_" d="M668.9,300c0-148.5-120.4-268.9-268.9-268.9S131.1,151.5,131.1,300S251.5,568.9,400,568.9
				S668.9,448.5,668.9,300z M312.7,300c0-48.2,39.1-87.3,87.3-87.3s87.3,39.1,87.3,87.3s-39.1,87.3-87.3,87.3S312.7,348.2,312.7,300
				z"/>
		</defs>
		<clipPath id="SVGID_166_">
			<use xlink:href="#SVGID_165_"  style="overflow:visible;"/>
		</clipPath>
		<rect x="190" y="-61.5" class="st82" width="2" height="800"/>
	</g>
	<g>
		<defs>
			<path id="SVGID_167_" d="M668.9,300c0-148.5-120.4-268.9-268.9-268.9S131.1,151.5,131.1,300S251.5,568.9,400,568.9
				S668.9,448.5,668.9,300z M312.7,300c0-48.2,39.1-87.3,87.3-87.3s87.3,39.1,87.3,87.3s-39.1,87.3-87.3,87.3S312.7,348.2,312.7,300
				z"/>
		</defs>
		<clipPath id="SVGID_168_">
			<use xlink:href="#SVGID_167_"  style="overflow:visible;"/>
		</clipPath>
		<rect x="184" y="-61.5" class="st83" width="2" height="800"/>
	</g>
	<g>
		<defs>
			<path id="SVGID_169_" d="M668.9,300c0-148.5-120.4-268.9-268.9-268.9S131.1,151.5,131.1,300S251.5,568.9,400,568.9
				S668.9,448.5,668.9,300z M312.7,300c0-48.2,39.1-87.3,87.3-87.3s87.3,39.1,87.3,87.3s-39.1,87.3-87.3,87.3S312.7,348.2,312.7,300
				z"/>
		</defs>
		<clipPath id="SVGID_170_">
			<use xlink:href="#SVGID_169_"  style="overflow:visible;"/>
		</clipPath>
		<rect x="178" y="-61.5" class="st84" width="2" height="800"/>
	</g>
	<g>
		<defs>
			<path id="SVGID_171_" d="M668.9,300c0-148.5-120.4-268.9-268.9-268.9S131.1,151.5,131.1,300S251.5,568.9,400,568.9
				S668.9,448.5,668.9,300z M312.7,300c0-48.2,39.1-87.3,87.3-87.3s87.3,39.1,87.3,87.3s-39.1,87.3-87.3,87.3S312.7,348.2,312.7,300
				z"/>
		</defs>
		<clipPath id="SVGID_172_">
			<use xlink:href="#SVGID_171_"  style="overflow:visible;"/>
		</clipPath>
		<rect x="172" y="-61.5" class="st85" width="2" height="800"/>
	</g>
	<g>
		<defs>
			<path id="SVGID_173_" d="M668.9,300c0-148.5-120.4-268.9-268.9-268.9S131.1,151.5,131.1,300S251.5,568.9,400,568.9
				S668.9,448.5,668.9,300z M312.7,300c0-48.2,39.1-87.3,87.3-87.3s87.3,39.1,87.3,87.3s-39.1,87.3-87.3,87.3S312.7,348.2,312.7,300
				z"/>
		</defs>
		<clipPath id="SVGID_174_">
			<use xlink:href="#SVGID_173_"  style="overflow:visible;"/>
		</clipPath>
		<rect x="166" y="-61.5" class="st86" width="2" height="800"/>
	</g>
	<g>
		<defs>
			<path id="SVGID_175_" d="M668.9,300c0-148.5-120.4-268.9-268.9-268.9S131.1,151.5,131.1,300S251.5,568.9,400,568.9
				S668.9,448.5,668.9,300z M312.7,300c0-48.2,39.1-87.3,87.3-87.3s87.3,39.1,87.3,87.3s-39.1,87.3-87.3,87.3S312.7,348.2,312.7,300
				z"/>
		</defs>
		<clipPath id="SVGID_176_">
			<use xlink:href="#SVGID_175_"  style="overflow:visible;"/>
		</clipPath>
		<rect x="160" y="-61.5" class="st87" width="2" height="800"/>
	</g>
	<g>
		<defs>
			<path id="SVGID_177_" d="M668.9,300c0-148.5-120.4-268.9-268.9-268.9S131.1,151.5,131.1,300S251.5,568.9,400,568.9
				S668.9,448.5,668.9,300z M312.7,300c0-48.2,39.1-87.3,87.3-87.3s87.3,39.1,87.3,87.3s-39.1,87.3-87.3,87.3S312.7,348.2,312.7,300
				z"/>
		</defs>
		<clipPath id="SVGID_178_">
			<use xlink:href="#SVGID_177_"  style="overflow:visible;"/>
		</clipPath>
		<rect x="154" y="-61.5" class="st88" width="2" height="800"/>
	</g>
	<g>
		<defs>
			<path id="SVGID_179_" d="M668.9,300c0-148.5-120.4-268.9-268.9-268.9S131.1,151.5,131.1,300S251.5,568.9,400,568.9
				S668.9,448.5,668.9,300z M312.7,300c0-48.2,39.1-87.3,87.3-87.3s87.3,39.1,87.3,87.3s-39.1,87.3-87.3,87.3S312.7,348.2,312.7,300
				z"/>
		</defs>
		<clipPath id="SVGID_180_">
			<use xlink:href="#SVGID_179_"  style="overflow:visible;"/>
		</clipPath>
		<rect x="148" y="-61.5" class="st89" width="2" height="800"/>
	</g>
	<g>
		<defs>
			<path id="SVGID_181_" d="M668.9,300c0-148.5-120.4-268.9-268.9-268.9S131.1,151.5,131.1,300S251.5,568.9,400,568.9
				S668.9,448.5,668.9,300z M312.7,300c0-48.2,39.1-87.3,87.3-87.3s87.3,39.1,87.3,87.3s-39.1,87.3-87.3,87.3S312.7,348.2,312.7,300
				z"/>
		</defs>
		<clipPath id="SVGID_182_">
			<use xlink:href="#SVGID_181_"  style="overflow:visible;"/>
		</clipPath>
		<rect x="142" y="-61.5" class="st90" width="2" height="800"/>
	</g>
	<g>
		<defs>
			<path id="SVGID_183_" d="M668.9,300c0-148.5-120.4-268.9-268.9-268.9S131.1,151.5,131.1,300S251.5,568.9,400,568.9
				S668.9,448.5,668.9,300z M312.7,300c0-48.2,39.1-87.3,87.3-87.3s87.3,39.1,87.3,87.3s-39.1,87.3-87.3,87.3S312.7,348.2,312.7,300
				z"/>
		</defs>
		<clipPath id="SVGID_184_">
			<use xlink:href="#SVGID_183_"  style="overflow:visible;"/>
		</clipPath>
		<rect x="136" y="-61.5" class="st91" width="2" height="800"/>
	</g>
	<g>
		<defs>
			<path id="SVGID_185_" d="M668.9,300c0-148.5-120.4-268.9-268.9-268.9S131.1,151.5,131.1,300S251.5,568.9,400,568.9
				S668.9,448.5,668.9,300z M312.7,300c0-48.2,39.1-87.3,87.3-87.3s87.3,39.1,87.3,87.3s-39.1,87.3-87.3,87.3S312.7,348.2,312.7,300
				z"/>
		</defs>
		<clipPath id="SVGID_186_">
			<use xlink:href="#SVGID_185_"  style="overflow:visible;"/>
		</clipPath>
		<rect x="130" y="-61.5" class="st92" width="2" height="800"/>
	</g>
	<g>
		<defs>
			<path id="SVGID_187_" d="M668.9,300c0-148.5-120.4-268.9-268.9-268.9S131.1,151.5,131.1,300S251.5,568.9,400,568.9
				S668.9,448.5,668.9,300z M312.7,300c0-48.2,39.1-87.3,87.3-87.3s87.3,39.1,87.3,87.3s-39.1,87.3-87.3,87.3S312.7,348.2,312.7,300
				z"/>
		</defs>
		<clipPath id="SVGID_188_">
			<use xlink:href="#SVGID_187_"  style="overflow:visible;"/>
		</clipPath>
		<rect x="124" y="-61.5" class="st93" width="2" height="800"/>
	</g>
	<g>
		<defs>
			<path id="SVGID_189_" d="M668.9,300c0-148.5-120.4-268.9-268.9-268.9S131.1,151.5,131.1,300S251.5,568.9,400,568.9
				S668.9,448.5,668.9,300z M312.7,300c0-48.2,39.1-87.3,87.3-87.3s87.3,39.1,87.3,87.3s-39.1,87.3-87.3,87.3S312.7,348.2,312.7,300
				z"/>
		</defs>
		<clipPath id="SVGID_190_">
			<use xlink:href="#SVGID_189_"  style="overflow:visible;"/>
		</clipPath>
		<rect x="118" y="-61.5" class="st94" width="2" height="800"/>
	</g>
	<g>
		<defs>
			<path id="SVGID_191_" d="M668.9,300c0-148.5-120.4-268.9-268.9-268.9S131.1,151.5,131.1,300S251.5,568.9,400,568.9
				S668.9,448.5,668.9,300z M312.7,300c0-48.2,39.1-87.3,87.3-87.3s87.3,39.1,87.3,87.3s-39.1,87.3-87.3,87.3S312.7,348.2,312.7,300
				z"/>
		</defs>
		<clipPath id="SVGID_192_">
			<use xlink:href="#SVGID_191_"  style="overflow:visible;"/>
		</clipPath>
		<rect x="112" y="-61.5" class="st95" width="2" height="800"/>
	</g>
	<g>
		<defs>
			<path id="SVGID_193_" d="M668.9,300c0-148.5-120.4-268.9-268.9-268.9S131.1,151.5,131.1,300S251.5,568.9,400,568.9
				S668.9,448.5,668.9,300z M312.7,300c0-48.2,39.1-87.3,87.3-87.3s87.3,39.1,87.3,87.3s-39.1,87.3-87.3,87.3S312.7,348.2,312.7,300
				z"/>
		</defs>
		<clipPath id="SVGID_194_">
			<use xlink:href="#SVGID_193_"  style="overflow:visible;"/>
		</clipPath>
		<rect x="106" y="-61.5" class="st96" width="2" height="800"/>
	</g>
	<g>
		<defs>
			<path id="SVGID_195_" d="M668.9,300c0-148.5-120.4-268.9-268.9-268.9S131.1,151.5,131.1,300S251.5,568.9,400,568.9
				S668.9,448.5,668.9,300z M312.7,300c0-48.2,39.1-87.3,87.3-87.3s87.3,39.1,87.3,87.3s-39.1,87.3-87.3,87.3S312.7,348.2,312.7,300
				z"/>
		</defs>
		<clipPath id="SVGID_196_">
			<use xlink:href="#SVGID_195_"  style="overflow:visible;"/>
		</clipPath>
		<rect x="100" y="-61.5" class="st97" width="2" height="800"/>
	</g>
	<g>
		<defs>
			<path id="SVGID_197_" d="M668.9,300c0-148.5-120.4-268.9-268.9-268.9S131.1,151.5,131.1,300S251.5,568.9,400,568.9
				S668.9,448.5,668.9,300z M312.7,300c0-48.2,39.1-87.3,87.3-87.3s87.3,39.1,87.3,87.3s-39.1,87.3-87.3,87.3S312.7,348.2,312.7,300
				z"/>
		</defs>
		<clipPath id="SVGID_198_">
			<use xlink:href="#SVGID_197_"  style="overflow:visible;"/>
		</clipPath>
		<rect x="94" y="-61.5" class="st98" width="2" height="800"/>
	</g>
	<g>
		<defs>
			<path id="SVGID_199_" d="M668.9,300c0-148.5-120.4-268.9-268.9-268.9S131.1,151.5,131.1,300S251.5,568.9,400,568.9
				S668.9,448.5,668.9,300z M312.7,300c0-48.2,39.1-87.3,87.3-87.3s87.3,39.1,87.3,87.3s-39.1,87.3-87.3,87.3S312.7,348.2,312.7,300
				z"/>
		</defs>
		<clipPath id="SVGID_200_">
			<use xlink:href="#SVGID_199_"  style="overflow:visible;"/>
		</clipPath>
		<rect x="88" y="-61.5" class="st99" width="2" height="800"/>
	</g>
</g>
<path class="st100" d="M1108.6,130.9c-148.5,0-268.9,120.4-268.9,268.9s120.4,268.9,268.9,268.9s268.9-120.4,268.9-268.9
	S1257.1,130.9,1108.6,130.9z M1108.6,487.1c-48.2,0-87.3-39.1-87.3-87.3s39.1-87.3,87.3-87.3c48.2,0,87.3,39.1,87.3,87.3
	S1156.8,487.1,1108.6,487.1z"/>
<rect x="883.4" y="-76.5" class="st101" width="51" height="84"/>
<rect x="858.9" y="7.5" class="st102" width="57.5" height="57.5"/>
<rect x="849.2" y="65" class="st103" width="38.5" height="65.9"/>
<rect x="839.7" y="144.5" class="st100" width="38.5" height="38.5"/>
</svg>
