<?xml version="1.0" encoding="utf-8"?>
<!-- Generator: Adobe Illustrator 22.0.1, SVG Export Plug-In . SVG Version: 6.00 Build 0)  -->
<svg version="1.1" id="レイヤー_1" xmlns="http://www.w3.org/2000/svg" xmlns:xlink="http://www.w3.org/1999/xlink" x="0px"
	 y="0px" width="500px" height="500px" viewBox="0 0 500 500" style="enable-background:new 0 0 500 500;" xml:space="preserve">
<style type="text/css">
	.st0{clip-path:url(#SVGID_3_);fill:none;stroke:#FCE6ED;stroke-miterlimit:10;}
	.st1{fill:none;stroke:#FCE6ED;stroke-miterlimit:10;}
	.st2{clip-path:url(#SVGID_7_);fill:none;stroke:#FCE6ED;stroke-miterlimit:10;}
	.st3{clip-path:url(#SVGID_11_);fill:none;stroke:#FCE6ED;stroke-miterlimit:10;}
	.st4{clip-path:url(#SVGID_15_);fill:none;stroke:#FCE6ED;stroke-miterlimit:10;}
	.st5{clip-path:url(#SVGID_19_);fill:none;stroke:#FCE6ED;stroke-miterlimit:10;}
	.st6{clip-path:url(#SVGID_23_);fill:none;stroke:#FCE6ED;stroke-miterlimit:10;}
	.st7{clip-path:url(#SVGID_27_);fill:none;stroke:#FCE6ED;stroke-miterlimit:10;}
	.st8{clip-path:url(#SVGID_31_);fill:none;stroke:#FCE6ED;stroke-miterlimit:10;}
	.st9{clip-path:url(#SVGID_35_);fill:none;stroke:#FCE6ED;stroke-miterlimit:10;}
	.st10{clip-path:url(#SVGID_39_);fill:none;stroke:#FCE6ED;stroke-miterlimit:10;}
	.st11{clip-path:url(#SVGID_43_);fill:none;stroke:#FCE6ED;stroke-miterlimit:10;}
	.st12{clip-path:url(#SVGID_47_);fill:none;stroke:#FCE6ED;stroke-miterlimit:10;}
	.st13{clip-path:url(#SVGID_51_);fill:none;stroke:#FCE6ED;stroke-miterlimit:10;}
	.st14{clip-path:url(#SVGID_55_);fill:none;stroke:#FCE6ED;stroke-miterlimit:10;}
	.st15{clip-path:url(#SVGID_59_);fill:none;stroke:#FCE6ED;stroke-miterlimit:10;}
	.st16{clip-path:url(#SVGID_63_);fill:none;stroke:#FCE6ED;stroke-miterlimit:10;}
	.st17{clip-path:url(#SVGID_67_);fill:none;stroke:#FCE6ED;stroke-miterlimit:10;}
	.st18{clip-path:url(#SVGID_71_);fill:none;stroke:#FCE6ED;stroke-miterlimit:10;}
	.st19{clip-path:url(#SVGID_75_);fill:none;stroke:#FCE6ED;stroke-miterlimit:10;}
	.st20{clip-path:url(#SVGID_79_);fill:none;stroke:#FCE6ED;stroke-miterlimit:10;}
	.st21{clip-path:url(#SVGID_83_);fill:none;stroke:#FCE6ED;stroke-miterlimit:10;}
	.st22{clip-path:url(#SVGID_87_);fill:none;stroke:#FCE6ED;stroke-miterlimit:10;}
	.st23{clip-path:url(#SVGID_91_);fill:none;stroke:#FCE6ED;stroke-miterlimit:10;}
	.st24{clip-path:url(#SVGID_95_);fill:none;stroke:#FCE6ED;stroke-miterlimit:10;}
	.st25{clip-path:url(#SVGID_99_);fill:none;stroke:#FCE6ED;stroke-miterlimit:10;}
	.st26{clip-path:url(#SVGID_103_);fill:none;stroke:#FCE6ED;stroke-miterlimit:10;}
	.st27{clip-path:url(#SVGID_107_);fill:none;stroke:#FCE6ED;stroke-miterlimit:10;}
	.st28{clip-path:url(#SVGID_111_);fill:none;stroke:#FCE6ED;stroke-miterlimit:10;}
	.st29{clip-path:url(#SVGID_115_);fill:none;stroke:#FCE6ED;stroke-miterlimit:10;}
	.st30{clip-path:url(#SVGID_119_);fill:none;stroke:#FCE6ED;stroke-miterlimit:10;}
	.st31{clip-path:url(#SVGID_123_);fill:none;stroke:#FCE6ED;stroke-miterlimit:10;}
	.st32{clip-path:url(#SVGID_126_);fill:none;stroke:#FCE6ED;stroke-miterlimit:10;}
	.st33{clip-path:url(#SVGID_129_);fill:none;stroke:#FCE6ED;stroke-miterlimit:10;}
	.st34{clip-path:url(#SVGID_131_);fill:none;stroke:#FCE6ED;stroke-miterlimit:10;}
	.st35{clip-path:url(#SVGID_133_);fill:none;stroke:#FCE6ED;stroke-miterlimit:10;}
	.st36{clip-path:url(#SVGID_135_);fill:none;stroke:#FCE6ED;stroke-miterlimit:10;}
	.st37{clip-path:url(#SVGID_137_);fill:none;stroke:#FCE6ED;stroke-miterlimit:10;}
	.st38{clip-path:url(#SVGID_139_);fill:none;stroke:#FCE6ED;stroke-miterlimit:10;}
	.st39{clip-path:url(#SVGID_141_);fill:none;stroke:#FCE6ED;stroke-miterlimit:10;}
	.st40{clip-path:url(#SVGID_143_);fill:none;stroke:#FCE6ED;stroke-miterlimit:10;}
	.st41{clip-path:url(#SVGID_145_);fill:none;stroke:#FCE6ED;stroke-miterlimit:10;}
	.st42{clip-path:url(#SVGID_147_);fill:none;stroke:#FCE6ED;stroke-miterlimit:10;}
	.st43{clip-path:url(#SVGID_149_);fill:none;stroke:#FCE6ED;stroke-miterlimit:10;}
	.st44{clip-path:url(#SVGID_151_);fill:none;stroke:#FCE6ED;stroke-miterlimit:10;}
	.st45{clip-path:url(#SVGID_153_);fill:none;stroke:#FCE6ED;stroke-miterlimit:10;}
	.st46{clip-path:url(#SVGID_155_);fill:none;stroke:#FCE6ED;stroke-miterlimit:10;}
	.st47{clip-path:url(#SVGID_157_);fill:none;stroke:#FCE6ED;stroke-miterlimit:10;}
	.st48{clip-path:url(#SVGID_159_);fill:none;stroke:#FCE6ED;stroke-miterlimit:10;}
	.st49{clip-path:url(#SVGID_161_);fill:none;stroke:#FCE6ED;stroke-miterlimit:10;}
	.st50{clip-path:url(#SVGID_163_);fill:none;stroke:#FCE6ED;stroke-miterlimit:10;}
	.st51{clip-path:url(#SVGID_165_);fill:none;stroke:#FCE6ED;stroke-miterlimit:10;}
	.st52{clip-path:url(#SVGID_167_);fill:none;stroke:#FCE6ED;stroke-miterlimit:10;}
	.st53{clip-path:url(#SVGID_169_);fill:none;stroke:#FCE6ED;stroke-miterlimit:10;}
	.st54{clip-path:url(#SVGID_171_);fill:none;stroke:#FCE6ED;stroke-miterlimit:10;}
	.st55{clip-path:url(#SVGID_173_);fill:none;stroke:#FCE6ED;stroke-miterlimit:10;}
	.st56{clip-path:url(#SVGID_175_);fill:none;stroke:#FCE6ED;stroke-miterlimit:10;}
	.st57{clip-path:url(#SVGID_177_);fill:none;stroke:#FCE6ED;stroke-miterlimit:10;}
	.st58{clip-path:url(#SVGID_179_);fill:none;stroke:#FCE6ED;stroke-miterlimit:10;}
	.st59{clip-path:url(#SVGID_181_);fill:none;stroke:#FCE6ED;stroke-miterlimit:10;}
	.st60{clip-path:url(#SVGID_183_);fill:none;stroke:#FCE6ED;stroke-miterlimit:10;}
	.st61{clip-path:url(#SVGID_185_);fill:none;stroke:#FCE6ED;stroke-miterlimit:10;}
	.st62{clip-path:url(#SVGID_187_);fill:none;stroke:#FCE6ED;stroke-miterlimit:10;}
	.st63{fill:#583E89;}
	.st64{fill:#939AE5;}
	.st65{fill:#D0BDF4;}
	.st66{fill:#FCE6ED;}
	.st67{fill:#FFFFFF;}
</style>
<desc>Created with Snap</desc>
<desc>Created with Snap</desc>
<desc>Created with Snap</desc>
<desc>Created with Snap</desc>
<desc>Created with Snap</desc>
<desc>Created with Snap</desc>
<desc>Created with Snap</desc>
<desc>Created with Snap</desc>
<desc>Created with Snap</desc>
<desc>Created with Snap</desc>
<desc>Created with Snap</desc>
<desc>Created with Snap</desc>
<desc>Created with Snap</desc>
<desc>Created with Snap</desc>
<desc>Created with Snap</desc>
<desc>Created with Snap</desc>
<desc>Created with Snap</desc>
<desc>Created with Snap</desc>
<desc>Created with Snap</desc>
<desc>Created with Snap</desc>
<desc>Created with Snap</desc>
<desc>Created with Snap</desc>
<desc>Created with Snap</desc>
<desc>Created with Snap</desc>
<desc>Created with Snap</desc>
<desc>Created with Snap</desc>
<desc>Created with Snap</desc>
<desc>Created with Snap</desc>
<desc>Created with Snap</desc>
<desc>Created with Snap</desc>
<desc>Created with Snap</desc>
<desc>Created with Snap</desc>
<desc>Created with Snap</desc>
<desc>Created with Snap</desc>
<desc>Created with Snap</desc>
<desc>Created with Snap</desc>
<desc>Created with Snap</desc>
<desc>Created with Snap</desc>
<desc>Created with Snap</desc>
<desc>Created with Snap</desc>
<desc>Created with Snap</desc>
<desc>Created with Snap</desc>
<desc>Created with Snap</desc>
<desc>Created with Snap</desc>
<desc>Created with Snap</desc>
<desc>Created with Snap</desc>
<desc>Created with Snap</desc>
<desc>Created with Snap</desc>
<desc>Created with Snap</desc>
<desc>Created with Snap</desc>
<desc>Created with Snap</desc>
<desc>Created with Snap</desc>
<desc>Created with Snap</desc>
<desc>Created with Snap</desc>
<desc>Created with Snap</desc>
<desc>Created with Snap</desc>
<desc>Created with Snap</desc>
<desc>Created with Snap</desc>
<desc>Created with Snap</desc>
<desc>Created with Snap</desc>
<desc>Created with Snap</desc>
<desc>Created with Snap</desc>
<desc>Created with Snap</desc>
<desc>Created with Snap</desc>
<desc>Created with Snap</desc>
<desc>Created with Snap</desc>
<desc>Created with Snap</desc>
<desc>Created with Snap</desc>
<g>
	<g>
		<g>
			<g>
				<g>
					<g>
						<defs>
							<circle id="SVGID_1_" cx="250" cy="250" r="193.9"/>
						</defs>
						<clipPath id="SVGID_3_">
							<use xlink:href="#SVGID_1_"  style="overflow:visible;"/>
						</clipPath>
						<path class="st0" d="M-62.9-10.7c0,0,78.2-117.3,156.4,0 M93.6-10.7c0,0,78.2,117.3,156.4,0 M250-10.7c0,0,78.2-117.3,156.4,0
							 M406.4-10.7c0,0,78.2,117.3,156.4,0"/>
					</g>
				</g>
			</g>
			<g>
				<circle id="SVGID_2_" class="st1" cx="250" cy="250" r="193.9"/>
			</g>
		</g>
	</g>
	<g>
		<g>
			<g>
				<g>
					<g>
						<defs>
							<circle id="SVGID_5_" cx="250" cy="250" r="193.9"/>
						</defs>
						<clipPath id="SVGID_7_">
							<use xlink:href="#SVGID_5_"  style="overflow:visible;"/>
						</clipPath>
						<path class="st2" d="M-62.9-2.9c0,0,78.2-117.3,156.4,0 M93.6-2.9c0,0,78.2,117.3,156.4,0 M250-2.9c0,0,78.2-117.3,156.4,0
							 M406.4-2.9c0,0,78.2,117.3,156.4,0"/>
					</g>
				</g>
			</g>
			<g>
				<circle id="SVGID_4_" class="st1" cx="250" cy="250" r="193.9"/>
			</g>
		</g>
	</g>
	<g>
		<g>
			<g>
				<g>
					<g>
						<defs>
							<circle id="SVGID_9_" cx="250" cy="250" r="193.9"/>
						</defs>
						<clipPath id="SVGID_11_">
							<use xlink:href="#SVGID_9_"  style="overflow:visible;"/>
						</clipPath>
						<path class="st3" d="M-62.9,4.9c0,0,78.2-117.3,156.4,0 M93.6,4.9c0,0,78.2,117.3,156.4,0 M250,4.9c0,0,78.2-117.3,156.4,0
							 M406.4,4.9c0,0,78.2,117.3,156.4,0"/>
					</g>
				</g>
			</g>
			<g>
				<circle id="SVGID_6_" class="st1" cx="250" cy="250" r="193.9"/>
			</g>
		</g>
	</g>
	<g>
		<g>
			<g>
				<g>
					<g>
						<defs>
							<circle id="SVGID_13_" cx="250" cy="250" r="193.9"/>
						</defs>
						<clipPath id="SVGID_15_">
							<use xlink:href="#SVGID_13_"  style="overflow:visible;"/>
						</clipPath>
						<path class="st4" d="M-62.9,12.7c0,0,78.2-117.3,156.4,0 M93.6,12.7c0,0,78.2,117.3,156.4,0 M250,12.7c0,0,78.2-117.3,156.4,0
							 M406.4,12.7c0,0,78.2,117.3,156.4,0"/>
					</g>
				</g>
			</g>
			<g>
				<circle id="SVGID_8_" class="st1" cx="250" cy="250" r="193.9"/>
			</g>
		</g>
	</g>
	<g>
		<g>
			<g>
				<g>
					<g>
						<defs>
							<circle id="SVGID_17_" cx="250" cy="250" r="193.9"/>
						</defs>
						<clipPath id="SVGID_19_">
							<use xlink:href="#SVGID_17_"  style="overflow:visible;"/>
						</clipPath>
						<path class="st5" d="M-62.9,20.6c0,0,78.2-117.3,156.4,0 M93.6,20.6c0,0,78.2,117.3,156.4,0 M250,20.6c0,0,78.2-117.3,156.4,0
							 M406.4,20.6c0,0,78.2,117.3,156.4,0"/>
					</g>
				</g>
			</g>
			<g>
				<circle id="SVGID_10_" class="st1" cx="250" cy="250" r="193.9"/>
			</g>
		</g>
	</g>
	<g>
		<g>
			<g>
				<g>
					<g>
						<defs>
							<circle id="SVGID_21_" cx="250" cy="250" r="193.9"/>
						</defs>
						<clipPath id="SVGID_23_">
							<use xlink:href="#SVGID_21_"  style="overflow:visible;"/>
						</clipPath>
						<path class="st6" d="M-62.9,28.4c0,0,78.2-117.3,156.4,0 M93.6,28.4c0,0,78.2,117.3,156.4,0 M250,28.4c0,0,78.2-117.3,156.4,0
							 M406.4,28.4c0,0,78.2,117.3,156.4,0"/>
					</g>
				</g>
			</g>
			<g>
				<circle id="SVGID_12_" class="st1" cx="250" cy="250" r="193.9"/>
			</g>
		</g>
	</g>
	<g>
		<g>
			<g>
				<g>
					<g>
						<defs>
							<circle id="SVGID_25_" cx="250" cy="250" r="193.9"/>
						</defs>
						<clipPath id="SVGID_27_">
							<use xlink:href="#SVGID_25_"  style="overflow:visible;"/>
						</clipPath>
						<path class="st7" d="M-62.9,36.2c0,0,78.2-117.3,156.4,0 M93.6,36.2c0,0,78.2,117.3,156.4,0 M250,36.2c0,0,78.2-117.3,156.4,0
							 M406.4,36.2c0,0,78.2,117.3,156.4,0"/>
					</g>
				</g>
			</g>
			<g>
				<circle id="SVGID_14_" class="st1" cx="250" cy="250" r="193.9"/>
			</g>
		</g>
	</g>
	<g>
		<g>
			<g>
				<g>
					<g>
						<defs>
							<circle id="SVGID_29_" cx="250" cy="250" r="193.9"/>
						</defs>
						<clipPath id="SVGID_31_">
							<use xlink:href="#SVGID_29_"  style="overflow:visible;"/>
						</clipPath>
						<path class="st8" d="M-62.9,44c0,0,78.2-117.3,156.4,0 M93.6,44c0,0,78.2,117.3,156.4,0 M250,44c0,0,78.2-117.3,156.4,0
							 M406.4,44c0,0,78.2,117.3,156.4,0"/>
					</g>
				</g>
			</g>
			<g>
				<circle id="SVGID_16_" class="st1" cx="250" cy="250" r="193.9"/>
			</g>
		</g>
	</g>
	<g>
		<g>
			<g>
				<g>
					<g>
						<defs>
							<circle id="SVGID_33_" cx="250" cy="250" r="193.9"/>
						</defs>
						<clipPath id="SVGID_35_">
							<use xlink:href="#SVGID_33_"  style="overflow:visible;"/>
						</clipPath>
						<path class="st9" d="M-62.9,51.9c0,0,78.2-117.3,156.4,0 M93.6,51.9c0,0,78.2,117.3,156.4,0 M250,51.9c0,0,78.2-117.3,156.4,0
							 M406.4,51.9c0,0,78.2,117.3,156.4,0"/>
					</g>
				</g>
			</g>
			<g>
				<circle id="SVGID_18_" class="st1" cx="250" cy="250" r="193.9"/>
			</g>
		</g>
	</g>
	<g>
		<g>
			<g>
				<g>
					<g>
						<defs>
							<circle id="SVGID_37_" cx="250" cy="250" r="193.9"/>
						</defs>
						<clipPath id="SVGID_39_">
							<use xlink:href="#SVGID_37_"  style="overflow:visible;"/>
						</clipPath>
						<path class="st10" d="M-62.9,59.7c0,0,78.2-117.3,156.4,0 M93.6,59.7c0,0,78.2,117.3,156.4,0 M250,59.7
							c0,0,78.2-117.3,156.4,0 M406.4,59.7c0,0,78.2,117.3,156.4,0"/>
					</g>
				</g>
			</g>
			<g>
				<circle id="SVGID_20_" class="st1" cx="250" cy="250" r="193.9"/>
			</g>
		</g>
	</g>
	<g>
		<g>
			<g>
				<g>
					<g>
						<defs>
							<circle id="SVGID_41_" cx="250" cy="250" r="193.9"/>
						</defs>
						<clipPath id="SVGID_43_">
							<use xlink:href="#SVGID_41_"  style="overflow:visible;"/>
						</clipPath>
						<path class="st11" d="M-62.9,67.5c0,0,78.2-117.3,156.4,0 M93.6,67.5c0,0,78.2,117.3,156.4,0 M250,67.5
							c0,0,78.2-117.3,156.4,0 M406.4,67.5c0,0,78.2,117.3,156.4,0"/>
					</g>
				</g>
			</g>
			<g>
				<circle id="SVGID_22_" class="st1" cx="250" cy="250" r="193.9"/>
			</g>
		</g>
	</g>
	<g>
		<g>
			<g>
				<g>
					<g>
						<defs>
							<circle id="SVGID_45_" cx="250" cy="250" r="193.9"/>
						</defs>
						<clipPath id="SVGID_47_">
							<use xlink:href="#SVGID_45_"  style="overflow:visible;"/>
						</clipPath>
						<path class="st12" d="M-62.9,75.3c0,0,78.2-117.3,156.4,0 M93.6,75.3c0,0,78.2,117.3,156.4,0 M250,75.3
							c0,0,78.2-117.3,156.4,0 M406.4,75.3c0,0,78.2,117.3,156.4,0"/>
					</g>
				</g>
			</g>
			<g>
				<circle id="SVGID_24_" class="st1" cx="250" cy="250" r="193.9"/>
			</g>
		</g>
	</g>
	<g>
		<g>
			<g>
				<g>
					<g>
						<defs>
							<circle id="SVGID_49_" cx="250" cy="250" r="193.9"/>
						</defs>
						<clipPath id="SVGID_51_">
							<use xlink:href="#SVGID_49_"  style="overflow:visible;"/>
						</clipPath>
						<path class="st13" d="M-62.9,83.1c0,0,78.2-117.3,156.4,0 M93.6,83.1c0,0,78.2,117.3,156.4,0 M250,83.1
							c0,0,78.2-117.3,156.4,0 M406.4,83.1c0,0,78.2,117.3,156.4,0"/>
					</g>
				</g>
			</g>
			<g>
				<circle id="SVGID_26_" class="st1" cx="250" cy="250" r="193.9"/>
			</g>
		</g>
	</g>
	<g>
		<g>
			<g>
				<g>
					<g>
						<defs>
							<circle id="SVGID_53_" cx="250" cy="250" r="193.9"/>
						</defs>
						<clipPath id="SVGID_55_">
							<use xlink:href="#SVGID_53_"  style="overflow:visible;"/>
						</clipPath>
						<path class="st14" d="M-62.9,91c0,0,78.2-117.3,156.4,0 M93.6,91c0,0,78.2,117.3,156.4,0 M250,91c0,0,78.2-117.3,156.4,0
							 M406.4,91c0,0,78.2,117.3,156.4,0"/>
					</g>
				</g>
			</g>
			<g>
				<circle id="SVGID_28_" class="st1" cx="250" cy="250" r="193.9"/>
			</g>
		</g>
	</g>
	<g>
		<g>
			<g>
				<g>
					<g>
						<defs>
							<circle id="SVGID_57_" cx="250" cy="250" r="193.9"/>
						</defs>
						<clipPath id="SVGID_59_">
							<use xlink:href="#SVGID_57_"  style="overflow:visible;"/>
						</clipPath>
						<path class="st15" d="M-62.9,98.8c0,0,78.2-117.3,156.4,0 M93.6,98.8c0,0,78.2,117.3,156.4,0 M250,98.8
							c0,0,78.2-117.3,156.4,0 M406.4,98.8c0,0,78.2,117.3,156.4,0"/>
					</g>
				</g>
			</g>
			<g>
				<circle id="SVGID_30_" class="st1" cx="250" cy="250" r="193.9"/>
			</g>
		</g>
	</g>
	<g>
		<g>
			<g>
				<g>
					<g>
						<defs>
							<circle id="SVGID_61_" cx="250" cy="250" r="193.9"/>
						</defs>
						<clipPath id="SVGID_63_">
							<use xlink:href="#SVGID_61_"  style="overflow:visible;"/>
						</clipPath>
						<path class="st16" d="M-62.9,106.6c0,0,78.2-117.3,156.4,0 M93.6,106.6c0,0,78.2,117.3,156.4,0 M250,106.6
							c0,0,78.2-117.3,156.4,0 M406.4,106.6c0,0,78.2,117.3,156.4,0"/>
					</g>
				</g>
			</g>
			<g>
				<circle id="SVGID_32_" class="st1" cx="250" cy="250" r="193.9"/>
			</g>
		</g>
	</g>
	<g>
		<g>
			<g>
				<g>
					<g>
						<defs>
							<circle id="SVGID_65_" cx="250" cy="250" r="193.9"/>
						</defs>
						<clipPath id="SVGID_67_">
							<use xlink:href="#SVGID_65_"  style="overflow:visible;"/>
						</clipPath>
						<path class="st17" d="M-62.9,114.4c0,0,78.2-117.3,156.4,0 M93.6,114.4c0,0,78.2,117.3,156.4,0 M250,114.4
							c0,0,78.2-117.3,156.4,0 M406.4,114.4c0,0,78.2,117.3,156.4,0"/>
					</g>
				</g>
			</g>
			<g>
				<circle id="SVGID_34_" class="st1" cx="250" cy="250" r="193.9"/>
			</g>
		</g>
	</g>
	<g>
		<g>
			<g>
				<g>
					<g>
						<defs>
							<circle id="SVGID_69_" cx="250" cy="250" r="193.9"/>
						</defs>
						<clipPath id="SVGID_71_">
							<use xlink:href="#SVGID_69_"  style="overflow:visible;"/>
						</clipPath>
						<path class="st18" d="M-62.9,122.2c0,0,78.2-117.3,156.4,0 M93.6,122.2c0,0,78.2,117.3,156.4,0 M250,122.2
							c0,0,78.2-117.3,156.4,0 M406.4,122.2c0,0,78.2,117.3,156.4,0"/>
					</g>
				</g>
			</g>
			<g>
				<circle id="SVGID_36_" class="st1" cx="250" cy="250" r="193.9"/>
			</g>
		</g>
	</g>
	<g>
		<g>
			<g>
				<g>
					<g>
						<defs>
							<circle id="SVGID_73_" cx="250" cy="250" r="193.9"/>
						</defs>
						<clipPath id="SVGID_75_">
							<use xlink:href="#SVGID_73_"  style="overflow:visible;"/>
						</clipPath>
						<path class="st19" d="M-62.9,130.1c0,0,78.2-117.3,156.4,0 M93.6,130.1c0,0,78.2,117.3,156.4,0 M250,130.1
							c0,0,78.2-117.3,156.4,0 M406.4,130.1c0,0,78.2,117.3,156.4,0"/>
					</g>
				</g>
			</g>
			<g>
				<circle id="SVGID_38_" class="st1" cx="250" cy="250" r="193.9"/>
			</g>
		</g>
	</g>
	<g>
		<g>
			<g>
				<g>
					<g>
						<defs>
							<circle id="SVGID_77_" cx="250" cy="250" r="193.9"/>
						</defs>
						<clipPath id="SVGID_79_">
							<use xlink:href="#SVGID_77_"  style="overflow:visible;"/>
						</clipPath>
						<path class="st20" d="M-62.9,137.9c0,0,78.2-117.3,156.4,0 M93.6,137.9c0,0,78.2,117.3,156.4,0 M250,137.9
							c0,0,78.2-117.3,156.4,0 M406.4,137.9c0,0,78.2,117.3,156.4,0"/>
					</g>
				</g>
			</g>
			<g>
				<circle id="SVGID_40_" class="st1" cx="250" cy="250" r="193.9"/>
			</g>
		</g>
	</g>
	<g>
		<g>
			<g>
				<g>
					<g>
						<defs>
							<circle id="SVGID_81_" cx="250" cy="250" r="193.9"/>
						</defs>
						<clipPath id="SVGID_83_">
							<use xlink:href="#SVGID_81_"  style="overflow:visible;"/>
						</clipPath>
						<path class="st21" d="M-62.9,145.7c0,0,78.2-117.3,156.4,0 M93.6,145.7c0,0,78.2,117.3,156.4,0 M250,145.7
							c0,0,78.2-117.3,156.4,0 M406.4,145.7c0,0,78.2,117.3,156.4,0"/>
					</g>
				</g>
			</g>
			<g>
				<circle id="SVGID_42_" class="st1" cx="250" cy="250" r="193.9"/>
			</g>
		</g>
	</g>
	<g>
		<g>
			<g>
				<g>
					<g>
						<defs>
							<circle id="SVGID_85_" cx="250" cy="250" r="193.9"/>
						</defs>
						<clipPath id="SVGID_87_">
							<use xlink:href="#SVGID_85_"  style="overflow:visible;"/>
						</clipPath>
						<path class="st22" d="M-62.9,153.5c0,0,78.2-117.3,156.4,0 M93.6,153.5c0,0,78.2,117.3,156.4,0 M250,153.5
							c0,0,78.2-117.3,156.4,0 M406.4,153.5c0,0,78.2,117.3,156.4,0"/>
					</g>
				</g>
			</g>
			<g>
				<circle id="SVGID_44_" class="st1" cx="250" cy="250" r="193.9"/>
			</g>
		</g>
	</g>
	<g>
		<g>
			<g>
				<g>
					<g>
						<defs>
							<circle id="SVGID_89_" cx="250" cy="250" r="193.9"/>
						</defs>
						<clipPath id="SVGID_91_">
							<use xlink:href="#SVGID_89_"  style="overflow:visible;"/>
						</clipPath>
						<path class="st23" d="M-62.9,161.4c0,0,78.2-117.3,156.4,0 M93.6,161.4c0,0,78.2,117.3,156.4,0 M250,161.4
							c0,0,78.2-117.3,156.4,0 M406.4,161.4c0,0,78.2,117.3,156.4,0"/>
					</g>
				</g>
			</g>
			<g>
				<circle id="SVGID_46_" class="st1" cx="250" cy="250" r="193.9"/>
			</g>
		</g>
	</g>
	<g>
		<g>
			<g>
				<g>
					<g>
						<defs>
							<circle id="SVGID_93_" cx="250" cy="250" r="193.9"/>
						</defs>
						<clipPath id="SVGID_95_">
							<use xlink:href="#SVGID_93_"  style="overflow:visible;"/>
						</clipPath>
						<path class="st24" d="M-62.9,169.2c0,0,78.2-117.3,156.4,0 M93.6,169.2c0,0,78.2,117.3,156.4,0 M250,169.2
							c0,0,78.2-117.3,156.4,0 M406.4,169.2c0,0,78.2,117.3,156.4,0"/>
					</g>
				</g>
			</g>
			<g>
				<circle id="SVGID_48_" class="st1" cx="250" cy="250" r="193.9"/>
			</g>
		</g>
	</g>
	<g>
		<g>
			<g>
				<g>
					<g>
						<defs>
							<circle id="SVGID_97_" cx="250" cy="250" r="193.9"/>
						</defs>
						<clipPath id="SVGID_99_">
							<use xlink:href="#SVGID_97_"  style="overflow:visible;"/>
						</clipPath>
						<path class="st25" d="M-62.9,177c0,0,78.2-117.3,156.4,0 M93.6,177c0,0,78.2,117.3,156.4,0 M250,177c0,0,78.2-117.3,156.4,0
							 M406.4,177c0,0,78.2,117.3,156.4,0"/>
					</g>
				</g>
			</g>
			<g>
				<circle id="SVGID_50_" class="st1" cx="250" cy="250" r="193.9"/>
			</g>
		</g>
	</g>
	<g>
		<g>
			<g>
				<g>
					<g>
						<defs>
							<circle id="SVGID_101_" cx="250" cy="250" r="193.9"/>
						</defs>
						<clipPath id="SVGID_103_">
							<use xlink:href="#SVGID_101_"  style="overflow:visible;"/>
						</clipPath>
						<path class="st26" d="M-62.9,184.8c0,0,78.2-117.3,156.4,0 M93.6,184.8c0,0,78.2,117.3,156.4,0 M250,184.8
							c0,0,78.2-117.3,156.4,0 M406.4,184.8c0,0,78.2,117.3,156.4,0"/>
					</g>
				</g>
			</g>
			<g>
				<circle id="SVGID_52_" class="st1" cx="250" cy="250" r="193.9"/>
			</g>
		</g>
	</g>
	<g>
		<g>
			<g>
				<g>
					<g>
						<defs>
							<circle id="SVGID_105_" cx="250" cy="250" r="193.9"/>
						</defs>
						<clipPath id="SVGID_107_">
							<use xlink:href="#SVGID_105_"  style="overflow:visible;"/>
						</clipPath>
						<path class="st27" d="M-62.9,192.6c0,0,78.2-117.3,156.4,0 M93.6,192.6c0,0,78.2,117.3,156.4,0 M250,192.6
							c0,0,78.2-117.3,156.4,0 M406.4,192.6c0,0,78.2,117.3,156.4,0"/>
					</g>
				</g>
			</g>
			<g>
				<circle id="SVGID_54_" class="st1" cx="250" cy="250" r="193.9"/>
			</g>
		</g>
	</g>
	<g>
		<g>
			<g>
				<g>
					<g>
						<defs>
							<circle id="SVGID_109_" cx="250" cy="250" r="193.9"/>
						</defs>
						<clipPath id="SVGID_111_">
							<use xlink:href="#SVGID_109_"  style="overflow:visible;"/>
						</clipPath>
						<path class="st28" d="M-62.9,200.5c0,0,78.2-117.3,156.4,0 M93.6,200.5c0,0,78.2,117.3,156.4,0 M250,200.5
							c0,0,78.2-117.3,156.4,0 M406.4,200.5c0,0,78.2,117.3,156.4,0"/>
					</g>
				</g>
			</g>
			<g>
				<circle id="SVGID_56_" class="st1" cx="250" cy="250" r="193.9"/>
			</g>
		</g>
	</g>
	<g>
		<g>
			<g>
				<g>
					<g>
						<defs>
							<circle id="SVGID_113_" cx="250" cy="250" r="193.9"/>
						</defs>
						<clipPath id="SVGID_115_">
							<use xlink:href="#SVGID_113_"  style="overflow:visible;"/>
						</clipPath>
						<path class="st29" d="M-62.9,208.3c0,0,78.2-117.3,156.4,0 M93.6,208.3c0,0,78.2,117.3,156.4,0 M250,208.3
							c0,0,78.2-117.3,156.4,0 M406.4,208.3c0,0,78.2,117.3,156.4,0"/>
					</g>
				</g>
			</g>
			<g>
				<circle id="SVGID_58_" class="st1" cx="250" cy="250" r="193.9"/>
			</g>
		</g>
	</g>
	<g>
		<g>
			<g>
				<g>
					<g>
						<defs>
							<circle id="SVGID_117_" cx="250" cy="250" r="193.9"/>
						</defs>
						<clipPath id="SVGID_119_">
							<use xlink:href="#SVGID_117_"  style="overflow:visible;"/>
						</clipPath>
						<path class="st30" d="M-62.9,216.1c0,0,78.2-117.3,156.4,0 M93.6,216.1c0,0,78.2,117.3,156.4,0 M250,216.1
							c0,0,78.2-117.3,156.4,0 M406.4,216.1c0,0,78.2,117.3,156.4,0"/>
					</g>
				</g>
			</g>
			<g>
				<circle id="SVGID_60_" class="st1" cx="250" cy="250" r="193.9"/>
			</g>
		</g>
	</g>
	<g>
		<g>
			<g>
				<g>
					<g>
						<defs>
							<circle id="SVGID_121_" cx="250" cy="250" r="193.9"/>
						</defs>
						<clipPath id="SVGID_123_">
							<use xlink:href="#SVGID_121_"  style="overflow:visible;"/>
						</clipPath>
						<path class="st31" d="M-62.9,223.9c0,0,78.2-117.3,156.4,0 M93.6,223.9c0,0,78.2,117.3,156.4,0 M250,223.9
							c0,0,78.2-117.3,156.4,0 M406.4,223.9c0,0,78.2,117.3,156.4,0"/>
					</g>
				</g>
			</g>
			<g>
				<circle id="SVGID_62_" class="st1" cx="250" cy="250" r="193.9"/>
			</g>
		</g>
	</g>
	<g>
		<g>
			<g>
				<g>
					<g>
						<defs>
							<circle id="SVGID_125_" cx="250" cy="250" r="193.9"/>
						</defs>
						<clipPath id="SVGID_126_">
							<use xlink:href="#SVGID_125_"  style="overflow:visible;"/>
						</clipPath>
						<path class="st32" d="M-62.9,231.8c0,0,78.2-117.3,156.4,0 M93.6,231.8c0,0,78.2,117.3,156.4,0 M250,231.8
							c0,0,78.2-117.3,156.4,0 M406.4,231.8c0,0,78.2,117.3,156.4,0"/>
					</g>
				</g>
			</g>
			<g>
				<circle id="SVGID_64_" class="st1" cx="250" cy="250" r="193.9"/>
			</g>
		</g>
	</g>
	<g>
		<g>
			<g>
				<g>
					<g>
						<defs>
							<circle id="SVGID_128_" cx="250" cy="250" r="193.9"/>
						</defs>
						<clipPath id="SVGID_129_">
							<use xlink:href="#SVGID_128_"  style="overflow:visible;"/>
						</clipPath>
						<path class="st33" d="M-62.9,239.6c0,0,78.2-117.3,156.4,0 M93.6,239.6c0,0,78.2,117.3,156.4,0 M250,239.6
							c0,0,78.2-117.3,156.4,0 M406.4,239.6c0,0,78.2,117.3,156.4,0"/>
					</g>
				</g>
				<g>
					<circle id="SVGID_127_" class="st1" cx="250" cy="250" r="193.9"/>
				</g>
			</g>
			<g>
				<circle id="SVGID_66_" class="st1" cx="250" cy="250" r="193.9"/>
			</g>
		</g>
	</g>
	<g>
		<g>
			<g>
				<g>
					<g>
						<defs>
							<circle id="SVGID_130_" cx="250" cy="250" r="193.9"/>
						</defs>
						<clipPath id="SVGID_131_">
							<use xlink:href="#SVGID_130_"  style="overflow:visible;"/>
						</clipPath>
						<path class="st34" d="M-62.9,247.4c0,0,78.2-117.3,156.4,0 M93.6,247.4c0,0,78.2,117.3,156.4,0 M250,247.4
							c0,0,78.2-117.3,156.4,0 M406.4,247.4c0,0,78.2,117.3,156.4,0"/>
					</g>
				</g>
			</g>
			<g>
				<circle id="SVGID_68_" class="st1" cx="250" cy="250" r="193.9"/>
			</g>
		</g>
	</g>
	<g>
		<g>
			<g>
				<g>
					<g>
						<defs>
							<circle id="SVGID_132_" cx="250" cy="250" r="193.9"/>
						</defs>
						<clipPath id="SVGID_133_">
							<use xlink:href="#SVGID_132_"  style="overflow:visible;"/>
						</clipPath>
						<path class="st35" d="M-62.9,255.2c0,0,78.2-117.3,156.4,0 M93.6,255.2c0,0,78.2,117.3,156.4,0 M250,255.2
							c0,0,78.2-117.3,156.4,0 M406.4,255.2c0,0,78.2,117.3,156.4,0"/>
					</g>
				</g>
			</g>
			<g>
				<circle id="SVGID_70_" class="st1" cx="250" cy="250" r="193.9"/>
			</g>
		</g>
	</g>
	<g>
		<g>
			<g>
				<g>
					<g>
						<defs>
							<circle id="SVGID_134_" cx="250" cy="250" r="193.9"/>
						</defs>
						<clipPath id="SVGID_135_">
							<use xlink:href="#SVGID_134_"  style="overflow:visible;"/>
						</clipPath>
						<path class="st36" d="M-62.9,263c0,0,78.2-117.3,156.4,0 M93.6,263c0,0,78.2,117.3,156.4,0 M250,263c0,0,78.2-117.3,156.4,0
							 M406.4,263c0,0,78.2,117.3,156.4,0"/>
					</g>
				</g>
			</g>
			<g>
				<circle id="SVGID_72_" class="st1" cx="250" cy="250" r="193.9"/>
			</g>
		</g>
	</g>
	<g>
		<g>
			<g>
				<g>
					<g>
						<defs>
							<circle id="SVGID_136_" cx="250" cy="250" r="193.9"/>
						</defs>
						<clipPath id="SVGID_137_">
							<use xlink:href="#SVGID_136_"  style="overflow:visible;"/>
						</clipPath>
						<path class="st37" d="M-62.9,270.9c0,0,78.2-117.3,156.4,0 M93.6,270.9c0,0,78.2,117.3,156.4,0 M250,270.9
							c0,0,78.2-117.3,156.4,0 M406.4,270.9c0,0,78.2,117.3,156.4,0"/>
					</g>
				</g>
			</g>
			<g>
				<circle id="SVGID_74_" class="st1" cx="250" cy="250" r="193.9"/>
			</g>
		</g>
	</g>
	<g>
		<g>
			<g>
				<g>
					<g>
						<defs>
							<circle id="SVGID_138_" cx="250" cy="250" r="193.9"/>
						</defs>
						<clipPath id="SVGID_139_">
							<use xlink:href="#SVGID_138_"  style="overflow:visible;"/>
						</clipPath>
						<path class="st38" d="M-62.9,278.7c0,0,78.2-117.3,156.4,0 M93.6,278.7c0,0,78.2,117.3,156.4,0 M250,278.7
							c0,0,78.2-117.3,156.4,0 M406.4,278.7c0,0,78.2,117.3,156.4,0"/>
					</g>
				</g>
			</g>
			<g>
				<circle id="SVGID_76_" class="st1" cx="250" cy="250" r="193.9"/>
			</g>
		</g>
	</g>
	<g>
		<g>
			<g>
				<g>
					<g>
						<defs>
							<circle id="SVGID_140_" cx="250" cy="250" r="193.9"/>
						</defs>
						<clipPath id="SVGID_141_">
							<use xlink:href="#SVGID_140_"  style="overflow:visible;"/>
						</clipPath>
						<path class="st39" d="M-62.9,286.5c0,0,78.2-117.3,156.4,0 M93.6,286.5c0,0,78.2,117.3,156.4,0 M250,286.5
							c0,0,78.2-117.3,156.4,0 M406.4,286.5c0,0,78.2,117.3,156.4,0"/>
					</g>
				</g>
			</g>
			<g>
				<circle id="SVGID_78_" class="st1" cx="250" cy="250" r="193.9"/>
			</g>
		</g>
	</g>
	<g>
		<g>
			<g>
				<g>
					<g>
						<defs>
							<circle id="SVGID_142_" cx="250" cy="250" r="193.9"/>
						</defs>
						<clipPath id="SVGID_143_">
							<use xlink:href="#SVGID_142_"  style="overflow:visible;"/>
						</clipPath>
						<path class="st40" d="M-62.9,294.3c0,0,78.2-117.3,156.4,0 M93.6,294.3c0,0,78.2,117.3,156.4,0 M250,294.3
							c0,0,78.2-117.3,156.4,0 M406.4,294.3c0,0,78.2,117.3,156.4,0"/>
					</g>
				</g>
			</g>
			<g>
				<circle id="SVGID_80_" class="st1" cx="250" cy="250" r="193.9"/>
			</g>
		</g>
	</g>
	<g>
		<g>
			<g>
				<g>
					<g>
						<defs>
							<circle id="SVGID_144_" cx="250" cy="250" r="193.9"/>
						</defs>
						<clipPath id="SVGID_145_">
							<use xlink:href="#SVGID_144_"  style="overflow:visible;"/>
						</clipPath>
						<path class="st41" d="M-62.9,302.1c0,0,78.2-117.3,156.4,0 M93.6,302.1c0,0,78.2,117.3,156.4,0 M250,302.1
							c0,0,78.2-117.3,156.4,0 M406.4,302.1c0,0,78.2,117.3,156.4,0"/>
					</g>
				</g>
			</g>
			<g>
				<circle id="SVGID_82_" class="st1" cx="250" cy="250" r="193.9"/>
			</g>
		</g>
	</g>
	<g>
		<g>
			<g>
				<g>
					<g>
						<defs>
							<circle id="SVGID_146_" cx="250" cy="250" r="193.9"/>
						</defs>
						<clipPath id="SVGID_147_">
							<use xlink:href="#SVGID_146_"  style="overflow:visible;"/>
						</clipPath>
						<path class="st42" d="M-62.9,310c0,0,78.2-117.3,156.4,0 M93.6,310c0,0,78.2,117.3,156.4,0 M250,310c0,0,78.2-117.3,156.4,0
							 M406.4,310c0,0,78.2,117.3,156.4,0"/>
					</g>
				</g>
			</g>
			<g>
				<circle id="SVGID_84_" class="st1" cx="250" cy="250" r="193.9"/>
			</g>
		</g>
	</g>
	<g>
		<g>
			<g>
				<g>
					<g>
						<defs>
							<circle id="SVGID_148_" cx="250" cy="250" r="193.9"/>
						</defs>
						<clipPath id="SVGID_149_">
							<use xlink:href="#SVGID_148_"  style="overflow:visible;"/>
						</clipPath>
						<path class="st43" d="M-62.9,317.8c0,0,78.2-117.3,156.4,0 M93.6,317.8c0,0,78.2,117.3,156.4,0 M250,317.8
							c0,0,78.2-117.3,156.4,0 M406.4,317.8c0,0,78.2,117.3,156.4,0"/>
					</g>
				</g>
			</g>
			<g>
				<circle id="SVGID_86_" class="st1" cx="250" cy="250" r="193.9"/>
			</g>
		</g>
	</g>
	<g>
		<g>
			<g>
				<g>
					<g>
						<defs>
							<circle id="SVGID_150_" cx="250" cy="250" r="193.9"/>
						</defs>
						<clipPath id="SVGID_151_">
							<use xlink:href="#SVGID_150_"  style="overflow:visible;"/>
						</clipPath>
						<path class="st44" d="M-62.9,325.6c0,0,78.2-117.3,156.4,0 M93.6,325.6c0,0,78.2,117.3,156.4,0 M250,325.6
							c0,0,78.2-117.3,156.4,0 M406.4,325.6c0,0,78.2,117.3,156.4,0"/>
					</g>
				</g>
			</g>
			<g>
				<circle id="SVGID_88_" class="st1" cx="250" cy="250" r="193.9"/>
			</g>
		</g>
	</g>
	<g>
		<g>
			<g>
				<g>
					<g>
						<defs>
							<circle id="SVGID_152_" cx="250" cy="250" r="193.9"/>
						</defs>
						<clipPath id="SVGID_153_">
							<use xlink:href="#SVGID_152_"  style="overflow:visible;"/>
						</clipPath>
						<path class="st45" d="M-62.9,333.4c0,0,78.2-117.3,156.4,0 M93.6,333.4c0,0,78.2,117.3,156.4,0 M250,333.4
							c0,0,78.2-117.3,156.4,0 M406.4,333.4c0,0,78.2,117.3,156.4,0"/>
					</g>
				</g>
			</g>
			<g>
				<circle id="SVGID_90_" class="st1" cx="250" cy="250" r="193.9"/>
			</g>
		</g>
	</g>
	<g>
		<g>
			<g>
				<g>
					<g>
						<defs>
							<circle id="SVGID_154_" cx="250" cy="250" r="193.9"/>
						</defs>
						<clipPath id="SVGID_155_">
							<use xlink:href="#SVGID_154_"  style="overflow:visible;"/>
						</clipPath>
						<path class="st46" d="M-62.9,341.3c0,0,78.2-117.3,156.4,0 M93.6,341.3c0,0,78.2,117.3,156.4,0 M250,341.3
							c0,0,78.2-117.3,156.4,0 M406.4,341.3c0,0,78.2,117.3,156.4,0"/>
					</g>
				</g>
			</g>
			<g>
				<circle id="SVGID_92_" class="st1" cx="250" cy="250" r="193.9"/>
			</g>
		</g>
	</g>
	<g>
		<g>
			<g>
				<g>
					<g>
						<defs>
							<circle id="SVGID_156_" cx="250" cy="250" r="193.9"/>
						</defs>
						<clipPath id="SVGID_157_">
							<use xlink:href="#SVGID_156_"  style="overflow:visible;"/>
						</clipPath>
						<path class="st47" d="M-62.9,349.1c0,0,78.2-117.3,156.4,0 M93.6,349.1c0,0,78.2,117.3,156.4,0 M250,349.1
							c0,0,78.2-117.3,156.4,0 M406.4,349.1c0,0,78.2,117.3,156.4,0"/>
					</g>
				</g>
			</g>
			<g>
				<circle id="SVGID_94_" class="st1" cx="250" cy="250" r="193.9"/>
			</g>
		</g>
	</g>
	<g>
		<g>
			<g>
				<g>
					<g>
						<defs>
							<circle id="SVGID_158_" cx="250" cy="250" r="193.9"/>
						</defs>
						<clipPath id="SVGID_159_">
							<use xlink:href="#SVGID_158_"  style="overflow:visible;"/>
						</clipPath>
						<path class="st48" d="M-62.9,356.9c0,0,78.2-117.3,156.4,0 M93.6,356.9c0,0,78.2,117.3,156.4,0 M250,356.9
							c0,0,78.2-117.3,156.4,0 M406.4,356.9c0,0,78.2,117.3,156.4,0"/>
					</g>
				</g>
			</g>
			<g>
				<circle id="SVGID_96_" class="st1" cx="250" cy="250" r="193.9"/>
			</g>
		</g>
	</g>
	<g>
		<g>
			<g>
				<g>
					<g>
						<defs>
							<circle id="SVGID_160_" cx="250" cy="250" r="193.9"/>
						</defs>
						<clipPath id="SVGID_161_">
							<use xlink:href="#SVGID_160_"  style="overflow:visible;"/>
						</clipPath>
						<path class="st49" d="M-62.9,364.7c0,0,78.2-117.3,156.4,0 M93.6,364.7c0,0,78.2,117.3,156.4,0 M250,364.7
							c0,0,78.2-117.3,156.4,0 M406.4,364.7c0,0,78.2,117.3,156.4,0"/>
					</g>
				</g>
			</g>
			<g>
				<circle id="SVGID_98_" class="st1" cx="250" cy="250" r="193.9"/>
			</g>
		</g>
	</g>
	<g>
		<g>
			<g>
				<g>
					<g>
						<defs>
							<circle id="SVGID_162_" cx="250" cy="250" r="193.9"/>
						</defs>
						<clipPath id="SVGID_163_">
							<use xlink:href="#SVGID_162_"  style="overflow:visible;"/>
						</clipPath>
						<path class="st50" d="M-62.9,372.5c0,0,78.2-117.3,156.4,0 M93.6,372.5c0,0,78.2,117.3,156.4,0 M250,372.5
							c0,0,78.2-117.3,156.4,0 M406.4,372.5c0,0,78.2,117.3,156.4,0"/>
					</g>
				</g>
			</g>
			<g>
				<circle id="SVGID_100_" class="st1" cx="250" cy="250" r="193.9"/>
			</g>
		</g>
	</g>
	<g>
		<g>
			<g>
				<g>
					<g>
						<defs>
							<circle id="SVGID_164_" cx="250" cy="250" r="193.9"/>
						</defs>
						<clipPath id="SVGID_165_">
							<use xlink:href="#SVGID_164_"  style="overflow:visible;"/>
						</clipPath>
						<path class="st51" d="M-62.9,380.4c0,0,78.2-117.3,156.4,0 M93.6,380.4c0,0,78.2,117.3,156.4,0 M250,380.4
							c0,0,78.2-117.3,156.4,0 M406.4,380.4c0,0,78.2,117.3,156.4,0"/>
					</g>
				</g>
			</g>
			<g>
				<circle id="SVGID_102_" class="st1" cx="250" cy="250" r="193.9"/>
			</g>
		</g>
	</g>
	<g>
		<g>
			<g>
				<g>
					<g>
						<defs>
							<circle id="SVGID_166_" cx="250" cy="250" r="193.9"/>
						</defs>
						<clipPath id="SVGID_167_">
							<use xlink:href="#SVGID_166_"  style="overflow:visible;"/>
						</clipPath>
						<path class="st52" d="M-62.9,388.2c0,0,78.2-117.3,156.4,0 M93.6,388.2c0,0,78.2,117.3,156.4,0 M250,388.2
							c0,0,78.2-117.3,156.4,0 M406.4,388.2c0,0,78.2,117.3,156.4,0"/>
					</g>
				</g>
			</g>
			<g>
				<circle id="SVGID_104_" class="st1" cx="250" cy="250" r="193.9"/>
			</g>
		</g>
	</g>
	<g>
		<g>
			<g>
				<g>
					<g>
						<defs>
							<circle id="SVGID_168_" cx="250" cy="250" r="193.9"/>
						</defs>
						<clipPath id="SVGID_169_">
							<use xlink:href="#SVGID_168_"  style="overflow:visible;"/>
						</clipPath>
						<path class="st53" d="M-62.9,396c0,0,78.2-117.3,156.4,0 M93.6,396c0,0,78.2,117.3,156.4,0 M250,396c0,0,78.2-117.3,156.4,0
							 M406.4,396c0,0,78.2,117.3,156.4,0"/>
					</g>
				</g>
			</g>
			<g>
				<circle id="SVGID_106_" class="st1" cx="250" cy="250" r="193.9"/>
			</g>
		</g>
	</g>
	<g>
		<g>
			<g>
				<g>
					<g>
						<defs>
							<circle id="SVGID_170_" cx="250" cy="250" r="193.9"/>
						</defs>
						<clipPath id="SVGID_171_">
							<use xlink:href="#SVGID_170_"  style="overflow:visible;"/>
						</clipPath>
						<path class="st54" d="M-62.9,403.8c0,0,78.2-117.3,156.4,0 M93.6,403.8c0,0,78.2,117.3,156.4,0 M250,403.8
							c0,0,78.2-117.3,156.4,0 M406.4,403.8c0,0,78.2,117.3,156.4,0"/>
					</g>
				</g>
			</g>
			<g>
				<circle id="SVGID_108_" class="st1" cx="250" cy="250" r="193.9"/>
			</g>
		</g>
	</g>
	<g>
		<g>
			<g>
				<g>
					<g>
						<defs>
							<circle id="SVGID_172_" cx="250" cy="250" r="193.9"/>
						</defs>
						<clipPath id="SVGID_173_">
							<use xlink:href="#SVGID_172_"  style="overflow:visible;"/>
						</clipPath>
						<path class="st55" d="M-62.9,411.6c0,0,78.2-117.3,156.4,0 M93.6,411.6c0,0,78.2,117.3,156.4,0 M250,411.6
							c0,0,78.2-117.3,156.4,0 M406.4,411.6c0,0,78.2,117.3,156.4,0"/>
					</g>
				</g>
			</g>
			<g>
				<circle id="SVGID_110_" class="st1" cx="250" cy="250" r="193.9"/>
			</g>
		</g>
	</g>
	<g>
		<g>
			<g>
				<g>
					<g>
						<defs>
							<circle id="SVGID_174_" cx="250" cy="250" r="193.9"/>
						</defs>
						<clipPath id="SVGID_175_">
							<use xlink:href="#SVGID_174_"  style="overflow:visible;"/>
						</clipPath>
						<path class="st56" d="M-62.9,419.5c0,0,78.2-117.3,156.4,0 M93.6,419.5c0,0,78.2,117.3,156.4,0 M250,419.5
							c0,0,78.2-117.3,156.4,0 M406.4,419.5c0,0,78.2,117.3,156.4,0"/>
					</g>
				</g>
			</g>
			<g>
				<circle id="SVGID_112_" class="st1" cx="250" cy="250" r="193.9"/>
			</g>
		</g>
	</g>
	<g>
		<g>
			<g>
				<g>
					<g>
						<defs>
							<circle id="SVGID_176_" cx="250" cy="250" r="193.9"/>
						</defs>
						<clipPath id="SVGID_177_">
							<use xlink:href="#SVGID_176_"  style="overflow:visible;"/>
						</clipPath>
						<path class="st57" d="M-62.9,427.3c0,0,78.2-117.3,156.4,0 M93.6,427.3c0,0,78.2,117.3,156.4,0 M250,427.3
							c0,0,78.2-117.3,156.4,0 M406.4,427.3c0,0,78.2,117.3,156.4,0"/>
					</g>
				</g>
			</g>
			<g>
				<circle id="SVGID_114_" class="st1" cx="250" cy="250" r="193.9"/>
			</g>
		</g>
	</g>
	<g>
		<g>
			<g>
				<g>
					<g>
						<defs>
							<circle id="SVGID_178_" cx="250" cy="250" r="193.9"/>
						</defs>
						<clipPath id="SVGID_179_">
							<use xlink:href="#SVGID_178_"  style="overflow:visible;"/>
						</clipPath>
						<path class="st58" d="M-62.9,435.1c0,0,78.2-117.3,156.4,0 M93.6,435.1c0,0,78.2,117.3,156.4,0 M250,435.1
							c0,0,78.2-117.3,156.4,0 M406.4,435.1c0,0,78.2,117.3,156.4,0"/>
					</g>
				</g>
			</g>
			<g>
				<circle id="SVGID_116_" class="st1" cx="250" cy="250" r="193.9"/>
			</g>
		</g>
	</g>
	<g>
		<g>
			<g>
				<g>
					<g>
						<defs>
							<circle id="SVGID_180_" cx="250" cy="250" r="193.9"/>
						</defs>
						<clipPath id="SVGID_181_">
							<use xlink:href="#SVGID_180_"  style="overflow:visible;"/>
						</clipPath>
						<path class="st59" d="M-62.9,442.9c0,0,78.2-117.3,156.4,0 M93.6,442.9c0,0,78.2,117.3,156.4,0 M250,442.9
							c0,0,78.2-117.3,156.4,0 M406.4,442.9c0,0,78.2,117.3,156.4,0"/>
					</g>
				</g>
			</g>
			<g>
				<circle id="SVGID_118_" class="st1" cx="250" cy="250" r="193.9"/>
			</g>
		</g>
	</g>
	<g>
		<g>
			<g>
				<g>
					<g>
						<defs>
							<circle id="SVGID_182_" cx="250" cy="250" r="193.9"/>
						</defs>
						<clipPath id="SVGID_183_">
							<use xlink:href="#SVGID_182_"  style="overflow:visible;"/>
						</clipPath>
						<path class="st60" d="M-62.9,450.8c0,0,78.2-117.3,156.4,0 M93.6,450.8c0,0,78.2,117.3,156.4,0 M250,450.8
							c0,0,78.2-117.3,156.4,0 M406.4,450.8c0,0,78.2,117.3,156.4,0"/>
					</g>
				</g>
			</g>
			<g>
				<circle id="SVGID_120_" class="st1" cx="250" cy="250" r="193.9"/>
			</g>
		</g>
	</g>
	<g>
		<g>
			<g>
				<g>
					<g>
						<defs>
							<circle id="SVGID_184_" cx="250" cy="250" r="193.9"/>
						</defs>
						<clipPath id="SVGID_185_">
							<use xlink:href="#SVGID_184_"  style="overflow:visible;"/>
						</clipPath>
						<path class="st61" d="M-62.9,458.6c0,0,78.2-117.3,156.4,0 M93.6,458.6c0,0,78.2,117.3,156.4,0 M250,458.6
							c0,0,78.2-117.3,156.4,0 M406.4,458.6c0,0,78.2,117.3,156.4,0"/>
					</g>
				</g>
			</g>
			<g>
				<circle id="SVGID_122_" class="st1" cx="250" cy="250" r="193.9"/>
			</g>
		</g>
	</g>
	<g>
		<g>
			<g>
				<g>
					<g>
						<defs>
							<circle id="SVGID_186_" cx="250" cy="250" r="193.9"/>
						</defs>
						<clipPath id="SVGID_187_">
							<use xlink:href="#SVGID_186_"  style="overflow:visible;"/>
						</clipPath>
						<path class="st62" d="M-62.9,466.4c0,0,78.2-117.3,156.4,0 M93.6,466.4c0,0,78.2,117.3,156.4,0 M250,466.4
							c0,0,78.2-117.3,156.4,0 M406.4,466.4c0,0,78.2,117.3,156.4,0"/>
					</g>
				</g>
			</g>
			<g>
				<circle id="SVGID_124_" class="st1" cx="250" cy="250" r="193.9"/>
			</g>
		</g>
	</g>
</g>
<rect x="741.4" y="59" class="st63" width="51" height="84"/>
<rect x="716.9" y="143" class="st64" width="57.5" height="57.5"/>
<rect x="707.2" y="200.5" class="st65" width="38.5" height="65.9"/>
<rect x="697.7" y="280" class="st66" width="38.5" height="38.5"/>
<circle class="st67" cx="37.8" cy="37.8" r="37.8"/>
<circle class="st66" cx="462.2" cy="37.8" r="37.8"/>
<circle class="st66" cx="37.8" cy="462.2" r="37.8"/>
<circle class="st67" cx="462.2" cy="462.2" r="37.8"/>
</svg>
