<?xml version="1.0" encoding="utf-8"?>
<!-- Generator: Adobe Illustrator 22.0.1, SVG Export Plug-In . SVG Version: 6.00 Build 0)  -->
<svg version="1.1" id="レイヤー_1" xmlns="http://www.w3.org/2000/svg" xmlns:xlink="http://www.w3.org/1999/xlink" x="0px"
	 y="0px" width="800px" height="600px" viewBox="0 0 800 600" style="enable-background:new 0 0 800 600;" xml:space="preserve">
<style type="text/css">
	.st0{clip-path:url(#SVGID_2_);}
	.st1{clip-path:url(#SVGID_4_);fill:#B8ACFF;stroke:#FFFFFF;stroke-miterlimit:10;}
	.st2{clip-path:url(#SVGID_6_);fill:#B8ACFF;stroke:#FFFFFF;stroke-miterlimit:10;}
	.st3{clip-path:url(#SVGID_8_);fill:#B8ACFF;stroke:#FFFFFF;stroke-miterlimit:10;}
	.st4{clip-path:url(#SVGID_10_);fill:#B8ACFF;stroke:#FFFFFF;stroke-miterlimit:10;}
	.st5{clip-path:url(#SVGID_12_);fill:#B8ACFF;stroke:#FFFFFF;stroke-miterlimit:10;}
	.st6{clip-path:url(#SVGID_14_);fill:#B8ACFF;stroke:#FFFFFF;stroke-miterlimit:10;}
	.st7{clip-path:url(#SVGID_16_);fill:#B8ACFF;stroke:#FFFFFF;stroke-miterlimit:10;}
	.st8{clip-path:url(#SVGID_18_);fill:#B8ACFF;stroke:#FFFFFF;stroke-miterlimit:10;}
	.st9{clip-path:url(#SVGID_20_);fill:#B8ACFF;stroke:#FFFFFF;stroke-miterlimit:10;}
	.st10{clip-path:url(#SVGID_22_);fill:#B8ACFF;stroke:#FFFFFF;stroke-miterlimit:10;}
	.st11{clip-path:url(#SVGID_24_);fill:#B8ACFF;stroke:#FFFFFF;stroke-miterlimit:10;}
	.st12{clip-path:url(#SVGID_26_);fill:#B8ACFF;stroke:#FFFFFF;stroke-miterlimit:10;}
	.st13{clip-path:url(#SVGID_28_);fill:#B8ACFF;stroke:#FFFFFF;stroke-miterlimit:10;}
	.st14{clip-path:url(#SVGID_30_);fill:#B8ACFF;stroke:#FFFFFF;stroke-miterlimit:10;}
	.st15{clip-path:url(#SVGID_32_);fill:#B8ACFF;stroke:#FFFFFF;stroke-miterlimit:10;}
	.st16{clip-path:url(#SVGID_34_);fill:#B8ACFF;stroke:#FFFFFF;stroke-miterlimit:10;}
	.st17{clip-path:url(#SVGID_36_);fill:#B8ACFF;stroke:#FFFFFF;stroke-miterlimit:10;}
	.st18{clip-path:url(#SVGID_38_);fill:#B8ACFF;stroke:#FFFFFF;stroke-miterlimit:10;}
	.st19{clip-path:url(#SVGID_40_);fill:#B8ACFF;stroke:#FFFFFF;stroke-miterlimit:10;}
	.st20{clip-path:url(#SVGID_42_);fill:#B8ACFF;stroke:#FFFFFF;stroke-miterlimit:10;}
	.st21{clip-path:url(#SVGID_44_);fill:#B8ACFF;stroke:#FFFFFF;stroke-miterlimit:10;}
	.st22{clip-path:url(#SVGID_46_);fill:#B8ACFF;stroke:#FFFFFF;stroke-miterlimit:10;}
	.st23{clip-path:url(#SVGID_48_);fill:#B8ACFF;stroke:#FFFFFF;stroke-miterlimit:10;}
	.st24{fill:#B8ACFF;stroke:#FFFFFF;stroke-miterlimit:10;}
	.st25{fill:#583E89;}
	.st26{fill:#939AE5;}
	.st27{fill:#D0BDF4;}
	.st28{fill:#FCE6ED;}
	.st29{fill:none;}
</style>
<g>
	<g>
		<defs>
			<circle id="SVGID_1_" cx="400" cy="300" r="117.2"/>
		</defs>
		<clipPath id="SVGID_2_">
			<use xlink:href="#SVGID_1_"  style="overflow:visible;"/>
		</clipPath>
		<g class="st0">
			<g>
				<g>
					<defs>
						<circle id="SVGID_3_" cx="400" cy="300" r="273"/>
					</defs>
					<clipPath id="SVGID_4_">
						<use xlink:href="#SVGID_3_"  style="overflow:visible;"/>
					</clipPath>
					<rect y="0" class="st1" width="2" height="600"/>
				</g>
				<g>
					<g>
						<defs>
							<circle id="SVGID_5_" cx="400" cy="300" r="273"/>
						</defs>
						<clipPath id="SVGID_6_">
							<use xlink:href="#SVGID_5_"  style="overflow:visible;"/>
						</clipPath>
						<rect x="6" y="0" class="st2" width="2" height="600"/>
					</g>
					<g>
						<g>
							<defs>
								<circle id="SVGID_7_" cx="400" cy="300" r="273"/>
							</defs>
							<clipPath id="SVGID_8_">
								<use xlink:href="#SVGID_7_"  style="overflow:visible;"/>
							</clipPath>
							<rect x="12" y="0" class="st3" width="2" height="600"/>
						</g>
						<g>
							<g>
								<defs>
									<circle id="SVGID_9_" cx="400" cy="300" r="273"/>
								</defs>
								<clipPath id="SVGID_10_">
									<use xlink:href="#SVGID_9_"  style="overflow:visible;"/>
								</clipPath>
								<rect x="18" y="0" class="st4" width="2" height="600"/>
							</g>
							<g>
								<g>
									<defs>
										<circle id="SVGID_11_" cx="400" cy="300" r="273"/>
									</defs>
									<clipPath id="SVGID_12_">
										<use xlink:href="#SVGID_11_"  style="overflow:visible;"/>
									</clipPath>
									<rect x="24" y="0" class="st5" width="2" height="600"/>
								</g>
								<g>
									<g>
										<defs>
											<circle id="SVGID_13_" cx="400" cy="300" r="273"/>
										</defs>
										<clipPath id="SVGID_14_">
											<use xlink:href="#SVGID_13_"  style="overflow:visible;"/>
										</clipPath>
										<rect x="30" y="0" class="st6" width="2" height="600"/>
									</g>
									<g>
										<g>
											<defs>
												<circle id="SVGID_15_" cx="400" cy="300" r="273"/>
											</defs>
											<clipPath id="SVGID_16_">
												<use xlink:href="#SVGID_15_"  style="overflow:visible;"/>
											</clipPath>
											<rect x="36" y="0" class="st7" width="2" height="600"/>
										</g>
										<g>
											<g>
												<defs>
													<circle id="SVGID_17_" cx="400" cy="300" r="273"/>
												</defs>
												<clipPath id="SVGID_18_">
													<use xlink:href="#SVGID_17_"  style="overflow:visible;"/>
												</clipPath>
												<rect x="42" y="0" class="st8" width="2" height="600"/>
											</g>
											<g>
												<g>
													<defs>
														<circle id="SVGID_19_" cx="400" cy="300" r="273"/>
													</defs>
													<clipPath id="SVGID_20_">
														<use xlink:href="#SVGID_19_"  style="overflow:visible;"/>
													</clipPath>
													<rect x="48" y="0" class="st9" width="2" height="600"/>
												</g>
												<g>
													<g>
														<defs>
															<circle id="SVGID_21_" cx="400" cy="300" r="273"/>
														</defs>
														<clipPath id="SVGID_22_">
															<use xlink:href="#SVGID_21_"  style="overflow:visible;"/>
														</clipPath>
														<rect x="54" y="0" class="st10" width="2" height="600"/>
													</g>
													<g>
														<g>
															<defs>
																<circle id="SVGID_23_" cx="400" cy="300" r="273"/>
															</defs>
															<clipPath id="SVGID_24_">
																<use xlink:href="#SVGID_23_"  style="overflow:visible;"/>
															</clipPath>
															<rect x="60" y="0" class="st11" width="2" height="600"/>
														</g>
														<g>
															<g>
																<defs>
																	<circle id="SVGID_25_" cx="400" cy="300" r="273"/>
																</defs>
																<clipPath id="SVGID_26_">
																	<use xlink:href="#SVGID_25_"  style="overflow:visible;"/>
																</clipPath>
																<rect x="66" y="0" class="st12" width="2" height="600"/>
															</g>
															<g>
																<g>
																	<defs>
																		<circle id="SVGID_27_" cx="400" cy="300" r="273"/>
																	</defs>
																	<clipPath id="SVGID_28_">
																		<use xlink:href="#SVGID_27_"  style="overflow:visible;"/>
																	</clipPath>
																	<rect x="72" y="0" class="st13" width="2" height="600"/>
																</g>
																<g>
																	<g>
																		<defs>
																			<circle id="SVGID_29_" cx="400" cy="300" r="273"/>
																		</defs>
																		<clipPath id="SVGID_30_">
																			<use xlink:href="#SVGID_29_"  style="overflow:visible;"/>
																		</clipPath>
																		<rect x="78" y="0" class="st14" width="2" height="600"/>
																	</g>
																	<g>
																		<g>
																			<defs>
																				<circle id="SVGID_31_" cx="400" cy="300" r="273"/>
																			</defs>
																			<clipPath id="SVGID_32_">
																				<use xlink:href="#SVGID_31_"  style="overflow:visible;"/>
																			</clipPath>
																			<rect x="84" y="0" class="st15" width="2" height="600"/>
																		</g>
																		<g>
																			<g>
																				<defs>
																					<circle id="SVGID_33_" cx="400" cy="300" r="273"/>
																				</defs>
																				<clipPath id="SVGID_34_">
																					<use xlink:href="#SVGID_33_"  style="overflow:visible;"/>
																				</clipPath>
																				<rect x="90" y="0" class="st16" width="2" height="600"/>
																			</g>
																			<g>
																				<g>
																					<defs>
																						<circle id="SVGID_35_" cx="400" cy="300" r="273"/>
																					</defs>
																					<clipPath id="SVGID_36_">
																						<use xlink:href="#SVGID_35_"  style="overflow:visible;"/>
																					</clipPath>
																					<rect x="96" y="0" class="st17" width="2" height="600"/>
																				</g>
																				<g>
																					<g>
																						<defs>
																							<circle id="SVGID_37_" cx="400" cy="300" r="273"/>
																						</defs>
																						<clipPath id="SVGID_38_">
																							<use xlink:href="#SVGID_37_"  style="overflow:visible;"/>
																						</clipPath>
																						<rect x="102" y="0" class="st18" width="2" height="600"/>
																					</g>
																					<g>
																						<g>
																							<defs>
																								<circle id="SVGID_39_" cx="400" cy="300" r="273"/>
																							</defs>
																							<clipPath id="SVGID_40_">
																								<use xlink:href="#SVGID_39_"  style="overflow:visible;"/>
																							</clipPath>
																							<rect x="108" y="0" class="st19" width="2" height="600"/>
																						</g>
																						<g>
																							<g>
																								<defs>
																									<circle id="SVGID_41_" cx="400" cy="300" r="273"/>
																								</defs>
																								<clipPath id="SVGID_42_">
																									<use xlink:href="#SVGID_41_"  style="overflow:visible;"/>
																								</clipPath>
																								<rect x="114" y="0" class="st20" width="2" height="600"/>
																							</g>
																							<g>
																								<g>
																									<defs>
																										<circle id="SVGID_43_" cx="400" cy="300" r="273"/>
																									</defs>
																									<clipPath id="SVGID_44_">
																										<use xlink:href="#SVGID_43_"  style="overflow:visible;"/>
																									</clipPath>
																									<rect x="120" y="0" class="st21" width="2" height="600"/>
																								</g>
																								<g>
																									<g>
																										<defs>
																											<circle id="SVGID_45_" cx="400" cy="300" r="273"/>
																										</defs>
																										<clipPath id="SVGID_46_">
																											<use xlink:href="#SVGID_45_"  style="overflow:visible;"/>
																										</clipPath>
																										<rect x="126" y="0" class="st22" width="2" height="600"/>
																									</g>
																									<g>
																										<g>
																											<defs>
																												<circle id="SVGID_47_" cx="400" cy="300" r="273"/>
																											</defs>
																											<clipPath id="SVGID_48_">
																												<use xlink:href="#SVGID_47_"  style="overflow:visible;"/>
																											</clipPath>
																											<rect x="132" y="0" class="st23" width="2" height="600"/>
																										</g>
																										<g>
																											<g>
																												<rect x="138" y="0" class="st24" width="2" height="600"/>
																											</g>
																											<g>
																												<g>
																													<rect x="144" y="0" class="st24" width="2" height="600"/>
																												</g>
																												<g>
																													<rect x="150" y="0" class="st24" width="2" height="600"/>
																												</g>
																												<g>
																													<rect x="156" y="0" class="st24" width="2" height="600"/>
																												</g>
																												<g>
																													<rect x="162" y="0" class="st24" width="2" height="600"/>
																												</g>
																												<g>
																													<rect x="168" y="0" class="st24" width="2" height="600"/>
																												</g>
																												<g>
																													<rect x="174" y="0" class="st24" width="2" height="600"/>
																												</g>
																												<g>
																													<rect x="180" y="0" class="st24" width="2" height="600"/>
																												</g>
																												<g>
																													<rect x="186" y="0" class="st24" width="2" height="600"/>
																												</g>
																												<g>
																													<rect x="192" y="0" class="st24" width="2" height="600"/>
																												</g>
																												<g>
																													<rect x="198" y="0" class="st24" width="2" height="600"/>
																												</g>
																												<g>
																													<rect x="204" y="0" class="st24" width="2" height="600"/>
																												</g>
																												<g>
																													<rect x="210" y="0" class="st24" width="2" height="600"/>
																												</g>
																												<g>
																													<rect x="216" y="0" class="st24" width="2" height="600"/>
																												</g>
																												<g>
																													<rect x="222" y="0" class="st24" width="2" height="600"/>
																												</g>
																												<g>
																													<rect x="228" y="0" class="st24" width="2" height="600"/>
																												</g>
																												<g>
																													<rect x="234" y="0" class="st24" width="2" height="600"/>
																												</g>
																												<g>
																													<rect x="240" y="0" class="st24" width="2" height="600"/>
																												</g>
																												<g>
																													<rect x="246" y="0" class="st24" width="2" height="600"/>
																												</g>
																												<g>
																													<rect x="252" y="0" class="st24" width="2" height="600"/>
																												</g>
																												<g>
																													<rect x="258" y="0" class="st24" width="2" height="600"/>
																												</g>
																												<g>
																													<rect x="264" y="0" class="st24" width="2" height="600"/>
																												</g>
																												<g>
																													<rect x="270" y="0" class="st24" width="2" height="600"/>
																												</g>
																												<g>
																													<rect x="276" y="0" class="st24" width="2" height="600"/>
																												</g>
																												<g>
																													<rect x="282" y="0" class="st24" width="2" height="600"/>
																												</g>
																												<g>
																													<rect x="288" y="0" class="st24" width="2" height="600"/>
																												</g>
																												<g>
																													<rect x="294" y="0" class="st24" width="2" height="600"/>
																												</g>
																												<g>
																													<rect x="300" y="0" class="st24" width="2" height="600"/>
																												</g>
																												<g>
																													<rect x="306" y="0" class="st24" width="2" height="600"/>
																												</g>
																												<g>
																													<rect x="312" y="0" class="st24" width="2" height="600"/>
																												</g>
																												<g>
																													<rect x="318" y="0" class="st24" width="2" height="600"/>
																												</g>
																												<g>
																													<rect x="324" y="0" class="st24" width="2" height="600"/>
																												</g>
																												<g>
																													<rect x="330" y="0" class="st24" width="2" height="600"/>
																												</g>
																												<g>
																													<rect x="336" y="0" class="st24" width="2" height="600"/>
																												</g>
																												<g>
																													<rect x="342" y="0" class="st24" width="2" height="600"/>
																												</g>
																												<g>
																													<rect x="348" y="0" class="st24" width="2" height="600"/>
																												</g>
																												<g>
																													<rect x="354" y="0" class="st24" width="2" height="600"/>
																												</g>
																												<g>
																													<rect x="360" y="0" class="st24" width="2" height="600"/>
																												</g>
																												<g>
																													<rect x="366" y="0" class="st24" width="2" height="600"/>
																												</g>
																												<g>
																													<rect x="372" y="0" class="st24" width="2" height="600"/>
																												</g>
																												<g>
																													<rect x="378" y="0" class="st24" width="2" height="600"/>
																												</g>
																												<g>
																													<rect x="384" y="0" class="st24" width="2" height="600"/>
																												</g>
																												<g>
																													<rect x="390" y="0" class="st24" width="2" height="600"/>
																												</g>
																												<g>
																													<rect x="396" y="0" class="st24" width="2" height="600"/>
																												</g>
																												<g>
																													<rect x="402" y="0" class="st24" width="2" height="600"/>
																												</g>
																												<g>
																													<rect x="408" y="0" class="st24" width="2" height="600"/>
																												</g>
																												<g>
																													<rect x="414" y="0" class="st24" width="2" height="600"/>
																												</g>
																												<g>
																													<rect x="420" y="0" class="st24" width="2" height="600"/>
																												</g>
																												<g>
																													<rect x="426" y="0" class="st24" width="2" height="600"/>
																												</g>
																												<g>
																													<rect x="432" y="0" class="st24" width="2" height="600"/>
																												</g>
																												<g>
																													<rect x="438" y="0" class="st24" width="2" height="600"/>
																												</g>
																												<g>
																													<rect x="444" y="0" class="st24" width="2" height="600"/>
																												</g>
																												<g>
																													<rect x="450" y="0" class="st24" width="2" height="600"/>
																												</g>
																												<g>
																													<rect x="456" y="0" class="st24" width="2" height="600"/>
																												</g>
																												<g>
																													<rect x="462" y="0" class="st24" width="2" height="600"/>
																												</g>
																												<g>
																													<rect x="468" y="0" class="st24" width="2" height="600"/>
																												</g>
																												<g>
																													<rect x="474" y="0" class="st24" width="2" height="600"/>
																												</g>
																												<g>
																													<rect x="480" y="0" class="st24" width="2" height="600"/>
																												</g>
																												<g>
																													<rect x="486" y="0" class="st24" width="2" height="600"/>
																												</g>
																												<g>
																													<rect x="492" y="0" class="st24" width="2" height="600"/>
																												</g>
																												<g>
																													<rect x="498" y="0" class="st24" width="2" height="600"/>
																												</g>
																												<g>
																													<rect x="504" y="0" class="st24" width="2" height="600"/>
																												</g>
																												<g>
																													<rect x="510" y="0" class="st24" width="2" height="600"/>
																												</g>
																												<g>
																													<rect x="516" y="0" class="st24" width="2" height="600"/>
																												</g>
																												<g>
																													<rect x="522" y="0" class="st24" width="2" height="600"/>
																												</g>
																												<g>
																													<rect x="528" y="0" class="st24" width="2" height="600"/>
																												</g>
																												<g>
																													<rect x="534" y="0" class="st24" width="2" height="600"/>
																												</g>
																												<g>
																													<rect x="540" y="0" class="st24" width="2" height="600"/>
																												</g>
																												<g>
																													<rect x="546" y="0" class="st24" width="2" height="600"/>
																												</g>
																												<g>
																													<rect x="552" y="0" class="st24" width="2" height="600"/>
																												</g>
																												<g>
																													<rect x="558" y="0" class="st24" width="2" height="600"/>
																												</g>
																												<g>
																													<rect x="564" y="0" class="st24" width="2" height="600"/>
																												</g>
																												<g>
																													<rect x="570" y="0" class="st24" width="2" height="600"/>
																												</g>
																												<g>
																													<rect x="576" y="0" class="st24" width="2" height="600"/>
																												</g>
																												<g>
																													<rect x="582" y="0" class="st24" width="2" height="600"/>
																												</g>
																												<g>
																													<rect x="588" y="0" class="st24" width="2" height="600"/>
																												</g>
																												<g>
																													<rect x="594" y="0" class="st24" width="2" height="600"/>
																												</g>
																												<g>
																													<rect x="600" y="0" class="st24" width="2" height="600"/>
																												</g>
																												<g>
																													<rect x="606" y="0" class="st24" width="2" height="600"/>
																												</g>
																												<g>
																													<rect x="612" y="0" class="st24" width="2" height="600"/>
																												</g>
																												<g>
																													<rect x="618" y="0" class="st24" width="2" height="600"/>
																												</g>
																												<g>
																													<rect x="624" y="0" class="st24" width="2" height="600"/>
																												</g>
																												<g>
																													<rect x="630" y="0" class="st24" width="2" height="600"/>
																												</g>
																												<g>
																													<rect x="636" y="0" class="st24" width="2" height="600"/>
																												</g>
																												<g>
																													<rect x="642" y="0" class="st24" width="2" height="600"/>
																												</g>
																												<g>
																													<rect x="648" y="0" class="st24" width="2" height="600"/>
																												</g>
																												<g>
																													<rect x="654" y="0" class="st24" width="2" height="600"/>
																												</g>
																												<g>
																													<rect x="660" y="0" class="st24" width="2" height="600"/>
																												</g>
																												<g>
																													<rect x="666" y="0" class="st24" width="2" height="600"/>
																												</g>
																												<g>
																													<rect x="672" y="0" class="st24" width="2" height="600"/>
																												</g>
																												<g>
																													<rect x="678" y="0" class="st24" width="2" height="600"/>
																												</g>
																												<g>
																													<rect x="684" y="0" class="st24" width="2" height="600"/>
																												</g>
																												<g>
																													<rect x="690" y="0" class="st24" width="2" height="600"/>
																												</g>
																												<g>
																													<rect x="696" y="0" class="st24" width="2" height="600"/>
																												</g>
																												<g>
																													<rect x="702" y="0" class="st24" width="2" height="600"/>
																												</g>
																												<g>
																													<rect x="708" y="0" class="st24" width="2" height="600"/>
																												</g>
																												<g>
																													<rect x="714" y="0" class="st24" width="2" height="600"/>
																												</g>
																												<g>
																													<rect x="720" y="0" class="st24" width="2" height="600"/>
																												</g>
																												<g>
																													<rect x="726" y="0" class="st24" width="2" height="600"/>
																												</g>
																												<g>
																													<rect x="732" y="0" class="st24" width="2" height="600"/>
																												</g>
																												<g>
																													<rect x="738" y="0" class="st24" width="2" height="600"/>
																												</g>
																												<g>
																													<rect x="744" y="0" class="st24" width="2" height="600"/>
																												</g>
																												<g>
																													<rect x="750" y="0" class="st24" width="2" height="600"/>
																												</g>
																												<g>
																													<rect x="756" y="0" class="st24" width="2" height="600"/>
																												</g>
																												<g>
																													<rect x="762" y="0" class="st24" width="2" height="600"/>
																												</g>
																												<g>
																													<rect x="768" y="0" class="st24" width="2" height="600"/>
																												</g>
																												<g>
																													<rect x="774" y="0" class="st24" width="2" height="600"/>
																												</g>
																												<g>
																													<rect x="780" y="0" class="st24" width="2" height="600"/>
																												</g>
																												<g>
																													<rect x="786" y="0" class="st24" width="2" height="600"/>
																												</g>
																												<g>
																													<rect x="792" y="0" class="st24" width="2" height="600"/>
																												</g>
																												<g>
																													<rect x="798" y="0" class="st24" width="2" height="600"/>
																												</g>
																											</g>
																										</g>
																										<rect x="321.5" y="-82.1" class="st25" width="84" height="51"/>
																										<rect x="264" y="-106.6" class="st26" width="57.5" height="57.5"/>
																										<rect x="198.2" y="-116.4" class="st27" width="65.9" height="38.5"/>
																										<rect x="146.1" y="-125.9" class="st28" width="38.5" height="38.5"/>
																									</g>
																								</g>
																							</g>
																						</g>
																					</g>
																				</g>
																			</g>
																		</g>
																	</g>
																</g>
															</g>
														</g>
													</g>
												</g>
											</g>
										</g>
									</g>
								</g>
							</g>
						</g>
					</g>
				</g>
			</g>
		</g>
	</g>
</g>
<circle class="st29" cx="400" cy="300" r="273"/>
<circle class="st29" cx="400" cy="300" r="273"/>
<circle class="st29" cx="400" cy="300" r="273"/>
<circle class="st29" cx="400" cy="300" r="273"/>
<circle class="st29" cx="400" cy="300" r="273"/>
<circle class="st29" cx="400" cy="300" r="273"/>
<circle class="st29" cx="400" cy="300" r="273"/>
<circle class="st29" cx="400" cy="300" r="273"/>
<circle class="st29" cx="400" cy="300" r="273"/>
<circle class="st29" cx="400" cy="300" r="273"/>
<circle class="st29" cx="400" cy="300" r="273"/>
<circle class="st29" cx="400" cy="300" r="273"/>
<circle class="st29" cx="400" cy="300" r="273"/>
<circle class="st29" cx="400" cy="300" r="273"/>
<circle class="st29" cx="400" cy="300" r="273"/>
<circle class="st29" cx="400" cy="300" r="273"/>
<circle class="st29" cx="400" cy="300" r="273"/>
<circle class="st29" cx="400" cy="300" r="273"/>
<circle class="st29" cx="400" cy="300" r="273"/>
<circle class="st29" cx="400" cy="300" r="273"/>
<circle class="st29" cx="400" cy="300" r="273"/>
<circle class="st29" cx="400" cy="300" r="273"/>
<circle class="st29" cx="400" cy="300" r="273"/>
<circle class="st29" cx="400" cy="300" r="273"/>
<circle class="st29" cx="400" cy="300" r="273"/>
<circle class="st29" cx="400" cy="300" r="273"/>
<circle class="st29" cx="400" cy="300" r="273"/>
<circle class="st29" cx="400" cy="300" r="273"/>
<circle class="st29" cx="400" cy="300" r="273"/>
<circle class="st29" cx="400" cy="300" r="273"/>
<circle class="st29" cx="400" cy="300" r="273"/>
<circle class="st29" cx="400" cy="300" r="273"/>
<circle class="st29" cx="400" cy="300" r="273"/>
<circle class="st29" cx="400" cy="300" r="273"/>
<circle class="st29" cx="400" cy="300" r="273"/>
<circle class="st29" cx="400" cy="300" r="273"/>
<circle class="st29" cx="400" cy="300" r="273"/>
<circle class="st29" cx="400" cy="300" r="273"/>
<circle class="st29" cx="400" cy="300" r="273"/>
<circle class="st29" cx="400" cy="300" r="273"/>
<circle class="st29" cx="400" cy="300" r="273"/>
<circle class="st29" cx="400" cy="300" r="273"/>
<circle class="st29" cx="400" cy="300" r="273"/>
<circle class="st29" cx="400" cy="300" r="273"/>
<circle class="st29" cx="400" cy="300" r="273"/>
<circle class="st29" cx="400" cy="300" r="273"/>
<circle class="st29" cx="400" cy="300" r="273"/>
<circle class="st29" cx="400" cy="300" r="273"/>
<circle class="st29" cx="400" cy="300" r="273"/>
<circle class="st29" cx="400" cy="300" r="273"/>
<circle class="st29" cx="400" cy="300" r="273"/>
<circle class="st29" cx="400" cy="300" r="273"/>
<circle class="st29" cx="400" cy="300" r="273"/>
<circle class="st29" cx="400" cy="300" r="273"/>
<circle class="st29" cx="400" cy="300" r="273"/>
<circle class="st29" cx="400" cy="300" r="273"/>
<circle class="st29" cx="400" cy="300" r="273"/>
<circle class="st29" cx="400" cy="300" r="273"/>
<circle class="st29" cx="400" cy="300" r="273"/>
<circle class="st29" cx="400" cy="300" r="273"/>
<circle class="st29" cx="400" cy="300" r="273"/>
<circle class="st29" cx="400" cy="300" r="273"/>
<circle class="st29" cx="400" cy="300" r="273"/>
<circle class="st29" cx="400" cy="300" r="273"/>
<circle class="st29" cx="400" cy="300" r="273"/>
<circle class="st29" cx="400" cy="300" r="273"/>
<circle class="st29" cx="400" cy="300" r="273"/>
<circle class="st29" cx="400" cy="300" r="273"/>
<circle class="st29" cx="400" cy="300" r="273"/>
<circle class="st29" cx="400" cy="300" r="273"/>
<circle class="st29" cx="400" cy="300" r="273"/>
<circle class="st29" cx="400" cy="300" r="273"/>
<circle class="st29" cx="400" cy="300" r="273"/>
<circle class="st29" cx="400" cy="300" r="273"/>
<circle class="st29" cx="400" cy="300" r="273"/>
<circle class="st29" cx="400" cy="300" r="273"/>
<circle class="st29" cx="400" cy="300" r="273"/>
<circle class="st29" cx="400" cy="300" r="273"/>
<circle class="st29" cx="400" cy="300" r="273"/>
<circle class="st29" cx="400" cy="300" r="273"/>
<circle class="st29" cx="400" cy="300" r="273"/>
<circle class="st29" cx="400" cy="300" r="273"/>
<circle class="st29" cx="400" cy="300" r="273"/>
<circle class="st29" cx="400" cy="300" r="273"/>
<circle class="st29" cx="400" cy="300" r="273"/>
<circle class="st29" cx="400" cy="300" r="273"/>
<circle class="st29" cx="400" cy="300" r="273"/>
<circle class="st29" cx="400" cy="300" r="273"/>
<circle class="st29" cx="400" cy="300" r="273"/>
<circle class="st29" cx="400" cy="300" r="273"/>
<circle class="st29" cx="400" cy="300" r="273"/>
<circle class="st29" cx="400" cy="300" r="273"/>
<circle class="st29" cx="400" cy="300" r="273"/>
<circle class="st29" cx="400" cy="300" r="273"/>
<circle class="st29" cx="400" cy="300" r="273"/>
<circle class="st29" cx="400" cy="300" r="273"/>
<circle class="st29" cx="400" cy="300" r="273"/>
<circle class="st29" cx="400" cy="300" r="273"/>
<circle class="st29" cx="400" cy="300" r="273"/>
<circle class="st29" cx="400" cy="300" r="273"/>
<circle class="st29" cx="400" cy="300" r="273"/>
<circle class="st29" cx="400" cy="300" r="273"/>
<circle class="st29" cx="400" cy="300" r="273"/>
<circle class="st29" cx="400" cy="300" r="273"/>
<circle class="st29" cx="400" cy="300" r="273"/>
<circle class="st29" cx="400" cy="300" r="273"/>
<circle class="st29" cx="400" cy="300" r="273"/>
<circle class="st29" cx="400" cy="300" r="273"/>
<circle class="st29" cx="400" cy="300" r="273"/>
<circle class="st29" cx="400" cy="300" r="273"/>
<circle class="st29" cx="400" cy="300" r="273"/>
</svg>
