<?xml version="1.0" encoding="utf-8"?>
<!-- Generator: Adobe Illustrator 22.0.1, SVG Export Plug-In . SVG Version: 6.00 Build 0)  -->
<svg version="1.1" id="レイヤー_1" xmlns="http://www.w3.org/2000/svg" xmlns:xlink="http://www.w3.org/1999/xlink" x="0px"
	 y="0px" width="800px" height="600px" viewBox="0 0 800 600" style="enable-background:new 0 0 800 600;" xml:space="preserve">
<style type="text/css">
	.st0{fill:#D0BDF4;}
	.st1{fill:#939AE5;}
	.st2{fill:#583E89;}
	.st3{fill:#FCE6ED;}
</style>
<path class="st0" d="M88.8,55H33.2c-2.8,0-5-2.2-5-5s2.2-5,5-5h55.6c2.8,0,5,2.2,5,5S91.6,55,88.8,55z"/>
<path class="st1" d="M239.6,331c-0.6,0-1.2-0.1-1.8-0.3c-2.6-1-3.9-3.9-2.9-6.5c3-7.8,2.7-16.3-0.7-24s-9.6-13.5-17.4-16.5
	c-2.6-1-3.9-3.9-2.9-6.5c1-2.6,3.9-3.9,6.5-2.9c10.3,3.9,18.5,11.6,23,21.7s4.8,21.3,0.9,31.6C243.5,329.7,241.6,331,239.6,331z"/>
<path class="st1" d="M218.6,284.1c-0.6,0-1.2-0.1-1.8-0.3c-10.3-3.9-18.5-11.6-23-21.7s-4.8-21.3-0.9-31.6c1-2.6,3.9-3.9,6.5-2.9
	c2.6,1,3.9,3.9,2.9,6.5c-3,7.8-2.7,16.3,0.7,24c3.4,7.6,9.6,13.5,17.4,16.5c2.6,1,3.9,3.9,2.9,6.5
	C222.5,282.9,220.6,284.1,218.6,284.1z"/>
<path class="st0" d="M278.3,376.7c-2.8,0-5-2.2-5-5c0-41.8,34-75.8,75.8-75.8c2.8,0,5,2.2,5,5c0,2.8-2.2,5-5,5
	c-36.3,0-65.8,29.5-65.8,65.8C283.3,374.4,281.1,376.7,278.3,376.7z"/>
<path class="st1" d="M676.6,305c-2.8,0-5-2.2-5-5c0-42.3,34.4-76.7,76.7-76.7c2.8,0,5,2.2,5,5s-2.2,5-5,5
	c-36.8,0-66.7,29.9-66.7,66.7C681.6,302.8,679.3,305,676.6,305z"/>
<path class="st1" d="M513.1,346.6c-2.8,0-5-2.2-5-5c0-44.7-36.3-81-81-81c-2.8,0-5-2.2-5-5s2.2-5,5-5c50.2,0,91,40.8,91,91
	C518.1,344.3,515.9,346.6,513.1,346.6z"/>
<path class="st1" d="M458.6,401.2c-6.3,0-12.7-1-18.9-3.1c-2.6-0.9-4-3.7-3.2-6.3c0.9-2.6,3.7-4,6.3-3.2c12.6,4.2,26,3.2,37.9-2.7
	c11.9-5.9,20.7-16.1,24.9-28.7c0.9-2.6,3.7-4,6.3-3.2c2.6,0.9,4,3.7,3.2,6.3c-5,15.1-15.7,27.4-29.9,34.5
	C476.8,399.1,467.7,401.2,458.6,401.2z"/>
<path class="st0" d="M556.5,470.5c-2.8,0-5-2.2-5-5V264.1c0-2.8,2.2-5,5-5s5,2.2,5,5v201.4C561.5,468.3,559.2,470.5,556.5,470.5z"/>
<path class="st1" d="M747.2,305h-69.9c-2.8,0-5-2.2-5-5c0-2.8,2.2-5,5-5h69.9c2.8,0,5,2.2,5,5C752.2,302.8,749.9,305,747.2,305z"/>
<path class="st0" d="M141.7,177.9H88.8c-2.8,0-5-2.2-5-5s2.2-5,5-5h52.9c2.8,0,5,2.2,5,5S144.5,177.9,141.7,177.9z"/>
<path class="st0" d="M115.3,300.9h-82c-2.8,0-5-2.2-5-5s2.2-5,5-5h82c2.8,0,5,2.2,5,5S118,300.9,115.3,300.9z"/>
<path class="st0" d="M33.2,301.8c-2.8,0-5-2.2-5-5v-46c0-2.8,2.2-5,5-5s5,2.2,5,5v46C38.2,299.6,36,301.8,33.2,301.8z"/>
<path class="st0" d="M33.2,102.6c-2.8,0-5-2.2-5-5V49c0-2.8,2.2-5,5-5s5,2.2,5,5v48.6C38.2,100.4,36,102.6,33.2,102.6z"/>
<rect x="921.9" y="38.2" class="st2" width="51" height="84"/>
<rect x="897.4" y="122.2" class="st1" width="57.5" height="57.5"/>
<rect x="887.7" y="179.7" class="st0" width="38.5" height="65.9"/>
<rect x="878.2" y="259.2" class="st3" width="38.5" height="38.5"/>
</svg>
