<?xml version="1.0" encoding="utf-8"?>
<!-- Generator: Adobe Illustrator 22.0.1, SVG Export Plug-In . SVG Version: 6.00 Build 0)  -->
<svg version="1.1" id="レイヤー_1" xmlns="http://www.w3.org/2000/svg" xmlns:xlink="http://www.w3.org/1999/xlink" x="0px"
	 y="0px" width="800px" height="600px" viewBox="0 0 800 600" style="enable-background:new 0 0 800 600;" xml:space="preserve">
<style type="text/css">
	.st0{fill:#D0BDF4;}
	.st1{fill:#939AE5;}
	.st2{fill:#583E89;}
	.st3{fill:#FCE6ED;}
</style>
<path class="st0" d="M141.7,55H87.5c-2.8,0-5-2.2-5-5s2.2-5,5-5h54.2c2.8,0,5,2.2,5,5S144.5,55,141.7,55z"/>
<path class="st0" d="M556.1,411.4c-2.8,0-5-2.2-5-5s2.2-5,5-5c36.5,0,66.1-29.7,66.1-66.1c0-36.5-29.7-66.1-66.1-66.1
	c-2.8,0-5-2.2-5-5s2.2-5,5-5c42,0,76.1,34.1,76.1,76.1C632.2,377.2,598,411.4,556.1,411.4z"/>
<path class="st1" d="M205.6,354.4c-4.9,0-9.8-0.9-14.7-2.7c-2.6-1-3.9-3.9-2.9-6.5c1-2.6,3.9-3.9,6.5-2.9c16.2,6.1,34.3-2,40.4-18.1
	c1-2.6,3.9-3.9,6.5-2.9c2.6,1,3.9,3.9,2.9,6.5C238,344.2,222.3,354.4,205.6,354.4z"/>
<path class="st1" d="M218.6,279.1"/>
<path class="st1" d="M197.5,237.2c-0.6,0-1.2-0.1-1.8-0.3c-2.6-1-3.9-3.9-2.9-6.5c8.1-21.3,32-32,53.3-23.9c2.6,1,3.9,3.9,2.9,6.5
	c-1,2.6-3.9,3.9-6.5,2.9c-16.2-6.1-34.3,2-40.4,18.1C201.4,236,199.5,237.2,197.5,237.2z"/>
<path class="st0" d="M349.1,447.4c-41.8,0-75.8-34-75.8-75.8c0-2.8,2.2-5,5-5s5,2.2,5,5c0,36.3,29.5,65.8,65.8,65.8c2.8,0,5,2.2,5,5
	S351.8,447.4,349.1,447.4z"/>
<path class="st1" d="M748.2,228.3"/>
<path class="st1" d="M748.2,376.7c-42.3,0-76.7-34.4-76.7-76.7c0-2.8,2.2-5,5-5s5,2.2,5,5c0,36.8,29.9,66.7,66.7,66.7
	c2.8,0,5,2.2,5,5S751,376.7,748.2,376.7z"/>
<path class="st1" d="M513.1,341.6"/>
<path class="st1" d="M441.2,398.4c-0.5,0-1.1-0.1-1.6-0.3c-31.2-10.4-48.1-44.2-37.7-75.4c10.4-31.2,44.2-48.1,75.4-37.7
	c15.1,5,27.4,15.7,34.5,29.9c7.1,14.2,8.3,30.4,3.2,45.5c-0.9,2.6-3.7,4-6.3,3.2c-2.6-0.9-4-3.7-3.2-6.3c4.2-12.6,3.2-26-2.7-37.9
	s-16.1-20.7-28.7-24.9c-26-8.7-54.1,5.4-62.8,31.4c-8.6,26,5.4,54.1,31.4,62.8C445.4,389.5,443.3,398.4,441.2,398.4z"/>
<path class="st1" d="M677.3,300"/>
<path class="st1" d="M747.2,305c-2.8,0-5-2.2-5-5v-71.7c0-2.8,2.2-5,5-5s5,2.2,5,5V300C752.2,302.8,749.9,305,747.2,305z"/>
<path class="st0" d="M87.5,177.9H33.2c-2.8,0-5-2.2-5-5s2.2-5,5-5h54.2c2.8,0,5,2.2,5,5S90.2,177.9,87.5,177.9z"/>
<path class="st0" d="M141.7,300.9h-24.3c-2.8,0-5-2.2-5-5s2.2-5,5-5h24.3c2.8,0,5,2.2,5,5S144.5,300.9,141.7,300.9z"/>
<path class="st0" d="M33.2,254.7c-2.8,0-5-2.2-5-5v-152c0-2.8,2.2-5,5-5s5,2.2,5,5v152C38.2,252.4,36,254.7,33.2,254.7z"/>
<rect x="906.4" y="-36.2" class="st2" width="51" height="84"/>
<rect x="881.9" y="47.8" class="st1" width="57.5" height="57.5"/>
<rect x="872.2" y="105.3" class="st0" width="38.5" height="65.9"/>
<rect x="862.7" y="184.8" class="st3" width="38.5" height="38.5"/>
</svg>
