<svg xmlns="http://www.w3.org/2000/svg" xmlns:xlink="http://www.w3.org/1999/xlink" width="597.91" height="530.16" viewBox="0 0 597.91 530.16"><defs><style>.cls-1{isolation:isolate;}.cls-2{mix-blend-mode:multiply;}.cls-3{fill:#009fb6;}.cls-4{fill:url(#名称未設定グラデーション_25);}.cls-5{fill:url(#名称未設定グラデーション_25-2);}.cls-6{fill:url(#名称未設定グラデーション_25-3);}.cls-7{fill:url(#名称未設定グラデーション_25-4);}.cls-8{fill:url(#名称未設定グラデーション_25-5);}.cls-9{fill:url(#名称未設定グラデーション_25-6);}.cls-10{fill:url(#名称未設定グラデーション_25-7);}.cls-11{fill:url(#名称未設定グラデーション_25-8);}.cls-12{fill:url(#名称未設定グラデーション_25-9);}.cls-13{fill:url(#名称未設定グラデーション_25-10);}.cls-14{fill:url(#名称未設定グラデーション_25-11);}.cls-15{fill:url(#名称未設定グラデーション_25-12);}.cls-16{fill:url(#名称未設定グラデーション_25-13);}.cls-17{fill:url(#名称未設定グラデーション_25-14);}.cls-18{fill:url(#名称未設定グラデーション_25-15);}.cls-19{fill:url(#名称未設定グラデーション_25-16);}.cls-20{fill:url(#名称未設定グラデーション_25-17);}.cls-21{fill:url(#名称未設定グラデーション_25-18);}.cls-22{fill:url(#名称未設定グラデーション_25-19);}.cls-23{fill:url(#名称未設定グラデーション_25-20);}.cls-24{fill:url(#名称未設定グラデーション_25-21);}.cls-25{fill:url(#名称未設定グラデーション_25-22);}.cls-26{fill:url(#名称未設定グラデーション_25-23);}.cls-27{fill:url(#名称未設定グラデーション_25-24);}.cls-28{fill:url(#名称未設定グラデーション_25-25);}.cls-29{fill:url(#名称未設定グラデーション_25-26);}.cls-30{fill:url(#名称未設定グラデーション_25-27);}.cls-31{fill:url(#名称未設定グラデーション_25-28);}.cls-32{fill:url(#名称未設定グラデーション_25-29);}.cls-33{fill:url(#名称未設定グラデーション_25-30);}.cls-34{fill:url(#名称未設定グラデーション_25-31);}.cls-35{fill:url(#名称未設定グラデーション_25-32);}.cls-36{fill:url(#名称未設定グラデーション_25-33);}.cls-37{fill:url(#名称未設定グラデーション_25-34);}.cls-38{fill:url(#名称未設定グラデーション_25-35);}.cls-39{fill:url(#名称未設定グラデーション_25-36);}.cls-40{fill:url(#名称未設定グラデーション_25-37);}.cls-41{fill:url(#名称未設定グラデーション_25-38);}.cls-42{fill:url(#名称未設定グラデーション_25-39);}.cls-43{fill:url(#名称未設定グラデーション_25-40);}.cls-44{fill:url(#名称未設定グラデーション_25-41);}.cls-45{fill:url(#名称未設定グラデーション_25-42);}.cls-46{fill:url(#名称未設定グラデーション_25-43);}.cls-47{fill:url(#名称未設定グラデーション_25-44);}.cls-48{fill:url(#名称未設定グラデーション_25-45);}.cls-49{fill:url(#名称未設定グラデーション_25-46);}.cls-50{fill:url(#名称未設定グラデーション_25-47);}.cls-51{fill:url(#名称未設定グラデーション_25-48);}.cls-52{fill:url(#名称未設定グラデーション_25-49);}.cls-53{fill:url(#名称未設定グラデーション_25-50);}.cls-54{fill:url(#名称未設定グラデーション_25-51);}.cls-55{fill:url(#名称未設定グラデーション_25-52);}.cls-56{fill:url(#名称未設定グラデーション_25-53);}.cls-57{fill:url(#名称未設定グラデーション_25-54);}.cls-58{fill:url(#名称未設定グラデーション_25-55);}.cls-59{fill:url(#名称未設定グラデーション_25-56);}.cls-60{fill:url(#名称未設定グラデーション_25-57);}.cls-61{fill:url(#名称未設定グラデーション_25-58);}.cls-62{fill:url(#名称未設定グラデーション_25-59);}.cls-63{fill:url(#名称未設定グラデーション_25-60);}.cls-64{fill:url(#名称未設定グラデーション_25-61);}.cls-65{fill:url(#名称未設定グラデーション_25-62);}.cls-66{fill:url(#名称未設定グラデーション_25-63);}.cls-67{fill:url(#名称未設定グラデーション_25-64);}.cls-68{fill:url(#名称未設定グラデーション_25-65);}.cls-69{fill:url(#名称未設定グラデーション_25-66);}.cls-70{fill:url(#名称未設定グラデーション_25-67);}.cls-71{fill:url(#名称未設定グラデーション_25-68);}.cls-72{fill:url(#名称未設定グラデーション_25-69);}.cls-73{fill:url(#名称未設定グラデーション_25-70);}.cls-74{fill:url(#名称未設定グラデーション_25-71);}.cls-75{fill:url(#名称未設定グラデーション_25-72);}.cls-76{fill:url(#名称未設定グラデーション_25-73);}.cls-77{fill:url(#名称未設定グラデーション_25-74);}.cls-78{fill:url(#名称未設定グラデーション_25-75);}.cls-79{fill:url(#名称未設定グラデーション_25-76);}.cls-80{fill:url(#名称未設定グラデーション_25-77);}.cls-81{fill:url(#名称未設定グラデーション_25-78);}.cls-82{fill:url(#名称未設定グラデーション_25-79);}.cls-83{fill:url(#名称未設定グラデーション_25-80);}.cls-84{fill:url(#名称未設定グラデーション_25-81);}.cls-85{fill:url(#名称未設定グラデーション_25-82);}.cls-86{fill:url(#名称未設定グラデーション_25-83);}.cls-87{fill:url(#名称未設定グラデーション_25-84);}.cls-88{fill:url(#名称未設定グラデーション_25-85);}.cls-89{fill:url(#名称未設定グラデーション_25-86);}.cls-90{fill:url(#名称未設定グラデーション_25-87);}.cls-91{fill:url(#名称未設定グラデーション_25-88);}.cls-92{fill:url(#名称未設定グラデーション_25-89);}.cls-93{fill:url(#名称未設定グラデーション_25-90);}.cls-94{fill:url(#名称未設定グラデーション_25-91);}.cls-95{fill:url(#名称未設定グラデーション_25-92);}.cls-96{fill:url(#名称未設定グラデーション_25-93);}.cls-97{fill:url(#名称未設定グラデーション_25-94);}.cls-98{fill:url(#名称未設定グラデーション_25-95);}.cls-99{fill:url(#名称未設定グラデーション_25-96);}.cls-100{fill:url(#名称未設定グラデーション_25-97);}.cls-101{fill:url(#名称未設定グラデーション_25-98);}.cls-102{fill:url(#名称未設定グラデーション_25-99);}.cls-103{fill:url(#名称未設定グラデーション_25-100);}.cls-104{fill:url(#名称未設定グラデーション_25-101);}.cls-105{fill:url(#名称未設定グラデーション_25-102);}.cls-106{fill:url(#名称未設定グラデーション_25-103);}</style><linearGradient id="名称未設定グラデーション_25" x1="458.87" y1="465.42" x2="165.85" y2="108.21" gradientUnits="userSpaceOnUse"><stop offset="0" stop-color="#fbb03b"/><stop offset="0.58" stop-color="#a39402"/><stop offset="1" stop-color="#9f9300"/></linearGradient><linearGradient id="名称未設定グラデーション_25-2" x1="461.08" y1="463.61" x2="168.06" y2="106.41" xlink:href="#名称未設定グラデーション_25"/><linearGradient id="名称未設定グラデーション_25-3" x1="474.25" y1="452.8" x2="181.23" y2="95.6" xlink:href="#名称未設定グラデーション_25"/><linearGradient id="名称未設定グラデーション_25-4" x1="454.48" y1="469.02" x2="161.46" y2="111.81" xlink:href="#名称未設定グラデーション_25"/><linearGradient id="名称未設定グラデーション_25-5" x1="467.66" y1="458.21" x2="174.64" y2="101.01" xlink:href="#名称未設定グラデーション_25"/><linearGradient id="名称未設定グラデーション_25-6" x1="469.86" y1="456.4" x2="176.84" y2="99.2" xlink:href="#名称未設定グラデーション_25"/><linearGradient id="名称未設定グラデーション_25-7" x1="463.27" y1="461.81" x2="170.25" y2="104.61" xlink:href="#名称未設定グラデーション_25"/><linearGradient id="名称未設定グラデーション_25-8" x1="472.06" y1="454.6" x2="179.03" y2="97.4" xlink:href="#名称未設定グラデーション_25"/><linearGradient id="名称未設定グラデーション_25-9" x1="465.46" y1="460.01" x2="172.44" y2="102.81" xlink:href="#名称未設定グラデーション_25"/><linearGradient id="名称未設定グラデーション_25-10" x1="456.68" y1="467.22" x2="163.66" y2="110.01" xlink:href="#名称未設定グラデーション_25"/><linearGradient id="名称未設定グラデーション_25-11" x1="436.92" y1="483.43" x2="143.89" y2="126.23" xlink:href="#名称未設定グラデーション_25"/><linearGradient id="名称未設定グラデーション_25-12" x1="441.31" y1="479.82" x2="148.29" y2="122.62" xlink:href="#名称未設定グラデーション_25"/><linearGradient id="名称未設定グラデーション_25-13" x1="439.11" y1="481.63" x2="146.09" y2="124.43" xlink:href="#名称未設定グラデーション_25"/><linearGradient id="名称未設定グラデーション_25-14" x1="434.72" y1="485.23" x2="141.7" y2="128.02" xlink:href="#名称未設定グラデーション_25"/><linearGradient id="名称未設定グラデーション_25-15" x1="450.09" y1="472.62" x2="157.07" y2="115.42" xlink:href="#名称未設定グラデーション_25"/><linearGradient id="名称未設定グラデーション_25-16" x1="447.89" y1="474.42" x2="154.87" y2="117.22" xlink:href="#名称未設定グラデーション_25"/><linearGradient id="名称未設定グラデーション_25-17" x1="443.51" y1="478.02" x2="150.48" y2="120.82" xlink:href="#名称未設定グラデーション_25"/><linearGradient id="名称未設定グラデーション_25-18" x1="452.29" y1="470.82" x2="159.27" y2="113.61" xlink:href="#名称未設定グラデーション_25"/><linearGradient id="名称未設定グラデーション_25-19" x1="445.7" y1="476.22" x2="152.68" y2="119.02" xlink:href="#名称未設定グラデーション_25"/><linearGradient id="名称未設定グラデーション_25-20" x1="513.75" y1="420.4" x2="220.72" y2="63.2" xlink:href="#名称未設定グラデーション_25"/><linearGradient id="名称未設定グラデーション_25-21" x1="504.98" y1="427.59" x2="211.96" y2="70.39" xlink:href="#名称未設定グラデーション_25"/><linearGradient id="名称未設定グラデーション_25-22" x1="507.17" y1="425.8" x2="214.15" y2="68.59" xlink:href="#名称未設定グラデーション_25"/><linearGradient id="名称未設定グラデーション_25-23" x1="502.78" y1="429.4" x2="209.76" y2="72.19" xlink:href="#名称未設定グラデーション_25"/><linearGradient id="名称未設定グラデーション_25-24" x1="500.59" y1="431.2" x2="207.56" y2="73.99" xlink:href="#名称未設定グラデーション_25"/><linearGradient id="名称未設定グラデーション_25-25" x1="515.93" y1="418.61" x2="222.91" y2="61.4" xlink:href="#名称未設定グラデーション_25"/><linearGradient id="名称未設定グラデーション_25-26" x1="498.39" y1="433" x2="205.37" y2="75.79" xlink:href="#名称未設定グラデーション_25"/><linearGradient id="名称未設定グラデーション_25-27" x1="509.36" y1="424" x2="216.34" y2="66.79" xlink:href="#名称未設定グラデーション_25"/><linearGradient id="名称未設定グラデーション_25-28" x1="518.12" y1="416.81" x2="225.1" y2="59.61" xlink:href="#名称未設定グラデーション_25"/><linearGradient id="名称未設定グラデーション_25-29" x1="511.55" y1="422.2" x2="218.53" y2="65" xlink:href="#名称未設定グラデーション_25"/><linearGradient id="名称未設定グラデーション_25-30" x1="432.53" y1="487.03" x2="139.51" y2="129.82" xlink:href="#名称未設定グラデーション_25"/><linearGradient id="名称未設定グラデーション_25-31" x1="496.2" y1="434.8" x2="203.18" y2="77.59" xlink:href="#名称未設定グラデーション_25"/><linearGradient id="名称未設定グラデーション_25-32" x1="483.03" y1="445.6" x2="190.01" y2="88.39" xlink:href="#名称未設定グラデーション_25"/><linearGradient id="名称未設定グラデーション_25-33" x1="480.84" y1="447.4" x2="187.82" y2="90.19" xlink:href="#名称未設定グラデーション_25"/><linearGradient id="名称未設定グラデーション_25-34" x1="478.64" y1="449.2" x2="185.62" y2="92" xlink:href="#名称未設定グラデーション_25"/><linearGradient id="名称未設定グラデーション_25-35" x1="485.23" y1="443.8" x2="192.2" y2="86.6" xlink:href="#名称未設定グラデーション_25"/><linearGradient id="名称未設定グラデーション_25-36" x1="494.01" y1="436.59" x2="200.99" y2="79.39" xlink:href="#名称未設定グラデーション_25"/><linearGradient id="名称未設定グラデーション_25-37" x1="487.42" y1="442" x2="194.4" y2="84.8" xlink:href="#名称未設定グラデーション_25"/><linearGradient id="名称未設定グラデーション_25-38" x1="491.82" y1="438.39" x2="198.8" y2="81.19" xlink:href="#名称未設定グラデーション_25"/><linearGradient id="名称未設定グラデーション_25-39" x1="489.62" y1="440.2" x2="196.6" y2="82.99" xlink:href="#名称未設定グラデーション_25"/><linearGradient id="名称未設定グラデーション_25-40" x1="476.44" y1="451.01" x2="183.42" y2="93.8" xlink:href="#名称未設定グラデーション_25"/><linearGradient id="名称未設定グラデーション_25-41" x1="375.44" y1="533.83" x2="82.42" y2="176.63" xlink:href="#名称未設定グラデーション_25"/><linearGradient id="名称未設定グラデーション_25-42" x1="373.23" y1="535.64" x2="80.21" y2="178.43" xlink:href="#名称未設定グラデーション_25"/><linearGradient id="名称未設定グラデーション_25-43" x1="377.54" y1="531.89" x2="84.52" y2="174.68" xlink:href="#名称未設定グラデーション_25"/><linearGradient id="名称未設定グラデーション_25-44" x1="371.04" y1="537.47" x2="78.02" y2="180.26" xlink:href="#名称未設定グラデーション_25"/><linearGradient id="名称未設定グラデーション_25-45" x1="386.49" y1="524.8" x2="93.47" y2="167.59" xlink:href="#名称未設定グラデーション_25"/><linearGradient id="名称未設定グラデーション_25-46" x1="384.28" y1="526.61" x2="91.26" y2="169.4" xlink:href="#名称未設定グラデーション_25"/><linearGradient id="名称未設定グラデーション_25-47" x1="368.83" y1="539.28" x2="75.81" y2="182.07" xlink:href="#名称未設定グラデーション_25"/><linearGradient id="名称未設定グラデーション_25-48" x1="379.87" y1="530.23" x2="86.85" y2="173.02" xlink:href="#名称未設定グラデーション_25"/><linearGradient id="名称未設定グラデーション_25-49" x1="382.07" y1="528.42" x2="89.05" y2="171.21" xlink:href="#名称未設定グラデーション_25"/><linearGradient id="名称未設定グラデーション_25-50" x1="355.6" y1="550.14" x2="62.57" y2="192.93" xlink:href="#名称未設定グラデーション_25"/><linearGradient id="名称未設定グラデーション_25-51" x1="366.63" y1="541.09" x2="73.61" y2="183.88" xlink:href="#名称未設定グラデーション_25"/><linearGradient id="名称未設定グラデーション_25-52" x1="351.18" y1="553.76" x2="58.16" y2="196.55" xlink:href="#名称未設定グラデーション_25"/><linearGradient id="名称未設定グラデーション_25-53" x1="388.69" y1="522.99" x2="95.67" y2="165.78" xlink:href="#名称未設定グラデーション_25"/><linearGradient id="名称未設定グラデーション_25-54" x1="348.98" y1="555.57" x2="55.95" y2="198.36" xlink:href="#名称未設定グラデーション_25"/><linearGradient id="名称未設定グラデーション_25-55" x1="353.39" y1="551.95" x2="60.37" y2="194.74" xlink:href="#名称未設定グラデーション_25"/><linearGradient id="名称未設定グラデーション_25-56" x1="364.42" y1="542.9" x2="71.4" y2="185.69" xlink:href="#名称未設定グラデーション_25"/><linearGradient id="名称未設定グラデーション_25-57" x1="362.22" y1="544.71" x2="69.19" y2="187.5" xlink:href="#名称未設定グラデーション_25"/><linearGradient id="名称未設定グラデーション_25-58" x1="357.8" y1="548.33" x2="64.78" y2="191.12" xlink:href="#名称未設定グラデーション_25"/><linearGradient id="名称未設定グラデーション_25-59" x1="360.01" y1="546.52" x2="66.99" y2="189.31" xlink:href="#名称未設定グラデーション_25"/><linearGradient id="名称未設定グラデーション_25-60" x1="428.14" y1="490.63" x2="135.11" y2="133.43" xlink:href="#名称未設定グラデーション_25"/><linearGradient id="名称未設定グラデーション_25-61" x1="414.98" y1="501.43" x2="121.96" y2="144.22" xlink:href="#名称未設定グラデーション_25"/><linearGradient id="名称未設定グラデーション_25-62" x1="419.36" y1="497.83" x2="126.34" y2="140.62" xlink:href="#名称未設定グラデーション_25"/><linearGradient id="名称未設定グラデーション_25-63" x1="417.17" y1="499.62" x2="124.15" y2="142.42" xlink:href="#名称未設定グラデーション_25"/><linearGradient id="名称未設定グラデーション_25-64" x1="410.59" y1="505.03" x2="117.57" y2="147.82" xlink:href="#名称未設定グラデーション_25"/><linearGradient id="名称未設定グラデーション_25-65" x1="412.78" y1="503.23" x2="119.76" y2="146.02" xlink:href="#名称未設定グラデーション_25"/><linearGradient id="名称未設定グラデーション_25-66" x1="430.34" y1="488.83" x2="137.31" y2="131.62" xlink:href="#名称未設定グラデーション_25"/><linearGradient id="名称未設定グラデーション_25-67" x1="425.94" y1="492.43" x2="132.92" y2="135.23" xlink:href="#名称未設定グラデーション_25"/><linearGradient id="名称未設定グラデーション_25-68" x1="421.56" y1="496.03" x2="128.53" y2="138.83" xlink:href="#名称未設定グラデーション_25"/><linearGradient id="名称未設定グラデーション_25-69" x1="390.89" y1="521.18" x2="97.87" y2="163.98" xlink:href="#名称未設定グラデーション_25"/><linearGradient id="名称未設定グラデーション_25-70" x1="423.75" y1="494.23" x2="130.73" y2="137.03" xlink:href="#名称未設定グラデーション_25"/><linearGradient id="名称未設定グラデーション_25-71" x1="395.26" y1="517.6" x2="102.24" y2="160.39" xlink:href="#名称未設定グラデーション_25"/><linearGradient id="名称未設定グラデーション_25-72" x1="397.45" y1="515.8" x2="104.43" y2="158.6" xlink:href="#名称未設定グラデーション_25"/><linearGradient id="名称未設定グラデーション_25-73" x1="399.64" y1="514.01" x2="106.62" y2="156.8" xlink:href="#名称未設定グラデーション_25"/><linearGradient id="名称未設定グラデーション_25-74" x1="393.08" y1="519.39" x2="100.06" y2="162.19" xlink:href="#名称未設定グラデーション_25"/><linearGradient id="名称未設定グラデーション_25-75" x1="401.83" y1="512.21" x2="108.81" y2="155.01" xlink:href="#名称未設定グラデーション_25"/><linearGradient id="名称未設定グラデーション_25-76" x1="406.21" y1="508.62" x2="113.18" y2="151.42" xlink:href="#名称未設定グラデーション_25"/><linearGradient id="名称未設定グラデーション_25-77" x1="404.02" y1="510.42" x2="110.99" y2="153.21" xlink:href="#名称未設定グラデーション_25"/><linearGradient id="名称未設定グラデーション_25-78" x1="408.4" y1="506.82" x2="115.37" y2="149.62" xlink:href="#名称未設定グラデーション_25"/><linearGradient id="名称未設定グラデーション_25-79" x1="570.96" y1="373.47" x2="277.94" y2="16.27" xlink:href="#名称未設定グラデーション_25"/><linearGradient id="名称未設定グラデーション_25-80" x1="535.65" y1="402.43" x2="242.63" y2="45.23" xlink:href="#名称未設定グラデーション_25"/><linearGradient id="名称未設定グラデーション_25-81" x1="533.45" y1="404.24" x2="240.42" y2="47.04" xlink:href="#名称未設定グラデーション_25"/><linearGradient id="名称未設定グラデーション_25-82" x1="562.13" y1="380.71" x2="269.11" y2="23.51" xlink:href="#名称未設定グラデーション_25"/><linearGradient id="名称未設定グラデーション_25-83" x1="526.88" y1="409.63" x2="233.86" y2="52.42" xlink:href="#名称未設定グラデーション_25"/><linearGradient id="名称未設定グラデーション_25-84" x1="559.93" y1="382.52" x2="266.9" y2="25.32" xlink:href="#名称未設定グラデーション_25"/><linearGradient id="名称未設定グラデーション_25-85" x1="564.34" y1="378.9" x2="271.32" y2="21.7" xlink:href="#名称未設定グラデーション_25"/><linearGradient id="名称未設定グラデーション_25-86" x1="522.5" y1="413.22" x2="229.48" y2="56.02" xlink:href="#名称未設定グラデーション_25"/><linearGradient id="名称未設定グラデーション_25-87" x1="555.51" y1="386.14" x2="262.49" y2="28.94" xlink:href="#名称未設定グラデーション_25"/><linearGradient id="名称未設定グラデーション_25-88" x1="542.27" y1="397" x2="249.25" y2="39.8" xlink:href="#名称未設定グラデーション_25"/><linearGradient id="名称未設定グラデーション_25-89" x1="573.17" y1="371.66" x2="280.14" y2="14.46" xlink:href="#名称未設定グラデーション_25"/><linearGradient id="名称未設定グラデーション_25-90" x1="531.25" y1="406.04" x2="238.23" y2="48.84" xlink:href="#名称未設定グラデーション_25"/><linearGradient id="名称未設定グラデーション_25-91" x1="524.69" y1="411.42" x2="231.67" y2="54.22" xlink:href="#名称未設定グラデーション_25"/><linearGradient id="名称未設定グラデーション_25-92" x1="551.1" y1="389.76" x2="258.08" y2="32.56" xlink:href="#名称未設定グラデーション_25"/><linearGradient id="名称未設定グラデーション_25-93" x1="553.31" y1="387.95" x2="260.28" y2="30.75" xlink:href="#名称未設定グラデーション_25"/><linearGradient id="名称未設定グラデーション_25-94" x1="540.07" y1="398.81" x2="247.04" y2="41.61" xlink:href="#名称未設定グラデーション_25"/><linearGradient id="名称未設定グラデーション_25-95" x1="557.72" y1="384.33" x2="264.7" y2="27.13" xlink:href="#名称未設定グラデーション_25"/><linearGradient id="名称未設定グラデーション_25-96" x1="529.07" y1="407.83" x2="236.05" y2="50.63" xlink:href="#名称未設定グラデーション_25"/><linearGradient id="名称未設定グラデーション_25-97" x1="544.48" y1="395.19" x2="251.46" y2="37.99" xlink:href="#名称未設定グラデーション_25"/><linearGradient id="名称未設定グラデーション_25-98" x1="566.55" y1="377.09" x2="273.52" y2="19.89" xlink:href="#名称未設定グラデーション_25"/><linearGradient id="名称未設定グラデーション_25-99" x1="568.75" y1="375.28" x2="275.73" y2="18.08" xlink:href="#名称未設定グラデーション_25"/><linearGradient id="名称未設定グラデーション_25-100" x1="548.89" y1="391.57" x2="255.87" y2="34.37" xlink:href="#名称未設定グラデーション_25"/><linearGradient id="名称未設定グラデーション_25-101" x1="537.86" y1="400.62" x2="244.84" y2="43.42" xlink:href="#名称未設定グラデーション_25"/><linearGradient id="名称未設定グラデーション_25-102" x1="520.31" y1="415.02" x2="227.29" y2="57.81" xlink:href="#名称未設定グラデーション_25"/><linearGradient id="名称未設定グラデーション_25-103" x1="546.69" y1="393.38" x2="253.66" y2="36.18" xlink:href="#名称未設定グラデーション_25"/></defs><title> saturn</title><g class="cls-1"><g id="レイヤー_1" data-name="レイヤー 1"><g class="cls-2"><path class="cls-3" d="M574.94,19c13.86,0,24.07,3.65,30.34,10.85,8.75,10,9.61,26.47,2.56,48.82-6.85,21.71-20.83,48-41.55,78.23-42.64,62.14-109,133.75-187,201.65-64.16,55.91-129.59,103.65-189.2,138.07-28.68,16.55-55,29.4-78.22,38.19-23.52,8.91-43.29,13.42-58.77,13.42-13.85,0-24.06-3.65-30.33-10.85-8.75-10-9.61-26.46-2.56-48.82,6.85-21.71,20.83-48,41.55-78.23,42.64-62.13,109-133.75,187-201.64C312.92,152.76,378.35,105,438,70.59,466.63,54,493,41.19,516.17,32.4,539.7,23.5,559.47,19,574.94,19m0-.47c-62.87,0-194.2,74.53-326.49,189.8C87.27,348.75-13.8,496.06,22.45,537.67c6.5,7.46,17,11,30.69,11,62.87,0,194.21-74.53,326.5-189.8,161.17-140.44,262.25-287.74,226-329.36-6.49-7.45-17-11-30.69-11Z" transform="translate(-15.09 -18.51)"/><path class="cls-3" d="M571.28,22.25v.47c13.65,0,23.71,3.59,29.89,10.69,8.63,9.9,9.47,26.09,2.52,48.13-6.75,21.4-20.53,47.35-41,77.12-42,61.26-107.5,131.87-184.32,198.81-63.26,55.12-127.76,102.19-186.54,136.12-28.27,16.32-54.21,29-77.11,37.66C91.57,540,72.07,544.48,56.82,544.48c-13.66,0-23.72-3.6-29.91-10.7-8.62-9.89-9.47-26.09-2.52-48.12,6.76-21.41,20.54-47.35,41-77.13,42-61.26,107.49-131.86,184.32-198.8,63.25-55.12,127.75-102.19,186.53-136.12,28.27-16.32,54.22-29,77.12-37.66,23.19-8.78,42.68-13.23,57.94-13.23v-.47m0,0c-62,0-191.48,73.49-321.9,187.12C90.47,347.83-9.19,493.06,26.56,534.09c6.41,7.35,16.72,10.85,30.26,10.85,62,0,191.48-73.48,321.9-187.12C537.62,219.36,637.27,74.13,601.53,33.1c-6.41-7.35-16.72-10.85-30.26-10.85Z" transform="translate(-15.09 -18.51)"/><path class="cls-3" d="M567.6,26.45C581.06,26.45,591,30,597.07,37c8.49,9.75,9.33,25.71,2.48,47.43-6.66,21.1-20.24,46.67-40.38,76-41.44,60.39-106,130-181.69,196-62.35,54.33-125.94,100.73-183.87,134.18-27.87,16.09-53.44,28.57-76,37.12-22.86,8.65-42.07,13-57.11,13C47,540.74,37.11,537.2,31,530.2c-8.5-9.75-9.33-25.71-2.48-47.43,6.66-21.09,20.24-46.67,40.38-76,41.43-60.39,106-130,181.68-196C313,156.45,376.54,110.05,434.48,76.61c27.86-16.09,53.44-28.58,76-37.12,22.86-8.65,42.08-13,57.12-13m0-.47c-61.11,0-188.74,72.43-317.31,184.45C93.66,346.91-4.57,490.07,30.67,530.51c6.31,7.25,16.48,10.7,29.82,10.7,61.1,0,188.74-72.43,317.3-184.45C534.42,220.28,632.65,77.12,597.42,36.68,591.1,29.43,580.94,26,567.6,26Z" transform="translate(-15.09 -18.51)"/><path class="cls-3" d="M563.93,29.71v.47c13.26,0,23,3.5,29,10.39,8.37,9.61,9.2,25.33,2.44,46.73-6.56,20.8-19.94,46-39.79,74.92-40.83,59.51-104.42,128.1-179,193.13-61.45,53.54-124.11,99.27-181.2,132.23C140.15,519.45,93.56,537,64.17,537c-13.27,0-23-3.49-29-10.38-8.38-9.62-9.2-25.34-2.45-46.74,6.56-20.79,20-46,39.79-74.92,40.84-59.51,104.43-128.1,179.06-193.12,61.44-53.54,124.1-99.27,181.2-132.23,55.21-31.88,101.8-49.43,131.19-49.44v-.47m0,0c-60.22,0-186,71.38-312.7,181.77C96.86,346,.05,487.08,34.77,526.93,41,534.08,51,537.48,64.17,537.48c60.22,0,186-71.39,312.7-181.78C531.23,221.2,628,80.11,593.31,40.26c-6.22-7.14-16.24-10.55-29.39-10.54Z" transform="translate(-15.09 -18.51)"/><path class="cls-3" d="M560.25,33.92c13.06,0,22.69,3.44,28.6,10.23,34,39-61.68,178.1-213.21,310.14C315.09,407,253.35,452.1,197.09,484.58,142.7,516,96.8,533.28,67.84,533.28c-13.07,0-22.69-3.45-28.61-10.23-34-39,61.69-178.11,213.22-310.14C313,160.15,374.74,115.1,431,82.62c54.4-31.41,100.3-48.7,129.26-48.7m0-.47c-59.33,0-183.27,70.33-308.11,179.1C100.05,345.08,4.67,484.09,38.88,523.35c6.13,7,16,10.39,29,10.39,59.33,0,183.27-70.33,308.1-179.1C528,222.12,623.42,83.11,589.2,43.84c-6.13-7-16-10.39-29-10.39Z" transform="translate(-15.09 -18.51)"/><path class="cls-3" d="M556.58,37.18v.47c12.87,0,22.34,3.39,28.16,10.07,8.13,9.33,8.93,24.59,2.37,45.35-6.36,20.18-19.36,44.64-38.61,72.71-39.64,57.76-101.36,124.33-173.79,187.44-59.64,52-120.46,96.35-175.87,128.35-53.58,30.93-98.8,48-127.33,48-12.87,0-22.34-3.39-28.17-10.07-8.12-9.33-8.92-24.58-2.37-45.35,6.37-20.18,19.36-44.64,38.62-72.71C119.22,343.65,180.94,277.08,253.37,214,313,162,373.83,117.62,429.25,85.63c53.58-30.94,98.8-48,127.32-48v-.47m0,0c-58.45,0-180.54,69.29-303.5,176.43C103.24,344.16,9.28,481.1,43,519.78,49,526.71,58.75,530,71.51,530,130,530,252.06,460.72,375,353.58,524.84,223,618.8,86.1,585.1,47.42c-6-6.94-15.76-10.24-28.53-10.24Z" transform="translate(-15.09 -18.51)"/><path class="cls-3" d="M552.9,41.38c12.67,0,22,3.34,27.74,9.92,8,9.18,8.78,24.21,2.33,44.66-6.27,19.87-19.07,44-38,71.6-39,56.89-99.82,122.45-171.15,184.6-58.74,51.19-118.64,94.9-173.21,126.4-52.77,30.47-97.3,47.25-125.39,47.25-12.67,0-22-3.34-27.74-9.92-8-9.18-8.79-24.21-2.33-44.66,6.27-19.87,19.06-44,38-71.6C122.18,342.74,183,277.18,254.3,215,313,163.85,372.93,120.14,427.51,88.63c52.77-30.47,97.3-47.25,125.39-47.25m0-.46c-57.56,0-177.8,68.23-298.91,173.76C106.44,343.24,13.9,478.1,47.09,516.2,53,523,62.62,526.28,75.19,526.28c57.56,0,177.8-68.23,298.91-173.76C521.65,224,614.18,89.09,581,51c-6-6.82-15.53-10.07-28.09-10.07Z" transform="translate(-15.09 -18.51)"/><path class="cls-3" d="M549.23,44.65v.47c12.47,0,21.66,3.28,27.3,9.76C609,92.1,517.6,225,372.86,351.1,315,401.5,256.06,444.53,202.32,475.56c-51.95,30-95.8,46.52-123.46,46.52-12.47,0-21.66-3.29-27.31-9.77C19.12,475.09,110.48,342.2,255.22,216.09,313.05,165.7,372,122.67,425.76,91.64c52-30,95.8-46.52,123.46-46.52v-.47m0,0c-56.68,0-175.07,67.19-294.31,171.09C109.63,342.32,18.52,475.11,51.2,512.62c5.86,6.72,15.28,9.92,27.66,9.92,56.68,0,175.07-67.19,294.31-171.08C518.45,224.87,609.57,92.08,576.88,54.57c-5.85-6.72-15.28-9.92-27.66-9.92Z" transform="translate(-15.09 -18.51)"/><path class="cls-3" d="M545.55,48.85c12.28,0,21.32,3.23,26.87,9.61C604.35,95.1,514.41,225.9,371.94,350,315,399.65,257,442,204.06,472.55c-51.14,29.53-94.3,45.79-121.52,45.79-12.28,0-21.32-3.23-26.88-9.61-7.75-8.89-8.51-23.45-2.26-43.26,6.08-19.26,18.48-42.61,36.87-69.4C128.1,340.93,187,277.39,256.14,217.15c56.94-49.61,115-92,167.88-122.51,51.15-29.53,94.31-45.79,121.53-45.79m0-.47c-55.79,0-172.33,66.14-289.71,168.42C112.83,341.41,23.14,472.12,55.31,509c5.76,6.62,15,9.77,27.23,9.77,55.79,0,172.32-66.13,289.71-168.41C515.26,225.79,605,95.07,572.78,58.15c-5.77-6.61-15-9.77-27.23-9.77Z" transform="translate(-15.09 -18.51)"/><path class="cls-3" d="M541.88,52.12v.46c12.08,0,21,3.19,26.44,9.46,7.62,8.75,8.37,23.07,2.22,42.57-6,19-18.19,41.93-36.28,68.3C497,227.17,439.06,289.7,371,349c-56,48.82-113.16,90.51-165.21,120.56C155.48,498.6,113,514.61,86.21,514.61c-12.08,0-21-3.18-26.44-9.46-7.63-8.75-8.37-23.07-2.22-42.57,6-18.95,18.18-41.93,36.27-68.29C131.05,340,189,277.49,257.07,218.21c56-48.82,113.15-90.5,165.21-120.56,50.33-29.06,92.8-45.06,119.59-45.07v-.46m0,0c-54.91,0-169.6,65.09-285.11,165.74C116,340.49,27.75,469.13,59.42,505.46c5.67,6.52,14.8,9.62,26.79,9.62,54.91,0,169.6-65.09,285.11-165.74C512.07,226.7,600.33,98.07,568.67,61.73c-5.68-6.51-14.8-9.62-26.8-9.61Z" transform="translate(-15.09 -18.51)"/><path class="cls-3" d="M538.2,56.32c11.88,0,20.63,3.13,26,9.3,30.91,35.47-56.17,162.11-194.12,282.3C315,396,258.76,437,207.55,466.54,158,495.13,116.24,510.87,89.89,510.87c-11.89,0-20.64-3.12-26-9.29C33,466.11,120.05,339.46,258,219.27c55.13-48,111.34-89.05,162.55-118.62,49.52-28.59,91.3-44.33,117.66-44.33m0-.47c-54,0-166.86,64-280.51,163.07C119.21,339.57,32.37,466.13,63.52,501.88c5.58,6.41,14.57,9.46,26.37,9.46,54,0,166.85-64,280.51-163.06,138.47-120.66,225.31-247.22,194.16-283C559,58.9,550,55.85,538.2,55.85Z" transform="translate(-15.09 -18.51)"/><path class="cls-3" d="M534.53,59.58v.47c11.68,0,20.29,3.08,25.57,9.14,30.4,34.89-55.25,159.45-190.93,277.67C315,394.11,259.67,434.45,209.29,463.53c-48.7,28.12-89.8,43.61-115.73,43.61-11.68,0-20.29-3.08-25.58-9.14-7.37-8.47-8.1-22.32-2.14-41.19,5.78-18.34,17.59-40.57,35.1-66.09,36-52.5,92.13-113,158-170.39,54.21-47.24,109.5-87.58,159.87-116.67,48.71-28.12,89.81-43.6,115.73-43.61v-.47m0,0c-53.13,0-164.13,63-275.91,160.4C122.41,338.65,37,463.14,67.63,498.31c5.49,6.3,14.33,9.3,25.93,9.3,53.14,0,164.13-63,275.92-160.39,136.2-118.68,221.62-243.17,191-278.33-5.5-6.31-14.33-9.31-25.94-9.31Z" transform="translate(-15.09 -18.51)"/><path class="cls-3" d="M530.85,63.79c11.49,0,19.95,3,25.15,9,7.25,8.32,8,22,2.1,40.5-5.68,18-17.3,39.89-34.51,65C488.16,229.88,433,289.39,368.25,345.8,314.93,392.26,260.56,431.93,211,460.53c-47.89,27.65-88.3,42.88-113.79,42.88-11.49,0-19.95-3-25.15-9-29.89-34.3,54.34-156.78,187.75-273,53.32-46.46,107.68-86.13,157.22-114.73C465,79,505.36,63.79,530.85,63.79m0-.47c-52.25,0-161.39,61.93-271.32,157.72C125.6,337.74,41.61,460.15,71.74,494.73c5.4,6.19,14.09,9.15,25.5,9.15,52.24,0,161.38-61.94,271.31-157.72C502.48,229.46,586.48,107,556.35,72.47c-5.4-6.2-14.09-9.15-25.5-9.15Z" transform="translate(-15.09 -18.51)"/><path class="cls-3" d="M527.18,67.05v.47c11.29,0,19.6,3,24.71,8.83,29.38,33.72-53.42,154.12-184.57,268.39-52.41,45.67-105.85,84.67-154.54,112.78C165.7,484.7,126,499.67,100.91,499.67c-11.29,0-19.61-3-24.71-8.83-7.13-8.18-7.83-21.57-2.07-39.8,5.59-17.72,17-39.22,33.93-63.88,34.82-50.75,89.06-109.25,152.7-164.71,52.41-45.66,105.85-84.66,154.55-112.78,47.08-27.18,86.81-42.15,111.86-42.15v-.47m0,0c-51.36,0-158.65,60.89-266.71,155.05C128.8,336.82,46.22,457.16,75.84,491.15c5.31,6.09,13.85,9,25.07,9,51.37,0,158.66-60.89,266.72-155C499.29,230.37,581.86,110,552.24,76c-5.31-6.09-13.85-9-25.07-9Z" transform="translate(-15.09 -18.51)"/><path class="cls-3" d="M523.5,71.25c11.1,0,19.27,2.92,24.28,8.68,28.87,33.13-52.5,151.45-181.38,263.75-51.51,44.88-104,83.21-151.89,110.84-46.26,26.71-85.3,41.42-109.92,41.42-11.1,0-19.27-2.92-24.29-8.68-28.87-33.13,52.5-151.45,181.39-263.75,51.51-44.88,104-83.21,151.88-110.84C459.84,86,498.88,71.25,523.5,71.25m0-.47c-50.48,0-155.91,59.84-262.12,152.38C132,335.9,50.84,454.16,80,487.57c5.22,6,13.62,8.84,24.64,8.84,50.47,0,155.91-59.84,262.12-152.38C496.1,231.29,577.24,113,548.14,79.62c-5.22-6-13.62-8.84-24.64-8.84Z" transform="translate(-15.09 -18.51)"/><path class="cls-3" d="M519.84,74.52V75c10.89,0,18.91,2.86,23.84,8.52,6.87,7.89,7.54,20.81,2,38.41-5.4,17.11-16.42,37.86-32.76,61.67-33.62,49-86,105.49-147.44,159-50.6,44.09-102.2,81.75-149.21,108.89-45.45,26.24-83.81,40.7-108,40.7-10.9,0-18.92-2.87-23.85-8.53-6.88-7.89-7.55-20.81-2-38.41,5.4-17.11,16.42-37.86,32.76-61.67,33.63-49,86-105.48,147.44-159,50.6-44.09,102.2-81.74,149.22-108.88,45.45-26.25,83.8-40.7,108-40.7l0-.47m0,0c-49.59,0-153.18,58.79-257.52,149.7C135.18,335,55.46,451.17,84.06,484c5.12,5.88,13.37,8.69,24.2,8.69,49.6,0,153.19-58.8,257.52-149.71C492.9,232.21,572.63,116,544,83.2c-5.13-5.88-13.37-8.68-24.21-8.68Z" transform="translate(-15.09 -18.51)"/><path class="cls-3" d="M516.15,78.72c10.7,0,18.58,2.81,23.42,8.37,27.85,32-50.66,146.12-175,254.47-49.7,43.31-100.38,80.29-146.55,107-44.64,25.77-82.31,40-106.06,40-10.71,0-18.59-2.81-23.42-8.36-27.85-32,50.66-146.12,175-254.48,49.7-43.3,100.37-80.29,146.55-106.94,44.64-25.78,82.3-40,106.06-40m0-.47c-48.7,0-150.44,57.74-252.92,147C138.38,334.07,60.08,448.18,88.16,480.41c5,5.78,13.14,8.53,23.78,8.53,48.7,0,150.44-57.73,252.92-147C489.71,233.13,568,119,539.92,86.78c-5-5.78-13.14-8.53-23.77-8.53Z" transform="translate(-15.09 -18.51)"/><path class="cls-3" d="M512.49,82v.47c10.49,0,18.22,2.77,23,8.22,6.63,7.6,7.28,20.06,1.92,37-5.2,16.5-15.83,36.51-31.58,59.47-32.43,47.25-82.92,101.71-142.17,153.34-48.8,42.52-98.55,78.82-143.89,105-43.82,25.3-80.81,39.24-104.13,39.24-10.5,0-18.24-2.76-23-8.21-6.62-7.61-7.27-20.06-1.92-37C95.91,423,106.54,403,122.29,380c32.42-47.26,82.91-101.72,142.17-153.35,48.79-42.51,98.54-78.82,143.88-105,43.83-25.31,80.81-39.24,104.14-39.25V82m0,0c-47.83,0-147.72,56.7-248.33,144.36C141.57,333.15,64.69,445.19,92.27,476.83c4.94,5.68,12.9,8.38,23.34,8.38,47.82,0,147.72-56.69,248.32-144.36C486.51,234,563.39,122,535.82,90.36c-5-5.68-12.9-8.38-23.34-8.38Z" transform="translate(-15.09 -18.51)"/><path class="cls-3" d="M508.8,86.19c10.31,0,17.9,2.71,22.56,8C558.19,125,482.53,235,362.7,339.44,314.81,381.17,266,416.81,221.48,442.5c-43,24.83-79.31,38.51-102.19,38.51-10.31,0-17.9-2.71-22.56-8.06-26.83-30.79,48.83-140.79,168.65-245.2,47.9-41.73,96.73-77.36,141.22-103,43-24.84,79.31-38.51,102.2-38.51m0-.47c-46.93,0-145,55.63-243.72,141.68C144.77,332.23,69.31,442.19,96.38,473.26c4.85,5.56,12.66,8.21,22.91,8.21,46.93,0,145-55.63,243.72-141.68C483.32,235,558.77,125,531.71,93.94c-4.85-5.57-12.66-8.22-22.91-8.22Z" transform="translate(-15.09 -18.51)"/><path class="cls-3" d="M505.14,89.45v.47c10.1,0,17.54,2.66,22.11,7.9C553.57,128,479.34,235.94,361.78,338.38c-47,40.94-94.9,75.9-138.55,101.11C181,463.85,145.42,477.27,123,477.27c-10.11,0-17.55-2.66-22.12-7.9-26.32-30.21,47.91-138.12,165.47-240.56,47-40.94,94.89-75.9,138.55-101.1,42.2-24.37,77.81-37.79,100.27-37.79v-.47m0,0c-46.06,0-142.25,54.59-239.13,139C148,331.31,73.93,439.2,100.48,469.68c4.76,5.46,12.42,8.06,22.48,8.06,46.05,0,142.24-54.59,239.13-139C480.13,235.88,554.16,128,527.6,97.52c-4.76-5.47-12.42-8.07-22.47-8.07Z" transform="translate(-15.09 -18.51)"/><path class="cls-3" d="M501.45,93.65c9.91,0,17.21,2.61,21.69,7.75C549,131,476.15,236.86,360.85,337.32c-46.08,40.15-93.07,74.45-135.88,99.16-41.39,23.9-76.31,37.06-98.34,37.06-9.91,0-17.21-2.61-21.69-7.75-25.81-29.62,47-135.45,162.29-235.92,46.09-40.15,93.08-74.44,135.89-99.16,41.39-23.9,76.31-37.06,98.33-37.06m0-.46c-45.16,0-139.5,53.53-234.53,136.33C151.15,330.4,78.55,436.21,104.59,466.1c4.67,5.36,12.18,7.91,22,7.91,45.17,0,139.51-53.54,234.53-136.34C476.93,236.8,549.54,131,523.49,101.09c-4.66-5.35-12.18-7.9-22-7.9Z" transform="translate(-15.09 -18.51)"/><path class="cls-3" d="M497.79,96.92v.47c9.71,0,16.85,2.55,21.24,7.59,6.13,7,6.73,18.55,1.78,34.25C516,154.5,506.15,173,491.56,194.28c-30,43.75-76.76,94.17-131.63,142-45.18,39.37-91.24,73-133.22,97.22-40.58,23.42-74.81,36.33-96.4,36.33-9.72,0-16.87-2.56-21.26-7.6-25.3-29,46.07-132.79,159.11-231.28,45.17-39.36,91.24-73,133.21-97.21,40.58-23.43,74.82-36.33,96.41-36.33v-.47m0,0c-44.28,0-136.78,52.49-229.93,133.66C154.35,329.48,83.16,433.22,108.7,462.52c4.58,5.25,11.94,7.75,21.61,7.75,44.28,0,136.77-52.49,229.93-133.66C473.74,237.72,544.92,134,519.39,104.67c-4.58-5.25-11.94-7.75-21.61-7.75Z" transform="translate(-15.09 -18.51)"/><path class="cls-3" d="M494.1,101.12c9.52,0,16.53,2.5,20.83,7.44,6,6.89,6.58,18.18,1.73,33.55-4.72,15-14.36,33.12-28.65,53.95-29.42,42.88-75.24,92.29-129,139.14-44.28,38.58-89.43,71.52-130.56,95.27-39.76,23-73.31,35.6-94.47,35.6-9.51,0-16.52-2.5-20.82-7.44-6-6.88-6.59-18.17-1.74-33.55,4.73-15,14.37-33.12,28.66-53.95,29.42-42.87,75.23-92.29,129-139.14,44.28-38.58,89.42-71.52,130.56-95.27,39.76-23,73.31-35.6,94.46-35.6m0-.47c-43.39,0-134,51.44-225.33,131-111.23,96.92-181,198.58-156,227.3,4.48,5.15,11.7,7.6,21.17,7.6,43.4,0,134-51.44,225.33-131,111.24-96.92,181-198.58,156-227.3-4.48-5.15-11.7-7.6-21.18-7.6Z" transform="translate(-15.09 -18.51)"/><path class="cls-3" d="M490.44,104.39v.46c9.31,0,16.17,2.45,20.38,7.29,24.28,27.87-44.23,127.46-152.74,222-43.37,37.79-87.59,70.06-127.88,93.32-39,22.49-71.82,34.88-92.54,34.88-9.32,0-16.18-2.45-20.39-7.28C93,427.19,161.5,327.6,270,233.05c43.37-37.78,87.59-70.05,127.89-93.32,38.95-22.49,71.81-34.87,92.54-34.88v-.46m0,0c-42.51,0-131.31,50.39-220.73,128.31-109,94.94-177.3,194.53-152.79,222.66,4.4,5.05,11.46,7.45,20.75,7.45,42.51,0,131.3-50.4,220.73-128.32,109-94.94,177.3-194.53,152.78-222.66-4.39-5-11.46-7.45-20.74-7.44Z" transform="translate(-15.09 -18.51)"/><path class="cls-3" d="M486.75,108.59c9.13,0,15.84,2.4,20,7.13,5.76,6.6,6.32,17.42,1.66,32.16-4.53,14.36-13.77,31.77-27.48,51.74-28.22,41.13-72.16,88.52-123.73,133.46-42.47,37-85.77,68.6-125.23,91.38-38.13,22-70.31,34.14-90.6,34.14-9.12,0-15.84-2.39-20-7.12-5.75-6.6-6.31-17.43-1.66-32.17,4.53-14.35,13.78-31.76,27.49-51.74,28.21-41.12,72.16-88.52,123.73-133.46,42.47-37,85.77-68.6,125.22-91.38,38.14-22,70.31-34.14,90.6-34.14m0-.47c-41.62,0-128.56,49.34-216.13,125.64-106.69,93-173.6,190.48-149.6,218,4.3,4.93,11.23,7.28,20.31,7.28,41.62,0,128.56-49.33,216.14-125.64,106.69-93,173.6-190.48,149.6-218-4.3-4.94-11.23-7.29-20.32-7.29Z" transform="translate(-15.09 -18.51)"/><path class="cls-3" d="M483.09,111.85v.47c8.92,0,15.49,2.35,19.52,7,5.62,6.46,6.17,17,1.62,31.48-4.43,14-13.48,31.08-26.9,50.63C449.72,241.65,406.71,288,356.23,332c-41.56,36.21-83.94,67.14-122.55,89.43C196.35,443,164.86,454.87,145,454.87c-8.93,0-15.5-2.34-19.53-7-5.63-6.46-6.18-17-1.62-31.47,4.43-14.05,13.48-31.09,26.89-50.64,27.62-40.25,70.63-86.64,121.1-130.62C313.41,199,355.79,168,394.41,145.74c37.32-21.55,68.81-33.42,88.67-33.42v-.47m0,0c-40.74,0-125.83,48.3-211.54,123-104.42,91-169.91,186.43-146.41,213.39,4.21,4.83,11,7.13,19.88,7.13,40.74,0,125.83-48.29,211.53-123C461,241.39,526.45,146,503,119c-4.21-4.84-11-7.14-19.88-7.14Z" transform="translate(-15.09 -18.51)"/><path class="cls-3" d="M479.4,116.05c8.73,0,15.16,2.3,19.1,6.82C521.26,149,457,242.33,355.31,331c-40.66,35.43-82.12,65.68-119.89,87.49-36.51,21.08-67.32,32.69-86.74,32.69-8.73,0-15.15-2.3-19.09-6.82-22.76-26.11,41.48-119.46,143.19-208.09,40.65-35.42,82.11-65.68,119.89-87.49,36.51-21.08,67.31-32.69,86.73-32.69m0-.46c-39.85,0-123.09,47.23-206.93,120.29-102.15,89-166.22,182.37-143.24,208.75,4.12,4.72,10.75,7,19.45,7,39.85,0,123.09-47.24,206.94-120.3,102.15-89,166.21-182.37,143.23-208.75-4.11-4.72-10.75-7-19.45-7Z" transform="translate(-15.09 -18.51)"/><path class="cls-3" d="M475.74,119.32v.47c8.52,0,14.8,2.24,18.65,6.66,5.38,6.17,5.9,16.29,1.55,30.08C491.7,170,483.05,186.27,470.22,205c-26.42,38.49-67.56,82.86-115.83,124.93-39.76,34.64-80.29,64.22-117.23,85.54-35.7,20.61-65.81,32-84.8,32-8.54,0-14.82-2.24-18.67-6.66-5.38-6.17-5.9-16.29-1.55-30.08,4.24-13.44,12.9-29.73,25.73-48.43,26.42-38.5,67.55-82.87,115.83-124.93,39.75-34.64,80.29-64.22,117.22-85.55,35.7-20.61,65.82-32,84.81-32v-.47m0,0c-39,0-120.36,46.19-202.34,117.62-99.88,87-162.52,178.32-140,204.11,4,4.62,10.51,6.82,19,6.82,39,0,120.36-46.19,202.33-117.62,99.89-87,162.53-178.32,140.06-204.11-4-4.62-10.51-6.82-19-6.82Z" transform="translate(-15.09 -18.51)"/><path class="cls-3" d="M472.05,123.52c8.34,0,14.47,2.19,18.24,6.51,5.25,6,5.76,15.92,1.51,29.39-4.15,13.13-12.6,29.05-25.14,47.33-25.82,37.62-66,81-113.2,122.09C314.61,362.69,275,391.6,238.9,412.44,204,432.58,174.59,443.67,156,443.67c-8.33,0-14.47-2.19-18.23-6.51-5.25-6-5.76-15.91-1.51-29.39,4.14-13.13,12.6-29,25.14-47.32,25.81-37.63,66-81,113.19-122.09,38.85-33.86,78.47-62.77,114.56-83.61,34.89-20.14,64.32-31.23,82.87-31.23m0-.47c-38.07,0-117.62,45.14-197.73,115C176.7,323.05,115.49,412.27,137.45,437.47c3.93,4.52,10.27,6.67,18.58,6.67,38.08,0,117.62-45.14,197.74-114.95,97.61-85.05,158.83-174.27,136.87-199.47-3.94-4.51-10.27-6.67-18.59-6.67Z" transform="translate(-15.09 -18.51)"/><path class="cls-3" d="M468.39,126.79v.47c8.13,0,14.12,2.13,17.79,6.35,5.13,5.88,5.62,15.54,1.47,28.69-4,12.83-12.3,28.38-24.55,46.23-25.21,36.74-64.48,79.09-110.56,119.25-38,33.06-76.64,61.3-111.89,81.65-34.08,19.67-62.82,30.51-80.94,30.51-8.14,0-14.13-2.14-17.8-6.35-5.13-5.89-5.63-15.55-1.48-28.7,4-12.83,12.31-28.38,24.56-46.23,25.21-36.74,64.47-79.09,110.56-119.24,37.94-33.07,76.63-61.3,111.89-81.66,34.07-19.67,62.82-30.5,80.94-30.5v-.47m0,0c-37.2,0-114.89,44.09-193.14,112.27C179.9,322.14,120.11,409.28,141.55,433.89c3.85,4.42,10,6.52,18.16,6.52,37.19,0,114.89-44.1,193.14-112.28C448.19,245.06,508,157.92,486.53,133.3c-3.84-4.41-10-6.51-18.15-6.51Z" transform="translate(-15.09 -18.51)"/><path class="cls-3" d="M464.7,131c7.95,0,13.79,2.08,17.37,6.2,5,5.74,5.49,15.16,1.44,28-3.95,12.52-12,27.7-24,45.12-24.61,35.87-62.94,77.21-107.92,116.41C314.57,359,276.8,386.56,242.39,406.43c-33.26,19.2-61.32,29.77-79,29.77-7.94,0-13.78-2.08-17.37-6.19-5-5.75-5.48-15.17-1.43-28,3.95-12.51,12-27.69,24-45.12,24.62-35.87,63-77.21,107.93-116.4,37-32.28,74.82-59.84,109.23-79.71C419,141.56,447,131,464.7,131m0-.47c-36.3,0-112.14,43-188.54,109.6-93.07,81.1-151.44,166.17-130.5,190.19,3.75,4.31,9.79,6.36,17.72,6.36,36.31,0,112.15-43,188.54-109.6C445,246,503.36,160.91,482.43,136.88c-3.76-4.31-9.8-6.36-17.73-6.36Z" transform="translate(-15.09 -18.51)"/><path class="cls-3" d="M461,134.25v.47c7.74,0,13.43,2,16.93,6,20.2,23.2-36.89,106.14-127.28,184.9-36.14,31.48-73,58.37-106.56,77.76-32.45,18.73-59.82,29.05-77.07,29.05-7.75,0-13.45-2-16.94-6-4.88-5.6-5.35-14.79-1.4-27.31,3.85-12.21,11.72-27,23.38-44,24-35,61.41-75.32,105.29-113.56,36.14-31.49,73-58.38,106.56-77.76C416.4,145,443.77,134.73,461,134.72v-.47m0,0c-35.42,0-109.42,42-183.94,106.93-90.8,79.12-147.75,162.11-127.32,185.56,3.66,4.2,9.55,6.2,17.29,6.2,35.42,0,109.42-42,183.94-106.93,90.8-79.12,147.75-162.11,127.32-185.55-3.66-4.21-9.55-6.21-17.29-6.21Z" transform="translate(-15.09 -18.51)"/><path class="cls-3" d="M457.36,138.46c7.54,0,13.1,2,16.5,5.88,4.75,5.46,5.21,14.41,1.36,26.62-3.76,11.9-11.43,26.34-22.8,42.91C429,248,392.56,287.31,349.77,324.6c-35.24,30.7-71.17,56.92-103.9,75.82-31.63,18.26-58.32,28.32-75.14,28.32-7.55,0-13.1-2-16.5-5.89-4.76-5.46-5.22-14.41-1.36-26.61,3.75-11.91,11.42-26.35,22.79-42.92,23.41-34.12,59.87-73.44,102.66-110.72,35.23-30.71,71.16-56.92,103.9-75.82,31.63-18.27,58.31-28.32,75.14-28.32m0-.47C422.82,138,350.68,178.93,278,242.24,189.48,319.38,134,400.3,153.87,423.16c3.57,4.09,9.32,6,16.86,6,34.54,0,106.68-40.93,179.35-104.25C438.61,247.81,494.13,166.89,474.21,144c-3.57-4.1-9.31-6-16.85-6Z" transform="translate(-15.09 -18.51)"/><path class="cls-3" d="M453.69,141.72v.47c7.34,0,12.75,1.93,16.06,5.73,4.63,5.31,5.08,14,1.33,25.92-3.66,11.6-11.14,25.67-22.21,41.81-22.81,33.25-58.34,71.56-100,107.89-34.33,29.91-69.33,55.45-101.23,73.87C216.79,415.2,190.79,425,174.41,425c-7.35,0-12.76-1.93-16.08-5.73-4.63-5.31-5.07-14-1.32-25.92,3.66-11.6,11.13-25.66,22.21-41.81C202,318.3,237.55,280,279.24,243.66c34.33-29.91,69.33-55.46,101.23-73.87,30.82-17.8,56.82-27.6,73.21-27.6v-.47m0,0c-33.65,0-103.95,39.9-174.75,101.58-86.26,75.17-140.35,154-121,176.28,3.48,4,9.08,5.89,16.43,5.89,33.65,0,103.94-39.89,174.74-101.58,86.26-75.16,140.36-154,121-176.28-3.47-4-9.07-5.89-16.42-5.89Z" transform="translate(-15.09 -18.51)"/><path class="cls-3" d="M450,145.92c7.15,0,12.41,1.88,15.64,5.58,18.67,21.44-34.14,98.14-117.73,171-33.43,29.12-67.51,54-98.57,71.92-30,17.33-55.32,26.87-71.27,26.87-7.15,0-12.41-1.88-15.64-5.58-4.5-5.17-4.94-13.65-1.29-25.22,3.57-11.3,10.84-25,21.63-40.71,22.21-32.37,56.79-69.67,97.39-105,33.42-29.13,67.51-54,98.56-71.93,30-17.33,55.32-26.87,71.28-26.87m0-.46c-32.77,0-101.21,38.83-170.15,98.9-84,73.19-136.67,150-117.77,171.64,3.38,3.89,8.84,5.74,16,5.74,32.76,0,101.21-38.84,170.15-98.91,84-73.19,136.66-149.95,117.77-171.64-3.39-3.88-8.84-5.73-16-5.73Z" transform="translate(-15.09 -18.51)"/><path class="cls-3" d="M446.34,149.19v.47c7,0,12.06,1.82,15.2,5.42,18.17,20.85-33.22,95.47-114.54,166.34-32.53,28.33-65.69,52.53-95.9,70-29.2,16.85-53.82,26.14-69.35,26.14-6.95,0-12.07-1.83-15.2-5.43-4.38-5-4.8-13.28-1.25-24.53,3.46-11,10.54-24.31,21-39.6,21.6-31.49,55.26-67.79,94.75-102.2,32.52-28.34,65.68-52.54,95.9-70,29.19-16.86,53.82-26.14,69.34-26.14v-.47m0,0c-31.88,0-98.48,37.79-165.55,96.23-81.72,71.21-133,145.9-114.59,167,3.3,3.78,8.6,5.58,15.56,5.58,31.89,0,98.48-37.79,165.55-96.23,81.72-71.21,133-145.9,114.59-167-3.29-3.78-8.6-5.58-15.56-5.58Z" transform="translate(-15.09 -18.51)"/><path class="cls-3" d="M442.66,153.39c6.76,0,11.73,1.77,14.77,5.27,4.26,4.88,4.66,12.9,1.21,23.84-3.37,10.68-10.25,23.63-20.45,38.5-21,30.61-53.72,65.9-92.12,99.35-31.62,27.56-63.86,51.08-93.23,68-28.38,16.39-52.32,25.41-67.41,25.41-6.76,0-11.73-1.77-14.78-5.26-4.25-4.89-4.66-12.91-1.21-23.84,3.37-10.68,10.25-23.64,20.45-38.5,21-30.62,53.73-65.91,92.12-99.36,31.62-27.55,63.86-51.08,93.24-68,28.38-16.39,52.32-25.41,67.41-25.41m0-.47c-31,0-95.74,36.74-161,93.56C202.26,315.71,152.43,388.33,170.3,408.84c3.2,3.68,8.36,5.43,15.13,5.43,31,0,95.74-36.74,161-93.56,79.45-69.23,129.28-141.85,111.4-162.36-3.2-3.68-8.36-5.43-15.12-5.43Z" transform="translate(-15.09 -18.51)"/><path class="cls-3" d="M439,156.66v.46c6.56,0,11.38,1.72,14.33,5.12,17.16,19.68-31.37,90.14-108.17,157.05-30.72,26.77-62,49.62-90.57,66.09C227,401.3,203.76,410.07,189.1,410.07c-6.56,0-11.38-1.72-14.34-5.11-17.15-19.69,31.38-90.14,108.18-157.06,30.71-26.76,62-49.62,90.56-66.09,27.57-15.92,50.83-24.68,65.48-24.69v-.46m0,0c-30.11,0-93,35.69-156.35,90.89C205.45,314.8,157.05,385.34,174.41,405.26c3.11,3.58,8.12,5.28,14.69,5.28,30.11,0,93-35.7,156.36-90.89C422.64,252.4,471,181.85,453.68,161.93c-3.12-3.57-8.12-5.28-14.7-5.27Z" transform="translate(-15.09 -18.51)"/><path class="cls-3" d="M435.31,160.86c6.36,0,11,1.67,13.91,4.95,8,9.18,1.55,30-18.14,58.75s-50.65,62.13-86.86,93.67c-29.81,26-60.2,48.16-87.9,64.15-26.75,15.45-49.32,24-63.54,24-6.37,0-11.05-1.67-13.91-5-8-9.18-1.56-30,18.14-58.74,19.81-28.87,50.65-62.14,86.85-93.68,29.81-26,60.21-48.16,87.9-64.15,26.76-15.45,49.33-23.95,63.55-23.95m0-.47c-29.23,0-90.27,34.64-151.76,88.22-74.91,65.27-121.89,133.74-105,153.08,3,3.46,7.88,5.11,14.26,5.11,29.22,0,90.26-34.64,151.75-88.21,74.91-65.28,121.89-133.74,105-153.08-3-3.47-7.88-5.12-14.26-5.12Z" transform="translate(-15.09 -18.51)"/><path class="cls-3" d="M431.64,164.12v.47c6.16,0,10.69,1.62,13.47,4.8,7.75,8.9,1.5,29.12-17.59,57-19.21,28-49.12,60.25-84.22,90.83-28.91,25.19-58.38,46.7-85.23,62.2-25.95,15-47.83,23.23-61.62,23.23-6.16,0-10.7-1.61-13.47-4.8-7.75-8.89-1.51-29.12,17.59-56.95,19.2-28,49.11-60.24,84.22-90.83,28.9-25.19,58.37-46.69,85.23-62.2,25.94-15,47.82-23.23,61.61-23.23v-.47m0,0c-28.34,0-87.53,33.6-147.15,85.55C211.84,313,166.28,379.35,182.62,398.11c2.93,3.36,7.64,5,13.83,5,28.34,0,87.54-33.59,147.16-85.54,72.64-63.3,118.2-129.69,101.85-148.45-2.93-3.36-7.64-5-13.83-5Z" transform="translate(-15.09 -18.51)"/><path class="cls-3" d="M428,168.32c6,0,10.36,1.57,13,4.65,7.51,8.61,1.45,28.2-17,55.15-18.6,27.11-47.58,58.36-81.58,88-28,24.4-56.56,45.24-82.57,60.26-25.13,14.51-46.33,22.5-59.68,22.5-6,0-10.36-1.57-13-4.65-7.5-8.61-1.45-28.19,17-55.15,18.6-27.11,47.57-58.36,81.58-88,28-24.4,56.56-45.24,82.57-60.26,25.13-14.51,46.32-22.5,59.68-22.5m0-.46c-27.45,0-84.8,32.54-142.56,82.87C215,312,170.9,376.36,186.73,394.53c2.84,3.26,7.4,4.81,13.4,4.81,27.45,0,84.79-32.54,142.55-82.87,70.37-61.32,114.51-125.64,98.68-143.81-2.84-3.25-7.41-4.8-13.4-4.8Z" transform="translate(-15.09 -18.51)"/><path class="cls-3" d="M424.29,171.59v.47c5.77,0,10,1.51,12.61,4.49,7.25,8.33,1.39,27.27-16.5,53.35-18,26.24-46,56.48-78.95,85.15-27.1,23.61-54.73,43.78-79.9,58.31-24.32,14-44.83,21.77-57.75,21.77-5.77,0-10-1.51-12.61-4.49-7.26-8.32-1.4-27.27,16.49-53.35,18-26.24,46-56.48,78.95-85.15,27.1-23.61,54.73-43.77,79.91-58.31,24.31-14,44.82-21.77,57.74-21.77v-.47m0,0c-26.57,0-82.06,31.5-137.95,80.2C218.23,311.13,175.52,373.37,190.84,391c2.74,3.15,7.16,4.65,13,4.65,26.57,0,82.07-31.49,138-80.19,68.1-59.34,110.81-121.59,95.49-139.17-2.75-3.15-7.16-4.65-13-4.65Z" transform="translate(-15.09 -18.51)"/><path class="cls-3" d="M420.61,175.79c5.57,0,9.67,1.46,12.18,4.34,7,8,1.35,26.35-16,51.55-17.4,25.36-44.5,54.6-76.31,82.31-26.2,22.83-52.91,42.32-77.24,56.37-23.5,13.57-43.33,21-55.81,21-5.58,0-9.68-1.46-12.18-4.34-7-8-1.35-26.35,15.94-51.55,17.41-25.36,44.51-54.59,76.32-82.31,26.19-22.82,52.9-42.32,77.24-56.36,23.5-13.57,43.32-21.05,55.81-21.05m0-.47c-25.68,0-79.33,30.45-133.36,77.53-65.83,57.36-107.12,117.53-92.31,134.52,2.66,3.05,6.93,4.5,12.54,4.5,25.68,0,79.32-30.44,133.36-77.52C406.67,257,448,196.82,433.14,179.82c-2.65-3-6.92-4.5-12.53-4.5Z" transform="translate(-15.09 -18.51)"/><path class="cls-3" d="M416.94,179.06v.47c5.37,0,9.33,1.4,11.74,4.18,6.76,7.76,1.3,25.43-15.39,49.75-16.81,24.49-43,52.71-73.69,79.47-25.29,22-51.07,40.86-74.57,54.42-22.69,13.1-41.82,20.32-53.88,20.32-5.38,0-9.33-1.41-11.75-4.18-6.76-7.76-1.29-25.43,15.4-49.76,16.8-24.49,43-52.71,73.68-79.47,25.29-22,51.08-40.85,74.57-54.42,22.69-13.1,41.83-20.31,53.88-20.31v-.47m0,0c-24.79,0-76.59,29.39-128.76,74.85-63.56,55.38-103.42,113.47-89.12,129.88,2.56,2.95,6.69,4.35,12.1,4.35,24.8,0,76.6-29.4,128.76-74.85C403.47,257.9,443.33,199.81,429,183.4c-2.57-2.94-6.69-4.34-12.11-4.34Z" transform="translate(-15.09 -18.51)"/><path class="cls-3" d="M413.26,183.26c5.18,0,9,1.35,11.32,4,6.51,7.48,1.24,24.51-14.85,48-16.2,23.61-41.44,50.83-71.05,76.63-24.39,21.25-49.25,39.4-71.91,52.48-21.87,12.63-40.32,19.58-51.94,19.58-5.18,0-9-1.35-11.32-4-6.51-7.48-1.24-24.51,14.85-48,16.2-23.61,41.43-50.83,71.05-76.63,24.38-21.25,49.25-39.39,71.9-52.47,21.88-12.63,40.33-19.59,51.95-19.59m0-.47c-23.91,0-73.85,28.34-124.16,72.18-61.29,53.4-99.73,109.42-85.94,125.25,2.47,2.83,6.45,4.18,11.67,4.18,23.91,0,73.85-28.34,124.16-72.17C400.28,258.82,438.72,202.8,424.93,187c-2.47-2.84-6.45-4.19-11.67-4.19Z" transform="translate(-15.09 -18.51)"/><path class="cls-3" d="M409.59,186.52V187c5,0,8.64,1.3,10.88,3.87,6.27,7.2,1.19,23.59-14.3,46.16-15.6,22.74-39.9,48.94-68.41,73.79-23.49,20.46-47.43,37.93-69.24,50.53-21.07,12.16-38.83,18.86-50,18.86-5,0-8.65-1.3-10.88-3.87-6.27-7.19-1.19-23.59,14.3-46.16,15.6-22.74,39.89-48.94,68.41-73.79,23.48-20.46,47.42-37.93,69.24-50.53,21.06-12.16,38.83-18.86,50-18.86v-.47m0,0c-23,0-71.12,27.3-119.56,69.51-59,51.42-96,105.37-82.76,120.61,2.38,2.73,6.21,4,11.24,4,23,0,71.12-27.3,119.56-69.51,59-51.42,96-105.37,82.76-120.6-2.38-2.74-6.21-4-11.24-4Z" transform="translate(-15.09 -18.51)"/><path class="cls-3" d="M405.91,190.73c4.79,0,8.3,1.25,10.45,3.71,6,6.91,1.14,22.67-13.75,44.37-15,21.86-38.36,47.05-65.78,70.94-22.58,19.68-45.6,36.47-66.57,48.58C250,370,232.93,376.47,222.18,376.47c-4.79,0-8.31-1.25-10.46-3.72-6-6.91-1.13-22.66,13.76-44.36,15-21.86,38.35-47.06,65.77-70.95,22.58-19.67,45.6-36.47,66.58-48.58,20.25-11.69,37.33-18.13,48.08-18.13m0-.47c-22.14,0-68.38,26.24-115,66.83-56.76,49.45-92.35,101.32-79.58,116,2.29,2.62,6,3.88,10.81,3.88,22.13,0,68.38-26.25,115-66.84,56.75-49.44,92.34-101.31,79.58-116-2.29-2.62-6-3.87-10.81-3.87Z" transform="translate(-15.09 -18.51)"/><path class="cls-3" d="M402.24,194v.47c4.59,0,8,1.2,10,3.56,5.69,6.53.87,22-13.21,42.57-14.4,21-36.82,45.17-63.14,68.1-43.28,37.71-88.53,64-110.06,64-4.59,0-8-1.19-10-3.56-5.69-6.53-.88-22,13.2-42.56,14.4-21,36.83-45.17,63.15-68.11,43.27-37.7,88.53-64,110.06-64V194m0,0c-21.26,0-65.66,25.2-110.37,64.16-54.48,47.47-88.65,97.26-76.39,111.33,2.19,2.52,5.73,3.72,10.37,3.72,21.26,0,65.65-25.19,110.37-64.16,54.48-47.47,88.64-97.26,76.39-111.33-2.2-2.52-5.73-3.72-10.37-3.72Z" transform="translate(-15.09 -18.51)"/><path class="cls-3" d="M398.56,198.19c4.39,0,7.62,1.15,9.59,3.41,5.45,6.25.83,21.11-12.66,40.77-13.79,20.11-35.28,43.28-60.5,65.26C293.52,343.76,250.15,369,229.53,369c-4.4,0-7.62-1.15-9.59-3.41-5.45-6.25-.84-21.11,12.65-40.76,13.8-20.11,35.29-43.29,60.51-65.27,41.47-36.13,84.84-61.37,105.46-61.37m0-.47c-20.37,0-62.91,24.15-105.77,61.49-52.21,45.49-85,93.21-73.21,106.69,2.11,2.42,5.5,3.57,9.95,3.57,20.36,0,62.91-24.15,105.76-61.49,52.21-45.49,85-93.21,73.21-106.69-2.1-2.41-5.49-3.57-9.94-3.57Z" transform="translate(-15.09 -18.51)"/><path class="cls-3" d="M394.89,201.46v.47c4.19,0,7.27,1.09,9.15,3.25,5.21,6,.79,20.17-12.1,39-13.2,19.23-33.75,41.4-57.88,62.42-39.66,34.56-81.14,58.7-100.86,58.7-4.2,0-7.28-1.1-9.16-3.25-5.2-6-.79-20.18,12.11-39,13.2-19.23,33.75-41.4,57.87-62.42,39.66-34.55,81.14-58.69,100.87-58.69v-.47m0,0c-19.49,0-60.18,23.09-101.17,58.81-49.94,43.51-81.26,89.16-70,102.05,2,2.31,5.25,3.41,9.51,3.41,19.48,0,60.18-23.09,101.17-58.81,49.94-43.51,81.26-89.16,70-102.05-2-2.31-5.25-3.41-9.5-3.41Z" transform="translate(-15.09 -18.51)"/><path class="cls-3" d="M391.21,205.66c4,0,6.93,1,8.72,3.1,5,5.69.75,19.24-11.55,37.17-12.6,18.36-32.22,39.52-55.24,59.58-37.86,33-77.44,56-96.27,56-4,0-6.93-1-8.72-3.09-5-5.7-.75-19.24,11.56-37.18,12.59-18.35,32.21-39.51,55.24-59.58,37.85-33,77.44-56,96.26-56m0-.47c-18.6,0-57.44,22.05-96.57,56.14-47.67,41.54-77.57,85.11-66.84,97.41,1.92,2.21,5,3.26,9.07,3.26,18.6,0,57.45-22,96.57-56.14,47.68-41.53,77.57-85.1,66.85-97.41-1.92-2.21-5-3.26-9.08-3.26Z" transform="translate(-15.09 -18.51)"/><path class="cls-3" d="M387.54,208.93v.46c3.8,0,6.59,1,8.29,2.94,4.71,5.42.7,18.31-11,35.38-12,17.48-30.68,37.63-52.61,56.74-36,31.41-73.74,53.35-91.66,53.35-3.8,0-6.59-1-8.29-2.94-4.72-5.41-.71-18.31,11-35.38,12-17.48,30.67-37.63,52.6-56.74,36.05-31.41,73.74-53.34,91.67-53.35v-.46m0,0c-17.72,0-54.71,21-92,53.46-45.4,39.56-73.87,81.05-63.65,92.78,1.83,2.1,4.77,3.1,8.64,3.1,17.71,0,54.71-21,92-53.47,45.4-39.56,73.87-81.05,63.66-92.77-1.83-2.1-4.78-3.11-8.64-3.1Z" transform="translate(-15.09 -18.51)"/><path class="cls-3" d="M383.86,213.13c3.61,0,6.25.93,7.86,2.78,4.47,5.14.66,17.38-10.46,33.58-11.39,16.61-29.14,35.75-50,53.9-34.24,29.84-70.05,50.68-87.07,50.68-3.6,0-6.24-.94-7.85-2.79-4.48-5.13-.67-17.37,10.45-33.58,11.4-16.6,29.15-35.75,50-53.9,34.24-29.83,70-50.67,87.06-50.67m0-.47c-16.82,0-52,19.94-87.37,50.79-43.13,37.58-70.18,77-60.48,88.14,1.74,2,4.54,2.94,8.21,2.94,16.83,0,52-19.94,87.38-50.79,43.13-37.58,70.18-77,60.47-88.13-1.73-2-4.53-3-8.21-3Z" transform="translate(-15.09 -18.51)"/><path class="cls-3" d="M380.19,216.39v.47c3.41,0,5.9.89,7.42,2.63,4.23,4.86.62,16.44-9.91,31.78-10.79,15.73-27.6,33.87-47.33,51.06-32.44,28.26-66.35,48-82.47,48-3.41,0-5.91-.88-7.43-2.63-4.23-4.85-.62-16.44,9.91-31.78,10.8-15.73,27.61-33.86,47.34-51.06,32.43-28.26,66.35-48,82.47-48v-.47m0,0c-15.94,0-49.24,18.9-82.78,48.12-40.86,35.6-66.48,72.95-57.29,83.5,1.65,1.89,4.3,2.79,7.78,2.79,15.94,0,49.24-18.9,82.77-48.12,40.86-35.6,66.49-73,57.3-83.5-1.65-1.89-4.3-2.79-7.78-2.79Z" transform="translate(-15.09 -18.51)"/><path class="cls-3" d="M376.51,220.59c3.21,0,5.57.84,7,2.48,4,4.57.57,15.5-9.36,30-10.2,14.86-26.07,32-44.71,48.22C298.81,328,266.79,346.6,251.57,346.6c-3.21,0-5.56-.83-7-2.48-4-4.57-.58-15.5,9.36-30,10.19-14.86,26.07-32,44.7-48.22,30.63-26.69,62.66-45.33,77.87-45.33m0-.46c-15.05,0-46.5,17.84-78.17,45.44-38.59,33.63-62.8,68.9-54.11,78.86,1.55,1.79,4.06,2.64,7.34,2.64,15.06,0,46.5-17.85,78.18-45.45,38.59-33.62,62.79-68.89,54.11-78.86-1.56-1.78-4.06-2.63-7.35-2.63Z" transform="translate(-15.09 -18.51)"/><path class="cls-3" d="M372.84,223.86v.47c3,0,5.22.78,6.56,2.32,3.74,4.29.53,14.57-8.81,28.18-9.59,14-24.54,30.1-42.07,45.38-28.83,25.11-59,42.65-73.27,42.65-3,0-5.22-.78-6.56-2.32-3.75-4.29-.54-14.56,8.81-28.18,9.59-14,24.53-30.09,42.07-45.38,28.82-25.11,58.95-42.65,73.27-42.65v-.47m0,0c-14.17,0-43.77,16.8-73.58,42.77-36.32,31.65-59.1,64.84-50.93,74.22,1.47,1.68,3.82,2.48,6.92,2.48,14.17,0,43.77-16.79,73.58-42.77,36.32-31.65,59.09-64.84,50.92-74.22-1.46-1.68-3.82-2.48-6.91-2.48Z" transform="translate(-15.09 -18.51)"/><path class="cls-3" d="M369.16,228.06c2.82,0,4.88.73,6.13,2.17,3.5,4,.49,13.63-8.26,26.39-9,13.1-23,28.2-39.44,42.53-27,23.54-55.25,40-68.67,40-2.81,0-4.88-.73-6.13-2.16-3.5-4-.48-13.64,8.27-26.39,9-13.11,23-28.21,39.43-42.54,27-23.54,55.26-40,68.67-40m0-.47c-13.28,0-41,15.75-69,40.1-34.05,29.67-55.4,60.79-47.74,69.58,1.37,1.58,3.58,2.33,6.48,2.33,13.29,0,41-15.75,69-40.1,34.05-29.67,55.41-60.79,47.75-69.58-1.38-1.58-3.59-2.33-6.49-2.33Z" transform="translate(-15.09 -18.51)"/><path class="cls-3" d="M365.49,231.33v.46c2.62,0,4.53.68,5.7,2,3.25,3.73.44,12.7-7.72,24.59-8.39,12.22-21.46,26.32-36.8,39.69-25.21,22-51.56,37.31-64.07,37.31-2.62,0-4.54-.68-5.7-2-3.26-3.74-.44-12.7,7.71-24.59,8.39-12.23,21.46-26.33,36.81-39.7,25.2-22,51.55-37.3,64.07-37.31v-.46m0,0c-12.4,0-38.3,14.69-64.38,37.42-31.78,27.69-51.71,56.74-44.56,64.95,1.28,1.47,3.34,2.17,6.05,2.17,12.4,0,38.29-14.7,64.38-37.43,31.78-27.69,51.71-56.74,44.56-64.94-1.28-1.47-3.34-2.17-6.05-2.17Z" transform="translate(-15.09 -18.51)"/><path class="cls-3" d="M361.81,235.53c2.43,0,4.2.62,5.27,1.85,3,3.46.4,11.77-7.17,22.8C352.12,271.53,340,284.62,325.75,297c-23.41,20.39-47.87,34.63-59.48,34.63-2.42,0-4.19-.62-5.26-1.85-3-3.46-.4-11.77,7.16-22.8,7.79-11.35,19.93-24.43,34.17-36.84,23.4-20.4,47.86-34.64,59.47-34.64m0-.47c-11.51,0-35.56,13.65-59.78,34.75-29.51,25.72-48,52.69-41.38,60.31,1.19,1.36,3.11,2,5.62,2,11.51,0,35.56-13.64,59.78-34.75,29.51-25.71,48-52.68,41.38-60.3-1.19-1.37-3.1-2-5.62-2Z" transform="translate(-15.09 -18.51)"/><path class="cls-3" d="M358.14,238.79v.47c2.22,0,3.85.57,4.83,1.7,2.77,3.18.36,10.83-6.62,21-7.18,10.48-18.38,22.55-31.53,34-21.6,18.82-44.16,32-54.87,32-2.23,0-3.85-.57-4.84-1.7-2.77-3.18-.35-10.83,6.62-21,7.19-10.47,18.39-22.55,31.53-34,21.6-18.82,44.17-32,54.88-32v-.47m0,0c-10.63,0-32.83,12.6-55.18,32.08-27.24,23.74-44.33,48.64-38.2,55.67,1.1,1.26,2.87,1.86,5.19,1.86,10.62,0,32.82-12.6,55.18-32.08,27.24-23.74,44.32-48.63,38.2-55.67-1.1-1.26-2.87-1.86-5.19-1.86Z" transform="translate(-15.09 -18.51)"/><path class="cls-3" d="M354.46,243a5.63,5.63,0,0,1,4.41,1.54c2.52,2.9.31,9.9-6.07,19.2-6.59,9.6-16.85,20.67-28.9,31.17-19.79,17.24-40.47,29.29-50.28,29.29-2,0-3.51-.52-4.4-1.55-2.53-2.9-.31-9.89,6.07-19.2,6.59-9.6,16.85-20.67,28.9-31.16C324,255,344.65,243,354.46,243m0-.47c-9.74,0-30.08,11.54-50.58,29.4-25,21.76-40.63,44.58-35,51a6,6,0,0,0,4.75,1.71c9.74,0,30.09-11.55,50.59-29.41,25-21.76,40.63-44.58,35-51-1-1.15-2.63-1.7-4.76-1.7Z" transform="translate(-15.09 -18.51)"/><path class="cls-3" d="M350.79,246.26v.47a5,5,0,0,1,4,1.39c4.84,5.56-9.72,26.5-31.79,45.73-18,15.67-36.76,26.61-45.67,26.61a5,5,0,0,1-4-1.39c-2.29-2.62-.27-9,5.52-17.4,6-8.72,15.31-18.78,26.26-28.32,18-15.67,36.77-26.62,45.68-26.62v-.47m0,0c-8.86,0-27.36,10.5-46,26.73-22.7,19.78-36.93,40.53-31.83,46.39a5.49,5.49,0,0,0,4.33,1.55c8.85,0,27.35-10.5,46-26.73,22.7-19.78,36.94-40.53,31.83-46.39a5.47,5.47,0,0,0-4.32-1.55Z" transform="translate(-15.09 -18.51)"/><path class="cls-3" d="M347.12,250.46a4.47,4.47,0,0,1,3.53,1.24c2,2.34.23,8-5,15.6-5.39,7.85-13.78,16.9-23.63,25.49C305.87,306.88,289,316.73,281,316.73a4.54,4.54,0,0,1-3.54-1.23c-4.34-5,8.76-23.8,28.61-41.09,16.17-14.1,33.07-24,41.08-24m0-.47c-8,0-24.62,9.45-41.39,24.06-20.43,17.81-33.25,36.48-28.65,41.75a4.91,4.91,0,0,0,3.89,1.4c8,0,24.62-9.45,41.39-24.06,20.43-17.8,33.24-36.48,28.65-41.75a4.92,4.92,0,0,0-3.89-1.4Z" transform="translate(-15.09 -18.51)"/><path class="cls-3" d="M343.44,253.73v.47a4,4,0,0,1,3.11,1.08c1.79,2.06.18,7.09-4.43,13.8-4.78,7-12.24,15-21,22.65C306.75,304.25,291.75,313,284.65,313a4,4,0,0,1-3.11-1.08c-1.79-2.06-.18-7.1,4.42-13.81,4.79-7,12.25-15,21-22.64,14.37-12.53,29.37-21.27,36.48-21.27v-.47m0,0c-7.08,0-21.88,8.4-36.79,21.38-18.16,15.83-29.55,32.43-25.46,37.11a4.38,4.38,0,0,0,3.46,1.24c7.08,0,21.88-8.39,36.78-21.38C339.59,276.26,351,259.66,346.9,255a4.38,4.38,0,0,0-3.46-1.24Z" transform="translate(-15.09 -18.51)"/><path class="cls-3" d="M339.77,257.93a3.42,3.42,0,0,1,2.67.92c1.55,1.79.14,6.16-3.88,12-4.18,6.1-10.7,13.13-18.36,19.81-12.56,10.95-25.67,18.59-31.88,18.59a3.39,3.39,0,0,1-2.67-.92c-1.55-1.78-.14-6.16,3.87-12,4.19-6.1,10.71-13.13,18.36-19.8,12.57-10.95,25.68-18.6,31.89-18.6m0-.47c-6.2,0-19.15,7.35-32.19,18.71-15.89,13.85-25.86,28.37-22.29,32.48a3.88,3.88,0,0,0,3,1.08c6.2,0,19.15-7.35,32.19-18.71,15.89-13.85,25.86-28.37,22.28-32.47a3.81,3.81,0,0,0-3-1.09Z" transform="translate(-15.09 -18.51)"/><path class="cls-3" d="M336.09,261.2v.46a2.85,2.85,0,0,1,2.24.77c1.31,1.51.1,5.23-3.32,10.22a96.83,96.83,0,0,1-15.73,17c-10.76,9.37-22,15.92-27.29,15.92a2.86,2.86,0,0,1-2.24-.77c-2.52-2.9,4.53-14.51,19.06-27.17,10.76-9.38,22-15.93,27.28-15.93v-.46m0,0c-5.31,0-16.41,6.29-27.59,16-13.62,11.87-22.16,24.32-19.1,27.84A3.28,3.28,0,0,0,292,306c5.32,0,16.42-6.3,27.6-16,13.62-11.87,22.16-24.32,19.09-27.83a3.23,3.23,0,0,0-2.59-.93Z" transform="translate(-15.09 -18.51)"/><path class="cls-3" d="M332.42,265.4a2.27,2.27,0,0,1,1.8.61c2.09,2.39-3.79,12-15.87,22.53-9,7.81-18.28,13.26-22.68,13.26a2.31,2.31,0,0,1-1.81-.62c-1.05-1.2,0-4.35,2.78-8.41a80.06,80.06,0,0,1,13.09-14.12c9-7.8,18.28-13.25,22.69-13.25m0-.47c-4.43,0-13.68,5.25-23,13.36-11.35,9.89-18.46,20.27-15.91,23.2a2.75,2.75,0,0,0,2.16.77c4.43,0,13.68-5.24,23-13.36,11.35-9.89,18.47-20.27,15.92-23.2a2.77,2.77,0,0,0-2.16-.77Z" transform="translate(-15.09 -18.51)"/><path class="cls-3" d="M328.74,269.13h0a1.79,1.79,0,0,1,1.38.46c1.6,1.84-3.22,9.64-12.69,17.89-7.15,6.23-14.58,10.58-18.09,10.58a1.73,1.73,0,0,1-1.37-.46c-1.6-1.84,3.21-9.64,12.68-17.89,7.15-6.23,14.59-10.58,18.09-10.58m0-.47c-3.54,0-10.94,4.2-18.39,10.7-9.08,7.91-14.78,16.21-12.73,18.55a2.17,2.17,0,0,0,1.72.62c3.55,0,11-4.2,18.4-10.69,9.08-7.91,14.77-16.21,12.73-18.56a2.19,2.19,0,0,0-1.73-.62Z" transform="translate(-15.09 -18.51)"/><path class="cls-3" d="M325.07,272.86a1.22,1.22,0,0,1,.94.31c1.17,1.34-2.45,7.11-9.5,13.25-5.34,4.66-10.89,7.91-13.49,7.91a1.17,1.17,0,0,1-.94-.31c-.44-.5-.23-2,1.67-4.82a48.15,48.15,0,0,1,7.83-8.43c5.34-4.66,10.89-7.91,13.49-7.91m0-.46c-2.66,0-8.21,3.14-13.8,8-6.81,5.93-11.08,12.15-9.55,13.91a1.64,1.64,0,0,0,1.3.47c2.66,0,8.2-3.15,13.79-8,6.81-5.94,11.09-12.16,9.55-13.92a1.64,1.64,0,0,0-1.29-.46Z" transform="translate(-15.09 -18.51)"/><path class="cls-3" d="M321.39,276.6h0a.67.67,0,0,1,.51.15c.63.72-1.52,4.43-6.32,8.61-4.12,3.6-7.5,5.24-8.89,5.24a.74.74,0,0,1-.51-.15c-.19-.23-.18-1.12,1.13-3a32.11,32.11,0,0,1,5.19-5.59c4.13-3.6,7.5-5.23,8.89-5.23m0-.47c-1.77,0-5.47,2.1-9.19,5.35-4.54,3.95-7.39,8.1-6.37,9.27a1.09,1.09,0,0,0,.86.31c1.77,0,5.47-2.1,9.2-5.34,4.54-4,7.39-8.11,6.37-9.28a1.11,1.11,0,0,0-.87-.31Z" transform="translate(-15.09 -18.51)"/><path class="cls-3" d="M317.72,280.33h.07c0,.37-.77,1.9-3.13,4-1.93,1.68-3.62,2.56-4.29,2.56h-.07c0-.37.76-1.91,3.13-4,1.92-1.68,3.61-2.56,4.29-2.56m0-.47c-.89,0-2.74,1.05-4.6,2.68-2.27,2-3.69,4-3.18,4.63a.52.52,0,0,0,.43.16c.88,0,2.73-1.05,4.6-2.67,2.27-2,3.69-4.06,3.18-4.64a.53.53,0,0,0-.43-.16Z" transform="translate(-15.09 -18.51)"/></g><path class="cls-4" d="M84.09,291H545.91c0-.6,0-1.2,0-1.8H84.06C84.07,289.75,84.07,290.35,84.09,291Z" transform="translate(-15.09 -18.51)"/><path class="cls-5" d="M84,286.45H546c0-.6,0-1.2,0-1.8H84C84,285.25,84,285.85,84,286.45Z" transform="translate(-15.09 -18.51)"/><path class="cls-6" d="M85.37,259.45H544.63l-.21-1.8H85.58Z" transform="translate(-15.09 -18.51)"/><path class="cls-7" d="M84.52,300h461l.12-1.8H84.4Z" transform="translate(-15.09 -18.51)"/><path class="cls-8" d="M84.29,273H545.71c0-.6-.08-1.2-.11-1.8H84.4C84.37,271.75,84.32,272.35,84.29,273Z" transform="translate(-15.09 -18.51)"/><path class="cls-9" d="M84.57,268.45H545.43c0-.6-.08-1.2-.12-1.8H84.69C84.65,267.25,84.62,267.85,84.57,268.45Z" transform="translate(-15.09 -18.51)"/><path class="cls-10" d="M84,282H546l0-1.8H84.06Z" transform="translate(-15.09 -18.51)"/><path class="cls-11" d="M84.93,264H545.07c-.06-.6-.11-1.2-.16-1.8H85.09C85,262.75,85,263.35,84.93,264Z" transform="translate(-15.09 -18.51)"/><path class="cls-12" d="M84.12,277.45H545.88c0-.6,0-1.2-.07-1.8H84.19C84.17,276.25,84.14,276.85,84.12,277.45Z" transform="translate(-15.09 -18.51)"/><path class="cls-13" d="M84.26,295.45H545.74c0-.6,0-1.2.07-1.8H84.19C84.21,294.25,84.23,294.85,84.26,295.45Z" transform="translate(-15.09 -18.51)"/><path class="cls-14" d="M89.73,336H540.27c.14-.6.26-1.2.4-1.8H89.33C89.47,334.75,89.59,335.35,89.73,336Z" transform="translate(-15.09 -18.51)"/><path class="cls-15" d="M87.88,327H542.12c.11-.6.23-1.2.34-1.8H87.54C87.65,325.75,87.77,326.35,87.88,327Z" transform="translate(-15.09 -18.51)"/><path class="cls-16" d="M88.75,331.45h452.5c.13-.6.24-1.2.35-1.8H88.4C88.51,330.25,88.62,330.85,88.75,331.45Z" transform="translate(-15.09 -18.51)"/><path class="cls-17" d="M90.8,340.45H539.2c.15-.6.29-1.2.44-1.8H90.36C90.51,339.25,90.65,339.85,90.8,340.45Z" transform="translate(-15.09 -18.51)"/><path class="cls-18" d="M85.27,309H544.73l.18-1.8H85.09Z" transform="translate(-15.09 -18.51)"/><path class="cls-19" d="M85.78,313.45H544.22c.07-.6.13-1.2.2-1.8H85.58C85.65,312.25,85.71,312.85,85.78,313.45Z" transform="translate(-15.09 -18.51)"/><path class="cls-20" d="M87.1,322.45H542.9c.1-.6.21-1.2.3-1.8H86.8C86.89,321.25,87,321.85,87.1,322.45Z" transform="translate(-15.09 -18.51)"/><path class="cls-21" d="M84.85,304.45h460.3c.05-.6.11-1.2.16-1.8H84.69C84.74,303.25,84.8,303.85,84.85,304.45Z" transform="translate(-15.09 -18.51)"/><path class="cls-22" d="M86.4,318H543.6c.09-.6.17-1.2.25-1.8H86.15C86.23,316.75,86.31,317.35,86.4,318Z" transform="translate(-15.09 -18.51)"/><path class="cls-23" d="M109.82,178.45H520.18c-.31-.6-.63-1.2-.95-1.8H110.77C110.45,177.25,110.13,177.85,109.82,178.45Z" transform="translate(-15.09 -18.51)"/><path class="cls-24" d="M101.45,196.45h427.1l-.74-1.8H102.19Z" transform="translate(-15.09 -18.51)"/><path class="cls-25" d="M103.37,192H526.63c-.27-.6-.52-1.2-.79-1.8H104.16C103.89,190.75,103.64,191.35,103.37,192Z" transform="translate(-15.09 -18.51)"/><path class="cls-26" d="M99.64,201H530.36l-.71-1.8H100.35Z" transform="translate(-15.09 -18.51)"/><path class="cls-27" d="M97.94,205.45H532.06c-.22-.6-.45-1.2-.68-1.8H98.62C98.39,204.25,98.16,204.85,97.94,205.45Z" transform="translate(-15.09 -18.51)"/><path class="cls-28" d="M112.21,174H517.79c-.33-.6-.67-1.2-1-1.8H113.22C112.88,172.75,112.54,173.35,112.21,174Z" transform="translate(-15.09 -18.51)"/><path class="cls-29" d="M96.35,210h437.3l-.64-1.8H97Z" transform="translate(-15.09 -18.51)"/><path class="cls-30" d="M105.4,187.45H524.6l-.84-1.8H106.24Z" transform="translate(-15.09 -18.51)"/><path class="cls-31" d="M114.74,169.45H515.26c-.34-.6-.7-1.2-1.06-1.8H115.8C115.44,168.25,115.08,168.85,114.74,169.45Z" transform="translate(-15.09 -18.51)"/><path class="cls-32" d="M107.55,183h414.9l-.89-1.8H108.44Z" transform="translate(-15.09 -18.51)"/><path class="cls-33" d="M92,345H538c.16-.6.33-1.2.49-1.8h-447C91.64,343.75,91.81,344.35,92,345Z" transform="translate(-15.09 -18.51)"/><path class="cls-34" d="M94.88,214.45H535.12c-.19-.6-.38-1.2-.58-1.8H95.46C95.26,213.25,95.07,213.85,94.88,214.45Z" transform="translate(-15.09 -18.51)"/><path class="cls-35" d="M88.05,241.45H542c-.11-.6-.23-1.2-.35-1.8H88.4C88.28,240.25,88.16,240.85,88.05,241.45Z" transform="translate(-15.09 -18.51)"/><path class="cls-36" d="M87.25,246h455.5c-.1-.6-.19-1.2-.29-1.8H87.54C87.44,244.75,87.35,245.35,87.25,246Z" transform="translate(-15.09 -18.51)"/><path class="cls-37" d="M86.53,250.45H543.47q-.12-.9-.27-1.8H86.8Q86.65,249.55,86.53,250.45Z" transform="translate(-15.09 -18.51)"/><path class="cls-38" d="M88.94,237H541.06l-.39-1.8H89.33Z" transform="translate(-15.09 -18.51)"/><path class="cls-39" d="M93.5,219h443c-.17-.6-.35-1.2-.53-1.8H94C93.85,217.75,93.67,218.35,93.5,219Z" transform="translate(-15.09 -18.51)"/><path class="cls-40" d="M89.92,232.45H540.08c-.14-.6-.3-1.2-.44-1.8H90.36C90.22,231.25,90.06,231.85,89.92,232.45Z" transform="translate(-15.09 -18.51)"/><path class="cls-41" d="M92.21,223.45H537.79c-.17-.6-.32-1.2-.49-1.8H92.7C92.53,222.25,92.38,222.85,92.21,223.45Z" transform="translate(-15.09 -18.51)"/><path class="cls-42" d="M91,228H539c-.15-.6-.3-1.2-.46-1.8h-447C91.32,226.75,91.17,227.35,91,228Z" transform="translate(-15.09 -18.51)"/><path class="cls-43" d="M85.9,255H544.1c-.07-.6-.17-1.2-.25-1.8H86.15C86.07,253.75,86,254.35,85.9,255Z" transform="translate(-15.09 -18.51)"/><path class="cls-44" d="M166.93,462H463.07l2.12-1.8H164.81Z" transform="translate(-15.09 -18.51)"/><path class="cls-45" d="M172.47,466.45H457.53c.75-.59,1.49-1.2,2.24-1.8H170.23C171,465.25,171.72,465.86,172.47,466.45Z" transform="translate(-15.09 -18.51)"/><path class="cls-46" d="M161.72,457.45H468.28c.68-.6,1.36-1.19,2-1.8H159.69C160.36,456.26,161,456.85,161.72,457.45Z" transform="translate(-15.09 -18.51)"/><path class="cls-47" d="M178.42,471H451.58c.81-.6,1.62-1.19,2.42-1.8H176C176.8,469.76,177.61,470.35,178.42,471Z" transform="translate(-15.09 -18.51)"/><path class="cls-48" d="M143.55,439.45h342.9l1.6-1.8H142Z" transform="translate(-15.09 -18.51)"/><path class="cls-49" d="M147.71,444H482.29c.56-.59,1.11-1.2,1.67-1.8H146C146.6,442.75,147.15,443.36,147.71,444Z" transform="translate(-15.09 -18.51)"/><path class="cls-50" d="M184.76,475.45H445.24c.87-.6,1.73-1.19,2.59-1.8H182.17C183,474.26,183.89,474.85,184.76,475.45Z" transform="translate(-15.09 -18.51)"/><path class="cls-51" d="M156.79,453H473.21l1.9-1.8H154.89Z" transform="translate(-15.09 -18.51)"/><path class="cls-52" d="M152.12,448.45H477.88l1.77-1.8H150.35Z" transform="translate(-15.09 -18.51)"/><path class="cls-53" d="M237.89,502.45H392.11q2.47-.87,4.9-1.8H233Q235.42,501.58,237.89,502.45Z" transform="translate(-15.09 -18.51)"/><path class="cls-54" d="M191.6,480H438.4c.94-.59,1.86-1.19,2.79-1.8H188.81C189.74,478.76,190.66,479.36,191.6,480Z" transform="translate(-15.09 -18.51)"/><path class="cls-55" d="M271,511.45h88c2.85-.55,5.7-1.14,8.52-1.8h-105C265.3,510.31,268.15,510.9,271,511.45Z" transform="translate(-15.09 -18.51)"/><path class="cls-56" d="M139.59,435H490.41l1.52-1.8H138.07Z" transform="translate(-15.09 -18.51)"/><path class="cls-57" d="M315,515.65a233.25,233.25,0,0,0,26.31-1.5H288.69A233.25,233.25,0,0,0,315,515.65Z" transform="translate(-15.09 -18.51)"/><path class="cls-58" d="M252,507H378q3-.85,6-1.8H246Q249,506.1,252,507Z" transform="translate(-15.09 -18.51)"/><path class="cls-59" d="M199,484.45H431c1-.59,2-1.19,3-1.8H196C197,483.26,198,483.86,199,484.45Z" transform="translate(-15.09 -18.51)"/><path class="cls-60" d="M207.12,489H422.88c1.11-.59,2.23-1.19,3.34-1.8H203.78C204.89,487.76,206,488.36,207.12,489Z" transform="translate(-15.09 -18.51)"/><path class="cls-61" d="M226.19,498H403.81c1.41-.59,2.8-1.19,4.18-1.8H222C223.39,496.76,224.78,497.36,226.19,498Z" transform="translate(-15.09 -18.51)"/><path class="cls-62" d="M216.09,493.45H413.91q1.86-.88,3.69-1.8H212.4Q214.23,492.57,216.09,493.45Z" transform="translate(-15.09 -18.51)"/><path class="cls-63" d="M94.58,354H535.42c.19-.6.37-1.2.55-1.8H94C94.21,352.75,94.39,353.35,94.58,354Z" transform="translate(-15.09 -18.51)"/><path class="cls-64" d="M105,381H525l.82-1.8H104.16Z" transform="translate(-15.09 -18.51)"/><path class="cls-65" d="M101.08,372H528.92l.73-1.8H100.35Z" transform="translate(-15.09 -18.51)"/><path class="cls-66" d="M103,376.45H527l.79-1.8H102.19Z" transform="translate(-15.09 -18.51)"/><path class="cls-67" d="M109.34,390H520.66c.3-.6.59-1.2.9-1.8H108.44C108.75,388.75,109,389.35,109.34,390Z" transform="translate(-15.09 -18.51)"/><path class="cls-68" d="M107.1,385.45H522.9l.86-1.8H106.24Z" transform="translate(-15.09 -18.51)"/><path class="cls-69" d="M93.23,349.45H536.77c.18-.6.36-1.2.53-1.8H92.7C92.87,348.25,93.05,348.85,93.23,349.45Z" transform="translate(-15.09 -18.51)"/><path class="cls-70" d="M96,358.45H534c.2-.6.38-1.2.58-1.8H95.46C95.66,357.25,95.84,357.85,96,358.45Z" transform="translate(-15.09 -18.51)"/><path class="cls-71" d="M99.3,367.45H530.7c.23-.6.46-1.2.68-1.8H98.62C98.84,366.25,99.07,366.85,99.3,367.45Z" transform="translate(-15.09 -18.51)"/><path class="cls-72" d="M135.83,430.45H494.17l1.45-1.8H134.38Z" transform="translate(-15.09 -18.51)"/><path class="cls-73" d="M97.62,363H532.38c.22-.6.42-1.2.63-1.8H97C97.2,361.75,97.4,362.35,97.62,363Z" transform="translate(-15.09 -18.51)"/><path class="cls-74" d="M128.86,421.45H501.14l1.31-1.8H127.55Z" transform="translate(-15.09 -18.51)"/><path class="cls-75" d="M125.63,417H504.37l1.25-1.8H124.38Z" transform="translate(-15.09 -18.51)"/><path class="cls-76" d="M122.56,412.45H507.44c.4-.6.79-1.2,1.18-1.8H121.38C121.77,411.25,122.16,411.85,122.56,412.45Z" transform="translate(-15.09 -18.51)"/><path class="cls-77" d="M132.26,426H497.74l1.38-1.8H130.88Z" transform="translate(-15.09 -18.51)"/><path class="cls-78" d="M119.64,408H510.36c.38-.6.75-1.2,1.12-1.8h-393C118.89,406.75,119.26,407.35,119.64,408Z" transform="translate(-15.09 -18.51)"/><path class="cls-79" d="M114.22,399H515.78c.34-.6.67-1.2,1-1.8H113.22C113.55,397.75,113.88,398.35,114.22,399Z" transform="translate(-15.09 -18.51)"/><path class="cls-80" d="M116.86,403.45H513.14c.36-.6.71-1.2,1.06-1.8H115.8C116.15,402.25,116.5,402.85,116.86,403.45Z" transform="translate(-15.09 -18.51)"/><path class="cls-81" d="M111.72,394.45H518.28c.33-.6.63-1.2,1-1.8H110.77C111.09,393.25,111.39,393.85,111.72,394.45Z" transform="translate(-15.09 -18.51)"/><path class="cls-82" d="M255.33,61.45H374.67c-2.37-.63-4.75-1.24-7.15-1.8h-105C260.08,60.21,257.7,60.82,255.33,61.45Z" transform="translate(-15.09 -18.51)"/><path class="cls-83" d="M140.36,133.45H489.64c-.52-.61-1.06-1.2-1.59-1.8H142C141.42,132.25,140.88,132.84,140.36,133.45Z" transform="translate(-15.09 -18.51)"/><path class="cls-84" d="M136.56,138H493.44c-.5-.61-1-1.2-1.51-1.8H138.07C137.57,136.75,137.06,137.34,136.56,138Z" transform="translate(-15.09 -18.51)"/><path class="cls-85" d="M208.84,79.45H421.16c-1.18-.61-2.37-1.21-3.56-1.8H212.4C211.21,78.24,210,78.84,208.84,79.45Z" transform="translate(-15.09 -18.51)"/><path class="cls-86" d="M126.26,151.45H503.74c-.42-.6-.86-1.2-1.29-1.8H127.55C127.12,150.25,126.68,150.85,126.26,151.45Z" transform="translate(-15.09 -18.51)"/><path class="cls-87" d="M200.57,84H429.43c-1.06-.61-2.14-1.21-3.21-1.8H203.78C202.71,82.74,201.63,83.34,200.57,84Z" transform="translate(-15.09 -18.51)"/><path class="cls-88" d="M218,75H412c-1.32-.61-2.64-1.21-4-1.8H222C220.67,73.74,219.35,74.34,218,75Z" transform="translate(-15.09 -18.51)"/><path class="cls-89" d="M120.2,160.45H509.8c-.39-.6-.78-1.2-1.18-1.8H121.38C121,159.25,120.59,159.85,120.2,160.45Z" transform="translate(-15.09 -18.51)"/><path class="cls-90" d="M186.08,93H443.92c-.9-.61-1.82-1.2-2.73-1.8H188.81C187.9,91.75,187,92.34,186.08,93Z" transform="translate(-15.09 -18.51)"/><path class="cls-91" d="M153.05,120H477l-1.84-1.8H154.89Z" transform="translate(-15.09 -18.51)"/><path class="cls-92" d="M276,57h78c-4.19-.72-8.43-1.31-12.7-1.8H288.69C284.42,55.64,280.18,56.23,276,57Z" transform="translate(-15.09 -18.51)"/><path class="cls-93" d="M133,142.45h364.1c-.47-.61-1-1.2-1.43-1.8H134.38C133.91,141.25,133.42,141.84,133,142.45Z" transform="translate(-15.09 -18.51)"/><path class="cls-94" d="M123.15,156h383.7l-1.23-1.8H124.38Z" transform="translate(-15.09 -18.51)"/><path class="cls-95" d="M173.65,102h282.7c-.78-.6-1.56-1.21-2.35-1.8H176C175.21,100.74,174.43,101.35,173.65,102Z" transform="translate(-15.09 -18.51)"/><path class="cls-96" d="M179.66,97.45H450.34c-.83-.6-1.67-1.21-2.51-1.8H182.17C181.33,96.24,180.49,96.85,179.66,97.45Z" transform="translate(-15.09 -18.51)"/><path class="cls-97" d="M148.59,124.45H481.41l-1.76-1.8H150.35Z" transform="translate(-15.09 -18.51)"/><path class="cls-98" d="M193.05,88.45H437c-1-.61-1.94-1.21-2.92-1.8H196C195,87.24,194,87.84,193.05,88.45Z" transform="translate(-15.09 -18.51)"/><path class="cls-99" d="M129.52,147h371l-1.36-1.8H130.88Z" transform="translate(-15.09 -18.51)"/><path class="cls-100" d="M157.76,115.45H472.24c-.64-.6-1.28-1.21-1.93-1.8H159.69C159,114.24,158.4,114.85,157.76,115.45Z" transform="translate(-15.09 -18.51)"/><path class="cls-101" d="M228.4,70.45H401.6q-2.28-.93-4.59-1.8H233Q230.68,69.52,228.4,70.45Z" transform="translate(-15.09 -18.51)"/><path class="cls-102" d="M240.46,66H389.54q-2.73-.93-5.49-1.8H246Q243.19,65,240.46,66Z" transform="translate(-15.09 -18.51)"/><path class="cls-103" d="M168,106.45H462c-.73-.61-1.48-1.2-2.22-1.8H170.23C169.49,105.25,168.74,105.84,168,106.45Z" transform="translate(-15.09 -18.51)"/><path class="cls-104" d="M144.37,129H485.63c-.55-.61-1.11-1.2-1.67-1.8H146C145.48,127.75,144.92,128.34,144.37,129Z" transform="translate(-15.09 -18.51)"/><path class="cls-105" d="M117.4,165H512.6c-.36-.61-.74-1.2-1.12-1.8h-393C118.14,163.75,117.76,164.34,117.4,165Z" transform="translate(-15.09 -18.51)"/><path class="cls-106" d="M162.74,111H467.26l-2.07-1.8H164.81Z" transform="translate(-15.09 -18.51)"/></g></g></svg>