<svg id="レイヤー_1" data-name="レイヤー 1" xmlns="http://www.w3.org/2000/svg" xmlns:xlink="http://www.w3.org/1999/xlink" width="154.3" height="154.55" viewBox="0 0 154.3 154.55"><title>apple</title><image width="640" height="640" transform="translate(0.3) scale(0.24)" xlink:href="apple2.jpg"/><rect y="2.96" width="154.3" height="1"/><rect y="5.97" width="154.3" height="1"/><rect y="8.98" width="154.3" height="1"/><rect y="12" width="154.3" height="1"/><rect y="15.01" width="154.3" height="1"/><rect y="18.02" width="154.3" height="1"/><rect y="21.03" width="154.3" height="1"/><rect y="24.04" width="154.3" height="1"/><rect y="27.05" width="154.3" height="1"/><rect y="30.07" width="154.3" height="1"/><rect y="33.08" width="154.3" height="1"/><rect y="36.09" width="154.3" height="1"/><rect y="39.1" width="154.3" height="1"/><rect y="42.11" width="154.3" height="1"/><rect y="45.12" width="154.3" height="1"/><rect y="48.14" width="154.3" height="1"/><rect y="51.15" width="154.3" height="1"/><rect y="54.16" width="154.3" height="1"/><rect y="57.17" width="154.3" height="1"/><rect y="60.18" width="154.3" height="1"/><rect y="63.2" width="154.3" height="1"/><rect y="66.21" width="154.3" height="1"/><rect y="69.22" width="154.3" height="1"/><rect y="72.23" width="154.3" height="1"/><rect y="75.24" width="154.3" height="1"/><rect y="78.25" width="154.3" height="1"/><rect y="81.27" width="154.3" height="1"/><rect y="84.28" width="154.3" height="1"/><rect y="87.29" width="154.3" height="1"/><rect y="90.3" width="154.3" height="1"/><rect y="93.31" width="154.3" height="1"/><rect y="96.32" width="154.3" height="1"/><rect y="99.34" width="154.3" height="1"/><rect y="102.35" width="154.3" height="1"/><rect y="105.36" width="154.3" height="1"/><rect y="108.37" width="154.3" height="1"/><rect y="111.38" width="154.3" height="1"/><rect y="114.4" width="154.3" height="1"/><rect y="117.41" width="154.3" height="1"/><rect y="120.42" width="154.3" height="1"/><rect y="123.43" width="154.3" height="1"/><rect y="126.44" width="154.3" height="1"/><rect y="129.45" width="154.3" height="1"/><rect y="132.47" width="154.3" height="1"/><rect y="135.48" width="154.3" height="1"/><rect y="138.49" width="154.3" height="1"/><rect y="141.5" width="154.3" height="1"/><rect y="144.51" width="154.3" height="1"/><rect y="147.52" width="154.3" height="1"/><rect y="150.54" width="154.3" height="1"/><rect y="153.55" width="154.3" height="1"/></svg>