<?xml version="1.0" encoding="utf-8"?>
<!-- Generator: Adobe Illustrator 22.0.1, SVG Export Plug-In . SVG Version: 6.00 Build 0)  -->
<svg version="1.1" id="レイヤー_1" xmlns="http://www.w3.org/2000/svg" xmlns:xlink="http://www.w3.org/1999/xlink" x="0px"
	 y="0px" viewBox="0 0 283.5 283.5" style="enable-background:new 0 0 283.5 283.5;" xml:space="preserve">
<style type="text/css">
	.st0{fill:none;stroke:#00A0E9;stroke-width:0.797;stroke-miterlimit:10;}
</style>
<g>
	<g>
		<ellipse class="st0" cx="141.8" cy="141.8" rx="138.8" ry="138.8"/>
		<ellipse class="st0" cx="141.8" cy="141.8" rx="136" ry="136"/>
		<ellipse class="st0" cx="141.8" cy="141.8" rx="133.3" ry="133.3"/>
		<ellipse class="st0" cx="141.8" cy="141.8" rx="130.6" ry="130.6"/>
		<ellipse class="st0" cx="141.8" cy="141.8" rx="127.9" ry="127.9"/>
		<ellipse class="st0" cx="141.8" cy="141.8" rx="125.2" ry="125.2"/>
		<ellipse class="st0" cx="141.8" cy="141.8" rx="122.4" ry="122.4"/>
		<circle class="st0" cx="141.8" cy="141.8" r="119.7"/>
		<circle class="st0" cx="141.8" cy="141.8" r="117"/>
		<circle class="st0" cx="141.8" cy="141.8" r="114.3"/>
		<circle class="st0" cx="141.8" cy="141.8" r="111.6"/>
		<circle class="st0" cx="141.8" cy="141.8" r="108.8"/>
		<circle class="st0" cx="141.8" cy="141.8" r="106.1"/>
		<circle class="st0" cx="141.8" cy="141.8" r="103.4"/>
		<circle class="st0" cx="141.8" cy="141.8" r="100.7"/>
		<circle class="st0" cx="141.8" cy="141.8" r="98"/>
		<circle class="st0" cx="141.8" cy="141.8" r="95.2"/>
		<circle class="st0" cx="141.8" cy="141.8" r="92.5"/>
		<circle class="st0" cx="141.8" cy="141.8" r="89.8"/>
		<circle class="st0" cx="141.8" cy="141.8" r="87.1"/>
		<circle class="st0" cx="141.8" cy="141.8" r="84.3"/>
		<circle class="st0" cx="141.8" cy="141.8" r="81.6"/>
		<circle class="st0" cx="141.8" cy="141.8" r="78.9"/>
		<circle class="st0" cx="141.8" cy="141.8" r="76.2"/>
		<circle class="st0" cx="141.8" cy="141.8" r="73.5"/>
		<circle class="st0" cx="141.8" cy="141.8" r="70.7"/>
		<circle class="st0" cx="141.8" cy="141.8" r="68"/>
		<circle class="st0" cx="141.8" cy="141.8" r="65.3"/>
		<circle class="st0" cx="141.8" cy="141.8" r="62.6"/>
		<circle class="st0" cx="141.8" cy="141.8" r="59.9"/>
		<circle class="st0" cx="141.8" cy="141.8" r="57.1"/>
		<circle class="st0" cx="141.8" cy="141.8" r="54.4"/>
		<circle class="st0" cx="141.8" cy="141.8" r="51.7"/>
		<circle class="st0" cx="141.8" cy="141.8" r="49"/>
		<circle class="st0" cx="141.8" cy="141.8" r="46.3"/>
		<circle class="st0" cx="141.8" cy="141.8" r="43.5"/>
		<circle class="st0" cx="141.8" cy="141.8" r="40.8"/>
		<circle class="st0" cx="141.8" cy="141.8" r="38.1"/>
		<circle class="st0" cx="141.8" cy="141.8" r="35.4"/>
		<circle class="st0" cx="141.8" cy="141.8" r="32.7"/>
		<circle class="st0" cx="141.8" cy="141.8" r="29.9"/>
		<circle class="st0" cx="141.8" cy="141.8" r="27.2"/>
		<circle class="st0" cx="141.8" cy="141.8" r="24.5"/>
		<circle class="st0" cx="141.8" cy="141.8" r="21.8"/>
		<circle class="st0" cx="141.8" cy="141.8" r="19"/>
		<circle class="st0" cx="141.8" cy="141.8" r="16.3"/>
		<circle class="st0" cx="141.8" cy="141.8" r="13.6"/>
		<circle class="st0" cx="141.8" cy="141.8" r="10.9"/>
		<circle class="st0" cx="141.8" cy="141.8" r="8.2"/>
		<circle class="st0" cx="141.8" cy="141.8" r="5.4"/>
		<circle class="st0" cx="141.8" cy="141.8" r="2.7"/>
	</g>
</g>
</svg>
