<svg xmlns="http://www.w3.org/2000/svg" xmlns:xlink="http://www.w3.org/1999/xlink" width="560" height="560" viewBox="0 0 560 560"><defs><style>.cls-1{isolation:isolate;}.cls-10,.cls-11,.cls-12,.cls-13,.cls-14,.cls-15,.cls-16,.cls-17,.cls-18,.cls-19,.cls-2,.cls-20,.cls-21,.cls-22,.cls-23,.cls-24,.cls-25,.cls-26,.cls-27,.cls-28,.cls-29,.cls-3,.cls-30,.cls-31,.cls-32,.cls-33,.cls-34,.cls-35,.cls-36,.cls-37,.cls-38,.cls-39,.cls-4,.cls-40,.cls-41,.cls-42,.cls-43,.cls-44,.cls-45,.cls-46,.cls-47,.cls-48,.cls-49,.cls-5,.cls-50,.cls-51,.cls-52,.cls-53,.cls-54,.cls-55,.cls-56,.cls-57,.cls-58,.cls-59,.cls-6,.cls-60,.cls-61,.cls-62,.cls-63,.cls-64,.cls-65,.cls-66,.cls-67,.cls-68,.cls-69,.cls-7,.cls-70,.cls-71,.cls-72,.cls-73,.cls-74,.cls-75,.cls-76,.cls-77,.cls-78,.cls-79,.cls-8,.cls-80,.cls-81,.cls-82,.cls-83,.cls-84,.cls-85,.cls-86,.cls-87,.cls-88,.cls-89,.cls-9,.cls-90,.cls-91,.cls-92,.cls-93,.cls-94,.cls-95{opacity:0.73;}.cls-10,.cls-11,.cls-12,.cls-13,.cls-14,.cls-15,.cls-16,.cls-17,.cls-18,.cls-19,.cls-2,.cls-20,.cls-21,.cls-22,.cls-23,.cls-24,.cls-25,.cls-26,.cls-27,.cls-28,.cls-29,.cls-3,.cls-30,.cls-31,.cls-32,.cls-33,.cls-34,.cls-35,.cls-36,.cls-37,.cls-38,.cls-39,.cls-4,.cls-40,.cls-41,.cls-42,.cls-43,.cls-44,.cls-45,.cls-46,.cls-47,.cls-48,.cls-49,.cls-5,.cls-50,.cls-51,.cls-52,.cls-53,.cls-54,.cls-55,.cls-56,.cls-57,.cls-58,.cls-59,.cls-6,.cls-60,.cls-61,.cls-62,.cls-63,.cls-64,.cls-65,.cls-66,.cls-67,.cls-68,.cls-69,.cls-7,.cls-70,.cls-71,.cls-72,.cls-73,.cls-74,.cls-75,.cls-76,.cls-77,.cls-78,.cls-79,.cls-8,.cls-80,.cls-81,.cls-82,.cls-83,.cls-84,.cls-85,.cls-86,.cls-87,.cls-88,.cls-89,.cls-9,.cls-90,.cls-91,.cls-92,.cls-93,.cls-94,.cls-95,.cls-96{mix-blend-mode:multiply;}.cls-2{fill:url(#名称未設定グラデーション_7);}.cls-3{fill:url(#名称未設定グラデーション_7-2);}.cls-4{fill:url(#名称未設定グラデーション_7-3);}.cls-5{fill:url(#名称未設定グラデーション_7-4);}.cls-6{fill:url(#名称未設定グラデーション_7-5);}.cls-7{fill:url(#名称未設定グラデーション_7-6);}.cls-8{fill:url(#名称未設定グラデーション_7-7);}.cls-9{fill:url(#名称未設定グラデーション_7-8);}.cls-10{fill:url(#名称未設定グラデーション_7-9);}.cls-11{fill:url(#名称未設定グラデーション_7-10);}.cls-12{fill:url(#名称未設定グラデーション_7-11);}.cls-13{fill:url(#名称未設定グラデーション_7-12);}.cls-14{fill:url(#名称未設定グラデーション_7-13);}.cls-15{fill:url(#名称未設定グラデーション_7-14);}.cls-16{fill:url(#名称未設定グラデーション_7-15);}.cls-17{fill:url(#名称未設定グラデーション_7-16);}.cls-18{fill:url(#名称未設定グラデーション_7-17);}.cls-19{fill:url(#名称未設定グラデーション_7-18);}.cls-20{fill:url(#名称未設定グラデーション_7-19);}.cls-21{fill:url(#名称未設定グラデーション_7-20);}.cls-22{fill:url(#名称未設定グラデーション_7-21);}.cls-23{fill:url(#名称未設定グラデーション_7-22);}.cls-24{fill:url(#名称未設定グラデーション_7-23);}.cls-25{fill:url(#名称未設定グラデーション_7-24);}.cls-26{fill:url(#名称未設定グラデーション_7-25);}.cls-27{fill:url(#名称未設定グラデーション_7-26);}.cls-28{fill:url(#名称未設定グラデーション_7-27);}.cls-29{fill:url(#名称未設定グラデーション_7-28);}.cls-30{fill:url(#名称未設定グラデーション_7-29);}.cls-31{fill:url(#名称未設定グラデーション_7-30);}.cls-32{fill:url(#名称未設定グラデーション_7-31);}.cls-33{fill:url(#名称未設定グラデーション_7-32);}.cls-34{fill:url(#名称未設定グラデーション_7-33);}.cls-35{fill:url(#名称未設定グラデーション_7-34);}.cls-36{fill:url(#名称未設定グラデーション_7-35);}.cls-37{fill:url(#名称未設定グラデーション_7-36);}.cls-38{fill:url(#名称未設定グラデーション_7-37);}.cls-39{fill:url(#名称未設定グラデーション_7-38);}.cls-40{fill:url(#名称未設定グラデーション_7-39);}.cls-41{fill:url(#名称未設定グラデーション_7-40);}.cls-42{fill:url(#名称未設定グラデーション_7-41);}.cls-43{fill:url(#名称未設定グラデーション_7-42);}.cls-44{fill:url(#名称未設定グラデーション_7-43);}.cls-45{fill:url(#名称未設定グラデーション_7-44);}.cls-46{fill:url(#名称未設定グラデーション_7-45);}.cls-47{fill:url(#名称未設定グラデーション_7-46);}.cls-48{fill:url(#名称未設定グラデーション_7-47);}.cls-49{fill:url(#名称未設定グラデーション_7-48);}.cls-50{fill:url(#名称未設定グラデーション_7-49);}.cls-51{fill:url(#名称未設定グラデーション_7-50);}.cls-52{fill:url(#名称未設定グラデーション_7-51);}.cls-53{fill:url(#名称未設定グラデーション_7-52);}.cls-54{fill:url(#名称未設定グラデーション_7-53);}.cls-55{fill:url(#名称未設定グラデーション_7-54);}.cls-56{fill:url(#名称未設定グラデーション_7-55);}.cls-57{fill:url(#名称未設定グラデーション_7-56);}.cls-58{fill:url(#名称未設定グラデーション_7-57);}.cls-59{fill:url(#名称未設定グラデーション_7-58);}.cls-60{fill:url(#名称未設定グラデーション_7-59);}.cls-61{fill:url(#名称未設定グラデーション_7-60);}.cls-62{fill:url(#名称未設定グラデーション_7-61);}.cls-63{fill:url(#名称未設定グラデーション_7-62);}.cls-64{fill:url(#名称未設定グラデーション_7-63);}.cls-65{fill:url(#名称未設定グラデーション_7-64);}.cls-66{fill:url(#名称未設定グラデーション_7-65);}.cls-67{fill:url(#名称未設定グラデーション_7-66);}.cls-68{fill:url(#名称未設定グラデーション_7-67);}.cls-69{fill:url(#名称未設定グラデーション_7-68);}.cls-70{fill:url(#名称未設定グラデーション_7-69);}.cls-71{fill:url(#名称未設定グラデーション_7-70);}.cls-72{fill:url(#名称未設定グラデーション_7-71);}.cls-73{fill:url(#名称未設定グラデーション_7-72);}.cls-74{fill:url(#名称未設定グラデーション_7-73);}.cls-75{fill:url(#名称未設定グラデーション_7-74);}.cls-76{fill:url(#名称未設定グラデーション_7-75);}.cls-77{fill:url(#名称未設定グラデーション_7-76);}.cls-78{fill:url(#名称未設定グラデーション_7-77);}.cls-79{fill:url(#名称未設定グラデーション_7-78);}.cls-80{fill:url(#名称未設定グラデーション_7-79);}.cls-81{fill:url(#名称未設定グラデーション_7-80);}.cls-82{fill:url(#名称未設定グラデーション_7-81);}.cls-83{fill:url(#名称未設定グラデーション_7-82);}.cls-84{fill:url(#名称未設定グラデーション_7-83);}.cls-85{fill:url(#名称未設定グラデーション_7-84);}.cls-86{fill:url(#名称未設定グラデーション_7-85);}.cls-87{fill:url(#名称未設定グラデーション_7-86);}.cls-88{fill:url(#名称未設定グラデーション_7-87);}.cls-89{fill:url(#名称未設定グラデーション_7-88);}.cls-90{fill:url(#名称未設定グラデーション_7-89);}.cls-91{fill:url(#名称未設定グラデーション_7-90);}.cls-92{fill:url(#名称未設定グラデーション_7-91);}.cls-93{fill:url(#名称未設定グラデーション_7-92);}.cls-94{fill:url(#名称未設定グラデーション_7-93);}.cls-95{fill:url(#名称未設定グラデーション_7-94);}.cls-96{fill:#cc902c;opacity:0.55;}</style><linearGradient id="名称未設定グラデーション_7" x1="593.03" y1="440.18" x2="211.62" y2="30.15" gradientUnits="userSpaceOnUse"><stop offset="0" stop-color="#fff"/><stop offset="1" stop-color="#c69c6d"/></linearGradient><linearGradient id="名称未設定グラデーション_7-2" x1="594.53" y1="438.78" x2="213.11" y2="28.76" xlink:href="#名称未設定グラデーション_7"/><linearGradient id="名称未設定グラデーション_7-3" x1="591.56" y1="441.55" x2="210.14" y2="31.52" xlink:href="#名称未設定グラデーション_7"/><linearGradient id="名称未設定グラデーション_7-4" x1="589.03" y1="443.9" x2="207.61" y2="33.87" xlink:href="#名称未設定グラデーション_7"/><linearGradient id="名称未設定グラデーション_7-5" x1="590.07" y1="442.94" x2="208.65" y2="32.91" xlink:href="#名称未設定グラデーション_7"/><linearGradient id="名称未設定グラデーション_7-6" x1="575.21" y1="456.76" x2="193.79" y2="46.73" xlink:href="#名称未設定グラデーション_7"/><linearGradient id="名称未設定グラデーション_7-7" x1="576.7" y1="455.37" x2="195.28" y2="45.34" xlink:href="#名称未設定グラデーション_7"/><linearGradient id="名称未設定グラデーション_7-8" x1="573.73" y1="458.14" x2="192.31" y2="48.11" xlink:href="#名称未設定グラデーション_7"/><linearGradient id="名称未設定グラデーション_7-9" x1="570.75" y1="460.91" x2="189.33" y2="50.88" xlink:href="#名称未設定グラデーション_7"/><linearGradient id="名称未設定グラデーション_7-10" x1="578.18" y1="453.99" x2="196.76" y2="43.96" xlink:href="#名称未設定グラデーション_7"/><linearGradient id="名称未設定グラデーション_7-11" x1="567.77" y1="463.68" x2="186.35" y2="53.65" xlink:href="#名称未設定グラデーション_7"/><linearGradient id="名称未設定グラデーション_7-12" x1="569.26" y1="462.29" x2="187.84" y2="52.26" xlink:href="#名称未設定グラデーション_7"/><linearGradient id="名称未設定グラデーション_7-13" x1="572.23" y1="459.53" x2="190.82" y2="49.5" xlink:href="#名称未設定グラデーション_7"/><linearGradient id="名称未設定グラデーション_7-14" x1="564.05" y1="461.35" x2="182.63" y2="51.32" xlink:href="#名称未設定グラデーション_7"/><linearGradient id="名称未設定グラデーション_7-15" x1="585.61" y1="447.08" x2="204.19" y2="37.05" xlink:href="#名称未設定グラデーション_7"/><linearGradient id="名称未設定グラデーション_7-16" x1="584.13" y1="448.46" x2="202.72" y2="38.43" xlink:href="#名称未設定グラデーション_7"/><linearGradient id="名称未設定グラデーション_7-17" x1="587.05" y1="445.74" x2="205.63" y2="35.71" xlink:href="#名称未設定グラデーション_7"/><linearGradient id="名称未設定グラデーション_7-18" x1="582.64" y1="449.85" x2="201.22" y2="39.82" xlink:href="#名称未設定グラデーション_7"/><linearGradient id="名称未設定グラデーション_7-19" x1="581.16" y1="451.22" x2="199.74" y2="41.2" xlink:href="#名称未設定グラデーション_7"/><linearGradient id="名称未設定グラデーション_7-20" x1="579.67" y1="452.61" x2="198.25" y2="42.58" xlink:href="#名称未設定グラデーション_7"/><linearGradient id="名称未設定グラデーション_7-21" x1="369.56" y1="648.06" x2="-11.86" y2="238.03" xlink:href="#名称未設定グラデーション_7"/><linearGradient id="名称未設定グラデーション_7-22" x1="366.57" y1="650.84" x2="-14.85" y2="240.81" xlink:href="#名称未設定グラデーション_7"/><linearGradient id="名称未設定グラデーション_7-23" x1="368.07" y1="649.45" x2="-13.35" y2="239.42" xlink:href="#名称未設定グラデーション_7"/><linearGradient id="名称未設定グラデーション_7-24" x1="418.86" y1="602.2" x2="37.44" y2="192.17" xlink:href="#名称未設定グラデーション_7"/><linearGradient id="名称未設定グラデーション_7-25" x1="424.8" y1="596.67" x2="43.38" y2="186.65" xlink:href="#名称未設定グラデーション_7"/><linearGradient id="名称未設定グラデーション_7-26" x1="432.23" y1="589.76" x2="50.81" y2="179.73" xlink:href="#名称未設定グラデーション_7"/><linearGradient id="名称未設定グラデーション_7-27" x1="429.25" y1="592.53" x2="47.84" y2="182.5" xlink:href="#名称未設定グラデーション_7"/><linearGradient id="名称未設定グラデーション_7-28" x1="430.74" y1="591.14" x2="49.33" y2="181.11" xlink:href="#名称未設定グラデーション_7"/><linearGradient id="名称未設定グラデーション_7-29" x1="434.8" y1="587.37" x2="53.38" y2="177.34" xlink:href="#名称未設定グラデーション_7"/><linearGradient id="名称未設定グラデーション_7-30" x1="433.72" y1="588.38" x2="52.3" y2="178.35" xlink:href="#名称未設定グラデーション_7"/><linearGradient id="名称未設定グラデーション_7-31" x1="421.83" y1="599.43" x2="40.41" y2="189.4" xlink:href="#名称未設定グラデーション_7"/><linearGradient id="名称未設定グラデーション_7-32" x1="420.34" y1="600.82" x2="38.93" y2="190.79" xlink:href="#名称未設定グラデーション_7"/><linearGradient id="名称未設定グラデーション_7-33" x1="427.77" y1="593.91" x2="46.35" y2="183.88" xlink:href="#名称未設定グラデーション_7"/><linearGradient id="名称未設定グラデーション_7-34" x1="423.31" y1="598.05" x2="41.9" y2="188.03" xlink:href="#名称未設定グラデーション_7"/><linearGradient id="名称未設定グラデーション_7-35" x1="426.29" y1="595.29" x2="44.87" y2="185.26" xlink:href="#名称未設定グラデーション_7"/><linearGradient id="名称未設定グラデーション_7-36" x1="529.05" y1="499.69" x2="147.63" y2="89.67" xlink:href="#名称未設定グラデーション_7"/><linearGradient id="名称未設定グラデーション_7-37" x1="527.56" y1="501.08" x2="146.15" y2="91.05" xlink:href="#名称未設定グラデーション_7"/><linearGradient id="名称未設定グラデーション_7-38" x1="526.07" y1="502.47" x2="144.65" y2="92.44" xlink:href="#名称未設定グラデーション_7"/><linearGradient id="名称未設定グラデーション_7-39" x1="534.82" y1="494.33" x2="153.41" y2="84.3" xlink:href="#名称未設定グラデーション_7"/><linearGradient id="名称未設定グラデーション_7-40" x1="533.52" y1="495.54" x2="152.1" y2="85.51" xlink:href="#名称未設定グラデーション_7"/><linearGradient id="名称未設定グラデーション_7-41" x1="532.03" y1="496.92" x2="150.62" y2="86.89" xlink:href="#名称未設定グラデーション_7"/><linearGradient id="名称未設定グラデーション_7-42" x1="530.54" y1="498.31" x2="149.12" y2="88.28" xlink:href="#名称未設定グラデーション_7"/><linearGradient id="名称未設定グラデーション_7-43" x1="637.86" y1="398.48" x2="256.44" y2="-11.55" xlink:href="#名称未設定グラデーション_7"/><linearGradient id="名称未設定グラデーション_7-44" x1="616.92" y1="417.96" x2="235.5" y2="7.93" xlink:href="#名称未設定グラデーション_7"/><linearGradient id="名称未設定グラデーション_7-45" x1="618.41" y1="416.57" x2="236.99" y2="6.54" xlink:href="#名称未設定グラデーション_7"/><linearGradient id="名称未設定グラデーション_7-46" x1="619.91" y1="415.18" x2="238.49" y2="5.15" xlink:href="#名称未設定グラデーション_7"/><linearGradient id="名称未設定グラデーション_7-47" x1="613.92" y1="420.74" x2="232.5" y2="10.72" xlink:href="#名称未設定グラデーション_7"/><linearGradient id="名称未設定グラデーション_7-48" x1="612.43" y1="422.14" x2="231.01" y2="12.11" xlink:href="#名称未設定グラデーション_7"/><linearGradient id="名称未設定グラデーション_7-49" x1="615.42" y1="419.35" x2="234" y2="9.33" xlink:href="#名称未設定グラデーション_7"/><linearGradient id="名称未設定グラデーション_7-50" x1="621.4" y1="413.79" x2="239.99" y2="3.76" xlink:href="#名称未設定グラデーション_7"/><linearGradient id="名称未設定グラデーション_7-51" x1="628.88" y1="406.83" x2="247.47" y2="-3.2" xlink:href="#名称未設定グラデーション_7"/><linearGradient id="名称未設定グラデーション_7-52" x1="610.93" y1="423.53" x2="229.51" y2="13.5" xlink:href="#名称未設定グラデーション_7"/><linearGradient id="名称未設定グラデーション_7-53" x1="627.39" y1="408.22" x2="245.97" y2="-1.81" xlink:href="#名称未設定グラデーション_7"/><linearGradient id="名称未設定グラデーション_7-54" x1="622.9" y1="412.39" x2="241.48" y2="2.37" xlink:href="#名称未設定グラデーション_7"/><linearGradient id="名称未設定グラデーション_7-55" x1="631.88" y1="404.04" x2="250.46" y2="-5.98" xlink:href="#名称未設定グラデーション_7"/><linearGradient id="名称未設定グラデーション_7-56" x1="625.89" y1="409.61" x2="244.47" y2="-0.42" xlink:href="#名称未設定グラデーション_7"/><linearGradient id="名称未設定グラデーション_7-57" x1="624.4" y1="411" x2="242.98" y2="0.98" xlink:href="#名称未設定グラデーション_7"/><linearGradient id="名称未設定グラデーション_7-58" x1="630.38" y1="405.44" x2="248.96" y2="-4.59" xlink:href="#名称未設定グラデーション_7"/><linearGradient id="名称未設定グラデーション_7-59" x1="636.36" y1="399.87" x2="254.95" y2="-10.16" xlink:href="#名称未設定グラデーション_7"/><linearGradient id="名称未設定グラデーション_7-60" x1="643.84" y1="392.91" x2="262.43" y2="-17.12" xlink:href="#名称未設定グラデーション_7"/><linearGradient id="名称未設定グラデーション_7-61" x1="634.87" y1="401.26" x2="253.45" y2="-8.77" xlink:href="#名称未設定グラデーション_7"/><linearGradient id="名称未設定グラデーション_7-62" x1="633.37" y1="402.65" x2="251.95" y2="-7.37" xlink:href="#名称未設定グラデーション_7"/><linearGradient id="名称未設定グラデーション_7-63" x1="642.35" y1="394.3" x2="260.93" y2="-15.72" xlink:href="#名称未設定グラデーション_7"/><linearGradient id="名称未設定グラデーション_7-64" x1="640.85" y1="395.69" x2="259.43" y2="-14.33" xlink:href="#名称未設定グラデーション_7"/><linearGradient id="名称未設定グラデーション_7-65" x1="639.36" y1="397.09" x2="257.94" y2="-12.94" xlink:href="#名称未設定グラデーション_7"/><linearGradient id="名称未設定グラデーション_7-66" x1="607.94" y1="426.31" x2="226.52" y2="16.28" xlink:href="#名称未設定グラデーション_7"/><linearGradient id="名称未設定グラデーション_7-67" x1="606.44" y1="427.7" x2="225.02" y2="17.68" xlink:href="#名称未設定グラデーション_7"/><linearGradient id="名称未設定グラデーション_7-68" x1="609.43" y1="424.92" x2="228.02" y2="14.89" xlink:href="#名称未設定グラデーション_7"/><linearGradient id="名称未設定グラデーション_7-69" x1="605.45" y1="428.63" x2="224.03" y2="18.6" xlink:href="#名称未設定グラデーション_7"/><linearGradient id="名称未設定グラデーション_7-70" x1="442.64" y1="580.08" x2="61.22" y2="170.05" xlink:href="#名称未設定グラデーション_7"/><linearGradient id="名称未設定グラデーション_7-71" x1="439.66" y1="582.84" x2="58.25" y2="172.82" xlink:href="#名称未設定グラデーション_7"/><linearGradient id="名称未設定グラデーション_7-72" x1="441.16" y1="581.45" x2="59.74" y2="171.43" xlink:href="#名称未設定グラデーション_7"/><linearGradient id="名称未設定グラデーション_7-73" x1="448.59" y1="574.54" x2="67.17" y2="164.51" xlink:href="#名称未設定グラデーション_7"/><linearGradient id="名称未設定グラデーション_7-74" x1="445.62" y1="577.31" x2="64.2" y2="167.28" xlink:href="#名称未設定グラデーション_7"/><linearGradient id="名称未設定グラデーション_7-75" x1="450.09" y1="573.15" x2="68.67" y2="163.12" xlink:href="#名称未設定グラデーション_7"/><linearGradient id="名称未設定グラデーション_7-76" x1="444.13" y1="578.69" x2="62.72" y2="168.66" xlink:href="#名称未設定グラデーション_7"/><linearGradient id="名称未設定グラデーション_7-77" x1="435.38" y1="581.04" x2="53.96" y2="171.01" xlink:href="#名称未設定グラデーション_7"/><linearGradient id="名称未設定グラデーション_7-78" x1="447.11" y1="575.92" x2="65.69" y2="165.89" xlink:href="#名称未設定グラデーション_7"/><linearGradient id="名称未設定グラデーション_7-79" x1="503.72" y1="523.26" x2="122.3" y2="113.23" xlink:href="#名称未設定グラデーション_7"/><linearGradient id="名称未設定グラデーション_7-80" x1="500.74" y1="526.03" x2="119.32" y2="116" xlink:href="#名称未設定グラデーション_7"/><linearGradient id="名称未設定グラデーション_7-81" x1="499.24" y1="527.42" x2="117.82" y2="117.4" xlink:href="#名称未設定グラデーション_7"/><linearGradient id="名称未設定グラデーション_7-82" x1="512.66" y1="514.94" x2="131.24" y2="104.91" xlink:href="#名称未設定グラデーション_7"/><linearGradient id="名称未設定グラデーション_7-83" x1="509.68" y1="517.72" x2="128.26" y2="107.69" xlink:href="#名称未設定グラデーション_7"/><linearGradient id="名称未設定グラデーション_7-84" x1="502.22" y1="524.65" x2="120.81" y2="114.62" xlink:href="#名称未設定グラデーション_7"/><linearGradient id="名称未設定グラデーション_7-85" x1="511.17" y1="516.33" x2="129.75" y2="106.3" xlink:href="#名称未設定グラデーション_7"/><linearGradient id="名称未設定グラデーション_7-86" x1="518.62" y1="509.4" x2="137.2" y2="99.37" xlink:href="#名称未設定グラデーション_7"/><linearGradient id="名称未設定グラデーション_7-87" x1="508.19" y1="519.1" x2="126.77" y2="109.07" xlink:href="#名称未設定グラデーション_7"/><linearGradient id="名称未設定グラデーション_7-88" x1="515.64" y1="512.17" x2="134.22" y2="102.14" xlink:href="#名称未設定グラデーション_7"/><linearGradient id="名称未設定グラデーション_7-89" x1="505.21" y1="521.87" x2="123.79" y2="111.85" xlink:href="#名称未設定グラデーション_7"/><linearGradient id="名称未設定グラデーション_7-90" x1="517.13" y1="510.78" x2="135.71" y2="100.75" xlink:href="#名称未設定グラデーション_7"/><linearGradient id="名称未設定グラデーション_7-91" x1="520.11" y1="508.01" x2="138.69" y2="97.99" xlink:href="#名称未設定グラデーション_7"/><linearGradient id="名称未設定グラデーション_7-92" x1="521.39" y1="506.83" x2="139.97" y2="96.8" xlink:href="#名称未設定グラデーション_7"/><linearGradient id="名称未設定グラデーション_7-93" x1="514.15" y1="513.56" x2="132.73" y2="103.53" xlink:href="#名称未設定グラデーション_7"/><linearGradient id="名称未設定グラデーション_7-94" x1="506.7" y1="520.49" x2="125.28" y2="110.46" xlink:href="#名称未設定グラデーション_7"/></defs><title>jupiter</title><g class="cls-1"><g id="レイヤー_2" data-name="レイヤー 2"><path class="cls-2" d="M499.09,105H66.91l-1.65,2H500.74Z" transform="translate(-3 -3)"/><path class="cls-3" d="M496.61,102H69.39c-.56.66-1.1,1.34-1.65,2H498.26C497.71,103.34,497.17,102.66,496.61,102Z" transform="translate(-3 -3)"/><path class="cls-4" d="M501.56,108H64.44c-.53.66-1,1.33-1.57,2H503.13C502.61,109.33,502.09,108.66,501.56,108Z" transform="translate(-3 -3)"/><path class="cls-5" d="M506.24,114H59.76c-.25.34-.52.66-.77,1H507C506.76,114.66,506.49,114.34,506.24,114Z" transform="translate(-3 -3)"/><path class="cls-6" d="M503.91,111H62.09c-.52.66-1,1.33-1.55,2H505.46C505,112.33,504.43,111.66,503.91,111Z" transform="translate(-3 -3)"/><path class="cls-7" d="M524.33,141H41.67c-.4.67-.8,1.33-1.19,2h485C525.13,142.33,524.73,141.67,524.33,141Z" transform="translate(-3 -3)"/><path class="cls-8" d="M522.55,138H43.45c-.41.66-.79,1.33-1.19,2H523.74C523.34,139.33,523,138.66,522.55,138Z" transform="translate(-3 -3)"/><path class="cls-9" d="M526.08,144H39.92c-.38.66-.76,1.33-1.13,2H527.21C526.84,145.33,526.46,144.66,526.08,144Z" transform="translate(-3 -3)"/><path class="cls-10" d="M529.42,150H36.58c-.36.67-.72,1.33-1.07,2h495C530.14,151.33,529.78,150.67,529.42,150Z" transform="translate(-3 -3)"/><path class="cls-11" d="M520.69,135H45.31l-1.24,2H521.93Z" transform="translate(-3 -3)"/><path class="cls-12" d="M532.57,156H33.43c-.34.67-.68,1.33-1,2H533.58C533.25,157.33,532.91,156.67,532.57,156Z" transform="translate(-3 -3)"/><path class="cls-13" d="M531,153H35l-1,2H532.06Z" transform="translate(-3 -3)"/><path class="cls-14" d="M527.77,147H38.23c-.37.67-.75,1.33-1.11,2H528.88C528.52,148.33,528.14,147.67,527.77,147Z" transform="translate(-3 -3)"/><polygon class="cls-15" points="531.09 156 28.91 156 28.91 156 531.09 156 531.09 156"/><path class="cls-16" d="M510.65,120H55.35c-.47.67-1,1.33-1.43,2H512.08C511.6,121.33,511.12,120.67,510.65,120Z" transform="translate(-3 -3)"/><path class="cls-17" d="M512.79,123H53.21c-.46.66-.91,1.33-1.36,2h462.3C513.7,124.33,513.25,123.66,512.79,123Z" transform="translate(-3 -3)"/><path class="cls-18" d="M509.22,118H56.78l-.71,1H509.93Z" transform="translate(-3 -3)"/><path class="cls-19" d="M514.83,126H51.17c-.46.67-.92,1.33-1.36,2H516.19C515.75,127.33,515.29,126.67,514.83,126Z" transform="translate(-3 -3)"/><path class="cls-20" d="M516.85,129H49.15l-1.3,2h470.3Z" transform="translate(-3 -3)"/><path class="cls-21" d="M518.8,132H47.2c-.43.66-.85,1.33-1.27,2H520.07C519.65,133.33,519.23,132.66,518.8,132Z" transform="translate(-3 -3)"/><path class="cls-22" d="M225.19,557H340.81q4.44-.93,8.83-2H216.36Q220.76,556.07,225.19,557Z" transform="translate(-3 -3)"/><path class="cls-23" d="M283,563a281.09,281.09,0,0,0,33.53-2H249.47A281.09,281.09,0,0,0,283,563Z" transform="translate(-3 -3)"/><path class="cls-24" d="M242,560h82q6-.87,11.82-2H230.19Q236.06,559.13,242,560Z" transform="translate(-3 -3)"/><path class="cls-25" d="M64.44,458H501.56c.53-.66,1.05-1.33,1.58-2H62.86C63.39,456.67,63.91,457.34,64.44,458Z" transform="translate(-3 -3)"/><path class="cls-26" d="M55.34,446H510.66c.48-.66.95-1.33,1.42-2H53.92C54.39,444.67,54.86,445.34,55.34,446Z" transform="translate(-3 -3)"/><path class="cls-27" d="M45.3,431H520.7l1.24-2H44.06Z" transform="translate(-3 -3)"/><path class="cls-28" d="M49.14,437H516.86c.44-.66.86-1.33,1.3-2H47.84C48.28,435.67,48.7,436.34,49.14,437Z" transform="translate(-3 -3)"/><path class="cls-29" d="M47.2,434H518.8c.43-.67.86-1.33,1.28-2H45.92C46.34,432.67,46.77,433.33,47.2,434Z" transform="translate(-3 -3)"/><path class="cls-30" d="M41.66,425H524.34l.6-1H41.06Z" transform="translate(-3 -3)"/><path class="cls-31" d="M43.45,428h479.1c.41-.66.8-1.33,1.2-2H42.25C42.65,426.67,43,427.34,43.45,428Z" transform="translate(-3 -3)"/><path class="cls-32" d="M59.77,452H506.23l1.51-2H58.26Z" transform="translate(-3 -3)"/><path class="cls-33" d="M62.08,455H503.92c.52-.66,1-1.33,1.55-2H60.53C61,453.67,61.56,454.34,62.08,455Z" transform="translate(-3 -3)"/><path class="cls-34" d="M51.16,440H514.84l1.35-2H49.81Z" transform="translate(-3 -3)"/><path class="cls-35" d="M57.52,449h451c.49-.66,1-1.33,1.45-2H56.07C56.55,447.67,57,448.34,57.52,449Z" transform="translate(-3 -3)"/><path class="cls-36" d="M53.22,443H512.78l1.39-2H51.83Z" transform="translate(-3 -3)"/><path class="cls-37" d="M558.7,234H7.3c-.12.67-.23,1.33-.35,2h552.1C558.93,235.33,558.82,234.67,558.7,234Z" transform="translate(-3 -3)"/><path class="cls-38" d="M559.22,237H6.78c-.11.66-.21,1.33-.32,2H559.54C559.43,238.33,559.33,237.66,559.22,237Z" transform="translate(-3 -3)"/><path class="cls-39" d="M559.69,240H6.31c-.1.67-.22,1.33-.31,2H560C559.91,241.33,559.79,240.67,559.69,240Z" transform="translate(-3 -3)"/><path class="cls-40" d="M556.53,223H9.47c-.08.33-.14.67-.21,1H556.74C556.67,223.67,556.61,223.33,556.53,223Z" transform="translate(-3 -3)"/><path class="cls-41" d="M557,225H9.05c-.14.67-.29,1.33-.42,2H557.37C557.24,226.33,557.09,225.67,557,225Z" transform="translate(-3 -3)"/><path class="cls-42" d="M557.58,228H8.42c-.13.66-.25,1.33-.38,2H558C557.83,229.33,557.71,228.66,557.58,228Z" transform="translate(-3 -3)"/><path class="cls-43" d="M558.15,231H7.85c-.13.67-.25,1.33-.38,2H558.53C558.4,232.33,558.28,231.67,558.15,231Z" transform="translate(-3 -3)"/><path class="cls-44" d="M364.32,15H201.68q-3.17,1-6.32,2H370.64Q367.49,16,364.32,15Z" transform="translate(-3 -3)"/><path class="cls-45" d="M448.29,57H117.71c-.9.66-1.79,1.33-2.68,2H451C450.08,58.33,449.19,57.66,448.29,57Z" transform="translate(-3 -3)"/><path class="cls-46" d="M444.1,54H121.9l-2.81,2H446.91Z" transform="translate(-3 -3)"/><path class="cls-47" d="M439.75,51H126.25c-1,.66-2,1.32-2.94,2H442.69C441.72,52.32,440.74,51.66,439.75,51Z" transform="translate(-3 -3)"/><path class="cls-48" d="M456.17,63H109.83c-.84.66-1.69,1.33-2.52,2H458.69C457.86,64.33,457,63.66,456.17,63Z" transform="translate(-3 -3)"/><path class="cls-49" d="M459.91,66H106.09l-2.43,2H462.34Z" transform="translate(-3 -3)"/><path class="cls-50" d="M452.31,60H113.69l-2.58,2H454.89Z" transform="translate(-3 -3)"/><path class="cls-51" d="M435.24,48H130.76l-3,2H438.28Z" transform="translate(-3 -3)"/><path class="cls-52" d="M409.18,33H156.82c-1.3.66-2.59,1.32-3.88,2H413.06C411.77,34.32,410.48,33.66,409.18,33Z" transform="translate(-3 -3)"/><path class="cls-53" d="M463.54,69H102.46c-.78.66-1.55,1.33-2.32,2H465.86C465.09,70.33,464.32,69.66,463.54,69Z" transform="translate(-3 -3)"/><path class="cls-54" d="M414.94,36H151.06c-1.23.66-2.45,1.33-3.67,2H418.61C417.39,37.33,416.17,36.66,414.94,36Z" transform="translate(-3 -3)"/><path class="cls-55" d="M430.53,45H135.47l-3.15,2H433.68Z" transform="translate(-3 -3)"/><path class="cls-56" d="M396.56,27H169.44q-2.19,1-4.37,2H400.93Q398.76,28,396.56,27Z" transform="translate(-3 -3)"/><path class="cls-57" d="M420.41,39H145.59c-1.16.66-2.31,1.33-3.46,2H423.87C422.72,40.33,421.57,39.66,420.41,39Z" transform="translate(-3 -3)"/><path class="cls-58" d="M425.6,42H140.4c-1.11.65-2.19,1.33-3.29,2H428.89C427.79,43.33,426.71,42.65,425.6,42Z" transform="translate(-3 -3)"/><path class="cls-59" d="M403.07,30H162.93c-1.38.66-2.75,1.32-4.11,2H407.18C405.82,31.32,404.45,30.66,403.07,30Z" transform="translate(-3 -3)"/><path class="cls-60" d="M373.57,18H192.43c-1.9.65-3.78,1.31-5.66,2H379.23C377.35,19.31,375.47,18.65,373.57,18Z" transform="translate(-3 -3)"/><path class="cls-61" d="M283,3a283,283,0,0,0-33.51,2h67A283,283,0,0,0,283,3Z" transform="translate(-3 -3)"/><path class="cls-62" d="M381.92,21H184.08q-2.58,1-5.13,2h208.1Q384.5,22,381.92,21Z" transform="translate(-3 -3)"/><path class="cls-63" d="M389.55,24H176.45q-2.35,1-4.7,2h222.5Q391.91,25,389.55,24Z" transform="translate(-3 -3)"/><path class="cls-64" d="M324.07,6H241.93c-4,.58-7.87,1.26-11.77,2H335.84C331.94,7.26,328,6.58,324.07,6Z" transform="translate(-3 -3)"/><path class="cls-65" d="M340.82,9H225.18q-4.44.93-8.82,2H349.64Q345.26,9.93,340.82,9Z" transform="translate(-3 -3)"/><path class="cls-66" d="M353.61,12H212.39q-3.66.95-7.27,2H360.88Q357.27,13,353.61,12Z" transform="translate(-3 -3)"/><path class="cls-67" d="M470.39,75H95.61l-2.22,2H472.61Z" transform="translate(-3 -3)"/><path class="cls-68" d="M473.69,78H92.31c-.71.66-1.4,1.33-2.11,2H475.8C475.09,79.33,474.4,78.66,473.69,78Z" transform="translate(-3 -3)"/><path class="cls-69" d="M467,72H99l-2.27,2H469.29Z" transform="translate(-3 -3)"/><path class="cls-70" d="M476.85,81H89.15l-1.06,1H477.91Z" transform="translate(-3 -3)"/><path class="cls-71" d="M33.41,410H532.59c.33-.66.66-1.33,1-2H32.41Z" transform="translate(-3 -3)"/><path class="cls-72" d="M36.56,416H529.44c.36-.66.7-1.33,1.06-2H35.5C35.86,414.67,36.2,415.34,36.56,416Z" transform="translate(-3 -3)"/><path class="cls-73" d="M35,413H531l1.06-2H33.91Z" transform="translate(-3 -3)"/><path class="cls-74" d="M27.66,398H538.34c.3-.66.59-1.33.89-2H26.77C27.07,396.67,27.36,397.34,27.66,398Z" transform="translate(-3 -3)"/><path class="cls-75" d="M30.45,404h505.1c.32-.66.63-1.33.94-2h-507C29.82,402.67,30.13,403.34,30.45,404Z" transform="translate(-3 -3)"/><path class="cls-76" d="M26.33,395H539.67c.29-.67.6-1.33.88-2H25.45C25.73,393.67,26,394.33,26.33,395Z" transform="translate(-3 -3)"/><path class="cls-77" d="M31.91,407H534.09c.33-.67.67-1.33,1-2H30.92C31.24,405.67,31.58,406.33,31.91,407Z" transform="translate(-3 -3)"/><polygon class="cls-78" points="34.09 414 525.91 414 525.91 414 34.09 414 34.09 414"/><path class="cls-79" d="M29,401H537c.31-.67.63-1.33.93-2H28.1C28.4,399.67,28.72,400.33,29,401Z" transform="translate(-3 -3)"/><path class="cls-80" d="M563,285H3c0,.67,0,1.33,0,2H563C563,286.33,563,285.67,563,285Z" transform="translate(-3 -3)"/><path class="cls-81" d="M562.87,291H3.13c0,.67.05,1.33.07,2H562.8C562.82,292.33,562.85,291.67,562.87,291Z" transform="translate(-3 -3)"/><path class="cls-82" d="M562.76,294H3.24c0,.67,0,1.34.07,2H562.69C562.72,295.34,562.73,294.67,562.76,294Z" transform="translate(-3 -3)"/><path class="cls-83" d="M562.54,267H3.46c0,.67-.07,1.33-.1,2H562.64C562.61,268.33,562.58,267.67,562.54,267Z" transform="translate(-3 -3)"/><path class="cls-84" d="M562.81,273H3.19c0,.67,0,1.33-.07,2H562.88C562.86,274.33,562.84,273.67,562.81,273Z" transform="translate(-3 -3)"/><path class="cls-85" d="M562.94,288H3.06c0,.67,0,1.33,0,2H562.9C562.92,289.33,562.92,288.67,562.94,288Z" transform="translate(-3 -3)"/><path class="cls-86" d="M562.69,270H3.31l-.09,2H562.78Z" transform="translate(-3 -3)"/><path class="cls-87" d="M561.59,255H4.41c-.07.67-.13,1.33-.19,2H561.78C561.72,256.33,561.66,255.67,561.59,255Z" transform="translate(-3 -3)"/><path class="cls-88" d="M562.91,276H3.09c0,.67,0,1.33,0,2H563C562.94,277.33,562.92,276.67,562.91,276Z" transform="translate(-3 -3)"/><path class="cls-89" d="M562.13,261H3.87l-.15,2H562.28Z" transform="translate(-3 -3)"/><path class="cls-90" d="M563,283c0-.33,0-.67,0-1H3c0,.33,0,.67,0,1s0,.67,0,1H563C563,283.67,563,283.33,563,283Z" transform="translate(-3 -3)"/><path class="cls-91" d="M561.88,258H4.12c-.06.67-.11,1.33-.17,2h558.1C562,259.33,561.94,258.67,561.88,258Z" transform="translate(-3 -3)"/><path class="cls-92" d="M561.28,252H4.72c-.07.67-.15,1.33-.22,2h557C561.43,253.33,561.35,252.67,561.28,252Z" transform="translate(-3 -3)"/><path class="cls-93" d="M561.05,250H5c0,.33-.08.67-.11,1H561.16C561.13,250.67,561.09,250.33,561.05,250Z" transform="translate(-3 -3)"/><path class="cls-94" d="M562.35,264H3.65c0,.67-.09,1.33-.13,2h559C562.44,265.33,562.39,264.67,562.35,264Z" transform="translate(-3 -3)"/><path class="cls-95" d="M563,279H3c0,.67,0,1.33,0,2H563C563,280.33,563,279.67,563,279Z" transform="translate(-3 -3)"/><path class="cls-96" d="M482.93,87H83.07c-.65.66-1.28,1.33-1.92,2h403.7C484.21,88.33,483.58,87.66,482.93,87Z" transform="translate(-3 -3)"/><path class="cls-96" d="M485.81,90H80.19l-1.9,2H487.71Z" transform="translate(-3 -3)"/><path class="cls-96" d="M488.62,93H77.38c-.62.66-1.22,1.33-1.83,2h414.9C489.84,94.33,489.24,93.66,488.62,93Z" transform="translate(-3 -3)"/><path class="cls-96" d="M477.91,82H88.09c-.34.33-.67.67-1,1H478.91Z" transform="translate(-3 -3)"/><polygon class="cls-96" points="493.62 99 66.39 99 66.39 99 493.62 99 493.62 99"/><path class="cls-96" d="M491.36,96H74.64c-.6.66-1.19,1.33-1.78,2H493.14C492.55,97.33,492,96.66,491.36,96Z" transform="translate(-3 -3)"/><path class="cls-96" d="M479.92,84H86.08c-.67.67-1.35,1.33-2,2H481.93C481.27,85.33,480.59,84.67,479.92,84Z" transform="translate(-3 -3)"/><path class="cls-96" d="M494,99H72l-1.74,2h425.5Z" transform="translate(-3 -3)"/><path class="cls-96" d="M508.48,117h-451l-.74,1H509.22Z" transform="translate(-3 -3)"/><path class="cls-96" d="M507,115H59l-.74,1h449.5Z" transform="translate(-3 -3)"/><path class="cls-96" d="M556.31,222H9.69c-.07.33-.15.67-.22,1H556.53C556.46,222.67,556.38,222.33,556.31,222Z" transform="translate(-3 -3)"/><path class="cls-96" d="M555.63,219H10.37l-.45,2H556.08Z" transform="translate(-3 -3)"/><path class="cls-96" d="M542.21,177H23.79L23,179H543Z" transform="translate(-3 -3)"/><path class="cls-96" d="M554.9,216H11.1c-.17.67-.33,1.33-.49,2H555.39C555.23,217.33,555.07,216.67,554.9,216Z" transform="translate(-3 -3)"/><path class="cls-96" d="M535.55,162H30.45c-.32.66-.63,1.33-.95,2h507C536.18,163.33,535.87,162.66,535.55,162Z" transform="translate(-3 -3)"/><path class="cls-96" d="M544.59,183H21.41l-.75,2H545.34Z" transform="translate(-3 -3)"/><path class="cls-96" d="M534.09,159H31.91c-.33.66-.65,1.33-1,2H535.06C534.74,160.33,534.42,159.66,534.09,159Z" transform="translate(-3 -3)"/><path class="cls-96" d="M537,165H29c-.31.67-.63,1.33-.93,2H537.89C537.59,166.33,537.27,165.67,537,165Z" transform="translate(-3 -3)"/><path class="cls-96" d="M541,174H25c-.28.66-.55,1.33-.83,2H541.8C541.52,175.33,541.25,174.66,541,174Z" transform="translate(-3 -3)"/><path class="cls-96" d="M539.68,171H26.32c-.29.66-.57,1.33-.86,2H540.54C540.25,172.33,540,171.66,539.68,171Z" transform="translate(-3 -3)"/><path class="cls-96" d="M543.42,180H22.58c-.26.67-.53,1.33-.79,2H544.21C544,181.33,543.68,180.67,543.42,180Z" transform="translate(-3 -3)"/><path class="cls-96" d="M538.34,168H27.66l-.9,2H539.24Z" transform="translate(-3 -3)"/><path class="cls-96" d="M545.72,186H20.28l-.72,2H546.44Z" transform="translate(-3 -3)"/><path class="cls-96" d="M546.8,189H19.2l-.71,2h529Z" transform="translate(-3 -3)"/><path class="cls-96" d="M552.54,207H13.46c-.18.67-.36,1.33-.55,2H553.09C552.9,208.33,552.72,207.67,552.54,207Z" transform="translate(-3 -3)"/><path class="cls-96" d="M553.36,210H12.64l-.53,2H553.89Z" transform="translate(-3 -3)"/><path class="cls-96" d="M554.15,213H11.85l-.51,2H554.66Z" transform="translate(-3 -3)"/><path class="cls-96" d="M551.67,204H14.33c-.2.67-.39,1.33-.58,2h538.5C552.06,205.33,551.87,204.67,551.67,204Z" transform="translate(-3 -3)"/><path class="cls-96" d="M549.84,198H16.16c-.21.66-.42,1.33-.62,2H550.46C550.26,199.33,550.05,198.66,549.84,198Z" transform="translate(-3 -3)"/><path class="cls-96" d="M547.85,192H18.15l-.69,2H548.54Z" transform="translate(-3 -3)"/><path class="cls-96" d="M548.86,195H17.14l-.66,2h533Z" transform="translate(-3 -3)"/><path class="cls-96" d="M550.77,201H15.23c-.21.67-.41,1.33-.61,2H551.38C551.18,202.33,551,201.67,550.77,201Z" transform="translate(-3 -3)"/><path class="cls-96" d="M560.93,249H5.07c0,.33-.09.67-.12,1h556.1C561,249.67,561,249.33,560.93,249Z" transform="translate(-3 -3)"/><path class="cls-96" d="M560.56,246H5.44c-.09.67-.16,1.33-.25,2H560.81C560.72,247.33,560.65,246.67,560.56,246Z" transform="translate(-3 -3)"/><path class="cls-96" d="M560.14,243H5.86c-.1.67-.19,1.33-.28,2H560.42C560.33,244.33,560.24,243.67,560.14,243Z" transform="translate(-3 -3)"/><path class="cls-96" d="M560,324H6l.3,2H559.69Z" transform="translate(-3 -3)"/><path class="cls-96" d="M560.42,321H5.58c.09.67.19,1.33.28,2H560.14C560.23,322.33,560.33,321.67,560.42,321Z" transform="translate(-3 -3)"/><path class="cls-96" d="M558,336H8l.39,2H557.57Z" transform="translate(-3 -3)"/><path class="cls-96" d="M561.18,315H4.82c.08.67.17,1.33.25,2H560.93C561,316.33,561.1,315.67,561.18,315Z" transform="translate(-3 -3)"/><path class="cls-96" d="M561.48,312H4.52c.06.67.13,1.33.2,2H561.28C561.35,313.33,561.42,312.67,561.48,312Z" transform="translate(-3 -3)"/><path class="cls-96" d="M559.54,327H6.46c.1.67.22,1.33.33,2H559.21C559.32,328.33,559.44,327.67,559.54,327Z" transform="translate(-3 -3)"/><path class="cls-96" d="M558.53,333H7.47c.12.67.25,1.33.37,2H558.16C558.28,334.33,558.41,333.67,558.53,333Z" transform="translate(-3 -3)"/><path class="cls-96" d="M559,330H7c.11.67.22,1.33.34,2H558.7C558.82,331.33,558.93,330.67,559,330Z" transform="translate(-3 -3)"/><path class="cls-96" d="M560.8,318H5.2c.08.67.16,1.33.25,2h555.1C560.64,319.33,560.72,318.67,560.8,318Z" transform="translate(-3 -3)"/><rect class="cls-96" x="22.45" y="390" width="515.11"/><path class="cls-96" d="M25,392H541c.28-.66.55-1.33.83-2H24.2C24.48,390.67,24.75,391.34,25,392Z" transform="translate(-3 -3)"/><path class="cls-96" d="M561.79,309H4.21c.06.67.14,1.33.2,2H561.59C561.65,310.33,561.73,309.67,561.79,309Z" transform="translate(-3 -3)"/><path class="cls-96" d="M562.63,297H3.37c0,.67.07,1.33.11,2h559C562.56,298.33,562.6,297.67,562.63,297Z" transform="translate(-3 -3)"/><path class="cls-96" d="M562.46,300H3.54c0,.67.07,1.34.11,2h558.7C562.39,301.34,562.42,300.67,562.46,300Z" transform="translate(-3 -3)"/><path class="cls-96" d="M562,306H4c.06.67.1,1.33.16,2H561.88C561.94,307.33,562,306.67,562,306Z" transform="translate(-3 -3)"/><path class="cls-96" d="M562.28,303H3.72c0,.67.11,1.33.16,2H562.12C562.17,304.33,562.23,303.67,562.28,303Z" transform="translate(-3 -3)"/><path class="cls-96" d="M21.8,384c.26.67.51,1.34.78,2H543.42c.27-.66.52-1.33.78-2Z" transform="translate(-3 -3)"/><path class="cls-96" d="M549.52,369h-533c.21.67.43,1.33.65,2H548.87C549.09,370.33,549.31,369.67,549.52,369Z" transform="translate(-3 -3)"/><path class="cls-96" d="M548.53,372H17.47c.22.67.45,1.33.68,2h529.7C548.08,373.33,548.31,372.67,548.53,372Z" transform="translate(-3 -3)"/><path class="cls-96" d="M550.47,366H15.53l.63,2H549.84Z" transform="translate(-3 -3)"/><path class="cls-96" d="M551.38,363H14.62l.6,2H550.78Z" transform="translate(-3 -3)"/><path class="cls-96" d="M557.38,339H8.62L9,341H557Z" transform="translate(-3 -3)"/><path class="cls-96" d="M547.51,375h-529c.23.67.47,1.33.7,2H546.81C547,376.33,547.28,375.67,547.51,375Z" transform="translate(-3 -3)"/><path class="cls-96" d="M546.44,378H19.56l.72,2H545.72Z" transform="translate(-3 -3)"/><path class="cls-96" d="M23.79,389H542.21c.28-.67.56-1.33.82-2H23C23.23,387.67,23.51,388.33,23.79,389Z" transform="translate(-3 -3)"/><path class="cls-96" d="M556.09,345H9.91c.15.67.3,1.33.46,2H555.63C555.79,346.33,555.94,345.67,556.09,345Z" transform="translate(-3 -3)"/><path class="cls-96" d="M556.74,342H9.26c.14.67.29,1.33.43,2H556.31C556.45,343.33,556.6,342.67,556.74,342Z" transform="translate(-3 -3)"/><path class="cls-96" d="M555.39,348H10.61c.16.67.32,1.33.49,2H554.9C555.07,349.33,555.23,348.67,555.39,348Z" transform="translate(-3 -3)"/><path class="cls-96" d="M553.09,357H12.91c.18.67.36,1.33.55,2H552.54C552.73,358.33,552.91,357.67,553.09,357Z" transform="translate(-3 -3)"/><path class="cls-96" d="M552.25,360H13.75c.19.67.38,1.33.58,2H551.67C551.87,361.33,552.06,360.67,552.25,360Z" transform="translate(-3 -3)"/><path class="cls-96" d="M554.66,351H11.34c.16.67.33,1.33.5,2H554.16C554.33,352.33,554.5,351.67,554.66,351Z" transform="translate(-3 -3)"/><path class="cls-96" d="M553.89,354H12.11c.17.67.35,1.33.53,2H553.36C553.54,355.33,553.72,354.67,553.89,354Z" transform="translate(-3 -3)"/><path class="cls-96" d="M545.35,381H20.65c.25.67.51,1.33.76,2H544.59C544.84,382.33,545.1,381.67,545.35,381Z" transform="translate(-3 -3)"/><path class="cls-96" d="M41.06,424H524.94c.19-.33.38-.67.58-1h-485C40.68,423.33,40.87,423.67,41.06,424Z" transform="translate(-3 -3)"/><path class="cls-96" d="M38.21,419H527.79l1.12-2H37.09Z" transform="translate(-3 -3)"/><path class="cls-96" d="M39.91,422H526.09l1.15-2H38.76Z" transform="translate(-3 -3)"/><path class="cls-96" d="M109.83,503H456.17l2.51-2H107.32Z" transform="translate(-3 -3)"/><path class="cls-96" d="M77.37,473H488.63c.61-.67,1.24-1.33,1.85-2h-415C76.13,471.67,76.76,472.33,77.37,473Z" transform="translate(-3 -3)"/><path class="cls-96" d="M106.09,500H459.91c.81-.66,1.63-1.33,2.43-2H103.66C104.46,498.67,105.28,499.34,106.09,500Z" transform="translate(-3 -3)"/><path class="cls-96" d="M113.69,506H452.31c.87-.66,1.72-1.33,2.58-2H111.11C112,504.67,112.82,505.34,113.69,506Z" transform="translate(-3 -3)"/><path class="cls-96" d="M176.5,542h213q2.38-1,4.75-2H171.75Q174.12,541,176.5,542Z" transform="translate(-3 -3)"/><path class="cls-96" d="M117.7,509H448.3c.9-.66,1.78-1.33,2.67-2H115C115.92,507.67,116.8,508.34,117.7,509Z" transform="translate(-3 -3)"/><path class="cls-96" d="M184.1,545H381.9q2.58-1,5.14-2H179Q181.52,544,184.1,545Z" transform="translate(-3 -3)"/><path class="cls-96" d="M89.15,485h387.7l2.08-2H87.07Z" transform="translate(-3 -3)"/><path class="cls-96" d="M83.07,479H482.93c.65-.66,1.28-1.33,1.92-2H81.15C81.79,477.67,82.42,478.34,83.07,479Z" transform="translate(-3 -3)"/><path class="cls-96" d="M95.58,491H470.42c.73-.66,1.45-1.33,2.17-2H93.41C94.13,489.67,94.85,490.34,95.58,491Z" transform="translate(-3 -3)"/><path class="cls-96" d="M99,494H467l2.27-2H96.71Z" transform="translate(-3 -3)"/><path class="cls-96" d="M156.82,533H409.18c1.29-.65,2.58-1.33,3.86-2H153C154.24,531.67,155.53,532.35,156.82,533Z" transform="translate(-3 -3)"/><path class="cls-96" d="M102.48,497h361l2.36-2H100.12Z" transform="translate(-3 -3)"/><path class="cls-96" d="M72,467H494c.58-.66,1.14-1.33,1.71-2H70.26C70.83,465.67,71.39,466.34,72,467Z" transform="translate(-3 -3)"/><path class="cls-96" d="M66.89,461H499.11c.55-.66,1.09-1.33,1.63-2H65.26C65.8,459.67,66.34,460.34,66.89,461Z" transform="translate(-3 -3)"/><path class="cls-96" d="M163,536H403q2.07-1,4.11-2H158.85Q160.89,535,163,536Z" transform="translate(-3 -3)"/><path class="cls-96" d="M140.43,524H425.57c1.12-.66,2.23-1.32,3.33-2H137.1C138.2,522.68,139.31,523.34,140.43,524Z" transform="translate(-3 -3)"/><path class="cls-96" d="M145.61,527H420.39c1.17-.66,2.33-1.32,3.49-2H142.12C143.28,525.68,144.44,526.34,145.61,527Z" transform="translate(-3 -3)"/><path class="cls-96" d="M151.06,530H414.94l3.66-2H147.4Z" transform="translate(-3 -3)"/><path class="cls-96" d="M135.49,521h295c1.07-.66,2.13-1.33,3.19-2H132.3C133.36,519.67,134.42,520.34,135.49,521Z" transform="translate(-3 -3)"/><path class="cls-96" d="M192.45,548h181.1c1.89-.65,3.78-1.31,5.65-2H186.8C188.67,546.69,190.56,547.35,192.45,548Z" transform="translate(-3 -3)"/><path class="cls-96" d="M74.64,470H491.36c.6-.66,1.19-1.33,1.78-2H72.86C73.45,468.67,74,469.34,74.64,470Z" transform="translate(-3 -3)"/><path class="cls-96" d="M130.76,518H435.24c1-.66,2-1.33,3-2H127.72C128.73,516.67,129.74,517.34,130.76,518Z" transform="translate(-3 -3)"/><path class="cls-96" d="M69.4,464H496.6l1.69-2H67.71Z" transform="translate(-3 -3)"/><path class="cls-96" d="M126.23,515H439.77l2.91-2H123.32Z" transform="translate(-3 -3)"/><path class="cls-96" d="M121.88,512H444.12l2.78-2H119.1Z" transform="translate(-3 -3)"/><path class="cls-96" d="M169.5,539h227q2.22-1,4.41-2H165.09Q167.28,538,169.5,539Z" transform="translate(-3 -3)"/><path class="cls-96" d="M80.18,476H485.82c.63-.66,1.26-1.33,1.88-2H78.3C78.92,474.67,79.55,475.34,80.18,476Z" transform="translate(-3 -3)"/><path class="cls-96" d="M212.45,554h141.1c2.46-.64,4.91-1.3,7.34-2H205.11C207.54,552.7,210,553.36,212.45,554Z" transform="translate(-3 -3)"/><path class="cls-96" d="M86.07,482H479.93l2-2H84.06Z" transform="translate(-3 -3)"/><path class="cls-96" d="M201.78,551H364.22q3.19-1,6.34-2H195.44Q198.59,550,201.78,551Z" transform="translate(-3 -3)"/><polygon class="cls-96" points="213.36 552 346.64 552 346.64 552 213.36 552 213.36 552"/><path class="cls-96" d="M92.32,488H473.68l2.12-2H90.2Z" transform="translate(-3 -3)"/></g></g></svg>