<svg id="レイヤー_1" data-name="レイヤー 1" xmlns="http://www.w3.org/2000/svg" xmlns:xlink="http://www.w3.org/1999/xlink" width="157.99" height="158" viewBox="0 0 157.99 158"><defs><style>.cls-1{fill:url(#名称未設定グラデーション_5);}.cls-2{fill:url(#名称未設定グラデーション_5-2);}.cls-3{fill:url(#名称未設定グラデーション_5-3);}.cls-4{fill:url(#名称未設定グラデーション_5-4);}.cls-5{fill:url(#名称未設定グラデーション_5-5);}.cls-6{fill:url(#名称未設定グラデーション_5-6);}.cls-7{fill:url(#名称未設定グラデーション_5-7);}.cls-8{fill:url(#名称未設定グラデーション_5-8);}.cls-9{fill:url(#名称未設定グラデーション_5-9);}.cls-10{fill:url(#名称未設定グラデーション_5-10);}.cls-11{fill:url(#名称未設定グラデーション_5-11);}.cls-12{fill:url(#名称未設定グラデーション_5-12);}.cls-13{fill:url(#名称未設定グラデーション_5-13);}.cls-14{fill:url(#名称未設定グラデーション_5-14);}.cls-15{fill:url(#名称未設定グラデーション_5-15);}.cls-16{fill:url(#名称未設定グラデーション_5-16);}.cls-17{fill:url(#名称未設定グラデーション_5-17);}.cls-18{fill:url(#名称未設定グラデーション_5-18);}.cls-19{fill:url(#名称未設定グラデーション_5-19);}.cls-20{fill:url(#名称未設定グラデーション_5-20);}.cls-21{fill:url(#名称未設定グラデーション_5-21);}.cls-22{fill:url(#名称未設定グラデーション_5-22);}.cls-23{fill:url(#名称未設定グラデーション_5-23);}.cls-24{fill:url(#名称未設定グラデーション_5-24);}.cls-25{fill:url(#名称未設定グラデーション_5-25);}.cls-26{fill:url(#名称未設定グラデーション_5-26);}.cls-27{fill:url(#名称未設定グラデーション_5-27);}.cls-28{fill:url(#名称未設定グラデーション_5-28);}.cls-29{fill:url(#名称未設定グラデーション_5-29);}.cls-30{fill:url(#名称未設定グラデーション_5-30);}.cls-31{fill:url(#名称未設定グラデーション_5-31);}.cls-32{fill:url(#名称未設定グラデーション_5-32);}.cls-33{fill:url(#名称未設定グラデーション_5-33);}.cls-34{fill:url(#名称未設定グラデーション_5-34);}.cls-35{fill:url(#名称未設定グラデーション_5-35);}.cls-36{fill:url(#名称未設定グラデーション_5-36);}.cls-37{fill:url(#名称未設定グラデーション_5-37);}.cls-38{fill:url(#名称未設定グラデーション_5-38);}.cls-39{fill:url(#名称未設定グラデーション_5-39);}.cls-40{fill:url(#名称未設定グラデーション_5-40);}.cls-41{fill:url(#名称未設定グラデーション_5-41);}.cls-42{fill:url(#名称未設定グラデーション_5-42);}.cls-43{fill:url(#名称未設定グラデーション_5-43);}.cls-44{fill:url(#名称未設定グラデーション_5-44);}.cls-45{fill:url(#名称未設定グラデーション_5-45);}.cls-46{fill:url(#名称未設定グラデーション_5-46);}.cls-47{fill:url(#名称未設定グラデーション_5-47);}.cls-48{fill:url(#名称未設定グラデーション_5-48);}.cls-49{fill:url(#名称未設定グラデーション_5-49);}.cls-50{fill:url(#名称未設定グラデーション_5-50);}.cls-51{fill:url(#名称未設定グラデーション_5-51);}.cls-52{fill:url(#名称未設定グラデーション_5-52);}.cls-53{fill:url(#名称未設定グラデーション_5-53);}.cls-54{fill:url(#名称未設定グラデーション_5-54);}</style><linearGradient id="名称未設定グラデーション_5" x1="109.68" y1="221.96" x2="246.15" y2="142.29" gradientUnits="userSpaceOnUse"><stop offset="0" stop-color="#fff"/><stop offset="0.74" stop-color="#ed0000"/></linearGradient><linearGradient id="名称未設定グラデーション_5-2" x1="91.88" y1="191.47" x2="228.35" y2="111.8" xlink:href="#名称未設定グラデーション_5"/><linearGradient id="名称未設定グラデーション_5-3" x1="69.92" y1="153.86" x2="206.4" y2="74.19" xlink:href="#名称未設定グラデーション_5"/><linearGradient id="名称未設定グラデーション_5-4" x1="110.7" y1="223.71" x2="247.17" y2="144.05" xlink:href="#名称未設定グラデーション_5"/><linearGradient id="名称未設定グラデーション_5-5" x1="70.96" y1="155.64" x2="207.44" y2="75.97" xlink:href="#名称未設定グラデーション_5"/><linearGradient id="名称未設定グラデーション_5-6" x1="90.83" y1="189.68" x2="227.31" y2="110.01" xlink:href="#名称未設定グラデーション_5"/><linearGradient id="名称未設定グラデーション_5-7" x1="89.79" y1="187.89" x2="226.26" y2="108.23" xlink:href="#名称未設定グラデーション_5"/><linearGradient id="名称未設定グラデーション_5-8" x1="68.89" y1="152.09" x2="205.36" y2="72.42" xlink:href="#名称未設定グラデーション_5"/><linearGradient id="名称未設定グラデーション_5-9" x1="66.82" y1="148.54" x2="203.29" y2="68.87" xlink:href="#名称未設定グラデーション_5"/><linearGradient id="名称未設定グラデーション_5-10" x1="95.01" y1="196.83" x2="231.48" y2="117.16" xlink:href="#名称未設定グラデーション_5"/><linearGradient id="名称未設定グラデーション_5-11" x1="107.56" y1="218.33" x2="244.03" y2="138.67" xlink:href="#名称未設定グラデーション_5"/><linearGradient id="名称未設定グラデーション_5-12" x1="65.78" y1="146.77" x2="202.26" y2="67.1" xlink:href="#名称未設定グラデーション_5"/><linearGradient id="名称未設定グラデーション_5-13" x1="67.85" y1="150.31" x2="204.33" y2="70.64" xlink:href="#名称未設定グラデーション_5"/><linearGradient id="名称未設定グラデーション_5-14" x1="93.97" y1="195.05" x2="230.44" y2="115.38" xlink:href="#名称未設定グラデーション_5"/><linearGradient id="名称未設定グラデーション_5-15" x1="78.27" y1="168.17" x2="214.75" y2="88.5" xlink:href="#名称未設定グラデーション_5"/><linearGradient id="名称未設定グラデーション_5-16" x1="92.92" y1="193.26" x2="229.4" y2="113.6" xlink:href="#名称未設定グラデーション_5"/><linearGradient id="名称未設定グラデーション_5-17" x1="96.04" y1="198.61" x2="232.52" y2="118.94" xlink:href="#名称未設定グラデーション_5"/><linearGradient id="名称未設定グラデーション_5-18" x1="82.46" y1="175.34" x2="218.94" y2="95.67" xlink:href="#名称未設定グラデーション_5"/><linearGradient id="名称未設定グラデーション_5-19" x1="81.41" y1="173.54" x2="217.89" y2="93.88" xlink:href="#名称未設定グラデーション_5"/><linearGradient id="名称未設定グラデーション_5-20" x1="76.18" y1="164.58" x2="212.65" y2="84.91" xlink:href="#名称未設定グラデーション_5"/><linearGradient id="名称未設定グラデーション_5-21" x1="75.14" y1="162.79" x2="211.61" y2="83.12" xlink:href="#名称未設定グラデーション_5"/><linearGradient id="名称未設定グラデーション_5-22" x1="88.75" y1="186.1" x2="225.22" y2="106.44" xlink:href="#名称未設定グラデーション_5"/><linearGradient id="名称未設定グラデーション_5-23" x1="83.51" y1="177.13" x2="219.98" y2="97.47" xlink:href="#名称未設定グラデーション_5"/><linearGradient id="名称未設定グラデーション_5-24" x1="79.32" y1="169.96" x2="215.79" y2="90.29" xlink:href="#名称未設定グラデーション_5"/><linearGradient id="名称未設定グラデーション_5-25" x1="80.37" y1="171.75" x2="216.84" y2="92.08" xlink:href="#名称未設定グラデーション_5"/><linearGradient id="名称未設定グラデーション_5-26" x1="77.22" y1="166.37" x2="213.7" y2="86.7" xlink:href="#名称未設定グラデーション_5"/><linearGradient id="名称未設定グラデーション_5-27" x1="87.7" y1="184.31" x2="224.17" y2="104.64" xlink:href="#名称未設定グラデーション_5"/><linearGradient id="名称未設定グラデーション_5-28" x1="73.05" y1="159.22" x2="209.52" y2="79.55" xlink:href="#名称未設定グラデーション_5"/><linearGradient id="名称未設定グラデーション_5-29" x1="84.56" y1="178.93" x2="221.03" y2="99.26" xlink:href="#名称未設定グラデーション_5"/><linearGradient id="名称未設定グラデーション_5-30" x1="72" y1="157.43" x2="208.48" y2="77.76" xlink:href="#名称未設定グラデーション_5"/><linearGradient id="名称未設定グラデーション_5-31" x1="86.65" y1="182.51" x2="223.12" y2="102.85" xlink:href="#名称未設定グラデーション_5"/><linearGradient id="名称未設定グラデーション_5-32" x1="74.1" y1="161.01" x2="210.57" y2="81.34" xlink:href="#名称未設定グラデーション_5"/><linearGradient id="名称未設定グラデーション_5-33" x1="85.6" y1="180.72" x2="222.08" y2="101.05" xlink:href="#名称未設定グラデーション_5"/><linearGradient id="名称未設定グラデーション_5-34" x1="108.62" y1="220.15" x2="245.1" y2="140.49" xlink:href="#名称未設定グラデーション_5"/><linearGradient id="名称未設定グラデーション_5-35" x1="104.37" y1="212.88" x2="240.85" y2="133.21" xlink:href="#名称未設定グラデーション_5"/><linearGradient id="名称未設定グラデーション_5-36" x1="60.53" y1="137.77" x2="197.01" y2="58.1" xlink:href="#名称未設定グラデーション_5"/><linearGradient id="名称未設定グラデーション_5-37" x1="103.31" y1="211.06" x2="239.79" y2="131.39" xlink:href="#名称未設定グラデーション_5"/><linearGradient id="名称未設定グラデーション_5-38" x1="105.44" y1="214.7" x2="241.91" y2="135.03" xlink:href="#名称未設定グラデーション_5"/><linearGradient id="名称未設定グラデーション_5-39" x1="59.47" y1="135.95" x2="195.94" y2="56.28" xlink:href="#名称未設定グラデーション_5"/><linearGradient id="名称未設定グラデーション_5-40" x1="57.35" y1="132.33" x2="193.83" y2="52.66" xlink:href="#名称未設定グラデーション_5"/><linearGradient id="名称未設定グラデーション_5-41" x1="56.31" y1="130.54" x2="192.78" y2="50.87" xlink:href="#名称未設定グラデーション_5"/><linearGradient id="名称未設定グラデーション_5-42" x1="58.41" y1="134.14" x2="194.88" y2="54.47" xlink:href="#名称未設定グラデーション_5"/><linearGradient id="名称未設定グラデーション_5-43" x1="55.27" y1="128.75" x2="191.74" y2="49.09" xlink:href="#名称未設定グラデーション_5"/><linearGradient id="名称未設定グラデーション_5-44" x1="106.5" y1="216.52" x2="242.97" y2="136.85" xlink:href="#名称未設定グラデーション_5"/><linearGradient id="名称未設定グラデーション_5-45" x1="61.59" y1="139.59" x2="198.07" y2="59.92" xlink:href="#名称未設定グラデーション_5"/><linearGradient id="名称未設定グラデーション_5-46" x1="98.12" y1="202.16" x2="234.59" y2="122.49" xlink:href="#名称未設定グラデーション_5"/><linearGradient id="名称未設定グラデーション_5-47" x1="102.25" y1="209.24" x2="238.73" y2="129.58" xlink:href="#名称未設定グラデーション_5"/><linearGradient id="名称未設定グラデーション_5-48" x1="64.75" y1="145" x2="201.23" y2="65.34" xlink:href="#名称未設定グラデーション_5"/><linearGradient id="名称未設定グラデーション_5-49" x1="97.08" y1="200.38" x2="233.56" y2="120.72" xlink:href="#名称未設定グラデーション_5"/><linearGradient id="名称未設定グラデーション_5-50" x1="63.72" y1="143.23" x2="200.19" y2="63.56" xlink:href="#名称未設定グラデーション_5"/><linearGradient id="名称未設定グラデーション_5-51" x1="100.19" y1="205.71" x2="236.67" y2="126.04" xlink:href="#名称未設定グラデーション_5"/><linearGradient id="名称未設定グラデーション_5-52" x1="62.66" y1="141.41" x2="199.13" y2="61.74" xlink:href="#名称未設定グラデーション_5"/><linearGradient id="名称未設定グラデーション_5-53" x1="99.16" y1="203.94" x2="235.63" y2="124.27" xlink:href="#名称未設定グラデーション_5"/><linearGradient id="名称未設定グラデーション_5-54" x1="101.22" y1="207.48" x2="237.7" y2="127.81" xlink:href="#名称未設定グラデーション_5"/></defs><title>mars</title><path class="cls-1" d="M105.74,212.18l32,8.7q2.1.12,4.23.12c1.17,0,2.34,0,3.5-.09L99.05,208.29C101.21,209.69,103.45,211,105.74,212.18Z" transform="translate(-63.01 -63)"/><path class="cls-2" d="M63.23,147.78,207,186.85c.4-.58.79-1.16,1.18-1.75L63.09,145.67C63.13,146.38,63.18,147.08,63.23,147.78Z" transform="translate(-63.01 -63)"/><path class="cls-3" d="M84.18,88.19l134.93,36.66c-.16-.74-.32-1.48-.51-2.21L85.75,86.54C85.22,87.08,84.7,87.64,84.18,88.19Z" transform="translate(-63.01 -63)"/><path class="cls-4" d="M132,220.34l-21.15-5.74A78.46,78.46,0,0,0,132,220.34Z" transform="translate(-63.01 -63)"/><path class="cls-5" d="M82,90.69l137.81,37.45c-.13-.73-.24-1.46-.39-2.18L83.41,89C82.91,89.56,82.43,90.13,82,90.69Z" transform="translate(-63.01 -63)"/><path class="cls-6" d="M63.07,144.63l145.69,39.59c.37-.59.75-1.18,1.1-1.78L63,142.54C63,143.24,63,143.93,63.07,144.63Z" transform="translate(-63.01 -63)"/><path class="cls-7" d="M63,141.51l147.37,40c.34-.6.7-1.19,1-1.8L63.06,139.45C63,140.13,63,140.82,63,141.51Z" transform="translate(-63.01 -63)"/><path class="cls-8" d="M86.57,85.73,218.3,121.52c-.2-.75-.41-1.5-.63-2.24L88.26,84.12C87.69,84.65,87.12,85.18,86.57,85.73Z" transform="translate(-63.01 -63)"/><path class="cls-9" d="M91.86,81l124.3,33.77c-.29-.78-.6-1.55-.91-2.32l-121.43-33C93.16,79.92,92.5,80.42,91.86,81Z" transform="translate(-63.01 -63)"/><path class="cls-10" d="M64.52,157.46,201,194.54c.49-.56,1-1.12,1.45-1.68L64.13,155.28C64.26,156,64.38,156.74,64.52,157.46Z" transform="translate(-63.01 -63)"/><path class="cls-11" d="M90.41,201.8l65.85,17.89c1.45-.26,2.88-.56,4.3-.9L87.17,198.85Q88.75,200.37,90.41,201.8Z" transform="translate(-63.01 -63)"/><path class="cls-12" d="M94.81,78.64l120,32.6c-.34-.8-.71-1.58-1.07-2.36L96.92,77.14C96.21,77.64,95.5,78.13,94.81,78.64Z" transform="translate(-63.01 -63)"/><path class="cls-13" d="M89.12,83.32l128.21,34.83q-.37-1.16-.78-2.28L90.94,81.74C90.33,82.26,89.72,82.78,89.12,83.32Z" transform="translate(-63.01 -63)"/><path class="cls-14" d="M63.94,154.19,203.15,192c.45-.56.89-1.14,1.34-1.71L63.66,152C63.75,152.76,63.83,153.48,63.94,154.19Z" transform="translate(-63.01 -63)"/><path class="cls-15" d="M70.12,109.24l150.47,40.88c.06-.67.1-1.35.15-2L71,107.4C70.67,108,70.4,108.62,70.12,109.24Z" transform="translate(-63.01 -63)"/><path class="cls-16" d="M63.52,151l141.64,38.48c.43-.56.83-1.15,1.25-1.73L63.31,148.84C63.38,149.55,63.44,150.26,63.52,151Z" transform="translate(-63.01 -63)"/><path class="cls-17" d="M65.26,160.77,198.67,197c.53-.55,1.05-1.09,1.57-1.65L64.75,158.56C64.91,159.3,65.08,160,65.26,160.77Z" transform="translate(-63.01 -63)"/><path class="cls-18" d="M66,120.55,218.45,162c.16-.65.31-1.3.46-1.95L66.52,118.62C66.32,119.26,66.15,119.91,66,120.55Z" transform="translate(-63.01 -63)"/><path class="cls-19" d="M66.83,117.67l152.3,41.38c.15-.65.29-1.3.41-2L67.48,115.78C67.25,116.4,67,117,66.83,117.67Z" transform="translate(-63.01 -63)"/><path class="cls-20" d="M72.87,103.77,221,144c0-.66.05-1.33.05-2V142L73.9,102C73.55,102.57,73.2,103.17,72.87,103.77Z" transform="translate(-63.01 -63)"/><path class="cls-21" d="M74.41,101.08,221,140.9c0-.7,0-1.39-.05-2.09L75.54,99.31C75.16,99.9,74.77,100.48,74.41,101.08Z" transform="translate(-63.01 -63)"/><path class="cls-22" d="M63.09,138.42l148.79,40.43c.32-.61.63-1.21.93-1.82L63.22,136.38C63.17,137.06,63.12,137.74,63.09,138.42Z" transform="translate(-63.01 -63)"/><path class="cls-23" d="M65.21,123.45l152.42,41.41c.19-.63.37-1.28.54-1.92L65.7,121.51C65.53,122.15,65.37,122.8,65.21,123.45Z" transform="translate(-63.01 -63)"/><path class="cls-24" d="M68.9,112l151.3,41.11c.1-.67.18-1.34.26-2l-150.76-41C69.43,110.78,69.16,111.4,68.9,112Z" transform="translate(-63.01 -63)"/><path class="cls-25" d="M67.8,114.83l151.92,41.28c.12-.66.25-1.32.35-2L68.54,113C68.29,113.58,68,114.2,67.8,114.83Z" transform="translate(-63.01 -63)"/><path class="cls-26" d="M71.44,106.49l149.38,40.59c0-.68.08-1.36.1-2.05L72.37,104.67C72.05,105.27,71.74,105.88,71.44,106.49Z" transform="translate(-63.01 -63)"/><path class="cls-27" d="M63.3,135.37l150,40.74c.29-.6.56-1.23.84-1.84L63.48,133.34C63.41,134,63.35,134.69,63.3,135.37Z" transform="translate(-63.01 -63)"/><path class="cls-28" d="M77.92,95.82l142.72,38.77c-.06-.71-.15-1.42-.23-2.13L79.2,94.09C78.77,94.66,78.34,95.24,77.92,95.82Z" transform="translate(-63.01 -63)"/><path class="cls-29" d="M64.55,126.38,216.7,167.72c.21-.63.44-1.26.64-1.9L65,124.43C64.84,125.08,64.68,125.72,64.55,126.38Z" transform="translate(-63.01 -63)"/><path class="cls-30" d="M79.87,93.24l140.4,38.14c-.1-.72-.2-1.44-.31-2.15L81.23,91.53C80.76,92.09,80.32,92.67,79.87,93.24Z" transform="translate(-63.01 -63)"/><path class="cls-31" d="M63.61,132.34l150.91,41c.27-.62.52-1.24.77-1.87L63.86,130.34C63.77,131,63.69,131.67,63.61,132.34Z" transform="translate(-63.01 -63)"/><path class="cls-32" d="M76.11,98.43l144.77,39.34c0-.71-.1-1.41-.16-2.12l-143.41-39Q76.7,97.55,76.11,98.43Z" transform="translate(-63.01 -63)"/><path class="cls-33" d="M64,129.34l151.64,41.21c.24-.63.49-1.25.71-1.88l-152-41.3C64.25,128,64.13,128.68,64,129.34Z" transform="translate(-63.01 -63)"/><path class="cls-34" d="M96.5,206.56l52.06,14.15c1.81-.15,3.62-.34,5.39-.61L92.21,203.32C93.6,204.45,95,205.53,96.5,206.56Z" transform="translate(-63.01 -63)"/><path class="cls-35" d="M78.72,189.29l93.95,25.53c1-.41,1.92-.84,2.87-1.29l-98.65-26.8C77.48,187.59,78.09,188.45,78.72,189.29Z" transform="translate(-63.01 -63)"/><path class="cls-36" d="M113.71,68.24l90,24.44c-.73-.91-1.48-1.8-2.25-2.68L117,67.06C115.9,67.43,114.8,67.82,113.71,68.24Z" transform="translate(-63.01 -63)"/><path class="cls-37" d="M76,185.46l100.88,27.41c.89-.44,1.77-.89,2.64-1.36L74.43,183C74.94,183.8,75.49,184.63,76,185.46Z" transform="translate(-63.01 -63)"/><path class="cls-38" d="M81.93,193.28l86,23.35c1.08-.37,2.15-.77,3.21-1.19L79.75,190.61C80.46,191.52,81.18,192.4,81.93,193.28Z" transform="translate(-63.01 -63)"/><path class="cls-39" d="M118.73,66.49l81.51,22.15c-.87-1-1.78-1.9-2.7-2.81L122.48,65.44Q120.59,65.92,118.73,66.49Z" transform="translate(-63.01 -63)"/><path class="cls-40" d="M131.43,63.72l59.28,16.11c-1.45-1.14-2.93-2.25-4.47-3.29L137,63.17C135.14,63.29,133.28,63.48,131.43,63.72Z" transform="translate(-63.01 -63)"/><path class="cls-41" d="M142,63c-.55,0-1.09,0-1.64,0l43.09,11.71a80.52,80.52,0,0,0-7.59-4.14l-26.81-7.28C146.73,63.12,144.38,63,142,63Z" transform="translate(-63.01 -63)"/><path class="cls-42" d="M124.54,65,196,84.38c-1.09-1-2.21-2-3.36-3L129,64.09C127.47,64.34,126,64.63,124.54,65Z" transform="translate(-63.01 -63)"/><path class="cls-43" d="M156.86,64.42l11.77,3.19A78.52,78.52,0,0,0,156.86,64.42Z" transform="translate(-63.01 -63)"/><path class="cls-44" d="M85.71,197.41l76.83,20.88q1.85-.49,3.66-1.08L83.1,194.63C84,195.58,84.82,196.51,85.71,197.41Z" transform="translate(-63.01 -63)"/><path class="cls-45" d="M109.22,70.12l97.41,26.47c-.62-.88-1.25-1.74-1.9-2.59L112.16,68.85C111.17,69.25,110.19,69.68,109.22,70.12Z" transform="translate(-63.01 -63)"/><path class="cls-46" d="M67.24,167.52l126.3,34.32c.61-.52,1.22-1,1.81-1.58l-128.87-35C66.72,166,67,166.77,67.24,167.52Z" transform="translate(-63.01 -63)"/><path class="cls-47" d="M73.72,181.72l107.07,29.09c.82-.46,1.63-.92,2.43-1.41L72.34,179.27C72.78,180.1,73.25,180.91,73.72,181.72Z" transform="translate(-63.01 -63)"/><path class="cls-48" d="M98,76.4l115.2,31.3c-.39-.82-.81-1.61-1.23-2.41L100.25,74.94C99.49,75.42,98.73,75.89,98,76.4Z" transform="translate(-63.01 -63)"/><path class="cls-49" d="M66.16,164.12l130,35.33c.57-.53,1.14-1.06,1.69-1.61l-132.35-36C65.72,162.63,66,163.38,66.16,164.12Z" transform="translate(-63.01 -63)"/><path class="cls-50" d="M101.41,74.22l109.9,29.86c-.45-.83-.93-1.64-1.41-2.46l-106-28.81C103,73.27,102.22,73.74,101.41,74.22Z" transform="translate(-63.01 -63)"/><path class="cls-51" d="M70,174.49l117.66,32c.69-.5,1.39-1,2.07-1.51L69,172.14C69.29,172.93,69.64,173.71,70,174.49Z" transform="translate(-63.01 -63)"/><path class="cls-52" d="M105.14,72.12l104,28.26c-.52-.84-1-1.68-1.6-2.51l-99.75-27.1C106.9,71.2,106,71.66,105.14,72.12Z" transform="translate(-63.01 -63)"/><path class="cls-53" d="M68.51,171l122.19,33.2c.65-.51,1.3-1,1.93-1.55l-125-34C67.9,169.44,68.21,170.21,68.51,171Z" transform="translate(-63.01 -63)"/><path class="cls-54" d="M71.72,178.07l112.63,30.6c.76-.48,1.51-1,2.24-1.46L70.53,175.67C70.91,176.48,71.31,177.28,71.72,178.07Z" transform="translate(-63.01 -63)"/></svg>