<svg id="レイヤー_1" data-name="レイヤー 1" xmlns="http://www.w3.org/2000/svg" xmlns:xlink="http://www.w3.org/1999/xlink" width="268" height="268" viewBox="0 0 268 268"><defs><style>.cls-1{fill:url(#名称未設定グラデーション_10);}</style><linearGradient id="名称未設定グラデーション_10" x1="142" y1="275" x2="142" y2="7" gradientUnits="userSpaceOnUse"><stop offset="0" stop-color="#fff"/><stop offset="1" stop-color="blue"/></linearGradient></defs><title>mercury</title><path class="cls-1" d="M18.06,192H265.94c.28-.67.55-1.33.82-2H17.24C17.51,190.67,17.78,191.33,18.06,192Z" transform="translate(-8 -7)"/><path class="cls-1" d="M19.34,195H264.66c.3-.67.59-1.33.87-2H18.47C18.75,193.67,19,194.33,19.34,195Z" transform="translate(-8 -7)"/><path class="cls-1" d="M20.7,84H263.3l-1-2H21.66Z" transform="translate(-8 -7)"/><path class="cls-1" d="M22.16,201H261.84c.33-.66.67-1.33,1-2H21.17C21.49,199.67,21.83,200.34,22.16,201Z" transform="translate(-8 -7)"/><path class="cls-1" d="M20.7,198H263.3l.93-2H19.77Z" transform="translate(-8 -7)"/><path class="cls-1" d="M23.71,204H260.29c.35-.66.71-1.33,1-2H22.66C23,202.67,23.36,203.34,23.71,204Z" transform="translate(-8 -7)"/><path class="cls-1" d="M22.16,81H261.84c-.34-.67-.68-1.34-1-2H23.19C22.84,79.66,22.5,80.33,22.16,81Z" transform="translate(-8 -7)"/><path class="cls-1" d="M18.06,90H265.94c-.27-.67-.55-1.34-.84-2H18.9C18.61,88.66,18.33,89.33,18.06,90Z" transform="translate(-8 -7)"/><path class="cls-1" d="M14.72,183H269.28c.22-.67.44-1.33.65-2H14.07C14.28,181.67,14.5,182.33,14.72,183Z" transform="translate(-8 -7)"/><path class="cls-1" d="M13.77,180H270.23c.2-.67.4-1.33.59-2H13.18C13.37,178.67,13.57,179.33,13.77,180Z" transform="translate(-8 -7)"/><path class="cls-1" d="M15.75,186h252.5c.23-.67.47-1.33.7-2H15.05C15.28,184.67,15.52,185.33,15.75,186Z" transform="translate(-8 -7)"/><path class="cls-1" d="M16.86,189H267.14c.25-.67.51-1.33.75-2H16.11C16.35,187.67,16.61,188.33,16.86,189Z" transform="translate(-8 -7)"/><path class="cls-1" d="M19.34,87H264.66c-.29-.67-.59-1.34-.9-2H20.24C19.93,85.66,19.63,86.33,19.34,87Z" transform="translate(-8 -7)"/><path class="cls-1" d="M16.86,93H267.14c-.26-.67-.52-1.34-.79-2H17.65C17.38,91.66,17.12,92.33,16.86,93Z" transform="translate(-8 -7)"/><path class="cls-1" d="M37.6,225H246.4c.53-.66,1.06-1.33,1.58-2H36C36.54,223.67,37.07,224.34,37.6,225Z" transform="translate(-8 -7)"/><path class="cls-1" d="M9.21,123H274.79c-.09-.67-.18-1.34-.28-2H9.49C9.39,121.66,9.3,122.33,9.21,123Z" transform="translate(-8 -7)"/><path class="cls-1" d="M29,69H255c-.43-.67-.87-1.34-1.31-2H30.28C29.84,67.66,29.4,68.33,29,69Z" transform="translate(-8 -7)"/><path class="cls-1" d="M30.94,66H253.06c-.45-.67-.92-1.34-1.39-2H32.33C31.86,64.66,31.39,65.33,30.94,66Z" transform="translate(-8 -7)"/><path class="cls-1" d="M27.11,72H256.89c-.41-.67-.82-1.34-1.24-2H28.35C27.93,70.66,27.52,71.33,27.11,72Z" transform="translate(-8 -7)"/><path class="cls-1" d="M45.54,234H238.46c.64-.66,1.27-1.33,1.89-2H43.65C44.27,232.67,44.9,233.34,45.54,234Z" transform="translate(-8 -7)"/><path class="cls-1" d="M40.09,228H243.91c.57-.66,1.13-1.33,1.68-2H38.41C39,226.67,39.52,227.34,40.09,228Z" transform="translate(-8 -7)"/><path class="cls-1" d="M25.36,75H258.64c-.38-.67-.77-1.34-1.16-2h-231C26.13,73.66,25.74,74.33,25.36,75Z" transform="translate(-8 -7)"/><path class="cls-1" d="M29,213H255c.42-.66.84-1.33,1.25-2H27.72C28.13,211.67,28.55,212.34,29,213Z" transform="translate(-8 -7)"/><path class="cls-1" d="M33,219H251c.48-.66.94-1.33,1.41-2H31.63C32.1,217.67,32.56,218.34,33,219Z" transform="translate(-8 -7)"/><path class="cls-1" d="M23.71,78H260.29c-.36-.67-.72-1.34-1.09-2H24.8C24.43,76.66,24.07,77.33,23.71,78Z" transform="translate(-8 -7)"/><path class="cls-1" d="M27.11,210H256.89c.4-.66.79-1.33,1.18-2H25.93C26.32,208.67,26.71,209.34,27.11,210Z" transform="translate(-8 -7)"/><path class="cls-1" d="M25.36,207H258.64l1.12-2H24.24Z" transform="translate(-8 -7)"/><path class="cls-1" d="M30.94,216H253.06c.45-.66.88-1.33,1.32-2H29.62C30.06,214.67,30.49,215.34,30.94,216Z" transform="translate(-8 -7)"/><path class="cls-1" d="M42.72,231H241.28c.6-.66,1.19-1.33,1.77-2H41C41.53,229.67,42.12,230.34,42.72,231Z" transform="translate(-8 -7)"/><path class="cls-1" d="M10.72,114H273.28c-.14-.67-.29-1.33-.44-2H11.16C11,112.67,10.86,113.33,10.72,114Z" transform="translate(-8 -7)"/><path class="cls-1" d="M8,141H276c0-.67,0-1.33,0-2H8C8,139.67,8,140.33,8,141Z" transform="translate(-8 -7)"/><path class="cls-1" d="M12.9,177H271.1c.19-.66.37-1.33.54-2H12.36C12.53,175.67,12.71,176.34,12.9,177Z" transform="translate(-8 -7)"/><path class="cls-1" d="M12.1,108H271.9c-.17-.67-.35-1.33-.53-2H12.63C12.45,106.67,12.27,107.33,12.1,108Z" transform="translate(-8 -7)"/><path class="cls-1" d="M8.14,147H275.86c0-.67.06-1.33.08-2H8.06C8.08,145.67,8.11,146.33,8.14,147Z" transform="translate(-8 -7)"/><path class="cls-1" d="M8,144H276c0-.67,0-1.33,0-2H8C8,142.67,8,143.33,8,144Z" transform="translate(-8 -7)"/><path class="cls-1" d="M11.37,111H272.63c-.16-.67-.32-1.33-.49-2H11.86C11.69,109.67,11.53,110.33,11.37,111Z" transform="translate(-8 -7)"/><path class="cls-1" d="M8.84,126H275.16c-.07-.67-.14-1.34-.23-2H9.07C9,124.66,8.91,125.33,8.84,126Z" transform="translate(-8 -7)"/><path class="cls-1" d="M8.54,129H275.46c-.06-.67-.12-1.34-.19-2H8.73C8.66,127.66,8.6,128.33,8.54,129Z" transform="translate(-8 -7)"/><path class="cls-1" d="M9.64,120H274.36l-.33-2H10Z" transform="translate(-8 -7)"/><path class="cls-1" d="M8.31,132H275.69c0-.67-.09-1.33-.14-2H8.45C8.4,130.67,8.35,131.33,8.31,132Z" transform="translate(-8 -7)"/><path class="cls-1" d="M8.14,135H275.86c0-.67-.07-1.33-.1-2H8.24C8.21,133.67,8.17,134.33,8.14,135Z" transform="translate(-8 -7)"/><path class="cls-1" d="M10.15,117h263.7c-.12-.67-.25-1.33-.38-2H10.53C10.4,115.67,10.27,116.33,10.15,117Z" transform="translate(-8 -7)"/><path class="cls-1" d="M8,138H276c0-.67,0-1.33-.06-2H8.1C8.08,136.67,8.05,137.33,8,138Z" transform="translate(-8 -7)"/><path class="cls-1" d="M10.72,168H273.28c.13-.66.26-1.33.38-2H10.34C10.46,166.67,10.59,167.34,10.72,168Z" transform="translate(-8 -7)"/><path class="cls-1" d="M8.31,150H275.69c.05-.67.09-1.33.13-2H8.18C8.22,148.67,8.26,149.33,8.31,150Z" transform="translate(-8 -7)"/><path class="cls-1" d="M14.72,99H269.28c-.22-.67-.45-1.34-.68-2H15.4C15.17,97.66,14.94,98.33,14.72,99Z" transform="translate(-8 -7)"/><path class="cls-1" d="M11.37,171H272.63c.15-.66.29-1.33.43-2H10.94C11.08,169.67,11.22,170.34,11.37,171Z" transform="translate(-8 -7)"/><path class="cls-1" d="M12.1,174H271.9c.17-.66.33-1.33.49-2H11.61C11.77,172.67,11.93,173.34,12.1,174Z" transform="translate(-8 -7)"/><path class="cls-1" d="M15.75,96h252.5c-.24-.67-.48-1.34-.73-2h-251C16.23,94.66,16,95.33,15.75,96Z" transform="translate(-8 -7)"/><path class="cls-1" d="M10.15,165h263.7c.12-.66.23-1.33.34-2H9.81C9.92,163.67,10,164.34,10.15,165Z" transform="translate(-8 -7)"/><path class="cls-1" d="M12.9,105H271.1c-.18-.67-.38-1.34-.57-2H13.47C13.28,103.66,13.08,104.33,12.9,105Z" transform="translate(-8 -7)"/><path class="cls-1" d="M8.54,153H275.46c.06-.67.12-1.33.17-2H8.37C8.42,151.67,8.48,152.33,8.54,153Z" transform="translate(-8 -7)"/><path class="cls-1" d="M9.64,162H274.36c.1-.66.2-1.33.29-2H9.35C9.44,160.67,9.54,161.34,9.64,162Z" transform="translate(-8 -7)"/><path class="cls-1" d="M8.84,156H275.16c.07-.67.15-1.33.21-2H8.63C8.69,154.67,8.77,155.33,8.84,156Z" transform="translate(-8 -7)"/><path class="cls-1" d="M9.21,159H274.79c.09-.67.18-1.33.26-2H9C9,157.67,9.12,158.33,9.21,159Z" transform="translate(-8 -7)"/><path class="cls-1" d="M13.77,102H270.23l-.63-2H14.4Z" transform="translate(-8 -7)"/><path class="cls-1" d="M35.25,222h213.5c.5-.66,1-1.33,1.49-2H33.76C34.26,220.67,34.75,221.34,35.25,222Z" transform="translate(-8 -7)"/><path class="cls-1" d="M51.7,42H232.3c-.74-.68-1.49-1.34-2.24-2H53.94C53.19,40.66,52.44,41.32,51.7,42Z" transform="translate(-8 -7)"/><path class="cls-1" d="M113.72,10c-2.73.59-5.43,1.25-8.1,2h72.76c-2.67-.75-5.37-1.41-8.1-2Z" transform="translate(-8 -7)"/><path class="cls-1" d="M55.11,39H228.89c-.79-.68-1.59-1.34-2.4-2h-169C56.7,37.66,55.9,38.32,55.11,39Z" transform="translate(-8 -7)"/><path class="cls-1" d="M62.68,33H221.32c-.92-.68-1.85-1.34-2.79-2H65.47C64.53,31.66,63.6,32.32,62.68,33Z" transform="translate(-8 -7)"/><path class="cls-1" d="M58.75,36h166.5c-.85-.68-1.71-1.34-2.58-2H61.33C60.46,34.66,59.6,35.32,58.75,36Z" transform="translate(-8 -7)"/><path class="cls-1" d="M142,275a134.61,134.61,0,0,0,16.4-1H125.6A134.61,134.61,0,0,0,142,275Z" transform="translate(-8 -7)"/><path class="cls-1" d="M118.84,273h46.32c3.18-.55,6.33-1.22,9.43-2H109.41C112.51,271.78,115.66,272.45,118.84,273Z" transform="translate(-8 -7)"/><path class="cls-1" d="M48.53,45H235.47l-2.09-2H50.62Z" transform="translate(-8 -7)"/><path class="cls-1" d="M71.55,27h140.9c-1.1-.68-2.21-1.35-3.33-2H74.88C73.76,25.65,72.65,26.32,71.55,27Z" transform="translate(-8 -7)"/><path class="cls-1" d="M76.65,24h130.7c-1.22-.68-2.45-1.35-3.7-2H80.35C79.1,22.65,77.87,23.32,76.65,24Z" transform="translate(-8 -7)"/><path class="cls-1" d="M142,7a134.88,134.88,0,0,0-23.16,2h46.32A134.88,134.88,0,0,0,142,7Z" transform="translate(-8 -7)"/><path class="cls-1" d="M88.77,18H195.23c-1.61-.7-3.23-1.36-4.87-2H93.64C92,16.64,90.38,17.3,88.77,18Z" transform="translate(-8 -7)"/><path class="cls-1" d="M82.32,21H201.68q-2.07-1-4.19-2h-111Q84.39,20,82.32,21Z" transform="translate(-8 -7)"/><path class="cls-1" d="M66.91,30H217.09c-1-.68-2-1.35-3-2H70C68.93,28.65,67.92,29.32,66.91,30Z" transform="translate(-8 -7)"/><path class="cls-1" d="M48.53,237H235.47c.68-.66,1.35-1.33,2-2h-191C47.18,235.67,47.85,236.34,48.53,237Z" transform="translate(-8 -7)"/><path class="cls-1" d="M105.62,270h72.76q3.27-.92,6.47-2H99.15Q102.35,269.08,105.62,270Z" transform="translate(-8 -7)"/><path class="cls-1" d="M35.25,60h213.5c-.51-.67-1-1.34-1.55-2H36.8C36.28,58.66,35.76,59.33,35.25,60Z" transform="translate(-8 -7)"/><path class="cls-1" d="M58.75,246h166.5c.83-.66,1.65-1.32,2.46-2H56.29C57.1,244.68,57.92,245.34,58.75,246Z" transform="translate(-8 -7)"/><path class="cls-1" d="M62.68,249H221.32c.89-.66,1.78-1.32,2.65-2H60C60.9,247.68,61.79,248.34,62.68,249Z" transform="translate(-8 -7)"/><path class="cls-1" d="M37.6,57H246.4c-.54-.67-1.09-1.34-1.64-2H39.24C38.69,55.66,38.14,56.33,37.6,57Z" transform="translate(-8 -7)"/><path class="cls-1" d="M66.91,252H217.09c1-.65,1.92-1.32,2.86-2H64.05C65,250.68,66,251.35,66.91,252Z" transform="translate(-8 -7)"/><path class="cls-1" d="M55.11,243H228.89c.77-.66,1.54-1.32,2.29-2H52.82C53.57,241.68,54.34,242.34,55.11,243Z" transform="translate(-8 -7)"/><path class="cls-1" d="M45.54,48H238.46c-.65-.67-1.3-1.34-2-2H47.5C46.84,46.66,46.19,47.33,45.54,48Z" transform="translate(-8 -7)"/><path class="cls-1" d="M51.7,240H232.3c.72-.66,1.44-1.32,2.15-2H49.55C50.26,238.68,51,239.34,51.7,240Z" transform="translate(-8 -7)"/><path class="cls-1" d="M71.55,255h140.9c1.05-.65,2.09-1.32,3.13-2H68.42C69.46,253.68,70.5,254.35,71.55,255Z" transform="translate(-8 -7)"/><path class="cls-1" d="M96.3,15h91.4c-2-.71-3.93-1.38-5.93-2H102.23C100.23,13.62,98.26,14.29,96.3,15Z" transform="translate(-8 -7)"/><path class="cls-1" d="M33,63H251c-.48-.67-1-1.34-1.45-2h-215C34,61.66,33.52,62.33,33,63Z" transform="translate(-8 -7)"/><path class="cls-1" d="M76.65,258h130.7c1.16-.65,2.32-1.32,3.46-2H73.19C74.33,256.68,75.49,257.35,76.65,258Z" transform="translate(-8 -7)"/><path class="cls-1" d="M42.72,51H241.28c-.61-.67-1.24-1.34-1.86-2H44.58C44,49.66,43.33,50.33,42.72,51Z" transform="translate(-8 -7)"/><path class="cls-1" d="M82.32,261H201.68c1.3-.65,2.59-1.31,3.86-2H78.46C79.73,259.69,81,260.35,82.32,261Z" transform="translate(-8 -7)"/><path class="cls-1" d="M96.3,267h91.4q2.61-.94,5.16-2H91.14Q93.69,266,96.3,267Z" transform="translate(-8 -7)"/><path class="cls-1" d="M88.77,264H195.23q2.22-1,4.41-2H84.36Q86.55,263,88.77,264Z" transform="translate(-8 -7)"/><path class="cls-1" d="M40.09,54H243.91c-.58-.67-1.16-1.34-1.75-2H41.84C41.25,52.66,40.67,53.33,40.09,54Z" transform="translate(-8 -7)"/></svg>