<svg id="レイヤー_1" data-name="レイヤー 1" xmlns="http://www.w3.org/2000/svg" xmlns:xlink="http://www.w3.org/1999/xlink" width="86" height="88" viewBox="0 0 86 88"><defs><style>.cls-1{opacity:0.77;fill:url(#名称未設定グラデーション_12);}</style><linearGradient id="名称未設定グラデーション_12" x1="102" y1="144" x2="190" y2="144" gradientUnits="userSpaceOnUse"><stop offset="0" stop-color="#fff"/><stop offset="0.61" stop-color="#fcee5b"/><stop offset="1" stop-color="#fcbe21"/></linearGradient></defs><title>moon</title><path class="cls-1" d="M151,100.29v87.42c.67-.08,1.34-.16,2-.27V100.56C152.34,100.45,151.67,100.37,151,100.29Z" transform="translate(-103 -100)"/><path class="cls-1" d="M115,112.78v62.44c.65.64,1.32,1.26,2,1.86V110.92C116.32,111.52,115.65,112.14,115,112.78Z" transform="translate(-103 -100)"/><path class="cls-1" d="M118,110.06v67.88c.65.54,1.32,1.05,2,1.55v-71C119.32,109,118.65,109.52,118,110.06Z" transform="translate(-103 -100)"/><path class="cls-1" d="M154,100.74v86.52c.67-.12,1.34-.26,2-.42V101.16C155.34,101,154.67,100.86,154,100.74Z" transform="translate(-103 -100)"/><path class="cls-1" d="M160,102.29v83.42c.67-.22,1.34-.47,2-.72V103C161.34,102.76,160.67,102.51,160,102.29Z" transform="translate(-103 -100)"/><path class="cls-1" d="M157,101.39v85.22c.67-.17,1.34-.36,2-.56V102C158.34,101.75,157.67,101.56,157,101.39Z" transform="translate(-103 -100)"/><path class="cls-1" d="M166,104.81v78.38c.68-.35,1.34-.71,2-1.09V105.9C167.34,105.52,166.68,105.16,166,104.81Z" transform="translate(-103 -100)"/><path class="cls-1" d="M163,103.41v81.18c.68-.28,1.34-.58,2-.89V104.3C164.34,104,163.68,103.69,163,103.41Z" transform="translate(-103 -100)"/><path class="cls-1" d="M169,106.49v75c.68-.42,1.35-.86,2-1.31V107.8C170.35,107.35,169.68,106.91,169,106.49Z" transform="translate(-103 -100)"/><path class="cls-1" d="M112,116.07v55.86c.64.77,1.31,1.52,2,2.25V113.82C113.31,114.55,112.64,115.3,112,116.07Z" transform="translate(-103 -100)"/><path class="cls-1" d="M124,105.9v76.2c.66.38,1.32.74,2,1.09V104.81C125.32,105.16,124.66,105.52,124,105.9Z" transform="translate(-103 -100)"/><path class="cls-1" d="M130,103v82c.66.25,1.33.5,2,.72V102.29C131.33,102.51,130.66,102.76,130,103Z" transform="translate(-103 -100)"/><path class="cls-1" d="M142,100.19v87.62c.66.06,1.33.11,2,.14v-87.9C143.33,100.08,142.66,100.13,142,100.19Z" transform="translate(-103 -100)"/><path class="cls-1" d="M133,102v84.1c.66.2,1.33.39,2,.56V101.39C134.33,101.56,133.66,101.75,133,102Z" transform="translate(-103 -100)"/><path class="cls-1" d="M121,107.8v72.4c.65.45,1.32.89,2,1.31v-75C122.32,106.91,121.65,107.35,121,107.8Z" transform="translate(-103 -100)"/><path class="cls-1" d="M136,101.16v85.68c.66.16,1.33.3,2,.42V100.74C137.33,100.86,136.66,101,136,101.16Z" transform="translate(-103 -100)"/><path class="cls-1" d="M109,120.2v47.6c.63,1,1.3,1.93,2,2.86V117.34C110.3,118.27,109.63,119.22,109,120.2Z" transform="translate(-103 -100)"/><path class="cls-1" d="M148,100.05V188c.67,0,1.34-.08,2-.14V100.19C149.34,100.13,148.67,100.08,148,100.05Z" transform="translate(-103 -100)"/><path class="cls-1" d="M127,104.3v79.4c.66.31,1.32.61,2,.89V103.41C128.32,103.69,127.66,104,127,104.3Z" transform="translate(-103 -100)"/><path class="cls-1" d="M146,100c-.34,0-.67,0-1,0V188c.33,0,.66,0,1,0s.67,0,1,0V100C146.67,100,146.34,100,146,100Z" transform="translate(-103 -100)"/><path class="cls-1" d="M175,110.92v66.16c.68-.6,1.35-1.22,2-1.86V112.78C176.35,112.14,175.68,111.52,175,110.92Z" transform="translate(-103 -100)"/><path class="cls-1" d="M139,100.56v86.88c.66.11,1.33.19,2,.27V100.29C140.33,100.37,139.66,100.45,139,100.56Z" transform="translate(-103 -100)"/><path class="cls-1" d="M181,117.34v53.32c.7-.93,1.37-1.88,2-2.86V120.2C182.37,119.22,181.7,118.27,181,117.34Z" transform="translate(-103 -100)"/><path class="cls-1" d="M106,125.67v36.66c.61,1.31,1.27,2.6,2,3.84V121.83C107.27,123.07,106.61,124.36,106,125.67Z" transform="translate(-103 -100)"/><path class="cls-1" d="M178,113.82v60.36c.69-.73,1.36-1.48,2-2.25V116.07C179.36,115.3,178.69,114.55,178,113.82Z" transform="translate(-103 -100)"/><path class="cls-1" d="M184,121.83v44.34c.73-1.24,1.39-2.53,2-3.84V125.67C185.39,124.36,184.73,123.07,184,121.83Z" transform="translate(-103 -100)"/><path class="cls-1" d="M187,128V160a43.87,43.87,0,0,0,2-6.64V134.67A43.87,43.87,0,0,0,187,128Z" transform="translate(-103 -100)"/><path class="cls-1" d="M172,108.51v71c.68-.5,1.35-1,2-1.55V110.06C173.35,109.52,172.68,109,172,108.51Z" transform="translate(-103 -100)"/><path class="cls-1" d="M103,134.67v18.66a43.87,43.87,0,0,0,2,6.64V128A43.87,43.87,0,0,0,103,134.67Z" transform="translate(-103 -100)"/></svg>