<svg id="レイヤー_1" data-name="レイヤー 1" xmlns="http://www.w3.org/2000/svg" xmlns:xlink="http://www.w3.org/1999/xlink" width="700" height="700" viewBox="0 0 700 700"><defs><style>.cls-1{fill:url(#名称未設定グラデーション_12);}</style><linearGradient id="名称未設定グラデーション_12" x1="45.82" y1="405.41" x2="764.25" y2="405.41" gradientUnits="userSpaceOnUse"><stop offset="0" stop-color="#fff"/><stop offset="0.61" stop-color="#fcee5b"/><stop offset="1" stop-color="#fcbe21"/></linearGradient></defs><title>moon2</title><path class="cls-1" d="M599.86,113.54V697.29q2.29-1.51,4.56-3.06V116.6Q602.16,115.06,599.86,113.54Z" transform="translate(-54.91 -55.41)"/><path class="cls-1" d="M606.7,118.18V692.65q2.29-1.59,4.56-3.22v-568Q609,119.77,606.7,118.18Z" transform="translate(-54.91 -55.41)"/><path class="cls-1" d="M360.45,58.35V752.48L365,753V57.81C363.49,58,362,58.15,360.45,58.35Z" transform="translate(-54.91 -55.41)"/><path class="cls-1" d="M346.77,60.41v690c1.52.26,3,.52,4.56.75V59.65C349.81,59.89,348.29,60.15,346.77,60.41Z" transform="translate(-54.91 -55.41)"/><path class="cls-1" d="M387.81,55.88V755c1.52.07,3,.12,4.56.17V55.7C390.85,55.76,389.33,55.8,387.81,55.88Z" transform="translate(-54.91 -55.41)"/><path class="cls-1" d="M593,109.13V701.7q2.29-1.44,4.56-2.92V112Q595.32,110.57,593,109.13Z" transform="translate(-54.91 -55.41)"/><path class="cls-1" d="M353.61,59.3V751.52c1.52.23,3,.43,4.56.64V58.67Q355.89,59,353.61,59.3Z" transform="translate(-54.91 -55.41)"/><path class="cls-1" d="M579.34,101V709.87c1.53-.86,3-1.75,4.56-2.64V103.59Q581.64,102.26,579.34,101Z" transform="translate(-54.91 -55.41)"/><path class="cls-1" d="M381,56.31v698.2c1.52.11,3,.21,4.56.29V56C384,56.11,382.49,56.2,381,56.31Z" transform="translate(-54.91 -55.41)"/><path class="cls-1" d="M367.29,57.55V753.28q2.28.26,4.56.48V57.07Q369.57,57.3,367.29,57.55Z" transform="translate(-54.91 -55.41)"/><path class="cls-1" d="M374.13,56.87V754c1.52.13,3,.29,4.56.4V56.46C377.17,56.58,375.65,56.73,374.13,56.87Z" transform="translate(-54.91 -55.41)"/><path class="cls-1" d="M586.18,104.94v601c1.53-.91,3.05-1.84,4.56-2.77V107.71Q588.48,106.3,586.18,104.94Z" transform="translate(-54.91 -55.41)"/><path class="cls-1" d="M339.93,61.64V749.19c1.52.29,3,.59,4.56.85V60.78C343,61.05,341.45,61.35,339.93,61.64Z" transform="translate(-54.91 -55.41)"/><path class="cls-1" d="M292.05,74.29V736.54l4.56,1.51V72.78Q294.31,73.51,292.05,74.29Z" transform="translate(-54.91 -55.41)"/><path class="cls-1" d="M298.89,72V738.79l4.56,1.43V70.61C301.92,71.07,300.4,71.55,298.89,72Z" transform="translate(-54.91 -55.41)"/><path class="cls-1" d="M285.21,76.69V734.13c1.51.55,3,1.07,4.56,1.61V75.09C288.25,75.62,286.72,76.14,285.21,76.69Z" transform="translate(-54.91 -55.41)"/><path class="cls-1" d="M627.23,133.58V677.24q2.29-1.86,4.56-3.75V137.34Q629.53,135.44,627.23,133.58Z" transform="translate(-54.91 -55.41)"/><path class="cls-1" d="M278.37,79.29V731.54c1.51.59,3,1.16,4.56,1.73V77.56C281.4,78.13,279.88,78.7,278.37,79.29Z" transform="translate(-54.91 -55.41)"/><path class="cls-1" d="M634.07,139.26V671.57q2.29-2,4.56-4V143.22Q636.37,141.22,634.07,139.26Z" transform="translate(-54.91 -55.41)"/><path class="cls-1" d="M333.09,63V747.83c1.52.32,3,.62,4.56.92V62.07Z" transform="translate(-54.91 -55.41)"/><path class="cls-1" d="M613.55,123.05V687.77c1.52-1.12,3.05-2.24,4.56-3.39V126.44C616.6,125.3,615.07,124.17,613.55,123.05Z" transform="translate(-54.91 -55.41)"/><path class="cls-1" d="M319.41,66.16v678.5c1.51.39,3,.75,4.56,1.11V65.05C322.45,65.42,320.92,65.78,319.41,66.16Z" transform="translate(-54.91 -55.41)"/><path class="cls-1" d="M326.25,64.5V746.33c1.51.35,3,.67,4.56,1V63.5C329.29,63.83,327.76,64.15,326.25,64.5Z" transform="translate(-54.91 -55.41)"/><path class="cls-1" d="M305.73,69.93v671c1.52.45,3,.91,4.56,1.34V68.59C308.76,69,307.25,69.48,305.73,69.93Z" transform="translate(-54.91 -55.41)"/><path class="cls-1" d="M497.26,67.36v676.1c1.52-.4,3.05-.8,4.56-1.23V68.59C500.31,68.17,498.78,67.77,497.26,67.36Z" transform="translate(-54.91 -55.41)"/><path class="cls-1" d="M620.39,128.19V682.64c1.53-1.18,3.05-2.36,4.56-3.57V131.75Q622.69,130,620.39,128.19Z" transform="translate(-54.91 -55.41)"/><path class="cls-1" d="M476.74,62.51V748.32c1.52-.31,3-.66,4.56-1V63.5C479.78,63.16,478.26,62.82,476.74,62.51Z" transform="translate(-54.91 -55.41)"/><path class="cls-1" d="M524.62,75.89V734.94c1.53-.55,3-1.11,4.56-1.67V77.56C527.66,77,526.15,76.44,524.62,75.89Z" transform="translate(-54.91 -55.41)"/><path class="cls-1" d="M531.46,78.42v654c1.52-.58,3-1.16,4.56-1.76V80.18C534.51,79.58,533,79,531.46,78.42Z" transform="translate(-54.91 -55.41)"/><path class="cls-1" d="M463.06,60V750.8c1.52-.25,3-.49,4.56-.76V60.78C466.1,60.51,464.58,60.28,463.06,60Z" transform="translate(-54.91 -55.41)"/><path class="cls-1" d="M449.38,58.07V752.76q2.28-.28,4.56-.6V58.67C452.42,58.46,450.9,58.25,449.38,58.07Z" transform="translate(-54.91 -55.41)"/><path class="cls-1" d="M517.78,73.51v663.8c1.53-.51,3-1,4.56-1.57V75.09C520.82,74.56,519.31,74,517.78,73.51Z" transform="translate(-54.91 -55.41)"/><path class="cls-1" d="M442.54,57.29V753.54c1.52-.16,3-.34,4.56-.52V57.81C445.58,57.63,444.06,57.44,442.54,57.29Z" transform="translate(-54.91 -55.41)"/><path class="cls-1" d="M456.22,59V751.84c1.52-.21,3-.43,4.56-.67V59.65Z" transform="translate(-54.91 -55.41)"/><path class="cls-1" d="M490.42,65.61V745.22l4.56-1.14V66.75C493.46,66.35,491.94,66,490.42,65.61Z" transform="translate(-54.91 -55.41)"/><path class="cls-1" d="M483.58,64V746.84c1.52-.35,3-.7,4.56-1.07V65.05C486.62,64.69,485.1,64.33,483.58,64Z" transform="translate(-54.91 -55.41)"/><path class="cls-1" d="M504.1,69.26V741.57l4.56-1.35V70.61Z" transform="translate(-54.91 -55.41)"/><path class="cls-1" d="M271.53,82V728.78c1.51.63,3,1.26,4.56,1.86V80.18Q273.8,81.1,271.53,82Z" transform="translate(-54.91 -55.41)"/><path class="cls-1" d="M510.94,71.3V739.53c1.53-.48,3-1,4.56-1.48V72.78C514,72.28,512.47,71.78,510.94,71.3Z" transform="translate(-54.91 -55.41)"/><path class="cls-1" d="M469.9,61.2V749.62c1.52-.27,3-.57,4.56-.87V62.07Q472.18,61.62,469.9,61.2Z" transform="translate(-54.91 -55.41)"/><path class="cls-1" d="M545.14,84V726.86c1.52-.66,3.05-1.31,4.56-2V86C548.19,85.28,546.66,84.62,545.14,84Z" transform="translate(-54.91 -55.41)"/><path class="cls-1" d="M408.33,55.44V755.38c1.53,0,3.05,0,4.56,0V55.5Q410.63,55.46,408.33,55.44Z" transform="translate(-54.91 -55.41)"/><path class="cls-1" d="M401.49,55.47V755.36c1.52,0,3,0,4.56,0v-700C404.53,55.41,403,55.45,401.49,55.47Z" transform="translate(-54.91 -55.41)"/><path class="cls-1" d="M552,87V723.83q2.29-1,4.56-2.12V89.11Q554.28,88,552,87Z" transform="translate(-54.91 -55.41)"/><path class="cls-1" d="M558.82,90.19V720.63c1.53-.73,3-1.5,4.56-2.25V92.45C561.87,91.69,560.35,90.93,558.82,90.19Z" transform="translate(-54.91 -55.41)"/><path class="cls-1" d="M565.66,93.58V717.25c1.53-.78,3.05-1.59,4.56-2.39V96C568.71,95.17,567.19,94.36,565.66,93.58Z" transform="translate(-54.91 -55.41)"/><path class="cls-1" d="M394.65,55.62V755.21l4.56.12V55.5Z" transform="translate(-54.91 -55.41)"/><path class="cls-1" d="M435.69,56.67V754.16l4.57-.4V57.07C438.74,56.92,437.22,56.79,435.69,56.67Z" transform="translate(-54.91 -55.41)"/><path class="cls-1" d="M572.5,97.17V713.66q2.29-1.24,4.56-2.52V99.68C575.55,98.84,574,98,572.5,97.17Z" transform="translate(-54.91 -55.41)"/><path class="cls-1" d="M538.3,81.11v648.6c1.52-.61,3.05-1.22,4.56-1.86V83C541.35,82.34,539.82,81.73,538.3,81.11Z" transform="translate(-54.91 -55.41)"/><path class="cls-1" d="M428.85,56.17V754.66c1.53-.1,3-.18,4.56-.3V56.46C431.9,56.35,430.38,56.26,428.85,56.17Z" transform="translate(-54.91 -55.41)"/><path class="cls-1" d="M415.17,55.53V755.3c1.53,0,3-.12,4.56-.18V55.7C418.21,55.64,416.7,55.57,415.17,55.53Z" transform="translate(-54.91 -55.41)"/><path class="cls-1" d="M422,55.79V755q2.3-.1,4.56-.24V56Z" transform="translate(-54.91 -55.41)"/><path class="cls-1" d="M312.57,68V742.85c1.52.42,3,.83,4.56,1.23V66.75C315.6,67.14,314.09,67.56,312.57,68Z" transform="translate(-54.91 -55.41)"/><path class="cls-1" d="M709.31,228.9v353c1.55-2.64,3.08-5.31,4.56-8v-337C712.39,234.21,710.86,231.55,709.31,228.9Z" transform="translate(-54.91 -55.41)"/><path class="cls-1" d="M121,201V609.86c1.5,2.07,3,4.13,4.56,6.17V194.8C124.05,196.84,122.54,198.9,121,201Z" transform="translate(-54.91 -55.41)"/><path class="cls-1" d="M723,254.58V556.25c1.58-3.28,3.09-6.6,4.56-9.94V264.51C726.08,261.18,724.57,257.86,723,254.58Z" transform="translate(-54.91 -55.41)"/><path class="cls-1" d="M716.15,241.11V569.72c1.56-2.93,3.08-5.87,4.56-8.85V250Q718.49,245.5,716.15,241.11Z" transform="translate(-54.91 -55.41)"/><path class="cls-1" d="M114.2,210.76v389.3c1.49,2.22,3,4.43,4.56,6.61V204.15Q116.43,207.44,114.2,210.76Z" transform="translate(-54.91 -55.41)"/><path class="cls-1" d="M107.36,221.36V589.47q2.23,3.6,4.56,7.14V214.22Q109.6,217.76,107.36,221.36Z" transform="translate(-54.91 -55.41)"/><path class="cls-1" d="M155.24,160.5V650.33c1.51,1.53,3,3,4.56,4.56V155.94C158.26,157.45,156.75,159,155.24,160.5Z" transform="translate(-54.91 -55.41)"/><path class="cls-1" d="M695.63,207.43v396q2.32-3.36,4.56-6.78V214.22C698.7,211.94,697.18,209.67,695.63,207.43Z" transform="translate(-54.91 -55.41)"/><path class="cls-1" d="M134.72,183.25V627.58q2.25,2.71,4.56,5.39V177.85C137.74,179.64,136.22,181.43,134.72,183.25Z" transform="translate(-54.91 -55.41)"/><path class="cls-1" d="M148.4,167.66V643.17c1.51,1.62,3,3.24,4.56,4.83V162.83C151.42,164.42,149.91,166,148.4,167.66Z" transform="translate(-54.91 -55.41)"/><path class="cls-1" d="M141.56,175.22V635.61c1.51,1.72,3,3.43,4.56,5.12V170.1C144.58,171.79,143.07,173.5,141.56,175.22Z" transform="translate(-54.91 -55.41)"/><path class="cls-1" d="M640.91,145.24V665.59q2.3-2.07,4.56-4.18v-512C644,148,642.44,146.61,640.91,145.24Z" transform="translate(-54.91 -55.41)"/><path class="cls-1" d="M127.88,191.84V619q2.25,2.91,4.56,5.76V186.07Q130.13,188.94,127.88,191.84Z" transform="translate(-54.91 -55.41)"/><path class="cls-1" d="M743.51,308.39V502.44q2.5-8.64,4.56-17.46V325.84Q746,317,743.51,308.39Z" transform="translate(-54.91 -55.41)"/><path class="cls-1" d="M59.47,349V461.81Q61.38,473.53,64,485V325.84Q61.36,337.29,59.47,349Z" transform="translate(-54.91 -55.41)"/><path class="cls-1" d="M66.31,316.67V494.16q2.1,8,4.56,15.87V300.8Q68.41,308.66,66.31,316.67Z" transform="translate(-54.91 -55.41)"/><path class="cls-1" d="M750.35,336.4v138q2.89-14.37,4.56-29.15V365.55Q753.23,350.79,750.35,336.4Z" transform="translate(-54.91 -55.41)"/><path class="cls-1" d="M54.91,405.41a352.06,352.06,0,0,0,2.28,39.86V365.55A352.19,352.19,0,0,0,54.91,405.41Z" transform="translate(-54.91 -55.41)"/><path class="cls-1" d="M73.15,293.8V517c1.44,4.25,3,8.46,4.56,12.64V281.15C76.12,285.33,74.59,289.54,73.15,293.8Z" transform="translate(-54.91 -55.41)"/><path class="cls-1" d="M736.67,287.3V523.53q2.42-6.69,4.56-13.5V300.8Q739.1,294,736.67,287.3Z" transform="translate(-54.91 -55.41)"/><path class="cls-1" d="M100.52,232.84V578q2.22,3.91,4.56,7.78V225.06Q102.74,228.92,100.52,232.84Z" transform="translate(-54.91 -55.41)"/><path class="cls-1" d="M729.83,269.74V541.08c1.59-3.77,3.1-7.57,4.56-11.41V281.15C732.93,277.32,731.42,273.51,729.83,269.74Z" transform="translate(-54.91 -55.41)"/><path class="cls-1" d="M93.68,245.42v320c1.47,2.86,3,5.7,4.56,8.51v-337C96.68,239.72,95.15,242.55,93.68,245.42Z" transform="translate(-54.91 -55.41)"/><path class="cls-1" d="M86.84,259.45V551.38q2.2,4.79,4.56,9.49V250Q89,254.66,86.84,259.45Z" transform="translate(-54.91 -55.41)"/><path class="cls-1" d="M80,275.31V535.52c1.46,3.63,3,7.23,4.56,10.79V264.51C83,268.08,81.45,271.68,80,275.31Z" transform="translate(-54.91 -55.41)"/><path class="cls-1" d="M702.47,217.72V593.11q2.32-3.65,4.56-7.34V225.06C705.54,222.59,704,220.15,702.47,217.72Z" transform="translate(-54.91 -55.41)"/><path class="cls-1" d="M661.43,165.21v480.4c1.53-1.61,3.06-3.24,4.56-4.88V170.1C664.49,168.45,663,166.83,661.43,165.21Z" transform="translate(-54.91 -55.41)"/><path class="cls-1" d="M230.48,102.25V708.58c1.51.87,3,1.72,4.56,2.56V99.68C233.52,100.53,232,101.38,230.48,102.25Z" transform="translate(-54.91 -55.41)"/><path class="cls-1" d="M216.8,110.55V700.28c1.51,1,3,1.9,4.56,2.84V107.71C219.84,108.65,218.31,109.58,216.8,110.55Z" transform="translate(-54.91 -55.41)"/><path class="cls-1" d="M210,115V695.79c1.51,1,3,2,4.56,3V112C213,113,211.47,114,210,115Z" transform="translate(-54.91 -55.41)"/><path class="cls-1" d="M196.28,124.71v561.4c1.51,1.12,3,2.22,4.56,3.32v-568C199.32,122.49,197.79,123.59,196.28,124.71Z" transform="translate(-54.91 -55.41)"/><path class="cls-1" d="M654.59,158.17V652.65c1.53-1.53,3-3.09,4.56-4.65V162.83Q656.89,160.47,654.59,158.17Z" transform="translate(-54.91 -55.41)"/><path class="cls-1" d="M668.27,172.66V638.17c1.53-1.72,3.06-3.45,4.56-5.2V177.85C671.33,176.1,669.8,174.38,668.27,172.66Z" transform="translate(-54.91 -55.41)"/><path class="cls-1" d="M203.12,119.75V691.07c1.51,1.07,3,2.11,4.56,3.16V116.6C206.16,117.64,204.63,118.69,203.12,119.75Z" transform="translate(-54.91 -55.41)"/><path class="cls-1" d="M647.75,151.53V659.3q2.29-2.19,4.56-4.41V155.94C650.8,154.46,649.28,153,647.75,151.53Z" transform="translate(-54.91 -55.41)"/><path class="cls-1" d="M237.32,98.41v614c1.52.83,3,1.64,4.56,2.45V96C240.36,96.78,238.84,97.58,237.32,98.41Z" transform="translate(-54.91 -55.41)"/><path class="cls-1" d="M264.69,85v640.9c1.51.67,3,1.35,4.56,2V83C267.72,83.62,266.2,84.3,264.69,85Z" transform="translate(-54.91 -55.41)"/><path class="cls-1" d="M257.84,88.05V722.77c1.52.71,3,1.42,4.57,2.1V86C260.88,86.64,259.36,87.35,257.84,88.05Z" transform="translate(-54.91 -55.41)"/><path class="cls-1" d="M244.16,94.77V716.05c1.52.79,3,1.56,4.56,2.33V92.45C247.2,93.21,245.68,94,244.16,94.77Z" transform="translate(-54.91 -55.41)"/><path class="cls-1" d="M251,91.32V719.5q2.28,1.13,4.56,2.21V89.11Z" transform="translate(-54.91 -55.41)"/><path class="cls-1" d="M223.64,106.29V704.54c1.51.91,3,1.8,4.56,2.69V103.59C226.68,104.49,225.15,105.37,223.64,106.29Z" transform="translate(-54.91 -55.41)"/><path class="cls-1" d="M682,188.89v433q2.31-2.92,4.56-5.9V194.8C685,192.82,683.49,190.84,682,188.89Z" transform="translate(-54.91 -55.41)"/><path class="cls-1" d="M175.76,141.2V669.62c1.51,1.31,3,2.59,4.56,3.87V137.34C178.79,138.62,177.27,139.9,175.76,141.2Z" transform="translate(-54.91 -55.41)"/><path class="cls-1" d="M168.92,147.3V663.53q2.27,2.06,4.56,4.08V143.22C172,144.57,170.43,145.92,168.92,147.3Z" transform="translate(-54.91 -55.41)"/><path class="cls-1" d="M675.11,180.54V630.29q2.31-2.74,4.56-5.54V186.07Q677.42,183.28,675.11,180.54Z" transform="translate(-54.91 -55.41)"/><path class="cls-1" d="M688.79,197.85V613q2.31-3.12,4.56-6.3V204.15Q691.1,201,688.79,197.85Z" transform="translate(-54.91 -55.41)"/><path class="cls-1" d="M162.08,153.72V657.1c1.51,1.46,3,2.89,4.56,4.31v-512C165.11,150.84,163.59,152.27,162.08,153.72Z" transform="translate(-54.91 -55.41)"/><path class="cls-1" d="M182.6,135.42v540c1.51,1.24,3,2.45,4.56,3.66V131.75C185.63,133,184.11,134.18,182.6,135.42Z" transform="translate(-54.91 -55.41)"/><path class="cls-1" d="M189.44,129.93v551c1.51,1.18,3,2.33,4.56,3.48V126.44C192.48,127.6,191,128.75,189.44,129.93Z" transform="translate(-54.91 -55.41)"/></svg>