<?xml version="1.0" encoding="utf-8"?>
<!-- Generator: Adobe Illustrator 22.0.1, SVG Export Plug-In . SVG Version: 6.00 Build 0)  -->
<svg version="1.1" id="レイヤー_1" xmlns="http://www.w3.org/2000/svg" xmlns:xlink="http://www.w3.org/1999/xlink" x="0px"
	 y="0px" viewBox="0 0 283.5 283.5" style="enable-background:new 0 0 283.5 283.5;" xml:space="preserve">
<style type="text/css">
	.st0{fill:none;stroke:#E4007F;stroke-width:0.7725;stroke-miterlimit:10;}
</style>
<g>
	<g>
		<g>
			<g>
				<polygon class="st0" points="12.4,141.5 11.4,184.3 37.3,218.3 61.7,253.5 102.6,265.8 143,279.9 183.4,265.8 224.4,253.5 
					248.8,218.3 274.7,184.3 273.7,141.5 274.7,98.7 248.8,64.7 224.4,29.5 183.4,17.2 143,3.1 102.6,17.2 61.7,29.5 37.3,64.7 
					11.4,98.7 				"/>
			</g>
			<g>
				<polygon class="st0" points="143,5.8 182.6,19.7 222.8,31.7 246.6,66.2 272.2,99.5 271,141.5 272.2,183.5 246.6,216.8 
					222.8,251.3 182.6,263.3 143,277.2 103.5,263.3 63.2,251.3 39.5,216.8 13.9,183.5 15,141.5 13.9,99.5 39.5,66.2 63.2,31.7 
					103.5,19.7 				"/>
			</g>
			<g>
				<polygon class="st0" points="17.7,141.5 16.4,182.6 41.6,215.2 64.8,249.2 104.3,260.8 143,274.6 181.8,260.8 221.3,249.2 
					244.5,215.2 269.7,182.6 268.4,141.5 269.7,100.4 244.5,67.8 221.3,33.8 181.8,22.2 143,8.4 104.3,22.2 64.8,33.8 41.6,67.8 
					16.4,100.4 				"/>
			</g>
			<g>
				<polygon class="st0" points="143,11 181,24.7 219.7,35.9 242.4,69.3 267.1,101.2 265.8,141.5 267.1,181.8 242.4,213.7 
					219.7,247.1 181,258.3 143,272 105.1,258.3 66.3,247.1 43.7,213.7 18.9,181.8 20.3,141.5 18.9,101.2 43.7,69.3 66.3,35.9 
					105.1,24.7 				"/>
			</g>
			<g>
				<polygon class="st0" points="23,141.5 21.4,181 45.9,212.1 67.9,244.9 105.9,255.8 143,269.3 180.2,255.8 218.2,244.9 
					240.2,212.1 264.6,181 263.1,141.5 264.6,102 240.2,70.9 218.2,38.1 180.2,27.2 143,13.7 105.9,27.2 67.9,38.1 45.9,70.9 
					21.4,102 				"/>
			</g>
			<g>
				<polygon class="st0" points="143,16.3 179.4,29.8 216.6,40.2 238.1,72.4 262.1,102.8 260.5,141.5 262.1,180.2 238.1,210.6 
					216.6,242.8 179.4,253.2 143,266.7 106.7,253.2 69.4,242.8 48,210.6 23.9,180.2 25.6,141.5 23.9,102.8 48,72.4 69.4,40.2 
					106.7,29.8 				"/>
			</g>
			<g>
				<polygon class="st0" points="28.2,141.5 26.5,179.4 50.1,209 71,240.7 107.5,250.7 143,264 178.5,250.7 215.1,240.7 236,209 
					259.6,179.4 257.9,141.5 259.6,103.6 236,74 215.1,42.3 178.5,32.3 143,19 107.5,32.3 71,42.3 50.1,74 26.5,103.6 				"/>
			</g>
			<g>
				<polygon class="st0" points="143,21.6 177.7,34.8 213.5,44.5 233.8,75.5 257.1,104.4 255.2,141.5 257.1,178.6 233.8,207.5 
					213.5,238.5 177.7,248.2 143,261.4 108.4,248.2 72.5,238.5 52.3,207.5 29,178.6 30.9,141.5 29,104.4 52.3,75.5 72.5,44.5 
					108.4,34.8 				"/>
			</g>
			<g>
				<polygon class="st0" points="33.5,141.5 31.5,177.7 54.4,205.9 74.1,236.4 109.2,245.7 143,258.8 176.9,245.7 212,236.4 
					231.7,205.9 254.6,177.8 252.6,141.5 254.6,105.3 231.7,77.1 212,46.6 176.9,37.3 143,24.2 109.2,37.3 74.1,46.6 54.4,77.1 
					31.5,105.2 				"/>
			</g>
			<g>
				<polygon class="st0" points="143,26.9 176.1,39.8 210.4,48.7 229.5,78.6 252.1,106.1 249.9,141.5 252.1,176.9 229.5,204.4 
					210.4,234.3 176.1,243.2 143,256.1 110,243.2 75.6,234.3 56.5,204.4 34,176.9 36.1,141.5 34,106.1 56.5,78.6 75.6,48.7 
					110,39.8 				"/>
			</g>
			<g>
				<polygon class="st0" points="38.8,141.5 36.5,176.1 58.7,202.8 77.2,232.1 110.8,240.7 143,253.5 175.3,240.7 208.9,232.1 
					227.4,202.8 249.6,176.1 247.3,141.5 249.6,106.9 227.4,80.2 208.9,50.9 175.3,42.3 143,29.5 110.8,42.3 77.2,50.9 58.7,80.2 
					36.5,106.9 				"/>
			</g>
			<g>
				<polygon class="st0" points="143,32.1 174.5,44.8 207.3,53 225.3,81.7 247.1,107.7 244.7,141.5 247.1,175.3 225.3,201.3 
					207.3,230 174.5,238.2 143,250.9 111.6,238.2 78.7,230 60.8,201.3 39,175.3 41.4,141.5 39,107.7 60.8,81.7 78.7,53 111.6,44.8 
									"/>
			</g>
			<g>
				<polygon class="st0" points="44,141.5 41.5,174.5 62.9,199.7 80.3,227.9 112.4,235.7 143,248.2 173.6,235.7 205.8,227.9 
					223.1,199.7 244.6,174.5 242,141.5 244.6,108.5 223.1,83.3 205.8,55.1 173.6,47.3 143,34.8 112.4,47.3 80.3,55.1 62.9,83.3 
					41.5,108.5 				"/>
			</g>
			<g>
				<polygon class="st0" points="143,37.4 172.8,49.8 204.2,57.3 221,84.9 242.1,109.3 239.4,141.5 242.1,173.7 221,198.2 
					204.2,225.7 172.8,233.2 143,245.6 113.2,233.2 81.8,225.7 65.1,198.1 44,173.7 46.7,141.5 44,109.3 65.1,84.8 81.8,57.3 
					113.2,49.8 				"/>
			</g>
			<g>
				<polygon class="st0" points="49.3,141.5 46.5,172.9 67.2,196.6 83.4,223.6 114.1,230.7 143,242.9 172,230.7 202.7,223.6 
					218.9,196.6 239.5,172.9 236.8,141.5 239.5,110.1 218.9,86.4 202.7,59.4 172,52.3 143,40.1 114.1,52.3 83.4,59.4 67.2,86.4 
					46.5,110.1 				"/>
			</g>
			<g>
				<polygon class="st0" points="143,42.7 171.2,54.8 201.1,61.5 216.7,88 237,111 234.1,141.5 237,172 216.7,195 201.1,221.5 
					171.2,228.2 143,240.3 114.9,228.2 84.9,221.5 69.3,195 49,172 52,141.5 49,111 69.3,88 84.9,61.5 114.9,54.8 				"/>
			</g>
			<g>
				<polygon class="st0" points="54.6,141.5 51.5,171.2 71.5,193.5 86.5,219.3 115.7,225.6 143,237.7 170.4,225.6 199.6,219.3 
					214.6,193.5 234.5,171.2 231.5,141.5 234.5,111.8 214.6,89.5 199.6,63.7 170.4,57.4 143,45.3 115.7,57.4 86.5,63.7 71.5,89.5 
					51.5,111.8 				"/>
			</g>
			<g>
				<polygon class="st0" points="143,48 169.6,59.9 198,65.8 212.5,91.1 232,112.6 228.8,141.5 232,170.4 212.5,191.9 198,217.2 
					169.6,223.1 143,235 116.5,223.1 88,217.2 73.6,191.9 54.1,170.4 57.2,141.5 54.1,112.6 73.6,91.1 88,65.8 116.5,59.9 				"/>
			</g>
			<g>
				<polygon class="st0" points="59.9,141.5 56.6,169.6 75.7,190.4 89.6,215.1 117.3,220.6 143,232.4 168.8,220.6 196.5,215.1 
					210.3,190.4 229.5,169.6 226.2,141.5 229.5,113.4 210.3,92.6 196.5,67.9 168.8,62.4 143,50.6 117.3,62.4 89.6,67.9 75.7,92.6 
					56.6,113.4 				"/>
			</g>
			<g>
				<polygon class="st0" points="143,53.2 167.9,64.9 194.9,70.1 208.2,94.2 227,114.2 223.6,141.5 227,168.8 208.2,188.8 
					194.9,212.9 167.9,218.1 143,229.8 118.1,218.1 91.1,212.9 77.9,188.8 59.1,168.8 62.5,141.5 59.1,114.2 77.9,94.2 91.1,70.1 
					118.1,64.9 				"/>
			</g>
			<g>
				<polygon class="st0" points="65.1,141.5 61.6,168 80,187.3 92.7,210.8 119,215.6 143,227.1 167.1,215.6 193.4,210.8 
					206.1,187.3 224.5,168 220.9,141.5 224.5,115 206.1,95.7 193.4,72.2 167.1,67.4 143,55.9 119,67.4 92.7,72.2 80,95.7 61.6,115 
									"/>
			</g>
			<g>
				<polygon class="st0" points="143,58.5 166.3,69.9 191.8,74.4 203.9,97.3 222,115.8 218.3,141.5 222,167.2 203.9,185.7 
					191.8,208.6 166.3,213.1 143,224.5 119.8,213.1 94.2,208.6 82.1,185.7 64.1,167.2 67.8,141.5 64.1,115.8 82.1,97.3 94.2,74.4 
					119.8,69.9 				"/>
			</g>
			<g>
				<polygon class="st0" points="70.4,141.5 66.6,166.3 84.3,184.2 95.8,206.5 120.6,210.6 143,221.8 165.5,210.6 190.3,206.5 
					201.8,184.2 219.5,166.3 215.7,141.5 219.5,116.7 201.8,98.8 190.3,76.5 165.5,72.4 143,61.2 120.6,72.4 95.8,76.5 84.3,98.8 
					66.6,116.7 				"/>
			</g>
			<g>
				<polygon class="st0" points="143,63.8 164.7,74.9 188.7,78.6 199.7,100.4 217,117.5 213,141.5 217,165.5 199.7,182.6 
					188.7,204.4 164.7,208.1 143,219.2 121.4,208.1 97.3,204.4 86.4,182.6 69.1,165.5 73.1,141.5 69.1,117.5 86.4,100.4 97.4,78.6 
					121.4,74.9 				"/>
			</g>
			<g>
				<polygon class="st0" points="75.7,141.5 71.6,164.7 88.5,181.1 98.9,202.2 122.2,205.6 143,216.6 163.9,205.6 187.2,202.2 
					197.5,181.1 214.5,164.7 210.4,141.5 214.5,118.3 197.5,101.9 187.2,80.8 163.9,77.4 143,66.4 122.2,77.4 98.9,80.8 88.5,101.9 
					71.6,118.3 				"/>
			</g>
			<g>
				<polygon class="st0" points="143,69.1 163,79.9 185.6,82.9 195.4,103.5 211.9,119.1 207.7,141.5 211.9,163.9 195.4,179.5 
					185.6,200.1 163,203.1 143,213.9 123,203.1 100.5,200.1 90.7,179.5 74.1,163.9 78.3,141.5 74.1,119.1 90.7,103.5 100.5,82.9 
					123,79.9 				"/>
			</g>
			<g>
				<polygon class="st0" points="81,141.5 76.6,163.1 92.8,178 102,198 123.8,200.6 143,211.3 162.2,200.6 184.1,198 193.3,178 
					209.4,163.1 205.1,141.5 209.4,119.9 193.3,105 184.1,85 162.2,82.4 143,71.7 123.8,82.4 102,85 92.8,105 76.6,119.9 				"/>
			</g>
			<g>
				<polygon class="st0" points="143,74.3 161.4,85 182.5,87.2 191.1,106.6 206.9,120.7 202.5,141.5 206.9,162.3 191.1,176.4 
					182.5,195.8 161.4,198 143,208.7 124.7,198 103.6,195.8 94.9,176.4 79.1,162.3 83.6,141.5 79.1,120.7 94.9,106.6 103.6,87.2 
					124.7,85 				"/>
			</g>
			<g>
				<polygon class="st0" points="86.2,141.5 81.7,161.4 97.1,174.9 105.1,193.7 125.5,195.5 143,206 160.6,195.5 181,193.7 
					189,174.9 204.4,161.4 199.8,141.5 204.4,121.6 189,108.1 181,89.3 160.6,87.5 143,77 125.5,87.5 105.1,89.3 97.1,108.1 
					81.7,121.6 				"/>
			</g>
			<g>
				<polygon class="st0" points="143,79.6 159.8,90 179.4,91.4 186.9,109.7 201.9,122.4 197.2,141.5 201.9,160.6 186.9,173.3 
					179.4,191.6 159.8,193 143,203.4 126.3,193 106.7,191.6 99.2,173.3 84.2,160.6 88.9,141.5 84.2,122.4 99.2,109.7 106.7,91.4 
					126.3,90 				"/>
			</g>
			<g>
				<polygon class="st0" points="91.5,141.5 86.7,159.8 101.3,171.8 108.2,189.4 127.1,190.5 143,200.7 159,190.5 177.9,189.4 
					184.7,171.8 199.4,159.8 194.6,141.5 199.4,123.2 184.7,111.2 177.9,93.6 159,92.5 143,82.3 127.1,92.5 108.2,93.6 101.3,111.2 
					86.7,123.2 				"/>
			</g>
			<g>
				<polygon class="st0" points="143,84.9 158.2,95 176.3,95.7 182.6,112.8 196.9,124 191.9,141.5 196.9,159 182.6,170.2 
					176.3,187.3 158.2,188 143,198.1 127.9,188 109.8,187.3 103.5,170.2 89.2,159 94.2,141.5 89.2,124 103.5,112.8 109.8,95.7 
					127.9,95 				"/>
			</g>
			<g>
				<polygon class="st0" points="96.8,141.5 91.7,158.2 105.6,168.7 111.3,185.2 128.7,185.5 143,195.5 157.3,185.5 174.8,185.2 
					180.5,168.7 194.4,158.2 189.3,141.5 194.4,124.8 180.5,114.3 174.8,97.8 157.3,97.5 143,87.5 128.7,97.5 111.3,97.8 
					105.6,114.3 91.7,124.8 				"/>
			</g>
			<g>
				<polygon class="st0" points="143,90.2 156.5,100 173.2,100 178.3,115.9 191.9,125.6 186.6,141.5 191.9,157.4 178.3,167.1 
					173.2,183 156.5,183 143,192.8 129.6,183 112.9,183 107.7,167.1 94.2,157.4 99.4,141.5 94.2,125.6 107.7,115.9 112.9,100 
					129.6,100 				"/>
			</g>
			<g>
				<polygon class="st0" points="102.1,141.5 96.7,156.6 109.9,165.6 114.4,180.9 130.4,180.5 143,190.2 155.7,180.5 171.7,180.9 
					176.2,165.6 189.4,156.6 184,141.5 189.4,126.4 176.2,117.4 171.7,102.1 155.7,102.5 143,92.8 130.4,102.5 114.4,102.1 
					109.9,117.4 96.7,126.4 				"/>
			</g>
			<g>
				<polygon class="st0" points="143,95.4 154.9,105 170.1,104.2 174.1,119 186.9,127.3 181.4,141.5 186.9,155.7 174.1,164 
					170.1,178.8 154.9,178 143,187.6 131.2,178 116,178.8 112,164 99.2,155.7 104.7,141.5 99.2,127.3 112,119 116,104.2 131.2,105 
									"/>
			</g>
			<g>
				<polygon class="st0" points="107.3,141.5 101.7,154.9 114.1,162.5 117.5,176.6 132,175.5 143,184.9 154.1,175.5 168.6,176.6 
					171.9,162.5 184.3,154.9 178.7,141.5 184.3,128.1 171.9,120.5 168.6,106.4 154.1,107.5 143,98.1 132,107.5 117.5,106.4 
					114.1,120.5 101.7,128.1 				"/>
			</g>
			<g>
				<polygon class="st0" points="143,100.7 153.3,110 167,108.5 169.8,122.1 181.8,128.9 176.1,141.5 181.8,154.1 169.8,160.9 
					167,174.5 153.3,173 143,182.3 132.8,173 119.1,174.5 116.3,160.9 104.2,154.1 110,141.5 104.2,128.9 116.3,122.1 119.1,108.5 
					132.8,110 				"/>
			</g>
			<g>
				<polygon class="st0" points="112.6,141.5 106.7,153.3 118.4,159.4 120.6,172.4 133.6,170.4 143,179.6 152.4,170.4 165.5,172.4 
					167.7,159.4 179.3,153.3 173.5,141.5 179.3,129.7 167.7,123.6 165.5,110.6 152.4,112.6 143,103.4 133.6,112.6 120.6,110.6 
					118.4,123.6 106.7,129.7 				"/>
			</g>
			<g>
				<polygon class="st0" points="143,106 151.6,115.1 163.9,112.8 165.5,125.2 176.8,130.5 170.8,141.5 176.8,152.5 165.5,157.8 
					163.9,170.2 151.6,167.9 143,177 134.4,167.9 122.2,170.2 120.6,157.8 109.3,152.5 115.3,141.5 109.3,130.5 120.6,125.2 
					122.2,112.8 134.4,115.1 				"/>
			</g>
			<g>
				<polygon class="st0" points="117.9,141.5 111.8,151.7 122.7,156.3 123.7,168.1 135.3,165.4 143,174.4 150.8,165.4 162.4,168.1 
					163.4,156.3 174.3,151.7 168.2,141.5 174.3,131.3 163.4,126.7 162.4,114.9 150.8,117.6 143,108.6 135.3,117.6 123.7,114.9 
					122.7,126.7 111.8,131.3 				"/>
			</g>
			<g>
				<polygon class="st0" points="143,111.3 150,120.1 160.8,117 161.3,128.3 171.8,132.2 165.5,141.5 171.8,150.8 161.3,154.7 
					160.8,166 150,162.9 143,171.7 136.1,162.9 125.3,166 124.8,154.7 114.3,150.8 120.5,141.5 114.3,132.2 124.8,128.3 125.3,117 
					136.1,120.1 				"/>
			</g>
			<g>
				<polygon class="st0" points="123.2,141.5 116.8,150 127,153.2 126.8,163.8 136.9,160.4 143,169.1 149.2,160.4 159.3,163.8 
					159.1,153.2 169.3,150 162.9,141.5 169.3,133 159.1,129.8 159.3,119.2 149.2,122.6 143,113.9 136.9,122.6 126.8,119.2 
					127,129.8 116.8,133 				"/>
			</g>
			<g>
				<polygon class="st0" points="143,116.5 148.4,125.1 157.7,121.3 157,131.4 166.8,133.8 160.3,141.5 166.8,149.2 157,151.6 
					157.7,161.7 148.4,157.9 143,166.5 137.7,157.9 128.4,161.7 129.1,151.6 119.3,149.2 125.8,141.5 119.3,133.8 129.1,131.4 
					128.4,121.3 137.7,125.1 				"/>
			</g>
			<g>
				<polygon class="st0" points="128.4,141.5 121.8,148.4 131.2,150.1 129.9,159.6 138.5,155.4 143,163.8 147.6,155.4 156.2,159.6 
					154.9,150.1 164.3,148.4 157.6,141.5 164.3,134.6 154.9,132.9 156.2,123.4 147.6,127.6 143,119.2 138.5,127.6 129.9,123.4 
					131.2,132.9 121.8,134.6 				"/>
			</g>
			<g>
				<polygon class="st0" points="143,121.8 146.7,130.1 154.6,125.6 152.7,134.5 161.8,135.4 155,141.5 161.8,147.6 152.7,148.5 
					154.6,157.4 146.7,152.9 143,161.2 139.3,152.9 131.5,157.4 133.4,148.5 124.3,147.6 131.1,141.5 124.3,135.4 133.4,134.5 
					131.5,125.6 139.3,130.1 				"/>
			</g>
			<g>
				<polygon class="st0" points="133.7,141.5 126.8,146.8 135.5,147 133,155.3 140.2,150.4 143,158.5 145.9,150.4 153.1,155.3 
					150.6,147 159.3,146.8 152.4,141.5 159.3,136.2 150.6,136 153.1,127.7 145.9,132.6 143,124.5 140.2,132.6 133,127.7 135.5,136 
					126.8,136.2 				"/>
			</g>
			<g>
				<polygon class="st0" points="143,127.1 145.1,135.1 151.5,129.8 148.5,137.6 156.7,137 149.7,141.5 156.7,146 148.5,145.4 
					151.5,153.2 145.1,147.9 143,155.9 141,147.9 134.6,153.2 137.6,145.4 129.3,146 136.4,141.5 129.3,137 137.6,137.6 
					134.6,129.8 141,135.1 				"/>
			</g>
			<g>
				<polygon class="st0" points="139,141.5 131.8,145.1 139.8,143.9 136.1,151 141.8,145.4 143,153.3 144.3,145.4 150,151 
					146.3,143.9 154.2,145.1 147.1,141.5 154.2,137.9 146.3,139.1 150,132 144.3,137.6 143,129.7 141.8,137.6 136.1,132 
					139.8,139.1 131.8,137.9 				"/>
			</g>
			<g>
				<polygon class="st0" points="143,132.4 143.5,140.2 148.4,134.1 144.2,140.7 151.7,138.7 144.4,141.5 151.7,144.3 144.2,142.3 
					148.4,148.9 143.5,142.8 143,150.6 142.6,142.8 137.7,148.9 141.9,142.3 134.3,144.3 141.6,141.5 134.3,138.7 141.9,140.7 
					137.7,134.1 142.6,140.2 				"/>
			</g>
			<g>
				<polygon class="st0" points="144.3,141.5 136.9,143.5 144,140.8 139.2,146.8 143.4,140.3 143,148 142.7,140.3 146.9,146.8 
					142,140.8 149.2,143.5 141.8,141.5 149.2,139.5 142,142.2 146.9,136.2 142.7,142.7 143,135 143.4,142.7 139.2,136.2 144,142.2 
					136.9,139.5 				"/>
			</g>
		</g>
	</g>
</g>
</svg>
