<svg id="レイヤー_1" data-name="レイヤー 1" xmlns="http://www.w3.org/2000/svg" xmlns:xlink="http://www.w3.org/1999/xlink" width="700" height="700" viewBox="0 0 700 700"><defs><style>.cls-1{opacity:0.91;fill:url(#名称未設定グラデーション_89);}</style><linearGradient id="名称未設定グラデーション_89" x1="23.79" y1="373.79" x2="723.79" y2="373.79" gradientUnits="userSpaceOnUse"><stop offset="0.03" stop-color="#ff2849"/><stop offset="1" stop-color="#596ac4"/></linearGradient></defs><title>shadow</title><path class="cls-1" d="M374.7,23.79v700c1.52,0,3,0,4.55-.06V23.85C377.73,23.82,376.22,23.79,374.7,23.79Z" transform="translate(-23.79 -23.79)"/><path class="cls-1" d="M367.88,23.85V723.72c1.52,0,3,.06,4.55.06v-700C370.91,23.8,369.4,23.83,367.88,23.85Z" transform="translate(-23.79 -23.79)"/><path class="cls-1" d="M381.52,23.87V723.7c1.52,0,3-.09,4.54-.14V24Z" transform="translate(-23.79 -23.79)"/><path class="cls-1" d="M361.06,24V723.54c1.52.06,3,.12,4.55.16V23.88C364.09,23.91,362.58,24,361.06,24Z" transform="translate(-23.79 -23.79)"/><path class="cls-1" d="M395.15,24.44V723.13c1.52-.09,3-.18,4.55-.29V24.73C398.19,24.62,396.67,24.54,395.15,24.44Z" transform="translate(-23.79 -23.79)"/><path class="cls-1" d="M388.34,24.1V723.48c1.51-.07,3-.12,4.54-.21V24.3C391.37,24.22,389.85,24.16,388.34,24.1Z" transform="translate(-23.79 -23.79)"/><path class="cls-1" d="M408.79,25.51V722.06c1.52-.15,3-.33,4.55-.5V26C411.82,25.84,410.31,25.66,408.79,25.51Z" transform="translate(-23.79 -23.79)"/><path class="cls-1" d="M286.06,34.86V712.71c1.51.39,3,.75,4.55,1.12V33.75C289.09,34.12,287.57,34.47,286.06,34.86Z" transform="translate(-23.79 -23.79)"/><path class="cls-1" d="M354.25,24.33V723.25c1.51.08,3,.14,4.54.21V24.12C357.27,24.18,355.76,24.25,354.25,24.33Z" transform="translate(-23.79 -23.79)"/><path class="cls-1" d="M402,24.91V722.67c1.52-.12,3-.27,4.55-.41V25.31C405,25.17,403.49,25,402,24.91Z" transform="translate(-23.79 -23.79)"/><path class="cls-1" d="M299.7,31.66V715.92c1.51.32,3,.65,4.55,1V30.7C302.73,31,301.21,31.33,299.7,31.66Z" transform="translate(-23.79 -23.79)"/><path class="cls-1" d="M347.43,24.76V722.81c1.51.12,3,.2,4.54.29V24.47C350.46,24.57,348.94,24.65,347.43,24.76Z" transform="translate(-23.79 -23.79)"/><path class="cls-1" d="M306.52,30.26V717.31c1.51.3,3,.6,4.54.88V29.39C309.54,29.67,308,30,306.52,30.26Z" transform="translate(-23.79 -23.79)"/><path class="cls-1" d="M292.88,33.19V714.38c1.51.36,3,.7,4.55,1V32.15Z" transform="translate(-23.79 -23.79)"/><path class="cls-1" d="M313.34,29V718.58c1.51.26,3,.51,4.54.75V28.24C316.36,28.48,314.85,28.73,313.34,29Z" transform="translate(-23.79 -23.79)"/><path class="cls-1" d="M333.79,26.06V721.51c1.52.17,3,.36,4.55.51V25.55C336.82,25.71,335.31,25.89,333.79,26.06Z" transform="translate(-23.79 -23.79)"/><path class="cls-1" d="M340.61,25.35V722.22c1.51.15,3,.28,4.54.41V25C343.64,25.07,342.12,25.21,340.61,25.35Z" transform="translate(-23.79 -23.79)"/><path class="cls-1" d="M320.15,27.86V719.71c1.51.23,3,.43,4.55.65V27.22C323.18,27.43,321.66,27.63,320.15,27.86Z" transform="translate(-23.79 -23.79)"/><path class="cls-1" d="M327,26.9V720.67c1.52.21,3,.4,4.55.58V26.32Z" transform="translate(-23.79 -23.79)"/><path class="cls-1" d="M415.61,26.27v695c1.52-.18,3-.36,4.54-.56V26.84C418.64,26.64,417.13,26.45,415.61,26.27Z" transform="translate(-23.79 -23.79)"/><path class="cls-1" d="M511.06,51.74v644.1c1.53-.65,3-1.32,4.55-2V53.73C514.1,53.05,512.59,52.39,511.06,51.74Z" transform="translate(-23.79 -23.79)"/><path class="cls-1" d="M504.25,48.92V698.65c1.52-.61,3-1.22,4.54-1.85v-646Q506.53,49.83,504.25,48.92Z" transform="translate(-23.79 -23.79)"/><path class="cls-1" d="M517.88,54.72V692.85c1.53-.69,3-1.41,4.55-2.12V56.84C520.91,56.13,519.41,55.41,517.88,54.72Z" transform="translate(-23.79 -23.79)"/><path class="cls-1" d="M497.43,46.27v655c1.51-.58,3-1.14,4.54-1.73V48C500.47,47.4,498.94,46.84,497.43,46.27Z" transform="translate(-23.79 -23.79)"/><path class="cls-1" d="M524.7,57.9V689.67c1.52-.73,3-1.48,4.55-2.23V60.14C527.73,59.39,526.22,58.63,524.7,57.9Z" transform="translate(-23.79 -23.79)"/><path class="cls-1" d="M545.15,68.56V679c1.53-.86,3-1.72,4.55-2.6V71.15C548.19,70.27,546.68,69.41,545.15,68.56Z" transform="translate(-23.79 -23.79)"/><path class="cls-1" d="M538.34,64.82V682.76c1.52-.81,3-1.64,4.54-2.47v-613Q540.62,66,538.34,64.82Z" transform="translate(-23.79 -23.79)"/><path class="cls-1" d="M490.61,43.77v660c1.52-.54,3-1.07,4.54-1.63V45.4C493.65,44.85,492.13,44.31,490.61,43.77Z" transform="translate(-23.79 -23.79)"/><path class="cls-1" d="M531.52,61.27v625c1.52-.77,3-1.56,4.54-2.35V63.62C534.55,62.83,533,62,531.52,61.27Z" transform="translate(-23.79 -23.79)"/><path class="cls-1" d="M442.88,30.61V717c1.52-.3,3-.62,4.55-1V31.56Z" transform="translate(-23.79 -23.79)"/><path class="cls-1" d="M449.7,32.06V715.52c1.52-.34,3-.67,4.55-1V33.08C452.74,32.73,451.22,32.39,449.7,32.06Z" transform="translate(-23.79 -23.79)"/><path class="cls-1" d="M483.79,41.44v664.7c1.52-.5,3-1,4.55-1.54V43Q486.08,42.19,483.79,41.44Z" transform="translate(-23.79 -23.79)"/><path class="cls-1" d="M422.43,27.16V720.42c1.51-.21,3-.41,4.54-.64v-692C425.46,27.56,423.94,27.37,422.43,27.16Z" transform="translate(-23.79 -23.79)"/><path class="cls-1" d="M429.25,28.17V719.41c1.51-.24,3-.49,4.54-.75V28.92C432.28,28.66,430.76,28.41,429.25,28.17Z" transform="translate(-23.79 -23.79)"/><path class="cls-1" d="M436.06,29.3v689c1.53-.27,3-.58,4.55-.87V30.18C439.09,29.88,437.59,29.58,436.06,29.3Z" transform="translate(-23.79 -23.79)"/><path class="cls-1" d="M470.15,37.22V710.36c1.53-.44,3-.9,4.55-1.35V38.57C473.19,38.11,471.68,37.65,470.15,37.22Z" transform="translate(-23.79 -23.79)"/><path class="cls-1" d="M477,39.25V708.33c1.52-.47,3-1,4.55-1.45V40.7C480,40.21,478.49,39.71,477,39.25Z" transform="translate(-23.79 -23.79)"/><path class="cls-1" d="M463.34,35.36V712.22c1.52-.4,3-.81,4.54-1.23V36.59C466.37,36.17,464.86,35.76,463.34,35.36Z" transform="translate(-23.79 -23.79)"/><path class="cls-1" d="M456.52,33.64v680.3c1.51-.37,3-.73,4.54-1.11V34.75C459.56,34.36,458,34,456.52,33.64Z" transform="translate(-23.79 -23.79)"/><path class="cls-1" d="M272.43,38.7V708.87c1.51.46,3,.92,4.54,1.35V37.35C275.45,37.79,273.94,38.25,272.43,38.7Z" transform="translate(-23.79 -23.79)"/><path class="cls-1" d="M142.88,110.77v526c1.51,1.32,3,2.63,4.55,3.92V106.85C145.9,108.15,144.39,109.45,142.88,110.77Z" transform="translate(-23.79 -23.79)"/><path class="cls-1" d="M95.15,162V585.6c1.5,2,3,3.92,4.55,5.85V156.13C98.16,158.06,96.65,160,95.15,162Z" transform="translate(-23.79 -23.79)"/><path class="cls-1" d="M81.52,181.2V566.38q2.24,3.38,4.54,6.71V174.48Q83.75,177.81,81.52,181.2Z" transform="translate(-23.79 -23.79)"/><path class="cls-1" d="M88.34,171.21V576.37c1.49,2.1,3,4.17,4.54,6.23V165C91.35,167,89.83,169.11,88.34,171.21Z" transform="translate(-23.79 -23.79)"/><path class="cls-1" d="M102,153.31v441q2.25,2.76,4.55,5.48V147.83C105,149.64,103.47,151.46,102,153.31Z" transform="translate(-23.79 -23.79)"/><path class="cls-1" d="M136.06,116.93V630.65c1.51,1.39,3,2.77,4.55,4.13v-522C139.08,114.16,137.57,115.54,136.06,116.93Z" transform="translate(-23.79 -23.79)"/><path class="cls-1" d="M115.61,137.48V610.09q2.25,2.46,4.54,4.89V132.6Q117.86,135,115.61,137.48Z" transform="translate(-23.79 -23.79)"/><path class="cls-1" d="M129.25,123.42V624.16q2.25,2.21,4.54,4.37V119.05Q131.5,121.21,129.25,123.42Z" transform="translate(-23.79 -23.79)"/><path class="cls-1" d="M122.43,130.26V617.32c1.5,1.55,3,3.1,4.54,4.62V125.64C125.44,127.16,123.93,128.71,122.43,130.26Z" transform="translate(-23.79 -23.79)"/><path class="cls-1" d="M108.79,145.14v457.3q2.25,2.59,4.55,5.14V140Q111,142.55,108.79,145.14Z" transform="translate(-23.79 -23.79)"/><path class="cls-1" d="M33.79,290.48V457.1q2.07,8.47,4.55,16.78V273.69Q35.86,282,33.79,290.48Z" transform="translate(-23.79 -23.79)"/><path class="cls-1" d="M27,326.54V421q1.79,13.25,4.55,26.14V300.4Q28.76,313.3,27,326.54Z" transform="translate(-23.79 -23.79)"/><path class="cls-1" d="M40.61,266.36V481.22c1.43,4.45,2.94,8.88,4.54,13.25V253.1Q42.75,259.67,40.61,266.36Z" transform="translate(-23.79 -23.79)"/><path class="cls-1" d="M74.7,191.91V555.67c1.49,2.44,3,4.86,4.55,7.25V184.65C77.7,187.05,76.19,189.47,74.7,191.91Z" transform="translate(-23.79 -23.79)"/><path class="cls-1" d="M23.79,373.79c0,8.48.32,16.89.91,25.22V348.56C24.11,356.9,23.79,365.3,23.79,373.79Z" transform="translate(-23.79 -23.79)"/><path class="cls-1" d="M47.43,247.12V500.45q2.18,5.61,4.54,11.13V236Q49.61,241.51,47.43,247.12Z" transform="translate(-23.79 -23.79)"/><path class="cls-1" d="M61.06,216.48V531.09c1.48,2.93,3,5.85,4.55,8.73V207.75Q63.27,212.08,61.06,216.48Z" transform="translate(-23.79 -23.79)"/><path class="cls-1" d="M67.88,203.64v340.3q2.22,4,4.55,7.91V195.73Q70.1,199.65,67.88,203.64Z" transform="translate(-23.79 -23.79)"/><path class="cls-1" d="M54.25,230.8v286q2.19,4.9,4.54,9.74V221.06Q56.45,225.89,54.25,230.8Z" transform="translate(-23.79 -23.79)"/><path class="cls-1" d="M211.06,63.85V683.72q2.26,1.2,4.55,2.36V61.49C214.09,62.26,212.57,63.06,211.06,63.85Z" transform="translate(-23.79 -23.79)"/><path class="cls-1" d="M231.52,53.92V693.65q2.26,1,4.54,2V51.93C234.54,52.58,233,53.25,231.52,53.92Z" transform="translate(-23.79 -23.79)"/><path class="cls-1" d="M245.15,48.18V699.4c1.51.6,3,1.16,4.55,1.74V46.44C248.18,47,246.66,47.58,245.15,48.18Z" transform="translate(-23.79 -23.79)"/><path class="cls-1" d="M238.34,51V696.61c1.5.64,3,1.25,4.54,1.86V49.1C241.36,49.72,239.84,50.33,238.34,51Z" transform="translate(-23.79 -23.79)"/><path class="cls-1" d="M224.7,57.05V690.52c1.51.72,3,1.43,4.55,2.12V54.93C227.72,55.62,226.21,56.34,224.7,57.05Z" transform="translate(-23.79 -23.79)"/><path class="cls-1" d="M217.88,60.36V687.21c1.51.76,3,1.52,4.55,2.25V58.11C220.9,58.85,219.39,59.61,217.88,60.36Z" transform="translate(-23.79 -23.79)"/><path class="cls-1" d="M552,72.5V675.08q2.28-1.35,4.55-2.73V75.22C555,74.3,553.49,73.4,552,72.5Z" transform="translate(-23.79 -23.79)"/><path class="cls-1" d="M265.61,40.84V706.73c1.51.49,3,1,4.54,1.47V39.38C268.63,39.85,267.12,40.35,265.61,40.84Z" transform="translate(-23.79 -23.79)"/><path class="cls-1" d="M252,45.57V702c1.51.56,3,1.1,4.55,1.64V43.93C255,44.47,253.48,45,252,45.57Z" transform="translate(-23.79 -23.79)"/><path class="cls-1" d="M258.79,43.13V704.44q2.26.79,4.55,1.55V41.58Z" transform="translate(-23.79 -23.79)"/><path class="cls-1" d="M183.79,79.81v588q2.27,1.46,4.55,2.88V76.92C186.82,77.88,185.3,78.83,183.79,79.81Z" transform="translate(-23.79 -23.79)"/><path class="cls-1" d="M163.34,94.11V653.47c1.5,1.13,3,2.24,4.54,3.35V90.75C166.36,91.86,164.84,93,163.34,94.11Z" transform="translate(-23.79 -23.79)"/><path class="cls-1" d="M177,84.33V663.24c1.51,1,3,2,4.55,3V81.3Q179.24,82.8,177,84.33Z" transform="translate(-23.79 -23.79)"/><path class="cls-1" d="M170.15,89.1V658.48c1.51,1.08,3,2.13,4.55,3.19V85.91Q172.42,87.48,170.15,89.1Z" transform="translate(-23.79 -23.79)"/><path class="cls-1" d="M156.52,99.38V648.19c1.5,1.19,3,2.37,4.54,3.53V95.85C159.54,97,158,98.19,156.52,99.38Z" transform="translate(-23.79 -23.79)"/><path class="cls-1" d="M149.7,104.93V642.64c1.5,1.26,3,2.49,4.55,3.72V101.21Q152,103.06,149.7,104.93Z" transform="translate(-23.79 -23.79)"/><path class="cls-1" d="M197.43,71.42V676.16q2.26,1.32,4.54,2.61v-610Q199.69,70.1,197.43,71.42Z" transform="translate(-23.79 -23.79)"/><path class="cls-1" d="M204.25,67.54V680q2.26,1.26,4.54,2.48V65.05Q206.51,66.28,204.25,67.54Z" transform="translate(-23.79 -23.79)"/><path class="cls-1" d="M279.25,36.71V710.87c1.51.42,3,.82,4.54,1.23V35.48C282.27,35.88,280.76,36.29,279.25,36.71Z" transform="translate(-23.79 -23.79)"/><path class="cls-1" d="M190.61,75.5V672.07q2.26,1.39,4.54,2.74v-602Z" transform="translate(-23.79 -23.79)"/><path class="cls-1" d="M722.43,343v61.51c.88-10.13,1.36-20.39,1.36-30.75S723.31,353.17,722.43,343Z" transform="translate(-23.79 -23.79)"/><path class="cls-1" d="M565.61,81V666.57c1.52-1,3-2,4.54-3V84C568.65,83,567.13,82,565.61,81Z" transform="translate(-23.79 -23.79)"/><path class="cls-1" d="M715.61,298.34V449.23q2.71-12.35,4.54-25V323.34Q718.34,310.7,715.61,298.34Z" transform="translate(-23.79 -23.79)"/><path class="cls-1" d="M592.88,100.85V646.72q2.29-1.83,4.55-3.7V104.55C595.93,103.3,594.41,102.08,592.88,100.85Z" transform="translate(-23.79 -23.79)"/><path class="cls-1" d="M606.52,112.39V635.18q2.29-2,4.54-4.12V116.51C609.56,115.13,608.05,113.75,606.52,112.39Z" transform="translate(-23.79 -23.79)"/><path class="cls-1" d="M708.79,272.19v203.2q2.48-8.14,4.55-16.46V288.64Q711.26,280.33,708.79,272.19Z" transform="translate(-23.79 -23.79)"/><path class="cls-1" d="M599.7,106.48V641.1c1.53-1.29,3-2.59,4.55-3.9V110.38C602.74,109.06,601.23,107.77,599.7,106.48Z" transform="translate(-23.79 -23.79)"/><path class="cls-1" d="M572.43,85.6V662c1.52-1.05,3-2.1,4.54-3.18v-570C575.47,87.7,574,86.65,572.43,85.6Z" transform="translate(-23.79 -23.79)"/><path class="cls-1" d="M579.25,90.43V657.15c1.52-1.11,3-2.21,4.54-3.34v-560C582.29,92.64,580.77,91.53,579.25,90.43Z" transform="translate(-23.79 -23.79)"/><path class="cls-1" d="M586.06,95.51V652.07c1.53-1.17,3.05-2.33,4.55-3.52V99C589.11,97.83,587.59,96.67,586.06,95.51Z" transform="translate(-23.79 -23.79)"/><path class="cls-1" d="M640.61,147.3v453c1.53-1.81,3-3.62,4.54-5.45V152.75C643.66,150.92,642.14,149.1,640.61,147.3Z" transform="translate(-23.79 -23.79)"/><path class="cls-1" d="M661.06,173.84v399.9q2.31-3.32,4.55-6.68V180.52C664.12,178.27,662.6,176.05,661.06,173.84Z" transform="translate(-23.79 -23.79)"/><path class="cls-1" d="M647.43,155.57V592c1.53-1.92,3.05-3.86,4.54-5.82V161.39C650.48,159.44,649,157.5,647.43,155.57Z" transform="translate(-23.79 -23.79)"/><path class="cls-1" d="M654.25,164.36V583.22q2.31-3.09,4.54-6.23V170.59Q656.56,167.46,654.25,164.36Z" transform="translate(-23.79 -23.79)"/><path class="cls-1" d="M681.52,206.9V540.67c1.56-2.87,3.06-5.76,4.54-8.68V215.58C684.58,212.67,683.08,209.77,681.52,206.9Z" transform="translate(-23.79 -23.79)"/><path class="cls-1" d="M702,251.92V495.65c1.6-4.31,3.11-8.67,4.55-13V265Q704.36,258.4,702,251.92Z" transform="translate(-23.79 -23.79)"/><path class="cls-1" d="M627,132.13V615.45c1.54-1.61,3-3.24,4.55-4.88V137C630,135.37,628.51,133.73,627,132.13Z" transform="translate(-23.79 -23.79)"/><path class="cls-1" d="M633.79,139.49V608.08c1.53-1.69,3.05-3.39,4.55-5.12V144.62C636.84,142.89,635.32,141.19,633.79,139.49Z" transform="translate(-23.79 -23.79)"/><path class="cls-1" d="M674.7,195V552.6q2.32-3.9,4.55-7.86V202.84Q677,198.88,674.7,195Z" transform="translate(-23.79 -23.79)"/><path class="cls-1" d="M688.34,220.16V527.42c1.55-3.18,3.08-6.38,4.54-9.62v-288C691.42,226.54,689.89,223.34,688.34,220.16Z" transform="translate(-23.79 -23.79)"/><path class="cls-1" d="M667.88,184V563.6c1.55-2.38,3.06-4.79,4.55-7.21V191.19C670.94,188.76,669.43,186.36,667.88,184Z" transform="translate(-23.79 -23.79)"/><path class="cls-1" d="M695.15,235V512.61q2.37-5.44,4.55-11V246C698.25,242.25,696.73,238.6,695.15,235Z" transform="translate(-23.79 -23.79)"/><path class="cls-1" d="M613.34,118.63V629q2.29-2.16,4.54-4.35V123C616.38,121.52,614.87,120.06,613.34,118.63Z" transform="translate(-23.79 -23.79)"/><path class="cls-1" d="M620.15,125.2V622.38c1.54-1.52,3.05-3.06,4.55-4.6v-488C623.2,128.25,621.69,126.72,620.15,125.2Z" transform="translate(-23.79 -23.79)"/><path class="cls-1" d="M558.79,76.64V670.93c1.52-.95,3-1.89,4.55-2.87V79.51C561.83,78.54,560.31,77.59,558.79,76.64Z" transform="translate(-23.79 -23.79)"/></svg>