<svg id="レイヤー_1" data-name="レイヤー 1" xmlns="http://www.w3.org/2000/svg" xmlns:xlink="http://www.w3.org/1999/xlink" width="742" height="741" viewBox="0 0 742 741"><defs><style>.cls-1{fill:url(#名称未設定グラデーション_3);}.cls-2{fill:url(#名称未設定グラデーション_3-2);}.cls-3{fill:url(#名称未設定グラデーション_3-3);}.cls-4{fill:url(#名称未設定グラデーション_3-4);}.cls-5{fill:url(#名称未設定グラデーション_3-5);}.cls-6{fill:url(#名称未設定グラデーション_3-6);}.cls-7{fill:url(#名称未設定グラデーション_3-7);}.cls-8{fill:url(#名称未設定グラデーション_3-8);}.cls-9{fill:url(#名称未設定グラデーション_3-9);}.cls-10{fill:url(#名称未設定グラデーション_3-10);}.cls-11{fill:url(#名称未設定グラデーション_3-11);}.cls-12{fill:url(#名称未設定グラデーション_3-12);}.cls-13{fill:url(#名称未設定グラデーション_3-13);}.cls-14{fill:url(#名称未設定グラデーション_3-14);}.cls-15{fill:url(#名称未設定グラデーション_3-15);}.cls-16{fill:url(#名称未設定グラデーション_3-16);}.cls-17{fill:url(#名称未設定グラデーション_3-17);}.cls-18{fill:url(#名称未設定グラデーション_3-18);}.cls-19{fill:url(#名称未設定グラデーション_3-19);}.cls-20{fill:url(#名称未設定グラデーション_3-20);}.cls-21{fill:url(#名称未設定グラデーション_3-21);}.cls-22{fill:url(#名称未設定グラデーション_3-22);}.cls-23{fill:url(#名称未設定グラデーション_3-23);}.cls-24{fill:url(#名称未設定グラデーション_3-24);}.cls-25{fill:url(#名称未設定グラデーション_3-25);}.cls-26{fill:url(#名称未設定グラデーション_3-26);}.cls-27{fill:url(#名称未設定グラデーション_3-27);}.cls-28{fill:url(#名称未設定グラデーション_3-28);}.cls-29{fill:url(#名称未設定グラデーション_3-29);}.cls-30{fill:url(#名称未設定グラデーション_3-30);}.cls-31{fill:url(#名称未設定グラデーション_3-31);}.cls-32{fill:url(#名称未設定グラデーション_3-32);}.cls-33{fill:url(#名称未設定グラデーション_3-33);}.cls-34{fill:url(#名称未設定グラデーション_3-34);}.cls-35{fill:url(#名称未設定グラデーション_3-35);}.cls-36{fill:url(#名称未設定グラデーション_3-36);}.cls-37{fill:url(#名称未設定グラデーション_3-37);}.cls-38{fill:url(#名称未設定グラデーション_3-38);}.cls-39{fill:url(#名称未設定グラデーション_3-39);}.cls-40{fill:url(#名称未設定グラデーション_3-40);}.cls-41{fill:url(#名称未設定グラデーション_3-41);}.cls-42{fill:url(#名称未設定グラデーション_3-42);}.cls-43{fill:url(#名称未設定グラデーション_3-43);}.cls-44{fill:url(#名称未設定グラデーション_3-44);}.cls-45{fill:url(#名称未設定グラデーション_3-45);}.cls-46{fill:url(#名称未設定グラデーション_3-46);}.cls-47{fill:url(#名称未設定グラデーション_3-47);}.cls-48{fill:url(#名称未設定グラデーション_3-48);}.cls-49{fill:url(#名称未設定グラデーション_3-49);}.cls-50{fill:url(#名称未設定グラデーション_3-50);}.cls-51{fill:url(#名称未設定グラデーション_3-51);}.cls-52{fill:url(#名称未設定グラデーション_3-52);}.cls-53{fill:url(#名称未設定グラデーション_3-53);}.cls-54{fill:url(#名称未設定グラデーション_3-54);}.cls-55{fill:url(#名称未設定グラデーション_3-55);}.cls-56{fill:url(#名称未設定グラデーション_3-56);}.cls-57{fill:url(#名称未設定グラデーション_3-57);}.cls-58{fill:url(#名称未設定グラデーション_3-58);}.cls-59{fill:url(#名称未設定グラデーション_3-59);}.cls-60{fill:url(#名称未設定グラデーション_3-60);}.cls-61{fill:url(#名称未設定グラデーション_3-61);}.cls-62{fill:url(#名称未設定グラデーション_3-62);}.cls-63{fill:url(#名称未設定グラデーション_3-63);}.cls-64{fill:url(#名称未設定グラデーション_3-64);}.cls-65{fill:url(#名称未設定グラデーション_3-65);}.cls-66{fill:url(#名称未設定グラデーション_3-66);}.cls-67{fill:url(#名称未設定グラデーション_3-67);}.cls-68{fill:url(#名称未設定グラデーション_3-68);}.cls-69{fill:url(#名称未設定グラデーション_3-69);}.cls-70{fill:url(#名称未設定グラデーション_3-70);}.cls-71{fill:url(#名称未設定グラデーション_3-71);}.cls-72{fill:url(#名称未設定グラデーション_3-72);}.cls-73{fill:url(#名称未設定グラデーション_3-73);}.cls-74{fill:url(#名称未設定グラデーション_3-74);}.cls-75{fill:url(#名称未設定グラデーション_3-75);}.cls-76{fill:url(#名称未設定グラデーション_3-76);}.cls-77{fill:url(#名称未設定グラデーション_3-77);}.cls-78{fill:url(#名称未設定グラデーション_3-78);}.cls-79{fill:url(#名称未設定グラデーション_3-79);}.cls-80{fill:url(#名称未設定グラデーション_3-80);}.cls-81{fill:url(#名称未設定グラデーション_3-81);}.cls-82{fill:url(#名称未設定グラデーション_3-82);}.cls-83{fill:url(#名称未設定グラデーション_3-83);}.cls-84{fill:url(#名称未設定グラデーション_3-84);}.cls-85{fill:url(#名称未設定グラデーション_3-85);}.cls-86{fill:url(#名称未設定グラデーション_3-86);}.cls-87{fill:url(#名称未設定グラデーション_3-87);}.cls-88{fill:url(#名称未設定グラデーション_3-88);}.cls-89{fill:url(#名称未設定グラデーション_3-89);}.cls-90{fill:url(#名称未設定グラデーション_3-90);}.cls-91{fill:url(#名称未設定グラデーション_3-91);}.cls-92{fill:url(#名称未設定グラデーション_3-92);}.cls-93{fill:url(#名称未設定グラデーション_3-93);}.cls-94{fill:url(#名称未設定グラデーション_3-94);}.cls-95{fill:url(#名称未設定グラデーション_3-95);}.cls-96{fill:url(#名称未設定グラデーション_3-96);}.cls-97{fill:url(#名称未設定グラデーション_3-97);}.cls-98{fill:url(#名称未設定グラデーション_3-98);}.cls-99{fill:url(#名称未設定グラデーション_3-99);}.cls-100{fill:url(#名称未設定グラデーション_3-100);}.cls-101{fill:url(#名称未設定グラデーション_3-101);}.cls-102{fill:url(#名称未設定グラデーション_3-102);}.cls-103{fill:url(#名称未設定グラデーション_3-103);}.cls-104{fill:url(#名称未設定グラデーション_3-104);}.cls-105{fill:url(#名称未設定グラデーション_3-105);}.cls-106{fill:url(#名称未設定グラデーション_3-106);}.cls-107{fill:url(#名称未設定グラデーション_3-107);}.cls-108{fill:url(#名称未設定グラデーション_3-108);}.cls-109{fill:url(#名称未設定グラデーション_3-109);}.cls-110{fill:url(#名称未設定グラデーション_3-110);}.cls-111{fill:url(#名称未設定グラデーション_3-111);}.cls-112{fill:url(#名称未設定グラデーション_3-112);}.cls-113{fill:url(#名称未設定グラデーション_3-113);}.cls-114{fill:url(#名称未設定グラデーション_3-114);}.cls-115{fill:url(#名称未設定グラデーション_3-115);}.cls-116{fill:url(#名称未設定グラデーション_3-116);}.cls-117{fill:url(#名称未設定グラデーション_3-117);}.cls-118{fill:url(#名称未設定グラデーション_3-118);}.cls-119{fill:url(#名称未設定グラデーション_3-119);}.cls-120{fill:url(#名称未設定グラデーション_3-120);}.cls-121{fill:url(#名称未設定グラデーション_3-121);}.cls-122{fill:url(#名称未設定グラデーション_3-122);}.cls-123{fill:url(#名称未設定グラデーション_3-123);}.cls-124{fill:url(#名称未設定グラデーション_3-124);}.cls-125{fill:url(#名称未設定グラデーション_3-125);}.cls-126{fill:url(#名称未設定グラデーション_3-126);}.cls-127{fill:url(#名称未設定グラデーション_3-127);}.cls-128{fill:url(#名称未設定グラデーション_3-128);}.cls-129{fill:url(#名称未設定グラデーション_3-129);}.cls-130{fill:url(#名称未設定グラデーション_3-130);}.cls-131{fill:url(#名称未設定グラデーション_3-131);}.cls-132{fill:url(#名称未設定グラデーション_3-132);}.cls-133{fill:url(#名称未設定グラデーション_3-133);}.cls-134{fill:url(#名称未設定グラデーション_3-134);}.cls-135{fill:url(#名称未設定グラデーション_3-135);}.cls-136{fill:url(#名称未設定グラデーション_3-136);}.cls-137{fill:url(#名称未設定グラデーション_3-137);}.cls-138{fill:url(#名称未設定グラデーション_3-138);}.cls-139{fill:url(#名称未設定グラデーション_3-139);}.cls-140{fill:url(#名称未設定グラデーション_3-140);}.cls-141{fill:url(#名称未設定グラデーション_3-141);}.cls-142{fill:url(#名称未設定グラデーション_3-142);}.cls-143{fill:url(#名称未設定グラデーション_3-143);}.cls-144{fill:url(#名称未設定グラデーション_3-144);}.cls-145{fill:url(#名称未設定グラデーション_3-145);}.cls-146{fill:url(#名称未設定グラデーション_3-146);}.cls-147{fill:url(#名称未設定グラデーション_3-147);}.cls-148{fill:url(#名称未設定グラデーション_3-148);}.cls-149{fill:url(#名称未設定グラデーション_3-149);}.cls-150{fill:url(#名称未設定グラデーション_3-150);}.cls-151{fill:url(#名称未設定グラデーション_3-151);}.cls-152{fill:url(#名称未設定グラデーション_3-152);}.cls-153{fill:url(#名称未設定グラデーション_3-153);}.cls-154{fill:url(#名称未設定グラデーション_3-154);}.cls-155{fill:url(#名称未設定グラデーション_3-155);}.cls-156{fill:url(#名称未設定グラデーション_3-156);}.cls-157{fill:url(#名称未設定グラデーション_3-157);}.cls-158{fill:url(#名称未設定グラデーション_3-158);}.cls-159{fill:url(#名称未設定グラデーション_3-159);}.cls-160{fill:url(#名称未設定グラデーション_3-160);}.cls-161{fill:url(#名称未設定グラデーション_3-161);}.cls-162{fill:url(#名称未設定グラデーション_3-162);}.cls-163{fill:url(#名称未設定グラデーション_3-163);}.cls-164{fill:url(#名称未設定グラデーション_3-164);}.cls-165{fill:url(#名称未設定グラデーション_3-165);}.cls-166{fill:url(#名称未設定グラデーション_3-166);}.cls-167{fill:url(#名称未設定グラデーション_3-167);}.cls-168{fill:url(#名称未設定グラデーション_3-168);}.cls-169{fill:url(#名称未設定グラデーション_3-169);}.cls-170{fill:url(#名称未設定グラデーション_3-170);}.cls-171{fill:url(#名称未設定グラデーション_3-171);}.cls-172{fill:url(#名称未設定グラデーション_3-172);}.cls-173{fill:url(#名称未設定グラデーション_3-173);}.cls-174{fill:url(#名称未設定グラデーション_3-174);}.cls-175{fill:url(#名称未設定グラデーション_3-175);}.cls-176{fill:url(#名称未設定グラデーション_3-176);}.cls-177{fill:url(#名称未設定グラデーション_3-177);}.cls-178{fill:url(#名称未設定グラデーション_3-178);}.cls-179{fill:url(#名称未設定グラデーション_3-179);}.cls-180{fill:url(#名称未設定グラデーション_3-180);}.cls-181{fill:url(#名称未設定グラデーション_3-181);}.cls-182{fill:url(#名称未設定グラデーション_3-182);}.cls-183{fill:url(#名称未設定グラデーション_3-183);}.cls-184{fill:url(#名称未設定グラデーション_3-184);}.cls-185{fill:url(#名称未設定グラデーション_3-185);}.cls-186{fill:url(#名称未設定グラデーション_3-186);}.cls-187{fill:url(#名称未設定グラデーション_3-187);}.cls-188{fill:url(#名称未設定グラデーション_3-188);}.cls-189{fill:url(#名称未設定グラデーション_3-189);}.cls-190{fill:url(#名称未設定グラデーション_3-190);}.cls-191{fill:url(#名称未設定グラデーション_3-191);}.cls-192{fill:url(#名称未設定グラデーション_3-192);}.cls-193{fill:url(#名称未設定グラデーション_3-193);}.cls-194{fill:url(#名称未設定グラデーション_3-194);}.cls-195{fill:url(#名称未設定グラデーション_3-195);}.cls-196{fill:url(#名称未設定グラデーション_3-196);}.cls-197{fill:url(#名称未設定グラデーション_3-197);}.cls-198{fill:url(#名称未設定グラデーション_3-198);}.cls-199{fill:url(#名称未設定グラデーション_3-199);}.cls-200{fill:url(#名称未設定グラデーション_3-200);}.cls-201{fill:url(#名称未設定グラデーション_3-201);}.cls-202{fill:url(#名称未設定グラデーション_3-202);}.cls-203{fill:url(#名称未設定グラデーション_3-203);}.cls-204{fill:url(#名称未設定グラデーション_3-204);}.cls-205{fill:url(#名称未設定グラデーション_3-205);}.cls-206{fill:url(#名称未設定グラデーション_3-206);}.cls-207{fill:url(#名称未設定グラデーション_3-207);}.cls-208{fill:url(#名称未設定グラデーション_3-208);}.cls-209{fill:url(#名称未設定グラデーション_3-209);}.cls-210{fill:url(#名称未設定グラデーション_3-210);}.cls-211{fill:url(#名称未設定グラデーション_3-211);}.cls-212{fill:url(#名称未設定グラデーション_3-212);}.cls-213{fill:url(#名称未設定グラデーション_3-213);}.cls-214{fill:url(#名称未設定グラデーション_3-214);}.cls-215{fill:url(#名称未設定グラデーション_3-215);}.cls-216{fill:url(#名称未設定グラデーション_3-216);}.cls-217{fill:url(#名称未設定グラデーション_3-217);}.cls-218{fill:url(#名称未設定グラデーション_3-218);}.cls-219{fill:url(#名称未設定グラデーション_3-219);}.cls-220{fill:url(#名称未設定グラデーション_3-220);}.cls-221{fill:url(#名称未設定グラデーション_3-221);}.cls-222{fill:url(#名称未設定グラデーション_3-222);}.cls-223{fill:url(#名称未設定グラデーション_3-223);}.cls-224{fill:url(#名称未設定グラデーション_3-224);}.cls-225{fill:url(#名称未設定グラデーション_3-225);}.cls-226{fill:url(#名称未設定グラデーション_3-226);}.cls-227{fill:url(#名称未設定グラデーション_3-227);}.cls-228{fill:url(#名称未設定グラデーション_3-228);}.cls-229{fill:url(#名称未設定グラデーション_3-229);}.cls-230{fill:url(#名称未設定グラデーション_3-230);}.cls-231{fill:url(#名称未設定グラデーション_3-231);}.cls-232{fill:url(#名称未設定グラデーション_3-232);}.cls-233{fill:url(#名称未設定グラデーション_3-233);}.cls-234{fill:url(#名称未設定グラデーション_3-234);}.cls-235{fill:url(#名称未設定グラデーション_3-235);}.cls-236{fill:url(#名称未設定グラデーション_3-236);}.cls-237{fill:url(#名称未設定グラデーション_3-237);}.cls-238{fill:url(#名称未設定グラデーション_3-238);}.cls-239{fill:url(#名称未設定グラデーション_3-239);}.cls-240{fill:url(#名称未設定グラデーション_3-240);}.cls-241{fill:url(#名称未設定グラデーション_3-241);}.cls-242{fill:url(#名称未設定グラデーション_3-242);}.cls-243{fill:url(#名称未設定グラデーション_3-243);}.cls-244{fill:url(#名称未設定グラデーション_3-244);}.cls-245{fill:url(#名称未設定グラデーション_3-245);}.cls-246{fill:url(#名称未設定グラデーション_3-246);}.cls-247{fill:url(#名称未設定グラデーション_3-247);}.cls-248{fill:url(#名称未設定グラデーション_3-248);}</style><linearGradient id="名称未設定グラデーション_3" x1="606.96" y1="976.17" x2="606.73" y2="234.17" gradientUnits="userSpaceOnUse"><stop offset="0" stop-color="#f7931e"/><stop offset="1" stop-color="#ed1c24"/></linearGradient><linearGradient id="名称未設定グラデーション_3-2" x1="607.08" y1="976.17" x2="606.84" y2="234.17" xlink:href="#名称未設定グラデーション_3"/><linearGradient id="名称未設定グラデーション_3-3" x1="606.96" y1="976.17" x2="606.73" y2="234.17" xlink:href="#名称未設定グラデーション_3"/><linearGradient id="名称未設定グラデーション_3-4" x1="606.96" y1="976.17" x2="606.73" y2="234.17" xlink:href="#名称未設定グラデーション_3"/><linearGradient id="名称未設定グラデーション_3-5" x1="607.08" y1="976.17" x2="606.84" y2="234.17" xlink:href="#名称未設定グラデーション_3"/><linearGradient id="名称未設定グラデーション_3-6" x1="606.96" y1="976.17" x2="606.73" y2="234.17" xlink:href="#名称未設定グラデーション_3"/><linearGradient id="名称未設定グラデーション_3-7" x1="606.97" y1="976.17" x2="606.73" y2="234.17" xlink:href="#名称未設定グラデーション_3"/><linearGradient id="名称未設定グラデーション_3-8" x1="606.95" y1="976.17" x2="606.72" y2="234.17" xlink:href="#名称未設定グラデーション_3"/><linearGradient id="名称未設定グラデーション_3-9" x1="607.08" y1="976.17" x2="606.84" y2="234.17" xlink:href="#名称未設定グラデーション_3"/><linearGradient id="名称未設定グラデーション_3-10" x1="606.97" y1="976.17" x2="606.73" y2="234.17" xlink:href="#名称未設定グラデーション_3"/><linearGradient id="名称未設定グラデーション_3-11" x1="606.96" y1="976.17" x2="606.72" y2="234.17" xlink:href="#名称未設定グラデーション_3"/><linearGradient id="名称未設定グラデーション_3-12" x1="607.08" y1="976.17" x2="606.85" y2="234.17" xlink:href="#名称未設定グラデーション_3"/><linearGradient id="名称未設定グラデーション_3-13" x1="606.97" y1="976.17" x2="606.73" y2="234.17" xlink:href="#名称未設定グラデーション_3"/><linearGradient id="名称未設定グラデーション_3-14" x1="607.08" y1="976.17" x2="606.85" y2="234.17" xlink:href="#名称未設定グラデーション_3"/><linearGradient id="名称未設定グラデーション_3-15" x1="606.96" y1="976.17" x2="606.72" y2="234.17" xlink:href="#名称未設定グラデーション_3"/><linearGradient id="名称未設定グラデーション_3-16" x1="607.08" y1="976.17" x2="606.85" y2="234.17" xlink:href="#名称未設定グラデーション_3"/><linearGradient id="名称未設定グラデーション_3-17" x1="606.96" y1="976.17" x2="606.72" y2="234.17" xlink:href="#名称未設定グラデーション_3"/><linearGradient id="名称未設定グラデーション_3-18" x1="606.96" y1="976.17" x2="606.73" y2="234.17" xlink:href="#名称未設定グラデーション_3"/><linearGradient id="名称未設定グラデーション_3-19" x1="606.96" y1="976.17" x2="606.73" y2="234.17" xlink:href="#名称未設定グラデーション_3"/><linearGradient id="名称未設定グラデーション_3-20" x1="606.96" y1="976.17" x2="606.73" y2="234.17" xlink:href="#名称未設定グラデーション_3"/><linearGradient id="名称未設定グラデーション_3-21" x1="607.08" y1="976.17" x2="606.85" y2="234.17" xlink:href="#名称未設定グラデーション_3"/><linearGradient id="名称未設定グラデーション_3-22" x1="606.96" y1="976.17" x2="606.73" y2="234.17" xlink:href="#名称未設定グラデーション_3"/><linearGradient id="名称未設定グラデーション_3-23" x1="606.98" y1="976.17" x2="606.74" y2="234.17" xlink:href="#名称未設定グラデーション_3"/><linearGradient id="名称未設定グラデーション_3-24" x1="607.07" y1="976.17" x2="606.84" y2="234.17" xlink:href="#名称未設定グラデーション_3"/><linearGradient id="名称未設定グラデーション_3-25" x1="606.97" y1="976.17" x2="606.74" y2="234.17" xlink:href="#名称未設定グラデーション_3"/><linearGradient id="名称未設定グラデーション_3-26" x1="607.07" y1="976.17" x2="606.84" y2="234.17" xlink:href="#名称未設定グラデーション_3"/><linearGradient id="名称未設定グラデーション_3-27" x1="606.98" y1="976.17" x2="606.74" y2="234.17" xlink:href="#名称未設定グラデーション_3"/><linearGradient id="名称未設定グラデーション_3-28" x1="606.98" y1="976.17" x2="606.74" y2="234.17" xlink:href="#名称未設定グラデーション_3"/><linearGradient id="名称未設定グラデーション_3-29" x1="607.07" y1="976.17" x2="606.84" y2="234.17" xlink:href="#名称未設定グラデーション_3"/><linearGradient id="名称未設定グラデーション_3-30" x1="606.98" y1="976.17" x2="606.75" y2="234.17" xlink:href="#名称未設定グラデーション_3"/><linearGradient id="名称未設定グラデーション_3-31" x1="607.07" y1="976.17" x2="606.84" y2="234.17" xlink:href="#名称未設定グラデーション_3"/><linearGradient id="名称未設定グラデーション_3-32" x1="606.98" y1="976.17" x2="606.75" y2="234.17" xlink:href="#名称未設定グラデーション_3"/><linearGradient id="名称未設定グラデーション_3-33" x1="606.98" y1="976.17" x2="606.75" y2="234.17" xlink:href="#名称未設定グラデーション_3"/><linearGradient id="名称未設定グラデーション_3-34" x1="607.07" y1="976.17" x2="606.83" y2="234.17" xlink:href="#名称未設定グラデーション_3"/><linearGradient id="名称未設定グラデーション_3-35" x1="606.97" y1="976.17" x2="606.74" y2="234.17" xlink:href="#名称未設定グラデーション_3"/><linearGradient id="名称未設定グラデーション_3-36" x1="607.07" y1="976.17" x2="606.84" y2="234.17" xlink:href="#名称未設定グラデーション_3"/><linearGradient id="名称未設定グラデーション_3-37" x1="606.97" y1="976.17" x2="606.74" y2="234.17" xlink:href="#名称未設定グラデーション_3"/><linearGradient id="名称未設定グラデーション_3-38" x1="606.97" y1="976.17" x2="606.74" y2="234.17" xlink:href="#名称未設定グラデーション_3"/><linearGradient id="名称未設定グラデーション_3-39" x1="606.97" y1="976.17" x2="606.74" y2="234.17" xlink:href="#名称未設定グラデーション_3"/><linearGradient id="名称未設定グラデーション_3-40" x1="607.07" y1="976.17" x2="606.84" y2="234.17" xlink:href="#名称未設定グラデーション_3"/><linearGradient id="名称未設定グラデーション_3-41" x1="606.97" y1="976.17" x2="606.74" y2="234.17" xlink:href="#名称未設定グラデーション_3"/><linearGradient id="名称未設定グラデーション_3-42" x1="606.97" y1="976.17" x2="606.74" y2="234.17" xlink:href="#名称未設定グラデーション_3"/><linearGradient id="名称未設定グラデーション_3-43" x1="606.97" y1="976.17" x2="606.74" y2="234.17" xlink:href="#名称未設定グラデーション_3"/><linearGradient id="名称未設定グラデーション_3-44" x1="607.07" y1="976.17" x2="606.84" y2="234.17" xlink:href="#名称未設定グラデーション_3"/><linearGradient id="名称未設定グラデーション_3-45" x1="606.94" y1="976.17" x2="606.71" y2="234.17" xlink:href="#名称未設定グラデーション_3"/><linearGradient id="名称未設定グラデーション_3-46" x1="607.09" y1="976.17" x2="606.86" y2="234.17" xlink:href="#名称未設定グラデーション_3"/><linearGradient id="名称未設定グラデーション_3-47" x1="606.93" y1="976.17" x2="606.7" y2="234.17" xlink:href="#名称未設定グラデーション_3"/><linearGradient id="名称未設定グラデーション_3-48" x1="606.93" y1="976.17" x2="606.7" y2="234.17" xlink:href="#名称未設定グラデーション_3"/><linearGradient id="名称未設定グラデーション_3-49" x1="606.93" y1="976.17" x2="606.7" y2="234.17" xlink:href="#名称未設定グラデーション_3"/><linearGradient id="名称未設定グラデーション_3-50" x1="607.04" y1="976.17" x2="606.81" y2="234.17" xlink:href="#名称未設定グラデーション_3"/><linearGradient id="名称未設定グラデーション_3-51" x1="606.94" y1="976.17" x2="606.7" y2="234.17" xlink:href="#名称未設定グラデーション_3"/><linearGradient id="名称未設定グラデーション_3-52" x1="606.94" y1="976.17" x2="606.71" y2="234.17" xlink:href="#名称未設定グラデーション_3"/><linearGradient id="名称未設定グラデーション_3-53" x1="606.94" y1="976.17" x2="606.71" y2="234.17" xlink:href="#名称未設定グラデーション_3"/><linearGradient id="名称未設定グラデーション_3-54" x1="607.09" y1="976.17" x2="606.86" y2="234.17" xlink:href="#名称未設定グラデーション_3"/><linearGradient id="名称未設定グラデーション_3-55" x1="606.94" y1="976.17" x2="606.7" y2="234.17" xlink:href="#名称未設定グラデーション_3"/><linearGradient id="名称未設定グラデーション_3-56" x1="607.09" y1="976.17" x2="606.86" y2="234.17" xlink:href="#名称未設定グラデーション_3"/><linearGradient id="名称未設定グラデーション_3-57" x1="607.09" y1="976.17" x2="606.86" y2="234.17" xlink:href="#名称未設定グラデーション_3"/><linearGradient id="名称未設定グラデーション_3-58" x1="606.93" y1="976.17" x2="606.69" y2="234.17" xlink:href="#名称未設定グラデーション_3"/><linearGradient id="名称未設定グラデーション_3-59" x1="607.09" y1="976.17" x2="606.86" y2="234.17" xlink:href="#名称未設定グラデーション_3"/><linearGradient id="名称未設定グラデーション_3-60" x1="606.95" y1="976.17" x2="606.72" y2="234.17" xlink:href="#名称未設定グラデーション_3"/><linearGradient id="名称未設定グラデーション_3-61" x1="607.09" y1="976.17" x2="606.86" y2="234.17" xlink:href="#名称未設定グラデーション_3"/><linearGradient id="名称未設定グラデーション_3-62" x1="606.93" y1="976.17" x2="606.7" y2="234.17" xlink:href="#名称未設定グラデーション_3"/><linearGradient id="名称未設定グラデーション_3-63" x1="606.93" y1="976.17" x2="606.69" y2="234.17" xlink:href="#名称未設定グラデーション_3"/><linearGradient id="名称未設定グラデーション_3-64" x1="607.09" y1="976.17" x2="606.86" y2="234.17" xlink:href="#名称未設定グラデーション_3"/><linearGradient id="名称未設定グラデーション_3-65" x1="606.93" y1="976.17" x2="606.7" y2="234.17" xlink:href="#名称未設定グラデーション_3"/><linearGradient id="名称未設定グラデーション_3-66" x1="606.93" y1="976.17" x2="606.7" y2="234.17" xlink:href="#名称未設定グラデーション_3"/><linearGradient id="名称未設定グラデーション_3-67" x1="606.93" y1="976.17" x2="606.7" y2="234.17" xlink:href="#名称未設定グラデーション_3"/><linearGradient id="名称未設定グラデーション_3-68" x1="606.93" y1="976.17" x2="606.69" y2="234.17" xlink:href="#名称未設定グラデーション_3"/><linearGradient id="名称未設定グラデーション_3-69" x1="606.95" y1="976.17" x2="606.72" y2="234.17" xlink:href="#名称未設定グラデーション_3"/><linearGradient id="名称未設定グラデーション_3-70" x1="606.95" y1="976.17" x2="606.72" y2="234.17" xlink:href="#名称未設定グラデーション_3"/><linearGradient id="名称未設定グラデーション_3-71" x1="607.08" y1="976.17" x2="606.85" y2="234.17" xlink:href="#名称未設定グラデーション_3"/><linearGradient id="名称未設定グラデーション_3-72" x1="606.95" y1="976.17" x2="606.71" y2="234.17" xlink:href="#名称未設定グラデーション_3"/><linearGradient id="名称未設定グラデーション_3-73" x1="607.09" y1="976.17" x2="606.86" y2="234.17" xlink:href="#名称未設定グラデーション_3"/><linearGradient id="名称未設定グラデーション_3-74" x1="606.95" y1="976.17" x2="606.72" y2="234.17" xlink:href="#名称未設定グラデーション_3"/><linearGradient id="名称未設定グラデーション_3-75" x1="606.95" y1="976.17" x2="606.71" y2="234.17" xlink:href="#名称未設定グラデーション_3"/><linearGradient id="名称未設定グラデーション_3-76" x1="607.08" y1="976.17" x2="606.85" y2="234.17" xlink:href="#名称未設定グラデーション_3"/><linearGradient id="名称未設定グラデーション_3-77" x1="607.08" y1="976.17" x2="606.85" y2="234.17" xlink:href="#名称未設定グラデーション_3"/><linearGradient id="名称未設定グラデーション_3-78" x1="606.95" y1="976.17" x2="606.72" y2="234.17" xlink:href="#名称未設定グラデーション_3"/><linearGradient id="名称未設定グラデーション_3-79" x1="606.95" y1="976.17" x2="606.72" y2="234.17" xlink:href="#名称未設定グラデーション_3"/><linearGradient id="名称未設定グラデーション_3-80" x1="607.08" y1="976.17" x2="606.85" y2="234.17" xlink:href="#名称未設定グラデーション_3"/><linearGradient id="名称未設定グラデーション_3-81" x1="606.94" y1="976.17" x2="606.71" y2="234.17" xlink:href="#名称未設定グラデーション_3"/><linearGradient id="名称未設定グラデーション_3-82" x1="607.09" y1="976.17" x2="606.85" y2="234.17" xlink:href="#名称未設定グラデーション_3"/><linearGradient id="名称未設定グラデーション_3-83" x1="606.94" y1="976.17" x2="606.71" y2="234.17" xlink:href="#名称未設定グラデーション_3"/><linearGradient id="名称未設定グラデーション_3-84" x1="606.94" y1="976.17" x2="606.71" y2="234.17" xlink:href="#名称未設定グラデーション_3"/><linearGradient id="名称未設定グラデーション_3-85" x1="606.95" y1="976.17" x2="606.71" y2="234.17" xlink:href="#名称未設定グラデーション_3"/><linearGradient id="名称未設定グラデーション_3-86" x1="606.94" y1="976.17" x2="606.71" y2="234.17" xlink:href="#名称未設定グラデーション_3"/><linearGradient id="名称未設定グラデーション_3-87" x1="606.98" y1="976.17" x2="606.75" y2="234.17" xlink:href="#名称未設定グラデーション_3"/><linearGradient id="名称未設定グラデーション_3-88" x1="607.09" y1="976.17" x2="606.85" y2="234.17" xlink:href="#名称未設定グラデーション_3"/><linearGradient id="名称未設定グラデーション_3-89" x1="607.09" y1="976.17" x2="606.85" y2="234.17" xlink:href="#名称未設定グラデーション_3"/><linearGradient id="名称未設定グラデーション_3-90" x1="606.94" y1="976.17" x2="606.71" y2="234.17" xlink:href="#名称未設定グラデーション_3"/><linearGradient id="名称未設定グラデーション_3-91" x1="607.04" y1="976.17" x2="606.81" y2="234.17" xlink:href="#名称未設定グラデーション_3"/><linearGradient id="名称未設定グラデーション_3-92" x1="607.02" y1="976.17" x2="606.79" y2="234.17" xlink:href="#名称未設定グラデーション_3"/><linearGradient id="名称未設定グラデーション_3-93" x1="607.02" y1="976.17" x2="606.79" y2="234.17" xlink:href="#名称未設定グラデーション_3"/><linearGradient id="名称未設定グラデーション_3-94" x1="607.05" y1="976.17" x2="606.81" y2="234.17" xlink:href="#名称未設定グラデーション_3"/><linearGradient id="名称未設定グラデーション_3-95" x1="607.05" y1="976.17" x2="606.81" y2="234.17" xlink:href="#名称未設定グラデーション_3"/><linearGradient id="名称未設定グラデーション_3-96" x1="607.02" y1="976.17" x2="606.78" y2="234.17" xlink:href="#名称未設定グラデーション_3"/><linearGradient id="名称未設定グラデーション_3-97" x1="607.02" y1="976.17" x2="606.79" y2="234.17" xlink:href="#名称未設定グラデーション_3"/><linearGradient id="名称未設定グラデーション_3-98" x1="607.02" y1="976.17" x2="606.79" y2="234.17" xlink:href="#名称未設定グラデーション_3"/><linearGradient id="名称未設定グラデーション_3-99" x1="607.02" y1="976.17" x2="606.79" y2="234.17" xlink:href="#名称未設定グラデーション_3"/><linearGradient id="名称未設定グラデーション_3-100" x1="607.02" y1="976.17" x2="606.79" y2="234.17" xlink:href="#名称未設定グラデーション_3"/><linearGradient id="名称未設定グラデーション_3-101" x1="607.05" y1="976.17" x2="606.81" y2="234.17" xlink:href="#名称未設定グラデーション_3"/><linearGradient id="名称未設定グラデーション_3-102" x1="607.02" y1="976.17" x2="606.79" y2="234.17" xlink:href="#名称未設定グラデーション_3"/><linearGradient id="名称未設定グラデーション_3-103" x1="607.05" y1="976.17" x2="606.82" y2="234.17" xlink:href="#名称未設定グラデーション_3"/><linearGradient id="名称未設定グラデーション_3-104" x1="607.01" y1="976.17" x2="606.78" y2="234.17" xlink:href="#名称未設定グラデーション_3"/><linearGradient id="名称未設定グラデーション_3-105" x1="607.05" y1="976.17" x2="606.82" y2="234.17" xlink:href="#名称未設定グラデーション_3"/><linearGradient id="名称未設定グラデーション_3-106" x1="607.01" y1="976.17" x2="606.78" y2="234.17" xlink:href="#名称未設定グラデーション_3"/><linearGradient id="名称未設定グラデーション_3-107" x1="607.05" y1="976.17" x2="606.82" y2="234.17" xlink:href="#名称未設定グラデーション_3"/><linearGradient id="名称未設定グラデーション_3-108" x1="607.01" y1="976.17" x2="606.78" y2="234.17" xlink:href="#名称未設定グラデーション_3"/><linearGradient id="名称未設定グラデーション_3-109" x1="607.05" y1="976.17" x2="606.82" y2="234.17" xlink:href="#名称未設定グラデーション_3"/><linearGradient id="名称未設定グラデーション_3-110" x1="607.01" y1="976.17" x2="606.78" y2="234.17" xlink:href="#名称未設定グラデーション_3"/><linearGradient id="名称未設定グラデーション_3-111" x1="607.02" y1="976.17" x2="606.78" y2="234.17" xlink:href="#名称未設定グラデーション_3"/><linearGradient id="名称未設定グラデーション_3-112" x1="607.02" y1="976.17" x2="606.78" y2="234.17" xlink:href="#名称未設定グラデーション_3"/><linearGradient id="名称未設定グラデーション_3-113" x1="607.05" y1="976.17" x2="606.82" y2="234.17" xlink:href="#名称未設定グラデーション_3"/><linearGradient id="名称未設定グラデーション_3-114" x1="607.04" y1="976.17" x2="606.8" y2="234.17" xlink:href="#名称未設定グラデーション_3"/><linearGradient id="名称未設定グラデーション_3-115" x1="607.03" y1="976.17" x2="606.8" y2="234.17" xlink:href="#名称未設定グラデーション_3"/><linearGradient id="名称未設定グラデーション_3-116" x1="606.98" y1="976.17" x2="606.75" y2="234.17" xlink:href="#名称未設定グラデーション_3"/><linearGradient id="名称未設定グラデーション_3-117" x1="607.03" y1="976.17" x2="606.8" y2="234.17" xlink:href="#名称未設定グラデーション_3"/><linearGradient id="名称未設定グラデーション_3-118" x1="607.03" y1="976.17" x2="606.8" y2="234.17" xlink:href="#名称未設定グラデーション_3"/><linearGradient id="名称未設定グラデーション_3-119" x1="607.04" y1="976.17" x2="606.8" y2="234.17" xlink:href="#名称未設定グラデーション_3"/><linearGradient id="名称未設定グラデーション_3-120" x1="607.04" y1="976.17" x2="606.81" y2="234.17" xlink:href="#名称未設定グラデーション_3"/><linearGradient id="名称未設定グラデーション_3-121" x1="607.02" y1="976.17" x2="606.79" y2="234.17" xlink:href="#名称未設定グラデーション_3"/><linearGradient id="名称未設定グラデーション_3-122" x1="607.04" y1="976.17" x2="606.81" y2="234.17" xlink:href="#名称未設定グラデーション_3"/><linearGradient id="名称未設定グラデーション_3-123" x1="607.01" y1="976.17" x2="606.78" y2="234.17" xlink:href="#名称未設定グラデーション_3"/><linearGradient id="名称未設定グラデーション_3-124" x1="607.04" y1="976.17" x2="606.8" y2="234.17" xlink:href="#名称未設定グラデーション_3"/><linearGradient id="名称未設定グラデーション_3-125" x1="607.04" y1="976.17" x2="606.8" y2="234.17" xlink:href="#名称未設定グラデーション_3"/><linearGradient id="名称未設定グラデーション_3-126" x1="607.04" y1="976.17" x2="606.81" y2="234.17" xlink:href="#名称未設定グラデーション_3"/><linearGradient id="名称未設定グラデーション_3-127" x1="607.03" y1="976.17" x2="606.79" y2="234.17" xlink:href="#名称未設定グラデーション_3"/><linearGradient id="名称未設定グラデーション_3-128" x1="607.03" y1="976.17" x2="606.79" y2="234.17" xlink:href="#名称未設定グラデーション_3"/><linearGradient id="名称未設定グラデーション_3-129" x1="607.04" y1="976.17" x2="606.81" y2="234.17" xlink:href="#名称未設定グラデーション_3"/><linearGradient id="名称未設定グラデーション_3-130" x1="606.93" y1="976.17" x2="606.69" y2="234.17" xlink:href="#名称未設定グラデーション_3"/><linearGradient id="名称未設定グラデーション_3-131" x1="607.03" y1="976.17" x2="606.79" y2="234.17" xlink:href="#名称未設定グラデーション_3"/><linearGradient id="名称未設定グラデーション_3-132" x1="607.03" y1="976.17" x2="606.8" y2="234.17" xlink:href="#名称未設定グラデーション_3"/><linearGradient id="名称未設定グラデーション_3-133" x1="607.03" y1="976.17" x2="606.8" y2="234.17" xlink:href="#名称未設定グラデーション_3"/><linearGradient id="名称未設定グラデーション_3-134" x1="607.03" y1="976.17" x2="606.8" y2="234.17" xlink:href="#名称未設定グラデーション_3"/><linearGradient id="名称未設定グラデーション_3-135" x1="607.04" y1="976.17" x2="606.81" y2="234.17" xlink:href="#名称未設定グラデーション_3"/><linearGradient id="名称未設定グラデーション_3-136" x1="607.03" y1="976.17" x2="606.8" y2="234.17" xlink:href="#名称未設定グラデーション_3"/><linearGradient id="名称未設定グラデーション_3-137" x1="607.04" y1="976.17" x2="606.81" y2="234.17" xlink:href="#名称未設定グラデーション_3"/><linearGradient id="名称未設定グラデーション_3-138" x1="606.99" y1="976.17" x2="606.76" y2="234.17" xlink:href="#名称未設定グラデーション_3"/><linearGradient id="名称未設定グラデーション_3-139" x1="606.99" y1="976.17" x2="606.76" y2="234.17" xlink:href="#名称未設定グラデーション_3"/><linearGradient id="名称未設定グラデーション_3-140" x1="607.06" y1="976.17" x2="606.83" y2="234.17" xlink:href="#名称未設定グラデーション_3"/><linearGradient id="名称未設定グラデーション_3-141" x1="606.99" y1="976.17" x2="606.76" y2="234.17" xlink:href="#名称未設定グラデーション_3"/><linearGradient id="名称未設定グラデーション_3-142" x1="607.06" y1="976.17" x2="606.83" y2="234.17" xlink:href="#名称未設定グラデーション_3"/><linearGradient id="名称未設定グラデーション_3-143" x1="606.99" y1="976.17" x2="606.76" y2="234.17" xlink:href="#名称未設定グラデーション_3"/><linearGradient id="名称未設定グラデーション_3-144" x1="606.99" y1="976.17" x2="606.76" y2="234.17" xlink:href="#名称未設定グラデーション_3"/><linearGradient id="名称未設定グラデーション_3-145" x1="607" y1="976.17" x2="606.76" y2="234.17" xlink:href="#名称未設定グラデーション_3"/><linearGradient id="名称未設定グラデーション_3-146" x1="606.99" y1="976.17" x2="606.76" y2="234.17" xlink:href="#名称未設定グラデーション_3"/><linearGradient id="名称未設定グラデーション_3-147" x1="607.06" y1="976.17" x2="606.83" y2="234.17" xlink:href="#名称未設定グラデーション_3"/><linearGradient id="名称未設定グラデーション_3-148" x1="606.99" y1="976.17" x2="606.76" y2="234.17" xlink:href="#名称未設定グラデーション_3"/><linearGradient id="名称未設定グラデーション_3-149" x1="606.99" y1="976.17" x2="606.75" y2="234.17" xlink:href="#名称未設定グラデーション_3"/><linearGradient id="名称未設定グラデーション_3-150" x1="606.99" y1="976.17" x2="606.75" y2="234.17" xlink:href="#名称未設定グラデーション_3"/><linearGradient id="名称未設定グラデーション_3-151" x1="606.98" y1="976.17" x2="606.75" y2="234.17" xlink:href="#名称未設定グラデーション_3"/><linearGradient id="名称未設定グラデーション_3-152" x1="607.07" y1="976.17" x2="606.83" y2="234.17" xlink:href="#名称未設定グラデーション_3"/><linearGradient id="名称未設定グラデーション_3-153" x1="607.07" y1="976.17" x2="606.83" y2="234.17" xlink:href="#名称未設定グラデーション_3"/><linearGradient id="名称未設定グラデーション_3-154" x1="606.98" y1="976.17" x2="606.75" y2="234.17" xlink:href="#名称未設定グラデーション_3"/><linearGradient id="名称未設定グラデーション_3-155" x1="606.99" y1="976.17" x2="606.75" y2="234.17" xlink:href="#名称未設定グラデーション_3"/><linearGradient id="名称未設定グラデーション_3-156" x1="607.06" y1="976.17" x2="606.83" y2="234.17" xlink:href="#名称未設定グラデーション_3"/><linearGradient id="名称未設定グラデーション_3-157" x1="606.99" y1="976.17" x2="606.76" y2="234.17" xlink:href="#名称未設定グラデーション_3"/><linearGradient id="名称未設定グラデーション_3-158" x1="607.06" y1="976.17" x2="606.83" y2="234.17" xlink:href="#名称未設定グラデーション_3"/><linearGradient id="名称未設定グラデーション_3-159" x1="607.06" y1="976.17" x2="606.83" y2="234.17" xlink:href="#名称未設定グラデーション_3"/><linearGradient id="名称未設定グラデーション_3-160" x1="607.01" y1="976.17" x2="606.77" y2="234.17" xlink:href="#名称未設定グラデーション_3"/><linearGradient id="名称未設定グラデーション_3-161" x1="607.01" y1="976.17" x2="606.77" y2="234.17" xlink:href="#名称未設定グラデーション_3"/><linearGradient id="名称未設定グラデーション_3-162" x1="607.06" y1="976.17" x2="606.82" y2="234.17" xlink:href="#名称未設定グラデーション_3"/><linearGradient id="名称未設定グラデーション_3-163" x1="607" y1="976.17" x2="606.77" y2="234.17" xlink:href="#名称未設定グラデーション_3"/><linearGradient id="名称未設定グラデーション_3-164" x1="607.06" y1="976.17" x2="606.82" y2="234.17" xlink:href="#名称未設定グラデーション_3"/><linearGradient id="名称未設定グラデーション_3-165" x1="607.01" y1="976.17" x2="606.78" y2="234.17" xlink:href="#名称未設定グラデーション_3"/><linearGradient id="名称未設定グラデーション_3-166" x1="607.01" y1="976.17" x2="606.77" y2="234.17" xlink:href="#名称未設定グラデーション_3"/><linearGradient id="名称未設定グラデーション_3-167" x1="607.05" y1="976.17" x2="606.82" y2="234.17" xlink:href="#名称未設定グラデーション_3"/><linearGradient id="名称未設定グラデーション_3-168" x1="607.05" y1="976.17" x2="606.82" y2="234.17" xlink:href="#名称未設定グラデーション_3"/><linearGradient id="名称未設定グラデーション_3-169" x1="607.01" y1="976.17" x2="606.78" y2="234.17" xlink:href="#名称未設定グラデーション_3"/><linearGradient id="名称未設定グラデーション_3-170" x1="607.01" y1="976.17" x2="606.78" y2="234.17" xlink:href="#名称未設定グラデーション_3"/><linearGradient id="名称未設定グラデーション_3-171" x1="607" y1="976.17" x2="606.77" y2="234.17" xlink:href="#名称未設定グラデーション_3"/><linearGradient id="名称未設定グラデーション_3-172" x1="607" y1="976.17" x2="606.77" y2="234.17" xlink:href="#名称未設定グラデーション_3"/><linearGradient id="名称未設定グラデーション_3-173" x1="607.06" y1="976.17" x2="606.83" y2="234.17" xlink:href="#名称未設定グラデーション_3"/><linearGradient id="名称未設定グラデーション_3-174" x1="607" y1="976.17" x2="606.77" y2="234.17" xlink:href="#名称未設定グラデーション_3"/><linearGradient id="名称未設定グラデーション_3-175" x1="607.06" y1="976.17" x2="606.83" y2="234.17" xlink:href="#名称未設定グラデーション_3"/><linearGradient id="名称未設定グラデーション_3-176" x1="607" y1="976.17" x2="606.76" y2="234.17" xlink:href="#名称未設定グラデーション_3"/><linearGradient id="名称未設定グラデーション_3-177" x1="607.06" y1="976.17" x2="606.82" y2="234.17" xlink:href="#名称未設定グラデーション_3"/><linearGradient id="名称未設定グラデーション_3-178" x1="607" y1="976.17" x2="606.77" y2="234.17" xlink:href="#名称未設定グラデーション_3"/><linearGradient id="名称未設定グラデーション_3-179" x1="607" y1="976.17" x2="606.77" y2="234.17" xlink:href="#名称未設定グラデーション_3"/><linearGradient id="名称未設定グラデーション_3-180" x1="607" y1="976.17" x2="606.76" y2="234.17" xlink:href="#名称未設定グラデーション_3"/><linearGradient id="名称未設定グラデーション_3-181" x1="607" y1="976.17" x2="606.77" y2="234.17" xlink:href="#名称未設定グラデーション_3"/><linearGradient id="名称未設定グラデーション_3-182" x1="606.94" y1="976.17" x2="606.7" y2="234.17" xlink:href="#名称未設定グラデーション_3"/><linearGradient id="名称未設定グラデーション_3-183" x1="607.12" y1="976.17" x2="606.89" y2="234.17" xlink:href="#名称未設定グラデーション_3"/><linearGradient id="名称未設定グラデーション_3-184" x1="607.1" y1="976.17" x2="606.86" y2="234.17" xlink:href="#名称未設定グラデーション_3"/><linearGradient id="名称未設定グラデーション_3-185" x1="607.12" y1="976.17" x2="606.89" y2="234.17" xlink:href="#名称未設定グラデーション_3"/><linearGradient id="名称未設定グラデーション_3-186" x1="607.12" y1="976.17" x2="606.89" y2="234.17" xlink:href="#名称未設定グラデーション_3"/><linearGradient id="名称未設定グラデーション_3-187" x1="607.15" y1="976.17" x2="606.92" y2="234.17" xlink:href="#名称未設定グラデーション_3"/><linearGradient id="名称未設定グラデーション_3-188" x1="607.12" y1="976.17" x2="606.89" y2="234.17" xlink:href="#名称未設定グラデーション_3"/><linearGradient id="名称未設定グラデーション_3-189" x1="607.13" y1="976.17" x2="606.89" y2="234.17" xlink:href="#名称未設定グラデーション_3"/><linearGradient id="名称未設定グラデーション_3-190" x1="607.12" y1="976.17" x2="606.89" y2="234.17" xlink:href="#名称未設定グラデーション_3"/><linearGradient id="名称未設定グラデーション_3-191" x1="607.12" y1="976.17" x2="606.89" y2="234.17" xlink:href="#名称未設定グラデーション_3"/><linearGradient id="名称未設定グラデーション_3-192" x1="607.12" y1="976.17" x2="606.89" y2="234.17" xlink:href="#名称未設定グラデーション_3"/><linearGradient id="名称未設定グラデーション_3-193" x1="607.12" y1="976.17" x2="606.89" y2="234.17" xlink:href="#名称未設定グラデーション_3"/><linearGradient id="名称未設定グラデーション_3-194" x1="607.15" y1="976.17" x2="606.92" y2="234.17" xlink:href="#名称未設定グラデーション_3"/><linearGradient id="名称未設定グラデーション_3-195" x1="607.11" y1="976.17" x2="606.88" y2="234.17" xlink:href="#名称未設定グラデーション_3"/><linearGradient id="名称未設定グラデーション_3-196" x1="607.11" y1="976.17" x2="606.88" y2="234.17" xlink:href="#名称未設定グラデーション_3"/><linearGradient id="名称未設定グラデーション_3-197" x1="607.11" y1="976.17" x2="606.88" y2="234.17" xlink:href="#名称未設定グラデーション_3"/><linearGradient id="名称未設定グラデーション_3-198" x1="607.11" y1="976.17" x2="606.88" y2="234.17" xlink:href="#名称未設定グラデーション_3"/><linearGradient id="名称未設定グラデーション_3-199" x1="607.11" y1="976.17" x2="606.88" y2="234.17" xlink:href="#名称未設定グラデーション_3"/><linearGradient id="名称未設定グラデーション_3-200" x1="607.12" y1="976.17" x2="606.88" y2="234.17" xlink:href="#名称未設定グラデーション_3"/><linearGradient id="名称未設定グラデーション_3-201" x1="607.12" y1="976.17" x2="606.88" y2="234.17" xlink:href="#名称未設定グラデーション_3"/><linearGradient id="名称未設定グラデーション_3-202" x1="607.12" y1="976.17" x2="606.88" y2="234.17" xlink:href="#名称未設定グラデーション_3"/><linearGradient id="名称未設定グラデーション_3-203" x1="607.13" y1="976.17" x2="606.89" y2="234.17" xlink:href="#名称未設定グラデーション_3"/><linearGradient id="名称未設定グラデーション_3-204" x1="607.15" y1="976.17" x2="606.92" y2="234.17" xlink:href="#名称未設定グラデーション_3"/><linearGradient id="名称未設定グラデーション_3-205" x1="607.14" y1="976.17" x2="606.91" y2="234.17" xlink:href="#名称未設定グラデーション_3"/><linearGradient id="名称未設定グラデーション_3-206" x1="607.14" y1="976.17" x2="606.91" y2="234.17" xlink:href="#名称未設定グラデーション_3"/><linearGradient id="名称未設定グラデーション_3-207" x1="607.14" y1="976.17" x2="606.91" y2="234.17" xlink:href="#名称未設定グラデーション_3"/><linearGradient id="名称未設定グラデーション_3-208" x1="607.14" y1="976.17" x2="606.91" y2="234.17" xlink:href="#名称未設定グラデーション_3"/><linearGradient id="名称未設定グラデーション_3-209" x1="607.14" y1="976.17" x2="606.91" y2="234.17" xlink:href="#名称未設定グラデーション_3"/><linearGradient id="名称未設定グラデーション_3-210" x1="607.13" y1="976.17" x2="606.89" y2="234.17" xlink:href="#名称未設定グラデーション_3"/><linearGradient id="名称未設定グラデーション_3-211" x1="607.15" y1="976.17" x2="606.91" y2="234.17" xlink:href="#名称未設定グラデーション_3"/><linearGradient id="名称未設定グラデーション_3-212" x1="607.14" y1="976.17" x2="606.91" y2="234.17" xlink:href="#名称未設定グラデーション_3"/><linearGradient id="名称未設定グラデーション_3-213" x1="607.15" y1="976.17" x2="606.91" y2="234.17" xlink:href="#名称未設定グラデーション_3"/><linearGradient id="名称未設定グラデーション_3-214" x1="607.14" y1="976.17" x2="606.91" y2="234.17" xlink:href="#名称未設定グラデーション_3"/><linearGradient id="名称未設定グラデーション_3-215" x1="607.11" y1="976.17" x2="606.88" y2="234.17" xlink:href="#名称未設定グラデーション_3"/><linearGradient id="名称未設定グラデーション_3-216" x1="607.14" y1="976.17" x2="606.91" y2="234.17" xlink:href="#名称未設定グラデーション_3"/><linearGradient id="名称未設定グラデーション_3-217" x1="607.13" y1="976.17" x2="606.9" y2="234.17" xlink:href="#名称未設定グラデーション_3"/><linearGradient id="名称未設定グラデーション_3-218" x1="607.15" y1="976.17" x2="606.91" y2="234.17" xlink:href="#名称未設定グラデーション_3"/><linearGradient id="名称未設定グラデーション_3-219" x1="607.13" y1="976.17" x2="606.9" y2="234.17" xlink:href="#名称未設定グラデーション_3"/><linearGradient id="名称未設定グラデーション_3-220" x1="607.13" y1="976.17" x2="606.9" y2="234.17" xlink:href="#名称未設定グラデーション_3"/><linearGradient id="名称未設定グラデーション_3-221" x1="607.14" y1="976.17" x2="606.9" y2="234.17" xlink:href="#名称未設定グラデーション_3"/><linearGradient id="名称未設定グラデーション_3-222" x1="607.13" y1="976.17" x2="606.9" y2="234.17" xlink:href="#名称未設定グラデーション_3"/><linearGradient id="名称未設定グラデーション_3-223" x1="607.14" y1="976.17" x2="606.9" y2="234.17" xlink:href="#名称未設定グラデーション_3"/><linearGradient id="名称未設定グラデーション_3-224" x1="607.13" y1="976.17" x2="606.9" y2="234.17" xlink:href="#名称未設定グラデーション_3"/><linearGradient id="名称未設定グラデーション_3-225" x1="607.14" y1="976.17" x2="606.9" y2="234.17" xlink:href="#名称未設定グラデーション_3"/><linearGradient id="名称未設定グラデーション_3-226" x1="607.13" y1="976.17" x2="606.9" y2="234.17" xlink:href="#名称未設定グラデーション_3"/><linearGradient id="名称未設定グラデーション_3-227" x1="607.13" y1="976.17" x2="606.9" y2="234.17" xlink:href="#名称未設定グラデーション_3"/><linearGradient id="名称未設定グラデーション_3-228" x1="606.92" y1="976.17" x2="606.69" y2="234.17" xlink:href="#名称未設定グラデーション_3"/><linearGradient id="名称未設定グラデーション_3-229" x1="607.1" y1="976.17" x2="606.86" y2="234.17" xlink:href="#名称未設定グラデーション_3"/><linearGradient id="名称未設定グラデーション_3-230" x1="607.1" y1="976.17" x2="606.86" y2="234.17" xlink:href="#名称未設定グラデーション_3"/><linearGradient id="名称未設定グラデーション_3-231" x1="607.1" y1="976.17" x2="606.87" y2="234.17" xlink:href="#名称未設定グラデーション_3"/><linearGradient id="名称未設定グラデーション_3-232" x1="607.1" y1="976.17" x2="606.87" y2="234.17" xlink:href="#名称未設定グラデーション_3"/><linearGradient id="名称未設定グラデーション_3-233" x1="607.11" y1="976.17" x2="606.87" y2="234.17" xlink:href="#名称未設定グラデーション_3"/><linearGradient id="名称未設定グラデーション_3-234" x1="606.92" y1="976.17" x2="606.69" y2="234.17" xlink:href="#名称未設定グラデーション_3"/><linearGradient id="名称未設定グラデーション_3-235" x1="606.92" y1="976.17" x2="606.69" y2="234.17" xlink:href="#名称未設定グラデーション_3"/><linearGradient id="名称未設定グラデーション_3-236" x1="607.11" y1="976.17" x2="606.87" y2="234.17" xlink:href="#名称未設定グラデーション_3"/><linearGradient id="名称未設定グラデーション_3-237" x1="607.1" y1="976.17" x2="606.87" y2="234.17" xlink:href="#名称未設定グラデーション_3"/><linearGradient id="名称未設定グラデーション_3-238" x1="607.1" y1="976.17" x2="606.87" y2="234.17" xlink:href="#名称未設定グラデーション_3"/><linearGradient id="名称未設定グラデーション_3-239" x1="607.1" y1="976.17" x2="606.87" y2="234.17" xlink:href="#名称未設定グラデーション_3"/><linearGradient id="名称未設定グラデーション_3-240" x1="607.1" y1="976.17" x2="606.87" y2="234.17" xlink:href="#名称未設定グラデーション_3"/><linearGradient id="名称未設定グラデーション_3-241" x1="607.15" y1="976.17" x2="606.92" y2="234.17" xlink:href="#名称未設定グラデーション_3"/><linearGradient id="名称未設定グラデーション_3-242" x1="371" y1="741" x2="371" y2="740.95" xlink:href="#名称未設定グラデーション_3"/><linearGradient id="名称未設定グラデーション_3-243" x1="607.1" y1="976.17" x2="606.87" y2="234.17" xlink:href="#名称未設定グラデーション_3"/><linearGradient id="名称未設定グラデーション_3-244" x1="606.92" y1="976.17" x2="606.69" y2="234.17" xlink:href="#名称未設定グラデーション_3"/><linearGradient id="名称未設定グラデーション_3-245" x1="607.11" y1="976.17" x2="606.87" y2="234.17" xlink:href="#名称未設定グラデーション_3"/><linearGradient id="名称未設定グラデーション_3-246" x1="606.92" y1="976.17" x2="606.69" y2="234.17" xlink:href="#名称未設定グラデーション_3"/><linearGradient id="名称未設定グラデーション_3-247" x1="607.11" y1="976.17" x2="606.88" y2="234.17" xlink:href="#名称未設定グラデーション_3"/><linearGradient id="名称未設定グラデーション_3-248" x1="607.11" y1="976.17" x2="606.88" y2="234.17" xlink:href="#名称未設定グラデーション_3"/></defs><title>sun</title><path class="cls-1" d="M324.86,846.17H889l1.71-2H323.15Z" transform="translate(-235.92 -235.17)"/><path class="cls-2" d="M258.59,477.17H955.24c-.24-.67-.49-1.33-.74-2H259.34Z" transform="translate(-235.92 -235.17)"/><path class="cls-3" d="M317.39,837.17H896.44c.54-.66,1.07-1.33,1.6-2H315.8Z" transform="translate(-235.92 -235.17)"/><path class="cls-4" d="M322.32,843.17h569.2c.56-.66,1.12-1.33,1.67-2H320.65C321.2,841.84,321.76,842.51,322.32,843.17Z" transform="translate(-235.92 -235.17)"/><path class="cls-5" d="M259.71,474.17H954.12c-.25-.67-.5-1.33-.76-2H260.48Z" transform="translate(-235.92 -235.17)"/><path class="cls-6" d="M319.83,840.17H894l1.63-2H318.2Z" transform="translate(-235.92 -235.17)"/><path class="cls-7" d="M310.4,828.17h593l1.5-2h-596Z" transform="translate(-235.92 -235.17)"/><path class="cls-8" d="M344.25,867.17H869.59c.66-.66,1.32-1.33,2-2H342.27Z" transform="translate(-235.92 -235.17)"/><path class="cls-9" d="M257.51,480.17H956.33l-.72-2H258.23Z" transform="translate(-235.92 -235.17)"/><path class="cls-10" d="M312.68,831.17H901.16c.51-.66,1-1.33,1.52-2H311.16C311.66,829.84,312.17,830.51,312.68,831.17Z" transform="translate(-235.92 -235.17)"/><path class="cls-11" d="M338.4,861.17h537c.64-.66,1.26-1.33,1.89-2H336.51C337.14,859.84,337.76,860.51,338.4,861.17Z" transform="translate(-235.92 -235.17)"/><path class="cls-12" d="M263.24,465.17H950.59c-.27-.67-.55-1.33-.82-2H264.07C263.8,463.84,263.52,464.5,263.24,465.17Z" transform="translate(-235.92 -235.17)"/><path class="cls-13" d="M308.17,825.17h597.5c.49-.66,1-1.33,1.47-2H306.7C307.18,823.84,307.67,824.51,308.17,825.17Z" transform="translate(-235.92 -235.17)"/><path class="cls-14" d="M260.86,471.17H953c-.25-.67-.51-1.33-.77-2H261.64Z" transform="translate(-235.92 -235.17)"/><path class="cls-15" d="M335.57,858.17h542.7c.62-.66,1.23-1.33,1.85-2H333.72C334.34,856.84,335,857.51,335.57,858.17Z" transform="translate(-235.92 -235.17)"/><path class="cls-16" d="M264.49,462.17H949.35l-.84-2H265.33Z" transform="translate(-235.92 -235.17)"/><path class="cls-17" d="M341.29,864.17H872.55c.65-.66,1.29-1.33,1.93-2H339.36C340,862.84,340.64,863.51,341.29,864.17Z" transform="translate(-235.92 -235.17)"/><path class="cls-18" d="M327.45,849.17H886.39l1.74-2H325.71Z" transform="translate(-235.92 -235.17)"/><path class="cls-19" d="M332.8,855.17H881l1.8-2H331Z" transform="translate(-235.92 -235.17)"/><path class="cls-20" d="M330.1,852.17H883.74c.6-.66,1.19-1.33,1.77-2H328.32C328.91,850.84,329.5,851.51,330.1,852.17Z" transform="translate(-235.92 -235.17)"/><path class="cls-21" d="M262,468.17H951.8l-.8-2H262.84Z" transform="translate(-235.92 -235.17)"/><path class="cls-22" d="M315,834.17H898.83c.52-.66,1-1.33,1.55-2H313.46C314,832.84,314.49,833.51,315,834.17Z" transform="translate(-235.92 -235.17)"/><path class="cls-23" d="M286.43,792.17h641c.39-.66.78-1.33,1.16-2H285.27C285.65,790.84,286,791.51,286.43,792.17Z" transform="translate(-235.92 -235.17)"/><path class="cls-24" d="M251.59,498.17H962.25c-.2-.67-.4-1.33-.61-2H252.2C252,496.84,251.79,497.5,251.59,498.17Z" transform="translate(-235.92 -235.17)"/><path class="cls-25" d="M291.86,801.17H922l1.23-2H290.63Z" transform="translate(-235.92 -235.17)"/><path class="cls-26" d="M252.5,495.17H961.34l-.63-2H253.13Z" transform="translate(-235.92 -235.17)"/><path class="cls-27" d="M290,798.17H923.82c.41-.66.81-1.33,1.21-2H288.8Z" transform="translate(-235.92 -235.17)"/><path class="cls-28" d="M288.21,795.17H925.63c.4-.66.8-1.33,1.19-2H287C287.41,793.84,287.81,794.51,288.21,795.17Z" transform="translate(-235.92 -235.17)"/><path class="cls-29" d="M256.45,483.17H957.39c-.23-.67-.47-1.33-.7-2H257.15C256.92,481.84,256.68,482.5,256.45,483.17Z" transform="translate(-235.92 -235.17)"/><path class="cls-30" d="M281.34,783.17H932.5c.37-.66.73-1.33,1.09-2H280.25C280.61,781.84,281,782.51,281.34,783.17Z" transform="translate(-235.92 -235.17)"/><path class="cls-31" d="M250.7,501.17H963.14c-.2-.67-.39-1.33-.58-2H251.28C251.09,499.84,250.9,500.5,250.7,501.17Z" transform="translate(-235.92 -235.17)"/><path class="cls-32" d="M284.69,789.17H929.14c.39-.66.76-1.33,1.14-2H283.56C283.94,787.84,284.31,788.51,284.69,789.17Z" transform="translate(-235.92 -235.17)"/><path class="cls-33" d="M283,786.17H930.85c.37-.66.73-1.33,1.1-2H281.89C282.26,784.84,282.62,785.51,283,786.17Z" transform="translate(-235.92 -235.17)"/><path class="cls-34" d="M249.84,504.17H964l-.57-2h-713Z" transform="translate(-235.92 -235.17)"/><path class="cls-35" d="M301.72,816.17H912.11c.46-.66.92-1.33,1.37-2H300.35C300.81,814.84,301.26,815.51,301.72,816.17Z" transform="translate(-235.92 -235.17)"/><path class="cls-36" d="M255.42,486.17h703c-.22-.67-.46-1.33-.69-2H256.11C255.88,484.84,255.64,485.5,255.42,486.17Z" transform="translate(-235.92 -235.17)"/><path class="cls-37" d="M306,822.17H907.86c.48-.66,1-1.33,1.44-2H304.53Z" transform="translate(-235.92 -235.17)"/><path class="cls-38" d="M299.67,813.17h614.5c.45-.66.9-1.33,1.34-2H298.33C298.77,811.84,299.22,812.51,299.67,813.17Z" transform="translate(-235.92 -235.17)"/><path class="cls-39" d="M303.83,819.17H910l1.41-2h-609Z" transform="translate(-235.92 -235.17)"/><path class="cls-40" d="M253.45,492.17H960.39c-.21-.67-.42-1.33-.64-2H254.09C253.87,490.84,253.66,491.5,253.45,492.17Z" transform="translate(-235.92 -235.17)"/><path class="cls-41" d="M293.76,804.17H920.08c.43-.66.85-1.33,1.27-2H292.49C292.91,802.84,293.33,803.51,293.76,804.17Z" transform="translate(-235.92 -235.17)"/><path class="cls-42" d="M295.69,807.17H918.15l1.3-2H294.39Z" transform="translate(-235.92 -235.17)"/><path class="cls-43" d="M297.66,810.17H916.18l1.32-2H296.34Z" transform="translate(-235.92 -235.17)"/><path class="cls-44" d="M254.42,489.17h705c-.22-.67-.44-1.33-.67-2H255.08Z" transform="translate(-235.92 -235.17)"/><path class="cls-45" d="M378,897.17H835.8c.85-.66,1.68-1.33,2.52-2H375.52C376.35,895.84,377.19,896.51,378,897.17Z" transform="translate(-235.92 -235.17)"/><path class="cls-46" d="M280.25,429.17H933.59l-1.09-2H281.34Z" transform="translate(-235.92 -235.17)"/><path class="cls-47" d="M427.86,930.17H786l3.57-2H424.29Z" transform="translate(-235.92 -235.17)"/><path class="cls-48" d="M439.18,936.17H774.65c1.3-.66,2.6-1.32,3.89-2H435.3C436.59,934.85,437.89,935.51,439.18,936.17Z" transform="translate(-235.92 -235.17)"/><path class="cls-49" d="M433.4,933.17h347c1.25-.66,2.49-1.32,3.72-2H429.68C430.91,931.85,432.15,932.51,433.4,933.17Z" transform="translate(-235.92 -235.17)"/><path class="cls-50" d="M236,597.17H977.83c0-.67,0-1.33-.05-2H236.05C236,595.84,236,596.5,236,597.17Z" transform="translate(-235.92 -235.17)"/><path class="cls-51" d="M417.4,924.17h379l3.33-2H414.07Z" transform="translate(-235.92 -235.17)"/><path class="cls-52" d="M403,915.17H810.81l3-2H400Z" transform="translate(-235.92 -235.17)"/><path class="cls-53" d="M407.66,918.17H806.18l3.09-2H404.56Z" transform="translate(-235.92 -235.17)"/><path class="cls-54" d="M281.89,426.17H932l-1.1-2H283Z" transform="translate(-235.92 -235.17)"/><path class="cls-55" d="M412.45,921.17H801.39l3.21-2H409.24Z" transform="translate(-235.92 -235.17)"/><path class="cls-56" d="M278.64,432.17H935.2c-.36-.67-.72-1.33-1.07-2H279.71C279.35,430.84,279,431.5,278.64,432.17Z" transform="translate(-235.92 -235.17)"/><path class="cls-57" d="M277.08,435.17H936.76l-1-2H278.12C277.77,433.84,277.42,434.5,277.08,435.17Z" transform="translate(-235.92 -235.17)"/><path class="cls-58" d="M480.78,954.17H733.06q2.72-1,5.41-2H475.37Q478.07,953.19,480.78,954.17Z" transform="translate(-235.92 -235.17)"/><path class="cls-59" d="M285.27,420.17h643.3c-.38-.67-.77-1.33-1.16-2h-641C286,418.84,285.65,419.5,285.27,420.17Z" transform="translate(-235.92 -235.17)"/><path class="cls-60" d="M347.28,870.17H866.56c.68-.66,1.35-1.33,2-2H345.25Z" transform="translate(-235.92 -235.17)"/><path class="cls-61" d="M287,417.17h639.8c-.39-.67-.79-1.33-1.19-2H288.21C287.81,415.84,287.41,416.5,287,417.17Z" transform="translate(-235.92 -235.17)"/><path class="cls-62" d="M445.23,939.17H768.61c1.36-.66,2.71-1.32,4.06-2H441.17C442.52,937.85,443.87,938.51,445.23,939.17Z" transform="translate(-235.92 -235.17)"/><path class="cls-63" d="M489.42,957.17h235c2-.65,3.91-1.31,5.85-2H483.57C485.51,955.86,487.46,956.52,489.42,957.17Z" transform="translate(-235.92 -235.17)"/><path class="cls-64" d="M283.56,423.17H930.28c-.38-.67-.75-1.33-1.14-2H284.69Z" transform="translate(-235.92 -235.17)"/><path class="cls-65" d="M451.57,942.17h310.7c1.43-.66,2.85-1.32,4.26-2H447.31C448.72,940.85,450.14,941.51,451.57,942.17Z" transform="translate(-235.92 -235.17)"/><path class="cls-66" d="M458.23,945.17H755.61c1.5-.66,3-1.32,4.48-2H453.75C455.23,943.85,456.73,944.51,458.23,945.17Z" transform="translate(-235.92 -235.17)"/><path class="cls-67" d="M465.29,948.17H748.55q2.38-1,4.74-2H460.55Q462.91,947.19,465.29,948.17Z" transform="translate(-235.92 -235.17)"/><path class="cls-68" d="M472.78,951.17H741.06q2.54-1,5.05-2H467.73Q470.25,950.19,472.78,951.17Z" transform="translate(-235.92 -235.17)"/><path class="cls-69" d="M360.12,882.17h493.6c.75-.66,1.49-1.33,2.23-2H357.89C358.63,880.84,359.37,881.51,360.12,882.17Z" transform="translate(-235.92 -235.17)"/><path class="cls-70" d="M363.52,885.17h486.8l2.28-2H361.24Z" transform="translate(-235.92 -235.17)"/><path class="cls-71" d="M268.39,453.17H945.45c-.3-.67-.61-1.33-.91-2H269.3C269,451.84,268.69,452.5,268.39,453.17Z" transform="translate(-235.92 -235.17)"/><path class="cls-72" d="M367,888.17H846.83l2.33-2H364.68Z" transform="translate(-235.92 -235.17)"/><path class="cls-73" d="M275.55,438.17H938.29l-1-2H276.56Z" transform="translate(-235.92 -235.17)"/><path class="cls-74" d="M350.38,873.17H863.46c.7-.66,1.39-1.33,2.08-2H348.3C349,871.84,349.68,872.51,350.38,873.17Z" transform="translate(-235.92 -235.17)"/><path class="cls-75" d="M370.59,891.17H843.25l2.39-2H368.2Z" transform="translate(-235.92 -235.17)"/><path class="cls-76" d="M265.76,459.17H948.08l-.86-2H266.62C266.33,457.84,266,458.5,265.76,459.17Z" transform="translate(-235.92 -235.17)"/><path class="cls-77" d="M267.06,456.17H946.78c-.29-.67-.59-1.33-.89-2H268C267.65,454.84,267.35,455.5,267.06,456.17Z" transform="translate(-235.92 -235.17)"/><path class="cls-78" d="M356.79,879.17H857.05l2.17-2H354.62Z" transform="translate(-235.92 -235.17)"/><path class="cls-79" d="M353.55,876.17H860.29l2.13-2h-511Z" transform="translate(-235.92 -235.17)"/><path class="cls-80" d="M269.76,450.17H944.08l-.92-2H270.68Z" transform="translate(-235.92 -235.17)"/><path class="cls-81" d="M390,906.17H823.84l2.75-2H387.25Z" transform="translate(-235.92 -235.17)"/><path class="cls-82" d="M274.05,441.17H939.79c-.33-.67-.66-1.33-1-2H275Z" transform="translate(-235.92 -235.17)"/><path class="cls-83" d="M394.21,909.17H819.62c1-.66,1.89-1.33,2.83-2H391.38Z" transform="translate(-235.92 -235.17)"/><path class="cls-84" d="M398.56,912.17H815.28c1-.66,2-1.33,2.92-2H395.64C396.61,910.84,397.58,911.51,398.56,912.17Z" transform="translate(-235.92 -235.17)"/><path class="cls-85" d="M374.26,894.17H839.58l2.45-2H371.81Z" transform="translate(-235.92 -235.17)"/><path class="cls-86" d="M385.9,903.17h442l2.67-2H383.23Z" transform="translate(-235.92 -235.17)"/><path class="cls-87" d="M279.71,780.17H934.13c.35-.67.71-1.33,1.07-2H278.64C279,778.84,279.35,779.5,279.71,780.17Z" transform="translate(-235.92 -235.17)"/><path class="cls-88" d="M272.58,444.17H941.26c-.32-.67-.65-1.33-1-2H273.56C273.23,442.84,272.9,443.5,272.58,444.17Z" transform="translate(-235.92 -235.17)"/><path class="cls-89" d="M271.16,447.17H942.68c-.31-.67-.63-1.33-.94-2H272.1C271.79,445.84,271.47,446.5,271.16,447.17Z" transform="translate(-235.92 -235.17)"/><path class="cls-90" d="M381.91,900.17h450l2.59-2H379.32Z" transform="translate(-235.92 -235.17)"/><path class="cls-91" d="M236.82,579.17H977c0-.67-.09-1.33-.14-2H237C236.91,577.84,236.87,578.5,236.82,579.17Z" transform="translate(-235.92 -235.17)"/><path class="cls-92" d="M240,660.17H973.86l.3-2H239.68C239.78,658.84,239.88,659.51,240,660.17Z" transform="translate(-235.92 -235.17)"/><path class="cls-93" d="M239.54,657.17H974.3c.1-.66.18-1.33.27-2H239.27C239.36,655.84,239.44,656.51,239.54,657.17Z" transform="translate(-235.92 -235.17)"/><path class="cls-94" d="M237.84,567.17H976c-.07-.67-.15-1.33-.22-2H238.06C238,565.84,237.91,566.5,237.84,567.17Z" transform="translate(-235.92 -235.17)"/><path class="cls-95" d="M237.29,573.17H976.55c0-.67-.11-1.33-.17-2H237.46C237.4,571.84,237.34,572.5,237.29,573.17Z" transform="translate(-235.92 -235.17)"/><path class="cls-96" d="M240.91,666.17h732c.11-.66.21-1.33.32-2H240.59C240.7,664.84,240.8,665.51,240.91,666.17Z" transform="translate(-235.92 -235.17)"/><path class="cls-97" d="M240.43,663.17h733c.1-.67.21-1.33.31-2H240.12C240.22,661.84,240.33,662.5,240.43,663.17Z" transform="translate(-235.92 -235.17)"/><path class="cls-98" d="M238.06,645.17H975.78c.07-.67.15-1.33.22-2H237.84C237.91,643.84,238,644.5,238.06,645.17Z" transform="translate(-235.92 -235.17)"/><path class="cls-99" d="M239.13,654.17H974.71c.08-.67.17-1.33.26-2H238.87C239,652.84,239.05,653.5,239.13,654.17Z" transform="translate(-235.92 -235.17)"/><path class="cls-100" d="M238.39,648.17H975.45c.08-.66.15-1.33.22-2H238.17C238.24,646.84,238.31,647.51,238.39,648.17Z" transform="translate(-235.92 -235.17)"/><path class="cls-101" d="M237.56,570.17H976.28c-.06-.67-.12-1.33-.19-2H237.75C237.68,568.84,237.62,569.5,237.56,570.17Z" transform="translate(-235.92 -235.17)"/><path class="cls-102" d="M238.75,651.17H975.09l.24-2H238.51Z" transform="translate(-235.92 -235.17)"/><path class="cls-103" d="M238.17,564.17h737.5c-.07-.67-.14-1.33-.22-2H238.39C238.31,562.84,238.24,563.5,238.17,564.17Z" transform="translate(-235.92 -235.17)"/><path class="cls-104" d="M243.72,681.17h726.4c.14-.66.28-1.33.41-2H243.3Z" transform="translate(-235.92 -235.17)"/><path class="cls-105" d="M238.51,561.17H975.33l-.24-2H238.75Z" transform="translate(-235.92 -235.17)"/><path class="cls-106" d="M243.11,678.17H970.73c.14-.66.27-1.33.4-2H242.71C242.84,676.84,243,677.51,243.11,678.17Z" transform="translate(-235.92 -235.17)"/><path class="cls-107" d="M239.68,552.17H974.16l-.3-2H240C239.88,550.84,239.78,551.5,239.68,552.17Z" transform="translate(-235.92 -235.17)"/><path class="cls-108" d="M244.35,684.17H969.49l.42-2h-726Z" transform="translate(-235.92 -235.17)"/><path class="cls-109" d="M239.27,555.17h735.3c-.09-.67-.17-1.33-.27-2H239.54C239.44,553.84,239.36,554.5,239.27,555.17Z" transform="translate(-235.92 -235.17)"/><path class="cls-110" d="M242.51,675.17H971.32c.13-.66.25-1.33.37-2H242.14C242.27,673.84,242.39,674.51,242.51,675.17Z" transform="translate(-235.92 -235.17)"/><path class="cls-111" d="M241.43,669.17h731c.12-.66.23-1.33.35-2H241.08C241.19,667.84,241.31,668.51,241.43,669.17Z" transform="translate(-235.92 -235.17)"/><path class="cls-112" d="M242,672.17H971.88l.36-2H241.6Z" transform="translate(-235.92 -235.17)"/><path class="cls-113" d="M238.87,558.17H975c-.09-.67-.18-1.33-.26-2H239.13C239.05,556.84,239,557.5,238.87,558.17Z" transform="translate(-235.92 -235.17)"/><path class="cls-114" d="M236,600.17H977.89c0-.67,0-1.33,0-2H236C236,598.84,236,599.5,236,600.17Z" transform="translate(-235.92 -235.17)"/><path class="cls-115" d="M236,612.17H977.85c0-.67,0-1.33,0-2H236C236,610.84,236,611.5,236,612.17Z" transform="translate(-235.92 -235.17)"/><path class="cls-116" d="M278.12,777.17h657.6c.35-.66.69-1.33,1-2H277.08C277.42,775.84,277.77,776.51,278.12,777.17Z" transform="translate(-235.92 -235.17)"/><path class="cls-117" d="M236.05,615.17H977.78c0-.66,0-1.33.05-2H236C236,613.84,236,614.51,236.05,615.17Z" transform="translate(-235.92 -235.17)"/><path class="cls-118" d="M236.15,618.17H977.69l.06-2H236.09Z" transform="translate(-235.92 -235.17)"/><path class="cls-119" d="M235.94,609.17h742c0-.66,0-1.33,0-2h-742C235.94,607.84,235.94,608.51,235.94,609.17Z" transform="translate(-235.92 -235.17)"/><path class="cls-120" d="M236.45,585.17H977.38c0-.67-.07-1.33-.11-2H236.57Z" transform="translate(-235.92 -235.17)"/><path class="cls-121" d="M237.75,642.17H976.09c.07-.66.13-1.33.19-2H237.56C237.62,640.84,237.68,641.51,237.75,642.17Z" transform="translate(-235.92 -235.17)"/><path class="cls-122" d="M236.09,594.17H977.75l-.06-2H236.15Z" transform="translate(-235.92 -235.17)"/><path class="cls-123" d="M245,687.17h723.8l.45-2H244.57Z" transform="translate(-235.92 -235.17)"/><path class="cls-124" d="M235.93,603.17h742c0-.67,0-1.33,0-2H235.94C235.94,601.84,235.94,602.5,235.93,603.17Z" transform="translate(-235.92 -235.17)"/><path class="cls-125" d="M235.92,605.17c0,.34,0,.67,0,1h742c0-.33,0-.66,0-1s0-.67,0-1h-742C235.92,604.5,235.92,604.84,235.92,605.17Z" transform="translate(-235.92 -235.17)"/><path class="cls-126" d="M236.18,591.17H977.66l-.09-2H236.27Z" transform="translate(-235.92 -235.17)"/><path class="cls-127" d="M237,633.17H976.88c0-.66.09-1.33.14-2H236.82C236.87,631.84,236.91,632.51,237,633.17Z" transform="translate(-235.92 -235.17)"/><path class="cls-128" d="M237.2,636.17H976.64c.05-.67.11-1.33.16-2H237C237.09,634.84,237.15,635.5,237.2,636.17Z" transform="translate(-235.92 -235.17)"/><path class="cls-129" d="M237,576.17H976.8c0-.67-.11-1.33-.16-2H237.2C237.15,574.84,237.09,575.5,237,576.17Z" transform="translate(-235.92 -235.17)"/><path class="cls-130" d="M498.83,960.17H715c2.14-.65,4.27-1.31,6.39-2h-229C494.56,958.86,496.69,959.52,498.83,960.17Z" transform="translate(-235.92 -235.17)"/><path class="cls-131" d="M237.46,639.17H976.38c.06-.66.12-1.33.17-2H237.29C237.34,637.84,237.4,638.51,237.46,639.17Z" transform="translate(-235.92 -235.17)"/><path class="cls-132" d="M236.27,621.17h741.3l.09-2H236.18Z" transform="translate(-235.92 -235.17)"/><path class="cls-133" d="M236.75,630.17H977.08c0-.66.09-1.33.13-2H236.62C236.67,628.84,236.71,629.51,236.75,630.17Z" transform="translate(-235.92 -235.17)"/><path class="cls-134" d="M236.4,624.17h741l.09-2H236.31C236.34,622.84,236.36,623.51,236.4,624.17Z" transform="translate(-235.92 -235.17)"/><path class="cls-135" d="M236.62,582.17H977.21c0-.67-.08-1.33-.13-2H236.75C236.71,580.84,236.67,581.5,236.62,582.17Z" transform="translate(-235.92 -235.17)"/><path class="cls-136" d="M236.57,627.17h740.7c0-.66.08-1.33.11-2H236.45Z" transform="translate(-235.92 -235.17)"/><path class="cls-137" d="M236.31,588.17H977.53l-.09-2h-741C236.36,586.84,236.34,587.5,236.31,588.17Z" transform="translate(-235.92 -235.17)"/><path class="cls-138" d="M265.33,750.17H948.51l.84-2H264.49Z" transform="translate(-235.92 -235.17)"/><path class="cls-139" d="M268,756.17H945.89c.3-.66.6-1.33.89-2H267.06C267.35,754.84,267.65,755.51,268,756.17Z" transform="translate(-235.92 -235.17)"/><path class="cls-140" d="M245.24,522.17H968.6c-.16-.67-.31-1.33-.47-2H245.71C245.55,520.84,245.4,521.5,245.24,522.17Z" transform="translate(-235.92 -235.17)"/><path class="cls-141" d="M266.62,753.17h680.6c.29-.66.57-1.33.86-2H265.76C266,751.84,266.33,752.51,266.62,753.17Z" transform="translate(-235.92 -235.17)"/><path class="cls-142" d="M246,519.17H967.89c-.15-.67-.31-1.33-.47-2h-721C246.26,517.84,246.1,518.5,246,519.17Z" transform="translate(-235.92 -235.17)"/><path class="cls-143" d="M264.07,747.17h685.7c.27-.67.55-1.33.82-2H263.24C263.52,745.84,263.8,746.5,264.07,747.17Z" transform="translate(-235.92 -235.17)"/><path class="cls-144" d="M262.84,744.17H951c.27-.66.53-1.33.8-2H262C262.31,742.84,262.57,743.51,262.84,744.17Z" transform="translate(-235.92 -235.17)"/><path class="cls-145" d="M259.34,735.17H954.5c.25-.66.5-1.33.74-2H258.59Z" transform="translate(-235.92 -235.17)"/><path class="cls-146" d="M260.48,738.17H953.36c.26-.66.51-1.33.76-2H259.71C260,736.84,260.22,737.51,260.48,738.17Z" transform="translate(-235.92 -235.17)"/><path class="cls-147" d="M244.57,525.17h724.7l-.45-2H245Z" transform="translate(-235.92 -235.17)"/><path class="cls-148" d="M261.64,741.17H952.2c.26-.66.52-1.33.77-2H260.86Z" transform="translate(-235.92 -235.17)"/><path class="cls-149" d="M272.1,765.17H941.74c.31-.66.63-1.33.94-2H271.16C271.47,763.84,271.79,764.51,272.1,765.17Z" transform="translate(-235.92 -235.17)"/><path class="cls-150" d="M273.56,768.17H940.28c.33-.67.66-1.33,1-2H272.58C272.9,766.84,273.23,767.5,273.56,768.17Z" transform="translate(-235.92 -235.17)"/><path class="cls-151" d="M275,771.17H938.79c.34-.66.67-1.33,1-2H274.05Z" transform="translate(-235.92 -235.17)"/><path class="cls-152" d="M248.2,510.17H965.64l-.53-2H248.73Z" transform="translate(-235.92 -235.17)"/><path class="cls-153" d="M249,507.17H964.83c-.18-.67-.36-1.33-.55-2H249.56Z" transform="translate(-235.92 -235.17)"/><path class="cls-154" d="M276.56,774.17H937.28c.34-.66.67-1.33,1-2H275.55C275.89,772.84,276.22,773.51,276.56,774.17Z" transform="translate(-235.92 -235.17)"/><path class="cls-155" d="M270.68,762.17H943.16c.31-.66.61-1.33.92-2H269.76C270.07,760.84,270.37,761.51,270.68,762.17Z" transform="translate(-235.92 -235.17)"/><path class="cls-156" d="M243.93,528.17h726l-.42-2H244.35Z" transform="translate(-235.92 -235.17)"/><path class="cls-157" d="M269.3,759.17H944.54c.3-.66.61-1.33.91-2H268.39C268.69,757.84,269,758.51,269.3,759.17Z" transform="translate(-235.92 -235.17)"/><path class="cls-158" d="M246.67,516.17h720.5c-.16-.67-.33-1.33-.5-2H247.17C247,514.84,246.83,515.5,246.67,516.17Z" transform="translate(-235.92 -235.17)"/><path class="cls-159" d="M247.42,513.17h719c-.17-.67-.34-1.33-.52-2h-718C247.76,511.84,247.59,512.5,247.42,513.17Z" transform="translate(-235.92 -235.17)"/><path class="cls-160" d="M249.56,705.17H964.28c.19-.66.37-1.33.55-2H249C249.19,703.84,249.37,704.51,249.56,705.17Z" transform="translate(-235.92 -235.17)"/><path class="cls-161" d="M248.73,702.17H965.11c.18-.66.35-1.33.53-2H248.2C248.38,700.84,248.55,701.51,248.73,702.17Z" transform="translate(-235.92 -235.17)"/><path class="cls-162" d="M241.08,543.17H972.76c-.12-.67-.23-1.33-.35-2h-731C241.31,541.84,241.19,542.5,241.08,543.17Z" transform="translate(-235.92 -235.17)"/><path class="cls-163" d="M250.41,708.17h713l.57-2H249.84Z" transform="translate(-235.92 -235.17)"/><path class="cls-164" d="M241.6,540.17H972.24l-.36-2H242Z" transform="translate(-235.92 -235.17)"/><path class="cls-165" d="M245.71,690.17H968.13c.16-.66.31-1.33.47-2H245.24C245.4,688.84,245.55,689.51,245.71,690.17Z" transform="translate(-235.92 -235.17)"/><path class="cls-166" d="M247.94,699.17h718c.18-.66.35-1.33.52-2h-719C247.59,697.84,247.76,698.51,247.94,699.17Z" transform="translate(-235.92 -235.17)"/><path class="cls-167" d="M240.12,549.17h733.6c-.1-.67-.21-1.33-.31-2h-733C240.33,547.84,240.22,548.5,240.12,549.17Z" transform="translate(-235.92 -235.17)"/><path class="cls-168" d="M240.59,546.17H973.25c-.11-.67-.21-1.33-.32-2h-732C240.8,544.84,240.7,545.5,240.59,546.17Z" transform="translate(-235.92 -235.17)"/><path class="cls-169" d="M246.42,693.17h721c.16-.66.32-1.33.47-2H246C246.1,691.84,246.26,692.51,246.42,693.17Z" transform="translate(-235.92 -235.17)"/><path class="cls-170" d="M247.17,696.17h719.5c.17-.66.34-1.33.5-2H246.67C246.83,694.84,247,695.51,247.17,696.17Z" transform="translate(-235.92 -235.17)"/><path class="cls-171" d="M252.2,714.17H961.64c.21-.66.41-1.33.61-2H251.59C251.79,712.84,252,713.51,252.2,714.17Z" transform="translate(-235.92 -235.17)"/><path class="cls-172" d="M256.11,726.17H957.73c.23-.67.47-1.33.69-2h-703C255.64,724.84,255.88,725.5,256.11,726.17Z" transform="translate(-235.92 -235.17)"/><path class="cls-173" d="M242.71,534.17H971.13c-.13-.67-.26-1.33-.4-2H243.11C243,532.84,242.84,533.5,242.71,534.17Z" transform="translate(-235.92 -235.17)"/><path class="cls-174" d="M255.08,723.17H958.75c.23-.66.45-1.33.67-2h-705Z" transform="translate(-235.92 -235.17)"/><path class="cls-175" d="M243.3,531.17H970.53c-.13-.67-.27-1.33-.41-2H243.72Z" transform="translate(-235.92 -235.17)"/><path class="cls-176" d="M257.15,729.17H956.69c.23-.66.47-1.33.7-2H256.45C256.68,727.84,256.92,728.51,257.15,729.17Z" transform="translate(-235.92 -235.17)"/><path class="cls-177" d="M242.14,537.17H971.69c-.12-.67-.24-1.33-.37-2H242.51C242.39,535.84,242.27,536.5,242.14,537.17Z" transform="translate(-235.92 -235.17)"/><path class="cls-178" d="M254.09,720.17H959.75c.22-.66.43-1.33.64-2H253.45C253.66,718.84,253.87,719.51,254.09,720.17Z" transform="translate(-235.92 -235.17)"/><path class="cls-179" d="M251.28,711.17H962.56c.19-.66.38-1.33.58-2H250.7C250.9,709.84,251.09,710.51,251.28,711.17Z" transform="translate(-235.92 -235.17)"/><path class="cls-180" d="M258.23,732.17H955.61l.72-2H257.51Z" transform="translate(-235.92 -235.17)"/><path class="cls-181" d="M253.13,717.17H960.71l.63-2H252.5Z" transform="translate(-235.92 -235.17)"/><path class="cls-182" d="M422.52,927.17h368.8c1.15-.66,2.29-1.33,3.43-2H419.08Z" transform="translate(-235.92 -235.17)"/><path class="cls-183" d="M345.25,342.17H868.58l-2-2H347.28Z" transform="translate(-235.92 -235.17)"/><path class="cls-184" d="M288.8,414.17H925l-1.21-2H290Z" transform="translate(-235.92 -235.17)"/><path class="cls-185" d="M354.62,333.17h504.6l-2.17-2H356.79Z" transform="translate(-235.92 -235.17)"/><path class="cls-186" d="M348.3,339.17H865.54l-2.08-2H350.38Z" transform="translate(-235.92 -235.17)"/><path class="cls-187" d="M513,246.17H700.85q-4-1-8-2H521Q517,245.13,513,246.17Z" transform="translate(-235.92 -235.17)"/><path class="cls-188" d="M351.42,336.17h511l-2.13-2H353.55Z" transform="translate(-235.92 -235.17)"/><path class="cls-189" d="M371.81,318.17H842l-2.45-2H374.26Z" transform="translate(-235.92 -235.17)"/><path class="cls-190" d="M357.89,330.17H856l-2.23-2H360.12Z" transform="translate(-235.92 -235.17)"/><path class="cls-191" d="M368.2,321.17H845.64l-2.39-2H370.59Z" transform="translate(-235.92 -235.17)"/><path class="cls-192" d="M364.68,324.17H849.16l-2.33-2H367Z" transform="translate(-235.92 -235.17)"/><path class="cls-193" d="M361.24,327.17H852.6l-2.28-2H363.52Z" transform="translate(-235.92 -235.17)"/><path class="cls-194" d="M540.14,240.17H673.7q-6-1.09-12.16-2H552.3Q546.18,239.07,540.14,240.17Z" transform="translate(-235.92 -235.17)"/><path class="cls-195" d="M333.72,354.17h546.4c-.62-.67-1.23-1.34-1.85-2H335.57C335,352.83,334.34,353.5,333.72,354.17Z" transform="translate(-235.92 -235.17)"/><path class="cls-196" d="M328.32,360.17H885.51c-.58-.67-1.17-1.33-1.77-2H330.1Z" transform="translate(-235.92 -235.17)"/><path class="cls-197" d="M331,357.17H882.84l-1.8-2H332.8Z" transform="translate(-235.92 -235.17)"/><path class="cls-198" d="M323.15,366.17H890.69l-1.71-2H324.86Z" transform="translate(-235.92 -235.17)"/><path class="cls-199" d="M325.71,363.17H888.13l-1.74-2H327.45Z" transform="translate(-235.92 -235.17)"/><path class="cls-200" d="M339.36,348.17H874.48c-.64-.67-1.28-1.34-1.93-2H341.29C340.64,346.83,340,347.5,339.36,348.17Z" transform="translate(-235.92 -235.17)"/><path class="cls-201" d="M342.27,345.17H871.56c-.65-.67-1.31-1.33-2-2H344.25Z" transform="translate(-235.92 -235.17)"/><path class="cls-202" d="M336.51,351.17H877.33c-.63-.67-1.25-1.34-1.89-2h-537C337.76,349.83,337.14,350.5,336.51,351.17Z" transform="translate(-235.92 -235.17)"/><path class="cls-203" d="M375.52,315.17h462.8c-.84-.67-1.67-1.34-2.52-2H378C377.19,313.83,376.35,314.5,375.52,315.17Z" transform="translate(-235.92 -235.17)"/><path class="cls-204" d="M525.36,243.17H688.47c-3.15-.71-6.31-1.37-9.49-2H534.86C531.68,241.8,528.52,242.46,525.36,243.17Z" transform="translate(-235.92 -235.17)"/><path class="cls-205" d="M475.37,258.17h263.1c-1.8-.68-3.6-1.34-5.41-2H480.78C479,256.83,477.17,257.49,475.37,258.17Z" transform="translate(-235.92 -235.17)"/><path class="cls-206" d="M453.75,267.17H760.09l-4.48-2H458.23Z" transform="translate(-235.92 -235.17)"/><path class="cls-207" d="M447.31,270.17H766.53q-2.12-1-4.26-2H451.57Q449.42,269.16,447.31,270.17Z" transform="translate(-235.92 -235.17)"/><path class="cls-208" d="M441.17,273.17h331.5l-4.06-2H445.23Z" transform="translate(-235.92 -235.17)"/><path class="cls-209" d="M460.55,264.17H753.29c-1.57-.68-3.15-1.34-4.74-2H465.29C463.7,262.83,462.12,263.49,460.55,264.17Z" transform="translate(-235.92 -235.17)"/><path class="cls-210" d="M379.32,312.17h455.2l-2.59-2h-450Z" transform="translate(-235.92 -235.17)"/><path class="cls-211" d="M492.44,252.17h229c-2.12-.69-4.25-1.35-6.39-2H498.83C496.69,250.82,494.56,251.48,492.44,252.17Z" transform="translate(-235.92 -235.17)"/><path class="cls-212" d="M467.73,261.17H746.11c-1.68-.68-3.36-1.34-5.05-2H472.78C471.09,259.83,469.41,260.49,467.73,261.17Z" transform="translate(-235.92 -235.17)"/><path class="cls-213" d="M483.57,255.17h246.7q-2.91-1-5.85-2h-235Q486.48,254.15,483.57,255.17Z" transform="translate(-235.92 -235.17)"/><path class="cls-214" d="M429.68,279.17H784.16c-1.23-.67-2.47-1.34-3.72-2h-347C432.15,277.83,430.91,278.5,429.68,279.17Z" transform="translate(-235.92 -235.17)"/><path class="cls-215" d="M320.65,369.17H893.19c-.55-.67-1.11-1.33-1.67-2H322.32C321.76,367.84,321.2,368.5,320.65,369.17Z" transform="translate(-235.92 -235.17)"/><path class="cls-216" d="M435.3,276.17H778.54l-3.89-2H439.19Z" transform="translate(-235.92 -235.17)"/><path class="cls-217" d="M391.38,303.17H822.45c-.94-.67-1.88-1.34-2.83-2H394.21Z" transform="translate(-235.92 -235.17)"/><path class="cls-218" d="M502.17,249.17h209.5c-2.34-.69-4.7-1.36-7.06-2H509.23Q505.68,248.13,502.17,249.17Z" transform="translate(-235.92 -235.17)"/><path class="cls-219" d="M395.64,300.17H818.2c-1-.67-1.94-1.34-2.92-2H398.56C397.58,298.83,396.61,299.5,395.64,300.17Z" transform="translate(-235.92 -235.17)"/><path class="cls-220" d="M383.23,309.17H830.61l-2.67-2h-442Z" transform="translate(-235.92 -235.17)"/><path class="cls-221" d="M424.29,282.17H789.55l-3.57-2H427.86Z" transform="translate(-235.92 -235.17)"/><path class="cls-222" d="M387.25,306.17H826.59l-2.75-2H390Z" transform="translate(-235.92 -235.17)"/><path class="cls-223" d="M414.07,288.17h385.7l-3.33-2h-379Z" transform="translate(-235.92 -235.17)"/><path class="cls-224" d="M404.56,294.17H809.27l-3.09-2H407.66Z" transform="translate(-235.92 -235.17)"/><path class="cls-225" d="M419.08,285.17H794.75c-1.14-.67-2.28-1.34-3.43-2H422.52Z" transform="translate(-235.92 -235.17)"/><path class="cls-226" d="M409.24,291.17H804.6l-3.21-2H412.45Z" transform="translate(-235.92 -235.17)"/><path class="cls-227" d="M400,297.17H813.81l-3-2H403Z" transform="translate(-235.92 -235.17)"/><path class="cls-228" d="M552.3,972.17H661.54q6.12-.9,12.16-2H540.14Q546.18,971.27,552.3,972.17Z" transform="translate(-235.92 -235.17)"/><path class="cls-229" d="M290.63,411.17H923.21l-1.23-2H291.86Z" transform="translate(-235.92 -235.17)"/><path class="cls-230" d="M292.49,408.17H921.35l-1.27-2H293.76Z" transform="translate(-235.92 -235.17)"/><path class="cls-231" d="M306.7,387.17H907.14c-.48-.67-1-1.33-1.47-2H308.17C307.67,385.84,307.18,386.5,306.7,387.17Z" transform="translate(-235.92 -235.17)"/><path class="cls-232" d="M304.53,390.17H909.3c-.47-.67-1-1.33-1.44-2H306Z" transform="translate(-235.92 -235.17)"/><path class="cls-233" d="M311.16,381.17H902.68c-.5-.67-1-1.33-1.52-2H312.68C312.17,379.84,311.66,380.5,311.16,381.17Z" transform="translate(-235.92 -235.17)"/><path class="cls-234" d="M509.23,963.17H704.61c2.36-.64,4.72-1.31,7.06-2H502.17Q505.68,962.21,509.23,963.17Z" transform="translate(-235.92 -235.17)"/><path class="cls-235" d="M521,966.17H692.81c2.69-.64,5.37-1.3,8-2H513C515.66,964.87,518.34,965.53,521,966.17Z" transform="translate(-235.92 -235.17)"/><path class="cls-236" d="M308.9,384.17h596l-1.5-2h-593Z" transform="translate(-235.92 -235.17)"/><path class="cls-237" d="M294.39,405.17H919.45l-1.3-2H295.69Z" transform="translate(-235.92 -235.17)"/><path class="cls-238" d="M300.36,396.17H913.48c-.45-.67-.91-1.33-1.37-2H301.72Z" transform="translate(-235.92 -235.17)"/><path class="cls-239" d="M296.34,402.17H917.5l-1.32-2H297.66Z" transform="translate(-235.92 -235.17)"/><path class="cls-240" d="M298.33,399.17H915.51c-.44-.67-.89-1.33-1.34-2H299.67C299.22,397.84,298.77,398.5,298.33,399.17Z" transform="translate(-235.92 -235.17)"/><path class="cls-241" d="M579.55,235.17q-10.09.74-20,2h94.8q-9.95-1.26-20-2Z" transform="translate(-235.92 -235.17)"/><polygon class="cls-242" points="371 741 371.01 741 370.99 741 371 741"/><path class="cls-243" d="M302.42,393.17h609l-1.41-2H303.83Z" transform="translate(-235.92 -235.17)"/><path class="cls-244" d="M579.55,975.17h54.74q10.1-.74,20-2h-94.8Q569.45,974.45,579.55,975.17Z" transform="translate(-235.92 -235.17)"/><path class="cls-245" d="M313.46,378.17H900.38c-.51-.67-1-1.33-1.55-2H315C314.49,376.84,314,377.5,313.46,378.17Z" transform="translate(-235.92 -235.17)"/><path class="cls-246" d="M534.86,969.17H679q4.77-.93,9.49-2H525.36C528.52,967.88,531.68,968.55,534.86,969.17Z" transform="translate(-235.92 -235.17)"/><path class="cls-247" d="M315.8,375.17H898c-.52-.67-1-1.33-1.59-2h-579Z" transform="translate(-235.92 -235.17)"/><path class="cls-248" d="M318.2,372.17H895.64l-1.63-2H319.83Z" transform="translate(-235.92 -235.17)"/></svg>