<svg id="レイヤー_2" data-name="レイヤー 2" xmlns="http://www.w3.org/2000/svg" xmlns:xlink="http://www.w3.org/1999/xlink" width="267.98" height="267.95" viewBox="0 0 267.98 267.95"><defs><style>.cls-1{fill:url(#名称未設定グラデーション_15);}.cls-2{fill:url(#名称未設定グラデーション_15-2);}.cls-3{fill:url(#名称未設定グラデーション_15-3);}.cls-4{fill:url(#名称未設定グラデーション_15-4);}.cls-5{fill:url(#名称未設定グラデーション_15-5);}.cls-6{fill:url(#名称未設定グラデーション_15-6);}.cls-7{fill:url(#名称未設定グラデーション_15-7);}.cls-8{fill:url(#名称未設定グラデーション_15-8);}.cls-9{fill:url(#名称未設定グラデーション_15-9);}.cls-10{fill:url(#名称未設定グラデーション_15-10);}.cls-11{fill:url(#名称未設定グラデーション_15-11);}.cls-12{fill:url(#名称未設定グラデーション_15-12);}.cls-13{fill:url(#名称未設定グラデーション_15-13);}.cls-14{fill:url(#名称未設定グラデーション_15-14);}.cls-15{fill:url(#名称未設定グラデーション_15-15);}.cls-16{fill:url(#名称未設定グラデーション_15-16);}.cls-17{fill:url(#名称未設定グラデーション_15-17);}.cls-18{fill:url(#名称未設定グラデーション_15-18);}.cls-19{fill:url(#名称未設定グラデーション_15-19);}.cls-20{fill:url(#名称未設定グラデーション_15-20);}.cls-21{fill:url(#名称未設定グラデーション_15-21);}.cls-22{fill:url(#名称未設定グラデーション_15-22);}.cls-23{fill:url(#名称未設定グラデーション_15-23);}.cls-24{fill:url(#名称未設定グラデーション_15-24);}.cls-25{fill:url(#名称未設定グラデーション_15-25);}.cls-26{fill:url(#名称未設定グラデーション_15-26);}.cls-27{fill:url(#名称未設定グラデーション_15-27);}.cls-28{fill:url(#名称未設定グラデーション_15-28);}.cls-29{fill:url(#名称未設定グラデーション_15-29);}.cls-30{fill:url(#名称未設定グラデーション_15-30);}.cls-31{fill:url(#名称未設定グラデーション_15-31);}.cls-32{fill:url(#名称未設定グラデーション_15-32);}.cls-33{fill:url(#名称未設定グラデーション_15-33);}.cls-34{fill:url(#名称未設定グラデーション_15-34);}.cls-35{fill:url(#名称未設定グラデーション_15-35);}.cls-36{fill:url(#名称未設定グラデーション_15-36);}.cls-37{fill:url(#名称未設定グラデーション_15-37);}.cls-38{fill:url(#名称未設定グラデーション_15-38);}.cls-39{fill:url(#名称未設定グラデーション_15-39);}.cls-40{fill:url(#名称未設定グラデーション_15-40);}.cls-41{fill:url(#名称未設定グラデーション_15-41);}.cls-42{fill:url(#名称未設定グラデーション_15-42);}.cls-43{fill:url(#名称未設定グラデーション_15-43);}.cls-44{fill:url(#名称未設定グラデーション_15-44);}.cls-45{fill:url(#名称未設定グラデーション_15-45);}.cls-46{fill:url(#名称未設定グラデーション_15-46);}.cls-47{fill:url(#名称未設定グラデーション_15-47);}.cls-48{fill:url(#名称未設定グラデーション_15-48);}.cls-49{fill:url(#名称未設定グラデーション_15-49);}.cls-50{fill:url(#名称未設定グラデーション_15-50);}.cls-51{fill:url(#名称未設定グラデーション_15-51);}.cls-52{fill:url(#名称未設定グラデーション_15-52);}.cls-53{fill:url(#名称未設定グラデーション_15-53);}.cls-54{fill:url(#名称未設定グラデーション_15-54);}</style><linearGradient id="名称未設定グラデーション_15" x1="176.45" y1="271.86" x2="126.08" y2="8.59" gradientUnits="userSpaceOnUse"><stop offset="0" stop-color="#7a75ff"/><stop offset="1" stop-color="#00b8c2"/></linearGradient><linearGradient id="名称未設定グラデーション_15-2" x1="154.81" y1="276" x2="104.44" y2="12.73" xlink:href="#名称未設定グラデーション_15"/><linearGradient id="名称未設定グラデーション_15-3" x1="171.12" y1="272.89" x2="120.74" y2="9.61" xlink:href="#名称未設定グラデーション_15"/><linearGradient id="名称未設定グラデーション_15-4" x1="171.78" y1="272.76" x2="121.4" y2="9.48" xlink:href="#名称未設定グラデーション_15"/><linearGradient id="名称未設定グラデーション_15-5" x1="155.47" y1="275.88" x2="105.1" y2="12.61" xlink:href="#名称未設定グラデーション_15"/><linearGradient id="名称未設定グラデーション_15-6" x1="169.14" y1="273.26" x2="118.77" y2="9.99" xlink:href="#名称未設定グラデーション_15"/><linearGradient id="名称未設定グラデーション_15-7" x1="170.45" y1="273.01" x2="120.08" y2="9.74" xlink:href="#名称未設定グラデーション_15"/><linearGradient id="名称未設定グラデーション_15-8" x1="169.79" y1="273.14" x2="119.41" y2="9.87" xlink:href="#名称未設定グラデーション_15"/><linearGradient id="名称未設定グラデーション_15-9" x1="172.45" y1="272.63" x2="122.07" y2="9.36" xlink:href="#名称未設定グラデーション_15"/><linearGradient id="名称未設定グラデーション_15-10" x1="152.84" y1="276.38" x2="102.47" y2="13.11" xlink:href="#名称未設定グラデーション_15"/><linearGradient id="名称未設定グラデーション_15-11" x1="151.51" y1="276.64" x2="101.14" y2="13.36" xlink:href="#名称未設定グラデーション_15"/><linearGradient id="名称未設定グラデーション_15-12" x1="175.11" y1="272.12" x2="124.74" y2="8.85" xlink:href="#名称未設定グラデーション_15"/><linearGradient id="名称未設定グラデーション_15-13" x1="175.79" y1="271.99" x2="125.42" y2="8.72" xlink:href="#名称未設定グラデーション_15"/><linearGradient id="名称未設定グラデーション_15-14" x1="152.18" y1="276.51" x2="101.81" y2="13.23" xlink:href="#名称未設定グラデーション_15"/><linearGradient id="名称未設定グラデーション_15-15" x1="156.13" y1="275.75" x2="105.76" y2="12.48" xlink:href="#名称未設定グラデーション_15"/><linearGradient id="名称未設定グラデーション_15-16" x1="173.11" y1="272.5" x2="122.73" y2="9.23" xlink:href="#名称未設定グラデーション_15"/><linearGradient id="名称未設定グラデーション_15-17" x1="173.78" y1="272.38" x2="123.41" y2="9.1" xlink:href="#名称未設定グラデーション_15"/><linearGradient id="名称未設定グラデーション_15-18" x1="153.5" y1="276.26" x2="103.12" y2="12.98" xlink:href="#名称未設定グラデーション_15"/><linearGradient id="名称未設定グラデーション_15-19" x1="174.45" y1="272.25" x2="124.07" y2="8.97" xlink:href="#名称未設定グラデーション_15"/><linearGradient id="名称未設定グラデーション_15-20" x1="154.15" y1="276.13" x2="103.78" y2="12.86" xlink:href="#名称未設定グラデーション_15"/><linearGradient id="名称未設定グラデーション_15-21" x1="164.12" y1="274.22" x2="113.75" y2="10.95" xlink:href="#名称未設定グラデーション_15"/><linearGradient id="名称未設定グラデーション_15-22" x1="160.8" y1="274.86" x2="110.43" y2="11.59" xlink:href="#名称未設定グラデーション_15"/><linearGradient id="名称未設定グラデーション_15-23" x1="164.79" y1="274.1" x2="114.41" y2="10.82" xlink:href="#名称未設定グラデーション_15"/><linearGradient id="名称未設定グラデーション_15-24" x1="163.46" y1="274.35" x2="113.09" y2="11.08" xlink:href="#名称未設定グラデーション_15"/><linearGradient id="名称未設定グラデーション_15-25" x1="158.79" y1="275.24" x2="108.42" y2="11.97" xlink:href="#名称未設定グラデーション_15"/><linearGradient id="名称未設定グラデーション_15-26" x1="162.13" y1="274.6" x2="111.76" y2="11.33" xlink:href="#名称未設定グラデーション_15"/><linearGradient id="名称未設定グラデーション_15-27" x1="161.46" y1="274.73" x2="111.09" y2="11.46" xlink:href="#名称未設定グラデーション_15"/><linearGradient id="名称未設定グラデーション_15-28" x1="162.79" y1="274.48" x2="112.42" y2="11.2" xlink:href="#名称未設定グラデーション_15"/><linearGradient id="名称未設定グラデーション_15-29" x1="160.13" y1="274.99" x2="109.76" y2="11.71" xlink:href="#名称未設定グラデーション_15"/><linearGradient id="名称未設定グラデーション_15-30" x1="158.13" y1="275.37" x2="107.75" y2="12.1" xlink:href="#名称未設定グラデーション_15"/><linearGradient id="名称未設定グラデーション_15-31" x1="157.45" y1="275.5" x2="107.08" y2="12.23" xlink:href="#名称未設定グラデーション_15"/><linearGradient id="名称未設定グラデーション_15-32" x1="167.28" y1="273.62" x2="116.91" y2="10.35" xlink:href="#名称未設定グラデーション_15"/><linearGradient id="名称未設定グラデーション_15-33" x1="165.42" y1="273.97" x2="115.05" y2="10.7" xlink:href="#名称未設定グラデーション_15"/><linearGradient id="名称未設定グラデーション_15-34" x1="156.79" y1="275.63" x2="106.42" y2="12.35" xlink:href="#名称未設定グラデーション_15"/><linearGradient id="名称未設定グラデーション_15-35" x1="167.9" y1="273.5" x2="117.53" y2="10.23" xlink:href="#名称未設定グラデーション_15"/><linearGradient id="名称未設定グラデーション_15-36" x1="166.04" y1="273.86" x2="115.66" y2="10.58" xlink:href="#名称未設定グラデーション_15"/><linearGradient id="名称未設定グラデーション_15-37" x1="166.66" y1="273.74" x2="116.29" y2="10.46" xlink:href="#名称未設定グラデーション_15"/><linearGradient id="名称未設定グラデーション_15-38" x1="168.52" y1="273.38" x2="118.15" y2="10.11" xlink:href="#名称未設定グラデーション_15"/><linearGradient id="名称未設定グラデーション_15-39" x1="159.46" y1="275.12" x2="109.08" y2="11.84" xlink:href="#名称未設定グラデーション_15"/><linearGradient id="名称未設定グラデーション_15-40" x1="184.43" y1="270.34" x2="134.06" y2="7.06" xlink:href="#名称未設定グラデーション_15"/><linearGradient id="名称未設定グラデーション_15-41" x1="179.76" y1="271.23" x2="129.39" y2="7.96" xlink:href="#名称未設定グラデーション_15"/><linearGradient id="名称未設定グラデーション_15-42" x1="183.74" y1="270.47" x2="133.36" y2="7.2" xlink:href="#名称未設定グラデーション_15"/><linearGradient id="名称未設定グラデーション_15-43" x1="179.1" y1="271.36" x2="128.73" y2="8.08" xlink:href="#名称未設定グラデーション_15"/><linearGradient id="名称未設定グラデーション_15-44" x1="149.48" y1="277.02" x2="99.11" y2="13.75" xlink:href="#名称未設定グラデーション_15"/><linearGradient id="名称未設定グラデーション_15-45" x1="181.73" y1="270.85" x2="131.36" y2="7.58" xlink:href="#名称未設定グラデーション_15"/><linearGradient id="名称未設定グラデーション_15-46" x1="178.44" y1="271.48" x2="128.07" y2="8.21" xlink:href="#名称未設定グラデーション_15"/><linearGradient id="名称未設定グラデーション_15-47" x1="181.07" y1="270.98" x2="130.7" y2="7.71" xlink:href="#名称未設定グラデーション_15"/><linearGradient id="名称未設定グラデーション_15-48" x1="182.39" y1="270.73" x2="132.02" y2="7.45" xlink:href="#名称未設定グラデーション_15"/><linearGradient id="名称未設定グラデーション_15-49" x1="183.07" y1="270.6" x2="132.69" y2="7.32" xlink:href="#名称未設定グラデーション_15"/><linearGradient id="名称未設定グラデーション_15-50" x1="180.42" y1="271.11" x2="130.04" y2="7.83" xlink:href="#名称未設定グラデーション_15"/><linearGradient id="名称未設定グラデーション_15-51" x1="150.83" y1="276.77" x2="100.46" y2="13.49" xlink:href="#名称未設定グラデーション_15"/><linearGradient id="名称未設定グラデーション_15-52" x1="177.78" y1="271.61" x2="127.41" y2="8.34" xlink:href="#名称未設定グラデーション_15"/><linearGradient id="名称未設定グラデーション_15-53" x1="177.12" y1="271.74" x2="126.74" y2="8.46" xlink:href="#名称未設定グラデーション_15"/><linearGradient id="名称未設定グラデーション_15-54" x1="150.16" y1="276.9" x2="99.78" y2="13.62" xlink:href="#名称未設定グラデーション_15"/></defs><title>neptune</title><path class="cls-1" d="M272.76,171.39,55.68,244.49l2.13,1.76,214.32-72.17C272.35,173.18,272.56,172.29,272.76,171.39Z" transform="translate(-8 -8.05)"/><path class="cls-2" d="M200.74,21.53,22.36,81.6c-.5,1-1,2-1.46,3L203.69,23C202.71,22.51,201.73,22,200.74,21.53Z" transform="translate(-8 -8.05)"/><path class="cls-3" d="M275.31,128.32,27.56,211.75c.42.68.85,1.37,1.28,2l246.68-83.06C275.46,129.92,275.39,129.12,275.31,128.32Z" transform="translate(-8 -8.05)"/><path class="cls-4" d="M275.72,133.46,30.34,216.09c.45.68.9,1.35,1.37,2l244.15-82.22C275.82,135.08,275.77,134.27,275.72,133.46Z" transform="translate(-8 -8.05)"/><path class="cls-5" d="M206.89,24.74,19.39,87.88c-.43,1-.84,1.92-1.24,2.89L209.62,26.3C208.72,25.77,207.8,25.25,206.89,24.74Z" transform="translate(-8 -8.05)"/><path class="cls-6" d="M272.91,113.3l-252.52,85c.33.72.67,1.43,1,2.14l252-84.85C273.24,114.84,273.08,114.07,272.91,113.3Z" transform="translate(-8 -8.05)"/><path class="cls-7" d="M274.69,123.25,25,207.34l1.19,2.08L275,125.63C274.91,124.83,274.8,124,274.69,123.25Z" transform="translate(-8 -8.05)"/><path class="cls-8" d="M273.9,118.24,22.59,202.87c.36.71.74,1.41,1.11,2.1l250.59-84.38C274.16,119.81,274,119,273.9,118.24Z" transform="translate(-8 -8.05)"/><path class="cls-9" d="M276,138.65,33.3,220.37c.48.66,1,1.33,1.46,2L276,141.12C276,140.3,276,139.47,276,138.65Z" transform="translate(-8 -8.05)"/><path class="cls-10" d="M178.76,13.11,34.81,61.58c-.82,1.08-1.61,2.18-2.39,3.29L182.64,14.28C181.35,13.87,180.06,13.48,178.76,13.11Z" transform="translate(-8 -8.05)"/><path class="cls-11" d="M159.3,9.11,47.88,46.63q-1.83,1.82-3.6,3.69L164.39,9.87C162.7,9.59,161,9.33,159.3,9.11Z" transform="translate(-8 -8.05)"/><path class="cls-12" d="M274.77,160.16,47.26,236.77l1.89,1.84L274.4,162.76C274.53,161.9,274.65,161,274.77,160.16Z" transform="translate(-8 -8.05)"/><path class="cls-13" d="M273.91,165.72,51.34,240.67c.67.61,1.33,1.21,2,1.8l220.05-74.1C273.57,167.49,273.75,166.61,273.91,165.72Z" transform="translate(-8 -8.05)"/><path class="cls-14" d="M169.72,10.88,40.65,54.34c-1,1.13-1.93,2.28-2.87,3.45L174.1,11.88C172.65,11.52,171.19,11.19,169.72,10.88Z" transform="translate(-8 -8.05)"/><path class="cls-15" d="M212.6,28.09,16.86,94c-.36.93-.71,1.88-1,2.83L215.14,29.71C214.3,29.16,213.45,28.62,212.6,28.09Z" transform="translate(-8 -8.05)"/><path class="cls-16" d="M276,143.92,36.46,224.58,38,226.53l237.89-80.11C276,145.59,276,144.76,276,143.92Z" transform="translate(-8 -8.05)"/><path class="cls-17" d="M275.8,149.26,39.85,228.71c.55.65,1.1,1.29,1.66,1.92l234.13-78.84C275.7,151,275.76,150.1,275.8,149.26Z" transform="translate(-8 -8.05)"/><path class="cls-18" d="M186.79,15.68,30,68.49c-.68,1.05-1.35,2.1-2,3.16L190.3,17C189.14,16.53,188,16.1,186.79,15.68Z" transform="translate(-8 -8.05)"/><path class="cls-19" d="M275.4,154.67l-232,78.11c.59.63,1.17,1.26,1.77,1.88l229.92-77.42C275.23,156.38,275.32,155.53,275.4,154.67Z" transform="translate(-8 -8.05)"/><path class="cls-20" d="M194.08,18.5,25.84,75.15q-.87,1.51-1.71,3.06L197.28,19.9C196.22,19.42,195.16,19,194.08,18.5Z" transform="translate(-8 -8.05)"/><path class="cls-21" d="M258.59,75.92l-249.4,84c.11.79.21,1.58.33,2.37L259.76,78C259.38,77.3,259,76.61,258.59,75.92Z" transform="translate(-8 -8.05)"/><path class="cls-22" d="M243.57,54.6,8.25,133.83c-.05.84-.09,1.68-.12,2.53L245.2,56.52C244.66,55.88,244.12,55.23,243.57,54.6Z" transform="translate(-8 -8.05)"/><path class="cls-23" d="M261,80.38,10,164.92c.13.78.28,1.55.43,2.33L262.08,82.49C261.73,81.78,261.38,81.08,261,80.38Z" transform="translate(-8 -8.05)"/><path class="cls-24" d="M256,71.52,8.61,154.82c.08.8.16,1.6.25,2.39L257.23,73.58C256.82,72.89,256.4,72.2,256,71.52Z" transform="translate(-8 -8.05)"/><path class="cls-25" d="M232,42.68,10.28,117.33c-.17.87-.32,1.75-.47,2.63L233.91,44.5C233.26,43.89,232.61,43.28,232,42.68Z" transform="translate(-8 -8.05)"/><path class="cls-26" d="M250.18,62.92,8,144.46c0,.82,0,1.64.07,2.46l243.51-82C251.14,64.25,250.66,63.58,250.18,62.92Z" transform="translate(-8 -8.05)"/><path class="cls-27" d="M247,58.72,8,139.18c0,.83,0,1.66,0,2.49l240.51-81Z" transform="translate(-8 -8.05)"/><path class="cls-28" d="M253.18,67.18l-245,82.49c0,.81.1,1.62.16,2.43L254.52,69.21C254.08,68.53,253.64,67.86,253.18,67.18Z" transform="translate(-8 -8.05)"/><path class="cls-29" d="M239.93,50.55,8.68,128.42c-.08.84-.16,1.7-.23,2.55L241.67,52.44Q240.8,51.48,239.93,50.55Z" transform="translate(-8 -8.05)"/><path class="cls-30" d="M227.57,38.88,11.45,111.65c-.2.89-.4,1.79-.58,2.68L229.66,40.65C229,40.05,228.27,39.46,227.57,38.88Z" transform="translate(-8 -8.05)"/><path class="cls-31" d="M222.9,35.18l-210,70.7c-.25.91-.5,1.81-.73,2.73L225.13,36.9C224.39,36.32,223.65,35.74,222.9,35.18Z" transform="translate(-8 -8.05)"/><path class="cls-32" d="M268.89,98.83l-254,85.54c.25.75.51,1.49.77,2.22l254-85.53C269.38,100.31,269.14,99.57,268.89,98.83Z" transform="translate(-8 -8.05)"/><path class="cls-33" d="M263.25,84.9l-252.34,85c.16.77.33,1.54.5,2.31L264.24,87C263.92,86.32,263.59,85.61,263.25,84.9Z" transform="translate(-8 -8.05)"/><path class="cls-34" d="M217.92,31.58,14.72,100c-.3.92-.6,1.85-.88,2.78L220.3,33.25C219.51,32.69,218.72,32.13,217.92,31.58Z" transform="translate(-8 -8.05)"/><path class="cls-35" d="M270.4,103.59,16.52,189.09c.27.73.55,1.47.84,2.19l253.7-85.43C270.85,105.09,270.63,104.34,270.4,103.59Z" transform="translate(-8 -8.05)"/><path class="cls-36" d="M265.31,89.48,12,174.77c.19.76.39,1.52.6,2.27L266.21,91.66C265.92,90.93,265.62,90.2,265.31,89.48Z" transform="translate(-8 -8.05)"/><path class="cls-37" d="M267.18,94.13,13.36,179.6c.22.75.43,1.51.67,2.25L268,96.33C267.74,95.59,267.46,94.86,267.18,94.13Z" transform="translate(-8 -8.05)"/><path class="cls-38" d="M271.75,108.41,18.36,193.74c.3.73.62,1.45.93,2.17l253-85.21C272.13,109.94,272,109.17,271.75,108.41Z" transform="translate(-8 -8.05)"/><path class="cls-39" d="M236.06,46.57,9.36,122.91c-.12.86-.24,1.73-.35,2.6l228.9-77.08C237.3,47.8,236.68,47.18,236.06,46.57Z" transform="translate(-8 -8.05)"/><path class="cls-40" d="M215.72,253.9,151,275.69c3.63-.24,7.23-.62,10.77-1.15l44.66-15Q211.21,256.89,215.72,253.9Z" transform="translate(-8 -8.05)"/><path class="cls-41" d="M262.17,201.33l-180,60.61c1,.5,2,1,3,1.46l175.42-59.08C261.17,203.33,261.67,202.34,262.17,201.33Z" transform="translate(-8 -8.05)"/><path class="cls-42" d="M228.52,244.32,135,275.82q3.39.17,6.82.18l81.41-27.42C225,247.21,226.78,245.78,228.52,244.32Z" transform="translate(-8 -8.05)"/><path class="cls-43" d="M265.07,195.08,76.12,258.71c.93.52,1.86,1,2.8,1.53L263.77,198C264.21,197,264.64,196.06,265.07,195.08Z" transform="translate(-8 -8.05)"/><path class="cls-44" d="M84.41,21,114.63,10.8A133.42,133.42,0,0,0,84.41,21Z" transform="translate(-8 -8.05)"/><path class="cls-45" d="M250.06,221.24,103.84,270.48c1.33.39,2.66.77,4,1.12l139.7-47C248.41,223.47,249.24,222.36,250.06,221.24Z" transform="translate(-8 -8.05)"/><path class="cls-46" d="M267.53,189l-197,66.35c.86.54,1.73,1.08,2.6,1.6l193.34-65.1Q267,190.4,267.53,189Z" transform="translate(-8 -8.05)"/><path class="cls-47" d="M254.8,214.37,95.92,267.87c1.2.43,2.4.85,3.62,1.26l153.13-51.57C253.39,216.51,254.1,215.44,254.8,214.37Z" transform="translate(-8 -8.05)"/><path class="cls-48" d="M244.4,228.42,112.68,272.77c1.52.34,3,.65,4.58.94l124.08-41.78C242.38,230.78,243.4,229.6,244.4,228.42Z" transform="translate(-8 -8.05)"/><path class="cls-49" d="M237.45,236l-114.61,38.6q2.67.39,5.37.67l105.36-35.48Q235.55,238,237.45,236Z" transform="translate(-8 -8.05)"/><path class="cls-50" d="M258.78,207.75,88.77,265c1.08.47,2.18.93,3.28,1.37L257,210.83C257.6,209.81,258.19,208.79,258.78,207.75Z" transform="translate(-8 -8.05)"/><path class="cls-51" d="M146.66,8.09,57.27,38.19q-2.43,2-4.76,4.08L153,8.45Q149.82,8.2,146.66,8.09Z" transform="translate(-8 -8.05)"/><path class="cls-52" d="M269.6,183,65.22,251.83c.8.56,1.61,1.11,2.42,1.66l201-67.7Q269.15,184.41,269.6,183Z" transform="translate(-8 -8.05)"/><path class="cls-53" d="M271.33,177.14l-211,71.07c.75.58,1.5,1.15,2.27,1.71l208-70C270.83,179,271.09,178.06,271.33,177.14Z" transform="translate(-8 -8.05)"/><path class="cls-54" d="M129.53,8.58,71.19,28.23q-3.8,2.37-7.42,5L138.48,8.05C135.47,8.12,132.49,8.31,129.53,8.58Z" transform="translate(-8 -8.05)"/></svg>