<svg id="レイヤー_1" data-name="レイヤー 1" xmlns="http://www.w3.org/2000/svg" xmlns:xlink="http://www.w3.org/1999/xlink" width="267" height="268" viewBox="0 0 267 268"><defs><style>.cls-1{fill:url(#名称未設定グラデーション_13);}</style><linearGradient id="名称未設定グラデーション_13" x1="8" y1="139" x2="276" y2="139" gradientUnits="userSpaceOnUse"><stop offset="0" stop-color="#c69c1f"/><stop offset="1" stop-color="#9986c0"/></linearGradient></defs><title>venus</title><path class="cls-1" d="M209,22.93V255.07c1-.58,2-1.18,3-1.79V24.72C211,24.11,210,23.51,209,22.93Z" transform="translate(-9 -5)"/><path class="cls-1" d="M121,6.64V271.36c1,.15,2,.3,3,.43V6.21C123,6.34,122,6.49,121,6.64Z" transform="translate(-9 -5)"/><path class="cls-1" d="M25,73.65v130.7q1.44,2.58,3,5.1V68.55Q26.44,71.07,25,73.65Z" transform="translate(-9 -5)"/><path class="cls-1" d="M29,67v144.1c1,1.51,2,3,3,4.48V62.47C31,63.94,30,65.44,29,67Z" transform="translate(-9 -5)"/><path class="cls-1" d="M205,20.71V257.29q1.51-.81,3-1.65V22.36Q206.52,21.52,205,20.71Z" transform="translate(-9 -5)"/><path class="cls-1" d="M21,81.36V196.64q1.42,3,3,5.9V75.46Q22.42,78.37,21,81.36Z" transform="translate(-9 -5)"/><path class="cls-1" d="M17,90.64v96.72q1.39,3.62,3,7.13v-111Q18.4,87,17,90.64Z" transform="translate(-9 -5)"/><path class="cls-1" d="M161,6.35v265.3c1-.14,2-.29,3-.46V6.81C163,6.64,162,6.49,161,6.35Z" transform="translate(-9 -5)"/><path class="cls-1" d="M201,18.66V259.34q1.51-.75,3-1.53V20.19Q202.52,19.41,201,18.66Z" transform="translate(-9 -5)"/><path class="cls-1" d="M45,46.55v184.9c1,1,2,2,3,3v-191C47,44.51,46,45.52,45,46.55Z" transform="translate(-9 -5)"/><path class="cls-1" d="M197,16.77V261.23c1-.46,2-.92,3-1.4V18.17C199,17.69,198,17.23,197,16.77Z" transform="translate(-9 -5)"/><path class="cls-1" d="M217,27.94V250.06q1.51-1,3-2.1V30Q218.52,29,217,27.94Z" transform="translate(-9 -5)"/><path class="cls-1" d="M41,50.94V227.06q1.47,1.68,3,3.32V47.62Q42.47,49.26,41,50.94Z" transform="translate(-9 -5)"/><path class="cls-1" d="M221,30.76V247.24c1-.74,2-1.49,3-2.26V33C223,32.25,222,31.5,221,30.76Z" transform="translate(-9 -5)"/><path class="cls-1" d="M33,61.05V217c1,1.36,2,2.7,3,4V57C35,58.35,34,59.69,33,61.05Z" transform="translate(-9 -5)"/><path class="cls-1" d="M117,7.34V270.66c1,.19,2,.37,3,.53V6.81C119,7,118,7.15,117,7.34Z" transform="translate(-9 -5)"/><path class="cls-1" d="M109,9.1V268.9c1,.25,2,.5,3,.73V8.37C111,8.6,110,8.85,109,9.1Z" transform="translate(-9 -5)"/><path class="cls-1" d="M213,25.35v227.3c1-.63,2-1.27,3-1.93V27.28C215,26.62,214,26,213,25.35Z" transform="translate(-9 -5)"/><path class="cls-1" d="M37,55.75v166.5c1,1.23,2,2.45,3,3.64V52.11C39,53.3,38,54.52,37,55.75Z" transform="translate(-9 -5)"/><path class="cls-1" d="M113,8.16V269.84l3,.63V7.53Z" transform="translate(-9 -5)"/><path class="cls-1" d="M157,5.84V272.16c1-.11,2-.23,3-.37V6.21C159,6.07,158,6,157,5.84Z" transform="translate(-9 -5)"/><path class="cls-1" d="M177,9.63V268.37q1.5-.4,3-.84V10.47Q178.5,10,177,9.63Z" transform="translate(-9 -5)"/><path class="cls-1" d="M153,5.45v267.1c1-.08,2-.17,3-.28V5.73C155,5.62,154,5.53,153,5.45Z" transform="translate(-9 -5)"/><path class="cls-1" d="M181,10.77V267.23l3-1V11.72Z" transform="translate(-9 -5)"/><path class="cls-1" d="M169,7.72V270.28l3-.65V8.37Z" transform="translate(-9 -5)"/><path class="cls-1" d="M173,8.61V269.39l3-.75V9.36Z" transform="translate(-9 -5)"/><path class="cls-1" d="M89,15.9V262.1c1,.43,2,.85,3,1.25V14.65C91,15.05,90,15.47,89,15.9Z" transform="translate(-9 -5)"/><path class="cls-1" d="M165,7V271c1-.18,2-.36,3-.56V7.53C167,7.33,166,7.15,165,7Z" transform="translate(-9 -5)"/><path class="cls-1" d="M149,5.18V272.82c1-.05,2-.12,3-.19V5.37C151,5.3,150,5.23,149,5.18Z" transform="translate(-9 -5)"/><path class="cls-1" d="M193,15.06V262.94c1-.41,2-.84,3-1.28V16.34C195,15.9,194,15.47,193,15.06Z" transform="translate(-9 -5)"/><path class="cls-1" d="M129,5.63V272.37c1,.1,2,.18,3,.26V5.37C131,5.45,130,5.53,129,5.63Z" transform="translate(-9 -5)"/><path class="cls-1" d="M145,5V273c1,0,2-.06,3-.1V5.14C147,5.1,146,5.06,145,5Z" transform="translate(-9 -5)"/><path class="cls-1" d="M9,122.6v32.8a132.82,132.82,0,0,0,3,16.19V106.41A132.82,132.82,0,0,0,9,122.6Z" transform="translate(-9 -5)"/><path class="cls-1" d="M133,5.31V272.69c1,.07,2,.13,3,.17V5.14C135,5.18,134,5.24,133,5.31Z" transform="translate(-9 -5)"/><path class="cls-1" d="M13,102.62v72.76q1.34,4.73,3,9.32V93.3Q14.34,97.89,13,102.62Z" transform="translate(-9 -5)"/><path class="cls-1" d="M189,13.48v251q1.51-.57,3-1.17V14.65Q190.52,14.05,189,13.48Z" transform="translate(-9 -5)"/><path class="cls-1" d="M185,12.05V266c1-.34,2-.69,3-1.06V13.11C187,12.74,186,12.39,185,12.05Z" transform="translate(-9 -5)"/><path class="cls-1" d="M142,5h-1V273h1c.67,0,1.33,0,2,0V5C143.33,5,142.67,5,142,5Z" transform="translate(-9 -5)"/><path class="cls-1" d="M137,5.1V272.9c1,0,2,.06,3,.07V5C139,5,138,5.07,137,5.1Z" transform="translate(-9 -5)"/><path class="cls-1" d="M125,6.07V271.93c1,.13,2,.24,3,.34V5.73C127,5.83,126,5.94,125,6.07Z" transform="translate(-9 -5)"/><path class="cls-1" d="M241,48.7V229.3c1-1.12,2-2.25,3-3.41V52.11C243,51,242,49.82,241,48.7Z" transform="translate(-9 -5)"/><path class="cls-1" d="M81,19.66V258.34c1,.51,2,1,3,1.49V18.17C83,18.65,82,19.15,81,19.66Z" transform="translate(-9 -5)"/><path class="cls-1" d="M85,17.7V260.3c1,.46,2,.92,3,1.36V16.34C87,16.78,86,17.24,85,17.7Z" transform="translate(-9 -5)"/><path class="cls-1" d="M77,21.8V256.2c1,.55,2,1.09,3,1.61V20.19C79,20.71,78,21.25,77,21.8Z" transform="translate(-9 -5)"/><path class="cls-1" d="M93,14.24V263.76c1,.39,2,.77,3,1.13V13.11C95,13.47,94,13.85,93,14.24Z" transform="translate(-9 -5)"/><path class="cls-1" d="M249,58.33V219.67c1-1.36,2-2.74,3-4.14V62.47C251,61.07,250,59.69,249,58.33Z" transform="translate(-9 -5)"/><path class="cls-1" d="M245,53.29V224.71c1-1.23,2-2.47,3-3.74V57C247,55.76,246,54.52,245,53.29Z" transform="translate(-9 -5)"/><path class="cls-1" d="M49,42.54V235.46c1,.95,2,1.9,3,2.82V39.72C51,40.64,50,41.59,49,42.54Z" transform="translate(-9 -5)"/><path class="cls-1" d="M276,139a134.47,134.47,0,0,0-3-28.28v56.56A134.47,134.47,0,0,0,276,139Z" transform="translate(-9 -5)"/><path class="cls-1" d="M265,85.77V192.23c1.07-2.47,2.08-5,3-7.53V93.3C267.08,90.75,266.07,88.24,265,85.77Z" transform="translate(-9 -5)"/><path class="cls-1" d="M253,63.91V214.09q1.55-2.29,3-4.64V68.55Q254.55,66.21,253,63.91Z" transform="translate(-9 -5)"/><path class="cls-1" d="M261,77.35v123.3q1.58-3,3-6.16v-111Q262.58,80.38,261,77.35Z" transform="translate(-9 -5)"/><path class="cls-1" d="M257,70.19V207.81q1.56-2.59,3-5.27V75.46Q258.56,72.79,257,70.19Z" transform="translate(-9 -5)"/><path class="cls-1" d="M269,96.15v85.7q1.69-5,3-10.26V106.41Q270.7,101.19,269,96.15Z" transform="translate(-9 -5)"/><path class="cls-1" d="M229,37.09V240.91c1-.86,2-1.74,3-2.63V39.72C231,38.83,230,38,229,37.09Z" transform="translate(-9 -5)"/><path class="cls-1" d="M57,35.41V242.59c1,.81,2,1.61,3,2.39V33C59,33.8,58,34.6,57,35.41Z" transform="translate(-9 -5)"/><path class="cls-1" d="M105,10.18V267.82c1,.29,2,.56,3,.82V9.36C107,9.62,106,9.89,105,10.18Z" transform="translate(-9 -5)"/><path class="cls-1" d="M73,24.11V253.89c1,.59,2,1.18,3,1.75V22.36C75,22.93,74,23.52,73,24.11Z" transform="translate(-9 -5)"/><path class="cls-1" d="M225,33.8V244.2c1-.8,2-1.62,3-2.44V36.24C227,35.42,226,34.6,225,33.8Z" transform="translate(-9 -5)"/><path class="cls-1" d="M53,38.84V239.16c1,.88,2,1.75,3,2.6V36.24C55,37.09,54,38,53,38.84Z" transform="translate(-9 -5)"/><path class="cls-1" d="M61,32.25v213.5c1,.75,2,1.49,3,2.21V30C63,30.76,62,31.5,61,32.25Z" transform="translate(-9 -5)"/><path class="cls-1" d="M101,11.4V266.6c1,.32,2,.63,3,.93V10.47C103,10.77,102,11.08,101,11.4Z" transform="translate(-9 -5)"/><path class="cls-1" d="M69,26.62V251.38c1,.64,2,1.28,3,1.9V24.72C71,25.34,70,26,69,26.62Z" transform="translate(-9 -5)"/><path class="cls-1" d="M65,29.33V248.67c1,.7,2,1.38,3,2.05V27.28C67,28,66,28.63,65,29.33Z" transform="translate(-9 -5)"/><path class="cls-1" d="M97,12.75v252.5c1,.35,2,.7,3,1V11.72C99,12.05,98,12.4,97,12.75Z" transform="translate(-9 -5)"/><path class="cls-1" d="M237,44.5v189c1-1,2-2.07,3-3.12V47.62C239,46.57,238,45.52,237,44.5Z" transform="translate(-9 -5)"/><path class="cls-1" d="M233,40.65v196.7c1-.94,2-1.89,3-2.86v-191C235,42.54,234,41.59,233,40.65Z" transform="translate(-9 -5)"/></svg>