<?xml version="1.0" encoding="utf-8"?>
<!-- Generator: Adobe Illustrator 22.0.1, SVG Export Plug-In . SVG Version: 6.00 Build 0)  -->
<svg version="1.1" id="レイヤー_1" xmlns="http://www.w3.org/2000/svg" xmlns:xlink="http://www.w3.org/1999/xlink" x="0px"
	 y="0px" width="640px" height="640px" viewBox="0 0 640 640" style="enable-background:new 0 0 640 640;" xml:space="preserve">
<style type="text/css">
	.st0{fill:#B9FFC4;}
</style>
<g>
	<g>
		<circle class="st0" cx="147.5" cy="563.5" r="31.5"/>
	</g>
	<g>
		<circle class="st0" cx="233.5" cy="563.5" r="31.5"/>
	</g>
	<g>
		<circle class="st0" cx="319.5" cy="563.5" r="31.5"/>
	</g>
	<g>
		<circle class="st0" cx="405.5" cy="563.5" r="31.5"/>
	</g>
	<g>
		<circle class="st0" cx="491.5" cy="563.5" r="31.5"/>
	</g>
	<g>
		<circle class="st0" cx="577.5" cy="563.5" r="31.5"/>
	</g>
	<g>
		<circle class="st0" cx="147.5" cy="459.5" r="28.35"/>
	</g>
	<g>
		<circle class="st0" cx="233.5" cy="459.5" r="28.35"/>
	</g>
	<g>
		<circle class="st0" cx="319.5" cy="459.5" r="28.35"/>
	</g>
	<g>
		<circle class="st0" cx="405.5" cy="459.5" r="28.35"/>
	</g>
	<g>
		<circle class="st0" cx="491.5" cy="459.5" r="28.35"/>
	</g>
	<g>
		<circle class="st0" cx="577.5" cy="459.5" r="28.35"/>
	</g>
	<g>
		<circle class="st0" cx="147.5" cy="369.5" r="25.515"/>
	</g>
	<g>
		<circle class="st0" cx="233.5" cy="369.5" r="25.515"/>
	</g>
	<g>
		<circle class="st0" cx="319.5" cy="369.5" r="25.515"/>
	</g>
	<g>
		<circle class="st0" cx="405.5" cy="369.5" r="25.515"/>
	</g>
	<g>
		<circle class="st0" cx="491.5" cy="369.5" r="25.515"/>
	</g>
	<g>
		<circle class="st0" cx="577.5" cy="369.5" r="25.515"/>
	</g>
	<g>
		<circle class="st0" cx="147.5" cy="291.74" r="22.963"/>
	</g>
	<g>
		<circle class="st0" cx="233.5" cy="291.74" r="22.963"/>
	</g>
	<g>
		<circle class="st0" cx="319.5" cy="291.74" r="22.963"/>
	</g>
	<g>
		<circle class="st0" cx="405.5" cy="291.74" r="22.963"/>
	</g>
	<g>
		<circle class="st0" cx="491.5" cy="291.74" r="22.963"/>
	</g>
	<g>
		<circle class="st0" cx="577.5" cy="291.74" r="22.963"/>
	</g>
	<g>
		<circle class="st0" cx="147.5" cy="224.672" r="20.667"/>
	</g>
	<g>
		<circle class="st0" cx="233.5" cy="224.672" r="20.667"/>
	</g>
	<g>
		<circle class="st0" cx="319.5" cy="224.672" r="20.667"/>
	</g>
	<g>
		<circle class="st0" cx="405.5" cy="224.672" r="20.667"/>
	</g>
	<g>
		<circle class="st0" cx="491.5" cy="224.672" r="20.667"/>
	</g>
	<g>
		<circle class="st0" cx="577.5" cy="224.672" r="20.667"/>
	</g>
	<g>
		<circle class="st0" cx="147.5" cy="166.935" r="18.6"/>
	</g>
	<g>
		<circle class="st0" cx="233.5" cy="166.935" r="18.6"/>
	</g>
	<g>
		<circle class="st0" cx="319.5" cy="166.935" r="18.6"/>
	</g>
	<g>
		<circle class="st0" cx="405.5" cy="166.935" r="18.6"/>
	</g>
	<g>
		<circle class="st0" cx="491.5" cy="166.935" r="18.6"/>
	</g>
	<g>
		<circle class="st0" cx="577.5" cy="166.935" r="18.6"/>
	</g>
	<g>
		<circle class="st0" cx="147.5" cy="117.334" r="16.74"/>
	</g>
	<g>
		<circle class="st0" cx="233.5" cy="117.334" r="16.74"/>
	</g>
	<g>
		<circle class="st0" cx="319.5" cy="117.334" r="16.74"/>
	</g>
	<g>
		<circle class="st0" cx="405.5" cy="117.334" r="16.74"/>
	</g>
	<g>
		<circle class="st0" cx="491.5" cy="117.334" r="16.74"/>
	</g>
	<g>
		<circle class="st0" cx="577.5" cy="117.334" r="16.74"/>
	</g>
	<g>
		<g>
			<circle class="st0" cx="61.5" cy="563.5" r="31.5"/>
		</g>
		<g>
			<circle class="st0" cx="61.5" cy="459.5" r="28.35"/>
		</g>
		<g>
			<circle class="st0" cx="61.5" cy="369.5" r="25.515"/>
		</g>
		<g>
			<circle class="st0" cx="61.5" cy="291.74" r="22.963"/>
		</g>
		<g>
			<circle class="st0" cx="61.5" cy="224.672" r="20.667"/>
		</g>
		<g>
			<circle class="st0" cx="61.5" cy="166.935" r="18.6"/>
		</g>
		<g>
			<circle class="st0" cx="61.5" cy="117.334" r="16.74"/>
		</g>
		<g>
			<circle class="st0" cx="61.5" cy="74.819" r="15.066"/>
		</g>
	</g>
	<g>
		<circle class="st0" cx="147.5" cy="74.819" r="15.066"/>
	</g>
	<g>
		<circle class="st0" cx="233.5" cy="74.819" r="15.066"/>
	</g>
	<g>
		<circle class="st0" cx="319.5" cy="74.819" r="15.066"/>
	</g>
	<g>
		<circle class="st0" cx="405.5" cy="74.819" r="15.066"/>
	</g>
	<g>
		<circle class="st0" cx="491.5" cy="74.819" r="15.066"/>
	</g>
	<g>
		<circle class="st0" cx="577.5" cy="74.819" r="15.066"/>
	</g>
</g>
</svg>
