<?xml version="1.0" encoding="utf-8"?>
<!-- Generator: Adobe Illustrator 22.0.1, SVG Export Plug-In . SVG Version: 6.00 Build 0)  -->
<svg version="1.1" id="レイヤー_1" xmlns="http://www.w3.org/2000/svg" xmlns:xlink="http://www.w3.org/1999/xlink" x="0px"
	 y="0px" width="200px" height="200px" viewBox="0 0 200 200" style="enable-background:new 0 0 200 200;" xml:space="preserve">
<style type="text/css">
	.st0{fill:#FFFFFF;}
	.st1{opacity:0.5;}
	.st2{clip-path:url(#SVGID_2_);}
	.st3{stroke:#000000;stroke-miterlimit:10;}
</style>
<g>
	<path class="st0" d="M-97-10c-14,14-22,147-3,153c-5,0-7-2-18-11s-9-52-11-62s7.45-1.838-6-4c-14.136-2.272,9,59,9,59s-8-7-17-27
		s-6-51,0-63s17-26,17-26s-18,44-6,47c13,0,3-2,7-4c7-13,1-45,10-52S-100-11-97-10z"/>
	<path class="st0" d="M-65.403,103.442V123h-23.22V10h22.782v19.558H-79.88v26.802h12.63v18.834h-12.63v28.249H-65.403z"/>
	<path class="st0" d="M-41.988,123l-5.683-41.289h-3.643V123h-8.745V10h12.777c7.82,0,13.358,10.576,13.358,33.175
		c0,16.082-2.331,25.495-6.072,30.277L-31.836,123H-41.988z M-51.315,62.445h3.109c3.449,0,5.538-4.492,5.538-16.518
		c0-11.59-2.089-17.093-5.538-17.093h-3.109V62.445z"/>
	<path class="st0" d="M-4,103.442V123h-23.219V10h22.782v19.558h-14.039v26.802h12.63v18.834h-12.63v28.249H-4z"/>
</g>
<g class="st1">
	<defs>
		<circle id="SVGID_1_" class="st1" cx="99.5" cy="97.5" r="88"/>
	</defs>
	<clipPath id="SVGID_2_">
		<use xlink:href="#SVGID_1_"  style="overflow:visible;"/>
	</clipPath>
	<g class="st2">
		<g>
			<path class="st3" d="M68.364,10.134c-20.276,58.244-20.276,116.488,0,174.732c-3.019-1.529-6.038-3.28-9.057-5.254
				c-10.906-22.809-17.268-45.618-19.086-68.427c-6.258-0.462-12.515-0.998-18.773-1.606c2.393,20.131,10.77,40.263,25.13,60.394
				c-3.019-2.599-6.038-5.42-9.057-8.463c-40.362-42.673-40.362-85.347,0-128.02c3.019-3.043,6.038-5.864,9.057-8.463
				c-13.697,19.202-21.951,38.405-24.76,57.607c6.228-0.749,12.456-1.408,18.684-1.977c2.134-21.756,8.402-43.512,18.805-65.269
				C62.326,13.414,65.345,11.663,68.364,10.134z"/>
			<path class="st3" d="M99.625,159.779c-0.007,10.99-0.016,21.981-0.027,32.971c-7.8,0.012-15.601-1.46-23.401-4.416
				c-15.176-60.556-15.176-121.112,0-181.667c7.653-2.901,15.307-4.373,22.96-4.415c-0.039,10.99-0.071,21.98-0.096,32.971
				c-6.035,0.017-12.07,0.389-18.104,1.116c-1.463,14.791-2.396,29.582-2.798,44.373c6.248-0.18,12.497-0.28,18.745-0.302
				c-0.034,10.58-0.037,21.161-0.007,31.741c-6.266-0.019-12.532-0.105-18.798-0.259c0.363,15.591,1.316,31.181,2.858,46.772
				C87.18,159.412,93.402,159.784,99.625,159.779z"/>
			<path class="st3" d="M123.194,188.184c3.729-21.354,4.035-43.335,2.411-65.747c-1.778,0.096-3.557,0.183-5.335,0.259
				c-0.916,22.797-3.074,45.595-6.476,68.392c-2.937,0.683-5.874,1.155-8.812,1.417c3.571-63.337,3.571-126.674,0-190.011
				c4.292,0.383,8.583,1.215,12.875,2.496c6.836,2.622,20.176,22.213,26.357,56.588c3.532,24.671-0.949,39.107-6.65,46.984
				c3.157,26.131,2.807,51.234-4.138,74.827C130.016,185.271,126.605,186.87,123.194,188.184z M120.741,90.781
				c1.552,0.017,3.104,0.037,4.656,0.058c5.069,0.036,8.5-7.146,6.862-26.451c-1.845-18.592-6.349-28.034-10.601-28.74
				c-1.328-0.197-2.656-0.377-3.983-0.539C119.519,53.666,120.542,72.223,120.741,90.781z"/>
			<path class="st3" d="M178.808,139.353c-4.568,7.386-10.344,14.771-17.33,22.157c-7.8,7.864-15.601,14.243-23.401,19.137
				c25.122-55.431,25.122-110.863,0-166.294c7.653,4.802,15.307,11.034,22.96,18.694c6.936,7.437,12.671,14.874,17.207,22.311
				c-6.035-3.087-12.07-5.818-18.105-8.195c4.786,12.173,7.836,24.346,9.149,36.519c6.249,0.587,12.497,1.253,18.746,1.998
				c1.171,7.317,1.255,14.635,0.251,21.952c-6.266,0.638-12.533,1.209-18.799,1.712c-1.187,12.831-4.303,25.663-9.347,38.494
				C166.362,145.387,172.585,142.558,178.808,139.353z"/>
		</g>
	</g>
</g>
</svg>
