<svg id="レイヤー_1" data-name="レイヤー 1" xmlns="http://www.w3.org/2000/svg" xmlns:xlink="http://www.w3.org/1999/xlink" width="449.76" height="457.952" viewBox="0 0 449.76 457.952"><defs><style>.cls-1{fill:url(#名称未設定グラデーション_2);}</style><linearGradient id="名称未設定グラデーション_2" x1="537.21" y1="300" x2="247.446" y2="300" gradientUnits="userSpaceOnUse"><stop offset="0" stop-color="#fff" stop-opacity="0"/><stop offset="1"/></linearGradient></defs><title>img</title><path class="cls-1" d="M184.441,103.678c-.332.2-.668.4-1,.6V495.724c.332.2.668.4,1,.6Z" transform="translate(-75.12 -71.024)"/><path class="cls-1" d="M238.6,80.011c-.334.1-.666.2-1,.3V519.691c.334.1.666.2,1,.3Z" transform="translate(-75.12 -71.024)"/><path class="cls-1" d="M230.865,82.406c-.333.109-.668.214-1,.325V517.269c.332.111.667.216,1,.325Z" transform="translate(-75.12 -71.024)"/><path class="cls-1" d="M215.391,88.12c-.333.137-.668.27-1,.408V511.472c.332.138.667.271,1,.408Z" transform="translate(-75.12 -71.024)"/><path class="cls-1" d="M207.653,91.457c-.335.152-.665.313-1,.467V508.076c.335.154.665.315,1,.467Z" transform="translate(-75.12 -71.024)"/><path class="cls-1" d="M192.179,99.226c-.335.184-.667.373-1,.559v400.43c.333.186.665.375,1,.559Z" transform="translate(-75.12 -71.024)"/><path class="cls-1" d="M199.916,95.165c-.333.167-.668.329-1,.5V504.338c.332.168.667.33,1,.5Z" transform="translate(-75.12 -71.024)"/><path class="cls-1" d="M223.128,85.092c-.335.124-.666.255-1,.38V514.528c.334.125.665.256,1,.38Z" transform="translate(-75.12 -71.024)"/><path class="cls-1" d="M246.339,77.92c-.332.083-.668.159-1,.244V521.836c.332.085.668.161,1,.244Z" transform="translate(-75.12 -71.024)"/><path class="cls-1" d="M277.289,72.374c-.334.037-.667.077-1,.115V527.511c.333.038.666.078,1,.115Z" transform="translate(-75.12 -71.024)"/><path class="cls-1" d="M285.026,71.651c-.334.025-.667.056-1,.082V528.267c.333.026.666.057,1,.082Z" transform="translate(-75.12 -71.024)"/><path class="cls-1" d="M269.551,73.353c-.333.048-.667.09-1,.14V526.507c.333.05.667.092,1,.14Z" transform="translate(-75.12 -71.024)"/><path class="cls-1" d="M254.077,76.122q-.5.106-1,.217V523.661q.5.11,1,.217Z" transform="translate(-75.12 -71.024)"/><path class="cls-1" d="M261.814,74.583c-.335.06-.666.13-1,.191V525.226c.334.061.665.131,1,.191Z" transform="translate(-75.12 -71.024)"/><path class="cls-1" d="M176.7,108.558c-.333.219-.668.437-1,.658V490.784c.332.221.667.439,1,.658Z" transform="translate(-75.12 -71.024)"/><path class="cls-1" d="M99.332,194.048c-.333.636-.673,1.267-1,1.907v208.09c.327.64.667,1.271,1,1.907Z" transform="translate(-75.12 -71.024)"/><path class="cls-1" d="M107.069,180.4q-.5.82-1,1.644v235.91q.5.824,1,1.644Z" transform="translate(-75.12 -71.024)"/><path class="cls-1" d="M292.763,71.216c-.333.014-.668.023-1,.038V528.746c.332.015.667.024,1,.038Z" transform="translate(-75.12 -71.024)"/><path class="cls-1" d="M122.543,158.223c-.336.426-.666.856-1,1.285V440.492c.334.429.664.859,1,1.285Z" transform="translate(-75.12 -71.024)"/><path class="cls-1" d="M76.12,335.47V264.53q-.557,3.582-1,7.2v56.538Q75.566,331.887,76.12,335.47Z" transform="translate(-75.12 -71.024)"/><path class="cls-1" d="M83.857,231.35c-.344,1.1-.671,2.206-1,3.312V365.338c.329,1.106.656,2.213,1,3.312Z" transform="translate(-75.12 -71.024)"/><path class="cls-1" d="M91.6,210.369c-.341.8-.668,1.608-1,2.413V387.218c.332.805.659,1.612,1,2.413Z" transform="translate(-75.12 -71.024)"/><path class="cls-1" d="M114.806,168.626c-.336.479-.667.961-1,1.443V429.931c.333.482.664.964,1,1.443Z" transform="translate(-75.12 -71.024)"/><path class="cls-1" d="M161.23,119.667c-.336.263-.666.532-1,.8V479.536c.334.265.664.534,1,.8Z" transform="translate(-75.12 -71.024)"/><path class="cls-1" d="M130.281,148.947c-.332.377-.671.747-1,1.127V449.926c.329.38.668.75,1,1.127Z" transform="translate(-75.12 -71.024)"/><path class="cls-1" d="M168.967,113.87c-.335.24-.666.487-1,.729V485.4c.334.242.665.489,1,.729Z" transform="translate(-75.12 -71.024)"/><path class="cls-1" d="M153.493,126.019c-.332.284-.67.561-1,.847V473.134c.33.286.668.563,1,.847Z" transform="translate(-75.12 -71.024)"/><path class="cls-1" d="M145.755,132.96c-.332.311-.669.617-1,.931V466.109c.331.314.668.62,1,.931Z" transform="translate(-75.12 -71.024)"/><path class="cls-1" d="M138.018,140.569c-.332.342-.67.679-1,1.024V458.407c.33.345.668.682,1,1.024Z" transform="translate(-75.12 -71.024)"/><path class="cls-1" d="M323.712,72c-.333-.031-.667-.059-1-.089V528.092c.333-.03.667-.058,1-.089Z" transform="translate(-75.12 -71.024)"/><path class="cls-1" d="M300.5,71.024c-.334,0-.667.008-1,.012V528.964c.333,0,.666.01,1,.012Z" transform="translate(-75.12 -71.024)"/><path class="cls-1" d="M462.982,136.776q-.5-.49-1-.976V464.2q.5-.486,1-.976Z" transform="translate(-75.12 -71.024)"/><path class="cls-1" d="M470.72,144.766c-.332-.36-.666-.717-1-1.075V456.309c.334-.358.668-.715,1-1.075Z" transform="translate(-75.12 -71.024)"/><path class="cls-1" d="M478.457,153.586c-.33-.4-.667-.788-1-1.183V447.6c.333-.395.67-.786,1-1.183Z" transform="translate(-75.12 -71.024)"/><path class="cls-1" d="M447.508,122.857c-.331-.271-.668-.535-1-.8v355.9c.332-.27.669-.534,1-.805Z" transform="translate(-75.12 -71.024)"/><path class="cls-1" d="M432.033,111.229c-.334-.23-.664-.465-1-.694v378.93c.336-.229.666-.464,1-.694Z" transform="translate(-75.12 -71.024)"/><path class="cls-1" d="M424.3,106.131c-.332-.21-.667-.417-1-.624V494.493c.333-.207.668-.414,1-.624Z" transform="translate(-75.12 -71.024)"/><path class="cls-1" d="M439.771,116.78c-.333-.249-.667-.5-1-.743V483.963c.333-.248.667-.494,1-.743Z" transform="translate(-75.12 -71.024)"/><path class="cls-1" d="M517.143,220.356c-.327-.88-.663-1.756-1-2.631v164.55c.337-.875.673-1.751,1-2.631Z" transform="translate(-75.12 -71.024)"/><path class="cls-1" d="M509.405,202.013c-.331-.7-.662-1.4-1-2.09V400.077c.338-.694.669-1.392,1-2.09Z" transform="translate(-75.12 -71.024)"/><path class="cls-1" d="M524.88,245.665c-.324-1.331-.653-2.659-1-3.98v116.63c.347-1.321.676-2.649,1-3.98Z" transform="translate(-75.12 -71.024)"/><path class="cls-1" d="M501.669,187.133c-.332-.585-.663-1.17-1-1.752V414.619c.337-.582.668-1.167,1-1.752Z" transform="translate(-75.12 -71.024)"/><path class="cls-1" d="M486.194,163.405c-.33-.444-.666-.884-1-1.325V437.92c.334-.441.67-.881,1-1.325Z" transform="translate(-75.12 -71.024)"/><path class="cls-1" d="M493.932,174.484c-.333-.507-.664-1.016-1-1.52V427.036c.336-.5.667-1.013,1-1.52Z" transform="translate(-75.12 -71.024)"/><path class="cls-1" d="M455.245,129.5c-.332-.3-.666-.591-1-.887V471.384c.334-.3.668-.59,1-.887Z" transform="translate(-75.12 -71.024)"/><path class="cls-1" d="M346.924,75.344c-.333-.066-.667-.128-1-.192v449.7c.333-.064.667-.126,1-.192Z" transform="translate(-75.12 -71.024)"/><path class="cls-1" d="M339.187,73.958c-.334-.054-.666-.113-1-.165V526.207c.334-.052.666-.111,1-.165Z" transform="translate(-75.12 -71.024)"/><path class="cls-1" d="M354.661,77q-.5-.117-1-.232V523.231q.5-.114,1-.232Z" transform="translate(-75.12 -71.024)"/><path class="cls-1" d="M308.237,71.074c-.332-.008-.667-.006-1-.013V528.939c.333-.007.668,0,1-.013Z" transform="translate(-75.12 -71.024)"/><path class="cls-1" d="M362.4,78.963c-.333-.09-.666-.182-1-.27V521.307c.334-.088.667-.18,1-.27Z" transform="translate(-75.12 -71.024)"/><path class="cls-1" d="M315.975,71.413c-.334-.02-.666-.046-1-.064v457.3c.334-.018.666-.044,1-.064Z" transform="translate(-75.12 -71.024)"/><path class="cls-1" d="M331.449,72.828c-.332-.042-.667-.073-1-.114V527.286c.333-.041.668-.072,1-.114Z" transform="translate(-75.12 -71.024)"/><path class="cls-1" d="M393.347,89.8c-.334-.145-.666-.294-1-.437V510.642c.334-.143.666-.292,1-.437Z" transform="translate(-75.12 -71.024)"/><path class="cls-1" d="M401.084,93.311c-.332-.158-.667-.31-1-.467V507.156c.333-.157.668-.309,1-.467Z" transform="translate(-75.12 -71.024)"/><path class="cls-1" d="M416.559,101.452c-.332-.191-.668-.376-1-.565V499.113c.332-.189.668-.374,1-.565Z" transform="translate(-75.12 -71.024)"/><path class="cls-1" d="M408.821,97.206c-.333-.176-.665-.354-1-.528V503.322c.335-.174.667-.352,1-.528Z" transform="translate(-75.12 -71.024)"/><path class="cls-1" d="M370.136,81.193c-.332-.1-.668-.2-1-.3v438.21c.332-.1.668-.2,1-.3Z" transform="translate(-75.12 -71.024)"/><path class="cls-1" d="M377.873,83.752c-.334-.117-.665-.237-1-.352V516.6c.335-.115.666-.235,1-.352Z" transform="translate(-75.12 -71.024)"/><path class="cls-1" d="M385.609,86.6c-.332-.129-.667-.252-1-.38V513.778c.333-.128.668-.251,1-.38Z" transform="translate(-75.12 -71.024)"/></svg>