<svg id="レイヤー_2" data-name="レイヤー 2" xmlns="http://www.w3.org/2000/svg" width="800" height="800" viewBox="0 0 800 800"><defs><style>.cls-1{fill:red;}</style></defs><title>cor</title><path class="cls-1" d="M400,170a295.061,295.061,0,1,1-115.215,23.259A294.134,294.134,0,0,1,400,170m0-5C233.762,165,99,299.762,99,466S233.762,767,400,767,701,632.238,701,466,566.238,165,400,165Z"/><path class="cls-1" d="M400,182.04a282.194,282.194,0,1,1-110.194,22.245A281.321,281.321,0,0,1,400,182.04m0-5c-159.113,0-288.1,128.987-288.1,288.1S240.887,753.24,400,753.24s288.1-128.987,288.1-288.1S559.113,177.04,400,177.04Z"/><path class="cls-1" d="M400,194.94a269.338,269.338,0,1,1-105.173,21.232A268.5,268.5,0,0,1,400,194.94m0-5c-151.989,0-275.2,123.211-275.2,275.2S248.011,740.34,400,740.34s275.2-123.211,275.2-275.2S551.989,189.94,400,189.94Z"/><path class="cls-1" d="M400,207.84a256.486,256.486,0,1,1-100.151,20.218A255.678,255.678,0,0,1,400,207.84m0-5c-144.864,0-262.3,117.436-262.3,262.3S255.136,727.44,400,727.44,662.3,610,662.3,465.14,544.864,202.84,400,202.84Z"/><path class="cls-1" d="M400,220.74a243.619,243.619,0,1,1-95.13,19.2A242.865,242.865,0,0,1,400,220.74m0-5c-137.74,0-249.4,111.66-249.4,249.4S262.26,714.54,400,714.54s249.4-111.66,249.4-249.4S537.74,215.74,400,215.74Z"/><path class="cls-1" d="M400,233.64a230.752,230.752,0,1,1-90.109,18.19A230.056,230.056,0,0,1,400,233.64m0-5c-130.615,0-236.5,105.885-236.5,236.5S269.385,701.64,400,701.64s236.5-105.885,236.5-236.5S530.615,228.64,400,228.64Z"/><path class="cls-1" d="M400,246.54a217.911,217.911,0,1,1-85.087,17.177A217.214,217.214,0,0,1,400,246.54m0-5c-123.491,0-223.6,100.109-223.6,223.6S276.509,688.74,400,688.74s223.6-100.109,223.6-223.6S523.491,241.54,400,241.54Z"/><path class="cls-1" d="M400,259.44A205.044,205.044,0,1,1,319.934,275.6,204.4,204.4,0,0,1,400,259.44m0-5c-116.366,0-210.7,94.334-210.7,210.7s94.334,210.7,210.7,210.7,210.7-94.334,210.7-210.7S516.366,254.44,400,254.44Z"/><path class="cls-1" d="M400,272.34a192.177,192.177,0,1,1-75.045,15.149A191.592,191.592,0,0,1,400,272.34m0-5c-109.242,0-197.8,88.558-197.8,197.8s88.558,197.8,197.8,197.8,197.8-88.558,197.8-197.8S509.242,267.34,400,267.34Z"/><path class="cls-1" d="M400,285.24a179.9,179.9,0,1,1-127.209,52.692A178.723,178.723,0,0,1,400,285.24m0-5c-102.117,0-184.9,82.783-184.9,184.9s82.783,184.9,184.9,184.9,184.9-82.783,184.9-184.9S502.117,280.24,400,280.24Z"/><path class="cls-1" d="M400,298.14a167,167,0,1,1-118.087,48.913A165.908,165.908,0,0,1,400,298.14m0-5a172,172,0,1,0,172,172,172,172,0,0,0-172-172Z"/><path class="cls-1" d="M400,311.04a154.1,154.1,0,1,1-108.965,45.135A153.088,153.088,0,0,1,400,311.04m0-5a159.1,159.1,0,1,0,159.1,159.1A159.1,159.1,0,0,0,400,306.04Z"/><path class="cls-1" d="M400,323.94A141.2,141.2,0,1,1,300.157,365.3,140.271,140.271,0,0,1,400,323.94m0-5a146.2,146.2,0,1,0,146.2,146.2A146.2,146.2,0,0,0,400,318.94Z"/><path class="cls-1" d="M400,336.84a128.3,128.3,0,1,1-90.722,37.578A127.464,127.464,0,0,1,400,336.84m0-5a133.3,133.3,0,1,0,133.3,133.3A133.3,133.3,0,0,0,400,331.84Z"/><path class="cls-1" d="M400,349.74a115.4,115.4,0,1,1-81.6,33.8,114.646,114.646,0,0,1,81.6-33.8m0-5a120.4,120.4,0,1,0,120.4,120.4A120.4,120.4,0,0,0,400,344.74Z"/><path class="cls-1" d="M400,362.64a102.5,102.5,0,1,1-102.5,102.5A102.616,102.616,0,0,1,400,362.64m0-5a107.5,107.5,0,1,0,107.5,107.5A107.5,107.5,0,0,0,400,357.64Z"/><path class="cls-1" d="M400,375.54a89.6,89.6,0,1,1-89.6,89.6,89.7,89.7,0,0,1,89.6-89.6m0-5a94.6,94.6,0,1,0,94.6,94.6,94.6,94.6,0,0,0-94.6-94.6Z"/><path class="cls-1" d="M400,388.44a76.7,76.7,0,1,1-76.7,76.7,76.786,76.786,0,0,1,76.7-76.7m0-5a81.7,81.7,0,1,0,81.7,81.7,81.7,81.7,0,0,0-81.7-81.7Z"/><path class="cls-1" d="M400,401.34a63.8,63.8,0,1,1-63.8,63.8,63.873,63.873,0,0,1,63.8-63.8m0-5a68.8,68.8,0,1,0,68.8,68.8,68.8,68.8,0,0,0-68.8-68.8Z"/><path class="cls-1" d="M400,414.24a50.9,50.9,0,1,1-50.9,50.9,50.958,50.958,0,0,1,50.9-50.9m0-5a55.9,55.9,0,1,0,55.9,55.9,55.9,55.9,0,0,0-55.9-55.9Z"/><path class="cls-1" d="M400,427.14a38,38,0,1,1-38,38,38.043,38.043,0,0,1,38-38m0-5a43,43,0,1,0,43,43,43,43,0,0,0-43-43Z"/><path class="cls-1" d="M400,440.04a25.1,25.1,0,1,1-25.1,25.1,25.129,25.129,0,0,1,25.1-25.1m0-5a30.1,30.1,0,1,0,30.1,30.1,30.1,30.1,0,0,0-30.1-30.1Z"/><path class="cls-1" d="M400,452.94a12.2,12.2,0,1,1-12.2,12.2,12.214,12.214,0,0,1,12.2-12.2m0-5a17.2,17.2,0,1,0,17.2,17.2,17.2,17.2,0,0,0-17.2-17.2Z"/></svg>