<svg id="レイヤー_2" data-name="レイヤー 2" xmlns="http://www.w3.org/2000/svg" xmlns:xlink="http://www.w3.org/1999/xlink" width="800" height="800" viewBox="0 0 800 800"><defs><style>.cls-1{fill:none;}.cls-2{fill:blue;}.cls-3{fill:red;}.cls-4{fill:url(#新規パターン);}.cls-5{fill:url(#新規パターン_2);}</style><pattern id="新規パターン" data-name="新規パターン" width="60" height="50" patternUnits="userSpaceOnUse" viewBox="0 0 60 50"><rect class="cls-1" width="60" height="50"/><polygon class="cls-2" points="124.5 46.5 124.5 51.5 49.5 51.5 49.5 46.5 124.5 46.5"/><polygon class="cls-2" points="64.5 46.5 64.5 51.5 -10.5 51.5 -10.5 46.5 64.5 46.5"/><polygon class="cls-2" points="4.5 46.5 4.5 51.5 -70.5 51.5 -70.5 46.5 4.5 46.5"/><polygon class="cls-2" points="124.5 36.5 124.5 41.5 49.5 41.5 49.5 36.5 124.5 36.5"/><polygon class="cls-2" points="64.5 36.5 64.5 41.5 -10.5 41.5 -10.5 36.5 64.5 36.5"/><polygon class="cls-2" points="4.5 36.5 4.5 41.5 -70.5 41.5 -70.5 36.5 4.5 36.5"/><polygon class="cls-2" points="124.5 26.5 124.5 31.5 49.5 31.5 49.5 26.5 124.5 26.5"/><polygon class="cls-2" points="64.5 26.5 64.5 31.5 -10.5 31.5 -10.5 26.5 64.5 26.5"/><polygon class="cls-2" points="4.5 26.5 4.5 31.5 -70.5 31.5 -70.5 26.5 4.5 26.5"/><polygon class="cls-2" points="124.5 16.5 124.5 21.5 49.5 21.5 49.5 16.5 124.5 16.5"/><polygon class="cls-2" points="64.5 16.5 64.5 21.5 -10.5 21.5 -10.5 16.5 64.5 16.5"/><polygon class="cls-2" points="4.5 16.5 4.5 21.5 -70.5 21.5 -70.5 16.5 4.5 16.5"/><polygon class="cls-2" points="124.5 6.5 124.5 11.5 49.5 11.5 49.5 6.5 124.5 6.5"/><polygon class="cls-2" points="64.5 6.5 64.5 11.5 -10.5 11.5 -10.5 6.5 64.5 6.5"/><polygon class="cls-2" points="4.5 6.5 4.5 11.5 -70.5 11.5 -70.5 6.5 4.5 6.5"/><polygon class="cls-2" points="124.5 -3.5 124.5 1.5 49.5 1.5 49.5 -3.5 124.5 -3.5"/><polygon class="cls-2" points="64.5 -3.5 64.5 1.5 -10.5 1.5 -10.5 -3.5 64.5 -3.5"/><polygon class="cls-2" points="4.5 -3.5 4.5 1.5 -70.5 1.5 -70.5 -3.5 4.5 -3.5"/></pattern><pattern id="新規パターン_2" data-name="新規パターン 2" width="50" height="50" patternUnits="userSpaceOnUse" viewBox="0 0 50 50"><rect class="cls-1" width="50" height="50"/><rect class="cls-3" x="49.5" y="26.5" width="5" height="75"/><rect class="cls-3" x="39.5" y="26.5" width="5" height="75"/><rect class="cls-3" x="29.5" y="26.5" width="5" height="75"/><rect class="cls-3" x="19.5" y="26.5" width="5" height="75"/><rect class="cls-3" x="9.5" y="26.5" width="5" height="75"/><rect class="cls-3" x="-0.5" y="26.5" width="5" height="75"/><rect class="cls-3" x="49.5" y="-23.5" width="5" height="75"/><rect class="cls-3" x="39.5" y="-23.5" width="5" height="75"/><rect class="cls-3" x="29.5" y="-23.5" width="5" height="75"/><rect class="cls-3" x="19.5" y="-23.5" width="5" height="75"/><rect class="cls-3" x="9.5" y="-23.5" width="5" height="75"/><rect class="cls-3" x="-0.5" y="-23.5" width="5" height="75"/><rect class="cls-3" x="49.5" y="-73.5" width="5" height="75"/><rect class="cls-3" x="39.5" y="-73.5" width="5" height="75"/><rect class="cls-3" x="29.5" y="-73.5" width="5" height="75"/><rect class="cls-3" x="19.5" y="-73.5" width="5" height="75"/><rect class="cls-3" x="9.5" y="-73.5" width="5" height="75"/><rect class="cls-3" x="-0.5" y="-73.5" width="5" height="75"/></pattern></defs><title>cor</title><path class="cls-4" d="M542.521,344.454s7.089,15.362-16.653,38.881a27.255,27.255,0,0,0-4.03-3.1c-4.2-22.208,15.129-38.24,15.129-38.24Z"/><path class="cls-4" d="M540.5,389.142c1.466,4.253-1.544,14.527-1.544,14.527l-21.072-1.981a124.68,124.68,0,0,0,.709-16.683h.009Z"/><path class="cls-5" d="M512.555,350.29c4.719-.281,7.759-.281,7.759-.281a64.9,64.9,0,0,0,3.825-13.7L536.967,342s-19.334,16.032-15.129,38.24a40.315,40.315,0,0,0-3.573-2.078,55.008,55.008,0,0,0-25.724-5.934c-22.217,0-20.139-5.554-32.287-2.777l-.029-.009C467.246,354.757,497.96,351.174,512.555,350.29Z"/><path class="cls-4" d="M516.847,408.553l20.12,2.554c0,11.109-5.545,16.663-5.545,16.663s-16.663,0-18.867-2.068a61.9,61.9,0,0,1,2.2-9.04,62.309,62.309,0,0,0,2.078-8.109Z"/><path class="cls-4" d="M524.139,336.307a64.9,64.9,0,0,1-3.825,13.7s-3.04,0-7.759.281c-5.419-14.963,2.2-28.053,2.2-28.053S526.48,319.916,524.139,336.307Z"/><path class="cls-4" d="M459.458,394.425c-1.612-8.235-1.777-16.062-.243-22.2a14.46,14.46,0,0,1,1.01-2.786l.029.009c12.148-2.777,10.07,2.777,32.287,2.777a55.008,55.008,0,0,1,25.724,5.934s.252,2.66.33,6.845a124.68,124.68,0,0,1-.709,16.683c-.253,2.263-.592,4.574-1.039,6.865h-.01a62.309,62.309,0,0,1-2.078,8.109,61.9,61.9,0,0,0-2.2,9.04c-2.146,12.4-1.195,21.392-14.459,18.732C477.985,440.414,463.7,416.021,459.458,394.425Z"/><path class="cls-5" d="M459.458,394.425c4.243,21.6,18.527,45.989,38.638,50.009,16.663,29.452,23.14,46.173,16.663,88.87-6.671,43.93-61.1,111.088-77.762,127.751s-33.326,11.109-38.88,5.555S345,645.033,325.909,622.175c-7.962-9.536-72.207-66.653-66.652-138.86a105.147,105.147,0,0,1,14.954-46.854c23.82-39.531,69.168-60.01,89.958-76.645,4.826-3.855,9.487-7.622,14.031-11.2,18.489-14.6,35.162-26.364,53.563-30.5l-.32-1.438s-6.826-13.653-4.418-22.227l.039.01s32.151,22.217,54.369,22.217,33.326,5.555,33.326,5.555-7.623,13.09-2.2,28.053c-14.595.884-45.309,4.467-52.33,19.15a14.46,14.46,0,0,0-1.01,2.786C457.681,378.363,457.846,386.19,459.458,394.425Z"/><path class="cls-4" d="M462.769,187.746l.379.1s18.285,1.1,18.285,12.206-11.109,27.772-11.109,38.88,22.217,44.426,0,49.98-27.772-5.554-38.881,0a8.424,8.424,0,0,0-4.418,5.545c-2.408,8.574,4.418,22.227,4.418,22.227l.32,1.438c-18.4,4.136-35.074,15.9-53.563,30.5a122.739,122.739,0,0,0-8.778-20.877c-27.005-110.3,33.54-116.352,43.892-116.585h12.575s0-33.326,11.108-38.88,27.772,11.108,27.772,11.108S463.954,185,462.769,187.746Z"/><path class="cls-5" d="M431.443,161.169s-9.38,9.555-13.488,31.947c3.554-30.491-8.73-26.393-8.73-26.393l-5.894,1.68L379.9,175.1a65.18,65.18,0,0,0,17-29.723l.252.058S420.334,138.951,431.443,161.169Z"/><path class="cls-4" d="M417.955,193.116a181.673,181.673,0,0,1-3.175,18.042s-.525-.029-1.466,0h-9.643c-11.109-22.217-.34-42.755-.34-42.755l5.894-1.68S421.509,162.625,417.955,193.116Z"/><path class="cls-5" d="M379.9,175.1l23.431-6.7s-10.769,20.538.34,42.755h9.643c-10.352.233-70.9,6.283-43.892,116.585-9.565-18-27.267-40.114-54.621-33.278,16.663-27.772,11.108-61.089,27.772-99.97s22.217-66.653,27.772-66.653,22.217,0,27.772,11.109a41.509,41.509,0,0,1-1.214,6.429A65.18,65.18,0,0,1,379.9,175.1Z"/><path class="cls-4" d="M369.422,327.743A122.739,122.739,0,0,1,378.2,348.62c-4.544,3.574-9.2,7.341-14.031,11.2-20.79,16.635-66.138,37.114-89.958,76.645l-.214-.126c-14.74-19.673-25.849-58.554-9.186-86.326s5.554-44.435,49.99-55.544C342.155,287.629,359.857,309.739,369.422,327.743Z"/></svg>