<svg id="レイヤー_2" data-name="レイヤー 2" xmlns="http://www.w3.org/2000/svg" xmlns:xlink="http://www.w3.org/1999/xlink" width="800" height="800" viewBox="0 0 800 800"><defs><style>.cls-1{fill:none;}.cls-2{fill:red;}.cls-3{fill:url(#Unnamed_Pattern);}</style><pattern id="Unnamed_Pattern" data-name="Unnamed Pattern" width="50" height="50" patternTransform="matrix(1, 0, 0, -1, -30, 15562)" patternUnits="userSpaceOnUse" viewBox="0 0 50 50"><rect class="cls-1" width="50" height="50"/><rect class="cls-2" x="49.5" y="-51.5" width="5" height="75"/><rect class="cls-2" x="39.5" y="-51.5" width="5" height="75"/><rect class="cls-2" x="29.5" y="-51.5" width="5" height="75"/><rect class="cls-2" x="19.5" y="-51.5" width="5" height="75"/><rect class="cls-2" x="9.5" y="-51.5" width="5" height="75"/><rect class="cls-2" x="-0.5" y="-51.5" width="5" height="75"/><rect class="cls-2" x="49.5" y="-1.5" width="5" height="75"/><rect class="cls-2" x="39.5" y="-1.5" width="5" height="75"/><rect class="cls-2" x="29.5" y="-1.5" width="5" height="75"/><rect class="cls-2" x="19.5" y="-1.5" width="5" height="75"/><rect class="cls-2" x="9.5" y="-1.5" width="5" height="75"/><rect class="cls-2" x="-0.5" y="-1.5" width="5" height="75"/><rect class="cls-2" x="49.5" y="48.5" width="5" height="75"/><rect class="cls-2" x="39.5" y="48.5" width="5" height="75"/><rect class="cls-2" x="29.5" y="48.5" width="5" height="75"/><rect class="cls-2" x="19.5" y="48.5" width="5" height="75"/><rect class="cls-2" x="9.5" y="48.5" width="5" height="75"/><rect class="cls-2" x="-0.5" y="48.5" width="5" height="75"/></pattern></defs><title>cor</title><path class="cls-3" d="M507,511c0-12.622,17.513-27.864,13.814-39.253-3.832-11.8-27.086-13.812-34.237-23.637-7.222-9.923-2-32.637-11.919-39.859-9.824-7.149-29.777,4.789-41.581.957C421.688,405.51,412.622,384,400,384s-21.688,21.51-33.076,25.208c-11.8,3.832-31.757-8.106-41.582-.957-9.923,7.222-4.7,29.936-11.919,39.859-7.151,9.825-30.405,11.833-34.237,23.637C275.487,483.135,293,498.378,293,511s-17.513,27.864-13.814,39.253c3.832,11.8,27.086,13.811,34.237,23.637,7.222,9.922,2,32.636,11.919,39.858,9.824,7.15,29.777-4.788,41.581-.956C378.312,616.49,387.378,638,400,638s21.688-21.51,33.076-25.208c11.8-3.832,31.757,8.106,41.582.956,9.923-7.222,4.7-29.936,11.919-39.858,7.151-9.826,30.4-11.833,34.237-23.636C524.513,538.864,507,523.622,507,511Z"/></svg>