<svg id="レイヤー_2" data-name="レイヤー 2" xmlns="http://www.w3.org/2000/svg" xmlns:xlink="http://www.w3.org/1999/xlink" width="800" height="800" viewBox="0 0 800 800"><defs><style>.cls-1{fill:none;}.cls-2{fill:red;}.cls-3{fill:blue;}.cls-4{fill:url(#新規パターン_8);}.cls-5{fill:url(#新規パターン_7);}</style><pattern id="新規パターン_8" data-name="新規パターン 8" width="60" height="61.329" patternUnits="userSpaceOnUse" viewBox="0 0 60 61.329"><rect class="cls-1" width="60" height="61.329"/><polygon class="cls-3" points="124.5 42.497 124.5 47.497 49.5 47.497 49.5 42.497 124.5 42.497"/><polygon class="cls-3" points="64.5 42.497 64.5 47.497 -10.5 47.497 -10.5 42.497 64.5 42.497"/><polygon class="cls-3" points="4.5 42.497 4.5 47.497 -70.5 47.497 -70.5 42.497 4.5 42.497"/><polygon class="cls-3" points="124.5 11.832 124.5 16.832 49.5 16.832 49.5 11.832 124.5 11.832"/><polygon class="cls-3" points="64.5 11.832 64.5 16.832 -10.5 16.832 -10.5 11.832 64.5 11.832"/><polygon class="cls-3" points="4.5 11.832 4.5 16.832 -70.5 16.832 -70.5 11.832 4.5 11.832"/></pattern><pattern id="新規パターン_7" data-name="新規パターン 7" width="28.355" height="50" patternUnits="userSpaceOnUse" viewBox="0 0 28.355 50"><rect class="cls-1" width="28.355" height="50"/><rect class="cls-2" x="27.855" y="26.5" width="5" height="75"/><rect class="cls-2" x="-0.5" y="26.5" width="5" height="75"/><rect class="cls-2" x="27.855" y="-23.5" width="5" height="75"/><rect class="cls-2" x="-0.5" y="-23.5" width="5" height="75"/><rect class="cls-2" x="27.855" y="-73.5" width="5" height="75"/><rect class="cls-2" x="-0.5" y="-73.5" width="5" height="75"/></pattern></defs><title>cor</title><path class="cls-4" d="M542.531,344.46s7.079,15.362-16.663,38.881a27.293,27.293,0,0,0-4.03-3.1c-4.2-22.208,15.139-38.249,15.139-38.249Z"/><path class="cls-4" d="M540.5,389.138c1.467,4.253-1.544,14.537-1.544,14.537L517.9,401.684a126.073,126.073,0,0,0,.709-16.673Z"/><path class="cls-5" d="M518.274,378.175a55.006,55.006,0,0,0-25.733-5.943c-22.217,0-20.139-5.554-32.287-2.777l-.029-.01c7.02-14.682,37.735-18.265,52.33-19.149,4.719-.282,7.758-.282,7.758-.282a65.335,65.335,0,0,0,3.826-13.7l12.838,5.681s-19.344,16.041-15.139,38.249A40.518,40.518,0,0,0,518.274,378.175Z"/><path class="cls-4" d="M516.847,408.559l20.13,2.554c0,11.109-5.555,16.663-5.555,16.663s-16.663,0-18.867-2.078a61.794,61.794,0,0,1,2.2-9.031A63.968,63.968,0,0,0,516.847,408.559Z"/><path class="cls-4" d="M524.139,336.313a65.335,65.335,0,0,1-3.826,13.7s-3.039,0-7.758.282c-5.419-14.964,2.2-28.054,2.2-28.054S526.479,319.912,524.139,336.313Z"/><path class="cls-4" d="M517.9,401.684c-.262,2.263-.6,4.583-1.048,6.875a63.968,63.968,0,0,1-2.088,8.108,61.794,61.794,0,0,0-2.2,9.031c-2.146,12.4-1.185,21.392-14.459,18.732-20.111-4.021-34.395-28.413-38.638-50-1.612-8.234-1.777-16.061-.243-22.2a14.493,14.493,0,0,1,1.01-2.787l.029.01c12.148-2.777,10.07,2.777,32.287,2.777a55.006,55.006,0,0,1,25.733,5.943c.029.262.253,2.865.33,6.836A126.073,126.073,0,0,1,517.9,401.684Z"/><path class="cls-5" d="M459.458,394.43c4.243,21.587,18.527,45.979,38.638,50,16.663,29.461,23.14,46.173,16.663,88.87-6.671,43.93-61.1,111.088-77.762,127.751s-33.326,11.109-38.881,5.555S345,645.039,325.909,622.171c-7.962-9.536-72.207-66.653-66.653-138.861a105.114,105.114,0,0,1,14.955-46.843c23.819-39.531,69.167-60.011,89.958-76.645,4.826-3.855,9.477-7.623,14.031-11.206,18.489-14.585,35.152-26.364,53.563-30.5l-.32-1.427s-6.827-13.653-4.418-22.227l.038.009s32.152,22.218,54.37,22.218,33.326,5.554,33.326,5.554-7.623,13.09-2.2,28.054c-14.595.884-45.31,4.467-52.33,19.149a14.493,14.493,0,0,0-1.01,2.787C457.681,378.369,457.846,386.2,459.458,394.43Z"/><path class="cls-4" d="M462.769,187.742l.379.107s18.285,1.088,18.285,12.2-11.109,27.772-11.109,38.88,22.217,44.436,0,49.99-27.772-5.554-38.881,0a8.419,8.419,0,0,0-4.418,5.545c-2.409,8.574,4.418,22.227,4.418,22.227l.32,1.427c-18.411,4.137-35.074,15.916-53.563,30.5a122.739,122.739,0,0,0-8.778-20.877c-27.015-110.312,33.559-116.352,43.891-116.585h12.575s0-33.326,11.109-38.88,27.772,11.108,27.772,11.108S463.954,184.994,462.769,187.742Z"/><path class="cls-5" d="M431.443,161.165s-9.38,9.555-13.488,31.947c3.554-30.491-8.73-26.393-8.73-26.393l-5.884,1.68L379.9,175.1a65.317,65.317,0,0,0,17.012-29.733l.243.068S420.334,138.947,431.443,161.165Z"/><path class="cls-4" d="M417.955,193.112a181.673,181.673,0,0,1-3.175,18.042s-.525-.029-1.467,0h-9.642c-11.109-22.217-.33-42.755-.33-42.755l5.884-1.68S421.509,162.621,417.955,193.112Z"/><path class="cls-5" d="M379.9,175.1l23.441-6.7s-10.779,20.538.33,42.755h9.642c-10.332.233-70.906,6.273-43.891,116.585-9.565-18-27.267-40.1-54.622-33.269,16.664-27.772,11.109-61.1,27.772-99.979s22.218-66.653,27.772-66.653,22.218,0,27.772,11.109a41.933,41.933,0,0,1-1.2,6.419A65.317,65.317,0,0,1,379.9,175.1Z"/><path class="cls-4" d="M369.422,327.739a122.739,122.739,0,0,1,8.778,20.877c-4.554,3.583-9.2,7.351-14.031,11.206-20.791,16.634-66.139,37.114-89.958,76.645l-.214-.126c-14.741-19.674-25.849-58.555-9.186-86.327s5.554-44.435,49.989-55.544C342.155,287.634,359.857,309.735,369.422,327.739Z"/></svg>