<svg id="レイヤー_2" data-name="レイヤー 2" xmlns="http://www.w3.org/2000/svg" xmlns:xlink="http://www.w3.org/1999/xlink" width="800" height="800" viewBox="0 0 800 800"><defs><style>.cls-1{fill:none;}.cls-2{fill:red;}.cls-3{fill:url(#新規パターン_2);}</style><pattern id="新規パターン_2" data-name="新規パターン 2" width="50" height="50" patternUnits="userSpaceOnUse" viewBox="0 0 50 50"><rect class="cls-1" width="50" height="50"/><rect class="cls-2" x="49.5" y="26.5" width="5" height="75"/><rect class="cls-2" x="39.5" y="26.5" width="5" height="75"/><rect class="cls-2" x="29.5" y="26.5" width="5" height="75"/><rect class="cls-2" x="19.5" y="26.5" width="5" height="75"/><rect class="cls-2" x="9.5" y="26.5" width="5" height="75"/><rect class="cls-2" x="-0.5" y="26.5" width="5" height="75"/><rect class="cls-2" x="49.5" y="-23.5" width="5" height="75"/><rect class="cls-2" x="39.5" y="-23.5" width="5" height="75"/><rect class="cls-2" x="29.5" y="-23.5" width="5" height="75"/><rect class="cls-2" x="19.5" y="-23.5" width="5" height="75"/><rect class="cls-2" x="9.5" y="-23.5" width="5" height="75"/><rect class="cls-2" x="-0.5" y="-23.5" width="5" height="75"/><rect class="cls-2" x="49.5" y="-73.5" width="5" height="75"/><rect class="cls-2" x="39.5" y="-73.5" width="5" height="75"/><rect class="cls-2" x="29.5" y="-73.5" width="5" height="75"/><rect class="cls-2" x="19.5" y="-73.5" width="5" height="75"/><rect class="cls-2" x="9.5" y="-73.5" width="5" height="75"/><rect class="cls-2" x="-0.5" y="-73.5" width="5" height="75"/></pattern></defs><title>cor</title><circle class="cls-3" cx="400" cy="400" r="301"/></svg>