<svg id="レイヤー_2" data-name="レイヤー 2" xmlns="http://www.w3.org/2000/svg" xmlns:xlink="http://www.w3.org/1999/xlink" width="800" height="800" viewBox="0 0 800 800"><defs><style>.cls-1{fill:none;}.cls-2{fill:blue;}.cls-3{fill:url(#新規パターン_8);}</style><pattern id="新規パターン_8" data-name="新規パターン 8" width="60" height="61.329" patternUnits="userSpaceOnUse" viewBox="0 0 60 61.329"><rect class="cls-1" width="60" height="61.329"/><polygon class="cls-2" points="124.5 42.497 124.5 47.497 49.5 47.497 49.5 42.497 124.5 42.497"/><polygon class="cls-2" points="64.5 42.497 64.5 47.497 -10.5 47.497 -10.5 42.497 64.5 42.497"/><polygon class="cls-2" points="4.5 42.497 4.5 47.497 -70.5 47.497 -70.5 42.497 4.5 42.497"/><polygon class="cls-2" points="124.5 11.832 124.5 16.832 49.5 16.832 49.5 11.832 124.5 11.832"/><polygon class="cls-2" points="64.5 11.832 64.5 16.832 -10.5 16.832 -10.5 11.832 64.5 11.832"/><polygon class="cls-2" points="4.5 11.832 4.5 16.832 -70.5 16.832 -70.5 11.832 4.5 11.832"/></pattern></defs><title>cor</title><circle class="cls-3" cx="400" cy="400" r="301"/></svg>