<svg id="レイヤー_2" data-name="レイヤー 2" xmlns="http://www.w3.org/2000/svg" xmlns:xlink="http://www.w3.org/1999/xlink" width="800" height="800" viewBox="0 0 800 800"><defs><style>.cls-1{fill:none;}.cls-2{fill:blue;}.cls-3{fill:red;}.cls-4{fill:url(#新規パターン_2);}.cls-5{fill:url(#新規パターン);}</style><pattern id="新規パターン_2" data-name="新規パターン 2" width="50" height="50" patternTransform="translate(-10)" patternUnits="userSpaceOnUse" viewBox="0 0 50 50"><rect class="cls-1" width="50" height="50"/><rect class="cls-3" x="49.5" y="26.5" width="5" height="75"/><rect class="cls-3" x="39.5" y="26.5" width="5" height="75"/><rect class="cls-3" x="29.5" y="26.5" width="5" height="75"/><rect class="cls-3" x="19.5" y="26.5" width="5" height="75"/><rect class="cls-3" x="9.5" y="26.5" width="5" height="75"/><rect class="cls-3" x="-0.5" y="26.5" width="5" height="75"/><rect class="cls-3" x="49.5" y="-23.5" width="5" height="75"/><rect class="cls-3" x="39.5" y="-23.5" width="5" height="75"/><rect class="cls-3" x="29.5" y="-23.5" width="5" height="75"/><rect class="cls-3" x="19.5" y="-23.5" width="5" height="75"/><rect class="cls-3" x="9.5" y="-23.5" width="5" height="75"/><rect class="cls-3" x="-0.5" y="-23.5" width="5" height="75"/><rect class="cls-3" x="49.5" y="-73.5" width="5" height="75"/><rect class="cls-3" x="39.5" y="-73.5" width="5" height="75"/><rect class="cls-3" x="29.5" y="-73.5" width="5" height="75"/><rect class="cls-3" x="19.5" y="-73.5" width="5" height="75"/><rect class="cls-3" x="9.5" y="-73.5" width="5" height="75"/><rect class="cls-3" x="-0.5" y="-73.5" width="5" height="75"/></pattern><pattern id="新規パターン" data-name="新規パターン" width="60" height="50" patternTransform="translate(-10)" patternUnits="userSpaceOnUse" viewBox="0 0 60 50"><rect class="cls-1" width="60" height="50"/><polygon class="cls-2" points="124.5 46.5 124.5 51.5 49.5 51.5 49.5 46.5 124.5 46.5"/><polygon class="cls-2" points="64.5 46.5 64.5 51.5 -10.5 51.5 -10.5 46.5 64.5 46.5"/><polygon class="cls-2" points="4.5 46.5 4.5 51.5 -70.5 51.5 -70.5 46.5 4.5 46.5"/><polygon class="cls-2" points="124.5 36.5 124.5 41.5 49.5 41.5 49.5 36.5 124.5 36.5"/><polygon class="cls-2" points="64.5 36.5 64.5 41.5 -10.5 41.5 -10.5 36.5 64.5 36.5"/><polygon class="cls-2" points="4.5 36.5 4.5 41.5 -70.5 41.5 -70.5 36.5 4.5 36.5"/><polygon class="cls-2" points="124.5 26.5 124.5 31.5 49.5 31.5 49.5 26.5 124.5 26.5"/><polygon class="cls-2" points="64.5 26.5 64.5 31.5 -10.5 31.5 -10.5 26.5 64.5 26.5"/><polygon class="cls-2" points="4.5 26.5 4.5 31.5 -70.5 31.5 -70.5 26.5 4.5 26.5"/><polygon class="cls-2" points="124.5 16.5 124.5 21.5 49.5 21.5 49.5 16.5 124.5 16.5"/><polygon class="cls-2" points="64.5 16.5 64.5 21.5 -10.5 21.5 -10.5 16.5 64.5 16.5"/><polygon class="cls-2" points="4.5 16.5 4.5 21.5 -70.5 21.5 -70.5 16.5 4.5 16.5"/><polygon class="cls-2" points="124.5 6.5 124.5 11.5 49.5 11.5 49.5 6.5 124.5 6.5"/><polygon class="cls-2" points="64.5 6.5 64.5 11.5 -10.5 11.5 -10.5 6.5 64.5 6.5"/><polygon class="cls-2" points="4.5 6.5 4.5 11.5 -70.5 11.5 -70.5 6.5 4.5 6.5"/><polygon class="cls-2" points="124.5 -3.5 124.5 1.5 49.5 1.5 49.5 -3.5 124.5 -3.5"/><polygon class="cls-2" points="64.5 -3.5 64.5 1.5 -10.5 1.5 -10.5 -3.5 64.5 -3.5"/><polygon class="cls-2" points="4.5 -3.5 4.5 1.5 -70.5 1.5 -70.5 -3.5 4.5 -3.5"/></pattern></defs><title>cor</title><circle class="cls-4" cx="400" cy="213.545" r="185"/><circle class="cls-5" cx="400" cy="586.603" r="185"/></svg>