<svg id="レイヤー_2" data-name="レイヤー 2" xmlns="http://www.w3.org/2000/svg" xmlns:xlink="http://www.w3.org/1999/xlink" width="800" height="800" viewBox="0 0 800 800"><defs><style>.cls-1{fill:none;}.cls-2{fill:red;}.cls-3{fill:blue;}.cls-4{fill:url(#新規パターン_6);}.cls-5{fill:url(#新規パターン_5);}</style><pattern id="新規パターン_6" data-name="新規パターン 6" width="24.631" height="24.631" patternTransform="translate(-10)" patternUnits="userSpaceOnUse" viewBox="0 0 24.631 24.631"><rect class="cls-1" width="24.631" height="24.631"/><path class="cls-3" d="M53.946,19.946v34h-34v-34Zm-12.5,17a4.5,4.5,0,1,0-4.5,4.5A4.5,4.5,0,0,0,41.446,36.946Z"/><path class="cls-3" d="M29.315,19.946v34h-34v-34Zm-12.5,17a4.5,4.5,0,1,0-4.5,4.5A4.5,4.5,0,0,0,16.815,36.946Z"/><path class="cls-3" d="M4.684,19.946v34h-34v-34Zm-12.5,17a4.5,4.5,0,0,0-4.5-4.5,4.5,4.5,0,0,0-4.5,4.5,4.5,4.5,0,0,0,4.5,4.5A4.5,4.5,0,0,0-7.816,36.946Z"/><path class="cls-3" d="M53.946-4.685v34h-34v-34Zm-12.5,17a4.5,4.5,0,1,0-4.5,4.5A4.5,4.5,0,0,0,41.446,12.315Z"/><path class="cls-3" d="M29.315-4.685v34h-34v-34Zm-12.5,17a4.5,4.5,0,1,0-4.5,4.5A4.5,4.5,0,0,0,16.815,12.315Z"/><path class="cls-3" d="M4.684-4.685v34h-34v-34Zm-12.5,17a4.5,4.5,0,0,0-4.5-4.5,4.5,4.5,0,0,0-4.5,4.5,4.5,4.5,0,0,0,4.5,4.5A4.5,4.5,0,0,0-7.816,12.315Z"/><path class="cls-3" d="M53.946-29.315v34h-34v-34Zm-12.5,17a4.5,4.5,0,0,0-4.5-4.5,4.5,4.5,0,0,0-4.5,4.5,4.5,4.5,0,0,0,4.5,4.5A4.5,4.5,0,0,0,41.446-12.315Z"/><path class="cls-3" d="M29.315-29.315v34h-34v-34Zm-12.5,17a4.5,4.5,0,0,0-4.5-4.5,4.5,4.5,0,0,0-4.5,4.5,4.5,4.5,0,0,0,4.5,4.5A4.5,4.5,0,0,0,16.815-12.315Z"/><path class="cls-3" d="M4.684-29.315v34h-34v-34Zm-12.5,17a4.5,4.5,0,0,0-4.5-4.5,4.5,4.5,0,0,0-4.5,4.5,4.5,4.5,0,0,0,4.5,4.5A4.5,4.5,0,0,0-7.816-12.315Z"/></pattern><pattern id="新規パターン_5" data-name="新規パターン 5" width="24.631" height="24.631" patternTransform="translate(-10)" patternUnits="userSpaceOnUse" viewBox="0 0 24.631 24.631"><rect class="cls-1" width="24.631" height="24.631"/><path class="cls-2" d="M53.946,19.946v34h-34v-34Zm-12.5,17a4.5,4.5,0,1,0-4.5,4.5A4.5,4.5,0,0,0,41.446,36.946Z"/><path class="cls-2" d="M29.315,19.946v34h-34v-34Zm-12.5,17a4.5,4.5,0,1,0-4.5,4.5A4.5,4.5,0,0,0,16.815,36.946Z"/><path class="cls-2" d="M4.684,19.946v34h-34v-34Zm-12.5,17a4.5,4.5,0,0,0-4.5-4.5,4.5,4.5,0,0,0-4.5,4.5,4.5,4.5,0,0,0,4.5,4.5A4.5,4.5,0,0,0-7.816,36.946Z"/><path class="cls-2" d="M53.946-4.685v34h-34v-34Zm-12.5,17a4.5,4.5,0,1,0-4.5,4.5A4.5,4.5,0,0,0,41.446,12.315Z"/><path class="cls-2" d="M29.315-4.685v34h-34v-34Zm-12.5,17a4.5,4.5,0,1,0-4.5,4.5A4.5,4.5,0,0,0,16.815,12.315Z"/><path class="cls-2" d="M4.684-4.685v34h-34v-34Zm-12.5,17a4.5,4.5,0,0,0-4.5-4.5,4.5,4.5,0,0,0-4.5,4.5,4.5,4.5,0,0,0,4.5,4.5A4.5,4.5,0,0,0-7.816,12.315Z"/><path class="cls-2" d="M53.946-29.315v34h-34v-34Zm-12.5,17a4.5,4.5,0,0,0-4.5-4.5,4.5,4.5,0,0,0-4.5,4.5,4.5,4.5,0,0,0,4.5,4.5A4.5,4.5,0,0,0,41.446-12.315Z"/><path class="cls-2" d="M29.315-29.315v34h-34v-34Zm-12.5,17a4.5,4.5,0,0,0-4.5-4.5,4.5,4.5,0,0,0-4.5,4.5,4.5,4.5,0,0,0,4.5,4.5A4.5,4.5,0,0,0,16.815-12.315Z"/><path class="cls-2" d="M4.684-29.315v34h-34v-34Zm-12.5,17a4.5,4.5,0,0,0-4.5-4.5,4.5,4.5,0,0,0-4.5,4.5,4.5,4.5,0,0,0,4.5,4.5A4.5,4.5,0,0,0-7.816-12.315Z"/></pattern></defs><title>cor</title><path class="cls-4" d="M542.528,344.454s7.079,15.362-16.663,38.881a26.918,26.918,0,0,0-4.03-3.088v-.01c-4.2-22.208,15.138-38.24,15.138-38.24Z"/><path class="cls-4" d="M540.5,389.141c1.467,4.254-1.544,14.527-1.544,14.527l-21.062-1.981a126.265,126.265,0,0,0,.709-16.682Z"/><path class="cls-5" d="M512.552,350.29c4.719-.282,7.758-.282,7.758-.282a64.9,64.9,0,0,0,3.826-13.7L536.973,342s-19.333,16.032-15.138,38.24c-1-.651-2.185-1.36-3.564-2.078a55.144,55.144,0,0,0-25.733-5.933c-22.217,0-20.139-5.555-32.287-2.777l-.029-.01C467.242,354.757,497.957,351.173,512.552,350.29Z"/><path class="cls-4" d="M516.844,408.553l20.129,2.554c0,11.108-5.554,16.663-5.554,16.663s-16.663,0-18.867-2.069a61.929,61.929,0,0,1,2.2-9.04A64.011,64.011,0,0,0,516.844,408.553Z"/><path class="cls-4" d="M524.136,336.307a64.9,64.9,0,0,1-3.826,13.7s-3.039,0-7.758.282c-5.419-14.964,2.2-28.054,2.2-28.054S526.476,319.915,524.136,336.307Z"/><path class="cls-4" d="M459.455,394.424c-1.612-8.235-1.777-16.061-.243-22.2a14.4,14.4,0,0,1,1.01-2.787l.029.01c12.148-2.778,10.07,2.777,32.287,2.777a55.144,55.144,0,0,1,25.733,5.933s.253,2.661.33,6.846a126.265,126.265,0,0,1-.709,16.682c-.262,2.263-.6,4.574-1.048,6.866a64.011,64.011,0,0,1-2.088,8.108,61.929,61.929,0,0,0-2.2,9.04c-2.146,12.4-1.185,21.393-14.459,18.732C477.982,440.413,463.7,416.02,459.455,394.424Z"/><path class="cls-5" d="M431.76,318.119l-.32-1.437s-6.827-13.653-4.418-22.228l.038.01s32.152,22.218,54.369,22.218,33.327,5.554,33.327,5.554-7.623,13.09-2.2,28.054c-14.6.883-45.31,4.467-52.33,19.149a14.4,14.4,0,0,0-1.01,2.787c-1.534,6.137-1.369,13.963.243,22.2,4.243,21.6,18.527,45.989,38.638,50.009,16.663,29.452,23.14,46.173,16.663,88.87-6.671,43.931-61.1,111.089-77.762,127.752s-33.326,11.109-38.881,5.554S345,645.042,325.906,622.174c-7.953-9.536-72.207-66.653-66.653-138.86a105.164,105.164,0,0,1,14.954-46.853c23.82-39.532,69.178-60.011,89.968-76.645,4.817-3.855,9.478-7.613,14.022-11.2C396.686,334.025,413.349,322.256,431.76,318.119Z"/><path class="cls-4" d="M462.766,187.746l.379.107s18.284,1.087,18.284,12.2-11.108,27.772-11.108,38.881,22.217,44.425,0,49.98-27.772-5.555-38.881,0a8.419,8.419,0,0,0-4.418,5.544c-2.409,8.575,4.418,22.228,4.418,22.228l.32,1.437c-18.411,4.137-35.074,15.906-53.563,30.5a122.728,122.728,0,0,0-8.778-20.878c-27-110.3,33.54-116.351,43.891-116.584h12.575s0-33.327,11.109-38.881,27.772,11.109,27.772,11.109S463.951,185,462.766,187.746Z"/><path class="cls-5" d="M431.44,161.168s-9.4,9.575-13.5,32.025c3.583-30.568-8.72-26.471-8.72-26.471l-5.884,1.68L379.9,175.1a65.176,65.176,0,0,0,17-29.724l.252.058S420.331,138.95,431.44,161.168Z"/><path class="cls-4" d="M409.222,166.722s12.3-4.1,8.72,26.471a.163.163,0,0,0-.01.068c-.592,4.991-1.6,10.9-3.155,17.9,0,0-.525-.029-1.467,0h-9.642c-11.109-22.218-.33-42.756-.33-42.756Z"/><path class="cls-5" d="M379.9,175.1l23.442-6.7s-10.779,20.538.33,42.756h9.642c-10.351.233-70.9,6.282-43.891,116.584-9.565-18-27.267-40.114-54.622-33.278,16.664-27.762,11.109-61.089,27.772-99.969s22.218-66.653,27.772-66.653,22.218,0,27.772,11.108a41.412,41.412,0,0,1-1.213,6.429A65.176,65.176,0,0,1,379.9,175.1Z"/><path class="cls-4" d="M369.419,327.742A122.728,122.728,0,0,1,378.2,348.62c-4.544,3.583-9.2,7.341-14.022,11.2-20.79,16.634-66.148,37.113-89.968,76.645l-.2-.127c-14.751-19.673-25.86-58.554-9.2-86.326s5.554-44.435,49.989-55.544C342.152,287.628,359.854,309.739,369.419,327.742Z"/></svg>