<svg id="レイヤー_2" data-name="レイヤー 2" xmlns="http://www.w3.org/2000/svg" xmlns:xlink="http://www.w3.org/1999/xlink" width="800" height="800" viewBox="0 0 800 800"><defs><style>.cls-1{fill:none;}.cls-2{fill:#fff;}.cls-3{fill:url(#新規パターン_10);}.cls-4{fill:url(#新規パターン_9);}</style><pattern id="新規パターン_10" data-name="新規パターン 10" width="60" height="50" patternUnits="userSpaceOnUse" viewBox="0 0 60 50"><rect class="cls-1" width="60" height="50"/><polygon class="cls-2" points="124.5 46.5 124.5 51.5 49.5 51.5 49.5 46.5 124.5 46.5"/><polygon class="cls-2" points="64.5 46.5 64.5 51.5 -10.5 51.5 -10.5 46.5 64.5 46.5"/><polygon class="cls-2" points="4.5 46.5 4.5 51.5 -70.5 51.5 -70.5 46.5 4.5 46.5"/><polygon class="cls-2" points="124.5 36.5 124.5 41.5 49.5 41.5 49.5 36.5 124.5 36.5"/><polygon class="cls-2" points="64.5 36.5 64.5 41.5 -10.5 41.5 -10.5 36.5 64.5 36.5"/><polygon class="cls-2" points="4.5 36.5 4.5 41.5 -70.5 41.5 -70.5 36.5 4.5 36.5"/><polygon class="cls-2" points="124.5 26.5 124.5 31.5 49.5 31.5 49.5 26.5 124.5 26.5"/><polygon class="cls-2" points="64.5 26.5 64.5 31.5 -10.5 31.5 -10.5 26.5 64.5 26.5"/><polygon class="cls-2" points="4.5 26.5 4.5 31.5 -70.5 31.5 -70.5 26.5 4.5 26.5"/><polygon class="cls-2" points="124.5 16.5 124.5 21.5 49.5 21.5 49.5 16.5 124.5 16.5"/><polygon class="cls-2" points="64.5 16.5 64.5 21.5 -10.5 21.5 -10.5 16.5 64.5 16.5"/><polygon class="cls-2" points="4.5 16.5 4.5 21.5 -70.5 21.5 -70.5 16.5 4.5 16.5"/><polygon class="cls-2" points="124.5 6.5 124.5 11.5 49.5 11.5 49.5 6.5 124.5 6.5"/><polygon class="cls-2" points="64.5 6.5 64.5 11.5 -10.5 11.5 -10.5 6.5 64.5 6.5"/><polygon class="cls-2" points="4.5 6.5 4.5 11.5 -70.5 11.5 -70.5 6.5 4.5 6.5"/><polygon class="cls-2" points="124.5 -3.5 124.5 1.5 49.5 1.5 49.5 -3.5 124.5 -3.5"/><polygon class="cls-2" points="64.5 -3.5 64.5 1.5 -10.5 1.5 -10.5 -3.5 64.5 -3.5"/><polygon class="cls-2" points="4.5 -3.5 4.5 1.5 -70.5 1.5 -70.5 -3.5 4.5 -3.5"/></pattern><pattern id="新規パターン_9" data-name="新規パターン 9" width="50" height="50" patternUnits="userSpaceOnUse" viewBox="0 0 50 50"><rect class="cls-1" width="50" height="50"/><rect class="cls-2" x="49.5" y="26.5" width="5" height="75"/><rect class="cls-2" x="39.5" y="26.5" width="5" height="75"/><rect class="cls-2" x="29.5" y="26.5" width="5" height="75"/><rect class="cls-2" x="19.5" y="26.5" width="5" height="75"/><rect class="cls-2" x="9.5" y="26.5" width="5" height="75"/><rect class="cls-2" x="-0.5" y="26.5" width="5" height="75"/><rect class="cls-2" x="49.5" y="-23.5" width="5" height="75"/><rect class="cls-2" x="39.5" y="-23.5" width="5" height="75"/><rect class="cls-2" x="29.5" y="-23.5" width="5" height="75"/><rect class="cls-2" x="19.5" y="-23.5" width="5" height="75"/><rect class="cls-2" x="9.5" y="-23.5" width="5" height="75"/><rect class="cls-2" x="-0.5" y="-23.5" width="5" height="75"/><rect class="cls-2" x="49.5" y="-73.5" width="5" height="75"/><rect class="cls-2" x="39.5" y="-73.5" width="5" height="75"/><rect class="cls-2" x="29.5" y="-73.5" width="5" height="75"/><rect class="cls-2" x="19.5" y="-73.5" width="5" height="75"/><rect class="cls-2" x="9.5" y="-73.5" width="5" height="75"/><rect class="cls-2" x="-0.5" y="-73.5" width="5" height="75"/></pattern></defs><title>cor</title><path class="cls-3" d="M314.8,294.466c27.355-6.836,45.057,15.265,54.622,33.268a123,123,0,0,1,8.778,20.887c-4.554,3.574-9.2,7.341-14.032,11.2-20.79,16.634-66.138,37.114-89.958,76.645l-.213-.126c-14.741-19.673-25.85-58.554-9.186-86.326S270.367,305.575,314.8,294.466Z"/><path class="cls-4" d="M512.556,350.291c4.72-.281,7.749-.281,7.749-.281a64.978,64.978,0,0,0,3.826-13.711l12.838,5.7s-19.344,16.032-15.139,38.24c-1-.651-2.185-1.36-3.564-2.079a55.153,55.153,0,0,0-25.733-5.933c-22.217,0-20.129-5.554-32.277-2.777l-.029-.01C467.247,354.758,497.971,351.165,512.556,350.291Z"/><path class="cls-3" d="M417.947,193.185a182.28,182.28,0,0,1-3.165,17.965s-.525-.029-1.467,0h-9.642c-11.109-22.208-.34-42.746-.34-42.746l5.894-1.68s12.294-4.1,8.73,26.413A.1.1,0,0,0,417.947,193.185Z"/><path class="cls-3" d="M369.424,327.734c-27.015-110.311,33.559-116.351,43.891-116.584H425.89s0-33.317,11.109-38.871,27.762,11.108,27.762,11.108-.815,1.6-2,4.351l.388.106s18.276,1.1,18.276,12.207-11.109,27.762-11.109,38.871,22.217,44.435,0,49.989-27.762-5.554-38.871,0a8.425,8.425,0,0,0-4.419,5.545c-2.408,8.574,4.419,22.227,4.419,22.227l.32,1.437c-18.411,4.137-35.074,15.906-53.563,30.5A123,123,0,0,0,369.424,327.734Z"/><path class="cls-3" d="M518.606,385.006l21.9,4.137c1.467,4.253-1.544,14.527-1.544,14.527l-21.071-1.981a126.251,126.251,0,0,0,.708-16.683Z"/><path class="cls-3" d="M460.256,369.45c12.148-2.777,10.06,2.777,32.277,2.777a55.153,55.153,0,0,1,25.733,5.933s.253,2.661.33,6.846a126.251,126.251,0,0,1-.708,16.683c-.263,2.263-.6,4.574-1.049,6.865a64.026,64.026,0,0,1-2.088,8.109,61.867,61.867,0,0,0-2.2,9.04c-2.146,12.4-1.185,21.383-14.459,18.732-20.1-4.021-34.375-28.4-38.629-49.99-1.611-8.244-1.777-16.081-.242-22.218a14.361,14.361,0,0,1,1.01-2.787Z"/><path class="cls-4" d="M314.8,294.466c16.663-27.772,11.109-61.1,27.772-99.97s22.218-66.653,27.772-66.653,22.218,0,27.772,11.109a41.375,41.375,0,0,1-1.214,6.419A65.222,65.222,0,0,1,379.892,175.1l23.441-6.7s-10.769,20.538.34,42.746h9.642c-10.332.233-70.906,6.273-43.891,116.584C359.859,309.731,342.157,287.63,314.8,294.466Z"/><path class="cls-4" d="M498.088,444.435c16.663,29.452,23.15,46.173,16.663,88.87C508.09,577.235,453.662,644.383,437,661.047s-33.326,11.108-38.881,5.554S345,645.034,325.911,622.176c-7.963-9.536-72.207-66.653-66.653-138.861a105.2,105.2,0,0,1,14.954-46.853c23.82-39.531,69.168-60.011,89.958-76.645,4.827-3.855,9.478-7.622,14.032-11.2,18.489-14.595,35.152-26.364,53.563-30.5l-.32-1.437s-6.827-13.653-4.419-22.227l.039.01s32.152,22.217,54.36,22.217,33.326,5.555,33.326,5.555-7.613,13.1-2.195,28.053c-14.585.874-45.309,4.467-52.329,19.149a14.361,14.361,0,0,0-1.01,2.787c-1.535,6.137-1.369,13.974.242,22.218C463.713,416.031,477.987,440.414,498.088,444.435Z"/><path class="cls-3" d="M542.523,344.455s7.079,15.362-16.663,38.881a27.255,27.255,0,0,0-4.03-3.1C517.625,358.031,536.969,342,536.969,342Z"/><path class="cls-4" d="M397.147,145.429s23.189-6.477,34.3,15.741c0,0-9.381,9.545-13.488,31.967,3.564-30.511-8.73-26.413-8.73-26.413l-5.894,1.68-23.441,6.7A65.222,65.222,0,0,0,396.9,145.371Z"/><path class="cls-3" d="M512.556,350.291c-5.418-14.954,2.195-28.053,2.195-28.053s11.711-2.321,9.38,14.061A64.978,64.978,0,0,1,520.3,350.01S517.276,350.01,512.556,350.291Z"/><path class="cls-3" d="M516.839,408.554l20.13,2.554c0,11.109-5.555,16.663-5.555,16.663s-16.663,0-18.858-2.068h-.009a61.867,61.867,0,0,1,2.2-9.04A64.026,64.026,0,0,0,516.839,408.554Z"/></svg>