<?xml version="1.0" encoding="utf-8"?>
<!-- Generator: Adobe Illustrator 22.0.1, SVG Export Plug-In . SVG Version: 6.00 Build 0)  -->
<svg version="1.1" id="レイヤー_1" xmlns="http://www.w3.org/2000/svg" xmlns:xlink="http://www.w3.org/1999/xlink" x="0px"
	 y="0px" width="640px" height="480px" viewBox="0 0 640 480" style="enable-background:new 0 0 640 480;" xml:space="preserve">
<style type="text/css">
	.st0{fill:none;stroke:#FFFFFF;stroke-miterlimit:10;}
</style>
<g>
	<line class="st0" x1="358.4" y1="6" x2="358.4" y2="330.7"/>
	<line class="st0" x1="383.9" y1="6" x2="383.9" y2="330.7"/>
	<line class="st0" x1="418" y1="6" x2="418" y2="330.7"/>
	<line class="st0" x1="366.9" y1="6" x2="366.9" y2="330.7"/>
	<line class="st0" x1="349.9" y1="6" x2="349.9" y2="330.7"/>
	<line class="st0" x1="401" y1="6" x2="401" y2="330.7"/>
	<line class="st0" x1="452.1" y1="6" x2="452.1" y2="330.7"/>
	<line class="st0" x1="435" y1="6" x2="435" y2="330.7"/>
	<line class="st0" x1="375.4" y1="6" x2="375.4" y2="330.7"/>
	<rect x="345.6" y="6" class="st0" width="149.1" height="324.7"/>
	<line class="st0" x1="371.2" y1="6" x2="371.2" y2="330.7"/>
	<line class="st0" x1="392.5" y1="6" x2="392.5" y2="330.7"/>
	<line class="st0" x1="354.1" y1="6" x2="354.1" y2="330.7"/>
	<line class="st0" x1="379.7" y1="6" x2="379.7" y2="330.7"/>
	<line class="st0" x1="426.5" y1="6" x2="426.5" y2="330.7"/>
	<line class="st0" x1="443.6" y1="6" x2="443.6" y2="330.7"/>
	<line class="st0" x1="409.5" y1="6" x2="409.5" y2="330.7"/>
	<line class="st0" x1="362.6" y1="6" x2="362.6" y2="330.7"/>
	<line class="st0" x1="413.7" y1="6" x2="413.7" y2="330.7"/>
	<line class="st0" x1="460.6" y1="6" x2="460.6" y2="330.7"/>
	<line class="st0" x1="477.6" y1="6" x2="477.6" y2="330.7"/>
	<line class="st0" x1="430.8" y1="6" x2="430.8" y2="330.7"/>
	<line class="st0" x1="396.7" y1="6" x2="396.7" y2="330.7"/>
	<line class="st0" x1="469.1" y1="6" x2="469.1" y2="330.7"/>
	<line class="st0" x1="486.1" y1="6" x2="486.1" y2="330.7"/>
	<line class="st0" x1="447.8" y1="6" x2="447.8" y2="330.7"/>
	<line class="st0" x1="388.2" y1="6" x2="388.2" y2="330.7"/>
	<line class="st0" x1="439.3" y1="6" x2="439.3" y2="330.7"/>
	<line class="st0" x1="464.9" y1="6" x2="464.9" y2="330.7"/>
	<line class="st0" x1="405.2" y1="6" x2="405.2" y2="330.7"/>
	<line class="st0" x1="456.3" y1="6" x2="456.3" y2="330.7"/>
	<line class="st0" x1="481.9" y1="6" x2="481.9" y2="330.7"/>
	<line class="st0" x1="490.4" y1="6" x2="490.4" y2="330.7"/>
	<line class="st0" x1="473.4" y1="6" x2="473.4" y2="330.7"/>
	<line class="st0" x1="422.3" y1="6" x2="422.3" y2="330.7"/>
</g>
<g>
	<line class="st0" x1="150.2" y1="88" x2="150.2" y2="476.2"/>
	<line class="st0" x1="178.2" y1="88" x2="178.2" y2="476.2"/>
	<line class="st0" x1="215.6" y1="88" x2="215.6" y2="476.2"/>
	<line class="st0" x1="159.5" y1="88" x2="159.5" y2="476.2"/>
	<line class="st0" x1="140.9" y1="88" x2="140.9" y2="476.2"/>
	<line class="st0" x1="196.9" y1="88" x2="196.9" y2="476.2"/>
	<line class="st0" x1="253" y1="88" x2="253" y2="476.2"/>
	<line class="st0" x1="234.3" y1="88" x2="234.3" y2="476.2"/>
	<line class="st0" x1="168.9" y1="88" x2="168.9" y2="476.2"/>
	<rect x="136.2" y="88" class="st0" width="163.5" height="388.2"/>
	<line class="st0" x1="164.2" y1="88" x2="164.2" y2="476.2"/>
	<line class="st0" x1="187.6" y1="88" x2="187.6" y2="476.2"/>
	<line class="st0" x1="145.5" y1="88" x2="145.5" y2="476.2"/>
	<line class="st0" x1="173.6" y1="88" x2="173.6" y2="476.2"/>
	<line class="st0" x1="224.9" y1="88" x2="224.9" y2="476.2"/>
	<line class="st0" x1="243.6" y1="88" x2="243.6" y2="476.2"/>
	<line class="st0" x1="206.3" y1="88" x2="206.3" y2="476.2"/>
	<line class="st0" x1="154.9" y1="88" x2="154.9" y2="476.2"/>
	<line class="st0" x1="210.9" y1="88" x2="210.9" y2="476.2"/>
	<line class="st0" x1="262.3" y1="88" x2="262.3" y2="476.2"/>
	<line class="st0" x1="281" y1="88" x2="281" y2="476.2"/>
	<line class="st0" x1="229.6" y1="88" x2="229.6" y2="476.2"/>
	<line class="st0" x1="192.2" y1="88" x2="192.2" y2="476.2"/>
	<line class="st0" x1="271.7" y1="88" x2="271.7" y2="476.2"/>
	<line class="st0" x1="290.3" y1="88" x2="290.3" y2="476.2"/>
	<line class="st0" x1="248.3" y1="88" x2="248.3" y2="476.2"/>
	<line class="st0" x1="182.9" y1="88" x2="182.9" y2="476.2"/>
	<line class="st0" x1="239" y1="88" x2="239" y2="476.2"/>
	<line class="st0" x1="267" y1="88" x2="267" y2="476.2"/>
	<line class="st0" x1="201.6" y1="88" x2="201.6" y2="476.2"/>
	<line class="st0" x1="257.6" y1="88" x2="257.6" y2="476.2"/>
	<line class="st0" x1="285.7" y1="88" x2="285.7" y2="476.2"/>
	<line class="st0" x1="295" y1="88" x2="295" y2="476.2"/>
	<line class="st0" x1="276.3" y1="88" x2="276.3" y2="476.2"/>
	<line class="st0" x1="220.3" y1="88" x2="220.3" y2="476.2"/>
</g>
</svg>
