<?xml version="1.0" encoding="utf-8"?>
<!-- Generator: Adobe Illustrator 22.0.1, SVG Export Plug-In . SVG Version: 6.00 Build 0)  -->
<svg version="1.1" id="レイヤー_1" xmlns="http://www.w3.org/2000/svg" xmlns:xlink="http://www.w3.org/1999/xlink" x="0px"
	 y="0px" width="640px" height="480px" viewBox="0 0 640 480" style="enable-background:new 0 0 640 480;" xml:space="preserve">
<style type="text/css">
	.st0{fill:none;stroke:#FFFFFF;stroke-miterlimit:10;}
</style>
<g>
	<g>
		<circle class="st0" cx="232.2" cy="343.6" r="113.5"/>
		<circle class="st0" cx="232.2" cy="343.6" r="108.1"/>
		<circle class="st0" cx="232.2" cy="343.6" r="102.7"/>
		<circle class="st0" cx="232.2" cy="343.6" r="97.3"/>
		<circle class="st0" cx="232.2" cy="343.6" r="91.9"/>
		<circle class="st0" cx="232.2" cy="343.6" r="86.5"/>
		<circle class="st0" cx="232.2" cy="343.6" r="81.1"/>
		<circle class="st0" cx="232.2" cy="343.6" r="75.7"/>
		<circle class="st0" cx="232.2" cy="343.6" r="70.3"/>
		<circle class="st0" cx="232.2" cy="343.6" r="64.9"/>
		<circle class="st0" cx="232.2" cy="343.6" r="59.5"/>
		<circle class="st0" cx="232.2" cy="343.6" r="54.1"/>
		<circle class="st0" cx="232.2" cy="343.6" r="48.6"/>
		<circle class="st0" cx="232.2" cy="343.6" r="43.2"/>
		<circle class="st0" cx="232.2" cy="343.6" r="37.8"/>
		
			<ellipse transform="matrix(0.9239 -0.3827 0.3827 0.9239 -113.801 115.0259)" class="st0" cx="232.2" cy="343.6" rx="32.4" ry="32.4"/>
		
			<ellipse transform="matrix(0.9239 -0.3827 0.3827 0.9239 -113.801 115.0259)" class="st0" cx="232.2" cy="343.6" rx="27" ry="27"/>
		
			<ellipse transform="matrix(0.9239 -0.3827 0.3827 0.9239 -113.801 115.0259)" class="st0" cx="232.2" cy="343.6" rx="21.6" ry="21.6"/>
		
			<ellipse transform="matrix(0.9239 -0.3827 0.3827 0.9239 -113.801 115.0259)" class="st0" cx="232.2" cy="343.6" rx="16.2" ry="16.2"/>
		<circle class="st0" cx="232.2" cy="343.6" r="10.8"/>
		<circle class="st0" cx="232.2" cy="343.6" r="5.4"/>
	</g>
</g>
<g>
	<g>
		<circle class="st0" cx="438.8" cy="112.7" r="84.7"/>
		<circle class="st0" cx="438.8" cy="112.7" r="79.4"/>
		<circle class="st0" cx="438.8" cy="112.7" r="74.1"/>
		<circle class="st0" cx="438.8" cy="112.7" r="68.8"/>
		<circle class="st0" cx="438.8" cy="112.7" r="63.5"/>
		<circle class="st0" cx="438.8" cy="112.7" r="58.2"/>
		<circle class="st0" cx="438.8" cy="112.7" r="52.9"/>
		<circle class="st0" cx="438.8" cy="112.7" r="47.6"/>
		<circle class="st0" cx="438.8" cy="112.7" r="42.3"/>
		<circle class="st0" cx="438.8" cy="112.7" r="37.1"/>
		<circle class="st0" cx="438.8" cy="112.7" r="31.8"/>
		<circle class="st0" cx="438.8" cy="112.7" r="26.5"/>
		<circle class="st0" cx="438.8" cy="112.7" r="21.2"/>
		<circle class="st0" cx="438.8" cy="112.7" r="15.9"/>
		<circle class="st0" cx="438.8" cy="112.7" r="10.6"/>
		<circle class="st0" cx="438.8" cy="112.7" r="5.3"/>
	</g>
</g>
</svg>
