<?xml version="1.0" encoding="utf-8"?>
<!-- Generator: Adobe Illustrator 22.0.1, SVG Export Plug-In . SVG Version: 6.00 Build 0)  -->
<svg version="1.1" id="レイヤー_1" xmlns="http://www.w3.org/2000/svg" xmlns:xlink="http://www.w3.org/1999/xlink" x="0px"
	 y="0px" width="640px" height="640px" viewBox="0 0 640 640" style="enable-background:new 0 0 640 640;" xml:space="preserve">
<style type="text/css">
	.st0{clip-path:url(#SVGID_2_);}
	.st1{fill:#1E63AF;}
	.st2{clip-path:url(#SVGID_4_);}
	.st3{clip-path:url(#SVGID_6_);}
	.st4{fill:none;stroke:#1E63AF;stroke-miterlimit:10;}
</style>
<g>
	<g>
		<defs>
			<path id="SVGID_1_" d="M329.234,49.83l53.198,13.102c0,0-41.157,86.545-70.197,103.876
				c-29.04,17.332-110.614,26.158-110.614,26.158s131.653-95.101,133.411-108.03C336.79,72.007,329.234,49.83,329.234,49.83z"/>
		</defs>
		<clipPath id="SVGID_2_">
			<use xlink:href="#SVGID_1_"  style="overflow:visible;"/>
		</clipPath>
		<g class="st0">
			<line class="st1" x1="261.995" y1="-209.76" x2="-244.185" y2="284.033"/>
			<line class="st1" x1="265.231" y1="-209.067" x2="-240.949" y2="284.726"/>
			<line class="st1" x1="266.794" y1="-206.635" x2="-239.385" y2="287.159"/>
			<line class="st1" x1="270.03" y1="-205.942" x2="-236.149" y2="287.852"/>
			<line class="st1" x1="260.262" y1="-192.526" x2="-245.918" y2="301.268"/>
			<line class="st1" x1="263.498" y1="-191.833" x2="-242.682" y2="301.961"/>
			<line class="st1" x1="265.061" y1="-189.4" x2="-241.118" y2="304.393"/>
			<line class="st1" x1="268.297" y1="-188.707" x2="-237.882" y2="305.086"/>
			<line class="st1" x1="298.255" y1="-214.65" x2="-207.924" y2="279.143"/>
			<line class="st1" x1="301.491" y1="-213.957" x2="-204.688" y2="279.836"/>
			<line class="st1" x1="303.055" y1="-211.524" x2="-203.125" y2="282.269"/>
			<line class="st1" x1="306.291" y1="-210.831" x2="-199.889" y2="282.962"/>
			<line class="st1" x1="296.522" y1="-197.415" x2="-209.657" y2="296.378"/>
			<line class="st1" x1="299.758" y1="-196.723" x2="-206.421" y2="297.071"/>
			<line class="st1" x1="301.322" y1="-194.29" x2="-204.858" y2="299.503"/>
			<line class="st1" x1="304.558" y1="-193.597" x2="-201.622" y2="300.196"/>
			<line class="st1" x1="306.007" y1="-190.867" x2="-200.173" y2="302.927"/>
			<line class="st1" x1="309.242" y1="-190.174" x2="-196.937" y2="303.62"/>
			<line class="st1" x1="310.806" y1="-187.741" x2="-195.374" y2="306.052"/>
			<line class="st1" x1="314.042" y1="-187.048" x2="-192.138" y2="306.745"/>
			<line class="st1" x1="304.274" y1="-173.632" x2="-201.906" y2="320.161"/>
			<line class="st1" x1="307.509" y1="-172.939" x2="-198.67" y2="320.854"/>
			<line class="st1" x1="309.073" y1="-170.506" x2="-197.107" y2="323.287"/>
			<line class="st1" x1="312.309" y1="-169.814" x2="-193.871" y2="323.98"/>
			<line class="st1" x1="342.267" y1="-195.756" x2="-163.913" y2="298.037"/>
			<line class="st1" x1="345.503" y1="-195.063" x2="-160.677" y2="298.73"/>
			<line class="st1" x1="347.066" y1="-192.631" x2="-159.113" y2="301.163"/>
			<line class="st1" x1="350.302" y1="-191.938" x2="-155.877" y2="301.855"/>
			<line class="st1" x1="340.534" y1="-178.522" x2="-165.646" y2="315.271"/>
			<line class="st1" x1="343.77" y1="-177.829" x2="-162.41" y2="315.964"/>
			<line class="st1" x1="345.333" y1="-175.396" x2="-160.846" y2="318.397"/>
			<line class="st1" x1="348.569" y1="-174.703" x2="-157.61" y2="319.09"/>
			<line class="st1" x1="348.62" y1="-171.176" x2="-157.559" y2="322.618"/>
			<line class="st1" x1="351.856" y1="-170.483" x2="-154.324" y2="323.311"/>
			<line class="st1" x1="353.42" y1="-168.05" x2="-152.76" y2="325.743"/>
			<line class="st1" x1="356.655" y1="-167.357" x2="-149.524" y2="326.436"/>
			<line class="st1" x1="346.887" y1="-153.941" x2="-159.292" y2="339.852"/>
			<line class="st1" x1="350.123" y1="-153.248" x2="-156.057" y2="340.545"/>
			<line class="st1" x1="351.687" y1="-150.815" x2="-154.493" y2="342.978"/>
			<line class="st1" x1="354.922" y1="-150.123" x2="-151.257" y2="343.671"/>
			<line class="st1" x1="384.881" y1="-176.065" x2="-121.299" y2="317.728"/>
			<line class="st1" x1="388.116" y1="-175.372" x2="-118.063" y2="318.421"/>
			<line class="st1" x1="389.68" y1="-172.94" x2="-116.5" y2="320.854"/>
			<line class="st1" x1="392.916" y1="-172.247" x2="-113.264" y2="321.546"/>
			<line class="st1" x1="383.148" y1="-158.831" x2="-123.032" y2="334.962"/>
			<line class="st1" x1="386.383" y1="-158.138" x2="-119.796" y2="335.655"/>
			<line class="st1" x1="387.947" y1="-155.705" x2="-118.233" y2="338.088"/>
			<line class="st1" x1="391.183" y1="-155.012" x2="-114.997" y2="338.781"/>
			<line class="st1" x1="392.632" y1="-152.282" x2="-113.548" y2="341.511"/>
			<line class="st1" x1="395.868" y1="-151.589" x2="-110.312" y2="342.204"/>
			<line class="st1" x1="397.431" y1="-149.156" x2="-108.749" y2="344.637"/>
			<line class="st1" x1="400.667" y1="-148.463" x2="-105.513" y2="345.33"/>
			<line class="st1" x1="390.899" y1="-135.047" x2="-115.281" y2="358.746"/>
			<line class="st1" x1="394.135" y1="-134.355" x2="-112.045" y2="359.439"/>
			<line class="st1" x1="395.698" y1="-131.922" x2="-110.481" y2="361.871"/>
			<line class="st1" x1="398.934" y1="-131.229" x2="-107.246" y2="362.564"/>
			<line class="st1" x1="428.892" y1="-157.172" x2="-77.287" y2="336.622"/>
			<line class="st1" x1="432.128" y1="-156.479" x2="-74.052" y2="337.314"/>
			<line class="st1" x1="433.691" y1="-154.046" x2="-72.488" y2="339.747"/>
			<line class="st1" x1="436.927" y1="-153.353" x2="-69.252" y2="340.44"/>
			<line class="st1" x1="427.159" y1="-139.937" x2="-79.02" y2="353.856"/>
			<line class="st1" x1="430.395" y1="-139.244" x2="-75.785" y2="354.549"/>
			<line class="st1" x1="431.959" y1="-136.812" x2="-74.221" y2="356.982"/>
			<line class="st1" x1="435.194" y1="-136.119" x2="-70.985" y2="357.675"/>
			<line class="st1" x1="393.492" y1="-91.44" x2="-112.687" y2="402.353"/>
			<line class="st1" x1="396.728" y1="-90.747" x2="-109.451" y2="403.046"/>
			<line class="st1" x1="398.292" y1="-88.315" x2="-107.888" y2="405.479"/>
			<line class="st1" x1="401.528" y1="-87.622" x2="-104.652" y2="406.172"/>
			<line class="st1" x1="391.759" y1="-74.206" x2="-114.42" y2="419.588"/>
			<line class="st1" x1="394.995" y1="-73.513" x2="-111.184" y2="420.281"/>
			<line class="st1" x1="396.559" y1="-71.08" x2="-109.621" y2="422.713"/>
			<line class="st1" x1="399.795" y1="-70.387" x2="-106.385" y2="423.406"/>
			<line class="st1" x1="429.753" y1="-96.33" x2="-76.427" y2="397.463"/>
			<line class="st1" x1="432.989" y1="-95.637" x2="-73.191" y2="398.156"/>
			<line class="st1" x1="434.552" y1="-93.204" x2="-71.627" y2="400.589"/>
			<line class="st1" x1="437.788" y1="-92.511" x2="-68.392" y2="401.282"/>
			<line class="st1" x1="428.02" y1="-79.095" x2="-78.16" y2="414.698"/>
			<line class="st1" x1="431.256" y1="-78.403" x2="-74.924" y2="415.391"/>
			<line class="st1" x1="432.819" y1="-75.97" x2="-73.36" y2="417.823"/>
			<line class="st1" x1="436.055" y1="-75.277" x2="-70.125" y2="418.516"/>
			<line class="st1" x1="437.504" y1="-72.547" x2="-68.676" y2="421.247"/>
			<line class="st1" x1="440.74" y1="-71.854" x2="-65.44" y2="421.94"/>
			<line class="st1" x1="442.303" y1="-69.421" x2="-63.876" y2="424.372"/>
			<line class="st1" x1="445.539" y1="-68.728" x2="-60.641" y2="425.065"/>
			<line class="st1" x1="435.771" y1="-55.312" x2="-70.409" y2="438.481"/>
			<line class="st1" x1="439.007" y1="-54.619" x2="-67.173" y2="439.174"/>
			<line class="st1" x1="440.57" y1="-52.186" x2="-65.609" y2="441.607"/>
			<line class="st1" x1="443.806" y1="-51.494" x2="-62.374" y2="442.3"/>
			<line class="st1" x1="473.764" y1="-77.436" x2="-32.415" y2="416.357"/>
			<line class="st1" x1="477" y1="-76.743" x2="-29.179" y2="417.05"/>
			<line class="st1" x1="478.564" y1="-74.311" x2="-27.616" y2="419.483"/>
			<line class="st1" x1="481.799" y1="-73.618" x2="-24.38" y2="420.175"/>
			<line class="st1" x1="472.031" y1="-60.202" x2="-34.148" y2="433.591"/>
			<line class="st1" x1="475.267" y1="-59.509" x2="-30.912" y2="434.284"/>
			<line class="st1" x1="476.831" y1="-57.076" x2="-29.349" y2="436.717"/>
			<line class="st1" x1="480.067" y1="-56.383" x2="-26.113" y2="437.41"/>
			<line class="st1" x1="480.118" y1="-52.856" x2="-26.062" y2="440.938"/>
			<line class="st1" x1="483.353" y1="-52.163" x2="-22.826" y2="441.631"/>
			<line class="st1" x1="484.917" y1="-49.73" x2="-21.263" y2="444.063"/>
			<line class="st1" x1="488.153" y1="-49.037" x2="-18.027" y2="444.756"/>
			<line class="st1" x1="478.385" y1="-35.621" x2="-27.795" y2="458.172"/>
			<line class="st1" x1="481.62" y1="-34.928" x2="-24.559" y2="458.865"/>
			<line class="st1" x1="483.184" y1="-32.495" x2="-22.996" y2="461.298"/>
			<line class="st1" x1="486.42" y1="-31.803" x2="-19.76" y2="461.991"/>
			<line class="st1" x1="516.378" y1="-57.745" x2="10.198" y2="436.048"/>
			<line class="st1" x1="519.614" y1="-57.052" x2="13.434" y2="436.741"/>
			<line class="st1" x1="521.177" y1="-54.62" x2="14.998" y2="439.174"/>
			<line class="st1" x1="524.413" y1="-53.927" x2="18.234" y2="439.866"/>
			<line class="st1" x1="514.645" y1="-40.511" x2="8.465" y2="453.282"/>
			<line class="st1" x1="517.881" y1="-39.818" x2="11.701" y2="453.975"/>
			<line class="st1" x1="519.444" y1="-37.385" x2="13.265" y2="456.408"/>
			<line class="st1" x1="522.68" y1="-36.692" x2="16.501" y2="457.101"/>
			<line class="st1" x1="524.129" y1="-33.962" x2="17.949" y2="459.831"/>
			<line class="st1" x1="527.365" y1="-33.269" x2="21.185" y2="460.524"/>
			<line class="st1" x1="528.928" y1="-30.836" x2="22.749" y2="462.957"/>
			<line class="st1" x1="532.164" y1="-30.143" x2="25.985" y2="463.65"/>
			<line class="st1" x1="522.396" y1="-16.727" x2="16.216" y2="477.066"/>
			<line class="st1" x1="525.632" y1="-16.035" x2="19.452" y2="477.759"/>
			<line class="st1" x1="527.195" y1="-13.602" x2="21.016" y2="480.191"/>
			<line class="st1" x1="530.431" y1="-12.909" x2="24.252" y2="480.884"/>
			<line class="st1" x1="560.389" y1="-38.852" x2="54.21" y2="454.942"/>
			<line class="st1" x1="563.625" y1="-38.159" x2="57.446" y2="455.634"/>
			<line class="st1" x1="565.189" y1="-35.726" x2="59.009" y2="458.067"/>
			<line class="st1" x1="568.425" y1="-35.033" x2="62.245" y2="458.76"/>
			<line class="st1" x1="558.656" y1="-21.617" x2="52.477" y2="472.176"/>
			<line class="st1" x1="561.892" y1="-20.924" x2="55.713" y2="472.869"/>
			<line class="st1" x1="563.456" y1="-18.492" x2="57.276" y2="475.302"/>
			<line class="st1" x1="566.692" y1="-17.799" x2="60.512" y2="475.995"/>
			<line class="st1" x1="-21.152" y1="-426.435" x2="-527.332" y2="67.358"/>
			<line class="st1" x1="-17.916" y1="-425.742" x2="-524.096" y2="68.051"/>
			<line class="st1" x1="-16.353" y1="-423.309" x2="-522.532" y2="70.484"/>
			<line class="st1" x1="-13.117" y1="-422.616" x2="-519.297" y2="71.177"/>
			<line class="st1" x1="-22.885" y1="-409.2" x2="-529.065" y2="84.593"/>
			<line class="st1" x1="-19.649" y1="-408.507" x2="-525.829" y2="85.286"/>
			<line class="st1" x1="-18.086" y1="-406.075" x2="-524.265" y2="87.719"/>
			<line class="st1" x1="-14.85" y1="-405.382" x2="-521.03" y2="88.411"/>
			<line class="st1" x1="15.108" y1="-431.325" x2="-491.071" y2="62.469"/>
			<line class="st1" x1="18.344" y1="-430.632" x2="-487.836" y2="63.162"/>
			<line class="st1" x1="19.908" y1="-428.199" x2="-486.272" y2="65.594"/>
			<line class="st1" x1="23.143" y1="-427.506" x2="-483.036" y2="66.287"/>
			<line class="st1" x1="13.375" y1="-414.09" x2="-492.804" y2="79.703"/>
			<line class="st1" x1="16.611" y1="-413.397" x2="-489.569" y2="80.396"/>
			<line class="st1" x1="18.175" y1="-410.965" x2="-488.005" y2="82.829"/>
			<line class="st1" x1="21.41" y1="-410.272" x2="-484.769" y2="83.522"/>
			<line class="st1" x1="22.859" y1="-407.541" x2="-483.32" y2="86.252"/>
			<line class="st1" x1="26.095" y1="-406.848" x2="-480.085" y2="86.945"/>
			<line class="st1" x1="27.659" y1="-404.416" x2="-478.521" y2="89.378"/>
			<line class="st1" x1="30.894" y1="-403.723" x2="-475.285" y2="90.071"/>
			<line class="st1" x1="21.126" y1="-390.307" x2="-485.053" y2="103.487"/>
			<line class="st1" x1="24.362" y1="-389.614" x2="-481.817" y2="104.179"/>
			<line class="st1" x1="25.926" y1="-387.181" x2="-480.254" y2="106.612"/>
			<line class="st1" x1="29.162" y1="-386.488" x2="-477.018" y2="107.305"/>
			<line class="st1" x1="59.12" y1="-412.431" x2="-447.06" y2="81.362"/>
			<line class="st1" x1="62.356" y1="-411.738" x2="-443.824" y2="82.055"/>
			<line class="st1" x1="63.919" y1="-409.306" x2="-442.261" y2="84.488"/>
			<line class="st1" x1="67.155" y1="-408.613" x2="-439.025" y2="85.181"/>
			<line class="st1" x1="57.387" y1="-395.197" x2="-448.793" y2="98.597"/>
			<line class="st1" x1="60.623" y1="-394.504" x2="-445.557" y2="99.29"/>
			<line class="st1" x1="62.186" y1="-392.071" x2="-443.993" y2="101.722"/>
			<line class="st1" x1="65.422" y1="-391.378" x2="-440.758" y2="102.415"/>
			<line class="st1" x1="65.473" y1="-387.85" x2="-440.707" y2="105.943"/>
			<line class="st1" x1="68.709" y1="-387.157" x2="-437.471" y2="106.636"/>
			<line class="st1" x1="70.272" y1="-384.725" x2="-435.907" y2="109.069"/>
			<line class="st1" x1="73.508" y1="-384.032" x2="-432.672" y2="109.762"/>
			<line class="st1" x1="63.74" y1="-370.616" x2="-442.44" y2="123.178"/>
			<line class="st1" x1="66.976" y1="-369.923" x2="-439.204" y2="123.87"/>
			<line class="st1" x1="68.539" y1="-367.49" x2="-437.64" y2="126.303"/>
			<line class="st1" x1="71.775" y1="-366.797" x2="-434.404" y2="126.996"/>
			<line class="st1" x1="101.733" y1="-392.74" x2="-404.446" y2="101.053"/>
			<line class="st1" x1="104.969" y1="-392.047" x2="-401.21" y2="101.746"/>
			<line class="st1" x1="106.533" y1="-389.615" x2="-399.647" y2="104.179"/>
			<line class="st1" x1="109.769" y1="-388.922" x2="-396.411" y2="104.872"/>
			<line class="st1" x1="100" y1="-375.506" x2="-406.179" y2="118.288"/>
			<line class="st1" x1="103.236" y1="-374.813" x2="-402.943" y2="118.981"/>
			<line class="st1" x1="104.8" y1="-372.38" x2="-401.38" y2="121.413"/>
			<line class="st1" x1="108.036" y1="-371.687" x2="-398.144" y2="122.106"/>
			<line class="st1" x1="109.484" y1="-368.957" x2="-396.695" y2="124.837"/>
			<line class="st1" x1="112.72" y1="-368.264" x2="-393.459" y2="125.53"/>
			<line class="st1" x1="114.284" y1="-365.831" x2="-391.896" y2="127.962"/>
			<line class="st1" x1="117.52" y1="-365.138" x2="-388.66" y2="128.655"/>
			<line class="st1" x1="107.752" y1="-351.722" x2="-398.428" y2="142.071"/>
			<line class="st1" x1="110.987" y1="-351.029" x2="-395.192" y2="142.764"/>
			<line class="st1" x1="112.551" y1="-348.597" x2="-393.629" y2="145.197"/>
			<line class="st1" x1="115.787" y1="-347.904" x2="-390.393" y2="145.89"/>
			<line class="st1" x1="145.745" y1="-373.846" x2="-360.435" y2="119.947"/>
			<line class="st1" x1="148.981" y1="-373.154" x2="-357.199" y2="120.64"/>
			<line class="st1" x1="150.544" y1="-370.721" x2="-355.635" y2="123.072"/>
			<line class="st1" x1="153.78" y1="-370.028" x2="-352.4" y2="123.765"/>
			<line class="st1" x1="144.012" y1="-356.612" x2="-362.168" y2="137.181"/>
			<line class="st1" x1="147.248" y1="-355.919" x2="-358.932" y2="137.874"/>
			<line class="st1" x1="148.811" y1="-353.486" x2="-357.368" y2="140.307"/>
			<line class="st1" x1="152.047" y1="-352.793" x2="-354.133" y2="141"/>
			<line class="st1" x1="110.345" y1="-308.115" x2="-395.835" y2="185.678"/>
			<line class="st1" x1="113.581" y1="-307.422" x2="-392.599" y2="186.371"/>
			<line class="st1" x1="115.144" y1="-304.989" x2="-391.035" y2="188.804"/>
			<line class="st1" x1="118.38" y1="-304.296" x2="-387.799" y2="189.497"/>
			<line class="st1" x1="108.612" y1="-290.88" x2="-397.567" y2="202.913"/>
			<line class="st1" x1="111.848" y1="-290.187" x2="-394.332" y2="203.606"/>
			<line class="st1" x1="113.412" y1="-287.755" x2="-392.768" y2="206.039"/>
			<line class="st1" x1="116.647" y1="-287.062" x2="-389.532" y2="206.731"/>
			<line class="st1" x1="146.606" y1="-313.005" x2="-359.574" y2="180.789"/>
			<line class="st1" x1="149.841" y1="-312.312" x2="-356.338" y2="181.482"/>
			<line class="st1" x1="151.405" y1="-309.879" x2="-354.775" y2="183.914"/>
			<line class="st1" x1="154.641" y1="-309.186" x2="-351.539" y2="184.607"/>
			<line class="st1" x1="144.873" y1="-295.77" x2="-361.307" y2="198.023"/>
			<line class="st1" x1="148.108" y1="-295.077" x2="-358.071" y2="198.716"/>
			<line class="st1" x1="149.672" y1="-292.645" x2="-356.508" y2="201.149"/>
			<line class="st1" x1="152.908" y1="-291.952" x2="-353.272" y2="201.842"/>
			<line class="st1" x1="154.357" y1="-289.221" x2="-351.823" y2="204.572"/>
			<line class="st1" x1="157.592" y1="-288.528" x2="-348.587" y2="205.265"/>
			<line class="st1" x1="159.156" y1="-286.096" x2="-347.024" y2="207.698"/>
			<line class="st1" x1="162.392" y1="-285.403" x2="-343.788" y2="208.391"/>
			<line class="st1" x1="152.624" y1="-271.987" x2="-353.556" y2="221.807"/>
			<line class="st1" x1="155.859" y1="-271.294" x2="-350.32" y2="222.499"/>
			<line class="st1" x1="157.423" y1="-268.861" x2="-348.757" y2="224.932"/>
			<line class="st1" x1="160.659" y1="-268.168" x2="-345.521" y2="225.625"/>
			<line class="st1" x1="190.617" y1="-294.111" x2="-315.563" y2="199.682"/>
			<line class="st1" x1="193.853" y1="-293.418" x2="-312.327" y2="200.375"/>
			<line class="st1" x1="195.416" y1="-290.986" x2="-310.763" y2="202.808"/>
			<line class="st1" x1="198.652" y1="-290.293" x2="-307.527" y2="203.501"/>
			<line class="st1" x1="188.884" y1="-276.877" x2="-317.296" y2="216.917"/>
			<line class="st1" x1="192.12" y1="-276.184" x2="-314.06" y2="217.61"/>
			<line class="st1" x1="193.683" y1="-273.751" x2="-312.496" y2="220.042"/>
			<line class="st1" x1="196.919" y1="-273.058" x2="-309.26" y2="220.735"/>
			<line class="st1" x1="196.97" y1="-269.53" x2="-309.209" y2="224.263"/>
			<line class="st1" x1="200.206" y1="-268.837" x2="-305.974" y2="224.956"/>
			<line class="st1" x1="201.77" y1="-266.405" x2="-304.41" y2="227.389"/>
			<line class="st1" x1="205.005" y1="-265.712" x2="-301.174" y2="228.082"/>
			<line class="st1" x1="195.237" y1="-252.296" x2="-310.942" y2="241.498"/>
			<line class="st1" x1="198.473" y1="-251.603" x2="-307.706" y2="242.19"/>
			<line class="st1" x1="200.037" y1="-249.17" x2="-306.143" y2="244.623"/>
			<line class="st1" x1="203.272" y1="-248.477" x2="-302.907" y2="245.316"/>
			<line class="st1" x1="233.231" y1="-274.42" x2="-272.949" y2="219.373"/>
			<line class="st1" x1="236.467" y1="-273.727" x2="-269.713" y2="220.066"/>
			<line class="st1" x1="238.03" y1="-271.295" x2="-268.15" y2="222.499"/>
			<line class="st1" x1="241.266" y1="-270.602" x2="-264.914" y2="223.192"/>
			<line class="st1" x1="231.498" y1="-257.186" x2="-274.682" y2="236.608"/>
			<line class="st1" x1="234.734" y1="-256.493" x2="-271.446" y2="237.301"/>
			<line class="st1" x1="236.297" y1="-254.06" x2="-269.883" y2="239.733"/>
			<line class="st1" x1="239.533" y1="-253.367" x2="-266.647" y2="240.426"/>
			<line class="st1" x1="240.982" y1="-250.637" x2="-265.198" y2="243.157"/>
			<line class="st1" x1="244.218" y1="-249.944" x2="-261.962" y2="243.85"/>
			<line class="st1" x1="245.781" y1="-247.511" x2="-260.398" y2="246.282"/>
			<line class="st1" x1="249.017" y1="-246.818" x2="-257.163" y2="246.975"/>
			<line class="st1" x1="164.987" y1="-247.326" x2="-341.193" y2="246.467"/>
			<line class="st1" x1="242.485" y1="-232.709" x2="-263.695" y2="261.084"/>
			<line class="st1" x1="244.048" y1="-230.277" x2="-262.131" y2="263.517"/>
			<line class="st1" x1="247.284" y1="-229.584" x2="-258.896" y2="264.21"/>
			<line class="st1" x1="277.242" y1="-255.526" x2="-228.937" y2="238.267"/>
			<line class="st1" x1="280.478" y1="-254.834" x2="-225.702" y2="238.96"/>
			<line class="st1" x1="282.042" y1="-252.401" x2="-224.138" y2="241.392"/>
			<line class="st1" x1="285.277" y1="-251.708" x2="-220.902" y2="242.085"/>
			<line class="st1" x1="275.509" y1="-238.292" x2="-230.67" y2="255.501"/>
			<line class="st1" x1="278.745" y1="-237.599" x2="-227.435" y2="256.194"/>
			<line class="st1" x1="280.309" y1="-235.166" x2="-225.871" y2="258.627"/>
			<line class="st1" x1="283.544" y1="-234.473" x2="-222.635" y2="259.32"/>
		</g>
	</g>
	<g>
		<defs>
			<path id="SVGID_3_" d="M76.301,186.929c0,0,5.575,92.926,31.486,114.043c25.911,21.116,38.344,18.967,38.344,18.967
				l-25.864-30.195l-31.446-95.397L76.301,186.929z"/>
		</defs>
		<clipPath id="SVGID_4_">
			<use xlink:href="#SVGID_3_"  style="overflow:visible;"/>
		</clipPath>
		<g class="st2">
			<line class="st1" x1="30.265" y1="122.266" x2="-9.887" y2="533.905"/>
			<line class="st1" x1="31.503" y1="121.513" x2="-8.649" y2="533.152"/>
			<line class="st1" x1="32.637" y1="122.173" x2="-7.516" y2="533.812"/>
			<line class="st1" x1="33.875" y1="121.42" x2="-6.277" y2="533.059"/>
			<line class="st1" x1="34.091" y1="131.261" x2="-6.061" y2="542.899"/>
			<line class="st1" x1="35.329" y1="130.508" x2="-4.823" y2="542.146"/>
			<line class="st1" x1="36.463" y1="131.168" x2="-3.69" y2="542.806"/>
			<line class="st1" x1="37.701" y1="130.415" x2="-2.451" y2="542.053"/>
			<line class="st1" x1="40.914" y1="107.654" x2="0.762" y2="519.292"/>
			<line class="st1" x1="42.152" y1="106.901" x2="2" y2="518.539"/>
			<line class="st1" x1="43.286" y1="107.561" x2="3.133" y2="519.199"/>
			<line class="st1" x1="44.524" y1="106.808" x2="4.372" y2="518.446"/>
			<line class="st1" x1="44.74" y1="116.648" x2="4.588" y2="528.287"/>
			<line class="st1" x1="45.978" y1="115.895" x2="5.826" y2="527.534"/>
			<line class="st1" x1="47.112" y1="116.555" x2="6.959" y2="528.194"/>
			<line class="st1" x1="48.35" y1="115.802" x2="8.198" y2="527.441"/>
			<line class="st1" x1="49.521" y1="116.646" x2="9.369" y2="528.285"/>
			<line class="st1" x1="50.76" y1="115.893" x2="10.607" y2="527.532"/>
			<line class="st1" x1="51.893" y1="116.553" x2="11.741" y2="528.192"/>
			<line class="st1" x1="53.131" y1="115.8" x2="12.979" y2="527.439"/>
			<line class="st1" x1="53.347" y1="125.641" x2="13.195" y2="537.279"/>
			<line class="st1" x1="54.586" y1="124.888" x2="14.433" y2="536.526"/>
			<line class="st1" x1="55.719" y1="125.548" x2="15.567" y2="537.186"/>
			<line class="st1" x1="56.957" y1="124.795" x2="16.805" y2="536.433"/>
			<line class="st1" x1="60.171" y1="102.034" x2="20.018" y2="513.672"/>
			<line class="st1" x1="61.409" y1="101.281" x2="21.256" y2="512.919"/>
			<line class="st1" x1="62.542" y1="101.941" x2="22.39" y2="513.579"/>
			<line class="st1" x1="63.78" y1="101.188" x2="23.628" y2="512.826"/>
			<line class="st1" x1="63.997" y1="111.028" x2="23.844" y2="522.667"/>
			<line class="st1" x1="65.235" y1="110.275" x2="25.082" y2="521.914"/>
			<line class="st1" x1="66.368" y1="110.935" x2="26.216" y2="522.574"/>
			<line class="st1" x1="67.606" y1="110.182" x2="27.454" y2="521.821"/>
			<line class="st1" x1="68.523" y1="111.887" x2="28.37" y2="523.525"/>
			<line class="st1" x1="69.761" y1="111.134" x2="29.608" y2="522.772"/>
			<line class="st1" x1="70.894" y1="111.794" x2="30.742" y2="523.432"/>
			<line class="st1" x1="72.132" y1="111.041" x2="31.98" y2="522.679"/>
			<line class="st1" x1="72.349" y1="120.881" x2="32.196" y2="532.52"/>
			<line class="st1" x1="73.587" y1="120.128" x2="33.434" y2="531.767"/>
			<line class="st1" x1="74.72" y1="120.788" x2="34.568" y2="532.427"/>
			<line class="st1" x1="75.958" y1="120.035" x2="35.806" y2="531.674"/>
			<line class="st1" x1="79.172" y1="97.274" x2="39.019" y2="508.913"/>
			<line class="st1" x1="80.41" y1="96.521" x2="40.257" y2="508.16"/>
			<line class="st1" x1="81.543" y1="97.181" x2="41.391" y2="508.82"/>
			<line class="st1" x1="82.781" y1="96.428" x2="42.629" y2="508.067"/>
			<line class="st1" x1="82.998" y1="106.269" x2="42.845" y2="517.907"/>
			<line class="st1" x1="84.236" y1="105.516" x2="44.083" y2="517.154"/>
			<line class="st1" x1="85.369" y1="106.176" x2="45.217" y2="517.814"/>
			<line class="st1" x1="86.607" y1="105.423" x2="46.455" y2="517.061"/>
			<line class="st1" x1="87.779" y1="106.267" x2="47.626" y2="517.905"/>
			<line class="st1" x1="89.017" y1="105.514" x2="48.865" y2="517.152"/>
			<line class="st1" x1="90.15" y1="106.174" x2="49.998" y2="517.812"/>
			<line class="st1" x1="91.389" y1="105.421" x2="51.236" y2="517.059"/>
			<line class="st1" x1="91.605" y1="115.261" x2="51.452" y2="526.9"/>
			<line class="st1" x1="92.843" y1="114.508" x2="52.691" y2="526.147"/>
			<line class="st1" x1="93.976" y1="115.168" x2="53.824" y2="526.807"/>
			<line class="st1" x1="95.215" y1="114.415" x2="55.062" y2="526.054"/>
			<line class="st1" x1="98.428" y1="91.654" x2="58.276" y2="503.293"/>
			<line class="st1" x1="99.666" y1="90.901" x2="59.514" y2="502.54"/>
			<line class="st1" x1="100.799" y1="91.561" x2="60.647" y2="503.2"/>
			<line class="st1" x1="102.038" y1="90.808" x2="61.885" y2="502.447"/>
			<line class="st1" x1="102.254" y1="100.649" x2="62.102" y2="512.287"/>
			<line class="st1" x1="103.492" y1="99.896" x2="63.34" y2="511.534"/>
			<line class="st1" x1="104.625" y1="100.556" x2="64.473" y2="512.194"/>
			<line class="st1" x1="105.864" y1="99.803" x2="65.711" y2="511.441"/>
			<line class="st1" x1="103.575" y1="135.666" x2="63.422" y2="547.305"/>
			<line class="st1" x1="104.813" y1="134.913" x2="64.661" y2="546.552"/>
			<line class="st1" x1="105.946" y1="135.573" x2="65.794" y2="547.212"/>
			<line class="st1" x1="107.185" y1="134.82" x2="67.032" y2="546.459"/>
			<line class="st1" x1="107.401" y1="144.661" x2="67.248" y2="556.299"/>
			<line class="st1" x1="108.639" y1="143.908" x2="68.487" y2="555.546"/>
			<line class="st1" x1="109.772" y1="144.568" x2="69.62" y2="556.206"/>
			<line class="st1" x1="111.011" y1="143.815" x2="70.858" y2="555.453"/>
			<line class="st1" x1="114.224" y1="121.054" x2="74.072" y2="532.692"/>
			<line class="st1" x1="115.462" y1="120.301" x2="75.31" y2="531.939"/>
			<line class="st1" x1="116.595" y1="120.961" x2="76.443" y2="532.599"/>
			<line class="st1" x1="117.834" y1="120.208" x2="77.681" y2="531.846"/>
			<line class="st1" x1="118.05" y1="130.048" x2="77.898" y2="541.687"/>
			<line class="st1" x1="119.288" y1="129.296" x2="79.136" y2="540.934"/>
			<line class="st1" x1="120.421" y1="129.955" x2="80.269" y2="541.594"/>
			<line class="st1" x1="121.66" y1="129.203" x2="81.507" y2="540.841"/>
			<line class="st1" x1="122.831" y1="130.046" x2="82.679" y2="541.685"/>
			<line class="st1" x1="124.069" y1="129.293" x2="83.917" y2="540.932"/>
			<line class="st1" x1="125.203" y1="129.953" x2="85.05" y2="541.592"/>
			<line class="st1" x1="126.441" y1="129.2" x2="86.289" y2="540.839"/>
			<line class="st1" x1="126.657" y1="139.041" x2="86.505" y2="550.679"/>
			<line class="st1" x1="127.895" y1="138.288" x2="87.743" y2="549.926"/>
			<line class="st1" x1="129.029" y1="138.948" x2="88.876" y2="550.586"/>
			<line class="st1" x1="130.267" y1="138.195" x2="90.115" y2="549.833"/>
			<line class="st1" x1="133.48" y1="115.434" x2="93.328" y2="527.072"/>
			<line class="st1" x1="134.718" y1="114.681" x2="94.566" y2="526.319"/>
			<line class="st1" x1="135.852" y1="115.341" x2="95.699" y2="526.979"/>
			<line class="st1" x1="137.09" y1="114.588" x2="96.938" y2="526.226"/>
			<line class="st1" x1="137.306" y1="124.428" x2="97.154" y2="536.067"/>
			<line class="st1" x1="138.544" y1="123.675" x2="98.392" y2="535.314"/>
			<line class="st1" x1="139.678" y1="124.335" x2="99.525" y2="535.974"/>
			<line class="st1" x1="140.916" y1="123.582" x2="100.764" y2="535.221"/>
			<line class="st1" x1="141.832" y1="125.287" x2="101.68" y2="536.925"/>
			<line class="st1" x1="143.07" y1="124.534" x2="102.918" y2="536.172"/>
			<line class="st1" x1="144.204" y1="125.194" x2="104.051" y2="536.832"/>
			<line class="st1" x1="145.442" y1="124.441" x2="105.29" y2="536.079"/>
			<line class="st1" x1="145.658" y1="134.281" x2="105.506" y2="545.92"/>
			<line class="st1" x1="146.896" y1="133.528" x2="106.744" y2="545.167"/>
			<line class="st1" x1="148.03" y1="134.188" x2="107.877" y2="545.827"/>
			<line class="st1" x1="149.268" y1="133.435" x2="109.116" y2="545.074"/>
			<line class="st1" x1="152.481" y1="110.674" x2="112.329" y2="522.313"/>
			<line class="st1" x1="153.719" y1="109.921" x2="113.567" y2="521.56"/>
			<line class="st1" x1="154.853" y1="110.581" x2="114.7" y2="522.22"/>
			<line class="st1" x1="156.091" y1="109.828" x2="115.939" y2="521.467"/>
			<line class="st1" x1="156.307" y1="119.669" x2="116.155" y2="531.307"/>
			<line class="st1" x1="157.545" y1="118.916" x2="117.393" y2="530.554"/>
			<line class="st1" x1="158.679" y1="119.576" x2="118.526" y2="531.214"/>
			<line class="st1" x1="159.917" y1="118.823" x2="119.765" y2="530.461"/>
			<line class="st1" x1="161.088" y1="119.667" x2="120.936" y2="531.305"/>
			<line class="st1" x1="162.327" y1="118.914" x2="122.174" y2="530.552"/>
			<line class="st1" x1="163.46" y1="119.574" x2="123.308" y2="531.212"/>
			<line class="st1" x1="164.698" y1="118.821" x2="124.546" y2="530.459"/>
			<line class="st1" x1="164.914" y1="128.661" x2="124.762" y2="540.3"/>
			<line class="st1" x1="166.153" y1="127.908" x2="126" y2="539.547"/>
			<line class="st1" x1="167.286" y1="128.568" x2="127.134" y2="540.207"/>
			<line class="st1" x1="168.524" y1="127.815" x2="128.372" y2="539.454"/>
			<line class="st1" x1="171.738" y1="105.054" x2="131.585" y2="516.693"/>
			<line class="st1" x1="172.976" y1="104.301" x2="132.823" y2="515.94"/>
			<line class="st1" x1="174.109" y1="104.961" x2="133.957" y2="516.6"/>
			<line class="st1" x1="175.347" y1="104.208" x2="135.195" y2="515.847"/>
			<line class="st1" x1="175.564" y1="114.049" x2="135.411" y2="525.687"/>
			<line class="st1" x1="176.802" y1="113.296" x2="136.649" y2="524.934"/>
			<line class="st1" x1="177.935" y1="113.956" x2="137.783" y2="525.594"/>
			<line class="st1" x1="179.173" y1="113.203" x2="139.021" y2="524.841"/>
			<line class="st1" x1="-117.875" y1="112.004" x2="-158.027" y2="523.642"/>
			<line class="st1" x1="-116.636" y1="111.251" x2="-156.789" y2="522.889"/>
			<line class="st1" x1="-115.503" y1="111.911" x2="-155.656" y2="523.549"/>
			<line class="st1" x1="-114.265" y1="111.158" x2="-154.417" y2="522.796"/>
			<line class="st1" x1="-114.049" y1="120.998" x2="-154.201" y2="532.637"/>
			<line class="st1" x1="-112.81" y1="120.246" x2="-152.963" y2="531.884"/>
			<line class="st1" x1="-111.677" y1="120.905" x2="-151.83" y2="532.544"/>
			<line class="st1" x1="-110.439" y1="120.153" x2="-150.591" y2="531.791"/>
			<line class="st1" x1="-107.226" y1="97.391" x2="-147.378" y2="509.03"/>
			<line class="st1" x1="-105.987" y1="96.639" x2="-146.14" y2="508.277"/>
			<line class="st1" x1="-104.854" y1="97.298" x2="-145.006" y2="508.937"/>
			<line class="st1" x1="-103.616" y1="96.546" x2="-143.768" y2="508.184"/>
			<line class="st1" x1="-103.4" y1="106.386" x2="-143.552" y2="518.024"/>
			<line class="st1" x1="-102.161" y1="105.633" x2="-142.314" y2="517.271"/>
			<line class="st1" x1="-101.028" y1="106.293" x2="-141.18" y2="517.931"/>
			<line class="st1" x1="-99.79" y1="105.54" x2="-139.942" y2="517.178"/>
			<line class="st1" x1="-98.618" y1="106.384" x2="-138.771" y2="518.022"/>
			<line class="st1" x1="-97.38" y1="105.631" x2="-137.532" y2="517.269"/>
			<line class="st1" x1="-96.247" y1="106.291" x2="-136.399" y2="517.929"/>
			<line class="st1" x1="-95.009" y1="105.538" x2="-135.161" y2="517.176"/>
			<line class="st1" x1="-94.792" y1="115.378" x2="-134.945" y2="527.017"/>
			<line class="st1" x1="-93.554" y1="114.625" x2="-133.706" y2="526.264"/>
			<line class="st1" x1="-92.421" y1="115.285" x2="-132.573" y2="526.924"/>
			<line class="st1" x1="-91.183" y1="114.532" x2="-131.335" y2="526.171"/>
			<line class="st1" x1="-87.969" y1="91.771" x2="-128.122" y2="503.41"/>
			<line class="st1" x1="-86.731" y1="91.018" x2="-126.883" y2="502.657"/>
			<line class="st1" x1="-85.598" y1="91.678" x2="-125.75" y2="503.317"/>
			<line class="st1" x1="-84.36" y1="90.925" x2="-124.512" y2="502.564"/>
			<line class="st1" x1="-84.143" y1="100.766" x2="-124.296" y2="512.404"/>
			<line class="st1" x1="-82.905" y1="100.013" x2="-123.057" y2="511.651"/>
			<line class="st1" x1="-81.772" y1="100.673" x2="-121.924" y2="512.311"/>
			<line class="st1" x1="-80.534" y1="99.92" x2="-120.686" y2="511.558"/>
			<line class="st1" x1="-79.617" y1="101.624" x2="-119.77" y2="513.263"/>
			<line class="st1" x1="-78.379" y1="100.871" x2="-118.531" y2="512.51"/>
			<line class="st1" x1="-77.246" y1="101.531" x2="-117.398" y2="513.17"/>
			<line class="st1" x1="-76.008" y1="100.778" x2="-116.16" y2="512.417"/>
			<line class="st1" x1="-75.791" y1="110.619" x2="-115.944" y2="522.257"/>
			<line class="st1" x1="-74.553" y1="109.866" x2="-114.705" y2="521.504"/>
			<line class="st1" x1="-73.42" y1="110.526" x2="-113.572" y2="522.164"/>
			<line class="st1" x1="-72.182" y1="109.773" x2="-112.334" y2="521.411"/>
			<line class="st1" x1="-68.968" y1="87.012" x2="-109.121" y2="498.65"/>
			<line class="st1" x1="-67.73" y1="86.259" x2="-107.882" y2="497.897"/>
			<line class="st1" x1="-66.597" y1="86.919" x2="-106.749" y2="498.557"/>
			<line class="st1" x1="-65.359" y1="86.166" x2="-105.511" y2="497.804"/>
			<line class="st1" x1="-65.142" y1="96.006" x2="-105.295" y2="507.645"/>
			<line class="st1" x1="-63.904" y1="95.253" x2="-104.056" y2="506.892"/>
			<line class="st1" x1="-62.771" y1="95.913" x2="-102.923" y2="507.552"/>
			<line class="st1" x1="-61.533" y1="95.16" x2="-101.685" y2="506.799"/>
			<line class="st1" x1="-60.361" y1="96.004" x2="-100.513" y2="507.643"/>
			<line class="st1" x1="-59.123" y1="95.251" x2="-99.275" y2="506.89"/>
			<line class="st1" x1="-57.99" y1="95.911" x2="-98.142" y2="507.55"/>
			<line class="st1" x1="-56.751" y1="95.158" x2="-96.904" y2="506.797"/>
			<line class="st1" x1="-56.535" y1="104.999" x2="-96.687" y2="516.637"/>
			<line class="st1" x1="-55.297" y1="104.246" x2="-95.449" y2="515.884"/>
			<line class="st1" x1="-54.164" y1="104.906" x2="-94.316" y2="516.544"/>
			<line class="st1" x1="-52.925" y1="104.153" x2="-93.078" y2="515.791"/>
			<line class="st1" x1="-49.712" y1="81.392" x2="-89.864" y2="493.03"/>
			<line class="st1" x1="-48.474" y1="80.639" x2="-88.626" y2="492.277"/>
			<line class="st1" x1="-47.34" y1="81.299" x2="-87.493" y2="492.937"/>
			<line class="st1" x1="-46.102" y1="80.546" x2="-86.255" y2="492.184"/>
			<line class="st1" x1="-45.886" y1="90.386" x2="-86.038" y2="502.025"/>
			<line class="st1" x1="-44.648" y1="89.633" x2="-84.8" y2="501.272"/>
			<line class="st1" x1="-43.514" y1="90.293" x2="-83.667" y2="501.932"/>
			<line class="st1" x1="-42.276" y1="89.54" x2="-82.429" y2="501.179"/>
			<line class="st1" x1="-44.565" y1="125.404" x2="-84.717" y2="537.042"/>
			<line class="st1" x1="-43.327" y1="124.651" x2="-83.479" y2="536.289"/>
			<line class="st1" x1="-42.194" y1="125.311" x2="-82.346" y2="536.949"/>
			<line class="st1" x1="-40.955" y1="124.558" x2="-81.108" y2="536.196"/>
			<line class="st1" x1="-40.739" y1="134.399" x2="-80.891" y2="546.037"/>
			<line class="st1" x1="-39.501" y1="133.646" x2="-79.653" y2="545.284"/>
			<line class="st1" x1="-38.368" y1="134.306" x2="-78.52" y2="545.944"/>
			<line class="st1" x1="-37.129" y1="133.553" x2="-77.282" y2="545.191"/>
			<line class="st1" x1="-33.916" y1="110.792" x2="-74.068" y2="522.43"/>
			<line class="st1" x1="-32.678" y1="110.039" x2="-72.83" y2="521.677"/>
			<line class="st1" x1="-31.545" y1="110.699" x2="-71.697" y2="522.337"/>
			<line class="st1" x1="-30.306" y1="109.946" x2="-70.459" y2="521.584"/>
			<line class="st1" x1="-30.09" y1="119.786" x2="-70.242" y2="531.424"/>
			<line class="st1" x1="-28.852" y1="119.033" x2="-69.004" y2="530.672"/>
			<line class="st1" x1="-27.719" y1="119.693" x2="-67.871" y2="531.331"/>
			<line class="st1" x1="-26.48" y1="118.94" x2="-66.633" y2="530.578"/>
			<line class="st1" x1="-25.309" y1="119.784" x2="-65.461" y2="531.422"/>
			<line class="st1" x1="-24.07" y1="119.031" x2="-64.223" y2="530.669"/>
			<line class="st1" x1="-22.937" y1="119.691" x2="-63.09" y2="531.329"/>
			<line class="st1" x1="-21.699" y1="118.938" x2="-61.851" y2="530.576"/>
			<line class="st1" x1="-21.483" y1="128.779" x2="-61.635" y2="540.417"/>
			<line class="st1" x1="-20.244" y1="128.026" x2="-60.397" y2="539.664"/>
			<line class="st1" x1="-19.111" y1="128.686" x2="-59.264" y2="540.324"/>
			<line class="st1" x1="-17.873" y1="127.933" x2="-58.025" y2="539.571"/>
			<line class="st1" x1="-14.66" y1="105.171" x2="-54.812" y2="516.81"/>
			<line class="st1" x1="-13.421" y1="104.419" x2="-53.574" y2="516.057"/>
			<line class="st1" x1="-12.288" y1="105.078" x2="-52.441" y2="516.717"/>
			<line class="st1" x1="-11.05" y1="104.326" x2="-51.202" y2="515.964"/>
			<line class="st1" x1="-10.834" y1="114.166" x2="-50.986" y2="525.804"/>
			<line class="st1" x1="-9.595" y1="113.413" x2="-49.748" y2="525.051"/>
			<line class="st1" x1="-8.462" y1="114.073" x2="-48.615" y2="525.711"/>
			<line class="st1" x1="-7.224" y1="113.32" x2="-47.376" y2="524.958"/>
			<line class="st1" x1="-6.308" y1="115.024" x2="-46.46" y2="526.663"/>
			<line class="st1" x1="-5.069" y1="114.271" x2="-45.222" y2="525.91"/>
			<line class="st1" x1="-3.936" y1="114.931" x2="-44.089" y2="526.57"/>
			<line class="st1" x1="-2.698" y1="114.178" x2="-42.85" y2="525.817"/>
			<line class="st1" x1="-2.482" y1="124.019" x2="-42.634" y2="535.657"/>
			<line class="st1" x1="-1.243" y1="123.266" x2="-41.396" y2="534.904"/>
			<line class="st1" x1="-0.11" y1="123.926" x2="-40.263" y2="535.564"/>
			<line class="st1" x1="1.128" y1="123.173" x2="-39.024" y2="534.811"/>
			<line class="st1" x1="4.341" y1="100.412" x2="-35.811" y2="512.05"/>
			<line class="st1" x1="5.58" y1="99.659" x2="-34.573" y2="511.297"/>
			<line class="st1" x1="6.713" y1="100.319" x2="-33.44" y2="511.957"/>
			<line class="st1" x1="7.951" y1="99.566" x2="-32.201" y2="511.204"/>
			<line class="st1" x1="8.167" y1="109.406" x2="-31.985" y2="521.045"/>
			<line class="st1" x1="9.406" y1="108.654" x2="-30.747" y2="520.292"/>
			<line class="st1" x1="10.539" y1="109.313" x2="-29.614" y2="520.952"/>
			<line class="st1" x1="11.777" y1="108.561" x2="-28.375" y2="520.199"/>
			<line class="st1" x1="12.949" y1="109.404" x2="-27.204" y2="521.043"/>
			<line class="st1" x1="14.187" y1="108.651" x2="-25.965" y2="520.29"/>
			<line class="st1" x1="15.32" y1="109.311" x2="-24.832" y2="520.95"/>
			<line class="st1" x1="16.558" y1="108.558" x2="-23.594" y2="520.197"/>
			<line class="st1" x1="16.775" y1="118.399" x2="-23.378" y2="530.037"/>
			<line class="st1" x1="18.013" y1="117.646" x2="-22.139" y2="529.284"/>
			<line class="st1" x1="19.146" y1="118.306" x2="-21.006" y2="529.944"/>
			<line class="st1" x1="20.384" y1="117.553" x2="-19.768" y2="529.191"/>
			<line class="st1" x1="23.598" y1="94.792" x2="-16.555" y2="506.43"/>
			<line class="st1" x1="24.836" y1="94.039" x2="-15.316" y2="505.677"/>
			<line class="st1" x1="25.969" y1="94.699" x2="-14.183" y2="506.337"/>
			<line class="st1" x1="27.207" y1="93.946" x2="-12.945" y2="505.584"/>
			<line class="st1" x1="27.424" y1="103.786" x2="-12.729" y2="515.425"/>
			<line class="st1" x1="28.662" y1="103.034" x2="-11.49" y2="514.672"/>
			<line class="st1" x1="29.795" y1="103.693" x2="-10.357" y2="515.332"/>
			<line class="st1" x1="31.033" y1="102.941" x2="-9.119" y2="514.579"/>
		</g>
	</g>
	<g>
		<defs>
			<polygon id="SVGID_5_" points="71.19,99.881 252.977,89.051 107.547,203.538 74.284,107.616 			"/>
		</defs>
		<clipPath id="SVGID_6_">
			<use xlink:href="#SVGID_5_"  style="overflow:visible;"/>
		</clipPath>
		<g class="st3">
			<line class="st4" x1="-29.654" y1="-222.887" x2="-642.526" y2="469.22"/>
			<line class="st4" x1="-23.846" y1="-222.944" x2="-636.717" y2="469.163"/>
			<line class="st4" x1="-20.008" y1="-220.591" x2="-632.88" y2="471.516"/>
			<line class="st4" x1="-14.2" y1="-220.648" x2="-627.071" y2="471.459"/>
			<line class="st4" x1="-24.118" y1="-202.882" x2="-636.989" y2="489.225"/>
			<line class="st4" x1="-18.309" y1="-202.938" x2="-631.18" y2="489.169"/>
			<line class="st4" x1="-14.472" y1="-200.585" x2="-627.343" y2="491.522"/>
			<line class="st4" x1="-8.663" y1="-200.642" x2="-621.534" y2="491.465"/>
			<line class="st4" x1="29.222" y1="-237.88" x2="-583.649" y2="454.227"/>
			<line class="st4" x1="35.031" y1="-237.937" x2="-577.84" y2="454.17"/>
			<line class="st4" x1="38.868" y1="-235.584" x2="-574.003" y2="456.523"/>
			<line class="st4" x1="44.677" y1="-235.641" x2="-568.194" y2="456.466"/>
			<line class="st4" x1="34.759" y1="-217.874" x2="-578.112" y2="474.232"/>
			<line class="st4" x1="40.568" y1="-217.931" x2="-572.303" y2="474.176"/>
			<line class="st4" x1="44.405" y1="-215.578" x2="-568.466" y2="476.529"/>
			<line class="st4" x1="50.214" y1="-215.635" x2="-562.657" y2="476.472"/>
			<line class="st4" x1="54.003" y1="-212.914" x2="-558.868" y2="479.193"/>
			<line class="st4" x1="59.812" y1="-212.971" x2="-553.059" y2="479.136"/>
			<line class="st4" x1="63.649" y1="-210.618" x2="-549.222" y2="481.489"/>
			<line class="st4" x1="69.458" y1="-210.675" x2="-543.413" y2="481.432"/>
			<line class="st4" x1="59.54" y1="-192.909" x2="-553.331" y2="499.198"/>
			<line class="st4" x1="65.349" y1="-192.965" x2="-547.522" y2="499.142"/>
			<line class="st4" x1="69.186" y1="-190.612" x2="-543.685" y2="501.495"/>
			<line class="st4" x1="74.995" y1="-190.669" x2="-537.876" y2="501.438"/>
			<line class="st4" x1="112.88" y1="-227.907" x2="-499.991" y2="464.2"/>
			<line class="st4" x1="118.689" y1="-227.964" x2="-494.182" y2="464.143"/>
			<line class="st4" x1="122.526" y1="-225.611" x2="-490.345" y2="466.496"/>
			<line class="st4" x1="128.335" y1="-225.668" x2="-484.536" y2="466.439"/>
			<line class="st4" x1="118.417" y1="-207.901" x2="-494.454" y2="484.205"/>
			<line class="st4" x1="124.226" y1="-207.958" x2="-488.645" y2="484.149"/>
			<line class="st4" x1="128.063" y1="-205.605" x2="-484.808" y2="486.502"/>
			<line class="st4" x1="133.872" y1="-205.662" x2="-478.999" y2="486.445"/>
			<line class="st4" x1="135.691" y1="-201.673" x2="-477.18" y2="490.434"/>
			<line class="st4" x1="141.499" y1="-201.729" x2="-471.372" y2="490.378"/>
			<line class="st4" x1="145.337" y1="-199.376" x2="-467.534" y2="492.731"/>
			<line class="st4" x1="151.145" y1="-199.433" x2="-461.726" y2="492.674"/>
			<line class="st4" x1="141.228" y1="-181.667" x2="-471.643" y2="510.44"/>
			<line class="st4" x1="147.036" y1="-181.723" x2="-465.835" y2="510.383"/>
			<line class="st4" x1="150.874" y1="-179.371" x2="-461.998" y2="512.736"/>
			<line class="st4" x1="156.682" y1="-179.427" x2="-456.189" y2="512.68"/>
			<line class="st4" x1="194.567" y1="-216.665" x2="-418.304" y2="475.441"/>
			<line class="st4" x1="200.376" y1="-216.722" x2="-412.495" y2="475.385"/>
			<line class="st4" x1="204.213" y1="-214.369" x2="-408.658" y2="477.738"/>
			<line class="st4" x1="210.022" y1="-214.426" x2="-402.849" y2="477.681"/>
			<line class="st4" x1="200.104" y1="-196.66" x2="-412.767" y2="495.447"/>
			<line class="st4" x1="205.913" y1="-196.716" x2="-406.958" y2="495.391"/>
			<line class="st4" x1="209.75" y1="-194.363" x2="-403.121" y2="497.743"/>
			<line class="st4" x1="215.559" y1="-194.42" x2="-397.312" y2="497.687"/>
			<line class="st4" x1="219.349" y1="-191.7" x2="-393.522" y2="500.407"/>
			<line class="st4" x1="225.157" y1="-191.756" x2="-387.714" y2="500.351"/>
			<line class="st4" x1="228.995" y1="-189.403" x2="-383.877" y2="502.704"/>
			<line class="st4" x1="234.803" y1="-189.46" x2="-378.068" y2="502.647"/>
			<line class="st4" x1="224.886" y1="-171.694" x2="-387.986" y2="520.413"/>
			<line class="st4" x1="230.694" y1="-171.75" x2="-382.177" y2="520.356"/>
			<line class="st4" x1="234.531" y1="-169.398" x2="-378.34" y2="522.709"/>
			<line class="st4" x1="240.34" y1="-169.454" x2="-372.531" y2="522.653"/>
			<line class="st4" x1="278.225" y1="-206.692" x2="-334.646" y2="485.414"/>
			<line class="st4" x1="284.034" y1="-206.749" x2="-328.837" y2="485.358"/>
			<line class="st4" x1="287.871" y1="-204.396" x2="-325" y2="487.711"/>
			<line class="st4" x1="293.68" y1="-204.453" x2="-319.191" y2="487.654"/>
			<line class="st4" x1="283.762" y1="-186.687" x2="-329.109" y2="505.42"/>
			<line class="st4" x1="289.571" y1="-186.743" x2="-323.3" y2="505.364"/>
			<line class="st4" x1="293.408" y1="-184.39" x2="-319.463" y2="507.716"/>
			<line class="st4" x1="299.217" y1="-184.447" x2="-313.654" y2="507.66"/>
			<line class="st4" x1="250.688" y1="-122.892" x2="-362.183" y2="569.214"/>
			<line class="st4" x1="256.497" y1="-122.949" x2="-356.374" y2="569.158"/>
			<line class="st4" x1="260.334" y1="-120.596" x2="-352.537" y2="571.511"/>
			<line class="st4" x1="266.143" y1="-120.653" x2="-346.728" y2="571.454"/>
			<line class="st4" x1="256.225" y1="-102.887" x2="-356.646" y2="589.22"/>
			<line class="st4" x1="262.034" y1="-102.943" x2="-350.837" y2="589.164"/>
			<line class="st4" x1="265.871" y1="-100.59" x2="-347" y2="591.516"/>
			<line class="st4" x1="271.68" y1="-100.647" x2="-341.191" y2="591.46"/>
			<line class="st4" x1="309.565" y1="-137.885" x2="-303.306" y2="554.222"/>
			<line class="st4" x1="315.374" y1="-137.942" x2="-297.498" y2="554.165"/>
			<line class="st4" x1="319.211" y1="-135.589" x2="-293.66" y2="556.518"/>
			<line class="st4" x1="325.02" y1="-135.646" x2="-287.852" y2="556.461"/>
			<line class="st4" x1="315.102" y1="-117.879" x2="-297.769" y2="574.227"/>
			<line class="st4" x1="320.91" y1="-117.936" x2="-291.961" y2="574.171"/>
			<line class="st4" x1="324.748" y1="-115.583" x2="-288.123" y2="576.524"/>
			<line class="st4" x1="330.556" y1="-115.64" x2="-282.315" y2="576.467"/>
			<line class="st4" x1="334.346" y1="-112.919" x2="-278.525" y2="579.187"/>
			<line class="st4" x1="340.155" y1="-112.976" x2="-272.716" y2="579.131"/>
			<line class="st4" x1="343.992" y1="-110.623" x2="-268.879" y2="581.484"/>
			<line class="st4" x1="349.801" y1="-110.68" x2="-263.07" y2="581.427"/>
			<line class="st4" x1="339.883" y1="-92.914" x2="-272.988" y2="599.193"/>
			<line class="st4" x1="345.692" y1="-92.97" x2="-267.179" y2="599.137"/>
			<line class="st4" x1="349.529" y1="-90.617" x2="-263.342" y2="601.489"/>
			<line class="st4" x1="355.338" y1="-90.674" x2="-257.533" y2="601.433"/>
			<line class="st4" x1="393.223" y1="-127.912" x2="-219.648" y2="564.195"/>
			<line class="st4" x1="399.031" y1="-127.969" x2="-213.84" y2="564.138"/>
			<line class="st4" x1="402.869" y1="-125.616" x2="-210.002" y2="566.491"/>
			<line class="st4" x1="408.677" y1="-125.673" x2="-204.194" y2="566.434"/>
			<line class="st4" x1="398.76" y1="-107.906" x2="-214.111" y2="584.2"/>
			<line class="st4" x1="404.568" y1="-107.963" x2="-208.303" y2="584.144"/>
			<line class="st4" x1="408.406" y1="-105.61" x2="-204.465" y2="586.497"/>
			<line class="st4" x1="414.214" y1="-105.667" x2="-198.657" y2="586.44"/>
			<line class="st4" x1="416.033" y1="-101.678" x2="-196.838" y2="590.429"/>
			<line class="st4" x1="421.842" y1="-101.734" x2="-191.029" y2="590.373"/>
			<line class="st4" x1="425.679" y1="-99.381" x2="-187.192" y2="592.725"/>
			<line class="st4" x1="431.488" y1="-99.438" x2="-181.383" y2="592.669"/>
			<line class="st4" x1="421.57" y1="-81.672" x2="-191.301" y2="610.435"/>
			<line class="st4" x1="427.379" y1="-81.728" x2="-185.492" y2="610.378"/>
			<line class="st4" x1="431.216" y1="-79.376" x2="-181.655" y2="612.731"/>
			<line class="st4" x1="437.025" y1="-79.432" x2="-175.846" y2="612.675"/>
			<line class="st4" x1="474.91" y1="-116.67" x2="-137.961" y2="575.436"/>
			<line class="st4" x1="480.719" y1="-116.727" x2="-132.152" y2="575.38"/>
			<line class="st4" x1="484.556" y1="-114.374" x2="-128.315" y2="577.733"/>
			<line class="st4" x1="490.365" y1="-114.431" x2="-122.506" y2="577.676"/>
			<line class="st4" x1="480.447" y1="-96.665" x2="-132.424" y2="595.442"/>
			<line class="st4" x1="486.256" y1="-96.721" x2="-126.615" y2="595.386"/>
			<line class="st4" x1="490.093" y1="-94.368" x2="-122.778" y2="597.738"/>
			<line class="st4" x1="495.902" y1="-94.425" x2="-116.97" y2="597.682"/>
			<line class="st4" x1="499.691" y1="-91.705" x2="-113.18" y2="600.402"/>
			<line class="st4" x1="505.5" y1="-91.761" x2="-107.371" y2="600.346"/>
			<line class="st4" x1="509.337" y1="-89.408" x2="-103.534" y2="602.698"/>
			<line class="st4" x1="515.146" y1="-89.465" x2="-97.725" y2="602.642"/>
			<line class="st4" x1="505.228" y1="-71.699" x2="-107.643" y2="620.408"/>
			<line class="st4" x1="511.037" y1="-71.755" x2="-101.834" y2="620.351"/>
			<line class="st4" x1="514.874" y1="-69.403" x2="-97.997" y2="622.704"/>
			<line class="st4" x1="520.683" y1="-69.459" x2="-92.188" y2="622.648"/>
			<line class="st4" x1="558.568" y1="-106.697" x2="-54.303" y2="585.409"/>
			<line class="st4" x1="564.377" y1="-106.754" x2="-48.495" y2="585.353"/>
			<line class="st4" x1="568.214" y1="-104.401" x2="-44.657" y2="587.706"/>
			<line class="st4" x1="574.023" y1="-104.458" x2="-38.849" y2="587.649"/>
			<line class="st4" x1="564.105" y1="-86.692" x2="-48.766" y2="605.415"/>
			<line class="st4" x1="569.914" y1="-86.748" x2="-42.958" y2="605.359"/>
			<line class="st4" x1="573.751" y1="-84.395" x2="-39.12" y2="607.711"/>
			<line class="st4" x1="579.559" y1="-84.452" x2="-33.312" y2="607.655"/>
			<line class="st4" x1="-614.59" y1="-394.975" x2="-1227.461" y2="297.132"/>
			<line class="st4" x1="-608.781" y1="-395.032" x2="-1221.652" y2="297.075"/>
			<line class="st4" x1="-604.944" y1="-392.679" x2="-1217.815" y2="299.428"/>
			<line class="st4" x1="-599.135" y1="-392.736" x2="-1212.006" y2="299.371"/>
			<line class="st4" x1="-609.053" y1="-374.969" x2="-1221.924" y2="317.137"/>
			<line class="st4" x1="-603.244" y1="-375.026" x2="-1216.115" y2="317.081"/>
			<line class="st4" x1="-599.407" y1="-372.673" x2="-1212.278" y2="319.434"/>
			<line class="st4" x1="-593.598" y1="-372.73" x2="-1206.469" y2="319.377"/>
			<line class="st4" x1="-555.713" y1="-409.968" x2="-1168.584" y2="282.139"/>
			<line class="st4" x1="-549.904" y1="-410.025" x2="-1162.776" y2="282.082"/>
			<line class="st4" x1="-546.067" y1="-407.672" x2="-1158.938" y2="284.435"/>
			<line class="st4" x1="-540.258" y1="-407.729" x2="-1153.13" y2="284.378"/>
			<line class="st4" x1="-550.176" y1="-389.962" x2="-1163.047" y2="302.145"/>
			<line class="st4" x1="-544.367" y1="-390.019" x2="-1157.239" y2="302.088"/>
			<line class="st4" x1="-540.53" y1="-387.666" x2="-1153.401" y2="304.441"/>
			<line class="st4" x1="-534.722" y1="-387.723" x2="-1147.593" y2="304.384"/>
			<line class="st4" x1="-530.932" y1="-385.002" x2="-1143.803" y2="307.105"/>
			<line class="st4" x1="-525.123" y1="-385.059" x2="-1137.994" y2="307.048"/>
			<line class="st4" x1="-521.286" y1="-382.706" x2="-1134.157" y2="309.401"/>
			<line class="st4" x1="-515.477" y1="-382.763" x2="-1128.348" y2="309.344"/>
			<line class="st4" x1="-525.395" y1="-364.997" x2="-1138.266" y2="327.11"/>
			<line class="st4" x1="-519.586" y1="-365.053" x2="-1132.457" y2="327.054"/>
			<line class="st4" x1="-515.749" y1="-362.7" x2="-1128.62" y2="329.407"/>
			<line class="st4" x1="-509.94" y1="-362.757" x2="-1122.811" y2="329.35"/>
			<line class="st4" x1="-472.055" y1="-399.995" x2="-1084.926" y2="292.112"/>
			<line class="st4" x1="-466.247" y1="-400.052" x2="-1079.118" y2="292.055"/>
			<line class="st4" x1="-462.409" y1="-397.699" x2="-1075.28" y2="294.408"/>
			<line class="st4" x1="-456.601" y1="-397.756" x2="-1069.472" y2="294.351"/>
			<line class="st4" x1="-466.518" y1="-379.989" x2="-1079.389" y2="312.118"/>
			<line class="st4" x1="-460.71" y1="-380.046" x2="-1073.581" y2="312.061"/>
			<line class="st4" x1="-456.872" y1="-377.693" x2="-1069.743" y2="314.414"/>
			<line class="st4" x1="-451.064" y1="-377.75" x2="-1063.935" y2="314.357"/>
			<line class="st4" x1="-449.245" y1="-373.76" x2="-1062.116" y2="318.346"/>
			<line class="st4" x1="-443.436" y1="-373.817" x2="-1056.307" y2="318.29"/>
			<line class="st4" x1="-439.599" y1="-371.464" x2="-1052.47" y2="320.643"/>
			<line class="st4" x1="-433.79" y1="-371.521" x2="-1046.661" y2="320.586"/>
			<line class="st4" x1="-443.708" y1="-353.755" x2="-1056.579" y2="338.352"/>
			<line class="st4" x1="-437.899" y1="-353.811" x2="-1050.77" y2="338.296"/>
			<line class="st4" x1="-434.062" y1="-351.458" x2="-1046.933" y2="340.648"/>
			<line class="st4" x1="-428.253" y1="-351.515" x2="-1041.124" y2="340.592"/>
			<line class="st4" x1="-390.368" y1="-388.753" x2="-1003.239" y2="303.354"/>
			<line class="st4" x1="-384.559" y1="-388.81" x2="-997.43" y2="303.297"/>
			<line class="st4" x1="-380.722" y1="-386.457" x2="-993.593" y2="305.65"/>
			<line class="st4" x1="-374.913" y1="-386.514" x2="-987.784" y2="305.593"/>
			<line class="st4" x1="-384.831" y1="-368.748" x2="-997.702" y2="323.359"/>
			<line class="st4" x1="-379.022" y1="-368.804" x2="-991.893" y2="323.303"/>
			<line class="st4" x1="-375.185" y1="-366.451" x2="-988.056" y2="325.656"/>
			<line class="st4" x1="-369.376" y1="-366.508" x2="-982.247" y2="325.599"/>
			<line class="st4" x1="-365.587" y1="-363.788" x2="-978.458" y2="328.319"/>
			<line class="st4" x1="-359.778" y1="-363.844" x2="-972.649" y2="328.263"/>
			<line class="st4" x1="-355.941" y1="-361.491" x2="-968.812" y2="330.616"/>
			<line class="st4" x1="-350.132" y1="-361.548" x2="-963.003" y2="330.559"/>
			<line class="st4" x1="-360.05" y1="-343.782" x2="-972.921" y2="348.325"/>
			<line class="st4" x1="-354.241" y1="-343.838" x2="-967.112" y2="348.268"/>
			<line class="st4" x1="-350.404" y1="-341.486" x2="-963.275" y2="350.621"/>
			<line class="st4" x1="-344.595" y1="-341.542" x2="-957.466" y2="350.565"/>
			<line class="st4" x1="-306.71" y1="-378.78" x2="-919.581" y2="313.327"/>
			<line class="st4" x1="-300.901" y1="-378.837" x2="-913.773" y2="313.27"/>
			<line class="st4" x1="-297.064" y1="-376.484" x2="-909.935" y2="315.623"/>
			<line class="st4" x1="-291.255" y1="-376.541" x2="-904.127" y2="315.566"/>
			<line class="st4" x1="-301.173" y1="-358.775" x2="-914.044" y2="333.332"/>
			<line class="st4" x1="-295.365" y1="-358.831" x2="-908.236" y2="333.276"/>
			<line class="st4" x1="-291.527" y1="-356.478" x2="-904.398" y2="335.629"/>
			<line class="st4" x1="-285.719" y1="-356.535" x2="-898.59" y2="335.572"/>
			<line class="st4" x1="-334.247" y1="-294.98" x2="-947.118" y2="397.127"/>
			<line class="st4" x1="-328.438" y1="-295.037" x2="-941.309" y2="397.07"/>
			<line class="st4" x1="-324.601" y1="-292.684" x2="-937.472" y2="399.423"/>
			<line class="st4" x1="-318.792" y1="-292.741" x2="-931.664" y2="399.366"/>
			<line class="st4" x1="-328.71" y1="-274.975" x2="-941.581" y2="417.132"/>
			<line class="st4" x1="-322.901" y1="-275.031" x2="-935.773" y2="417.076"/>
			<line class="st4" x1="-319.064" y1="-272.678" x2="-931.935" y2="419.429"/>
			<line class="st4" x1="-313.255" y1="-272.735" x2="-926.127" y2="419.372"/>
			<line class="st4" x1="-275.371" y1="-309.973" x2="-888.242" y2="382.134"/>
			<line class="st4" x1="-269.562" y1="-310.03" x2="-882.433" y2="382.077"/>
			<line class="st4" x1="-265.725" y1="-307.677" x2="-878.596" y2="384.43"/>
			<line class="st4" x1="-259.916" y1="-307.734" x2="-872.787" y2="384.373"/>
			<line class="st4" x1="-269.834" y1="-289.967" x2="-882.705" y2="402.139"/>
			<line class="st4" x1="-264.025" y1="-290.024" x2="-876.896" y2="402.083"/>
			<line class="st4" x1="-260.188" y1="-287.671" x2="-873.059" y2="404.436"/>
			<line class="st4" x1="-254.379" y1="-287.728" x2="-867.25" y2="404.379"/>
			<line class="st4" x1="-250.589" y1="-285.007" x2="-863.46" y2="407.1"/>
			<line class="st4" x1="-244.78" y1="-285.064" x2="-857.652" y2="407.043"/>
			<line class="st4" x1="-240.943" y1="-282.711" x2="-853.814" y2="409.396"/>
			<line class="st4" x1="-235.134" y1="-282.768" x2="-848.006" y2="409.339"/>
			<line class="st4" x1="-245.052" y1="-265.002" x2="-857.923" y2="427.105"/>
			<line class="st4" x1="-239.244" y1="-265.058" x2="-852.115" y2="427.049"/>
			<line class="st4" x1="-235.406" y1="-262.705" x2="-848.277" y2="429.402"/>
			<line class="st4" x1="-229.598" y1="-262.762" x2="-842.469" y2="429.345"/>
			<line class="st4" x1="-191.713" y1="-300" x2="-804.584" y2="392.107"/>
			<line class="st4" x1="-185.904" y1="-300.057" x2="-798.775" y2="392.05"/>
			<line class="st4" x1="-182.067" y1="-297.704" x2="-794.938" y2="394.403"/>
			<line class="st4" x1="-176.258" y1="-297.761" x2="-789.129" y2="394.346"/>
			<line class="st4" x1="-186.176" y1="-279.994" x2="-799.047" y2="412.112"/>
			<line class="st4" x1="-180.367" y1="-280.051" x2="-793.238" y2="412.056"/>
			<line class="st4" x1="-176.53" y1="-277.698" x2="-789.401" y2="414.409"/>
			<line class="st4" x1="-170.721" y1="-277.755" x2="-783.592" y2="414.352"/>
			<line class="st4" x1="-168.902" y1="-273.766" x2="-781.773" y2="418.341"/>
			<line class="st4" x1="-163.093" y1="-273.822" x2="-775.964" y2="418.285"/>
			<line class="st4" x1="-159.256" y1="-271.469" x2="-772.127" y2="420.638"/>
			<line class="st4" x1="-153.447" y1="-271.526" x2="-766.318" y2="420.581"/>
			<line class="st4" x1="-163.365" y1="-253.76" x2="-776.236" y2="438.347"/>
			<line class="st4" x1="-157.556" y1="-253.816" x2="-770.427" y2="438.29"/>
			<line class="st4" x1="-153.719" y1="-251.464" x2="-766.59" y2="440.643"/>
			<line class="st4" x1="-147.91" y1="-251.52" x2="-760.781" y2="440.587"/>
			<line class="st4" x1="-110.025" y1="-288.758" x2="-722.896" y2="403.348"/>
			<line class="st4" x1="-104.217" y1="-288.815" x2="-717.088" y2="403.292"/>
			<line class="st4" x1="-100.379" y1="-286.462" x2="-713.251" y2="405.645"/>
			<line class="st4" x1="-94.571" y1="-286.519" x2="-707.442" y2="405.588"/>
			<line class="st4" x1="-104.488" y1="-268.753" x2="-717.36" y2="423.354"/>
			<line class="st4" x1="-98.68" y1="-268.809" x2="-711.551" y2="423.298"/>
			<line class="st4" x1="-94.843" y1="-266.456" x2="-707.714" y2="425.65"/>
			<line class="st4" x1="-89.034" y1="-266.513" x2="-701.905" y2="425.594"/>
			<line class="st4" x1="-85.244" y1="-263.793" x2="-698.115" y2="428.314"/>
			<line class="st4" x1="-79.435" y1="-263.849" x2="-692.306" y2="428.258"/>
			<line class="st4" x1="-75.598" y1="-261.496" x2="-688.469" y2="430.611"/>
			<line class="st4" x1="-69.789" y1="-261.553" x2="-682.66" y2="430.554"/>
			<line class="st4" x1="-79.707" y1="-243.787" x2="-692.578" y2="448.32"/>
			<line class="st4" x1="-73.898" y1="-243.843" x2="-686.77" y2="448.263"/>
			<line class="st4" x1="-70.061" y1="-241.491" x2="-682.932" y2="450.616"/>
			<line class="st4" x1="-64.252" y1="-241.547" x2="-677.124" y2="450.56"/>
			<line class="st4" x1="-26.368" y1="-278.785" x2="-639.239" y2="413.321"/>
			<line class="st4" x1="-20.559" y1="-278.842" x2="-633.43" y2="413.265"/>
			<line class="st4" x1="-16.722" y1="-276.489" x2="-629.593" y2="415.618"/>
			<line class="st4" x1="-10.913" y1="-276.546" x2="-623.784" y2="415.561"/>
			<line class="st4" x1="-20.831" y1="-258.78" x2="-633.702" y2="433.327"/>
			<line class="st4" x1="-15.022" y1="-258.836" x2="-627.893" y2="433.271"/>
			<line class="st4" x1="-11.185" y1="-256.483" x2="-624.056" y2="435.623"/>
			<line class="st4" x1="-5.376" y1="-256.54" x2="-618.247" y2="435.567"/>
		</g>
	</g>
</g>
</svg>
