<?xml version="1.0" encoding="utf-8"?>
<!-- Generator: Adobe Illustrator 22.0.1, SVG Export Plug-In . SVG Version: 6.00 Build 0)  -->
<svg version="1.1" id="レイヤー_1" xmlns="http://www.w3.org/2000/svg" xmlns:xlink="http://www.w3.org/1999/xlink" x="0px"
	 y="0px" width="2160px" height="900px" viewBox="0 0 2160 900" style="enable-background:new 0 0 2160 900;" xml:space="preserve">
<style type="text/css">
	.st0{fill:#0071BC;}
</style>
<rect x="0.4" class="st0" width="14.2" height="900"/>
<rect x="17.4" class="st0" width="14.2" height="900"/>
<rect x="34.5" class="st0" width="14.2" height="900"/>
<rect x="51.5" class="st0" width="14.2" height="900"/>
<rect x="68.5" class="st0" width="14.2" height="900"/>
<rect x="85.6" class="st0" width="14.2" height="900"/>
<rect x="102.6" class="st0" width="14.2" height="900"/>
<rect x="119.6" class="st0" width="14.2" height="900"/>
<rect x="136.7" class="st0" width="14.2" height="900"/>
<rect x="153.7" class="st0" width="14.2" height="900"/>
<rect x="170.7" class="st0" width="14.2" height="900"/>
<rect x="187.8" class="st0" width="14.2" height="900"/>
<rect x="204.8" class="st0" width="14.2" height="900"/>
<rect x="221.9" class="st0" width="14.2" height="900"/>
<rect x="238.9" class="st0" width="14.2" height="900"/>
<rect x="255.9" class="st0" width="14.2" height="900"/>
<rect x="273" class="st0" width="14.2" height="900"/>
<rect x="290" class="st0" width="14.2" height="900"/>
<rect x="307" class="st0" width="14.2" height="900"/>
<rect x="324.1" class="st0" width="14.2" height="900"/>
<rect x="341.1" class="st0" width="14.2" height="900"/>
<rect x="358.1" class="st0" width="14.2" height="900"/>
<rect x="375.2" class="st0" width="14.2" height="900"/>
<rect x="392.2" class="st0" width="14.2" height="900"/>
<rect x="409.2" class="st0" width="14.2" height="900"/>
<rect x="426.3" class="st0" width="14.2" height="900"/>
<rect x="443.3" class="st0" width="14.2" height="900"/>
<rect x="460.3" class="st0" width="14.2" height="900"/>
<rect x="477.4" class="st0" width="14.2" height="900"/>
<rect x="494.4" class="st0" width="14.2" height="900"/>
<rect x="511.4" class="st0" width="14.2" height="900"/>
<rect x="528.5" class="st0" width="14.2" height="900"/>
<rect x="545.5" class="st0" width="14.2" height="900"/>
<rect x="562.5" class="st0" width="14.2" height="900"/>
<rect x="579.6" class="st0" width="14.2" height="900"/>
<rect x="596.6" class="st0" width="14.2" height="900"/>
<rect x="613.6" class="st0" width="14.2" height="900"/>
<rect x="630.7" class="st0" width="14.2" height="900"/>
<rect x="647.7" class="st0" width="14.2" height="900"/>
<rect x="664.8" class="st0" width="14.2" height="900"/>
<rect x="681.8" class="st0" width="14.2" height="900"/>
<rect x="698.8" class="st0" width="14.2" height="900"/>
<rect x="715.9" class="st0" width="14.2" height="900"/>
<rect x="732.9" class="st0" width="14.2" height="900"/>
<rect x="749.9" class="st0" width="14.2" height="900"/>
<rect x="767" class="st0" width="14.2" height="900"/>
<rect x="784" class="st0" width="14.2" height="900"/>
<rect x="801" class="st0" width="14.2" height="900"/>
<rect x="818.1" class="st0" width="14.2" height="900"/>
<rect x="835.1" class="st0" width="14.2" height="900"/>
<rect x="852.1" class="st0" width="14.2" height="900"/>
<rect x="869.2" class="st0" width="14.2" height="900"/>
<rect x="886.2" class="st0" width="14.2" height="900"/>
<rect x="903.2" class="st0" width="14.2" height="900"/>
<rect x="920.3" class="st0" width="14.2" height="900"/>
<rect x="937.3" class="st0" width="14.2" height="900"/>
<rect x="954.3" class="st0" width="14.2" height="900"/>
<rect x="971.4" class="st0" width="14.2" height="900"/>
<rect x="988.4" class="st0" width="14.2" height="900"/>
<rect x="1005.4" class="st0" width="14.2" height="900"/>
<rect x="1022.5" class="st0" width="14.2" height="900"/>
<rect x="1039.5" class="st0" width="14.2" height="900"/>
<rect x="1056.5" class="st0" width="14.2" height="900"/>
<rect x="1073.6" class="st0" width="14.2" height="900"/>
<rect x="1090.6" class="st0" width="14.2" height="900"/>
<rect x="1107.7" class="st0" width="14.2" height="900"/>
<rect x="1124.7" class="st0" width="14.2" height="900"/>
<rect x="1141.7" class="st0" width="14.2" height="900"/>
<rect x="1158.8" class="st0" width="14.2" height="900"/>
<rect x="1175.8" class="st0" width="14.2" height="900"/>
<rect x="1192.8" class="st0" width="14.2" height="900"/>
<rect x="1209.9" class="st0" width="14.2" height="900"/>
<rect x="1226.9" class="st0" width="14.2" height="900"/>
<rect x="1243.9" class="st0" width="14.2" height="900"/>
<rect x="1261" class="st0" width="14.2" height="900"/>
<rect x="1278" class="st0" width="14.2" height="900"/>
<rect x="1295" class="st0" width="14.2" height="900"/>
<rect x="1312.1" class="st0" width="14.2" height="900"/>
<rect x="1329.1" class="st0" width="14.2" height="900"/>
<rect x="1346.1" class="st0" width="14.2" height="900"/>
<rect x="1363.2" class="st0" width="14.2" height="900"/>
<rect x="1380.2" class="st0" width="14.2" height="900"/>
<rect x="1397.2" class="st0" width="14.2" height="900"/>
<rect x="1414.3" class="st0" width="14.2" height="900"/>
<rect x="1431.3" class="st0" width="14.2" height="900"/>
<rect x="1448.3" class="st0" width="14.2" height="900"/>
<rect x="1465.4" class="st0" width="14.2" height="900"/>
<rect x="1482.4" class="st0" width="14.2" height="900"/>
<rect x="1499.4" class="st0" width="14.2" height="900"/>
<rect x="1516.5" class="st0" width="14.2" height="900"/>
<rect x="1533.5" class="st0" width="14.2" height="900"/>
<rect x="1550.6" class="st0" width="14.2" height="900"/>
<rect x="1567.6" class="st0" width="14.2" height="900"/>
<rect x="1584.6" class="st0" width="14.2" height="900"/>
<rect x="1601.7" class="st0" width="14.2" height="900"/>
<rect x="1618.7" class="st0" width="14.2" height="900"/>
<rect x="1635.7" class="st0" width="14.2" height="900"/>
<rect x="1652.8" class="st0" width="14.2" height="900"/>
<rect x="1669.8" class="st0" width="14.2" height="900"/>
<rect x="1686.8" class="st0" width="14.2" height="900"/>
<rect x="1703.9" class="st0" width="14.2" height="900"/>
<rect x="1720.9" class="st0" width="14.2" height="900"/>
<rect x="1737.9" class="st0" width="14.2" height="900"/>
<rect x="1755" class="st0" width="14.2" height="900"/>
<rect x="1772" class="st0" width="14.2" height="900"/>
<rect x="1789" class="st0" width="14.2" height="900"/>
<rect x="1806.1" class="st0" width="14.2" height="900"/>
<rect x="1823.1" class="st0" width="14.2" height="900"/>
<rect x="1840.1" class="st0" width="14.2" height="900"/>
<rect x="1857.2" class="st0" width="14.2" height="900"/>
<rect x="1874.2" class="st0" width="14.2" height="900"/>
<rect x="1891.2" class="st0" width="14.2" height="900"/>
<rect x="1908.3" class="st0" width="14.2" height="900"/>
<rect x="1925.3" class="st0" width="14.2" height="900"/>
<rect x="1942.4" class="st0" width="14.2" height="900"/>
<rect x="1959.4" class="st0" width="14.2" height="900"/>
<rect x="1976.4" class="st0" width="14.2" height="900"/>
<rect x="1993.5" class="st0" width="14.2" height="900"/>
<rect x="2010.5" class="st0" width="14.2" height="900"/>
<rect x="2027.5" class="st0" width="14.2" height="900"/>
<rect x="2044.6" class="st0" width="14.2" height="900"/>
<rect x="2061.6" class="st0" width="14.2" height="900"/>
<rect x="2078.6" class="st0" width="14.2" height="900"/>
<rect x="2095.7" class="st0" width="14.2" height="900"/>
<rect x="2112.7" class="st0" width="14.2" height="900"/>
<rect x="2129.7" class="st0" width="14.2" height="900"/>
<rect x="2146.8" class="st0" width="14.2" height="900"/>
</svg>
