<?xml version="1.0" encoding="UTF-8"?>
<svg width="30px" height="30px" viewBox="0 0 30 30" version="1.1" xmlns="http://www.w3.org/2000/svg" xmlns:xlink="http://www.w3.org/1999/xlink">
    <!-- Generator: Sketch 54.1 (76490) - https://sketchapp.com -->
    <title>button-brightness-inverted</title>
    <desc>Created with Sketch.</desc>
    <g id="Page-1" stroke="none" stroke-width="1" fill="none" fill-rule="evenodd">
        <path d="M14.9999963,27.0105514 C15.0468422,27.0105514 15.0819672,26.5064535 15.1053864,25.4982421 C15.1288056,24.4900306 15.1405115,22.9894596 15.1405115,20.9964841 C15.1405115,19.0035109 15.1288056,16.5064608 15.1053864,13.5052738 C15.0819672,10.5040943 15.0468422,6.99885305 14.9999963,2.98945238 C13.3372253,2.98945238 11.779867,3.30597848 10.3278689,3.93903819 C8.87587073,4.57210541 7.60538829,5.42789709 6.51639307,6.50645077 C5.42739485,7.58500444 4.56674773,8.85110886 3.93442623,10.304809 C3.32552393,11.7819559 3.02107728,13.3411397 3.02107728,14.9824206 C3.02107728,16.6471407 3.32552393,18.2063246 3.93442623,19.6600247 C4.56674773,21.1137249 5.42739485,22.3856966 6.51639307,23.4759684 C7.60538829,24.5662431 8.87587073,25.4278991 10.3278689,26.0609618 C11.779867,26.6940245 13.3372253,27.0105514 14.9999963,27.0105514 Z M15,30 C12.9390988,30 10.9953274,29.6014108 9.16862201,28.8042205 C7.34191138,28.0304772 5.74942126,26.9636648 4.3911007,25.603752 C3.03278014,24.2438392 1.96721686,22.6494824 1.19437939,20.8206305 C0.398122492,19.0152304 0,17.0691805 0,14.9824206 C0,12.9190999 0.398122492,10.97305 1.19437939,9.14419581 C1.96721686,7.3387958 3.03278014,5.75616528 4.3911007,4.39625174 C5.74942126,3.03633819 7.34191138,1.95780702 9.16862201,1.16061322 C10.9953274,0.386866071 12.9390988,0 15,0 C17.0609012,0 19.0046726,0.386866071 20.8313855,1.16061322 C22.6580909,1.95780702 24.2505817,3.03633819 25.608903,4.39625174 C26.9672169,5.75616528 28.0327794,7.3387958 28.8056206,9.14419581 C29.601881,10.97305 30,12.9190999 30,14.9824206 C30,17.0691805 29.601881,19.0152304 28.8056206,20.8206305 C28.0327794,22.6494824 26.9672169,24.2438392 25.608903,25.603752 C24.2505817,26.9636648 22.6580909,28.0304772 20.8313855,28.8042205 C19.0046726,29.6014108 17.0609012,30 15,30 Z" id="button-brightness-inverted" fill="#E5F1F6"></path>
    </g>
</svg>